<?xml version="1.0" encoding="UTF-8" standalone="no"?>
<!-- Created with Inkscape (http://www.inkscape.org/) -->

<svg
   xmlns:dc="http://purl.org/dc/elements/1.1/"
   xmlns:cc="http://creativecommons.org/ns#"
   xmlns:rdf="http://www.w3.org/1999/02/22-rdf-syntax-ns#"
   xmlns:svg="http://www.w3.org/2000/svg"
   xmlns="http://www.w3.org/2000/svg"
   xmlns:sodipodi="http://sodipodi.sourceforge.net/DTD/sodipodi-0.dtd"
   xmlns:inkscape="http://www.inkscape.org/namespaces/inkscape"
   width="84.38623mm"
   height="192.00577mm"
   viewBox="0 0 84.38623 192.00577"
   version="1.1"
   id="svg10340"
   inkscape:version="0.92.3 (2405546, 2018-03-11)"
   sodipodi:docname="compass_sword.svg">
  <defs
     id="defs10334" />
  <sodipodi:namedview
     id="base"
     pagecolor="#ffffff"
     bordercolor="#666666"
     borderopacity="1.0"
     inkscape:pageopacity="0.0"
     inkscape:pageshadow="2"
     inkscape:zoom="0.35"
     inkscape:cx="-201.95852"
     inkscape:cy="465.70268"
     inkscape:document-units="mm"
     inkscape:current-layer="layer1"
     showgrid="false"
     inkscape:window-width="1366"
     inkscape:window-height="703"
     inkscape:window-x="0"
     inkscape:window-y="0"
     inkscape:window-maximized="1" />
  <metadata
     id="metadata10337">
    <rdf:RDF>
      <cc:Work
         rdf:about="">
        <dc:format>image/svg+xml</dc:format>
        <dc:type
           rdf:resource="http://purl.org/dc/dcmitype/StillImage" />
        <dc:title></dc:title>
      </cc:Work>
    </rdf:RDF>
  </metadata>
  <g
     inkscape:label="Layer 1"
     inkscape:groupmode="layer"
     id="layer1"
     transform="translate(-48.521167,-80.044738)">
    <g
       transform="matrix(0.26458333,0,0,0.26458333,-132.06829,-65.251198)"
       id="Compass_Sword">
      <path
         d="m 826.217,1273.406 c -0.095,0 -0.618,-0.071 -1.562,-1.476 -0.647,-0.965 -1.396,-1.827 -2.117,-2.663 -1.31,-1.513 -2.545,-2.94 -3.051,-4.791 -0.359,-1.315 -1.466,-2.329 -2.095,-2.815 -2.808,-2.179 -3.929,-4.23 -3.749,-6.862 0.148,-2.214 -1.431,-3.232 -2.476,-3.907 l -0.299,-0.193 c -1.387,-0.925 -2.768,-1.859 -4.147,-2.794 l -1.104,-0.748 c -2.785,-1.885 -4.27,-4.651 -4.813,-8.971 -1.337,-10.61 0.472,-19.308 5.529,-26.587 l 0.095,-0.122 c 1.033,-1.332 1.783,-2.438 1.262,-3.5 -0.271,-0.558 -0.844,-0.902 -1.491,-0.902 -0.149,0 -0.302,0.018 -0.462,0.052 -1.202,0.258 -2.248,1.034 -2.94,1.548 -0.161,0.12 -0.304,0.229 -0.424,0.307 l -0.693,0.449 c -1.428,0.927 -2.903,1.883 -4.245,3.026 -7.877,6.719 -17.171,11.159 -28.412,13.576 -4.729,1.019 -12.688,3.012 -15.229,4.329 -0.628,0.326 -1.323,0.537 -1.928,0.646 0.09,-0.109 0.183,-0.22 0.273,-0.329 1.203,-1.432 2.542,-2.941 4.229,-4.771 1.803,-1.953 3.86,-4.692 3.784,-8.57 -0.049,-2.402 0.975,-3.483 3.529,-3.73 1.762,-0.17 3.499,-0.512 5.182,-0.84 l 1.231,-0.239 c 3.37,-0.644 6.414,-1.24 9.569,-2.047 0.365,-0.095 0.781,-0.195 1.218,-0.302 2.963,-0.721 4.435,-1.125 5.122,-1.728 0.483,-0.423 0.684,-1.052 0.525,-1.643 -0.318,-1.183 -1.588,-1.433 -3.51,-1.81 -0.383,-0.074 -0.739,-0.144 -1.002,-0.211 -1.425,-0.366 -2.896,-0.644 -4.373,-0.824 -3.244,-0.396 -5.652,-2.189 -7.578,-5.648 -0.646,-1.164 -1.348,-2.308 -2.024,-3.411 -0.873,-1.423 -1.774,-2.895 -2.537,-4.375 -0.178,-0.349 -0.321,-1.088 -0.343,-1.546 0.248,-0.075 0.627,-0.146 1.107,-0.146 0.44,0 0.756,0.063 0.891,0.117 6.943,2.775 14.236,3.564 21.29,4.327 1.91,0.206 3.823,0.413 5.732,0.659 1.031,0.132 2.091,0.199 3.149,0.199 4.284,0 8.208,-1.084 12.002,-2.131 1.184,-0.326 2.369,-0.653 3.568,-0.948 0.063,-0.017 6.298,-1.746 6.815,-4.23 0.168,-0.809 0.042,-3.143 -0.396,-9.313 -0.088,-1.243 -0.174,-2.433 -0.235,-3.425 -0.293,-4.589 -0.582,-9.19 -0.85,-13.797 -0.128,-2.201 -0.212,-4.449 -0.293,-6.625 -0.128,-3.427 -0.261,-6.97 -0.567,-10.457 -0.251,-2.83 -0.352,-5.735 -0.448,-8.547 -0.162,-4.71 -0.331,-9.58 -1.202,-14.384 -0.486,-2.69 -0.716,-5.504 -0.938,-8.224 -0.104,-1.266 -0.205,-2.524 -0.332,-3.776 l -0.087,-0.854 -0.792,-0.329 c -7.075,-2.948 -16.994,-7.744 -25.745,-11.976 -11.514,-5.565 -15.653,-7.521 -16.901,-7.61 -0.078,-0.01 -0.158,-0.01 -0.237,-0.01 -1.059,0 -1.982,0.475 -3.054,1.022 -1.49,0.765 -3.346,1.716 -6.307,1.716 -0.693,0 -1.428,-0.053 -2.182,-0.158 -7.4,-1.029 -12.977,-4.875 -16.57,-11.428 -2.087,-3.805 0.138,-11.078 3.385,-13.939 3.657,-3.223 4.91,-4.008 8.833,-4.326 0.4,-0.033 0.807,-0.049 1.216,-0.049 5.572,0 11.406,2.86 13.282,6.516 2.533,4.926 5.578,6.191 9.435,7.794 l 0.604,0.252 c 2.811,1.174 5.674,2.108 8.201,2.934 1.27,0.415 2.436,0.795 3.427,1.154 l 0.895,0.326 c 1.805,0.665 3.362,1.239 4.618,1.239 1.319,0 2.01,-0.627 2.354,-1.152 0.735,-1.121 0.72,-3.11 0.606,-6.255 -0.032,-0.941 -0.064,-1.83 -0.051,-2.561 0.014,-0.574 0.076,-1.275 0.146,-2.018 0.232,-2.552 0.498,-5.443 -0.97,-7.028 -1.231,-1.334 -4.683,-2.205 -10.209,-3.517 -1.606,-0.381 -3.123,-0.741 -4.423,-1.096 -8.236,-2.253 -15.907,-5.622 -23.45,-10.3 -8.007,-4.969 -14.67,-10.117 -20.373,-15.741 -1.683,-1.658 -3.519,-3.169 -5.292,-4.631 -0.692,-0.569 -1.385,-1.141 -2.067,-1.719 -6.116,-5.183 -11.301,-11.141 -15.993,-16.808 -6.047,-7.301 -10.848,-15.651 -15.49,-23.727 -1.021,-1.774 -2.04,-3.55 -3.072,-5.313 -2.003,-3.418 -3.689,-7.421 -5.471,-12.981 -3.608,-11.276 -5.881,-21.566 -6.94,-31.457 -0.166,-1.552 -0.347,-3.101 -0.527,-4.648 -0.729,-6.248 -1.481,-12.71 -1.226,-19.075 0.473,-11.73 1.749,-20.559 4.138,-28.621 0.396,-1.336 0.778,-2.676 1.161,-4.016 1.011,-3.54 2.057,-7.2 3.325,-10.688 2.181,-5.998 5.459,-12.183 10.316,-19.462 l 0.525,-0.794 c 1.504,-2.276 3.563,-5.396 11.191,-15.467 8.721,-11.515 18.289,-21.563 28.438,-29.87 7.511,-6.146 16.023,-13.111 25.893,-16.955 13.541,-5.273 24.783,-8.887 35.382,-11.367 4.876,-1.141 5.255,-2.047 5.193,-6.627 l -0.006,-0.533 c -0.028,-2.438 -0.082,-4.874 -0.135,-7.312 -0.183,-8.41 -0.372,-17.104 0.534,-25.625 0.566,-5.319 0.814,-10.741 1.057,-15.982 0.146,-3.172 0.296,-6.45 0.516,-9.66 0.478,-6.96 2.173,-20.265 8.158,-31.16 4.618,-8.402 5.881,-11.81 7.22,-15.416 l 0.444,-1.195 c 0.662,-1.76 3.601,-7.553 4.883,-8.454 0.78,0.218 2.729,2.097 4.526,7.063 1.054,2.914 8.521,23.45 11.128,30.45 0.121,0.327 0.255,0.652 0.389,0.98 0.319,0.777 0.62,1.514 0.72,2.205 0.604,4.305 1.064,7.92 1.346,11.574 0.368,4.832 0.698,9.668 1.029,14.504 0.438,6.398 0.891,13.015 1.426,19.52 0.239,2.9 0.66,5.813 1.065,8.629 0.318,2.2 0.647,4.478 0.884,6.712 0.55,5.198 0.934,10.517 1.304,15.657 l 0.049,0.675 c 0.228,3.161 0.902,4.672 4.504,5.841 2.545,0.827 5.144,1.621 7.655,2.389 4.008,1.225 8.152,2.49 12.148,3.912 12.265,4.367 26.377,10.178 38.048,20.17 2.544,2.18 5.231,4.248 7.831,6.248 4.724,3.636 9.606,7.396 13.668,11.868 1.1,1.212 2.083,2.509 3.123,3.882 0.585,0.771 1.169,1.542 1.772,2.296 0.721,0.896 1.428,1.806 2.135,2.713 1.799,2.312 3.658,4.7 5.718,6.88 2.55,2.7 4.275,6.045 5.946,9.278 l 0.117,0.229 c 5.12,9.908 8.858,20.807 11.43,33.313 0.173,0.833 0.416,1.629 0.65,2.399 l 0.091,0.299 c 2.729,8.998 4.272,18.918 4.863,31.218 0.144,2.946 0.226,5.953 0.306,8.86 0.108,3.922 0.222,7.978 0.479,11.971 0.522,8.118 -0.674,16.537 -3.659,25.738 -3.676,11.332 -7.334,19.674 -11.861,27.046 -1.261,2.05 -2.549,4.083 -3.837,6.115 -2.206,3.482 -4.488,7.084 -6.59,10.729 -2.231,3.869 -4.703,7.926 -8.181,11.238 -2.268,2.158 -4.4,4.496 -6.463,6.756 -1.596,1.748 -3.244,3.556 -4.928,5.248 -2.012,2.021 -4.195,3.964 -6.309,5.845 -1.016,0.904 -2.031,1.81 -3.034,2.727 l -0.148,0.136 c -0.977,0.893 -1.984,1.814 -2.952,2.767 -2.115,2.077 -4.555,3.793 -7.454,5.245 -0.93,0.465 -1.861,0.927 -2.793,1.39 -4.448,2.204 -9.048,4.483 -13.377,7.104 -7.657,4.637 -14.837,7.828 -21.949,9.755 -2.22,0.604 -4.576,0.955 -7.071,1.329 -1.231,0.185 -2.508,0.376 -3.84,0.606 l -1.263,0.218 0.07,1.28 c 0.065,1.211 0.101,2.538 0.136,3.854 0.073,2.738 0.142,5.324 0.472,6.98 0.366,1.838 2.722,1.85 3.521,1.85 0.005,0 0.01,0 0.016,0 5.174,0 16.751,-3.156 22.139,-5.243 1.714,-0.663 3.344,-1.607 3.648,-3.998 0.553,-4.318 3.699,-6.479 8.255,-8.396 3.092,-1.301 5.773,-1.771 9.512,-2.341 0.308,-0.047 0.631,-0.07 0.967,-0.07 2.244,0 4.703,1.028 6.119,2.561 0.204,0.222 0.448,0.478 0.722,0.76 1.964,2.048 5.619,5.857 5.537,9.063 -0.094,3.68 -5.298,9.663 -8.973,11.277 l -0.827,0.364 c -3.217,1.422 -5.994,2.65 -8.945,2.65 -0.333,0 -0.671,-0.015 -1.014,-0.047 -1.858,-0.174 -2.726,-0.409 -3.421,-0.599 -0.695,-0.188 -1.353,-0.366 -2.493,-0.366 -0.142,0 -0.291,0 -0.449,0.01 -1.729,0.061 -4.866,1.491 -9.827,3.842 -2.065,0.979 -4.201,1.99 -5.888,2.676 -1.354,0.554 -2.707,1.097 -4.059,1.639 -5.703,2.288 -11.6,4.655 -17.403,7.618 -0.522,0.269 -1.023,0.511 -1.499,0.74 -3.471,1.684 -6.212,3.012 -6.412,8.545 -0.227,6.291 -0.963,12.699 -1.675,18.896 -0.29,2.521 -0.579,5.04 -0.838,7.561 l -0.2,1.988 c -0.28,2.812 -0.571,5.717 -1,8.534 -1.643,10.829 -2.371,19.228 -2.227,25.672 0.049,2.234 -0.162,4.678 -0.367,7.041 -0.474,5.471 -0.883,10.194 1.96,11.913 2.843,1.718 8.759,5.29 13.78,5.824 2.707,0.288 4.928,0.422 6.986,0.422 4.885,0 8.978,-0.768 12.88,-2.411 l 0.631,-0.266 c 7.03,-2.964 14.3,-6.027 21.532,-8.791 1.998,-0.763 4.121,-1.194 6.367,-1.651 0.905,-0.186 1.811,-0.369 2.705,-0.575 0.174,-0.04 0.42,-0.048 0.684,-0.055 0.453,-0.015 1.018,-0.03 1.588,-0.229 4.657,-1.636 9.673,-2.031 14.523,-2.415 1.688,-0.134 3.436,-0.271 5.154,-0.46 1.397,-0.152 2.826,-0.228 4.369,-0.228 4.336,0 8.777,0.614 13.072,1.208 l 1.89,0.259 c 2.4,0.325 4.806,0.621 7.21,0.917 1.829,0.225 3.659,0.449 5.487,0.688 1.165,0.152 2.364,0.361 3.563,0.622 l 0.368,0.079 c 4.492,0.976 9.139,1.983 13.689,3.037 1.438,0.333 2.956,0.709 4.311,1.313 4.377,1.951 9.333,4.279 11.043,5.149 0.295,0.15 0.56,0.302 0.789,0.444 -0.146,0.01 -0.31,0.02 -0.49,0.024 -5.426,0.187 -8.055,1.437 -11.738,3.475 -3.159,1.747 -6.573,3.233 -9.874,4.671 l -2.104,0.919 c -1.61,0.711 -3.317,1.058 -5.216,1.058 -1.193,0 -2.459,-0.136 -3.869,-0.413 -6.658,-1.312 -13.82,-2.662 -21.09,-3.675 -5.2,-0.725 -10.637,-1.185 -16.62,-1.404 -1.435,-0.053 -2.858,-0.08 -4.233,-0.08 -9.175,0 -17.256,1.181 -24.707,3.609 -0.119,0.036 -0.379,0.093 -0.702,0.166 -2.759,0.625 -4.324,1.048 -4.469,2.454 -0.027,0.276 -0.03,1.219 1.108,1.735 1.75,0.794 11.012,2.121 15.191,2.412 1.8,0.126 3.642,0.188 5.475,0.188 5.283,0 10.816,-0.531 16.45,-1.581 3.75,-0.695 10.112,-1.381 13.532,-1.749 l 0.37,-0.04 c -0.054,0.061 -0.109,0.119 -0.171,0.18 -1.046,1.037 -2.93,2.77 -3.961,3.596 l -0.229,0.184 c -2.824,2.254 -5.744,4.586 -6.59,8.912 -0.242,1.239 -1.293,1.506 -3.632,1.817 l -0.251,0.034 c -1.412,0.189 -2.91,0.287 -4.453,0.287 -2.608,0 -5.427,-0.266 -8.865,-0.834 -4.71,-0.778 -9.484,-1.7 -14.104,-2.594 -3.798,-0.732 -7.724,-1.492 -11.604,-2.169 -1.531,-0.267 -3.074,-0.326 -4.566,-0.383 -1.383,-0.053 -2.688,-0.104 -3.965,-0.306 -3.08,-0.491 -6.21,-1.077 -9.236,-1.646 -2.814,-0.526 -5.728,-1.073 -8.609,-1.544 l -0.168,-0.027 c -2.641,-0.432 -6.629,-1.082 -8.805,-1.082 -0.945,0 -1.896,0.102 -2.437,0.832 -0.763,1.029 -0.472,2.502 0.096,4.804 0.094,0.379 0.183,0.739 0.249,1.056 1.589,7.563 0.714,15.159 -2.6,22.583 -1.186,2.658 -3.107,5.003 -5.145,7.485 -0.809,0.984 -1.644,2.004 -2.423,3.037 -0.683,0.902 -1.49,1.717 -2.337,2.353 -2.095,1.576 -3.378,3.55 -4.16,6.401 -0.456,1.67 -1.666,3.467 -2.942,4.372 -3.902,2.766 -5.913,6.538 -7.364,9.863 -0.065,0.149 -0.129,0.313 -0.196,0.484 -0.311,0.802 -0.558,1.35 -1.13,1.657 -0.102,0.068 -0.2,0.098 -0.278,0.098 z"
         id="path263"
         inkscape:connector-curvature="0"
         style="fill:#656668" />
      <path
         d="m 826.875,1182.97 c -0.975,0 -1.434,-0.507 -1.62,-0.809 -0.184,-0.296 -0.432,-0.915 -0.024,-1.73 0.063,-0.125 0.135,-0.266 0.214,-0.417 -0.675,0.451 -1.229,0.709 -1.81,0.709 v 0 c -0.813,0 -1.493,-0.537 -1.689,-1.338 -0.361,-1.457 -0.213,-2.999 0.41,-4.228 0.354,-0.697 0.836,-1.272 1.37,-1.774 -0.2,-0.041 -0.396,-0.105 -0.585,-0.198 -0.924,-0.448 -1.551,-1.403 -1.678,-2.557 -0.15,-1.374 0.399,-2.729 1.479,-3.664 -0.002,0 -0.004,0 -0.004,0 -0.515,0 -1.002,-0.131 -1.449,-0.39 -0.609,-0.354 -0.999,-0.946 -1.103,-1.674 -0.166,-1.174 0.454,-2.547 1.123,-3.241 0.668,-0.696 1.392,-1.32 2.12,-1.913 -0.296,0.097 -0.597,0.151 -0.905,0.151 -0.214,0 -0.425,-0.027 -0.625,-0.082 -1.06,-0.286 -1.509,-0.923 -1.698,-1.406 -0.502,-1.271 0.309,-2.574 0.959,-3.621 l 0.061,-0.097 c 0.511,-0.821 1.179,-1.386 1.864,-1.887 -0.179,0.023 -0.37,0.037 -0.573,0.037 -0.139,0 -0.284,-0.01 -0.438,-0.02 -0.99,-0.084 -1.75,-0.65 -2.032,-1.515 -0.439,-1.344 0.438,-2.896 1.438,-3.771 0.199,-0.173 0.397,-0.337 0.597,-0.492 -0.304,-0.027 -0.594,-0.12 -0.862,-0.277 -0.75,-0.435 -1.223,-1.125 -1.329,-1.941 -0.22,-1.699 1.193,-3.313 1.812,-3.926 0.031,-0.031 0.063,-0.063 0.096,-0.095 -0.032,0 -0.098,0 -0.098,0 -0.584,0 -1.119,-0.273 -1.474,-0.754 -1.25,-1.698 -0.934,-3.073 -0.459,-4.193 0.172,-0.408 0.385,-0.78 0.627,-1.125 -0.004,0 -0.009,0 -0.013,0 -0.161,0 -0.322,-0.014 -0.484,-0.041 -0.709,-0.124 -1.277,-0.557 -1.563,-1.187 -0.646,-1.416 0.384,-3.246 0.597,-3.599 0.115,-0.191 0.242,-0.37 0.377,-0.537 -0.595,-0.123 -1.079,-0.551 -1.282,-1.158 -0.438,-1.308 0.595,-3.485 1.747,-4.352 0.146,-0.111 0.315,-0.234 0.502,-0.368 -0.068,0.02 -0.138,0.037 -0.205,0.052 -0.19,0.041 -0.381,0.063 -0.561,0.063 h -0.001 c -0.873,0 -1.59,-0.497 -1.87,-1.299 -0.518,-1.471 0.694,-3.678 1.727,-4.765 -0.24,0.073 -0.472,0.109 -0.699,0.109 h -0.153 l -0.248,-0.041 c -0.729,-0.155 -1.288,-0.673 -1.496,-1.38 -0.466,-1.591 1.015,-3.697 1.474,-4.152 2.048,-2.021 4.071,-3.004 6.19,-3.004 1.007,0 2.04,0.226 3.072,0.671 0.953,0.411 1.83,0.61 2.683,0.61 1.414,0 2.78,-0.549 4.3,-1.728 2.823,-2.188 6.98,-4.687 9.079,-5.455 0.266,-0.097 0.529,-0.206 0.788,-0.313 0.814,-0.337 1.584,-0.655 2.356,-0.655 0.853,0 1.382,0.386 1.676,0.71 0.734,0.808 0.713,1.999 0.634,2.825 l -5.385,55.708 c -0.119,1.229 -0.161,3.559 -0.205,6.022 -0.215,11.936 -0.587,14.938 -2.968,14.939 h -10e-4 c -0.251,0 -0.497,-0.053 -0.733,-0.155 -1.141,-0.497 -2.601,-0.761 -4.222,-0.761 -0.788,0 -1.595,0.063 -2.397,0.187 -1.318,0.203 -2.625,0.521 -3.674,0.773 -1.225,0.303 -2.106,0.517 -2.757,0.517 z"
         id="path265"
         inkscape:connector-curvature="0"
         style="fill:#6e533b" />
      <path
         d="m 765.645,1189.573 c 0,2.375 7.5,12.5 7.5,12.5 l 17.375,4.875 -28.125,7.125 -3.625,8.875 -4.75,7 27.875,-7.125 23.25,-16.125 c 0,0 11.625,-5.984 26.125,-6.306 14.5,-0.32 21.036,7.431 21.036,7.431 l 40.964,6 c 0,0 30.055,5.491 36.5,4.875 6.444,-0.617 4.279,-3.974 8.125,-7.375 3.845,-3.402 7.834,-7.32 7.834,-7.32 0,0 -12.459,2.688 -27.959,3.07 -15.502,0.382 -27.625,-4.25 -27.625,-4.25 0,0 20.625,-7.25 38.75,-6.125 18.125,1.125 42,6 42,6 l 25.5,-11.125 c 0,0 -14.5,-12.627 -55.625,-13.501 -41.125,-0.874 -56.75,18.501 -75,17.376 -18.25,-1.125 -22.875,-9.375 -22.875,-9.375 0,0 0.5,-5.5 -11.5,-3.875 -12,1.625 -11.375,5.5 -11.375,5.5 l -10.375,4.25 c 0,0 -4.856,1.717 -17.504,1.971 -12.647,0.254 -26.496,-6.721 -26.496,-4.346 z"
         id="path267"
         inkscape:connector-curvature="0"
         style="fill:#647fa0" />
      <path
         d="m 824.706,1252.386 c -1.648,0 -3.336,-0.14 -5.017,-0.414 -4.719,-0.771 -9.91,-2.25 -12.64,-7.361 -2.129,-3.992 -3.46,-7.991 -3.847,-11.563 -0.6,-5.518 0.835,-12.472 3.411,-16.534 2.479,-3.909 3.622,-5.487 5.553,-7.681 0.202,-0.229 0.372,-0.429 0.525,-0.608 1.146,-1.349 1.598,-1.792 5.245,-3.999 4.069,-2.461 7.133,-2.915 10.095,-3.354 l 0.799,-0.12 c 1.556,-0.24 2.973,-0.356 4.331,-0.356 2.128,0 4.07,0.291 5.773,0.865 l 0.959,0.319 c 3.049,1.01 5.062,1.676 7.075,4.429 1.271,1.739 2.204,3.329 2.853,4.859 1.91,4.524 2.725,8.771 2.421,12.623 0.242,5.967 -0.972,10.885 -3.816,15.471 -5.288,8.53 -13.935,13.424 -23.72,13.424 z"
         id="path269"
         inkscape:connector-curvature="0"
         style="fill:#647fa0" />
      <path
         d="m 840.636,1062.407 c -2.813,0 -5.325,-0.143 -7.987,-0.292 -0.895,-0.051 -1.815,-0.104 -2.785,-0.151 -1.339,-0.067 -2.803,-0.1 -4.606,-0.1 h -1.761 c -7.067,0 -14.604,-0.855 -23.038,-2.616 -3.955,-0.824 -7.778,-2.326 -11.478,-3.776 -0.953,-0.375 -1.906,-0.75 -2.86,-1.112 l -1.999,-0.756 c -8.732,-3.301 -17.762,-6.712 -25.788,-12.284 -1.06,-0.736 -2.131,-1.462 -3.204,-2.188 -1.825,-1.235 -3.712,-2.515 -5.534,-3.845 -2.229,-1.625 -4.755,-3.467 -7.349,-5.012 -4.166,-2.48 -7.655,-5.563 -10.667,-9.424 -5.742,-7.361 -11.881,-14.385 -18.189,-21.528 -3.58,-4.052 -8.256,-10.668 -10.635,-16.316 -2.277,-5.405 -8.062,-21.124 -11.387,-31.76 -1.308,-4.176 -2.187,-8.846 -2.611,-13.881 -0.435,-5.146 -0.639,-10.382 -0.836,-15.445 -0.111,-2.854 -0.223,-5.711 -0.374,-8.563 -0.354,-6.646 0.802,-12.967 2.231,-19.95 1.057,-5.161 2.361,-10.345 3.624,-15.357 0.539,-2.142 1.078,-4.281 1.601,-6.427 1.82,-7.481 5.87,-13.891 9.786,-20.087 l 0.218,-0.346 c 1.728,-2.732 3.737,-5.309 5.683,-7.798 1.938,-2.482 3.941,-5.051 5.611,-7.719 4.011,-6.409 9.279,-11.688 14.375,-16.79 l 1.934,-1.939 c 0.147,-0.15 0.302,-0.296 0.455,-0.442 0.336,-0.319 0.651,-0.623 0.869,-0.928 7.175,-10.038 17.628,-16.988 26.027,-22.573 10.913,-7.258 23.511,-12.494 39.645,-16.479 5.637,-1.394 9.732,-2.197 17.771,-3.001 5.804,-0.581 9.442,-0.876 13.227,-0.876 1.756,0 3.536,0.066 5.446,0.205 9.452,0.683 18.685,1.602 27.716,5.298 3.683,1.508 7.594,2.714 11.377,3.881 3.568,1.1 7.258,2.237 10.805,3.639 5.3,2.097 10.82,4.886 16.41,8.292 11.982,7.311 21.647,14.65 29.548,22.442 9.548,9.414 16.693,18.567 21.85,27.988 0.701,1.278 1.547,2.479 2.442,3.752 1.067,1.517 2.173,3.085 3.02,4.812 2.405,4.912 4.449,9.764 6.076,14.419 3.128,8.962 6.165,18.447 7.197,27.102 0.79,6.606 1.152,17.347 1.393,24.452 0.07,2.071 0.128,3.775 0.182,4.884 0.416,8.692 -1.045,17.318 -2.447,24.723 -0.34,1.788 -0.77,3.571 -1.185,5.295 -0.405,1.681 -0.823,3.42 -1.147,5.129 -1.053,5.529 -2.937,10.549 -5.756,15.345 -1.66,2.819 -3.103,5.869 -4.495,8.818 -1.068,2.261 -2.173,4.598 -3.382,6.85 -1.406,2.614 -3.227,5.347 -5.728,8.599 -2.216,2.882 -4.543,5.744 -6.793,8.511 -1.533,1.886 -3.065,3.771 -4.576,5.674 -0.737,0.931 -1.409,1.896 -2.121,2.915 -0.6,0.859 -1.22,1.749 -1.877,2.607 -4.516,5.898 -10.399,10.34 -16.092,14.634 l -1.662,1.257 c -11.72,8.892 -22.163,15.038 -32.864,19.343 -3.09,1.244 -5.758,2.429 -8.156,3.618 -1.978,0.979 -5.979,1.506 -12.344,2.286 -2.315,0.283 -4.461,0.731 -6.729,1.206 -3.182,0.665 -6.471,1.354 -10.409,1.604 -1.974,0.116 -3.825,0.176 -5.668,0.176 z"
         id="path271"
         inkscape:connector-curvature="0"
         style="fill:#6e533b" />
      <path
         d="m 827.999,1044.923 c -3.046,-0.494 -6.093,-0.989 -9.135,-1.518 -4.255,-0.736 -8.506,-1.491 -12.757,-2.246 -2.737,-0.485 -5.476,-0.972 -8.213,-1.452 -7.211,-1.27 -14.061,-4.118 -19.812,-6.738 -1.437,-0.652 -2.761,-1.597 -4.164,-2.595 -1.067,-0.761 -2.174,-1.546 -3.356,-2.216 -7.972,-4.509 -14.838,-10.773 -21.478,-16.832 l -1.632,-1.487 c -1.65,-1.5 -3.111,-3.355 -4.524,-5.149 l -0.564,-0.718 c -7.507,-9.486 -15.281,-19.878 -21.285,-31.571 -1.768,-3.441 -3.778,-6.804 -5.724,-10.054 -1.112,-1.857 -2.263,-3.779 -3.349,-5.687 -0.577,-1.013 -1.051,-2.089 -1.552,-3.229 -0.221,-0.501 -0.44,-1.002 -0.67,-1.497 -0.622,-1.345 -1.129,-2.718 -1.666,-4.172 -0.815,-2.209 -1.659,-4.493 -2.938,-6.669 -0.762,-1.296 -0.84,-3.271 -0.915,-5.181 -0.025,-0.683 -0.054,-1.357 -0.106,-2.01 -0.269,-3.224 -0.408,-6.408 -0.419,-9.469 -0.01,-2.569 -0.021,-5.482 0.403,-8.216 0.201,-1.296 0.39,-2.595 0.576,-3.894 0.729,-5.056 1.483,-10.282 3.09,-15.193 0.154,-0.47 0.24,-0.942 0.316,-1.357 0.078,-0.425 0.151,-0.824 0.277,-1.135 3.426,-8.382 6.781,-16.571 10.185,-24.623 0.332,-0.786 0.89,-1.543 1.479,-2.345 0.239,-0.326 0.479,-0.651 0.708,-0.982 0.882,-1.277 1.786,-2.541 2.692,-3.806 1.871,-2.609 3.807,-5.31 5.502,-8.121 4.873,-8.073 11.319,-14.969 16.979,-20.798 1.744,-1.798 4.027,-4.182 6.223,-6.68 7.586,-8.64 16.145,-16.366 25.436,-22.966 9.31,-6.608 20.101,-9.869 30.354,-12.645 1.353,-0.364 2.712,-0.699 4.071,-1.033 1.406,-0.347 2.813,-0.692 4.21,-1.071 3.828,-1.039 7.896,-1.566 12.097,-1.566 1.563,0 3.18,0.072 4.805,0.217 1.277,0.111 2.588,0.278 3.854,0.44 1.88,0.239 3.823,0.487 5.772,0.575 5.163,0.229 9.759,2.193 14.623,4.271 0,0 5.32,2.271 7.918,3.377 4.434,1.889 8.864,3.775 13.289,5.681 1.017,0.438 1.991,0.997 3.023,1.588 l 0.14,0.08 c 1.913,1.093 3.841,2.164 5.767,3.234 4.523,2.518 9.203,5.119 13.598,7.955 5.396,3.482 10.503,8.017 16.075,14.269 6.531,7.327 12.831,14.687 18.724,21.877 5.577,6.807 9.775,14.493 12.479,22.845 l 0.088,0.271 c 0.423,1.312 0.859,2.666 1.535,3.939 4.5,8.488 7.025,20.522 7.47,28.113 0.45,7.686 -0.955,15.819 -2.214,21.289 -0.821,3.573 -1.282,7.235 -1.729,10.778 -0.533,4.238 -1.086,8.622 -2.259,12.782 -2.563,9.1 -5.31,17.897 -10.651,25.516 -2.157,3.075 -4.131,6.323 -6.041,9.467 -1.026,1.689 -2.054,3.38 -3.11,5.049 -0.504,0.796 -1.193,1.563 -1.86,2.304 -1.13,1.254 -2.257,2.515 -3.385,3.772 -3.316,3.704 -6.745,7.534 -10.218,11.192 -1.977,2.084 -4.332,4.174 -7.004,6.213 -1.691,1.289 -3.371,2.601 -5.052,3.912 -5.098,3.981 -10.367,8.099 -15.905,11.485 -5.982,3.659 -13.014,7.755 -20.748,10.043 -2.082,0.615 -4.328,0.979 -6.5,1.329 -0.742,0.12 -1.484,0.24 -2.225,0.37 -7.291,1.279 -16.915,2.81 -26.791,3.303 z"
         id="path273"
         inkscape:connector-curvature="0"
         style="fill:#adadaa" />
      <g
         id="g285">
        <path
           d="m 831.729,1046.99 c -4.369,-0.719 -8.744,-1.408 -13.109,-2.166 -6.994,-1.211 -13.98,-2.471 -20.973,-3.699 -7.072,-1.244 -13.687,-3.896 -20.158,-6.846 -2.719,-1.238 -5.008,-3.383 -7.633,-4.867 -8.761,-4.955 -16.009,-11.811 -23.369,-18.508 -1.961,-1.783 -3.595,-3.947 -5.25,-6.039 -7.955,-10.053 -15.55,-20.338 -21.438,-31.81 -2.752,-5.36 -6.055,-10.438 -9.041,-15.684 -0.879,-1.543 -1.529,-3.217 -2.276,-4.832 -1.625,-3.516 -2.523,-7.287 -4.539,-10.717 -1.242,-2.113 -0.998,-5.158 -1.218,-7.801 -0.264,-3.187 -0.411,-6.388 -0.424,-9.582 -0.01,-2.816 -0.008,-5.672 0.422,-8.441 1.006,-6.478 1.666,-13.032 3.722,-19.313 0.274,-0.843 0.297,-1.777 0.629,-2.591 3.362,-8.229 6.731,-16.452 10.19,-24.639 0.545,-1.293 1.521,-2.41 2.328,-3.584 2.724,-3.949 5.676,-7.756 8.148,-11.854 4.737,-7.853 10.844,-14.533 17.178,-21.058 2.102,-2.166 4.182,-4.358 6.174,-6.627 7.664,-8.729 16.181,-16.438 25.685,-23.188 9.373,-6.654 19.979,-9.931 30.813,-12.859 2.748,-0.744 5.533,-1.359 8.279,-2.105 5.719,-1.553 11.531,-1.912 17.404,-1.396 3.194,0.281 6.368,0.869 9.565,1.013 5.474,0.244 10.349,2.347 15.252,4.441 7.027,3.004 14.064,5.981 21.084,9.004 1.142,0.492 2.228,1.121 3.31,1.74 6.498,3.711 13.151,7.18 19.43,11.229 6.154,3.974 11.498,9.056 16.369,14.521 6.397,7.178 12.666,14.483 18.762,21.922 5.689,6.943 9.959,14.736 12.734,23.313 0.438,1.353 0.865,2.734 1.524,3.98 4.765,8.984 7.199,21.24 7.636,28.703 0.438,7.462 -0.843,15.585 -2.248,21.696 -1.789,7.784 -1.818,15.879 -4.004,23.629 -2.566,9.104 -5.326,18.063 -10.859,25.95 -3.268,4.658 -6.064,9.646 -9.113,14.459 -0.568,0.896 -1.293,1.703 -2.006,2.496 -4.521,5.019 -8.98,10.097 -13.629,14.994 -2.193,2.313 -4.639,4.431 -7.176,6.365 -6.938,5.289 -13.668,10.949 -21.078,15.481 -6.629,4.056 -13.523,7.957 -21.092,10.195 -2.879,0.853 -5.91,1.215 -8.883,1.736 -8.948,1.579 -17.922,2.89 -27.122,3.339 z m -2.447,-257.18 c -4.586,0.033 -8.879,1.16 -13.205,2.31 -3.781,1.004 -7.728,1.422 -11.472,2.529 -7.334,2.168 -14.741,4.342 -21.192,8.598 -5.191,3.424 -10.063,7.332 -15.103,10.988 -3.912,2.838 -7.139,6.319 -10.229,10.021 -3.414,4.092 -7.238,7.838 -10.844,11.771 -5.877,6.416 -12.293,12.354 -16.461,20.223 -1.904,3.594 -4.695,6.711 -6.953,10.129 -1.851,2.799 -3.574,5.688 -5.224,8.611 -0.868,1.543 -1.543,3.217 -2.155,4.885 -2.386,6.492 -5.093,12.9 -6.938,19.547 -1.461,5.265 -1.686,10.859 -2.752,16.251 -0.668,3.389 -0.744,6.693 -0.234,10.076 0.238,1.578 0.326,3.193 0.32,4.789 -0.024,8.596 2.525,16.506 6.494,23.99 3.492,6.59 7.047,13.153 10.838,19.573 3.978,6.73 8.183,13.332 12.469,19.871 1.351,2.06 3.601,3.539 4.89,5.625 2.571,4.162 5.992,7.515 9.586,10.664 5.207,4.566 10.455,9.136 16.055,13.193 9.148,6.631 19.012,11.934 30.305,14.065 9.08,1.716 18.127,3.625 27.24,5.154 4.656,0.779 9.506,1.681 14.117,1.17 8.453,-0.936 16.891,-2.483 25.158,-4.491 10.842,-2.634 20.317,-8.349 29.393,-14.683 1.748,-1.221 3.313,-2.697 4.988,-4.022 5.301,-4.195 10.713,-8.256 15.896,-12.593 5.916,-4.946 10.634,-11.063 15.248,-17.159 3.642,-4.812 6.468,-10.234 9.709,-15.354 5.306,-8.375 8.781,-17.461 10.595,-27.186 0.879,-4.717 1.676,-9.451 2.414,-14.191 1.205,-7.738 3.623,-25.019 3.088,-31.575 -0.533,-6.557 -2.41,-15.139 -6.545,-21.834 -0.545,-0.885 -0.832,-1.946 -1.144,-2.957 -2.856,-9.317 -7.518,-17.727 -13.598,-25.241 -6.047,-7.47 -12.498,-14.619 -18.949,-21.75 -5.021,-5.552 -10.406,-10.824 -16.822,-14.734 -12.942,-7.889 -26.549,-14.516 -40.645,-20.107 -4.113,-1.633 -8.201,-3.565 -12.488,-4.452 -5.178,-1.074 -10.557,-1.179 -15.85,-1.704 z"
           id="path275"
           inkscape:connector-curvature="0" />
        <path
           d="m 998.948,1190.465 c -1.793,-0.912 -6.881,-3.297 -11.109,-5.182 -1.447,-0.646 -3.021,-1.043 -4.572,-1.402 -4.684,-1.084 -9.381,-2.102 -14.077,-3.121 -1.218,-0.264 -2.447,-0.479 -3.683,-0.643 -4.229,-0.551 -8.465,-1.031 -12.688,-1.604 -6.535,-0.885 -13.095,-1.965 -19.683,-1.243 -6.688,0.731 -13.521,0.674 -19.998,2.946 -0.651,0.229 -1.428,0.08 -2.116,0.24 -3.103,0.715 -6.314,1.16 -9.265,2.285 -7.469,2.854 -14.84,5.969 -22.209,9.074 -6.272,2.645 -12.518,2.59 -19.153,1.885 -4.554,-0.484 -10.101,-3.76 -13.188,-5.625 -3.086,-1.865 -0.742,-10.687 -0.898,-17.754 -0.157,-7.068 0.773,-15.947 2.212,-25.424 0.532,-3.511 0.846,-7.056 1.209,-10.593 0.905,-8.846 2.198,-17.682 2.52,-26.551 0.193,-5.344 2.91,-5.9 7.127,-8.055 7.088,-3.619 14.186,-6.287 21.35,-9.205 4.847,-1.973 12.806,-6.328 15.222,-6.412 2.416,-0.084 2.176,0.576 6.18,0.951 4.004,0.375 7.385,-1.275 11.5,-3.084 4.115,-1.809 9.725,-8.277 9.832,-12.559 0.108,-4.281 -4.84,-8.894 -6.642,-10.839 -2.01,-2.174 -5.551,-3.364 -8.358,-2.936 -3.678,0.561 -6.529,1.039 -9.854,2.438 -4.151,1.746 -8.432,4.125 -9.125,9.539 -0.205,1.607 -1.235,2.256 -2.739,2.838 -7.134,2.765 -23.281,6.769 -23.742,4.455 -0.461,-2.314 -0.383,-6.991 -0.582,-10.633 4.092,-0.707 7.646,-1.043 11.043,-1.965 7.93,-2.148 15.272,-5.646 22.318,-9.912 5.166,-3.127 10.655,-5.729 16.067,-8.438 2.902,-1.452 5.512,-3.239 7.818,-5.506 0.998,-0.979 2.033,-1.924 3.064,-2.866 3.137,-2.867 6.396,-5.609 9.391,-8.617 3.881,-3.9 7.383,-8.188 11.363,-11.978 3.551,-3.383 6.024,-7.385 8.436,-11.563 3.289,-5.707 6.955,-11.193 10.404,-16.809 5.26,-8.563 8.924,-17.854 12.006,-27.355 2.76,-8.508 4.309,-17.23 3.727,-26.275 -0.447,-6.924 -0.449,-13.875 -0.783,-20.808 -0.514,-10.693 -1.805,-21.275 -4.924,-31.566 -0.258,-0.85 -0.529,-1.7 -0.709,-2.569 -2.41,-11.726 -6.068,-23.056 -11.561,-33.687 -1.762,-3.409 -3.547,-6.922 -6.297,-9.834 -2.804,-2.969 -5.213,-6.313 -7.775,-9.506 -1.662,-2.072 -3.172,-4.281 -4.953,-6.244 -6.393,-7.043 -14.467,-12.106 -21.629,-18.241 -11.336,-9.705 -24.686,-15.515 -38.502,-20.434 -6.535,-2.326 -13.24,-4.169 -19.842,-6.313 -2.83,-0.919 -3.313,-1.792 -3.512,-4.575 -0.396,-5.464 -0.781,-10.934 -1.357,-16.38 -0.539,-5.114 -1.523,-10.188 -1.945,-15.309 -0.934,-11.328 -1.592,-22.68 -2.455,-34.014 -0.299,-3.902 -0.811,-7.791 -1.354,-11.668 -0.17,-1.193 -0.756,-2.334 -1.185,-3.486 -2.594,-6.967 -9.977,-27.266 -11.123,-30.438 -1.807,-4.992 -4.188,-8.035 -6.021,-8.035 -1.834,0 -5.662,8.271 -6.09,9.408 -1.502,3.994 -2.494,7.176 -7.578,16.426 -5.082,9.25 -7.609,21.191 -8.334,31.756 -0.582,8.525 -0.662,17.1 -1.566,25.589 -1.176,11.046 -0.534,22.071 -0.407,33.104 0.051,4.475 0.241,4.731 -4.076,5.742 -12.17,2.849 -23.97,6.905 -35.576,11.428 -9.889,3.851 -18.187,10.558 -26.281,17.183 -10.604,8.678 -20.09,18.781 -28.674,30.115 -8.584,11.332 -10.187,13.959 -11.769,16.33 -4.159,6.233 -7.907,12.717 -10.473,19.77 -1.76,4.836 -3.051,9.845 -4.514,14.785 -2.802,9.453 -3.802,19.176 -4.195,28.974 -0.324,8.037 0.904,15.97 1.76,23.935 1.164,10.854 3.689,21.396 7.002,31.744 1.461,4.563 3.189,9.158 5.599,13.27 5.842,9.979 11.26,20.25 18.697,29.23 5.002,6.041 10.172,11.904 16.172,16.988 2.444,2.069 5.002,4.03 7.278,6.274 6.24,6.154 13.146,11.299 20.625,15.939 7.527,4.668 15.354,8.146 23.83,10.465 4.767,1.303 12.574,2.707 13.955,4.201 1.381,1.492 0.494,5.561 0.441,8.039 -0.054,2.584 0.442,6.889 -0.32,8.053 -0.766,1.164 -3.236,0.086 -6.174,-0.978 -2.938,-1.063 -7.375,-2.313 -11.563,-4.063 -4.188,-1.75 -6.901,-2.688 -9.313,-7.375 -2.408,-4.689 -9.779,-7.744 -15.896,-7.244 -4.412,0.359 -5.979,1.432 -9.668,4.682 -3.688,3.252 -6.16,11.22 -3.694,15.714 4.071,7.424 10.424,11.157 17.635,12.161 7.211,1.002 9.686,-2.719 11.875,-2.563 2.188,0.156 28.115,13.61 42.194,19.479 0.406,4.009 0.562,8.111 1.285,12.111 1.371,7.557 0.961,15.211 1.633,22.801 0.5,5.66 0.527,11.361 0.857,17.039 0.268,4.607 0.557,9.213 0.85,13.806 0.259,4.047 0.867,11.35 0.66,12.35 -0.209,1 -3.791,2.643 -5.752,3.127 -5.945,1.465 -11.561,3.701 -18.19,2.85 -9.015,-1.158 -18.082,-1.461 -26.673,-4.895 -0.932,-0.373 -2.887,-0.283 -3.719,0.354 -0.51,0.392 -0.16,2.418 0.248,3.215 1.381,2.687 3.115,5.187 4.584,7.828 1.933,3.472 4.56,5.879 8.662,6.379 1.408,0.173 2.814,0.437 4.189,0.789 1.156,0.297 4.014,0.644 3.396,1.185 -0.619,0.541 -3.844,1.229 -5.75,1.717 -3.176,0.813 -6.326,1.426 -9.479,2.027 -2.088,0.396 -4.174,0.856 -6.283,1.061 -3.227,0.313 -4.896,1.947 -4.83,5.193 0.061,3.084 -1.422,5.418 -3.404,7.565 -1.451,1.574 -2.881,3.166 -4.258,4.806 -0.514,0.608 -1.115,1.317 -1.344,2.196 -0.228,0.88 2.59,0.826 4.748,-0.295 2.16,-1.119 9.317,-3.004 14.869,-4.198 10.801,-2.322 20.588,-6.677 29.045,-13.89 1.479,-1.262 3.156,-2.299 4.789,-3.365 0.608,-0.396 1.715,-1.401 2.881,-1.651 1.166,-0.25 -0.707,1.985 -0.887,2.244 -5.824,8.383 -7.019,17.727 -5.775,27.588 0.508,4.041 1.9,7.592 5.434,9.981 1.752,1.187 3.5,2.375 5.262,3.55 1.041,0.69 2.236,1.286 2.136,2.805 -0.246,3.607 1.635,6.027 4.303,8.098 0.67,0.521 1.375,1.279 1.588,2.06 0.896,3.272 3.595,5.245 5.361,7.877 1.231,1.834 2.43,2.543 3.723,1.852 1.293,-0.692 1.611,-2.021 1.966,-2.834 1.577,-3.615 3.489,-6.865 6.877,-9.266 1.612,-1.144 2.975,-3.24 3.5,-5.166 0.657,-2.398 1.705,-4.179 3.637,-5.631 0.981,-0.738 1.879,-1.654 2.621,-2.638 2.672,-3.545 5.965,-6.838 7.731,-10.803 3.304,-7.4 4.4,-15.34 2.693,-23.465 -0.314,-1.504 -1.127,-3.99 -0.597,-4.709 0.531,-0.719 6.728,0.307 10.019,0.844 5.965,0.976 11.885,2.238 17.854,3.189 2.803,0.444 5.719,0.199 8.51,0.686 8.588,1.498 17.117,3.342 25.719,4.765 4.521,0.748 9.123,1.178 13.748,0.553 2.182,-0.295 4.617,-0.525 5.102,-3.002 0.767,-3.916 3.523,-6.023 6.308,-8.248 1.11,-0.892 3.065,-2.697 4.073,-3.697 0.97,-0.961 2.357,-2.994 -0.83,-2.649 -3.187,0.344 -10.161,1.075 -14.18,1.821 -7.201,1.343 -14.387,1.873 -21.561,1.371 -4.465,-0.311 -13.264,-1.637 -14.697,-2.287 -1.433,-0.649 3.244,-1.459 3.914,-1.676 9.252,-3.016 18.799,-3.816 28.441,-3.459 5.504,0.203 11.022,0.633 16.475,1.393 7.037,0.979 14.035,2.287 21.01,3.66 3.441,0.679 6.742,0.674 9.943,-0.737 4.072,-1.793 8.209,-3.5 12.094,-5.648 3.578,-1.979 5.971,-3.119 11.092,-3.295 5.111,-0.173 2.091,-2.274 0.296,-3.188 z M 895.54,1066.785 c 1.666,-3.418 7.108,-6.463 13.396,-6.824 4.594,-0.266 6.745,3.396 8.674,6.773 1.85,3.241 -0.133,5.764 -2.254,8.004 -3.813,4.026 -8.904,4.713 -13.896,5.254 -1.225,-0.143 -2.315,-0.121 -3.315,-0.416 -3.091,-0.908 -4.341,-2.572 -4.218,-5.879 0.058,-1.556 -0.053,-3.496 1.613,-6.912 z m -136.019,19.471 c -3.354,-0.201 -8.297,-2.93 -10.504,-5.213 -2.207,-2.283 -2.729,-4.518 -2.139,-7.986 0.639,-3.737 1.896,-5.41 3.979,-7.006 2.081,-1.596 6.723,-3.1 11.034,-0.912 4.313,2.188 6.769,6.601 6.791,12.205 0.024,5.607 -5.806,9.113 -9.161,8.912 z m 53.431,-321.344 c 0.649,-13.16 1.18,-26.318 1.172,-39.506 -0.004,-7.803 0.963,-15.604 1.522,-23.404 0.103,-1.41 0.662,-5.138 2.076,-10.268 1.416,-5.129 8.873,-20.154 9.9,-22.367 1.027,-2.213 3.473,-9.49 5.111,-9.162 1.639,0.329 9.143,20.506 12.344,30.859 1.604,5.188 2.211,9.721 2.711,17.303 0.5,7.584 1.748,27.02 2.615,34.256 0.719,5.993 1.043,12.034 1.479,18.059 0.281,3.86 1.238,10.299 0.445,11.426 -0.793,1.127 -4.805,0.045 -7.063,-0.066 -2.02,-0.1 -4.532,-0.385 -5.625,-1.026 -1.092,-0.641 -0.604,-6.495 -0.289,-9.831 0.302,-3.168 0.373,-6.363 0.435,-9.551 0.059,-3.168 -0.088,-6.342 -0.031,-9.511 0.136,-7.668 -0.19,-15.286 -1.602,-22.854 -0.65,-3.484 -0.813,-7.06 -1.343,-10.569 -0.18,-1.195 -0.668,-2.4 -1.262,-3.462 -1.084,-1.934 -3.502,-1.951 -4.688,-0.086 -0.369,0.578 -0.564,1.296 -0.72,1.978 -1.407,6.226 -2.918,12.431 -4.135,18.693 -0.707,3.646 -1.111,7.377 -1.348,11.09 -0.465,7.274 -0.869,14.552 -1.271,21.895 -0.225,4.093 -0.02,8.973 -0.684,10.95 -0.662,1.979 -1.271,2.202 -4.688,2.536 -3.417,0.333 -4.395,0.327 -5.188,-0.464 -0.793,-0.791 0.008,-4.488 0.127,-6.918 z m 20.504,-10.023 c 0.896,-0.286 2.463,-2.391 3.016,-1.913 0.554,0.479 0.326,1.038 0.328,1.941 0.004,0.788 -1.807,1.752 -3.059,2.712 -1.25,0.96 -2.113,2.917 -0.617,3.021 1.496,0.104 3.586,-3.22 3.457,-1.168 -0.127,2.053 -1.279,2.155 -1.75,2.842 -0.688,0.933 -2.168,1.9 -1.851,2.843 0.318,0.942 1.943,-0.246 2.351,0.504 0.408,0.75 -1.023,1.991 -1.252,2.269 -1.457,1.767 1.137,1.646 2.17,2.732 1.033,1.086 -9.293,1.417 -10.125,0.083 -0.834,-1.334 0.307,-14.785 0.764,-22.315 0.312,-5.139 0.832,-10.265 1.037,-15.403 0.183,-4.513 0.986,-7.472 2.469,-9.896 1.484,-2.424 4.183,-6.055 4.313,-5 0.133,1.056 0.031,1.97 -0.688,3.375 -0.719,1.406 -0.875,1.614 -1.563,2.906 -0.688,1.292 -0.72,2.813 0.125,2.063 0.844,-0.75 2.188,-1.438 2.813,-1.22 0.625,0.22 0.563,1.375 0.313,2.188 -0.25,0.813 -1.438,1.209 -2.281,2.344 -0.843,1.135 -1.75,2.5 -0.898,3.024 0.851,0.523 2.773,-3.182 3.431,-2.432 0.658,0.75 0.369,1.81 -0.193,2.746 -0.562,0.938 -1.703,1.842 -2.438,3.056 -0.779,1.279 -1.685,2.521 -1.097,3.063 0.589,0.543 1.927,-0.457 2.875,-1.75 0.949,-1.293 1.636,-0.615 1.464,1.031 -0.078,0.745 -1.365,1.818 -2.4,2.844 -1.25,1.238 -2.066,2.33 -1.459,2.896 1.111,1.035 3.156,-2.668 3.875,-1.354 0.176,0.321 0.379,1.009 0.1,1.823 -0.279,0.813 -3.475,2.56 -3.736,3.289 -0.301,0.842 -0.106,1.992 0.867,1.347 0.973,-0.645 2.351,-1.876 2.957,-2.041 0.609,-0.165 0.021,1.938 -0.313,2.532 -0.75,1.344 -2.594,2.207 -3,2.507 -1.534,1.131 -0.9,2.797 -0.005,2.511 z m -1.469,-41.813 c 0.282,-0.879 0.625,-2.625 1.188,-2.688 0.563,-0.063 0.642,1.003 0.863,2.503 0.225,1.5 0.229,2.186 -1.332,4.092 -1.561,1.905 -1.002,-3.028 -0.719,-3.907 z m -45.357,339.942 c -9.475,-3.596 -19,-6.991 -27.477,-12.877 -2.884,-2.004 -5.855,-3.93 -8.711,-6.014 -2.433,-1.773 -4.88,-3.549 -7.461,-5.086 -4.013,-2.389 -7.347,-5.326 -10.269,-9.072 -5.793,-7.426 -12.008,-14.531 -18.246,-21.596 -3.803,-4.305 -8.231,-10.808 -10.387,-15.922 -2.155,-5.115 -7.949,-20.787 -11.34,-31.631 -1.367,-4.369 -2.164,-9.002 -2.551,-13.572 -0.673,-7.965 -0.783,-15.978 -1.207,-23.963 -0.354,-6.659 0.887,-13.147 2.205,-19.585 1.491,-7.295 3.45,-14.494 5.213,-21.732 1.797,-7.389 5.854,-13.723 9.821,-20.004 3.41,-5.398 7.91,-10.111 11.298,-15.521 4.418,-7.061 10.346,-12.666 16.108,-18.479 0.502,-0.506 1.064,-0.973 1.476,-1.547 6.766,-9.467 16.182,-15.914 25.651,-22.211 11.976,-7.963 25.316,-12.854 39.193,-16.28 5.7,-1.409 9.651,-2.175 17.567,-2.967 7.916,-0.792 12.287,-1.11 18.427,-0.667 9.141,0.66 18.422,1.57 27.272,5.193 7.217,2.955 14.939,4.658 22.197,7.525 5.604,2.216 11.037,5.042 16.189,8.183 10.5,6.404 20.518,13.589 29.286,22.238 8.367,8.25 15.902,17.248 21.599,27.654 1.613,2.944 3.961,5.506 5.432,8.506 2.266,4.627 4.311,9.396 6.01,14.26 3.052,8.74 6.109,18.269 7.127,26.797 1.021,8.527 1.336,24.448 1.564,29.233 0.395,8.238 -0.898,16.334 -2.424,24.387 -0.664,3.496 -1.666,6.926 -2.332,10.422 -1.008,5.295 -2.82,10.188 -5.582,14.883 -2.969,5.044 -5.131,10.554 -7.904,15.72 -1.588,2.951 -3.551,5.735 -5.6,8.399 -3.688,4.797 -7.596,9.427 -11.355,14.168 -1.416,1.785 -2.627,3.73 -4.014,5.541 -4.828,6.31 -11.289,10.923 -17.48,15.619 -10.045,7.621 -20.723,14.404 -32.53,19.154 -2.793,1.125 -5.563,2.326 -8.261,3.664 -1.807,0.895 -6.186,1.449 -11.879,2.146 -5.69,0.697 -10.471,2.384 -17.055,2.802 -6.582,0.416 -10.588,0.026 -16.271,-0.261 -1.959,-0.1 -3.927,-0.108 -5.888,-0.098 -7.867,0.051 -15.649,-0.988 -23.297,-2.584 -4.825,-1.007 -9.46,-3.058 -14.114,-4.825 z m 53.91,13.308 c 0.619,-1.551 2.383,-1.344 7.787,-1.875 5.405,-0.531 7.004,-0.625 8.481,-0.129 1.479,0.494 0.545,4.514 0.664,5.885 0.228,2.631 0.236,3.813 0.492,6.439 0.209,2.155 -0.354,3.771 -2.455,4.772 -4.479,2.137 -15.137,8.664 -15.143,5.947 -0.006,-2.717 0,-7.379 0,-11.625 0.002,-3.107 -0.445,-7.861 0.174,-9.414 z m -3,8.125 c 0.918,-0.646 0.646,1.5 0.041,3.041 -0.58,1.486 -5.586,4.951 -5.668,6.494 -0.058,1.035 3.522,-1.254 5.043,-1.451 0.742,-0.098 0.271,1.465 0.043,1.916 -0.639,1.264 -5.756,4.801 -5.918,5.791 -0.16,0.99 1.43,0.686 2.584,0.334 1.154,-0.35 2.502,-1.33 3.156,-2.496 0.479,-0.859 0.918,0.684 0.541,1.666 -0.433,1.123 -0.507,0.875 -2.697,1.955 -2.191,1.082 -2.094,1.535 -3.308,1.188 -2.192,-0.627 -5.448,-1.771 -6.192,-2.479 -0.744,-0.708 0.014,-8.516 -0.104,-12.941 -0.11,-4.238 -0.516,-11.115 0.521,-12.1 1.037,-0.984 9.125,-0.875 10.625,-0.375 1.5,0.5 -4.041,2.541 -3.75,4.5 0.293,1.957 4.209,-1.375 4.75,-0.918 0.543,0.459 0.057,2.434 -0.832,3.541 -1.283,1.602 -3.592,3.275 -3.625,4.543 -0.062,2.145 3.872,-1.564 4.79,-2.209 z m -15.166,14.543 c -0.519,1.357 -11.432,-2.559 -16.764,-5.021 -1.271,-0.586 -2.107,-1.321 -2.177,-2.709 -0.153,-3.104 -0.184,-6.203 -0.08,-9.346 0.104,-3.143 -0.227,-8.031 0.896,-8.799 1.119,-0.768 6.506,-0.045 9.783,0.33 2.762,0.316 6.842,0.336 8.092,1.627 1.25,1.293 0.81,7.545 0.578,11.668 -0.24,4.256 0.191,10.893 -0.328,12.25 z m -26.582,6.422 c -8.187,-3.543 -21.725,-8.871 -22.647,-10.777 -0.925,-1.907 -1.438,-6.563 -0.188,-7.938 1.25,-1.375 4.781,0.461 6.578,1.078 7.905,2.711 13.91,4.811 21.801,7.565 1.174,0.41 2.349,0.851 3.455,1.412 8.135,4.136 17.221,5.634 25.529,9.269 1.422,0.623 2.377,-0.078 3.471,-0.621 8.76,-4.349 17.533,-8.672 26.275,-13.056 6.522,-3.27 12.141,-4.416 18.225,-5.813 6.084,-1.398 10.584,-3.916 11.428,-2.557 0.845,1.36 1.193,4.502 1.593,6.819 0.396,2.318 -6.687,3.734 -23.771,10.234 -17.082,6.5 -33.969,16.705 -37.416,16.918 -3.448,0.213 -23.04,-7.642 -34.333,-12.533 z m 23.654,17.691 c 2.118,-2.095 4.551,-3.386 7.68,-2.035 3.053,1.317 5.69,0.828 8.437,-1.301 2.788,-2.162 6.786,-4.543 8.69,-5.24 1.904,-0.697 3.822,-2.008 3.525,1.076 -0.3,3.084 -1.281,13.256 -1.97,20.36 -1.098,11.353 -2.137,22.103 -3.416,35.347 -0.426,4.401 0.125,20.512 -1.896,19.627 -2.023,-0.884 -4.746,-1.091 -7.416,-0.679 -3.799,0.584 -7.148,1.986 -6.563,0.81 0.588,-1.177 2.152,-3.851 1.375,-4.246 -0.774,-0.398 -4.25,3.438 -4.551,2.215 -0.303,-1.221 -0.125,-2.4 0.297,-3.232 0.494,-0.971 1.349,-1.674 2.271,-2.338 1.416,-1.022 3.858,-2.207 3.664,-3.652 -0.195,-1.442 -1.324,-0.432 -2.384,0.191 -1.057,0.625 -2.293,2.426 -3.422,1.879 -1.129,-0.549 -1.313,-2.701 0.217,-3.92 0.56,-0.443 1.111,-0.91 1.591,-1.434 1.057,-1.16 3.178,-2.16 2.774,-3.152 -0.401,-0.99 -1.5,-0.393 -2.891,0.799 -1.393,1.191 -2.398,1.637 -3.254,1.146 -0.854,-0.494 -0.18,-2.127 0.342,-2.67 1.459,-1.521 3.252,-2.709 4.838,-4.115 0.717,-0.637 2.979,-2.697 1.07,-2.965 -1.908,-0.271 -4.5,3.25 -5.98,2.85 -1.479,-0.399 -0.561,-1.801 0.168,-2.975 0.73,-1.177 1.98,-1.722 3.236,-2.767 1.066,-0.887 3.014,-2.483 2.537,-3.168 -0.477,-0.684 -2.35,0.224 -3.266,0.789 -0.916,0.568 -1.383,1.197 -2.758,1.082 -1.373,-0.117 -0.859,-1.811 0.233,-2.766 1.478,-1.287 3.019,-2.031 4.461,-3.353 1.443,-1.321 2.402,-3.102 1.367,-3.258 -1.035,-0.158 -1.984,0.57 -2.894,1.224 -1.516,1.09 -2.563,2.788 -3.426,2.286 -1.383,-0.801 -0.223,-2.61 0.773,-3.602 1.26,-1.254 2.699,-2.33 3.965,-3.58 0.689,-0.684 3.355,-2.652 0.799,-2.813 -2.559,-0.157 -5.262,4.804 -6.094,3.673 -0.832,-1.132 -0.654,-1.927 -0.293,-2.779 0.6,-1.424 1.898,-2.355 3.143,-3.334 1.154,-0.908 3.65,-2.762 2.717,-3.283 -0.933,-0.521 -2.62,0.732 -3.646,1.613 -1.025,0.879 -2.068,2.047 -3.164,1.856 -1.096,-0.191 -0.373,-1.971 0.021,-2.62 0.741,-1.228 2.258,-1.857 3.537,-2.892 1.961,-1.584 4.407,-3.883 2.625,-3.5 -1.781,0.381 -4.89,2.767 -6.25,3.563 -1.359,0.797 -0.572,-1.959 0.563,-2.813 1.137,-0.854 3.629,-2.506 5.313,-4.063 1.685,-1.56 3.08,-2.687 1.15,-2.933 -1.93,-0.245 -5.588,3.744 -7.334,4.119 -1.746,0.377 -0.334,-2.854 0.889,-3.832 1.392,-1.112 2.875,-2.121 4.177,-3.328 0.543,-0.504 2.657,-1.694 1.057,-2.34 -1.6,-0.646 -6.188,3.813 -7.322,3.568 -1.136,-0.237 0.18,-2.591 0.688,-3.095 z m 9.824,79.907 c -2.351,0.615 -3.396,3.179 -4.625,3.23 -1.229,0.052 -0.406,-2.58 0.418,-3.912 1.588,-2.563 4.637,-4.6 3.645,-5.256 -1.506,-0.998 -3.166,0.771 -4.316,1.174 -1.147,0.404 -1.141,-1.633 -0.828,-2.32 0.313,-0.687 1.556,-1.112 2.621,-1.381 2.914,-0.731 5.916,-1.399 8.902,-1.488 3.584,-0.104 5.373,2.232 4.926,5.865 -0.367,2.984 -0.805,8.816 -1.469,9.34 -0.664,0.521 -10.814,0.666 -11.801,0.25 -0.984,-0.416 1.174,-1.752 2.611,-3.021 1.436,-1.272 2.264,-3.097 -0.084,-2.481 z m -35.076,20.379 c -4.351,3.4 -8.998,6.146 -13.933,8.338 -4.977,2.212 -10.57,3.041 -15.895,4.466 -1.885,0.504 -4.308,1.172 -5.685,1.396 -1.375,0.225 -0.653,-0.99 0.941,-2.877 1.594,-1.887 1.83,-7.182 2.559,-8.844 0.729,-1.664 4.146,-1.969 6.31,-2.08 7.065,-0.359 13.596,-2.756 20.236,-4.746 3.889,-1.166 10.77,-2.178 12.254,-1.762 1.489,0.417 -4.435,4.269 -6.787,6.109 z m -11.013,-9.743 c -5.297,-1.506 -7.741,-2.172 -9.786,-3.978 -1.591,-1.404 -6.396,-7.66 -5.543,-8.33 0.854,-0.672 7.434,1.769 11.143,2.429 10.297,1.834 20.545,2.291 30.697,-0.548 2.762,-0.772 6.953,-3.147 8.264,-3.09 1.311,0.059 0.484,6.992 -0.365,8.552 -0.947,1.735 -2.992,2.577 -7.086,3.725 -8.934,2.5 -18.002,3.889 -27.324,1.24 z m 43.714,63.364 c -0.318,1.078 -0.703,1.92 -1.396,1.229 -0.693,-0.689 -0.75,-0.938 -1.834,-2.541 -1.084,-1.604 -1.092,-2.338 0.188,-2.438 1.279,-0.1 4.688,-0.688 4.771,0.021 0.082,0.707 -1.41,2.651 -1.729,3.729 z m 1.069,-8.131 c -0.75,-0.067 -1.59,0.193 -2.307,0.496 -1.218,0.512 -1.886,0.641 -1.283,-0.865 0.631,-1.582 0.582,-1.688 -0.359,-1.705 -0.94,-0.017 -1.139,0.384 -1.62,0.728 -0.48,0.344 -1.052,0.504 -1.648,0.725 -0.102,0.037 -0.592,-0.643 -0.568,-0.663 0.441,-0.453 0.904,-1.021 1.572,-1.373 0.666,-0.355 -0.727,-1.216 0.082,-1.313 0.811,-0.1 1.586,0.264 4.543,0.041 2.955,-0.221 5.969,-0.961 8.811,-1.533 -1.71,4.69 -3.358,5.819 -7.223,5.462 z m 19.24,-20.682 c -5.972,9.629 -16.133,14.17 -27.281,12.35 -4.789,-0.783 -9.256,-2.225 -11.602,-6.619 -1.812,-3.395 -3.275,-7.256 -3.687,-11.041 -0.559,-5.141 0.738,-11.731 3.195,-15.606 2.459,-3.875 3.541,-5.369 5.418,-7.5 1.516,-1.722 1.264,-1.804 5.436,-4.327 4.172,-2.523 7.15,-2.79 10.365,-3.282 1.937,-0.299 5.844,-0.759 9.428,0.449 3.582,1.208 5.408,1.604 7.332,4.233 1.039,1.423 2.004,2.955 2.688,4.57 1.68,3.979 2.631,8.133 2.305,12.033 0.241,5.586 -0.863,10.336 -3.597,14.74 z m 71.814,-29.763 c 5.811,-0.065 11.608,-1.299 17.409,-2.021 1.031,-0.127 5.748,-1.277 4.279,0.066 -1.469,1.343 -6.508,5.254 -7.525,9.17 -0.133,0.512 -0.934,1.067 -1.516,1.201 -1.896,0.432 -3.877,1.106 -5.742,0.907 -4.938,-0.522 -9.822,-1.526 -14.748,-2.205 -8.602,-1.186 -16.955,-3.938 -25.727,-4.051 -0.888,-0.012 -1.814,-0.039 -2.652,-0.293 -6.528,-1.981 -13.371,-1.774 -20.01,-2.944 -3.308,-0.584 -6.553,-1.574 -9.769,-2.568 -0.534,-0.166 -2.188,-0.967 -2.453,-1.701 -0.265,-0.733 0.845,-0.44 2.078,-0.301 1.234,0.14 10.822,1.037 16.681,1.36 1.942,0.107 3.967,0.054 5.854,-0.368 5.533,-1.236 11.053,-0.97 16.383,0.534 9.013,2.542 18.218,3.319 27.458,3.214 z m 73.344,-16.487 c -3.345,0.844 -12.339,5.416 -18.63,8.184 -2.391,1.053 -4.901,1.293 -7.715,0.515 -9.271,-2.568 -18.807,-3.646 -28.412,-4.146 -4.789,-0.248 -9.584,-1.123 -14.35,-0.957 -8.514,0.299 -17.152,0.439 -25.242,3.566 -4.936,1.905 -10.088,1.483 -15.125,2.201 -4.197,0.598 -8.453,0.977 -12.69,1.055 -6.222,0.115 -12.447,-0.228 -18.375,-2.397 -2.479,-0.908 -7.431,-0.33 -7.367,-2.269 0.063,-1.938 0,-3.875 0.25,-5.625 0.25,-1.75 4.981,1.289 7.576,2.59 2.594,1.304 9.237,2.785 16.088,2.144 8.705,-0.818 16.442,-4.189 24.334,-7.347 1.815,-0.727 3.582,-1.577 5.381,-2.35 4.428,-1.896 8.894,-3.646 13.81,-3.834 1.049,-0.039 2.1,-0.342 3.122,-0.617 11.89,-3.184 23.89,-3.164 35.988,-1.471 4.922,0.688 9.979,0.584 14.83,1.562 7.455,1.504 15.068,2.623 21.996,6.114 1.547,0.777 7.875,2.238 4.531,3.082 z"
           id="path277"
           inkscape:connector-curvature="0" />
        <path
           d="m 757.706,1081.014 c -2.494,0.211 -3.599,-0.729 -4.725,-1.771 -1.679,-1.553 -3.396,-3.328 -2.746,-5.918 0.655,-2.615 2.709,-4.045 5.114,-4.912 1.701,-0.613 6.41,1.756 7.672,3.723 1.011,1.576 0.65,4.476 -1.135,6.312 -1.323,1.363 -1.686,2.355 -4.18,2.566 z m 2.689,-6.813 c -0.375,-1.688 -2.896,-1.967 -3.996,-2.455 -0.343,-0.152 -1.015,0.096 -1.365,0.375 -1.104,0.883 -1.396,2.24 -0.611,3.256 0.65,0.844 1.941,1.656 2.938,1.643 0.97,-0.014 3.409,-1.131 3.034,-2.819 z"
           id="path279"
           inkscape:connector-curvature="0" />
        <path
           d="m 905.015,1075.738 c -0.393,-0.16 -1.813,-0.492 -2.952,-1.25 -2.313,-1.539 -4.019,-5.306 -0.604,-8.094 1.305,-1.066 3.807,-2.513 5.449,-3.074 0.979,-0.336 5.432,-0.697 6.676,1.022 1.785,2.468 2.152,5.515 0.758,7.484 -2.015,2.848 -4.886,4.022 -9.327,3.912 z m 4.648,-9.019 c -1.687,0.062 -3.455,0.492 -4.979,1.221 -0.703,0.337 -1.369,1.804 -1.211,2.589 0.154,0.768 1.281,1.627 2.154,1.905 2.131,0.685 4.443,-0.219 5.471,-2.143 1.026,-1.922 0.251,-3.633 -1.435,-3.572 z"
           id="path281"
           inkscape:connector-curvature="0" />
        <path
           d="m 835.131,1224.61 c -3.598,-0.815 -7.256,-1.666 -10.974,-2.556 -3.497,-0.834 -5.196,-2.312 -5.196,-4.518 0,-1.25 0.467,-2.257 1.427,-3.076 0.97,-0.828 2.525,-1.248 4.625,-1.248 2.93,0 5.392,0.496 7.315,1.476 1.939,0.988 3.979,2.664 6.064,4.982 l 1.312,1.458 -0.453,-1.907 c -0.069,-0.292 -0.323,-0.977 -1.721,-3.544 -1.216,-2.228 -1.47,-3.331 -1.47,-3.863 v -0.5 h -12.416 c -2.005,0 -3.762,0.766 -5.221,2.275 -1.455,1.507 -2.191,3.344 -2.191,5.459 0,3.725 2.039,6.318 6.111,7.725 l 10.551,2.438 c 3.59,1.09 5.334,3.006 5.334,5.857 0,1.94 -0.578,3.331 -1.768,4.247 -1.214,0.935 -3.2,1.407 -5.905,1.407 -4.42,0 -8.104,-0.9 -10.948,-2.678 -2.811,-1.754 -4.176,-3.93 -4.176,-6.649 0,-0.732 0.052,-1.36 0.152,-1.864 0.091,-0.455 0.294,-0.855 0.622,-1.225 l 1.956,-2.198 -2.573,1.431 c -0.977,0.542 -1.624,1.306 -1.926,2.267 -0.278,0.885 -0.42,1.965 -0.42,3.21 0,3.146 0.824,5.577 2.448,7.228 1.595,1.621 3.513,2.697 5.698,3.197 2.128,0.485 4.509,0.731 7.077,0.731 4.589,0 7.923,-1.103 9.909,-3.276 1.974,-2.162 2.976,-4.824 2.976,-7.914 0.004,-3.978 -2.068,-6.789 -6.219,-8.372 z"
           id="path283"
           inkscape:connector-curvature="0" />
      </g>
      <g
         id="g297">
        <path
           d="m 831.901,1033.913 c -0.13,-0.587 -0.264,-1.333 -0.395,-2.283 -0.062,-0.446 -0.217,-1.368 -0.427,-2.608 -0.621,-3.678 -1.778,-10.521 -2.245,-15.761 -0.531,-5.943 -1.884,-11.753 -3.19,-17.37 -0.798,-3.419 -1.62,-6.953 -2.239,-10.451 -1.279,-7.229 -3.077,-14.463 -4.815,-21.459 -0.681,-2.738 -1.361,-5.478 -2.014,-8.222 l -0.048,-0.199 c -0.509,-2.15 -1.142,-4.829 -3.147,-4.829 -0.212,0 -0.422,0.034 -0.626,0.104 -0.688,0.234 -2.39,1.23 -6.107,3.445 -1.723,1.025 -3.531,2.104 -4.998,2.938 -8.688,4.937 -21.357,11.254 -25.788,12.701 0.848,-2.943 4.738,-10.942 12.277,-23.742 1.576,-2.675 2.709,-5.54 3.925,-8.739 0.196,-0.521 0.521,-1.201 0.832,-1.86 0.974,-2.059 1.47,-3.176 1.188,-4.138 -0.229,-0.781 -0.487,-1.672 -8.267,-3.29 -3.26,-0.679 -6.58,-1.288 -9.792,-1.88 -3.152,-0.58 -6.411,-1.18 -9.595,-1.841 -5.93,-1.23 -12.026,-2.62 -18.642,-4.246 -5.506,-1.352 -12.182,-1.802 -17.057,-2.13 -2.126,-0.144 -3.963,-0.267 -5.12,-0.429 -0.858,-0.121 -1.383,-0.281 -1.693,-0.412 1.118,-0.582 6.44,-1.715 10.346,-2.547 1.396,-0.297 2.793,-0.594 4.104,-0.884 7.821,-1.727 15.804,-3.366 23.524,-4.952 3.451,-0.71 6.903,-1.419 10.354,-2.139 l 2.212,-0.462 c 5.354,-1.114 10.707,-2.229 16.053,-3.389 l 0.626,-0.129 c 2.372,-0.477 4.421,-0.889 4.332,-2.608 -0.03,-0.62 -0.217,-1.063 -4.541,-7.817 -0.81,-1.267 -1.592,-2.488 -2.2,-3.46 -0.817,-1.312 -1.635,-2.561 -2.435,-3.782 -3.006,-4.599 -5.603,-8.569 -7.241,-13.996 -0.266,-0.879 -0.767,-1.655 -1.208,-2.34 -0.121,-0.188 -0.288,-0.448 -0.436,-0.7 0.729,0.215 1.668,0.575 2.479,0.886 1.192,0.458 2.427,0.933 3.591,1.246 2.548,0.688 5.084,1.798 7.536,2.871 0.739,0.324 1.479,0.647 2.22,0.961 2.74,1.16 5.664,2.474 9.195,4.128 1.192,0.56 2.62,1.369 4,2.152 2.922,1.659 4.633,2.601 5.842,2.66 2.024,-10e-4 2.694,-1.64 6.007,-20.447 0.568,-3.235 1.106,-6.291 1.581,-8.695 0.33,-1.673 0.692,-3.341 1.056,-5.009 0.354,-1.628 0.708,-3.256 1.033,-4.889 l 0.805,-4.036 c 1.414,-7.082 2.875,-14.405 4.217,-21.633 0.412,-2.221 0.7,-4.479 0.979,-6.665 0.189,-1.491 0.38,-2.982 0.608,-4.468 0.344,-2.203 0.721,-3.972 1.188,-5.561 0.018,-0.063 0.083,-0.154 0.169,-0.259 0.044,0.054 0.077,0.101 0.092,0.135 0.429,1.938 0.882,3.903 1.336,5.87 1.357,5.883 2.763,11.966 3.679,17.992 0.533,3.509 1.215,7.034 1.873,10.443 1.123,5.814 2.285,11.827 2.726,17.848 0.483,6.587 3.251,21.7 4.229,23.102 0.416,0.599 1.059,0.928 1.807,0.928 0.985,0 1.949,-0.597 2.651,-1.031 l 0.251,-0.154 c 7.519,-4.499 19.515,-11.819 23.455,-14.225 l 0.76,-0.463 c 0.697,-0.427 1.281,-0.813 1.772,-1.146 -0.155,0.416 -0.33,0.854 -0.483,1.235 -0.14,0.349 -0.283,0.709 -0.426,1.076 -0.897,2.318 -6.051,16.51 -9.25,25.369 -0.229,0.638 -0.533,1.41 -0.854,2.23 -2.011,5.122 -2.767,7.241 -1.235,8.237 1.046,0.682 2.822,1.228 3.707,1.441 1.673,0.403 3.261,0.801 4.814,1.189 4.075,1.02 7.927,1.982 12.379,2.823 2.316,0.438 4.626,0.918 6.936,1.396 6.496,1.349 13.213,2.743 20.052,3.156 2.292,0.138 4.554,0.649 6.946,1.192 1.268,0.288 2.578,0.585 3.889,0.819 4.04,0.725 8.083,1.431 12.126,2.137 3.134,0.548 6.266,1.096 9.396,1.65 0.219,0.039 0.412,0.083 0.582,0.129 -0.662,0.238 -1.41,0.457 -1.759,0.559 l -0.293,0.087 c -3.91,1.155 -7.877,2.218 -11.786,3.153 -2.511,0.602 -5.021,1.208 -7.531,1.814 -8.744,2.114 -17.786,4.3 -26.726,6.191 -4.575,0.971 -12.49,2.32 -23.522,4.017 -0.586,0.091 -0.961,0.147 -1.07,0.166 -0.595,0.099 -1.079,0.489 -1.292,1.046 -0.173,0.449 -0.576,1.502 2.209,4.98 2.92,3.646 5.201,7.838 7.406,11.892 1.373,2.522 2.794,5.134 4.368,7.621 0.194,0.307 0.368,0.629 0.544,0.95 0.351,0.644 0.713,1.309 1.225,1.928 1.16,1.406 1.775,4.404 1.674,5.67 -0.989,-0.566 -2.229,-1.298 -3.602,-2.108 -3.005,-1.773 -6.745,-3.981 -9.896,-5.649 -5.908,-3.128 -21.053,-10.013 -23.336,-10.013 -2.16,0.075 -2.787,2.71 -4.045,10.221 -0.25,1.491 -0.485,2.9 -0.718,3.995 -0.473,2.236 -0.845,4.517 -1.206,6.722 -0.18,1.1 -0.358,2.199 -0.551,3.297 l -1.997,11.383 c -1.912,10.908 -3.824,21.817 -5.765,32.721 -0.986,5.547 -2.063,11.174 -3.196,16.725 -0.04,0.196 -0.088,0.464 -0.144,0.771 -0.044,0.254 -0.12,0.679 -0.214,1.147 z"
           id="path287"
           inkscape:connector-curvature="0"
           style="fill:#f2f2f2" />
        <polygon
           points="829.746,801.509 811.77,896.781 830.661,913.075 846.602,894.781 "
           id="polygon289"
           style="fill:#c12552" />
        <path
           d="m 891.583,917.752 c 1.373,-0.238 -1.125,2.371 -1.896,3.115 -1.386,1.338 -3.132,2.399 -4.681,2.68 -1.551,0.279 1.258,-2.49 2.322,-3.402 1.093,-0.936 2.882,-2.153 4.255,-2.393 z"
           id="path291"
           inkscape:connector-curvature="0" />
        <path
           d="m 942.792,913.088 c -7.172,-1.271 -14.35,-2.501 -21.521,-3.786 -3.674,-0.658 -7.309,-1.811 -11.002,-2.033 -9.116,-0.551 -17.905,-2.85 -26.807,-4.528 -6.102,-1.152 -11.078,-2.541 -17.121,-3.998 -0.965,-0.234 -2.471,-0.734 -3.262,-1.25 -0.789,-0.514 1.645,-5.959 2.66,-8.771 3.264,-9.039 8.365,-23.086 9.237,-25.34 0.871,-2.252 1.822,-4.227 1.275,-4.953 -0.549,-0.727 -1.463,0.351 -4.231,2.037 -2.771,1.689 -16.107,9.836 -24.203,14.682 -0.793,0.476 -2.216,1.494 -2.789,0.671 -0.574,-0.822 -3.433,-14.988 -3.976,-22.384 -0.705,-9.645 -3.17,-18.924 -4.61,-28.401 -1.228,-8.066 -3.269,-16.013 -5.041,-23.99 -0.156,-0.705 -0.984,-1.26 -1.502,-1.885 -0.529,0.643 -1.32,1.211 -1.537,1.946 -0.552,1.873 -0.929,3.812 -1.229,5.746 -0.569,3.689 -0.899,7.422 -1.582,11.091 -1.59,8.565 -3.315,17.104 -5.018,25.649 -0.658,3.308 -1.437,6.592 -2.091,9.9 -1.815,9.221 -4.59,28.057 -6.104,27.981 -1.514,-0.074 -6.105,-3.182 -9.301,-4.678 -3.06,-1.434 -6.137,-2.834 -9.246,-4.149 -3.281,-1.39 -6.525,-2.976 -9.941,-3.896 -3.315,-0.895 -7.711,-3.352 -8.147,-1.953 -0.438,1.4 1.448,2.949 1.969,4.668 2.152,7.125 5.971,11.943 9.834,18.125 2.154,3.447 6.496,10.023 6.523,10.59 0.028,0.566 -2.63,0.996 -3.824,1.256 -6.078,1.316 -12.166,2.578 -18.254,3.849 -11.304,2.354 -22.625,4.606 -33.896,7.094 -5.858,1.294 -13.412,2.739 -14.926,3.626 -1.516,0.887 -1.611,2.502 2.279,3.049 3.891,0.545 14.223,0.613 22.032,2.531 6.205,1.525 12.438,2.959 18.691,4.258 6.443,1.338 12.945,2.379 19.387,3.722 2.396,0.497 6.965,1.555 7.179,2.284 0.215,0.732 -1.353,3.416 -1.984,5.082 -1.139,3 -2.266,5.886 -3.818,8.521 -4.813,8.17 -15.209,26.522 -12.073,26.201 3.133,-0.32 18.717,-8.166 27.537,-13.179 3.786,-2.151 9.852,-5.928 10.856,-6.271 1.008,-0.342 1.639,2.559 1.957,3.895 2.342,9.853 5.051,19.642 6.813,29.599 1.641,9.266 4.569,18.248 5.414,27.699 0.625,7.006 2.434,16.637 2.68,18.438 0.248,1.801 0.672,4.426 1.711,5.275 1.039,0.849 1.613,-3.527 1.877,-4.814 1.139,-5.572 2.207,-11.16 3.203,-16.76 2.615,-14.697 5.18,-29.404 7.762,-44.107 0.582,-3.321 1.051,-6.67 1.748,-9.969 0.904,-4.277 1.84,-13.02 3.332,-13.072 1.492,-0.052 15.451,6.017 22.684,9.845 4.65,2.463 10.554,6.086 13.683,7.864 3.127,1.779 1.987,-5.465 -0.074,-7.965 -0.672,-0.813 -1.092,-1.83 -1.662,-2.731 -4.092,-6.464 -7.039,-13.613 -11.867,-19.642 -0.791,-0.988 -2.623,-3.572 -1.805,-3.707 0.82,-0.137 16.668,-2.502 24.656,-4.192 11.481,-2.433 22.877,-5.283 34.293,-8.017 3.979,-0.953 7.936,-2.014 11.858,-3.174 1.398,-0.414 4.521,-1.252 3.978,-2.189 -0.541,-0.945 -1.994,-1.271 -2.664,-1.39 z m -112.725,23.435 c -0.08,0.85 -1.796,-0.781 -2.195,-1.23 -2.256,-2.523 -4.463,-5.088 -6.631,-7.686 -0.574,-0.688 -0.73,-0.938 -0.179,-1.679 0.269,-0.358 0.886,-1.514 1.334,-1.526 0.449,-0.014 1.438,2.08 2.316,3.016 1.523,1.615 3.215,3.144 4.287,5.225 0.572,1.105 1.147,3.033 1.068,3.88 z m -5.22,-24.307 c 0.355,-0.209 1.045,0.063 1.326,0.316 0.279,0.256 0.545,0.634 0.463,0.792 -0.19,0.379 -0.549,0.803 -0.93,0.922 -0.625,0.195 -1.328,0.289 -3.094,0.332 -1.765,0.045 1.658,-2.024 2.235,-2.362 z m -8.164,2.581 c -1.262,0.428 -4.584,0.803 -4.514,0.205 0.068,-0.598 2.986,-2.157 4.363,-3.146 1.6,-1.15 3.959,-3.086 4.651,-3.308 0.693,-0.223 1.74,1.008 1.39,1.722 -0.351,0.712 -3.441,3.699 -5.89,4.527 z m 11.351,10.047 c 0.686,0.91 1.321,2.592 1.266,3.701 -0.057,1.107 -4.153,-3.607 -4.567,-4.625 -0.322,-0.791 -0.256,-2.744 0.28,-2.795 0.537,-0.049 2.091,2.484 3.021,3.719 z m -1.031,-5.065 c -0.039,-0.802 0.498,-1.08 0.992,-1.049 0.492,0.032 0.834,0.438 0.92,0.774 0.154,0.611 0.184,1.898 0.197,2.961 0.014,1.062 -2.068,-1.885 -2.109,-2.686 z m -12.815,-25.772 c 1.625,-8.526 3.229,-17.061 4.816,-25.596 0.873,-4.699 1.637,-9.422 2.557,-14.113 1.3,-6.617 2.746,-13.207 4.031,-19.828 0.738,-3.807 1.441,-9.338 1.912,-11.479 0.473,-2.144 1.127,-2.76 1.393,0.143 0.269,2.902 0.351,8.502 0.431,12.758 0.391,20.984 -0.58,42.041 -0.261,63.478 0.054,3.438 0.31,9.352 -0.067,10.209 -0.377,0.858 -2.664,-1.637 -3.68,-2.482 -3.003,-2.491 -5.814,-5.231 -8.931,-7.567 -2.007,-1.513 -2.646,-3.183 -2.201,-5.523 z m -10.667,-6.01 c -0.877,0.922 -3.492,-2.049 -3.091,-2.533 0.511,-0.613 2.806,-3.979 3.65,-4.121 0.844,-0.143 3.021,1.289 3.26,2.129 0.241,0.838 -2.944,3.603 -3.819,4.525 z m 5.331,-2.502 c 0.659,-0.646 1.12,-1.476 2.27,-0.869 1.148,0.606 1.127,1.984 0.857,2.625 -0.843,2 -2.55,5.35 -3.152,5.736 -0.604,0.385 -2.959,-1.771 -3.219,-2.404 -0.261,-0.633 2.581,-4.441 3.244,-5.088 z m -7.414,-5.207 c 0.52,0.568 -1.896,3.813 -2.72,3.801 -0.823,-0.014 -3.69,-2.557 -3.508,-3.332 0.183,-0.774 1.553,-2.521 2.33,-2.58 0.779,-0.059 3.377,1.543 3.898,2.111 z m -8.06,-1.105 c -0.649,-0.631 -0.963,-0.934 -1.43,-1.387 -0.392,-0.379 -0.687,-0.711 -1.586,-1.471 -0.9,-0.758 2.698,-0.281 3.133,-0.14 0.598,0.195 0.533,3.628 -0.117,2.998 z m -0.082,13.685 c -3.108,-4.959 -6.104,-9.994 -9.145,-14.996 -0.644,-1.06 -1.814,-3.973 -0.474,-3.369 1.34,0.604 6.258,6.098 9.455,9.07 4.424,4.108 8.926,8.135 13.369,12.223 0.629,0.58 1.34,1.291 1.646,1.941 0.306,0.649 -1.093,0.979 -3.736,1.348 -2.646,0.365 -4.879,1.527 -6.059,1.135 -1.177,-0.395 -3.478,-4.832 -5.056,-7.352 z m -3.457,11.924 c 1.744,-0.709 6.051,-1.594 6.678,-1.279 0.628,0.313 -2.565,2.523 -3.844,3.636 -2.485,2.166 -8.322,6.855 -7.02,6.787 1.302,-0.067 4.401,-2.027 6.27,-3.283 1.898,-1.279 3.529,-2.691 4.775,-4.129 0.955,-1.103 1.76,-2.677 2.612,-3.279 0.854,-0.605 6.49,-0.965 9.92,-1.803 2.552,-0.623 4.486,-0.183 6.238,1.707 0.941,1.016 3.1,2.653 2.969,3.409 -0.131,0.759 -5.457,5.271 -8.754,7.251 -1.307,0.785 -3.289,1.547 -4.588,1.627 -1.297,0.08 0.853,-2.703 2.523,-3.894 2.149,-1.531 4.09,-3.344 5.832,-5.406 0.227,-0.27 0.768,-0.852 0.426,-1.248 -0.342,-0.396 -1.922,-0.475 -2.242,-0.182 -3.479,3.188 -8.807,8.098 -9.867,8.933 -1.059,0.834 -2.387,2.002 -3.348,2.004 -6.043,0.011 -16.559,-0.205 -17.576,-0.254 -1.018,-0.051 -2.152,-0.315 -1.27,-1.114 0.885,-0.802 2.688,-2.442 4.225,-3.815 1.063,-0.949 2.18,-1.836 3.207,-2.82 0.977,-0.936 1.695,-2.385 2.834,-2.848 z m -8.781,1.852 c 1.148,-0.504 3.154,-1.215 3.912,-1.026 0.759,0.188 -3.112,4.129 -4.85,5.668 -1.428,1.264 -2.898,2.366 -4.32,3.497 -0.918,0.729 -2.84,0.862 -3.957,0.672 -1.114,-0.189 -0.721,-0.807 -0.073,-1.523 0.648,-0.716 2.377,-1.943 3.676,-3.197 1.625,-1.572 3.354,-3.101 5.612,-4.091 z m -7.776,1.97 c 0.444,0.42 -2.425,3.721 -4.226,5.132 -1.08,0.848 -3.5,1.84 -4.27,1.584 -0.771,-0.254 2.422,-2.643 3.654,-3.702 1.483,-1.274 4.399,-3.434 4.842,-3.014 z m -10.92,2.578 c 0.94,-0.615 3.682,-2.068 3.53,-1.181 -0.147,0.892 -1.604,2.724 -2.768,3.614 -1.068,0.818 -3.762,2.066 -4.227,1.81 -0.459,-0.255 2.118,-3.364 3.465,-4.243 z m -15.881,4.394 c -1.589,0.178 -4.398,-0.234 -3.357,-0.553 1.039,-0.318 2.426,-0.711 3.184,-0.943 0.89,-0.271 2.232,-0.764 3.441,-1.076 1.207,-0.314 -1.682,2.394 -3.268,2.572 z m 5.934,-0.449 c 0.346,-0.729 1.025,-1.842 1.799,-2.388 0.994,-0.699 4.146,-1.742 3.996,-1.113 -0.147,0.627 -1.791,2.296 -2.449,2.757 -0.772,0.539 -3.694,1.472 -3.346,0.744 z m 30.764,10.551 c -4.172,-1.002 -8.352,-1.967 -12.534,-2.918 -5.31,-1.207 -15.084,-2.918 -14.375,-3.442 0.709,-0.525 9.666,-0.42 15.313,-0.428 13.244,-0.017 26.633,0.25 40.221,-0.351 3.711,-0.164 8.959,-0.676 10.404,-0.565 1.445,0.106 -2.57,3.643 -4.127,5.403 -2.098,2.375 -4.078,4.629 -6.012,6.92 -1.457,1.726 -2.927,2.091 -5.129,1.484 -7.886,-2.162 -15.81,-4.197 -23.761,-6.103 z M 806.518,936 c -0.011,0.467 -0.728,0.826 -1.144,0.846 -0.418,0.021 -1.396,-1.313 -2.021,-1.916 -0.625,-0.603 -0.541,-0.957 0.313,-0.916 0.854,0.041 1.281,0.371 1.553,0.56 0.495,0.344 1.307,0.959 1.299,1.426 z m -8.425,-3.217 c 0.927,0.313 4.009,4.869 4.47,5.479 0.461,0.611 0.27,1.416 -0.105,1.75 -0.375,0.332 -0.637,0.263 -1.297,-0.225 -0.66,-0.484 -1.764,-1.769 -2.418,-3.148 -0.478,-1.006 -1.578,-4.168 -0.65,-3.856 z m 1.41,9.049 c 0.351,0.764 -0.391,1.799 -0.938,2.449 -0.55,0.651 -1.757,1.684 -2.517,1.457 -0.758,-0.226 -3.143,-3.295 -3.272,-4.031 -0.131,-0.736 1.924,-4.357 2.75,-4.244 0.828,0.113 3.629,3.605 3.977,4.369 z m -17.088,19.598 c -0.209,-0.479 0.396,-1.938 0.916,-2.916 0.521,-0.977 0.938,-2.543 1.729,-1.918 0.791,0.625 1.246,1.695 1.343,1.017 0.096,-0.683 -0.177,-1.744 -0.529,-2.724 -0.354,-0.979 0.106,-1.998 0.832,-2.959 0.727,-0.963 1.125,-1.432 1.885,-2.496 0.763,-1.065 2.002,-4.305 2.506,-4.551 0.506,-0.244 1.539,0.986 2.166,1.488 1.066,0.854 1.98,1.287 0.922,2.537 -0.825,0.975 -1.981,2.397 -3.444,1.428 -0.631,-0.42 -1.699,-1.053 -1.824,-0.615 -0.125,0.438 0.838,2.576 1.105,3.394 0.27,0.815 -2.169,3.245 -2.939,4.28 -0.77,1.035 -2.049,2.058 -3.021,3.076 -0.973,1.019 -1.438,1.437 -1.647,0.959 z m 30.041,-12.51 c -0.078,1.25 -1.414,1.797 -3.357,2.975 -1.942,1.179 -3.293,2.011 -5.204,2.916 -1.91,0.904 -5.675,2.826 -6.371,3.132 -0.494,0.215 -2.097,1.254 -3.479,1.975 -1.385,0.723 -7.238,3.613 -8.024,3.367 -0.787,-0.244 1.938,-2.795 2.995,-3.793 0.252,-0.238 1.859,-1.957 2.88,-2.978 1.02,-1.02 2.612,-2.727 4.405,-4.75 1.795,-2.022 3.234,-3.729 4.72,-5.656 1.485,-1.926 3.485,-3.803 4.729,-4.823 1.242,-1.021 3.172,-3.24 4.051,-2.16 0.879,1.078 1.687,2.484 2.22,4.813 0.529,2.326 0.513,3.732 0.435,4.982 z m 2.477,-10.731 c -2.166,-2.82 -2.221,-3.125 -0.045,-5.902 1.195,-1.525 3.23,-4.424 4.146,-4.352 0.916,0.069 2.393,2.649 3.598,4.168 2.408,3.034 4.729,5.985 6.838,9.08 0.949,1.391 1.033,5.143 0.955,6.532 -0.078,1.391 -2.186,-1.258 -2.604,-1.817 -2.443,-3.271 -5.879,-8.354 -6.91,-9.511 -1.031,-1.157 -3.557,-3.118 -3.955,-2.606 -0.398,0.514 0.084,1.42 0.48,1.973 3.629,5.049 7.354,10.025 11.045,15.027 0.889,1.203 1.537,2.463 1.565,4.045 0.017,0.779 0.002,1.742 -0.512,2.172 -0.515,0.43 -3.648,-4.375 -5.248,-6.479 -3.123,-4.107 -6.215,-8.238 -9.353,-12.33 z m 4.861,22.809 c -0.41,-1.168 -0.699,-2.381 -0.988,-3.588 -0.555,-2.313 -1.104,-4.627 -1.672,-7.006 -0.602,-2.531 -1.795,-6.549 -1.256,-6.892 0.539,-0.344 3.656,3.529 5.779,6.392 2.643,3.559 5.078,7.446 6.604,10.606 0.867,1.797 2.306,4.674 1.492,4.269 -0.813,-0.406 -1.487,-1.482 -2.153,-2.33 -1.24,-1.582 -2.25,-3.142 -3.361,-4.613 -0.846,-1.125 -2.953,-4.447 -3.578,-3.963 -0.625,0.484 -0.492,1.658 0.063,2.813 0.556,1.152 2.4,3.211 3.779,5.25 1.877,2.773 3.633,5.634 5.34,8.517 0.312,0.522 0.479,2.36 0.267,3.022 -0.214,0.664 -3.345,-4.541 -4.873,-6.313 -1.357,-1.57 -3.132,-3.738 -4.013,-4.353 -0.882,-0.613 -1.213,-1.192 -1.43,-1.811 z m 3.256,12.125 c -0.266,-1.719 -1.436,-5.098 -1.608,-6.094 -0.174,-0.996 0.112,-1.703 0.973,-0.472 0.859,1.234 2.559,3.648 3.811,5.492 1.267,1.863 3.515,5.367 3.429,5.984 -0.087,0.619 -4.398,-3.635 -4.906,-4.017 -0.508,-0.381 -0.701,-0.153 -0.695,-0.131 -0.043,0.072 0.189,0.963 0.953,1.767 0.764,0.801 1.264,1.694 1.851,2.616 1.135,1.783 3.196,4.875 3.229,5.474 0.032,0.598 -2.715,-1.854 -3.762,-3.08 -1.15,-1.346 -1.986,-2.75 -2.285,-3.604 -0.574,-1.63 -0.726,-2.216 -0.99,-3.935 z m 5.761,23.168 c 0.967,1.727 1.532,3.492 1.639,5.506 0.082,1.586 -0.066,4.576 -0.646,5.318 -0.58,0.742 -0.891,-3.99 -1.399,-5.785 -0.503,-1.771 -0.925,-3.449 -0.902,-5.176 0.01,-0.845 0.285,-1.984 -0.246,-2.892 -0.53,-0.906 -0.826,-2.264 -1.117,-3.528 -0.502,-2.185 -1.766,-7.23 -0.973,-6.953 0.793,0.278 1.473,1.6 1.957,2.557 0.403,0.801 0.793,1.586 1.42,2.141 0.408,0.359 1.438,0.679 1.557,1.427 0.119,0.748 0.117,4.592 0.402,5.489 0.285,0.9 -1.482,-0.813 -2.137,-1.006 -0.657,-0.193 -0.014,2.084 0.445,2.902 z m 2.034,-180.216 c -0.514,0.104 -0.561,-0.438 -0.514,-1.313 0.049,-0.875 0.016,-2.528 0.33,-2.5 0.313,0.029 0.504,1.416 0.67,2.416 0.168,1.001 0.026,1.294 -0.486,1.397 z m 31.142,72.969 c -0.67,-0.147 -6.218,-3.213 -6.438,-3.672 -0.221,-0.457 0.043,-1.416 0.873,-1.301 0.83,0.112 6.064,0.307 6.627,0.909 0.563,0.607 -0.392,4.212 -1.062,4.064 z m -8.875,1.187 c -0.886,-1.146 -0.798,-1.701 -0.148,-2.162 0.648,-0.463 1.81,0.104 2.496,0.516 2.297,1.377 4.879,1.516 5.777,2.803 0.676,0.966 0.02,3.529 -0.375,4.031 -0.394,0.502 -2.355,-0.922 -3.595,-1.844 -1.721,-1.283 -3.268,-2.199 -4.155,-3.344 z m -2.037,5.428 c -1.103,-0.562 -1.138,-5.885 -0.058,-4.865 1.08,1.021 4.47,4.094 5.75,5.406 1.282,1.312 -4.834,-0.107 -5.692,-0.541 z m 13.475,-15.646 c -0.131,1.142 -0.508,2.541 -1.188,2.438 -0.681,-0.104 -4.617,-0.117 -5.066,-0.582 -0.449,-0.465 1.394,-1.539 2.269,-2.568 0.633,-0.746 1.063,-0.631 2.627,-0.662 1.562,-0.031 1.432,0.735 1.358,1.374 z m 3.191,-7.875 c -0.457,1.422 -0.929,2.533 -1.521,3.734 -0.397,0.803 -0.575,0.908 -2.264,0.984 -1.687,0.077 -0.801,-0.949 -0.531,-1.345 0.777,-1.129 2.521,-3.02 3.349,-3.885 0.823,-0.863 1.424,-0.912 0.967,0.512 z m -6.787,-1.315 c 0.373,-0.224 1.783,-1.119 2.518,-1.515 0.734,-0.393 1.228,-0.418 0.423,0.625 -0.806,1.045 -1.97,2.336 -2.447,2.959 -3.674,4.791 -7.724,9.693 -9.396,12.039 -1.672,2.347 -3.227,5.006 -3.807,3.929 -0.58,-1.076 -2.943,-7.769 -2.324,-8.943 0.619,-1.174 10.027,-6.104 15.033,-9.094 z m -16.306,20.666 c -0.172,1.211 -4.516,-4.383 -6.512,-6.758 -2.063,-2.457 -3.959,-5.037 -5.738,-7.709 -0.313,-0.476 -0.625,-3.191 0.308,-2.72 0.934,0.476 3.629,4.56 5.465,6.519 0.961,1.026 1.642,2.707 2.791,3.104 1.967,0.681 2.621,1.881 2.906,3.23 0.301,1.426 0.955,3.123 0.78,4.334 z m -6.448,5.157 c -1.111,-1.212 -2.185,-2.455 -3.281,-3.75 -0.873,-1.029 -2.244,-1.851 -2.697,-3.189 -0.452,-1.339 1.99,0.514 2.822,1.15 1.244,0.95 4.156,4.614 5.019,5.655 0.86,1.043 1.051,1.713 0.987,2.023 -0.053,0.268 -0.682,0.666 -1.346,1.291 -0.664,0.623 -1.207,1.496 -1.629,1.805 -0.732,0.535 -1.25,-0.006 -2.636,-1.442 -0.842,-0.873 -1.848,-1.604 -2.61,-2.535 -0.363,-0.443 -1.854,-3.053 -0.729,-2.836 1.127,0.217 3.109,2.389 4.115,3.432 1.023,1.063 2.387,1.244 2.783,0.639 0.397,-0.605 -0.456,-1.87 -0.798,-2.243 z m -1.984,-7.78 c -0.903,-1.008 -1.36,-2.314 -2.979,-2.777 -0.604,-0.172 -0.863,-2.143 -0.75,-3.172 0.114,-1.029 3.745,3.211 5.315,5.053 2.047,2.402 6.103,6.216 6.367,6.963 0.266,0.746 -0.721,1.849 -1.324,1.188 -0.604,-0.658 -1.85,-2.012 -2.772,-3.018 -1.293,-1.407 -2.582,-2.815 -3.857,-4.237 z m 6.086,-8.015 c 0.197,1.412 -1.018,-0.073 -1.272,-0.348 -1.246,-1.332 -2.506,-2.656 -3.588,-4.098 -1.265,-1.683 -3.853,-4.806 -4.797,-5.601 -0.943,-0.797 -0.705,-4.27 0.055,-3.396 0.758,0.875 1.57,2.582 2.404,3.459 0.834,0.877 3.563,2.94 4.221,3.063 0.654,0.121 0.217,-1.037 -0.188,-1.709 -1.088,-1.815 -2.633,-3.026 -3.342,-4.684 -0.51,-1.197 -2.303,-1.746 -3.108,-2.799 -0.515,-0.668 -0.716,-3.187 0.231,-2.912 0.947,0.273 1.604,0.945 2.201,1.695 0.729,0.916 1.369,1.946 2.34,2.495 0.582,0.33 1.65,0.179 2.229,0.765 0.575,0.586 0.637,3.256 0.969,5.063 0.551,3.036 1.447,7.594 1.645,9.007 z m -9.395,-25.622 c 0.799,-0.112 2.664,2.166 3.879,3.33 1.395,1.334 3.522,4.982 2.492,5.188 -1.029,0.203 -2.841,-1.992 -3.941,-3.211 -1.293,-1.43 -3.232,-5.193 -2.43,-5.307 z m 4.586,0.278 c -1.037,-0.619 -1.424,-1.36 -2.039,-2.143 -0.568,-0.722 -1.459,-1.164 -2.375,-1.248 -0.914,-0.082 -1.371,-4.369 -0.664,-4.758 0.709,-0.388 3.557,1.799 4.268,2.623 0.914,1.063 1.847,6.145 0.81,5.526 z m -1.066,-9.393 c -0.989,-0.455 -3.549,-1.82 -3.813,-3.211 -0.263,-1.392 -0.097,-3.601 -0.179,-6.287 -0.084,-2.688 -0.414,-4.201 0.179,-4.924 0.592,-0.722 2.067,1.928 2.635,3.799 0.563,1.873 -1.981,2.112 -1.93,3.006 0.055,0.891 2.276,2.568 3.034,4.133 0.458,0.939 1.066,3.939 0.074,3.484 z m -2.906,-19.328 c 0.089,0.651 0.123,1.592 0.029,1.992 -0.096,0.401 -0.514,0.668 -0.92,0.19 -0.404,-0.477 -0.451,-1.256 -0.453,-1.885 -0.002,-0.344 -0.018,-0.932 0.527,-1.176 0.545,-0.244 0.781,0.61 0.817,0.879 z m -2.167,-3.711 c -0.354,-0.459 -0.146,-3.271 -0.188,-3.979 -0.041,-0.709 0.812,-0.813 1.041,0.011 0.229,0.822 0.394,3.372 0.26,3.858 -0.136,0.485 -0.761,0.569 -1.113,0.11 z m 12.477,77.526 c 1.604,-1.885 3.467,-2.342 5.688,-1.979 4.382,0.711 8.769,1.408 13.123,2.256 4.699,0.916 9.365,2 14.05,3.002 1.563,0.334 3.131,0.646 4.696,0.965 5.394,1.105 10.767,2.32 16.185,3.285 7.166,1.275 14.369,2.346 21.549,3.545 0.424,0.07 2.043,0.256 2.459,0.965 0.418,0.71 -2.836,0.585 -3.6,0.6 -7.843,0.137 -15.687,0.174 -23.525,0.385 -10.842,0.289 -21.687,0.588 -32.519,1.104 -8.151,0.39 -16.284,-0.383 -24.432,-0.137 -1.359,0.041 -4.891,-0.348 -5.43,-0.889 -0.535,-0.545 8.196,-8.921 11.756,-13.102 z m 4.051,36.688 c -2.582,13.42 -5.295,26.816 -7.848,40.242 -1.258,6.617 -2.23,13.287 -3.371,19.928 -0.744,4.318 -1.998,11.322 -2.883,12.875 -0.888,1.555 -0.354,-9.855 -0.441,-14.785 -0.205,-11.326 -0.401,-22.651 -0.496,-33.979 -0.034,-4.063 0.166,-8.131 0.39,-12.189 0.479,-8.725 -0.334,-17.402 -0.799,-26.096 -0.074,-1.4 -0.386,-4.635 0.18,-4.99 0.563,-0.357 2.84,2.232 4.229,3.557 4.224,4.037 7.691,8.05 10.689,12.482 0.496,0.738 0.531,2.012 0.35,2.955 z m 2.543,-6.978 c -0.674,-0.061 -1.899,-1.071 -2.908,-1.924 -2.131,-1.799 -3.807,-3.969 -4.295,-4.795 -0.719,-1.219 -3.313,-2.231 -3.852,-3.031 -0.539,-0.797 1.156,-2.139 1.959,-2.553 1.377,-0.713 5.201,-0.754 5.102,-0.07 -0.1,0.687 -0.909,1.339 -1.368,2.013 -0.851,1.252 -1.558,2.396 -1.294,2.752 0.406,0.547 2.041,0.137 3.103,-0.881 1.141,-1.092 2.449,-2.688 3.522,-2.979 1.076,-0.293 4.146,-0.889 4.813,-0.563 0.668,0.324 -1.297,2.012 -2.023,2.865 -0.726,0.853 -1.082,1.396 -2.039,2.354 -0.957,0.958 -1.633,1.865 -2.02,2.682 -0.387,0.818 0.363,2.414 0.957,1.675 0.594,-0.738 2.654,-2.902 3.643,-3.875 1.637,-1.613 3.533,-2.968 5.142,-4.607 1.454,-1.486 5.022,-1.438 5.243,-1.207 0.222,0.229 -1.479,1.797 -2.457,2.699 -4.135,3.815 -9.325,8.621 -9.834,9.039 -0.63,0.515 -0.717,0.464 -1.394,0.406 z m 1.363,14.462 c -0.789,0.629 0.041,-1.539 0.209,-2.104 0.391,-1.307 1.611,-3.324 2.6,-3.922 0.988,-0.6 -0.268,3.031 -0.963,4.012 -0.471,0.669 -1.057,1.384 -1.846,2.014 z m 2.834,1.036 c 0.397,-0.678 0.957,-1.733 1.475,-2.403 1.111,-1.437 1.472,-1.881 2.677,-1.234 0.557,0.299 2.393,0.896 2.371,1.609 -0.021,0.713 -2.822,3.811 -3.328,4.114 -0.504,0.306 -3.59,-1.407 -3.195,-2.086 z m 9.68,3.425 c -0.885,1.053 -1.893,0.604 -2.471,0.217 -0.576,-0.389 -0.81,-0.443 -0.853,-1.129 -0.043,-0.685 0.728,-1.068 1.281,-1.461 0.555,-0.394 0.881,-0.781 1.685,-0.742 0.969,0.047 1.196,2.117 0.358,3.115 z m 6.613,4.342 c -0.639,-0.193 -1.346,-0.42 -2.59,-1.226 -0.756,-0.487 -1.802,-1.258 -1.808,-1.774 -0.006,-0.521 0.256,-0.836 0.813,-0.813 0.557,0.023 1.629,0.379 2.246,0.941 0.616,0.561 1.547,1.621 1.858,2.08 0.315,0.458 0.12,0.984 -0.519,0.792 z m 8.606,0.404 c 0.353,1.698 -5.51,-2.98 -7.686,-4.957 -4.764,-4.328 -9.68,-8.392 -15.004,-11.988 -0.566,-0.381 -1.195,-0.504 -1.658,-1.646 -0.463,-1.142 6.549,-1.5 9.674,-2.377 1.334,-0.375 2.33,0.439 3.16,1.515 3.174,4.098 6.059,8.36 8.471,12.903 1.126,2.119 2.693,4.851 3.043,6.55 z m 34.468,-33.273 c -3.17,0.883 -6.365,1.686 -9.582,2.383 -0.734,0.16 -1.42,0.238 -3.931,0.992 -2.51,0.752 -4.543,0.633 -5.077,0.031 -0.537,-0.601 1.645,-1.688 2.709,-2.537 1.227,-0.979 2.176,-1.797 2.581,-2.625 0.406,-0.828 0.322,-1.232 -0.616,-0.937 -0.939,0.295 -3.246,1.451 -4.724,2.701 -1.051,0.89 -2.082,2.213 -3.061,3.588 -0.979,1.375 -1.131,1.543 -2.17,1.724 -5.227,0.908 -10.494,1.563 -15.73,2.422 -5.772,0.945 -11.522,2.045 -17.297,3 -1.145,0.188 -3.215,0.242 -3.84,0.026 -0.625,-0.213 2.029,-2.37 3.184,-3.383 2.982,-2.612 6.433,-4.658 9.109,-7.676 0.695,-0.783 1.533,-1.881 2.301,-2.289 0.769,-0.41 2.066,-0.359 3.625,-0.365 1.562,-0.008 3.099,-0.102 2.72,0.563 -0.378,0.664 -2.572,2.004 -3.896,3.041 -2.486,1.947 -5.707,4.889 -5.996,5.959 -0.289,1.067 0.24,1.178 0.754,0.932 0.513,-0.244 5.761,-4.111 8.613,-6.207 0.568,-0.418 2.352,-1.787 3.539,-3.021 1.188,-1.234 4.607,-1.554 5.48,-1.313 0.873,0.242 -0.789,1.824 -1.517,2.525 -0.809,0.777 -1.754,1.465 -2.662,2.279 -1.055,0.942 -3.928,3.854 -2.725,3.688 1.203,-0.164 4.074,-2.146 5.713,-3.236 1.43,-0.953 2.656,-1.969 3.678,-3.188 1.556,-1.857 3.332,-2.709 5.354,-2.803 4.959,-0.228 13.893,-0.306 15.129,-0.074 1.236,0.232 -2.432,2.781 -3.844,3.963 -0.892,0.748 -1.123,1.91 -0.045,1.676 1.078,-0.233 2.418,-1.221 3.575,-1.899 1.486,-0.875 2.914,-1.828 3.675,-3.605 0.166,-0.389 1.264,-0.531 1.926,-0.523 1.666,0.025 4.461,-0.155 4.994,0.296 0.533,0.452 -1.297,1.438 -1.515,2.268 -0.145,0.557 0.181,0.686 0.767,0.482 0.588,-0.205 2.951,-1.978 4.334,-2.666 0.869,-0.435 1.793,-0.716 2.492,-0.156 0.358,0.287 0.922,1.102 0.86,1.625 -0.063,0.524 -3.073,1.229 -4.303,1.36 -1.223,0.129 -4.147,0.858 -4.581,0.979 z"
           id="path293"
           inkscape:connector-curvature="0" />
        <path
           d="m 805.974,903.493 c 1.691,-0.377 -3.088,4.508 -5.52,6.215 -1.947,1.365 -5.33,3.189 -6.82,3.362 -1.489,0.172 4.002,-3.896 6.154,-5.639 1.789,-1.448 4.494,-3.561 6.186,-3.938 z"
           id="path295"
           inkscape:connector-curvature="0" />
      </g>
      <g
         id="g301">
        <path
           d="m 892.604,643.798 c -2.487,2.923 -4.899,5.08 -7.239,6.471 -3.73,2.193 -8.302,3.289 -13.713,3.289 -7.681,0 -14.041,-2.409 -19.089,-7.229 -4.534,-4.312 -8.887,-11.539 -13.055,-21.69 -2.631,-6.354 -6.727,-18.185 -12.285,-35.492 -4.096,-12.634 -6.766,-20.266 -8.008,-22.895 -1.463,-3.067 -3.438,-5.186 -5.924,-6.354 l -9.041,57.476 c -0.1,0.367 -0.148,0.951 -0.148,1.754 0,2.484 1.023,4.75 3.07,6.796 1.68,1.608 3.91,3.034 6.689,4.274 H 784.58 c 5.848,-1.314 10.051,-3.105 12.611,-5.373 2.119,-1.9 3.436,-4.388 3.948,-7.457 l 9.539,-60.647 c -1.463,-1.284 -2.998,-2.394 -4.604,-3.321 -1.607,-0.929 -3.144,-1.394 -4.605,-1.394 h -1.645 c -7.531,0 -13.49,2.377 -17.877,7.129 -3.803,4.095 -6.215,9.504 -7.238,16.23 -0.438,2.631 -0.658,5.044 -0.658,7.236 0,5.559 1.426,10.273 4.277,14.147 2.047,2.779 5.447,5.776 10.199,8.993 -7.386,0 -12.869,-2.047 -16.449,-6.143 -3,-3.436 -4.496,-8.188 -4.496,-14.257 0,-1.827 0.182,-3.911 0.549,-6.251 1.678,-10.601 6.209,-18.352 13.59,-23.25 6.722,-4.459 15.89,-6.688 27.508,-6.688 8.841,0 15.416,3.064 19.729,9.193 2.482,3.577 5.404,11.237 8.767,22.985 3.653,12.698 7.452,22.659 11.397,29.884 l 7.807,-49.567 c 0.097,-0.36 0.144,-0.903 0.144,-1.629 0,-2.896 -1.244,-5.36 -3.729,-7.391 -1.463,-1.23 -3.547,-2.391 -6.25,-3.477 h 29.5 c -5.922,1.159 -10.237,2.897 -12.94,5.218 -2.121,1.813 -3.438,4.241 -3.947,7.284 l -8.773,55.712 c -0.073,0.293 -0.11,0.841 -0.11,1.645 0,6.142 2.084,12.502 6.252,19.082 5.264,8.262 11.916,12.394 19.959,12.394 2.047,0 4.514,-0.604 7.403,-1.811 2.883,-1.202 5.606,-2.83 8.166,-4.876 z"
           id="path299"
           inkscape:connector-curvature="0"
           style="fill:#c12552" />
      </g>
    </g>
  </g>
</svg>
