<?xml version="1.0" encoding="UTF-8" standalone="no"?>
<!-- Created with Inkscape (http://www.inkscape.org/) -->

<svg
   xmlns:dc="http://purl.org/dc/elements/1.1/"
   xmlns:cc="http://creativecommons.org/ns#"
   xmlns:rdf="http://www.w3.org/1999/02/22-rdf-syntax-ns#"
   xmlns:svg="http://www.w3.org/2000/svg"
   xmlns="http://www.w3.org/2000/svg"
   xmlns:sodipodi="http://sodipodi.sourceforge.net/DTD/sodipodi-0.dtd"
   xmlns:inkscape="http://www.inkscape.org/namespaces/inkscape"
   width="155.90199mm"
   height="267.12973mm"
   viewBox="0 0 155.90199 267.12973"
   version="1.1"
   id="svg9717"
   inkscape:version="0.92.3 (2405546, 2018-03-11)"
   sodipodi:docname="compass_polearm.svg">
  <defs
     id="defs9711" />
  <sodipodi:namedview
     id="base"
     pagecolor="#ffffff"
     bordercolor="#666666"
     borderopacity="1.0"
     inkscape:pageopacity="0.0"
     inkscape:pageshadow="2"
     inkscape:zoom="0.35"
     inkscape:cx="56.046517"
     inkscape:cy="504.81209"
     inkscape:document-units="mm"
     inkscape:current-layer="layer1"
     showgrid="false"
     inkscape:window-width="1366"
     inkscape:window-height="703"
     inkscape:window-x="0"
     inkscape:window-y="0"
     inkscape:window-maximized="1" />
  <metadata
     id="metadata9714">
    <rdf:RDF>
      <cc:Work
         rdf:about="">
        <dc:format>image/svg+xml</dc:format>
        <dc:type
           rdf:resource="http://purl.org/dc/dcmitype/StillImage" />
        <dc:title></dc:title>
      </cc:Work>
    </rdf:RDF>
  </metadata>
  <g
     inkscape:label="Layer 1"
     inkscape:groupmode="layer"
     id="layer1"
     transform="translate(19.742665,-15.268468)">
    <g
       transform="matrix(0.26458333,0,0,0.26458333,-26.457942,-92.466954)"
       id="Compass_Polearms">
      <path
         d="m 317.733,1413.415 c -0.13,-2.524 -0.12,-3.833 -0.109,-5.218 0.006,-0.81 0.012,-1.626 -0.01,-2.693 -0.009,-0.468 -0.003,-0.943 0.002,-1.421 0.019,-1.642 0.039,-3.337 -0.479,-4.964 -1.36,-4.285 -1.499,-8.638 -1.644,-13.245 -0.045,-1.41 -0.089,-2.819 -0.17,-4.228 -0.303,-5.246 -0.707,-10.797 -1.237,-16.965 -0.139,-1.615 -0.271,-3.232 -0.402,-4.85 -0.454,-5.583 -0.924,-11.355 -1.72,-17.011 -0.398,-2.835 -0.566,-5.773 -0.728,-8.613 -0.269,-4.722 -0.545,-9.604 -1.882,-14.381 -0.594,-2.122 -0.868,-4.324 -1.159,-6.656 -0.098,-0.776 -0.194,-1.553 -0.304,-2.323 -0.335,-2.387 -1.449,-4.03 -3.405,-5.023 -1.321,-0.67 -2.6,-1.44 -3.837,-2.187 -2.728,-1.643 -5.549,-3.342 -9.205,-4.269 -2.31,-0.587 -5.792,-0.885 -10.351,-0.885 -3.751,0 -7.253,0.201 -9.008,0.32 -7.439,0.502 -15.814,3.562 -25.602,9.353 -0.458,0.271 -1.002,0.567 -1.593,0.892 -1.629,0.893 -3.656,2.003 -5.333,3.319 -0.002,0 -0.005,0 -0.008,0.01 0.231,-0.558 0.453,-1.086 0.668,-1.602 0.949,-2.266 1.768,-4.221 2.82,-7.132 0.831,-2.296 1.593,-4.646 2.33,-6.922 0.81,-2.496 1.647,-5.078 2.567,-7.564 1.854,-5.005 3.8,-10.074 5.682,-14.979 1.681,-4.378 3.361,-8.756 5.003,-13.149 2.1,-5.62 4.555,-12.293 6.84,-19.161 1.65,-4.962 3.268,-10.021 4.832,-14.913 1.552,-4.855 3.156,-9.876 4.791,-14.791 l 0.073,-0.221 c 0.292,-0.883 0.965,-2.916 1.494,-3.291 0.646,0.094 0.711,0.223 1.082,0.955 l 0.074,0.146 c 3.715,7.273 9.801,12.367 15.265,16.391 3.196,2.354 8.723,3.761 12.22,3.761 1.238,0 2.963,-0.148 3.641,-1.434 0.766,-1.446 0.634,-4.764 0.028,-12.141 -0.068,-0.822 -0.132,-1.611 -0.188,-2.333 -0.144,-1.9 -0.275,-3.802 -0.409,-5.704 -0.222,-3.146 -0.448,-6.397 -0.723,-9.598 -0.312,-3.648 -0.202,-7.402 -0.096,-11.032 0.097,-3.307 0.197,-6.727 -0.015,-10.115 -0.25,-4.021 -0.807,-8.063 -1.343,-11.976 -0.226,-1.646 -0.451,-3.291 -0.656,-4.938 l -0.379,-3.065 c -0.513,-4.158 -1.043,-8.458 -1.62,-12.683 -0.427,-3.128 -0.903,-6.461 -1.592,-9.802 -0.262,-1.272 -0.084,-1.623 -0.082,-1.627 -0.002,0.01 0.008,0.013 0.035,0.013 0.075,0 0.273,-0.023 0.672,-0.023 h 0.288 c 0.247,0 0.477,0.031 0.695,0.059 0.312,0.037 0.606,0.068 0.876,0.068 0.758,0 1.377,-0.236 1.842,-0.702 0.762,-0.763 0.856,-1.88 0.854,-2.77 -0.002,-1.059 -0.029,-3.78 -0.063,-7.248 -0.052,-5.354 -0.122,-12.493 -0.145,-18.027 -0.026,-6.272 -0.155,-13.021 -0.917,-19.861 -0.525,-4.71 -0.591,-9.586 -0.654,-14.302 -0.043,-3.13 -0.086,-6.366 -0.262,-9.553 -0.207,-3.737 0.064,-7.559 0.327,-11.252 0.229,-3.242 0.468,-6.597 0.392,-9.938 -0.036,-1.592 0.017,-3.572 0.072,-5.67 0.192,-7.352 0.146,-10.016 -1.133,-11.037 -0.313,-0.249 -1.044,-0.835 -4.627,-0.835 -1.786,0 -7.712,0.155 -8.962,2.149 -1.206,1.925 -1.246,3.603 -1.28,5.082 -0.159,6.651 -0.339,14.173 -1.379,21.521 -0.544,3.848 -1.012,7.347 -1.239,11.209 -0.088,1.502 -0.566,2.263 -1.419,2.263 -0.307,0 -0.657,-0.082 -1.012,-0.237 -1.943,-0.855 -4.487,-1.287 -6.732,-1.668 -1.251,-0.214 -2.914,-0.495 -3.566,-0.763 -0.102,-0.698 -0.077,-2.123 0.418,-5.021 1.039,-6.092 2.211,-12.418 3.488,-18.801 0.773,-3.868 0.615,-6.115 -0.531,-7.515 -1.208,-1.472 -3.141,-1.594 -5.183,-1.594 l -1.913,0.011 -5.938,0.01 c -3.298,0 -6.846,-0.021 -10.447,-0.187 l -4.79,-0.224 c -8.686,-0.409 -17.667,-0.834 -26.55,-0.834 -1.044,0 -2.089,0.01 -3.134,0.019 -5.128,0.06 -10.334,0.214 -15.37,0.363 -6.424,0.19 -13.066,0.389 -19.594,0.389 -3.491,0 -6.673,-0.055 -9.729,-0.167 -2.307,-0.085 -4.647,-0.124 -6.912,-0.161 -3.086,-0.052 -6.277,-0.104 -9.4,-0.274 -6.343,-0.349 -12.792,-0.543 -19.028,-0.732 -0.482,-0.016 -2.044,-0.032 -4.077,-0.057 -4.358,-0.052 -10.944,-0.127 -13.281,-0.241 -5.876,-0.282 -11.951,-0.574 -18.07,-0.726 -1.295,-0.032 -3.329,-0.214 -5.684,-0.426 -2.204,-0.196 -4.701,-0.42 -7.417,-0.602 l -0.647,-0.043 c -4.473,-0.299 -7.428,-0.497 -11.358,-0.497 -0.797,0 -1.633,0.01 -2.527,0.024 -0.513,0.011 -0.98,0.017 -1.412,0.017 -3.109,0 -4.257,-0.268 -8.062,-1.149 -1.021,-0.236 -2.221,-0.517 -3.686,-0.841 -5.437,-1.209 -8.622,-2.414 -10.729,-3.212 -0.858,-0.324 -1.599,-0.605 -2.273,-0.806 -4.391,-1.307 -8.869,-2.578 -13.199,-3.81 -1.921,-0.547 -3.842,-1.093 -5.762,-1.643 -0.181,-0.054 -0.362,-0.13 -0.544,-0.204 l -0.366,-0.146 c -0.282,-0.106 -0.727,-0.239 -1.244,-0.393 -0.383,-0.113 -1.024,-0.302 -1.618,-0.506 0.645,-0.254 1.328,-0.435 1.893,-0.583 0.425,-0.112 0.788,-0.212 1.049,-0.308 3.46,-1.266 7.097,-2.479 10.813,-3.604 l 0.18,-0.055 c 2.299,-0.697 4.676,-1.419 7,-1.698 2.21,-0.266 4.492,-0.421 6.699,-0.571 2.635,-0.18 5.36,-0.365 8.04,-0.741 5.781,-0.808 12.239,-1.432 18.484,-2.033 5.096,-0.491 9.908,-0.955 13.644,-1.464 4.271,-0.58 9.344,-0.929 14.251,-1.266 4.428,-0.304 9.006,-0.618 13.124,-1.104 8.626,-1.022 19.316,-1.854 27.665,-2.467 3.392,-0.249 6.873,-0.308 10.239,-0.363 5.47,-0.093 11.126,-0.188 16.702,-1.089 2.422,-0.392 4.961,-0.548 7.416,-0.699 l 0.603,-0.037 c 4.073,-0.252 8.15,-0.476 12.226,-0.697 2.265,-0.124 4.529,-0.247 6.794,-0.376 4.368,-0.248 8.735,-0.502 13.103,-0.754 8.938,-0.519 18.18,-1.053 27.27,-1.532 5.476,-0.289 11.049,-0.53 16.438,-0.763 4.013,-0.174 8.025,-0.349 12.037,-0.541 1.599,-0.077 5.625,-0.271 5.758,-4.248 0.101,-3.016 -0.933,-11.8 -1.652,-16.968 -0.215,-1.542 -0.575,-3.352 -0.923,-5.101 -0.524,-2.635 -1.317,-6.615 -0.989,-7.496 0.528,-0.604 4.659,-1.652 9.574,-1.652 0.559,0 1.096,0.016 1.598,0.048 2.339,0.145 4.898,0.938 4.988,2.331 0.103,1.585 -0.37,8.656 -0.827,15.494 -0.279,4.181 -0.568,8.504 -0.76,12.027 -0.043,0.805 -0.099,1.69 -0.156,2.618 -0.533,8.578 -0.531,11.428 0.512,12.545 0.646,0.69 1.872,1.312 9.671,1.312 0.624,0 1.951,-0.011 1.951,-0.011 0.7,0 2.99,-0.331 3.084,-4.476 l 0.064,-2.774 c 0.149,-6.293 0.303,-12.801 0.286,-19.209 -0.027,-9.692 -0.113,-19.548 -0.196,-29.077 -0.052,-5.873 -0.103,-11.744 -0.141,-17.618 -0.018,-2.742 -0.012,-5.485 -0.006,-8.229 0.009,-4.121 0.018,-8.382 -0.058,-12.579 -0.035,-1.967 -0.195,-3.939 -0.35,-5.85 -0.149,-1.836 -0.303,-3.734 -0.339,-5.583 -0.056,-2.863 0.013,-6.244 0.075,-9.229 0.075,-3.647 0.134,-6.529 -0.027,-7.859 -0.267,-2.198 -1.698,-2.845 -2.554,-3.23 -0.483,-0.217 -0.745,-0.343 -0.934,-0.604 -0.693,-0.955 -0.958,-2.134 -0.836,-3.712 0.201,-2.591 0.561,-5.234 0.909,-7.791 0.235,-1.72 0.469,-3.441 0.661,-5.166 0.207,-1.86 0.359,-3.747 0.506,-5.57 0.142,-1.762 0.29,-3.583 0.484,-5.356 0.291,-2.656 0.615,-5.31 0.939,-7.962 0.53,-4.343 1.079,-8.833 1.47,-13.275 0.534,-6.078 0.721,-11.469 0.57,-16.479 -0.131,-4.342 0.132,-8.848 0.388,-13.205 0.221,-3.766 0.448,-7.658 0.416,-11.393 -0.054,-6.021 -0.859,-8.887 -5.294,-8.887 -0.516,0 -1.091,0.031 -1.728,0.064 l -0.501,0.028 c -4.37,0.227 -12.581,2.078 -19.526,4.402 -3.582,1.197 -7.357,2.118 -11.007,3.01 -1.938,0.473 -3.878,0.944 -5.804,1.461 -1.307,0.351 -2.519,0.938 -3.316,1.348 -2.641,1.364 -5.289,2.712 -7.938,4.059 -7.161,3.644 -14.566,7.409 -21.679,11.449 -1.578,0.896 -3.56,2.547 -5.478,4.145 -1.667,1.388 -4.097,3.411 -5.207,3.889 -0.846,-1.416 -1.656,-4.911 0.009,-7.598 5.486,-8.856 11.159,-18.017 19.997,-24.378 3.384,-2.438 6.773,-4.867 10.163,-7.296 l 5.418,-3.887 c 0.082,-0.059 0.166,-0.127 0.248,-0.196 0.009,-0.008 0.015,-0.013 0.019,-0.017 1.984,-0.878 3.966,-1.76 5.948,-2.642 5.06,-2.252 10.292,-4.58 15.467,-6.786 4.394,-1.872 8.818,-3.591 13.15,-5.111 4.127,-1.447 7.566,-2.451 10.822,-3.159 1.993,-0.434 3.987,-1.219 5.071,-4.008 3.083,-7.928 5.946,-17.467 3.788,-28.095 -0.279,-1.379 -0.486,-2.813 -0.687,-4.196 -0.363,-2.523 -0.739,-5.136 -1.583,-7.742 -1.929,-5.95 -4.504,-10.45 -8.104,-14.161 -3.419,-3.523 -5.491,-7.682 -6.333,-12.708 -0.157,-0.937 -0.32,-1.872 -0.483,-2.811 -0.728,-4.169 -1.479,-8.479 -1.585,-12.679 -0.132,-5.237 0.341,-10.201 1.407,-14.756 2.488,-10.63 5.329,-21.376 8.077,-31.77 0.703,-2.656 1.406,-5.315 2.104,-7.976 0.591,-2.254 1.266,-4.538 1.917,-6.748 1.027,-3.485 2.089,-7.086 2.876,-10.713 3.67,-16.903 6.415,-32.265 8.389,-46.957 1.046,-7.778 2.203,-15.396 3.443,-22.641 l 0.022,-0.129 c 0.239,-1.402 0.625,-3.661 1.625,-4.137 1.157,1.831 2.447,10.151 3.233,15.227 0.593,3.824 1.153,7.437 1.729,9.753 0.696,2.81 0.873,5.873 1.042,8.836 0.055,0.962 0.109,1.924 0.182,2.88 0.309,4.131 0.977,8.253 1.623,12.239 0.529,3.27 1.077,6.649 1.411,9.96 0.757,7.511 2.073,15.013 3.346,22.268 0.619,3.53 1.259,7.18 1.825,10.771 1.717,10.916 3.747,22.517 7.961,33.768 3.707,9.891 5.238,18.818 4.682,27.297 -0.229,3.521 -0.619,7.646 -1.76,11.524 -2,6.813 -5.945,12.18 -11.723,15.95 -4.721,3.081 -7.233,7.415 -7.264,12.536 -0.076,12.697 1.396,22.949 4.632,32.268 0.416,1.198 0.929,2.583 1.75,3.817 1.631,2.46 3.709,3.706 6.177,3.706 0.205,0 0.415,-0.009 0.629,-0.025 0.454,-0.038 0.909,-0.051 1.365,-0.051 0.45,0 0.899,0.013 1.351,0.022 0.331,0.009 0.661,0.018 0.991,0.021 12.778,0.16 24.58,3.552 35.077,10.077 1.729,1.074 3.524,2.073 5.261,3.039 2.02,1.123 4.109,2.284 6.055,3.549 5.498,3.569 10.24,7.907 14.094,12.89 2.013,2.604 4.104,5.207 6.127,7.724 2.922,3.636 5.942,7.396 8.755,11.193 l 0.63,0.846 c 2.146,2.879 4.001,5.364 5.811,10.01 0.425,1.088 0.465,1.644 0.451,1.872 -0.015,0 -0.032,10e-4 -0.05,10e-4 -0.603,0 -1.918,-0.395 -3.642,-1.508 l -1.522,-0.976 c -3.242,-2.075 -7.276,-4.657 -10.513,-7.32 -10.907,-8.969 -24.439,-18.395 -42.104,-20.303 -3.104,-0.335 -6.266,-0.963 -9.323,-1.568 -1.159,-0.229 -2.318,-0.46 -3.479,-0.677 -2.029,-0.378 -12.484,-2.264 -19.033,-2.264 -3.716,0 -5.582,0.601 -6.236,2.01 -1.562,3.354 -1.297,12.307 -0.924,16.114 0.222,2.253 0.52,4.525 0.809,6.724 0.458,3.479 0.93,7.075 1.09,10.596 0.359,7.914 1.554,15.802 2.71,23.43 0.514,3.394 1.045,6.899 1.493,10.353 0.767,5.896 1.492,14.286 1.688,18.42 0.038,0.787 0.092,1.503 0.143,2.166 0.215,2.829 0.257,4.035 -0.865,5.463 -0.608,0.776 -1.146,1.275 -1.62,1.717 -0.942,0.877 -1.917,1.783 -1.606,3.677 l 0.305,1.829 c 0.856,5.105 1.743,10.386 0.986,15.127 -0.479,3 -0.592,5.992 -0.701,8.887 -0.074,1.946 -0.15,3.96 -0.339,5.912 -0.719,7.437 -0.658,14.963 -0.6,22.24 0.011,1.357 0.022,2.717 0.028,4.075 l 0.003,0.847 c 0.004,1.5 0.009,3.053 0.076,4.59 0.123,2.839 0.223,5.676 0.323,8.515 0.261,7.412 0.531,15.078 1.225,22.63 0.396,4.332 0.307,8.826 0.219,13.171 -0.042,2.107 -0.086,4.286 -0.076,6.436 0.003,0.617 -0.009,1.309 -0.021,2.02 -0.064,3.711 -0.058,6.043 0.877,7.175 0.353,0.428 0.942,1.141 5.786,1.141 2.594,0 7.11,-0.178 8.217,-1.36 1.043,-1.117 1.044,-3.968 0.512,-12.547 -0.058,-0.926 -0.112,-1.814 -0.156,-2.616 -0.191,-3.525 -0.48,-7.85 -0.76,-12.032 -0.457,-6.836 -0.929,-13.904 -0.827,-15.489 0.091,-1.395 2.649,-2.188 4.988,-2.331 0.502,-0.032 1.04,-0.048 1.599,-0.048 4.914,0 9.047,1.05 9.622,1.741 0.279,0.792 -0.513,4.772 -1.036,7.406 -0.349,1.75 -0.708,3.56 -0.924,5.102 -0.719,5.168 -1.752,13.95 -1.651,16.968 0.133,3.977 4.16,4.171 5.675,4.244 4.095,0.196 8.107,0.371 12.12,0.545 5.39,0.231 10.963,0.474 16.438,0.763 9.091,0.479 18.332,1.015 27.27,1.532 4.368,0.252 8.735,0.506 13.104,0.754 2.266,0.129 4.53,0.252 6.794,0.376 4.076,0.223 8.151,0.445 12.227,0.697 l 0.602,0.037 c 2.455,0.151 4.994,0.309 7.416,0.699 5.576,0.901 11.232,0.996 16.702,1.089 3.366,0.057 6.847,0.114 10.239,0.363 8.349,0.611 19.039,1.443 27.665,2.466 4.118,0.487 8.695,0.803 13.124,1.105 4.906,0.337 9.979,0.686 14.251,1.266 3.734,0.509 8.548,0.973 13.644,1.464 6.246,0.603 12.704,1.227 18.484,2.033 2.681,0.376 5.405,0.563 8.04,0.741 2.206,0.15 4.487,0.307 6.698,0.571 2.324,0.279 4.701,1.001 7,1.697 l 0.181,0.056 c 3.717,1.127 7.354,2.339 10.812,3.604 0.264,0.096 0.625,0.194 1.052,0.308 0.564,0.148 1.248,0.329 1.893,0.583 -0.594,0.204 -1.235,0.393 -1.619,0.506 -0.517,0.151 -0.961,0.285 -1.242,0.392 l -0.365,0.146 c -0.184,0.074 -0.363,0.15 -0.553,0.205 -1.916,0.55 -3.841,1.098 -5.765,1.645 -4.326,1.229 -8.801,2.501 -13.189,3.808 -0.673,0.198 -1.415,0.479 -2.271,0.805 -2.107,0.798 -5.293,2.003 -10.729,3.212 -1.466,0.326 -2.667,0.604 -3.687,0.841 -3.804,0.883 -4.951,1.149 -8.062,1.149 -0.432,0 -0.897,-0.01 -1.411,-0.017 -0.896,-0.018 -1.73,-0.024 -2.528,-0.024 -3.93,0 -6.886,0.197 -11.36,0.497 l -0.645,0.043 c -2.716,0.182 -5.213,0.404 -7.417,0.602 -2.355,0.212 -4.39,0.394 -5.686,0.426 -6.119,0.15 -12.193,0.442 -18.067,0.726 -2.339,0.113 -8.924,0.189 -13.283,0.24 -2.033,0.024 -3.595,0.043 -4.053,0.057 -6.262,0.189 -12.709,0.386 -19.053,0.732 -3.123,0.173 -6.313,0.225 -9.399,0.275 -2.265,0.037 -4.605,0.076 -6.911,0.161 -3.057,0.112 -6.239,0.167 -9.73,0.167 -6.526,0 -13.17,-0.197 -19.594,-0.389 -5.035,-0.149 -10.242,-0.305 -15.37,-0.363 -1.045,-0.013 -2.089,-0.018 -3.134,-0.018 -8.883,0 -17.865,0.424 -26.551,0.834 l -4.79,0.223 c -3.602,0.164 -7.148,0.187 -10.446,0.187 l -5.938,-0.01 -1.913,-0.011 c -2.042,0 -3.976,0.122 -5.184,1.595 -1.146,1.397 -1.305,3.646 -0.532,7.513 1.276,6.384 2.449,12.709 3.488,18.802 0.495,2.894 0.521,4.317 0.419,5.018 -0.753,0.339 -2.832,0.739 -4.389,1.04 -2.429,0.468 -5.182,0.999 -7.072,1.831 -0.438,0.193 -0.719,0.222 -0.846,0.222 -0.111,0 -0.154,-0.02 -0.154,-0.021 -0.024,-0.031 -0.118,-0.249 -0.083,-0.726 0.241,-3.392 -0.33,-6.662 -0.882,-9.827 -0.192,-1.109 -0.386,-2.216 -0.542,-3.318 -1.04,-7.353 -1.22,-14.871 -1.378,-21.505 -0.035,-1.497 -0.075,-3.175 -1.281,-5.1 -1.04,-1.658 -5.026,-2.008 -8.189,-2.008 -1.877,0 -4.339,0.146 -5.409,0.832 -1.843,1.185 -1.961,4.406 -1.926,8.829 0.003,0.394 0.006,0.769 0.005,1.112 -0.008,3.162 0.034,6.375 0.075,9.48 0.084,6.409 0.171,13.037 -0.181,19.508 l -0.075,1.375 c -0.352,6.392 -0.715,13 -0.332,19.567 0.188,3.245 0.075,6.259 -0.043,9.448 -0.093,2.452 -0.188,4.986 -0.16,7.864 0.063,6.842 -0.159,21.082 -0.506,24.163 l -0.052,0.438 c -0.441,3.864 -0.667,6.947 0.761,8.547 0.548,0.613 1.279,0.938 2.116,0.938 0.072,0 0.146,0 0.22,-0.01 -0.033,0.557 -0.255,1.532 -0.427,2.287 -0.168,0.741 -0.358,1.583 -0.503,2.454 -2.365,14.381 -3.217,26.971 -2.6,38.49 0.222,4.138 0.29,8.355 0.355,12.438 0.073,4.526 0.149,9.206 0.436,13.821 0.284,4.616 0.479,9.323 0.671,13.875 0.176,4.215 0.358,8.573 0.61,12.86 0.152,2.605 0.521,5.214 0.876,7.735 0.15,1.074 0.303,2.149 0.438,3.227 0.091,0.722 0.216,1.442 0.342,2.166 0.249,1.436 0.485,2.792 0.43,4.094 -0.157,3.562 1.517,6.219 4.976,7.897 l 0.919,0.445 c 10.283,4.992 20.916,10.154 32.697,12.048 3.454,0.558 6.952,1.366 10.335,2.148 0.977,0.226 1.953,0.451 2.93,0.671 1.287,0.292 2.634,0.625 3.724,1.226 0.076,0.069 0.218,0.341 0.282,0.548 -0.175,0.146 -0.456,0.305 -0.604,0.329 -0.585,0.099 -1.233,0.143 -2.101,0.143 -0.416,0 -0.833,-0.01 -1.25,-0.02 l -0.761,-0.016 c -0.346,-0.01 -0.689,-0.01 -1.036,-0.01 -12.021,0 -23.874,3.267 -36.235,9.983 -4.381,2.38 -7.703,5.711 -10.916,8.934 l -0.686,0.687 c -2.548,2.549 -4.229,5.987 -5.139,10.512 -1.493,7.418 -3.206,16.23 -4.605,25.357 -0.503,3.285 -0.722,6.635 -0.933,9.876 -0.117,1.802 -0.239,3.664 -0.407,5.479 -0.077,0.818 -0.245,1.645 -0.423,2.52 -0.149,0.734 -0.304,1.493 -0.406,2.271 -1.354,10.39 -2.457,19.01 -3.469,27.13 -0.735,5.896 -1.259,10.438 -1.697,14.725 -0.233,2.295 -0.438,4.593 -0.642,6.89 -0.321,3.617 -0.652,7.358 -1.105,11.009 -0.161,1.276 -0.592,2.607 -1.498,4.571 z"
         id="path244"
         inkscape:connector-curvature="0"
         style="fill:#656668" />
      <path
         d="m 333.25,877.416 -0.305,-1.829 c -0.31,-1.894 0.666,-2.8 1.606,-3.677 0.475,-0.441 1.013,-0.94 1.62,-1.717 1.122,-1.429 1.08,-2.635 0.865,-5.463 -0.05,-0.663 -0.104,-1.38 -0.143,-2.166 -0.195,-4.135 -0.92,-12.522 -1.688,-18.42 -0.448,-3.452 -0.979,-6.959 -1.493,-10.353 -1.156,-7.628 -2.351,-15.516 -2.71,-23.43 -0.16,-3.521 -0.632,-7.117 -1.09,-10.597 -0.289,-2.196 -0.587,-4.47 -0.809,-6.723 -0.372,-3.809 -0.638,-12.76 0.924,-16.115 0.654,-1.408 2.521,-2.009 6.236,-2.009 6.55,0 17.004,1.885 19.033,2.263 1.16,0.218 2.319,0.447 3.479,0.678 3.057,0.604 6.217,1.232 9.322,1.567 17.665,1.909 31.196,11.334 42.104,20.304 3.237,2.662 7.271,5.244 10.513,7.319 l 1.522,0.977 c 1.724,1.112 3.04,1.508 3.642,1.508 0.02,0 0.035,-10e-4 0.05,-10e-4 0.014,-0.229 -0.026,-0.784 -0.451,-1.872 -1.81,-4.646 -3.663,-7.131 -5.811,-10.01 l -0.63,-0.847 c -2.813,-3.798 -5.833,-7.558 -8.755,-11.192 -2.022,-2.518 -4.114,-5.12 -6.127,-7.725 -3.854,-4.98 -8.596,-9.318 -14.094,-12.889 -1.945,-1.265 -4.034,-2.426 -6.055,-3.549 -1.735,-0.966 -3.532,-1.965 -5.261,-3.039 -10.498,-6.526 -22.299,-9.917 -35.077,-10.077 -0.33,-0.004 -0.661,-0.013 -0.991,-0.021 -0.45,-0.012 -0.9,-0.022 -1.351,-0.022 -0.456,0 -0.911,0.012 -1.365,0.05 -0.215,0.019 -0.425,0.026 -0.629,0.026 -2.468,0 -4.546,-1.246 -6.177,-3.706 -0.82,-1.235 -1.333,-2.619 -1.75,-3.818 -3.236,-9.316 -4.708,-19.568 -4.632,-32.267 0.03,-5.121 2.543,-9.455 7.264,-12.536 5.778,-3.771 9.722,-9.138 11.723,-15.95 1.141,-3.878 1.529,-8.003 1.761,-11.524 0.556,-8.479 -0.977,-17.406 -4.683,-27.298 -4.214,-11.251 -6.244,-22.851 -7.961,-33.767 -0.564,-3.593 -1.206,-7.242 -1.825,-10.772 -1.272,-7.255 -2.589,-14.757 -3.346,-22.267 -0.334,-3.311 -0.882,-6.69 -1.411,-9.96 -0.646,-3.986 -1.313,-8.108 -1.623,-12.24 -0.072,-0.956 -0.127,-1.918 -0.182,-2.879 -0.169,-2.964 -0.344,-6.027 -1.042,-8.836 -0.575,-2.317 -1.134,-5.929 -1.729,-9.753 -0.786,-5.076 -2.075,-13.396 -3.233,-15.227 -1,0.476 -1.387,2.732 -1.625,4.137 l -0.022,0.129 c -1.239,7.245 -2.397,14.861 -3.442,22.64 -1.976,14.693 -4.72,30.055 -8.39,46.957 -0.787,3.627 -1.849,7.229 -2.876,10.713 -0.652,2.211 -1.326,4.494 -1.917,6.748 -0.698,2.659 -1.401,5.318 -2.104,7.977 -2.748,10.393 -5.589,21.139 -8.077,31.769 -1.065,4.556 -1.539,9.52 -1.407,14.756 0.105,4.199 0.857,8.511 1.585,12.68 0.164,0.938 0.327,1.874 0.483,2.81 0.842,5.027 2.913,9.186 6.333,12.708 3.6,3.711 6.175,8.211 8.104,14.162 0.844,2.606 1.221,5.218 1.583,7.742 0.2,1.385 0.406,2.817 0.687,4.196 2.158,10.628 -0.704,20.167 -3.787,28.095 -1.084,2.789 -3.078,3.574 -5.071,4.008 -3.256,0.708 -6.695,1.712 -10.822,3.159 -4.332,1.521 -8.756,3.239 -13.15,5.111 -5.175,2.205 -10.407,4.533 -15.467,6.785 -1.982,0.883 -3.964,1.765 -5.948,2.643 -0.004,0.004 -0.01,0.009 -0.019,0.016 -0.083,0.07 -0.167,0.139 -0.248,0.197 l -5.418,3.886 c -3.39,2.429 -6.779,4.859 -10.163,7.296 -8.838,6.362 -14.511,15.521 -19.997,24.378 -1.665,2.688 -0.855,6.183 -0.009,7.599 1.11,-0.479 3.541,-2.501 5.207,-3.89 1.918,-1.598 3.9,-3.247 5.478,-4.144 7.113,-4.04 14.518,-7.807 21.679,-11.45 2.648,-1.346 5.296,-2.692 7.938,-4.058 0.797,-0.41 2.009,-0.997 3.316,-1.349 1.926,-0.516 3.865,-0.987 5.804,-1.461 3.65,-0.891 7.425,-1.812 11.007,-3.01 6.945,-2.324 15.156,-4.176 19.526,-4.401 l 0.501,-0.028 c 0.637,-0.033 1.212,-0.065 1.729,-0.065 4.435,0 5.241,2.865 5.294,8.888 0.033,3.732 -0.195,7.627 -0.416,11.393 -0.255,4.357 -0.52,8.863 -0.388,13.205 0.151,5.009 -0.036,10.399 -0.57,16.478 -0.391,4.443 -0.939,8.935 -1.47,13.276 -0.324,2.652 -0.648,5.305 -0.939,7.961 -0.195,1.774 -0.342,3.596 -0.484,5.357 -0.147,1.822 -0.299,3.71 -0.506,5.569 -0.192,1.726 -0.426,3.446 -0.661,5.166 -0.348,2.558 -0.708,5.2 -0.909,7.791 -0.123,1.578 0.143,2.758 0.836,3.712 0.189,0.262 0.45,0.388 0.934,0.604 0.856,0.386 2.288,1.032 2.554,3.229 0.162,1.33 0.103,4.212 0.027,7.86 -0.036,1.762 -0.072,3.655 -0.086,5.506 h 29.715 c 0.378,-4.331 -0.402,-9.026 -1.167,-13.585 z"
         id="path246"
         inkscape:connector-curvature="0"
         style="fill:#c12552" />
      <path
         d="m 289.608,1022.097 c -1.003,0 -2.116,-0.806 -2.233,-3.065 -0.04,-0.763 -0.073,-2.174 -0.112,-3.881 -0.06,-2.57 -0.134,-5.771 -0.269,-8.418 -0.013,-0.257 0.003,-0.528 0.049,-0.836 0.353,-2.356 1.883,-3.768 4.093,-3.768 0.105,0 0.213,0 0.323,0.01 0.674,0.043 1.324,0.151 1.953,0.258 0.714,0.118 1.389,0.23 2.003,0.23 0.199,0 0.396,-0.012 0.59,-0.041 1.001,-0.155 2.175,-0.241 3.304,-0.241 2.585,0 4.322,0.406 5.16,1.206 1.434,1.369 1.714,7.529 0.962,9.406 -0.51,1.271 -1.465,1.409 -1.852,1.409 h -0.139 l -0.216,-0.035 c -0.26,-0.051 -0.502,-0.12 -0.726,-0.197 0.002,0.053 0.004,0.104 0.006,0.156 0.057,1.491 0.111,2.897 -0.762,3.806 -0.428,0.445 -1,0.681 -1.655,0.682 -0.631,0 -1.077,-0.229 -1.394,-0.577 -0.244,1.021 -0.857,2.671 -2.261,2.672 -0.444,0 -1.201,-0.176 -1.659,-1.252 -0.336,0.444 -0.819,0.723 -1.398,0.806 -0.121,0.018 -0.235,0.024 -0.344,0.024 -0.603,0 -1.044,-0.187 -1.371,-0.479 -0.019,0.116 -0.042,0.229 -0.072,0.341 -0.347,1.314 -1.25,1.783 -1.98,1.784 z m 63.017,-3.067 c 0.04,-0.763 0.073,-2.174 0.112,-3.881 0.06,-2.57 0.134,-5.771 0.269,-8.417 0.014,-0.259 -0.002,-0.521 -0.048,-0.833 -0.354,-2.361 -1.885,-3.771 -4.094,-3.771 -0.105,0 -0.213,0 -0.326,0.01 -0.671,0.043 -1.322,0.151 -1.951,0.258 -0.714,0.118 -1.389,0.23 -2.003,0.23 -0.199,0 -0.396,-0.012 -0.589,-0.041 -1.104,-0.171 -2.374,-0.266 -3.574,-0.266 -1.508,0 -3.585,0.143 -4.911,0.821 -2.267,1.161 -2.379,7.525 -1.91,9.469 0.41,1.695 1.411,1.949 1.973,1.949 h 0.153 l 0.105,-0.016 c 0.584,-0.087 1.161,-0.332 1.674,-0.555 -0.004,0.103 -0.008,0.204 -0.012,0.305 -0.058,1.49 -0.111,2.897 0.762,3.805 0.428,0.445 1,0.682 1.663,0.682 0.627,0 1.071,-0.229 1.386,-0.575 0.245,1.021 0.857,2.67 2.261,2.67 h 10e-4 c 0.443,-10e-4 1.199,-0.177 1.657,-1.252 0.336,0.444 0.819,0.723 1.398,0.806 0.121,0.018 0.235,0.024 0.344,0.024 v 0 c 0.603,0 1.044,-0.188 1.371,-0.479 0.02,0.116 0.042,0.229 0.072,0.341 0.349,1.315 1.253,1.784 1.981,1.784 1.007,0 2.12,-0.803 2.236,-3.064 z"
         id="path248"
         inkscape:connector-curvature="0"
         style="fill:#6e533b" />
      <path
         d="m 305.655,871.268 3.419,264.687 10.925,1.709 10.277,-4.104 V 868.874 c 0,0 -2.2,-6.566 -9.585,-5.934 -7.385,0.632 -15.036,8.328 -15.036,8.328 z"
         id="path250"
         inkscape:connector-curvature="0"
         style="fill:#6e533b" />
      <path
         d="m 308.145,848.608 c -0.978,0.361 -0.787,-0.606 -0.448,-1.401 0.34,-0.795 3.666,-3.983 5.685,-5.985 0.211,-0.209 1.098,-0.091 1.342,0.178 0.278,0.307 0.419,1.1 0.213,1.413 -0.477,0.727 -1.149,1.353 -1.832,1.91 -1.661,1.354 -3.982,3.524 -4.96,3.885 z"
         id="path252"
         inkscape:connector-curvature="0" />
      <path
         d="m 317.074,613.587 c 0.555,-1.625 0.305,2.984 0.238,3.501 -0.063,0.488 -0.063,1.579 -0.709,2.486 -0.646,0.908 -0.396,-2.194 -0.387,-2.737 0.011,-0.471 0.304,-1.625 0.858,-3.25 z"
         id="path254"
         inkscape:connector-curvature="0" />
      <path
         d="m 614.333,1011.555 c -1.494,-1.195 -3.817,-1.539 -4.723,-1.869 -3.594,-1.313 -7.229,-2.521 -10.892,-3.631 -2.438,-0.738 -4.917,-1.503 -7.432,-1.806 -4.886,-0.587 -9.842,-0.627 -14.711,-1.308 -10.655,-1.491 -23.979,-2.392 -32.134,-3.499 -8.156,-1.108 -18.724,-1.348 -27.4,-2.374 -8.677,-1.028 -19.55,-1.874 -27.729,-2.474 -8.929,-0.653 -17.922,0 -26.814,-1.437 -2.692,-0.437 -5.436,-0.583 -8.162,-0.754 -6.34,-0.394 -12.685,-0.714 -19.027,-1.074 -13.459,-0.764 -26.916,-1.577 -40.379,-2.286 -9.49,-0.501 -18.988,-0.846 -28.481,-1.305 -1.603,-0.078 -4.265,-0.16 -4.354,-2.82 -0.089,-2.661 0.813,-10.778 1.64,-16.716 0.633,-4.545 2.571,-11.515 1.815,-13.356 -0.756,-1.844 -8.073,-2.81 -12.633,-2.521 -2.539,0.157 -6.197,1.052 -6.37,3.71 -0.172,2.659 1.065,18.133 1.586,27.697 0.271,4.953 0.967,13.082 0.04,14.074 -0.901,0.966 -10.973,1.271 -11.785,0.288 -0.812,-0.981 -0.503,-5.39 -0.518,-8.261 -0.034,-6.581 0.45,-13.207 -0.149,-19.733 -0.949,-10.349 -1.094,-20.712 -1.543,-31.07 -0.076,-1.792 -0.068,-3.587 -0.076,-5.38 -0.039,-8.728 -0.277,-17.449 0.563,-26.167 0.472,-4.882 0.245,-9.78 1.03,-14.708 0.89,-5.58 -0.379,-11.832 -1.292,-17.428 -0.285,-1.742 1.051,-1.848 2.931,-4.242 1.88,-2.394 1.229,-4.573 1.037,-8.611 -0.191,-4.037 -0.899,-12.391 -1.698,-18.54 -1.457,-11.21 -3.677,-22.313 -4.192,-33.658 -0.265,-5.813 -1.334,-11.588 -1.903,-17.394 -0.439,-4.483 -0.49,-12.594 0.792,-15.351 1.282,-2.758 18.76,0.171 23.66,1.084 4.297,0.799 8.578,1.792 12.913,2.261 16.173,1.747 29.22,10.021 41.323,19.977 3.851,3.168 8.81,6.225 12.172,8.396 3.363,2.172 7.48,3.146 5.42,-2.142 -2.062,-5.289 -4.183,-7.895 -6.631,-11.199 -4.777,-6.453 -9.986,-12.586 -14.9,-18.94 -4.065,-5.257 -8.925,-9.632 -14.458,-13.226 -3.664,-2.38 -7.626,-4.295 -11.34,-6.604 -10.985,-6.828 -22.953,-10.139 -35.839,-10.3 -1.282,-0.018 -2.572,-0.096 -3.847,0.011 -2.521,0.206 -4.191,-1.119 -5.455,-3.023 -0.696,-1.051 -1.167,-2.283 -1.585,-3.485 -3.574,-10.292 -4.614,-20.985 -4.551,-31.773 0.029,-4.8 2.413,-8.579 6.595,-11.308 6.156,-4.019 10.281,-9.784 12.333,-16.771 1.117,-3.803 1.557,-7.869 1.816,-11.846 0.632,-9.651 -1.463,-19.08 -4.772,-27.911 -4.084,-10.901 -6.108,-22.188 -7.886,-33.479 -1.727,-10.971 -4.041,-21.852 -5.161,-32.955 -0.743,-7.38 -2.473,-14.703 -3.03,-22.163 -0.301,-4.002 -0.307,-8.106 -1.263,-11.961 -1.717,-6.925 -3.393,-26.342 -6.136,-26.188 -2.485,0.139 -3.014,3.533 -3.364,5.58 -1.29,7.54 -2.432,15.109 -3.45,22.691 -2.114,15.735 -5.002,31.336 -8.37,46.841 -1.273,5.869 -3.252,11.582 -4.779,17.397 -3.476,13.242 -7.071,26.458 -10.19,39.783 -1.146,4.899 -1.572,10.093 -1.445,15.129 0.131,5.248 1.216,10.487 2.088,15.695 0.862,5.146 3.022,9.673 6.729,13.493 3.723,3.838 6.086,8.429 7.758,13.59 1.267,3.908 1.435,7.871 2.228,11.776 1.947,9.591 -0.295,18.468 -3.717,27.266 -0.753,1.939 -2.001,2.663 -4.007,3.1 -3.724,0.811 -7.396,1.945 -10.998,3.209 -4.466,1.566 -8.885,3.291 -13.241,5.146 -7.21,3.072 -14.354,6.305 -21.523,9.475 -0.163,0.072 -0.292,0.218 -0.442,0.324 -5.193,3.728 -10.395,7.447 -15.582,11.183 -8.984,6.47 -14.695,15.605 -20.39,24.8 -2.169,3.502 -0.987,8.148 0.41,9.733 1.397,1.585 8.389,-5.912 12.252,-8.105 9.666,-5.49 19.677,-10.374 29.563,-15.479 0.965,-0.496 1.979,-0.954 3.021,-1.232 5.632,-1.508 11.382,-2.652 16.898,-4.498 6.48,-2.168 14.766,-4.102 19.134,-4.328 4.368,-0.228 5.899,-0.642 5.969,7.331 0.07,7.972 -1.051,16.436 -0.803,24.63 0.165,5.481 -0.089,10.894 -0.565,16.303 -0.624,7.085 -1.63,14.134 -2.406,21.206 -0.398,3.634 -0.586,7.292 -0.99,10.925 -0.483,4.342 -1.238,8.656 -1.575,13.007 -0.12,1.552 0.049,3.228 1.113,4.693 1.064,1.465 2.938,0.848 3.217,3.146 0.279,2.298 -0.179,10.733 -0.058,16.938 0.074,3.813 0.622,7.617 0.689,11.43 0.125,6.93 0.018,13.862 0.063,20.791 0.103,15.564 0.294,31.128 0.338,46.69 0.02,7.313 -0.182,14.632 -0.351,21.945 -0.023,1.011 -0.245,3.027 -1.613,3.031 -1.368,0.005 -9.618,0.15 -10.537,-0.832 -0.927,-0.992 -0.23,-9.121 0.04,-14.073 0.521,-9.565 1.758,-25.039 1.586,-27.698 -0.172,-2.658 -3.831,-3.552 -6.37,-3.71 -4.56,-0.287 -11.877,0.679 -12.632,2.521 -0.756,1.843 1.183,8.813 1.816,13.356 0.826,5.938 1.728,14.055 1.639,16.716 -0.088,2.66 -2.75,2.742 -4.354,2.82 -9.493,0.459 -18.991,0.804 -28.481,1.305 -13.463,0.709 -26.92,1.523 -40.379,2.286 -6.343,0.361 -12.688,0.682 -19.027,1.074 -2.727,0.171 -5.47,0.317 -8.162,0.754 -8.893,1.437 -17.886,0.783 -26.814,1.437 -8.18,0.6 -19.053,1.444 -27.73,2.474 -8.677,1.026 -19.244,1.266 -27.4,2.374 -8.156,1.107 -21.479,2.008 -32.134,3.499 -4.869,0.681 -9.826,0.721 -14.71,1.308 -2.515,0.303 -4.994,1.066 -7.432,1.806 -3.662,1.11 -7.297,2.316 -10.89,3.631 -0.907,0.33 -3.228,0.674 -4.724,1.869 -1.497,1.196 3.363,2.209 4.625,2.688 0.343,0.13 0.677,0.286 1.028,0.389 6.317,1.813 12.648,3.574 18.947,5.448 2.222,0.659 5.408,2.332 13.103,4.042 7.694,1.711 8.055,2.115 13.508,2.01 5.453,-0.104 8.677,0.13 14.406,0.513 5.728,0.383 10.622,0.967 13.163,1.029 6.013,0.148 12.025,0.436 18.035,0.725 3.455,0.168 15.917,0.254 17.361,0.299 6.34,0.191 12.683,0.385 19.017,0.729 5.446,0.299 10.901,0.237 16.337,0.438 14.938,0.551 29.846,-0.411 44.765,-0.583 11.5,-0.136 22.932,0.515 34.39,1.038 5.475,0.248 10.967,0.178 16.452,0.178 5.054,0 7.768,-0.615 6.178,7.33 -1.252,6.264 -2.422,12.545 -3.495,18.841 -0.329,1.924 -0.721,4.643 -0.311,6.009 0.41,1.367 7.275,1.381 11.052,3.044 1.97,0.866 4.287,0.342 4.5,-3.291 0.213,-3.633 0.63,-6.864 1.227,-11.088 1.022,-7.224 1.22,-14.433 1.393,-21.676 0.033,-1.407 0.062,-2.765 1.056,-4.352 0.928,-1.479 10.221,-1.898 11.416,-0.943 1.194,0.954 0.39,10.39 0.507,15.586 0.16,7.085 -1.111,14.118 -0.717,21.237 0.441,7.973 0.041,16.021 0.923,23.937 0.733,6.584 0.881,13.129 0.908,19.705 0.038,9.116 0.203,22.58 0.208,25.271 0.005,2.693 -1.285,1.878 -2.766,1.863 -1.48,-0.016 -3.096,-0.039 -2.384,3.413 0.661,3.206 1.131,6.456 1.575,9.702 0.714,5.235 1.346,10.485 1.997,15.729 0.695,5.605 1.639,11.197 1.99,16.824 0.438,7.043 -0.49,14.116 0.112,21.182 0.436,5.09 0.746,10.19 1.13,15.286 0.354,4.676 1.139,12.135 0.326,13.673 -0.813,1.539 -9.548,0.216 -13.679,-2.826 -5.902,-4.347 -11.399,-9.165 -14.826,-15.873 -0.467,-0.914 -0.781,-1.693 -2.358,-1.903 -1.577,-0.211 -2.43,2.559 -3.082,4.521 -3.284,9.877 -6.337,19.828 -9.622,29.702 -2.135,6.418 -4.455,12.776 -6.823,19.112 -3.51,9.396 -7.201,18.725 -10.686,28.13 -1.771,4.783 -3.167,9.702 -4.901,14.499 -1.345,3.72 -2.328,5.919 -3.647,9.111 -1.318,3.193 0.289,2.986 2.469,1.277 2.18,-1.711 5.05,-3.088 6.767,-4.102 7.536,-4.458 16.284,-8.564 24.951,-9.149 3.646,-0.248 13.808,-0.77 18.894,0.521 5.086,1.29 8.5,4.19 12.736,6.34 1.629,0.827 2.364,2.153 2.611,3.913 0.435,3.068 0.674,6.205 1.503,9.171 2.092,7.479 1.501,15.225 2.568,22.803 1.018,7.218 1.487,14.511 2.113,21.78 0.485,5.635 0.91,11.277 1.234,16.924 0.344,5.975 0.023,11.988 1.881,17.835 0.587,1.848 0.368,3.97 0.407,5.967 0.058,2.891 -0.091,3.92 0.123,8.023 0.215,4.103 1.104,4.02 2.352,1.452 1.247,-2.566 1.869,-4.273 2.082,-5.978 0.74,-5.957 1.14,-11.954 1.751,-17.93 0.501,-4.903 1.083,-9.8 1.692,-14.691 1.129,-9.045 2.291,-18.084 3.469,-27.122 0.212,-1.623 0.683,-3.218 0.834,-4.846 0.473,-5.087 0.557,-10.229 1.33,-15.27 1.297,-8.465 2.902,-16.891 4.592,-25.288 0.724,-3.597 2.101,-7.123 4.736,-9.759 3.447,-3.445 6.771,-6.927 11.262,-9.364 11.461,-6.229 23.429,-10.003 36.544,-9.798 1.463,0.021 2.952,0.111 4.377,-0.13 0.717,-0.12 1.762,-0.843 1.858,-1.427 0.112,-0.683 -0.452,-1.861 -1.067,-2.199 -1.246,-0.688 -2.701,-1.055 -4.111,-1.373 -4.439,-1.002 -8.868,-2.113 -13.355,-2.837 -11.907,-1.914 -22.538,-7.188 -33.205,-12.364 -2.564,-1.244 -4.291,-3.215 -4.146,-6.505 0.095,-2.153 -0.508,-4.337 -0.779,-6.509 -0.456,-3.618 -1.094,-7.229 -1.308,-10.864 -0.522,-8.905 -0.732,-17.833 -1.281,-26.738 -0.541,-8.74 -0.32,-17.493 -0.791,-26.247 -0.683,-12.76 0.5,-25.508 2.584,-38.171 0.596,-3.619 2.062,-6.718 -0.567,-6.46 -2.629,0.256 -1.908,-4.995 -1.539,-8.271 0.369,-3.275 0.577,-17.697 0.516,-24.344 -0.061,-6.645 0.539,-11.589 0.202,-17.384 -0.404,-6.943 0.03,-13.839 0.408,-20.777 0.525,-9.662 0.083,-19.374 0.107,-29.065 0.006,-2.864 -0.239,-7.75 1.241,-8.7 1.48,-0.951 10.597,-0.806 11.55,0.716 0.994,1.587 1.022,2.942 1.056,4.351 0.173,7.243 0.371,14.452 1.393,21.676 0.598,4.225 1.725,8.466 1.414,12.837 -0.146,2.06 1.184,2.846 3.153,1.979 3.777,-1.663 11.804,-2.113 12.214,-3.48 0.41,-1.365 0.019,-4.084 -0.311,-6.009 -1.073,-6.296 -2.243,-12.577 -3.495,-18.841 -1.589,-7.945 1.124,-7.332 6.178,-7.33 5.484,0 10.977,0.07 16.452,-0.178 11.458,-0.523 22.89,-1.173 34.39,-1.038 14.919,0.172 29.827,1.134 44.766,0.583 5.436,-0.2 10.892,-0.139 16.337,-0.438 6.334,-0.347 12.677,-0.538 19.017,-0.73 1.444,-0.045 13.907,-0.131 17.361,-0.299 6.009,-0.289 12.021,-0.575 18.035,-0.724 2.541,-0.063 7.435,-0.647 13.163,-1.03 5.728,-0.382 8.952,-0.616 14.404,-0.512 5.453,0.104 5.813,-0.299 13.509,-2.011 7.693,-1.71 10.881,-3.383 13.103,-4.042 6.299,-1.874 12.631,-3.637 18.947,-5.447 0.351,-0.104 0.686,-0.26 1.027,-0.39 1.261,-0.479 6.12,-1.492 4.623,-2.688 z m -274.519,250.636 c 1.069,-0.873 4.855,2.259 7.682,3.221 5.313,1.811 10.717,3.438 16.417,3.765 1.514,0.086 8.217,1.396 3.731,2.009 -4.484,0.612 -10.24,2.447 -15.253,4.906 -3.008,1.478 -7.185,4.562 -8.559,4.566 -1.375,0.01 -2.649,-6.854 -3.414,-10.654 -0.682,-3.384 -1.673,-6.94 -0.604,-7.813 z m -75.915,-235.326 c -10.399,-0.292 -20.783,-1.238 -31.181,-1.404 -9.496,-0.15 -19.002,0.381 -28.505,0.589 -2.013,0.044 -4.033,0.078 -6.042,-0.028 -2.725,-0.144 -5.826,-0.123 -8.552,-0.226 -6.395,-0.241 -12.465,-0.311 -18.788,-1.093 -5.619,-0.695 -11.176,-1.587 -16.863,-1.56 -5.469,0.026 -10.942,-0.157 -16.41,-0.351 -4.74,-0.166 -9.472,-0.553 -14.212,-0.697 -6.761,-0.204 -13.535,-0.099 -20.287,-0.449 -7.645,-0.396 -15.27,-1.174 -22.907,-1.729 -1.077,-0.078 -2.193,0.071 -3.263,0.269 -6.088,1.117 -12.026,0.044 -17.853,-1.48 -5.111,-1.338 -8.938,-2.417 -13.963,-4.074 -1.986,-0.655 -7.039,-1.281 -8.25,-2.649 -1.212,-1.368 7.437,-2.903 11.21,-3.563 1.423,-0.248 5.689,-0.917 7.049,-0.564 6.253,1.614 12.407,-0.219 18.438,-0.945 7.028,-0.851 14.091,-1.52 21.12,-2.398 7.055,-0.882 14.151,-1.433 21.225,-2.172 6.904,-0.722 13.787,-1.677 20.704,-2.2 7.645,-0.575 15.317,-0.8 22.981,-1.134 9.126,-0.396 18.254,-0.748 27.38,-1.116 3.474,-0.143 6.961,-0.126 10.418,-0.444 9.439,-0.871 18.848,-2.324 28.302,-2.714 9.85,-0.405 19.695,-0.557 29.523,-1.517 4.537,-0.445 9.075,-0.536 13.505,-0.663 4.43,-0.128 9.813,0.094 10.837,1.206 1.024,1.112 0.955,6.6 -0.036,7.147 -0.991,0.548 -7.123,0.507 -10.564,0.662 -8.345,0.382 -16.691,0.836 -25.042,1.015 -5.609,0.12 -11.231,-0.345 -16.842,-0.236 -4.547,0.086 -9.086,0.939 -13.626,0.912 -6.926,-0.044 -13.849,-0.585 -20.774,-0.855 -2.743,-0.105 -5.497,-0.147 -8.239,-0.047 -4.006,0.15 -8.005,0.527 -12.011,0.687 -10.216,0.401 -20.434,0.724 -30.651,1.103 -3.654,0.136 -7.312,0.256 -10.957,0.534 -6.362,0.487 -12.709,1.164 -19.073,1.621 -3.937,0.283 -8.922,0.457 -12.34,1.88 -3.417,1.423 1.674,2.705 3.395,2.312 1.595,-0.365 3.212,-0.691 4.837,-0.853 6.15,-0.606 16.082,-1.775 17.362,-1.44 1.28,0.334 2.296,2.146 3.252,2.437 1.39,0.426 5.596,-0.25 4.058,-1.058 -1.538,-0.809 -2.174,-0.813 -2.979,-1.625 -0.804,-0.813 5.112,-0.889 7.456,-1.188 1.237,-0.158 2.263,-0.231 2.962,1.499 0.663,1.638 2.648,1.701 3.334,0.095 0.757,-1.77 1.723,-2.004 3.289,-2.063 1.443,-0.055 2.872,-0.425 4.315,-0.598 1.701,-0.205 3.182,-0.188 3.973,1.903 0.344,0.903 1.485,2.579 3.545,2.679 2.06,0.102 -1.542,-3.9 -0.409,-4.483 1.133,-0.583 2.832,-0.771 4.181,-0.623 1.348,0.146 2.642,1.577 3.158,3.072 0.516,1.493 2.356,1.604 2.408,0.629 0.051,-0.977 -1.347,-2.629 -0.802,-3.238 0.545,-0.608 5.493,-0.713 8.095,-0.124 1.68,0.383 3.001,2.29 4.524,3.465 0.414,0.318 3.911,1.692 2.635,0.139 -1.276,-1.555 -2.246,-2.156 -2.034,-3.33 0.212,-1.175 3.137,1.458 4.531,2.363 1.612,1.047 5.055,3.728 5.049,2.659 -0.006,-1.067 -1.493,-2.074 -2.128,-3.112 -0.503,-0.818 -1.316,-2.131 -0.547,-2.899 0.769,-0.77 2.335,0.765 2.958,1.546 0.864,1.084 1.721,2.104 3.007,3.535 1.285,1.431 2.139,-1.22 1.111,-2.394 -1.028,-1.173 -2.191,-2.733 -0.941,-2.987 1.25,-0.255 5.319,0.354 6.666,1.236 1.347,0.884 1.551,2.381 3.078,3.943 1.527,1.563 0.77,-3.625 2.437,-2.789 1.667,0.835 3.082,3.35 4.266,3.598 1.184,0.249 0.695,-2.689 1.25,-3.944 0.682,-1.547 3.412,-1.777 3.874,-0.208 0.407,1.382 1.255,2.139 2.262,2.697 1.274,0.704 2.763,2.457 4.003,2.018 1.24,-0.44 -3.698,-4.839 -2.316,-5.436 1.382,-0.595 2.539,0.222 3.315,1.683 0.338,0.639 1.179,1.861 2.723,1.026 1.544,-0.832 2.521,0.407 3.769,1.683 0.53,0.543 2.371,2.854 2.324,1.072 -0.047,-1.783 -4.293,-5.739 -2.947,-6.33 1.347,-0.591 2.972,-0.322 3.99,1.539 0.449,0.818 0.899,1.75 1.667,2.413 0.575,0.496 0.972,0.938 2.394,0.879 1.421,-0.062 -1.943,-4.495 -1.292,-4.924 0.651,-0.43 7.814,0.1 9.237,0.07 1.422,-0.026 1.189,0.44 0.604,1.109 -0.587,0.67 -1.557,2.629 0.07,3.09 0.939,0.269 2.47,-0.671 2.382,-1.819 -0.106,-1.368 0.205,-2.059 0.758,-2.37 0.668,-0.379 1.68,-0.431 2.748,-0.021 1.068,0.411 -1.372,2.785 -0.23,3.473 1.493,0.897 4.28,3.149 5.162,2.722 0.882,-0.43 -1.064,-4.075 -1.042,-5.223 0.022,-1.146 0.382,-1.397 1.764,-1.138 1.381,0.261 3.23,4.555 4.712,5.241 1.483,0.688 1.203,-3.948 1.551,-4.633 0.349,-0.687 0.876,-0.879 1.32,-0.888 0.425,-0.01 1.048,0.339 1.253,0.711 0.838,1.516 1.948,4.535 3.351,4.942 1.403,0.407 -0.171,-4.638 2.287,-4.895 2.458,-0.257 4.025,3.442 4.189,3.611 1.958,2.013 7.01,-5.278 7.331,-3.163 0.321,2.116 -0.042,9.297 -1.517,10.419 -1.475,1.123 -26.379,0.559 -39.539,0.695 -21.787,0.227 -43.562,-0.2 -65.318,-1.216 -5.626,-0.263 -9.303,-0.783 -12.803,-0.922 -3.5,-0.139 -4.832,-0.18 -5.174,-0.296 -5.646,-1.938 -11.589,-1.533 -17.376,-1.847 -10.397,-0.56 -20.837,-0.411 -31.258,-0.463 -5.357,-0.028 -13.546,1.861 -15.402,3.33 -1.856,1.469 7.974,-0.619 12.086,-0.925 5.327,-0.396 10.653,-0.164 16.012,0.494 2.996,0.368 6.145,0.313 9.12,-0.184 2.975,-0.495 6.44,-0.433 11.602,-0.176 5.162,0.256 7.904,0.719 11.66,1.235 1.077,0.147 2.12,0.644 3.194,0.702 7.46,0.41 14.923,0.751 22.388,1.104 2.375,0.114 4.751,0.205 7.128,0.299 8.394,0.33 16.785,0.783 25.183,0.947 6.023,0.119 12.053,-0.204 18.081,-0.231 10.796,-0.049 24.458,-0.042 32.387,-0.042 7.929,0 16.891,0.165 17.419,0.922 0.529,0.758 0.285,3.17 0.104,4.593 -0.086,0.691 -0.073,1.846 -1.228,2.297 -1.151,0.451 -9.654,0.796 -14.715,0.655 z m 22.288,-8.586 c -0.152,3.793 -0.646,5.978 -0.676,8.148 -0.077,5.646 0.044,11.291 -0.048,16.937 -0.073,4.509 -0.254,12.638 -0.497,14.747 -0.242,2.109 -5.845,1.726 -5.977,-0.472 -0.132,-2.196 2.92,-23.876 4.204,-35.271 0.639,-5.667 0.461,-14.329 1.545,-17.018 1.084,-2.686 1.601,9.136 1.449,12.929 z m 0.175,-42.558 c -0.742,8.641 -1.321,24.617 -1.482,25.41 -0.161,0.792 -0.614,1.298 -1.111,0.471 -0.498,-0.827 -0.435,-3.619 -0.44,-5.566 -0.009,-2.717 -0.415,-5.216 -0.639,-9.191 -0.225,-3.976 -0.467,-8.979 -1.342,-13.976 -0.774,-4.438 -2.144,-11.519 -1.864,-13.275 0.279,-1.757 5.356,-1.893 7.884,-0.1 2.353,1.669 1.282,4.016 0.98,6.055 -0.506,3.413 -1.692,6.751 -1.986,10.172 z m 14.676,37.293 c -0.027,2.048 0.444,4.326 -0.954,4.322 -1.397,0 -0.063,-5.213 -1.74,-3.895 -1.676,1.317 -0.823,2.448 -0.94,3.848 -0.041,0.486 -0.865,3.461 -1.411,1.453 -0.546,-2.008 0.348,-5.836 -1.71,-5.216 -2.057,0.62 0.684,5.216 -1.111,5.473 -1.795,0.257 -0.296,-4.329 -1.815,-3.661 -1.519,0.668 -0.843,3.411 -1.159,4.604 -0.316,1.192 -1.288,0.907 -1.386,-0.986 -0.098,-1.896 -0.155,-7.868 -0.381,-12.298 -0.009,-0.182 0.008,-0.365 0.035,-0.545 0.254,-1.699 1.266,-2.639 2.904,-2.537 1.626,0.103 3.297,0.673 4.854,0.433 2.523,-0.391 6.31,-0.313 7.25,0.584 0.94,0.897 1.504,8.613 0.025,8.325 -1.478,-0.289 -2.44,-1.51 -2.461,0.096 z m 28.479,288.611 c -1.86,6.079 -3.439,12.323 -4.277,18.612 -1.177,8.837 -1.507,17.782 -2.313,26.672 -0.624,6.896 -1.417,13.78 -2.14,20.667 -0.434,4.127 -0.465,11.271 -1.971,12.377 -1.507,1.104 -1.059,-13.872 -1.653,-20.803 -0.89,-10.349 -1.853,-20.688 -2.751,-31.034 -0.238,-2.731 -0.21,-5.492 -0.573,-8.203 -0.531,-3.962 -1.174,-7.919 -2.056,-11.813 -0.248,-1.095 -1.337,-2.171 -2.308,-2.901 -7.89,-5.963 -16.749,-10.164 -26.635,-10.158 -6.985,0 -14.193,0.15 -21.047,2.667 -5.622,2.063 -12.332,5.107 -15.337,6.464 -3.006,1.356 6.202,-18.89 9.736,-28.758 3.57,-9.967 7.174,-19.921 10.777,-29.875 3.567,-9.856 9.281,-31.051 11.376,-28.998 2.095,2.052 3.565,4.678 5.879,6.983 3.263,3.255 6.871,5.851 11,7.411 4.277,1.617 12.643,2.276 13.807,3.206 1.164,0.929 1.282,1.998 1.524,3.379 1.934,10.964 4.691,21.668 8.656,32.112 1.896,4.991 3.705,9.912 7.273,13.924 2.524,2.837 6.831,6.037 7.301,8.218 0.472,2.179 -3.181,6.298 -4.268,9.851 z m 9.076,-22.133 c 0.339,1.771 0.527,3.613 0.433,5.406 -0.047,0.866 -0.842,2.633 -1.42,2.563 -0.579,-0.069 -0.646,-0.99 -0.545,-1.525 0.17,-0.89 0.877,-1.818 0.868,-2.638 -0.005,-0.595 -0.412,-1.525 -1.313,-1.514 -0.902,0.011 -1.221,0.982 -1.536,1.601 -0.444,0.868 -0.88,1.623 -2.029,1.31 -1.071,-0.293 -1.378,-1.033 -1.188,-2.084 0.092,-0.512 0.629,-1.364 -0.047,-1.771 -0.677,-0.406 -0.987,-0.734 -1.035,-1.243 -0.08,-0.847 0.563,-1.72 0.897,-2.613 0.158,-0.425 0.331,-2.099 -0.587,-1.865 -0.917,0.231 -3.016,2.604 -3.733,2.209 -0.719,-0.396 -1.206,-1.462 -1.052,-2.03 0.415,-1.518 3.886,-4.672 2.104,-4.688 -1.782,-0.016 -3.84,0.636 -4.625,0 -0.785,-0.635 4.187,-4.772 2.645,-4.965 -1.542,-0.191 -5.193,-0.043 -4.788,-1.261 0.406,-1.219 1.92,-2.823 2.741,-4.184 0.224,-0.371 0.851,-1.202 0.027,-1.421 -0.823,-0.22 -1.401,-0.324 -1.917,-0.068 -0.741,0.373 -1.087,1.847 -1.951,1.703 -0.864,-0.144 -1.084,-1.812 -1.005,-2.532 0.183,-1.682 4.604,-4.612 2.879,-4.671 -1.726,-0.059 -3.979,0.544 -4.965,-0.01 -0.986,-0.55 2.076,-2.4 2.812,-3.478 0.338,-0.493 0.328,-1.362 0.172,-1.985 -0.068,-0.276 -0.88,-0.46 -1.373,-0.514 -0.801,-0.082 -2.509,0.419 -3.077,-0.021 -0.569,-0.441 0.868,-2.316 2.5,-3.759 1.632,-1.443 3.477,-3.196 2.021,-3.04 -1.456,0.155 -3.829,1.682 -4.721,1.488 -0.893,-0.19 -0.882,-1.247 -0.642,-1.756 0.444,-0.938 1.386,-1.629 1.903,-2.543 0.528,-0.932 0.208,-1.614 -0.938,-2.01 -1.985,-0.687 -2.625,-1.799 -2.001,-3.201 0.212,-0.479 0.522,-0.977 0.924,-1.297 1.204,-0.968 3.584,-2.338 2.165,-3.147 -1.42,-0.812 -4.211,0.806 -4.425,0.011 -0.213,-0.796 3.229,-3.22 4.554,-4.614 0.813,-0.855 1.334,-1.979 0.292,-2.834 -0.356,-0.292 -1.522,0.341 -2.29,0.629 -0.476,0.179 -0.317,0.327 -1.156,0.449 -0.839,0.122 -0.635,-0.943 -0.636,-1.573 -0.003,-1.046 0.518,-1.985 1.556,-2.814 0.569,-0.452 1.147,-0.901 1.754,-1.303 1.067,-0.707 3.545,-0.812 2.271,-2.69 -0.946,-1.396 -2.519,0.195 -3.672,0.994 -0.276,0.191 -0.863,0.427 -1.208,0 -0.346,-0.43 -0.802,-2.629 0.012,-3.149 0.813,-0.521 1.299,-0.975 1.705,-1.606 0.979,-1.529 1.169,-3.488 1.752,-4.862 0.823,-1.94 3.072,-2.146 2.363,-2.674 -0.709,-0.528 -2.116,-0.453 -2.808,-0.139 -1.297,0.589 -1.925,2.044 -2.96,2.107 -1.587,0.096 -1.48,-1.056 -1.466,-1.57 0.029,-0.965 0.604,-1.765 1.596,-2.554 0.755,-0.6 1.868,-1.008 2.418,-1.982 0.286,-0.508 1.363,-1.939 0.271,-2.091 -1.092,-0.149 -3.509,1.146 -4.376,1.248 -0.868,0.104 -0.528,-0.862 -0.158,-1.449 0.37,-0.587 7.102,-5.259 4.321,-5.078 -2.781,0.181 -4.394,0.878 -4.914,-0.116 -0.521,-0.993 1.18,-2.215 2.178,-3.354 0.692,-0.791 2.038,-2.914 0.689,-3.082 -1.351,-0.168 -2.414,0.983 -3.196,0.95 -0.781,-0.034 -0.474,-0.925 -0.354,-1.166 0.598,-1.19 1.937,-1.798 2.897,-2.868 0.577,-0.642 2.05,-2.584 1.083,-2.652 -0.967,-0.07 -3.121,1.479 -3.828,1.426 -0.708,-0.054 -0.729,-1.45 -0.736,-2.029 -0.015,-1.326 1.063,-2.214 2.12,-3.154 0.824,-0.733 1.637,-1.499 1.91,-2.531 0.274,-1.032 -0.294,-1.03 -1.096,-0.838 -0.802,0.191 -1.351,1.023 -1.988,1.042 -0.637,0.019 -0.109,-1.274 0.417,-1.763 0.526,-0.489 1.256,-0.639 1.564,-0.813 1.086,-0.619 2.855,-1.341 2.027,-2.697 -1.224,-2.006 -2.383,-0.065 -3.482,0.693 -0.56,0.387 -1.102,0.92 -1.792,0.65 -0.69,-0.269 -0.574,-1.446 -0.562,-2.262 0.023,-1.495 0.673,-2.738 2.201,-3.808 0.945,-0.661 4.035,-3.261 2.628,-3.396 -1.407,-0.137 -1.993,-0.273 -2.568,-0.111 -0.818,0.229 -1.781,1.103 -2.166,-0.222 -0.185,-0.631 0.356,-1.681 0.88,-2.264 0.717,-0.798 1.868,-1.213 2.564,-2.021 0.489,-0.57 2.536,-3.66 1.095,-3.351 -1.442,0.312 -4.325,2.845 -5.084,2.591 -0.757,-0.255 -0.679,-1.813 -0.377,-2.605 0.567,-1.479 2.27,-2.375 3.521,-3.566 0.725,-0.691 2.916,-2.482 1.413,-2.544 -1.504,-0.06 -1.884,0.298 -2.633,0.862 -1.057,0.794 -1.865,1.787 -2.461,1.479 -1.02,-0.522 -1.45,-2.795 -1.113,-4.237 0.336,-1.442 6.221,-3.248 9.63,-2.871 3.408,0.377 11.755,-2.777 12.208,-1.412 0.453,1.366 0.146,2.06 -0.023,3.21 -1.278,8.7 -1.231,17.46 -1.464,26.225 -0.246,9.279 -1.128,18.54 -1.621,27.815 -0.161,3.05 -0.044,6.119 0.072,9.175 0.166,4.354 0.447,8.704 0.68,13.055 0.457,8.561 1.461,17.042 3.417,25.401 0.58,2.48 0.81,5.056 1.535,7.488 2.825,9.439 4.571,19.115 6.416,28.767 z M 315.005,903.151 c -1.378,0.098 -2.209,1.113 -2.942,2.158 -0.848,1.205 -1.568,2.83 -2.491,2.635 -0.923,-0.196 -0.548,-2.241 -0.259,-3.525 0.386,-1.706 1.164,-3.188 2.677,-4.46 1.175,-0.989 3.321,-3.794 2.792,-4.149 -0.529,-0.354 -1.688,0.374 -2.276,0.785 -0.836,0.583 -1.619,1.699 -2.451,2.002 -0.832,0.304 -0.421,-2.569 -0.075,-3.902 1.103,-4.262 5.181,-8.443 4.481,-8.679 -0.917,-0.308 -2.95,2.16 -3.671,2.309 -0.721,0.147 -0.551,-0.241 -0.85,-1.347 -0.299,-1.104 0.333,-2.856 1.819,-4.196 1.355,-1.222 2.691,-2.487 3.854,-3.887 0.482,-0.582 2.678,-4.181 1.072,-3.606 -1.606,0.574 -4.438,5.021 -5.488,4.869 -1.051,-0.152 -0.602,-1.823 -0.563,-2.572 0.039,-0.789 0.368,-1.484 1.114,-2.173 1.86,-1.718 4.983,-5.041 5.021,-6.003 0.037,-0.962 -1.977,-0.074 -2.631,0.393 -1.297,0.926 -2.677,2.902 -3.542,3.021 -0.864,0.12 0.104,-2.088 0.757,-3.079 0.576,-0.873 1.409,-1.604 2.544,-2.229 2.003,-1.104 5.868,-2.221 9.086,-2.496 3.217,-0.274 3.985,5.403 4.146,8.599 0.16,3.193 -0.004,10.967 0.161,16.447 0.153,5.097 0.528,10.188 0.733,15.283 0.256,6.373 0.629,12.754 0.616,19.129 -0.028,14.807 -0.312,29.613 -0.386,44.422 -0.034,6.946 -0.044,13.905 0.323,20.841 0.909,17.168 -0.521,34.302 -0.562,51.458 -0.027,11.622 0.41,23.238 0.153,34.857 -0.241,10.928 -0.512,21.855 -0.708,32.783 -0.029,1.621 0.327,3.246 0.416,4.873 0.121,2.188 0.318,4.385 0.193,6.562 -0.219,3.82 -0.811,7.622 -0.953,11.442 -0.084,2.267 -1.207,3.172 -3.115,3.875 -1.743,0.643 -3.392,0.428 -5.187,0.146 -1.244,-0.195 -3.409,-0.038 -4.022,-0.429 -0.613,-0.392 3.858,-4.146 3.21,-4.787 -0.647,-0.643 -0.942,-0.748 -1.41,-0.763 -0.891,-0.024 -1.483,0.829 -2.063,1.529 -0.896,1.08 -2.281,3.801 -2.938,3.77 -0.656,-0.032 -0.865,-1.667 -0.507,-2.673 0.359,-1.007 1.748,-2.766 2.754,-4.051 1.197,-1.527 5.335,-4.576 3.854,-4.947 -1.483,-0.369 -2.474,0.127 -3.346,0.857 -1.053,0.883 -2.757,3.295 -3.026,2.35 -0.271,-0.945 -0.076,-2.153 0.311,-3.133 0.389,-0.979 1.092,-1.896 1.841,-2.66 1.913,-1.953 3.955,-3.778 5.865,-5.736 0.249,-0.252 0.735,-1.069 0.207,-1.374 -0.528,-0.306 -1.266,-0.521 -1.618,-0.35 -0.627,0.305 -1.109,0.905 -1.656,1.38 -1.476,1.278 -3.463,3.268 -4.34,3.683 -0.877,0.414 -1.041,-2.385 -1.021,-3.573 0.041,-2.427 1.158,-4.351 3.579,-5.891 1.075,-0.683 2.105,-1.483 2.994,-2.39 0.408,-0.417 1.757,-1.868 0.614,-1.852 -1.142,0.019 -1.835,-0.263 -2.402,0.124 -1.333,0.904 -2.765,2.475 -3.7,2.854 -0.937,0.382 -1.282,-2.62 -1.282,-3.464 0,-0.996 0.622,-1.684 1.968,-3.189 0.908,-1.017 3.098,-3.717 2.072,-3.943 -1.025,-0.226 -3.143,2.086 -3.69,1.482 -0.547,-0.604 -0.342,-1.208 -0.114,-1.478 1.296,-1.532 2.783,-2.905 4.064,-4.45 0.615,-0.74 2.512,-2.942 1.582,-3.032 -0.93,-0.091 -1.624,0.273 -2.188,0.703 -1.396,1.059 -3.47,4.016 -3.887,2.944 -0.417,-1.07 -0.375,-1.398 -0.331,-2.085 0.125,-1.942 1.03,-3.511 2.845,-4.821 1.271,-0.92 2.614,-1.796 3.698,-3.028 0.65,-0.74 2.506,-2.649 1.274,-2.888 -1.229,-0.239 -2.136,0.21 -2.929,0.818 -1.402,1.075 -2.766,3.355 -3.788,3.221 -1.023,-0.138 -1.174,-1.056 -1.16,-1.877 0.012,-0.699 0.372,-1.409 1.161,-2.138 1.611,-1.485 3.212,-2.982 4.814,-4.479 0.62,-0.579 1.821,-4.488 0.298,-3.402 -1.523,1.086 -4.539,5.258 -5.595,5.258 -1.055,0 -0.97,-1.25 -0.969,-2.066 0.003,-1.699 0.782,-3.063 2.292,-4.32 1.515,-1.265 2.772,-2.865 3.989,-4.437 0.281,-0.364 0.751,-2.795 -0.471,-2.129 -1.223,0.668 -3.42,2.988 -4.223,3.717 -0.802,0.729 -0.951,-1.457 -0.947,-2.465 0.012,-2.521 0.996,-4.74 3.385,-6.574 0.341,-0.264 0.753,-1.501 0.246,-1.729 -0.508,-0.228 -1.313,-0.173 -2.053,-0.105 -0.738,0.065 -1.459,-0.631 -1.494,-1.932 -0.036,-1.299 0.879,-2.813 2.137,-4.002 0.839,-0.794 1.662,-1.595 2.279,-2.749 0.432,-0.807 2.528,-3.715 0.927,-3.052 -1.603,0.663 -4.409,3.44 -5.347,3.608 -0.937,0.168 0.516,-2.615 1.058,-3.32 1.106,-1.441 2.537,-2.635 3.711,-4.031 0.487,-0.578 2.453,-2.595 1.143,-2.539 -1.31,0.058 -2.304,0.509 -3.1,1.108 -1,0.753 -2.05,2.14 -2.58,1.865 -0.53,-0.275 -0.621,-1.704 -0.624,-2.355 -0.007,-1.159 0.513,-1.741 1.929,-3.103 1.708,-1.641 3.545,-3.152 5.194,-4.848 0.346,-0.356 1.851,-1.856 0.714,-1.989 -1.136,-0.132 -2.085,-0.152 -2.468,0.181 -1.617,1.396 -4.138,4.686 -4.938,4.388 -0.799,-0.296 -0.718,-1.437 -0.707,-2.212 0.016,-0.99 0.411,-1.832 1.199,-2.635 1.667,-1.697 3.381,-3.349 5.005,-5.084 0.551,-0.589 2.983,-2.235 1.557,-2.442 -1.428,-0.206 -2.942,0.564 -4.006,1.557 -1.645,1.53 -2.698,3.5 -3.447,2.721 -1.233,-1.284 -0.18,-3.494 1.274,-4.877 1.325,-1.261 2.686,-2.511 3.813,-3.938 0.58,-0.732 1.515,-4.199 0.293,-3.311 -1.222,0.888 -3.194,3.267 -4.197,3.326 -1.003,0.061 -0.705,-2.112 -0.396,-3.22 0.444,-1.593 1.462,-2.908 2.548,-4.169 1.518,-1.759 5.783,-5.965 3.938,-5.791 -1.843,0.172 -1.63,0.268 -2.625,1.032 -0.765,0.588 -2.521,2.878 -3.272,2.803 -0.751,-0.076 -0.934,-1.386 -0.93,-2.262 0.006,-1.659 0.655,-3.143 2.143,-4.58 1.583,-1.528 6.369,-5.694 3.801,-5.809 -2.568,-0.115 -4.902,4.025 -5.461,3.412 -0.559,-0.613 -0.548,-1.375 -0.542,-1.968 0.014,-1.413 0.984,-2.518 2.194,-3.651 1.848,-1.729 3.452,-3.723 5.111,-5.646 0.138,-0.159 0.004,-0.826 -0.191,-0.94 -0.419,-0.248 -1.014,-0.479 -1.438,-0.362 -0.461,0.128 -0.846,0.627 -1.201,1.021 -1.191,1.321 -2.87,3.694 -3.6,3.822 -0.729,0.129 -0.874,-1.938 -0.848,-3.045 0.049,-2.038 0.829,-3.707 2.529,-5.188 1.648,-1.438 3.222,-2.97 4.748,-4.538 0.289,-0.297 1.521,-1.671 0.72,-1.928 -0.803,-0.257 -1.952,-0.074 -2.298,0.191 -1.147,0.88 -2.137,1.977 -3.12,3.053 -0.823,0.896 -1.117,1.319 -2.053,2.126 -0.935,0.806 -1.309,-2.729 -1.301,-3.811 0.015,-1.799 0.977,-2.691 3.438,-4.883 1.488,-1.322 2.836,-2.815 4.142,-4.324 0.215,-0.248 0.047,-1.142 -0.246,-1.427 -0.26,-0.254 -1.059,-0.08 -1.319,0.161 -1.066,0.979 -2.071,1.902 -3.064,2.965 -0.688,0.733 -1.407,1.894 -2.241,1.892 -0.834,-0.002 -0.741,-2.187 -0.724,-3.393 0.039,-2.655 1.128,-4.812 3.474,-6.692 1.818,-1.458 4.239,-3.651 4.789,-5.009 0.55,-1.355 -1.556,-1.9 -2.522,-0.87 -1.73,1.849 -4.002,5.166 -4.776,5.336 -0.774,0.172 -0.228,-5.154 -0.156,-7.896 0.049,-1.935 1.916,-3.017 2.854,-4.708 0.442,-0.799 1.902,-3.617 0.418,-2.958 -1.485,0.659 -2.651,1.985 -3.5,2.064 -0.85,0.08 -0.464,-2.389 -0.618,-3.092 -0.482,-2.182 -0.017,-3.829 1.949,-5.205 1.126,-0.79 1.87,-2.175 2.646,-3.381 0.181,-0.28 0.783,-2.315 -0.474,-1.991 -1.257,0.324 -3.616,4.292 -4.083,3.704 -0.468,-0.587 -0.486,-2.723 -0.292,-3.946 0.265,-1.664 1.066,-3.175 2.402,-4.589 0.952,-1.01 1.836,-2.089 2.587,-3.421 0.593,-1.052 2.96,-4.601 1.027,-3.854 -1.933,0.745 -4.665,7.021 -5.842,6.438 -1.177,-0.583 -0.897,-2.13 -0.905,-3.152 -0.016,-2.383 1.562,-4.415 3.162,-6.432 1.586,-1.997 3.264,-3.925 4.811,-5.951 0.191,-0.254 0.466,-1.923 0.169,-2.142 -0.3,-0.221 -1.042,0.305 -1.939,1.282 -0.896,0.978 -4.426,6.092 -5.45,6.364 -1.023,0.271 -0.849,-2.439 -0.843,-3.78 0.013,-2.948 1.094,-4.513 4,-7.651 1.29,-1.383 3.675,-5.012 2.296,-4.914 z m 18.483,-40.09 c -0.88,0.239 -2.284,-0.925 -3.911,-1.361 -1.627,-0.438 -5.515,-1.4 -8.531,-0.567 -2.083,0.575 -4.396,1.373 -6.727,-0.144 -0.688,-0.446 -2.441,0.237 -3.419,0.854 -1.778,1.124 -3.707,3.261 -5.225,3.415 -1.517,0.154 2.381,-3.325 4.15,-4.785 1.085,-0.895 3.864,-3.148 2.874,-3.246 -0.991,-0.096 -2.333,-0.14 -3.043,0.269 -1.398,0.801 -3.704,3.546 -4.349,3.065 -0.646,-0.479 -0.034,-2.924 0.634,-3.614 1.883,-1.942 4.071,-3.592 6.155,-5.337 1.358,-1.14 3.728,-2.653 5.103,-4.158 1.375,-1.505 -2.948,-0.127 -3.461,0.233 -2.669,1.879 -7.371,6.08 -7.916,5.472 -0.545,-0.609 0.283,-6.664 0.803,-10.136 0.142,-0.945 0.929,-1.954 1.694,-2.618 1.792,-1.556 3.807,-2.853 5.61,-4.395 0.723,-0.617 3.919,-2.862 1.645,-2.911 -2.275,-0.05 -4.611,2.157 -6.882,3.891 -2.271,1.73 -1.278,-2.834 0.281,-4.236 1.356,-1.22 2.906,-2.224 4.291,-3.416 0.779,-0.673 3.479,-2.939 2.139,-3.162 -1.341,-0.224 -5.737,3.256 -7.101,4.33 -1.361,1.074 -0.91,-2.282 0.275,-3.229 2.275,-1.821 4.645,-3.528 6.885,-5.391 0.421,-0.351 1.229,-0.969 0.713,-1.652 -0.517,-0.685 -1.333,-0.563 -2.622,-0.103 -1.289,0.46 -2.571,2.541 -3.974,3.063 -1.401,0.521 -1.08,-2.277 -0.721,-3.307 0.558,-1.597 1.851,-2.773 3.382,-3.836 1.443,-1.002 5.428,-2.703 3.864,-3.775 -1.564,-1.074 -5.02,2.869 -6.261,1.803 -1.241,-1.066 -0.065,-3.611 1.872,-5.013 1.837,-1.328 4.244,-2.772 5.439,-3.667 1.194,-0.896 -1.127,-1.053 -1.678,-1.011 -1.637,0.123 -3.159,1.87 -4.391,1.784 -1.229,-0.084 -0.497,-2.283 0.396,-3.211 1.261,-1.311 2.801,-2.352 4.107,-3.622 0.411,-0.399 1.828,-2.537 0.453,-2.32 -1.375,0.219 -3.187,1.422 -4.179,1.9 -0.993,0.479 -0.835,-0.017 -0.489,-1.614 0.346,-1.597 1.959,-2.448 3.903,-2.749 1.065,-0.165 3.039,0.438 2.858,-0.657 -0.18,-1.095 -0.874,-2.412 -1.917,-2.639 -1.043,-0.226 -3.811,0.672 -4.474,0.557 -0.664,-0.114 0.107,-1.552 1.096,-2.418 0.989,-0.865 2.438,-1.588 3.577,-2.481 0.277,-0.218 0.792,-0.979 0.438,-1.481 -0.356,-0.503 -1.23,-0.521 -1.587,-0.394 -0.944,0.34 -1.802,0.916 -2.767,1.437 -0.965,0.521 -0.997,-1.566 -0.562,-2.324 0.434,-0.758 1.834,-1.986 2.465,-2.654 1.422,-1.504 1.122,-2.037 -1.143,-2.497 -1.688,-0.344 -2.168,-1.685 -0.768,-2.757 2.172,-1.661 1.092,-2.687 -0.832,-4.097 -1.923,-1.41 -4.722,-2.229 -8.32,-1.27 -4.555,1.215 -9.292,1.74 -13.946,2.587 -1.075,0.195 -2.156,0.416 -3.195,0.746 -9.382,2.989 -18.757,6.003 -28.133,9.014 -5.409,1.737 -10.592,3.936 -15.41,7.014 -6.003,3.836 -15.072,9.31 -18.35,11.316 -3.278,2.006 0.812,-3.654 1.863,-5.156 6.65,-9.499 14.184,-18.217 24.113,-24.424 4.469,-2.793 9.422,-4.804 14.114,-7.251 4.555,-2.376 12.986,-4.986 16.63,-6.776 3.644,-1.791 12.895,-3.668 19.562,-5.524 2.206,-0.615 5.015,-0.052 6.708,-1.231 1.584,-1.104 2.675,-3.844 4.452,-4.475 1.778,-0.631 3.491,-2.292 2.069,-2.36 -1.422,-0.069 -3.489,0.703 -4.222,0.509 -0.731,-0.193 -0.102,-1.078 0.44,-1.851 0.542,-0.773 5.899,-2.688 5.833,-4.13 -0.067,-1.441 -1.795,-0.94 -2.95,-0.856 -1.153,0.087 -1.667,-0.469 -1.581,-1.538 0.085,-1.067 0.278,-1.928 1.885,-2.601 1.409,-0.589 4.441,-1.674 3.544,-2.699 -0.897,-1.025 -2.224,-0.728 -3.163,-1.283 -0.941,-0.555 -0.324,-2.284 0.257,-3.396 0.667,-1.276 4.446,-3.047 2.691,-3.913 -1.754,-0.865 -2.479,-0.899 -2.479,-2.522 0,-1.621 4.488,-3.931 3.078,-4.744 -1.411,-0.813 -1.539,0.087 -2.607,-0.854 -1.067,-0.939 -0.919,-2.39 0.513,-3.334 0.813,-0.535 2.65,-1.839 2.088,-2.779 -0.563,-0.938 -1.9,0.138 -2.516,-0.812 -0.613,-0.947 0.085,-1.906 0.813,-2.822 0.727,-0.915 1.368,-1.967 -0.224,-2.912 -1.591,-0.945 1.464,-2.9 0.993,-4.184 -0.471,-1.282 -1.667,-0.557 -2.055,-1.742 -0.387,-1.188 0.294,-2.604 0.943,-3.131 1.046,-0.848 1.313,-2.18 0.086,-3.12 -1.228,-0.94 -1.079,-2.6 0.287,-4.121 0.704,-0.781 0.998,-1.598 -0.12,-2.208 -1.755,-0.958 -1.185,-2.599 -0.987,-3.889 0.337,-2.21 1.718,-4.359 0.605,-5.342 -1.111,-0.983 -0.341,-2.68 0.101,-3.136 1.086,-1.127 1.39,-1.946 -0.028,-3.117 -0.537,-0.441 -1.269,-1.484 -0.623,-2.361 0.646,-0.877 1.239,-1.616 1.231,-2.458 -0.013,-1.314 -0.595,-1.623 -0.691,-3.96 -0.097,-2.338 0.15,-9.521 0.464,-14.267 0.479,-7.25 1.947,-19.338 1.784,-21.86 -0.162,-2.524 -1.763,1.979 -1.852,3.264 -0.499,7.282 -0.966,14.567 -1.491,21.847 -0.341,4.733 -0.417,9.522 -1.262,14.17 -0.631,3.466 -0.579,6.864 -0.594,10.305 -0.033,8.221 -0.012,22.027 -0.011,25.723 10e-4,3.696 -3.326,-3.85 -4.557,-5.458 -1.224,-1.598 -1.949,-3.586 -3.447,-4.839 -3.773,-3.156 -5.237,-7.529 -6.384,-11.9 -2.38,-9.067 -2.96,-18.3 -1.805,-27.683 0.713,-5.791 0.954,-11.609 2.573,-17.29 2.245,-7.882 3.785,-15.953 6.634,-23.681 4.824,-13.092 7.074,-26.78 9.07,-40.519 0.26,-1.801 0.701,-3.573 1.034,-5.364 1.429,-7.708 2.846,-15.417 4.276,-23.124 0.131,-0.702 0.862,-4.116 1.482,-2.138 0.62,1.979 0.995,9.895 1.778,14.814 2.181,13.689 4.454,27.366 6.638,41.056 0.891,5.576 1.418,11.219 2.504,16.754 1.683,8.578 3.528,17.131 5.625,25.616 1.966,7.956 4.331,15.814 6.547,23.708 3.594,12.807 -1.678,27.468 -12.563,34.776 -0.738,0.495 -1.626,0.825 -2.493,1.05 -1.292,0.333 -2.208,-0.356 -2.396,-1.577 -0.223,-1.435 -0.179,-2.918 -0.18,-4.381 -0.01,-16.107 -0.065,-41.628 -0.564,-43.078 -0.499,-1.453 -1.37,1.12 -1.57,-0.673 -0.2,-1.792 -0.241,-3.129 -0.308,-4.696 -0.076,-1.829 -0.106,-3.662 -0.126,-5.492 -0.021,-1.832 -0.004,-3.665 -0.004,-5.497 0,-1.833 0,-3.664 0,-5.495 0,-1.833 -0.008,-3.664 0.002,-5.496 0.008,-1.833 0.036,-3.664 0.046,-5.496 0.008,-1.72 -0.073,-6.855 -0.831,-5.191 -0.758,1.664 -0.942,6.907 -0.995,10.367 -0.14,9.158 -0.119,18.321 -0.015,27.48 0.046,4.006 0.666,8.011 0.644,12.015 -0.032,5.604 -0.641,11.208 -0.584,16.81 0.044,4.359 0.711,8.716 1.138,13.068 0.142,1.445 0.371,2.884 0.607,4.318 0.926,5.608 1.171,11.207 0.046,16.833 -0.246,1.232 -0.171,2.572 -0.021,3.838 0.804,6.702 1.504,13.425 2.585,20.083 0.785,4.836 2.447,9.541 3.068,14.387 0.419,3.282 2.063,4.369 4.861,4.83 4.847,0.801 9.685,1.655 14.525,2.489 9.347,1.609 18.72,3.09 27.58,6.715 5.625,2.3 10.815,5.322 15.359,9.342 3.282,2.902 6.43,5.971 9.478,9.119 3.358,3.469 7.037,7.031 10.218,12.373 3.18,5.343 7.445,10.29 6.026,9.746 -1.419,-0.544 -15.394,-10.846 -22.057,-15.965 -3.421,-2.629 -12.38,-6.922 -16.4,-7.868 -6.523,-1.533 -13.103,-2.901 -19.904,-2.979 -5.997,-0.069 -13.547,-1.722 -19.543,-1.783 -4.803,-0.05 -11.383,-1.05 -12.823,0.832 -1.44,1.884 -0.845,11.051 -0.688,16.109 0.401,12.973 2.388,25.775 4.128,38.613 1.229,9.039 1.829,18.164 2.709,27.251 0.269,2.688 1.449,7.857 0.568,8.097 z m 17.7,155.895 c -0.098,1.895 -1.068,2.18 -1.386,0.986 -0.316,-1.194 0.36,-3.938 -1.159,-4.604 -1.519,-0.667 -0.02,3.918 -1.814,3.661 -1.794,-0.257 0.946,-4.853 -1.111,-5.473 -2.057,-0.62 -1.165,3.208 -1.71,5.216 -0.545,2.008 -1.37,-0.967 -1.411,-1.453 -0.117,-1.398 0.736,-2.529 -0.939,-3.848 -1.675,-1.319 -0.342,3.891 -1.74,3.895 -1.398,0 -0.926,-2.273 -0.954,-4.322 -0.022,-1.781 -2.016,-0.095 -3.342,0.104 -1.325,0.197 -0.956,-7.922 0.548,-8.692 1.504,-0.77 5.03,-0.813 7.607,-0.415 1.557,0.24 3.228,-0.33 4.854,-0.433 1.638,-0.102 2.65,0.838 2.905,2.537 0.026,0.18 0.044,0.364 0.035,0.545 -0.228,4.428 -0.286,10.403 -0.383,12.296 z m 0.464,-53.409 c -0.303,-2.039 -1.373,-4.386 0.979,-6.055 2.528,-1.793 7.604,-1.657 7.884,0.1 0.28,1.758 -1.09,8.839 -1.863,13.275 -0.875,4.997 -1.117,10 -1.343,13.976 -0.224,3.977 -0.63,6.476 -0.639,9.191 -0.006,1.947 0.058,4.739 -0.44,5.566 -0.497,0.827 -0.949,0.321 -1.11,-0.471 -0.161,-0.793 -0.74,-16.771 -1.482,-25.41 -0.294,-3.419 -1.48,-6.757 -1.986,-10.172 z m 9.36,92.094 c -0.132,2.196 -5.734,2.581 -5.977,0.472 -0.243,-2.109 -0.424,-10.238 -0.497,-14.747 -0.092,-5.646 0.029,-11.291 -0.048,-16.937 -0.03,-2.172 -0.524,-4.355 -0.676,-8.148 -0.152,-3.793 0.365,-15.613 1.449,-12.927 1.084,2.688 0.906,11.351 1.545,17.018 1.284,11.393 4.337,33.072 4.204,35.269 z m 242.165,-45.66 c -1.211,1.368 -6.264,1.994 -8.25,2.649 -5.024,1.657 -8.853,2.736 -13.963,4.074 -5.828,1.525 -11.766,2.599 -17.854,1.48 -1.07,-0.196 -2.187,-0.347 -3.264,-0.269 -7.637,0.555 -15.262,1.332 -22.906,1.729 -6.751,0.351 -13.526,0.244 -20.287,0.448 -4.741,0.146 -9.474,0.531 -14.212,0.697 -5.468,0.192 -10.94,0.377 -16.41,0.351 -5.688,-0.027 -11.245,0.863 -16.863,1.56 -6.323,0.782 -12.393,0.852 -18.788,1.093 -2.726,0.103 -5.827,0.082 -8.552,0.227 -2.009,0.105 -4.029,0.071 -6.042,0.027 -9.502,-0.208 -19.009,-0.739 -28.505,-0.589 -10.398,0.166 -20.782,1.112 -31.182,1.404 -5.06,0.141 -13.563,-0.204 -14.718,-0.656 -1.153,-0.451 -1.141,-1.604 -1.228,-2.297 -0.18,-1.423 -0.423,-3.835 0.104,-4.593 0.529,-0.758 9.49,-0.922 17.419,-0.922 7.93,0 21.592,-0.01 32.388,0.041 6.026,0.028 12.058,0.353 18.081,0.232 8.397,-0.164 16.789,-0.617 25.183,-0.947 2.376,-0.094 4.753,-0.185 7.128,-0.299 7.464,-0.354 14.927,-0.695 22.388,-1.104 1.074,-0.06 2.117,-0.555 3.194,-0.702 3.756,-0.518 6.498,-0.979 11.66,-1.235 5.162,-0.257 8.627,-0.319 11.602,0.176 2.976,0.495 6.124,0.552 9.12,0.184 5.359,-0.658 10.686,-0.891 16.012,-0.494 4.113,0.306 13.942,2.394 12.087,0.925 -1.856,-1.469 -10.046,-3.357 -15.402,-3.33 -10.421,0.052 -20.861,-0.097 -31.258,0.463 -5.787,0.313 -11.73,-0.093 -17.376,1.847 -0.343,0.116 -1.675,0.157 -5.175,0.296 -3.5,0.139 -7.176,0.658 -12.803,0.922 -21.756,1.016 -43.531,1.441 -65.316,1.216 -13.16,-0.138 -38.064,0.428 -39.539,-0.695 -1.476,-1.122 -1.838,-8.303 -1.518,-10.419 0.321,-2.116 5.372,5.175 7.331,3.163 0.165,-0.169 1.731,-3.868 4.189,-3.612 2.458,0.258 0.885,5.303 2.287,4.896 1.401,-0.407 2.512,-3.428 3.351,-4.942 0.206,-0.373 0.829,-0.719 1.253,-0.711 0.444,0.01 0.972,0.201 1.32,0.888 0.349,0.685 0.067,5.319 1.551,4.633 1.481,-0.688 3.331,-4.98 4.712,-5.241 1.382,-0.261 1.742,-0.01 1.764,1.138 0.022,1.146 -1.924,4.793 -1.042,5.223 0.882,0.429 3.669,-1.823 5.162,-2.722 1.142,-0.688 -1.298,-3.062 -0.229,-3.473 1.067,-0.41 2.08,-0.358 2.748,0.02 0.553,0.313 0.864,1.002 0.758,2.371 -0.088,1.148 1.443,2.088 2.382,1.819 1.627,-0.461 0.657,-2.42 0.07,-3.09 -0.587,-0.669 -0.819,-1.138 0.604,-1.109 1.423,0.029 8.586,-0.5 9.237,-0.071 0.65,0.43 -2.713,4.863 -1.292,4.925 1.422,0.06 1.817,-0.383 2.394,-0.88 0.769,-0.662 1.219,-1.594 1.667,-2.412 1.019,-1.861 2.644,-2.131 3.99,-1.539 1.346,0.591 -2.898,4.547 -2.947,6.33 -0.047,1.782 1.794,-0.529 2.324,-1.072 1.249,-1.274 2.226,-2.516 3.77,-1.683 1.544,0.834 2.385,-0.389 2.723,-1.026 0.776,-1.461 1.934,-2.276 3.315,-1.683 1.381,0.597 -3.558,4.994 -2.316,5.436 1.241,0.44 2.729,-1.313 4.003,-2.019 1.007,-0.559 1.855,-1.314 2.262,-2.696 0.462,-1.569 3.192,-1.339 3.874,0.208 0.555,1.255 0.065,4.193 1.25,3.944 1.185,-0.248 2.6,-2.763 4.267,-3.598 1.667,-0.836 0.909,4.352 2.437,2.789 1.527,-1.563 1.731,-3.062 3.078,-3.943 1.347,-0.884 5.415,-1.491 6.666,-1.236 1.25,0.254 0.087,1.814 -0.941,2.987 -1.027,1.173 -0.174,3.823 1.111,2.394 1.286,-1.432 2.143,-2.451 3.007,-3.535 0.623,-0.781 2.189,-2.315 2.958,-1.546 0.77,0.769 -0.044,2.081 -0.547,2.899 -0.635,1.038 -2.122,2.044 -2.128,3.112 -0.006,1.067 3.437,-1.612 5.048,-2.659 1.396,-0.905 4.319,-3.538 4.531,-2.363 0.212,1.174 -0.757,1.774 -2.034,3.329 -1.276,1.556 2.221,0.182 2.635,-0.138 1.523,-1.175 2.845,-3.082 4.524,-3.465 2.602,-0.589 7.55,-0.485 8.095,0.124 0.545,0.609 -0.853,2.263 -0.802,3.238 0.051,0.975 1.892,0.864 2.408,-0.629 0.516,-1.495 1.81,-2.927 3.158,-3.072 1.349,-0.146 3.048,0.04 4.181,0.623 1.133,0.583 -2.469,4.585 -0.409,4.483 2.061,-0.1 3.201,-1.774 3.545,-2.679 0.792,-2.092 2.272,-2.107 3.973,-1.903 1.443,0.173 2.872,0.543 4.315,0.598 1.566,0.061 2.532,0.295 3.289,2.063 0.687,1.606 2.671,1.543 3.334,-0.095 0.699,-1.731 1.725,-1.657 2.962,-1.499 2.345,0.301 8.261,0.377 7.456,1.188 -0.805,0.812 -1.44,0.817 -2.979,1.625 -1.538,0.809 2.668,1.483 4.058,1.059 0.956,-0.29 1.972,-2.103 3.252,-2.437 1.28,-0.335 11.212,0.833 17.362,1.44 1.625,0.16 3.241,0.486 4.837,0.852 1.721,0.396 6.813,-0.888 3.395,-2.311 -3.418,-1.423 -8.402,-1.597 -12.34,-1.88 -6.364,-0.457 -12.711,-1.134 -19.073,-1.621 -3.645,-0.278 -7.303,-0.398 -10.957,-0.534 -10.217,-0.379 -20.435,-0.7 -30.65,-1.103 -4.006,-0.158 -8.005,-0.535 -12.011,-0.687 -2.742,-0.102 -5.496,-0.06 -8.239,0.047 -6.927,0.271 -13.85,0.813 -20.774,0.855 -4.541,0.027 -9.079,-0.826 -13.626,-0.912 -5.61,-0.108 -11.233,0.356 -16.842,0.236 -8.351,-0.179 -16.696,-0.633 -25.042,-1.015 -3.441,-0.155 -9.573,-0.114 -10.564,-0.663 -0.99,-0.548 -1.061,-6.034 -0.035,-7.146 1.023,-1.112 6.406,-1.334 10.837,-1.206 4.43,0.127 8.968,0.218 13.505,0.663 9.828,0.96 19.673,1.11 29.522,1.517 9.455,0.39 18.863,1.843 28.304,2.714 3.457,0.318 6.943,0.303 10.418,0.444 9.126,0.368 18.254,0.72 27.38,1.116 7.663,0.334 15.335,0.559 22.979,1.134 6.917,0.523 13.8,1.479 20.704,2.2 7.073,0.739 14.169,1.29 21.226,2.172 7.028,0.88 14.092,1.549 21.119,2.398 6.03,0.728 12.186,2.561 18.438,0.945 1.36,-0.353 5.625,0.316 7.05,0.564 3.772,0.661 12.421,2.196 11.209,3.564 z"
         id="path256"
         inkscape:connector-curvature="0" />
      <g
         id="g260">
        <path
           d="m 384.146,504.285 c -2.553,2.999 -5.026,5.212 -7.428,6.638 -3.827,2.25 -8.516,3.375 -14.065,3.375 -7.879,0 -14.407,-2.474 -19.584,-7.417 -4.651,-4.421 -9.117,-11.838 -13.392,-22.252 -2.701,-6.519 -6.902,-18.656 -12.604,-36.411 -4.202,-12.961 -6.941,-20.791 -8.215,-23.489 -1.5,-3.146 -3.526,-5.318 -6.077,-6.518 l -9.275,58.966 c -0.102,0.376 -0.152,0.977 -0.152,1.798 0,2.55 1.05,4.874 3.15,6.973 1.725,1.649 4.012,3.112 6.863,4.386 h -30.04 c 6.001,-1.35 10.313,-3.188 12.938,-5.513 2.174,-1.95 3.524,-4.5 4.051,-7.65 l 9.788,-62.218 c -1.5,-1.318 -3.078,-2.456 -4.727,-3.409 -1.649,-0.953 -3.224,-1.429 -4.725,-1.429 h -1.688 c -7.726,0 -13.84,2.438 -18.338,7.313 -3.901,4.201 -6.378,9.751 -7.426,16.651 -0.451,2.7 -0.675,5.175 -0.675,7.425 0,5.701 1.462,10.54 4.388,14.514 2.098,2.853 5.586,5.927 10.461,9.227 -7.576,0 -13.201,-2.101 -16.875,-6.3 -3.076,-3.525 -4.613,-8.4 -4.613,-14.626 0,-1.874 0.188,-4.013 0.563,-6.413 1.722,-10.875 6.37,-18.827 13.942,-23.854 6.895,-4.574 16.302,-6.863 28.22,-6.863 9.069,0 15.815,3.146 20.24,9.434 2.548,3.669 5.544,11.529 8.993,23.581 3.749,13.026 7.646,23.246 11.694,30.658 l 8.011,-50.852 c 0.096,-0.371 0.146,-0.928 0.146,-1.671 0,-2.973 -1.274,-5.501 -3.825,-7.583 -1.501,-1.262 -3.64,-2.453 -6.412,-3.567 h 30.265 c -6.075,1.19 -10.501,2.975 -13.276,5.354 -2.177,1.859 -3.526,4.351 -4.05,7.473 l -9.001,57.155 c -0.075,0.301 -0.111,0.863 -0.111,1.688 0,6.3 2.138,12.825 6.412,19.575 5.399,8.477 12.225,12.713 20.478,12.713 2.098,0 4.631,-0.618 7.594,-1.855 2.96,-1.239 5.752,-2.908 8.377,-5.007 z"
           id="path258"
           inkscape:connector-curvature="0" />
      </g>
    </g>
  </g>
</svg>
