<?xml version="1.0" encoding="UTF-8" standalone="no"?>
<!-- Created with Inkscape (http://www.inkscape.org/) -->

<svg
   xmlns:dc="http://purl.org/dc/elements/1.1/"
   xmlns:cc="http://creativecommons.org/ns#"
   xmlns:rdf="http://www.w3.org/1999/02/22-rdf-syntax-ns#"
   xmlns:svg="http://www.w3.org/2000/svg"
   xmlns="http://www.w3.org/2000/svg"
   xmlns:sodipodi="http://sodipodi.sourceforge.net/DTD/sodipodi-0.dtd"
   xmlns:inkscape="http://www.inkscape.org/namespaces/inkscape"
   width="64.594048mm"
   height="175.46947mm"
   viewBox="0 0 64.594048 175.46947"
   version="1.1"
   id="svg10987"
   inkscape:version="0.92.3 (2405546, 2018-03-11)"
   sodipodi:docname="compass_spear.svg">
  <defs
     id="defs10981" />
  <sodipodi:namedview
     id="base"
     pagecolor="#ffffff"
     bordercolor="#666666"
     borderopacity="1.0"
     inkscape:pageopacity="0.0"
     inkscape:pageshadow="2"
     inkscape:zoom="0.35"
     inkscape:cx="-65.075364"
     inkscape:cy="628.7387"
     inkscape:document-units="mm"
     inkscape:current-layer="layer1"
     showgrid="false"
     inkscape:window-width="1366"
     inkscape:window-height="703"
     inkscape:window-x="0"
     inkscape:window-y="0"
     inkscape:window-maximized="1" />
  <metadata
     id="metadata10984">
    <rdf:RDF>
      <cc:Work
         rdf:about="">
        <dc:format>image/svg+xml</dc:format>
        <dc:type
           rdf:resource="http://purl.org/dc/dcmitype/StillImage" />
        <dc:title></dc:title>
      </cc:Work>
    </rdf:RDF>
  </metadata>
  <g
     inkscape:label="Layer 1"
     inkscape:groupmode="layer"
     id="layer1"
     transform="translate(-12.304166,-139.71765)">
    <g
       transform="matrix(0.26458333,0,0,0.26458333,-261.25771,-13.847576)"
       id="Compass_Spear">
      <path
         d="m 1058.844,1242.155 c -0.285,0 -0.672,-0.054 -0.893,-0.31 -0.196,-0.227 -0.266,-0.621 -0.195,-1.109 0.107,-0.755 0.426,-1.551 0.69,-2.16 0.396,-0.918 1.081,-2.202 1.741,-3.444 0.603,-1.132 1.171,-2.198 1.564,-3.061 0.434,-0.944 1.194,-1.158 3.436,-1.576 1.635,-0.304 3.668,-0.683 6.002,-1.78 4.883,-2.296 12.184,-7.175 16.688,-13.37 4.765,-6.554 10.142,-10.994 16.438,-13.575 0.075,-0.028 0.212,-0.07 0.381,-0.125 1.641,-0.523 3.683,-1.177 3.766,-2.838 0.031,-0.639 -0.236,-1.532 -1.693,-2.165 -1.341,-0.581 -3.19,-0.875 -5.5,-0.875 -2.486,0 -5.047,0.339 -6.757,0.623 -6.233,1.035 -11.946,3.675 -16.978,7.843 -1.743,1.444 -3.079,3.294 -4.37,5.082 -0.319,0.441 -0.64,0.884 -0.963,1.317 -0.145,-0.196 -0.33,-0.494 -0.552,-0.938 -0.829,-1.66 -1.745,-3.872 -2.391,-5.771 -0.152,-0.448 -0.305,-0.851 -0.452,-1.237 -0.393,-1.03 -0.702,-1.847 -0.849,-3.174 -0.104,-0.929 2.925,-2.653 4.064,-3.304 l 0.549,-0.313 c 2.688,-1.554 5.532,-2.981 8.283,-4.363 1.163,-0.584 2.327,-1.168 3.484,-1.765 4.725,-2.43 9.844,-3.661 15.214,-3.661 3.108,0 6.396,0.409 9.771,1.22 1.864,0.447 3.733,0.674 5.558,0.674 1.889,0 3.803,-0.244 5.688,-0.724 5.051,-1.286 8.032,-4.93 8.185,-9.993 0.073,-2.45 0.162,-4.901 0.251,-7.353 0.176,-4.868 0.357,-9.901 0.415,-14.864 0.034,-2.916 -0.136,-5.86 -0.299,-8.707 -0.078,-1.356 -0.156,-2.715 -0.214,-4.07 l -0.023,-0.559 c -0.061,-1.381 -0.122,-2.81 -0.125,-4.198 -0.01,-4.076 0,-8.153 0.014,-12.23 0.022,-8.954 0.047,-18.213 -0.119,-27.323 -0.11,-6.154 0.046,-12.567 0.479,-19.605 l 0.043,-0.701 c 0.298,-4.799 0.605,-9.761 0.346,-14.711 -0.185,-3.537 -0.138,-7.169 -0.093,-10.681 0.021,-1.577 0.04,-3.155 0.041,-4.731 0,-2.915 0,-5.829 -0.01,-8.743 -0.01,-6.354 -0.016,-12.711 0.021,-19.067 l 0.032,-6.159 c 0.063,-12.004 0.13,-24.417 0.338,-36.619 0.11,-6.335 0.328,-12.781 0.54,-19.016 0.16,-4.75 0.327,-9.662 0.444,-14.497 0.062,-2.519 -0.038,-5.06 -0.135,-7.518 -0.042,-1.082 -0.084,-2.165 -0.113,-3.247 -0.077,-2.844 -0.177,-5.688 -0.276,-8.53 -0.222,-6.285 -0.448,-12.784 -0.41,-19.159 0.035,-5.884 0.288,-11.878 0.533,-17.675 0.161,-3.803 0.327,-7.733 0.432,-11.605 0.022,-0.868 0.055,-1.831 0.089,-2.849 0.176,-5.388 0.396,-12.092 -0.207,-15.062 -0.403,-1.996 -1.747,-2.922 -2.826,-3.666 -1.245,-0.856 -2.146,-1.477 -2.146,-3.734 0,-3.488 0.802,-7.12 1.815,-11.719 0.438,-1.981 0.934,-4.229 1.397,-6.65 1.363,-7.097 1.381,-13.723 1.391,-16.906 10e-4,-0.396 0,-0.732 0,-1.007 0.035,-2.691 -1.47,-15.533 -6.112,-22.076 -1.136,-1.599 -2.514,-3.46 -4.123,-5.147 -11.333,-11.866 -13.267,-26.96 -4.926,-38.45 0.962,-1.325 1.82,-3.524 1.568,-5.45 -0.927,-7.117 1.055,-13.609 3.538,-20.753 1.567,-4.502 3.307,-9.043 4.987,-13.434 l 1.146,-2.998 c 0.669,-1.754 1.437,-3.747 2.229,-5.812 2.688,-6.986 5.467,-14.211 6.176,-16.557 0.519,-1.715 0.83,-2.529 1.118,-3.012 0.293,0.607 0.665,1.479 1.051,2.38 l 0.159,0.375 c 0.437,1.019 1.296,2.791 2.385,5.037 2.949,6.089 7.409,15.29 9.886,22.575 0.883,2.6 2.239,5.02 3.551,7.359 0.36,0.643 0.721,1.285 1.07,1.93 3.482,6.424 4.751,13.39 3.875,21.296 -0.16,1.441 0.164,3.537 1.252,4.969 5.254,6.928 5.172,14.893 4.398,21.77 -0.813,7.253 -3.339,14.634 -7.719,22.563 -1.969,3.566 -3.209,6.98 -3.792,10.438 -0.186,1.099 -0.379,2.197 -0.571,3.298 -1.156,6.594 -2.354,13.413 -2.006,20.303 0.276,5.453 1.023,10.941 1.746,16.249 0.157,1.157 0.315,2.314 0.468,3.472 0.093,0.691 0.187,1.319 0.274,1.909 0.289,1.931 0.499,3.324 0.365,5.188 -0.053,0.734 -0.359,1.145 -0.942,1.866 -0.726,0.896 -1.72,2.127 -1.793,4.384 -0.11,3.453 -0.136,13.941 -0.118,18.843 0.01,1.498 0.102,2.704 0.2,3.981 0.138,1.763 0.293,3.76 0.229,6.986 -0.036,1.888 -0.116,3.513 -0.2,5.232 -0.161,3.289 -0.328,6.689 -0.188,12.092 0.059,2.271 0.145,4.963 0.236,7.934 0.24,7.645 0.541,17.157 0.593,25.994 0.031,5.317 -0.241,10.746 -0.504,15.997 -0.142,2.83 -0.283,5.659 -0.382,8.489 l -0.022,0.649 c -0.095,2.643 -0.19,5.375 0.02,8.08 0.946,12.068 0.871,24.385 0.799,36.295 l -0.02,3.078 c -0.045,8.262 0.185,16.65 0.403,24.766 0.123,4.51 0.25,9.173 0.328,13.755 0.021,1.286 -0.124,2.583 -0.277,3.957 -0.083,0.748 -0.166,1.496 -0.223,2.244 -0.258,3.39 0.127,6.724 0.499,9.948 0.194,1.683 0.395,3.422 0.495,5.118 0.646,11.027 0.828,22.819 0.553,36.049 -0.083,3.953 -0.337,7.978 -0.583,11.87 -0.36,5.709 -0.733,11.611 -0.581,17.469 0.045,1.735 0.101,3.473 0.156,5.209 0.058,1.81 0.115,3.619 0.162,5.429 0.069,2.776 0.137,6.36 0.201,9.922 0.151,8.305 0.256,13.422 0.405,14.476 0.186,1.301 1.087,2.109 2.354,2.109 v 0 c 0.967,0 2.036,-0.456 3.391,-1.032 l 0.548,-0.232 c 0.638,-0.268 1.704,-0.625 2.939,-1.038 3.205,-1.072 7.595,-2.542 11.393,-4.644 7.204,-3.987 14.703,-7.793 22.287,-11.308 4.08,-1.892 8.408,-2.811 13.231,-2.811 2.924,0 6.068,0.354 9.348,1.059 1.016,0.218 2.093,0.913 3.135,1.585 l 0.143,0.091 c 7.356,4.729 15.492,7.756 24.873,9.258 3.234,0.519 6.466,0.78 9.603,0.78 2.784,0 5.598,-0.206 8.361,-0.613 3.608,-0.531 8.572,-1.72 11.697,-3.197 -2.083,3.076 -3.793,7.66 -4.526,10.392 -0.467,1.729 -1.244,2.483 -2.772,2.687 -1.459,0.194 -2.93,0.444 -4.352,0.687 -2.996,0.509 -5.826,0.99 -8.688,1.022 h -0.817 c -10.063,0 -18.396,-2.108 -25.475,-6.446 -5.565,-3.414 -11.714,-4.938 -19.933,-4.938 -1.938,0 -4.078,0.082 -6.736,0.259 -6.767,0.444 -13.568,2.607 -20.795,6.611 -1.834,1.018 -4.309,2.229 -6.701,3.398 -9.257,4.53 -11.586,5.92 -11.586,7.794 0,4.17 13.396,5.134 13.531,5.141 0.415,0.021 0.831,0.029 1.245,0.029 4.243,0 8.751,-1.033 13.397,-3.07 3.73,-1.636 7.215,-3.548 11.058,-5.696 4.829,-2.699 10.125,-4.152 16.188,-4.443 0.2,-0.01 0.404,-0.015 0.61,-0.015 1.692,0 3.063,0.301 3.764,0.573 -0.92,1.528 -2.607,4.896 -5.232,10.427 -0.721,1.519 -1.199,2.245 -2.303,2.816 -2.579,1.336 -5.146,2.775 -7.627,4.167 -1.833,1.028 -3.665,2.057 -5.514,3.051 -3.083,1.655 -6.104,3.179 -8.982,4.521 -2.229,1.04 -4.629,1.524 -7.547,1.525 -0.975,0 -2.006,-0.056 -3.154,-0.166 -5.66,-0.551 -11.073,-2.666 -17.553,-6.863 l -0.097,-0.063 c -3.836,-2.484 -7.453,-4.716 -9.542,-4.716 -0.503,0 -0.946,0.118 -1.318,0.352 -1.719,1.075 -1.589,3.87 -1.438,7.105 0.035,0.781 0.071,1.541 0.067,2.201 -0.032,5.487 -0.879,11.022 -1.696,16.376 -0.314,2.059 -0.63,4.117 -0.901,6.182 -0.499,3.786 -2.86,6.392 -5.36,9.148 -0.385,0.424 -0.769,0.848 -1.146,1.275 -0.58,0.657 -1.534,1.02 -2.688,1.021 -1.724,0 -3.568,-0.801 -4.818,-2.089 -2.839,-2.928 -4.406,-5.85 -4.792,-8.932 -0.243,-1.944 -0.445,-4.541 -0.659,-7.291 -0.852,-10.92 -1.239,-13.518 -3.105,-13.954 -0.229,-0.055 -0.491,-0.079 -0.805,-0.079 -2.549,0 -9.506,1.852 -13.341,3.131 -4.436,1.479 -7.959,4.477 -11.368,7.375 l -1.021,0.865 c -2.918,2.464 -4.902,5.544 -6.823,8.521 -0.59,0.914 -1.179,1.828 -1.793,2.721 -2.645,3.838 -6.176,6.718 -10.795,8.804 -4.896,2.21 -9.965,4.286 -14.865,6.294 -1.928,0.789 -3.855,1.578 -5.778,2.378 -0.384,0.159 -0.811,0.282 -1.231,0.356 -0.159,0.028 -0.319,0.043 -0.471,0.043 z"
         id="path304"
         inkscape:connector-curvature="0"
         style="fill:#c12552" />
      <path
         d="m 1129.52,1013.577 -0.032,6.159 c -0.036,6.356 -0.028,12.713 -0.021,19.067 0,2.914 0.01,5.828 0.01,8.743 -10e-4,1.576 -0.021,3.154 -0.041,4.731 -0.045,3.512 -0.092,7.144 0.094,10.681 0.26,4.95 -0.049,9.912 -0.347,14.711 l -0.043,0.701 c -0.435,7.038 -0.591,13.451 -0.479,19.605 0.166,9.11 0.143,18.369 0.12,27.323 -0.011,4.077 -0.021,8.154 -0.015,12.23 0,1.39 0.064,2.817 0.125,4.199 l 0.023,0.558 c 0.058,1.355 0.136,2.714 0.214,4.07 0.163,2.847 0.333,5.791 0.299,8.708 -0.058,4.962 -0.239,9.995 -0.415,14.863 -0.089,2.45 -0.178,4.901 -0.251,7.353 -0.151,5.063 -3.134,8.707 -8.184,9.993 -1.886,0.479 -3.8,0.724 -5.688,0.724 -1.822,0 -3.691,-0.227 -5.558,-0.674 -3.376,-0.811 -6.663,-1.22 -9.771,-1.22 -5.37,0 -10.488,1.231 -15.214,3.662 -1.156,0.596 -2.32,1.18 -3.483,1.764 -2.751,1.382 -5.598,2.812 -8.284,4.363 l -0.548,0.313 c -1.142,0.649 -4.168,2.375 -4.065,3.304 0.146,1.327 0.456,2.144 0.85,3.175 0.146,0.387 0.3,0.788 0.451,1.236 0.646,1.898 1.562,4.11 2.391,5.771 0.222,0.442 0.408,0.74 0.552,0.938 0.324,-0.435 0.644,-0.876 0.963,-1.317 1.291,-1.788 2.627,-3.637 4.37,-5.082 5.03,-4.168 10.743,-6.808 16.979,-7.842 1.709,-0.284 4.27,-0.623 6.757,-0.623 2.309,0 4.159,0.293 5.5,0.875 1.457,0.632 1.725,1.525 1.692,2.164 -0.083,1.661 -2.125,2.313 -3.766,2.839 -0.169,0.054 -0.305,0.096 -0.381,0.125 -6.296,2.581 -11.673,7.021 -16.438,13.574 -4.506,6.195 -11.807,11.074 -16.688,13.37 -2.335,1.099 -4.368,1.478 -6.002,1.78 -2.241,0.418 -3.002,0.632 -3.437,1.576 -0.395,0.86 -0.963,1.929 -1.563,3.061 -0.661,1.242 -1.345,2.526 -1.742,3.444 -0.265,0.609 -0.583,1.405 -0.69,2.16 -0.069,0.489 0,0.884 0.195,1.109 0.221,0.256 0.607,0.31 0.893,0.31 0.152,0 0.313,-0.017 0.479,-0.044 0.422,-0.074 0.849,-0.198 1.232,-0.357 1.923,-0.799 3.851,-1.589 5.777,-2.378 4.901,-2.008 9.971,-4.084 14.865,-6.294 4.62,-2.086 8.151,-4.966 10.795,-8.803 0.615,-0.893 1.204,-1.807 1.793,-2.721 1.921,-2.979 3.906,-6.06 6.824,-8.522 l 1.021,-0.865 c 3.409,-2.897 6.935,-5.896 11.368,-7.375 3.835,-1.278 10.792,-3.131 13.341,-3.131 0.313,0 0.576,0.025 0.806,0.079 1.865,0.438 2.255,3.035 3.104,13.954 0.214,2.75 0.416,5.347 0.659,7.291 0.386,3.082 1.953,6.004 4.792,8.932 1.25,1.288 3.096,2.089 4.819,2.089 1.151,0 2.105,-0.361 2.687,-1.021 0.377,-0.428 0.761,-0.853 1.146,-1.275 2.5,-2.758 4.86,-5.361 5.359,-9.147 0.272,-2.064 0.587,-4.123 0.901,-6.182 0.818,-5.354 1.664,-10.89 1.697,-16.377 0,-0.659 -0.032,-1.42 -0.068,-2.2 -0.15,-3.235 -0.28,-6.03 1.438,-7.106 0.372,-0.232 0.814,-0.351 1.317,-0.351 2.089,0 5.706,2.229 9.542,4.716 l 0.098,0.062 c 6.479,4.197 11.893,6.313 17.553,6.863 1.147,0.111 2.18,0.166 3.154,0.166 2.918,-10e-4 5.315,-0.485 7.547,-1.524 2.878,-1.345 5.898,-2.866 8.981,-4.522 1.85,-0.994 3.682,-2.021 5.515,-3.05 2.48,-1.393 5.048,-2.831 7.627,-4.167 1.103,-0.571 1.582,-1.299 2.303,-2.817 2.624,-5.53 4.313,-8.896 5.232,-10.426 -0.699,-0.273 -2.07,-0.574 -3.765,-0.574 -0.206,0 -0.41,0 -0.609,0.016 -6.063,0.291 -11.359,1.743 -16.188,4.442 -3.842,2.149 -7.326,4.063 -11.057,5.697 -4.647,2.037 -9.155,3.069 -13.398,3.069 -0.414,0 -0.83,-0.01 -1.245,-0.028 -0.136,-0.01 -13.53,-0.972 -13.53,-5.142 0,-1.874 2.329,-3.264 11.586,-7.794 2.393,-1.171 4.866,-2.382 6.701,-3.397 7.226,-4.004 14.027,-6.167 20.795,-6.612 2.657,-0.176 4.799,-0.258 6.735,-0.258 8.22,0 14.366,1.522 19.934,4.938 7.079,4.339 15.411,6.447 25.474,6.446 h 0.818 c 2.86,-0.033 5.69,-0.515 8.688,-1.023 1.422,-0.24 2.894,-0.49 4.353,-0.686 1.527,-0.203 2.306,-0.957 2.771,-2.688 0.734,-2.729 2.444,-7.313 4.527,-10.392 -3.125,1.479 -8.089,2.666 -11.698,3.198 -2.764,0.407 -5.577,0.613 -8.36,0.613 -3.138,0 -6.367,-0.264 -9.603,-0.78 -9.381,-1.502 -17.517,-4.53 -24.874,-9.258 l -0.142,-0.091 c -1.042,-0.673 -2.119,-1.367 -3.136,-1.586 -3.277,-0.702 -6.424,-1.059 -9.348,-1.059 -4.823,0 -9.151,0.919 -13.23,2.812 -7.584,3.515 -15.084,7.318 -22.287,11.307 -3.799,2.103 -8.188,3.571 -11.394,4.644 -1.234,0.413 -2.302,0.771 -2.938,1.038 l -0.548,0.232 c -1.354,0.577 -2.425,1.033 -3.392,1.033 -1.268,0 -2.17,-0.811 -2.354,-2.11 -0.15,-1.053 -0.254,-6.171 -0.406,-14.475 -0.064,-3.563 -0.131,-7.146 -0.201,-9.922 -0.046,-1.811 -0.104,-3.619 -0.162,-5.43 -0.056,-1.735 -0.11,-3.473 -0.156,-5.209 -0.151,-5.855 0.222,-11.76 0.582,-17.469 0.245,-3.893 0.5,-7.917 0.582,-11.87 0.275,-13.229 0.096,-25.021 -0.553,-36.049 -0.101,-1.696 -0.301,-3.436 -0.495,-5.118 -0.372,-3.225 -0.757,-6.559 -0.499,-9.947 0.058,-0.748 0.141,-1.496 0.224,-2.244 0.152,-1.374 0.299,-2.672 0.276,-3.957 -0.078,-4.582 -0.205,-9.245 -0.328,-13.756 -0.22,-8.113 -0.447,-16.504 -0.402,-24.766 l 0.019,-3.078 c 0.023,-3.883 0.044,-7.811 0.032,-11.757 h -20.722 c -0.05,5.707 -0.082,11.386 -0.11,16.973 z"
         id="path306"
         inkscape:connector-curvature="0"
         style="fill:#647fa0" />
      <path
         d="m 1138.984,1188.51 c 6.75,1.688 12.813,6.579 12.777,8.376 -0.306,15.266 -3.04,34.513 -11.985,34.813 -6.893,0.229 -9.059,-19.17 -9.738,-31.254 0,0 2.196,-13.623 8.946,-11.935 z m 12.809,-13.188 c -0.803,-52.502 -3.161,-189.228 -3.161,-189.228 l -0.209,-132.397 c 0,0 -3.563,-4 -8.104,-3 -4.541,1 -8.373,3 -8.373,3 l -2.22,132.397 v 193.729 c 0,0 6.071,-5.001 11.635,-5.938 5.562,-0.937 10.432,1.437 10.432,1.437 z"
         id="path308"
         inkscape:connector-curvature="0"
         style="fill:#6e533b" />
      <path
         d="m 1137.195,757.733 c -0.267,-0.312 -0.625,-0.788 -0.954,-1.227 -0.632,-0.842 -1.419,-1.889 -2.496,-3.141 -2.55,-2.962 -4.495,-5.727 -6.313,-10.347 -0.627,-1.592 -0.871,-3.207 -0.671,-4.431 1.368,-8.321 3.896,-16.354 7.517,-23.877 0.024,-0.053 0.053,-0.098 0.08,-0.144 0.06,-0.104 0.118,-0.211 0.172,-0.318 0.126,-0.252 0.271,-0.617 0.431,-1.025 0.143,-0.365 0.419,-1.076 0.68,-1.554 0.265,0.509 0.543,1.281 0.701,1.72 0.156,0.432 0.3,0.822 0.434,1.115 1.154,2.548 2.37,5.114 3.546,7.597 1.664,3.517 3.386,7.15 4.952,10.768 2.005,4.629 2.651,8.294 0.025,13.333 -0.164,0.313 -0.956,1.334 -1.653,2.233 -1.307,1.683 -2.932,3.773 -3.888,5.477 -1.341,2.388 -2.154,3.402 -2.563,3.821 z"
         id="path310"
         inkscape:connector-curvature="0"
         style="fill:#a51b48" />
      <path
         d="m 1137.434,791.765 c -0.164,-0.17 -0.358,-0.386 -0.585,-0.646 -5.14,-5.958 -9.11,-12.904 -11.845,-20.688 -1.742,-4.956 -1.279,-10.062 -0.79,-15.466 l 0.02,-0.203 c 0.135,-1.499 0.646,-1.695 1.202,-1.776 0.246,-0.036 0.474,-0.059 0.686,-0.059 0.553,0 0.99,0.077 1.592,1.073 1.433,2.366 3.13,4.921 4.91,7.387 1.356,1.883 2.827,2.836 4.372,2.836 1.426,0 2.756,-0.805 3.955,-2.391 0.989,-1.312 1.735,-2.325 3.069,-4.229 0.928,-1.321 1.547,-2.386 2.146,-3.414 0.255,-0.438 0.513,-0.882 0.799,-1.354 0.746,-1.229 1.205,-1.854 1.486,-2.164 0.623,0.587 1.672,2.053 1.874,3.728 0.771,6.36 1.279,12.584 -0.928,18.788 -1.623,4.562 -4.151,8.485 -6.409,11.725 -1.419,2.026 -4.291,5.382 -5.554,6.853 z"
         id="path312"
         inkscape:connector-curvature="0"
         style="fill:#a51b48" />
      <path
         d="m 1142.542,741.413 c -0.679,0 -1.757,-0.873 -3.205,-2.597 -0.173,-0.205 -0.349,-0.437 -0.528,-0.672 -0.477,-0.623 -1.129,-1.479 -1.599,-1.493 -0.198,0 -0.71,0.52 -1.206,1.021 l -0.482,0.487 c -0.199,0.198 -0.463,0.533 -0.739,0.888 -0.841,1.072 -1.71,2.181 -2.706,2.181 -0.247,0 -0.716,-0.092 -1.08,-0.704 -0.646,-1.089 -0.863,-3.924 -0.208,-5.125 0.583,-1.069 1.903,-1.835 2.965,-2.451 0.447,-0.259 0.87,-0.505 1.114,-0.703 0.081,-0.067 0.149,-0.13 0.213,-0.187 0.488,-0.442 0.844,-0.65 1.984,-0.655 1.516,0 2.622,1.183 4.141,2.985 1.568,1.866 2.229,4.613 2.277,5.906 0.014,0.354 -0.079,0.637 -0.276,0.842 -0.174,0.179 -0.409,0.277 -0.665,0.277 z m 2.322,30.204 c 0.981,0 1.542,-0.976 1.81,-1.442 l 0.096,-0.164 c 0.63,-1.084 1.127,-1.939 0.571,-2.521 -0.135,-0.144 -0.28,-0.345 -0.441,-0.563 -0.607,-0.825 -1.44,-1.954 -2.704,-1.954 -1.545,0 -2.055,1.37 -2.298,2.029 -0.033,0.09 -0.064,0.174 -0.097,0.248 -0.149,0.363 -0.091,0.814 0.188,1.421 0.395,0.857 1.574,2.6 2.422,2.875 0.15,0.047 0.302,0.071 0.453,0.071 z m -15.623,-0.044 c 0.41,0 0.88,-0.149 1.394,-0.443 1.247,-0.711 2.693,-1.881 2.505,-3.421 -0.13,-1.057 -0.432,-2.313 -1.627,-2.648 -0.12,-0.033 -0.245,-0.051 -0.368,-0.051 -0.786,0 -1.32,0.653 -1.75,1.178 -0.095,0.114 -0.187,0.229 -0.278,0.329 -0.501,0.556 -1.437,1.586 -1.382,3.266 0.049,1.66 1.165,1.79 1.506,1.79 z"
         id="path314"
         inkscape:connector-curvature="0"
         style="fill:#c12552" />
      <path
         d="m 1151.015,904.89 c 0.209,8.126 0.759,21.673 0.83,33.956 0.047,8.181 -0.604,16.363 -0.887,24.545 -0.1,2.855 -0.229,5.729 -0.01,8.568 1.03,13.152 0.856,26.314 0.785,39.492 -0.07,12.826 0.512,25.658 0.729,38.488 0.035,2.106 -0.344,4.221 -0.504,6.334 -0.381,5.008 0.703,9.918 0.996,14.873 0.707,12.038 0.807,24.082 0.555,36.164 -0.205,9.774 -1.418,19.493 -1.164,29.271 0.093,3.547 0.229,7.092 0.318,10.639 0.203,7.979 0.365,22.632 0.594,24.229 0.228,1.597 1.978,0.702 4.31,-0.278 2.331,-0.979 8.971,-2.724 14.192,-5.614 7.314,-4.049 14.793,-7.838 22.379,-11.354 7.515,-3.482 15.492,-3.566 23.486,-1.854 1.326,0.284 2.58,1.116 3.754,1.873 7.453,4.788 15.59,7.647 24.322,9.047 5.854,0.938 11.639,1.03 17.525,0.164 3.778,-0.558 8.633,-1.763 11.508,-3.18 2.875,-1.417 4.258,-0.898 2.666,0.833 -2.354,2.56 -4.51,8.021 -5.402,11.338 -0.574,2.13 -1.732,3.441 -3.973,3.74 -4.406,0.586 -8.803,1.67 -13.213,1.721 -9.531,0.109 -18.867,-1.633 -27.062,-6.653 -8.158,-5.004 -16.883,-5.062 -25.822,-4.472 -7.233,0.478 -13.879,2.938 -20.19,6.437 -5.908,3.272 -17.545,8.142 -17.545,9.933 0,1.791 7.789,3.497 12.157,3.702 4.857,0.229 9.574,-0.982 13.998,-2.922 3.748,-1.643 7.354,-3.633 10.933,-5.635 5.246,-2.933 10.838,-4.338 16.822,-4.625 3.19,-0.152 7.028,0.804 6.006,2.229 -1.025,1.426 -4.146,7.973 -5.494,10.813 -0.728,1.531 -1.373,2.666 -2.941,3.479 -4.43,2.295 -8.727,4.844 -13.121,7.207 -2.977,1.601 -5.994,3.129 -9.055,4.56 -3.639,1.696 -7.438,1.877 -11.449,1.487 -6.795,-0.66 -12.604,-3.465 -18.197,-7.088 -2.938,-1.901 -8.076,-5.249 -9.41,-4.415 -1.332,0.834 -0.678,5.313 -0.692,8.095 -0.047,7.679 -1.611,15.171 -2.611,22.738 -0.641,4.857 -3.961,7.906 -6.854,11.188 -2.127,2.414 -6.863,1.823 -9.619,-1.019 -2.623,-2.705 -4.701,-5.869 -5.188,-9.756 -0.795,-6.35 -1.168,-19.671 -2.664,-20.021 -1.495,-0.351 -9.055,1.578 -13.36,3.016 -4.596,1.533 -8.221,4.857 -11.916,7.976 -3.623,3.059 -5.767,7.19 -8.359,10.959 -2.951,4.282 -6.83,7.239 -11.389,9.299 -6.814,3.076 -13.777,5.817 -20.685,8.688 -0.489,0.203 -1.014,0.354 -1.534,0.445 -2.146,0.375 -3.546,-0.886 -3.24,-2.998 0.123,-0.865 0.442,-1.722 0.795,-2.529 0.779,-1.799 2.5,-4.748 3.318,-6.531 1.354,-2.951 5.014,-1.65 10.133,-4.059 5.119,-2.409 11.99,-7.213 16.137,-12.914 4.521,-6.219 9.914,-11.133 17.058,-14.062 0.645,-0.264 5.055,-1.334 2.426,-2.475 -2.631,-1.14 -7.42,-0.822 -11.447,-0.152 -6.129,1.019 -11.58,3.623 -16.295,7.529 -2.146,1.779 -3.684,4.313 -5.412,6.568 -0.797,1.037 -1.764,0.264 -2.68,-1.57 -0.916,-1.834 -1.849,-4.133 -2.465,-5.951 -0.566,-1.664 -1.146,-2.681 -1.369,-4.716 -0.225,-2.034 3.201,-3.796 5.323,-5.021 3.847,-2.222 7.875,-4.125 11.83,-6.16 8.32,-4.279 17.043,-4.705 25.98,-2.563 3.553,0.853 7.024,0.854 10.555,-0.045 4.41,-1.123 6.967,-4.194 7.101,-8.641 0.223,-7.396 0.579,-14.791 0.666,-22.189 0.049,-4.229 -0.334,-8.467 -0.513,-12.701 -0.067,-1.604 -0.146,-3.209 -0.149,-4.813 -0.021,-13.178 0.135,-26.357 -0.105,-39.531 -0.119,-6.598 0.076,-13.133 0.482,-19.721 0.311,-5.029 0.656,-10.143 0.389,-15.248 -0.27,-5.15 -0.057,-10.324 -0.055,-15.488 0,-9.272 -0.039,-18.545 0.014,-27.817 0.08,-14.267 0.127,-28.531 0.371,-42.795 0.193,-11.177 0.713,-22.349 0.984,-33.523 0.086,-3.559 -0.152,-7.127 -0.248,-10.689 -0.25,-9.245 -0.744,-18.493 -0.688,-27.737 0.06,-9.771 0.703,-19.539 0.965,-29.312 0.146,-5.332 0.59,-14.231 -0.09,-17.584 -0.678,-3.352 -5,-2.438 -5,-7.688 0,-5.25 1.73,-10.781 3.24,-18.642 1.51,-7.859 1.338,-15.214 1.369,-17.659 0.03,-2.446 -1.431,-14.998 -5.849,-21.226 -1.229,-1.731 -2.524,-3.451 -3.989,-4.985 -11.074,-11.597 -14.244,-27.623 -5.05,-40.291 0.863,-1.189 1.49,-3.011 1.308,-4.418 -0.982,-7.544 1.201,-14.498 3.604,-21.412 1.927,-5.533 4.062,-10.994 6.148,-16.472 2.848,-7.463 7.467,-19.271 8.373,-22.271 0.906,-3 1.3,-3.642 2.175,-4.392 0.875,-0.75 1.308,0.364 2.856,3.984 1.548,3.62 8.864,17.586 12.309,27.715 1.076,3.168 2.912,6.095 4.523,9.066 3.77,6.951 4.905,14.332 4.041,22.141 -0.144,1.279 0.207,2.939 0.967,3.939 5.225,6.889 5.592,14.719 4.684,22.801 -0.928,8.266 -3.902,15.881 -7.889,23.1 -1.748,3.166 -3.033,6.425 -3.633,9.98 -1.306,7.717 -2.955,15.438 -2.56,23.289 0.332,6.557 1.342,13.084 2.203,19.604 0.396,2.976 0.836,4.766 0.647,7.391 -0.188,2.625 -2.625,2.882 -2.731,6.193 -0.107,3.313 -0.137,13.49 -0.117,18.791 0.015,3.527 0.539,5.42 0.431,11.002 -0.11,5.582 -0.599,9.132 -0.388,17.258 z m -15.315,80.844 c 1.733,-1.584 1.391,-0.365 0.973,0.662 -0.846,2.079 -1.938,4.077 -3.088,6.016 -1.139,1.91 -1.543,4.92 -1.01,5.082 0.326,0.1 0.612,-1.244 1.479,-2.434 0.556,-0.76 1.664,-1.603 2.537,-1.671 0.873,-0.067 0.309,1.968 -0.057,2.58 -1.16,1.959 -2.41,3.918 -3.938,5.588 -0.53,0.579 -0.791,1.105 -0.877,1.662 -0.1,0.643 -0.051,1.715 0.246,2.183 0.295,0.467 2.293,-1.791 3.351,-2.406 0.248,-0.146 1.258,-0.033 1.477,0.326 0.219,0.358 -0.057,0.944 -0.209,1.198 -0.262,0.438 -0.656,0.82 -1.063,1.146 -2.785,2.229 -3.957,4.934 -3.964,8.219 0,1.32 -0.034,4.387 0.529,4.248 0.564,-0.139 1.877,-2.938 2.742,-4.147 0.147,-0.207 0.61,-0.396 1.322,-0.507 0.713,-0.108 0.618,0.746 0.516,0.97 -0.889,1.914 -1.729,4.448 -3.045,6.045 -1.724,2.09 -2.471,4.094 -1.738,6.772 0.357,1.306 0.16,2.779 0.105,4.174 -0.066,1.759 -0.216,3.863 -0.369,5.187 -0.156,1.322 2.102,0.893 2.453,1.3 0.45,0.524 0.213,1.134 -0.402,2.315 -0.402,0.772 -1.24,1.38 -1.647,2.233 -0.285,0.599 -0.681,3.078 0.067,2.299 0.748,-0.778 1.357,-2.155 2.142,-2.965 0.342,-0.354 1.481,-0.867 2.092,-0.485 0.609,0.381 -0.015,1.182 -0.205,1.516 -1.062,1.854 -2.537,3.525 -3.295,5.482 -0.746,1.93 -1.121,5.559 -1.017,7.61 0.05,0.949 2.451,-0.471 2.595,0.969 0.145,1.439 -2.093,4.318 -2.271,5.31 -0.139,0.771 -0.279,2.809 0.191,2.522 0.47,-0.285 2.238,-2.687 2.994,-3.173 0.756,-0.485 1.414,-0.476 1.655,-0.239 0.271,0.263 0.396,1.054 0.193,1.355 -1.371,2.074 -2.902,4.043 -4.264,6.123 -0.947,1.449 -2.222,2.891 -1.349,4.861 0.096,0.217 0.396,0.709 0.957,0.287 0.563,-0.423 2.033,-2.328 2.953,-3.281 0.922,-0.953 0.184,2.142 -0.01,2.955 -0.32,1.374 -1.258,2.367 -2.078,3.323 -1.77,2.066 -2.529,4.242 -1.713,6.871 0.063,0.203 0.35,0.477 0.879,0.132 0.527,-0.344 2.043,-2.173 2.754,-2.603 0.711,-0.431 0.353,1.653 0.234,2.299 -0.223,1.218 -1.018,2.08 -1.697,3.012 -0.836,1.144 -1.615,2.329 -1.619,3.729 0,0.731 -0.021,2.371 0.738,2.396 0.758,0.025 1.682,-1.182 2.59,-1.621 0.379,-0.182 1.26,-0.911 1.621,-0.196 0.363,0.715 -0.068,1.653 -0.375,2.078 -0.619,0.85 -1.463,1.553 -2.275,2.241 -1.838,1.562 -2.307,4.152 -1.539,5.705 0.769,1.553 2.992,-1.422 3.533,-0.838 0.541,0.584 -0.733,3.059 -1.301,3.674 -1.908,2.08 -2.043,5.17 -1.996,6.42 0.047,1.25 0.014,1.892 0.609,1.595 0.598,-0.298 1.069,-0.617 1.756,-0.912 0.688,-0.295 1.77,-0.98 1.463,0.084 -0.307,1.063 -1.531,2.444 -2.332,3.701 -1.004,1.571 -1.613,5.02 -0.879,4.862 0.732,-0.155 1.16,-0.369 1.611,-0.59 0.436,-0.213 1.153,-0.707 1.864,-0.506 0.711,0.201 0.234,1.484 0.093,2.021 -0.22,0.821 -0.921,1.504 -1.298,2.301 -0.598,1.26 -1.284,2.524 -1.584,3.867 -0.387,1.727 1.324,2.352 2.353,2.391 1.029,0.039 1.65,0.297 0.771,1.037 -0.881,0.74 -1.918,1.434 -2.717,2.336 -0.928,1.053 -0.401,2.441 1.273,2.893 1.559,0.422 1.76,1.342 0.887,2.201 -1.457,1.437 -3.877,4.877 -2.74,4.877 1.135,0 3.648,-1.563 4.408,-1.32 0.758,0.242 -0.426,1.582 -0.861,2.187 -0.639,0.883 -1.522,1.554 -2.328,2.252 -1.055,0.916 -2.649,2.734 -2.022,3.426 0.627,0.692 2.227,0.027 3.486,-0.496 1.262,-0.522 0.916,0.354 0.274,1.115 -0.641,0.761 -1.365,1.613 -2.08,2.39 -0.856,0.932 -1.315,1.426 -1.328,1.918 -0.014,0.563 1.443,1.038 2.117,1.766 0.676,0.727 -3.395,3.805 -2.447,7.051 0.948,3.246 0.421,3.996 -0.098,5.299 -0.316,0.795 -0.66,1.783 -0.697,2.662 -0.039,0.879 4.461,-0.01 5.242,0.514 0.781,0.522 -5.434,3.468 -4.529,3.65 0.905,0.184 1.935,-0.254 2.779,-0.707 2.201,-1.179 3.978,-2.127 6.777,-2.273 2.8,-0.147 5.401,1.552 5.403,0.056 0,-1.496 0.021,-4.23 0.037,-6.609 0.025,-3.804 0.037,-7.51 -0.072,-11.213 -0.233,-8 -0.922,-15.992 -1.034,-23.992 -0.125,-8.729 0.231,-17.465 0.28,-26.198 0.023,-4.271 -0.231,-8.545 -0.266,-12.82 -0.057,-6.936 0.076,-13.877 -0.08,-20.811 -0.146,-6.563 -0.568,-13.119 -0.857,-19.681 -0.303,-6.916 -0.606,-13.83 -0.881,-20.746 -0.098,-2.485 -0.682,-5.141 -0.024,-7.426 0.969,-3.375 0.705,-6.658 0.719,-10.018 0.078,-19.242 -0.117,-38.478 0.908,-57.718 0.625,-11.725 0.157,-23.51 0.116,-35.266 -0.01,-2.109 -0.512,-4.221 -0.483,-6.326 0.104,-8.459 0.426,-16.918 0.469,-25.377 0.021,-3.719 -0.598,-7.438 -0.633,-11.162 -0.063,-6.41 0.01,-12.811 -1.08,-19.17 -0.49,-2.873 -1.022,-3.606 -3.863,-4.008 -2.047,-0.29 -3.967,0.374 -5.41,1.721 -1.153,1.076 -2.184,2.168 -2.321,3.679 -0.139,1.51 -0.129,2.108 0.514,1.413 0.643,-0.694 0.842,-1.608 1.434,-2.143 0.586,-0.529 1.867,-1.156 2.726,-0.865 0.859,0.291 -0.234,1.463 -0.563,2.06 -0.766,1.387 -1.707,2.729 -2.815,3.856 -1.021,1.037 -1.541,1.964 -1.511,3.334 0.015,0.685 -0.174,2.375 0.459,2.453 0.633,0.078 1.84,-1.625 2.556,-2.781 0.717,-1.155 1.799,-2.182 2.328,-1.75 0.528,0.433 0.274,2.316 -1.488,4.55 -0.66,0.836 -1.521,1.516 -2.185,2.35 -1.256,1.578 -2.28,3.842 -1.405,4.867 0.877,1.024 2.727,-1.426 3.526,-1.58 0.801,-0.154 0.32,1.661 0.16,2.313 -0.365,1.506 -1.662,2.474 -2.533,3.521 -1.397,1.684 -1.92,2.246 -1.95,3.84 -0.031,1.594 0.065,2.23 0.493,1.662 0.429,-0.568 1.021,-2.277 1.746,-3.258 0.293,-0.396 1.851,-0.892 2.386,-0.64 0.536,0.253 -0.13,1.572 -0.382,2.031 -1.276,2.347 -2.698,4.613 -4.106,6.888 -0.39,0.627 -0.596,1.238 -0.623,1.907 -0.023,0.634 -0.375,2.64 0.416,2.109 0.789,-0.529 2.043,-2.555 2.961,-3.57 0.187,-0.203 0.594,-0.192 1.438,-0.256 0.844,-0.063 0.68,0.506 0.12,1.334 -0.559,0.828 -2.219,3.668 -3.832,4.808 -1.036,0.733 -1.502,1.239 -1.44,2.354 0.059,1.104 -0.082,3.084 0.496,3.256 0.578,0.172 2.567,-2.676 3.801,-3.916 0.234,-0.235 1.084,-0.225 1.334,0.01 0.277,0.261 0.426,1.07 0.225,1.357 -1.319,1.887 -2.608,3.832 -4.18,5.5 -1.127,1.197 -1.652,2.412 -1.674,3.705 -0.019,0.971 0.213,2.578 0.932,2.781 0.719,0.203 1.605,-1.91 2.217,-3.329 0.367,-0.853 1.836,-2.573 2.146,-1.802 0.309,0.771 0.402,1.76 0.139,2.27 -1.053,2.043 -1.834,4.754 -3.569,5.791 -1.173,0.701 -1.572,1.375 -1.66,2.137 -0.099,0.855 -0.105,2.164 0.241,3.058 0.347,0.893 2.513,-2.992 3.638,-4.092 0.713,-0.699 1.633,-1.765 2.657,-0.644 0.275,0.301 -0.182,1.564 -0.612,2.164 -1.246,1.732 -2.562,3.437 -4.021,4.986 -1.309,1.389 -1.973,2.862 -1.713,4.77 0.156,1.142 0.188,2.867 0.34,3.881 0.15,1.015 1.338,-1.105 1.697,-1.877 0.492,-1.052 0.697,-2.444 1.244,-3.36 0.223,-0.369 0.391,-0.854 1.168,-0.73 0.775,0.123 1.201,1.225 1.061,1.519 -0.989,2.069 -2.19,4.036 -3.287,6.059 -0.565,1.043 -1.123,2.102 -1.534,3.209 -0.117,0.32 -0.605,2.463 0.508,1.408 1.115,-1.056 2.643,-2.563 3.694,-3.496 1.053,-0.933 0.093,2.621 -0.229,3.285 -0.85,1.762 -1.838,3.469 -2.914,5.104 -1.281,1.946 -1.926,2.893 -1.992,4.181 -0.051,1.002 0.203,4.87 0.875,4.262 0.672,-0.609 2.533,-2.537 3.625,-3.91 1.025,-1.291 2.158,-2.621 3.588,-3.348 1.429,-0.728 -0.086,2.565 -0.768,3.311 -1.928,2.101 -3.785,4.275 -5.85,6.234 -0.869,0.823 -1.31,1.666 -1.461,2.581 -0.158,0.943 -0.552,2.999 0.282,3.136 0.832,0.137 1.671,-1.548 2.263,-2.48 0.823,-1.3 2.396,-2.616 3.397,-3.038 1,-0.423 -0.197,2.314 -0.701,3.273 -1.125,2.146 -3.299,3.788 -4.481,5.985 -0.539,1.002 -1.488,3.338 -0.81,3.453 0.68,0.114 2.211,-2.191 3.24,-3 0.289,-0.229 1.086,-0.188 1.367,0.057 0.293,0.254 0.496,1.076 0.307,1.35 -1.113,1.604 -2.41,3.082 -3.514,4.693 -0.295,0.432 -0.39,1.529 -0.129,1.727 1.612,1.214 0.873,2.496 0.305,3.798 -0.508,1.158 -1.174,2.282 -1.43,3.579 -0.162,0.829 -0.632,3.675 0.161,2.755 0.793,-0.92 1.007,-2.232 1.705,-2.938 0.488,-0.496 0.89,-0.475 2.199,-0.76 1.311,-0.285 0.391,1.399 0.172,1.926 -0.475,1.139 -0.799,1.079 -1.274,2.216 -0.232,0.558 -0.978,1.479 -1.712,2.354 -0.733,0.875 -1.389,2.178 -1.452,2.645 -0.138,0.976 -1.146,3.49 0.047,2.513 1.192,-0.985 1.47,-1.798 3.204,-3.382 z m -0.734,-184.701 c 1.748,1.359 3.012,4.705 3.953,5.394 0.941,0.689 2.377,-1.693 3.025,-2.937 0.692,-1.332 1.313,-5.061 2.301,-4.69 0.99,0.369 0.906,2.829 0.574,4.565 -0.408,2.127 -4.388,9.402 -5.402,9.45 -1.015,0.047 -3.143,-4.136 -4.297,-5.984 -1.152,-1.85 -1.904,-7.158 -0.154,-5.798 z m -1.688,15.992 c 0.375,7.625 -5.281,32.719 -3.063,33.25 2.218,0.53 4.813,-1.563 9.5,-1.688 4.688,-0.125 9.48,1.398 9.604,-0.813 0.125,-2.214 -0.859,-8.406 -1.013,-9.646 -0.28,-2.285 -0.385,-4.59 -0.674,-6.873 -0.131,-1.033 -0.293,-5.666 -0.043,-13.916 0.25,-8.25 0.754,-20.494 3.191,-26.057 2.437,-5.563 7.184,-16.474 8.633,-22.969 0.566,-2.548 0.898,-5.354 0.437,-7.875 -0.802,-4.373 -2.244,-8.699 -5.431,-12.017 -1.49,-1.549 -1.733,-3.154 -1.059,-4.854 1.557,-3.922 0.863,-7.66 -0.479,-11.414 -0.84,-2.347 -1.623,-4.713 -2.524,-7.035 -3.285,-8.461 -6.56,-16.928 -9.955,-25.346 -0.986,-2.445 -2.809,-8.595 -4.021,-7.99 -1.212,0.604 -2.426,5.453 -3.42,7.723 -1.926,4.398 -3.896,8.779 -5.75,13.209 -2.709,6.482 -3.149,13.496 -4.459,20.291 -0.733,3.805 -0.604,7.769 -1,11.646 -0.119,1.168 -0.524,2.383 -1.09,3.418 -1.44,2.635 -3.174,5.112 -4.545,7.781 -1.313,2.559 -1.959,5.34 -1.65,8.276 0.453,4.301 1.183,8.697 3.814,12.092 3.268,4.213 5.672,8.89 8.541,13.306 2.621,4.034 3.467,5.601 4.467,9.147 1.001,3.549 1.614,10.729 1.989,18.354 z m 21.455,364.886 c 1.616,0.577 6.461,-1.347 9.602,-2.979 5.84,-3.034 11.576,-6.268 17.437,-9.262 2.67,-1.363 5.465,-2.553 8.313,-3.479 7.48,-2.433 15.178,-2.974 23.023,-2.564 4.661,0.242 9.026,0.998 13.139,3.369 3.99,2.301 8.096,4.336 12.615,5.617 6.006,1.701 11.844,2.718 17.711,2.426 3.896,-0.193 11.297,-1.281 11.789,-2.495 0.491,-1.214 4.416,-7.708 3.916,-8.25 -0.5,-0.542 -7.166,2.249 -13.416,2.708 -6.25,0.459 -9.527,-0.108 -12.336,-0.483 -9.425,-1.263 -18.576,-3.609 -26.599,-8.861 -4.854,-3.182 -9.971,-3.535 -15.317,-2.926 -5.873,0.67 -11.341,2.713 -16.498,5.633 -5.263,2.979 -10.578,5.865 -15.912,8.719 -3.283,1.758 -6.521,3.516 -10.373,4.041 -2.736,0.373 -7.449,1.879 -7.832,3.171 -0.384,1.292 -0.879,5.038 0.738,5.615 z m -0.705,3.594 c -0.166,1.195 -0.363,2.479 1.139,2.845 5.004,1.224 8.781,4.549 13,7.148 3.768,2.32 7.92,4.068 12.244,4.77 3.979,0.646 8.108,0.722 11.963,-1.438 7.287,-4.078 14.695,-7.941 22.022,-11.949 0.562,-0.307 1.011,-0.977 1.304,-1.58 1.278,-2.625 3.108,-6.007 3.655,-7.817 0.548,-1.812 -11.311,0.637 -16.291,3.959 -2.504,1.668 -5.354,2.823 -8.063,4.178 -6.15,3.078 -12.697,4.75 -19.547,4.363 -4.783,-0.271 -9.646,-1.188 -13.74,-3.828 -2.565,-1.656 -7.52,-1.845 -7.686,-0.651 z m -17.689,17.966 c 0.148,1.033 -3.721,4.911 -3.852,5.825 -0.144,0.982 3.272,-0.04 3.291,1 0.02,1.04 -2.22,4.413 -2.134,5.288 0.088,0.875 2.263,1.446 3.009,1.796 0.746,0.35 -0.728,1.375 -1.666,2.208 -0.939,0.833 -0.199,1.721 2.506,3.008 0.504,0.238 1.26,1.025 1.164,1.285 -1.136,3.051 1.182,5.054 2.45,5.112 1.271,0.059 1.986,-1.04 3.88,-5.155 1.893,-4.115 4.088,-13.826 4.428,-23.158 0.021,-0.631 -0.236,-1.721 -0.611,-1.844 -2.229,-0.729 -2.231,-3.143 -3.604,-4.443 -1.267,-1.2 -2.594,-2.452 -4.125,-3.223 -1.783,-0.895 -5.181,-0.01 -5.191,1.324 -0.025,2.555 -3.443,4.111 -3.086,5.436 0.357,1.325 2.461,-0.16 2.451,1.021 -0.01,1.18 -2.516,2.744 -2.219,3.889 0.296,1.144 3.158,-0.402 3.309,0.631 z m -64.172,3.65 c 0.791,0.541 1.908,-1.786 5.301,-5.057 3.396,-3.27 8.968,-6.024 15.433,-7.008 6.854,-1.043 11.252,-1.32 18.237,0.014 5.345,1.02 10.898,0.946 15.972,-1.207 0,-2.425 0,-4.527 0,-6.714 -6.959,2.832 -9.521,3.191 -16.67,2.24 -1.574,-0.211 -9.076,-2.47 -15.869,-1.553 -6.791,0.917 -12.209,4.3 -16.746,6.799 -2.912,1.604 -8.295,4.771 -8.232,5.818 0.062,1.049 1.781,6.127 2.574,6.668 z m 54.742,-7.654 c 0.01,-0.395 0.02,-0.789 0.029,-1.186 -0.572,-0.092 -1.185,-0.361 -1.716,-0.25 -3.641,0.768 -7.229,2.039 -10.901,2.326 -4.295,0.334 -7.896,2.082 -11.445,4.112 -5.012,2.871 -9.135,6.796 -12.641,11.365 -5.813,7.574 -13.137,13.158 -22.474,15.285 -2.909,0.662 -4.557,2.001 -5.647,3.915 -0.791,1.389 -2.873,4.938 -1.771,5.036 1.104,0.099 10.014,-4.265 14.811,-6.021 7.865,-2.881 13.586,-7.899 17.742,-15.268 4.252,-7.531 11.272,-12.25 19.02,-15.83 1.113,-0.514 2.357,-0.774 3.566,-1.043 3.802,-0.84 7.617,-1.631 11.427,-2.441 z m 22.815,-7.91 c -0.073,-1.57 -0.207,-4.396 -0.323,-6.88 -0.107,-2.23 -0.363,-4.884 -0.32,-5.995 0.045,-1.11 -3.287,-2.323 -4.758,-2.612 -2.301,-0.451 -4.313,-0.024 -6.015,1.407 -2.12,1.785 -3.827,4.07 -5.637,6.203 -0.229,0.273 -0.779,1.537 0.078,1.504 0.857,-0.032 1.779,-1.255 2.543,-2.063 0.812,-0.859 2.654,-1.742 3.147,-1.457 0.494,0.285 -0.821,1.768 -1.1,2.639 -0.229,0.72 -1.154,2.576 0.533,2.322 1.686,-0.254 4.303,0.416 6.147,1.41 1.964,1.053 5.779,5.093 5.705,3.522 z"
         id="path316"
         inkscape:connector-curvature="0" />
      <path
         d="m 1137.661,1022.969 c 1.117,-0.725 -0.215,2.582 -0.67,3.361 -0.47,0.802 -2.168,2.328 -3.127,2.934 -0.961,0.605 0.479,-3.202 1.373,-4.387 0.553,-0.732 1.305,-1.184 2.424,-1.908 z"
         id="path318"
         inkscape:connector-curvature="0" />
      <path
         d="m 1148.354,749.041 c 0.768,-0.146 3.057,2.344 3.399,5.184 0.797,6.574 1.299,12.982 -1,19.443 -1.574,4.422 -3.961,8.303 -6.586,12.066 -1.813,2.598 -5.812,7.149 -6.279,7.713 -0.468,0.563 -1.647,-0.832 -2.168,-1.435 -5.389,-6.248 -9.348,-13.342 -12.073,-21.106 -1.869,-5.316 -1.343,-10.814 -0.849,-16.275 0.131,-1.453 0.666,-2.813 2.431,-3.072 1.709,-0.252 2.762,0.115 3.717,1.695 1.473,2.434 3.188,4.992 4.846,7.289 1.936,2.686 3.977,3.111 6.01,0.42 1.041,-1.379 1.767,-2.368 3.041,-4.188 1.275,-1.82 1.924,-3.096 2.892,-4.688 0.965,-1.593 1.85,-2.899 2.619,-3.046 z m -16.845,12.651 c -1.021,-1.563 -4.131,-6.864 -5.106,-7.192 -0.977,-0.328 -1.681,2.21 -0.938,2.895 0.742,0.687 1.185,1.426 1.008,2.145 -0.198,0.825 -1.86,1.802 -0.952,2.499 0.905,0.697 3.885,0.654 3.178,1.613 -0.709,0.959 -1.594,1.034 -2.152,1.629 -0.568,0.604 -0.66,1.967 -0.479,2.903 0.364,1.859 1.051,4.489 1.621,5.479 0.571,0.988 1.049,0.828 1.356,1.365 0.853,1.485 1.072,2.102 2.248,4.428 0.728,1.44 1.658,3.706 3.023,5.805 0.842,1.293 2.204,3.16 3.061,3.188 0.856,0.027 1.928,-1.604 2.744,-2.62 2.631,-3.276 4.404,-7.048 6.383,-10.677 0.136,-0.248 0.775,-1.636 0.275,-2 -0.5,-0.365 -1.834,0.768 -2.666,0.342 -0.834,-0.425 -4.604,-4.842 -4.188,-5.883 0.416,-1.042 2.875,-4.75 4.636,-4.365 1.762,0.385 3.512,3.844 3.887,3.594 0.375,-0.25 0.424,-1.663 0.545,-2.35 0.146,-0.83 0.211,-1.529 -0.104,-2.166 -0.313,-0.638 -4.145,-0.964 -3.541,-1.584 0.604,-0.619 3.91,-1.185 3.705,-2.146 -0.207,-0.963 -0.274,-1.283 -0.438,-2.042 -0.125,-0.589 -0.248,-0.939 -0.437,-2.034 -0.188,-1.094 -2.905,3.836 -4.274,5.644 -1.693,2.233 -4.269,6.254 -5.873,6.408 -0.918,0.089 -2.457,-0.021 -3.291,-0.563 -0.834,-0.542 -2.212,-2.753 -3.231,-4.315 z m 12.685,3.999 c -1.203,0 -1.47,1.209 -1.729,1.834 -0.259,0.625 1.521,3.125 2.166,3.334 0.646,0.208 1.098,-0.484 1.418,-1.043 0.32,-0.559 0.971,-1.621 0.771,-1.832 -0.606,-0.636 -1.424,-2.293 -2.626,-2.293 z m -11.769,2.106 c -0.146,-1.195 -0.453,-1.859 -1.104,-2.043 -0.65,-0.182 -1.166,0.689 -1.67,1.246 -0.504,0.557 -1.239,1.406 -1.196,2.76 0.041,1.354 0.931,1.256 1.825,0.744 0.895,-0.511 2.291,-1.514 2.145,-2.707 z m 1.084,1.5 c -1.442,1.942 -5.39,5.348 -5.898,2.932 -0.51,-2.416 -0.873,-2.771 -0.625,-3.905 0.248,-1.136 3.064,-4.255 3.753,-4.65 0.688,-0.396 2.063,0.916 2.563,1.896 0.498,0.976 1.648,1.784 0.207,3.727 z"
         id="path320"
         inkscape:connector-curvature="0" />
      <path
         d="m 1137.169,759.4 c -0.875,0.03 -1.783,-1.919 -4.516,-5.095 -2.733,-3.175 -4.736,-6.12 -6.562,-10.758 -0.629,-1.596 -1.022,-3.537 -0.752,-5.19 1.387,-8.438 3.924,-16.547 7.639,-24.269 0.076,-0.16 0.179,-0.309 0.257,-0.469 0.516,-1.037 1.25,-3.91 2.522,-3.742 1.156,0.152 1.814,2.906 2.326,4.033 2.789,6.15 5.824,12.193 8.508,18.387 2.285,5.275 2.74,9.277 -0.018,14.57 -0.553,1.061 -4.043,5.044 -5.563,7.75 -1.519,2.707 -2.966,4.752 -3.841,4.783 z m 7.892,-16.75 c 0.407,-1.32 0.702,-2.109 0.422,-3.531 -0.281,-1.422 -1.313,-1.969 -1.313,-3.609 0,-1.64 -1.391,-5.145 -2.428,-6.098 -1.045,-0.961 -4.004,-2.303 -2.941,-3.012 1.063,-0.709 0.861,-2.189 -0.205,-4.574 -1.065,-2.385 -1.922,-6.077 -2.856,-6.196 -0.936,-0.119 -3.146,7.675 -4.117,10.843 -0.145,0.472 -0.178,1.195 0.086,1.529 1.299,1.66 0.387,2.26 -0.615,3.289 -0.797,0.816 -1.578,3.563 -0.453,2.563 1.125,-1 4.697,-5.058 5.865,-4.942 1.166,0.115 2.771,1.963 3.922,3.397 0.718,0.894 2.299,2.879 2.822,4.187 0.525,1.308 1.266,2.688 0.953,3.906 -0.313,1.218 -0.625,1.797 -1.547,2.391 -0.922,0.594 -1.881,1.807 -1.881,1.807 -0.234,1.207 1.883,1.802 0.303,2.888 -0.979,0.674 -1.514,-0.097 -2.016,-0.929 -0.338,-0.561 -0.99,-0.918 -1.435,-1.426 -1.01,-1.162 -0.737,-1.83 1.009,-2.51 0.373,-0.146 1.379,-0.158 1.909,-0.424 0.531,-0.267 -2.454,-3.761 -3.461,-3.74 -1.008,0.021 -4.186,3.85 -5.008,4.334 -0.82,0.484 -1.283,-0.701 -1.58,-1.557 -0.395,-1.137 -0.279,-1.865 -0.92,-3.771 -0.641,-1.906 -1.252,2.974 -1.041,4.021 0.217,1.063 1.041,2.604 1.854,5.043 0.813,2.438 2.891,3.896 3.733,5.104 0.844,1.209 2.531,4.155 3.82,3.144 1.289,-1.013 4.36,-5.523 5.356,-7.986 0.996,-2.469 1.353,-2.82 1.763,-4.141 z m -5.173,-4.296 c -0.782,-0.932 -1.625,-2.391 -2.655,-2.422 -0.603,-0.019 -1.136,0.643 -2.22,1.72 -0.77,0.767 -2.016,2.858 -2.938,2.858 -0.922,0 -1.271,-3.637 -0.656,-4.766 0.721,-1.321 3.016,-2.218 3.902,-2.941 0.543,-0.444 0.551,-0.675 1.745,-0.68 1.195,-0.004 2.181,1.059 3.587,2.73 1.405,1.671 2.063,4.202 2.108,5.469 0.047,1.266 -2.09,-1.037 -2.873,-1.968 z"
         id="path322"
         inkscape:connector-curvature="0" />
      <path
         d="m 1140.296,777.539 c 0.795,-0.201 0.98,-0.563 1.285,-0.738 0.752,-0.438 1.479,-0.354 1.541,0.564 0.035,0.52 -0.637,1.578 -0.867,1.545 -0.805,-0.117 -1.594,-0.498 -2.43,-0.59 -0.646,-0.072 -1.435,0.169 -2.053,0.563 -0.619,0.394 0,-1.539 0.391,-1.924 0.641,-0.64 0.025,-1.979 0.482,-2.631 0.194,-0.276 0.902,-0.697 1.34,-0.353 0.437,0.346 -0.484,3.766 0.311,3.564 z"
         id="path324"
         inkscape:connector-curvature="0" />
      <path
         d="m 1132.138,778.91 c -0.678,-0.096 0.605,-1.267 1.134,-1.908 0.256,-0.314 0.875,-0.41 1.338,-0.434 0.182,-0.009 0.537,0.341 0.541,0.694 0,0.355 -0.367,1.424 -0.783,1.588 -0.74,0.291 -1.551,0.156 -2.23,0.06 z"
         id="path326"
         inkscape:connector-curvature="0" />
      <path
         d="m 1137.267,781.318 c 0.855,-0.105 1.496,0.837 1.113,1.381 -0.383,0.545 -0.936,0.856 -1.485,1.053 -0.201,0.07 -0.709,-0.233 -0.929,-0.824 -0.219,-0.59 0.443,-1.503 1.301,-1.61 z"
         id="path328"
         inkscape:connector-curvature="0" />
      <path
         d="m 1137.124,774.188 c 0.029,0.619 -0.982,0.844 -1.563,0.552 -0.579,-0.291 -0.745,-0.868 -0.717,-1.572 0.027,-0.703 0.943,-0.705 1.09,-0.592 0.442,0.336 1.159,0.991 1.19,1.612 z"
         id="path330"
         inkscape:connector-curvature="0" />
      <path
         d="m 1133.483,744.238 c 0.385,-0.17 1.36,0.663 1.858,1.1 0.498,0.438 -0.854,1.328 -1.299,1.338 -0.984,0.021 -1.924,-0.25 -2.658,-0.507 -0.733,-0.257 1.228,-1.548 2.099,-1.931 z"
         id="path332"
         inkscape:connector-curvature="0" />
      <path
         d="m 1135.505,750.313 c 0.369,-1.227 1.191,-1.301 2.269,-0.895 0.291,0.109 0.756,0.878 0.498,1.313 -0.259,0.437 -1.459,0.449 -2.201,0.625 -0.322,0.074 -0.718,0.159 -1.013,0.023 -0.295,-0.135 0.349,-0.744 0.447,-1.066 z"
         id="path334"
         inkscape:connector-curvature="0" />
      <path
         d="m 1135.855,720.146 c 0.443,0.149 0.939,1.961 0.789,2.396 -0.162,0.471 -1.002,1.736 -1.397,1.098 -0.395,-0.638 -0.672,-0.903 -0.615,-1.301 0.078,-0.538 0.781,-2.343 1.223,-2.193 z"
         id="path336"
         inkscape:connector-curvature="0" />
      <g
         id="g342">
        <path
           d="m 1152.335,981.111 c 20.873,0.905 60.029,2.771 62.779,2.729 2.748,-0.043 -2.063,-2.684 -2.929,-4.551 -0.864,-1.867 -0.022,-4.313 2.826,-3.568 2.85,0.744 24.588,8.396 26.24,10.777 1.65,2.382 -27.896,9.539 -31.602,10.086 -3.706,0.547 7.373,-8.264 4.604,-8.525 -2.77,-0.262 -40.836,0 -61.889,0 -2.658,0 -3.945,-0.582 -3.945,-3.766 0,-3.184 1.34,-3.293 3.916,-3.182 z"
           id="path338"
           inkscape:connector-curvature="0" />
        <path
           d="m 1128.899,988.182 c -21.582,0 -62.755,-0.281 -65.246,0 -2.492,0.282 1.741,4.131 0.334,5.688 -1.408,1.556 -7.25,-0.737 -13.541,-2.029 -6.293,-1.292 -20.506,-2.234 -15.441,-4.972 5.066,-2.736 26.525,-9.49 27.898,-8.708 1.372,0.782 -2.58,5.422 1.604,5.134 4.186,-0.288 42.91,-1.027 64.896,-1.563 1.822,-0.046 1.986,0.967 1.986,3.153 0,2.187 -0.364,3.297 -2.49,3.297 z"
           id="path340"
           inkscape:connector-curvature="0" />
      </g>
      <g
         id="g346">
        <path
           d="m 1200.104,675.05 c -2.487,2.923 -4.899,5.08 -7.239,6.472 -3.73,2.192 -8.302,3.289 -13.711,3.289 -7.681,0 -14.043,-2.41 -19.091,-7.229 -4.532,-4.311 -8.887,-11.539 -13.053,-21.69 -2.633,-6.354 -6.729,-18.185 -12.287,-35.49 -4.096,-12.636 -6.766,-20.268 -8.008,-22.896 -1.463,-3.065 -3.438,-5.184 -5.924,-6.354 l -9.041,57.477 c -0.1,0.367 -0.148,0.951 -0.148,1.754 0,2.484 1.023,4.75 3.07,6.796 1.682,1.608 3.91,3.034 6.689,4.274 h -29.281 c 5.85,-1.314 10.053,-3.105 12.611,-5.373 2.118,-1.9 3.436,-4.387 3.948,-7.457 l 9.541,-60.646 c -1.463,-1.284 -3,-2.395 -4.606,-3.322 -1.607,-0.929 -3.144,-1.395 -4.605,-1.395 h -1.645 c -7.531,0 -13.49,2.377 -17.875,7.129 -3.804,4.097 -6.218,9.507 -7.238,16.23 -0.439,2.633 -0.658,5.045 -0.658,7.238 0,5.557 1.426,10.272 4.277,14.146 2.045,2.779 5.444,5.776 10.197,8.993 -7.386,0 -12.867,-2.047 -16.449,-6.143 -2.998,-3.437 -4.496,-8.188 -4.496,-14.257 0,-1.826 0.182,-3.91 0.549,-6.251 1.678,-10.601 6.209,-18.351 13.59,-23.25 6.721,-4.458 15.891,-6.689 27.508,-6.689 8.84,0 15.416,3.065 19.729,9.194 2.481,3.576 5.404,11.238 8.766,22.986 3.654,12.697 7.453,22.658 11.398,29.883 l 7.809,-49.565 c 0.094,-0.361 0.142,-0.904 0.142,-1.63 0,-2.897 -1.242,-5.362 -3.729,-7.392 -1.463,-1.229 -3.547,-2.391 -6.25,-3.478 h 29.5 c -5.922,1.159 -10.236,2.898 -12.941,5.219 -2.12,1.813 -3.438,4.24 -3.946,7.284 l -8.773,55.712 c -0.074,0.293 -0.109,0.841 -0.109,1.645 0,6.142 2.084,12.502 6.25,19.082 5.265,8.263 11.916,12.394 19.962,12.394 2.045,0 4.514,-0.604 7.401,-1.811 2.883,-1.205 5.606,-2.833 8.166,-4.879 z"
           id="path344"
           inkscape:connector-curvature="0"
           style="fill:#c12552" />
      </g>
    </g>
  </g>
</svg>
