<?xml version="1.0" encoding="UTF-8" standalone="no"?>
<!-- Created with Inkscape (http://www.inkscape.org/) -->

<svg
   xmlns:dc="http://purl.org/dc/elements/1.1/"
   xmlns:cc="http://creativecommons.org/ns#"
   xmlns:rdf="http://www.w3.org/1999/02/22-rdf-syntax-ns#"
   xmlns:svg="http://www.w3.org/2000/svg"
   xmlns="http://www.w3.org/2000/svg"
   xmlns:sodipodi="http://sodipodi.sourceforge.net/DTD/sodipodi-0.dtd"
   xmlns:inkscape="http://www.inkscape.org/namespaces/inkscape"
   width="33.867989mm"
   height="33.866665mm"
   viewBox="0 0 33.867989 33.866665"
   version="1.1"
   id="svg16100"
   inkscape:version="0.92.3 (2405546, 2018-03-11)"
   sodipodi:docname="pillar2.svg">
  <defs
     id="defs16094" />
  <sodipodi:namedview
     id="base"
     pagecolor="#ffffff"
     bordercolor="#666666"
     borderopacity="1.0"
     inkscape:pageopacity="0.0"
     inkscape:pageshadow="2"
     inkscape:zoom="0.35"
     inkscape:cx="-444.85216"
     inkscape:cy="-374.85715"
     inkscape:document-units="mm"
     inkscape:current-layer="layer1"
     showgrid="false"
     inkscape:window-width="1366"
     inkscape:window-height="703"
     inkscape:window-x="0"
     inkscape:window-y="0"
     inkscape:window-maximized="1" />
  <metadata
     id="metadata16097">
    <rdf:RDF>
      <cc:Work
         rdf:about="">
        <dc:format>image/svg+xml</dc:format>
        <dc:type
           rdf:resource="http://purl.org/dc/dcmitype/StillImage" />
        <dc:title></dc:title>
      </cc:Work>
    </rdf:RDF>
  </metadata>
  <g
     inkscape:label="Layer 1"
     inkscape:groupmode="layer"
     id="layer1"
     transform="translate(-112.78678,-15.785714)">
    <g
       transform="matrix(0.26458333,0,0,0.26458333,-90.417454,-221.28095)"
       id="g1080">
      <g
         id="g1074">
        <polygon
           points="871.021,1024 793.02,1024 768.02,999 768.02,921 793.02,896 871.021,896 896.021,921 896.02,999 "
           id="polygon1072"
           style="fill:#4f5560" />
      </g>
      <path
         d="m 842.986,941.037 c 0,-0.928 0.893,-1.68 1.994,-1.68 1.1,0 1.994,0.752 1.994,1.68 0,0.928 -0.896,1.68 -1.994,1.68 -1.101,0 -1.994,-0.752 -1.994,-1.68 z m -21.287,22.08 c -0.81,0.447 -2.232,-0.588 -3.18,-2.313 -0.947,-1.719 -1.058,-3.479 -0.248,-3.926 0.807,-0.44 2.233,0.594 3.18,2.318 0.949,1.722 1.061,3.482 0.248,3.921 z m 32.756,13.274 c -0.389,-0.678 0.752,-2.387 1.902,-3.344 1.141,-0.959 1.858,-0.799 2.252,-0.117 0.387,0.681 0.026,1.775 -1.117,2.73 -1.146,0.955 -2.65,1.408 -3.037,0.731 z M 799.25,949.025 c 0,-0.705 0.57,-1.275 1.27,-1.275 0.701,0 1.271,0.57 1.271,1.275 0,0.698 -0.568,1.268 -1.271,1.268 -0.7,0 -1.27,-0.568 -1.27,-1.268 z m 9.998,26.457 c 0,-0.701 0.572,-1.271 1.271,-1.271 0.7,0 1.271,0.57 1.271,1.271 0,0.698 -0.57,1.268 -1.271,1.268 -0.699,0 -1.271,-0.568 -1.271,-1.268 z m 31.363,-0.955 c -3.183,-2.322 -11.353,-1.789 -13.138,1.953 -1.065,2.231 -1.004,3.543 -2.043,5.129 -1.006,1.532 -0.752,3.291 1.023,4.836 1.908,1.66 4.322,0.762 8.053,2.461 2.76,1.258 5.896,0.442 7.31,-1.494 0.979,-1.344 1.631,-2.898 1.905,-4.488 0.547,-3.135 -0.369,-6.399 -3.11,-8.397 z m -12.689,11.471 c -1.027,-0.979 -1.434,-2.178 -0.582,-3.355 1.148,-1.588 0.912,-1.932 2.271,-4.219 1.405,-2.369 6.95,-3.545 9.649,-1.908 1.928,1.166 3.715,3.634 3.258,6.234 -0.289,1.646 -0.881,3.035 -1.582,3.994 -0.75,1.029 -2.786,2.396 -4.86,1.623 -3.75,-1.396 -6.986,-1.256 -8.154,-2.369 z m 27.324,-47.478 c -0.701,0 -1.271,-0.567 -1.271,-1.27 0,-0.703 0.57,-1.273 1.271,-1.273 0.701,0 1.273,0.57 1.273,1.273 10e-4,0.701 -0.572,1.27 -1.273,1.27 z m -28.779,-5.213 c -0.66,0 -1.197,-0.528 -1.197,-1.192 0,-0.656 0.537,-1.193 1.197,-1.193 0.66,0 1.195,0.537 1.195,1.193 0,0.662 -0.535,1.192 -1.195,1.192 z m 18.553,28.107 c -1.041,0.271 -2.051,-0.137 -2.254,-0.922 -0.205,-0.781 0.472,-1.633 1.513,-1.906 1.034,-0.275 2.039,0.139 2.245,0.918 0.205,0.785 -0.469,1.637 -1.504,1.91 z m 6.25,32.336 c -0.664,0 -1.198,-0.533 -1.198,-1.193 0,-0.655 0.534,-1.194 1.198,-1.194 0.658,0 1.191,0.539 1.191,1.194 0,0.66 -0.533,1.193 -1.191,1.193 z m 11.584,-43.479 c 0.08,-0.843 0.673,-1.474 1.334,-1.408 0.652,0.063 1.125,0.795 1.043,1.637 -0.079,0.836 -0.682,1.467 -1.336,1.402 -0.661,-0.062 -1.122,-0.793 -1.041,-1.631 z m -40.588,-7.613 c -0.166,0.719 -0.596,1.221 -1.352,1.149 -1.016,-0.096 -1.107,0.103 -2.492,0.101 -1.436,-0.004 -3.432,-2.178 -3.414,-3.822 0.014,-1.174 0.646,-2.629 1.935,-3.113 0.813,-0.307 1.594,-0.409 2.211,-0.35 0.659,0.064 1.813,0.615 2.016,1.75 0.365,2.051 1.285,3.465 1.096,4.285 z"
         id="path1076"
         inkscape:connector-curvature="0" />
      <path
         d="m 873.021,1024 23,-23 v -82 l -23,-23 h -82.005 l -23,23 v 82 l 23,23 z m -37.693,-7.406 -1.455,-2.528 v -6.605 l 3.08,-0.813 10.875,0.584 7.479,-1.38 h 6.861 v 10.742 z m -6.521,-9.26 1.363,3.313 v 5.947 h -2.316 l -6,1.572 -16.25,-1.25 -3.731,-1.457 v -9.607 h 5.481 l 11.916,2.064 z m -42.639,-13.48 4.662,7.334 -1.098,1.718 4.719,1.289 4.984,5.223 -1.267,7.178 h -4.955 l -7.389,-10.063 -5.41,-1.314 -4.988,-8.235 2.15,-3.128 z m 23.977,-1.247 h 5.021 v 7.352 l -2.48,4.291 -8.565,-0.902 h -5.123 l -10.324,-10.514 v -13.145 l 1.74,-2.836 h 6.582 l 2.42,2.627 v 3.332 l 4.104,5.813 z m -23.977,-30.755 1.451,12.464 -1.451,7.25 v 8.584 h -10.74 l -1.391,-15.378 1.391,-9.75 v -3.17 z m -8.111,-33.018 8.111,1.021 -1.049,8.354 1.049,7 v 12.939 h -7.926 l -2.814,-2.168 0.982,-11.5 -2.5,-1.5 -0.299,-7.072 1.815,-6.053 z m 14.213,-26.209 5.9,0.781 1,4.803 -1,5.941 -5.9,7.1 -2.625,-1.375 -3.477,6.273 -1.986,0.872 -2.813,-0.872 h -5.941 v -4.74 l 6.748,-8.439 5.781,-2.455 z m 41.142,15.355 9.082,-1.328 h 4.674 v 8.744 l -3.049,1.995 h -7.791 l -13,-1.786 -6.459,1.786 v -9.059 l 2.563,-1.682 h 10.396 z m 17.02,-13.521 9.572,-0.857 2.164,3.795 v 6.755 h -3.484 l -9.252,-1.505 -6.229,1.505 h -3.291 l -6.293,-1.605 -1.125,-7.147 1.379,-1.99 7.559,-1.447 z m -41.998,-0.053 11.736,-1 h 10 v 8.93 l -2.613,1.814 h -13 l -12.686,-1.504 v -9.24 z m 67.961,4.789 8.505,5.557 5.059,7.07 -1.346,4.326 h -10.74 l -2.272,-7.041 -9.728,-4.957 v -10.744 l 3.854,-1.541 z m -1.834,49.721 1.084,4.375 -0.959,10.209 -3.584,1.648 h -4.582 l -1.895,-5.564 v -11.492 l -1.227,0.158 0.121,1.25 -1.203,7.291 0.604,4.168 v 8.75 l -1.387,3.436 -1.826,3.183 -4.726,4.057 0.541,0.539 1.99,-0.66 4.197,-3.76 2.598,-6.668 3.365,-2.981 h 5.844 l 1.334,0.606 0.515,4 v 8.791 l -2.349,7.307 -2.625,1.318 -5.774,4.473 h -6.375 l -11.125,2.009 -13.125,-2.009 -13.726,0.902 -3.399,-2.584 v -9.059 l 3.5,-0.836 11.649,0.836 v -0.681 l -2.524,-0.313 -2.845,-0.713 -11.344,-1.037 -4.406,1.037 -4.381,-3.34 -2.955,-1.175 -2.446,-3.575 v -3.373 l -0.83,-3.25 0.83,-1.168 v -4.183 l -0.873,-1.537 -0.83,-0.463 v 5.433 l -2,0.877 h -5.711 l -1.291,-5.168 -1.74,-3.041 v -21.668 l 6.99,-2.419 -1.875,-1.938 -2.48,0.168 -2.635,-1.938 v -11.021 l 7.473,-6.125 3.787,-5.348 13.789,1.692 1.445,1.738 v 7.309 h -4.396 l -4.563,1.107 -2.875,4.5 1,0.5 4.313,-4.404 h 7.685 l 7.889,-2.535 14.736,2.535 h 11.94 l 3.582,1.289 0.668,-1.697 -1.606,-1.295 h -4.666 v -4.746 l 1.748,-4.813 5.625,-1.182 h 8.024 l 4.312,4.502 3.938,0.721 2.849,6.084 v 6.189 l -1,9 z m 5.566,-0.025 -3.441,-0.85 -0.25,-11.375 1.437,-16.814 h 10.74 l 0.907,3.648 -0.907,24.648 z m 5.934,32.359 -4.75,-1.102 h -3.438 l -0.564,-16.314 v -4 l 0.564,-7.982 h 10.74 l -1.343,12.523 v 8 l 1.343,7.773 z m -3.041,12 -2.614,5.826 -11.261,7.518 h -3.272 v -2.822 l -1.564,-5.125 1.564,-2.795 9.563,-3.817 -0.664,-1.533 3.969,-6.648 h 9.873 l -0.383,5.232 z"
         id="path1078"
         inkscape:connector-curvature="0" />
    </g>
  </g>
</svg>
