<?xml version="1.0" encoding="UTF-8" standalone="no"?>
<svg
   xmlns:dc="http://purl.org/dc/elements/1.1/"
   xmlns:cc="http://creativecommons.org/ns#"
   xmlns:rdf="http://www.w3.org/1999/02/22-rdf-syntax-ns#"
   xmlns:svg="http://www.w3.org/2000/svg"
   xmlns="http://www.w3.org/2000/svg"
   xmlns:sodipodi="http://sodipodi.sourceforge.net/DTD/sodipodi-0.dtd"
   xmlns:inkscape="http://www.inkscape.org/namespaces/inkscape"
   width="400"
   height="400"
   viewBox="0 0 105.83334 105.83333"
   version="1.1"
   id="svg2110"
   inkscape:version="1.0 (4035a4fb49, 2020-05-01)"
   sodipodi:docname="magma1.svg">
  <defs
     id="defs2104" />
  <sodipodi:namedview
     fit-margin-bottom="0"
     fit-margin-right="0"
     fit-margin-left="0"
     fit-margin-top="0"
     units="px"
     id="base"
     pagecolor="#ffffff"
     bordercolor="#666666"
     borderopacity="1.0"
     inkscape:pageopacity="0.0"
     inkscape:pageshadow="2"
     inkscape:zoom="0.35"
     inkscape:cx="180.00007"
     inkscape:cy="342.96218"
     inkscape:document-units="mm"
     inkscape:current-layer="layer1"
     inkscape:document-rotation="0"
     showgrid="false"
     inkscape:window-width="1920"
     inkscape:window-height="996"
     inkscape:window-x="-8"
     inkscape:window-y="-8"
     inkscape:window-maximized="1" />
  <metadata
     id="metadata2107">
    <rdf:RDF>
      <cc:Work
         rdf:about="">
        <dc:format>image/svg+xml</dc:format>
        <dc:type
           rdf:resource="http://purl.org/dc/dcmitype/StillImage" />
        <dc:title></dc:title>
      </cc:Work>
    </rdf:RDF>
  </metadata>
  <g
     inkscape:label="Layer 1"
     inkscape:groupmode="layer"
     id="layer1"
     transform="translate(-58.208315,-57.42459)">
    <path
       d="M 164.04164,57.480211 V 163.31354 H 58.208315 V 57.480211 H 164.04164"
       style="fill:#eeb254;fill-opacity:1;fill-rule:nonzero;stroke:none;stroke-width:0.0352777"
       id="path2596" />
    <path
       d="m 164.04164,69.762523 v 8.254999 c -0.14464,0.01764 -0.28928,0.03175 -0.43039,0.03881 -4.00755,0.239889 -5.34811,-4.617861 -8.93585,-5.969 -1.88031,-0.709083 -2.87867,-1.27 -4.70253,2.233083 -2.94217,5.644445 -6.17361,8.643056 -13.28914,4.469695 -7.27075,-4.265083 -7.41539,5.203471 -16.69697,2.822222 -9.17223,-2.353032 -13.15509,2.836329 -18.81717,2.116662 -6.466415,-0.821972 -6.230055,-8.230305 -16.403106,-7.821083 -5.369278,0.218723 -6.290028,3.940528 -9.757833,-1.058333 -3.471334,-4.995333 -7.115528,-3.760611 -12.643556,1.178278 -1.368777,1.220611 -2.783416,1.820333 -4.155722,1.989666 v -8.247944 c 3.266722,-0.515055 6.409972,-1.506361 8.978194,-2.973917 4.938889,-2.822222 6.35,-2.116666 11.288889,0.705556 4.938889,2.822222 7.761111,3.175 12.347221,1.763889 4.585055,-1.411111 9.171165,4.938889 13.757273,6.35 4.58611,1.411111 8.81945,0.176389 9.11225,-2.233083 0.29633,-2.413 -3.64419,-3.58775 -6.46642,-1.763889 1.17475,-2.822222 4.87892,-4.353278 7.9375,-2.645834 3.05859,1.703917 3.11503,4.289778 2.23309,5.877278 -0.88195,1.5875 -3.49956,3.573639 -7.33425,3.284361 2.57175,1.30175 5.27755,0.772583 7.98336,-1.520472 2.70228,-2.293056 7.52475,-7.817555 9.58144,-7.112 2.06023,0.705556 5.588,4.289778 12.87639,4.466167 4.76956,0.116416 7.8987,-7.189612 12.64356,-6.702778 4.5085,0.465667 7.87399,2.88925 10.89377,2.497667"
       style="fill:#ee6b54;fill-opacity:1;fill-rule:nonzero;stroke:none;stroke-width:0.0352777"
       id="path2598" />
    <path
       d="m 164.04164,63.885245 v 1.964972 c -3.87703,1.121833 -6.50874,0.419805 -11.24655,-0.934861 -5.35164,-1.531056 -5.88081,-1.5875 -9.82133,1.703916 -3.937,3.291417 -7.112,3.115028 -13.34559,1.411112 -6.23358,-1.703917 -4.70252,0.645583 -11.34886,-0.705556 -4.17336,-0.850194 -4.99533,-1.823861 -7.64116,-0.529167 -2.64584,1.294695 -3.35139,1.647473 -5.11528,1.058334 -1.58045,-0.525639 -3.52778,-2.469445 -4.11692,-3.411361 -1.04775,-1.675695 -6.053665,-1.552223 -3.764135,1.883833 1.64747,2.469445 11.288885,0.938389 7.408335,7.288389 -0.17992,0.296333 0.44097,-4.741333 -3.76062,-4.233333 -3.880548,0.472722 -6.233578,0.941916 -7.87999,-2.822223 -2.32128,-5.305778 -5.468056,-5.139972 -7.58825,-3.1115 -0.09878,0.09525 -0.197556,0.1905 -0.28928,0.289278 -2.116665,2.293056 -4.878915,-0.292806 -6.233582,-3.175 -0.0388,-0.08819 -0.08467,-0.172861 -0.130528,-0.250472 -0.01411,-0.02822 -0.03175,-0.05292 -0.04586,-0.07761 -0.03175,-0.05292 -0.0635,-0.105833 -0.09525,-0.155222 -0.01764,-0.02822 -0.04233,-0.05644 -0.05997,-0.08467 -0.03175,-0.04233 -0.05997,-0.08114 -0.09172,-0.119945 -0.02469,-0.03175 -0.04939,-0.05644 -0.07408,-0.08467 -0.02822,-0.03528 -0.05997,-0.07056 -0.09172,-0.102305 -0.02469,-0.02822 -0.05292,-0.05292 -0.08114,-0.07761 -0.03175,-0.02822 -0.05997,-0.05644 -0.09172,-0.08467 -0.03175,-0.02469 -0.05997,-0.04586 -0.09172,-0.07056 -0.03175,-0.02469 -0.0635,-0.04939 -0.09525,-0.07056 -0.03175,-0.02117 -0.06703,-0.04233 -0.09878,-0.0635 -0.03175,-0.01764 -0.06703,-0.03881 -0.09878,-0.05644 -0.03528,-0.02117 -0.07055,-0.03528 -0.105833,-0.05292 -0.03528,-0.01764 -0.07055,-0.03175 -0.105833,-0.04586 -0.03528,-0.01764 -0.07408,-0.03175 -0.112889,-0.04586 -0.03528,-0.01058 -0.07056,-0.02469 -0.105833,-0.03528 -0.03881,-0.01058 -0.08114,-0.02117 -0.123473,-0.03175 -0.03528,-0.01058 -0.07056,-0.01764 -0.105833,-0.02469 -0.04233,-0.01058 -0.08819,-0.01764 -0.130528,-0.02469 -0.0388,-0.0035 -0.07408,-0.01058 -0.109361,-0.01411 -0.04939,-0.0071 -0.09525,-0.01058 -0.141111,-0.01411 -0.0388,-0.0035 -0.07408,-0.0035 -0.112889,-0.0035 -0.04939,-0.0035 -0.09878,-0.0035 -0.148166,-0.0035 -0.03881,0 -0.07408,0 -0.112889,0.0035 -0.05292,0 -0.105834,0.0035 -0.15875,0.0071 -0.03881,0.0035 -0.07408,0.0071 -0.112889,0.01058 -0.05645,0.0071 -0.112889,0.01058 -0.169334,0.02117 -0.0388,0.0035 -0.07408,0.01058 -0.112888,0.01764 -0.05997,0.0071 -0.119945,0.01764 -0.183445,0.03175 -0.03528,0.0071 -0.07055,0.01411 -0.109361,0.02117 -0.0635,0.01411 -0.127,0.02822 -0.194028,0.04586 -0.03528,0.0071 -0.06703,0.01764 -0.102305,0.02822 -0.07056,0.01764 -0.141111,0.03528 -0.211667,0.05645 -0.03175,0.01058 -0.0635,0.02117 -0.09525,0.03175 -0.07761,0.02117 -0.151694,0.04586 -0.229306,0.07408 -0.02822,0.0071 -0.05644,0.01764 -0.08467,0.02822 -0.08467,0.02822 -0.169334,0.05997 -0.254,0.09172 -0.01764,0.0071 -0.03881,0.01764 -0.05997,0.02469 -0.09525,0.03528 -0.1905,0.07408 -0.28575,0.112889 -0.0071,0.0035 -0.01411,0.0071 -0.02117,0.01058 -1.255889,0.529166 -2.716389,1.382888 -4.367389,2.494138 -0.0035,0 -0.0035,0 -0.0035,0 -0.1905,0.148167 -0.395111,0.292806 -0.617361,0.423334 -0.144639,0.09878 -0.282222,0.1905 -0.416277,0.275166 -0.04233,0.02469 -0.08467,0.04939 -0.127,0.07761 -0.09525,0.05644 -0.186973,0.109361 -0.278695,0.162278 -0.04233,0.02117 -0.08467,0.04939 -0.127,0.07056 -0.105833,0.05644 -0.215194,0.109361 -0.3175,0.15875 -0.0635,0.03175 -0.127,0.05997 -0.1905,0.08467 -0.04233,0.01764 -0.08467,0.03528 -0.123472,0.05292 -0.254,0.102306 -0.486833,0.172861 -0.709083,0.218722 0,0.0035 0,0.0035 0,0.0035 -2.458894,0.885468 -4.272172,0.575024 -7.295478,1.718024 -0.550333,0.208139 -1.068916,0.384528 -1.569861,0.525639 v -1.964972 c 1.710972,0.783166 3.654778,-1.065389 3.097389,-3.203223 -0.303389,-1.17475 0.141111,-2.303638 1.100667,-3.203222 h 16.52411 c 0.525639,0.03528 1.012473,0.03175 1.502834,0 h 11.440584 c 1.773412,0.426861 3.565525,0.881945 5.414078,1.026584 4.529665,0.352777 8.046865,0.959555 12.022665,-0.931334 0.0635,-0.03175 0.13053,-0.06703 0.19403,-0.09525 h 13.08805 c 0.53975,0.232834 1.10067,0.497417 1.68275,0.790222 7.23195,3.647723 10.23056,-0.176388 13.64192,-0.705555 0.22931,-0.03528 0.45156,-0.0635 0.66675,-0.08467 0.72672,-0.07408 1.38995,-0.07055 1.97203,0 1.83797,0.225778 2.85044,1.157111 2.4765,2.614084 -0.52917,2.056694 -4.05695,3.527777 -5.11528,2.705805 1.52753,-0.176389 2.99861,-1.883833 1.52753,-2.882194 -1.46756,-0.998361 -3.81353,1.104194 -6.58283,2.882194 -3.11856,1.996722 -9.58498,1.411111 -14.17109,-2.00025 -4.58611,-3.411361 -7.29191,0.589139 -10.11414,0.941917 2.94217,0.585611 4.58611,-1.883834 6.11717,-1.058334 1.52753,0.821973 1.99672,3.996973 4.58611,3.407834 2.58586,-0.585611 3.76061,-0.352778 6.46642,1.178278 2.7058,1.527527 3.29141,1.17475 6.35,0.116416 3.05858,-1.058333 2.00025,-0.705555 4.52614,-0.645583 4.46969,0.102305 6.46994,-3.351389 10.29052,-3.704167 3.82059,-0.352778 5.63034,0.409222 8.93587,1.940278 3.17499,1.467556 5.17524,-3.234972 6.93913,-0.296333 0.36689,0.613833 0.8008,1.001889 1.25236,1.2065"
       style="fill:#ee6b54;fill-opacity:1;fill-rule:nonzero;stroke:none;stroke-width:0.0352777"
       id="path2600" />
    <path
       d="m 71.304484,161.63291 c 3.84175,1.06538 5.930194,1.5628 7.627055,1.67922 h -16.52411 c 0.716139,-0.67734 1.721555,-1.22414 2.913944,-1.56986 0.08467,-0.0317 0.172861,-0.0635 0.261056,-0.0952 0.03175,-0.0106 0.06703,-0.0212 0.09878,-0.0318 0.141111,-0.0459 0.289278,-0.0917 0.440972,-0.13053 0.04939,-0.0106 0.09878,-0.0247 0.148167,-0.0388 0.08114,-0.0176 0.162277,-0.0388 0.246944,-0.0529 0.07408,-0.0177 0.151695,-0.0318 0.229306,-0.0459 0.109361,-0.0212 0.218722,-0.0388 0.328083,-0.0529 0.08819,-0.0106 0.176389,-0.0247 0.268111,-0.0353 0.07056,-0.007 0.137583,-0.0141 0.208139,-0.0177 0.141111,-0.0141 0.289278,-0.0212 0.437444,-0.0282 0.05644,-0.004 0.112889,-0.004 0.165806,-0.004 0.127,-0.004 0.254,0 0.384527,0 0.04939,0.004 0.102306,0.004 0.155223,0.004 0.169333,0.007 0.342194,0.0177 0.518583,0.0353 0.04586,0.004 0.09525,0.0106 0.144639,0.0141 0.162278,0.0177 0.328083,0.0388 0.497416,0.0635 0.02822,0.004 0.05997,0.007 0.08819,0.0106 0.194028,0.0318 0.391583,0.0706 0.589139,0.10936 0.04939,0.0106 0.09525,0.0212 0.144639,0.0318 0.204611,0.0459 0.41275,0.0988 0.627944,0.15522"
       style="fill:#ee6b54;fill-opacity:1;fill-rule:nonzero;stroke:none;stroke-width:0.0352777"
       id="path2602" />
    <path
       d="M 91.874957,163.31213 H 80.434373 c 1.075972,-0.0741 2.162527,-0.29986 3.686527,-0.62089 0.236362,-0.0494 0.472723,-0.0847 0.709084,-0.11995 0.09878,-0.0106 0.194026,-0.0247 0.289276,-0.0353 0.123474,-0.0106 0.243417,-0.0212 0.363363,-0.0318 2.159,-0.16581 4.265084,0.29986 6.392334,0.80786"
       style="fill:#ee6b54;fill-opacity:1;fill-rule:nonzero;stroke:none;stroke-width:0.0352777"
       id="path2604" />
    <path
       d="m 121.64481,162.91702 c 0.31045,0.11994 0.62442,0.25047 0.94897,0.39511 h -13.08805 c 0.94544,-0.47272 1.89442,-0.88195 2.89983,-1.17475 0.74084,-0.21872 1.50989,-0.37395 2.32834,-0.44097 0.635,-0.0529 1.29822,-0.0564 2.00377,0 1.44639,0.11994 3.05506,0.49741 4.90714,1.22061"
       style="fill:#ee6b54;fill-opacity:1;fill-rule:nonzero;stroke:none;stroke-width:0.0352777"
       id="path2606" />
    <path
       d="m 140.55723,163.31213 h -1.97203 c 0.72672,-0.0741 1.38995,-0.0706 1.97203,0"
       style="fill:#ee6b54;fill-opacity:1;fill-rule:nonzero;stroke:none;stroke-width:0.0352777"
       id="path2608" />
    <path
       d="m 164.04164,81.442995 v 9.496776 c -2.18017,-0.620887 -4.18747,-1.912054 -5.72206,-3.446637 -1.05832,-1.058333 -3.01977,0.15522 -5.52449,2.82222 -7.53886,8.00453 -25.75278,3.291417 -34.57222,1.643947 -8.81945,-1.643947 -6.93914,-1.52753 -12.11439,0.119943 -5.17172,1.643944 -4.23333,2.469444 -7.641165,1.058333 -3.411363,-1.41111 -4.93889,-0.472723 -8.423275,2.229557 -3.485446,2.702277 -6.512278,-4.699 -9.450917,-8.22678 -2.938639,-3.527776 -7.475361,-3.404304 -13.641917,1.880307 -2.790472,2.391833 -5.916083,2.719916 -8.741833,1.91911 v -9.496776 c 5.224639,-1.241778 10.869083,-1.647473 16.270111,0.405694 8.346722,3.174999 17.166166,6.230055 34.218386,6.113638 17.04975,-0.116416 21.51944,-4.349749 34.57222,-4.58611 4.23686,-0.07761 8.72067,2.04611 12.7,0.589137 2.49061,-0.913693 5.21758,-1.845026 8.07155,-2.522359"
       style="fill:#ee6b54;fill-opacity:1;fill-rule:nonzero;stroke:none;stroke-width:0.0352777"
       id="path2610" />
    <path
       d="m 164.04164,92.597827 v 2.511777 c -0.0177,-0.0035 -0.0388,-0.0071 -0.0564,-0.01058 -2.95981,-0.4445 -5.16114,0.677333 -10.19175,2.741083 -6.87917,2.822223 -13.40555,2.998613 -20.6375,1.058334 -9.76489,-2.621137 -10.93611,-3.527777 -13.05278,-2.293054 -2.11666,1.23472 -1.41111,4.056943 2.22956,4.159253 -3.7712,3.28083 -7.69761,0.95602 -7.69761,-2.395366 0,-3.351387 3.52778,-5.291667 9.525,-3.527777 5.99722,1.76389 16.05139,4.233333 23.45972,1.41111 7.40833,-2.82222 10.93611,-5.99722 14.28749,-4.40972 0.63853,0.303387 1.36173,0.560917 2.13431,0.754943"
       style="fill:#ee6b54;fill-opacity:1;fill-rule:nonzero;stroke:none;stroke-width:0.0352777"
       id="path2612" />
    <path
       d="m 123.45456,107.18872 c -4.7625,1.05833 -12.52361,-0.70556 -17.63889,-2.64584 -5.11527,-1.94028 -10.936105,0.52917 -18.51977,0 -7.584722,-0.52916 -8.290277,-4.938886 -13.229166,-7.408329 -4.938889,-2.469447 -7.9375,0.529166 -12.170833,-0.881947 -1.485194,-0.497416 -2.617611,-0.973666 -3.686528,-1.143 v -2.511777 c 3.277306,0.846667 7.468306,0.613834 10.036528,-1.813276 4.233333,-4.409724 8.466666,-4.409724 11.641666,1.763887 3.175,6.173613 4.409722,6.879166 10.406943,4.056946 5.996165,-2.822223 16.22672,2.645833 21.87116,6.879166 5.64445,4.23333 12.87639,1.94028 13.40556,-1.41111 0.52917,-3.351389 -2.28247,-3.425473 -3.8735,-2.684639 0.16933,-2.077863 7.22489,-1.901474 9.16517,1.097139 1.94027,2.99861 -2.64584,5.64444 -7.40834,6.70278"
       style="fill:#ee6b54;fill-opacity:1;fill-rule:nonzero;stroke:none;stroke-width:0.0352777"
       id="path2614" />
    <path
       d="m 164.04164,99.240634 v 12.675306 c -1.59808,0.26458 -3.30906,0.067 -5.30931,-0.49389 -4.40971,-1.23472 -10.82321,-2.94217 -15.87499,1.5875 -5.11528,4.58611 -8.11389,9.525 -11.46528,9.34861 -3.2773,-0.17286 -4.05694,-7.05556 -14.99305,-6.35 -10.93611,0.70555 -11.39473,2.68464 -16.721668,0.10936 -5.326944,-2.5788 -4.974167,-3.46075 -7.971719,-1.16769 -2.998613,2.29305 -6.702779,6.87916 -12.170834,2.29305 -2.786944,-2.33539 -3.351388,-3.52778 -5.644444,-6.52639 -3.566583,-4.66725 -6.526389,-5.29166 -10.054166,-1.94027 -1.929695,1.83091 -3.697111,2.82222 -5.626806,3.13972 V 99.240634 c 2.882195,-0.465667 5.679722,-0.0141 7.567083,1.245306 4.233334,2.82222 6.879167,6.87916 17.286111,7.23194 10.406943,0.35278 15.344775,0.17639 23.105883,2.46945 7.76111,2.29305 16.24189,2.40594 26.10556,-1.94028 10.40694,-4.58611 18.34444,1.41111 22.225,-2.82222 2.12019,-2.31423 4.10632,-4.44853 6.71688,-5.432779 0.93133,-0.35278 1.88383,-0.60325 2.82575,-0.751417"
       style="fill:#ee6b54;fill-opacity:1;fill-rule:nonzero;stroke:none;stroke-width:0.0352777"
       id="path2616" />
    <path
       d="m 117.45734,119.18316 c -2.82222,-0.70556 -3.52778,-0.17639 -8.29028,3.70417 -4.7625,3.88055 -8.46666,3.52777 -14.111108,1.05833 -5.643385,-2.46945 -7.534275,3.58422 -14.526329,2.40947 -6.992056,-1.17475 -8.050389,-2.23308 -11.930944,-6.46642 -3.249084,-3.54188 -6.124222,0.94545 -10.389306,1.26295 v -5.80672 c 0.66675,-0.33514 1.464028,-0.76553 2.451806,-1.27706 4.7625,-2.46944 8.290277,-2.64583 12.347222,2.29306 4.056944,4.93889 5.115277,8.46666 9.877777,5.82083 4.762499,-2.64583 7.761112,-5.11528 12.522554,-3.35139 4.762498,1.76389 10.054168,3.35139 14.111108,0.88195 4.05694,-2.46945 6.35,-1.94028 7.9375,-0.52917"
       style="fill:#ee6b54;fill-opacity:1;fill-rule:nonzero;stroke:none;stroke-width:0.0352777"
       id="path2618" />
    <path
       d="m 164.04164,115.34494 v 5.80319 c -0.12347,0.0106 -0.24694,0.0141 -0.37394,0.0177 -0.71967,0.0141 -1.4852,-0.0917 -2.28953,-0.39511 -5.11527,-1.94028 -7.9375,9.34861 -20.6375,10.58333 -12.7,1.23472 -13.58194,0.70556 -21.34305,-2.82222 -7.76111,-3.52778 -11.46528,-0.88194 -14.46389,1.41111 3.175,-5.29167 10.91142,-11.91683 16.30186,-8.42786 5.39397,3.48897 5.9055,10.02594 11.29242,5.96194 5.39044,-4.06047 14.20989,-19.58269 26.38071,-12.87991 2.159,1.18886 2.43064,1.99319 4.35681,1.12183 0.23989,-0.10936 0.49389,-0.23283 0.77611,-0.37394"
       style="fill:#ee6b54;fill-opacity:1;fill-rule:nonzero;stroke:none;stroke-width:0.0352777"
       id="path2620" />
    <path
       d="m 64.541734,145.4651 c -4.180416,-1.72861 -4.236861,-6.17008 -6.332361,-6.48052 v -5.70795 c 3.898195,-1.21355 2.120195,2.87161 7.037917,5.4857 5.644444,2.99861 5.820833,-4.05695 2.998611,-4.40973 1.5875,-1.5875 4.7625,1.23473 5.115277,5.11528 0.366889,4.04283 -3.704166,8.11389 -8.819444,5.99722"
       style="fill:#ee6b54;fill-opacity:1;fill-rule:nonzero;stroke:none;stroke-width:0.0352777"
       id="path2622" />
    <path
       d="m 164.04164,133.27663 v 5.70795 c -0.46919,-0.0706 -1.04069,0.0635 -1.78153,0.4833 -4.53319,2.56117 -10.09296,7.06614 -23.45971,4.05695 -7.27781,-1.63689 -10.75973,1.05833 -22.04862,0.70555 -11.28888,-0.35278 -15.77622,1.18533 -24.732186,3.50308 -8.957027,2.31775 -17.247305,-5.09058 -18.482027,-12.6753 -1.234722,-7.58472 -10.93611,-2.46945 -6.526388,1.23472 -4.056945,0.88195 -4.056945,-4.93889 0.705555,-7.58472 4.046361,-2.2472 10.692694,-1.21708 12.523611,5.29167 1.5875,5.64444 4.762499,7.23194 7.937499,3.35138 3.175,-3.88055 5.466998,-6.52638 9.876721,-2.82222 4.409715,3.70417 4.938885,7.23195 10.936105,2.46945 5.99723,-4.7625 9.87778,-7.23195 14.11111,-3.35139 4.23334,3.88055 1.94028,8.11389 7.9375,6.87916 5.99723,-1.23472 5.46806,-5.46805 14.11112,-2.99861 5.96194,1.70392 8.45608,0.80081 16.75693,-3.35139 0.86078,-0.43038 1.55928,-0.72319 2.13431,-0.89958"
       style="fill:#ee6b54;fill-opacity:1;fill-rule:nonzero;stroke:none;stroke-width:0.0352777"
       id="path2624" />
    <path
       d="m 117.81012,159.57621 c -6.70278,0.88195 -6.34295,-0.88194 -6.34295,-0.88194 0,0 5.16114,0.0952 5.40103,-3.83117 0.23636,-3.92994 -2.23308,-3.40078 -3.82058,-0.57855 -1.5875,2.82222 -9.77195,6.02191 -15.345835,2.34244 -1.41111,-0.93133 -2.293053,1.18533 -7.936441,0.127 -5.644444,-1.05833 -7.408332,-5.29167 -15.69861,-0.70555 -7.401278,4.09574 -11.849805,4.10985 -15.857361,1.42874 v -6.79097 c 0.296334,0.11995 0.585611,0.26106 0.864306,0.42334 4.233333,2.46944 11.1125,-3.88056 17.815277,-1.41111 5.563306,2.04963 11.465278,5.29166 21.341996,2.29305 9.877778,-2.99861 13.934718,-5.82083 19.579168,-3.35139 5.64444,2.46945 6.70278,10.05417 0,10.93611"
       style="fill:#ee6b54;fill-opacity:1;fill-rule:nonzero;stroke:none;stroke-width:0.0352777"
       id="path2626" />
    <path
       d="m 164.04164,150.68621 v 6.79097 c -0.48331,-0.31749 -0.95603,-0.67733 -1.42875,-1.07597 -4.40972,-3.70416 -11.64166,0.88195 -11.64166,0.17639 2.96686,-5.27403 8.85472,-7.62 13.07041,-5.89139"
       style="fill:#ee6b54;fill-opacity:1;fill-rule:nonzero;stroke:none;stroke-width:0.0352777"
       id="path2628" />
    <path
       d="m 164.04164,143.20027 v 6.55814 c -1.92617,-0.27164 -3.47839,-1.28411 -6.54402,-0.94192 -4.7625,0.52917 -6.70278,5.29167 -10.75972,4.58611 -4.05695,-0.70555 -5.11528,-1.76389 -11.81806,1.05834 -6.70278,2.82222 -9.70139,1.05833 -11.81806,-1.41112 -2.11666,-2.46944 -1.23472,-6.70277 1.94028,-7.40833 -1.92616,4.92125 2.76931,5.32342 8.29028,1.94028 5.46806,-3.35139 9.89894,-0.53269 12.87639,0 4.93889,0.88194 4.93889,0.35278 12.17083,-3.35139 3.175,-1.6263 4.64961,-1.61925 5.66208,-1.03011"
       style="fill:#ee6b54;fill-opacity:1;fill-rule:nonzero;stroke:none;stroke-width:0.0352777"
       id="path2630" />
    <path
       d="m 149.03095,157.98871 c -4.93889,0.52917 -4.40972,-4.05694 -8.29028,-2.29305 -3.88055,1.76388 -4.23333,5.11527 -10.93611,4.05694 -6.70278,-1.05833 -8.29028,0.52917 -12.34722,1.76389 -4.05694,1.23472 -4.58611,-1.94028 -10.75972,-1.76389 -6.17361,0.17639 -7.408335,1.23472 -11.112501,-0.70556 -3.703109,-1.94027 -7.407275,2.46945 -13.757274,-1.23472 2.116667,3.175 6.526389,4.7625 10.406945,3.52778 3.879495,-1.23472 8.46561,2.29306 14.28644,1.05833 5.82083,-1.23472 11.46528,1.23473 20.99028,0.35278 9.525,-0.88194 11.28889,0.88195 13.58194,-1.94028 2.29306,-2.82222 4.58611,0.35278 7.9375,-2.82222"
       style="fill:#ee6b54;fill-opacity:1;fill-rule:nonzero;stroke:none;stroke-width:0.0352777"
       id="path2632" />
  </g>
</svg>
