<?xml version="1.0" encoding="UTF-8" standalone="no"?>
<svg
   xmlns:dc="http://purl.org/dc/elements/1.1/"
   xmlns:cc="http://creativecommons.org/ns#"
   xmlns:rdf="http://www.w3.org/1999/02/22-rdf-syntax-ns#"
   xmlns:svg="http://www.w3.org/2000/svg"
   xmlns="http://www.w3.org/2000/svg"
   xmlns:sodipodi="http://sodipodi.sourceforge.net/DTD/sodipodi-0.dtd"
   xmlns:inkscape="http://www.inkscape.org/namespaces/inkscape"
   inkscape:version="1.0 (4035a4fb49, 2020-05-01)"
   sodipodi:docname="metal1.svg"
   version="1.1"
   id="svg2"
   xml:space="preserve"
   width="200"
   height="198.09091"
   viewBox="0 0 199.99999 198.09091"><sodipodi:namedview
     inkscape:current-layer="svg2"
     inkscape:window-maximized="1"
     inkscape:window-y="-8"
     inkscape:window-x="-8"
     inkscape:cy="438.95537"
     inkscape:cx="457.52693"
     inkscape:zoom="0.80705574"
     showgrid="false"
     id="namedview374"
     inkscape:window-height="996"
     inkscape:window-width="1920"
     inkscape:pageshadow="2"
     inkscape:pageopacity="0"
     guidetolerance="10"
     gridtolerance="10"
     objecttolerance="10"
     borderopacity="1"
     bordercolor="#666666"
     pagecolor="#ffffff" /><metadata
     id="metadata8"><rdf:RDF><cc:Work
         rdf:about=""><dc:format>image/svg+xml</dc:format><dc:type
           rdf:resource="http://purl.org/dc/dcmitype/StillImage" /></cc:Work></rdf:RDF></metadata><defs
     id="defs6" /><g
     id="g10"
     transform="matrix(0.18181818,0,0,-0.18181818,0,198.09091)"><g
       id="g12"
       transform="scale(0.1)"><path
         d="m 1615,3080.22 h 2691.53 l -7.9,3.79 525.94,1096.96 H 1615 V 3080.22"
         style="fill:#5c8ebb;fill-opacity:1;fill-rule:nonzero;stroke:none"
         id="path14" /><path
         d="M 7831.46,1759.49 H 4927.67 L 4849.06,658.801 h 2982.4 V 1759.49"
         style="fill:#5c8ebb;fill-opacity:1;fill-rule:nonzero;stroke:none"
         id="path16" /><path
         d="m 10623.7,3080.22 h 376.3 v 1100.75 h -376.3 V 3080.22"
         style="fill:#5c8ebb;fill-opacity:1;fill-rule:nonzero;stroke:none"
         id="path18" /><path
         d="M 1863.86,1759.49 H 0 V 658.801 h 1554.29 l 309.57,1100.689"
         style="fill:#5c8ebb;fill-opacity:1;fill-rule:nonzero;stroke:none"
         id="path20" /><path
         d="M 6307.87,6712.43 H 9290.25 V 7813.16 H 6386.46 l -78.59,-1100.73"
         style="fill:#5c8ebb;fill-opacity:1;fill-rule:nonzero;stroke:none"
         id="path22" /><path
         d="m 3020.14,6712.43 527.75,1100.73 H 208.34 L 409.148,6712.43 H 3020.14"
         style="fill:#5c8ebb;fill-opacity:1;fill-rule:nonzero;stroke:none"
         id="path24" /><path
         d="M 96.5234,7813.16 H 0 V 6712.43 H 297.336 L 96.5234,7813.16"
         style="fill:#5c8ebb;fill-opacity:1;fill-rule:nonzero;stroke:none"
         id="path26" /><path
         d="M 3669.88,7813.16 3203,6839.38 v 0 l -60.87,-126.95 h 3055.46 l 78.59,1100.73 h -2606.3"
         style="fill:#5c8ebb;fill-opacity:1;fill-rule:nonzero;stroke:none"
         id="path28" /><path
         d="M 9400.25,7778.54 V 6712.43 H 11000 V 7813.16 H 9400.25 v -34.62"
         style="fill:#5c8ebb;fill-opacity:1;fill-rule:nonzero;stroke:none"
         id="path30" /><path
         d="M 7941.46,658.801 H 11000 V 1759.49 H 7941.46 V 658.801"
         style="fill:#5c8ebb;fill-opacity:1;fill-rule:nonzero;stroke:none"
         id="path32" /><path
         d="M 1505,4180.97 H 0 V 3080.22 h 1505 v 1100.75"
         style="fill:#5c8ebb;fill-opacity:1;fill-rule:nonzero;stroke:none"
         id="path34" /><path
         d="M 4187.34,550.402 H 1202.76 V 0 h 3084.99 l -100.41,550.402"
         style="fill:#5c8ebb;fill-opacity:1;fill-rule:nonzero;stroke:none"
         id="path36" /><path
         d="M 1092.76,550.402 H 0 V 0 h 1092.76 v 550.402"
         style="fill:#5c8ebb;fill-opacity:1;fill-rule:nonzero;stroke:none"
         id="path38" /><path
         d="M 8537.17,550.402 H 4299.16 L 4399.57,0 H 8314.2 l 222.97,550.402"
         style="fill:#5c8ebb;fill-opacity:1;fill-rule:nonzero;stroke:none"
         id="path40" /><path
         d="M 9755,550.402 H 8655.85 L 8432.89,0 H 9755 v 550.402"
         style="fill:#5c8ebb;fill-opacity:1;fill-rule:nonzero;stroke:none"
         id="path42" /><path
         d="m 9865,0 h 1135 V 550.402 H 9865 V 0"
         style="fill:#5c8ebb;fill-opacity:1;fill-rule:nonzero;stroke:none"
         id="path44" /><path
         d="M 9158.18,5391.7 H 6552.88 L 6106.95,4290.97 H 9463.77 L 9158.18,5391.7"
         style="fill:#5c8ebb;fill-opacity:1;fill-rule:nonzero;stroke:none"
         id="path46" /><path
         d="M 9577.93,4290.97 H 11000 V 5391.7 H 9272.35 l 305.58,-1100.73"
         style="fill:#5c8ebb;fill-opacity:1;fill-rule:nonzero;stroke:none"
         id="path48" /><path
         d="m 5990.14,4290.97 -1.61,0.65 445.67,1100.08 H 2009.7 l 200.8,-1100.73 h 3779.64"
         style="fill:#5c8ebb;fill-opacity:1;fill-rule:nonzero;stroke:none"
         id="path50" /><path
         d="M 1897.88,5391.7 H 0 V 4290.97 H 2098.69 L 1897.88,5391.7"
         style="fill:#5c8ebb;fill-opacity:1;fill-rule:nonzero;stroke:none"
         id="path52" /><path
         d="M 10513.7,4180.97 H 7941.46 V 3080.22 h 2572.24 v 1100.75"
         style="fill:#5c8ebb;fill-opacity:1;fill-rule:nonzero;stroke:none"
         id="path54" /><path
         d="M 4418.81,3080.22 H 7831.46 V 4180.97 H 4946.56 L 4418.81,3080.22"
         style="fill:#5c8ebb;fill-opacity:1;fill-rule:nonzero;stroke:none"
         id="path56" /><path
         d="M 3782.58,1869.49 H 6735 V 2970.22 H 3546.85 l 235.73,-1100.73"
         style="fill:#5c8ebb;fill-opacity:1;fill-rule:nonzero;stroke:none"
         id="path58" /><path
         d="M 6845,2970.22 V 1869.49 h 2706.13 l 419.08,1100.73 H 6845"
         style="fill:#5c8ebb;fill-opacity:1;fill-rule:nonzero;stroke:none"
         id="path60" /><path
         d="M 3434.36,2970.22 H 545 V 1869.49 h 3125.09 l -235.73,1100.73"
         style="fill:#5c8ebb;fill-opacity:1;fill-rule:nonzero;stroke:none"
         id="path62" /><path
         d="M 435,2970.22 H 0 V 1869.49 h 435 v 1100.73"
         style="fill:#5c8ebb;fill-opacity:1;fill-rule:nonzero;stroke:none"
         id="path64" /><path
         d="M 9668.82,1869.49 H 11000 v 1100.73 h -912.1 L 9668.82,1869.49"
         style="fill:#5c8ebb;fill-opacity:1;fill-rule:nonzero;stroke:none"
         id="path66" /><path
         d="M 7470.51,5501.7 H 10023.7 V 6602.43 H 7780.08 L 7470.51,5501.7"
         style="fill:#5c8ebb;fill-opacity:1;fill-rule:nonzero;stroke:none"
         id="path68" /><path
         d="m 4028.34,5771.7 v 830.73 H 775 V 5501.7 h 3253.34 v 270"
         style="fill:#5c8ebb;fill-opacity:1;fill-rule:nonzero;stroke:none"
         id="path70" /><path
         d="M 4138.34,5501.7 H 7356.23 L 7665.8,6602.43 H 4138.34 V 5501.7"
         style="fill:#5c8ebb;fill-opacity:1;fill-rule:nonzero;stroke:none"
         id="path72" /><path
         d="M 665,6602.43 H 0 V 5501.7 h 665 v 1100.73"
         style="fill:#5c8ebb;fill-opacity:1;fill-rule:nonzero;stroke:none"
         id="path74" /><path
         d="m 10133.7,5501.7 h 866.3 v 1100.73 h -866.3 V 5501.7"
         style="fill:#5c8ebb;fill-opacity:1;fill-rule:nonzero;stroke:none"
         id="path76" /><path
         d="M 4339.12,9023.9 H 692.578 V 7923.16 H 4029.55 l 309.57,1100.74"
         style="fill:#5c8ebb;fill-opacity:1;fill-rule:nonzero;stroke:none"
         id="path78" /><path
         d="M 7187.93,9023.9 V 7923.17 H 9792.7 L 9556.95,9023.9 H 7187.93"
         style="fill:#5c8ebb;fill-opacity:1;fill-rule:nonzero;stroke:none"
         id="path80" /><path
         d="M 4143.81,7923.16 H 7077.93 V 9023.9 H 4453.38 L 4143.81,7923.16"
         style="fill:#5c8ebb;fill-opacity:1;fill-rule:nonzero;stroke:none"
         id="path82" /><path
         d="M 582.578,9023.9 H 0 V 7923.16 H 582.578 V 9023.9"
         style="fill:#5c8ebb;fill-opacity:1;fill-rule:nonzero;stroke:none"
         id="path84" /><path
         d="M 9905.19,7923.16 H 11000 V 9023.9 H 9669.45 l 235.74,-1100.74"
         style="fill:#5c8ebb;fill-opacity:1;fill-rule:nonzero;stroke:none"
         id="path86" /><path
         d="M 5211.43,10234.6 H 2016.06 l 235.75,-1100.7 h 2959.62 v 1100.7"
         style="fill:#5c8ebb;fill-opacity:1;fill-rule:nonzero;stroke:none"
         id="path88" /><path
         d="m 7784.77,9133.9 h 2728.93 v 1100.7 H 7583.96 l 200.81,-1100.7"
         style="fill:#5c8ebb;fill-opacity:1;fill-rule:nonzero;stroke:none"
         id="path90" /><path
         d="m 10623.7,9133.9 h 376.3 v 1100.7 h -376.3 V 9133.9"
         style="fill:#5c8ebb;fill-opacity:1;fill-rule:nonzero;stroke:none"
         id="path92" /><path
         d="M 1903.57,10234.6 H 0 V 9133.9 h 2139.31 l -235.74,1100.7"
         style="fill:#5c8ebb;fill-opacity:1;fill-rule:nonzero;stroke:none"
         id="path94" /><path
         d="m 5321.43,9133.9 h 2351.51 l -200.81,1100.7 H 5321.43 V 9133.9"
         style="fill:#5c8ebb;fill-opacity:1;fill-rule:nonzero;stroke:none"
         id="path96" /><path
         d="M 8209.92,10344.6 H 9755 V 10895 H 8432.89 l -222.97,-550.4"
         style="fill:#5c8ebb;fill-opacity:1;fill-rule:nonzero;stroke:none"
         id="path98" /><path
         d="m 8432.89,10895 -222.97,-550.4 h 100 l 222.97,550.4 h -100"
         style="fill:#4676b7;fill-opacity:1;fill-rule:nonzero;stroke:none"
         id="path100" /><path
         d="m 1202.76,10344.6 h 3185.4 L 4287.75,10895 H 1202.76 v -550.4"
         style="fill:#5c8ebb;fill-opacity:1;fill-rule:nonzero;stroke:none"
         id="path102" /><path
         d="M 4499.98,10344.6 H 8091.23 L 8314.2,10895 H 4399.57 l 100.41,-550.4"
         style="fill:#5c8ebb;fill-opacity:1;fill-rule:nonzero;stroke:none"
         id="path104" /><path
         d="m 4399.57,10895 100.41,-550.4 h 120 l -100.41,550.4 h -120"
         style="fill:#4676b7;fill-opacity:1;fill-rule:nonzero;stroke:none"
         id="path106" /><path
         d="M 1092.76,10895 H 0 v -550.4 h 1092.76 v 550.4"
         style="fill:#5c8ebb;fill-opacity:1;fill-rule:nonzero;stroke:none"
         id="path108" /><path
         d="m 9865,10895 v -550.4 h 1135 V 10895 H 9865"
         style="fill:#5c8ebb;fill-opacity:1;fill-rule:nonzero;stroke:none"
         id="path110" /><path
         d="M 4817.38,1759.49 H 1978.12 L 1668.56,658.801 h 3070.23 l 78.59,1100.689"
         style="fill:#5c8ebb;fill-opacity:1;fill-rule:nonzero;stroke:none"
         id="path112" /><path
         d="M 11000,6464.84 H 0 v 137.59 h 11000 v -137.59"
         style="fill:#8bb4e0;fill-opacity:1;fill-rule:nonzero;stroke:none"
         id="path114" /><path
         d="M 11000,412.801 H 0 V 550.402 H 11000 V 412.801"
         style="fill:#8bb4e0;fill-opacity:1;fill-rule:nonzero;stroke:none"
         id="path116" /><path
         d="M 11000,1621.9 H 0 v 137.59 H 11000 V 1621.9"
         style="fill:#8bb4e0;fill-opacity:1;fill-rule:nonzero;stroke:none"
         id="path118" /><path
         d="M 11000,4043.38 H 0 v 137.59 h 11000 v -137.59"
         style="fill:#8bb4e0;fill-opacity:1;fill-rule:nonzero;stroke:none"
         id="path120" /><path
         d="M 11000,5254.11 H 0 v 137.59 h 11000 v -137.59"
         style="fill:#8bb4e0;fill-opacity:1;fill-rule:nonzero;stroke:none"
         id="path122" /><path
         d="M 11000,4290.97 H 0 v 99.49 h 11000 v -99.49"
         style="fill:#4676b7;fill-opacity:1;fill-rule:nonzero;stroke:none"
         id="path124" /><path
         d="M 11000,3080.22 H 0 v 99.5 h 11000 v -99.5"
         style="fill:#4676b7;fill-opacity:1;fill-rule:nonzero;stroke:none"
         id="path126" /><path
         d="M 11000,1869.49 H 0 v 99.49 h 11000 v -99.49"
         style="fill:#4676b7;fill-opacity:1;fill-rule:nonzero;stroke:none"
         id="path128" /><path
         d="M 11000,658.801 H 0 v 99.5 h 11000 v -99.5"
         style="fill:#4676b7;fill-opacity:1;fill-rule:nonzero;stroke:none"
         id="path130" /><path
         d="M 11000,5501.7 H 0 v 99.49 h 11000 v -99.49"
         style="fill:#4676b7;fill-opacity:1;fill-rule:nonzero;stroke:none"
         id="path132" /><path
         d="M 11000,6712.43 H 0 v 99.49 h 11000 v -99.49"
         style="fill:#4676b7;fill-opacity:1;fill-rule:nonzero;stroke:none"
         id="path134" /><path
         d="M 11000,7923.16 H 0 v 99.5 h 11000 v -99.5"
         style="fill:#4676b7;fill-opacity:1;fill-rule:nonzero;stroke:none"
         id="path136" /><path
         d="M 11000,9133.9 H 0 v 99.49 h 11000 v -99.49"
         style="fill:#4676b7;fill-opacity:1;fill-rule:nonzero;stroke:none"
         id="path138" /><path
         d="M 11000,10344.6 H 0 v 99.5 h 11000 v -99.5"
         style="fill:#4676b7;fill-opacity:1;fill-rule:nonzero;stroke:none"
         id="path140" /><path
         d="M 11000,7675.58 H 0 v 137.58 h 11000 v -137.58"
         style="fill:#8bb4e0;fill-opacity:1;fill-rule:nonzero;stroke:none"
         id="path142" /><path
         d="M 11000,8886.31 H 0 v 137.59 h 11000 v -137.59"
         style="fill:#8bb4e0;fill-opacity:1;fill-rule:nonzero;stroke:none"
         id="path144" /><path
         d="M 11000,10097.1 H 0 v 137.5 h 11000 v -137.5"
         style="fill:#8bb4e0;fill-opacity:1;fill-rule:nonzero;stroke:none"
         id="path146" /><path
         d="M 11000,2832.64 H 0 v 137.58 h 11000 v -137.58"
         style="fill:#8bb4e0;fill-opacity:1;fill-rule:nonzero;stroke:none"
         id="path148" /><path
         d="M 6919.45,2970.22 H 6845 V 1869.49 h 132.15 l -57.7,1100.73"
         style="fill:#4676b7;fill-opacity:1;fill-rule:nonzero;stroke:none"
         id="path150" /><path
         d="m 8015.91,1759.49 h -74.45 V 658.801 h 132.14 l -57.69,1100.689"
         style="fill:#4676b7;fill-opacity:1;fill-rule:nonzero;stroke:none"
         id="path152" /><path
         d="m 9668.82,1869.49 h 102.61 l 321.27,1096.15 -14.7,-21.49 -409.18,-1074.66"
         style="fill:#4676b7;fill-opacity:1;fill-rule:nonzero;stroke:none"
         id="path154" /><path
         d="m 10685,4180.97 h -61.3 V 3080.22 h 117.8 l -56.5,1100.75"
         style="fill:#4676b7;fill-opacity:1;fill-rule:nonzero;stroke:none"
         id="path156" /><path
         d="m 10195,6602.43 h -61.3 V 5501.68 h 117.8 l -56.5,1100.75"
         style="fill:#4676b7;fill-opacity:1;fill-rule:nonzero;stroke:none"
         id="path158" /><path
         d="m 4199.61,6602.43 h -61.27 V 5501.68 h 117.79 l -56.52,1100.75"
         style="fill:#4676b7;fill-opacity:1;fill-rule:nonzero;stroke:none"
         id="path160" /><path
         d="m 9461.52,7813.18 h -61.27 V 6712.43 h 117.8 l -56.53,1100.75"
         style="fill:#4676b7;fill-opacity:1;fill-rule:nonzero;stroke:none"
         id="path162" /><path
         d="m 7249.2,9023.9 h -61.27 V 7923.15 h 117.79 L 7249.2,9023.9"
         style="fill:#4676b7;fill-opacity:1;fill-rule:nonzero;stroke:none"
         id="path164" /><path
         d="m 753.848,9023.9 h -61.27 V 7923.15 H 810.371 L 753.848,9023.9"
         style="fill:#4676b7;fill-opacity:1;fill-rule:nonzero;stroke:none"
         id="path166" /><path
         d="m 5382.7,10234.6 h -61.27 V 9133.9 h 117.79 l -56.52,1100.7"
         style="fill:#4676b7;fill-opacity:1;fill-rule:nonzero;stroke:none"
         id="path168" /><path
         d="m 10685,10234.6 h -61.3 V 9133.9 h 117.8 l -56.5,1100.7"
         style="fill:#4676b7;fill-opacity:1;fill-rule:nonzero;stroke:none"
         id="path170" /><path
         d="M 836.27,6602.43 H 775 V 5501.68 H 892.793 L 836.27,6602.43"
         style="fill:#4676b7;fill-opacity:1;fill-rule:nonzero;stroke:none"
         id="path172" /><path
         d="m 8002.72,4180.97 h -61.26 V 3080.22 h 117.79 l -56.53,1100.75"
         style="fill:#4676b7;fill-opacity:1;fill-rule:nonzero;stroke:none"
         id="path174" /><path
         d="M 1676.27,4180.97 H 1615 V 3080.22 h 117.79 l -56.52,1100.75"
         style="fill:#4676b7;fill-opacity:1;fill-rule:nonzero;stroke:none"
         id="path176" /><path
         d="M 606.27,2970.23 H 545 V 1869.49 H 662.793 L 606.27,2970.23"
         style="fill:#4676b7;fill-opacity:1;fill-rule:nonzero;stroke:none"
         id="path178" /><path
         d="m 9577.93,4290.97 h 138.6 L 9344.08,5391.7 h -71.73 l 305.58,-1100.73"
         style="fill:#4676b7;fill-opacity:1;fill-rule:nonzero;stroke:none"
         id="path180" /><path
         d="m 6613.09,5391.7 h -60.21 L 6106.95,4290.97 h 111.64 l 394.5,1100.73"
         style="fill:#4676b7;fill-opacity:1;fill-rule:nonzero;stroke:none"
         id="path182" /><path
         d="m 2210.5,4290.97 h 152.54 L 2077.85,5391.7 h -68.15 l 200.8,-1100.73"
         style="fill:#4676b7;fill-opacity:1;fill-rule:nonzero;stroke:none"
         id="path184" /><path
         d="m 4549.57,3080.22 407.87,1100.75 h -10.88 L 4418.81,3080.22 h 130.76"
         style="fill:#4676b7;fill-opacity:1;fill-rule:nonzero;stroke:none"
         id="path186" /><path
         d="m 4938.18,658.801 43.07,1100.689 h -53.58 L 4849.06,658.801 h 89.12"
         style="fill:#4676b7;fill-opacity:1;fill-rule:nonzero;stroke:none"
         id="path188" /><path
         d="m 1285.84,0 h -83.08 v 550.402 h 83.08 V 0"
         style="fill:#4676b7;fill-opacity:1;fill-rule:nonzero;stroke:none"
         id="path190" /><path
         d="m 1285.84,10344.6 h -83.08 v 550.4 h 83.08 v -550.4"
         style="fill:#4676b7;fill-opacity:1;fill-rule:nonzero;stroke:none"
         id="path192" /><path
         d="M 8655.85,550.402 8432.89,0 h 100 l 222.96,550.402 h -100"
         style="fill:#4676b7;fill-opacity:1;fill-rule:nonzero;stroke:none"
         id="path194" /><path
         d="M 9951.02,550.402 H 9865 V 0 h 86.02 v 550.402"
         style="fill:#4676b7;fill-opacity:1;fill-rule:nonzero;stroke:none"
         id="path196" /><path
         d="M 9951.02,10895 H 9865 v -550.4 h 86.02 v 550.4"
         style="fill:#4676b7;fill-opacity:1;fill-rule:nonzero;stroke:none"
         id="path198" /><path
         d="m 3782.58,1869.49 h 127.56 l -318.35,1100.73 h -44.94 l 235.73,-1100.73"
         style="fill:#4676b7;fill-opacity:1;fill-rule:nonzero;stroke:none"
         id="path200" /><path
         d="m 7470.51,5501.7 h 101.97 l 305.68,1100.73 h -98.08 L 7470.51,5501.7"
         style="fill:#4676b7;fill-opacity:1;fill-rule:nonzero;stroke:none"
         id="path202" /><path
         d="m 6462.17,7813.16 h -75.71 l -78.59,-1100.73 h 91.68 l 62.62,1100.73"
         style="fill:#4676b7;fill-opacity:1;fill-rule:nonzero;stroke:none"
         id="path204" /><path
         d="m 3736.64,7813.16 h -66.76 L 3203,6839.38 3142.13,6712.43 h 125.41 l 469.1,1100.73"
         style="fill:#4676b7;fill-opacity:1;fill-rule:nonzero;stroke:none"
         id="path206" /><path
         d="M 409.148,6712.43 H 520.461 L 274.316,7813.16 H 208.34 L 409.148,6712.43"
         style="fill:#4676b7;fill-opacity:1;fill-rule:nonzero;stroke:none"
         id="path208" /><path
         d="m 2251.81,9133.9 h 92.51 l -285.59,1100.7 h -42.67 l 235.75,-1100.7"
         style="fill:#4676b7;fill-opacity:1;fill-rule:nonzero;stroke:none"
         id="path210" /><path
         d="m 7665.8,10234.6 h -81.84 l 200.81,-1100.7 h 114.73 l -233.7,1100.7"
         style="fill:#4676b7;fill-opacity:1;fill-rule:nonzero;stroke:none"
         id="path212" /><path
         d="m 9755.96,9023.9 h -86.51 l 235.74,-1100.74 h 59.87 l -209.1,1100.74"
         style="fill:#4676b7;fill-opacity:1;fill-rule:nonzero;stroke:none"
         id="path214" /><path
         d="m 4252.99,7923.16 233.49,1100.74 h -33.1 L 4143.81,7923.16 h 109.18"
         style="fill:#4676b7;fill-opacity:1;fill-rule:nonzero;stroke:none"
         id="path216" /><path
         d="m 1668.56,658.801 h 124.37 l 250.61,1100.689 h -65.42 L 1668.56,658.801"
         style="fill:#4676b7;fill-opacity:1;fill-rule:nonzero;stroke:none"
         id="path218" /><path
         d="M 4299.16,550.402 4399.57,0 h 120 l -100.41,550.402 h -120"
         style="fill:#4676b7;fill-opacity:1;fill-rule:nonzero;stroke:none"
         id="path220" /><path
         d="m 10513.7,9353.9 v -220 H 7784.77 l -40.14,220 -160.67,880.7 h 2929.74 z m -763.84,-1230.74 42.84,-200 H 7187.93 V 9023.9 H 9556.95 Z M 10023.7,6602.43 V 5501.7 H 7470.51 l 309.57,1100.73 z m -629.33,-2061.46 69.4,-250 H 6106.95 l 101.28,250 344.65,850.73 h 2605.3 z m 137.62,-360 h 981.71 V 3080.22 H 7941.46 v 240 860.75 h 1552.85 z m 19.14,-2311.48 H 6845 V 2970.22 H 9970.21 Z M 4849.06,658.801 4927.67,1759.49 H 7831.46 V 658.801 Z m -3124.26,200 253.32,900.689 h 2839.26 l -64.31,-900.689 -14.28,-200 H 1668.56 Z M 545,1869.49 v 1100.73 h 2889.36 l 188.61,-880.73 47.12,-220 z m 1070,1450.73 v 860.75 h 3209.57 l -412.69,-860.75 -113.25,-236.21 7.9,-3.79 H 1615 Z m 5120,-350 V 1869.49 H 3782.58 l -235.73,1100.73 z m -2316.19,110 115.06,240 412.69,860.75 h 2884.9 v -860.75 -240 z M 2009.7,5391.7 h 4424.5 l -445.67,-1100.08 1.61,-0.65 H 4887.01 l -7.89,3.78 -1.81,-3.78 H 2210.5 l -45.61,250 z M 775,5501.7 V 6602.43 H 4028.34 V 5501.7 Z M 409.148,6712.43 208.34,7813.16 h 3339.55 l -427.07,-890.73 -100.68,-210 z m 283.43,1410.73 V 9023.9 H 4339.12 l -253.32,-900.74 -56.25,-200 H 692.578 Z M 2016.06,10234.6 h 2392.16 l 0.9,-4.8 26.7,4.8 h 775.61 v -880.7 -220 H 2251.81 Z M 7077.93,8123.16 v -200 H 4143.81 l 309.57,1100.74 h 2624.55 z m -770.06,-1410.73 14.99,210 63.6,890.73 h 2903.79 v -890.73 -210 z m -3165.74,0 527.75,1100.73 h 2606.3 l -78.59,-1100.73 z m 996.21,-940.73 v 830.73 H 7665.8 l -233.63,-830.73 -75.94,-270 h -875.6 l -1.61,0.65 -0.26,-0.65 H 4138.34 Z m 1183.09,3582.2 v 880.7 h 2150.7 L 7672.94,9133.9 H 5321.43 Z m 5302.27,880.7 h 376.3 v 110 H 9865 v 188.4 362 h -110 v -362 -188.4 H 8209.92 l 76.32,188.4 146.65,362 H 8314.2 l -146.65,-362 -76.32,-188.4 H 4499.98 l -34.37,188.4 -66.04,362 h -111.82 l 100.41,-550.4 h -3185.4 v 188.4 362 h -110 v -362 -188.4 H 0 v -110 h 1903.57 l 188.63,-880.7 47.11,-220 H 0 v -110 h 582.578 v -900.74 -200 H 0 v -110 h 96.5234 l 162.4996,-890.73 38.313,-210 H 0 v -110 h 665 v -830.73 -270 H 0 v -110 H 1897.88 L 2098.69,4290.97 H 0 v -110 h 1505 v -860.75 -240 H 0 v -110 h 435 v -880.73 -220 H 0 v -110 H 1863.86 L 1554.29,658.801 H 0 v -105 -3.399 H 1092.76 V 0 h 110 V 550.402 H 4187.34 L 4287.75,0 h 111.82 L 4299.16,550.402 H 8537.17 L 8314.2,0 h 118.69 l 222.96,550.402 H 9755 V 0 h 110 v 550.402 h 1135 v 3.399 105 H 7941.46 v 200 900.689 H 11000 v 110 H 9668.82 l 83.76,220 335.32,880.73 h 912.1 v 110 h -376.3 v 240 860.75 h 376.3 v 110 H 9577.93 l -69.4,250 -236.18,850.73 H 11000 v 110 h -866.3 v 270 830.73 h 866.3 v 110 H 9400.25 v 210 890.73 H 11000 v 110 H 9905.19 l -42.84,200 -192.9,900.74 H 11000 v 110 h -376.3 v 220 880.7"
         style="fill:#335285;fill-opacity:1;fill-rule:nonzero;stroke:none"
         id="path222" /><path
         d="m 6664.27,7496.64 c 0,-38.22 -30.99,-69.22 -69.21,-69.22 -38.23,0 -69.22,31 -69.22,69.22 0,38.22 30.99,69.22 69.22,69.22 38.22,0 69.21,-31 69.21,-69.22"
         style="fill:#335285;fill-opacity:1;fill-rule:nonzero;stroke:none"
         id="path224" /><path
         d="m 6664.27,6926.64 c 0,-38.22 -30.99,-69.22 -69.21,-69.22 -38.23,0 -69.22,31 -69.22,69.22 0,38.22 30.99,69.22 69.22,69.22 38.22,0 69.21,-31 69.21,-69.22"
         style="fill:#335285;fill-opacity:1;fill-rule:nonzero;stroke:none"
         id="path226" /><path
         d="m 10326.5,7496.63 c 0,-38.22 -31,-69.22 -69.2,-69.22 -38.3,0 -69.3,31 -69.3,69.22 0,38.22 31,69.22 69.3,69.22 38.2,0 69.2,-31 69.2,-69.22"
         style="fill:#335285;fill-opacity:1;fill-rule:nonzero;stroke:none"
         id="path228" /><path
         d="m 10326.5,6926.64 c 0,-38.22 -31,-69.22 -69.2,-69.22 -38.3,0 -69.3,31 -69.3,69.22 0,38.22 31,69.22 69.3,69.22 38.2,0 69.2,-31 69.2,-69.22"
         style="fill:#335285;fill-opacity:1;fill-rule:nonzero;stroke:none"
         id="path230" /><path
         d="m 10786.5,8766.64 c 0,-38.22 -31,-69.22 -69.2,-69.22 -38.3,0 -69.3,31 -69.3,69.22 0,38.22 31,69.22 69.3,69.22 38.2,0 69.2,-31 69.2,-69.22"
         style="fill:#335285;fill-opacity:1;fill-rule:nonzero;stroke:none"
         id="path232" /><path
         d="m 10786.5,8196.64 c 0,-38.22 -31,-69.22 -69.2,-69.22 -38.3,0 -69.3,31 -69.3,69.22 0,38.22 31,69.22 69.3,69.22 38.2,0 69.2,-31 69.2,-69.22"
         style="fill:#335285;fill-opacity:1;fill-rule:nonzero;stroke:none"
         id="path234" /><path
         d="m 9094.27,6926.64 c 0,-38.22 -30.99,-69.22 -69.21,-69.22 -38.23,0 -69.22,31 -69.22,69.22 0,38.22 30.99,69.22 69.22,69.22 38.22,0 69.21,-31 69.21,-69.22"
         style="fill:#335285;fill-opacity:1;fill-rule:nonzero;stroke:none"
         id="path236" /><path
         d="m 10921.3,9975.78 c 0,-38.22 -31,-69.21 -69.2,-69.21 -38.3,0 -69.2,30.99 -69.2,69.21 0,38.22 30.9,69.22 69.2,69.22 38.2,0 69.2,-31 69.2,-69.22"
         style="fill:#335285;fill-opacity:1;fill-rule:nonzero;stroke:none"
         id="path238" /><path
         d="m 10921.3,9405.78 c 0,-38.22 -31,-69.21 -69.2,-69.21 -38.3,0 -69.2,30.99 -69.2,69.21 0,38.23 30.9,69.22 69.2,69.22 38.2,0 69.2,-30.99 69.2,-69.22"
         style="fill:#335285;fill-opacity:1;fill-rule:nonzero;stroke:none"
         id="path240" /><path
         d="m 10361.3,9975.78 c 0,-38.22 -31,-69.21 -69.2,-69.21 -38.3,0 -69.2,30.99 -69.2,69.21 0,38.22 30.9,69.22 69.2,69.22 38.2,0 69.2,-31 69.2,-69.22"
         style="fill:#335285;fill-opacity:1;fill-rule:nonzero;stroke:none"
         id="path242" /><path
         d="m 8061.28,9975.78 c 0,-38.22 -30.99,-69.21 -69.21,-69.21 -38.23,0 -69.22,30.99 -69.22,69.21 0,38.22 30.99,69.22 69.22,69.22 38.22,0 69.21,-31 69.21,-69.22"
         style="fill:#335285;fill-opacity:1;fill-rule:nonzero;stroke:none"
         id="path244" /><path
         d="m 10361.3,9405.78 c 0,-38.22 -31,-69.21 -69.2,-69.21 -38.3,0 -69.2,30.99 -69.2,69.21 0,38.23 30.9,69.22 69.2,69.22 38.2,0 69.2,-30.99 69.2,-69.22"
         style="fill:#335285;fill-opacity:1;fill-rule:nonzero;stroke:none"
         id="path246" /><path
         d="m 9617.94,9405.78 c 0,-38.22 -30.99,-69.2 -69.21,-69.2 -38.22,0 -69.22,30.98 -69.22,69.2 0,38.23 31,69.22 69.22,69.22 38.22,0 69.21,-30.99 69.21,-69.22"
         style="fill:#335285;fill-opacity:1;fill-rule:nonzero;stroke:none"
         id="path248" /><path
         d="m 8874.61,9405.78 c 0,-38.22 -30.99,-69.21 -69.2,-69.21 -38.24,0 -69.23,30.99 -69.23,69.21 0,38.23 30.99,69.22 69.23,69.22 38.21,0 69.2,-30.99 69.2,-69.22"
         style="fill:#335285;fill-opacity:1;fill-rule:nonzero;stroke:none"
         id="path250" /><path
         d="m 8131.28,9405.78 c 0,-38.22 -30.99,-69.21 -69.21,-69.21 -38.23,0 -69.22,30.99 -69.22,69.21 0,38.23 30.99,69.22 69.22,69.22 38.22,0 69.21,-30.99 69.21,-69.22"
         style="fill:#335285;fill-opacity:1;fill-rule:nonzero;stroke:none"
         id="path252" /><path
         d="m 7291.28,9975.78 c 0,-38.22 -30.99,-69.21 -69.21,-69.21 -38.23,0 -69.22,30.99 -69.22,69.21 0,38.22 30.99,69.22 69.22,69.22 38.22,0 69.21,-31 69.21,-69.22"
         style="fill:#335285;fill-opacity:1;fill-rule:nonzero;stroke:none"
         id="path254" /><path
         d="m 5771.28,9975.78 c 0,-38.22 -30.99,-69.21 -69.21,-69.21 -38.23,0 -69.22,30.99 -69.22,69.21 0,38.22 30.99,69.22 69.22,69.22 38.22,0 69.21,-31 69.21,-69.22"
         style="fill:#335285;fill-opacity:1;fill-rule:nonzero;stroke:none"
         id="path256" /><path
         d="m 7371.28,9405.78 c 0,-38.22 -30.99,-69.21 -69.21,-69.21 -38.23,0 -69.22,30.99 -69.22,69.21 0,38.23 30.99,69.22 69.22,69.22 38.22,0 69.21,-30.99 69.21,-69.22"
         style="fill:#335285;fill-opacity:1;fill-rule:nonzero;stroke:none"
         id="path258" /><path
         d="m 6571.28,9405.78 c 0,-38.22 -30.99,-69.21 -69.21,-69.21 -38.23,0 -69.22,30.99 -69.22,69.21 0,38.23 30.99,69.22 69.22,69.22 38.22,0 69.21,-30.99 69.21,-69.22"
         style="fill:#335285;fill-opacity:1;fill-rule:nonzero;stroke:none"
         id="path260" /><path
         d="m 6571.28,9975.78 c 0,-38.22 -30.99,-69.21 -69.21,-69.21 -38.23,0 -69.22,30.99 -69.22,69.21 0,38.22 30.99,69.22 69.22,69.22 38.22,0 69.21,-31 69.21,-69.22"
         style="fill:#335285;fill-opacity:1;fill-rule:nonzero;stroke:none"
         id="path262" /><path
         d="m 5771.28,9405.78 c 0,-38.22 -30.99,-69.21 -69.21,-69.21 -38.23,0 -69.22,30.99 -69.22,69.21 0,38.23 30.99,69.22 69.22,69.22 38.22,0 69.21,-30.99 69.21,-69.22"
         style="fill:#335285;fill-opacity:1;fill-rule:nonzero;stroke:none"
         id="path264" /><path
         d="m 4941.28,9405.78 c 0,-38.22 -30.99,-69.21 -69.21,-69.21 -38.23,0 -69.22,30.99 -69.22,69.21 0,38.23 30.99,69.22 69.22,69.22 38.22,0 69.21,-30.99 69.21,-69.22"
         style="fill:#335285;fill-opacity:1;fill-rule:nonzero;stroke:none"
         id="path266" /><path
         d="m 3321.28,8766.64 c 0,-38.22 -30.99,-69.21 -69.21,-69.21 -38.23,0 -69.22,30.99 -69.22,69.21 0,38.23 30.99,69.22 69.22,69.22 38.22,0 69.21,-30.99 69.21,-69.22"
         style="fill:#335285;fill-opacity:1;fill-rule:nonzero;stroke:none"
         id="path268" /><path
         d="m 2511.28,8766.64 c 0,-38.23 -30.99,-69.21 -69.21,-69.21 -38.24,0 -69.22,30.98 -69.22,69.21 0,38.23 30.98,69.22 69.22,69.22 38.22,0 69.21,-30.99 69.21,-69.22"
         style="fill:#335285;fill-opacity:1;fill-rule:nonzero;stroke:none"
         id="path270" /><path
         d="m 6191.28,8766.64 c 0,-38.22 -30.99,-69.21 -69.21,-69.21 -38.23,0 -69.22,30.99 -69.22,69.21 0,38.23 30.99,69.22 69.22,69.22 38.22,0 69.21,-30.99 69.21,-69.22"
         style="fill:#335285;fill-opacity:1;fill-rule:nonzero;stroke:none"
         id="path272" /><path
         d="m 5381.28,8766.64 c 0,-38.23 -30.99,-69.21 -69.21,-69.21 -38.24,0 -69.22,30.98 -69.22,69.21 0,38.23 30.98,69.22 69.22,69.22 38.22,0 69.21,-30.99 69.21,-69.22"
         style="fill:#335285;fill-opacity:1;fill-rule:nonzero;stroke:none"
         id="path274" /><path
         d="m 6191.28,8196.63 c 0,-38.22 -30.99,-69.21 -69.21,-69.21 -38.23,0 -69.22,30.99 -69.22,69.21 0,38.23 30.99,69.22 69.22,69.22 38.22,0 69.21,-30.99 69.21,-69.22"
         style="fill:#335285;fill-opacity:1;fill-rule:nonzero;stroke:none"
         id="path276" /><path
         d="m 5381.28,8196.63 c 0,-38.23 -30.99,-69.21 -69.21,-69.21 -38.24,0 -69.22,30.98 -69.22,69.21 0,38.23 30.98,69.22 69.22,69.22 38.22,0 69.21,-30.99 69.21,-69.22"
         style="fill:#335285;fill-opacity:1;fill-rule:nonzero;stroke:none"
         id="path278" /><path
         d="m 5338.48,7536.63 c 0,-38.22 -30.98,-69.21 -69.2,-69.21 -38.24,0 -69.22,30.99 -69.22,69.21 0,38.23 30.98,69.22 69.22,69.22 38.22,0 69.2,-30.99 69.2,-69.22"
         style="fill:#335285;fill-opacity:1;fill-rule:nonzero;stroke:none"
         id="path280" /><path
         d="m 4528.48,7536.63 c 0,-38.23 -30.98,-69.21 -69.21,-69.21 -38.23,0 -69.21,30.98 -69.21,69.21 0,38.23 30.98,69.22 69.21,69.22 38.23,0 69.21,-30.99 69.21,-69.22"
         style="fill:#335285;fill-opacity:1;fill-rule:nonzero;stroke:none"
         id="path282" /><path
         d="m 5338.48,6966.63 c 0,-38.22 -30.98,-69.21 -69.2,-69.21 -38.24,0 -69.22,30.99 -69.22,69.21 0,38.23 30.98,69.22 69.22,69.22 38.22,0 69.2,-30.99 69.2,-69.22"
         style="fill:#335285;fill-opacity:1;fill-rule:nonzero;stroke:none"
         id="path284" /><path
         d="m 4528.48,6966.63 c 0,-38.23 -30.98,-69.21 -69.21,-69.21 -38.23,0 -69.21,30.98 -69.21,69.21 0,38.23 30.98,69.22 69.21,69.22 38.23,0 69.21,-30.99 69.21,-69.22"
         style="fill:#335285;fill-opacity:1;fill-rule:nonzero;stroke:none"
         id="path286" /><path
         d="m 1701.28,8766.64 c 0,-38.22 -30.99,-69.21 -69.21,-69.21 -38.23,0 -69.22,30.99 -69.22,69.21 0,38.23 30.99,69.22 69.22,69.22 38.22,0 69.21,-30.99 69.21,-69.22"
         style="fill:#335285;fill-opacity:1;fill-rule:nonzero;stroke:none"
         id="path288" /><path
         d="m 3321.28,8196.63 c 0,-38.22 -30.99,-69.21 -69.21,-69.21 -38.23,0 -69.22,30.99 -69.22,69.21 0,38.23 30.99,69.22 69.22,69.22 38.22,0 69.21,-30.99 69.21,-69.22"
         style="fill:#335285;fill-opacity:1;fill-rule:nonzero;stroke:none"
         id="path290" /><path
         d="m 2511.28,8196.63 c 0,-38.23 -30.99,-69.21 -69.21,-69.21 -38.24,0 -69.22,30.98 -69.22,69.21 0,38.23 30.98,69.22 69.22,69.22 38.22,0 69.21,-30.99 69.21,-69.22"
         style="fill:#335285;fill-opacity:1;fill-rule:nonzero;stroke:none"
         id="path292" /><path
         d="m 1701.28,8196.63 c 0,-38.22 -30.99,-69.21 -69.21,-69.21 -38.23,0 -69.22,30.99 -69.22,69.21 0,38.23 30.99,69.22 69.22,69.22 38.22,0 69.21,-30.99 69.21,-69.22"
         style="fill:#335285;fill-opacity:1;fill-rule:nonzero;stroke:none"
         id="path294" /><path
         d="m 9621.28,9975.78 c 0,-38.22 -30.99,-69.2 -69.21,-69.2 -38.24,0 -69.22,30.98 -69.22,69.2 0,38.22 30.98,69.22 69.22,69.22 38.22,0 69.21,-31 69.21,-69.22"
         style="fill:#335285;fill-opacity:1;fill-rule:nonzero;stroke:none"
         id="path296" /><path
         d="m 8811.28,9975.78 c 0,-38.22 -30.99,-69.21 -69.21,-69.21 -38.23,0 -69.22,30.99 -69.22,69.21 0,38.22 30.99,69.22 69.22,69.22 38.22,0 69.21,-31 69.21,-69.22"
         style="fill:#335285;fill-opacity:1;fill-rule:nonzero;stroke:none"
         id="path298" /><path
         d="m 8975.18,8766.63 c 0,-38.23 -30.99,-69.21 -69.21,-69.21 -38.25,0 -69.22,30.98 -69.22,69.21 0,38.23 30.97,69.22 69.22,69.22 38.22,0 69.21,-30.99 69.21,-69.22"
         style="fill:#335285;fill-opacity:1;fill-rule:nonzero;stroke:none"
         id="path300" /><path
         d="m 8195.18,8766.63 c 0,-38.22 -30.99,-69.21 -69.21,-69.21 -38.24,0 -69.22,30.99 -69.22,69.21 0,38.23 30.98,69.22 69.22,69.22 38.22,0 69.21,-30.99 69.21,-69.22"
         style="fill:#335285;fill-opacity:1;fill-rule:nonzero;stroke:none"
         id="path302" /><path
         d="m 8975.18,8196.63 c 0,-38.23 -30.99,-69.21 -69.21,-69.21 -38.25,0 -69.22,30.98 -69.22,69.21 0,38.23 30.97,69.22 69.22,69.22 38.22,0 69.21,-30.99 69.21,-69.22"
         style="fill:#335285;fill-opacity:1;fill-rule:nonzero;stroke:none"
         id="path304" /><path
         d="m 8195.18,8196.63 c 0,-38.22 -30.99,-69.21 -69.21,-69.21 -38.24,0 -69.22,30.99 -69.22,69.21 0,38.23 30.98,69.22 69.22,69.22 38.22,0 69.21,-30.99 69.21,-69.22"
         style="fill:#335285;fill-opacity:1;fill-rule:nonzero;stroke:none"
         id="path306" /><path
         d="m 9704.27,7496.62 c 0,-38.23 -30.99,-69.21 -69.21,-69.21 -38.24,0 -69.22,30.98 -69.22,69.21 0,38.23 30.98,69.22 69.22,69.22 38.22,0 69.21,-30.99 69.21,-69.22"
         style="fill:#335285;fill-opacity:1;fill-rule:nonzero;stroke:none"
         id="path308" /><path
         d="m 7562.07,7496.63 c 0,-38.22 -30.99,-69.21 -69.21,-69.21 -38.23,0 -69.22,30.99 -69.22,69.21 0,38.23 30.99,69.22 69.22,69.22 38.22,0 69.21,-30.99 69.21,-69.22"
         style="fill:#335285;fill-opacity:1;fill-rule:nonzero;stroke:none"
         id="path310" /><path
         d="m 8342.07,6926.63 c 0,-38.23 -30.99,-69.21 -69.21,-69.21 -38.24,0 -69.22,30.98 -69.22,69.21 0,38.23 30.98,69.22 69.22,69.22 38.22,0 69.21,-30.99 69.21,-69.22"
         style="fill:#335285;fill-opacity:1;fill-rule:nonzero;stroke:none"
         id="path312" /><path
         d="m 9094.27,7496.63 c 0,-38.22 -30.99,-69.22 -69.21,-69.22 -38.23,0 -69.22,31 -69.22,69.22 0,38.22 30.99,69.22 69.22,69.22 38.22,0 69.21,-31 69.21,-69.22"
         style="fill:#335285;fill-opacity:1;fill-rule:nonzero;stroke:none"
         id="path314" /><path
         d="m 8342.07,7496.63 c 0,-38.23 -30.99,-69.21 -69.21,-69.21 -38.24,0 -69.22,30.98 -69.22,69.21 0,38.23 30.98,69.22 69.22,69.22 38.22,0 69.21,-30.99 69.21,-69.22"
         style="fill:#335285;fill-opacity:1;fill-rule:nonzero;stroke:none"
         id="path316" /><path
         d="m 9330.36,6316.64 c 0,-38.22 -30.98,-69.22 -69.21,-69.22 -38.23,0 -69.22,31 -69.22,69.22 0,38.22 30.99,69.22 69.22,69.22 38.23,0 69.21,-31 69.21,-69.22"
         style="fill:#335285;fill-opacity:1;fill-rule:nonzero;stroke:none"
         id="path318" /><path
         d="m 8578.16,6316.63 c 0,-38.23 -30.98,-69.21 -69.2,-69.21 -38.25,0 -69.22,30.98 -69.22,69.21 0,38.23 30.97,69.22 69.22,69.22 38.22,0 69.2,-30.99 69.2,-69.22"
         style="fill:#335285;fill-opacity:1;fill-rule:nonzero;stroke:none"
         id="path320" /><path
         d="m 9330.36,5746.64 c 0,-38.22 -30.98,-69.22 -69.21,-69.22 -38.23,0 -69.22,31 -69.22,69.22 0,38.22 30.99,69.22 69.22,69.22 38.23,0 69.21,-31 69.21,-69.22"
         style="fill:#335285;fill-opacity:1;fill-rule:nonzero;stroke:none"
         id="path322" /><path
         d="m 8578.16,5746.63 c 0,-38.23 -30.98,-69.21 -69.2,-69.21 -38.25,0 -69.22,30.98 -69.22,69.21 0,38.23 30.97,69.22 69.22,69.22 38.22,0 69.2,-30.99 69.2,-69.22"
         style="fill:#335285;fill-opacity:1;fill-rule:nonzero;stroke:none"
         id="path324" /><path
         d="m 7562.07,6926.63 c 0,-38.22 -30.99,-69.21 -69.21,-69.21 -38.23,0 -69.22,30.99 -69.22,69.21 0,38.23 30.99,69.22 69.22,69.22 38.22,0 69.21,-30.99 69.21,-69.22"
         style="fill:#335285;fill-opacity:1;fill-rule:nonzero;stroke:none"
         id="path326" /><path
         d="m 4131.28,9405.78 c 0,-38.23 -30.99,-69.21 -69.21,-69.21 -38.24,0 -69.22,30.98 -69.22,69.21 0,38.23 30.98,69.22 69.22,69.22 38.22,0 69.21,-30.99 69.21,-69.22"
         style="fill:#335285;fill-opacity:1;fill-rule:nonzero;stroke:none"
         id="path328" /><path
         d="m 3321.28,9405.78 c 0,-38.22 -30.99,-69.21 -69.21,-69.21 -38.23,0 -69.22,30.99 -69.22,69.21 0,38.23 30.99,69.22 69.22,69.22 38.22,0 69.21,-30.99 69.21,-69.22"
         style="fill:#335285;fill-opacity:1;fill-rule:nonzero;stroke:none"
         id="path330" /><path
         d="m 4941.28,9975.78 c 0,-38.22 -30.99,-69.21 -69.21,-69.21 -38.23,0 -69.22,30.99 -69.22,69.21 0,38.22 30.99,69.22 69.22,69.22 38.22,0 69.21,-31 69.21,-69.22"
         style="fill:#335285;fill-opacity:1;fill-rule:nonzero;stroke:none"
         id="path332" /><path
         d="m 4131.28,9975.78 c 0,-38.23 -30.99,-69.21 -69.21,-69.21 -38.24,0 -69.22,30.98 -69.22,69.21 0,38.22 30.98,69.22 69.22,69.22 38.22,0 69.21,-31 69.21,-69.22"
         style="fill:#335285;fill-opacity:1;fill-rule:nonzero;stroke:none"
         id="path334" /><path
         d="m 3321.28,9975.78 c 0,-38.22 -30.99,-69.21 -69.21,-69.21 -38.23,0 -69.22,30.99 -69.22,69.21 0,38.22 30.99,69.22 69.22,69.22 38.22,0 69.21,-31 69.21,-69.22"
         style="fill:#335285;fill-opacity:1;fill-rule:nonzero;stroke:none"
         id="path336" /><path
         d="m 1161.28,9975.78 c 0,-38.23 -30.99,-69.21 -69.21,-69.21 -38.24,0 -69.22,30.98 -69.22,69.21 0,38.22 30.98,69.22 69.22,69.22 38.22,0 69.21,-31 69.21,-69.22"
         style="fill:#335285;fill-opacity:1;fill-rule:nonzero;stroke:none"
         id="path338" /><path
         d="m 491.277,9975.78 c 0,-38.22 -30.984,-69.21 -69.207,-69.21 -38.23,0 -69.218,30.99 -69.218,69.21 0,38.22 30.988,69.22 69.218,69.22 38.223,0 69.207,-31 69.207,-69.22"
         style="fill:#335285;fill-opacity:1;fill-rule:nonzero;stroke:none"
         id="path340" /><path
         d="m 1161.28,9405.78 c 0,-38.23 -30.99,-69.21 -69.21,-69.21 -38.24,0 -69.22,30.98 -69.22,69.21 0,38.23 30.98,69.22 69.22,69.22 38.22,0 69.21,-30.99 69.21,-69.22"
         style="fill:#335285;fill-opacity:1;fill-rule:nonzero;stroke:none"
         id="path342" /><path
         d="m 491.277,9405.78 c 0,-38.22 -30.984,-69.21 -69.207,-69.21 -38.23,0 -69.218,30.99 -69.218,69.21 0,38.23 30.988,69.22 69.218,69.22 38.223,0 69.207,-30.99 69.207,-69.22"
         style="fill:#335285;fill-opacity:1;fill-rule:nonzero;stroke:none"
         id="path344" /><path
         d="m 2511.28,9975.78 c 0,-38.22 -30.99,-69.21 -69.21,-69.21 -38.23,0 -69.22,30.99 -69.22,69.21 0,38.22 30.99,69.22 69.22,69.22 38.22,0 69.21,-31 69.21,-69.22"
         style="fill:#335285;fill-opacity:1;fill-rule:nonzero;stroke:none"
         id="path346" /><path
         d="m 2611.28,9405.78 c 0,-38.22 -30.99,-69.21 -69.21,-69.21 -38.23,0 -69.22,30.99 -69.22,69.21 0,38.23 30.99,69.22 69.22,69.22 38.22,0 69.21,-30.99 69.21,-69.22"
         style="fill:#335285;fill-opacity:1;fill-rule:nonzero;stroke:none"
         id="path348" /><path
         d="m 1751.28,9975.78 c 0,-38.22 -30.99,-69.21 -69.21,-69.21 -38.23,0 -69.22,30.99 -69.22,69.21 0,38.22 30.99,69.22 69.22,69.22 38.22,0 69.21,-31 69.21,-69.22"
         style="fill:#335285;fill-opacity:1;fill-rule:nonzero;stroke:none"
         id="path350" /><path
         d="m 1831.28,9405.78 c 0,-38.22 -30.99,-69.21 -69.21,-69.21 -38.23,0 -69.22,30.99 -69.22,69.21 0,38.23 30.99,69.22 69.22,69.22 38.22,0 69.21,-30.99 69.21,-69.22"
         style="fill:#335285;fill-opacity:1;fill-rule:nonzero;stroke:none"
         id="path352" /><path
         d="m 10158.5,10615 c 0,-38.2 -31,-69.2 -69.2,-69.2 -38.2,0 -69.2,31 -69.2,69.2 0,38.2 31,69.2 69.2,69.2 38.2,0 69.2,-31 69.2,-69.2"
         style="fill:#335285;fill-opacity:1;fill-rule:nonzero;stroke:none"
         id="path354" /><path
         d="m 9648.54,10615 c 0,-38.2 -30.99,-69.2 -69.21,-69.2 -38.24,0 -69.22,31 -69.22,69.2 0,38.2 30.98,69.2 69.22,69.2 38.22,0 69.21,-31 69.21,-69.2"
         style="fill:#335285;fill-opacity:1;fill-rule:nonzero;stroke:none"
         id="path356" /><path
         d="m 9704.27,6926.64 c 0,-38.22 -30.99,-69.22 -69.21,-69.22 -38.23,0 -69.22,31 -69.22,69.22 0,38.22 30.99,69.22 69.22,69.22 38.22,0 69.21,-31 69.21,-69.22"
         style="fill:#335285;fill-opacity:1;fill-rule:nonzero;stroke:none"
         id="path358" /><path
         d="m 10874.3,7496.64 c 0,-38.22 -31,-69.22 -69.2,-69.22 -38.3,0 -69.3,31 -69.3,69.22 0,38.22 31,69.22 69.3,69.22 38.2,0 69.2,-31 69.2,-69.22"
         style="fill:#335285;fill-opacity:1;fill-rule:nonzero;stroke:none"
         id="path360" /><path
         d="m 10954.3,6926.64 c 0,-38.22 -31,-69.22 -69.2,-69.22 -38.3,0 -69.3,31 -69.3,69.22 0,38.22 31,69.22 69.3,69.22 38.2,0 69.2,-31 69.2,-69.22"
         style="fill:#335285;fill-opacity:1;fill-rule:nonzero;stroke:none"
         id="path362" /><path
         d="m 10034.3,8766.64 c 0,-38.22 -31,-69.22 -69.24,-69.22 -38.23,0 -69.22,31 -69.22,69.22 0,38.22 30.99,69.22 69.22,69.22 38.24,0 69.24,-31 69.24,-69.22"
         style="fill:#335285;fill-opacity:1;fill-rule:nonzero;stroke:none"
         id="path364" /><path
         d="m 10204.3,8196.64 c 0,-38.22 -31,-69.22 -69.2,-69.22 -38.3,0 -69.3,31 -69.3,69.22 0,38.22 31,69.22 69.3,69.22 38.2,0 69.2,-31 69.2,-69.22"
         style="fill:#335285;fill-opacity:1;fill-rule:nonzero;stroke:none"
         id="path366" /><path
         d="m 9494.27,8766.64 c 0,-38.22 -30.99,-69.22 -69.21,-69.22 -38.23,0 -69.22,31 -69.22,69.22 0,38.22 30.99,69.22 69.22,69.22 38.22,0 69.21,-31 69.21,-69.22"
         style="fill:#335285;fill-opacity:1;fill-rule:nonzero;stroke:none"
         id="path368" /><path
         d="m 9584.27,8196.64 c 0,-38.22 -30.99,-69.22 -69.21,-69.22 -38.23,0 -69.22,31 -69.22,69.22 0,38.22 30.99,69.22 69.22,69.22 38.22,0 69.21,-31 69.21,-69.22"
         style="fill:#335285;fill-opacity:1;fill-rule:nonzero;stroke:none"
         id="path370" /><path
         d="m 7494.27,8766.64 c 0,-38.22 -30.99,-69.22 -69.21,-69.22 -38.23,0 -69.22,31 -69.22,69.22 0,38.22 30.99,69.22 69.22,69.22 38.22,0 69.21,-31 69.21,-69.22"
         style="fill:#335285;fill-opacity:1;fill-rule:nonzero;stroke:none"
         id="path372" /><path
         d="m 7494.27,8196.64 c 0,-38.22 -30.99,-69.22 -69.21,-69.22 -38.23,0 -69.22,31 -69.22,69.22 0,38.22 30.99,69.22 69.22,69.22 38.22,0 69.21,-31 69.21,-69.22"
         style="fill:#335285;fill-opacity:1;fill-rule:nonzero;stroke:none"
         id="path374" /><path
         d="m 6864.27,8766.64 c 0,-38.22 -30.99,-69.22 -69.21,-69.22 -38.23,0 -69.22,31 -69.22,69.22 0,38.22 30.99,69.22 69.22,69.22 38.22,0 69.21,-31 69.21,-69.22"
         style="fill:#335285;fill-opacity:1;fill-rule:nonzero;stroke:none"
         id="path376" /><path
         d="m 6864.27,8196.64 c 0,-38.22 -30.99,-69.22 -69.21,-69.22 -38.23,0 -69.22,31 -69.22,69.22 0,38.22 30.99,69.22 69.22,69.22 38.22,0 69.21,-31 69.21,-69.22"
         style="fill:#335285;fill-opacity:1;fill-rule:nonzero;stroke:none"
         id="path378" /><path
         d="m 4714.27,8766.64 c 0,-38.22 -30.99,-69.22 -69.21,-69.22 -38.23,0 -69.22,31 -69.22,69.22 0,38.22 30.99,69.22 69.22,69.22 38.22,0 69.21,-31 69.21,-69.22"
         style="fill:#335285;fill-opacity:1;fill-rule:nonzero;stroke:none"
         id="path380" /><path
         d="m 4594.27,8196.64 c 0,-38.22 -30.99,-69.22 -69.21,-69.22 -38.23,0 -69.22,31 -69.22,69.22 0,38.22 30.99,69.22 69.22,69.22 38.22,0 69.21,-31 69.21,-69.22"
         style="fill:#335285;fill-opacity:1;fill-rule:nonzero;stroke:none"
         id="path382" /><path
         d="m 4054.27,8766.64 c 0,-38.22 -30.99,-69.22 -69.21,-69.22 -38.23,0 -69.22,31 -69.22,69.22 0,38.22 30.99,69.22 69.22,69.22 38.22,0 69.21,-31 69.21,-69.22"
         style="fill:#335285;fill-opacity:1;fill-rule:nonzero;stroke:none"
         id="path384" /><path
         d="m 3894.27,8196.64 c 0,-38.22 -30.99,-69.22 -69.21,-69.22 -38.23,0 -69.22,31 -69.22,69.22 0,38.22 30.99,69.22 69.22,69.22 38.22,0 69.21,-31 69.21,-69.22"
         style="fill:#335285;fill-opacity:1;fill-rule:nonzero;stroke:none"
         id="path386" /><path
         d="m 1034.27,8766.64 c 0,-38.22 -30.99,-69.22 -69.211,-69.22 -38.235,0 -69.219,31 -69.219,69.22 0,38.22 30.984,69.22 69.219,69.22 38.221,0 69.211,-31 69.211,-69.22"
         style="fill:#335285;fill-opacity:1;fill-rule:nonzero;stroke:none"
         id="path388" /><path
         d="m 1034.27,8196.64 c 0,-38.22 -30.99,-69.22 -69.211,-69.22 -38.235,0 -69.219,31 -69.219,69.22 0,38.22 30.984,69.22 69.219,69.22 38.221,0 69.211,-31 69.211,-69.22"
         style="fill:#335285;fill-opacity:1;fill-rule:nonzero;stroke:none"
         id="path390" /><path
         d="m 494.27,8766.64 c 0,-38.22 -30.989,-69.22 -69.211,-69.22 -38.235,0 -69.219,31 -69.219,69.22 0,38.22 30.984,69.22 69.219,69.22 38.222,0 69.211,-31 69.211,-69.22"
         style="fill:#335285;fill-opacity:1;fill-rule:nonzero;stroke:none"
         id="path392" /><path
         d="m 494.27,8196.64 c 0,-38.22 -30.989,-69.22 -69.211,-69.22 -38.235,0 -69.219,31 -69.219,69.22 0,38.22 30.984,69.22 69.219,69.22 38.222,0 69.211,-31 69.211,-69.22"
         style="fill:#335285;fill-opacity:1;fill-rule:nonzero;stroke:none"
         id="path394" /><path
         d="m 9874.27,6316.64 c 0,-38.22 -30.99,-69.22 -69.21,-69.22 -38.23,0 -69.22,31 -69.22,69.22 0,38.22 30.99,69.22 69.22,69.22 38.22,0 69.21,-31 69.21,-69.22"
         style="fill:#335285;fill-opacity:1;fill-rule:nonzero;stroke:none"
         id="path396" /><path
         d="m 9874.27,5746.64 c 0,-38.22 -30.99,-69.22 -69.21,-69.22 -38.23,0 -69.22,31 -69.22,69.22 0,38.22 30.99,69.22 69.22,69.22 38.22,0 69.21,-31 69.21,-69.22"
         style="fill:#335285;fill-opacity:1;fill-rule:nonzero;stroke:none"
         id="path398" /><path
         d="m 10484.3,6316.64 c 0,-38.22 -31,-69.22 -69.2,-69.22 -38.3,0 -69.3,31 -69.3,69.22 0,38.22 31,69.22 69.3,69.22 38.2,0 69.2,-31 69.2,-69.22"
         style="fill:#335285;fill-opacity:1;fill-rule:nonzero;stroke:none"
         id="path400" /><path
         d="m 10484.3,5746.64 c 0,-38.22 -31,-69.22 -69.2,-69.22 -38.3,0 -69.3,31 -69.3,69.22 0,38.22 31,69.22 69.3,69.22 38.2,0 69.2,-31 69.2,-69.22"
         style="fill:#335285;fill-opacity:1;fill-rule:nonzero;stroke:none"
         id="path402" /><path
         d="m 10394.3,5166.64 c 0,-38.22 -31,-69.22 -69.2,-69.22 -38.3,0 -69.3,31 -69.3,69.22 0,38.22 31,69.22 69.3,69.22 38.2,0 69.2,-31 69.2,-69.22"
         style="fill:#335285;fill-opacity:1;fill-rule:nonzero;stroke:none"
         id="path404" /><path
         d="m 10394.3,4596.64 c 0,-38.22 -31,-69.22 -69.2,-69.22 -38.3,0 -69.3,31 -69.3,69.22 0,38.22 31,69.22 69.3,69.22 38.2,0 69.2,-31 69.2,-69.22"
         style="fill:#335285;fill-opacity:1;fill-rule:nonzero;stroke:none"
         id="path406" /><path
         d="m 7984.27,6316.64 c 0,-38.22 -30.99,-69.22 -69.21,-69.22 -38.23,0 -69.22,31 -69.22,69.22 0,38.22 30.99,69.22 69.22,69.22 38.22,0 69.21,-31 69.21,-69.22"
         style="fill:#335285;fill-opacity:1;fill-rule:nonzero;stroke:none"
         id="path408" /><path
         d="m 7884.27,5746.64 c 0,-38.22 -30.99,-69.22 -69.21,-69.22 -38.23,0 -69.22,31 -69.22,69.22 0,38.22 30.99,69.22 69.22,69.22 38.22,0 69.21,-31 69.21,-69.22"
         style="fill:#335285;fill-opacity:1;fill-rule:nonzero;stroke:none"
         id="path410" /><path
         d="m 7354.27,6316.64 c 0,-38.22 -30.99,-69.22 -69.21,-69.22 -38.23,0 -69.22,31 -69.22,69.22 0,38.22 30.99,69.22 69.22,69.22 38.22,0 69.21,-31 69.21,-69.22"
         style="fill:#335285;fill-opacity:1;fill-rule:nonzero;stroke:none"
         id="path412" /><path
         d="m 6397.6,6316.64 c 0,-38.22 -30.99,-69.21 -69.21,-69.21 -38.23,0 -69.22,30.99 -69.22,69.21 0,38.22 30.99,69.22 69.22,69.22 38.22,0 69.21,-31 69.21,-69.22"
         style="fill:#335285;fill-opacity:1;fill-rule:nonzero;stroke:none"
         id="path414" /><path
         d="m 5440.94,6316.64 c 0,-38.22 -30.99,-69.22 -69.21,-69.22 -38.23,0 -69.23,31 -69.23,69.22 0,38.22 31,69.22 69.23,69.22 38.22,0 69.21,-31 69.21,-69.22"
         style="fill:#335285;fill-opacity:1;fill-rule:nonzero;stroke:none"
         id="path416" /><path
         d="m 4484.27,6316.64 c 0,-38.22 -30.99,-69.22 -69.21,-69.22 -38.23,0 -69.22,31 -69.22,69.22 0,38.22 30.99,69.22 69.22,69.22 38.22,0 69.21,-31 69.21,-69.22"
         style="fill:#335285;fill-opacity:1;fill-rule:nonzero;stroke:none"
         id="path418" /><path
         d="m 7234.27,5746.64 c 0,-38.22 -30.99,-69.22 -69.21,-69.22 -38.23,0 -69.22,31 -69.22,69.22 0,38.22 30.99,69.22 69.22,69.22 38.22,0 69.21,-31 69.21,-69.22"
         style="fill:#335285;fill-opacity:1;fill-rule:nonzero;stroke:none"
         id="path420" /><path
         d="m 6317.6,5746.64 c 0,-38.22 -30.99,-69.21 -69.21,-69.21 -38.23,0 -69.22,30.99 -69.22,69.21 0,38.22 30.99,69.22 69.22,69.22 38.22,0 69.21,-31 69.21,-69.22"
         style="fill:#335285;fill-opacity:1;fill-rule:nonzero;stroke:none"
         id="path422" /><path
         d="m 5400.94,5746.64 c 0,-38.22 -30.99,-69.22 -69.21,-69.22 -38.23,0 -69.23,31 -69.23,69.22 0,38.22 31,69.22 69.23,69.22 38.22,0 69.21,-31 69.21,-69.22"
         style="fill:#335285;fill-opacity:1;fill-rule:nonzero;stroke:none"
         id="path424" /><path
         d="m 4484.27,5746.64 c 0,-38.22 -30.99,-69.22 -69.21,-69.22 -38.23,0 -69.22,31 -69.22,69.22 0,38.22 30.99,69.22 69.22,69.22 38.22,0 69.21,-31 69.21,-69.22"
         style="fill:#335285;fill-opacity:1;fill-rule:nonzero;stroke:none"
         id="path426" /><path
         d="m 6794.27,5166.64 c 0,-38.22 -30.99,-69.22 -69.21,-69.22 -38.23,0 -69.22,31 -69.22,69.22 0,38.22 30.99,69.22 69.22,69.22 38.22,0 69.21,-31 69.21,-69.22"
         style="fill:#335285;fill-opacity:1;fill-rule:nonzero;stroke:none"
         id="path428" /><path
         d="m 7527.6,5166.64 c 0,-38.22 -30.99,-69.22 -69.21,-69.22 -38.23,0 -69.22,31 -69.22,69.22 0,38.22 30.99,69.22 69.22,69.22 38.22,0 69.21,-31 69.21,-69.22"
         style="fill:#335285;fill-opacity:1;fill-rule:nonzero;stroke:none"
         id="path430" /><path
         d="m 8260.94,5166.64 c 0,-38.22 -30.99,-69.22 -69.22,-69.22 -38.22,0 -69.21,31 -69.21,69.22 0,38.22 30.99,69.22 69.21,69.22 38.23,0 69.22,-31 69.22,-69.22"
         style="fill:#335285;fill-opacity:1;fill-rule:nonzero;stroke:none"
         id="path432" /><path
         d="m 8994.27,5166.64 c 0,-38.22 -30.99,-69.22 -69.21,-69.22 -38.23,0 -69.22,31 -69.22,69.22 0,38.22 30.99,69.22 69.22,69.22 38.22,0 69.21,-31 69.21,-69.22"
         style="fill:#335285;fill-opacity:1;fill-rule:nonzero;stroke:none"
         id="path434" /><path
         d="m 6644.27,4596.64 c 0,-38.22 -30.99,-69.22 -69.21,-69.22 -38.23,0 -69.22,31 -69.22,69.22 0,38.22 30.99,69.22 69.22,69.22 38.22,0 69.21,-31 69.21,-69.22"
         style="fill:#335285;fill-opacity:1;fill-rule:nonzero;stroke:none"
         id="path436" /><path
         d="m 7464.26,4596.64 c 0,-38.22 -30.98,-69.22 -69.2,-69.22 -38.23,0 -69.22,31 -69.22,69.22 0,38.22 30.99,69.22 69.22,69.22 38.22,0 69.2,-31 69.2,-69.22"
         style="fill:#335285;fill-opacity:1;fill-rule:nonzero;stroke:none"
         id="path438" /><path
         d="m 8284.27,4596.64 c 0,-38.22 -30.99,-69.22 -69.21,-69.22 -38.23,0 -69.22,31 -69.22,69.22 0,38.22 30.99,69.22 69.22,69.22 38.22,0 69.21,-31 69.21,-69.22"
         style="fill:#335285;fill-opacity:1;fill-rule:nonzero;stroke:none"
         id="path440" /><path
         d="m 9104.27,4596.64 c 0,-38.22 -30.99,-69.22 -69.21,-69.22 -38.23,0 -69.22,31 -69.22,69.22 0,38.22 30.99,69.22 69.22,69.22 38.22,0 69.21,-31 69.21,-69.22"
         style="fill:#335285;fill-opacity:1;fill-rule:nonzero;stroke:none"
         id="path442" /><path
         d="m 9644.27,5166.64 c 0,-38.22 -30.99,-69.22 -69.21,-69.22 -38.23,0 -69.22,31 -69.22,69.22 0,38.22 30.99,69.22 69.22,69.22 38.22,0 69.21,-31 69.21,-69.22"
         style="fill:#335285;fill-opacity:1;fill-rule:nonzero;stroke:none"
         id="path444" /><path
         d="m 9804.27,4596.64 c 0,-38.22 -30.99,-69.22 -69.21,-69.22 -38.23,0 -69.22,31 -69.22,69.22 0,38.22 30.99,69.22 69.22,69.22 38.22,0 69.21,-31 69.21,-69.22"
         style="fill:#335285;fill-opacity:1;fill-rule:nonzero;stroke:none"
         id="path446" /><path
         d="m 10314.3,3916.64 c 0,-38.22 -31,-69.22 -69.2,-69.22 -38.3,0 -69.3,31 -69.3,69.22 0,38.22 31,69.22 69.3,69.22 38.2,0 69.2,-31 69.2,-69.22"
         style="fill:#335285;fill-opacity:1;fill-rule:nonzero;stroke:none"
         id="path448" /><path
         d="m 9634.27,3916.64 c 0,-38.22 -30.99,-69.22 -69.21,-69.22 -38.24,0 -69.22,31 -69.22,69.22 0,38.22 30.98,69.22 69.22,69.22 38.22,0 69.21,-31 69.21,-69.22"
         style="fill:#335285;fill-opacity:1;fill-rule:nonzero;stroke:none"
         id="path450" /><path
         d="m 8954.27,3916.64 c 0,-38.22 -30.99,-69.22 -69.21,-69.22 -38.23,0 -69.22,31 -69.22,69.22 0,38.22 30.99,69.22 69.22,69.22 38.22,0 69.21,-31 69.21,-69.22"
         style="fill:#335285;fill-opacity:1;fill-rule:nonzero;stroke:none"
         id="path452" /><path
         d="m 8274.27,3916.64 c 0,-38.22 -30.99,-69.22 -69.21,-69.22 -38.23,0 -69.22,31 -69.22,69.22 0,38.22 30.99,69.22 69.22,69.22 38.22,0 69.21,-31 69.21,-69.22"
         style="fill:#335285;fill-opacity:1;fill-rule:nonzero;stroke:none"
         id="path454" /><path
         d="m 10314.3,3346.64 c 0,-38.22 -31,-69.22 -69.2,-69.22 -38.3,0 -69.3,31 -69.3,69.22 0,38.22 31,69.22 69.3,69.22 38.2,0 69.2,-31 69.2,-69.22"
         style="fill:#335285;fill-opacity:1;fill-rule:nonzero;stroke:none"
         id="path456" /><path
         d="m 9634.27,3346.64 c 0,-38.22 -30.99,-69.22 -69.21,-69.22 -38.24,0 -69.22,31 -69.22,69.22 0,38.22 30.98,69.22 69.22,69.22 38.22,0 69.21,-31 69.21,-69.22"
         style="fill:#335285;fill-opacity:1;fill-rule:nonzero;stroke:none"
         id="path458" /><path
         d="m 8954.27,3346.64 c 0,-38.22 -30.99,-69.22 -69.21,-69.22 -38.23,0 -69.22,31 -69.22,69.22 0,38.22 30.99,69.22 69.22,69.22 38.22,0 69.21,-31 69.21,-69.22"
         style="fill:#335285;fill-opacity:1;fill-rule:nonzero;stroke:none"
         id="path460" /><path
         d="m 8274.27,3346.64 c 0,-38.22 -30.99,-69.22 -69.21,-69.22 -38.23,0 -69.22,31 -69.22,69.22 0,38.22 30.99,69.22 69.22,69.22 38.22,0 69.21,-31 69.21,-69.22"
         style="fill:#335285;fill-opacity:1;fill-rule:nonzero;stroke:none"
         id="path462" /><path
         d="m 4384.27,3916.64 c 0,-38.22 -30.99,-69.22 -69.21,-69.22 -38.23,0 -69.22,31 -69.22,69.22 0,38.22 30.99,69.22 69.22,69.22 38.22,0 69.21,-31 69.21,-69.22"
         style="fill:#335285;fill-opacity:1;fill-rule:nonzero;stroke:none"
         id="path464" /><path
         d="m 3580.94,3916.64 c 0,-38.22 -31,-69.22 -69.22,-69.22 -38.22,0 -69.22,31 -69.22,69.22 0,38.22 31,69.22 69.22,69.22 38.22,0 69.22,-31 69.22,-69.22"
         style="fill:#335285;fill-opacity:1;fill-rule:nonzero;stroke:none"
         id="path466" /><path
         d="m 2777.6,3916.64 c 0,-38.22 -30.99,-69.22 -69.21,-69.22 -38.23,0 -69.21,31 -69.21,69.22 0,38.22 30.98,69.22 69.21,69.22 38.22,0 69.21,-31 69.21,-69.22"
         style="fill:#335285;fill-opacity:1;fill-rule:nonzero;stroke:none"
         id="path468" /><path
         d="m 1974.27,3916.64 c 0,-38.22 -30.99,-69.22 -69.21,-69.22 -38.23,0 -69.22,31 -69.22,69.22 0,38.22 30.99,69.22 69.22,69.22 38.22,0 69.21,-31 69.21,-69.22"
         style="fill:#335285;fill-opacity:1;fill-rule:nonzero;stroke:none"
         id="path470" /><path
         d="m 4214.27,3346.64 c 0,-38.22 -30.99,-69.22 -69.21,-69.22 -38.23,0 -69.22,31 -69.22,69.22 0,38.22 30.99,69.22 69.22,69.22 38.22,0 69.21,-31 69.21,-69.22"
         style="fill:#335285;fill-opacity:1;fill-rule:nonzero;stroke:none"
         id="path472" /><path
         d="m 3467.6,3346.64 c 0,-38.22 -30.99,-69.22 -69.21,-69.22 -38.23,0 -69.22,31 -69.22,69.22 0,38.22 30.99,69.22 69.22,69.22 38.22,0 69.21,-31 69.21,-69.22"
         style="fill:#335285;fill-opacity:1;fill-rule:nonzero;stroke:none"
         id="path474" /><path
         d="m 2720.94,3346.64 c 0,-38.22 -30.99,-69.22 -69.22,-69.22 -38.22,0 -69.21,31 -69.21,69.22 0,38.22 30.99,69.22 69.21,69.22 38.23,0 69.22,-31 69.22,-69.22"
         style="fill:#335285;fill-opacity:1;fill-rule:nonzero;stroke:none"
         id="path476" /><path
         d="m 1974.27,3346.64 c 0,-38.22 -30.99,-69.22 -69.21,-69.22 -38.23,0 -69.22,31 -69.22,69.22 0,38.22 30.99,69.22 69.22,69.22 38.22,0 69.21,-31 69.21,-69.22"
         style="fill:#335285;fill-opacity:1;fill-rule:nonzero;stroke:none"
         id="path478" /><path
         d="m 1274.27,3916.64 c 0,-38.22 -30.99,-69.22 -69.21,-69.22 -38.23,0 -69.22,31 -69.22,69.22 0,38.22 30.99,69.22 69.22,69.22 38.22,0 69.21,-31 69.21,-69.22"
         style="fill:#335285;fill-opacity:1;fill-rule:nonzero;stroke:none"
         id="path480" /><path
         d="m 1274.27,3346.64 c 0,-38.22 -30.99,-69.22 -69.21,-69.22 -38.23,0 -69.22,31 -69.22,69.22 0,38.22 30.99,69.22 69.22,69.22 38.22,0 69.21,-31 69.21,-69.22"
         style="fill:#335285;fill-opacity:1;fill-rule:nonzero;stroke:none"
         id="path482" /><path
         d="m 614.27,3916.64 c 0,-38.22 -30.989,-69.22 -69.211,-69.22 -38.235,0 -69.219,31 -69.219,69.22 0,38.22 30.984,69.22 69.219,69.22 38.222,0 69.211,-31 69.211,-69.22"
         style="fill:#335285;fill-opacity:1;fill-rule:nonzero;stroke:none"
         id="path484" /><path
         d="m 614.27,3346.64 c 0,-38.22 -30.989,-69.22 -69.211,-69.22 -38.235,0 -69.219,31 -69.219,69.22 0,38.22 30.984,69.22 69.219,69.22 38.222,0 69.211,-31 69.211,-69.22"
         style="fill:#335285;fill-opacity:1;fill-rule:nonzero;stroke:none"
         id="path486" /><path
         d="m 294.27,2696.64 c 0,-38.22 -30.989,-69.22 -69.211,-69.22 -38.235,0 -69.219,31 -69.219,69.22 0,38.22 30.984,69.22 69.219,69.22 38.222,0 69.211,-31 69.211,-69.22"
         style="fill:#335285;fill-opacity:1;fill-rule:nonzero;stroke:none"
         id="path488" /><path
         d="m 294.27,2126.64 c 0,-38.22 -30.989,-69.22 -69.211,-69.22 -38.235,0 -69.219,31 -69.219,69.22 0,38.22 30.984,69.22 69.219,69.22 38.222,0 69.211,-31 69.211,-69.22"
         style="fill:#335285;fill-opacity:1;fill-rule:nonzero;stroke:none"
         id="path490" /><path
         d="m 884.27,2696.64 c 0,-38.22 -30.989,-69.22 -69.211,-69.22 -38.235,0 -69.219,31 -69.219,69.22 0,38.22 30.984,69.22 69.219,69.22 38.222,0 69.211,-31 69.211,-69.22"
         style="fill:#335285;fill-opacity:1;fill-rule:nonzero;stroke:none"
         id="path492" /><path
         d="m 1674.26,2696.64 c 0,-38.22 -30.98,-69.22 -69.2,-69.22 -38.23,0 -69.22,31 -69.22,69.22 0,38.22 30.99,69.22 69.22,69.22 38.22,0 69.2,-31 69.2,-69.22"
         style="fill:#335285;fill-opacity:1;fill-rule:nonzero;stroke:none"
         id="path494" /><path
         d="m 2464.27,2696.64 c 0,-38.22 -30.99,-69.22 -69.21,-69.22 -38.23,0 -69.22,31 -69.22,69.22 0,38.22 30.99,69.22 69.22,69.22 38.22,0 69.21,-31 69.21,-69.22"
         style="fill:#335285;fill-opacity:1;fill-rule:nonzero;stroke:none"
         id="path496" /><path
         d="m 3254.27,2696.64 c 0,-38.22 -30.99,-69.22 -69.21,-69.22 -38.23,0 -69.22,31 -69.22,69.22 0,38.22 30.99,69.22 69.22,69.22 38.22,0 69.21,-31 69.21,-69.22"
         style="fill:#335285;fill-opacity:1;fill-rule:nonzero;stroke:none"
         id="path498" /><path
         d="m 884.27,2126.64 c 0,-38.22 -30.989,-69.22 -69.211,-69.22 -38.235,0 -69.219,31 -69.219,69.22 0,38.22 30.984,69.22 69.219,69.22 38.222,0 69.211,-31 69.211,-69.22"
         style="fill:#335285;fill-opacity:1;fill-rule:nonzero;stroke:none"
         id="path500" /><path
         d="m 1704.26,2126.64 c 0,-38.22 -30.98,-69.22 -69.2,-69.22 -38.23,0 -69.22,31 -69.22,69.22 0,38.22 30.99,69.22 69.22,69.22 38.22,0 69.2,-31 69.2,-69.22"
         style="fill:#335285;fill-opacity:1;fill-rule:nonzero;stroke:none"
         id="path502" /><path
         d="m 2524.27,2126.64 c 0,-38.22 -30.99,-69.22 -69.21,-69.22 -38.23,0 -69.22,31 -69.22,69.22 0,38.22 30.99,69.22 69.22,69.22 38.22,0 69.21,-31 69.21,-69.22"
         style="fill:#335285;fill-opacity:1;fill-rule:nonzero;stroke:none"
         id="path504" /><path
         d="m 3344.27,2126.64 c 0,-38.22 -30.99,-69.22 -69.21,-69.22 -38.23,0 -69.22,31 -69.22,69.22 0,38.22 30.99,69.22 69.22,69.22 38.22,0 69.21,-31 69.21,-69.22"
         style="fill:#335285;fill-opacity:1;fill-rule:nonzero;stroke:none"
         id="path506" /><path
         d="m 4034.27,2696.64 c 0,-38.22 -30.99,-69.22 -69.21,-69.22 -38.23,0 -69.22,31 -69.22,69.22 0,38.22 30.99,69.22 69.22,69.22 38.22,0 69.21,-31 69.21,-69.22"
         style="fill:#335285;fill-opacity:1;fill-rule:nonzero;stroke:none"
         id="path508" /><path
         d="m 4834.26,2696.64 c 0,-38.22 -30.98,-69.22 -69.2,-69.22 -38.23,0 -69.22,31 -69.22,69.22 0,38.22 30.99,69.22 69.22,69.22 38.22,0 69.2,-31 69.2,-69.22"
         style="fill:#335285;fill-opacity:1;fill-rule:nonzero;stroke:none"
         id="path510" /><path
         d="m 5634.27,2696.64 c 0,-38.22 -30.99,-69.22 -69.21,-69.22 -38.23,0 -69.22,31 -69.22,69.22 0,38.22 30.99,69.22 69.22,69.22 38.22,0 69.21,-31 69.21,-69.22"
         style="fill:#335285;fill-opacity:1;fill-rule:nonzero;stroke:none"
         id="path512" /><path
         d="m 6434.27,2696.64 c 0,-38.22 -30.99,-69.22 -69.21,-69.22 -38.23,0 -69.22,31 -69.22,69.22 0,38.22 30.99,69.22 69.22,69.22 38.22,0 69.21,-31 69.21,-69.22"
         style="fill:#335285;fill-opacity:1;fill-rule:nonzero;stroke:none"
         id="path514" /><path
         d="m 4114.27,2126.64 c 0,-38.22 -30.99,-69.22 -69.21,-69.22 -38.23,0 -69.22,31 -69.22,69.22 0,38.22 30.99,69.22 69.22,69.22 38.22,0 69.21,-31 69.21,-69.22"
         style="fill:#335285;fill-opacity:1;fill-rule:nonzero;stroke:none"
         id="path516" /><path
         d="m 4887.6,2126.64 c 0,-38.22 -30.99,-69.22 -69.21,-69.22 -38.23,0 -69.22,31 -69.22,69.22 0,38.22 30.99,69.22 69.22,69.22 38.22,0 69.21,-31 69.21,-69.22"
         style="fill:#335285;fill-opacity:1;fill-rule:nonzero;stroke:none"
         id="path518" /><path
         d="m 5660.94,2126.64 c 0,-38.22 -30.99,-69.22 -69.21,-69.22 -38.23,0 -69.23,31 -69.23,69.22 0,38.22 31,69.22 69.23,69.22 38.22,0 69.21,-31 69.21,-69.22"
         style="fill:#335285;fill-opacity:1;fill-rule:nonzero;stroke:none"
         id="path520" /><path
         d="m 6434.27,2126.64 c 0,-38.22 -30.99,-69.22 -69.21,-69.22 -38.23,0 -69.22,31 -69.22,69.22 0,38.22 30.99,69.22 69.22,69.22 38.22,0 69.21,-31 69.21,-69.22"
         style="fill:#335285;fill-opacity:1;fill-rule:nonzero;stroke:none"
         id="path522" /><path
         d="m 7234.27,2696.64 c 0,-38.22 -30.99,-69.22 -69.21,-69.22 -38.23,0 -69.22,31 -69.22,69.22 0,38.22 30.99,69.22 69.22,69.22 38.22,0 69.21,-31 69.21,-69.22"
         style="fill:#335285;fill-opacity:1;fill-rule:nonzero;stroke:none"
         id="path524" /><path
         d="m 8020.94,2696.64 c 0,-38.22 -31,-69.22 -69.22,-69.22 -38.22,0 -69.22,31 -69.22,69.22 0,38.22 31,69.22 69.22,69.22 38.22,0 69.22,-31 69.22,-69.22"
         style="fill:#335285;fill-opacity:1;fill-rule:nonzero;stroke:none"
         id="path526" /><path
         d="m 8807.6,2696.64 c 0,-38.22 -30.99,-69.22 -69.21,-69.22 -38.23,0 -69.21,31 -69.21,69.22 0,38.22 30.98,69.22 69.21,69.22 38.22,0 69.21,-31 69.21,-69.22"
         style="fill:#335285;fill-opacity:1;fill-rule:nonzero;stroke:none"
         id="path528" /><path
         d="m 9594.27,2696.64 c 0,-38.22 -30.99,-69.22 -69.21,-69.22 -38.23,0 -69.22,31 -69.22,69.22 0,38.22 30.99,69.22 69.22,69.22 38.22,0 69.21,-31 69.21,-69.22"
         style="fill:#335285;fill-opacity:1;fill-rule:nonzero;stroke:none"
         id="path530" /><path
         d="m 7234.27,2126.64 c 0,-38.22 -30.99,-69.22 -69.21,-69.22 -38.23,0 -69.22,31 -69.22,69.22 0,38.22 30.99,69.22 69.22,69.22 38.22,0 69.21,-31 69.21,-69.22"
         style="fill:#335285;fill-opacity:1;fill-rule:nonzero;stroke:none"
         id="path532" /><path
         d="m 7970.94,2126.64 c 0,-38.22 -31,-69.22 -69.22,-69.22 -38.22,0 -69.22,31 -69.22,69.22 0,38.22 31,69.22 69.22,69.22 38.22,0 69.22,-31 69.22,-69.22"
         style="fill:#335285;fill-opacity:1;fill-rule:nonzero;stroke:none"
         id="path534" /><path
         d="m 8707.6,2126.64 c 0,-38.22 -30.99,-69.22 -69.21,-69.22 -38.23,0 -69.21,31 -69.21,69.22 0,38.22 30.98,69.22 69.21,69.22 38.22,0 69.21,-31 69.21,-69.22"
         style="fill:#335285;fill-opacity:1;fill-rule:nonzero;stroke:none"
         id="path536" /><path
         d="m 9444.27,2126.64 c 0,-38.22 -30.99,-69.22 -69.21,-69.22 -38.23,0 -69.22,31 -69.22,69.22 0,38.22 30.99,69.22 69.22,69.22 38.22,0 69.21,-31 69.21,-69.22"
         style="fill:#335285;fill-opacity:1;fill-rule:nonzero;stroke:none"
         id="path538" /><path
         d="m 10334.3,2696.64 c 0,-38.22 -31,-69.22 -69.2,-69.22 -38.3,0 -69.3,31 -69.3,69.22 0,38.22 31,69.22 69.3,69.22 38.2,0 69.2,-31 69.2,-69.22"
         style="fill:#335285;fill-opacity:1;fill-rule:nonzero;stroke:none"
         id="path540" /><path
         d="m 10184.3,2126.64 c 0,-38.22 -31,-69.22 -69.2,-69.22 -38.3,0 -69.3,31 -69.3,69.22 0,38.22 31,69.22 69.3,69.22 38.2,0 69.2,-31 69.2,-69.22"
         style="fill:#335285;fill-opacity:1;fill-rule:nonzero;stroke:none"
         id="path542" /><path
         d="m 8384.27,1476.64 c 0,-38.22 -30.99,-69.22 -69.21,-69.22 -38.23,0 -69.22,31 -69.22,69.22 0,38.22 30.99,69.22 69.22,69.22 38.22,0 69.21,-31 69.21,-69.22"
         style="fill:#335285;fill-opacity:1;fill-rule:nonzero;stroke:none"
         id="path544" /><path
         d="m 8384.27,906.641 c 0,-38.239 -30.99,-69.239 -69.21,-69.239 -38.23,0 -69.22,31 -69.22,69.239 0,38.218 30.99,69.218 69.22,69.218 38.22,0 69.21,-31 69.21,-69.218"
         style="fill:#335285;fill-opacity:1;fill-rule:nonzero;stroke:none"
         id="path546" /><path
         d="m 7564.27,1476.64 c 0,-38.22 -30.99,-69.22 -69.21,-69.22 -38.23,0 -69.22,31 -69.22,69.22 0,38.22 30.99,69.22 69.22,69.22 38.22,0 69.21,-31 69.21,-69.22"
         style="fill:#335285;fill-opacity:1;fill-rule:nonzero;stroke:none"
         id="path548" /><path
         d="m 6784.27,1476.64 c 0,-38.22 -30.99,-69.22 -69.21,-69.22 -38.23,0 -69.22,31 -69.22,69.22 0,38.22 30.99,69.22 69.22,69.22 38.22,0 69.21,-31 69.21,-69.22"
         style="fill:#335285;fill-opacity:1;fill-rule:nonzero;stroke:none"
         id="path550" /><path
         d="m 6004.27,1476.64 c 0,-38.22 -30.99,-69.22 -69.21,-69.22 -38.23,0 -69.22,31 -69.22,69.22 0,38.22 30.99,69.22 69.22,69.22 38.22,0 69.21,-31 69.21,-69.22"
         style="fill:#335285;fill-opacity:1;fill-rule:nonzero;stroke:none"
         id="path552" /><path
         d="m 10604.3,1476.64 c 0,-38.22 -31,-69.22 -69.2,-69.22 -38.3,0 -69.3,31 -69.3,69.22 0,38.22 31,69.22 69.3,69.22 38.2,0 69.2,-31 69.2,-69.22"
         style="fill:#335285;fill-opacity:1;fill-rule:nonzero;stroke:none"
         id="path554" /><path
         d="m 9824.27,1476.64 c 0,-38.22 -30.99,-69.22 -69.21,-69.22 -38.23,0 -69.22,31 -69.22,69.22 0,38.22 30.99,69.22 69.22,69.22 38.22,0 69.21,-31 69.21,-69.22"
         style="fill:#335285;fill-opacity:1;fill-rule:nonzero;stroke:none"
         id="path556" /><path
         d="m 9044.27,1476.64 c 0,-38.22 -30.99,-69.22 -69.21,-69.22 -38.23,0 -69.22,31 -69.22,69.22 0,38.22 30.99,69.22 69.22,69.22 38.22,0 69.21,-31 69.21,-69.22"
         style="fill:#335285;fill-opacity:1;fill-rule:nonzero;stroke:none"
         id="path558" /><path
         d="m 10604.3,906.641 c 0,-38.239 -31,-69.239 -69.2,-69.239 -38.3,0 -69.3,31 -69.3,69.239 0,38.218 31,69.218 69.3,69.218 38.2,0 69.2,-31 69.2,-69.218"
         style="fill:#335285;fill-opacity:1;fill-rule:nonzero;stroke:none"
         id="path560" /><path
         d="m 9824.27,906.641 c 0,-38.239 -30.99,-69.239 -69.21,-69.239 -38.23,0 -69.22,31 -69.22,69.239 0,38.218 30.99,69.218 69.22,69.218 38.22,0 69.21,-31 69.21,-69.218"
         style="fill:#335285;fill-opacity:1;fill-rule:nonzero;stroke:none"
         id="path562" /><path
         d="m 9044.27,906.641 c 0,-38.239 -30.99,-69.239 -69.21,-69.239 -38.23,0 -69.22,31 -69.22,69.239 0,38.218 30.99,69.218 69.22,69.218 38.22,0 69.21,-31 69.21,-69.218"
         style="fill:#335285;fill-opacity:1;fill-rule:nonzero;stroke:none"
         id="path564" /><path
         d="m 5224.27,1476.64 c 0,-38.22 -30.99,-69.22 -69.21,-69.22 -38.23,0 -69.22,31 -69.22,69.22 0,38.22 30.99,69.22 69.22,69.22 38.22,0 69.21,-31 69.21,-69.22"
         style="fill:#335285;fill-opacity:1;fill-rule:nonzero;stroke:none"
         id="path566" /><path
         d="m 7564.27,906.641 c 0,-38.239 -30.99,-69.239 -69.21,-69.239 -38.23,0 -69.22,31 -69.22,69.239 0,38.218 30.99,69.218 69.22,69.218 38.22,0 69.21,-31 69.21,-69.218"
         style="fill:#335285;fill-opacity:1;fill-rule:nonzero;stroke:none"
         id="path568" /><path
         d="m 6784.27,906.641 c 0,-38.239 -30.99,-69.239 -69.21,-69.239 -38.23,0 -69.22,31 -69.22,69.239 0,38.218 30.99,69.218 69.22,69.218 38.22,0 69.21,-31 69.21,-69.218"
         style="fill:#335285;fill-opacity:1;fill-rule:nonzero;stroke:none"
         id="path570" /><path
         d="m 6004.27,906.641 c 0,-38.239 -30.99,-69.239 -69.21,-69.239 -38.23,0 -69.22,31 -69.22,69.239 0,38.218 30.99,69.218 69.22,69.218 38.22,0 69.21,-31 69.21,-69.218"
         style="fill:#335285;fill-opacity:1;fill-rule:nonzero;stroke:none"
         id="path572" /><path
         d="m 5224.27,906.641 c 0,-38.239 -30.99,-69.239 -69.21,-69.239 -38.23,0 -69.22,31 -69.22,69.239 0,38.218 30.99,69.218 69.22,69.218 38.22,0 69.21,-31 69.21,-69.218"
         style="fill:#335285;fill-opacity:1;fill-rule:nonzero;stroke:none"
         id="path574" /><path
         d="m 4534.27,1476.64 c 0,-38.22 -30.99,-69.22 -69.21,-69.22 -38.23,0 -69.22,31 -69.22,69.22 0,38.22 30.99,69.22 69.22,69.22 38.22,0 69.21,-31 69.21,-69.22"
         style="fill:#335285;fill-opacity:1;fill-rule:nonzero;stroke:none"
         id="path576" /><path
         d="m 3754.27,1476.64 c 0,-38.22 -30.99,-69.22 -69.21,-69.22 -38.23,0 -69.22,31 -69.22,69.22 0,38.22 30.99,69.22 69.22,69.22 38.22,0 69.21,-31 69.21,-69.22"
         style="fill:#335285;fill-opacity:1;fill-rule:nonzero;stroke:none"
         id="path578" /><path
         d="m 2974.27,1476.64 c 0,-38.22 -30.99,-69.22 -69.21,-69.22 -38.23,0 -69.22,31 -69.22,69.22 0,38.22 30.99,69.22 69.22,69.22 38.22,0 69.21,-31 69.21,-69.22"
         style="fill:#335285;fill-opacity:1;fill-rule:nonzero;stroke:none"
         id="path580" /><path
         d="m 2194.27,1476.64 c 0,-38.22 -30.99,-69.22 -69.21,-69.22 -38.23,0 -69.22,31 -69.22,69.22 0,38.22 30.99,69.22 69.22,69.22 38.22,0 69.21,-31 69.21,-69.22"
         style="fill:#335285;fill-opacity:1;fill-rule:nonzero;stroke:none"
         id="path582" /><path
         d="m 4544.27,906.641 c 0,-38.239 -30.99,-69.239 -69.21,-69.239 -38.23,0 -69.22,31 -69.22,69.239 0,38.218 30.99,69.218 69.22,69.218 38.22,0 69.21,-31 69.21,-69.218"
         style="fill:#335285;fill-opacity:1;fill-rule:nonzero;stroke:none"
         id="path584" /><path
         d="m 3730.93,906.641 c 0,-38.239 -30.99,-69.239 -69.21,-69.239 -38.22,0 -69.22,31 -69.22,69.239 0,38.218 31,69.218 69.22,69.218 38.22,0 69.21,-31 69.21,-69.218"
         style="fill:#335285;fill-opacity:1;fill-rule:nonzero;stroke:none"
         id="path586" /><path
         d="m 2917.6,906.641 c 0,-38.239 -30.99,-69.239 -69.2,-69.239 -38.24,0 -69.23,31 -69.23,69.239 0,38.218 30.99,69.218 69.23,69.218 38.21,0 69.2,-31 69.2,-69.218"
         style="fill:#335285;fill-opacity:1;fill-rule:nonzero;stroke:none"
         id="path588" /><path
         d="m 2104.27,906.641 c 0,-38.239 -30.99,-69.239 -69.21,-69.239 -38.23,0 -69.22,31 -69.22,69.239 0,38.218 30.99,69.218 69.22,69.218 38.22,0 69.21,-31 69.21,-69.218"
         style="fill:#335285;fill-opacity:1;fill-rule:nonzero;stroke:none"
         id="path590" /><path
         d="m 1554.27,1476.64 c 0,-38.22 -30.99,-69.22 -69.21,-69.22 -38.23,0 -69.22,31 -69.22,69.22 0,38.22 30.99,69.22 69.22,69.22 38.22,0 69.21,-31 69.21,-69.22"
         style="fill:#335285;fill-opacity:1;fill-rule:nonzero;stroke:none"
         id="path592" /><path
         d="m 1424.27,906.641 c 0,-38.239 -30.99,-69.239 -69.21,-69.239 -38.23,0 -69.22,31 -69.22,69.239 0,38.218 30.99,69.218 69.22,69.218 38.22,0 69.21,-31 69.21,-69.218"
         style="fill:#335285;fill-opacity:1;fill-rule:nonzero;stroke:none"
         id="path594" /><path
         d="m 964.27,1476.64 c 0,-38.22 -30.989,-69.22 -69.211,-69.22 -38.235,0 -69.219,31 -69.219,69.22 0,38.22 30.984,69.22 69.219,69.22 38.222,0 69.211,-31 69.211,-69.22"
         style="fill:#335285;fill-opacity:1;fill-rule:nonzero;stroke:none"
         id="path596" /><path
         d="m 964.27,906.641 c 0,-38.239 -30.989,-69.239 -69.211,-69.239 -38.235,0 -69.219,31 -69.219,69.239 0,38.218 30.984,69.218 69.219,69.218 38.222,0 69.211,-31 69.211,-69.218"
         style="fill:#335285;fill-opacity:1;fill-rule:nonzero;stroke:none"
         id="path598" /><path
         d="m 354.27,1476.64 c 0,-38.22 -30.989,-69.22 -69.211,-69.22 -38.235,0 -69.219,31 -69.219,69.22 0,38.22 30.984,69.22 69.219,69.22 38.222,0 69.211,-31 69.211,-69.22"
         style="fill:#335285;fill-opacity:1;fill-rule:nonzero;stroke:none"
         id="path600" /><path
         d="m 354.27,906.641 c 0,-38.239 -30.989,-69.239 -69.211,-69.239 -38.235,0 -69.219,31 -69.219,69.239 0,38.218 30.984,69.218 69.219,69.218 38.222,0 69.211,-31 69.211,-69.218"
         style="fill:#335285;fill-opacity:1;fill-rule:nonzero;stroke:none"
         id="path602" /><path
         d="M 958.484,313.301 C 958.484,275 927.488,244 889.27,244 c -38.223,0 -69.219,31 -69.219,69.301 0,38.199 30.996,69.199 69.219,69.199 38.218,0 69.214,-31 69.214,-69.199"
         style="fill:#335285;fill-opacity:1;fill-rule:nonzero;stroke:none"
         id="path604" /><path
         d="m 368.484,10615 c 0,-38.2 -30.996,-69.2 -69.214,-69.2 -38.223,0 -69.219,31 -69.219,69.2 0,38.2 30.996,69.2 69.219,69.2 38.218,0 69.214,-31 69.214,-69.2"
         style="fill:#335285;fill-opacity:1;fill-rule:nonzero;stroke:none"
         id="path606" /><path
         d="M 368.484,313.301 C 368.484,275 337.488,244 299.27,244 c -38.223,0 -69.219,31 -69.219,69.301 0,38.199 30.996,69.199 69.219,69.199 38.218,0 69.214,-31 69.214,-69.199"
         style="fill:#335285;fill-opacity:1;fill-rule:nonzero;stroke:none"
         id="path608" /><path
         d="M 1610.05,313.301 C 1610.05,275 1579.07,244 1540.85,244 c -38.24,0 -69.22,31 -69.22,69.301 0,38.199 30.98,69.199 69.22,69.199 38.22,0 69.2,-31 69.2,-69.199"
         style="fill:#335285;fill-opacity:1;fill-rule:nonzero;stroke:none"
         id="path610" /><path
         d="m 2234.18,382.5 c -38.24,0 -69.22,-31 -69.22,-69.199 0,-38.301 30.98,-69.301 69.22,-69.301 38.22,0 69.2,31 69.2,69.301 0,38.199 -30.98,69.199 -69.2,69.199"
         style="fill:#335285;fill-opacity:1;fill-rule:nonzero;stroke:none"
         id="path612" /><path
         d="m 3067.52,382.5 c -38.24,0 -69.22,-31 -69.22,-69.199 0,-38.301 30.98,-69.301 69.22,-69.301 38.22,0 69.2,31 69.2,69.301 0,38.199 -30.98,69.199 -69.2,69.199"
         style="fill:#335285;fill-opacity:1;fill-rule:nonzero;stroke:none"
         id="path614" /><path
         d="m 3900.85,382.5 c -38.24,0 -69.22,-31 -69.22,-69.199 0,-38.301 30.98,-69.301 69.22,-69.301 38.22,0 69.2,31 69.2,69.301 0,38.199 -30.98,69.199 -69.2,69.199"
         style="fill:#335285;fill-opacity:1;fill-rule:nonzero;stroke:none"
         id="path616" /><path
         d="m 2234.18,10684.2 c -38.24,0 -69.22,-31 -69.22,-69.2 0,-38.2 30.98,-69.2 69.22,-69.2 38.22,0 69.2,31 69.2,69.2 0,38.2 -30.98,69.2 -69.2,69.2"
         style="fill:#335285;fill-opacity:1;fill-rule:nonzero;stroke:none"
         id="path618" /><path
         d="m 3067.52,10684.2 c -38.24,0 -69.22,-31 -69.22,-69.2 0,-38.2 30.98,-69.2 69.22,-69.2 38.22,0 69.2,31 69.2,69.2 0,38.2 -30.98,69.2 -69.2,69.2"
         style="fill:#335285;fill-opacity:1;fill-rule:nonzero;stroke:none"
         id="path620" /><path
         d="m 3900.85,10684.2 c -38.24,0 -69.22,-31 -69.22,-69.2 0,-38.2 30.98,-69.2 69.22,-69.2 38.22,0 69.2,31 69.2,69.2 0,38.2 -30.98,69.2 -69.2,69.2"
         style="fill:#335285;fill-opacity:1;fill-rule:nonzero;stroke:none"
         id="path622" /><path
         d="M 4849.57,313.301 C 4849.57,275 4818.59,244 4780.37,244 c -38.24,0 -69.22,31 -69.22,69.301 0,38.199 30.98,69.199 69.22,69.199 38.22,0 69.2,-31 69.2,-69.199"
         style="fill:#335285;fill-opacity:1;fill-rule:nonzero;stroke:none"
         id="path624" /><path
         d="m 5767.03,382.5 c -38.24,0 -69.22,-31 -69.22,-69.199 0,-38.301 30.98,-69.301 69.22,-69.301 38.22,0 69.2,31 69.2,69.301 0,38.199 -30.98,69.199 -69.2,69.199"
         style="fill:#335285;fill-opacity:1;fill-rule:nonzero;stroke:none"
         id="path626" /><path
         d="m 6913.71,382.5 c -38.25,0 -69.23,-31 -69.23,-69.199 0,-38.301 30.98,-69.301 69.23,-69.301 38.21,0 69.2,31 69.2,69.301 0,38.199 -30.99,69.199 -69.2,69.199"
         style="fill:#335285;fill-opacity:1;fill-rule:nonzero;stroke:none"
         id="path628" /><path
         d="m 5767.03,10684.2 c -38.24,0 -69.22,-31 -69.22,-69.2 0,-38.2 30.98,-69.2 69.22,-69.2 38.22,0 69.2,31 69.2,69.2 0,38.2 -30.98,69.2 -69.2,69.2"
         style="fill:#335285;fill-opacity:1;fill-rule:nonzero;stroke:none"
         id="path630" /><path
         d="m 6913.71,10684.2 c -38.25,0 -69.23,-31 -69.23,-69.2 0,-38.2 30.98,-69.2 69.23,-69.2 38.21,0 69.2,31 69.2,69.2 0,38.2 -30.99,69.2 -69.2,69.2"
         style="fill:#335285;fill-opacity:1;fill-rule:nonzero;stroke:none"
         id="path632" /><path
         d="M 8129.57,313.301 C 8129.57,275 8098.59,244 8060.37,244 c -38.24,0 -69.22,31 -69.22,69.301 0,38.199 30.98,69.199 69.22,69.199 38.22,0 69.2,-31 69.2,-69.199"
         style="fill:#335285;fill-opacity:1;fill-rule:nonzero;stroke:none"
         id="path634" /><path
         d="M 9648.54,313.301 C 9648.54,275 9617.56,244 9579.34,244 c -38.25,0 -69.22,31 -69.22,69.301 0,38.199 30.97,69.199 69.22,69.199 38.22,0 69.2,-31 69.2,-69.199"
         style="fill:#335285;fill-opacity:1;fill-rule:nonzero;stroke:none"
         id="path636" /><path
         d="M 8938.54,313.301 C 8938.54,275 8907.56,244 8869.34,244 c -38.25,0 -69.22,31 -69.22,69.301 0,38.199 30.97,69.199 69.22,69.199 38.22,0 69.2,-31 69.2,-69.199"
         style="fill:#335285;fill-opacity:1;fill-rule:nonzero;stroke:none"
         id="path638" /><path
         d="m 8748.54,10615 c 0,-38.2 -30.98,-69.2 -69.2,-69.2 -38.25,0 -69.22,31 -69.22,69.2 0,38.2 30.97,69.2 69.22,69.2 38.22,0 69.2,-31 69.2,-69.2"
         style="fill:#335285;fill-opacity:1;fill-rule:nonzero;stroke:none"
         id="path640" /><path
         d="m 10158.5,313.301 c 0,-38.301 -30.9,-69.301 -69.2,-69.301 -38.2,0 -69.2,31 -69.2,69.301 0,38.199 31,69.199 69.2,69.199 38.3,0 69.2,-31 69.2,-69.199"
         style="fill:#335285;fill-opacity:1;fill-rule:nonzero;stroke:none"
         id="path642" /><path
         d="m 10798.5,313.301 c 0,-38.301 -30.9,-69.301 -69.2,-69.301 -38.2,0 -69.2,31 -69.2,69.301 0,38.199 31,69.199 69.2,69.199 38.3,0 69.2,-31 69.2,-69.199"
         style="fill:#335285;fill-opacity:1;fill-rule:nonzero;stroke:none"
         id="path644" /><path
         d="m 10798.5,10615 c 0,-38.2 -30.9,-69.2 -69.2,-69.2 -38.2,0 -69.2,31 -69.2,69.2 0,38.2 31,69.2 69.2,69.2 38.3,0 69.2,-31 69.2,-69.2"
         style="fill:#335285;fill-opacity:1;fill-rule:nonzero;stroke:none"
         id="path646" /><path
         d="m 8029.57,10615 c 0,-38.2 -30.98,-69.2 -69.2,-69.2 -38.24,0 -69.22,31 -69.22,69.2 0,38.2 30.98,69.2 69.22,69.2 38.22,0 69.2,-31 69.2,-69.2"
         style="fill:#335285;fill-opacity:1;fill-rule:nonzero;stroke:none"
         id="path648" /><path
         d="m 4969.57,10615 c 0,-38.2 -30.98,-69.2 -69.2,-69.2 -38.24,0 -69.22,31 -69.22,69.2 0,38.2 30.98,69.2 69.22,69.2 38.22,0 69.2,-31 69.2,-69.2"
         style="fill:#335285;fill-opacity:1;fill-rule:nonzero;stroke:none"
         id="path650" /><path
         d="m 958.484,10615 c 0,-38.2 -30.996,-69.2 -69.214,-69.2 -38.223,0 -69.219,31 -69.219,69.2 0,38.2 30.996,69.2 69.219,69.2 38.218,0 69.214,-31 69.214,-69.2"
         style="fill:#335285;fill-opacity:1;fill-rule:nonzero;stroke:none"
         id="path652" /><path
         d="m 1610.05,10615 c 0,-38.2 -30.98,-69.2 -69.2,-69.2 -38.24,0 -69.22,31 -69.22,69.2 0,38.2 30.98,69.2 69.22,69.2 38.22,0 69.2,-31 69.2,-69.2"
         style="fill:#335285;fill-opacity:1;fill-rule:nonzero;stroke:none"
         id="path654" /><path
         d="m 1714.27,5156.64 c 0,-38.22 -30.99,-69.22 -69.21,-69.22 -38.23,0 -69.22,31 -69.22,69.22 0,38.22 30.99,69.22 69.22,69.22 38.22,0 69.21,-31 69.21,-69.22"
         style="fill:#335285;fill-opacity:1;fill-rule:nonzero;stroke:none"
         id="path656" /><path
         d="m 1764.27,4586.64 c 0,-38.22 -30.99,-69.22 -69.21,-69.22 -38.23,0 -69.22,31 -69.22,69.22 0,38.22 30.99,69.22 69.22,69.22 38.22,0 69.21,-31 69.21,-69.22"
         style="fill:#335285;fill-opacity:1;fill-rule:nonzero;stroke:none"
         id="path658" /><path
         d="m 6054.27,5166.64 c 0,-38.22 -30.99,-69.22 -69.21,-69.22 -38.23,0 -69.22,31 -69.22,69.22 0,38.22 30.99,69.22 69.22,69.22 38.22,0 69.21,-31 69.21,-69.22"
         style="fill:#335285;fill-opacity:1;fill-rule:nonzero;stroke:none"
         id="path660" /><path
         d="m 4830.94,5163.31 c 0,-38.22 -31,-69.22 -69.22,-69.22 -38.23,0 -69.22,31 -69.22,69.22 0,38.22 30.99,69.22 69.22,69.22 38.22,0 69.22,-31 69.22,-69.22"
         style="fill:#335285;fill-opacity:1;fill-rule:nonzero;stroke:none"
         id="path662" /><path
         d="m 3607.6,5159.98 c 0,-38.23 -30.98,-69.23 -69.21,-69.23 -38.23,0 -69.22,31 -69.22,69.23 0,38.21 30.99,69.21 69.22,69.21 38.23,0 69.21,-31 69.21,-69.21"
         style="fill:#335285;fill-opacity:1;fill-rule:nonzero;stroke:none"
         id="path664" /><path
         d="m 2384.27,5156.64 c 0,-38.22 -30.99,-69.22 -69.21,-69.22 -38.23,0 -69.22,31 -69.22,69.22 0,38.22 30.99,69.22 69.22,69.22 38.22,0 69.21,-31 69.21,-69.22"
         style="fill:#335285;fill-opacity:1;fill-rule:nonzero;stroke:none"
         id="path666" /><path
         d="m 5884.27,4596.64 c 0,-38.22 -30.99,-69.22 -69.21,-69.22 -38.23,0 -69.22,31 -69.22,69.22 0,38.22 30.99,69.22 69.22,69.22 38.22,0 69.21,-31 69.21,-69.22"
         style="fill:#335285;fill-opacity:1;fill-rule:nonzero;stroke:none"
         id="path668" /><path
         d="m 4740.94,4593.31 c 0,-38.22 -31,-69.22 -69.22,-69.22 -38.22,0 -69.22,31 -69.22,69.22 0,38.22 31,69.22 69.22,69.22 38.22,0 69.22,-31 69.22,-69.22"
         style="fill:#335285;fill-opacity:1;fill-rule:nonzero;stroke:none"
         id="path670" /><path
         d="m 3597.6,4589.98 c 0,-38.23 -30.99,-69.23 -69.21,-69.23 -38.23,0 -69.21,31 -69.21,69.23 0,38.21 30.98,69.21 69.21,69.21 38.22,0 69.21,-31 69.21,-69.21"
         style="fill:#335285;fill-opacity:1;fill-rule:nonzero;stroke:none"
         id="path672" /><path
         d="m 2454.27,4586.64 c 0,-38.22 -30.99,-69.22 -69.21,-69.22 -38.23,0 -69.22,31 -69.22,69.22 0,38.22 30.99,69.22 69.22,69.22 38.22,0 69.21,-31 69.21,-69.22"
         style="fill:#335285;fill-opacity:1;fill-rule:nonzero;stroke:none"
         id="path674" /><path
         d="m 7574.27,3916.64 c 0,-38.22 -30.99,-69.22 -69.21,-69.22 -38.23,0 -69.22,31 -69.22,69.22 0,38.22 30.99,69.22 69.22,69.22 38.22,0 69.21,-31 69.21,-69.22"
         style="fill:#335285;fill-opacity:1;fill-rule:nonzero;stroke:none"
         id="path676" /><path
         d="m 6790.93,3916.64 c 0,-38.22 -30.99,-69.22 -69.21,-69.22 -38.22,0 -69.22,31 -69.22,69.22 0,38.22 31,69.22 69.22,69.22 38.22,0 69.21,-31 69.21,-69.22"
         style="fill:#335285;fill-opacity:1;fill-rule:nonzero;stroke:none"
         id="path678" /><path
         d="m 6007.6,3916.64 c 0,-38.22 -30.99,-69.22 -69.2,-69.22 -38.24,0 -69.23,31 -69.23,69.22 0,38.22 30.99,69.22 69.23,69.22 38.21,0 69.2,-31 69.2,-69.22"
         style="fill:#335285;fill-opacity:1;fill-rule:nonzero;stroke:none"
         id="path680" /><path
         d="m 5224.27,3916.64 c 0,-38.22 -30.99,-69.22 -69.21,-69.22 -38.23,0 -69.22,31 -69.22,69.22 0,38.22 30.99,69.22 69.22,69.22 38.22,0 69.21,-31 69.21,-69.22"
         style="fill:#335285;fill-opacity:1;fill-rule:nonzero;stroke:none"
         id="path682" /><path
         d="m 7574.27,3346.64 c 0,-38.22 -30.99,-69.22 -69.21,-69.22 -38.23,0 -69.22,31 -69.22,69.22 0,38.22 30.99,69.22 69.22,69.22 38.22,0 69.21,-31 69.21,-69.22"
         style="fill:#335285;fill-opacity:1;fill-rule:nonzero;stroke:none"
         id="path684" /><path
         d="m 6704.26,3346.64 c 0,-38.22 -30.98,-69.22 -69.2,-69.22 -38.23,0 -69.22,31 -69.22,69.22 0,38.22 30.99,69.22 69.22,69.22 38.22,0 69.2,-31 69.2,-69.22"
         style="fill:#335285;fill-opacity:1;fill-rule:nonzero;stroke:none"
         id="path686" /><path
         d="m 5834.27,3346.64 c 0,-38.22 -30.99,-69.22 -69.21,-69.22 -38.23,0 -69.22,31 -69.22,69.22 0,38.22 30.99,69.22 69.22,69.22 38.22,0 69.21,-31 69.21,-69.22"
         style="fill:#335285;fill-opacity:1;fill-rule:nonzero;stroke:none"
         id="path688" /><path
         d="m 4964.27,3346.64 c 0,-38.22 -30.99,-69.22 -69.21,-69.22 -38.23,0 -69.22,31 -69.22,69.22 0,38.22 30.99,69.22 69.22,69.22 38.22,0 69.21,-31 69.21,-69.22"
         style="fill:#335285;fill-opacity:1;fill-rule:nonzero;stroke:none"
         id="path690" /><path
         d="m 10914.3,3916.64 c 0,-38.22 -31,-69.22 -69.2,-69.22 -38.3,0 -69.3,31 -69.3,69.22 0,38.22 31,69.22 69.3,69.22 38.2,0 69.2,-31 69.2,-69.22"
         style="fill:#335285;fill-opacity:1;fill-rule:nonzero;stroke:none"
         id="path692" /><path
         d="m 10914.3,3346.64 c 0,-38.22 -31,-69.22 -69.2,-69.22 -38.3,0 -69.3,31 -69.3,69.22 0,38.22 31,69.22 69.3,69.22 38.2,0 69.2,-31 69.2,-69.22"
         style="fill:#335285;fill-opacity:1;fill-rule:nonzero;stroke:none"
         id="path694" /><path
         d="m 3814.27,6316.64 c 0,-38.22 -30.99,-69.22 -69.21,-69.22 -38.23,0 -69.22,31 -69.22,69.22 0,38.22 30.99,69.22 69.22,69.22 38.22,0 69.21,-31 69.21,-69.22"
         style="fill:#335285;fill-opacity:1;fill-rule:nonzero;stroke:none"
         id="path696" /><path
         d="m 2910.94,6316.64 c 0,-38.22 -31,-69.21 -69.22,-69.21 -38.22,0 -69.22,30.99 -69.22,69.21 0,38.22 31,69.22 69.22,69.22 38.22,0 69.22,-31 69.22,-69.22"
         style="fill:#335285;fill-opacity:1;fill-rule:nonzero;stroke:none"
         id="path698" /><path
         d="m 2007.6,6316.64 c 0,-38.22 -30.99,-69.22 -69.21,-69.22 -38.23,0 -69.21,31 -69.21,69.22 0,38.22 30.98,69.22 69.21,69.22 38.22,0 69.21,-31 69.21,-69.22"
         style="fill:#335285;fill-opacity:1;fill-rule:nonzero;stroke:none"
         id="path700" /><path
         d="m 1104.27,6316.64 c 0,-38.22 -30.99,-69.22 -69.21,-69.22 -38.236,0 -69.22,31 -69.22,69.22 0,38.22 30.984,69.22 69.22,69.22 38.22,0 69.21,-31 69.21,-69.22"
         style="fill:#335285;fill-opacity:1;fill-rule:nonzero;stroke:none"
         id="path702" /><path
         d="m 3814.27,5746.64 c 0,-38.22 -30.99,-69.22 -69.21,-69.22 -38.23,0 -69.22,31 -69.22,69.22 0,38.22 30.99,69.22 69.22,69.22 38.22,0 69.21,-31 69.21,-69.22"
         style="fill:#335285;fill-opacity:1;fill-rule:nonzero;stroke:none"
         id="path704" /><path
         d="m 2841.72,5815.86 c -38.22,0 -69.22,-31 -69.22,-69.22 0,-38.22 31,-69.21 69.22,-69.21 38.22,0 69.22,30.99 69.22,69.21 0,38.22 -31,69.22 -69.22,69.22"
         style="fill:#335285;fill-opacity:1;fill-rule:nonzero;stroke:none"
         id="path706" /><path
         d="m 1938.39,5815.86 c -38.23,0 -69.21,-31 -69.21,-69.22 0,-38.22 30.98,-69.22 69.21,-69.22 38.22,0 69.21,31 69.21,69.22 0,38.22 -30.99,69.22 -69.21,69.22"
         style="fill:#335285;fill-opacity:1;fill-rule:nonzero;stroke:none"
         id="path708" /><path
         d="m 945.84,5225.86 c -38.235,0 -69.219,-31 -69.219,-69.22 0,-38.22 30.984,-69.22 69.219,-69.22 38.223,0 69.21,31 69.21,69.22 0,38.22 -30.987,69.22 -69.21,69.22"
         style="fill:#335285;fill-opacity:1;fill-rule:nonzero;stroke:none"
         id="path710" /><path
         d="m 162.5,5225.86 c -38.223,0 -69.2109,-31 -69.2109,-69.22 0,-38.22 30.9879,-69.22 69.2109,-69.22 38.223,0 69.219,31 69.219,69.22 0,38.22 -30.996,69.22 -69.219,69.22"
         style="fill:#335285;fill-opacity:1;fill-rule:nonzero;stroke:none"
         id="path712" /><path
         d="m 945.84,4655.86 c -38.235,0 -69.219,-31 -69.219,-69.22 0,-38.22 30.984,-69.22 69.219,-69.22 38.223,0 69.21,31 69.21,69.22 0,38.22 -30.987,69.22 -69.21,69.22"
         style="fill:#335285;fill-opacity:1;fill-rule:nonzero;stroke:none"
         id="path714" /><path
         d="m 162.5,4655.86 c -38.223,0 -69.2109,-31 -69.2109,-69.22 0,-38.22 30.9879,-69.22 69.2109,-69.22 38.223,0 69.219,31 69.219,69.22 0,38.22 -30.996,69.22 -69.219,69.22"
         style="fill:#335285;fill-opacity:1;fill-rule:nonzero;stroke:none"
         id="path716" /><path
         d="m 1104.27,5746.64 c 0,-38.22 -30.99,-69.22 -69.21,-69.22 -38.236,0 -69.22,31 -69.22,69.22 0,38.22 30.984,69.22 69.22,69.22 38.22,0 69.21,-31 69.21,-69.22"
         style="fill:#335285;fill-opacity:1;fill-rule:nonzero;stroke:none"
         id="path718" /><path
         d="m 564.27,6316.64 c 0,-38.22 -30.989,-69.22 -69.211,-69.22 -38.235,0 -69.219,31 -69.219,69.22 0,38.22 30.984,69.22 69.219,69.22 38.222,0 69.211,-31 69.211,-69.22"
         style="fill:#335285;fill-opacity:1;fill-rule:nonzero;stroke:none"
         id="path720" /><path
         d="m 564.27,5746.64 c 0,-38.22 -30.989,-69.22 -69.211,-69.22 -38.235,0 -69.219,31 -69.219,69.22 0,38.22 30.984,69.22 69.219,69.22 38.222,0 69.211,-31 69.211,-69.22"
         style="fill:#335285;fill-opacity:1;fill-rule:nonzero;stroke:none"
         id="path722" /><path
         d="m 614.27,7536.64 c 0,-38.22 -30.989,-69.22 -69.211,-69.22 -38.235,0 -69.219,31 -69.219,69.22 0,38.22 30.984,69.22 69.219,69.22 38.222,0 69.211,-31 69.211,-69.22"
         style="fill:#335285;fill-opacity:1;fill-rule:nonzero;stroke:none"
         id="path724" /><path
         d="m 1484.26,7536.64 c 0,-38.22 -30.98,-69.22 -69.2,-69.22 -38.23,0 -69.22,31 -69.22,69.22 0,38.23 30.99,69.22 69.22,69.22 38.22,0 69.2,-30.99 69.2,-69.22"
         style="fill:#335285;fill-opacity:1;fill-rule:nonzero;stroke:none"
         id="path726" /><path
         d="m 2354.27,7536.64 c 0,-38.22 -30.99,-69.22 -69.21,-69.22 -38.23,0 -69.22,31 -69.22,69.22 0,38.22 30.99,69.22 69.22,69.22 38.22,0 69.21,-31 69.21,-69.22"
         style="fill:#335285;fill-opacity:1;fill-rule:nonzero;stroke:none"
         id="path728" /><path
         d="m 3224.27,7536.64 c 0,-38.22 -30.99,-69.22 -69.21,-69.22 -38.23,0 -69.22,31 -69.22,69.22 0,38.22 30.99,69.22 69.22,69.22 38.22,0 69.21,-31 69.21,-69.22"
         style="fill:#335285;fill-opacity:1;fill-rule:nonzero;stroke:none"
         id="path730" /><path
         d="m 614.27,6966.64 c 0,-38.22 -30.989,-69.22 -69.211,-69.22 -38.235,0 -69.219,31 -69.219,69.22 0,38.22 30.984,69.22 69.219,69.22 38.222,0 69.211,-31 69.211,-69.22"
         style="fill:#335285;fill-opacity:1;fill-rule:nonzero;stroke:none"
         id="path732" /><path
         d="m 1390.93,6966.64 c 0,-38.22 -30.99,-69.22 -69.21,-69.22 -38.22,0 -69.22,31 -69.22,69.22 0,38.23 31,69.22 69.22,69.22 38.22,0 69.21,-30.99 69.21,-69.22"
         style="fill:#335285;fill-opacity:1;fill-rule:nonzero;stroke:none"
         id="path734" /><path
         d="m 2167.6,6966.64 c 0,-38.22 -30.99,-69.22 -69.2,-69.22 -38.24,0 -69.23,31 -69.23,69.22 0,38.22 30.99,69.22 69.23,69.22 38.21,0 69.2,-31 69.2,-69.22"
         style="fill:#335285;fill-opacity:1;fill-rule:nonzero;stroke:none"
         id="path736" /><path
         d="m 2944.27,6966.64 c 0,-38.22 -30.99,-69.22 -69.21,-69.22 -38.23,0 -69.22,31 -69.22,69.22 0,38.22 30.99,69.22 69.22,69.22 38.22,0 69.21,-31 69.21,-69.22"
         style="fill:#335285;fill-opacity:1;fill-rule:nonzero;stroke:none"
         id="path738" /><path
         d="m 3834.27,7536.64 c 0,-38.22 -30.99,-69.22 -69.21,-69.22 -38.23,0 -69.22,31 -69.22,69.22 0,38.22 30.99,69.22 69.22,69.22 38.22,0 69.21,-31 69.21,-69.22"
         style="fill:#335285;fill-opacity:1;fill-rule:nonzero;stroke:none"
         id="path740" /><path
         d="m 3584.27,6966.64 c 0,-38.22 -30.99,-69.22 -69.21,-69.22 -38.23,0 -69.22,31 -69.22,69.22 0,38.22 30.99,69.22 69.22,69.22 38.22,0 69.21,-31 69.21,-69.22"
         style="fill:#335285;fill-opacity:1;fill-rule:nonzero;stroke:none"
         id="path742" /><path
         d="m 6034.27,7536.64 c 0,-38.22 -30.99,-69.22 -69.21,-69.22 -38.23,0 -69.22,31 -69.22,69.22 0,38.22 30.99,69.22 69.22,69.22 38.22,0 69.21,-31 69.21,-69.22"
         style="fill:#335285;fill-opacity:1;fill-rule:nonzero;stroke:none"
         id="path744" /><path
         d="m 6034.27,6966.64 c 0,-38.22 -30.99,-69.22 -69.21,-69.22 -38.23,0 -69.22,31 -69.22,69.22 0,38.22 30.99,69.22 69.22,69.22 38.22,0 69.21,-31 69.21,-69.22"
         style="fill:#335285;fill-opacity:1;fill-rule:nonzero;stroke:none"
         id="path746" /></g></g></svg>
