<?xml version="1.0" encoding="UTF-8" standalone="no"?>
<svg
   xmlns:dc="http://purl.org/dc/elements/1.1/"
   xmlns:cc="http://creativecommons.org/ns#"
   xmlns:rdf="http://www.w3.org/1999/02/22-rdf-syntax-ns#"
   xmlns:svg="http://www.w3.org/2000/svg"
   xmlns="http://www.w3.org/2000/svg"
   xmlns:sodipodi="http://sodipodi.sourceforge.net/DTD/sodipodi-0.dtd"
   xmlns:inkscape="http://www.inkscape.org/namespaces/inkscape"
   sodipodi:docname="sand1.svg"
   inkscape:version="1.0 (4035a4fb49, 2020-05-01)"
   id="svg1685"
   version="1.1"
   viewBox="0 0 105.83333 105.83333"
   height="105.83333mm"
   width="105.83333mm">
  <defs
     id="defs1679" />
  <sodipodi:namedview
     inkscape:window-maximized="1"
     inkscape:window-y="-8"
     inkscape:window-x="-8"
     inkscape:window-height="996"
     inkscape:window-width="1920"
     showgrid="false"
     inkscape:document-rotation="0"
     inkscape:current-layer="layer1"
     inkscape:document-units="mm"
     inkscape:cy="354.28571"
     inkscape:cx="317.14285"
     inkscape:zoom="0.35"
     inkscape:pageshadow="2"
     inkscape:pageopacity="0.0"
     borderopacity="1.0"
     bordercolor="#666666"
     pagecolor="#ffffff"
     id="base" />
  <metadata
     id="metadata1682">
    <rdf:RDF>
      <cc:Work
         rdf:about="">
        <dc:format>image/svg+xml</dc:format>
        <dc:type
           rdf:resource="http://purl.org/dc/dcmitype/StillImage" />
        <dc:title></dc:title>
      </cc:Work>
    </rdf:RDF>
  </metadata>
  <g
     transform="translate(-21.922621,-54.428573)"
     id="layer1"
     inkscape:groupmode="layer"
     inkscape:label="Layer 1">
    <path
       id="path2000"
       style="fill:#cc873c;fill-opacity:1;fill-rule:nonzero;stroke:none;stroke-width:0.0352777"
       d="M 21.922621,54.428573 H 127.75595 V 160.2619 H 21.922621 V 54.428573" />
    <path
       id="path2002"
       style="fill:#e5b166;fill-opacity:1;fill-rule:nonzero;stroke:none;stroke-width:0.0352777"
       d="m 38.041531,106.02585 c 5.020733,0.27869 7.381734,1.5628 8.900195,1.92264 1.51846,0.3563 4.571366,0.61736 6.312676,0.8643 1.740993,0.24342 10.673469,1.24884 12.422539,1.26295 1.749074,0.0177 14.887927,-0.42686 17.292815,-0.4057 2.405237,0.0247 11.588044,0.11289 15.746587,0.0388 4.158187,-0.0776 9.211027,-0.71614 11.850867,-1.15005 2.63983,-0.43392 12.27208,-0.68439 12.27208,-0.68439 0,0 -11.53196,-1.7145 -13.94496,-1.50989 -2.41335,0.20814 -10.928345,-0.21872 -12.673537,-0.35278 -1.744837,-0.13053 -9.989253,-2.04258 -11.305116,-1.94028 -1.315861,0.10231 -7.044971,1.30528 -8.3566,1.2947 -1.311979,-0.0141 -11.150952,-0.10937 -14.207771,-0.25048 -2.622902,-0.12347 -7.011953,-1.50636 -9.754941,-2.50472 -1.295752,-0.46919 -20.051006,-2.02847 -23.545305,-2.17664 -1.621649,-0.067 -4.335293,0.0988 -7.128439,0.32103 v 4.62844 c 2.020894,0.16228 4.100336,0.29987 4.757384,0.30339 1.31191,0.0141 6.340793,0.0635 11.361526,0.33867" />
    <path
       id="path2004"
       style="fill:#e5b166;fill-opacity:1;fill-rule:nonzero;stroke:none;stroke-width:0.0352777"
       d="m 99.714706,99.178433 c -1.740958,-0.243416 -6.15809,0.973667 -8.789813,1.178277 -2.63172,0.20461 -11.564053,-0.800804 -11.564053,-0.800804 0,0 4.332816,1.188864 8.68962,1.689804 4.356806,0.50095 3.688998,0.83961 7.203371,0.41275 3.514019,-0.42333 4.829879,-0.52564 9.826629,0.44097 4.99674,0.96309 10.66164,1.59103 11.75067,1.71803 1.08938,0.12347 2.84233,0.0282 3.71686,0.0353 0.87489,0.007 1.93993,0.82197 2.80635,1.05833 0.43251,0.11995 2.38795,0.31045 4.40161,0.47272 v -4.62844 c -3.22509,0.25047 -6.55637,0.5715 -8.43527,0.67733 -3.50661,0.19403 -17.86466,-2.007303 -19.605974,-2.254247" />
    <path
       id="path2006"
       style="fill:#e5b166;fill-opacity:1;fill-rule:nonzero;stroke:none;stroke-width:0.0352777"
       d="m 30.977297,96.021073 c 11.046072,0.246944 15.27556,-2.215446 23.753657,-2.836333 3.260725,-0.23989 10.583334,0.246943 15.051969,-0.864307 4.468283,-1.11125 6.104818,-0.691443 14.581362,-0.246943 8.331906,0.437443 13.904031,0.620887 16.630295,0.69497 -4.111622,-0.261054 -10.580155,-1.464027 -16.865597,-2.543527 -4.557535,-0.786693 -17.638887,0.860777 -19.28495,0.860777 -1.646412,0 -13.640858,0 -15.287202,0 -1.646201,0 -18.579534,-1.10772 -20.931433,-1.231193 -1.225091,-0.0635 -3.747438,0.116416 -6.702777,0.335139 v 6.854471 c 2.446016,-0.373944 5.172463,-1.11125 9.054676,-1.023054" />
    <path
       id="path2008"
       style="fill:#e5b166;fill-opacity:1;fill-rule:nonzero;stroke:none;stroke-width:0.0352777"
       d="m 102.94403,92.814323 c 0,0 -0.65581,-0.01058 -1.94945,-0.04586 0.72778,0.04586 1.38324,0.0635 1.94945,0.04586" />
    <path
       id="path2010"
       style="fill:#e5b166;fill-opacity:1;fill-rule:nonzero;stroke:none;stroke-width:0.0352777"
       d="m 96.358731,91.703073 c 8.466669,0.493887 12.229749,1.852083 15.992469,3.577167 3.76308,1.725083 6.11505,0.370416 10.34839,1.60161 1.74942,0.511527 3.33339,0.42686 5.05636,0.162277 v -6.854471 c -2.71815,0.201084 -5.80284,0.430387 -8.58414,0.529167 -12.51726,0.433917 -22.813079,0.98425 -22.813079,0.98425" />
    <path
       id="path2012"
       style="fill:#e5b166;fill-opacity:1;fill-rule:nonzero;stroke:none;stroke-width:0.0352777"
       d="m 97.53454,75.6411 c -4.493684,1.329972 -10.11273,2.959806 -13.875809,2.836333 -3.763081,-0.123472 -8.231365,0 -12.7,1.728612 -4.468635,1.725082 -4.882798,1.220611 -10.113081,2.712861 -8.337762,2.377721 -28.22215,5.796137 -32.690575,4.684887 5.644445,2.218974 12.935091,1.481667 21.166666,0.864307 8.231434,-0.61736 17.403657,0.246943 23.753657,-4.564944 6.35,-4.808361 17.516475,-4.004028 22.107525,-3.450167 12.944117,1.552221 17.921107,-1.199444 21.636917,-1.975556 2.49202,-0.518583 8.46667,-0.123472 10.81864,-0.123472 0.0346,0 0.0787,0 0.11747,0 v -3.806472 c -1.33138,-0.02117 -2.70404,-0.0635 -4.11586,-0.137583 -13.87581,-0.740834 -20.78602,-0.338667 -26.10555,1.231194" />
    <path
       id="path2014"
       style="fill:#e5b166;fill-opacity:1;fill-rule:nonzero;stroke:none;stroke-width:0.0352777"
       d="m 21.922621,74.547489 v 3.806472 c 2.606971,-0.05997 14.778778,-2.021416 20.108333,-5.425722 0,0 -8.352155,1.792111 -20.108333,1.61925" />
    <path
       id="path2016"
       style="fill:#e5b166;fill-opacity:1;fill-rule:nonzero;stroke:none;stroke-width:0.0352777"
       d="m 82.655783,61.117239 c 4.255207,-0.07761 12.280548,1.8415 18.859147,1.150056 6.57895,-0.687917 10.30675,-1.608667 16.22778,-2.413 3.74438,-0.508 7.13669,-0.511528 10.01324,-0.328083 v -2.201334 c -0.0476,0 -0.0984,0 -0.14499,0 -4.80766,-0.07408 -10.88602,0 -14.91192,0.112889 -5.47476,0.155223 -9.86825,-0.687916 -15.569842,0.575028 -5.701596,1.266472 -9.881307,1.432278 -11.842046,1.266472 -4.204052,-0.352777 -11.403187,2.070806 -16.885354,0.112889 -0.657932,2.070806 9.467495,1.816806 14.253985,1.725083" />
    <path
       id="path2018"
       style="fill:#e5b166;fill-opacity:1;fill-rule:nonzero;stroke:none;stroke-width:0.0352777"
       d="m 46.338159,60.200017 c 3.013356,-0.620889 8.540256,1.097139 12.938337,2.529417 3.216979,1.044222 5.538258,0.892528 13.815483,2.413 2.650064,0.486833 3.594804,0.335139 5.920669,0.691444 3.4544,0.525639 6.14045,2.183695 10.087679,1.033639 -5.701594,0.229306 -6.158442,-0.874889 -12.280546,-2.183694 -2.600325,-0.557389 -4.845402,-0.201084 -7.675033,-1.612195 -6.533798,-3.256139 -11.102623,-3.975805 -19.078575,-4.826 -3.397285,-0.366888 -3.947266,-1.841499 -8.552392,-2.416527 -4.56131,-0.567972 -14.613678,1.527527 -19.59116,1.495777 v 2.201334 c 1.671697,0.105833 3.170315,0.271639 4.460028,0.440972 3.508622,0.462139 15.104392,1.231194 19.95551,0.232833" />
    <path
       id="path2020"
       style="fill:#e5b166;fill-opacity:1;fill-rule:nonzero;stroke:none;stroke-width:0.0352777"
       d="m 45.470537,70.494072 c 7.177652,1.033639 13.387211,0.01411 15.081251,0.232834 9.607902,1.224139 13.790083,-0.807861 16.404164,1.061861 2.614083,1.869722 21.960416,2.035528 31.397218,0.278694 -12.973045,0.998361 -30.410852,-1.756833 -35.479914,-3.294944 -1.2954,-0.391583 -2.741083,-0.624417 -4.233685,-0.677333 -2.119138,-0.08114 -3.78813,-0.218723 -5.14209,-0.462139 -1.509183,-0.268111 -3.040591,-0.504472 -4.611158,-0.649111 -3.949912,-0.359834 -8.85684,-1.449917 -11.941704,-1.178278 -5.783086,0.508 -17.709974,-0.811389 -25.021998,-1.273528 v 5.68325 c 1.358057,0.03881 2.571418,0.07056 3.57766,0.109361 8.821385,0.345722 14.455775,-0.624416 19.970256,0.169333" />
    <path
       id="path2022"
       style="fill:#e5b166;fill-opacity:1;fill-rule:nonzero;stroke:none;stroke-width:0.0352777"
       d="m 108.85377,63.650184 c -7.95056,-0.0635 -12.952593,-0.01058 -15.524695,-0.306917 -3.137959,-0.359833 -19.312819,-0.649111 -19.312819,-0.649111 2.145946,1.273528 8.276519,1.146528 11.523837,1.725083 3.247673,0.582084 5.015442,0.79375 8.160809,1.710973 6.098471,1.774472 10.696928,2.663472 15.444608,3.143249 6.20289,0.627945 13.4613,0.804334 18.61044,0.941917 v -5.693833 c -0.40569,-0.02117 -0.8001,-0.03881 -1.1751,-0.05997 -4.29084,-0.229308 -12.94448,-0.772586 -17.72708,-0.811391" />
    <path
       id="path2024"
       style="fill:#e5b166;fill-opacity:1;fill-rule:nonzero;stroke:none;stroke-width:0.0352777"
       d="m 115.90862,111.98427 c -2.40489,-0.0247 -11.58805,-0.11289 -15.74624,-0.0388 -4.158545,0.0741 -9.21138,0.71614 -11.850864,1.14652 -2.639835,0.43392 -12.272433,0.68439 -12.272433,0.68439 0,0 11.531952,1.71803 13.945307,1.51342 2.413,-0.20814 10.92799,0.21872 12.67319,0.34925 1.74519,0.13053 9.98925,2.04611 11.30511,1.94381 1.31622,-0.10231 7.04498,-1.30881 8.35695,-1.2947 0.58138,0.004 2.8381,0.0282 5.43631,0.0635 v -4.65314 c -4.51167,0.127 -10.32581,0.29986 -11.84733,0.28575" />
    <path
       id="path2026"
       style="fill:#e5b166;fill-opacity:1;fill-rule:nonzero;stroke:none;stroke-width:0.0352777"
       d="m 40.448675,119.04335 c 1.295788,0.46919 20.051254,2.02494 23.545516,2.17311 3.494265,0.14817 12.057592,-0.80081 15.56385,-0.99483 3.506259,-0.19756 17.864667,2.0073 19.605625,2.25072 1.740954,0.24694 6.158094,-0.97014 8.789814,-1.17475 2.63172,-0.20461 11.56405,0.79728 11.56405,0.79728 0,0 -4.33281,-1.18886 -8.68962,-1.68981 -4.3568,-0.49742 -3.68864,-0.83608 -7.20302,-0.41275 -3.51437,0.42686 -4.83023,0.52917 -9.826974,-0.43744 -4.996743,-0.96661 -10.661298,-1.59456 -11.750675,-1.71803 -1.089025,-0.127 -2.842331,-0.0282 -3.716866,-0.0353 -0.874535,-0.0106 -1.939573,-0.82197 -2.806348,-1.06186 -0.866421,-0.23636 -7.847187,-0.762 -9.158814,-0.77611 -1.311982,-0.0106 -6.34083,-0.06 -11.361563,-0.33867 -5.020874,-0.27516 -7.381733,-1.55928 -8.900194,-1.91911 -1.518462,-0.35983 -4.571506,-0.61736 -6.3125,-0.8643 -1.74117,-0.24695 -10.673468,-1.24884 -12.422611,-1.26648 -0.642726,-0.007 -2.82497,0.0494 -5.445724,0.12348 v 4.65313 c 3.264711,0.0423 7.069208,0.10584 8.77136,0.18698 2.622656,0.12347 7.011847,1.50636 9.754694,2.50472" />
    <path
       id="path2028"
       style="fill:#e5b166;fill-opacity:1;fill-rule:nonzero;stroke:none;stroke-width:0.0352777"
       d="m 95.934691,128.83999 c 0,0 0.655461,0.0102 1.949099,0.0452 -0.727782,-0.0462 -1.383242,-0.0639 -1.949099,-0.0452" />
    <path
       id="path2030"
       style="fill:#e5b166;fill-opacity:1;fill-rule:nonzero;stroke:none;stroke-width:0.0352777"
       d="m 114.51408,129.57976 c -8.33155,-0.43603 -13.90402,-0.62088 -16.63029,-0.69462 4.11198,0.26141 10.58016,1.46333 16.8656,2.54459 2.71639,0.46708 8.46031,0.0709 13.00656,-0.32561 v -1.46791 c -3.55282,0.71649 -5.66632,0.34008 -13.24187,-0.0565" />
    <path
       id="path2032"
       style="fill:#e5b166;fill-opacity:1;fill-rule:nonzero;stroke:none;stroke-width:0.0352777"
       d="m 43.488244,130.56648 c 1.646343,0 18.579781,1.10984 20.931397,1.23296 2.351972,0.12347 9.481609,-0.66146 15.287274,-0.86325 12.516908,-0.43462 22.812725,-0.98636 22.812725,-0.98636 -8.466665,-0.49319 -12.229392,-1.84962 -15.992474,-3.57611 -3.763081,-1.72826 -6.114698,-0.37007 -10.348031,-1.60479 -4.233331,-1.23119 -7.49441,1.01318 -14.11111,0.86466 -11.046212,-0.24765 -15.275665,2.21368 -23.753761,2.83634 -3.260866,0.23953 -10.583334,-0.2466 -15.051913,0.86324 -0.47515,0.11818 -0.916947,0.21767 -1.33973,0.30304 v 1.46791 c 3.08157,-0.26882 5.613576,-0.53764 6.278633,-0.53764 1.646343,0 13.640787,0 15.28699,0" />
    <path
       id="path2034"
       style="fill:#e5b166;fill-opacity:1;fill-rule:nonzero;stroke:none;stroke-width:0.0352777"
       d="m 85.98671,141.20168 c -12.94412,-1.55399 -17.921462,1.19909 -21.636919,1.97308 -2.492375,0.51894 -8.466806,0.12347 -10.818706,0.12347 -2.351897,0 -14.816666,1.97309 -20.225878,5.42572 0,0 10.348101,-2.21967 24.223981,-1.47955 13.87616,0.73978 20.786018,0.33832 26.105553,-1.23331 4.494036,-1.3275 10.113082,-2.95945 13.876161,-2.83633 3.762728,0.12347 8.231368,0 12.699998,-1.72649 4.46828,-1.72614 4.88244,-1.22062 10.11273,-2.71287 1.95756,-0.55844 4.55119,-1.17404 7.43232,-1.77482 v -3.55953 c -7.06014,0.27094 -14.34888,0.32385 -19.66172,4.34799 -6.35,4.80906 -17.516822,4.00403 -22.10752,3.45264" />
    <path
       id="path2036"
       style="fill:#e5b166;fill-opacity:1;fill-rule:nonzero;stroke:none;stroke-width:0.0352777"
       d="m 102.07091,83.1976 c -2.196395,0.433917 -7.411158,-0.292807 -9.468204,-0.409223 -2.057048,-0.116417 -13.044665,1.241779 -17.924285,4.427363 0,0 9.146469,-1.710973 21.251685,-0.28928 12.105214,1.418167 18.166644,1.358196 22.887164,0.04939 2.79964,-0.77611 6.08894,-1.672167 8.93868,-2.032 v -1.598083 c -3.73451,-0.34925 -7.47783,-0.564444 -11.22962,-0.575027 -7.08272,-0.02117 -5.76686,-1.294697 -14.45542,0.42686" />
    <path
       id="path2038"
       style="fill:#e5b166;fill-opacity:1;fill-rule:nonzero;stroke:none;stroke-width:0.0352777"
       d="m 25.242866,84.823906 c 2.295659,0.215194 4.898101,0.324554 7.615866,-0.141113 -3.637598,-0.529166 -7.28278,-0.994833 -10.936111,-1.337026 v 1.598083 c 1.209368,-0.151694 2.341287,-0.211667 3.320245,-0.119944" />
    <path
       id="path2040"
       style="fill:#e5b166;fill-opacity:1;fill-rule:nonzero;stroke:none;stroke-width:0.0352777"
       d="m 42.440494,142.21591 c 3.877274,-1.44603 8.726592,-3.22615 12.02697,-3.20357 2.305756,0.0159 4.907809,-0.0998 7.575161,-0.79834 -7.421208,-0.4318 -14.851732,-0.60995 -22.248212,0.009 -7.057777,0.5909 -5.85724,-0.78987 -14.364409,1.67499 -0.828064,0.23986 -2.117908,0.3464 -3.507383,0.3905 v 3.91547 c 10.668494,0.22825 16.225167,-0.38735 20.517873,-1.98825" />
    <path
       id="path2042"
       style="fill:#e5b166;fill-opacity:1;fill-rule:nonzero;stroke:none;stroke-width:0.0352777"
       d="m 121.79542,140.3102 c -2.05917,0.0628 -12.88839,2.36644 -17.4745,5.95948 0,0 8.96479,-2.49343 21.14727,-2.12478 0.78845,0.0236 1.54975,0.0434 2.28776,0.0593 v -3.91548 c -2.21897,0.0709 -4.69406,-0.0169 -5.96053,0.0215" />
    <path
       id="path2044"
       style="fill:#e5b166;fill-opacity:1;fill-rule:nonzero;stroke:none;stroke-width:0.0352777"
       d="m 121.92242,149.86484 c -2.61409,-1.87078 -21.960418,-2.03483 -31.397222,-0.27764 12.973402,-1.00048 30.410852,1.75754 35.480272,3.29354 0.55703,0.16897 1.14617,0.30162 1.75048,0.40922 v -2.66347 c -2.71462,0.12946 -4.48416,0.20355 -5.83353,-0.76165" />
    <path
       id="path2046"
       style="fill:#e5b166;fill-opacity:1;fill-rule:nonzero;stroke:none;stroke-width:0.0352777"
       d="m 31.60817,154.54867 c 6.702354,1.03116 11.425731,0.9592 14.492393,1.29822 6.055924,0.66957 19.055327,0.96343 26.197312,1.34443 4.290483,0.22931 12.944123,0.77294 17.727083,0.81139 7.9502,0.0639 12.952592,0.0109 15.524692,0.30692 3.13761,0.36124 19.31282,0.64946 19.31282,0.64946 -2.1463,-1.27247 -8.27688,-1.14476 -11.52419,-1.72614 -3.24732,-0.58173 -5.01545,-0.79304 -8.16046,-1.70886 -6.098468,-1.77588 -10.697279,-2.66593 -15.444962,-3.14571 -7.838723,-0.79199 -17.366192,-0.86254 -22.187958,-1.05128 -8.82156,-0.34537 -15.026251,0.74119 -19.618289,0.55245 -8.855145,-0.36406 -15.125488,0.57503 -16.863448,0.50236 -4.575527,-0.19191 -5.694757,1.75365 -8.308897,-0.11677 -0.275608,-0.1972 -0.553144,-0.37748 -0.831645,-0.54751 v 1.88771 c 3.956226,1.32044 7.360637,0.58561 9.685549,0.94333" />
    <path
       id="path2048"
       style="fill:#e5b166;fill-opacity:1;fill-rule:nonzero;stroke:none;stroke-width:0.0352777"
       d="m 47.181086,134.04946 c -5.644445,-2.21968 -12.935232,-1.47991 -21.166667,-0.86325 -1.344266,0.10089 -2.71376,0.16193 -4.091798,0.21484 v 3.55953 c 9.392002,-1.95862 21.839025,-3.76026 25.258465,-2.91112" />
    <path
       id="path2050"
       style="fill:#e5b166;fill-opacity:1;fill-rule:nonzero;stroke:none;stroke-width:0.0352777"
       d="m 48.616185,79.595739 c 3.998103,0.232833 11.523911,1.17475 13.640578,0.705556 2.116666,-0.472723 7.055553,-4.233334 8.231716,-4.233334 1.175809,0 8.936919,0.469195 13.640504,-0.472722 0,0 -6.58495,-0.469194 -8.466667,-1.411111 -1.881362,-0.938389 -7.76111,-0.232833 -9.642475,-0.232833 -1.881362,0 -12.229676,2.116666 -13.640786,1.880305 -1.411111,-0.236361 -7.525879,-0.469194 -8.466667,-0.236361 -0.940647,0.236361 -7.525879,3.058583 -8.701757,3.294944 -1.17602,0.232834 -9.877778,0.469195 -9.877778,0.469195 0,0 9.642545,2.116665 11.994444,1.880305 2.351758,-0.232833 7.290647,-1.880305 11.288888,-1.643944" />
    <path
       id="path2052"
       style="fill:#e5b166;fill-opacity:1;fill-rule:nonzero;stroke:none;stroke-width:0.0352777"
       d="M 90.008731,96.529073 C 86.480952,96.29271 80.601206,95.587156 78.24959,94.8816 c -2.351972,-0.705557 -9.642827,1.17475 -11.524192,1.41111 -1.881365,0.236363 -11.994444,-0.941917 -13.405557,-0.941917 -1.41111,0 -8.701897,2.35303 -9.642544,2.58939 -0.940788,0.232834 -7.055555,-0.23636 -7.055555,-0.23636 0,0 7.761111,2.585857 10.818424,2.116667 3.057455,-0.469197 7.996342,-1.880307 10.818565,-0.941917 2.822223,0.941917 10.818635,1.411107 12.7,0.705554 1.881365,-0.705554 3.527777,-2.3495 5.879746,-2.58586 2.351616,-0.236361 4.938889,0.23636 6.35,0.469193 1.411113,0.236363 6.820254,-0.938387 6.820254,-0.938387" />
    <path
       id="path2054"
       style="fill:#bd6929;fill-opacity:1;fill-rule:nonzero;stroke:none;stroke-width:0.0352777"
       d="m 96.358731,135.30711 c -5.409141,-3.05752 -7.525808,-2.11667 -11.28889,-2.82222 0,0 -3.527776,2.35197 -6.35,3.29247 -1.175808,-0.23495 -5.409141,0 -8.231362,1.88172 -1.646414,-0.2353 -5.115279,1.3522 -6.761691,2.52801 -3.52778,-1.5875 -7.231947,-2.20486 -9.789584,-1.6757 -2.985807,0.61807 -5.04871,-0.89147 -6.702778,-0.17639 -0.940647,-0.23495 -1.440462,-2.08703 -5.203472,-2.32233 -2.58699,-1.17581 -4.468566,0 -4.468566,0 5.409353,0.2353 7.055556,2.82222 8.701899,3.05752 1.646343,0.23495 8.349121,0.88195 11.641667,1.1169 3.292475,0.2353 3.792361,2.02847 5.909027,2.02847 2.116667,0 3.557059,-3.02789 9.877777,-3.79236 5.644444,0.4706 9.201502,-2.14595 10.847917,-3.08681 1.646415,-0.9405 4.733218,-0.38206 9.436806,0.79375 5.879746,0.94086 11.083219,0.35278 15.081249,-2.23414 0,0 -4.23333,2.35197 -12.699999,1.41111" />
    <path
       id="path2056"
       style="fill:#bd6929;fill-opacity:1;fill-rule:nonzero;stroke:none;stroke-width:0.0352777"
       d="m 35.680954,85.21196 c 3.292545,-0.232833 2.351899,-1.41111 6.820323,0.472723 4.468566,1.880307 4.938889,0 7.055554,0 2.116667,0 4.468567,-0.472723 4.468567,-0.472723 -1.881434,-1.17475 -2.3519,-1.880304 -5.879677,-1.643943 -3.527777,0.232833 -4.703656,-1.647474 -6.114767,-2.353027 -3.76301,-0.469195 -8.231434,0.23636 -10.818566,1.41111 -2.58699,1.17475 -5.644444,3.76414 -7.996202,3.527777 -0.321634,-0.03175 -0.765087,-0.03175 -1.293565,-0.01058 v 3.453697 c 0.694531,0.05997 1.364671,0.162277 1.999121,0.3175 7.525878,-3.055057 8.466666,-4.466167 11.759212,-4.70253" />
    <path
       id="path2058"
       style="fill:#bd6929;fill-opacity:1;fill-rule:nonzero;stroke:none;stroke-width:0.0352777"
       d="m 105.53095,90.620043 c 4.46864,1.411113 6.1147,1.647474 10.81864,0.472724 3.91054,-0.977194 7.98159,-1.788584 11.40636,-1.495777 v -3.453697 c -3.33587,0.148167 -10.17834,1.284113 -12.81747,1.89089 -3.05753,0.705557 -5.1742,3.527777 -9.40753,2.58586" />
    <path
       id="path2060"
       style="fill:#bd6929;fill-opacity:1;fill-rule:nonzero;stroke:none;stroke-width:0.0352777"
       d="m 107.17737,59.811962 c -6.58531,3.527777 -11.288893,3.294944 -17.874195,2.353027 -7.76111,-0.236361 -13.170252,5.644445 -18.814696,8.466667 -3.998383,0.941916 -8.937273,-1.411111 -15.287201,-1.880306 -6.35,-0.472722 -9.642547,3.055056 -14.816668,2.116667 6.820465,1.411111 9.407455,0.232833 14.111111,0.232833 4.703869,0 11.288819,2.116667 16.933262,1.411111 6.11505,-0.705555 12.46505,-6.349999 19.285302,-7.288388 4.703588,2.822222 8.936921,2.585861 8.936921,2.585861 3.763074,-1.880306 7.761114,-4.233334 9.642824,-4.233334 7.99606,0.941917 9.87778,-1.411111 11.99445,-2.116666 2.53929,0.772583 4.50885,0.560917 6.46747,0.313972 V 59.02174 c -2.68817,-0.726723 -5.26732,-1.090084 -6.93808,-1.090084 -5.40914,2.585861 -9.64248,2.585861 -13.6405,1.880306" />
    <path
       id="path2062"
       style="fill:#bd6929;fill-opacity:1;fill-rule:nonzero;stroke:none;stroke-width:0.0352777"
       d="M 29.330954,62.164989 C 27.245579,60.775045 24.532626,59.727295 21.922621,59.02174 v 2.751666 c 2.213543,-0.282222 4.413708,-0.606778 7.408333,0.391583" />
    <path
       id="path2064"
       style="fill:#bd6929;fill-opacity:1;fill-rule:nonzero;stroke:none;stroke-width:0.0352777"
       d="m 34.034611,151.06464 c 3.76301,3.29247 6.820464,4.46828 8.231575,4.46828 1.411111,0 2.822222,-0.70556 4.468424,-0.23495 1.646344,0.47025 3.292688,2.11666 7.055555,1.1758 -5.409211,-1.1758 -7.525878,-3.99802 -7.525878,-3.99802 -3.292546,1.1758 -9.172222,-1.64642 -11.288889,-2.58728 -3.527778,0.23531 -7.761111,0.23531 -9.172222,0 -0.709827,-0.11818 -2.252817,-0.83149 -3.880555,-1.54128 v 3.35245 c 3.246659,1.34549 10.29903,-0.40852 12.11199,-0.635" />
    <path
       id="path2066"
       style="fill:#bd6929;fill-opacity:1;fill-rule:nonzero;stroke:none;stroke-width:0.0352777"
       d="m 116.34959,146.12575 c -2.11667,0.47025 -4.70394,2.35161 -8.46667,1.88136 2.58692,3.05753 9.40717,1.64641 9.40717,1.64641 0,0 6.49076,-0.0691 10.11308,1.88137 0.11148,0.06 0.23001,0.11395 0.35278,0.16475 v -3.35245 c -1.60831,-0.70133 -3.29882,-1.39912 -4.35081,-1.51589 -2.11666,-0.2353 -4.93889,-1.17616 -7.05555,-0.70555" />
    <path
       id="path2068"
       style="fill:#bd6929;fill-opacity:1;fill-rule:nonzero;stroke:none;stroke-width:0.0352777"
       d="m 48.380954,101.20338 c -1.411111,2.35303 -5.879677,5.05883 -6.93801,7.52827 -2.704536,0.70556 -4.468425,1.76389 -6.585091,2.23309 -3.76301,0.82197 -6.93801,0.58914 -7.996344,1.52753 0,0 4.350879,-0.11642 7.878657,-0.11642 2.61112,0 4.674729,0.50094 7.408333,-0.70556 2.733605,-1.2065 5.646103,-3.96875 7.408332,-6.70277 1.054735,-1.63689 3.645467,-4.58611 6.93801,-2.46945 2.939699,5.52803 11.406365,2.70581 18.226972,3.175 6.114695,-0.35278 24.929393,-0.35278 25.282167,3.175 0.11783,3.175 4.70394,6.23358 8.81945,3.6442 0.82338,0.70555 0.82338,0.70555 0.82338,0.70555 0,0 2.58692,0 5.29167,0.70556 2.70439,0.70555 7.40833,1.53105 9.28969,1.05833 -3.4103,-0.35278 -6.5853,-0.35278 -8.93692,-1.99672 -3.29282,-0.70556 -4.82141,-0.58914 -4.82141,-0.58914 l -1.41111,-1.41111 c -3.76308,0.46919 -5.02038,-0.36336 -6.82025,-5.17525 -0.9832,-2.62467 -5.879749,-2.58586 -8.349195,-2.58586 -2.469444,0 -11.288887,-1.05834 -14.699192,-1.17475 -9.524997,-1.64747 -15.286918,-1.53106 -23.048028,-5.52803 -5.056434,-1.41111 -7.761111,4.70253 -7.761111,4.70253" />
  </g>
</svg>
