<?xml version="1.0" encoding="UTF-8" standalone="no"?>
<svg
   xmlns:dc="http://purl.org/dc/elements/1.1/"
   xmlns:cc="http://creativecommons.org/ns#"
   xmlns:rdf="http://www.w3.org/1999/02/22-rdf-syntax-ns#"
   xmlns:svg="http://www.w3.org/2000/svg"
   xmlns="http://www.w3.org/2000/svg"
   xmlns:sodipodi="http://sodipodi.sourceforge.net/DTD/sodipodi-0.dtd"
   xmlns:inkscape="http://www.inkscape.org/namespaces/inkscape"
   sodipodi:docname="sand2.svg"
   inkscape:version="1.0 (4035a4fb49, 2020-05-01)"
   id="svg1784"
   version="1.1"
   viewBox="0 0 105.83334 105.83334"
   height="105.83334mm"
   width="105.83334mm">
  <defs
     id="defs1778" />
  <sodipodi:namedview
     inkscape:window-maximized="1"
     inkscape:window-y="-8"
     inkscape:window-x="-8"
     inkscape:window-height="996"
     inkscape:window-width="1920"
     showgrid="false"
     inkscape:document-rotation="0"
     inkscape:current-layer="layer1"
     inkscape:document-units="mm"
     inkscape:cy="411.42857"
     inkscape:cx="322.85714"
     inkscape:zoom="0.35"
     inkscape:pageshadow="2"
     inkscape:pageopacity="0.0"
     borderopacity="1.0"
     bordercolor="#666666"
     pagecolor="#ffffff"
     id="base" />
  <metadata
     id="metadata1781">
    <rdf:RDF>
      <cc:Work
         rdf:about="">
        <dc:format>image/svg+xml</dc:format>
        <dc:type
           rdf:resource="http://purl.org/dc/dcmitype/StillImage" />
        <dc:title></dc:title>
      </cc:Work>
    </rdf:RDF>
  </metadata>
  <g
     transform="translate(-20.410716,-39.309525)"
     id="layer1"
     inkscape:groupmode="layer"
     inkscape:label="Layer 1">
    <path
       id="path2646"
       style="fill:#ffd17b;fill-opacity:1;fill-rule:nonzero;stroke:none;stroke-width:0.0352777"
       d="M 126.24405,39.309525 V 145.14286 H 20.410716 V 39.309525 H 126.24405" />
    <path
       id="path2648"
       style="fill:#ffdfa2;fill-opacity:1;fill-rule:nonzero;stroke:none;stroke-width:0.0352777"
       d="m 126.24405,42.442192 v 18.534943 c -2.05317,-0.176388 -4.18042,-0.508 -6.4135,-1.040694 0,0 -4.39561,-2.970389 -8.763,-2.469444 -7.82814,0.903111 -17.772947,5.528027 -17.772947,5.528027 -13.913556,2.116667 -24.578027,-1.880305 -38.720887,-3.764139 -12.142612,-1.615722 -21.720528,2.836334 -34.163,1.74625 V 42.442192 c 3.069167,0.137583 6.727472,1.139472 12.163777,3.150305 10.819695,3.996972 20.228277,-2.822222 29.869693,-2.116666 9.641417,0.705555 13.169194,5.877277 25.636361,2.585861 12.463643,-3.291417 12.227283,-5.880805 24.458083,-2.353028 1.67217,0.483306 3.59481,1.435806 5.17525,0.705556 3.04095,-1.404056 5.49981,-2.109611 8.53017,-1.972028" />
    <path
       id="path2650"
       style="fill:#dba871;fill-opacity:1;fill-rule:nonzero;stroke:none;stroke-width:0.0352777"
       d="m 126.24405,60.737247 v 4.310944 c -1.26647,0.469194 -2.54706,0.737304 -4.18042,0.532694 -2.35656,-0.589138 -4.46617,-2.162527 -5.64092,-4.219222 -3.57364,-3.711222 -9.18986,0.472722 -14.70025,3.880556 -2.053163,1.27 -5.316357,3.291416 -12.290774,1.22061 -10.960806,-3.25261 -16.74636,7.475363 -28.751387,-0.529167 -2.822223,-1.763888 -5.055306,-3.174999 -8.706556,-3.686527 -2.44475,-0.342194 -10.061222,-1.499305 -12.424833,-1.449916 -5.577417,0.141111 -11.168944,1.0795 -16.263055,3.019778 -1.040695,0.4445 -1.954389,0.892527 -2.875139,1.231194 v -4.307417 c 6.575778,0.518584 13.733638,-1.947333 20.623388,-3.838222 3.337278,-0.906639 10.230556,-3.531305 18.235082,1.27 5.81025,3.443111 10.230557,3.520722 16.926277,3.545417 1.94028,0.02117 10.565697,-0.47625 14.20989,-1.051278 12.121447,-1.894417 15.056557,-5.023555 21.427717,-4.787194 2.35303,-0.05645 3.58775,0.472722 5.15056,1.449916 0.16228,0.102306 0.33161,0.22225 0.49742,0.352778 2.73402,1.912056 5.68325,2.811639 8.763,3.055056" />
    <path
       id="path2652"
       style="fill:#ffdfa2;fill-opacity:1;fill-rule:nonzero;stroke:none;stroke-width:0.0352777"
       d="m 126.24405,69.937692 v 21.089053 c -0.13406,0 -0.26458,0 -0.39864,-0.0035 -1.66864,-0.02822 -3.302,-0.543276 -4.99533,-0.504473 -1.84151,0.04586 -3.62303,0.737307 -5.47864,0.927807 -7.52475,0.88547 -9.26748,-0.22225 -16.788697,-3.01625 -4.459113,-2.035554 -9.92364,-1.33 -14.410973,1.033613 -14.209887,5.986637 -12.050887,6.32883 -27.481387,1.883833 C 43.785771,85.435219 31.967716,91.079662 20.410716,91.026745 V 69.937692 c 1.767417,-0.201084 3.527778,-0.09172 5.214055,0.582083 12.862278,4.938887 27.978805,8.113887 40.943389,3.753554 1.259416,-0.52211 2.494139,-0.98425 3.71475,-1.382887 3.129137,-0.47978 1.41111,-1.98614 10.80911,0.08467 9.496777,3.894667 19.46628,2.130777 29.11122,-1.397 3.51367,-0.963083 6.36411,0.910167 10.25525,-0.201083 1.88384,-0.631473 3.84175,-1.22414 5.78556,-1.439333" />
    <path
       id="path2654"
       style="fill:#dba871;fill-opacity:1;fill-rule:nonzero;stroke:none;stroke-width:0.0352777"
       d="m 126.24405,90.254162 v 2.264833 c -2.08139,0.423334 -3.79236,0.511527 -5.94431,-0.0071 -3.29142,-0.352777 -4.70253,-1.178277 -7.29192,-0.589137 -4.27919,0.973667 -4.81894,2.82222 -7.52474,3.175 -8.5337,1.11125 -11.878033,-5.408083 -16.933337,-5.528027 -5.055307,-0.116417 -8.819446,3.764137 -15.63864,5.058831 -6.82272,1.291166 -12.93636,-0.589137 -19.8755,-3.647721 -6.93561,-3.055056 -9.553221,-0.10936 -12.11086,1.411111 -4.34975,2.589425 -6.233583,-3.407798 -14.347472,-1.411075 -2.578805,0.635 -4.494388,1.195917 -6.166555,1.538111 v -2.264834 c 0.814917,-0.211666 1.852083,-0.546804 3.227917,-1.037166 6.939138,-2.469444 11.288888,-1.880304 14.347471,-1.763888 3.055056,0.119944 10.103556,-2.25425 16.696972,1.178277 6.11364,3.407834 13.052777,-1.41111 20.577527,0.821973 3.60186,1.068917 5.997223,-1.17475 14.816667,-2.469446 8.819443,-1.294693 10.16,3.66889 15.99494,2.93864 3.76061,-0.469194 9.05228,-3.880556 13.52198,-1.291167 3.67594,1.31939 3.34786,2.487084 6.64986,1.622777" />
    <path
       id="path2656"
       style="fill:#ffdfa2;fill-opacity:1;fill-rule:nonzero;stroke:none;stroke-width:0.0352777"
       d="m 126.24405,107.10636 v 8.34672 c -8.55486,-0.29633 -17.13795,0.67381 -25.55522,-1.60867 -11.3277,-1.69686 -14.957783,-1.71097 -23.491477,-0.5715 -13.073943,3.40078 -21.978054,-4.64255 -36.389027,0.28575 -8.939388,3.05859 -15.067138,2.286 -15.067138,2.286 -1.774472,-0.21166 -3.548944,-0.32808 -5.330472,-0.39158 v -8.34672 c 0.229306,0.06 0.455083,0.12347 0.680861,0.18697 3.432528,0.95956 5.715,-4.32153 8.897055,-5.92667 5.379861,-2.719915 11.377083,-3.725331 17.286111,-1.661581 4.885973,1.714501 9.711973,3.929941 13.878277,5.259921 8.928806,2.99155 16.66875,-4.65667 25.06839,-7.634115 7.658803,-2.529416 10.69975,-0.257529 13.564303,1.097137 8.191497,5.083528 17.176747,6.155978 26.458337,8.678338" />
    <path
       id="path2658"
       style="fill:#ffdfa2;fill-opacity:1;fill-rule:nonzero;stroke:none;stroke-width:0.0352777"
       d="m 126.24405,120.04977 v 22.76828 c -0.4445,0.0212 -0.89958,0.0423 -1.36172,0.0706 -0.91017,0.0318 -1.82034,0.0459 -2.72697,0.0388 -6.54404,-0.0318 -11.59581,-0.88195 -21.89692,-2.03553 -15.03892,-2.27542 -24.761477,3.77119 -41.43728,1.7145 -6.727474,-0.82906 -9.482667,-4.31451 -19.533306,-3.90529 -3.767666,0.54328 -8.625416,2.68112 -12.124972,3.33376 -2.356555,0.57503 -4.469694,0.67028 -6.752166,0.78316 v -22.76828 c 3.07975,0.57856 5.803194,1.67217 8.008055,3.16795 1.040695,0.70555 2.236611,1.07244 3.450167,1.41817 24.048861,6.79802 42.125192,-6.23006 62.325248,-1.31234 5.069417,1.00542 9.913054,-0.14464 14.859004,-1.5875 6.22652,-2.21897 12.18494,-2.63172 17.19086,-1.68628" />
    <path
       id="path2660"
       style="fill:#dba871;fill-opacity:1;fill-rule:nonzero;stroke:none;stroke-width:0.0352777"
       d="m 126.24405,113.05772 v 4.73428 c -5.69736,-0.61031 -4.14514,-1.09714 -8.53017,-0.4692 -3.38314,0.44097 -3.14678,-0.70555 -6.11717,-1.17475 -5.34811,-0.84666 -10.58333,1.41111 -19.51919,-0.94191 -8.93586,-2.35303 -13.87475,-0.70556 -24.22525,0.70555 -10.346971,1.41111 -13.405554,1.17475 -25.869194,-0.46919 -12.463638,-1.64748 -10.346971,3.29141 -19.049999,2.58586 -0.973667,-0.0776 -1.802694,-0.15875 -2.522361,-0.23636 v -4.73781 c 1.626305,0.17639 3.577167,0.32808 6.050139,0.27164 10.114138,-0.23636 9.641416,-1.64747 17.169694,-2.82222 7.52475,-1.17828 9.641417,-1.41111 17.402527,1.17475 7.76111,2.58586 11.052527,1.41111 20.46111,-0.70556 9.408584,-2.11666 11.303,1.21003 18.813644,1.88031 7.5565,0.67733 5.43983,2.88219 14.96483,0.67733 5.58095,-1.29117 6.86858,-0.94544 9.96245,-0.58561 0.32102,0.0353 0.65969,0.0741 1.00894,0.11289" />
    <path
       id="path2662"
       style="fill:#dba871;fill-opacity:1;fill-rule:nonzero;stroke:none;stroke-width:0.0352777"
       d="m 126.24405,141.01889 v 3.90878 c -1.94028,-0.11642 -3.85233,-0.39512 -5.89492,-0.74437 -0.0953,-0.0141 -0.1905,-0.0317 -0.28575,-0.0494 -17.13794,-3.52778 -17.40253,-1.17475 -30.338887,-2.35303 -12.932833,-1.17475 -7.52475,2.11666 -19.282833,2.58939 -11.761611,0.46919 -11.761611,-0.70556 -19.991917,-2.82223 -8.230305,-2.11666 -13.641916,0.70556 -19.991916,2.3495 -3.827639,0.99133 -6.970889,1.21711 -10.047111,1.03014 v -3.90878 c 1.4605,-0.34572 3.39725,-1.21709 7.930444,-2.76578 9.644944,-3.29142 13.405555,-3.52778 21.403026,0.23636 7.997474,3.76414 15.758584,-0.94192 22.81414,0.23636 7.055554,1.17475 14.178137,-3.11856 26.81111,0 6.907394,1.70392 13.405554,-0.26458 20.693944,1.64395 3.48898,0.74789 4.53673,1.03364 6.18067,0.64911" />
  </g>
</svg>
