<?xml version="1.0" encoding="UTF-8" standalone="no"?>
<svg
   xmlns:dc="http://purl.org/dc/elements/1.1/"
   xmlns:cc="http://creativecommons.org/ns#"
   xmlns:rdf="http://www.w3.org/1999/02/22-rdf-syntax-ns#"
   xmlns:svg="http://www.w3.org/2000/svg"
   xmlns="http://www.w3.org/2000/svg"
   xmlns:sodipodi="http://sodipodi.sourceforge.net/DTD/sodipodi-0.dtd"
   xmlns:inkscape="http://www.inkscape.org/namespaces/inkscape"
   width="100mm"
   height="100mm"
   viewBox="0 0 100 100"
   version="1.1"
   id="svg942"
   inkscape:version="1.0 (4035a4fb49, 2020-05-01)"
   sodipodi:docname="space2.svg">
  <defs
     id="defs936" />
  <sodipodi:namedview
     id="base"
     pagecolor="#ffffff"
     bordercolor="#666666"
     borderopacity="1.0"
     inkscape:pageopacity="0.0"
     inkscape:pageshadow="2"
     inkscape:zoom="0.35"
     inkscape:cx="493.04723"
     inkscape:cy="515.90437"
     inkscape:document-units="mm"
     inkscape:current-layer="layer1"
     inkscape:document-rotation="0"
     showgrid="false"
     inkscape:window-width="1920"
     inkscape:window-height="996"
     inkscape:window-x="-8"
     inkscape:window-y="-8"
     inkscape:window-maximized="1" />
  <metadata
     id="metadata939">
    <rdf:RDF>
      <cc:Work
         rdf:about="">
        <dc:format>image/svg+xml</dc:format>
        <dc:type
           rdf:resource="http://purl.org/dc/dcmitype/StillImage" />
        <dc:title />
      </cc:Work>
    </rdf:RDF>
  </metadata>
  <g
     inkscape:label="Layer 1"
     inkscape:groupmode="layer"
     id="layer1"
     transform="translate(24.618745,-11.66697)">
    <path
       d="m 75.381255,111.66697 h -100 v -100 h 100 v 100"
       style="fill:#0c043d;fill-opacity:1;fill-rule:nonzero;stroke:none;stroke-width:0.0174694"
       id="path886" />
    <path
       d="m 46.460587,56.873876 c 0,0.354982 -0.288244,0.642701 -0.642874,0.642701 -0.35463,0 -0.642875,-0.287719 -0.642875,-0.642701 0,-0.354977 0.288245,-0.642701 0.642875,-0.642701 0.35463,0 0.642874,0.287724 0.642874,0.642701"
       style="fill:#ffda47;fill-opacity:1;fill-rule:nonzero;stroke:none;stroke-width:0.0174694"
       id="path888" />
    <path
       d="m 63.400709,29.873627 c 0,0.621911 -0.504868,1.125031 -1.125033,1.125031 -0.621913,0 -1.125033,-0.50312 -1.125033,-1.125031 0,-0.620166 0.50312,-1.125033 1.125033,-1.125033 0.620165,0 1.125033,0.504867 1.125033,1.125033"
       style="fill:#74caf2;fill-opacity:1;fill-rule:nonzero;stroke:none;stroke-width:0.0174694"
       id="path890" />
    <path
       d="m 58.460352,61.207171 c 0,0.354982 -0.288249,0.642706 -0.642879,0.642706 -0.354626,0 -0.642875,-0.287724 -0.642875,-0.642706 0,-0.354804 0.288249,-0.642523 0.642875,-0.642523 0.35463,0 0.642879,0.287719 0.642879,0.642523"
       style="fill:#74caf2;fill-opacity:1;fill-rule:nonzero;stroke:none;stroke-width:0.0174694"
       id="path892" />
    <path
       d="m 44.769544,97.207332 c 0,0.354804 -0.288244,0.642701 -0.642874,0.642701 -0.35463,0 -0.642875,-0.287897 -0.642875,-0.642701 0,-0.354977 0.288245,-0.642701 0.642875,-0.642701 0.35463,0 0.642874,0.287724 0.642874,0.642701"
       style="fill:#74caf2;fill-opacity:1;fill-rule:nonzero;stroke:none;stroke-width:0.0174694"
       id="path894" />
    <path
       d="m -14.873589,91.84998 c 0,0.354977 -0.287722,0.642701 -0.642527,0.642701 -0.354978,0 -0.6427,-0.287724 -0.6427,-0.642701 0,-0.354982 0.287722,-0.642701 0.6427,-0.642701 0.354805,0 0.642527,0.287719 0.642527,0.642701"
       style="fill:#f39e0f;fill-opacity:1;fill-rule:nonzero;stroke:none;stroke-width:0.0174694"
       id="path896" />
    <path
       d="m 10.346701,44.87394 c 0,0.330348 -0.267807,0.598155 -0.5981552,0.598155 -0.3301726,0 -0.597979,-0.267807 -0.597979,-0.598155 0,-0.330347 0.2678064,-0.598153 0.597979,-0.598153 0.3303482,0 0.5981552,0.267806 0.5981552,0.598153"
       style="fill:#fbf5a3;fill-opacity:1;fill-rule:nonzero;stroke:none;stroke-width:0.0174694"
       id="path898" />
    <path
       d="m 72.524999,33.727386 c -1.656102,0.340655 -2.199402,0.882207 -2.540053,2.540058 -0.05415,0.262042 -0.429752,0.262042 -0.483907,0 -0.34065,-1.657851 -0.883951,-2.199403 -2.540058,-2.540058 -0.262038,-0.05415 -0.262038,-0.429748 0,-0.483903 1.656107,-0.342402 2.199408,-0.883954 2.540058,-2.540058 0.05415,-0.262042 0.429752,-0.262042 0.483907,0 0.340651,1.656104 0.883951,2.197656 2.540053,2.540058 0.262043,0.05416 0.262043,0.429749 0,0.483903"
       style="fill:#f39e0f;fill-opacity:1;fill-rule:nonzero;stroke:none;stroke-width:0.0174694"
       id="path900" />
    <path
       d="m 68.423174,77.600501 c 0,0.151109 -0.122284,0.273398 -0.272522,0.273398 -0.150237,0 -0.274269,-0.122289 -0.274269,-0.273398 0,-0.150936 0.124032,-0.273398 0.274269,-0.273398 0.150238,0 0.272522,0.122462 0.272522,0.273398"
       style="fill:#e5faf2;fill-opacity:1;fill-rule:nonzero;stroke:none;stroke-width:0.0174694"
       id="path902" />
    <path
       d="m 17.483842,63.873886 c 0,0.150936 -0.122461,0.273393 -0.273397,0.273393 -0.150936,0 -0.273396,-0.122457 -0.273396,-0.273393 0,-0.150936 0.12246,-0.273399 0.273396,-0.273399 0.150936,0 0.273397,0.122463 0.273397,0.273399"
       style="fill:#74caf2;fill-opacity:1;fill-rule:nonzero;stroke:none;stroke-width:0.0174694"
       id="path904" />
    <path
       d="m -21.302695,65.207327 c 0,0.150936 -0.12246,0.273398 -0.273396,0.273398 -0.151111,0 -0.273397,-0.122462 -0.273397,-0.273398 0,-0.151109 0.122286,-0.273398 0.273397,-0.273398 0.150936,0 0.273396,0.122289 0.273396,0.273398"
       style="fill:#f39e0f;fill-opacity:1;fill-rule:nonzero;stroke:none;stroke-width:0.0174694"
       id="path906" />
    <path
       d="m 70.757091,59.60051 c 0,0.150936 -0.122283,0.273393 -0.272521,0.273393 -0.151986,0 -0.27427,-0.122457 -0.27427,-0.273393 0,-0.150936 0.122284,-0.273399 0.27427,-0.273399 0.150238,0 0.272521,0.122463 0.272521,0.273399"
       style="fill:#f39e0f;fill-opacity:1;fill-rule:nonzero;stroke:none;stroke-width:0.0174694"
       id="path908" />
    <path
       d="m 1.0905138,13.813964 c 0,0.150238 -0.12228545,0.272524 -0.27339577,0.272524 -0.15093602,0 -0.27339722,-0.122286 -0.27339722,-0.272524 0,-0.150236 0.1224612,-0.27427 0.27339722,-0.27427 0.15111032,0 0.27339577,0.124034 0.27339577,0.27427"
       style="fill:#74caf2;fill-opacity:1;fill-rule:nonzero;stroke:none;stroke-width:0.0174694"
       id="path910" />
    <path
       d="m 52.150385,72.873965 c 0,0.150936 -0.122284,0.273399 -0.272522,0.273399 -0.151986,0 -0.27427,-0.122463 -0.27427,-0.273399 0,-0.151109 0.122284,-0.273393 0.27427,-0.273393 0.150238,0 0.272522,0.122284 0.272522,0.273393"
       style="fill:#fbf5a3;fill-opacity:1;fill-rule:nonzero;stroke:none;stroke-width:0.0174694"
       id="path912" />
    <path
       d="m 23.202814,48.926153 c 0,0.212953 -0.172597,0.385551 -0.385725,0.385551 -0.212952,0 -0.385551,-0.172598 -0.385551,-0.385551 0,-0.212952 0.172599,-0.38555 0.385551,-0.38555 0.213128,0 0.385725,0.172598 0.385725,0.38555"
       style="fill:#f39e0f;fill-opacity:1;fill-rule:nonzero;stroke:none;stroke-width:0.0174694"
       id="path914" />
    <path
       d="m -1.0783174,59.207269 c 0,0.212954 -0.1725974,0.385555 -0.3855509,0.385555 -0.212952,0 -0.3857257,-0.172601 -0.3857257,-0.385555 0,-0.21295 0.1727737,-0.385724 0.3857257,-0.385724 0.2129535,0 0.3855509,0.172774 0.3855509,0.385724"
       style="fill:#fbf5a3;fill-opacity:1;fill-rule:nonzero;stroke:none;stroke-width:0.0174694"
       id="path916" />
    <path
       d="m 22.202863,81.592793 c 0,0.213128 -0.172773,0.385729 -0.385725,0.385729 -0.212952,0 -0.385551,-0.172601 -0.385551,-0.385729 0,-0.212954 0.172599,-0.38555 0.385551,-0.38555 0.212952,0 0.385725,0.172596 0.385725,0.38555"
       style="fill:#f39e0f;fill-opacity:1;fill-rule:nonzero;stroke:none;stroke-width:0.0174694"
       id="path918" />
    <path
       d="m 33.202852,109.15504 c 0,0.21295 -0.172775,0.38555 -0.385729,0.38555 -0.21295,0 -0.38555,-0.1726 -0.38555,-0.38555 0,-0.21296 0.1726,-0.38555 0.38555,-0.38555 0.212954,0 0.385729,0.17259 0.385729,0.38555"
       style="fill:#fbf5a3;fill-opacity:1;fill-rule:nonzero;stroke:none;stroke-width:0.0174694"
       id="path920" />
    <path
       d="m 66.870142,106.82164 c 0,0.21296 -0.172947,0.38573 -0.386075,0.38573 -0.213128,0 -0.386075,-0.17277 -0.386075,-0.38573 0,-0.21295 0.172947,-0.38555 0.386075,-0.38555 0.213128,0 0.386075,0.1726 0.386075,0.38555"
       style="fill:#f39e0f;fill-opacity:1;fill-rule:nonzero;stroke:none;stroke-width:0.0174694"
       id="path922" />
    <path
       d="m -0.84946714,23.540952 c 0,0.141503 -0.11512387,0.256801 -0.25715076,0.256801 -0.1420265,0 -0.256975,-0.115298 -0.256975,-0.256801 0,-0.143249 0.1149485,-0.2568 0.256975,-0.2568 0.14202689,0 0.25715076,0.113551 0.25715076,0.2568"
       style="fill:#fbf5a3;fill-opacity:1;fill-rule:nonzero;stroke:none;stroke-width:0.0174694"
       id="path924" />
    <path
       d="m 64.483813,88.873886 c 0,0.142028 -0.115296,0.257146 -0.256799,0.257146 -0.141502,0 -0.256799,-0.115118 -0.256799,-0.257146 0,-0.141854 0.115297,-0.256977 0.256799,-0.256977 0.141503,0 0.256799,0.115123 0.256799,0.256977"
       style="fill:#f39e0f;fill-opacity:1;fill-rule:nonzero;stroke:none;stroke-width:0.0174694"
       id="path926" />
    <path
       d="m 69.740373,22.796754 c 0,0.143249 -0.115302,0.258548 -0.256804,0.258548 -0.141503,0 -0.256799,-0.115299 -0.256799,-0.258548 0,-0.141502 0.115296,-0.256801 0.256799,-0.256801 0.141502,0 0.256804,0.115299 0.256804,0.256801"
       style="fill:#fbf5a3;fill-opacity:1;fill-rule:nonzero;stroke:none;stroke-width:0.0174694"
       id="path928" />
    <path
       d="m 74.151409,88.873886 c 0,0.142028 -0.115302,0.257146 -0.258552,0.257146 -0.141503,0 -0.2568,-0.115118 -0.2568,-0.257146 0,-0.141854 0.115297,-0.256977 0.2568,-0.256977 0.14325,0 0.258552,0.115123 0.258552,0.256977"
       style="fill:#74caf2;fill-opacity:1;fill-rule:nonzero;stroke:none;stroke-width:0.0174694"
       id="path930" />
    <path
       d="m 18.407627,26.617321 c 0,0.141502 -0.115124,0.256801 -0.257151,0.256801 -0.142026,0 -0.256975,-0.115299 -0.256975,-0.256801 0,-0.143249 0.114949,-0.258547 0.256975,-0.258547 0.142027,0 0.257151,0.115298 0.257151,0.258547"
       style="fill:#ee3782;fill-opacity:1;fill-rule:nonzero;stroke:none;stroke-width:0.0174694"
       id="path932" />
    <path
       d="m 59.150394,99.540551 c 0,0.142028 -0.115296,0.257151 -0.256799,0.257151 -0.141503,0 -0.256804,-0.115123 -0.256804,-0.257151 0,-0.141849 0.115301,-0.256972 0.256804,-0.256972 0.141503,0 0.256799,0.115123 0.256799,0.256972"
       style="fill:#e5faf2;fill-opacity:1;fill-rule:nonzero;stroke:none;stroke-width:0.0174694"
       id="path934" />
    <path
       d="m 62.665247,46.873842 c 0,0.142027 -0.115301,0.257151 -0.256804,0.257151 -0.143245,0 -0.258547,-0.115124 -0.258547,-0.257151 0,-0.141851 0.115302,-0.256975 0.258547,-0.256975 0.141503,0 0.256804,0.115124 0.256804,0.256975"
       style="fill:#fbf5a3;fill-opacity:1;fill-rule:nonzero;stroke:none;stroke-width:0.0174694"
       id="path936" />
    <path
       d="m -13.516213,28.874374 c 0,0.141502 -0.115124,0.256801 -0.256976,0.256801 -0.142026,0 -0.25715,-0.115299 -0.25715,-0.256801 0,-0.143249 0.115124,-0.256801 0.25715,-0.256801 0.141852,0 0.256976,0.113552 0.256976,0.256801"
       style="fill:#fbf5a3;fill-opacity:1;fill-rule:nonzero;stroke:none;stroke-width:0.0174694"
       id="path938" />
    <path
       d="m 72.07429,42.949506 c 0,0.143251 -0.115301,0.256801 -0.256804,0.256801 -0.141502,0 -0.256799,-0.11355 -0.256799,-0.256801 0,-0.141503 0.115297,-0.256801 0.256799,-0.256801 0.141503,0 0.256804,0.115298 0.256804,0.256801"
       style="fill:#e5faf2;fill-opacity:1;fill-rule:nonzero;stroke:none;stroke-width:0.0174694"
       id="path940" />
    <path
       d="m 29.150462,15.873612 c 0,0.141503 -0.115123,0.256801 -0.256977,0.256801 -0.142028,0 -0.257146,-0.115298 -0.257146,-0.256801 0,-0.141502 0.115118,-0.2568 0.257146,-0.2568 0.141854,0 0.256977,0.115298 0.256977,0.2568"
       style="fill:#ffda47;fill-opacity:1;fill-rule:nonzero;stroke:none;stroke-width:0.0174694"
       id="path942" />
    <path
       d="m 13.664672,79.873975 c 0,0.141854 -0.115124,0.256977 -0.257151,0.256977 -0.141852,0 -0.256975,-0.115123 -0.256975,-0.256977 0,-0.142028 0.115123,-0.257151 0.256975,-0.257151 0.142027,0 0.257151,0.115123 0.257151,0.257151"
       style="fill:#74caf2;fill-opacity:1;fill-rule:nonzero;stroke:none;stroke-width:0.0174694"
       id="path944" />
    <path
       d="m -19.744944,79.540658 c 0,0.212954 -0.172598,0.38555 -0.385551,0.38555 -0.213127,0 -0.385725,-0.172596 -0.385725,-0.38555 0,-0.21295 0.172598,-0.385724 0.385725,-0.385724 0.212953,0 0.385551,0.172774 0.385551,0.385724"
       style="fill:#fbf5a3;fill-opacity:1;fill-rule:nonzero;stroke:none;stroke-width:0.0174694"
       id="path946" />
    <path
       d="m 52.817722,14.207027 c 0,0.213127 -0.172947,0.386075 -0.386075,0.386075 -0.213128,0 -0.386075,-0.172948 -0.386075,-0.386075 0,-0.213127 0.172947,-0.386074 0.386075,-0.386074 0.213128,0 0.386075,0.172947 0.386075,0.386074"
       style="fill:#74caf2;fill-opacity:1;fill-rule:nonzero;stroke:none;stroke-width:0.0174694"
       id="path948" />
    <path
       d="m 46.869372,32.155136 c 0,0.213128 -0.172947,0.386075 -0.386075,0.386075 -0.213128,0 -0.384327,-0.172947 -0.384327,-0.386075 0,-0.213128 0.171199,-0.386075 0.384327,-0.386075 0.213128,0 0.386075,0.172947 0.386075,0.386075"
       style="fill:#ee3782;fill-opacity:1;fill-rule:nonzero;stroke:none;stroke-width:0.0174694"
       id="path950" />
    <path
       d="m 69.588387,15.539946 c 0,0.213127 -0.172947,0.386075 -0.386075,0.386075 -0.213128,0 -0.384327,-0.172948 -0.384327,-0.386075 0,-0.213127 0.171199,-0.384328 0.384327,-0.384328 0.213128,0 0.386075,0.171201 0.386075,0.384328"
       style="fill:#e5faf2;fill-opacity:1;fill-rule:nonzero;stroke:none;stroke-width:0.0174694"
       id="path952" />
    <path
       d="m -14.516164,55.873925 c 0,0.212955 -0.172598,0.385551 -0.385551,0.385551 -0.213127,0 -0.385726,-0.172596 -0.385726,-0.385551 0,-0.212949 0.172599,-0.38555 0.385726,-0.38555 0.212953,0 0.385551,0.172601 0.385551,0.38555"
       style="fill:#f39e0f;fill-opacity:1;fill-rule:nonzero;stroke:none;stroke-width:0.0174694"
       id="path954" />
    <path
       d="m -21.849488,109.54059 c 0,0.21295 -0.172598,0.38572 -0.385726,0.38572 -0.212952,0 -0.38555,-0.17277 -0.38555,-0.38572 0,-0.21295 0.172598,-0.38555 0.38555,-0.38555 0.213128,0 0.385726,0.1726 0.385726,0.38555"
       style="fill:#e5faf2;fill-opacity:1;fill-rule:nonzero;stroke:none;stroke-width:0.0174694"
       id="path956" />
    <path
       d="m 50.202543,84.82167 c 0,0.212955 -0.172948,0.385551 -0.386076,0.385551 -0.211379,0 -0.384327,-0.172596 -0.384327,-0.385551 0,-0.212949 0.172948,-0.38555 0.384327,-0.38555 0.213128,0 0.386076,0.172601 0.386076,0.38555"
       style="fill:#e5faf2;fill-opacity:1;fill-rule:nonzero;stroke:none;stroke-width:0.0174694"
       id="path958" />
    <path
       d="m 45.150381,15.873612 c 0,0.213127 -0.172948,0.386075 -0.386076,0.386075 -0.213128,0 -0.384327,-0.172948 -0.384327,-0.386075 0,-0.213127 0.171199,-0.386075 0.384327,-0.386075 0.213128,0 0.386076,0.172948 0.386076,0.386075"
       style="fill:#ee3782;fill-opacity:1;fill-rule:nonzero;stroke:none;stroke-width:0.0174694"
       id="path960" />
    <path
       d="m -18.797227,13.820953 c 0,0.213127 -0.172598,0.386074 -0.38555,0.386074 -0.213128,0 -0.385726,-0.172947 -0.385726,-0.386074 0,-0.213128 0.172598,-0.384329 0.385726,-0.384329 0.212952,0 0.38555,0.171201 0.38555,0.384329"
       style="fill:#ee3782;fill-opacity:1;fill-rule:nonzero;stroke:none;stroke-width:0.0174694"
       id="path962" />
    <path
       d="m 29.921736,41.539721 c 0,0.213128 -0.172596,0.386076 -0.38555,0.386076 -0.21295,0 -0.385724,-0.172948 -0.385724,-0.386076 0,-0.211379 0.172774,-0.384327 0.385724,-0.384327 0.212954,0 0.38555,0.172948 0.38555,0.384327"
       style="fill:#e5faf2;fill-opacity:1;fill-rule:nonzero;stroke:none;stroke-width:0.0174694"
       id="path964" />
    <path
       d="m -14.130614,109.59282 c 0,0.21313 -0.172598,0.38573 -0.38555,0.38573 -0.212953,0 -0.385551,-0.1726 -0.385551,-0.38573 0,-0.21295 0.172598,-0.38555 0.385551,-0.38555 0.212952,0 0.38555,0.1726 0.38555,0.38555"
       style="fill:#f39e0f;fill-opacity:1;fill-rule:nonzero;stroke:none;stroke-width:0.0174694"
       id="path966" />
    <path
       d="m -7.7972403,90.821728 c 0,0.21295 -0.1725989,0.385551 -0.3855509,0.385551 -0.2129525,0 -0.3857257,-0.172601 -0.3857257,-0.385551 0,-0.212954 0.1727732,-0.385728 0.3857257,-0.385728 0.212952,0 0.3855509,0.172774 0.3855509,0.385728"
       style="fill:#e5faf2;fill-opacity:1;fill-rule:nonzero;stroke:none;stroke-width:0.0174694"
       id="path968" />
    <path
       d="m 13.58833,15.539946 c 0,0.213127 -0.172597,0.386075 -0.385551,0.386075 -0.212952,0 -0.38555,-0.172948 -0.38555,-0.386075 0,-0.213127 0.172598,-0.384328 0.38555,-0.384328 0.212954,0 0.385551,0.171201 0.385551,0.384328"
       style="fill:#74caf2;fill-opacity:1;fill-rule:nonzero;stroke:none;stroke-width:0.0174694"
       id="path970" />
    <path
       d="m 42.483844,104.20734 c 0,0.21295 -0.172601,0.38555 -0.38555,0.38555 -0.212955,0 -0.385724,-0.1726 -0.385724,-0.38555 0,-0.21295 0.172769,-0.38572 0.385724,-0.38572 0.212949,0 0.38555,0.17277 0.38555,0.38572"
       style="fill:#f39e0f;fill-opacity:1;fill-rule:nonzero;stroke:none;stroke-width:0.0174694"
       id="path972" />
    <path
       d="m 68.150652,97.873966 c 0,0.212954 -0.172947,0.38555 -0.386075,0.38555 -0.213128,0 -0.386075,-0.172596 -0.386075,-0.38555 0,-0.21295 0.172947,-0.38555 0.386075,-0.38555 0.213128,0 0.386075,0.1726 0.386075,0.38555"
       style="fill:#74caf2;fill-opacity:1;fill-rule:nonzero;stroke:none;stroke-width:0.0174694"
       id="path974" />
    <path
       d="m -4.797213,38.154143 c 0,0.213128 -0.1725979,0.386075 -0.3855514,0.386075 -0.2131263,0 -0.3857252,-0.172947 -0.3857252,-0.386075 0,-0.21138 0.1725989,-0.384327 0.3857252,-0.384327 0.2129535,0 0.3855514,0.172947 0.3855514,0.384327"
       style="fill:#ee3782;fill-opacity:1;fill-rule:nonzero;stroke:none;stroke-width:0.0174694"
       id="path976" />
    <path
       d="m 54.203045,25.925531 c 0,0.213128 -0.172947,0.386075 -0.386075,0.386075 -0.213123,0 -0.38607,-0.172947 -0.38607,-0.386075 0,-0.213126 0.172947,-0.384327 0.38607,-0.384327 0.213128,0 0.386075,0.171201 0.386075,0.384327"
       style="fill:#ee3782;fill-opacity:1;fill-rule:nonzero;stroke:none;stroke-width:0.0174694"
       id="path978" />
    <path
       d="m 10.512135,96.874015 c 0,0.283881 -0.230247,0.514128 -0.5141254,0.514128 -0.2840533,0 -0.5141258,-0.230247 -0.5141258,-0.514128 0,-0.28405 0.2300725,-0.514297 0.5141258,-0.514297 0.2838784,0 0.5141254,0.230247 0.5141254,0.514297"
       style="fill:#f39e0f;fill-opacity:1;fill-rule:nonzero;stroke:none;stroke-width:0.0174694"
       id="path980" />
    <path
       d="m 52.255203,49.436086 c 0,0.425906 -0.345895,0.771102 -0.77215,0.771102 -0.424508,0 -0.770403,-0.345196 -0.770403,-0.771102 0,-0.42608 0.345895,-0.771275 0.770403,-0.771275 0.426255,0 0.77215,0.345195 0.77215,0.771275"
       style="fill:#74caf2;fill-opacity:1;fill-rule:nonzero;stroke:none;stroke-width:0.0174694"
       id="path982" />
    <path
       d="m 12.949997,105.20729 c 0,0.49701 -0.402846,0.89968 -0.899677,0.89968 -0.497005,0 -0.899851,-0.40267 -0.899851,-0.89968 0,-0.497 0.402846,-0.89968 0.899851,-0.89968 0.496831,0 0.899677,0.40268 0.899677,0.89968"
       style="fill:#74caf2;fill-opacity:1;fill-rule:nonzero;stroke:none;stroke-width:0.0174694"
       id="path984" />
    <path
       d="m 27.283852,102.22928 c -1.716199,0.39218 -2.273998,0.95016 -2.666362,2.66636 -0.05835,0.25522 -0.42311,0.25522 -0.481457,0 -0.39219,-1.7162 -0.950163,-2.27418 -2.666362,-2.66636 -0.255229,-0.0584 -0.255229,-0.42329 0,-0.48164 1.716199,-0.39219 2.274172,-0.95016 2.666362,-2.666359 0.05835,-0.25523 0.423109,-0.25523 0.481457,0 0.392364,1.716199 0.950163,2.274169 2.666362,2.666359 0.25523,0.0583 0.25523,0.42329 0,0.48164"
       style="fill:#fbf5a3;fill-opacity:1;fill-rule:nonzero;stroke:none;stroke-width:0.0174694"
       id="path986" />
    <path
       d="m -11.564177,36.588882 c 0,0.709259 -0.575444,1.28575 -1.285402,1.28575 -0.709784,0 -1.285227,-0.576491 -1.285227,-1.28575 0,-0.711008 0.575443,-1.285751 1.285227,-1.285751 0.709958,0 1.285402,0.574743 1.285402,1.285751"
       style="fill:#fbf5a3;fill-opacity:1;fill-rule:nonzero;stroke:none;stroke-width:0.0174694"
       id="path988" />
    <path
       d="m -11.154518,71.568824 c 0,0.567932 -0.460495,1.02843 -1.028252,1.02843 -0.567932,0 -1.028427,-0.460498 -1.028427,-1.02843 0,-0.567931 0.460495,-1.028251 1.028427,-1.028251 0.567757,0 1.028252,0.46032 1.028252,1.028251"
       style="fill:#fbf5a3;fill-opacity:1;fill-rule:nonzero;stroke:none;stroke-width:0.0174694"
       id="path990" />
    <path
       d="m 36.692895,62.416407 c 0,0.851813 -0.690567,1.54238 -1.542379,1.54238 -0.851808,0 -1.542375,-0.690567 -1.542375,-1.54238 0,-0.851981 0.690567,-1.542553 1.542375,-1.542553 0.851812,0 1.542379,0.690572 1.542379,1.542553"
       style="fill:#f39e0f;fill-opacity:1;fill-rule:nonzero;stroke:none;stroke-width:0.0174694"
       id="path992" />
    <path
       d="m -10.182868,16.874612 c 0,0.424507 -0.345197,0.770402 -0.771102,0.770402 -0.42608,0 -0.771276,-0.345895 -0.771276,-0.770402 0,-0.426255 0.345196,-0.77215 0.771276,-0.77215 0.425905,0 0.771102,0.345895 0.771102,0.77215"
       style="fill:#e5faf2;fill-opacity:1;fill-rule:nonzero;stroke:none;stroke-width:0.0174694"
       id="path994" />
    <path
       d="m 32.102623,87.921974 c 0,0.709786 -0.575617,1.285229 -1.285402,1.285229 -0.709959,0 -1.285403,-0.575443 -1.285403,-1.285229 0,-0.709959 0.575444,-1.285402 1.285403,-1.285402 0.709785,0 1.285402,0.575443 1.285402,1.285402"
       style="fill:#ee3782;fill-opacity:1;fill-rule:nonzero;stroke:none;stroke-width:0.0174694"
       id="path996" />
    <path
       d="m 29.540727,59.540586 c 0,0.567936 -0.460494,1.02843 -1.028425,1.02843 -0.567931,0 -1.028425,-0.460494 -1.028425,-1.02843 0,-0.567932 0.460494,-1.028425 1.028425,-1.028425 0.567931,0 1.028425,0.460493 1.028425,1.028425"
       style="fill:#fbf5a3;fill-opacity:1;fill-rule:nonzero;stroke:none;stroke-width:0.0174694"
       id="path998" />
    <path
       d="m 47.512247,41.539721 c 0,0.284754 -0.230593,0.51535 -0.513598,0.51535 -0.284754,0 -0.515352,-0.230596 -0.515352,-0.51535 0,-0.283005 0.230598,-0.513601 0.515352,-0.513601 0.283005,0 0.513598,0.230596 0.513598,0.513601"
       style="fill:#fbf5a3;fill-opacity:1;fill-rule:nonzero;stroke:none;stroke-width:0.0174694"
       id="path1000" />
    <path
       d="m -2.7291801,101.7293 c -0.6573749,0.20317 -0.9588983,0.50452 -1.1618929,1.16189 -0.071799,0.23235 -0.4003993,0.23235 -0.4720246,0 -0.2031689,-0.65737 -0.504517,-0.95872 -1.1618929,-1.16189 -0.2323434,-0.0716 -0.2323434,-0.40023 0,-0.47202 0.6573759,-0.203 0.958724,-0.50452 1.1618929,-1.1619 0.071625,-0.232342 0.4002255,-0.232342 0.4720246,0 0.2029946,0.65738 0.504518,0.9589 1.1618929,1.1619 0.2323434,0.0718 0.2323434,0.4004 0,0.47202"
       style="fill:#ffda47;fill-opacity:1;fill-rule:nonzero;stroke:none;stroke-width:0.0174694"
       id="path1002" />
    <path
       d="m 9.3387124,66.019133 c -0.9010737,0.249639 -1.2717746,0.620338 -1.5215881,1.521413 -0.066559,0.240379 -0.4089593,0.240379 -0.4756935,0 -0.2496382,-0.901075 -0.6203391,-1.271774 -1.5214143,-1.521413 -0.2403784,-0.06673 -0.2403784,-0.409137 0,-0.475696 0.9010752,-0.249812 1.2717761,-0.620511 1.5214143,-1.521587 0.066734,-0.240378 0.4091346,-0.240378 0.4756935,0 0.2498135,0.901076 0.6205144,1.271775 1.5215881,1.521587 0.24038,0.06656 0.24038,0.408963 0,0.475696"
       style="fill:#fbf5a3;fill-opacity:1;fill-rule:nonzero;stroke:none;stroke-width:0.0174694"
       id="path1004" />
    <path
       d="m 21.969472,74.210556 c -0.900899,0.249812 -1.271602,0.620517 -1.521414,1.521587 -0.06656,0.240383 -0.409135,0.240383 -0.475693,0 -0.249639,-0.90107 -0.620515,-1.271775 -1.521415,-1.521587 -0.240378,-0.06656 -0.240378,-0.408963 0,-0.475696 0.9009,-0.249633 1.271776,-0.620338 1.521415,-1.521413 0.06656,-0.240378 0.409134,-0.240378 0.475693,0 0.249812,0.901075 0.620515,1.27178 1.521414,1.521413 0.240554,0.06673 0.240554,0.409137 0,0.475696"
       style="fill:#f39e0f;fill-opacity:1;fill-rule:nonzero;stroke:none;stroke-width:0.0174694"
       id="path1006" />
    <path
       d="m 27.15056,66.540595 c 0,0.284055 -0.230247,0.514128 -0.514301,0.514128 -0.283877,0 -0.514124,-0.230073 -0.514124,-0.514128 0,-0.284055 0.230247,-0.514301 0.514124,-0.514301 0.284054,0 0.514301,0.230246 0.514301,0.514301"
       style="fill:#e5faf2;fill-opacity:1;fill-rule:nonzero;stroke:none;stroke-width:0.0174694"
       id="path1008" />
    <path
       d="m 59.026362,108.87395 c 0,0.85199 -0.690047,1.54273 -1.542553,1.54273 -0.852511,0 -1.542553,-0.69074 -1.542553,-1.54273 0,-0.85198 0.690042,-1.54272 1.542553,-1.54272 0.852506,0 1.542553,0.69074 1.542553,1.54272"
       style="fill:#74caf2;fill-opacity:1;fill-rule:nonzero;stroke:none;stroke-width:0.0174694"
       id="path1010" />
    <path
       d="m 35.726484,25.481808 c -0.90107,0.249812 -1.271775,0.621912 -1.521413,1.521588 -0.06673,0.241079 -0.409132,0.241079 -0.475691,0 -0.249812,-0.899676 -0.620517,-1.271776 -1.521592,-1.521588 -0.240378,-0.06638 -0.240378,-0.408785 0,-0.475169 0.901075,-0.249813 1.27178,-0.620166 1.521592,-1.521589 0.06656,-0.241078 0.408958,-0.241078 0.475691,0 0.249638,0.901423 0.620343,1.271776 1.521413,1.521589 0.240383,0.06638 0.240383,0.408785 0,0.475169"
       style="fill:#74caf2;fill-opacity:1;fill-rule:nonzero;stroke:none;stroke-width:0.0174694"
       id="path1012" />
    <path
       d="m 61.975205,19.98592 c -1.430747,0.344148 -1.928628,0.843774 -2.272775,2.272775 -0.06115,0.255054 -0.419269,0.255054 -0.480411,0 -0.344147,-1.429001 -0.843775,-1.928627 -2.274523,-2.272775 -0.253308,-0.06114 -0.253308,-0.419266 0,-0.48041 1.430748,-0.344148 1.930376,-0.843774 2.274523,-2.274522 0.06114,-0.253307 0.419264,-0.253307 0.480411,0 0.344147,1.430748 0.842028,1.930374 2.272775,2.274522 0.255051,0.06114 0.255051,0.419267 0,0.48041"
       style="fill:#e5faf2;fill-opacity:1;fill-rule:nonzero;stroke:none;stroke-width:0.0174694"
       id="path1014" />
    <path
       d="m 6.803023,86.974955 c -3.5202681,0.688823 -4.3979338,1.566486 -5.0869275,5.086751 -0.051884,0.265713 -0.4330675,0.265713 -0.4849518,0 -0.68899514,-3.520265 -1.56666083,-4.397928 -5.0867531,-5.086751 -0.2657103,-0.05206 -0.2657103,-0.433065 0,-0.485125 3.52009227,-0.688997 4.39775796,-1.566659 5.0867531,-5.086752 0.051884,-0.265712 0.4330676,-0.265712 0.4849518,0 0.6889937,3.520093 1.5666594,4.397755 5.0869275,5.086752 0.2657103,0.05206 0.2657103,0.433065 0,0.485125"
       style="fill:#ee3782;fill-opacity:1;fill-rule:nonzero;stroke:none;stroke-width:0.0174694"
       id="path1016" />
    <path
       d="m 47.35677,79.023736 c -1.858746,0.416298 -2.445723,1.003096 -2.861495,2.861149 -0.05765,0.259246 -0.426256,0.259246 -0.483902,0 -0.415945,-1.858053 -1.002749,-2.444851 -2.860797,-2.861149 -0.259245,-0.058 -0.259245,-0.425032 0,-0.483203 1.858048,-0.416297 2.444852,-1.003095 2.860797,-2.861148 0.05765,-0.259073 0.426256,-0.259073 0.483902,0 0.415772,1.858053 1.002749,2.444851 2.861495,2.861148 0.258547,0.05817 0.258547,0.425206 0,0.483203"
       style="fill:#74caf2;fill-opacity:1;fill-rule:nonzero;stroke:none;stroke-width:0.0174694"
       id="path1018" />
    <path
       d="m -19.74477,22.768803 c 0,0.426254 -0.34537,0.772149 -0.77145,0.772149 -0.425905,0 -0.771276,-0.345895 -0.771276,-0.772149 0,-0.426255 0.345371,-0.770403 0.771276,-0.770403 0.42608,0 0.77145,0.344148 0.77145,0.770403"
       style="fill:#ffda47;fill-opacity:1;fill-rule:nonzero;stroke:none;stroke-width:0.0174694"
       id="path1020" />
    <path
       d="m -3.3068941,80.207292 c 0,0.425904 -0.3453711,0.771279 -0.7712766,0.771279 -0.4260798,0 -0.7712766,-0.345375 -0.7712766,-0.771279 0,-0.426078 0.3451968,-0.771453 0.7712766,-0.771453 0.4259055,0 0.7712766,0.345375 0.7712766,0.771453"
       style="fill:#f39e0f;fill-opacity:1;fill-rule:nonzero;stroke:none;stroke-width:0.0174694"
       id="path1022" />
    <path
       d="m -16.649882,105.86816 c -0.768482,0.18902 -1.043975,0.46451 -1.232994,1.23299 -0.03616,0.14692 -0.243175,0.14692 -0.279337,0 -0.188844,-0.76848 -0.464338,-1.04397 -1.232993,-1.23299 -0.146918,-0.036 -0.146918,-0.24317 0,-0.27916 0.768655,-0.18902 1.044149,-0.46451 1.232993,-1.233 0.03616,-0.14691 0.243175,-0.14691 0.279337,0 0.189019,0.76849 0.464512,1.04398 1.232994,1.233 0.146918,0.036 0.146918,0.24317 0,0.27916"
       style="fill:#ee3782;fill-opacity:1;fill-rule:nonzero;stroke:none;stroke-width:0.0174694"
       id="path1024" />
    <path
       d="m 55.230252,38.552446 c -0.894439,0.199152 -1.173948,0.478664 -1.373102,1.373099 -0.0262,0.122287 -0.199148,0.122287 -0.225354,0 -0.199153,-0.894435 -0.478662,-1.173947 -1.373097,-1.373099 -0.122289,-0.02621 -0.122289,-0.199151 0,-0.225356 0.894435,-0.199151 1.173944,-0.478662 1.373097,-1.373097 0.0262,-0.122287 0.199153,-0.122287 0.225354,0 0.199154,0.894435 0.478663,1.173946 1.373102,1.373097 0.122284,0.02621 0.122284,0.199152 0,0.225356"
       style="fill:#ee3782;fill-opacity:1;fill-rule:nonzero;stroke:none;stroke-width:0.0174694"
       id="path1026" />
    <path
       d="m 19.194974,91.540596 c 0,0.57684 -0.467656,1.044499 -1.044498,1.044499 -0.576841,0 -1.044498,-0.467659 -1.044498,-1.044499 0,-0.57684 0.467657,-1.044499 1.044498,-1.044499 0.576842,0 1.044498,0.467659 1.044498,1.044499"
       style="fill:#fbf5a3;fill-opacity:1;fill-rule:nonzero;stroke:none;stroke-width:0.0174694"
       id="path1028" />
    <path
       d="m 8.8616224,33.540463 c 0,0.576491 -0.4676566,1.044674 -1.0444981,1.044674 -0.5768415,0 -1.0444985,-0.468183 -1.0444985,-1.044674 0,-0.576492 0.467657,-1.044673 1.0444985,-1.044673 0.5768415,0 1.0444981,0.468181 1.0444981,1.044673"
       style="fill:#74caf2;fill-opacity:1;fill-rule:nonzero;stroke:none;stroke-width:0.0174694"
       id="path1030" />
    <path
       d="m -21.138307,97.207332 c 0,0.576845 -0.467657,1.044499 -1.044498,1.044499 -0.576842,0 -1.044499,-0.467654 -1.044499,-1.044499 0,-0.577013 0.467657,-1.044499 1.044499,-1.044499 0.576841,0 1.044498,0.467486 1.044498,1.044499"
       style="fill:#74caf2;fill-opacity:1;fill-rule:nonzero;stroke:none;stroke-width:0.0174694"
       id="path1032" />
    <path
       d="m 3.1505116,106.87388 c 0,0.57701 -0.467658,1.04467 -1.0444981,1.04467 -0.5768419,0 -1.0444985,-0.46766 -1.0444985,-1.04467 0,-0.57684 0.4676566,-1.0445 1.0444985,-1.0445 0.5768401,0 1.0444981,0.46766 1.0444981,1.0445"
       style="fill:#fbf5a3;fill-opacity:1;fill-rule:nonzero;stroke:none;stroke-width:0.0174694"
       id="path1034" />
    <path
       d="m 30.925709,74.923833 c 0,0.557101 -0.451585,1.008686 -1.008687,1.008686 -0.556928,0 -1.008513,-0.451585 -1.008513,-1.008686 0,-0.556928 0.451585,-1.008513 1.008513,-1.008513 0.557102,0 1.008687,0.451585 1.008687,1.008513"
       style="fill:#e5faf2;fill-opacity:1;fill-rule:nonzero;stroke:none;stroke-width:0.0174694"
       id="path1036" />
    <path
       d="m 40.110093,48.951659 c 1.160672,-0.296806 1.596886,-0.733019 1.893693,-1.893688 0.06324,-0.247367 0.415247,-0.247367 0.478489,0 0.296801,1.160669 0.733015,1.596882 1.894207,1.893688 0.246321,0.06324 0.246321,0.415248 0,0.478488 -1.161192,0.296805 -1.597406,0.733018 -1.894207,1.893687 -0.06324,0.247543 -0.415253,0.247543 -0.478489,0 -0.296807,-1.160669 -0.733021,-1.596882 -1.893693,-1.893687 -0.247365,-0.06324 -0.247365,-0.415249 0,-0.478488"
       style="fill:#ffda47;fill-opacity:1;fill-rule:nonzero;stroke:none;stroke-width:0.0174694"
       id="path1038" />
  </g>
</svg>
