<?xml version="1.0" encoding="UTF-8" standalone="no"?>
<svg
   xmlns:dc="http://purl.org/dc/elements/1.1/"
   xmlns:cc="http://creativecommons.org/ns#"
   xmlns:rdf="http://www.w3.org/1999/02/22-rdf-syntax-ns#"
   xmlns:svg="http://www.w3.org/2000/svg"
   xmlns="http://www.w3.org/2000/svg"
   xmlns:sodipodi="http://sodipodi.sourceforge.net/DTD/sodipodi-0.dtd"
   xmlns:inkscape="http://www.inkscape.org/namespaces/inkscape"
   width="100mm"
   height="100.00002mm"
   viewBox="0 0 100 100.00001"
   version="1.1"
   id="svg1915"
   inkscape:version="1.0 (4035a4fb49, 2020-05-01)"
   sodipodi:docname="space4.svg">
  <defs
     id="defs1909" />
  <sodipodi:namedview
     id="base"
     pagecolor="#ffffff"
     bordercolor="#666666"
     borderopacity="1.0"
     inkscape:pageopacity="0.0"
     inkscape:pageshadow="2"
     inkscape:zoom="0.35"
     inkscape:cx="430.19008"
     inkscape:cy="584.47587"
     inkscape:document-units="mm"
     inkscape:current-layer="layer1"
     inkscape:document-rotation="0"
     showgrid="false"
     inkscape:window-width="1920"
     inkscape:window-height="996"
     inkscape:window-x="-8"
     inkscape:window-y="-8"
     inkscape:window-maximized="1" />
  <metadata
     id="metadata1912">
    <rdf:RDF>
      <cc:Work
         rdf:about="">
        <dc:format>image/svg+xml</dc:format>
        <dc:type
           rdf:resource="http://purl.org/dc/dcmitype/StillImage" />
        <dc:title />
      </cc:Work>
    </rdf:RDF>
  </metadata>
  <g
     inkscape:label="Layer 1"
     inkscape:groupmode="layer"
     id="layer1"
     transform="translate(7.9877921,6.4759074)">
    <path
       d="M 92.012208,93.52411 H -7.9877921 V -6.4759074 H 92.012208 V 93.52411"
       style="fill:#0c043d;fill-opacity:1;fill-rule:nonzero;stroke:none;stroke-width:0.0174694"
       id="path654" />
    <path
       d="m 4.9579411,11.357427 c 0,0.295059 -0.2391568,0.534391 -0.5342159,0.534391 -0.2950591,0 -0.5342155,-0.239332 -0.5342155,-0.534391 0,-0.295059 0.2391564,-0.534215 0.5342155,-0.534215 0.2950591,0 0.5342159,0.239156 0.5342159,0.534215"
       style="fill:#ffda47;fill-opacity:1;fill-rule:nonzero;stroke:none;stroke-width:0.0174694"
       id="path656" />
    <path
       d="m -3.8038597,13.60033 c 0,0.516396 -0.418568,0.934965 -0.9349648,0.934965 -0.5163969,0 -0.9351394,-0.418569 -0.9351394,-0.934965 0,-0.516397 0.4187425,-0.934965 0.9351394,-0.934965 0.5163968,0 0.9349648,0.418568 0.9349648,0.934965"
       style="fill:#74caf2;fill-opacity:1;fill-rule:nonzero;stroke:none;stroke-width:0.0174694"
       id="path658" />
    <path
       d="m 79.769623,-0.15109454 c 0,0.29505912 -0.239333,0.53439026 -0.534565,0.53439026 -0.295236,0 -0.534565,-0.23933114 -0.534565,-0.53439026 0,-0.29505912 0.239329,-0.53421545 0.534565,-0.53421545 0.295232,0 0.534565,0.23915633 0.534565,0.53421545"
       style="fill:#fbf5a3;fill-opacity:1;fill-rule:nonzero;stroke:none;stroke-width:0.0174694"
       id="path660" />
    <path
       d="m 84.834012,-3.6248938 c 0,0.2950589 -0.239329,0.5343904 -0.534565,0.5343904 -0.295232,0 -0.534565,-0.2393315 -0.534565,-0.5343904 0,-0.2950589 0.239333,-0.5342157 0.534565,-0.5342157 0.295236,0 0.534565,0.2391568 0.534565,0.5342157"
       style="fill:#fbf5a3;fill-opacity:1;fill-rule:nonzero;stroke:none;stroke-width:0.0174694"
       id="path662" />
    <path
       d="m -3.2387232,83.606653 c 0,0.295266 -0.2391568,0.53458 -0.5342156,0.53458 -0.2952338,0 -0.5343905,-0.239314 -0.5343905,-0.53458 0,-0.295217 0.2391567,-0.532817 0.5343905,-0.532817 0.2950588,0 0.5342156,0.2376 0.5342156,0.532817"
       style="fill:#74caf2;fill-opacity:1;fill-rule:nonzero;stroke:none;stroke-width:0.0174694"
       id="path664" />
    <path
       d="m 37.085649,44.270386 c 0,0.295063 -0.239156,0.534219 -0.534215,0.534219 -0.295233,0 -0.534391,-0.239156 -0.534391,-0.534219 0,-0.295231 0.239158,-0.534387 0.534391,-0.534387 0.295059,0 0.534215,0.239156 0.534215,0.534387"
       style="fill:#74caf2;fill-opacity:1;fill-rule:nonzero;stroke:none;stroke-width:0.0174694"
       id="path666" />
    <path
       d="m 77.769369,11.600077 c 0,0.295059 -0.239333,0.534392 -0.534565,0.534392 -0.295231,0 -0.534565,-0.239333 -0.534565,-0.534392 0,-0.295058 0.239334,-0.534215 0.534565,-0.534215 0.295232,0 0.534565,0.239157 0.534565,0.534215"
       style="fill:#fbf5a3;fill-opacity:1;fill-rule:nonzero;stroke:none;stroke-width:0.0174694"
       id="path668" />
    <path
       d="m 27.2942,38.752139 c 0,0.295058 -0.239157,0.53439 -0.534391,0.53439 -0.295059,0 -0.534215,-0.239332 -0.534215,-0.53439 0,-0.295059 0.239156,-0.534216 0.534215,-0.534216 0.295234,0 0.534391,0.239157 0.534391,0.534216"
       style="fill:#f39e0f;fill-opacity:1;fill-rule:nonzero;stroke:none;stroke-width:0.0174694"
       id="path670" />
    <path
       d="m 86.568731,48.866074 c 0,0.295059 -0.239333,0.534214 -0.534565,0.534214 -0.295236,0 -0.534565,-0.239155 -0.534565,-0.534214 0,-0.295058 0.239329,-0.534391 0.534565,-0.534391 0.295232,0 0.534565,0.239333 0.534565,0.534391"
       style="fill:#74caf2;fill-opacity:1;fill-rule:nonzero;stroke:none;stroke-width:0.0174694"
       id="path672" />
    <path
       d="m 72.086559,90.858237 c 0,0.295217 -0.237586,0.5346 -0.532817,0.5346 -0.295236,0 -0.534565,-0.239383 -0.534565,-0.5346 0,-0.295196 0.239329,-0.534585 0.534565,-0.534585 0.295231,0 0.532817,0.239389 0.532817,0.534585"
       style="fill:#e5faf2;fill-opacity:1;fill-rule:nonzero;stroke:none;stroke-width:0.0174694"
       id="path674" />
    <path
       d="m 61.339355,64.362346 c 0,0.293488 -0.239329,0.532817 -0.534565,0.532817 -0.295232,0 -0.534738,-0.239329 -0.534738,-0.532817 0,-0.295237 0.239506,-0.534566 0.534738,-0.534566 0.295236,0 0.534565,0.239329 0.534565,0.534566"
       style="fill:#74caf2;fill-opacity:1;fill-rule:nonzero;stroke:none;stroke-width:0.0174694"
       id="path676" />
    <path
       d="m 11.788669,-4.6452841 c 0,0.2746197 -0.222735,0.4971803 -0.497355,0.4971803 -0.27462,0 -0.497181,-0.2225606 -0.497181,-0.4971803 0,-0.2746197 0.222561,-0.4973551 0.497181,-0.4973551 0.27462,0 0.497355,0.2227354 0.497355,0.4973551"
       style="fill:#fbf5a3;fill-opacity:1;fill-rule:nonzero;stroke:none;stroke-width:0.0174694"
       id="path678" />
    <path
       d="m 69.081813,68.556757 c -1.378336,0.284754 -1.829049,0.735467 -2.112054,2.11206 -0.04541,0.218367 -0.358127,0.218367 -0.401798,0 -0.284753,-1.376593 -0.735462,-1.827306 -2.112055,-2.11206 -0.218372,-0.04541 -0.218372,-0.356373 0,-0.401797 1.376593,-0.284749 1.827302,-0.735462 2.112055,-2.112055 0.04368,-0.218367 0.356378,-0.218367 0.401798,0 0.283005,1.376593 0.733718,1.827306 2.112054,2.112055 0.216624,0.04541 0.216624,0.356378 0,0.401797"
       style="fill:#ffda47;fill-opacity:1;fill-rule:nonzero;stroke:none;stroke-width:0.0174694"
       id="path680" />
    <path
       d="m 78.77037,67.35486 c 0,0.12578 -0.10307,0.22885 -0.22885,0.22885 -0.124032,0 -0.227102,-0.10307 -0.227102,-0.22885 0,-0.124032 0.10307,-0.227102 0.227102,-0.227102 0.12578,0 0.22885,0.10307 0.22885,0.227102"
       style="fill:#fbf5a3;fill-opacity:1;fill-rule:nonzero;stroke:none;stroke-width:0.0174694"
       id="path682" />
    <path
       d="m 41.413181,16.111563 c 0,0.125604 -0.101848,0.227276 -0.227278,0.227276 -0.125606,0 -0.227277,-0.101672 -0.227277,-0.227276 0,-0.125432 0.101671,-0.227278 0.227277,-0.227278 0.12543,0 0.227278,0.101846 0.227278,0.227278"
       style="fill:#e5faf2;fill-opacity:1;fill-rule:nonzero;stroke:none;stroke-width:0.0174694"
       id="path684" />
    <path
       d="m 3.4892846,57.627524 c 0,0.125428 -0.1018471,0.227281 -0.2272775,0.227281 -0.1256052,0 -0.2272776,-0.101853 -0.2272776,-0.227281 0,-0.125607 0.1016724,-0.227276 0.2272776,-0.227276 0.1254304,0 0.2272775,0.101669 0.2272775,0.227276"
       style="fill:#74caf2;fill-opacity:1;fill-rule:nonzero;stroke:none;stroke-width:0.0174694"
       id="path686" />
    <path
       d="m 36.76526,73.856989 c 0,0.12578 -0.101672,0.227102 -0.227278,0.227102 -0.12543,0 -0.227277,-0.101322 -0.227277,-0.227102 0,-0.12578 0.101847,-0.227103 0.227277,-0.227103 0.125606,0 0.227278,0.101323 0.227278,0.227103"
       style="fill:#f39e0f;fill-opacity:1;fill-rule:nonzero;stroke:none;stroke-width:0.0174694"
       id="path688" />
    <path
       d="m 12.988646,91.740445 c 0,0.125761 -0.101848,0.227103 -0.227278,0.227103 -0.125606,0 -0.227278,-0.101342 -0.227278,-0.227103 0,-0.125765 0.101672,-0.227107 0.227278,-0.227107 0.12543,0 0.227278,0.101342 0.227278,0.227107"
       style="fill:#f39e0f;fill-opacity:1;fill-rule:nonzero;stroke:none;stroke-width:0.0174694"
       id="path690" />
    <path
       d="m 49.734579,66.107543 c 0,0.12578 -0.101847,0.227102 -0.227281,0.227102 -0.125601,0 -0.227275,-0.101322 -0.227275,-0.227102 0,-0.12578 0.101674,-0.227102 0.227275,-0.227102 0.125434,0 0.227281,0.101322 0.227281,0.227102"
       style="fill:#74caf2;fill-opacity:1;fill-rule:nonzero;stroke:none;stroke-width:0.0174694"
       id="path692" />
    <path
       d="m 62.984978,75.726218 c 0,0.124032 -0.101322,0.227103 -0.227102,0.227103 -0.12578,0 -0.227102,-0.103071 -0.227102,-0.227103 0,-0.12578 0.101322,-0.22885 0.227102,-0.22885 0.12578,0 0.227102,0.10307 0.227102,0.22885"
       style="fill:#fbf5a3;fill-opacity:1;fill-rule:nonzero;stroke:none;stroke-width:0.0174694"
       id="path694" />
    <path
       d="m 77.089806,44.736297 c 0,0.125434 -0.101323,0.227276 -0.227103,0.227276 -0.12578,0 -0.227102,-0.101842 -0.227102,-0.227276 0,-0.125607 0.101322,-0.227275 0.227102,-0.227275 0.12578,0 0.227103,0.101668 0.227103,0.227275"
       style="fill:#74caf2;fill-opacity:1;fill-rule:nonzero;stroke:none;stroke-width:0.0174694"
       id="path696" />
    <path
       d="m 64.054109,6.9081347 c 0,0.1256042 -0.101323,0.2272765 -0.227103,0.2272765 -0.12578,0 -0.227102,-0.1016723 -0.227102,-0.2272765 0,-0.1254319 0.101322,-0.2272781 0.227102,-0.2272781 0.12578,0 0.227103,0.1018462 0.227103,0.2272781"
       style="fill:#fbf5a3;fill-opacity:1;fill-rule:nonzero;stroke:none;stroke-width:0.0174694"
       id="path698" />
    <path
       d="m 22.764547,81.03515 c 0,0.176473 -0.143598,0.321492 -0.320564,0.321492 -0.177141,0 -0.320565,-0.145019 -0.320565,-0.321492 0,-0.176389 0.143424,-0.319689 0.320565,-0.319689 0.176966,0 0.320564,0.1433 0.320564,0.319689"
       style="fill:#f39e0f;fill-opacity:1;fill-rule:nonzero;stroke:none;stroke-width:0.0174694"
       id="path700" />
    <path
       d="m 62.415472,23.429688 c 0,0.17714 -0.14325,0.320565 -0.321437,0.320565 -0.176439,0 -0.319689,-0.143425 -0.319689,-0.320565 0,-0.176966 0.14325,-0.320565 0.319689,-0.320565 0.178187,0 0.321437,0.143599 0.321437,0.320565"
       style="fill:#fbf5a3;fill-opacity:1;fill-rule:nonzero;stroke:none;stroke-width:0.0174694"
       id="path702" />
    <path
       d="m 13.252608,28.132288 c 0,0.176966 -0.143423,0.320565 -0.320563,0.320565 -0.176966,0 -0.320565,-0.143599 -0.320565,-0.320565 0,-0.17714 0.143599,-0.320565 0.320565,-0.320565 0.17714,0 0.320563,0.143425 0.320563,0.320565"
       style="fill:#fbf5a3;fill-opacity:1;fill-rule:nonzero;stroke:none;stroke-width:0.0174694"
       id="path704" />
    <path
       d="m -6.5193104,39.14031 c 0,0.176966 -0.1435989,0.320565 -0.3205644,0.320565 -0.1771402,0 -0.3205643,-0.143599 -0.3205643,-0.320565 0,-0.17714 0.1434241,-0.320565 0.3205643,-0.320565 0.1769655,0 0.3205644,0.143425 0.3205644,0.320565"
       style="fill:#f39e0f;fill-opacity:1;fill-rule:nonzero;stroke:none;stroke-width:0.0174694"
       id="path706" />
    <path
       d="m 10.348662,83.858248 c 0,0.176404 -0.143423,0.319709 -0.320563,0.319709 -0.1769662,0 -0.3205649,-0.143305 -0.3205649,-0.319709 0,-0.178172 0.1435987,-0.321472 0.3205649,-0.321472 0.17714,0 0.320563,0.1433 0.320563,0.321472"
       style="fill:#fbf5a3;fill-opacity:1;fill-rule:nonzero;stroke:none;stroke-width:0.0174694"
       id="path708" />
    <path
       d="m 55.468226,88.730441 c 0,0.176478 -0.143602,0.319709 -0.320566,0.319709 -0.177141,0 -0.320565,-0.143231 -0.320565,-0.319709 0,-0.17639 0.143424,-0.321403 0.320565,-0.321403 0.176964,0 0.320566,0.145013 0.320566,0.321403"
       style="fill:#f39e0f;fill-opacity:1;fill-rule:nonzero;stroke:none;stroke-width:0.0174694"
       id="path710" />
    <path
       d="m 87.091065,76.786613 c 0,0.176444 -0.143251,0.319694 -0.321437,0.319694 -0.176439,0 -0.31969,-0.14325 -0.31969,-0.319694 0,-0.178187 0.143251,-0.321437 0.31969,-0.321437 0.178186,0 0.321437,0.14325 0.321437,0.321437"
       style="fill:#fbf5a3;fill-opacity:1;fill-rule:nonzero;stroke:none;stroke-width:0.0174694"
       id="path712" />
    <path
       d="m 43.269658,7.8727965 c 0,0.1180941 -0.09556,0.2138261 -0.213652,0.2138261 -0.11809,0 -0.213648,-0.095732 -0.213648,-0.2138261 0,-0.1179187 0.09556,-0.2136507 0.213648,-0.2136507 0.118094,0 0.213652,0.095732 0.213652,0.2136507"
       style="fill:#fbf5a3;fill-opacity:1;fill-rule:nonzero;stroke:none;stroke-width:0.0174694"
       id="path714" />
    <path
       d="m 6.9910354,73.37483 c 0,0.117045 -0.095733,0.213128 -0.213826,0.213128 -0.1179188,0 -0.2136517,-0.09608 -0.2136517,-0.213128 0,-0.118793 0.095733,-0.214871 0.2136517,-0.214871 0.1180931,0 0.213826,0.09608 0.213826,0.214871"
       style="fill:#f39e0f;fill-opacity:1;fill-rule:nonzero;stroke:none;stroke-width:0.0174694"
       id="path716" />
    <path
       d="m 12.33389,40.248222 c 0,0.118093 -0.09573,0.213652 -0.213651,0.213652 -0.118094,0 -0.213826,-0.09556 -0.213826,-0.213652 0,-0.118093 0.09573,-0.213826 0.213826,-0.213826 0.117919,0 0.213651,0.09573 0.213651,0.213826"
       style="fill:#fbf5a3;fill-opacity:1;fill-rule:nonzero;stroke:none;stroke-width:0.0174694"
       id="path718" />
    <path
       d="m 52.726568,24.646784 c 0,0.118094 -0.09556,0.213651 -0.213647,0.213651 -0.118095,0 -0.213826,-0.09556 -0.213826,-0.213651 0,-0.118093 0.09573,-0.213651 0.213826,-0.213651 0.118089,0 0.213647,0.09556 0.213647,0.213651"
       style="fill:#fbf5a3;fill-opacity:1;fill-rule:nonzero;stroke:none;stroke-width:0.0174694"
       id="path720" />
    <path
       d="m 41.729552,-4.1152612 c 0,0.1180935 -0.09573,0.2138261 -0.213826,0.2138261 -0.117919,0 -0.213651,-0.095733 -0.213651,-0.2138261 0,-0.1179187 0.09573,-0.2136513 0.213651,-0.2136513 0.118094,0 0.213826,0.095733 0.213826,0.2136513"
       style="fill:#74caf2;fill-opacity:1;fill-rule:nonzero;stroke:none;stroke-width:0.0174694"
       id="path722" />
    <path
       d="m 66.618624,49.224369 c 0,0.118095 -0.09608,0.213653 -0.214875,0.213653 -0.117045,0 -0.213128,-0.09556 -0.213128,-0.213653 0,-0.118089 0.09608,-0.213826 0.213128,-0.213826 0.118792,0 0.214875,0.09574 0.214875,0.213826"
       style="fill:#e5faf2;fill-opacity:1;fill-rule:nonzero;stroke:none;stroke-width:0.0174694"
       id="path724" />
    <path
       d="m 25.26425,13.850317 c 0,0.118093 -0.09573,0.213826 -0.213826,0.213826 -0.118093,0 -0.213651,-0.09573 -0.213651,-0.213826 0,-0.118093 0.09556,-0.213651 0.213651,-0.213651 0.118094,0 0.213826,0.09556 0.213826,0.213651"
       style="fill:#ee3782;fill-opacity:1;fill-rule:nonzero;stroke:none;stroke-width:0.0174694"
       id="path726" />
    <path
       d="m 87.484127,13.386504 c 0,0.118093 -0.09608,0.213826 -0.213127,0.213826 -0.118793,0 -0.214871,-0.09573 -0.214871,-0.213826 0,-0.117919 0.09608,-0.213652 0.214871,-0.213652 0.117044,0 0.213127,0.09573 0.213127,0.213652"
       style="fill:#e5faf2;fill-opacity:1;fill-rule:nonzero;stroke:none;stroke-width:0.0174694"
       id="path728" />
    <path
       d="m 74.099039,33.409284 c 0,0.117919 -0.09608,0.213652 -0.214876,0.213652 -0.117044,0 -0.213127,-0.09573 -0.213127,-0.213652 0,-0.118093 0.09608,-0.213826 0.213127,-0.213826 0.118793,0 0.214876,0.09573 0.214876,0.213826"
       style="fill:#fbf5a3;fill-opacity:1;fill-rule:nonzero;stroke:none;stroke-width:0.0174694"
       id="path730" />
    <path
       d="m 79.441194,28.066253 c 0,0.118094 -0.09608,0.213826 -0.213128,0.213826 -0.118788,0 -0.214871,-0.09573 -0.214871,-0.213826 0,-0.118092 0.09608,-0.213651 0.214871,-0.213651 0.11705,0 0.213128,0.09556 0.213128,0.213651"
       style="fill:#fbf5a3;fill-opacity:1;fill-rule:nonzero;stroke:none;stroke-width:0.0174694"
       id="path732" />
    <path
       d="m 89.521065,33.602321 c 0,0.118094 -0.09608,0.213826 -0.214875,0.213826 -0.117045,0 -0.213128,-0.09573 -0.213128,-0.213826 0,-0.118093 0.09608,-0.213651 0.213128,-0.213651 0.118792,0 0.214875,0.09556 0.214875,0.213651"
       style="fill:#e5faf2;fill-opacity:1;fill-rule:nonzero;stroke:none;stroke-width:0.0174694"
       id="path734" />
    <path
       d="m 54.650131,92.608659 c 0,0.118808 -0.09573,0.214891 -0.213826,0.214891 -0.117921,0 -0.213653,-0.09608 -0.213653,-0.214891 0,-0.11703 0.09573,-0.213113 0.213653,-0.213113 0.118095,0 0.213826,0.09608 0.213826,0.213113"
       style="fill:#ffda47;fill-opacity:1;fill-rule:nonzero;stroke:none;stroke-width:0.0174694"
       id="path736" />
    <path
       d="m 38.442851,56.60469 c 0,0.118094 -0.09556,0.213648 -0.213652,0.213648 -0.118093,0 -0.213826,-0.09555 -0.213826,-0.213648 0,-0.118095 0.09573,-0.213826 0.213826,-0.213826 0.118094,0 0.213652,0.09573 0.213652,0.213826"
       style="fill:#e5faf2;fill-opacity:1;fill-rule:nonzero;stroke:none;stroke-width:0.0174694"
       id="path738" />
    <path
       d="m 35.515147,38.602775 c 0,0.118094 -0.09556,0.213826 -0.213652,0.213826 -0.118093,0 -0.213826,-0.09573 -0.213826,-0.213826 0,-0.117919 0.09573,-0.213651 0.213826,-0.213651 0.118094,0 0.213652,0.09573 0.213652,0.213651"
       style="fill:#e5faf2;fill-opacity:1;fill-rule:nonzero;stroke:none;stroke-width:0.0174694"
       id="path740" />
    <path
       d="m 77.982497,85.144031 c 0,0.11703 -0.09434,0.213113 -0.213128,0.213113 -0.118792,0 -0.213127,-0.09608 -0.213127,-0.213113 0,-0.118807 0.09434,-0.213197 0.213127,-0.213197 0.118793,0 0.213128,0.09439 0.213128,0.213197"
       style="fill:#ee3782;fill-opacity:1;fill-rule:nonzero;stroke:none;stroke-width:0.0174694"
       id="path742" />
    <path
       d="m -6.4890884,76.107054 c 0,0.117045 -0.095558,0.213128 -0.2136512,0.213128 -0.1180935,0 -0.2138261,-0.09608 -0.2138261,-0.213128 0,-0.118792 0.095733,-0.214875 0.2138261,-0.214875 0.1180934,0 0.2136512,0.09608 0.2136512,0.214875"
       style="fill:#74caf2;fill-opacity:1;fill-rule:nonzero;stroke:none;stroke-width:0.0174694"
       id="path744" />
    <path
       d="m -5.0228777,58.377836 c 0,0.176964 -0.1435989,0.320566 -0.320739,0.320566 -0.1769656,0 -0.3205644,-0.143602 -0.3205644,-0.320566 0,-0.177136 0.1435988,-0.320565 0.3205644,-0.320565 0.1771401,0 0.320739,0.143429 0.320739,0.320565"
       style="fill:#74caf2;fill-opacity:1;fill-rule:nonzero;stroke:none;stroke-width:0.0174694"
       id="path746" />
    <path
       d="m 4.7785298,25.024124 c 0,0.176966 -0.1434244,0.320564 -0.3205642,0.320564 -0.1769656,0 -0.3205648,-0.143598 -0.3205648,-0.320564 0,-0.176965 0.1435992,-0.320564 0.3205648,-0.320564 0.1771398,0 0.3205642,0.143599 0.3205642,0.320564"
       style="fill:#fbf5a3;fill-opacity:1;fill-rule:nonzero;stroke:none;stroke-width:0.0174694"
       id="path748" />
    <path
       d="m 34.83576,7.9203137 c 0,0.176966 -0.143598,0.3205647 -0.320739,0.3205647 -0.176966,0 -0.320564,-0.1435987 -0.320564,-0.3205647 0,-0.1771399 0.143598,-0.3205648 0.320564,-0.3205648 0.177141,0 0.320739,0.1434249 0.320739,0.3205648"
       style="fill:#fbf5a3;fill-opacity:1;fill-rule:nonzero;stroke:none;stroke-width:0.0174694"
       id="path750" />
    <path
       d="m 88.333142,19.370488 c 0,0.17714 -0.14325,0.320565 -0.319689,0.320565 -0.178186,0 -0.321437,-0.143425 -0.321437,-0.320565 0,-0.176966 0.143251,-0.320565 0.321437,-0.320565 0.176439,0 0.319689,0.143599 0.319689,0.320565"
       style="fill:#74caf2;fill-opacity:1;fill-rule:nonzero;stroke:none;stroke-width:0.0174694"
       id="path752" />
    <path
       d="m -5.8479596,-1.4012082 c 0,0.1771403 -0.1434242,0.3205647 -0.3205644,0.3205647 -0.1769655,0 -0.3205644,-0.1434244 -0.3205644,-0.3205647 0,-0.1769654 0.1435989,-0.3205642 0.3205644,-0.3205642 0.1771402,0 0.3205644,0.1435988 0.3205644,0.3205642"
       style="fill:#ee3782;fill-opacity:1;fill-rule:nonzero;stroke:none;stroke-width:0.0174694"
       id="path754" />
    <path
       d="m -4.7023134,25.139772 c 0,0.176966 -0.1435989,0.320565 -0.3205643,0.320565 -0.1771402,0 -0.320739,-0.143599 -0.320739,-0.320565 0,-0.17714 0.1435988,-0.320565 0.320739,-0.320565 0.1769654,0 0.3205643,0.143425 0.3205643,0.320565"
       style="fill:#e5faf2;fill-opacity:1;fill-rule:nonzero;stroke:none;stroke-width:0.0174694"
       id="path756" />
    <path
       d="m 35.162089,87.020219 c 0,0.176473 -0.143599,0.321402 -0.320564,0.321402 -0.17714,0 -0.320565,-0.144929 -0.320565,-0.321402 0,-0.176479 0.143425,-0.319709 0.320565,-0.319709 0.176965,0 0.320564,0.14323 0.320564,0.319709"
       style="fill:#f39e0f;fill-opacity:1;fill-rule:nonzero;stroke:none;stroke-width:0.0174694"
       id="path758" />
    <path
       d="m 14.489271,55.863286 c 0,0.176964 -0.143599,0.320561 -0.320565,0.320561 -0.17714,0 -0.320739,-0.143597 -0.320739,-0.320561 0,-0.177142 0.143599,-0.320566 0.320739,-0.320566 0.176966,0 0.320565,0.143424 0.320565,0.320566"
       style="fill:#e5faf2;fill-opacity:1;fill-rule:nonzero;stroke:none;stroke-width:0.0174694"
       id="path760" />
    <path
       d="m 39.223211,27.170245 c 0,0.17714 -0.143599,0.320565 -0.320565,0.320565 -0.17714,0 -0.320564,-0.143425 -0.320564,-0.320565 0,-0.176964 0.143424,-0.320563 0.320564,-0.320563 0.176966,0 0.320565,0.143599 0.320565,0.320563"
       style="fill:#e5faf2;fill-opacity:1;fill-rule:nonzero;stroke:none;stroke-width:0.0174694"
       id="path762" />
    <path
       d="m 61.452909,4.0852464 c 0,0.1771403 -0.143251,0.3205642 -0.319695,0.3205642 -0.178186,0 -0.321437,-0.1434239 -0.321437,-0.3205642 0,-0.1769656 0.143251,-0.3205643 0.321437,-0.3205643 0.176444,0 0.319695,0.1435987 0.319695,0.3205643"
       style="fill:#ee3782;fill-opacity:1;fill-rule:nonzero;stroke:none;stroke-width:0.0174694"
       id="path764" />
    <path
       d="m 89.341131,1.3490069 c 0,0.1771399 -0.143251,0.3205643 -0.31969,0.3205643 -0.178191,0 -0.321442,-0.1434244 -0.321442,-0.3205643 0,-0.1769655 0.143251,-0.3205642 0.321442,-0.3205642 0.176439,0 0.31969,0.1435987 0.31969,0.3205642"
       style="fill:#ee3782;fill-opacity:1;fill-rule:nonzero;stroke:none;stroke-width:0.0174694"
       id="path766" />
    <path
       d="m 9.2786594,2.0112736 c 0,0.1771403 -0.1435987,0.3205642 -0.3205647,0.3205642 -0.1771404,0 -0.3205647,-0.1434239 -0.3205647,-0.3205642 0,-0.1769656 0.1434243,-0.3205643 0.3205647,-0.3205643 0.176966,0 0.3205647,0.1435987 0.3205647,0.3205643"
       style="fill:#e5faf2;fill-opacity:1;fill-rule:nonzero;stroke:none;stroke-width:0.0174694"
       id="path768" />
    <path
       d="m 84.323905,25.887813 c 0,0.176966 -0.143251,0.320565 -0.31969,0.320565 -0.176443,0 -0.321437,-0.143599 -0.321437,-0.320565 0,-0.17714 0.144994,-0.320563 0.321437,-0.320563 0.176439,0 0.31969,0.143423 0.31969,0.320563"
       style="fill:#fbf5a3;fill-opacity:1;fill-rule:nonzero;stroke:none;stroke-width:0.0174694"
       id="path770" />
    <path
       d="m 69.836493,41.866068 c 0,0.17714 -0.14325,0.320564 -0.319689,0.320564 -0.178187,0 -0.321437,-0.143424 -0.321437,-0.320564 0,-0.176966 0.14325,-0.320565 0.321437,-0.320565 0.176439,0 0.319689,0.143599 0.319689,0.320565"
       style="fill:#fbf5a3;fill-opacity:1;fill-rule:nonzero;stroke:none;stroke-width:0.0174694"
       id="path772" />
    <path
       d="m 28.655594,-3.6514473 c 0,0.1771402 -0.1436,0.3205642 -0.320564,0.3205642 -0.17714,0 -0.320565,-0.143424 -0.320565,-0.3205642 0,-0.1769656 0.143425,-0.3205644 0.320565,-0.3205644 0.176964,0 0.320564,0.1435988 0.320564,0.3205644"
       style="fill:#f39e0f;fill-opacity:1;fill-rule:nonzero;stroke:none;stroke-width:0.0174694"
       id="path774" />
    <path
       d="m -0.32045239,77.614667 c 0,0.178186 -0.14359869,0.321437 -0.32056423,0.321437 -0.17714036,0 -0.32056424,-0.143251 -0.32056424,-0.321437 0,-0.176444 0.14342388,-0.31969 0.32056424,-0.31969 0.17696554,0 0.32056423,0.143246 0.32056423,0.31969"
       style="fill:#e5faf2;fill-opacity:1;fill-rule:nonzero;stroke:none;stroke-width:0.0174694"
       id="path776" />
    <path
       d="m 55.408302,35.602573 c 0,0.176966 -0.143597,0.320565 -0.32056,0.320565 -0.177142,0 -0.320566,-0.143599 -0.320566,-0.320565 0,-0.17714 0.143424,-0.320565 0.320566,-0.320565 0.176963,0 0.32056,0.143425 0.32056,0.320565"
       style="fill:#74caf2;fill-opacity:1;fill-rule:nonzero;stroke:none;stroke-width:0.0174694"
       id="path778" />
    <path
       d="m 29.818186,20.330259 c 0,0.17714 -0.143425,0.320564 -0.320565,0.320564 -0.176966,0 -0.320565,-0.143424 -0.320565,-0.320564 0,-0.176966 0.143599,-0.320565 0.320565,-0.320565 0.17714,0 0.320565,0.143599 0.320565,0.320565"
       style="fill:#e5faf2;fill-opacity:1;fill-rule:nonzero;stroke:none;stroke-width:0.0174694"
       id="path780" />
    <path
       d="m 73.103282,22.574734 c 0,0.176964 -0.144998,0.320563 -0.321442,0.320563 -0.176438,0 -0.319689,-0.143599 -0.319689,-0.320563 0,-0.177141 0.143251,-0.320565 0.319689,-0.320565 0.176444,0 0.321442,0.143424 0.321442,0.320565"
       style="fill:#f39e0f;fill-opacity:1;fill-rule:nonzero;stroke:none;stroke-width:0.0174694"
       id="path782" />
    <path
       d="m 71.499587,-1.4721338 c 0,0.176965 -0.14325,0.3205642 -0.321442,0.3205642 -0.176439,0 -0.319689,-0.1435992 -0.319689,-0.3205642 0,-0.1771404 0.14325,-0.3207392 0.319689,-0.3207392 0.178192,0 0.321442,0.1435988 0.321442,0.3207392"
       style="fill:#74caf2;fill-opacity:1;fill-rule:nonzero;stroke:none;stroke-width:0.0174694"
       id="path784" />
    <path
       d="m 41.574599,1.5202074 c 0,0.1771405 -0.143599,0.3207392 -0.320565,0.3207392 -0.17714,0 -0.320565,-0.1435987 -0.320565,-0.3207392 0,-0.1769655 0.143425,-0.3205642 0.320565,-0.3205642 0.176966,0 0.320565,0.1435987 0.320565,0.3205642"
       style="fill:#ee3782;fill-opacity:1;fill-rule:nonzero;stroke:none;stroke-width:0.0174694"
       id="path786" />
    <path
       d="m 22.978198,4.0852464 c 0,0.1771403 -0.143599,0.3205642 -0.320564,0.3205642 -0.177139,0 -0.320564,-0.1434239 -0.320564,-0.3205642 0,-0.1769656 0.143425,-0.3205643 0.320564,-0.3205643 0.176965,0 0.320564,0.1435987 0.320564,0.3205643"
       style="fill:#ee3782;fill-opacity:1;fill-rule:nonzero;stroke:none;stroke-width:0.0174694"
       id="path788" />
    <path
       d="m 2.7618567,31.852232 c 0,0.236012 -0.1912906,0.427302 -0.4274772,0.427302 -0.2360123,0 -0.4273029,-0.19129 -0.4273029,-0.427302 0,-0.236187 0.1912906,-0.427478 0.4273029,-0.427478 0.2361866,0 0.4274772,0.191291 0.4274772,0.427478"
       style="fill:#f39e0f;fill-opacity:1;fill-rule:nonzero;stroke:none;stroke-width:0.0174694"
       id="path790" />
    <path
       d="m -3.2387232,66.605424 c 0,0.354625 -0.287023,0.641127 -0.6411286,0.641127 -0.3541058,0 -0.6411288,-0.286502 -0.6411288,-0.641127 0,-0.35463 0.287023,-0.641131 0.6411288,-0.641131 0.3541056,0 0.6411286,0.286501 0.6411286,0.641131"
       style="fill:#74caf2;fill-opacity:1;fill-rule:nonzero;stroke:none;stroke-width:0.0174694"
       id="path792" />
    <path
       d="m -2.4885854,49.353997 c 0,0.412974 -0.3348893,0.747866 -0.7480415,0.747866 -0.4131523,0 -0.7480416,-0.334892 -0.7480416,-0.747866 0,-0.413153 0.3348893,-0.748045 0.7480416,-0.748045 0.4131522,0 0.7480415,0.334892 0.7480415,0.748045"
       style="fill:#74caf2;fill-opacity:1;fill-rule:nonzero;stroke:none;stroke-width:0.0174694"
       id="path794" />
    <path
       d="m 6.2021144,88.32169 c -1.4269039,0.324899 -1.8907177,0.789602 -2.2166974,2.216838 -0.048564,0.211415 -0.3518349,0.211415 -0.4003999,0 -0.3261545,-1.427236 -0.7899683,-1.891939 -2.2166979,-2.216838 -0.2122538,-0.04892 -0.2122538,-0.352862 0,-0.400084 1.4267296,-0.326677 1.8905434,-0.791315 2.2166979,-2.216858 0.048564,-0.213108 0.3518344,-0.213108 0.4003999,0 0.3259797,1.425543 0.7897935,1.890181 2.2166974,2.216858 0.2120795,0.04724 0.2120795,0.351154 0,0.400084"
       style="fill:#fbf5a3;fill-opacity:1;fill-rule:nonzero;stroke:none;stroke-width:0.0174694"
       id="path796" />
    <path
       d="m 33.705661,63.757903 c 0,0.58872 -0.478313,1.067382 -1.068606,1.067382 -0.590118,0 -1.06843,-0.478662 -1.06843,-1.067382 0,-0.590468 0.478312,-1.06913 1.06843,-1.06913 0.590293,0 1.068606,0.478662 1.068606,1.06913"
       style="fill:#fbf5a3;fill-opacity:1;fill-rule:nonzero;stroke:none;stroke-width:0.0174694"
       id="path798" />
    <path
       d="m 62.130719,37.790445 c 0,0.29506 -0.239328,0.534217 -0.534565,0.534217 -0.295231,0 -0.534565,-0.239157 -0.534565,-0.534217 0,-0.295059 0.239334,-0.534215 0.534565,-0.534215 0.295237,0 0.534565,0.239156 0.534565,0.534215"
       style="fill:#e5faf2;fill-opacity:1;fill-rule:nonzero;stroke:none;stroke-width:0.0174694"
       id="path800" />
    <path
       d="m 69.824267,16.525413 c 0,0.472199 -0.382584,0.854956 -0.854259,0.854956 -0.473419,0 -0.856003,-0.382757 -0.856003,-0.854956 0,-0.472023 0.382584,-0.85478 0.856003,-0.85478 0.471675,0 0.854259,0.382757 0.854259,0.85478"
       style="fill:#74caf2;fill-opacity:1;fill-rule:nonzero;stroke:none;stroke-width:0.0174694"
       id="path802" />
    <path
       d="m 36.755826,19.361054 c 0,0.472024 -0.382755,0.85478 -0.854954,0.85478 -0.472025,0 -0.85478,-0.382756 -0.85478,-0.85478 0,-0.472199 0.382755,-0.854954 0.85478,-0.854954 0.472199,0 0.854954,0.382755 0.854954,0.854954"
       style="fill:#fbf5a3;fill-opacity:1;fill-rule:nonzero;stroke:none;stroke-width:0.0174694"
       id="path804" />
    <path
       d="m 49.520926,-4.4188801 c 0,0.7082114 -0.57422,1.2822573 -1.282431,1.2822573 -0.708211,0 -1.282258,-0.5740459 -1.282258,-1.2822573 0,-0.7082115 0.574047,-1.2822574 1.282258,-1.2822574 0.708211,0 1.282431,0.5740459 1.282431,1.2822574"
       style="fill:#f39e0f;fill-opacity:1;fill-rule:nonzero;stroke:none;stroke-width:0.0174694"
       id="path806" />
    <path
       d="m 64.768608,-3.9014351 c 0,0.4721991 -0.382579,0.85478 -0.856002,0.85478 -0.471675,0 -0.854259,-0.3825809 -0.854259,-0.85478 0,-0.4721992 0.382584,-0.8549547 0.854259,-0.8549547 0.473423,0 0.856002,0.3827555 0.856002,0.8549547"
       style="fill:#fbf5a3;fill-opacity:1;fill-rule:nonzero;stroke:none;stroke-width:0.0174694"
       id="path808" />
    <path
       d="m 71.910115,6.4584706 c 0,0.3541049 -0.286496,0.6411285 -0.641126,0.6411285 -0.35463,0 -0.641132,-0.2870236 -0.641132,-0.6411285 0,-0.3541059 0.286502,-0.6411285 0.641132,-0.6411285 0.35463,0 0.641126,0.2870226 0.641126,0.6411285"
       style="fill:#e5faf2;fill-opacity:1;fill-rule:nonzero;stroke:none;stroke-width:0.0174694"
       id="path810" />
    <path
       d="m 21.013759,34.602448 c 0,0.590117 -0.478488,1.068606 -1.068606,1.068606 -0.590118,0 -1.068606,-0.478489 -1.068606,-1.068606 0,-0.590118 0.478488,-1.068607 1.068606,-1.068607 0.590118,0 1.068606,0.478489 1.068606,1.068607"
       style="fill:#ee3782;fill-opacity:1;fill-rule:nonzero;stroke:none;stroke-width:0.0174694"
       id="path812" />
    <path
       d="m 74.099039,81.068393 c 0,0.707512 -0.574745,1.282223 -1.282258,1.282223 -0.70926,0 -1.282258,-0.574711 -1.282258,-1.282223 0,-0.707513 0.572998,-1.282308 1.282258,-1.282308 0.707513,0 1.282258,0.574795 1.282258,1.282308"
       style="fill:#e5faf2;fill-opacity:1;fill-rule:nonzero;stroke:none;stroke-width:0.0174694"
       id="path814" />
    <path
       d="m 64.050612,90.608406 c 0,0.352882 -0.288244,0.641131 -0.641126,0.641131 -0.35463,0 -0.641131,-0.288249 -0.641131,-0.641131 0,-0.354561 0.286501,-0.641112 0.641131,-0.641112 0.352882,0 0.641126,0.286551 0.641126,0.641112"
       style="fill:#ee3782;fill-opacity:1;fill-rule:nonzero;stroke:none;stroke-width:0.0174694"
       id="path816" />
    <path
       d="m 3.0995414,-4.2509987 c 0,0.8263047 -0.6699534,1.4962581 -1.4962582,1.4962581 -0.82630497,0 -1.49625835,-0.6699534 -1.49625835,-1.4962581 0,-0.8263049 0.66995338,-1.4962581 1.49625835,-1.4962581 0.8263048,0 1.4962582,0.6699532 1.4962582,1.4962581"
       style="fill:#ee3782;fill-opacity:1;fill-rule:nonzero;stroke:none;stroke-width:0.0174694"
       id="path818" />
    <path
       d="m 6.2639561,18.5061 c 0,0.472199 -0.3829293,0.854954 -0.8551283,0.854954 -0.4721995,0 -0.854955,-0.382755 -0.854955,-0.854954 0,-0.472199 0.3827555,-0.854956 0.854955,-0.854956 0.472199,0 0.8551283,0.382757 0.8551283,0.854956"
       style="fill:#fbf5a3;fill-opacity:1;fill-rule:nonzero;stroke:none;stroke-width:0.0174694"
       id="path820" />
    <path
       d="m 0.36662094,3.5992463 c 0,0.2361871 -0.19146492,0.4274772 -0.42747725,0.4274772 -0.23618713,0 -0.42765205,-0.1912901 -0.42765205,-0.4274772 0,-0.2360124 0.19146492,-0.4274773 0.42765205,-0.4274773 0.23601233,0 0.42747725,0.1914649 0.42747725,0.4274773"
       style="fill:#fbf5a3;fill-opacity:1;fill-rule:nonzero;stroke:none;stroke-width:0.0174694"
       id="path822" />
    <path
       d="m 46.156662,35.489021 c -0.546444,0.168755 -0.797134,0.419443 -0.965887,0.965886 -0.05957,0.193212 -0.332792,0.193212 -0.392538,0 -0.168758,-0.546443 -0.419268,-0.797131 -0.965713,-0.965886 -0.193211,-0.05957 -0.193211,-0.332793 0,-0.392538 0.546445,-0.168755 0.796955,-0.419267 0.965713,-0.965711 0.05975,-0.193212 0.332966,-0.193212 0.392538,0 0.168753,0.546444 0.419443,0.796956 0.965887,0.965711 0.193211,0.05974 0.193211,0.332968 0,0.392538"
       style="fill:#ffda47;fill-opacity:1;fill-rule:nonzero;stroke:none;stroke-width:0.0174694"
       id="path824" />
    <path
       d="m 2.6383477,44.254317 c -0.7490898,0.207537 -1.0572509,0.515698 -1.2647879,1.264787 -0.055378,0.199852 -0.3401299,0.199852 -0.3955083,0 -0.20753707,-0.749089 -0.51587242,-1.05725 -1.26496222,-1.264787 -0.19985058,-0.05538 -0.19985058,-0.340131 0,-0.395509 0.7490898,-0.207537 1.05742515,-0.515871 1.26496222,-1.264789 0.0553784,-0.200025 0.3401305,-0.200025 0.3955083,0 0.207537,0.748918 0.5156981,1.057252 1.2647879,1.264789 0.1998506,0.05538 0.1998506,0.340131 0,0.395509"
       style="fill:#ffda47;fill-opacity:1;fill-rule:nonzero;stroke:none;stroke-width:0.0174694"
       id="path826" />
    <path
       d="m 56.540149,78.914395 c -0.749089,0.207884 -1.05725,0.51706 -1.264961,1.266535 -0.05538,0.199114 -0.339957,0.199114 -0.395335,0 -0.20771,-0.749475 -0.515871,-1.058651 -1.264961,-1.266535 -0.199851,-0.05415 -0.199851,-0.338908 0,-0.394811 0.74909,-0.207888 1.057251,-0.515351 1.264961,-1.264787 0.05538,-0.199153 0.339958,-0.199153 0.395335,0 0.207711,0.749436 0.515872,1.056899 1.264961,1.264787 0.199852,0.0559 0.199852,0.340656 0,0.394811"
       style="fill:#f39e0f;fill-opacity:1;fill-rule:nonzero;stroke:none;stroke-width:0.0174694"
       id="path828" />
    <path
       d="m 81.838001,56.536031 c 0,0.590294 -0.478662,1.068783 -1.067382,1.068783 -0.590468,0 -1.06913,-0.478489 -1.06913,-1.068783 0,-0.59029 0.478662,-1.068779 1.06913,-1.068779 0.58872,0 1.067382,0.478489 1.067382,1.068779"
       style="fill:#74caf2;fill-opacity:1;fill-rule:nonzero;stroke:none;stroke-width:0.0174694"
       id="path830" />
    <path
       d="m 21.482116,51.110371 c 0,0.236016 -0.191467,0.427479 -0.427479,0.427479 -0.236187,0 -0.427652,-0.191463 -0.427652,-0.427479 0,-0.236184 0.191465,-0.427652 0.427652,-0.427652 0.236012,0 0.427479,0.191468 0.427479,0.427652"
       style="fill:#e5faf2;fill-opacity:1;fill-rule:nonzero;stroke:none;stroke-width:0.0174694"
       id="path832" />
    <path
       d="m 47.831106,90.608406 c 0,0.707512 -0.574047,1.282312 -1.282431,1.282312 -0.708211,0 -1.282432,-0.5748 -1.282432,-1.282312 0,-0.709207 0.574221,-1.282224 1.282432,-1.282224 0.708384,0 1.282431,0.573017 1.282431,1.282224"
       style="fill:#74caf2;fill-opacity:1;fill-rule:nonzero;stroke:none;stroke-width:0.0174694"
       id="path834" />
    <path
       d="m 85.020939,67.35486 c 0,0.590468 -0.478667,1.06913 -1.06913,1.06913 -0.590468,0 -1.069131,-0.478662 -1.069131,-1.06913 0,-0.58872 0.478663,-1.067382 1.069131,-1.067382 0.590463,0 1.06913,0.478662 1.06913,1.067382"
       style="fill:#f39e0f;fill-opacity:1;fill-rule:nonzero;stroke:none;stroke-width:0.0174694"
       id="path836" />
    <path
       d="m 57.872368,16.600533 c 0,0.472373 -0.382753,0.855128 -0.854953,0.855128 -0.4722,0 -0.855131,-0.382755 -0.855131,-0.855128 0,-0.472199 0.382931,-0.854956 0.855131,-0.854956 0.4722,0 0.854953,0.382757 0.854953,0.854956"
       style="fill:#fbf5a3;fill-opacity:1;fill-rule:nonzero;stroke:none;stroke-width:0.0174694"
       id="path838" />
    <path
       d="m 16.80799,8.5320933 c 0,0.472199 -0.38293,0.8551298 -0.855129,0.8551298 -0.472199,0 -0.854955,-0.3829308 -0.854955,-0.8551298 0,-0.472199 0.382756,-0.854954 0.854955,-0.854954 0.472199,0 0.855129,0.382755 0.855129,0.854954"
       style="fill:#f39e0f;fill-opacity:1;fill-rule:nonzero;stroke:none;stroke-width:0.0174694"
       id="path840" />
    <path
       d="m 20.013634,-1.6511958 c 0,0.4721993 -0.382756,0.85495477 -0.854956,0.85495477 -0.472199,0 -0.854954,-0.38275547 -0.854954,-0.85495477 0,-0.4721991 0.382755,-0.8549547 0.854954,-0.8549547 0.4722,0 0.854956,0.3827556 0.854956,0.8549547"
       style="fill:#fbf5a3;fill-opacity:1;fill-rule:nonzero;stroke:none;stroke-width:0.0174694"
       id="path842" />
    <path
       d="m 87.283231,5.3517813 c -0.749441,0.207537 -1.056904,0.5158728 -1.264787,1.2647879 -0.0559,0.2000248 -0.340656,0.2000248 -0.394811,0 -0.207889,-0.7489151 -0.517095,-1.0572509 -1.264787,-1.2647879 -0.200902,-0.055378 -0.200902,-0.3401305 0,-0.3955083 0.747692,-0.2075371 1.056898,-0.5156981 1.264787,-1.2647879 0.05416,-0.1998506 0.338908,-0.1998506 0.394811,0 0.207883,0.7490898 0.515346,1.0572508 1.264787,1.2647879 0.200896,0.055378 0.200896,0.3401299 0,0.3955083"
       style="fill:#74caf2;fill-opacity:1;fill-rule:nonzero;stroke:none;stroke-width:0.0174694"
       id="path844" />
    <path
       d="m 53.569121,9.9569021 c 0,0.4721989 -0.382757,0.8549539 -0.854952,0.8549539 -0.4722,0 -0.854958,-0.382755 -0.854958,-0.8549539 0,-0.4721995 0.382758,-0.8549545 0.854958,-0.8549545 0.472195,0 0.854952,0.382755 0.854952,0.8549545"
       style="fill:#fbf5a3;fill-opacity:1;fill-rule:nonzero;stroke:none;stroke-width:0.0174694"
       id="path846" />
    <path
       d="m 87.482379,40.40929 c -1.187918,0.285976 -1.603695,0.700351 -1.888443,1.889671 -0.05066,0.211729 -0.349391,0.211729 -0.40005,0 -0.286501,-1.18932 -0.700525,-1.603695 -1.890196,-1.889671 -0.21138,-0.05084 -0.21138,-0.349564 0,-0.400574 1.189671,-0.2858 1.603695,-0.700175 1.890196,-1.889495 0.05066,-0.211729 0.349386,-0.211729 0.40005,0 0.284748,1.18932 0.700525,1.603695 1.888443,1.889495 0.213128,0.05101 0.213128,0.349738 0,0.400574"
       style="fill:#e5faf2;fill-opacity:1;fill-rule:nonzero;stroke:none;stroke-width:0.0174694"
       id="path848" />
    <path
       d="m 59.956998,58.591489 c 0,0.590295 -0.478489,1.068779 -1.068605,1.068779 -0.590295,0 -1.068784,-0.478484 -1.068784,-1.068779 0,-0.590121 0.478489,-1.068605 1.068784,-1.068605 0.590116,0 1.068605,0.478484 1.068605,1.068605"
       style="fill:#ee3782;fill-opacity:1;fill-rule:nonzero;stroke:none;stroke-width:0.0174694"
       id="path850" />
    <path
       d="m 35.945419,4.051006 c -2.926656,0.5726486 -3.65618,1.3023475 -4.229003,4.228829 -0.04315,0.2209891 -0.360045,0.2209891 -0.403196,0 -0.572823,-2.9264815 -1.302521,-3.6561804 -4.229003,-4.228829 -0.220813,-0.043325 -0.220813,-0.3600453 0,-0.4033691 2.926482,-0.5726487 3.65618,-1.3023476 4.229003,-4.22882927 0.04315,-0.22098855 0.360046,-0.22098855 0.403196,0 0.572823,2.92648167 1.302347,3.65618057 4.229003,4.22882927 0.220814,0.043325 0.220814,0.3600453 0,0.4033691"
       style="fill:#ee3782;fill-opacity:1;fill-rule:nonzero;stroke:none;stroke-width:0.0174694"
       id="path852" />
    <path
       d="m 8.4181146,36.298206 c 0,0.590293 -0.4784884,1.06878 -1.068782,1.06878 -0.590292,0 -1.06878,-0.478487 -1.06878,-1.06878 0,-0.590292 0.478488,-1.068781 1.06878,-1.068781 0.5902936,0 1.068782,0.478489 1.068782,1.068781"
       style="fill:#fbf5a3;fill-opacity:1;fill-rule:nonzero;stroke:none;stroke-width:0.0174694"
       id="path854" />
    <path
       d="m 20.59292,62.805818 c -1.544648,0.345895 -2.03257,0.835041 -2.378639,2.379337 -0.04822,0.214876 -0.353408,0.214876 -0.401623,0 -0.346069,-1.544296 -0.833991,-2.033442 -2.378639,-2.379337 -0.215574,-0.04714 -0.215574,-0.352882 0,-0.401798 1.544648,-0.345895 2.03257,-0.833466 2.378639,-2.378292 0.04822,-0.215396 0.353408,-0.215396 0.401623,0 0.346069,1.544826 0.833991,2.032397 2.378639,2.378292 0.215399,0.04893 0.215399,0.35463 0,0.401798"
       style="fill:#74caf2;fill-opacity:1;fill-rule:nonzero;stroke:none;stroke-width:0.0174694"
       id="path856" />
    <path
       d="m 79.874437,20.496043 c 0,0.4722 -0.38258,0.85513 -0.854255,0.85513 -0.473423,0 -0.856002,-0.38293 -0.856002,-0.85513 0,-0.472199 0.382579,-0.854954 0.856002,-0.854954 0.471675,0 0.854255,0.382755 0.854255,0.854954"
       style="fill:#e5faf2;fill-opacity:1;fill-rule:nonzero;stroke:none;stroke-width:0.0174694"
       id="path858" />
    <path
       d="m 76.630362,59.874094 c 0,0.354105 -0.288244,0.641131 -0.642875,0.641131 -0.352882,0 -0.641131,-0.287026 -0.641131,-0.641131 0,-0.354106 0.288249,-0.6413 0.641131,-0.6413 0.354631,0 0.642875,0.287194 0.642875,0.6413"
       style="fill:#ffda47;fill-opacity:1;fill-rule:nonzero;stroke:none;stroke-width:0.0174694"
       id="path860" />
    <path
       d="m 44.139635,75.263278 c 0,0.590468 -0.478484,1.069131 -1.068778,1.069131 -0.590295,0 -1.068784,-0.478663 -1.068784,-1.069131 0,-0.588719 0.478489,-1.067382 1.068784,-1.067382 0.590294,0 1.068778,0.478663 1.068778,1.067382"
       style="fill:#fbf5a3;fill-opacity:1;fill-rule:nonzero;stroke:none;stroke-width:0.0174694"
       id="path862" />
    <path
       d="m 45.849546,55.599148 c 0,0.354105 -0.287021,0.641126 -0.641301,0.641126 -0.35411,0 -0.641131,-0.287021 -0.641131,-0.641126 0,-0.354279 0.287021,-0.641305 0.641131,-0.641305 0.35428,0 0.641301,0.287026 0.641301,0.641305"
       style="fill:#fbf5a3;fill-opacity:1;fill-rule:nonzero;stroke:none;stroke-width:0.0174694"
       id="path864" />
    <path
       d="m 9.0845729,63.293215 c 0,0.354631 -0.2871978,0.642875 -0.6413023,0.642875 -0.3541063,0 -0.6413037,-0.288244 -0.6413037,-0.642875 0,-0.352882 0.2871974,-0.641131 0.6413037,-0.641131 0.3541045,0 0.6413023,0.288249 0.6413023,0.641131"
       style="fill:#f39e0f;fill-opacity:1;fill-rule:nonzero;stroke:none;stroke-width:0.0174694"
       id="path866" />
    <path
       d="m 83.770126,88.108582 c 0,0.352863 -0.286501,0.641112 -0.641132,0.641112 -0.35463,0 -0.641126,-0.288249 -0.641126,-0.641112 0,-0.35465 0.286496,-0.641181 0.641126,-0.641181 0.354631,0 0.641132,0.286531 0.641132,0.641181"
       style="fill:#f39e0f;fill-opacity:1;fill-rule:nonzero;stroke:none;stroke-width:0.0174694"
       id="path868" />
    <path
       d="m 29.248332,87.107561 c -1.346545,0.218372 -1.523685,0.394846 -1.742053,1.741687 -0.218368,-1.346841 -0.395508,-1.523315 -1.742054,-1.741687 1.346546,-0.218366 1.523686,-0.39484 1.742054,-1.741681 0.218368,1.346841 0.395508,1.523315 1.742053,1.741681"
       style="fill:#ee3782;fill-opacity:1;fill-rule:nonzero;stroke:none;stroke-width:0.0174694"
       id="path870" />
    <path
       d="m 3.8802505,51.354072 c 0,0.479713 -0.3886949,0.868407 -0.868406,0.868407 -0.4795363,0 -0.8682312,-0.388694 -0.8682312,-0.868407 0,-0.479538 0.3886949,-0.868233 0.8682312,-0.868233 0.4797111,0 0.868406,0.388695 0.868406,0.868233"
       style="fill:#fbf5a3;fill-opacity:1;fill-rule:nonzero;stroke:none;stroke-width:0.0174694"
       id="path872" />
    <path
       d="m 16.378765,75.478154 c 0,0.478663 -0.388693,0.868229 -0.868406,0.868229 -0.479536,0 -0.86823,-0.389566 -0.86823,-0.868229 0,-0.48041 0.388694,-0.868233 0.86823,-0.868233 0.479713,0 0.868406,0.387823 0.868406,0.868233"
       style="fill:#74caf2;fill-opacity:1;fill-rule:nonzero;stroke:none;stroke-width:0.0174694"
       id="path874" />
    <path
       d="m 27.082471,71.360607 c 0,0.478662 -0.388696,0.868229 -0.868407,0.868229 -0.479536,0 -0.868231,-0.389567 -0.868231,-0.868229 0,-0.48041 0.388695,-0.868234 0.868231,-0.868234 0.479711,0 0.868407,0.387824 0.868407,0.868234"
       style="fill:#74caf2;fill-opacity:1;fill-rule:nonzero;stroke:none;stroke-width:0.0174694"
       id="path876" />
    <path
       d="m -4.6205564,90.489682 c 0,0.48041 -0.3888699,0.868214 -0.8684061,0.868214 -0.4795363,0 -0.8684062,-0.387804 -0.8684062,-0.868214 0,-0.478712 0.3888699,-0.868298 0.8684062,-0.868298 0.4795362,0 0.8684061,0.389586 0.8684061,0.868298"
       style="fill:#fbf5a3;fill-opacity:1;fill-rule:nonzero;stroke:none;stroke-width:0.0174694"
       id="path878" />
    <path
       d="m 90.736937,84.027684 c 0,0.480411 -0.387818,0.868214 -0.868229,0.868214 -0.48041,0 -0.868233,-0.387803 -0.868233,-0.868214 0,-0.478627 0.387823,-0.868214 0.868233,-0.868214 0.480411,0 0.868229,0.389587 0.868229,0.868214"
       style="fill:#fbf5a3;fill-opacity:1;fill-rule:nonzero;stroke:none;stroke-width:0.0174694"
       id="path880" />
    <path
       d="m 55.319558,47.65614 c 0,0.719392 -0.583129,1.302521 -1.302521,1.302521 -0.719393,0 -1.302522,-0.583129 -1.302522,-1.302521 0,-0.719392 0.583129,-1.302521 1.302522,-1.302521 0.719392,0 1.302521,0.583129 1.302521,1.302521"
       style="fill:#e5faf2;fill-opacity:1;fill-rule:nonzero;stroke:none;stroke-width:0.0174694"
       id="path882" />
    <path
       d="m 14.740133,19.151945 c 0.964837,-0.246669 1.327503,-0.609335 1.57417,-1.574346 0.05258,-0.205615 0.345371,-0.205615 0.397955,0 0.246668,0.965011 0.609334,1.327677 1.574171,1.574346 0.205791,0.05258 0.205791,0.345371 0,0.397954 -0.964837,0.246669 -1.327503,0.609159 -1.574171,1.574172 -0.05258,0.205789 -0.345371,0.205789 -0.397955,0 -0.246667,-0.965013 -0.609333,-1.327503 -1.57417,-1.574172 -0.205791,-0.05258 -0.205791,-0.345371 0,-0.397954"
       style="fill:#74caf2;fill-opacity:1;fill-rule:nonzero;stroke:none;stroke-width:0.0174694"
       id="path884" />
  </g>
</svg>
