<?xml version="1.0" encoding="UTF-8" standalone="no"?>
<svg
   xmlns:dc="http://purl.org/dc/elements/1.1/"
   xmlns:cc="http://creativecommons.org/ns#"
   xmlns:rdf="http://www.w3.org/1999/02/22-rdf-syntax-ns#"
   xmlns:svg="http://www.w3.org/2000/svg"
   xmlns="http://www.w3.org/2000/svg"
   xmlns:sodipodi="http://sodipodi.sourceforge.net/DTD/sodipodi-0.dtd"
   xmlns:inkscape="http://www.inkscape.org/namespaces/inkscape"
   width="100.00009mm"
   height="100.00001mm"
   viewBox="0 0 100.00009 100.00001"
   version="1.1"
   id="svg649"
   inkscape:version="1.0 (4035a4fb49, 2020-05-01)"
   sodipodi:docname="space1.svg">
  <defs
     id="defs643" />
  <sodipodi:namedview
     id="base"
     pagecolor="#ffffff"
     bordercolor="#666666"
     borderopacity="1.0"
     inkscape:pageopacity="0.0"
     inkscape:pageshadow="2"
     inkscape:zoom="0.7"
     inkscape:cx="316.09603"
     inkscape:cy="416.00454"
     inkscape:document-units="mm"
     inkscape:current-layer="layer1"
     inkscape:document-rotation="0"
     showgrid="false"
     inkscape:window-width="1920"
     inkscape:window-height="996"
     inkscape:window-x="-8"
     inkscape:window-y="-8"
     inkscape:window-maximized="1" />
  <metadata
     id="metadata646">
    <rdf:RDF>
      <cc:Work
         rdf:about="">
        <dc:format>image/svg+xml</dc:format>
        <dc:type
           rdf:resource="http://purl.org/dc/dcmitype/StillImage" />
        <dc:title />
      </cc:Work>
    </rdf:RDF>
  </metadata>
  <g
     inkscape:label="Layer 1"
     inkscape:groupmode="layer"
     id="layer1"
     transform="translate(1.9402631,-16.958636)">
    <path
       d="M 98.059826,116.95864 H -1.9402631 V 16.958636 H 98.059826 V 116.95864"
       style="fill:#0c043d;fill-opacity:1;fill-rule:nonzero;stroke:none;stroke-width:0.0174694"
       id="path16" />
    <path
       d="m 15.673043,32.63397 c 0,0.172948 -0.13993,0.312702 -0.312527,0.312702 -0.172599,0 -0.312354,-0.139754 -0.312354,-0.312702 0,-0.172947 0.139755,-0.312703 0.312354,-0.312703 0.172597,0 0.312527,0.139756 0.312527,0.312703"
       style="fill:#e5faf2;fill-opacity:1;fill-rule:nonzero;stroke:none;stroke-width:0.0174694"
       id="path18" />
    <path
       d="m 5.2360631,23.822381 c 0,0.172948 -0.1398956,0.312703 -0.3124583,0.312703 -0.1725811,0 -0.3124762,-0.139755 -0.3124762,-0.312703 0,-0.172948 0.1398951,-0.312703 0.3124762,-0.312703 0.1725627,0 0.3124583,0.139755 0.3124583,0.312703"
       style="fill:#e5faf2;fill-opacity:1;fill-rule:nonzero;stroke:none;stroke-width:0.0174694"
       id="path20" />
    <path
       d="m 8.0484517,49.88365 c 0,0.172599 -0.1398956,0.312529 -0.3124762,0.312529 -0.1725805,0 -0.3124757,-0.13993 -0.3124757,-0.312529 0,-0.172598 0.1398952,-0.312529 0.3124757,-0.312529 0.1725806,0 0.3124762,0.139931 0.3124762,0.312529"
       style="fill:#ee3782;fill-opacity:1;fill-rule:nonzero;stroke:none;stroke-width:0.0174694"
       id="path22" />
    <path
       d="m 24.458952,27.106637 c 0,0.172947 -0.139931,0.312703 -0.312354,0.312703 -0.172598,0 -0.312528,-0.139756 -0.312528,-0.312703 0,-0.172948 0.13993,-0.312703 0.312528,-0.312703 0.172423,0 0.312354,0.139755 0.312354,0.312703"
       style="fill:#e5faf2;fill-opacity:1;fill-rule:nonzero;stroke:none;stroke-width:0.0174694"
       id="path24" />
    <path
       d="m 50.086457,19.605257 c 0,0.172948 -0.139933,0.312703 -0.312529,0.312703 -0.172422,0 -0.312355,-0.139755 -0.312355,-0.312703 0,-0.172947 0.139933,-0.312703 0.312355,-0.312703 0.172596,0 0.312529,0.139756 0.312529,0.312703"
       style="fill:#e5faf2;fill-opacity:1;fill-rule:nonzero;stroke:none;stroke-width:0.0174694"
       id="path26" />
    <path
       d="m 95.841031,47.107405 c 0,0.172948 -0.139754,0.312704 -0.312355,0.312704 -0.172596,0 -0.312529,-0.139756 -0.312529,-0.312704 0,-0.171201 0.139933,-0.310955 0.312529,-0.310955 0.172601,0 0.312355,0.139754 0.312355,0.310955"
       style="fill:#74caf2;fill-opacity:1;fill-rule:nonzero;stroke:none;stroke-width:0.0174694"
       id="path28" />
    <path
       d="m 50.274077,114.61493 c 0,0.1726 -0.139928,0.31254 -0.312528,0.31254 -0.172596,0 -0.312529,-0.13994 -0.312529,-0.31254 0,-0.17242 0.139933,-0.31235 0.312529,-0.31235 0.1726,0 0.312528,0.13993 0.312528,0.31235"
       style="fill:#ee3782;fill-opacity:1;fill-rule:nonzero;stroke:none;stroke-width:0.0174694"
       id="path30" />
    <path
       d="m 95.278513,38.795443 c 0,0.172947 -0.139755,0.312704 -0.312351,0.312704 -0.172601,0 -0.312528,-0.139757 -0.312528,-0.312704 0,-0.172948 0.139927,-0.312702 0.312528,-0.312702 0.172596,0 0.312351,0.139754 0.312351,0.312702"
       style="fill:#74caf2;fill-opacity:1;fill-rule:nonzero;stroke:none;stroke-width:0.0174694"
       id="path32" />
    <path
       d="m 65.275617,95.80069 c 0,0.172601 -0.139933,0.312533 -0.312529,0.312533 -0.172601,0 -0.312529,-0.139932 -0.312529,-0.312533 0,-0.172596 0.139928,-0.312524 0.312529,-0.312524 0.172596,0 0.312529,0.139928 0.312529,0.312524"
       style="fill:#74caf2;fill-opacity:1;fill-rule:nonzero;stroke:none;stroke-width:0.0174694"
       id="path34" />
    <path
       d="m 62.712849,109.36449 c 0,0.17261 -0.139933,0.31253 -0.312529,0.31253 -0.172601,0 -0.312355,-0.13992 -0.312355,-0.31253 0,-0.17259 0.139754,-0.31252 0.312355,-0.31252 0.172596,0 0.312529,0.13993 0.312529,0.31252"
       style="fill:#fbf5a3;fill-opacity:1;fill-rule:nonzero;stroke:none;stroke-width:0.0174694"
       id="path36" />
    <path
       d="m -0.26366792,33.072452 c 0,-0.104816 0.0839406,-0.18867 0.18751701,-0.18867 0.10352393,0 0.18746466,0.08385 0.18746466,0.18867 0,0.10307 -0.08394073,0.186924 -0.18746466,0.186924 -0.10357643,0 -0.18751701,-0.08385 -0.18751701,-0.186924"
       style="fill:#f39e0f;fill-opacity:1;fill-rule:nonzero;stroke:none;stroke-width:0.0174694"
       id="path38" />
    <path
       d="m 17.485498,21.509427 c 0,0.138009 -0.111978,0.249813 -0.249987,0.249813 -0.138009,0 -0.249988,-0.111804 -0.249988,-0.249813 0,-0.138009 0.111979,-0.249813 0.249988,-0.249813 0.138009,0 0.249987,0.111804 0.249987,0.249813"
       style="fill:#ee3782;fill-opacity:1;fill-rule:nonzero;stroke:none;stroke-width:0.0174694"
       id="path40" />
    <path
       d="m 36.309875,39.857586 c -1.699952,0.220115 -1.879014,0.400049 -2.099828,2.099828 -0.220988,-1.699779 -0.40005,-1.879713 -2.100002,-2.099828 1.699952,-0.221862 1.879014,-0.40005 2.100002,-2.099828 0.220814,1.699778 0.399876,1.877966 2.099828,2.099828"
       style="fill:#e5faf2;fill-opacity:1;fill-rule:nonzero;stroke:none;stroke-width:0.0174694"
       id="path42" />
    <path
       d="m 10.860823,22.573316 c 0,0.103069 -0.08394,0.186923 -0.187535,0.186923 -0.103506,0 -0.187447,-0.08385 -0.187447,-0.186923 0,-0.104817 0.08394,-0.18867 0.187447,-0.18867 0.103594,0 0.187535,0.08385 0.187535,0.18867"
       style="fill:#e5faf2;fill-opacity:1;fill-rule:nonzero;stroke:none;stroke-width:0.0174694"
       id="path44" />
    <path
       d="m 47.616973,50.891462 c 0,0.07355 -0.05957,0.132943 -0.132942,0.132943 -0.07337,0 -0.132943,-0.0594 -0.132943,-0.132943 0,-0.07337 0.05957,-0.132942 0.132943,-0.132942 0.07337,0 0.132942,0.05957 0.132942,0.132942"
       style="fill:#e5faf2;fill-opacity:1;fill-rule:nonzero;stroke:none;stroke-width:0.0174694"
       id="path46" />
    <path
       d="m 66.608008,26.259369 c 0,0.07337 -0.05939,0.132767 -0.13294,0.132767 -0.07337,0 -0.132767,-0.0594 -0.132767,-0.132767 0,-0.07337 0.05939,-0.132768 0.132767,-0.132768 0.07355,0 0.13294,0.0594 0.13294,0.132768"
       style="fill:#fbf5a3;fill-opacity:1;fill-rule:nonzero;stroke:none;stroke-width:0.0174694"
       id="path48" />
    <path
       d="m 59.741296,22.143567 c 0,0.07337 -0.0594,0.132768 -0.132945,0.132768 -0.07337,0 -0.132941,-0.0594 -0.132941,-0.132768 0,-0.07337 0.05957,-0.132767 0.132941,-0.132767 0.07355,0 0.132945,0.0594 0.132945,0.132767"
       style="fill:#ee3782;fill-opacity:1;fill-rule:nonzero;stroke:none;stroke-width:0.0174694"
       id="path50" />
    <path
       d="m -0.8806888,25.127349 c 0,0.07337 -0.0595184,0.132767 -0.1329425,0.132767 -0.073424,0 -0.132925,-0.0594 -0.132925,-0.132767 0,-0.07337 0.059501,-0.132768 0.132925,-0.132768 0.0734241,0 0.1329425,0.0594 0.1329425,0.132768"
       style="fill:#fbf5a3;fill-opacity:1;fill-rule:nonzero;stroke:none;stroke-width:0.0174694"
       id="path52" />
    <path
       d="m 17.11043,115.75534 c 0,0.0735 -0.0594,0.13294 -0.132943,0.13294 -0.07337,0 -0.132767,-0.0594 -0.132767,-0.13294 0,-0.0734 0.0594,-0.13294 0.132767,-0.13294 0.07355,0 0.132943,0.0596 0.132943,0.13294"
       style="fill:#ee3782;fill-opacity:1;fill-rule:nonzero;stroke:none;stroke-width:0.0174694"
       id="path54" />
    <path
       d="m 52.483789,80.132174 c 0,0.07337 -0.05957,0.132941 -0.132945,0.132941 -0.07337,0 -0.132941,-0.05957 -0.132941,-0.132941 0,-0.07337 0.05957,-0.132945 0.132941,-0.132945 0.07337,0 0.132945,0.05957 0.132945,0.132945"
       style="fill:#e5faf2;fill-opacity:1;fill-rule:nonzero;stroke:none;stroke-width:0.0174694"
       id="path56" />
    <path
       d="m 60.233408,85.756809 c 0,0.07355 -0.05957,0.132946 -0.132941,0.132946 -0.07337,0 -0.132945,-0.0594 -0.132945,-0.132946 0,-0.07337 0.05957,-0.13294 0.132945,-0.13294 0.07337,0 0.132941,0.05957 0.132941,0.13294"
       style="fill:#fbf5a3;fill-opacity:1;fill-rule:nonzero;stroke:none;stroke-width:0.0174694"
       id="path58" />
    <path
       d="m 68.483007,67.632786 c 0,0.07337 -0.05957,0.13294 -0.132945,0.13294 -0.07337,0 -0.132941,-0.05957 -0.132941,-0.13294 0,-0.07337 0.05957,-0.132946 0.132941,-0.132946 0.07337,0 0.132945,0.05957 0.132945,0.132946"
       style="fill:#e5faf2;fill-opacity:1;fill-rule:nonzero;stroke:none;stroke-width:0.0174694"
       id="path60" />
    <path
       d="m 60.858292,45.508951 c 0,0.07337 -0.0594,0.132768 -0.132945,0.132768 -0.07337,0 -0.132768,-0.0594 -0.132768,-0.132768 0,-0.07337 0.0594,-0.132767 0.132768,-0.132767 0.07355,0 0.132945,0.0594 0.132945,0.132767"
       style="fill:#e5faf2;fill-opacity:1;fill-rule:nonzero;stroke:none;stroke-width:0.0174694"
       id="path62" />
    <path
       d="m 72.482812,30.134092 c 0,0.07337 -0.05957,0.132768 -0.132946,0.132768 -0.07337,0 -0.132941,-0.0594 -0.132941,-0.132768 0,-0.07337 0.05957,-0.132768 0.132941,-0.132768 0.07337,0 0.132946,0.0594 0.132946,0.132768"
       style="fill:#ee3782;fill-opacity:1;fill-rule:nonzero;stroke:none;stroke-width:0.0174694"
       id="path64" />
    <path
       d="m 68.483007,31.634717 c 0,0.07337 -0.05957,0.132767 -0.132945,0.132767 -0.07337,0 -0.132941,-0.05939 -0.132941,-0.132767 0,-0.07337 0.05957,-0.132767 0.132941,-0.132767 0.07337,0 0.132945,0.0594 0.132945,0.132767"
       style="fill:#74caf2;fill-opacity:1;fill-rule:nonzero;stroke:none;stroke-width:0.0174694"
       id="path66" />
    <path
       d="m 81.152199,59.546874 c 0,0.103595 -0.08403,0.187447 -0.187452,0.187447 -0.10359,0 -0.18762,-0.08385 -0.18762,-0.187447 0,-0.103595 0.08403,-0.187447 0.18762,-0.187447 0.103422,0 0.187452,0.08385 0.187452,0.187447"
       style="fill:#ee3782;fill-opacity:1;fill-rule:nonzero;stroke:none;stroke-width:0.0174694"
       id="path68" />
    <path
       d="m 31.14713,57.921866 c 0,0.103419 -0.08385,0.187446 -0.187448,0.187446 -0.103594,0 -0.187447,-0.08403 -0.187447,-0.187446 0,-0.103594 0.08385,-0.187622 0.187447,-0.187622 0.103594,0 0.187448,0.08403 0.187448,0.187622"
       style="fill:#f39e0f;fill-opacity:1;fill-rule:nonzero;stroke:none;stroke-width:0.0174694"
       id="path70" />
    <path
       d="m 19.583404,64.359881 c 0,0.103595 -0.08385,0.18762 -0.187446,0.18762 -0.103595,0 -0.187448,-0.08402 -0.187448,-0.18762 0,-0.103417 0.08385,-0.187447 0.187448,-0.187447 0.103593,0 0.187446,0.08403 0.187446,0.187447"
       style="fill:#74caf2;fill-opacity:1;fill-rule:nonzero;stroke:none;stroke-width:0.0174694"
       id="path72" />
    <path
       d="m 89.153026,81.924188 c 0,0.103595 -0.08402,0.187447 -0.187442,0.187447 -0.103595,0 -0.187625,-0.08385 -0.187625,-0.187447 0,-0.103417 0.08403,-0.187447 0.187625,-0.187447 0.103417,0 0.187442,0.08403 0.187442,0.187447"
       style="fill:#e5faf2;fill-opacity:1;fill-rule:nonzero;stroke:none;stroke-width:0.0174694"
       id="path74" />
    <path
       d="m 4.73614,97.131338 c 0,0.06901 -0.055955,0.124909 -0.1250114,0.124909 -0.069057,0 -0.1250115,-0.0559 -0.1250115,-0.124909 0,-0.069 0.055955,-0.125077 0.1250115,-0.125077 0.069057,0 0.1250114,0.05608 0.1250114,0.125077"
       style="fill:#fbf5a3;fill-opacity:1;fill-rule:nonzero;stroke:none;stroke-width:0.0174694"
       id="path76" />
    <path
       d="m 30.609769,65.007821 c 0,0.06918 -0.0559,0.125082 -0.124906,0.125082 -0.06901,0 -0.125082,-0.0559 -0.125082,-0.125082 0,-0.069 0.05608,-0.124903 0.125082,-0.124903 0.069,0 0.124906,0.0559 0.124906,0.124903"
       style="fill:#fbf5a3;fill-opacity:1;fill-rule:nonzero;stroke:none;stroke-width:0.0174694"
       id="path78" />
    <path
       d="m 58.733481,35.885034 c 0,0.06813 -0.0559,0.124033 -0.125081,0.124033 -0.069,0 -0.124904,-0.0559 -0.124904,-0.124033 0,-0.06988 0.0559,-0.12578 0.124904,-0.12578 0.06918,0 0.125081,0.0559 0.125081,0.12578"
       style="fill:#74caf2;fill-opacity:1;fill-rule:nonzero;stroke:none;stroke-width:0.0174694"
       id="path80" />
    <path
       d="m 36.359487,31.758751 c 0,0.06988 -0.0559,0.12578 -0.124905,0.12578 -0.06901,0 -0.125082,-0.0559 -0.125082,-0.12578 0,-0.06813 0.05608,-0.124034 0.125082,-0.124034 0.069,0 0.124905,0.0559 0.124905,0.124034"
       style="fill:#e5faf2;fill-opacity:1;fill-rule:nonzero;stroke:none;stroke-width:0.0174694"
       id="path82" />
    <path
       d="m 74.482714,36.134847 c 0,0.06813 -0.0559,0.124032 -0.125082,0.124032 -0.06901,0 -0.124909,-0.0559 -0.124909,-0.124032 0,-0.06988 0.0559,-0.12578 0.124909,-0.12578 0.06918,0 0.125082,0.0559 0.125082,0.12578"
       style="fill:#f39e0f;fill-opacity:1;fill-rule:nonzero;stroke:none;stroke-width:0.0174694"
       id="path84" />
    <path
       d="m 91.481882,17.760484 c 0,0.06813 -0.05608,0.124033 -0.125081,0.124033 -0.06901,0 -0.124909,-0.0559 -0.124909,-0.124033 0,-0.06988 0.0559,-0.12578 0.124909,-0.12578 0.069,0 0.125081,0.0559 0.125081,0.12578"
       style="fill:#74caf2;fill-opacity:1;fill-rule:nonzero;stroke:none;stroke-width:0.0174694"
       id="path86" />
    <path
       d="m 93.606688,23.259865 c 0,0.06988 -0.0559,0.12578 -0.124903,0.12578 -0.06901,0 -0.125082,-0.0559 -0.125082,-0.12578 0,-0.06813 0.05608,-0.12578 0.125082,-0.12578 0.069,0 0.124903,0.05765 0.124903,0.12578"
       style="fill:#74caf2;fill-opacity:1;fill-rule:nonzero;stroke:none;stroke-width:0.0174694"
       id="path88" />
    <path
       d="m 92.856727,32.384157 c 0,0.06988 -0.0559,0.12578 -0.124908,0.12578 -0.06901,0 -0.125082,-0.0559 -0.125082,-0.12578 0,-0.06813 0.05608,-0.124034 0.125082,-0.124034 0.06901,0 0.124908,0.0559 0.124908,0.124034"
       style="fill:#e5faf2;fill-opacity:1;fill-rule:nonzero;stroke:none;stroke-width:0.0174694"
       id="path90" />
    <path
       d="m 94.106664,43.384667 c 0,0.06813 -0.0559,0.124032 -0.124904,0.124032 -0.069,0 -0.125082,-0.0559 -0.125082,-0.124032 0,-0.06988 0.05608,-0.12578 0.125082,-0.12578 0.069,0 0.124904,0.0559 0.124904,0.12578"
       style="fill:#fbf5a3;fill-opacity:1;fill-rule:nonzero;stroke:none;stroke-width:0.0174694"
       id="path92" />
    <path
       d="m 97.106517,37.509692 c 0,0.06813 -0.0559,0.124034 -0.124903,0.124034 -0.06901,0 -0.125082,-0.0559 -0.125082,-0.124034 0,-0.06988 0.05608,-0.12578 0.125082,-0.12578 0.069,0 0.124903,0.0559 0.124903,0.12578"
       style="fill:#74caf2;fill-opacity:1;fill-rule:nonzero;stroke:none;stroke-width:0.0174694"
       id="path94" />
    <path
       d="m 69.857852,57.883258 c 0,0.06901 -0.0559,0.124908 -0.124908,0.124908 -0.06901,0 -0.125082,-0.0559 -0.125082,-0.124908 0,-0.069 0.05608,-0.12508 0.125082,-0.12508 0.069,0 0.124908,0.05608 0.124908,0.12508"
       style="fill:#ee3782;fill-opacity:1;fill-rule:nonzero;stroke:none;stroke-width:0.0174694"
       id="path96" />
    <path
       d="m 77.857461,63.257909 c 0,0.06918 -0.0559,0.125082 -0.124909,0.125082 -0.06901,0 -0.125081,-0.0559 -0.125081,-0.125082 0,-0.069 0.05608,-0.124908 0.125081,-0.124908 0.06901,0 0.124909,0.0559 0.124909,0.124908"
       style="fill:#ee3782;fill-opacity:1;fill-rule:nonzero;stroke:none;stroke-width:0.0174694"
       id="path98" />
    <path
       d="m 91.356801,91.756516 c 0,0.069 -0.0559,0.125081 -0.124909,0.125081 -0.06901,0 -0.125082,-0.05608 -0.125082,-0.125081 0,-0.06901 0.05608,-0.124904 0.125082,-0.124904 0.06901,0 0.124909,0.0559 0.124909,0.124904"
       style="fill:#e5faf2;fill-opacity:1;fill-rule:nonzero;stroke:none;stroke-width:0.0174694"
       id="path100" />
    <path
       d="m 55.358561,95.631412 c 0,0.06901 -0.0559,0.124908 -0.124909,0.124908 -0.069,0 -0.125081,-0.0559 -0.125081,-0.124908 0,-0.069 0.05608,-0.125077 0.125081,-0.125077 0.06901,0 0.124909,0.05608 0.124909,0.125077"
       style="fill:#e5faf2;fill-opacity:1;fill-rule:nonzero;stroke:none;stroke-width:0.0174694"
       id="path102" />
    <path
       d="m 74.857607,104.63097 c 0,0.069 -0.0559,0.12491 -0.124908,0.12491 -0.06901,0 -0.125082,-0.0559 -0.125082,-0.12491 0,-0.069 0.05608,-0.12508 0.125082,-0.12508 0.06901,0 0.124908,0.0561 0.124908,0.12508"
       style="fill:#e5faf2;fill-opacity:1;fill-rule:nonzero;stroke:none;stroke-width:0.0174694"
       id="path104" />
    <path
       d="m 52.733775,107.75573 c 0,0.0692 -0.05608,0.12509 -0.125082,0.12509 -0.069,0 -0.124904,-0.0559 -0.124904,-0.12509 0,-0.069 0.0559,-0.12491 0.124904,-0.12491 0.06901,0 0.125082,0.0559 0.125082,0.12491"
       style="fill:#f39e0f;fill-opacity:1;fill-rule:nonzero;stroke:none;stroke-width:0.0174694"
       id="path106" />
    <path
       d="m 79.857363,116.3804 c 0,0.069 -0.0559,0.1249 -0.124908,0.1249 -0.06901,0 -0.125082,-0.0559 -0.125082,-0.1249 0,-0.069 0.05608,-0.12508 0.125082,-0.12508 0.06901,0 0.124908,0.0561 0.124908,0.12508"
       style="fill:#e5faf2;fill-opacity:1;fill-rule:nonzero;stroke:none;stroke-width:0.0174694"
       id="path108" />
    <path
       d="m 58.733481,116.25532 c 0,0.069 -0.0559,0.12508 -0.125081,0.12508 -0.069,0 -0.124904,-0.0561 -0.124904,-0.12508 0,-0.069 0.0559,-0.12491 0.124904,-0.12491 0.06918,0 0.125081,0.0559 0.125081,0.12491"
       style="fill:#ee3782;fill-opacity:1;fill-rule:nonzero;stroke:none;stroke-width:0.0174694"
       id="path110" />
    <path
       d="m 87.107006,100.38118 c 0,0.069 -0.0559,0.12491 -0.124903,0.12491 -0.06901,0 -0.125082,-0.0559 -0.125082,-0.12491 0,-0.069 0.05608,-0.12508 0.125082,-0.12508 0.069,0 0.124903,0.0561 0.124903,0.12508"
       style="fill:#fbf5a3;fill-opacity:1;fill-rule:nonzero;stroke:none;stroke-width:0.0174694"
       id="path112" />
    <path
       d="m 27.359928,113.00548 c 0,0.069 -0.0559,0.12508 -0.124906,0.12508 -0.06901,0 -0.125082,-0.0561 -0.125082,-0.12508 0,-0.069 0.05608,-0.12491 0.125082,-0.12491 0.069,0 0.124906,0.0559 0.124906,0.12491"
       style="fill:#fbf5a3;fill-opacity:1;fill-rule:nonzero;stroke:none;stroke-width:0.0174694"
       id="path114" />
    <path
       d="m 90.715669,51.858745 c 0,0.103419 -0.08385,0.187448 -0.187447,0.187448 -0.10359,0 -0.187446,-0.08403 -0.187446,-0.187448 0,-0.103594 0.08386,-0.187621 0.187446,-0.187621 0.103596,0 0.187447,0.08403 0.187447,0.187621"
       style="fill:#e5faf2;fill-opacity:1;fill-rule:nonzero;stroke:none;stroke-width:0.0174694"
       id="path116" />
    <path
       d="m 2.8317606,83.861899 c 0,0.103595 -0.083923,0.187446 -0.187517,0.187446 -0.103524,0 -0.1874472,-0.08385 -0.1874472,-0.187446 0,-0.103596 0.083923,-0.187447 0.1874472,-0.187447 0.1035937,0 0.187517,0.08385 0.187517,0.187447"
       style="fill:#e5faf2;fill-opacity:1;fill-rule:nonzero;stroke:none;stroke-width:0.0174694"
       id="path118" />
    <path
       d="m 95.153609,19.91796 c 0,0.10307 -0.08403,0.186923 -0.187447,0.186923 -0.103595,0 -0.187625,-0.08385 -0.187625,-0.186923 0,-0.103069 0.08403,-0.186923 0.187625,-0.186923 0.103417,0 0.187447,0.08385 0.187447,0.186923"
       style="fill:#f39e0f;fill-opacity:1;fill-rule:nonzero;stroke:none;stroke-width:0.0174694"
       id="path120" />
    <path
       d="m 89.653001,114.42749 c 0,0.10359 -0.08385,0.18744 -0.187441,0.18744 -0.103596,0 -0.187452,-0.0838 -0.187452,-0.18744 0,-0.10359 0.08386,-0.18745 0.187452,-0.18745 0.10359,0 0.187441,0.0839 0.187441,0.18745"
       style="fill:#74caf2;fill-opacity:1;fill-rule:nonzero;stroke:none;stroke-width:0.0174694"
       id="path122" />
    <path
       d="m 38.699346,79.771077 c 0,0.103595 -0.08403,0.187447 -0.187622,0.187447 -0.103419,0 -0.187448,-0.08385 -0.187448,-0.187447 0,-0.10359 0.08403,-0.187447 0.187448,-0.187447 0.103594,0 0.187622,0.08386 0.187622,0.187447"
       style="fill:#74caf2;fill-opacity:1;fill-rule:nonzero;stroke:none;stroke-width:0.0174694"
       id="path124" />
    <path
       d="m 40.148086,114.42749 c 0,0.10359 -0.08403,0.18744 -0.187446,0.18744 -0.103594,0 -0.187622,-0.0838 -0.187622,-0.18744 0,-0.10359 0.08403,-0.18745 0.187622,-0.18745 0.103419,0 0.187446,0.0839 0.187446,0.18745"
       style="fill:#ee3782;fill-opacity:1;fill-rule:nonzero;stroke:none;stroke-width:0.0174694"
       id="path126" />
    <path
       d="m 11.832701,105.114 c 0,0.1036 -0.08394,0.18745 -0.187536,0.18745 -0.103506,0 -0.187446,-0.0838 -0.187446,-0.18745 0,-0.10359 0.08394,-0.18745 0.187446,-0.18745 0.103595,0 0.187536,0.0839 0.187536,0.18745"
       style="fill:#ffda47;fill-opacity:1;fill-rule:nonzero;stroke:none;stroke-width:0.0174694"
       id="path128" />
    <path
       d="m 7.1447396,74.298428 c 0,0.10359 -0.083941,0.187442 -0.1875167,0.187442 -0.1035243,0 -0.1874647,-0.08385 -0.1874647,-0.187442 0,-0.103595 0.08394,-0.187452 0.1874647,-0.187452 0.1035759,0 0.1875167,0.08386 0.1875167,0.187452"
       style="fill:#e5faf2;fill-opacity:1;fill-rule:nonzero;stroke:none;stroke-width:0.0174694"
       id="path130" />
    <path
       d="m 14.895478,46.794702 c 0,0.104817 -0.08385,0.18867 -0.187446,0.18867 -0.103594,0 -0.187448,-0.08385 -0.187448,-0.18867 0,-0.103069 0.08385,-0.186922 0.187448,-0.186922 0.103593,0 0.187446,0.08385 0.187446,0.186922"
       style="fill:#ffda47;fill-opacity:1;fill-rule:nonzero;stroke:none;stroke-width:0.0174694"
       id="path132" />
    <path
       d="m 29.459581,19.355444 c 0,0.10307 -0.08403,0.186923 -0.187621,0.186923 -0.10342,0 -0.187448,-0.08385 -0.187448,-0.186923 0,-0.10307 0.08403,-0.186923 0.187448,-0.186923 0.103592,0 0.187621,0.08385 0.187621,0.186923"
       style="fill:#74caf2;fill-opacity:1;fill-rule:nonzero;stroke:none;stroke-width:0.0174694"
       id="path134" />
    <path
       d="m 46.336113,104.61403 c 0,0.10359 -0.08385,0.18745 -0.187446,0.18745 -0.103594,0 -0.187448,-0.0839 -0.187448,-0.18745 0,-0.10359 0.08385,-0.18745 0.187448,-0.18745 0.103593,0 0.187446,0.0839 0.187446,0.18745"
       style="fill:#74caf2;fill-opacity:1;fill-rule:nonzero;stroke:none;stroke-width:0.0174694"
       id="path136" />
    <path
       d="m 72.71393,56.609211 c 0,0.103421 -0.08403,0.187448 -0.18762,0.187448 -0.103422,0 -0.187447,-0.08403 -0.187447,-0.187448 0,-0.103592 0.08402,-0.187621 0.187447,-0.187621 0.103595,0 0.18762,0.08403 0.18762,0.187621"
       style="fill:#e5faf2;fill-opacity:1;fill-rule:nonzero;stroke:none;stroke-width:0.0174694"
       id="path138" />
    <path
       d="m 72.151238,20.667399 c 0,0.104817 -0.08385,0.18867 -0.187447,0.18867 -0.103591,0 -0.187447,-0.08385 -0.187447,-0.18867 0,-0.103069 0.08386,-0.186923 0.187447,-0.186923 0.103595,0 0.187447,0.08385 0.187447,0.186923"
       style="fill:#fbf5a3;fill-opacity:1;fill-rule:nonzero;stroke:none;stroke-width:0.0174694"
       id="path140" />
    <path
       d="m 11.423251,80.007093 c 0,0.10359 -0.08394,0.18762 -0.187447,0.18762 -0.103523,0 -0.187534,-0.08403 -0.187534,-0.18762 0,-0.103422 0.08401,-0.187452 0.187534,-0.187452 0.103506,0 0.187447,0.08403 0.187447,0.187452"
       style="fill:#74caf2;fill-opacity:1;fill-rule:nonzero;stroke:none;stroke-width:0.0174694"
       id="path142" />
    <path
       d="m -0.1060412,97.675862 c 0,0.103595 -0.0839232,0.187447 -0.18744708,0.187447 -0.10359385,0 -0.18751705,-0.08385 -0.18751705,-0.187447 0,-0.10359 0.0839232,-0.187447 0.18751705,-0.187447 0.10352389,0 0.18744708,0.08386 0.18744708,0.187447"
       style="fill:#ee3782;fill-opacity:1;fill-rule:nonzero;stroke:none;stroke-width:0.0174694"
       id="path144" />
    <path
       d="m 40.835509,53.358846 c 0,0.103595 -0.08385,0.187448 -0.187447,0.187448 -0.103593,0 -0.187446,-0.08385 -0.187446,-0.187448 0,-0.103592 0.08385,-0.187446 0.187446,-0.187446 0.103594,0 0.187447,0.08385 0.187447,0.187446"
       style="fill:#74caf2;fill-opacity:1;fill-rule:nonzero;stroke:none;stroke-width:0.0174694"
       id="path146" />
    <path
       d="m 10.235819,69.570145 c 0,0.241601 -0.195851,0.437437 -0.437488,0.437437 -0.2415848,0 -0.4374347,-0.195836 -0.4374347,-0.437437 0,-0.241602 0.1958499,-0.437433 0.4374347,-0.437433 0.241637,0 0.437488,0.195831 0.437488,0.437433"
       style="fill:#fbf5a3;fill-opacity:1;fill-rule:nonzero;stroke:none;stroke-width:0.0174694"
       id="path148" />
    <path
       d="m 13.985669,17.884517 c 0,0.242825 -0.195831,0.438483 -0.437434,0.438483 -0.241602,0 -0.437609,-0.195658 -0.437609,-0.438483 0,-0.241079 0.196007,-0.436736 0.437609,-0.436736 0.241603,0 0.437434,0.195657 0.437434,0.436736"
       style="fill:#fbf5a3;fill-opacity:1;fill-rule:nonzero;stroke:none;stroke-width:0.0174694"
       id="path150" />
    <path
       d="m 27.647475,93.006457 c -1.57487,0.255403 -1.782058,0.462588 -2.037462,2.037458 -0.255403,-1.57487 -0.462416,-1.782055 -2.037286,-2.037458 1.57487,-0.255403 1.781883,-0.46242 2.037286,-2.03729 0.255404,1.57487 0.462592,1.781887 2.037462,2.03729"
       style="fill:#ffda47;fill-opacity:1;fill-rule:nonzero;stroke:none;stroke-width:0.0174694"
       id="path152" />
    <path
       d="m 64.233212,51.133588 c 0,0.276192 -0.223957,0.499976 -0.499975,0.499976 -0.276191,0 -0.499976,-0.223784 -0.499976,-0.499976 0,-0.276192 0.223785,-0.499975 0.499976,-0.499975 0.276018,0 0.499975,0.223783 0.499975,0.499975"
       style="fill:#fbf5a3;fill-opacity:1;fill-rule:nonzero;stroke:none;stroke-width:0.0174694"
       id="path154" />
    <path
       d="m 44.893137,52.791964 c 0,0.276016 -0.223957,0.499975 -0.499975,0.499975 -0.276192,0 -0.499976,-0.223959 -0.499976,-0.499975 0,-0.276192 0.223784,-0.499976 0.499976,-0.499976 0.276018,0 0.499975,0.223784 0.499975,0.499976"
       style="fill:#e5faf2;fill-opacity:1;fill-rule:nonzero;stroke:none;stroke-width:0.0174694"
       id="path156" />
    <path
       d="m 52.358708,38.884537 c 0,0.414026 -0.335764,0.749439 -0.749966,0.749439 -0.414198,0 -0.749961,-0.335413 -0.749961,-0.749439 0,-0.414026 0.335763,-0.751185 0.749961,-0.751185 0.414202,0 0.749966,0.337159 0.749966,0.751185"
       style="fill:#ffda47;fill-opacity:1;fill-rule:nonzero;stroke:none;stroke-width:0.0174694"
       id="path158" />
    <path
       d="m 72.659077,27.260368 c -1.102497,0.178188 -1.247495,0.323185 -1.426207,1.425507 -0.178885,-1.102322 -0.32371,-1.247319 -1.426207,-1.425507 1.102497,-0.179935 1.247322,-0.324932 1.426207,-1.427253 0.178712,1.102321 0.32371,1.247318 1.426207,1.427253"
       style="fill:#74caf2;fill-opacity:1;fill-rule:nonzero;stroke:none;stroke-width:0.0174694"
       id="path160" />
    <path
       d="m 64.108131,50.883601 c 0,0.207012 -0.167882,0.374895 -0.374894,0.374895 -0.207186,0 -0.375067,-0.167883 -0.375067,-0.374895 0,-0.207188 0.167881,-0.375068 0.375067,-0.375068 0.207012,0 0.374894,0.16788 0.374894,0.375068"
       style="fill:#e5faf2;fill-opacity:1;fill-rule:nonzero;stroke:none;stroke-width:0.0174694"
       id="path162" />
    <path
       d="m 84.357143,75.007337 c 0,0.345197 -0.279687,0.625058 -0.624884,0.625058 -0.345197,0 -0.625057,-0.279861 -0.625057,-0.625058 0,-0.345023 0.27986,-0.624884 0.625057,-0.624884 0.345197,0 0.624884,0.279861 0.624884,0.624884"
       style="fill:#f39e0f;fill-opacity:1;fill-rule:nonzero;stroke:none;stroke-width:0.0174694"
       id="path164" />
    <path
       d="m 26.485058,108.88077 c 0,0.20701 -0.167881,0.37489 -0.375069,0.37489 -0.207013,0 -0.374894,-0.16788 -0.374894,-0.37489 0,-0.20719 0.167881,-0.37507 0.374894,-0.37507 0.207188,0 0.375069,0.16788 0.375069,0.37507"
       style="fill:#74caf2;fill-opacity:1;fill-rule:nonzero;stroke:none;stroke-width:0.0174694"
       id="path166" />
    <path
       d="m 25.209089,38.982367 c 0,0.483903 -0.391839,0.875219 -0.875043,0.875219 -0.483379,0 -0.87522,-0.391316 -0.87522,-0.875219 0,-0.483904 0.391841,-0.87522 0.87522,-0.87522 0.483204,0 0.875043,0.391316 0.875043,0.87522"
       style="fill:#ee3782;fill-opacity:1;fill-rule:nonzero;stroke:none;stroke-width:0.0174694"
       id="path168" />
    <path
       d="m 57.034926,87.506726 c -1.102496,0.178885 -1.24749,0.323884 -1.42638,1.42638 -0.178711,-1.102496 -0.323705,-1.247495 -1.42638,-1.42638 1.102675,-0.178717 1.247669,-0.32371 1.42638,-1.426385 0.17889,1.102675 0.323884,1.247668 1.42638,1.426385"
       style="fill:#74caf2;fill-opacity:1;fill-rule:nonzero;stroke:none;stroke-width:0.0174694"
       id="path170" />
    <path
       d="m 91.158346,35.759254 c -1.10267,0.178188 -1.247669,0.323185 -1.42638,1.427253 -0.178885,-1.104068 -0.323884,-1.249065 -1.42638,-1.427253 1.102496,-0.178189 1.247495,-0.323185 1.42638,-1.427254 0.178711,1.104069 0.32371,1.249065 1.42638,1.427254"
       style="fill:#ee3782;fill-opacity:1;fill-rule:nonzero;stroke:none;stroke-width:0.0174694"
       id="path172" />
    <path
       d="m 34.210047,60.48446 c 0,0.34537 -0.27986,0.625057 -0.625057,0.625057 -0.345371,0 -0.625056,-0.279687 -0.625056,-0.625057 0,-0.345197 0.279685,-0.625057 0.625056,-0.625057 0.345197,0 0.625057,0.27986 0.625057,0.625057"
       style="fill:#74caf2;fill-opacity:1;fill-rule:nonzero;stroke:none;stroke-width:0.0174694"
       id="path174" />
    <path
       d="m 2.9568593,93.612821 c 0,0.138184 -0.1119966,0.250158 -0.2500402,0.250158 -0.1381135,0 -0.2500227,-0.111974 -0.2500227,-0.250158 0,-0.138012 0.1119092,-0.249991 0.2500227,-0.249991 0.1380436,0 0.2500402,0.111979 0.2500402,0.249991"
       style="fill:#74caf2;fill-opacity:1;fill-rule:nonzero;stroke:none;stroke-width:0.0174694"
       id="path176" />
    <path
       d="m 3.7068752,105.61416 c 0,0.27619 -0.2238186,0.49997 -0.5000632,0.49997 -0.2761568,0 -0.4999929,-0.22378 -0.4999929,-0.49997 0,-0.2762 0.2238361,-0.50016 0.4999929,-0.50016 0.2762446,0 0.5000632,0.22396 0.5000632,0.50016"
       style="fill:#e5faf2;fill-opacity:1;fill-rule:nonzero;stroke:none;stroke-width:0.0174694"
       id="path178" />
    <path
       d="m 1.7066934,115.23999 c 0,0.48338 -0.3917699,0.87522 -0.87511442,0.87522 -0.48327474,0 -0.87504462,-0.39184 -0.87504462,-0.87522 0,-0.4832 0.39176988,-0.87504 0.87504462,-0.87504 0.48334452,0 0.87511442,0.39184 0.87511442,0.87504"
       style="fill:#e5faf2;fill-opacity:1;fill-rule:nonzero;stroke:none;stroke-width:0.0174694"
       id="path180" />
    <path
       d="m 9.7074901,112.3647 c 0,0.13818 -0.1119096,0.25016 -0.250023,0.25016 -0.1380608,0 -0.2500402,-0.11198 -0.2500402,-0.25016 0,-0.13801 0.1119794,-0.24999 0.2500402,-0.24999 0.1381134,0 0.250023,0.11198 0.250023,0.24999"
       style="fill:#74caf2;fill-opacity:1;fill-rule:nonzero;stroke:none;stroke-width:0.0174694"
       id="path182" />
    <path
       d="m 33.226517,46.459289 c 0,0.276017 -0.223958,0.499627 -0.50015,0.499627 -0.276192,0 -0.499975,-0.22361 -0.499975,-0.499627 0,-0.276017 0.223783,-0.501373 0.499975,-0.501373 0.276192,0 0.50015,0.225356 0.50015,0.501373"
       style="fill:#74caf2;fill-opacity:1;fill-rule:nonzero;stroke:none;stroke-width:0.0174694"
       id="path184" />
    <path
       d="m 31.709646,26.605264 c 0,0.139755 -0.111805,0.25156 -0.249988,0.25156 -0.138009,0 -0.249988,-0.111805 -0.249988,-0.25156 0,-0.138009 0.111979,-0.249813 0.249988,-0.249813 0.138183,0 0.249988,0.111804 0.249988,0.249813"
       style="fill:#ffda47;fill-opacity:1;fill-rule:nonzero;stroke:none;stroke-width:0.0174694"
       id="path186" />
    <path
       d="m 56.962256,19.229664 c 0,0.345895 -0.27986,0.625406 -0.625057,0.625406 -0.345197,0 -0.625058,-0.279511 -0.625058,-0.625406 0,-0.344148 0.279861,-0.623659 0.625058,-0.623659 0.345197,0 0.625057,0.279511 0.625057,0.623659"
       style="fill:#e5faf2;fill-opacity:1;fill-rule:nonzero;stroke:none;stroke-width:0.0174694"
       id="path188" />
    <path
       d="m 48.262645,22.730541 c -1.102673,0.178188 -1.247494,0.323184 -1.426381,1.427254 -0.178888,-1.10407 -0.323709,-1.249066 -1.42638,-1.427254 1.102671,-0.178189 1.247492,-0.323185 1.42638,-1.425507 0.178887,1.102322 0.323708,1.247318 1.426381,1.425507"
       style="fill:#e5faf2;fill-opacity:1;fill-rule:nonzero;stroke:none;stroke-width:0.0174694"
       id="path190" />
    <path
       d="m 87.225274,96.113223 c -2.520141,0.408607 -2.851537,0.740003 -3.260322,3.260322 -0.408612,-2.520319 -0.740007,-2.851715 -3.260322,-3.260322 2.520315,-0.408785 2.85171,-0.74018 3.260322,-3.2605 0.408785,2.52032 0.740181,2.851715 3.260322,3.2605"
       style="fill:#e5faf2;fill-opacity:1;fill-rule:nonzero;stroke:none;stroke-width:0.0174694"
       id="path192" />
    <path
       d="m 87.104738,110.86459 c -1.654007,0.26834 -1.871329,0.48565 -2.139662,2.13966 -0.268154,-1.65401 -0.485649,-1.87132 -2.139483,-2.13966 1.653834,-0.26815 1.871329,-0.48565 2.139483,-2.13948 0.268333,1.65383 0.485655,1.87133 2.139662,2.13948"
       style="fill:#f39e0f;fill-opacity:1;fill-rule:nonzero;stroke:none;stroke-width:0.0174694"
       id="path194" />
    <path
       d="m 78.214359,83.611908 c 0,0.276196 -0.223784,0.499976 -0.499975,0.499976 -0.276192,0 -0.499976,-0.22378 -0.499976,-0.499976 0,-0.276191 0.223784,-0.500149 0.499976,-0.500149 0.276191,0 0.499975,0.223958 0.499975,0.500149"
       style="fill:#f39e0f;fill-opacity:1;fill-rule:nonzero;stroke:none;stroke-width:0.0174694"
       id="path196" />
    <path
       d="m 75.464144,19.481224 c 0,0.344148 -0.27986,0.623659 -0.625057,0.623659 -0.345197,0 -0.625057,-0.279511 -0.625057,-0.623659 0,-0.345895 0.27986,-0.625406 0.625057,-0.625406 0.345197,0 0.625057,0.279511 0.625057,0.625406"
       style="fill:#e5faf2;fill-opacity:1;fill-rule:nonzero;stroke:none;stroke-width:0.0174694"
       id="path198" />
    <path
       d="m 2.3395589,54.734041 c 0,0.280385 -0.2273822,0.507837 -0.5078542,0.507837 -0.2804544,0 -0.5078368,-0.227452 -0.5078368,-0.507837 0,-0.280559 0.2273824,-0.508011 0.5078368,-0.508011 0.280472,0 0.5078542,0.227452 0.5078542,0.508011"
       style="fill:#fbf5a3;fill-opacity:1;fill-rule:nonzero;stroke:none;stroke-width:0.0174694"
       id="path200" />
    <path
       d="m 2.2067562,29.106889 c 0,0.279511 -0.2273822,0.506614 -0.5078368,0.506614 -0.2805418,0 -0.5079067,-0.227103 -0.5079067,-0.506614 0,-0.281258 0.2273649,-0.508361 0.5079067,-0.508361 0.2804546,0 0.5078368,0.227103 0.5078368,0.508361"
       style="fill:#fbf5a3;fill-opacity:1;fill-rule:nonzero;stroke:none;stroke-width:0.0174694"
       id="path202" />
    <path
       d="m 76.464269,90.612616 c 0,0.280385 -0.227449,0.507839 -0.507834,0.507839 -0.280559,0 -0.50784,-0.227454 -0.50784,-0.507839 0,-0.280559 0.227281,-0.507835 0.50784,-0.507835 0.280385,0 0.507834,0.227276 0.507834,0.507835"
       style="fill:#e5faf2;fill-opacity:1;fill-rule:nonzero;stroke:none;stroke-width:0.0174694"
       id="path204" />
    <path
       d="m 89.715545,42.357463 c 0,0.276018 -0.223785,0.499626 -0.499976,0.499626 -0.276191,0 -0.500149,-0.223608 -0.500149,-0.499626 0,-0.276017 0.223958,-0.499625 0.500149,-0.499625 0.276191,0 0.499976,0.223608 0.499976,0.499625"
       style="fill:#fbf5a3;fill-opacity:1;fill-rule:nonzero;stroke:none;stroke-width:0.0174694"
       id="path206" />
    <path
       d="m 91.460743,60.609542 c 1.260073,-0.204393 1.425855,-0.370006 1.630247,-1.630075 0.204219,1.260069 0.370001,1.425682 1.630074,1.630075 -1.260073,0.204392 -1.425855,0.370001 -1.630074,1.630247 -0.204392,-1.260246 -0.370174,-1.425855 -1.630247,-1.630247"
       style="fill:#74caf2;fill-opacity:1;fill-rule:nonzero;stroke:none;stroke-width:0.0174694"
       id="path208" />
    <path
       d="m 86.465181,65.985063 c 0,-0.207013 0.168055,-0.375068 0.375067,-0.375068 0.207191,0 0.375068,0.168055 0.375068,0.375068 0,0.20719 -0.167877,0.375072 -0.375068,0.375072 -0.207012,0 -0.375067,-0.167882 -0.375067,-0.375072"
       style="fill:#fbf5a3;fill-opacity:1;fill-rule:nonzero;stroke:none;stroke-width:0.0174694"
       id="path210" />
  </g>
</svg>
