<?xml version="1.0" encoding="UTF-8" standalone="no"?>
<svg
   xmlns:dc="http://purl.org/dc/elements/1.1/"
   xmlns:cc="http://creativecommons.org/ns#"
   xmlns:rdf="http://www.w3.org/1999/02/22-rdf-syntax-ns#"
   xmlns:svg="http://www.w3.org/2000/svg"
   xmlns="http://www.w3.org/2000/svg"
   xmlns:sodipodi="http://sodipodi.sourceforge.net/DTD/sodipodi-0.dtd"
   xmlns:inkscape="http://www.inkscape.org/namespaces/inkscape"
   width="100mm"
   height="99.999924mm"
   viewBox="0 0 100 99.999923"
   version="1.1"
   id="svg1337"
   inkscape:version="1.0 (4035a4fb49, 2020-05-01)"
   sodipodi:docname="space3.svg">
  <defs
     id="defs1331" />
  <sodipodi:namedview
     id="base"
     pagecolor="#ffffff"
     bordercolor="#666666"
     borderopacity="1.0"
     inkscape:pageopacity="0.0"
     inkscape:pageshadow="2"
     inkscape:zoom="0.35"
     inkscape:cx="410.19042"
     inkscape:cy="524.47587"
     inkscape:document-units="mm"
     inkscape:current-layer="layer1"
     inkscape:document-rotation="0"
     showgrid="false"
     inkscape:window-width="1920"
     inkscape:window-height="996"
     inkscape:window-x="-8"
     inkscape:window-y="-8"
     inkscape:window-maximized="1" />
  <metadata
     id="metadata1334">
    <rdf:RDF>
      <cc:Work
         rdf:about="">
        <dc:format>image/svg+xml</dc:format>
        <dc:type
           rdf:resource="http://purl.org/dc/dcmitype/StillImage" />
        <dc:title />
      </cc:Work>
    </rdf:RDF>
  </metadata>
  <g
     inkscape:label="Layer 1"
     inkscape:groupmode="layer"
     id="layer1"
     transform="translate(2.6962155,-9.3990926)">
    <path
       d="M 97.303784,109.39902 H -2.6962155 V 9.3990926 H 97.303784 V 109.39902"
       style="fill:#0c043d;fill-opacity:1;fill-rule:nonzero;stroke:none;stroke-width:0.0174694"
       id="path212" />
    <path
       d="m 1.35526,40.636707 c 0,0.172597 -0.1398952,0.312527 -0.3124583,0.312527 -0.1725805,0 -0.31247568,-0.13993 -0.31247568,-0.312527 0,-0.172599 0.13989518,-0.312529 0.31247568,-0.312529 0.1725631,0 0.3124583,0.13993 0.3124583,0.312529"
       style="fill:#f39e0f;fill-opacity:1;fill-rule:nonzero;stroke:none;stroke-width:0.0174694"
       id="path214" />
    <path
       d="m 2.8551852,31.449707 c 0,0.483205 -0.3916995,0.87487 -0.8749039,0.87487 -0.4832743,0 -0.8749739,-0.391665 -0.8749739,-0.87487 0,-0.483204 0.3916996,-0.875043 0.8749739,-0.875043 0.4832044,0 0.8749039,0.391839 0.8749039,0.875043"
       style="fill:#74caf2;fill-opacity:1;fill-rule:nonzero;stroke:none;stroke-width:0.0174694"
       id="path216" />
    <path
       d="m 4.1051232,35.386968 c 0,0.172597 -0.1398776,0.312527 -0.3124581,0.312527 -0.1725804,0 -0.3124761,-0.13993 -0.3124761,-0.312527 0,-0.172598 0.1398957,-0.312528 0.3124761,-0.312528 0.1725805,0 0.3124581,0.13993 0.3124581,0.312528"
       style="fill:#e5faf2;fill-opacity:1;fill-rule:nonzero;stroke:none;stroke-width:0.0174694"
       id="path218" />
    <path
       d="m 91.913244,20.262808 c 0,0.172598 -0.139933,0.312353 -0.312528,0.312353 -0.172601,0 -0.312356,-0.139755 -0.312356,-0.312353 0,-0.172598 0.139755,-0.312528 0.312356,-0.312528 0.172595,0 0.312528,0.13993 0.312528,0.312528"
       style="fill:#74caf2;fill-opacity:1;fill-rule:nonzero;stroke:none;stroke-width:0.0174694"
       id="path220" />
    <path
       d="m 14.917076,25.074938 c 0,0.172597 -0.13993,0.312527 -0.312527,0.312527 -0.172599,0 -0.312354,-0.13993 -0.312354,-0.312527 0,-0.172423 0.139755,-0.312354 0.312354,-0.312354 0.172597,0 0.312527,0.139931 0.312527,0.312354"
       style="fill:#e5faf2;fill-opacity:1;fill-rule:nonzero;stroke:none;stroke-width:0.0174694"
       id="path222" />
    <path
       d="m 4.4801048,16.263007 c 0,0.172598 -0.1398955,0.312353 -0.3124581,0.312353 -0.1725809,0 -0.3124759,-0.139755 -0.3124759,-0.312353 0,-0.172598 0.139895,-0.312528 0.3124759,-0.312528 0.1725626,0 0.3124581,0.13993 0.3124581,0.312528"
       style="fill:#fbf5a3;fill-opacity:1;fill-rule:nonzero;stroke:none;stroke-width:0.0174694"
       id="path224" />
    <path
       d="m 40.603254,11.450703 c 0,0.172597 -0.139754,0.312528 -0.312353,0.312528 -0.172598,0 -0.312528,-0.139931 -0.312528,-0.312528 0,-0.172599 0.13993,-0.312529 0.312528,-0.312529 0.172599,0 0.312353,0.13993 0.312353,0.312529"
       style="fill:#ee3782;fill-opacity:1;fill-rule:nonzero;stroke:none;stroke-width:0.0174694"
       id="path226" />
    <path
       d="m 7.292491,42.324078 c 0,0.172599 -0.1398955,0.312529 -0.3124759,0.312529 -0.1725804,0 -0.3124754,-0.13993 -0.3124754,-0.312529 0,-0.172597 0.139895,-0.312353 0.3124754,-0.312353 0.1725804,0 0.3124759,0.139756 0.3124759,0.312353"
       style="fill:#e5faf2;fill-opacity:1;fill-rule:nonzero;stroke:none;stroke-width:0.0174694"
       id="path228" />
    <path
       d="m 87.476006,23.575012 c 0,0.172598 -0.139927,0.312528 -0.312528,0.312528 -0.172596,0 -0.312529,-0.13993 -0.312529,-0.312528 0,-0.172423 0.139933,-0.312353 0.312529,-0.312353 0.172601,0 0.312528,0.13993 0.312528,0.312353"
       style="fill:#e5faf2;fill-opacity:1;fill-rule:nonzero;stroke:none;stroke-width:0.0174694"
       id="path230" />
    <path
       d="m 23.702977,19.546736 c 0,0.172598 -0.13993,0.312528 -0.312353,0.312528 -0.172598,0 -0.312528,-0.13993 -0.312528,-0.312528 0,-0.172598 0.13993,-0.312529 0.312528,-0.312529 0.172423,0 0.312353,0.139931 0.312353,0.312529"
       style="fill:#fbf5a3;fill-opacity:1;fill-rule:nonzero;stroke:none;stroke-width:0.0174694"
       id="path232" />
    <path
       d="m 49.330457,12.045886 c 0,0.172598 -0.139933,0.312528 -0.312529,0.312528 -0.172422,0 -0.312355,-0.13993 -0.312355,-0.312528 0,-0.172423 0.139933,-0.312353 0.312355,-0.312353 0.172596,0 0.312529,0.13993 0.312529,0.312353"
       style="fill:#e5faf2;fill-opacity:1;fill-rule:nonzero;stroke:none;stroke-width:0.0174694"
       id="path234" />
    <path
       d="m 85.334078,11.545911 c 0,0.172598 -0.139927,0.312528 -0.312528,0.312528 -0.172596,0 -0.31235,-0.13993 -0.31235,-0.312528 0,-0.172598 0.139754,-0.312528 0.31235,-0.312528 0.172601,0 0.312528,0.13993 0.312528,0.312528"
       style="fill:#e5faf2;fill-opacity:1;fill-rule:nonzero;stroke:none;stroke-width:0.0174694"
       id="path236" />
    <path
       d="m 95.084992,39.548711 c 0,0.172597 -0.139754,0.312527 -0.312355,0.312527 -0.172596,0 -0.312528,-0.13993 -0.312528,-0.312527 0,-0.172599 0.139932,-0.312529 0.312528,-0.312529 0.172601,0 0.312355,0.13993 0.312355,0.312529"
       style="fill:#ee3782;fill-opacity:1;fill-rule:nonzero;stroke:none;stroke-width:0.0174694"
       id="path238" />
    <path
       d="m 76.020775,91.241278 c 0,0.172948 -0.139928,0.312702 -0.312529,0.312702 -0.172596,0 -0.312523,-0.139754 -0.312523,-0.312702 0,-0.172947 0.139927,-0.312701 0.312523,-0.312701 0.172601,0 0.312529,0.139754 0.312529,0.312701"
       style="fill:#fbf5a3;fill-opacity:1;fill-rule:nonzero;stroke:none;stroke-width:0.0174694"
       id="path240" />
    <path
       d="m 49.518077,107.05457 c 0,0.17298 -0.139928,0.31274 -0.312529,0.31274 -0.172595,0 -0.312528,-0.13976 -0.312528,-0.31274 0,-0.17114 0.139933,-0.3109 0.312528,-0.3109 0.172601,0 0.312529,0.13976 0.312529,0.3109"
       style="fill:#74caf2;fill-opacity:1;fill-rule:nonzero;stroke:none;stroke-width:0.0174694"
       id="path242" />
    <path
       d="m -1.1745233,99.05534 c 0,0.171214 -0.1399651,0.310969 -0.3125455,0.310969 -0.1725805,0 -0.3124758,-0.139755 -0.3124758,-0.310969 0,-0.172912 0.1398953,-0.312667 0.3124758,-0.312667 0.1725804,0 0.3125455,0.139755 0.3125455,0.312667"
       style="fill:#74caf2;fill-opacity:1;fill-rule:nonzero;stroke:none;stroke-width:0.0174694"
       id="path244" />
    <path
       d="m 44.330008,59.80067 c 0,0.1726 -0.13993,0.312528 -0.312528,0.312528 -0.172598,0 -0.312529,-0.139928 -0.312529,-0.312528 0,-0.172596 0.139931,-0.312351 0.312529,-0.312351 0.172598,0 0.312528,0.139755 0.312528,0.312351"
       style="fill:#74caf2;fill-opacity:1;fill-rule:nonzero;stroke:none;stroke-width:0.0174694"
       id="path246" />
    <path
       d="m 94.522474,31.235357 c 0,0.172599 -0.139755,0.312529 -0.31235,0.312529 -0.172601,0 -0.312529,-0.13993 -0.312529,-0.312529 0,-0.172423 0.139928,-0.312354 0.312529,-0.312354 0.172595,0 0.31235,0.139931 0.31235,0.312354"
       style="fill:#fbf5a3;fill-opacity:1;fill-rule:nonzero;stroke:none;stroke-width:0.0174694"
       id="path248" />
    <path
       d="m 44.01748,20.296699 c 0,0.172597 -0.13993,0.312527 -0.312529,0.312527 -0.172423,0 -0.312353,-0.13993 -0.312353,-0.312527 0,-0.172424 0.13993,-0.312354 0.312353,-0.312354 0.172599,0 0.312529,0.13993 0.312529,0.312354"
       style="fill:#74caf2;fill-opacity:1;fill-rule:nonzero;stroke:none;stroke-width:0.0174694"
       id="path250" />
    <path
       d="m 38.603354,56.57337 c 0,0.172596 -0.139755,0.312528 -0.312354,0.312528 -0.172597,0 -0.312527,-0.139932 -0.312527,-0.312528 0,-0.172422 0.13993,-0.312355 0.312527,-0.312355 0.172599,0 0.312354,0.139933 0.312354,0.312355"
       style="fill:#f39e0f;fill-opacity:1;fill-rule:nonzero;stroke:none;stroke-width:0.0174694"
       id="path252" />
    <path
       d="m 14.979617,89.071575 c 0,0.172947 -0.13993,0.312702 -0.312528,0.312702 -0.172598,0 -0.312528,-0.139755 -0.312528,-0.312702 0,-0.172947 0.13993,-0.312702 0.312528,-0.312702 0.172598,0 0.312528,0.139755 0.312528,0.312702"
       style="fill:#74caf2;fill-opacity:1;fill-rule:nonzero;stroke:none;stroke-width:0.0174694"
       id="path254" />
    <path
       d="m -1.1745233,34.298098 c 0,0.172599 -0.1399651,0.312529 -0.3125455,0.312529 -0.1725805,0 -0.3124758,-0.13993 -0.3124758,-0.312529 0,-0.172424 0.1398953,-0.312354 0.3124758,-0.312354 0.1725804,0 0.3125455,0.13993 0.3125455,0.312354"
       style="fill:#ee3782;fill-opacity:1;fill-rule:nonzero;stroke:none;stroke-width:0.0174694"
       id="path256" />
    <path
       d="m 73.270389,62.488517 c 0,0.172601 -0.139928,0.312528 -0.312355,0.312528 -0.172596,0 -0.312529,-0.139927 -0.312529,-0.312528 0,-0.172596 0.139933,-0.312529 0.312529,-0.312529 0.172427,0 0.312355,0.139933 0.312355,0.312529"
       style="fill:#74caf2;fill-opacity:1;fill-rule:nonzero;stroke:none;stroke-width:0.0174694"
       id="path258" />
    <path
       d="m 64.519604,88.241779 c 0,0.1712 -0.139933,0.312702 -0.312529,0.312702 -0.172601,0 -0.312528,-0.141502 -0.312528,-0.312702 0,-0.172947 0.139927,-0.312706 0.312528,-0.312706 0.172596,0 0.312529,0.139759 0.312529,0.312706"
       style="fill:#e5faf2;fill-opacity:1;fill-rule:nonzero;stroke:none;stroke-width:0.0174694"
       id="path260" />
    <path
       d="m 61.956838,101.80508 c 0,0.17291 -0.139933,0.31266 -0.312528,0.31266 -0.172601,0 -0.312356,-0.13975 -0.312356,-0.31266 0,-0.173 0.139755,-0.31275 0.312356,-0.31275 0.172595,0 0.312528,0.13975 0.312528,0.31275"
       style="fill:#74caf2;fill-opacity:1;fill-rule:nonzero;stroke:none;stroke-width:0.0174694"
       id="path262" />
    <path
       d="m 8.7298934,22.137627 c 0,0.379786 -0.3077592,0.687422 -0.687457,0.687422 -0.379681,0 -0.6874397,-0.307636 -0.6874397,-0.687422 0,-0.379611 0.3077587,-0.687422 0.6874397,-0.687422 0.3796978,0 0.687457,0.307811 0.687457,0.687422"
       style="fill:#fbf5a3;fill-opacity:1;fill-rule:nonzero;stroke:none;stroke-width:0.0174694"
       id="path264" />
    <path
       d="m -1.0196217,25.512547 c 0,-0.103594 0.0839405,-0.187622 0.1875168,-0.187622 0.10352385,0 0.1874645,0.08403 0.1874645,0.187622 0,0.103418 -0.0839406,0.187446 -0.1874645,0.187446 -0.10357632,0 -0.1875168,-0.08403 -0.1875168,-0.187446"
       style="fill:#74caf2;fill-opacity:1;fill-rule:nonzero;stroke:none;stroke-width:0.0174694"
       id="path266" />
    <path
       d="m 1.2284144,12.888087 c -1.49616932,0.242651 -1.69291009,0.439356 -1.93549065,1.935613 -0.24266781,-1.496257 -0.43940855,-1.692962 -1.93556045,-1.935613 1.4961519,-0.24265 1.69289264,-0.439356 1.93556045,-1.935438 0.24258056,1.496082 0.43932133,1.692788 1.93549065,1.935438"
       style="fill:#e5faf2;fill-opacity:1;fill-rule:nonzero;stroke:none;stroke-width:0.0174694"
       id="path268" />
    <path
       d="m 16.72953,13.950578 c 0,0.138009 -0.111979,0.249988 -0.249988,0.249988 -0.138008,0 -0.249988,-0.111979 -0.249988,-0.249988 0,-0.138008 0.11198,-0.249987 0.249988,-0.249987 0.138009,0 0.249988,0.111979 0.249988,0.249987"
       style="fill:#fbf5a3;fill-opacity:1;fill-rule:nonzero;stroke:none;stroke-width:0.0174694"
       id="path270" />
    <path
       d="m 35.553891,32.297849 c -1.699951,0.220813 -1.879013,0.399875 -2.099827,2.099824 -0.220988,-1.699949 -0.400049,-1.879011 -2.1,-2.099824 1.699951,-0.220989 1.879012,-0.400051 2.1,-2.1 0.220814,1.699949 0.399876,1.879011 2.099827,2.1"
       style="fill:#ffda47;fill-opacity:1;fill-rule:nonzero;stroke:none;stroke-width:0.0174694"
       id="path272" />
    <path
       d="m 10.10486,15.013069 c 0,0.103419 -0.08394,0.187447 -0.1875345,0.187447 -0.1035064,0 -0.1874472,-0.08403 -0.1874472,-0.187447 0,-0.103594 0.083941,-0.187622 0.1874472,-0.187622 0.1035935,0 0.1875345,0.08403 0.1875345,0.187622"
       style="fill:#74caf2;fill-opacity:1;fill-rule:nonzero;stroke:none;stroke-width:0.0174694"
       id="path274" />
    <path
       d="m 96.545961,50.292585 c 0,0.07337 -0.05957,0.132767 -0.132946,0.132767 -0.07337,0 -0.13294,-0.05939 -0.13294,-0.132767 0,-0.07355 0.05957,-0.132943 0.13294,-0.132943 0.07337,0 0.132946,0.0594 0.132946,0.132943"
       style="fill:#fbf5a3;fill-opacity:1;fill-rule:nonzero;stroke:none;stroke-width:0.0174694"
       id="path276" />
    <path
       d="m 46.860979,43.332065 c 0,0.07337 -0.05957,0.132942 -0.132942,0.132942 -0.07337,0 -0.132943,-0.05957 -0.132943,-0.132942 0,-0.07337 0.05957,-0.132943 0.132943,-0.132943 0.07337,0 0.132942,0.05957 0.132942,0.132943"
       style="fill:#e5faf2;fill-opacity:1;fill-rule:nonzero;stroke:none;stroke-width:0.0174694"
       id="path278" />
    <path
       d="m 65.851994,18.700342 c 0,0.07337 -0.05939,0.132942 -0.13294,0.132942 -0.07337,0 -0.132768,-0.05957 -0.132768,-0.132942 0,-0.07337 0.05939,-0.132942 0.132768,-0.132942 0.07355,0 0.13294,0.05957 0.13294,0.132942"
       style="fill:#74caf2;fill-opacity:1;fill-rule:nonzero;stroke:none;stroke-width:0.0174694"
       id="path280" />
    <path
       d="m 58.985288,14.583496 c 0,0.07337 -0.0594,0.132942 -0.132946,0.132942 -0.07337,0 -0.13294,-0.05957 -0.13294,-0.132942 0,-0.07337 0.05957,-0.132943 0.13294,-0.132943 0.07355,0 0.132946,0.05957 0.132946,0.132943"
       style="fill:#fbf5a3;fill-opacity:1;fill-rule:nonzero;stroke:none;stroke-width:0.0174694"
       id="path282" />
    <path
       d="m 24.862075,9.8178349 c 0,0.073372 -0.05957,0.1329424 -0.132943,0.1329424 -0.07337,0 -0.132943,-0.059571 -0.132943,-0.1329424 0,-0.073372 0.05957,-0.1329424 0.132943,-0.1329424 0.07337,0 0.132943,0.059571 0.132943,0.1329424"
       style="fill:#ee3782;fill-opacity:1;fill-rule:nonzero;stroke:none;stroke-width:0.0174694"
       id="path284" />
    <path
       d="m 6.4959199,11.825597 c 0,0.07355 -0.059501,0.132942 -0.1329251,0.132942 -0.073442,0 -0.1329424,-0.0594 -0.1329424,-0.132942 0,-0.07337 0.059501,-0.132768 0.1329424,-0.132768 0.073424,0 0.1329251,0.0594 0.1329251,0.132768"
       style="fill:#fbf5a3;fill-opacity:1;fill-rule:nonzero;stroke:none;stroke-width:0.0174694"
       id="path286" />
    <path
       d="m -1.6366421,17.567449 c 0,0.07337 -0.059518,0.132943 -0.1329424,0.132943 -0.073424,0 -0.1329249,-0.05957 -0.1329249,-0.132943 0,-0.07337 0.059501,-0.132942 0.1329249,-0.132942 0.073424,0 0.1329424,0.05957 0.1329424,0.132942"
       style="fill:#74caf2;fill-opacity:1;fill-rule:nonzero;stroke:none;stroke-width:0.0174694"
       id="path288" />
    <path
       d="m 3.2301667,60.448263 c 0,0.07337 -0.059519,0.13294 -0.1329424,0.13294 -0.073354,0 -0.1328553,-0.05957 -0.1328553,-0.13294 0,-0.07337 0.059501,-0.132941 0.1328553,-0.132941 0.073424,0 0.1329424,0.05957 0.1329424,0.132941"
       style="fill:#74caf2;fill-opacity:1;fill-rule:nonzero;stroke:none;stroke-width:0.0174694"
       id="path290" />
    <path
       d="m -1.5195445,79.571701 c 0,0.07337 -0.059571,0.132767 -0.1329424,0.132767 -0.073424,0 -0.1329249,-0.0594 -0.1329249,-0.132767 0,-0.07337 0.059501,-0.132772 0.1329249,-0.132772 0.073372,0 0.1329424,0.0594 0.1329424,0.132772"
       style="fill:#f39e0f;fill-opacity:1;fill-rule:nonzero;stroke:none;stroke-width:0.0174694"
       id="path292" />
    <path
       d="m 16.354462,108.19533 c 0,0.0734 -0.0594,0.1328 -0.132943,0.1328 -0.07337,0 -0.132767,-0.0594 -0.132767,-0.1328 0,-0.0734 0.0594,-0.13272 0.132767,-0.13272 0.07355,0 0.132943,0.0594 0.132943,0.13272"
       style="fill:#74caf2;fill-opacity:1;fill-rule:nonzero;stroke:none;stroke-width:0.0174694"
       id="path294" />
    <path
       d="m 30.236719,87.563964 c 0,0.07337 -0.0594,0.132767 -0.132943,0.132767 -0.07337,0 -0.132941,-0.05939 -0.132941,-0.132767 0,-0.07337 0.05957,-0.132767 0.132941,-0.132767 0.07355,0 0.132943,0.05939 0.132943,0.132767"
       style="fill:#f39e0f;fill-opacity:1;fill-rule:nonzero;stroke:none;stroke-width:0.0174694"
       id="path296" />
    <path
       d="m 51.727787,72.572574 c 0,0.07354 -0.05957,0.132941 -0.132945,0.132941 -0.07337,0 -0.132941,-0.0594 -0.132941,-0.132941 0,-0.07337 0.05957,-0.132945 0.132941,-0.132945 0.07337,0 0.132945,0.05957 0.132945,0.132945"
       style="fill:#74caf2;fill-opacity:1;fill-rule:nonzero;stroke:none;stroke-width:0.0174694"
       id="path298" />
    <path
       d="m 59.477399,78.196852 c 0,0.07337 -0.05957,0.132772 -0.13294,0.132772 -0.07337,0 -0.132946,-0.0594 -0.132946,-0.132772 0,-0.07337 0.05957,-0.132767 0.132946,-0.132767 0.07337,0 0.13294,0.0594 0.13294,0.132767"
       style="fill:#fbf5a3;fill-opacity:1;fill-rule:nonzero;stroke:none;stroke-width:0.0174694"
       id="path300" />
    <path
       d="m 67.726991,60.073196 c 0,0.07354 -0.05957,0.13294 -0.132945,0.13294 -0.07337,0 -0.132941,-0.0594 -0.132941,-0.13294 0,-0.07337 0.05957,-0.132945 0.132941,-0.132945 0.07337,0 0.132945,0.05957 0.132945,0.132945"
       style="fill:#74caf2;fill-opacity:1;fill-rule:nonzero;stroke:none;stroke-width:0.0174694"
       id="path302" />
    <path
       d="m 60.102283,37.949383 c 0,0.07337 -0.0594,0.132943 -0.132946,0.132943 -0.07337,0 -0.132767,-0.05957 -0.132767,-0.132943 0,-0.07337 0.0594,-0.132942 0.132767,-0.132942 0.07355,0 0.132946,0.05957 0.132946,0.132942"
       style="fill:#fbf5a3;fill-opacity:1;fill-rule:nonzero;stroke:none;stroke-width:0.0174694"
       id="path304" />
    <path
       d="m 86.350974,39.324228 c 0,0.07355 -0.05939,0.132942 -0.13294,0.132942 -0.07337,0 -0.132767,-0.05939 -0.132767,-0.132942 0,-0.07337 0.05939,-0.132942 0.132767,-0.132942 0.07355,0 0.13294,0.05957 0.13294,0.132942"
       style="fill:#e5faf2;fill-opacity:1;fill-rule:nonzero;stroke:none;stroke-width:0.0174694"
       id="path306" />
    <path
       d="m 71.726792,22.575062 c 0,0.07355 -0.05957,0.132941 -0.132945,0.132941 -0.07337,0 -0.132941,-0.0594 -0.132941,-0.132941 0,-0.07337 0.05957,-0.132943 0.132941,-0.132943 0.07337,0 0.132945,0.05957 0.132945,0.132943"
       style="fill:#fbf5a3;fill-opacity:1;fill-rule:nonzero;stroke:none;stroke-width:0.0174694"
       id="path308" />
    <path
       d="m 67.726991,24.074987 c 0,0.07355 -0.05957,0.132942 -0.132945,0.132942 -0.07337,0 -0.132941,-0.0594 -0.132941,-0.132942 0,-0.07337 0.05957,-0.132942 0.132941,-0.132942 0.07337,0 0.132945,0.05957 0.132945,0.132942"
       style="fill:#e5faf2;fill-opacity:1;fill-rule:nonzero;stroke:none;stroke-width:0.0174694"
       id="path310" />
    <path
       d="m 79.833654,18.796598 c 0,0.103594 -0.08403,0.187448 -0.18762,0.187448 -0.103422,0 -0.187447,-0.08385 -0.187447,-0.187448 0,-0.103593 0.08403,-0.187446 0.187447,-0.187446 0.10359,0 0.18762,0.08385 0.18762,0.187446"
       style="fill:#e5faf2;fill-opacity:1;fill-rule:nonzero;stroke:none;stroke-width:0.0174694"
       id="path312" />
    <path
       d="m 80.396172,51.987469 c 0,0.103419 -0.08403,0.187448 -0.187451,0.187448 -0.103591,0 -0.187621,-0.08403 -0.187621,-0.187448 0,-0.103594 0.08403,-0.187621 0.187621,-0.187621 0.103421,0 0.187451,0.08403 0.187451,0.187621"
       style="fill:#ee3782;fill-opacity:1;fill-rule:nonzero;stroke:none;stroke-width:0.0174694"
       id="path314" />
    <path
       d="m 35.95429,81.302918 c 0,0.10307 -0.08403,0.186927 -0.187448,0.186927 -0.103594,0 -0.187621,-0.08386 -0.187621,-0.186927 0,-0.10307 0.08403,-0.186922 0.187621,-0.186922 0.103419,0 0.187448,0.08385 0.187448,0.186922"
       style="fill:#f39e0f;fill-opacity:1;fill-rule:nonzero;stroke:none;stroke-width:0.0174694"
       id="path316" />
    <path
       d="m 59.144082,47.612075 c 0,0.103594 -0.08402,0.187447 -0.18762,0.187447 -0.103422,0 -0.187446,-0.08385 -0.187446,-0.187447 0,-0.103592 0.08402,-0.187446 0.187446,-0.187446 0.103595,0 0.18762,0.08385 0.18762,0.187446"
       style="fill:#fbf5a3;fill-opacity:1;fill-rule:nonzero;stroke:none;stroke-width:0.0174694"
       id="path318" />
    <path
       d="m 30.391149,50.362288 c 0,0.103595 -0.08385,0.187448 -0.187447,0.187448 -0.103594,0 -0.187447,-0.08385 -0.187447,-0.187448 0,-0.103594 0.08385,-0.187447 0.187447,-0.187447 0.103594,0 0.187447,0.08385 0.187447,0.187447"
       style="fill:#fbf5a3;fill-opacity:1;fill-rule:nonzero;stroke:none;stroke-width:0.0174694"
       id="path320" />
    <path
       d="m 18.827433,56.800472 c 0,0.103595 -0.08385,0.187447 -0.187446,0.187447 -0.103594,0 -0.187447,-0.08385 -0.187447,-0.187447 0,-0.103595 0.08385,-0.187447 0.187447,-0.187447 0.103593,0 0.187446,0.08385 0.187446,0.187447"
       style="fill:#f39e0f;fill-opacity:1;fill-rule:nonzero;stroke:none;stroke-width:0.0174694"
       id="path322" />
    <path
       d="m 32.328859,100.05457 c 0,0.10313 -0.08403,0.18692 -0.187448,0.18692 -0.103593,0 -0.187622,-0.0838 -0.187622,-0.18692 0,-0.103033 0.08403,-0.186904 0.187622,-0.186904 0.10342,0 0.187448,0.08387 0.187448,0.186904"
       style="fill:#fbf5a3;fill-opacity:1;fill-rule:nonzero;stroke:none;stroke-width:0.0174694"
       id="path324" />
    <path
       d="m 65.957159,107.05457 c 0,0.10482 -0.08385,0.18867 -0.187447,0.18867 -0.103417,0 -0.187447,-0.0838 -0.187447,-0.18867 0,-0.10305 0.08403,-0.18692 0.187447,-0.18692 0.103595,0 0.187447,0.0839 0.187447,0.18692"
       style="fill:#ee3782;fill-opacity:1;fill-rule:nonzero;stroke:none;stroke-width:0.0174694"
       id="path326" />
    <path
       d="m 55.081045,85.803046 c 0,0.10307 -0.08386,0.186921 -0.187447,0.186921 -0.103595,0 -0.187447,-0.08385 -0.187447,-0.186921 0,-0.103071 0.08385,-0.186922 0.187447,-0.186922 0.10359,0 0.187447,0.08385 0.187447,0.186922"
       style="fill:#f39e0f;fill-opacity:1;fill-rule:nonzero;stroke:none;stroke-width:0.0174694"
       id="path328" />
    <path
       d="m 88.396992,74.36476 c 0,0.103421 -0.08402,0.187446 -0.187441,0.187446 -0.103595,0 -0.187625,-0.08402 -0.187625,-0.187446 0,-0.103591 0.08403,-0.187447 0.187625,-0.187447 0.103416,0 0.187441,0.08386 0.187441,0.187447"
       style="fill:#fbf5a3;fill-opacity:1;fill-rule:nonzero;stroke:none;stroke-width:0.0174694"
       id="path330" />
    <path
       d="m 6.1675467,81.447916 c 0,0.06813 -0.055954,0.124032 -0.1250108,0.124032 -0.068987,0 -0.1250114,-0.0559 -0.1250114,-0.124032 0,-0.06988 0.056025,-0.12578 0.1250114,-0.12578 0.069057,0 0.1250108,0.0559 0.1250108,0.12578"
       style="fill:#e5faf2;fill-opacity:1;fill-rule:nonzero;stroke:none;stroke-width:0.0174694"
       id="path332" />
    <path
       d="m 3.9801822,89.571199 c 0,0.06988 -0.055955,0.12578 -0.1250114,0.12578 -0.069057,0 -0.1250113,-0.0559 -0.1250113,-0.12578 0,-0.06813 0.055955,-0.124032 0.1250113,-0.124032 0.069057,0 0.1250114,0.0559 0.1250114,0.124032"
       style="fill:#74caf2;fill-opacity:1;fill-rule:nonzero;stroke:none;stroke-width:0.0174694"
       id="path334" />
    <path
       d="m 19.354313,97.196625 c 0,0.06809 -0.0559,0.123983 -0.124908,0.123983 -0.069,0 -0.12508,-0.05589 -0.12508,-0.123983 0,-0.06988 0.05608,-0.125829 0.12508,-0.125829 0.06901,0 0.124908,0.05595 0.124908,0.125829"
       style="fill:#fbf5a3;fill-opacity:1;fill-rule:nonzero;stroke:none;stroke-width:0.0174694"
       id="path336" />
    <path
       d="m 26.729032,76.82236 c 0,0.06918 -0.0559,0.125082 -0.125082,0.125082 -0.069,0 -0.124905,-0.0559 -0.124905,-0.125082 0,-0.06901 0.0559,-0.124908 0.124905,-0.124908 0.06918,0 0.125082,0.0559 0.125082,0.124908"
       style="fill:#f39e0f;fill-opacity:1;fill-rule:nonzero;stroke:none;stroke-width:0.0174694"
       id="path338" />
    <path
       d="m 29.853789,57.448412 c 0,0.06901 -0.0559,0.124908 -0.124906,0.124908 -0.06901,0 -0.125082,-0.0559 -0.125082,-0.124908 0,-0.06901 0.05608,-0.125082 0.125082,-0.125082 0.06901,0 0.124906,0.05608 0.124906,0.125082"
       style="fill:#fbf5a3;fill-opacity:1;fill-rule:nonzero;stroke:none;stroke-width:0.0174694"
       id="path340" />
    <path
       d="m 53.477698,48.32378 c 0,0.06918 -0.05608,0.125081 -0.125082,0.125081 -0.069,0 -0.124904,-0.0559 -0.124904,-0.125081 0,-0.069 0.0559,-0.124906 0.124904,-0.124906 0.06901,0 0.125082,0.0559 0.125082,0.124906"
       style="fill:#fbf5a3;fill-opacity:1;fill-rule:nonzero;stroke:none;stroke-width:0.0174694"
       id="path342" />
    <path
       d="m 15.604499,44.073991 c 0,0.06918 -0.0559,0.125082 -0.124907,0.125082 -0.069,0 -0.12508,-0.0559 -0.12508,-0.125082 0,-0.069 0.05608,-0.124906 0.12508,-0.124906 0.069,0 0.124907,0.0559 0.124907,0.124906"
       style="fill:#fbf5a3;fill-opacity:1;fill-rule:nonzero;stroke:none;stroke-width:0.0174694"
       id="path344" />
    <path
       d="m 57.977474,28.324776 c 0,0.06918 -0.0559,0.12508 -0.125082,0.12508 -0.069,0 -0.124903,-0.0559 -0.124903,-0.12508 0,-0.06901 0.0559,-0.124908 0.124903,-0.124908 0.06918,0 0.125082,0.0559 0.125082,0.124908"
       style="fill:#74caf2;fill-opacity:1;fill-rule:nonzero;stroke:none;stroke-width:0.0174694"
       id="path346" />
    <path
       d="m 35.603503,24.200067 c 0,0.06901 -0.0559,0.124908 -0.124906,0.124908 -0.069,0 -0.125082,-0.0559 -0.125082,-0.124908 0,-0.069 0.05608,-0.12508 0.125082,-0.12508 0.069,0 0.124906,0.05608 0.124906,0.12508"
       style="fill:#e5faf2;fill-opacity:1;fill-rule:nonzero;stroke:none;stroke-width:0.0174694"
       id="path348" />
    <path
       d="m 8.6049345,31.699694 c 0,0.06901 -0.055955,0.124908 -0.1250113,0.124908 -0.069057,0 -0.1250114,-0.0559 -0.1250114,-0.124908 0,-0.069 0.055955,-0.12508 0.1250114,-0.12508 0.069057,0 0.1250113,0.05608 0.1250113,0.12508"
       style="fill:#e5faf2;fill-opacity:1;fill-rule:nonzero;stroke:none;stroke-width:0.0174694"
       id="path350" />
    <path
       d="m 61.602208,62.698153 c 0,0.069 -0.0559,0.124904 -0.124908,0.124904 -0.06901,0 -0.125082,-0.0559 -0.125082,-0.124904 0,-0.069 0.05608,-0.125081 0.125082,-0.125081 0.069,0 0.124908,0.05608 0.124908,0.125081"
       style="fill:#e5faf2;fill-opacity:1;fill-rule:nonzero;stroke:none;stroke-width:0.0174694"
       id="path352" />
    <path
       d="m 73.726693,28.574763 c 0,0.06918 -0.0559,0.125081 -0.125082,0.125081 -0.06901,0 -0.124908,-0.0559 -0.124908,-0.125081 0,-0.069 0.0559,-0.124907 0.124908,-0.124907 0.06918,0 0.125082,0.0559 0.125082,0.124907"
       style="fill:#ee3782;fill-opacity:1;fill-rule:nonzero;stroke:none;stroke-width:0.0174694"
       id="path354" />
    <path
       d="m 80.101288,14.200566 c 0,0.069 -0.0559,0.124906 -0.124909,0.124906 -0.069,0 -0.125081,-0.0559 -0.125081,-0.124906 0,-0.06901 0.05608,-0.125081 0.125081,-0.125081 0.06901,0 0.124909,0.05608 0.124909,0.125081"
       style="fill:#f39e0f;fill-opacity:1;fill-rule:nonzero;stroke:none;stroke-width:0.0174694"
       id="path356" />
    <path
       d="m 90.725847,10.200765 c 0,0.069 -0.05608,0.124906 -0.125082,0.124906 -0.069,0 -0.124908,-0.0559 -0.124908,-0.124906 0,-0.069 0.0559,-0.125081 0.124908,-0.125081 0.069,0 0.125082,0.05608 0.125082,0.125081"
       style="fill:#fbf5a3;fill-opacity:1;fill-rule:nonzero;stroke:none;stroke-width:0.0174694"
       id="path358" />
    <path
       d="m 92.850651,15.700491 c 0,0.069 -0.0559,0.124907 -0.124903,0.124907 -0.06901,0 -0.125082,-0.0559 -0.125082,-0.124907 0,-0.069 0.05608,-0.125081 0.125082,-0.125081 0.069,0 0.124903,0.05608 0.124903,0.125081"
       style="fill:#e5faf2;fill-opacity:1;fill-rule:nonzero;stroke:none;stroke-width:0.0174694"
       id="path360" />
    <path
       d="m 92.100691,24.82495 c 0,0.06918 -0.0559,0.12508 -0.124909,0.12508 -0.069,0 -0.125081,-0.0559 -0.125081,-0.12508 0,-0.06901 0.05608,-0.124907 0.125081,-0.124907 0.06901,0 0.124909,0.0559 0.124909,0.124907"
       style="fill:#ee3782;fill-opacity:1;fill-rule:nonzero;stroke:none;stroke-width:0.0174694"
       id="path362" />
    <path
       d="m 93.350626,35.824402 c 0,0.06918 -0.0559,0.125081 -0.124903,0.125081 -0.06901,0 -0.125082,-0.0559 -0.125082,-0.125081 0,-0.069 0.05608,-0.124907 0.125082,-0.124907 0.069,0 0.124903,0.0559 0.124903,0.124907"
       style="fill:#e5faf2;fill-opacity:1;fill-rule:nonzero;stroke:none;stroke-width:0.0174694"
       id="path364" />
    <path
       d="m 96.350477,29.949781 c 0,0.06901 -0.0559,0.124908 -0.124904,0.124908 -0.06901,0 -0.125081,-0.0559 -0.125081,-0.124908 0,-0.069 0.05608,-0.12508 0.125081,-0.12508 0.069,0 0.124904,0.05608 0.124904,0.12508"
       style="fill:#ee3782;fill-opacity:1;fill-rule:nonzero;stroke:none;stroke-width:0.0174694"
       id="path366" />
    <path
       d="m 95.850502,43.824004 c 0,0.06918 -0.0559,0.125081 -0.124904,0.125081 -0.06901,0 -0.125081,-0.0559 -0.125081,-0.125081 0,-0.069 0.05608,-0.124907 0.125081,-0.124907 0.069,0 0.124904,0.0559 0.124904,0.124907"
       style="fill:#e5faf2;fill-opacity:1;fill-rule:nonzero;stroke:none;stroke-width:0.0174694"
       id="path368" />
    <path
       d="m 65.977076,53.448612 c 0,0.069 -0.05608,0.124907 -0.125082,0.124907 -0.069,0 -0.124903,-0.0559 -0.124903,-0.124907 0,-0.069 0.0559,-0.125081 0.124903,-0.125081 0.06901,0 0.125082,0.05608 0.125082,0.125081"
       style="fill:#fbf5a3;fill-opacity:1;fill-rule:nonzero;stroke:none;stroke-width:0.0174694"
       id="path370" />
    <path
       d="m 69.101835,50.32368 c 0,0.06918 -0.0559,0.125082 -0.124909,0.125082 -0.06901,0 -0.125081,-0.0559 -0.125081,-0.125082 0,-0.069 0.05608,-0.124906 0.125081,-0.124906 0.06901,0 0.124909,0.0559 0.124909,0.124906"
       style="fill:#fbf5a3;fill-opacity:1;fill-rule:nonzero;stroke:none;stroke-width:0.0174694"
       id="path372" />
    <path
       d="m 77.101437,55.698502 c 0,0.069 -0.0559,0.124903 -0.124908,0.124903 -0.06901,0 -0.125082,-0.0559 -0.125082,-0.124903 0,-0.06901 0.05608,-0.125082 0.125082,-0.125082 0.06901,0 0.124908,0.05608 0.124908,0.125082"
       style="fill:#e5faf2;fill-opacity:1;fill-rule:nonzero;stroke:none;stroke-width:0.0174694"
       id="path374" />
    <path
       d="m 83.851099,78.696481 c 0,0.06988 -0.0559,0.12578 -0.124904,0.12578 -0.06901,0 -0.125081,-0.0559 -0.125081,-0.12578 0,-0.06813 0.05608,-0.124032 0.125081,-0.124032 0.069,0 0.124904,0.0559 0.124904,0.124032"
       style="fill:#f39e0f;fill-opacity:1;fill-rule:nonzero;stroke:none;stroke-width:0.0174694"
       id="path376" />
    <path
       d="m 90.600765,84.197604 c 0,0.06813 -0.0559,0.124032 -0.124908,0.124032 -0.06901,0 -0.125082,-0.0559 -0.125082,-0.124032 0,-0.06988 0.05608,-0.12578 0.125082,-0.12578 0.06901,0 0.124908,0.0559 0.124908,0.12578"
       style="fill:#fbf5a3;fill-opacity:1;fill-rule:nonzero;stroke:none;stroke-width:0.0174694"
       id="path378" />
    <path
       d="m 54.602556,88.072323 c 0,0.06813 -0.0559,0.124032 -0.124908,0.124032 -0.06901,0 -0.125082,-0.0559 -0.125082,-0.124032 0,-0.06988 0.05608,-0.12578 0.125082,-0.12578 0.069,0 0.124908,0.0559 0.124908,0.12578"
       style="fill:#ffda47;fill-opacity:1;fill-rule:nonzero;stroke:none;stroke-width:0.0174694"
       id="path380" />
    <path
       d="m 74.101586,97.070796 c 0,0.06988 -0.0559,0.125829 -0.124908,0.125829 -0.06901,0 -0.125082,-0.05595 -0.125082,-0.125829 0,-0.06811 0.05608,-0.124002 0.125082,-0.124002 0.069,0 0.124908,0.05589 0.124908,0.124002"
       style="fill:#e5faf2;fill-opacity:1;fill-rule:nonzero;stroke:none;stroke-width:0.0174694"
       id="path382" />
    <path
       d="m 51.977772,100.19611 c 0,0.0699 -0.05608,0.12576 -0.125082,0.12576 -0.069,0 -0.124903,-0.0559 -0.124903,-0.12576 0,-0.0682 0.0559,-0.12407 0.124903,-0.12407 0.06901,0 0.125082,0.0559 0.125082,0.12407"
       style="fill:#e5faf2;fill-opacity:1;fill-rule:nonzero;stroke:none;stroke-width:0.0174694"
       id="path384" />
    <path
       d="m 79.101337,108.82075 c 0,0.0699 -0.0559,0.12576 -0.124908,0.12576 -0.06901,0 -0.125082,-0.0559 -0.125082,-0.12576 0,-0.0681 0.05608,-0.12576 0.125082,-0.12576 0.06901,0 0.124908,0.0577 0.124908,0.12576"
       style="fill:#74caf2;fill-opacity:1;fill-rule:nonzero;stroke:none;stroke-width:0.0174694"
       id="path386" />
    <path
       d="m 57.977474,108.69499 c 0,0.0699 -0.0559,0.12576 -0.125082,0.12576 -0.069,0 -0.124903,-0.0559 -0.124903,-0.12576 0,-0.0682 0.0559,-0.12407 0.124903,-0.12407 0.06918,0 0.125082,0.0559 0.125082,0.12407"
       style="fill:#74caf2;fill-opacity:1;fill-rule:nonzero;stroke:none;stroke-width:0.0174694"
       id="path388" />
    <path
       d="m 86.350974,92.822263 c 0,0.06813 -0.0559,0.124031 -0.124903,0.124031 -0.06901,0 -0.125082,-0.0559 -0.125082,-0.124031 0,-0.06988 0.05608,-0.12578 0.125082,-0.12578 0.069,0 0.124903,0.0559 0.124903,0.12578"
       style="fill:#ee3782;fill-opacity:1;fill-rule:nonzero;stroke:none;stroke-width:0.0174694"
       id="path390" />
    <path
       d="m 26.60395,105.44567 c 0,0.0699 -0.0559,0.12577 -0.124905,0.12577 -0.06901,0 -0.125082,-0.0559 -0.125082,-0.12577 0,-0.0682 0.05608,-0.12406 0.125082,-0.12406 0.069,0 0.124905,0.0559 0.124905,0.12406"
       style="fill:#ee3782;fill-opacity:1;fill-rule:nonzero;stroke:none;stroke-width:0.0174694"
       id="path392" />
    <path
       d="m 7.8549892,87.197108 c 0,0.06813 -0.056025,0.124032 -0.1250114,0.124032 -0.069074,0 -0.1250287,-0.0559 -0.1250287,-0.124032 0,-0.06988 0.055955,-0.12578 0.1250287,-0.12578 0.068987,0 0.1250114,0.0559 0.1250114,0.12578"
       style="fill:#74caf2;fill-opacity:1;fill-rule:nonzero;stroke:none;stroke-width:0.0174694"
       id="path394" />
    <path
       d="m 89.959634,44.299173 c 0,0.103594 -0.08385,0.187447 -0.187446,0.187447 -0.10359,0 -0.187447,-0.08385 -0.187447,-0.187447 0,-0.103595 0.08386,-0.187448 0.187447,-0.187448 0.103595,0 0.187446,0.08385 0.187446,0.187448"
       style="fill:#e5faf2;fill-opacity:1;fill-rule:nonzero;stroke:none;stroke-width:0.0174694"
       id="path396" />
    <path
       d="m 19.702652,68.051485 c 0,0.10359 -0.08403,0.18762 -0.187446,0.18762 -0.103594,0 -0.187622,-0.08403 -0.187622,-0.18762 0,-0.103422 0.08403,-0.187447 0.187622,-0.187447 0.103419,0 0.187446,0.08403 0.187446,0.187447"
       style="fill:#74caf2;fill-opacity:1;fill-rule:nonzero;stroke:none;stroke-width:0.0174694"
       id="path398" />
    <path
       d="m 2.0758042,76.302468 c 0,0.103422 -0.083923,0.187447 -0.1875169,0.187447 -0.1035239,0 -0.187447,-0.08402 -0.187447,-0.187447 0,-0.10359 0.083923,-0.18762 0.187447,-0.18762 0.1035936,0 0.1875169,0.08403 0.1875169,0.18762"
       style="fill:#fbf5a3;fill-opacity:1;fill-rule:nonzero;stroke:none;stroke-width:0.0174694"
       id="path400" />
    <path
       d="m 94.39757,12.358589 c 0,0.103419 -0.08403,0.187447 -0.187446,0.187447 -0.103595,0 -0.187625,-0.08403 -0.187625,-0.187447 0,-0.103594 0.08403,-0.187622 0.187625,-0.187622 0.103417,0 0.187446,0.08403 0.187446,0.187622"
       style="fill:#fbf5a3;fill-opacity:1;fill-rule:nonzero;stroke:none;stroke-width:0.0174694"
       id="path402" />
    <path
       d="m 92.647308,88.865435 c 0,0.104818 -0.08386,0.18867 -0.187446,0.18867 -0.103422,0 -0.187447,-0.08385 -0.187447,-0.18867 0,-0.10307 0.08403,-0.186922 0.187447,-0.186922 0.10359,0 0.187446,0.08385 0.187446,0.186922"
       style="fill:#ee3782;fill-opacity:1;fill-rule:nonzero;stroke:none;stroke-width:0.0174694"
       id="path404" />
    <path
       d="m 96.210198,103.30567 c 0,0.10303 -0.08385,0.1869 -0.187447,0.1869 -0.103595,0 -0.187447,-0.0839 -0.187447,-0.1869 0,-0.10482 0.08385,-0.18869 0.187447,-0.18869 0.103595,0 0.187447,0.0839 0.187447,0.18869"
       style="fill:#74caf2;fill-opacity:1;fill-rule:nonzero;stroke:none;stroke-width:0.0174694"
       id="path406" />
    <path
       d="m 88.896968,106.86765 c 0,0.10312 -0.08385,0.18692 -0.187442,0.18692 -0.103595,0 -0.187452,-0.0838 -0.187452,-0.18692 0,-0.10304 0.08386,-0.18691 0.187452,-0.18691 0.10359,0 0.187442,0.0839 0.187442,0.18691"
       style="fill:#fbf5a3;fill-opacity:1;fill-rule:nonzero;stroke:none;stroke-width:0.0174694"
       id="path408" />
    <path
       d="m 52.955884,93.804044 c 0,0.10307 -0.08385,0.186922 -0.187447,0.186922 -0.10359,0 -0.187446,-0.08385 -0.187446,-0.186922 0,-0.10307 0.08386,-0.186922 0.187446,-0.186922 0.103596,0 0.187447,0.08385 0.187447,0.186922"
       style="fill:#ee3782;fill-opacity:1;fill-rule:nonzero;stroke:none;stroke-width:0.0174694"
       id="path410" />
    <path
       d="m 39.392099,106.86765 c 0,0.10312 -0.08403,0.18692 -0.187447,0.18692 -0.103594,0 -0.187621,-0.0838 -0.187621,-0.18692 0,-0.10304 0.08403,-0.18691 0.187621,-0.18691 0.103419,0 0.187447,0.0839 0.187447,0.18691"
       style="fill:#74caf2;fill-opacity:1;fill-rule:nonzero;stroke:none;stroke-width:0.0174694"
       id="path412" />
    <path
       d="m 20.577697,89.803545 c 0,0.10307 -0.08403,0.186922 -0.187623,0.186922 -0.103418,0 -0.187447,-0.08385 -0.187447,-0.186922 0,-0.10307 0.08403,-0.186922 0.187447,-0.186922 0.103595,0 0.187623,0.08385 0.187623,0.186922"
       style="fill:#fbf5a3;fill-opacity:1;fill-rule:nonzero;stroke:none;stroke-width:0.0174694"
       id="path414" />
    <path
       d="m 11.076737,97.554751 c 0,0.103031 -0.08394,0.186902 -0.187535,0.186902 -0.103507,0 -0.187447,-0.08387 -0.187447,-0.186902 0,-0.103124 0.08394,-0.186907 0.187447,-0.186907 0.103594,0 0.187535,0.08378 0.187535,0.186907"
       style="fill:#e5faf2;fill-opacity:1;fill-rule:nonzero;stroke:none;stroke-width:0.0174694"
       id="path416" />
    <path
       d="m 12.201803,65.051282 c 0,0.103596 -0.08385,0.187447 -0.187448,0.187447 -0.103593,0 -0.187446,-0.08385 -0.187446,-0.187447 0,-0.103595 0.08385,-0.187446 0.187446,-0.187446 0.103594,0 0.187448,0.08385 0.187448,0.187446"
       style="fill:#74caf2;fill-opacity:1;fill-rule:nonzero;stroke:none;stroke-width:0.0174694"
       id="path418" />
    <path
       d="m 6.3887797,66.738833 c 0,0.10359 -0.083941,0.18762 -0.1875165,0.18762 -0.1035243,0 -0.1874646,-0.08403 -0.1874646,-0.18762 0,-0.103422 0.08394,-0.187452 0.1874646,-0.187452 0.1035758,0 0.1875165,0.08403 0.1875165,0.187452"
       style="fill:#f39e0f;fill-opacity:1;fill-rule:nonzero;stroke:none;stroke-width:0.0174694"
       id="path420" />
    <path
       d="m 14.139512,39.236182 c 0,0.103594 -0.08385,0.187447 -0.187446,0.187447 -0.103594,0 -0.187448,-0.08385 -0.187448,-0.187447 0,-0.103593 0.08385,-0.187446 0.187448,-0.187446 0.103592,0 0.187446,0.08385 0.187446,0.187446"
       style="fill:#e5faf2;fill-opacity:1;fill-rule:nonzero;stroke:none;stroke-width:0.0174694"
       id="path422" />
    <path
       d="m 3.3259689,10.795774 c 0,0.103593 -0.08401,0.187621 -0.1875165,0.187621 -0.1035238,0 -0.1875344,-0.08403 -0.1875344,-0.187621 0,-0.10342 0.084011,-0.187448 0.1875344,-0.187448 0.103506,0 0.1875165,0.08403 0.1875165,0.187448"
       style="fill:#e5faf2;fill-opacity:1;fill-rule:nonzero;stroke:none;stroke-width:0.0174694"
       id="path424" />
    <path
       d="m 28.703602,11.795899 c 0,0.103593 -0.08403,0.187446 -0.187621,0.187446 -0.10342,0 -0.187448,-0.08385 -0.187448,-0.187446 0,-0.103594 0.08403,-0.187447 0.187448,-0.187447 0.103592,0 0.187621,0.08385 0.187621,0.187447"
       style="fill:#fbf5a3;fill-opacity:1;fill-rule:nonzero;stroke:none;stroke-width:0.0174694"
       id="path426" />
    <path
       d="m 93.960134,58.800719 c 0,0.103422 -0.08402,0.187447 -0.18762,0.187447 -0.103417,0 -0.187447,-0.08402 -0.187447,-0.187447 0,-0.10359 0.08403,-0.18762 0.187447,-0.18762 0.103595,0 0.18762,0.08403 0.18762,0.18762"
       style="fill:#ee3782;fill-opacity:1;fill-rule:nonzero;stroke:none;stroke-width:0.0174694"
       id="path428" />
    <path
       d="m 81.958809,28.547686 c 0,0.103418 -0.08385,0.187447 -0.187446,0.187447 -0.103596,0 -0.187447,-0.08403 -0.187447,-0.187447 0,-0.103595 0.08385,-0.187622 0.187447,-0.187622 0.103595,0 0.187446,0.08403 0.187446,0.187622"
       style="fill:#74caf2;fill-opacity:1;fill-rule:nonzero;stroke:none;stroke-width:0.0174694"
       id="path430" />
    <path
       d="m 96.085289,18.546611 c 0,0.103593 -0.08402,0.187447 -0.18762,0.187447 -0.103417,0 -0.187447,-0.08385 -0.187447,-0.187447 0,-0.103594 0.08403,-0.187447 0.187447,-0.187447 0.103595,0 0.18762,0.08385 0.18762,0.187447"
       style="fill:#e5faf2;fill-opacity:1;fill-rule:nonzero;stroke:none;stroke-width:0.0174694"
       id="path432" />
    <path
       d="m 29.078496,29.047661 c 0,0.103594 -0.08385,0.187447 -0.187447,0.187447 -0.103594,0 -0.187447,-0.08385 -0.187447,-0.187447 0,-0.103594 0.08385,-0.187448 0.187447,-0.187448 0.103594,0 0.187447,0.08385 0.187447,0.187448"
       style="fill:#ee3782;fill-opacity:1;fill-rule:nonzero;stroke:none;stroke-width:0.0174694"
       id="path434" />
    <path
       d="m 19.890099,48.612201 c 0,0.103419 -0.08385,0.187446 -0.187447,0.187446 -0.103593,0 -0.187446,-0.08403 -0.187446,-0.187446 0,-0.103594 0.08385,-0.187622 0.187446,-0.187622 0.103594,0 0.187447,0.08403 0.187447,0.187622"
       style="fill:#e5faf2;fill-opacity:1;fill-rule:nonzero;stroke:none;stroke-width:0.0174694"
       id="path436" />
    <path
       d="m 43.204976,84.803794 c 0,0.10307 -0.08403,0.186921 -0.187446,0.186921 -0.103594,0 -0.187622,-0.08385 -0.187622,-0.186921 0,-0.104819 0.08403,-0.18867 0.187622,-0.18867 0.103419,0 0.187446,0.08385 0.187446,0.18867"
       style="fill:#f39e0f;fill-opacity:1;fill-rule:nonzero;stroke:none;stroke-width:0.0174694"
       id="path438" />
    <path
       d="m 45.58012,97.055088 c 0,0.103051 -0.08385,0.186907 -0.187446,0.186907 -0.103594,0 -0.187448,-0.08386 -0.187448,-0.186907 0,-0.104818 0.08385,-0.188685 0.187448,-0.188685 0.103593,0 0.187446,0.08387 0.187446,0.188685"
       style="fill:#e5faf2;fill-opacity:1;fill-rule:nonzero;stroke:none;stroke-width:0.0174694"
       id="path440" />
    <path
       d="m 45.58012,49.799773 c 0,0.103593 -0.08385,0.187446 -0.187446,0.187446 -0.103594,0 -0.187448,-0.08385 -0.187448,-0.187446 0,-0.103594 0.08385,-0.187448 0.187448,-0.187448 0.103593,0 0.187446,0.08385 0.187446,0.187448"
       style="fill:#e5faf2;fill-opacity:1;fill-rule:nonzero;stroke:none;stroke-width:0.0174694"
       id="path442" />
    <path
       d="m 6.6675397,27.012473 c 0,0.103418 -0.083993,0.187445 -0.187517,0.187445 -0.1035238,0 -0.1874646,-0.08403 -0.1874646,-0.187445 0,-0.103595 0.083941,-0.187623 0.1874646,-0.187623 0.1035237,0 0.187517,0.08403 0.187517,0.187623"
       style="fill:#74caf2;fill-opacity:1;fill-rule:nonzero;stroke:none;stroke-width:0.0174694"
       id="path444" />
    <path
       d="m 58.581391,36.298348 c 0,0.103593 -0.08385,0.187446 -0.187447,0.187446 -0.10359,0 -0.187447,-0.08385 -0.187447,-0.187446 0,-0.103594 0.08386,-0.187447 0.187447,-0.187447 0.103595,0 0.187447,0.08385 0.187447,0.187447"
       style="fill:#ee3782;fill-opacity:1;fill-rule:nonzero;stroke:none;stroke-width:0.0174694"
       id="path446" />
    <path
       d="m 65.394645,11.233383 c 0,0.103593 -0.08385,0.187447 -0.187446,0.187447 -0.103595,0 -0.187447,-0.08385 -0.187447,-0.187447 0,-0.103594 0.08385,-0.187447 0.187447,-0.187447 0.103595,0 0.187446,0.08385 0.187446,0.187447"
       style="fill:#ee3782;fill-opacity:1;fill-rule:nonzero;stroke:none;stroke-width:0.0174694"
       id="path448" />
    <path
       d="m 54.58107,19.546736 c 0,0.103593 -0.08403,0.187447 -0.187447,0.187447 -0.103595,0 -0.187625,-0.08385 -0.187625,-0.187447 0,-0.103594 0.08403,-0.187447 0.187625,-0.187447 0.103417,0 0.187447,0.08385 0.187447,0.187447"
       style="fill:#ee3782;fill-opacity:1;fill-rule:nonzero;stroke:none;stroke-width:0.0174694"
       id="path450" />
    <path
       d="m 38.641962,18.109177 c 0,0.103418 -0.08385,0.187446 -0.187448,0.187446 -0.103593,0 -0.187446,-0.08403 -0.187446,-0.187446 0,-0.103595 0.08385,-0.187623 0.187446,-0.187623 0.103594,0 0.187448,0.08403 0.187448,0.187623"
       style="fill:#e5faf2;fill-opacity:1;fill-rule:nonzero;stroke:none;stroke-width:0.0174694"
       id="path452" />
    <path
       d="m 12.576872,31.547886 c 0,0.103593 -0.08403,0.187446 -0.187447,0.187446 -0.103595,0 -0.187622,-0.08385 -0.187622,-0.187446 0,-0.103594 0.08403,-0.187447 0.187622,-0.187447 0.103418,0 0.187447,0.08385 0.187447,0.187447"
       style="fill:#f39e0f;fill-opacity:1;fill-rule:nonzero;stroke:none;stroke-width:0.0174694"
       id="path454" />
    <path
       d="m 71.95791,49.049635 c 0,0.103594 -0.08402,0.187447 -0.18762,0.187447 -0.103422,0 -0.187447,-0.08385 -0.187447,-0.187447 0,-0.103593 0.08402,-0.187446 0.187447,-0.187446 0.103595,0 0.18762,0.08385 0.18762,0.187446"
       style="fill:#fbf5a3;fill-opacity:1;fill-rule:nonzero;stroke:none;stroke-width:0.0174694"
       id="path456" />
    <path
       d="m 75.145559,104.36783 c 0,0.10303 -0.08386,0.1869 -0.187446,0.1869 -0.103596,0 -0.187447,-0.0839 -0.187447,-0.1869 0,-0.10313 0.08385,-0.18691 0.187447,-0.18691 0.10359,0 0.187446,0.0838 0.187446,0.18691"
       style="fill:#fbf5a3;fill-opacity:1;fill-rule:nonzero;stroke:none;stroke-width:0.0174694"
       id="path458" />
    <path
       d="m 89.459659,99.804761 c 0,0.103105 -0.08402,0.186976 -0.18762,0.186976 -0.103417,0 -0.187446,-0.08387 -0.187446,-0.186976 0,-0.103056 0.08403,-0.186922 0.187446,-0.186922 0.103595,0 0.18762,0.08387 0.18762,0.186922"
       style="fill:#f39e0f;fill-opacity:1;fill-rule:nonzero;stroke:none;stroke-width:0.0174694"
       id="path460" />
    <path
       d="m 71.395218,13.108552 c 0,0.103593 -0.08385,0.187446 -0.187446,0.187446 -0.10359,0 -0.187447,-0.08385 -0.187447,-0.187446 0,-0.103594 0.08386,-0.187448 0.187447,-0.187448 0.103595,0 0.187446,0.08385 0.187446,0.187448"
       style="fill:#f39e0f;fill-opacity:1;fill-rule:nonzero;stroke:none;stroke-width:0.0174694"
       id="path462" />
    <path
       d="m 77.645955,35.860913 c 0,0.103419 -0.08402,0.187448 -0.18762,0.187448 -0.103417,0 -0.187447,-0.08403 -0.187447,-0.187448 0,-0.103594 0.08403,-0.187621 0.187447,-0.187621 0.103595,0 0.18762,0.08403 0.18762,0.187621"
       style="fill:#f39e0f;fill-opacity:1;fill-rule:nonzero;stroke:none;stroke-width:0.0174694"
       id="path464" />
    <path
       d="m 14.202053,83.30317 c 0,0.10307 -0.08385,0.186922 -0.187448,0.186922 -0.103594,0 -0.187447,-0.08385 -0.187447,-0.186922 0,-0.10307 0.08385,-0.186922 0.187447,-0.186922 0.103595,0 0.187448,0.08385 0.187448,0.186922"
       style="fill:#fbf5a3;fill-opacity:1;fill-rule:nonzero;stroke:none;stroke-width:0.0174694"
       id="path466" />
    <path
       d="m 22.452865,79.302671 c 0,0.10307 -0.08385,0.186922 -0.187447,0.186922 -0.103593,0 -0.187447,-0.08385 -0.187447,-0.186922 0,-0.103071 0.08385,-0.186922 0.187447,-0.186922 0.103594,0 0.187447,0.08385 0.187447,0.186922"
       style="fill:#e5faf2;fill-opacity:1;fill-rule:nonzero;stroke:none;stroke-width:0.0174694"
       id="path468" />
    <path
       d="m 10.667288,72.447666 c 0,0.103595 -0.08394,0.187447 -0.187447,0.187447 -0.103524,0 -0.187534,-0.08385 -0.187534,-0.187447 0,-0.103595 0.08401,-0.187447 0.187534,-0.187447 0.103506,0 0.187447,0.08385 0.187447,0.187447"
       style="fill:#fbf5a3;fill-opacity:1;fill-rule:nonzero;stroke:none;stroke-width:0.0174694"
       id="path470" />
    <path
       d="m -0.86199515,90.116247 c 0,0.10307 -0.0839231,0.186921 -0.18744695,0.186921 -0.1035937,0 -0.1875169,-0.08385 -0.1875169,-0.186921 0,-0.103071 0.083923,-0.186922 0.1875169,-0.186922 0.10352383,0 0.18744695,0.08385 0.18744695,0.186922"
       style="fill:#74caf2;fill-opacity:1;fill-rule:nonzero;stroke:none;stroke-width:0.0174694"
       id="path472" />
    <path
       d="m 7.70145,50.299748 c 0,0.103593 -0.08401,0.187446 -0.1875338,0.187446 -0.1035065,0 -0.1874473,-0.08385 -0.1874473,-0.187446 0,-0.103594 0.083941,-0.187448 0.1874473,-0.187448 0.1035237,0 0.1875338,0.08385 0.1875338,0.187448"
       style="fill:#74caf2;fill-opacity:1;fill-rule:nonzero;stroke:none;stroke-width:0.0174694"
       id="path474" />
    <path
       d="m 40.079521,45.799272 c 0,0.103594 -0.08385,0.187622 -0.187447,0.187622 -0.103593,0 -0.187447,-0.08403 -0.187447,-0.187622 0,-0.103419 0.08385,-0.187446 0.187447,-0.187446 0.103594,0 0.187447,0.08403 0.187447,0.187446"
       style="fill:#e5faf2;fill-opacity:1;fill-rule:nonzero;stroke:none;stroke-width:0.0174694"
       id="path476" />
    <path
       d="m 65.394645,47.111926 c 0,0.103594 -0.08385,0.187621 -0.187446,0.187621 -0.103595,0 -0.187447,-0.08403 -0.187447,-0.187621 0,-0.103419 0.08385,-0.187447 0.187447,-0.187447 0.103595,0 0.187446,0.08403 0.187446,0.187447"
       style="fill:#f39e0f;fill-opacity:1;fill-rule:nonzero;stroke:none;stroke-width:0.0174694"
       id="path478" />
    <path
       d="m 64.45706,33.047986 c 0,0.103594 -0.08385,0.187622 -0.187447,0.187622 -0.103595,0 -0.187446,-0.08403 -0.187446,-0.187622 0,-0.103419 0.08385,-0.187448 0.187446,-0.187448 0.103596,0 0.187447,0.08403 0.187447,0.187448"
       style="fill:#74caf2;fill-opacity:1;fill-rule:nonzero;stroke:none;stroke-width:0.0174694"
       id="path480" />
    <path
       d="m 46.955314,34.798249 c 0,0.103592 -0.08385,0.187445 -0.187447,0.187445 -0.103594,0 -0.187447,-0.08385 -0.187447,-0.187445 0,-0.103594 0.08385,-0.187448 0.187447,-0.187448 0.103595,0 0.187447,0.08385 0.187447,0.187448"
       style="fill:#ee3782;fill-opacity:1;fill-rule:nonzero;stroke:none;stroke-width:0.0174694"
       id="path482" />
    <path
       d="m 36.079196,36.298348 c 0,0.103593 -0.08385,0.187446 -0.187447,0.187446 -0.103593,0 -0.187447,-0.08385 -0.187447,-0.187446 0,-0.103594 0.08385,-0.187447 0.187447,-0.187447 0.103594,0 0.187447,0.08385 0.187447,0.187447"
       style="fill:#ee3782;fill-opacity:1;fill-rule:nonzero;stroke:none;stroke-width:0.0174694"
       id="path484" />
    <path
       d="m 25.578146,22.797098 c 0,0.103419 -0.08385,0.187447 -0.187447,0.187447 -0.103593,0 -0.187446,-0.08403 -0.187446,-0.187447 0,-0.103593 0.08385,-0.187622 0.187446,-0.187622 0.103594,0 0.187447,0.08403 0.187447,0.187622"
       style="fill:#fbf5a3;fill-opacity:1;fill-rule:nonzero;stroke:none;stroke-width:0.0174694"
       id="path486" />
    <path
       d="m 23.890599,12.358589 c 0,0.103419 -0.08403,0.187447 -0.187622,0.187447 -0.103418,0 -0.187447,-0.08403 -0.187447,-0.187447 0,-0.103594 0.08403,-0.187622 0.187447,-0.187622 0.103594,0 0.187622,0.08403 0.187622,0.187622"
       style="fill:#fbf5a3;fill-opacity:1;fill-rule:nonzero;stroke:none;stroke-width:0.0174694"
       id="path488" />
    <path
       d="m 14.854536,19.95028 c 0,0.138008 -0.111805,0.249987 -0.249987,0.249987 -0.138009,0 -0.249988,-0.111979 -0.249988,-0.249987 0,-0.138009 0.111979,-0.249988 0.249988,-0.249988 0.138182,0 0.249987,0.111979 0.249987,0.249988"
       style="fill:#74caf2;fill-opacity:1;fill-rule:nonzero;stroke:none;stroke-width:0.0174694"
       id="path490" />
    <path
       d="m 11.854686,37.574315 c 0,-0.345021 0.27986,-0.624882 0.625055,-0.624882 0.345197,0 0.624883,0.279861 0.624883,0.624882 0,0.345196 -0.279686,0.625056 -0.624883,0.625056 -0.345195,0 -0.625055,-0.27986 -0.625055,-0.625056"
       style="fill:#74caf2;fill-opacity:1;fill-rule:nonzero;stroke:none;stroke-width:0.0174694"
       id="path492" />
    <path
       d="m -0.51962918,52.073593 c 0,0.138184 -0.11190916,0.249988 -0.24997018,0.249988 -0.13811326,0 -0.25002234,-0.111804 -0.25002234,-0.249988 0,-0.138008 0.11190908,-0.249987 0.25002234,-0.249987 0.13806102,0 0.24997018,0.111979 0.24997018,0.249987"
       style="fill:#f39e0f;fill-opacity:1;fill-rule:nonzero;stroke:none;stroke-width:0.0174694"
       id="path494" />
    <path
       d="m -1.9462528,63.448114 c 0,0.207011 -0.1678638,0.374893 -0.3749814,0.374893 -0.2071,0 -0.3749813,-0.167882 -0.3749813,-0.374893 0,-0.207191 0.1678813,-0.375067 0.3749813,-0.375067 0.2071176,0 0.3749814,0.167876 0.3749814,0.375067"
       style="fill:#74caf2;fill-opacity:1;fill-rule:nonzero;stroke:none;stroke-width:0.0174694"
       id="path496" />
    <path
       d="m 0.73032602,58.448362 c 0,0.345197 -0.27986029,0.624884 -0.62500387,0.624884 -0.34516091,0 -0.62495133,-0.279687 -0.62495133,-0.624884 0,-0.345196 0.27979042,-0.625057 0.62495133,-0.625057 0.34514358,0 0.62500387,0.279861 0.62500387,0.625057"
       style="fill:#74caf2;fill-opacity:1;fill-rule:nonzero;stroke:none;stroke-width:0.0174694"
       id="path498" />
    <path
       d="m 9.4798561,62.010726 c 0,0.241607 -0.1958502,0.437437 -0.4374873,0.437437 -0.2415846,0 -0.4374343,-0.19583 -0.4374343,-0.437437 0,-0.241601 0.1958497,-0.437605 0.4374343,-0.437605 0.2416371,0 0.4374873,0.196004 0.4374873,0.437605"
       style="fill:#74caf2;fill-opacity:1;fill-rule:nonzero;stroke:none;stroke-width:0.0174694"
       id="path500" />
    <path
       d="m 13.229704,10.325671 c 0,0.241603 -0.195832,0.437609 -0.437434,0.437609 -0.241602,0 -0.437609,-0.196006 -0.437609,-0.437609 0,-0.241602 0.196007,-0.4374345 0.437609,-0.4374345 0.241602,0 0.437434,0.1958325 0.437434,0.4374345"
       style="fill:#e5faf2;fill-opacity:1;fill-rule:nonzero;stroke:none;stroke-width:0.0174694"
       id="path502" />
    <path
       d="m 13.241583,78.759371 c -1.023708,0.16596 -1.158223,0.300475 -1.324357,1.32418 -0.16596,-1.023705 -0.30065,-1.15822 -1.324323,-1.32418 1.023673,-0.16596 1.158363,-0.300475 1.324323,-1.323834 0.166134,1.023359 0.300649,1.157874 1.324357,1.323834"
       style="fill:#74caf2;fill-opacity:1;fill-rule:nonzero;stroke:none;stroke-width:0.0174694"
       id="path504" />
    <path
       d="m 14.854536,78.072821 c 0,0.138011 -0.111805,0.249811 -0.249987,0.249811 -0.138009,0 -0.249988,-0.1118 -0.249988,-0.249811 0,-0.138007 0.111979,-0.249812 0.249988,-0.249812 0.138182,0 0.249987,0.111805 0.249987,0.249812"
       style="fill:#f39e0f;fill-opacity:1;fill-rule:nonzero;stroke:none;stroke-width:0.0174694"
       id="path506" />
    <path
       d="m 26.891498,85.446668 c -1.574869,0.255055 -1.782056,0.462939 -2.03746,2.036936 -0.255403,-1.573997 -0.462416,-1.781881 -2.037285,-2.036936 1.574869,-0.255051 1.781882,-0.46294 2.037285,-2.036937 0.255404,1.573997 0.462591,1.781886 2.03746,2.036937"
       style="fill:#fbf5a3;fill-opacity:1;fill-rule:nonzero;stroke:none;stroke-width:0.0174694"
       id="path508" />
    <path
       d="m 42.353167,71.197726 c 0,0.345196 -0.279686,0.624883 -0.624881,0.624883 -0.345197,0 -0.625057,-0.279687 -0.625057,-0.624883 0,-0.345192 0.27986,-0.625052 0.625057,-0.625052 0.345195,0 0.624881,0.27986 0.624881,0.625052"
       style="fill:#fbf5a3;fill-opacity:1;fill-rule:nonzero;stroke:none;stroke-width:0.0174694"
       id="path510" />
    <path
       d="m 58.977424,56.01103 c 0,0.172596 -0.139928,0.31235 -0.312528,0.31235 -0.172596,0 -0.312529,-0.139754 -0.312529,-0.31235 0,-0.172601 0.139933,-0.312528 0.312529,-0.312528 0.1726,0 0.312528,0.139927 0.312528,0.312528"
       style="fill:#e5faf2;fill-opacity:1;fill-rule:nonzero;stroke:none;stroke-width:0.0174694"
       id="path512" />
    <path
       d="m 63.4772,43.574016 c 0,0.276192 -0.223957,0.499975 -0.499975,0.499975 -0.276191,0 -0.499975,-0.223783 -0.499975,-0.499975 0,-0.276016 0.223784,-0.499975 0.499975,-0.499975 0.276018,0 0.499975,0.223959 0.499975,0.499975"
       style="fill:#74caf2;fill-opacity:1;fill-rule:nonzero;stroke:none;stroke-width:0.0174694"
       id="path514" />
    <path
       d="m 44.137145,45.23239 c 0,0.276192 -0.223957,0.499975 -0.499975,0.499975 -0.276192,0 -0.499975,-0.223783 -0.499975,-0.499975 0,-0.276017 0.223783,-0.499975 0.499975,-0.499975 0.276018,0 0.499975,0.223958 0.499975,0.499975"
       style="fill:#fbf5a3;fill-opacity:1;fill-rule:nonzero;stroke:none;stroke-width:0.0174694"
       id="path516" />
    <path
       d="m 51.602705,31.324627 c 0,0.4142 -0.335763,0.749962 -0.749965,0.749962 -0.414197,0 -0.74996,-0.335762 -0.74996,-0.749962 0,-0.414202 0.335763,-0.749963 0.74996,-0.749963 0.414202,0 0.749965,0.335761 0.749965,0.749963"
       style="fill:#f39e0f;fill-opacity:1;fill-rule:nonzero;stroke:none;stroke-width:0.0174694"
       id="path518" />
    <path
       d="m 71.903057,19.700292 c -1.102495,0.178712 -1.247494,0.323709 -1.426205,1.426204 -0.178885,-1.102495 -0.32371,-1.247492 -1.426206,-1.426204 1.102496,-0.178887 1.247321,-0.323709 1.426206,-1.426204 0.178711,1.102495 0.32371,1.247317 1.426205,1.426204"
       style="fill:#74caf2;fill-opacity:1;fill-rule:nonzero;stroke:none;stroke-width:0.0174694"
       id="path520" />
    <path
       d="m 47.897266,23.762634 c -1.338683,0.216971 -1.5146,0.393062 -1.731745,1.731744 -0.217145,-1.338682 -0.393062,-1.514773 -1.731744,-1.731744 1.338682,-0.217146 1.514599,-0.393238 1.731744,-1.73192 0.217145,1.338682 0.393062,1.514774 1.731745,1.73192"
       style="fill:#74caf2;fill-opacity:1;fill-rule:nonzero;stroke:none;stroke-width:0.0174694"
       id="path522" />
    <path
       d="m 67.101934,30.199769 c 0,0.276192 -0.223784,0.499975 -0.499975,0.499975 -0.276017,0 -0.499975,-0.223783 -0.499975,-0.499975 0,-0.276191 0.223958,-0.499975 0.499975,-0.499975 0.276191,0 0.499975,0.223784 0.499975,0.499975"
       style="fill:#fbf5a3;fill-opacity:1;fill-rule:nonzero;stroke:none;stroke-width:0.0174694"
       id="path524" />
    <path
       d="m 63.352118,43.324029 c 0,0.207188 -0.167881,0.375068 -0.374893,0.375068 -0.207185,0 -0.375067,-0.16788 -0.375067,-0.375068 0,-0.207013 0.167882,-0.374894 0.375067,-0.374894 0.207012,0 0.374893,0.167881 0.374893,0.374894"
       style="fill:#e5faf2;fill-opacity:1;fill-rule:nonzero;stroke:none;stroke-width:0.0174694"
       id="path526" />
    <path
       d="m 81.726295,45.636458 c 0,0.310606 -0.251912,0.562515 -0.562519,0.562515 -0.310607,0 -0.562513,-0.251909 -0.562513,-0.562515 0,-0.310607 0.251906,-0.562516 0.562513,-0.562516 0.310607,0 0.562519,0.251909 0.562519,0.562516"
       style="fill:#e5faf2;fill-opacity:1;fill-rule:nonzero;stroke:none;stroke-width:0.0174694"
       id="path528" />
    <path
       d="m 83.601114,67.447915 c 0,0.345196 -0.279687,0.624883 -0.624884,0.624883 -0.345196,0 -0.625057,-0.279687 -0.625057,-0.624883 0,-0.345197 0.279861,-0.625057 0.625057,-0.625057 0.345197,0 0.624884,0.27986 0.624884,0.625057"
       style="fill:#ee3782;fill-opacity:1;fill-rule:nonzero;stroke:none;stroke-width:0.0174694"
       id="path530" />
    <path
       d="m 65.977076,81.322136 c 0,0.414024 -0.335763,0.749441 -0.749961,0.749441 -0.414202,0 -0.749965,-0.335417 -0.749965,-0.749441 0,-0.414023 0.335763,-0.74944 0.749965,-0.74944 0.414198,0 0.749961,0.335417 0.749961,0.74944"
       style="fill:#e5faf2;fill-opacity:1;fill-rule:nonzero;stroke:none;stroke-width:0.0174694"
       id="path532" />
    <path
       d="m 25.729082,101.32111 c 0,0.20793 -0.167881,0.37559 -0.375069,0.37559 -0.207013,0 -0.374894,-0.16766 -0.374894,-0.37559 0,-0.20786 0.167881,-0.37559 0.374894,-0.37559 0.207188,0 0.375069,0.16773 0.375069,0.37559"
       style="fill:#ee3782;fill-opacity:1;fill-rule:nonzero;stroke:none;stroke-width:0.0174694"
       id="path534" />
    <path
       d="m 24.453114,31.422979 c 0,0.483204 -0.391839,0.875044 -0.875043,0.875044 -0.483378,0 -0.875218,-0.39184 -0.875218,-0.875044 0,-0.483379 0.39184,-0.875219 0.875218,-0.875219 0.483204,0 0.875043,0.39184 0.875043,0.875219"
       style="fill:#ee3782;fill-opacity:1;fill-rule:nonzero;stroke:none;stroke-width:0.0174694"
       id="path536" />
    <path
       d="m 26.303827,44.732415 c 0,0.276192 -0.223959,0.499975 -0.500151,0.499975 -0.276192,0 -0.499975,-0.223783 -0.499975,-0.499975 0,-0.276192 0.223783,-0.499975 0.499975,-0.499975 0.276192,0 0.500151,0.223783 0.500151,0.499975"
       style="fill:#fbf5a3;fill-opacity:1;fill-rule:nonzero;stroke:none;stroke-width:0.0174694"
       id="path538" />
    <path
       d="m 18.202552,29.797798 c 0,0.138009 -0.111979,0.249987 -0.250161,0.249987 -0.13801,0 -0.249988,-0.111978 -0.249988,-0.249987 0,-0.138183 0.111978,-0.250162 0.249988,-0.250162 0.138182,0 0.250161,0.111979 0.250161,0.250162"
       style="fill:#fbf5a3;fill-opacity:1;fill-rule:nonzero;stroke:none;stroke-width:0.0174694"
       id="path540" />
    <path
       d="m 50.178248,54.550235 c -0.945097,0.153204 -1.069481,0.277414 -1.222685,1.222511 -0.153209,-0.945097 -0.277592,-1.069307 -1.222687,-1.222511 0.945095,-0.153382 1.069478,-0.277592 1.222687,-1.222686 0.153204,0.945094 0.277588,1.069304 1.222685,1.222686"
       style="fill:#ffda47;fill-opacity:1;fill-rule:nonzero;stroke:none;stroke-width:0.0174694"
       id="path542" />
    <path
       d="m 24.754462,59.675766 c -1.10267,0.178712 -1.247666,0.323705 -1.426553,1.426379 -0.178712,-1.102674 -0.323709,-1.247667 -1.426379,-1.426379 1.10267,-0.17889 1.247667,-0.323883 1.426379,-1.426379 0.178887,1.102496 0.323883,1.247489 1.426553,1.426379"
       style="fill:#ffda47;fill-opacity:1;fill-rule:nonzero;stroke:none;stroke-width:0.0174694"
       id="path544" />
    <path
       d="m 56.27892,79.947293 c -1.102496,0.178186 -1.247489,0.323185 -1.426379,1.425502 -0.178711,-1.102317 -0.323705,-1.247316 -1.426379,-1.425502 1.102674,-0.178192 1.247668,-0.323185 1.426379,-1.427256 0.17889,1.104071 0.323883,1.249064 1.426379,1.427256"
       style="fill:#f39e0f;fill-opacity:1;fill-rule:nonzero;stroke:none;stroke-width:0.0174694"
       id="path546" />
    <path
       d="m 90.40231,28.199868 c -1.102668,0.178889 -1.247667,0.32371 -1.426378,1.42638 -0.178885,-1.10267 -0.323884,-1.247491 -1.426379,-1.42638 1.102495,-0.178886 1.247494,-0.323707 1.426379,-1.426377 0.178711,1.10267 0.32371,1.247491 1.426378,1.426377"
       style="fill:#e5faf2;fill-opacity:1;fill-rule:nonzero;stroke:none;stroke-width:0.0174694"
       id="path548" />
    <path
       d="m 33.454064,52.925054 c 0,0.345195 -0.27986,0.625055 -0.625056,0.625055 -0.345371,0 -0.625056,-0.27986 -0.625056,-0.625055 0,-0.345196 0.279685,-0.625057 0.625056,-0.625057 0.345196,0 0.625056,0.279861 0.625056,0.625057"
       style="fill:#74caf2;fill-opacity:1;fill-rule:nonzero;stroke:none;stroke-width:0.0174694"
       id="path550" />
    <path
       d="m 35.204152,63.801169 c 0,0.138011 -0.111979,0.24999 -0.249988,0.24999 -0.138182,0 -0.249988,-0.111979 -0.249988,-0.24999 0,-0.13818 0.111806,-0.249985 0.249988,-0.249985 0.138009,0 0.249988,0.111805 0.249988,0.249985"
       style="fill:#e5faf2;fill-opacity:1;fill-rule:nonzero;stroke:none;stroke-width:0.0174694"
       id="path552" />
    <path
       d="m 50.705647,89.054105 c 0,0.414028 -0.335758,0.74944 -0.74996,0.74944 -0.414376,0 -0.750139,-0.335412 -0.750139,-0.74944 0,-0.414024 0.335763,-0.751184 0.750139,-0.751184 0.414202,0 0.74996,0.33716 0.74996,0.751184"
       style="fill:#74caf2;fill-opacity:1;fill-rule:nonzero;stroke:none;stroke-width:0.0174694"
       id="path554" />
    <path
       d="m 9.9516526,94.429448 c 0,0.344151 -0.2798425,0.625408 -0.6250737,0.625408 -0.3452307,0 -0.6250736,-0.281257 -0.6250736,-0.625408 0,-0.345895 0.2798429,-0.625404 0.6250736,-0.625404 0.3452312,0 0.6250737,0.279509 0.6250737,0.625404"
       style="fill:#f39e0f;fill-opacity:1;fill-rule:nonzero;stroke:none;stroke-width:0.0174694"
       id="path556" />
    <path
       d="m 2.2009028,86.052857 c 0,0.138012 -0.1119966,0.249812 -0.25004,0.249812 -0.1381134,0 -0.2500225,-0.1118 -0.2500225,-0.249812 0,-0.138006 0.1119091,-0.249811 0.2500225,-0.249811 0.1380434,0 0.25004,0.111805 0.25004,0.249811"
       style="fill:#f39e0f;fill-opacity:1;fill-rule:nonzero;stroke:none;stroke-width:0.0174694"
       id="path558" />
    <path
       d="m 0.45067539,72.551959 c 0,0.276191 -0.22381841,0.500149 -0.49999256,0.500149 -0.27624412,0 -0.50006253,-0.223958 -0.50006253,-0.500149 0,-0.276196 0.22381841,-0.499975 0.50006253,-0.499975 0.27617415,0 0.49999256,0.223779 0.49999256,0.499975"
       style="fill:#74caf2;fill-opacity:1;fill-rule:nonzero;stroke:none;stroke-width:0.0174694"
       id="path560" />
    <path
       d="m 2.950918,98.05432 c 0,0.276038 -0.2238184,0.499664 -0.5000628,0.499664 -0.2761566,0 -0.4999924,-0.223626 -0.4999924,-0.499664 0,-0.276012 0.2238358,-0.499569 0.4999924,-0.499569 0.2762444,0 0.5000628,0.223557 0.5000628,0.499569"
       style="fill:#fbf5a3;fill-opacity:1;fill-rule:nonzero;stroke:none;stroke-width:0.0174694"
       id="path562" />
    <path
       d="m 0.95073792,107.67998 c 0,0.4839 -0.39176959,0.87525 -0.8751137,0.87525 -0.48327432,0 -0.87504387,-0.39135 -0.87504387,-0.87525 0,-0.4821 0.39176955,-0.87517 0.87504387,-0.87517 0.48334411,0 0.8751137,0.39307 0.8751137,0.87517"
       style="fill:#74caf2;fill-opacity:1;fill-rule:nonzero;stroke:none;stroke-width:0.0174694"
       id="path564" />
    <path
       d="m 17.253612,104.43066 c -1.10267,0.17819 -1.247491,0.32319 -1.426378,1.42555 -0.178888,-1.10236 -0.323709,-1.24736 -1.426379,-1.42555 1.10267,-0.17986 1.247491,-0.32488 1.426379,-1.42723 0.178887,1.10235 0.323708,1.24737 1.426378,1.42723"
       style="fill:#e5faf2;fill-opacity:1;fill-rule:nonzero;stroke:none;stroke-width:0.0174694"
       id="path566" />
    <path
       d="m 8.951528,104.80456 c 0,0.13798 -0.1119095,0.25153 -0.2500227,0.25153 -0.1380608,0 -0.2500401,-0.11355 -0.2500401,-0.25153 0,-0.13806 0.1119793,-0.24983 0.2500401,-0.24983 0.1381132,0 0.2500227,0.11177 0.2500227,0.24983"
       style="fill:#e5faf2;fill-opacity:1;fill-rule:nonzero;stroke:none;stroke-width:0.0174694"
       id="path568" />
    <path
       d="m 32.470535,38.899196 c 0,0.276192 -0.223958,0.499975 -0.500149,0.499975 -0.276192,0 -0.499975,-0.223783 -0.499975,-0.499975 0,-0.276191 0.223783,-0.500149 0.499975,-0.500149 0.276191,0 0.500149,0.223958 0.500149,0.500149"
       style="fill:#f39e0f;fill-opacity:1;fill-rule:nonzero;stroke:none;stroke-width:0.0174694"
       id="path570" />
    <path
       d="m 32.6765,12.546036 c -0.945096,0.153207 -1.069478,0.277414 -1.222686,1.222511 -0.153206,-0.945097 -0.277588,-1.069304 -1.222685,-1.222511 0.945097,-0.153382 1.069479,-0.27759 1.222685,-1.222685 0.153208,0.945095 0.27759,1.069303 1.222686,1.222685"
       style="fill:#e5faf2;fill-opacity:1;fill-rule:nonzero;stroke:none;stroke-width:0.0174694"
       id="path572" />
    <path
       d="m 30.953665,19.046586 c 0,0.138183 -0.111804,0.250162 -0.249988,0.250162 -0.138008,0 -0.249987,-0.111979 -0.249987,-0.250162 0,-0.138008 0.111979,-0.249988 0.249987,-0.249988 0.138184,0 0.249988,0.11198 0.249988,0.249988"
       style="fill:#ee3782;fill-opacity:1;fill-rule:nonzero;stroke:none;stroke-width:0.0174694"
       id="path574" />
    <path
       d="m 40.704752,26.047286 c 0,0.276191 -0.223958,0.500149 -0.500149,0.500149 -0.276018,0 -0.499976,-0.223958 -0.499976,-0.500149 0,-0.276018 0.223958,-0.499975 0.499976,-0.499975 0.276191,0 0.500149,0.223957 0.500149,0.499975"
       style="fill:#fbf5a3;fill-opacity:1;fill-rule:nonzero;stroke:none;stroke-width:0.0174694"
       id="path576" />
    <path
       d="m 89.010873,15.171342 c -1.102674,0.178713 -1.247668,0.323709 -1.426379,1.426379 -0.17889,-1.10267 -0.323883,-1.247666 -1.426557,-1.426379 1.102674,-0.178887 1.247667,-0.323883 1.426557,-1.426379 0.178711,1.102496 0.323705,1.247492 1.426379,1.426379"
       style="fill:#e5faf2;fill-opacity:1;fill-rule:nonzero;stroke:none;stroke-width:0.0174694"
       id="path578" />
    <path
       d="m 80.458711,25.297323 c 0,0.276192 -0.223958,0.499975 -0.500149,0.499975 -0.276017,0 -0.499975,-0.223783 -0.499975,-0.499975 0,-0.276192 0.223958,-0.500149 0.499975,-0.500149 0.276191,0 0.500149,0.223957 0.500149,0.500149"
       style="fill:#fbf5a3;fill-opacity:1;fill-rule:nonzero;stroke:none;stroke-width:0.0174694"
       id="path580" />
    <path
       d="m 56.20625,11.670992 c 0,0.345196 -0.27986,0.625056 -0.625057,0.625056 -0.345196,0 -0.625057,-0.27986 -0.625057,-0.625056 0,-0.34537 0.279861,-0.625056 0.625057,-0.625056 0.345197,0 0.625057,0.279686 0.625057,0.625056"
       style="fill:#ee3782;fill-opacity:1;fill-rule:nonzero;stroke:none;stroke-width:0.0174694"
       id="path582" />
    <path
       d="m 60.206749,22.546936 c 0,0.138183 -0.111979,0.250162 -0.250163,0.250162 -0.138006,0 -0.249985,-0.111979 -0.249985,-0.250162 0,-0.138009 0.111979,-0.249988 0.249985,-0.249988 0.138184,0 0.250163,0.111979 0.250163,0.249988"
       style="fill:#ee3782;fill-opacity:1;fill-rule:nonzero;stroke:none;stroke-width:0.0174694"
       id="path584" />
    <path
       d="m 47.506651,15.171342 c -1.102673,0.178713 -1.247494,0.323709 -1.42638,1.426379 -0.178888,-1.10267 -0.323709,-1.247666 -1.42638,-1.426379 1.102671,-0.178887 1.247492,-0.323883 1.42638,-1.426379 0.178886,1.102496 0.323707,1.247492 1.42638,1.426379"
       style="fill:#fbf5a3;fill-opacity:1;fill-rule:nonzero;stroke:none;stroke-width:0.0174694"
       id="path586" />
    <path
       d="m 74.259336,36.923404 c -1.102674,0.178887 -1.247494,0.323883 -1.426379,1.426379 -0.17889,-1.102496 -0.323883,-1.247492 -1.426384,-1.426379 1.102501,-0.178713 1.247494,-0.323708 1.426384,-1.426379 0.178885,1.102671 0.323705,1.247666 1.426379,1.426379"
       style="fill:#74caf2;fill-opacity:1;fill-rule:nonzero;stroke:none;stroke-width:0.0174694"
       id="path588" />
    <path
       d="m 53.970512,39.732488 c 0,0.276192 -0.223957,0.499975 -0.500148,0.499975 -0.276196,0 -0.499975,-0.223783 -0.499975,-0.499975 0,-0.276191 0.223779,-0.500149 0.499975,-0.500149 0.276191,0 0.500148,0.223958 0.500148,0.500149"
       style="fill:#fbf5a3;fill-opacity:1;fill-rule:nonzero;stroke:none;stroke-width:0.0174694"
       id="path590" />
    <path
       d="m 74.416907,57.425529 c -1.417643,0.229895 -1.60404,0.416297 -1.83394,1.83394 -0.2299,-1.417643 -0.416297,-1.604045 -1.83394,-1.83394 1.417643,-0.2299 1.60404,-0.416297 1.83394,-1.83394 0.2299,1.417643 0.416297,1.60404 1.83394,1.83394"
       style="fill:#e5faf2;fill-opacity:1;fill-rule:nonzero;stroke:none;stroke-width:0.0174694"
       id="path592" />
    <path
       d="m 57.706349,68.176566 c 0,0.345197 -0.279861,0.625057 -0.625057,0.625057 -0.345197,0 -0.625057,-0.27986 -0.625057,-0.625057 0,-0.345196 0.27986,-0.625056 0.625057,-0.625056 0.345196,0 0.625057,0.27986 0.625057,0.625056"
       style="fill:#ee3782;fill-opacity:1;fill-rule:nonzero;stroke:none;stroke-width:0.0174694"
       id="path594" />
    <path
       d="m 86.469242,88.554481 c -2.520139,0.407037 -2.851534,0.738957 -3.260319,3.259794 -0.408612,-2.520837 -0.740007,-2.852757 -3.260319,-3.259794 2.520312,-0.408785 2.851707,-0.740705 3.260319,-3.261542 0.408785,2.520837 0.74018,2.852757 3.260319,3.261542"
       style="fill:#ee3782;fill-opacity:1;fill-rule:nonzero;stroke:none;stroke-width:0.0174694"
       id="path596" />
    <path
       d="m 65.207199,98.180175 c 0,0.344126 -0.279861,0.62364 -0.625057,0.62364 -0.345197,0 -0.625057,-0.279514 -0.625057,-0.62364 0,-0.345915 0.27986,-0.625424 0.625057,-0.625424 0.345196,0 0.625057,0.279509 0.625057,0.625424"
       style="fill:#fbf5a3;fill-opacity:1;fill-rule:nonzero;stroke:none;stroke-width:0.0174694"
       id="path598" />
    <path
       d="m 46.335324,104.05507 c -1.260244,0.20439 -1.425855,0.37042 -1.630247,1.62992 -0.204392,-1.2595 -0.370002,-1.42553 -1.630073,-1.62992 1.260071,-0.20437 1.425681,-0.37033 1.630073,-1.6299 0.204392,1.25957 0.370003,1.42553 1.630247,1.6299"
       style="fill:#e5faf2;fill-opacity:1;fill-rule:nonzero;stroke:none;stroke-width:0.0174694"
       id="path600" />
    <path
       d="m 37.45439,91.178389 c 0,0.345894 -0.279861,0.625403 -0.625057,0.625403 -0.345195,0 -0.625055,-0.279509 -0.625055,-0.625403 0,-0.344147 0.27986,-0.625404 0.625055,-0.625404 0.345196,0 0.625057,0.281257 0.625057,0.625404"
       style="fill:#e5faf2;fill-opacity:1;fill-rule:nonzero;stroke:none;stroke-width:0.0174694"
       id="path602" />
    <path
       d="m 86.348706,103.30567 c -1.654006,0.2673 -1.871327,0.48567 -2.13966,2.13822 -0.268153,-1.65255 -0.485649,-1.87092 -2.139481,-2.13822 1.653832,-0.26906 1.871328,-0.48567 2.139481,-2.14001 0.268333,1.65434 0.485654,1.87095 2.13966,2.14001"
       style="fill:#74caf2;fill-opacity:1;fill-rule:nonzero;stroke:none;stroke-width:0.0174694"
       id="path604" />
    <path
       d="m 94.460109,79.052859 c 0,0.276013 -0.223958,0.499623 -0.499975,0.499623 -0.276191,0 -0.500149,-0.22361 -0.500149,-0.499623 0,-0.276018 0.223958,-0.499629 0.500149,-0.499629 0.276017,0 0.499975,0.223611 0.499975,0.499629"
       style="fill:#74caf2;fill-opacity:1;fill-rule:nonzero;stroke:none;stroke-width:0.0174694"
       id="path606" />
    <path
       d="m 77.458335,76.052305 c 0,0.276196 -0.223784,0.500153 -0.499975,0.500153 -0.276191,0 -0.499975,-0.223957 -0.499975,-0.500153 0,-0.276191 0.223784,-0.499975 0.499975,-0.499975 0.276191,0 0.499975,0.223784 0.499975,0.499975"
       style="fill:#e5faf2;fill-opacity:1;fill-rule:nonzero;stroke:none;stroke-width:0.0174694"
       id="path608" />
    <path
       d="m 67.457436,68.9267 c 0,0.207012 -0.167882,0.375072 -0.375067,0.375072 -0.20719,0 -0.375072,-0.16806 -0.375072,-0.375072 0,-0.207185 0.167882,-0.375067 0.375072,-0.375067 0.207185,0 0.375067,0.167882 0.375067,0.375067"
       style="fill:#ffda47;fill-opacity:1;fill-rule:nonzero;stroke:none;stroke-width:0.0174694"
       id="path610" />
    <path
       d="m 48.45541,77.927827 c 0,0.344147 -0.279682,0.625403 -0.625054,0.625403 -0.345192,0 -0.625052,-0.281256 -0.625052,-0.625403 0,-0.345548 0.27986,-0.625408 0.625052,-0.625408 0.345372,0 0.625054,0.27986 0.625054,0.625408"
       style="fill:#fbf5a3;fill-opacity:1;fill-rule:nonzero;stroke:none;stroke-width:0.0174694"
       id="path612" />
    <path
       d="m 49.455538,66.426478 c 0,0.207012 -0.167881,0.374893 -0.374893,0.374893 -0.20719,0 -0.375072,-0.167881 -0.375072,-0.374893 0,-0.207191 0.167882,-0.375072 0.375072,-0.375072 0.207012,0 0.374893,0.167881 0.374893,0.375072"
       style="fill:#fbf5a3;fill-opacity:1;fill-rule:nonzero;stroke:none;stroke-width:0.0174694"
       id="path614" />
    <path
       d="m 27.953464,70.926774 c 0,0.20719 -0.167881,0.375072 -0.375068,0.375072 -0.207188,0 -0.375069,-0.167882 -0.375069,-0.375072 0,-0.207012 0.167881,-0.374894 0.375069,-0.374894 0.207187,0 0.375068,0.167882 0.375068,0.374894"
       style="fill:#f39e0f;fill-opacity:1;fill-rule:nonzero;stroke:none;stroke-width:0.0174694"
       id="path616" />
    <path
       d="m 59.956586,94.303668 c 0,0.207888 -0.167882,0.375596 -0.374894,0.375596 -0.207185,0 -0.375066,-0.167708 -0.375066,-0.375596 0,-0.206136 0.167881,-0.373844 0.375066,-0.373844 0.207012,0 0.374894,0.167708 0.374894,0.373844"
       style="fill:#f39e0f;fill-opacity:1;fill-rule:nonzero;stroke:none;stroke-width:0.0174694"
       id="path618" />
    <path
       d="m 94.58519,66.176314 c 0,0.207191 -0.168054,0.375067 -0.375066,0.375067 -0.20719,0 -0.375072,-0.167876 -0.375072,-0.375067 0,-0.207012 0.167882,-0.375066 0.375072,-0.375066 0.207012,0 0.375066,0.168054 0.375066,0.375066"
       style="fill:#e5faf2;fill-opacity:1;fill-rule:nonzero;stroke:none;stroke-width:0.0174694"
       id="path620" />
    <path
       d="m 10.451715,47.674441 c 0,0.207188 -0.167933,0.375069 -0.375033,0.375069 -0.207188,0 -0.3750517,-0.167881 -0.3750517,-0.375069 0,-0.207013 0.1678637,-0.374894 0.3750517,-0.374894 0.2071,0 0.375033,0.167881 0.375033,0.374894"
       style="fill:#e5faf2;fill-opacity:1;fill-rule:nonzero;stroke:none;stroke-width:0.0174694"
       id="path622" />
    <path
       d="m 74.708123,11.92098 c 0,0.345195 -0.279861,0.625056 -0.625057,0.625056 -0.345197,0 -0.625057,-0.279861 -0.625057,-0.625056 0,-0.345196 0.27986,-0.625056 0.625057,-0.625056 0.345196,0 0.625057,0.27986 0.625057,0.625056"
       style="fill:#e5faf2;fill-opacity:1;fill-rule:nonzero;stroke:none;stroke-width:0.0174694"
       id="path624" />
    <path
       d="m 82.458963,99.05534 c 0,0.344127 -0.279861,0.623641 -0.625057,0.623641 -0.345197,0 -0.625057,-0.279514 -0.625057,-0.623641 0,-0.345914 0.27986,-0.625423 0.625057,-0.625423 0.345196,0 0.625057,0.279509 0.625057,0.625423"
       style="fill:#e5faf2;fill-opacity:1;fill-rule:nonzero;stroke:none;stroke-width:0.0174694"
       id="path626" />
    <path
       d="m 12.970632,55.92543 c -0.787522,0.127702 -0.891115,0.231118 -1.018817,1.018817 -0.127702,-0.787699 -0.231295,-0.891115 -1.0188,-1.018817 0.787505,-0.127879 0.891098,-0.231296 1.0188,-1.018995 0.127702,0.787699 0.231295,0.891116 1.018817,1.018995"
       style="fill:#ee3782;fill-opacity:1;fill-rule:nonzero;stroke:none;stroke-width:0.0174694"
       id="path628" />
    <path
       d="m 1.5836029,47.174466 c 0,0.28056 -0.227382,0.507836 -0.5078538,0.507836 -0.2804542,0 -0.50783639,-0.227276 -0.50783639,-0.507836 0,-0.280559 0.22738219,-0.507836 0.50783639,-0.507836 0.2804718,0 0.5078538,0.227277 0.5078538,0.507836"
       style="fill:#fbf5a3;fill-opacity:1;fill-rule:nonzero;stroke:none;stroke-width:0.0174694"
       id="path630" />
    <path
       d="m 1.4508003,21.546985 c 0,0.280385 -0.227382,0.507837 -0.50783637,0.507837 -0.28054163,0 -0.50790624,-0.227452 -0.50790624,-0.507837 0,-0.280559 0.22736461,-0.50801 0.50790624,-0.50801 0.28045437,0 0.50783637,0.227451 0.50783637,0.50801"
       style="fill:#e5faf2;fill-opacity:1;fill-rule:nonzero;stroke:none;stroke-width:0.0174694"
       id="path632" />
    <path
       d="m 32.219499,78.051859 c 0,0.281257 -0.227452,0.508359 -0.507836,0.508359 -0.280559,0 -0.507836,-0.227102 -0.507836,-0.508359 0,-0.279514 0.227277,-0.507136 0.507836,-0.507136 0.280384,0 0.507836,0.227622 0.507836,0.507136"
       style="fill:#74caf2;fill-opacity:1;fill-rule:nonzero;stroke:none;stroke-width:0.0174694"
       id="path634" />
    <path
       d="m 29.969263,93.304421 c 0,0.279508 -0.227452,0.508358 -0.507837,0.508358 -0.28056,0 -0.507836,-0.22885 -0.507836,-0.508358 0,-0.281262 0.227276,-0.508364 0.507836,-0.508364 0.280385,0 0.507837,0.227102 0.507837,0.508364"
       style="fill:#74caf2;fill-opacity:1;fill-rule:nonzero;stroke:none;stroke-width:0.0174694"
       id="path636" />
    <path
       d="m 31.461675,107.30617 c 0,0.27951 -0.227452,0.50661 -0.50801,0.50661 -0.280384,0 -0.507837,-0.2271 -0.507837,-0.50661 0,-0.2813 0.227453,-0.5084 0.507837,-0.5084 0.280558,0 0.50801,0.2271 0.50801,0.5084"
       style="fill:#fbf5a3;fill-opacity:1;fill-rule:nonzero;stroke:none;stroke-width:0.0174694"
       id="path638" />
    <path
       d="m 75.708246,83.053358 c 0,0.279509 -0.227449,0.508359 -0.507834,0.508359 -0.280558,0 -0.507839,-0.22885 -0.507839,-0.508359 0,-0.281262 0.227281,-0.508364 0.507839,-0.508364 0.280385,0 0.507834,0.227102 0.507834,0.508364"
       style="fill:#fbf5a3;fill-opacity:1;fill-rule:nonzero;stroke:none;stroke-width:0.0174694"
       id="path640" />
    <path
       d="m 95.964228,95.304668 c 0,0.420981 -0.34118,0.761632 -0.761844,0.761632 -0.42066,0 -0.76184,-0.340651 -0.76184,-0.761632 0,-0.421011 0.34118,-0.761667 0.76184,-0.761667 0.420664,0 0.761844,0.340656 0.761844,0.761667"
       style="fill:#e5faf2;fill-opacity:1;fill-rule:nonzero;stroke:none;stroke-width:0.0174694"
       id="path642" />
    <path
       d="m 96.858489,108.07135 c 0,0.27951 -0.227454,0.50661 -0.508012,0.50661 -0.280385,0 -0.507834,-0.2271 -0.507834,-0.50661 0,-0.2813 0.227449,-0.5084 0.507834,-0.5084 0.280558,0 0.508012,0.2271 0.508012,0.5084"
       style="fill:#fbf5a3;fill-opacity:1;fill-rule:nonzero;stroke:none;stroke-width:0.0174694"
       id="path644" />
    <path
       d="m 94.960084,27.297398 c 0,0.276192 -0.223784,0.500151 -0.499975,0.500151 -0.276191,0 -0.499975,-0.223959 -0.499975,-0.500151 0,-0.276016 0.223784,-0.499975 0.499975,-0.499975 0.276191,0 0.499975,0.223959 0.499975,0.499975"
       style="fill:#e5faf2;fill-opacity:1;fill-rule:nonzero;stroke:none;stroke-width:0.0174694"
       id="path646" />
    <path
       d="m 88.959511,34.798249 c 0,0.276191 -0.223784,0.499975 -0.499975,0.499975 -0.276191,0 -0.500149,-0.223784 -0.500149,-0.499975 0,-0.276192 0.223958,-0.500151 0.500149,-0.500151 0.276191,0 0.499975,0.223959 0.499975,0.500151"
       style="fill:#e5faf2;fill-opacity:1;fill-rule:nonzero;stroke:none;stroke-width:0.0174694"
       id="path648" />
    <path
       d="m 90.704707,53.050135 c 1.260072,-0.204392 1.425854,-0.370178 1.630246,-1.630247 0.204219,1.260069 0.370001,1.425855 1.630073,1.630247 -1.260072,0.204217 -1.425854,0.370002 -1.630073,1.630074 -0.204392,-1.260072 -0.370174,-1.425857 -1.630246,-1.630074"
       style="fill:#74caf2;fill-opacity:1;fill-rule:nonzero;stroke:none;stroke-width:0.0174694"
       id="path650" />
    <path
       d="m 85.70915,58.425653 c 0,-0.207186 0.168055,-0.375067 0.375067,-0.375067 0.20719,0 0.375067,0.167881 0.375067,0.375067 0,0.207011 -0.167877,0.375066 -0.375067,0.375066 -0.207012,0 -0.375067,-0.168055 -0.375067,-0.375066"
       style="fill:#fbf5a3;fill-opacity:1;fill-rule:nonzero;stroke:none;stroke-width:0.0174694"
       id="path652" />
  </g>
</svg>
