<?xml version="1.0" encoding="UTF-8" standalone="no"?>
<svg
   xmlns:dc="http://purl.org/dc/elements/1.1/"
   xmlns:cc="http://creativecommons.org/ns#"
   xmlns:rdf="http://www.w3.org/1999/02/22-rdf-syntax-ns#"
   xmlns:svg="http://www.w3.org/2000/svg"
   xmlns="http://www.w3.org/2000/svg"
   xmlns:sodipodi="http://sodipodi.sourceforge.net/DTD/sodipodi-0.dtd"
   xmlns:inkscape="http://www.inkscape.org/namespaces/inkscape"
   sodipodi:docname="water1.svg"
   inkscape:version="1.0 (4035a4fb49, 2020-05-01)"
   id="svg1905"
   version="1.1"
   viewBox="0 0 105.83337 105.83333"
   height="105.83334mm"
   width="105.83337mm">
  <defs
     id="defs1899" />
  <sodipodi:namedview
     inkscape:window-maximized="1"
     inkscape:window-y="-8"
     inkscape:window-x="-8"
     inkscape:window-height="996"
     inkscape:window-width="1920"
     showgrid="false"
     inkscape:document-rotation="0"
     inkscape:current-layer="layer1"
     inkscape:document-units="mm"
     inkscape:cy="183.99293"
     inkscape:cx="70.704745"
     inkscape:zoom="0.98994949"
     inkscape:pageshadow="2"
     inkscape:pageopacity="0.0"
     borderopacity="1.0"
     bordercolor="#666666"
     pagecolor="#ffffff"
     id="base" />
  <metadata
     id="metadata1902">
    <rdf:RDF>
      <cc:Work
         rdf:about="">
        <dc:format>image/svg+xml</dc:format>
        <dc:type
           rdf:resource="http://purl.org/dc/dcmitype/StillImage" />
        <dc:title></dc:title>
      </cc:Work>
    </rdf:RDF>
  </metadata>
  <g
     transform="translate(-20.410681,-81.410815)"
     id="layer1"
     inkscape:groupmode="layer"
     inkscape:label="Layer 1">
    <path
       id="path2742"
       style="fill:#5edaf4;fill-opacity:1;fill-rule:nonzero;stroke:none;stroke-width:0.0352777"
       d="M 126.24401,81.410815 V 187.24415 H 20.410681 V 81.410815 H 126.24401" />
    <path
       id="path2744"
       style="fill:#1fbfdf;fill-opacity:1;fill-rule:nonzero;stroke:none;stroke-width:0.0352777"
       d="m 48.243083,118.37875 c -1.621719,2.43276 -4.324703,4.59528 -5.135739,6.48723 -0.810683,1.8923 -4.324702,10.54171 -4.59493,11.62297 -0.270228,1.08126 2.162175,2.16253 2.702983,4.86551 0.540456,2.70298 -1.351492,5.94642 -2.162528,7.02769 -0.810683,1.08126 0.811036,4.05447 1.8923,5.13574 1.080911,1.08091 4.594931,4.3247 5.135739,5.94642 0.540456,1.62172 4.324702,6.48723 5.405967,8.10895 1.08091,1.62172 0.270226,2.43275 2.702983,1.35149 2.432402,-1.08126 4.198056,-1.21461 6.21665,-0.81068 1.351492,0.27022 3.243792,-2.70299 5.946775,-2.97357 1.08091,-2.43275 3.24344,-4.59493 2.702983,-5.13574 -0.540808,-0.54045 -2.162527,-3.51366 -0.811035,-5.40596 1.351492,-1.89195 2.97321,-3.24344 2.162527,-5.94642 -0.811035,-2.70299 -4.054475,-4.59494 -3.243792,-5.94643 0.811035,-1.35149 1.8923,-1.08126 0.540809,-3.24379 -1.351492,-2.16217 -0.811036,-4.59493 0.270226,-6.48723 1.081265,-1.89195 -1.081262,-2.16217 -0.540808,-4.59493 0.540808,-2.43276 1.081265,-3.78425 -0.810683,-5.94677 -1.8923,-2.16218 -3.243792,-2.97321 -6.757459,-3.51367 -3.514018,-0.54081 -11.622968,-0.54081 -11.622968,-0.54081" />
    <path
       id="path2746"
       style="fill:#09add0;fill-opacity:1;fill-rule:nonzero;stroke:none;stroke-width:0.0352777"
       d="m 54.108718,165.1599 c -0.533752,-0.17109 -0.730954,-1.02305 -1.186392,-1.64994 -1.019526,-1.40299 -3.166178,-4.30212 -3.50661,-5.19606 -0.691798,-1.81681 -2.469798,-3.87456 -5.432777,-6.75816 -0.216253,-0.21026 -0.402167,-0.39124 -0.543631,-0.53235 -0.2794,-0.2794 -0.957792,-0.91299 -0.917575,-1.48166 0.141111,-1.98438 2.874433,-5.27085 2.15265,-8.87942 -0.419453,-2.09903 -2.098675,-3.26848 -2.311047,-4.49862 -0.468489,-2.71498 3.207455,-8.08884 3.986742,-9.90776 0.214841,-0.50201 1.21673,-1.60267 1.94839,-2.40665 0.543983,-0.59726 0.887238,-1.55399 1.695098,-1.92935 2.540707,-1.1811 7.211484,0.15946 9.33591,0.48649 2.84833,0.43815 3.382082,0.91334 4.63903,2.3502 0.538337,0.61525 0.538692,0.61525 0.168275,2.2165 -0.04763,0.20602 -0.09701,0.41946 -0.146405,0.64171 -0.447675,2.01471 0.510824,3.3729 0.513999,4.3815 0.0099,3.28612 -0.01871,5.71464 -0.193324,8.62224 -0.0064,0.10336 -0.115003,0.17709 -0.172153,0.27234 -1.723322,2.87302 0.379941,5.40068 1.510241,6.75852 0.53975,0.64805 1.210734,1.45485 1.379361,2.01647 0.13476,0.44874 0.155575,0.51788 -0.892175,1.87079 -0.23354,0.30127 -0.498475,0.64346 -0.761649,1.01176 -1.786466,2.50084 -0.08325,5.36117 -0.268816,7.76253 -0.04974,0.64346 -0.565854,1.31127 -1.156759,1.81257 -1.185333,1.00541 -2.601028,1.43298 -3.448401,2.07927 -0.117124,0.0892 -0.226132,0.248 -0.380649,0.28787 -0.562326,0.14605 -1.132062,-0.11395 -1.682043,-0.11395 -1.424869,0 -2.81164,1.26929 -4.32929,0.78316" />
    <path
       id="path2748"
       style="fill:#1fbfdf;fill-opacity:1;fill-rule:nonzero;stroke:none;stroke-width:0.0352777"
       d="m 62.388766,87.564671 c -1.262591,0.0702 -5.405966,2.072569 -6.6675,2.793294 -1.261181,0.720725 -6.757458,6.667147 -7.207956,7.207955 -0.450496,0.540456 -1.171221,5.13574 -2.252485,7.56814 0.540808,2.88326 0.09031,4.86551 0.360539,5.76651 0.270227,0.90099 0.900994,4.14478 1.44145,4.3247 0.540809,0.18027 0.811036,-0.72073 3.063521,-0.4505 2.252488,0.27058 2.792941,0.99131 3.153481,1.53176 0.36054,0.54081 4.7752,0.36054 6.217002,0.4505 1.44145,0.0903 2.432405,0.54081 3.333398,0.81104 0.900994,0.27022 1.80199,0.90099 2.252485,0.4505 0.450499,-0.4505 -0.720725,-2.61303 0.450499,-3.33375 1.171575,-0.72073 0.360539,-1.08127 0.270581,-2.16253 -0.09031,-1.08091 -0.09031,-4.14444 -0.630767,-4.41466 -0.540808,-0.27023 -1.712031,-1.26154 -1.441804,-1.62208 0.270581,-0.36018 1.8923,-0.72072 2.342798,-1.35149 0.450498,-0.63041 0.270227,-0.90099 0.08996,-1.44145 -0.180268,-0.54045 -0.360185,-1.17122 0.09031,-1.71203 0.08996,-1.44145 0.900997,-4.144432 1.531409,-4.504971 0.630766,-0.360186 2.702983,-1.621719 2.973565,-1.891947 0.270226,-0.270228 0.900993,-1.62172 1.171223,-1.982258 0.270227,-0.360187 -0.630767,-1.171223 0.270227,-1.711678 0.900993,-0.540808 1.712028,-0.721078 1.712028,-1.261533 0,-0.540456 -0.360537,-1.982258 -1.261533,-2.432756 -0.900996,-0.450497 -9.640712,-0.720725 -11.262431,-0.630766" />
    <path
       id="path2750"
       style="fill:#09add0;fill-opacity:1;fill-rule:nonzero;stroke:none;stroke-width:0.0352777"
       d="m 62.948976,113.59614 c -0.59196,0.2787 -1.372658,-0.30621 -2.232025,-0.36018 -0.50165,-0.0314 -1.17122,-0.0353 -1.946978,-0.0406 -0.643115,-0.004 -1.849263,0.25047 -2.571047,-0.0547 -1.132416,-0.47872 -2.296228,-1.58539 -4.652785,-1.86832 -0.418748,-0.0501 -0.907698,0.16087 -1.209675,-0.0762 -0.04057,-0.0318 -0.02328,-0.0963 -0.03387,-0.13828 -0.09419,-0.38524 -0.204259,-0.69921 -0.24624,-0.97614 -0.02646,-0.17357 2.64e-4,-0.50483 0.0053,-0.756 0.01728,-0.9137 -0.33655,-2.20804 -0.166158,-3.79131 0.165455,-1.5367 0.931333,-3.13478 1.272823,-4.54025 0.12206,-0.5027 0.187325,-1.179332 0.389819,-1.546926 0.909463,-1.651 4.941358,-5.387269 5.990873,-6.070247 1.296106,-0.843492 4.23686,-2.170994 5.15126,-2.294114 0.113242,-0.01552 0.31468,-0.0074 0.642408,-0.0074 1.788584,0 5.006272,-1.392413 6.104115,0.191912 0.276932,0.399343 -0.04092,1.008943 -0.164748,1.606196 -0.01728,0.0829 -0.06738,0.172508 -0.130879,0.240947 -0.465666,0.502356 -1.595614,1.001183 -2.115608,1.298222 -2.15759,1.232606 -2.71145,4.785784 -3.190523,6.42126 -0.213783,0.7299 0.02506,1.55893 -0.379942,2.27436 -0.29845,0.5274 -1.098902,0.65123 -1.556102,1.26083 -0.667456,0.8897 -0.900996,2.03165 -0.640998,3.13302 0.282927,1.19768 1.415344,1.89336 1.871485,2.77636 0.239538,0.46355 0.07267,1.14653 0.08855,1.48801 0.01976,0.41769 0.0381,0.78494 0.05997,1.04846 0.0046,0.054 0.02822,0.10795 0.01553,0.15875 -0.05997,0.23883 -0.143934,0.52282 -0.354542,0.6223" />
    <path
       id="path2752"
       style="fill:#1fbfdf;fill-opacity:1;fill-rule:nonzero;stroke:none;stroke-width:0.0352777"
       d="m 58.334291,85.672724 c -0.36054,0.270227 -4.324702,3.514019 -5.225698,4.234744 -0.900993,0.720725 -5.135737,6.48723 -6.036733,6.937727 -0.900994,0.450497 -5.04578,-0.900994 -5.856463,-1.081264 -0.811036,-0.180269 3.513667,-2.613025 4.414661,-3.603977 0.900995,-0.991306 1.081264,-3.063522 1.8923,-4.054475 0.811035,-0.991306 3.693935,-2.613025 5.316008,-3.063522 1.621719,-0.450497 5.495925,0.630767 5.495925,0.630767" />
    <path
       id="path2754"
       style="fill:#1fbfdf;fill-opacity:1;fill-rule:nonzero;stroke:none;stroke-width:0.0352777"
       d="m 76.444491,89.727198 c 0,0 1.08091,0.900995 0.630412,1.261534 -0.450495,0.360186 -1.621718,1.531408 -2.252485,2.342444 -0.630415,0.811036 -1.891945,3.243439 -2.522712,3.784247 -0.630767,0.540455 -2.252488,1.081264 -2.252488,1.081264 0,0 -1.801987,3.063173 -1.712029,3.693933 0.09031,0.63077 0.360537,1.80199 0.180269,2.79294 -0.180269,0.99131 -1.171223,1.71204 -1.171223,2.16253 0,0.4505 0.900996,3.51402 1.081265,4.3247 0.180268,0.81104 -0.180269,1.8923 0.180268,2.3428 0.360188,0.4505 0.990955,1.44145 0.08996,1.89195 -0.900993,0.4505 -0.180268,1.17122 -0.08996,1.62172 0.08996,0.4505 0.27023,-0.09 2.612673,-0.63042 2.342796,-0.5408 10.091209,-0.27057 10.902244,-0.5408 0.810683,-0.27023 2.883252,-3.06317 3.513666,-3.96417 0.630767,-0.90099 2.162527,-2.79329 2.072569,-3.60398 -0.09031,-0.81103 1.71168,-1.71203 2.432405,-2.16252 0.721076,-0.4505 0.721076,-3.96452 0.360537,-4.86551 -0.360537,-0.901 -3.874204,-2.612676 -4.7752,-3.333754 -0.900994,-0.720725 -2.252486,-2.792941 -2.883252,-3.513666 -0.630767,-0.720725 -3.153482,-1.982259 -3.69429,-3.063522 -0.540454,-1.081264 -2.162175,-1.891947 -2.702629,-1.62172" />
    <path
       id="path2756"
       style="fill:#09add0;fill-opacity:1;fill-rule:nonzero;stroke:none;stroke-width:0.0352777"
       d="m 72.227385,112.69444 c -0.141817,-0.0822 -0.19191,-0.28292 -0.232834,-0.45508 -0.113945,-0.47766 0.02893,-1.13912 -0.125235,-1.83374 -0.07937,-0.3563 -0.219781,-0.87842 -0.44309,-1.70074 -0.08855,-0.32597 -0.394758,-0.77788 -0.325966,-1.21462 0.1016,-0.64593 0.7239,-1.28199 0.886179,-2.17593 0.217662,-1.19697 -0.160163,-2.3622 -0.04057,-3.19511 0.04692,-0.32632 0.221898,-0.78105 0.555625,-1.08867 0.57785,-0.53305 1.505302,-0.73201 2.09409,-1.236486 0.766937,-0.657577 1.356783,-1.602669 2.25425,-3.08998 0.24765,-0.410281 0.621242,-1.030464 0.75847,-1.208617 0.08467,-0.109714 0.129823,-0.340077 0.294923,-0.354541 0.659694,-0.0575 1.062919,0.7874 1.581502,1.14053 0.24765,0.168628 0.623007,0.393347 0.776465,0.544336 0.165807,0.162984 0.388408,0.509059 0.59055,0.781403 0.972608,1.309864 1.786115,2.367844 2.66841,3.073755 0.506238,0.40463 1.180748,0.80257 2.034472,1.30633 0.442383,0.26071 1.354666,0.48049 1.649941,1.00754 0.122767,0.21943 0.122767,0.56268 -0.0053,0.78387 -0.729192,1.25977 -2.395363,2.14701 -3.006725,4.02414 -0.153459,0.47095 -0.764117,1.12465 -1.005772,1.45415 -0.168275,0.2293 -0.32032,0.43709 -0.442383,0.61171 -0.640292,0.91546 -1.281994,2.23203 -2.013654,2.57175 -0.602898,0.28011 -1.618546,0.0328 -2.383366,0.0423 -2.50049,0.0303 -4.760738,0.99872 -6.11999,0.21167" />
    <path
       id="path2758"
       style="fill:#1fbfdf;fill-opacity:1;fill-rule:nonzero;stroke:none;stroke-width:0.0352777"
       d="m 70.948214,120.81151 c 0.08502,0.76517 0.450496,3.15348 0.450496,4.3247 0,1.17157 -0.630767,2.70298 -0.630767,3.69429 0,0.99095 0.991307,1.53176 1.441805,3.51367 0.450495,1.98225 -0.630767,3.69428 -0.72108,4.41501 -0.08996,0.72072 0.72108,2.3428 1.171575,3.15348 0.450498,0.81103 -0.180268,2.25248 -0.09031,3.24379 0.09031,0.99095 0.36054,3.06317 1.081262,3.78389 0.720725,0.72108 1.982258,2.3428 2.072217,3.69429 0.09031,1.3515 -1.982259,3.24344 -2.792939,4.50497 -0.811038,1.26119 -0.36054,2.70299 0.720722,3.69394 1.081265,0.99131 1.171223,2.16253 0.36054,2.7933 -0.811035,0.63076 -2.252485,1.53176 -2.252485,2.25248 0,0.72073 2.97321,0.09 6.21665,0.54046 3.243791,0.4505 5.22605,0.63076 5.766503,0.81103 0.540457,0.18027 3.693938,1.35149 5.13574,1.08127 1.44145,-0.27058 4.7752,-2.43276 6.036733,-3.78425 1.261182,-1.35149 0.810684,-4.86551 0.720725,-5.94678 -0.09031,-1.08126 -0.09031,-4.95546 0.630767,-6.03673 0.720725,-1.08091 2.8829,-3.33339 3.783892,-4.3247 0.901,-0.99095 1.17158,-3.60398 0.72108,-4.41466 -0.4505,-0.81104 -1.622072,-2.16253 -1.35149,-4.50497 0.270226,-2.3428 0.270226,-4.50533 0.81068,-5.04578 0.54081,-0.54046 1.72015,-0.64277 0.81104,-2.61303 -0.54081,-1.17122 0,-3.78389 -0.54081,-4.41466 -0.540457,-0.63077 -3.783894,-2.16253 -4.955469,-2.3428 -1.171223,-0.17991 -5.045429,0.0903 -6.486879,-0.27023 -1.441802,-0.36018 -3.603977,-1.98225 -4.234744,-2.88325 -0.630767,-0.90099 -1.8923,-2.07221 -2.883252,-2.07221 -0.990954,0 -4.144433,-0.36019 -4.865513,-0.18027 -0.720725,0.18027 -1.351491,1.17157 -2.61267,0.90099 -1.261533,-0.27023 -2.883252,-0.36018 -3.603977,0 -0.72108,0.36054 0,1.62207 0.08996,2.43276" />
    <path
       id="path2760"
       style="fill:#09add0;fill-opacity:1;fill-rule:nonzero;stroke:none;stroke-width:0.0352777"
       d="m 88.279833,162.81993 c -0.312915,0.0437 -1.17969,-0.15804 -3.173942,-0.85055 -1.994254,-0.6925 0.416984,0.13617 -0.248004,-0.0854 -0.664986,-0.22154 -1.490134,-0.3249 -3.298119,-0.5528 -0.846667,-0.10654 -1.882775,-0.23706 -3.0988,-0.40569 -0.13194,-0.0183 -0.309385,0.0504 -0.393348,-0.0504 -0.02822,-0.0335 0.0053,-0.0875 0.0071,-0.13159 0.06103,-1.52859 -1.678164,-2.53224 -1.762831,-4.24321 -0.0085,-0.1711 0.221898,-0.2727 0.330906,-0.40534 1.228725,-1.49578 2.756607,-3.3581 2.601032,-5.6949 -0.169688,-2.54105 -2.195338,-4.5914 -2.836688,-5.68289 -0.157337,-0.26847 -0.316442,-0.91652 -0.315383,-1.7907 2.64e-4,-0.11959 0.05151,-0.35349 0.07867,-0.51506 0.177093,-1.05304 0.444852,-2.64442 -0.426509,-4.21216 -0.272698,-0.49107 -0.606779,-0.91017 -0.614891,-1.25237 -0.02893,-1.21214 1.043162,-3.08539 0.5207,-5.38444 -0.337257,-1.48273 -1.157113,-2.38549 -1.273175,-3.10903 -0.02681,-0.16828 0.08114,-0.34643 0.116062,-0.49142 0.193675,-0.79975 0.433917,-1.79494 0.433917,-2.8254 0,-0.85019 -1.103136,-2.28918 -0.275167,-3.1884 0.05327,-0.0579 0.156633,0.005 0.234598,0.005 1.4605,0 2.450394,-0.79622 3.16371,-0.99272 0.528463,-0.1457 1.313392,0.0727 1.948392,0.11889 0.536575,0.0392 1.025525,-0.0508 1.39065,0.0917 0.204613,0.0797 0.393348,0.36583 0.545042,0.58279 1.090437,1.5561 3.932414,3.69781 6.269214,4.28237 1.025877,0.25647 2.366434,0.30797 4.196644,0.30797 1.829858,0 0.43674,-0.002 1.266825,-0.002 0.830088,0 1.1811,0.003 1.324329,0.0275 0.451554,0.0762 1.792817,0.19932 2.252838,0.9465 0.432858,0.70309 0.452966,1.78682 0.230364,2.73121 -0.381,1.61678 -1.210027,2.98344 -1.391708,5.10434 -0.04868,0.56903 -0.09913,1.15676 -0.166865,1.74413 -0.356658,3.09175 1.226963,5.03238 1.540582,6.24981 0.06985,0.27094 -0.04022,0.66429 -0.155575,0.85443 -0.116065,0.19191 -0.329142,0.35631 -0.522817,0.5648 -1.486606,1.60126 -2.771069,3.00955 -3.446285,4.02272 -1.671109,2.5072 -1.216025,8.2296 -1.211088,8.28711 0.0046,0.0575 -0.14746,-1.5681 0.03069,0.34325 0.178506,1.91135 0.192616,2.76825 0.01058,3.07799 -0.650169,1.10525 -2.97321,2.39818 -3.881612,2.52447" />
    <path
       id="path2762"
       style="fill:#1fbfdf;fill-opacity:1;fill-rule:nonzero;stroke:none;stroke-width:0.0352777"
       d="m 55.090851,171.98827 c 0.289632,-1.01423 1.44145,-0.27023 2.252488,-0.4505 0.810684,-0.18027 1.080911,-0.9913 1.711677,-1.17122 0.630767,-0.18027 2.342798,0.54046 3.243792,0 0.900993,-0.54081 0.900993,-1.35149 1.891948,-1.98226 0.990952,-0.63076 2.252485,-1.08126 3.874204,-1.4418 1.621721,-0.36019 3.063523,0.4505 4.054475,0.18027 0.991306,-0.27023 1.171223,-0.90099 2.252485,-0.90099 1.081265,0 2.613025,0.36053 2.973565,1.08126 0.360185,0.72072 -0.270582,0.901 1.531408,0.4505 1.80199,-0.4505 2.613025,0 3.874558,0.72072 1.261182,0.72073 2.973211,0.18027 3.783894,0.4505 0.811038,0.27023 1.171575,1.35149 0.72108,1.62172 -0.450499,0.27058 -2.613025,0.27058 -3.874559,1.17157 -1.261181,0.901 -2.702983,2.16218 -3.153481,3.06317 -0.450498,0.901 -0.08996,2.07222 -1.44145,3.06353 -1.351492,0.99095 -2.613025,1.62171 -4.594932,2.61267 -1.982255,0.99131 -3.514018,3.24379 -5.496277,3.24379 -1.982258,0 -1.982258,-2.07221 -3.243437,-2.07221 -1.261533,0 -2.162529,0.81068 -3.153481,-1.17158 -0.991307,-1.98191 -1.441802,-3.3334 -2.523067,-4.14444 -1.08091,-0.81103 -1.621718,-0.54045 -2.97321,-1.35149 -1.351492,-0.81103 -1.891948,-2.34244 -1.71168,-2.97321" />
    <path
       id="path2764"
       style="fill:#09add0;fill-opacity:1;fill-rule:nonzero;stroke:none;stroke-width:0.0352777"
       d="m 69.058735,179.8337 c -0.982485,-0.10443 -1.782234,-1.7325 -3.606446,-1.7325 -0.128764,0 -0.269523,0.0713 -0.372181,0.0106 -0.115007,-0.0681 -0.113242,-0.23847 -0.167923,-0.35313 -0.651227,-1.37407 -2.856794,-2.25142 -2.415821,-3.76025 0.167921,-0.57433 1.128887,-0.31398 1.617134,-0.60678 1.113366,-0.66816 1.673225,-1.49649 2.009068,-1.99073 0.02363,-0.0349 0.03986,-0.078 0.07197,-0.10759 0.499885,-0.46814 1.453798,-0.64735 2.635602,-0.907 0.02045,-0.005 0.05962,-0.01 0.127706,-0.01 0.232834,0 0.568677,0.0617 0.924277,0.127 0.518583,0.0952 1.106665,0.20356 1.769533,0.20356 0.486834,0 0.956382,-0.0607 1.39559,-0.18027 0.661104,-0.18027 1.127477,-0.75389 1.544109,-0.65582 1.317976,0.31115 1.97626,1.65594 3.115733,1.65594 0.200025,0 0.494242,-0.21413 0.585962,-0.0399 0.342196,0.65052 -0.925335,1.12783 -1.219904,1.71697 -0.371829,0.74366 -0.499533,1.44145 -0.585613,1.90253 -0.0035,0.0173 0,0.0378 -0.01024,0.054 -0.681215,1.06186 -2.070455,1.24531 -3.857273,2.13889 -1.114425,0.55739 -2.004129,1.28164 -2.788708,1.92123 -0.226129,0.18486 -0.450144,0.64735 -0.772584,0.61313" />
    <path
       id="path2766"
       style="fill:#1fbfdf;fill-opacity:1;fill-rule:nonzero;stroke:none;stroke-width:0.0352777"
       d="m 67.524151,186.49273 c 0.03528,0.32456 -0.416276,0.54681 -1.090083,0.75142 h -9.676693 c -1.248834,-0.40922 -2.342444,-0.77611 -2.928057,-0.83961 -1.622777,-0.17992 -5.404554,0 -7.119054,-0.90311 -1.710973,-0.89959 -2.250723,-4.68489 -1.0795,-5.76439 1.171222,-1.08303 1.259417,-1.62278 1.622777,-2.52237 0.359834,-0.90311 3.8735,-1.62277 4.504973,-2.52236 0.462137,-0.66675 0.08819,-3.15383 0.719667,-1.98261 0.63147,1.17122 3.513667,2.70228 3.8735,3.33375 0.359833,0.63147 -2.250723,0.99131 -1.802696,1.61925 0.451556,0.63147 2.25425,0.54328 3.877029,1.08303 1.61925,0.53975 1.799167,3.33375 2.882194,4.14514 1.0795,0.81139 2.52236,1.35114 3.8735,1.71097 1.35114,0.35984 2.25425,1.08303 2.342443,1.89089" />
    <path
       id="path2768"
       style="fill:#1fbfdf;fill-opacity:1;fill-rule:nonzero;stroke:none;stroke-width:0.0352777"
       d="m 66.434068,81.410815 c -1.008943,0.303389 -2.511777,0.564445 -3.594804,1.051278 -1.153583,0.518583 -3.859389,-0.328083 -6.081889,-1.051278 h 9.676693" />
    <path
       id="path2770"
       style="fill:#1fbfdf;fill-opacity:1;fill-rule:nonzero;stroke:none;stroke-width:0.0352777"
       d="m 33.646903,147.75138 c 0.809978,-0.40499 3.063522,1.17122 3.423708,2.88325 0.360539,1.71168 0.991306,3.42371 2.162528,4.32471 1.171222,0.90099 1.891947,3.4237 3.243439,5.67619 1.351491,2.25249 6.036732,5.58624 6.757811,6.93773 0.720725,1.35149 0.540454,2.88325 1.261179,3.24379 0.720725,0.36019 -0.180268,2.4324 -0.900993,2.79294 -0.720725,0.36054 -3.423709,-0.63077 -4.594931,0.4505 -1.171575,1.08126 -2.793294,1.62172 -4.234744,0.81103 -1.441803,-0.81103 -6.487231,-4.50497 -6.6675,-5.85646 -0.180269,-1.35149 -2.252486,-8.1093 -3.33375,-9.19021 -1.080911,-1.08127 -3.874205,-3.78425 -3.783894,-5.40597 0.08996,-1.62207 1.44145,-0.18027 1.891947,-1.4418 0.450497,-1.26118 -0.630767,-1.89195 0.540455,-3.33375 1.171575,-1.44145 1.712031,-1.35149 2.523067,-1.35149 0.810683,0 0.990953,-0.17992 1.711678,-0.54046" />
    <path
       id="path2772"
       style="fill:#09add0;fill-opacity:1;fill-rule:nonzero;stroke:none;stroke-width:0.0352777"
       d="m 42.308303,171.68735 c -1.474259,-0.036 -4.280253,-2.71745 -4.864453,-3.85974 -1.052689,-2.05952 -2.336447,-8.6487 -4.186061,-10.49726 -1.849261,-1.8489 0.546805,0.54434 -0.160867,-0.16086 -0.707672,-0.7052 -1.607608,-1.11972 -1.623483,-1.71027 -0.01764,-0.65934 0.624417,-1.02658 0.720372,-1.2961 0.333728,-0.93451 -0.09878,-1.89266 0.301272,-2.36362 0.291395,-0.3429 0.866423,-0.38946 1.173339,-0.20849 2.484614,1.46685 1.882775,4.62386 3.31717,6.08895 0.267405,0.27305 0.650169,1.19203 0.95885,1.8482 0.420158,0.89253 0.896408,1.90465 1.507066,2.92241 1.016353,1.69369 2.889956,3.37009 4.701822,4.99146 0.674159,0.60325 1.74237,1.44145 2.012598,1.89088 0.09596,0.15946 0.3429,0.48225 0.185913,0.68863 -0.927805,1.22131 -2.790119,0.56479 -3.745441,1.44709 -0.117475,0.1083 -0.211314,0.22084 -0.298097,0.21872" />
    <path
       id="path2774"
       style="fill:#1fbfdf;fill-opacity:1;fill-rule:nonzero;stroke:none;stroke-width:0.0352777"
       d="m 103.38401,132.79466 c -0.55492,-0.40358 -1.35149,3.15383 -1.35149,4.23474 0,1.08127 0.36054,3.78425 1.26153,4.59529 0.901,0.81068 0.4505,1.71168 -0.54081,2.88325 -0.99095,1.17122 -1.89194,4.86516 -3.423703,6.21665 -1.531761,1.35149 -0.900994,3.69429 -0.450496,4.3247 0.450496,0.63077 -0.180271,2.70299 -0.630766,3.96452 -0.450499,1.26153 -0.990955,3.15348 0.991303,1.44145 1.982262,-1.71168 3.063172,-2.70298 4.955472,-3.24344 1.89194,-0.54045 4.23474,-1.62172 5.40596,-3.42371 1.17123,-1.80198 1.98226,-2.61302 3.33375,-2.61302 1.35149,0 2.25249,-0.4505 2.79294,-2.16218 0.54081,-1.71203 1.26154,-5.7665 0.72073,-6.6675 -0.54045,-0.90099 -2.4324,-1.17122 -4.05448,-1.71203 -1.62171,-0.54045 -1.9819,-0.99095 -2.97321,-2.07221 -0.99095,-1.08127 -1.80198,-0.09 -2.43275,-1.44145 -0.63041,-1.35149 -2.61267,-3.60398 -3.60398,-4.32506" />
    <path
       id="path2776"
       style="fill:#09add0;fill-opacity:1;fill-rule:nonzero;stroke:none;stroke-width:0.0352777"
       d="m 102.32144,154.11761 c -0.29492,-0.14041 -0.2868,-0.57644 -0.40992,-0.87524 -0.0106,-0.0261 -0.0257,-0.0589 -0.0159,-0.0875 0.60536,-1.77624 2.14453,-3.17112 2.85362,-4.8253 0.22789,-0.53128 0.55174,-1.33738 0.7366,-1.58997 1.70497,-2.32762 0.69885,-4.36738 1.65417,-5.38056 0.018,-0.019 0.0536,0.003 0.0759,0.0155 1.36384,0.75494 1.97979,1.91205 4.06259,2.60596 0.49742,0.16581 0.99624,0.30516 1.43616,0.42757 0.10195,0.0282 0.26493,-0.008 0.33267,0.0931 0.53516,0.80046 0.14675,2.55482 -0.59867,3.16371 -2.50684,2.04753 -4.89197,2.79506 -5.80566,4.20018 -0.47413,0.72989 -1.8154,1.49718 -3.41701,1.95438 -0.31644,0.0903 -0.62724,0.43039 -0.90452,0.2981" />
    <path
       id="path2778"
       style="fill:#1fbfdf;fill-opacity:1;fill-rule:nonzero;stroke:none;stroke-width:0.0352777"
       d="m 77.525401,184.24166 c -0.895701,-0.096 2.883252,-2.79294 2.793294,-4.23475 -0.09031,-1.44145 0.450498,-2.16217 1.171223,-2.97321 0.720725,-0.81069 0.08996,-1.89195 1.261533,-2.70299 1.171224,-0.81068 3.964165,-2.52271 4.68489,-2.61267 0.721077,-0.0903 1.441802,0.81069 0.991304,1.3515 -0.450495,0.54045 -1.801987,0.90099 -1.261533,2.16217 0.540808,1.26153 0.900996,1.8923 -0.270227,2.88325 -1.171223,0.99095 -3.693935,2.79294 -3.784248,3.51403 -0.08996,0.72072 0.450498,0.99095 -0.450496,1.44145 -0.900996,0.45049 -2.612673,1.44145 -5.13574,1.17122" />
    <path
       id="path2780"
       style="fill:#1fbfdf;fill-opacity:1;fill-rule:nonzero;stroke:none;stroke-width:0.0352777"
       d="m 95.004835,166.49199 c -0.837142,0.46532 -2.342444,0.99131 -3.33375,1.3515 -0.990952,0.36054 -2.072217,1.17157 -2.432757,2.07256 -0.360185,0.901 0.72108,1.62172 0.811038,2.52272 0.08996,0.90099 -1.891948,1.26118 -1.621721,2.61267 0.27023,1.35149 0,2.97356 -0.900994,3.69429 -0.900993,0.72072 -1.8923,1.89195 -2.342798,2.88326 -0.450495,0.99095 5.405967,0.54045 7.568497,0.72072 2.162526,0.18027 9.37048,-0.36054 9.28017,-2.16253 -0.09,-1.80199 -0.36019,-4.59493 -0.18027,-5.31566 0.18027,-0.72107 -0.17992,-2.52306 -0.72072,-3.24379 -0.54046,-0.72072 -2.792945,-3.8742 -3.423712,-4.41466 -0.630767,-0.54081 -1.891948,-1.17157 -2.702983,-0.72108" />
    <path
       id="path2782"
       style="fill:#09add0;fill-opacity:1;fill-rule:nonzero;stroke:none;stroke-width:0.0352777"
       d="m 93.7239,178.85439 c -0.375357,0 -0.586317,-0.0127 -0.678392,-0.0204 -0.426508,-0.036 -1.139121,0.36054 -1.431925,-0.0572 -0.602898,-0.86113 0.06138,-2.11773 0.433562,-3.01272 0.37818,-0.90876 1.692981,-1.86832 1.512358,-3.6763 -0.03986,-0.40076 -0.386291,-0.7807 -0.237066,-1.09009 0.3302,-0.68439 1.481314,-1.0675 2.267656,-0.8763 0.952148,0.23178 1.78929,2.35621 2.218619,2.94288 0.158046,0.2159 0.314679,0.38841 0.398288,0.54222 0.09137,0.16898 0.16792,0.50059 0.159453,0.70485 -0.03704,0.87982 1.304573,2.40206 0.01939,4.08869 -0.743304,0.97543 -3.015898,0.45438 -4.661958,0.45438 0,0 0.375354,0 0,0" />
    <path
       id="path2784"
       style="fill:#1fbfdf;fill-opacity:1;fill-rule:nonzero;stroke:none;stroke-width:0.0352777"
       d="m 99.599766,161.44657 c -0.724254,0.57961 -2.072216,1.89194 -2.162175,2.79294 -0.09031,0.90099 1.081262,1.53176 2.072217,2.25248 0.990952,0.72108 1.982262,2.61303 2.252482,3.42406 0.27023,0.81069 2.07222,1.71168 1.4418,3.15349 -0.63076,1.44145 0.54046,0.81068 0.54046,2.07221 0,1.26118 -0.27023,4.23475 0.27023,4.14444 0.54081,-0.09 4.41501,-2.97322 5.31601,-4.32471 0.90099,-1.35149 1.71167,-6.217 2.61267,-7.56849 0.90099,-1.35149 3.15348,-3.87421 4.68524,-4.86516 1.53176,-0.9913 -0.54046,-2.61303 0.90099,-3.24379 1.44181,-0.63077 0.901,-3.60398 0.4505,-4.50497 -0.4505,-0.901 -1.71168,-2.52272 -3.06317,-2.34245 -1.35149,0.18027 -2.70298,-0.18027 -3.60398,1.08127 -0.90099,1.26118 -2.25248,3.78389 -3.69428,4.41466 -1.44145,0.63076 -2.61303,-0.09 -3.60398,0.72072 -0.99095,0.81104 -1.62172,1.62207 -2.34245,1.53176 -0.72107,-0.09 -1.62207,0.901 -2.072564,1.26154" />
    <path
       id="path2786"
       style="fill:#09add0;fill-opacity:1;fill-rule:nonzero;stroke:none;stroke-width:0.0352777"
       d="m 106.81442,171.73215 c -1.68169,-0.10865 -1.36878,-2.85714 -1.83374,-3.3602 -0.0194,-0.0205 -0.0423,-0.0381 -0.0575,-0.061 -0.63253,-0.97544 -2.89278,-2.40101 -2.88501,-4.30672 2.6e-4,-0.0977 0.30903,-0.30021 0.3683,-0.32773 1.38606,-0.64135 2.56434,-1.15817 3.2893,-1.8101 0.0413,-0.037 0.0829,-0.0748 0.12558,-0.11289 0.0423,-0.0384 -0.53481,2.7e-4 0.0533,2.7e-4 0.58808,0 1.81187,0 3.15772,-0.58879 2.09444,-0.91651 3.47556,-3.04059 4.5854,-4.74768 0.0861,-0.13194 0.12312,-0.3108 0.24941,-0.38171 0.0512,-0.0289 0.11713,-0.004 0.1704,-0.006 0.16686,-0.006 0.36935,-0.10442 0.55174,-0.0229 0.11642,0.0515 0.16651,0.20497 0.2099,0.30198 0.0543,0.12206 0.17745,0.33267 0.10972,0.5147 -0.36089,0.96732 -0.70062,1.96674 -1.41006,3.65408 -0.89429,2.12689 -3.62267,3.6576 -4.4905,4.95899 -0.71402,1.07104 -1.14618,2.52977 -1.77236,4.80448 -0.11641,0.42263 0.11395,1.52612 -0.42157,1.49155" />
    <path
       id="path2788"
       style="fill:#1fbfdf;fill-opacity:1;fill-rule:nonzero;stroke:none;stroke-width:0.0352777"
       d="m 37.070611,138.02071 c -0.725311,0.16122 -1.171222,1.71168 -1.891947,2.70298 -0.720725,0.99096 -0.630767,3.69394 -0.270228,4.50498 0.360186,0.81068 1.801989,1.89194 2.342444,1.98226 0.540809,0.09 1.62172,-1.17158 2.522714,-1.98226 0.900995,-0.81104 -0.540455,-3.51402 -0.990952,-4.32471 -0.450498,-0.81103 -0.900995,-3.06352 -1.712031,-2.88325" />
    <path
       id="path2790"
       style="fill:#1fbfdf;fill-opacity:1;fill-rule:nonzero;stroke:none;stroke-width:0.0352777"
       d="m 44.368878,109.18889 c 0.285044,0.56974 0.990952,6.48688 0.900994,7.20795 -0.09031,0.72073 -1.982258,2.43241 -3.063522,3.24344 -1.081264,0.81104 -1.711678,1.71204 -2.702983,1.71204 -0.990953,0 0.450497,0.81068 0.180269,1.71167 -0.270228,0.901 -0.450497,3.33375 -0.990953,3.96452 -0.540808,0.63077 -1.801989,1.62172 -2.252486,2.34244 -0.450497,0.72073 -0.540808,2.88326 -0.540808,3.69429 0,0.81069 -0.270228,1.89195 -0.810683,2.70299 -0.540809,0.81068 -2.973564,0.36018 -4.054475,-0.18028 -1.081264,-0.5408 -0.18027,-2.16252 -1.171575,-2.70298 -0.990953,-0.5408 -2.702984,-2.52271 -3.423709,-2.43275 -0.720725,0.09 -0.900994,0.36054 -2.252486,-0.36054 -1.351491,-0.72073 -2.883252,-2.61267 -2.792941,-3.51367 0.08996,-0.90099 -0.450497,-4.50497 0.360186,-5.13574 0.811036,-0.63076 2.793294,-1.26153 3.063522,-2.43275 0.270228,-1.17123 1.891947,-4.41466 2.702983,-4.59493 0.811036,-0.18027 1.801989,-0.36054 2.252486,-1.08127 0.450498,-0.72072 2.252486,-1.26153 3.423709,-1.71203 1.171222,-0.4505 2.072216,-0.99095 3.063522,-1.89195 0.990952,-0.90099 3.513666,-2.88325 4.59493,-2.52271 1.081264,0.36019 2.162528,-0.36054 2.342797,0.27023 0.179917,0.63077 0.720725,0.81103 1.171223,1.71203" />
    <path
       id="path2792"
       style="fill:#09add0;fill-opacity:1;fill-rule:nonzero;stroke:none;stroke-width:0.0352777"
       d="m 32.5226,130.49632 c -0.339372,0.11817 -0.574675,-0.46567 -0.929217,-0.68545 -0.174625,-0.1083 -0.572911,-0.46884 -0.842433,-0.70485 -1.228019,-1.07386 -2.497666,-2.18475 -4.262261,-2.18475 -0.162983,0 -0.327378,0.0102 -0.487892,0.0303 -0.0568,0.007 -0.11183,0.0318 -0.163336,0.0226 -0.295275,-0.0533 -0.780344,-0.49919 -0.907697,-0.8689 -0.102658,-0.29704 -0.02469,-0.65652 -0.04586,-1.04034 -0.01799,-0.33056 -0.290689,-0.92746 -0.05539,-1.33632 0.706967,-1.22802 2.899833,-1.81857 3.425825,-3.92536 0.106186,-0.4251 0.421569,-1.71415 1.047397,-2.18864 0.804686,-0.6103 1.961797,-1.00824 3.103739,-1.90817 0.305858,-0.2406 0.980016,-0.39547 1.347611,-0.52917 0.249767,-0.0907 0.490008,-0.17886 0.709789,-0.26352 1.60408,-0.61736 2.890308,-1.41076 4.169833,-2.57387 0.700617,-0.63676 1.50495,-1.44462 2.094794,-1.55646 0.131939,-0.0251 0.302684,-0.049 0.403225,0.0423 0.829028,0.75213 1.004359,3.37327 0.570089,4.57941 -0.201083,0.5588 -1.053394,0.99483 -1.61043,1.41252 -0.417689,0.31292 -0.765881,0.61842 -1.045634,0.86431 -0.06703,0.0589 -0.129822,0.14993 -0.217311,0.18979 -1.54693,0.7038 -2.478616,1.3716 -2.760486,1.88878 -0.424391,0.77928 -0.247297,1.83021 -0.02469,3.45475 0.02646,0.19367 -0.06773,0.39264 -0.102658,0.60184 -0.05433,0.32385 -0.04304,0.89323 -0.224014,1.2132 -0.07161,0.12665 -0.218017,0.20673 -0.310445,0.29316 -0.674158,0.63253 -1.439333,1.34973 -1.956858,2.17805 -0.447675,0.71614 0.28963,2.5714 -0.925689,2.99473" />
    <path
       id="path2794"
       style="fill:#1fbfdf;fill-opacity:1;fill-rule:nonzero;stroke:none;stroke-width:0.0352777"
       d="m 33.195347,144.32873 c -0.08819,0.99131 -0.811389,1.53106 -2.702277,2.07081 -1.890889,0.53975 -1.622778,0.89958 -1.622778,1.89089 0,0.9913 -0.53975,1.53458 -1.439333,2.07433 -0.903112,0.53975 0.719666,1.35114 -0.903112,1.71097 -1.619249,0.35983 -2.070805,0.53975 -4.504972,-0.35983 -0.483305,-0.17639 -1.037166,-0.38806 -1.612194,-0.62089 v -22.70478 c 0.377472,0.13053 0.723194,0.36336 0.98425,0.70909 0.807861,1.08302 1.259417,2.7058 2.610555,2.97391 1.351139,0.27164 3.965223,1.17122 4.236861,2.25425 0.268112,1.0795 0.807862,2.70228 1.531056,2.8822 0.719667,0.17991 2.610555,1.17122 3.242028,1.98261 0.631472,0.81139 -0.179917,0.27164 -0.268111,1.53105 -0.09172,1.26295 0.539749,2.61409 0.448027,3.60539" />
    <path
       id="path2796"
       style="fill:#09add0;fill-opacity:1;fill-rule:nonzero;stroke:none;stroke-width:0.0352777"
       d="m 29.448847,143.03051 c -0.931333,1.54869 -2.677583,1.89089 -4.106333,4.48733 -0.257528,0.4692 -0.60325,1.00189 -1.146528,1.21003 -0.215194,0.0811 -0.525638,-0.16581 -0.945444,-0.32103 -1.128889,-0.41628 -2.102556,-0.69144 -2.839861,-0.95603 v -12.69294 c 0.119944,-0.15169 0.282222,-0.28222 0.497417,-0.38453 0.740833,-0.34572 1.411111,0.95956 2.405944,1.16064 0.585611,0.11642 1.425222,0.19403 1.760361,0.57503 1.27,1.45344 1.615722,3.82764 3.77825,4.50497 0.09525,0.0317 0.278694,0.0282 0.359833,0.16228 0.433917,0.72319 0.5715,1.69686 0.236361,2.25425" />
    <path
       id="path2798"
       style="fill:#1fbfdf;fill-opacity:1;fill-rule:nonzero;stroke:none;stroke-width:0.0352777"
       d="m 45.359125,103.2407 c 0.09172,0.90311 -0.811389,2.07434 -1.890889,2.25425 -1.083028,0.17992 -1.442861,0.81139 -2.342445,0.53975 -0.903111,-0.26811 -1.802694,-0.0882 -3.153833,0.71967 -1.351139,0.81139 -2.162527,0.36336 -3.693583,1.53458 -1.531055,1.17123 -3.785305,3.06212 -5.044722,3.24203 -1.262944,0.17992 -2.614083,1.89089 -3.605389,3.15384 -0.991305,1.26294 -1.622778,3.06211 -2.702278,3.7853 -0.903111,0.59972 -1.42875,1.51342 -2.515305,2.10961 v -11.3418 c 0.05997,-0.0811 0.116417,-0.15523 0.172861,-0.22931 1.61925,-2.07081 1.982611,-5.67619 2.342444,-6.84742 0.359834,-1.17122 3.601861,-2.434163 5.316361,-3.15383 1.788584,-0.751417 6.847417,-1.982611 7.747,-1.890889 0.899583,0.08819 2.702278,-0.991305 3.242028,-0.991305 0.543278,0 1.7145,0.899583 3.065639,1.171222 1.351139,0.268111 4.325055,0.179916 4.233333,0.991305 -0.08819,0.811389 -1.259417,4.053417 -1.171222,4.952997" />
    <path
       id="path2800"
       style="fill:#09add0;fill-opacity:1;fill-rule:nonzero;stroke:none;stroke-width:0.0352777"
       d="m 21.716664,114.2262 c -1.132064,-0.56867 1.101372,-2.34985 1.643945,-3.04341 1.742722,-2.22673 2.368902,-5.27756 2.742847,-7.10071 0.01517,-0.0748 0,-0.17039 0.04904,-0.23918 0.536575,-0.7546 2.352322,-1.1229 3.004255,-1.39489 0.652286,-0.27164 -0.893939,0.37853 0.453319,-0.18909 1.346906,-0.56726 5.246865,-1.5882 6.266392,-1.61572 0.07373,-0.002 0.148873,0.005 0.225425,0.005 1.114425,0 2.093384,-0.781754 3.045178,-0.756707 0.705908,0.0187 1.482372,0.668517 2.45745,0.862897 0.188383,0.0378 0.471311,-0.0705 0.583847,0.097 0.297745,0.44273 -0.01588,1.07668 -0.293511,1.40758 -0.142875,0.17075 -0.386292,0.1905 -0.561622,0.21131 -0.329495,0.0392 -0.656872,-0.0804 -0.985309,-0.0804 -1.753658,0 -3.231797,0.76447 -4.190647,1.34021 -0.09878,0.0593 -0.148519,0.0773 -0.553508,0.17074 -0.79763,0.18486 -2.003425,0.4639 -3.468864,1.58397 -0.230011,0.17604 -0.475544,0.3676 -0.731661,0.56692 -0.733425,0.57185 -2.202392,1.81645 -2.857147,2.01753 -2.49555,0.76553 -4.369153,2.75238 -5.691717,4.43548 -0.452966,0.57644 -0.570089,2.0066 -1.137708,1.7212" />
    <path
       id="path2802"
       style="fill:#1fbfdf;fill-opacity:1;fill-rule:nonzero;stroke:none;stroke-width:0.0352777"
       d="m 126.24401,128.39023 v 22.70478 c -2.33186,-0.93839 -5.05531,-2.22603 -5.05531,-3.16442 0,-1.17122 1.17123,-9.54969 1.7145,-10.541 0.53975,-0.9913 0.17992,-4.14514 0.35984,-5.13644 0.17991,-0.99131 0.35983,-2.8822 0.81139,-3.42195 0.44802,-0.53975 1.3723,-0.71966 2.16958,-0.44097" />
    <path
       id="path2804"
       style="fill:#09add0;fill-opacity:1;fill-rule:nonzero;stroke:none;stroke-width:0.0352777"
       d="m 126.24401,134.75787 v 12.69294 c -0.71614,-0.25752 -1.21003,-0.50094 -1.39347,-0.85725 -1.0795,-2.08138 0.85725,-6.67455 1.26647,-7.75052 0.41275,-1.07598 -0.67381,-3.06917 0.127,-4.08517" />
    <path
       id="path2806"
       style="fill:#1fbfdf;fill-opacity:1;fill-rule:nonzero;stroke:none;stroke-width:0.0352777"
       d="m 126.24401,109.23793 v 11.3418 c -0.21872,0.12347 -0.45861,0.23284 -0.73025,0.32103 -1.61925,0.53975 -1.98261,-1.61925 -2.43064,-3.06211 -0.43744,-1.39347 1.56281,-6.39233 3.16089,-8.60072" />
    <path
       id="path2808"
       style="fill:#1fbfdf;fill-opacity:1;fill-rule:nonzero;stroke:none;stroke-width:0.0352777"
       d="m 70.587675,84.681771 c -0.254707,1.019175 2.432756,2.072216 3.874558,2.342444 1.44145,0.270228 5.766152,0.900995 6.21665,1.891947 0.450495,0.991306 2.162527,3.694289 3.06352,4.054475 0.900997,0.360539 2.792942,0.811036 2.883255,1.531761 0.08996,0.720725 0.270227,2.432755 0.990952,2.883253 0.720725,0.450497 2.522715,0.540455 2.97321,1.081263 0.450498,0.540456 0.36054,2.072216 1.081265,2.072216 0.720725,0 2.522715,-0.4505 3.69429,-0.36054 1.17122,0.0903 2.432401,0.72108 2.8829,0 0.450495,-0.720723 1.712028,-1.17122 2.973565,-1.17122 1.26118,0 1.71168,-0.08996 2.79294,-1.531761 1.08126,-1.44145 -1.17122,-3.783894 -1.98226,-4.865158 -0.81068,-1.081264 -0.4505,-4.144786 -0.99095,-5.135739 -0.54081,-0.990952 -2.162529,-0.900994 -3.42371,-1.621719 -1.261534,-0.720725 -6.6675,-2.702983 -7.388225,-2.522714 -0.720725,0.179917 -3.69429,0.360186 -4.955469,0.540456 -1.261533,0.180269 -1.8923,-0.990953 -2.973213,-1.351492 -1.081262,-0.360539 -1.982258,-1.081264 -3.42406,-0.990953 -1.44145,0.08996 -4.504973,1.531409 -5.586235,1.711678 -1.08091,0.18027 -2.612673,1.081264 -2.702983,1.441803" />
    <path
       id="path2810"
       style="fill:#09add0;fill-opacity:1;fill-rule:nonzero;stroke:none;stroke-width:0.0352777"
       d="m 96.69217,96.809212 c -0.316087,0.06809 -0.6731,-0.118181 -1.05692,-0.147814 -0.192265,-0.01482 -0.394407,-0.02223 -0.604309,-0.02223 -0.455083,0 -0.959908,0.281517 -1.361016,0.08537 -0.18274,-0.08925 -0.2286,-0.346428 -0.369713,-0.515761 -0.890762,-1.068211 -2.433109,-0.944386 -3.118554,-1.708503 -0.08961,-0.09984 -0.03281,-0.251178 -0.04233,-0.328789 -0.0095,-0.07726 0.331258,2.648656 -0.01304,-0.106186 -0.344311,-2.755194 -2.974621,-3.646663 -4.544836,-4.183591 -0.0441,-0.01517 -0.09278,-0.01905 -0.129823,-0.0441 -0.6096,-0.411339 -1.309862,-1.829153 -1.561041,-2.38125 -0.02787,-0.06174 -0.129117,-0.129117 -0.08784,-0.181681 0.236008,-0.299861 0.775406,0.142523 1.213204,0.142523 0.250825,0 0.505529,-0.01834 0.757061,-0.05397 0.453673,-0.06491 1.285523,-0.1397 2.089856,-0.212373 1.109837,-0.100189 1.899354,-0.289277 2.50331,-0.261761 1.339498,0.06138 4.727223,1.586795 5.501923,2.027061 0.718609,0.408164 1.629127,0.349603 2.009775,0.820561 0.04163,0.05151 0.0099,0.129823 0.0141,0.189089 0.115358,1.58115 0.24765,3.372908 1.318331,4.801305 0.13476,0.179211 0.301977,0.388761 0.488244,0.619831 0.05221,0.06526 0.231068,0.128411 0.18909,0.235655 -0.404284,1.032228 -2.052815,0.980017 -3.195463,1.226609" />
    <path
       id="path2812"
       style="fill:#1fbfdf;fill-opacity:1;fill-rule:nonzero;stroke:none;stroke-width:0.0352777"
       d="m 92.48212,101.6204 c -0.432858,0.37076 0.08996,3.78424 -0.630767,4.50497 -0.720725,0.72072 -2.432753,1.26153 -2.792941,1.80199 -0.360537,0.54045 -0.09031,2.43275 -0.811036,2.97321 -0.720725,0.54081 -1.891948,1.35149 -2.162526,1.8923 -0.27023,0.54045 -0.990955,2.70298 -1.44145,3.06317 -0.450499,0.36054 1.44145,3.06352 2.613025,3.24379 1.17122,0.17991 6.30696,0.72072 7.027685,1.44145 0.720725,0.72072 1.261181,1.08126 2.97321,1.17122 1.712031,0.0903 2.522715,1.26153 3.60398,1.4418 1.08126,0.17992 2.25248,-1.98226 3.33375,-3.06352 1.08126,-1.08126 1.71203,-0.18027 1.98226,-1.35149 0.27022,-1.17122 1.71167,-1.08126 1.89194,-1.89195 0.18027,-0.81103 -1.08126,-1.26153 -0.36018,-2.43275 0.72072,-1.17122 2.52271,-3.96452 2.52271,-4.7752 0,-0.81104 -1.8923,-3.33375 -2.25249,-4.77556 -0.36053,-1.44145 -1.08126,-3.60397 -1.4418,-3.8742 -0.36018,-0.27023 -2.43275,-0.4505 -4.05447,-0.18027 -1.62172,0.27023 -4.144435,1.35149 -4.95547,0.9913 -0.810684,-0.36053 -4.414663,-0.72107 -5.04543,-0.18026" />
    <path
       id="path2814"
       style="fill:#09add0;fill-opacity:1;fill-rule:nonzero;stroke:none;stroke-width:0.0352777"
       d="m 100.47642,119.02292 c -0.829735,0.18239 -1.760717,-0.76658 -3.033537,-0.83361 -0.29563,-0.0155 -0.485071,-0.0106 -0.575733,-0.0557 -0.02928,-0.0145 -0.05292,-0.0508 -0.0889,-0.0871 -1.218849,-1.22202 -5.611638,1.96779 -8.084963,-2.31211 -0.137936,-0.23847 0.213431,-0.52458 0.326321,-0.81103 0.03563,-0.0903 0.05045,-0.18662 0.100542,-0.25612 0.195085,-0.27023 0.662162,-0.51364 0.906285,-0.69391 0.244475,-0.18027 -1.037519,0.78069 0.337608,-0.25047 1.375127,-1.03118 1.260827,-2.7492 1.89865,-3.6636 0.433917,-0.62265 1.440744,-0.79658 2.083152,-1.43934 1.009298,-1.00894 0.388408,-2.79999 1.410758,-3.61914 0.169334,-0.13582 0.389822,0.0557 0.494597,0.0893 0.53481,0.17039 1.097137,0.3108 1.712028,0.3108 1.113015,0 2.263422,-0.33479 3.481562,-0.68933 0.57574,-0.16722 1.22802,-0.35701 1.6189,-0.42228 0.29633,-0.0494 0.73872,-0.30974 1.05375,-0.0847 0.39546,0.28258 0.30938,0.99625 0.4392,1.51518 0.29669,1.18745 0.96626,2.36679 1.61467,3.50732 0.0783,0.13794 0.26,0.27623 0.2607,0.46179 0.004,0.93803 -1.15499,1.95509 -1.43933,2.41229 -0.28434,0.4572 0.1785,-0.29351 -0.28822,0.46461 -0.46673,0.75812 -0.30163,1.86901 -0.70767,3.07763 -0.0977,0.29104 -0.34925,0.53869 -0.61313,0.76588 -0.44379,0.38277 -1.10525,0.60925 -1.6831,1.1871 -0.45332,0.45297 -0.62689,1.2954 -1.22414,1.42663" />
    <path
       id="path2816"
       style="fill:#1fbfdf;fill-opacity:1;fill-rule:nonzero;stroke:none;stroke-width:0.0352777"
       d="m 108.70002,117.92825 c 0.82197,-0.23459 2.34244,2.16253 2.43276,3.69429 0.09,1.53176 0.36018,5.2257 1.35149,6.21665 0.99095,0.99131 1.35149,1.80199 2.43275,2.97357 1.08091,1.17122 1.44145,4.05447 1.89195,5.13573 0.4505,1.08091 0.54046,3.60398 0.4505,4.14444 -0.09,0.54045 -0.54046,0.18027 -2.16253,-0.27023 -1.62172,-0.4505 -0.81069,-1.8923 -1.80199,-2.3428 -0.99095,-0.4505 -1.08091,0.81104 -2.07222,0.4505 -0.99095,-0.36019 -0.63076,-2.34245 -1.71168,-1.98191 -1.08126,0.36019 -3.06352,-1.35184 -3.78424,-2.43275 -0.72108,-1.08126 -2.43276,-2.3428 -1.8923,-3.24379 0.54081,-0.901 -1.26118,-1.98226 -1.44145,-2.79294 -0.18027,-0.81104 0.27023,-3.51402 0.36018,-4.05448 0.0903,-0.54081 2.16253,-1.08126 2.97357,-1.8923 0.81068,-0.81068 1.71168,-3.24344 2.97321,-3.60398" />
    <path
       id="path2818"
       style="fill:#09add0;fill-opacity:1;fill-rule:nonzero;stroke:none;stroke-width:0.0352777"
       d="m 112.37455,133.36616 c -1.00259,0.70732 -1.93922,-0.98919 -2.62325,-0.98919 -0.0815,0 -0.16616,0.0307 -0.24448,0.007 -0.3683,-0.11042 -0.69179,-0.59619 -0.8449,-0.8255 -0.35701,-0.53587 -0.77329,-0.99942 -1.14018,-1.40829 -0.0152,-0.0169 -0.0388,-0.03 -0.0473,-0.0529 -0.40534,-1.12536 -1.05657,-2.12513 -1.56316,-3.72498 -0.0656,-0.20743 -0.11571,-0.56444 0.0956,-0.86077 0.38171,-0.53446 1.11725,-1.41147 1.82316,-1.1296 2.82963,1.12995 1.02905,4.82106 2.15935,5.95136 0.33091,0.33126 0.56374,0.64629 0.88583,1.08303 0.34642,0.4699 0.84878,0.9906 1.3917,1.72614 0.0406,0.0547 0.18592,0.16792 0.1076,0.22331" />
    <path
       id="path2820"
       style="fill:#1fbfdf;fill-opacity:1;fill-rule:nonzero;stroke:none;stroke-width:0.0352777"
       d="m 111.94346,108.82835 c -0.21731,0.96697 0.0903,2.52272 -0.4505,2.97321 -0.54046,0.4505 0.27058,-0.09 -0.54046,0.4505 -0.81103,0.54081 -1.17122,2.61302 -1.17122,3.69429 0,1.08091 0.81069,2.07222 1.80199,2.4324 0.99096,0.36054 1.98226,2.16253 2.70298,4.23474 0.72073,2.07222 0.78776,3.39161 0.99096,4.7752 0.22119,1.50601 1.80869,4.68101 2.69063,5.56296 0.88195,0.88194 4.23334,-1.41111 4.40973,-2.11667 0.17638,-0.70555 1.5875,-4.05694 2.11666,-5.29166 0.52917,-1.23473 -0.35278,-3.175 -1.41111,-4.23334 -1.05833,-1.05833 -1.76389,-5.82083 -1.41111,-6.70278 0.35278,-0.88194 1.94028,-4.05694 2.82222,-5.46805 0.88195,-1.41111 -2.99861,-3.175 -4.40972,-3.52778 -1.41111,-0.35278 -5.46806,0.35278 -5.99722,0.52917 -0.52917,0.17639 -1.99425,2.02424 -2.14383,2.68781" />
    <path
       id="path2822"
       style="fill:#09add0;fill-opacity:1;fill-rule:nonzero;stroke:none;stroke-width:0.0352777"
       d="m 119.4227,128.60366 c -0.76623,0.0293 -0.60078,-1.38112 -0.65581,-1.73108 -0.0367,-0.23495 -0.0649,-0.47201 -0.096,-0.7119 -0.15487,-1.19275 -0.34714,-2.67688 -1.05269,-4.70606 -1.12042,-3.22086 -3.36797,-4.39279 -4.25168,-6.13728 -0.0928,-0.18344 0.0289,-0.42227 0.11677,-0.5595 0.073,-0.11465 0.19756,-0.17956 0.29104,-0.26529 1.5106,-1.38783 1.58433,-3.21486 1.60055,-4.34305 10e-4,-0.0924 -0.0275,-0.21272 0.006,-0.31397 0.0522,-0.1591 0.17498,-0.34466 0.33373,-0.4378 0.75883,-0.44344 2.32234,-0.35595 3.28648,-0.35595 0.15311,0 0.248,10e-4 0.29351,0.01 0.26494,0.0476 0.8576,0.003 0.98601,0.38312 0.54752,1.61678 -1.60549,3.16618 -1.88418,3.86256 -0.90276,2.25707 0.17603,8.49172 2.19216,10.50749 0.20673,0.20673 0.48789,0.51893 0.48366,0.7687 -0.024,1.4799 -0.43498,3.98392 -1.64959,4.03049" />
    <path
       id="path2824"
       style="fill:#1fbfdf;fill-opacity:1;fill-rule:nonzero;stroke:none;stroke-width:0.0352777"
       d="m 117.96784,136.47943 c 0.1517,-1.06222 1.23473,-2.11667 2.11667,-2.46945 0.88194,-0.35278 2.82222,0.70556 2.29306,1.94028 -0.52917,1.23472 -1.23473,4.58611 -1.41112,5.82083 -0.17638,1.23472 -0.88194,6.17361 -0.88194,7.40834 0,1.23472 -2.46944,2.82222 -2.99861,2.29305 -0.52917,-0.52917 1.05833,-5.64444 1.05833,-7.23194 0,-1.5875 -0.35278,-6.52639 -0.17639,-7.76111" />
    <path
       id="path2826"
       style="fill:#1fbfdf;fill-opacity:1;fill-rule:nonzero;stroke:none;stroke-width:0.0352777"
       d="m 126.24401,152.42145 v 21.88281 c -2.55411,1.22414 -5.75028,2.62466 -6.68867,2.39183 -1.41111,-0.35278 -7.76111,-3.70417 -7.40833,-5.64444 0.35278,-1.94028 2.11667,-4.7625 4.05694,-5.82084 1.94028,-1.05833 2.64584,-3.70416 2.99862,-4.23333 0.35277,-0.52917 0.70555,-4.05694 0.17638,-5.82083 -0.52916,-1.76389 2.02495,-3.75709 3.52778,-3.88056 1.04775,-0.0882 2.2225,0.51506 3.33728,1.12536" />
    <path
       id="path2828"
       style="fill:#09add0;fill-opacity:1;fill-rule:nonzero;stroke:none;stroke-width:0.0352777"
       d="m 124.78351,155.64584 c 0.41981,0.23284 0.94544,0.3422 1.4605,0.47272 v 14.26281 c -3.83117,1.92969 -5.48569,2.77989 -6.23358,2.73403 -1.19592,-0.0776 -3.75709,-1.13595 -4.03931,-2.41653 -0.23283,-1.05481 1.30175,-2.032 1.92264,-2.37067 2.57175,-1.40405 3.70417,-4.03577 4.24744,-5.30225 0.0459,-0.1023 0.0811,-0.19755 0.11995,-0.27164 0.90311,-1.77094 -0.11995,-5.54213 0.6985,-7.70819 0.0388,-0.0988 0.16228,-0.17286 0.26458,-0.17992 0.43039,-0.0423 1.11125,0.5327 1.55928,0.77964" />
    <path
       id="path2830"
       style="fill:#1fbfdf;fill-opacity:1;fill-rule:nonzero;stroke:none;stroke-width:0.0352777"
       d="m 105.12956,181.79162 c 1.55751,-1.10173 5.1375,-4.10987 5.68818,-5.19113 0.55034,-1.08162 1.10102,-3.2445 2.75238,-1.94663 1.65135,1.29752 4.77061,3.677 6.23852,4.32576 1.46791,0.64876 2.56893,1.29787 2.56893,2.37949 0,1.08127 -2.01824,0 -4.40373,0.64876 -2.38548,0.64876 -5.93231,2.07998 -7.76711,1.21461 -1.83479,-0.86501 -1.59103,-0.13299 -3.79271,0.29951 -2.20204,0.43251 -3.11961,-0.4325 -1.28446,-1.73037" />
    <path
       id="path2832"
       style="fill:#09add0;fill-opacity:1;fill-rule:nonzero;stroke:none;stroke-width:0.0352777"
       d="m 112.76825,179.81817 c -0.18591,-0.32385 0.35137,-0.76517 0.67628,-0.81174 0.27728,-0.0395 0.68827,0.22648 0.64346,0.47661 -0.084,0.46496 -1.10913,0.70167 -1.31974,0.33513" />
    <path
       id="path2834"
       style="fill:#1fbfdf;fill-opacity:1;fill-rule:nonzero;stroke:none;stroke-width:0.0352777"
       d="m 126.24401,176.34331 v 3.10445 c -0.89958,0.0247 -1.74978,-0.003 -2.45533,-0.10584 -2.46945,-0.35277 -1.21709,-1.62277 -0.88195,-2.29305 0.17639,-0.35278 2.10256,-0.70203 3.33728,-0.70556" />
    <path
       id="path2836"
       style="fill:#1fbfdf;fill-opacity:1;fill-rule:nonzero;stroke:none;stroke-width:0.0352777"
       d="m 103.32757,87.619704 c 0,1.5875 -0.52917,2.998611 0,4.056944 0.52916,1.058333 2.29305,3.175 2.29305,4.586111 0,1.411111 -0.5147,3.024011 1.62243,3.315758 1.55257,0.21202 2.78729,1.623133 2.08174,3.034243 -0.70556,1.41111 0.70555,0.52917 0.88194,1.76389 0.17639,1.23472 1.23472,1.23472 3.88056,0.52916 2.64583,-0.70555 4.93889,0.35278 4.93889,-0.70555 0,-1.05833 -1.05834,-7.231945 -0.17639,-8.11389 0.88194,-0.881944 -1.41111,-5.291666 -2.99861,-5.997222 -1.5875,-0.705555 -4.23334,-0.352777 -5.11528,-2.998611 -0.88195,-2.645833 -1.23472,-2.293055 -2.99861,-1.763888 -1.76389,0.529166 -2.64583,-0.529167 -3.70417,0 -1.05833,0.529166 -0.70555,2.293055 -0.70555,2.293055" />
    <path
       id="path2838"
       style="fill:#09add0;fill-opacity:1;fill-rule:nonzero;stroke:none;stroke-width:0.0352777"
       d="m 113.05012,101.53114 c -0.62124,-0.45896 -0.24377,-1.535639 -0.62018,-2.248956 -0.68968,-1.306336 -2.43452,-1.588206 -3.2833,-2.839861 -0.0332,-0.04868 0.002,-0.118533 0.002,-0.179564 0,-2.043289 -1.19345,-3.874558 -2.15265,-5.345994 -0.11677,-0.179211 -0.31997,-0.37465 -0.36901,-0.573617 -0.0473,-0.191205 0.0483,-0.474133 0.0751,-0.694619 0.0243,-0.197556 -0.0963,-0.486833 0.0744,-0.64135 0.22154,-0.201436 0.63429,-0.212019 0.89923,-0.06597 3.04976,1.685572 4.42736,3.837869 5.92067,4.165952 0.20426,0.0448 0.48189,0.05362 0.64311,0.150283 0.45932,0.27552 1.12289,1.199445 1.13559,1.8796 0.0275,1.476728 1.56422,3.899253 -0.20672,6.022266 -0.44909,0.53799 -1.35608,0.16863 -1.99002,0.33797 -0.0437,0.0116 -0.0935,0.0593 -0.12806,0.0339" />
    <path
       id="path2840"
       style="fill:#1fbfdf;fill-opacity:1;fill-rule:nonzero;stroke:none;stroke-width:0.0352777"
       d="m 107.73729,83.033593 c -0.70556,1.5875 -2.29306,0.705556 -3.52778,0.705556 -1.23472,0 -1.5875,1.058333 -2.82222,1.763888 -1.23472,0.705556 -3.174999,-1.058333 -4.762499,-1.411111 -1.185333,-0.264583 -4.289779,-1.661583 -5.453946,-2.681111 h 16.520585 c 0.21166,0.564445 0.26105,1.135945 0.0459,1.622778" />
    <path
       id="path2842"
       style="fill:#1fbfdf;fill-opacity:1;fill-rule:nonzero;stroke:none;stroke-width:0.0352777"
       d="M 107.69143,187.24415 H 91.170845 c -0.39511,-0.34572 -0.56797,-0.64558 -0.366887,-0.84667 1.41111,-1.41111 12.700002,-2.29305 14.111112,-1.94027 0.97719,0.24341 2.29658,1.50636 2.77636,2.78694" />
    <path
       id="path2844"
       style="fill:#1fbfdf;fill-opacity:1;fill-rule:nonzero;stroke:none;stroke-width:0.0352777"
       d="m 126.24401,81.410815 v 5.542139 c -0.62442,-0.02117 -1.18533,-0.02822 -1.57339,0.137583 -1.23472,0.529167 -4.7625,2.116667 -6.70278,1.5875 -1.94027,-0.529166 -3.88055,-0.881944 -5.46805,-1.5875 -1.5875,-0.705555 -1.76389,-2.822222 -2.99861,-3.704166 -1.01953,-0.73025 0.43391,-1.245306 1.31233,-1.975556 h 15.4305" />
    <path
       id="path2846"
       style="fill:#09add0;fill-opacity:1;fill-rule:nonzero;stroke:none;stroke-width:0.0352777"
       d="m 121.1252,81.410815 c -3.10091,0.388056 -6.27591,1.118306 -7.24252,1.897945 -0.0176,0.01764 -0.0459,0.03528 -0.0494,0.05997 0,0.0071 0.003,0.01058 0.007,0.01764 0.0953,0.176389 0.18697,0.462139 0.32455,0.578555 0.68086,0.567972 1.87677,0.589139 2.99155,0.864306 0.55033,0.137583 1.09714,0.342194 1.67217,0.426861 0.0106,0.0035 0.0212,0 0.0353,0 0.762,0 2.18369,-0.4445 4.22275,-1.326445 0.0176,-0.0071 0.0353,-0.01411 0.0494,-0.02117 0.0177,-0.0071 0.0388,-0.01764 0.067,-0.02822 0.004,0 0.007,0 0.0106,-0.0035 0.0177,-0.01058 0.0353,-0.01764 0.0529,-0.02117 0.004,-0.0035 0.0106,-0.0071 0.0212,-0.01058 0.0177,-0.0071 0.0318,-0.01411 0.0494,-0.02117 0.88195,-0.363361 1.74978,-0.409222 2.40947,-0.409222 0.15875,0 0.32809,0.0035 0.49742,0.0071 V 81.41088 h -5.11881" />
    <path
       id="path2848"
       style="fill:#1fbfdf;fill-opacity:1;fill-rule:nonzero;stroke:none;stroke-width:0.0352777"
       d="m 126.24401,183.45532 v 3.78883 h -15.4305 c 0.18697,-0.15522 0.34572,-0.3175 0.45156,-0.49389 0.92427,-1.54164 10.75972,-3.62655 14.97894,-3.29494" />
    <path
       id="path2850"
       style="fill:#09add0;fill-opacity:1;fill-rule:nonzero;stroke:none;stroke-width:0.0352777"
       d="m 125.25976,186.94782 c -1.19592,0 -2.65642,0.10936 -4.13456,0.29633 h 5.11881 v -0.24694 c -0.15169,-0.0494 -0.46567,-0.0494 -0.98425,-0.0494" />
    <path
       id="path2852"
       style="fill:#1fbfdf;fill-opacity:1;fill-rule:nonzero;stroke:none;stroke-width:0.0352777"
       d="M 126.24401,87.887815 V 100.8524 c -2.25072,-0.0988 -6.08189,-1.153586 -6.33589,-2.296586 -0.35278,-1.587499 1.41111,-1.763888 1.05833,-3.351388 -0.35277,-1.5875 -2.82222,-2.293056 -2.29305,-4.056944 0.32103,-1.068917 1.41111,-1.234722 3.88055,-1.5875 2.34598,-0.335139 1.50637,-2.102556 3.69006,-1.672167" />
    <path
       id="path2854"
       style="fill:#09add0;fill-opacity:1;fill-rule:nonzero;stroke:none;stroke-width:0.0352777"
       d="m 126.24401,91.57787 v 5.669139 c -0.0917,0.01411 -0.17992,0.03175 -0.25753,0.05644 -0.50094,0.144639 -1.36525,0.186973 -1.64747,-0.299861 -0.36336,-0.638527 0.29281,-1.562805 0.0706,-2.564694 -0.13053,-0.585611 -0.79728,-1.065389 -0.5962,-1.534583 0.45861,-1.072445 1.68628,-1.153584 2.43064,-1.326445" />
    <path
       id="path2856"
       style="fill:#1fbfdf;fill-opacity:1;fill-rule:nonzero;stroke:none;stroke-width:0.0352777"
       d="m 126.24401,102.04479 v 4.62844 c -0.32456,0.57503 -0.78669,0.49389 -2.27894,-0.3563 -2.46945,-1.41112 -3.175,-1.76389 -3.70417,-2.82223 -0.52917,-1.05833 -0.88195,-1.76389 -0.17639,-2.29305 0.70556,-0.52917 4.23333,0.52916 5.46806,0.70555 0.23988,0.0353 0.47625,0.0741 0.69144,0.13759" />
    <path
       id="path2858"
       style="fill:#1fbfdf;fill-opacity:1;fill-rule:nonzero;stroke:none;stroke-width:0.0352777"
       d="m 31.008125,167.17109 c -0.881944,1.5875 -5.820833,4.7625 -7.584722,5.64445 -0.592667,0.29633 -1.721555,0.87136 -3.012722,1.48872 v -21.88281 c 1.139472,0.62442 2.211917,1.25589 3.012722,1.1677 1.5875,-0.17639 2.645833,1.76389 2.293056,3.175 -0.352778,1.41111 2.822222,3.175 3.880555,4.40972 1.058333,1.23472 2.293056,4.40972 1.411111,5.99722" />
    <path
       id="path2860"
       style="fill:#09add0;fill-opacity:1;fill-rule:nonzero;stroke:none;stroke-width:0.0352777"
       d="m 27.773153,165.59065 c -0.370417,1.07597 -2.716389,2.42358 -4.515555,3.35844 -0.0035,0 -0.0071,0.003 -0.0071,0.003 -0.0035,0 -0.0071,0.004 -0.01411,0.007 -0.01764,0.0106 -0.04939,0.0247 -0.09172,0.0459 -0.01058,0.007 -0.02469,0.0141 -0.04233,0.0212 -0.448028,0.23284 -0.853723,0.43392 -1.181806,0.5962 -0.02469,0.0141 -0.04939,0.0282 -0.07408,0.0388 -0.02469,0.0141 -0.04939,0.0247 -0.07408,0.0353 -0.0035,0.004 -0.0071,0.004 -0.01058,0.004 -0.02469,0.0141 -0.04939,0.0247 -0.07408,0.0388 -0.0071,0.004 -0.01411,0.007 -0.02117,0.0106 -0.0071,0.004 -0.01764,0.007 -0.02822,0.0141 -0.0035,0.004 -0.0071,0.004 -0.01058,0.004 -0.0035,0.003 -0.0071,0.003 -0.01058,0.007 -0.0035,0 -0.0035,0 -0.0035,0 -0.0071,0.007 -0.01411,0.007 -0.01764,0.0106 -0.0035,0.004 -0.01058,0.004 -0.01411,0.007 -0.0035,0.004 -0.0071,0.004 -0.01058,0.007 -0.0071,0 -0.0071,0.003 -0.01058,0.003 -0.03528,0.0177 -0.07056,0.0353 -0.105833,0.0529 -0.363359,0.18337 -0.712609,0.35975 -1.04422,0.52556 v -14.26281 c 0.663222,0.16581 1.319389,0.36337 1.742722,0.889 1.601611,1.98262 2.204861,4.34623 3.739444,5.588 0.34925,0.28223 0.878417,0.70556 1.026584,0.87842 0.328083,0.37042 1.061861,1.50636 0.853722,2.11667" />
    <path
       id="path2862"
       style="fill:#1fbfdf;fill-opacity:1;fill-rule:nonzero;stroke:none;stroke-width:0.0352777"
       d="m 34.712292,176.34331 c -1.940278,0 -6.173611,1.41111 -8.113889,2.11667 -1.382889,0.50447 -3.940528,0.91722 -6.187722,0.98778 v -3.10445 h 0.01411 c 1.234722,0 4.586111,-3.52777 6.702778,-4.93889 2.116666,-1.41111 3.880555,-2.11666 5.115277,-1.23472 1.234722,0.88195 3.527778,2.46945 5.115278,4.23334 1.5875,1.76388 -0.705556,1.94027 -2.645833,1.94027" />
    <path
       id="path2864"
       style="fill:#09add0;fill-opacity:1;fill-rule:nonzero;stroke:none;stroke-width:0.0352777"
       d="m 30.453911,173.53061 c -0.03916,-0.10547 0.182386,-0.12664 0.261056,-0.11782 0.02082,0.002 0.05574,0.0162 0.05151,0.037 -0.01976,0.10548 -0.275166,0.18203 -0.312561,0.0808" />
    <path
       id="path2866"
       style="fill:#1fbfdf;fill-opacity:1;fill-rule:nonzero;stroke:none;stroke-width:0.0352777"
       d="m 24.305348,85.503037 c -0.846667,1.573389 -2.525889,1.485195 -3.894667,1.449917 v -5.542139 h 4.145139 c 0.409222,1.42875 0.352778,2.970389 -0.250472,4.092222" />
    <path
       id="path2868"
       style="fill:#09add0;fill-opacity:1;fill-rule:nonzero;stroke:none;stroke-width:0.0352777"
       d="m 21.28557,83.43576 c -0.0247,0.02469 -0.06703,0.0035 -0.102306,0.0035 -0.194028,0 -0.384528,-0.0071 -0.5715,-0.01411 -0.06703,-0.0035 -0.134055,-0.0035 -0.201083,-0.0035 v -2.010834 h 0.303389 c 0.151694,0.197556 0.292805,0.497417 0.409222,0.843139 0.151694,0.462139 0.377472,0.977195 0.162278,1.181806" />
    <path
       id="path2870"
       style="fill:#1fbfdf;fill-opacity:1;fill-rule:nonzero;stroke:none;stroke-width:0.0352777"
       d="m 24.55582,187.24415 h -4.145139 v -3.78883 c 0.60325,0.0459 1.093611,0.14111 1.425222,0.29633 1.351139,0.63147 2.289528,2.00025 2.719917,3.4925" />
    <path
       id="path2872"
       style="fill:#09add0;fill-opacity:1;fill-rule:nonzero;stroke:none;stroke-width:0.0352777"
       d="m 20.71407,187.24415 h -0.303389 v -0.24694 c 0.01058,0 0.02117,0.004 0.02822,0.007 0.09525,0.0353 0.186972,0.11995 0.275167,0.23989" />
    <path
       id="path2874"
       style="fill:#1fbfdf;fill-opacity:1;fill-rule:nonzero;stroke:none;stroke-width:0.0352777"
       d="m 30.126181,96.968315 c -2.822222,0.881944 -7.761111,2.469444 -8.113889,3.527775 -0.09878,0.29634 -0.73025,0.39864 -1.601611,0.35631 V 87.887815 c 0.112889,0.02117 0.236361,0.04939 0.366889,0.08467 2.645833,0.705556 4.938889,-1.058333 6.702777,0 1.763889,1.058333 4.056945,2.998611 4.586111,4.762499 0.529167,1.763889 2.645834,1.058334 3.704167,2.116667 1.058333,1.058333 -2.822222,1.234722 -5.644444,2.116667" />
    <path
       id="path2876"
       style="fill:#09add0;fill-opacity:1;fill-rule:nonzero;stroke:none;stroke-width:0.0352777"
       d="m 28.676264,93.726287 c -1.912055,4.194527 -6.367639,3.182055 -8.265583,3.520722 V 91.57787 c 0.05292,-0.01411 0.105833,-0.02822 0.151694,-0.04233 0.500945,-0.144639 1.040695,0.137583 1.580445,0.137583 1.114778,0 2.0955,-0.194028 2.882194,-0.349249 0.321028,-0.0635 0.677334,-0.211667 0.910167,-0.15875 1.651,0.380999 2.970389,2.063749 2.741083,2.561166" />
    <path
       id="path2878"
       style="fill:#1fbfdf;fill-opacity:1;fill-rule:nonzero;stroke:none;stroke-width:0.0352777"
       d="m 21.130348,104.72943 c -0.34925,0.90663 -0.504473,1.56633 -0.719667,1.9438 v -4.62844 c 0.881944,0.25047 1.42875,0.83961 0.719667,2.68464" />
    <path
       id="path2880"
       style="fill:#1fbfdf;fill-opacity:1;fill-rule:nonzero;stroke:none;stroke-width:0.0352777"
       d="m 35.417847,84.621093 c -0.176389,2.116667 -0.881944,7.055555 -2.116666,6.702778 -1.234723,-0.352778 -1.763889,-2.998611 -3.175,-3.880556 -1.411111,-0.881944 -3.527778,-1.5875 -3.704167,-2.645833 -0.105833,-0.624417 0.0635,-2.12725 0.493889,-3.386667 h 7.856361 c 0.469194,0.896056 0.740833,2.053167 0.645583,3.210278" />
    <path
       id="path2882"
       style="fill:#1fbfdf;fill-opacity:1;fill-rule:nonzero;stroke:none;stroke-width:0.0352777"
       d="m 44.766458,87.443315 c 0,1.058333 1.940278,2.645833 0.176389,3.880556 -1.763889,1.234721 -2.116667,0.352777 -2.998611,1.587499 -0.881945,1.234722 -0.881945,2.116667 -3.351389,1.940278 -1.068917,-0.07761 -2.293055,-1.058333 -2.645833,-3.175 -0.352778,-2.116666 1.058333,-4.586111 1.234722,-6.526388 0.130528,-1.432278 0.740833,-3.062111 2.120194,-3.739445 h 4.131028 c 2.645833,0.486834 5.785556,1.446389 6.448777,2.504723 0.881946,1.411111 -5.115277,2.469444 -5.115277,3.527777" />
    <path
       id="path2884"
       style="fill:#1fbfdf;fill-opacity:1;fill-rule:nonzero;stroke:none;stroke-width:0.0352777"
       d="m 34.772264,187.24415 h -7.856361 c 0.299861,-0.87489 0.723194,-1.63336 1.27,-1.905 1.058333,-0.52917 3.880555,-0.17639 5.115278,0.35278 0.560916,0.23989 1.083027,0.80786 1.471083,1.55222" />
    <path
       id="path2886"
       style="fill:#1fbfdf;fill-opacity:1;fill-rule:nonzero;stroke:none;stroke-width:0.0352777"
       d="M 43.432958,187.24415 H 39.30193 c 0.486834,-0.23989 1.068917,-0.36336 1.760361,-0.3175 0.663223,0.0423 1.488723,0.15522 2.370667,0.3175" />
    <path
       id="path2888"
       style="fill:#1fbfdf;fill-opacity:1;fill-rule:nonzero;stroke:none;stroke-width:0.0352777"
       d="m 59.759514,83.915538 c -0.963083,0.361244 -1.411113,2.822222 0.176387,2.822222 1.5875,0 5.997224,-0.705556 7.231947,-0.529167 1.23472,0.176389 3.880553,1.5875 3.351387,0.529167 -0.529167,-1.058334 -1.234721,-2.998611 -0.529167,-3.704167 0.705557,-0.705555 -2.99861,0 -4.7625,0.176389 -1.763887,0.176389 -4.056943,0.176389 -5.468054,0.705556" />
    <path
       id="path2890"
       style="fill:#1fbfdf;fill-opacity:1;fill-rule:nonzero;stroke:none;stroke-width:0.0352777"
       d="m 77.222012,186.04471 c -0.536221,0.42686 -2.042584,0.92075 -3.499554,1.19944 h -3.266723 c -1.143,-0.508 -1.770944,-1.73919 -0.994834,-2.25778 1.058334,-0.70555 4.056944,-2.64583 5.468057,-2.11666 1.41111,0.52916 3.175,2.46944 2.293054,3.175" />
    <path
       id="path2892"
       style="fill:#1fbfdf;fill-opacity:1;fill-rule:nonzero;stroke:none;stroke-width:0.0352777"
       d="m 89.922012,184.63359 c -0.232834,0.34925 -0.236361,1.68628 -0.409221,2.61056 h -6.364113 c -1.26647,-0.65264 -2.49061,-1.4605 -1.86972,-2.08139 0.705554,-0.70555 3.175,-1.5875 4.7625,-1.76389 1.5875,-0.17639 4.233333,0.70556 3.880554,1.23472" />
    <path
       id="path2894"
       style="fill:#1fbfdf;fill-opacity:1;fill-rule:nonzero;stroke:none;stroke-width:0.0352777"
       d="m 73.722458,81.410815 c -0.945444,0.186973 -1.87325,0.282223 -2.497667,0.211667 -0.275166,-0.03175 -0.532693,-0.105833 -0.769056,-0.211667 h 3.266723" />
    <path
       id="path2896"
       style="fill:#09add0;fill-opacity:1;fill-rule:nonzero;stroke:none;stroke-width:0.0352777"
       d="m 73.722458,81.410815 c -0.945444,0.186973 -1.87325,0.282223 -2.497667,0.211667 -0.275166,-0.03175 -0.532693,-0.105833 -0.769056,-0.211667 h 3.266723" />
    <path
       id="path2898"
       style="fill:#1fbfdf;fill-opacity:1;fill-rule:nonzero;stroke:none;stroke-width:0.0352777"
       d="m 89.512791,81.410815 c -0.09172,0.483306 -0.229306,0.85725 -0.472723,0.917223 -0.705556,0.176388 -3.35139,0.529166 -3.704167,0.176388 -0.155223,-0.155222 -1.185333,-0.578555 -2.187223,-1.093611 h 6.364113" />
    <path
       id="path2900"
       style="fill:#1fbfdf;fill-opacity:1;fill-rule:nonzero;stroke:none;stroke-width:0.0352777"
       d="m 22.071206,180.57665 c -0.509411,0.76411 0.587728,2.46944 1.998839,3.175 1.411111,0.70556 2.822222,-0.47025 4.115858,0.11748 1.293636,0.58808 0.823031,1.05833 2.822222,0.11782 1.999192,-0.94086 2.822222,1.64607 4.350808,1.64607 1.528939,0 3.175,-1.52859 4.586111,-1.05834 1.411111,0.47061 3.292828,1.41111 3.410303,-0.23495 0.117475,-1.64641 0.823031,-4.35117 1.293636,-5.29167 0.470253,-0.94086 1.293283,-2.70475 -1.058333,-2.2345 -2.35197,0.47061 -3.645606,0.70556 -5.644445,0.70556 -1.999191,0 -2.704747,0 -5.879747,1.17616 -3.174999,1.17581 -5.997222,1.52859 -7.290858,1.64606 -1.293283,0.11783 -1.998839,-0.82303 -2.704394,0.23531" />
    <path
       id="path2902"
       style="fill:#09add0;fill-opacity:1;fill-rule:nonzero;stroke:none;stroke-width:0.0352777"
       d="m 40.360264,180.92942 c -0.116417,-0.13405 -0.532695,-0.13405 -0.532695,0.0459 0,0.17286 0.363361,0.15875 0.504472,0.067 0.03528,-0.0212 0.05292,-0.0847 0.02822,-0.11289" />
  </g>
</svg>
