<?xml version="1.0" encoding="UTF-8" standalone="no"?>
<!-- Created with Inkscape (http://www.inkscape.org/) -->

<svg
   xmlns:dc="http://purl.org/dc/elements/1.1/"
   xmlns:cc="http://creativecommons.org/ns#"
   xmlns:rdf="http://www.w3.org/1999/02/22-rdf-syntax-ns#"
   xmlns:svg="http://www.w3.org/2000/svg"
   xmlns="http://www.w3.org/2000/svg"
   xmlns:sodipodi="http://sodipodi.sourceforge.net/DTD/sodipodi-0.dtd"
   xmlns:inkscape="http://www.inkscape.org/namespaces/inkscape"
   width="29.81492mm"
   height="29.81492mm"
   viewBox="0 0 29.81492 29.81492"
   version="1.1"
   id="svg18207"
   inkscape:version="0.92.3 (2405546, 2018-03-11)"
   sodipodi:docname="al_door_trans.svg">
  <defs
     id="defs18201" />
  <sodipodi:namedview
     id="base"
     pagecolor="#ffffff"
     bordercolor="#666666"
     borderopacity="1.0"
     inkscape:pageopacity="0.0"
     inkscape:pageshadow="2"
     inkscape:zoom="2.8"
     inkscape:cx="-17.97555"
     inkscape:cy="35.028658"
     inkscape:document-units="mm"
     inkscape:current-layer="Door"
     showgrid="false"
     inkscape:window-width="1366"
     inkscape:window-height="703"
     inkscape:window-x="0"
     inkscape:window-y="0"
     inkscape:window-maximized="1" />
  <metadata
     id="metadata18204">
    <rdf:RDF>
      <cc:Work
         rdf:about="">
        <dc:format>image/svg+xml</dc:format>
        <dc:type
           rdf:resource="http://purl.org/dc/dcmitype/StillImage" />
        <dc:title></dc:title>
      </cc:Work>
    </rdf:RDF>
  </metadata>
  <g
     inkscape:label="Layer 1"
     inkscape:groupmode="layer"
     id="layer1"
     transform="translate(-105.78736,-108.97944)">
    <g
       transform="matrix(0.26458333,0,0,0.26458333,104.11332,39.220382)"
       id="Door">
      <path
         style="fill:none"
         inkscape:connector-curvature="0"
         d="m 62.373,346.633 c -7.54,0 -8.828,-0.981 -9.57,-2.077 -0.888,-1.311 -0.907,-3.563 -0.737,-8.395 0.04,-1.146 0.078,-2.229 0.05,-2.752 -0.116,-2.197 0.062,-9.808 0.18,-11.425 0.042,-0.577 0.017,-1.196 -0.077,-1.894 -0.624,-4.608 -0.804,-9.262 -0.962,-13.365 -0.149,-3.771 2.997,-7.119 3.629,-7.75 1.495,-1.494 3.65,-1.696 5.56,-1.696 0.396,0 0.787,0.01 1.164,0.018 0.313,0.009 1.269,0.015 1.269,0.015 6.488,0 9.441,0.828 10.533,2.95 0.281,0.547 0.433,1.043 0.521,1.455 2.048,1.216 2.262,5.303 2.163,16.762 -0.057,6.487 0.234,10.009 0.449,12.58 l 0.106,1.327 c 0.134,1.812 0.013,4.111 -0.094,6.143 -0.06,1.14 -0.116,2.205 -0.116,3.038 0,2.144 -1.42,4.653 -12.476,5.045 -0.206,0.006 -0.796,0.021 -1.592,0.021 z"
         id="path196" />
      <path
         inkscape:connector-curvature="0"
         d="m 78.773,357.004 c -1.892,-0.678 -5.454,-0.052 -7.066,-0.22 -1.251,-0.133 -3.419,-1.006 -3.585,-2.459 -0.167,-1.453 4.321,-2.064 6.012,-2.242 1.691,-0.178 4.614,0.22 5.829,-0.897 1.214,-1.116 1.404,-2.805 1.345,-4.226 -0.104,-2.407 -0.249,-4.816 -0.291,-7.225 -0.048,-2.819 -0.588,-6.093 -0.362,-8.896 0.16,-2.003 -0.255,-3.529 -0.127,-5.535 0.075,-1.203 0.139,-2.409 0.284,-3.604 0.441,-3.591 -0.037,-8.038 -0.037,-14.315 0,-6.277 0.661,-12.104 -0.718,-13.759 -1.379,-1.656 -4.028,-1.139 -6.407,-1.174 -2.38,-0.036 -5.877,-1.383 -5.285,-2.346 0.592,-0.964 0.967,-0.922 4.501,-0.983 3.533,-0.062 5.561,-1.409 7.113,-3.375 1.553,-1.966 1.043,-5.145 1.043,-8.601 0,-3.456 0.407,-4.733 0.022,-7.527 -0.164,-1.196 -0.496,-7.058 -2.747,-5.106 -2.251,1.951 -0.569,14.264 -2.276,16.591 -1.707,2.328 -6.647,3.053 -13.657,3.053 -7.01,0 -9.126,1.628 -10.063,-1.475 -0.937,-3.103 -0.29,-9.637 -0.285,-12.441 0.005,-2.804 0.414,-7.178 -2.896,-6.519 -3.311,0.66 -2.291,10.691 -2.276,16.969 0.015,6.278 3.122,8.873 5.02,8.895 1.604,0.018 5.419,-0.13 7.013,0.128 0.354,0.056 1.074,0.188 1.107,1.083 0.034,0.896 -2.166,1.544 -4.687,1.668 -2.521,0.124 -5.755,0.419 -6.756,1.495 -1,1.077 -1.209,2.306 -1.295,2.69 -0.085,0.386 -0.062,0.8 -0.055,1.201 0.04,2.41 -0.194,8.732 0.03,11.982 0.226,3.249 0.162,7.681 0.113,12.104 -0.013,1.203 0.029,2.413 0.163,3.608 0.227,2.001 -0.239,3.999 -0.276,6.014 -0.021,1.201 0.093,2.407 0.169,3.609 0.336,5.214 -0.188,11.437 -0.272,13.395 -0.084,1.957 0.278,3.104 0.967,3.828 0.689,0.725 2.041,0.145 3.759,0.245 1.719,0.104 10.138,-0.037 10.07,1.618 -0.068,1.656 -5.172,1.854 -6.541,2.037 -1.369,0.183 -6.887,0.246 -7.846,1.265 -0.958,1.02 -0.868,4.946 -0.81,8.77 0.059,3.82 0.43,9.444 1.586,9.933 1.254,0.528 2.446,-1.585 2.432,-3.201 -0.015,-1.616 0.226,-3.154 0.084,-4.76 -0.197,-2.221 0.97,-4.625 4.035,-5.05 2.386,-0.33 6.287,-0.942 9.289,-0.769 3.002,0.175 3.328,0.25 6.298,0.442 2.97,0.192 5.545,-0.597 5.338,3.128 -0.207,3.725 1.643,8.544 2.759,9.313 1.116,0.768 2.529,-2.089 2.552,-2.897 0.113,-3.634 -0.405,-7.563 -0.405,-10.413 0,-2.849 -0.02,-4.371 -1.912,-5.049 z M 63.872,344.229 c -0.798,0.029 -8.302,0.161 -9.096,-1.011 -0.794,-1.172 -0.176,-7.938 -0.279,-9.933 -0.106,-2.008 0.058,-9.521 0.176,-11.127 0.059,-0.802 0.015,-1.593 -0.094,-2.391 -0.59,-4.357 -0.772,-8.743 -0.942,-13.135 -0.087,-2.218 1.659,-4.698 2.935,-5.974 1.276,-1.276 4.035,-0.965 5.931,-0.965 1.896,0 7.909,-0.054 8.787,1.655 0.753,1.463 -0.062,2.138 1.18,2.345 1.241,0.206 1.308,6.967 1.24,14.761 -0.068,7.794 0.365,11.447 0.563,14.104 0.197,2.657 -0.217,6.692 -0.217,9.003 -0.002,2.314 -9.364,2.639 -10.184,2.668 z"
         id="path198" />
    </g>
  </g>
</svg>
