<?xml version="1.0" encoding="UTF-8" standalone="no"?>
<!-- Created with Inkscape (http://www.inkscape.org/) -->

<svg
   xmlns:dc="http://purl.org/dc/elements/1.1/"
   xmlns:cc="http://creativecommons.org/ns#"
   xmlns:rdf="http://www.w3.org/1999/02/22-rdf-syntax-ns#"
   xmlns:svg="http://www.w3.org/2000/svg"
   xmlns="http://www.w3.org/2000/svg"
   xmlns:sodipodi="http://sodipodi.sourceforge.net/DTD/sodipodi-0.dtd"
   xmlns:inkscape="http://www.inkscape.org/namespaces/inkscape"
   width="33.200321mm"
   height="33.200321mm"
   viewBox="0 0 33.200321 33.200321"
   version="1.1"
   id="svg5935"
   inkscape:version="0.92.3 (2405546, 2018-03-11)"
   sodipodi:docname="cage.svg">
  <defs
     id="defs5929" />
  <sodipodi:namedview
     id="base"
     pagecolor="#ffffff"
     bordercolor="#666666"
     borderopacity="1.0"
     inkscape:pageopacity="0.0"
     inkscape:pageshadow="2"
     inkscape:zoom="2.8"
     inkscape:cx="13.85334"
     inkscape:cy="43.796262"
     inkscape:document-units="mm"
     inkscape:current-layer="layer1"
     showgrid="false"
     inkscape:window-width="1366"
     inkscape:window-height="703"
     inkscape:window-x="0"
     inkscape:window-y="0"
     inkscape:window-maximized="1" />
  <metadata
     id="metadata5932">
    <rdf:RDF>
      <cc:Work
         rdf:about="">
        <dc:format>image/svg+xml</dc:format>
        <dc:type
           rdf:resource="http://purl.org/dc/dcmitype/StillImage" />
        <dc:title></dc:title>
      </cc:Work>
    </rdf:RDF>
  </metadata>
  <g
     inkscape:label="Layer 1"
     inkscape:groupmode="layer"
     id="layer1"
     transform="translate(-83.185554,-75.256666)">
    <g
       transform="matrix(0.26458333,0,0,0.26458333,-52.614546,75.014949)"
       id="Cage">
      <path
         style="fill:#656668"
         inkscape:connector-curvature="0"
         d="m 552.517,122.911 c -0.995,0 -2.493,-0.299 -3.982,-1.726 -1.694,-1.624 -2.278,-3.588 -2.496,-5.473 -0.315,0.795 -0.732,1.478 -1.233,2.02 -0.571,1.232 -2.171,1.376 -2.78,1.434 -0.092,0.008 -0.246,0.021 -0.246,0.021 -1.606,0.142 -3.504,0.287 -5.42,0.287 -4.431,0 -10.788,-0.675 -14.844,-6.515 -2.051,-2.956 -2.479,-6.557 -2.854,-9.734 l -0.164,-1.334 c -0.299,-2.3 -0.393,-4.891 1.188,-6.688 0.549,-0.627 1.248,-1.091 2.084,-1.389 -2.803,-1.446 -4.14,-4.024 -3.578,-6.904 0.477,-2.467 2.253,-4.617 4.528,-5.743 -3.438,-0.799 -3.929,-3.428 -3.993,-4.331 -0.2,-2.802 -0.166,-6.118 0.098,-9.341 0,0 0.016,-0.188 0.022,-0.284 0.078,-0.897 0.022,-2.196 -0.04,-3.571 -0.18,-4.121 -0.404,-9.247 2.375,-12.153 0.539,-0.563 1.153,-1.011 1.843,-1.34 -2.283,-0.557 -4.735,-1.911 -5.787,-5.209 -0.924,-2.897 -0.097,-4.906 0.763,-6.08 0.926,-1.269 2.297,-2.13 3.813,-2.712 -0.716,-0.365 -1.333,-0.852 -1.828,-1.45 -0.774,-0.933 -1.598,-2.57 -1.124,-5.064 0.25,-1.318 0.266,-2.709 0.28,-4.181 0.03,-2.675 0.066,-5.708 1.648,-8.638 1.86,-3.434 5.446,-6.097 9.367,-6.952 2.363,-0.516 4.861,-0.789 7.218,-0.789 0.633,0 1.26,0.02 1.878,0.058 2.149,0.138 3.746,0.869 4.745,2.172 0.231,0.305 0.422,0.623 0.573,0.952 0.685,-1.67 1.764,-3.263 3.574,-4.52 1.477,-1.024 3.342,-1.61 5.115,-1.61 2.424,0 4.509,1.083 5.725,2.968 0.523,0.818 0.906,1.681 1.177,2.577 0.369,-0.75 0.87,-1.376 1.479,-1.847 0.731,-0.938 2.18,-0.973 2.836,-0.99 2.05,-0.051 4.156,-0.195 6.193,-0.333 2.626,-0.179 5.34,-0.363 8.055,-0.363 1.813,0 3.451,0.081 5.019,0.248 1.86,0.197 5.165,0.547 5.823,4.247 0.767,-1.744 1.89,-3.186 3.533,-4.028 1.287,-0.662 2.496,-0.982 3.693,-0.982 2.521,0 4.381,1.439 5.867,2.847 2.63,2.483 2.211,5.843 1.906,8.296 -0.1,0.781 -0.19,1.518 -0.183,2.124 0.009,0.54 0.048,1.155 0.088,1.807 0.212,3.27 0.544,8.491 -3.152,10.784 2.056,0.006 3.931,0.112 5.724,0.318 2.887,0.335 5.617,0.38 7.908,0.38 1.079,0 2.165,-0.012 3.271,-0.023 0.446,-0.005 0.919,-0.022 1.442,-0.04 0.105,-0.005 0.214,-0.008 0.321,-0.011 -1.333,-1.826 -1.239,-4.78 -1.18,-6.634 0.021,-0.623 0.049,-1.473 0,-1.742 -0.141,-0.758 -0.464,-2.532 -3.557,-2.532 -0.188,0 -0.383,0.008 -0.576,0.022 l -0.52,0.038 c -0.765,0.058 -1.576,0.117 -2.366,0.117 -1.535,0 -3.748,-0.187 -5.27,-1.803 -1.021,-1.085 -1.479,-2.544 -1.372,-4.336 0.344,-5.586 2.261,-7.446 7.889,-7.656 l 1.232,-0.053 c 1.063,-0.049 2.205,-0.102 3.348,-0.102 2.387,0 4.198,0.233 5.701,0.733 3.581,1.197 6.651,4.114 8.02,7.614 1.467,3.766 1.293,7 1.122,10.126 -0.05,0.964 -0.106,1.955 -0.112,2.997 -0.002,0.019 -0.002,0.055 -0.002,0.055 -0.024,1.996 -0.836,3.492 -2.267,4.344 0.538,0.28 1,0.61 1.389,0.991 2.274,2.238 3.079,5.065 2.201,7.755 -0.826,2.529 -3.052,4.624 -5.821,5.611 1.636,0.824 2.732,2.158 2.995,3.807 0.85,5.296 0.774,10.856 0.705,16.234 -0.019,1.447 -0.038,2.881 -0.038,4.291 0,1.739 -0.711,3.21 -1.928,4.228 2.526,0.725 4.56,2.632 5.364,5.057 0.773,2.339 0.274,4.801 -1.371,6.749 -0.924,1.094 -2.438,1.87 -4.297,2.443 0.356,0.203 0.673,0.446 0.945,0.727 0.764,0.776 1.151,1.786 1.125,2.918 -0.098,4.529 -0.722,8.221 -1.854,10.972 -4.452,10.795 -14.032,11.983 -22.661,12.247 l -0.355,0.005 c -3.08,0 -4.644,-1.283 -5.411,-2.361 -0.436,-0.611 -0.849,-1.482 -0.962,-2.669 -0.572,3.481 -1.938,7.163 -5.802,7.163 -1.341,0 -2.73,-0.514 -4.258,-1.571 -1.046,-0.725 -1.782,-1.894 -2.312,-3.37 l -0.521,0.768 c -0.182,0.342 -0.396,0.664 -0.648,0.961 l -0.033,0.05 c -0.229,0.337 -1.4,1.324 -2.548,1.68 -2.084,0.922 -4.582,1.371 -7.577,1.371 -2.409,0 -4.817,-0.272 -7.146,-0.535 -1.808,-0.205 -3.514,-0.397 -5.013,-0.436 -1.219,-0.032 -4.408,-0.113 -5.898,-2.691 -0.076,0.277 -0.162,0.552 -0.262,0.821 -0.977,2.675 -3.162,4.404 -5.566,4.404 z M 597.762,94.89 c 0.732,0.4 1.364,0.938 1.879,1.601 2.359,3.034 1.672,7.85 1.169,11.365 -0.068,0.489 -0.137,0.948 -0.185,1.363 -0.046,0.361 -0.08,0.824 -0.122,1.351 -0.01,0.134 -0.021,0.27 -0.031,0.409 0.059,-0.199 0.123,-0.403 0.195,-0.614 1.475,-4.27 7.156,-4.392 10.915,-4.472 0.86,-0.02 1.675,-0.037 2.147,-0.1 1.997,-0.271 2.284,-1.102 2.646,-4.536 0.233,-2.244 0.534,-5.108 2.512,-7.141 -0.114,0.013 -0.226,0.023 -0.329,0.035 -5.845,0.659 -11.638,0.749 -17.028,0.749 -1.257,0 -2.511,-0.004 -3.768,-0.01 z m -41.3,1.913 c 2.335,2.609 2.376,7.525 2.402,10.305 l 0.008,0.802 -0.008,0.111 c -0.038,0.47 -0.048,0.969 -0.051,1.491 1.051,-1.373 2.5,-1.822 3.35,-1.971 2.792,-0.486 5.915,-0.714 9.826,-0.714 2.372,0 4.726,0.082 7.002,0.162 l 1.924,0.063 c 1.413,0.028 3.921,0.076 5.518,1.303 -0.044,-0.726 -0.08,-1.464 -0.112,-2.208 -0.026,-0.584 -0.048,-1.093 -0.074,-1.491 -0.206,-3.029 -0.254,-6.446 1.796,-8.637 0.423,-0.453 0.914,-0.83 1.467,-1.132 -1.98,0.021 -3.694,0.062 -5.332,0.127 l -0.557,0.022 c -3.959,0.174 -7.946,0.506 -11.802,0.826 -5.003,0.416 -10.153,0.847 -15.357,0.941 z m -16.657,10.1 c 1.199,0 2.979,0.099 4.542,0.952 0.467,0.258 0.87,0.608 1.201,1.033 -0.451,-4.422 -0.794,-9.823 2.019,-12.227 -3.645,-0.107 -7.393,-0.232 -11.094,-0.553 -0.943,-0.083 -1.98,-0.131 -3.062,-0.183 -1.155,-0.056 -2.356,-0.112 -3.563,-0.211 1.237,1.735 1.588,4.162 1.875,6.149 0.583,4.033 1.074,5.059 2.497,5.228 0.257,0.029 0.532,0.04 0.822,0.04 0.664,0 1.381,-0.053 2.111,-0.106 0.884,-0.061 1.784,-0.122 2.652,-0.122 z M 530.29,50.484 c 0.479,0.294 0.912,0.649 1.295,1.066 2.257,2.455 2.078,6.188 1.922,9.483 -0.046,0.935 -0.092,1.844 -0.064,2.666 0.01,0.367 0.042,0.869 0.077,1.466 0.388,6.23 0.466,12.425 -2.663,14.809 1.764,-0.102 3.512,-0.176 5.27,-0.222 2.086,-0.056 4.165,-0.075 6.24,-0.075 1.754,0 3.506,0.014 5.254,0.027 0.25,0.002 0.499,0.003 0.749,0.005 -0.797,-0.799 -1.388,-2.038 -1.505,-3.962 -0.07,-1.199 -0.13,-2.397 -0.189,-3.596 -0.076,-1.53 -0.149,-3.06 -0.254,-4.589 -0.062,-0.938 -0.18,-1.9 -0.297,-2.871 -0.401,-3.301 -0.856,-7.045 0.65,-10.574 0.511,-1.196 1.364,-2.127 2.485,-2.745 -2.239,-0.1 -4.466,-0.243 -6.648,-0.383 -3.863,-0.25 -7.858,-0.508 -11.763,-0.508 -0.188,10e-4 -0.373,10e-4 -0.559,0.003 z m 26.956,0.982 c 2.483,1.531 2.343,5.449 2.255,7.871 -0.01,0.294 -0.021,0.552 -0.021,0.751 0,5.544 0.181,11.042 0.535,16.334 0.08,1.218 -0.291,2.303 -1.072,3.141 -0.03,0.031 -0.063,0.063 -0.095,0.095 2.509,-0.068 5.148,-0.199 7.816,-0.443 8.063,-0.74 15.258,-1.229 22.015,-1.489 -1.36,-1.383 -1.591,-3.404 -1.771,-4.954 -0.409,-3.584 -0.692,-6.726 -0.861,-9.607 -0.026,-0.446 -0.074,-0.939 -0.124,-1.459 -0.245,-2.555 -0.551,-5.733 0.838,-8.155 0.589,-1.028 1.409,-1.721 2.295,-2.188 -5.271,-0.388 -10.433,-0.583 -15.348,-0.583 -4.512,0 -8.862,0.166 -12.934,0.494 -1.139,0.092 -2.309,0.155 -3.528,0.192 z m 42.591,-0.125 c 0.389,0.248 0.75,0.552 1.083,0.907 2.85,3.058 2.813,9.428 2.53,15.691 -0.046,1.021 -0.087,1.858 -0.069,2.391 l 0.034,0.787 c 0.085,1.753 0.191,3.933 -0.835,5.866 -0.085,0.158 -0.177,0.307 -0.277,0.443 1.65,-0.056 3.335,-0.142 5.075,-0.229 3.079,-0.155 6.266,-0.315 9.417,-0.315 0.44,0 0.876,0.003 1.301,0.011 -0.903,-0.98 -1.519,-2.19 -1.661,-3.6 -0.64,-6.191 -0.548,-12.705 0.28,-19.915 0.13,-1.113 0.648,-2.082 1.474,-2.841 -0.48,-0.003 -0.965,-0.01 -1.444,-0.015 -0.797,-0.01 -1.591,-0.018 -2.381,-0.018 -0.599,0 -1.195,0.005 -1.788,0.02 -2.76,0.071 -5.558,0.288 -8.266,0.495 -1.472,0.112 -2.966,0.228 -4.473,0.322 z M 530.953,35.043 c 0.291,0.02 0.57,0.043 0.838,0.073 1.073,0.114 2.191,0.168 3.414,0.168 2.716,0 5.424,-0.271 8.288,-0.559 0.867,-0.087 1.743,-0.175 2.626,-0.254 -2.987,-1.434 -3.289,-7.966 -3.067,-12.852 -1.419,1.76 -3.572,2.626 -6.504,2.629 -0.353,0 -1.614,-0.028 -1.898,-0.028 -1.679,0 -1.684,0.041 -1.784,1.118 -0.04,0.45 -0.027,1.136 -0.011,1.86 0.049,2.406 0.124,5.84 -1.902,7.845 z m 24.329,-0.789 c 1.281,0.099 2.494,0.266 3.668,0.5 1.217,0.245 2.605,0.364 4.244,0.364 1.669,0 3.413,-0.123 5.099,-0.24 1.021,-0.072 2.027,-0.143 3.014,-0.187 1.321,-0.06 2.639,-0.077 3.953,-0.077 l 4.202,0.019 c 0.9,0 1.803,-0.007 2.706,-0.034 2.714,-0.077 5.534,-0.31 8.262,-0.537 0.024,-10e-4 0.053,-0.003 0.076,-0.006 -2.752,-1.544 -2.641,-5.137 -2.58,-7.127 0.008,-0.272 0.017,-0.529 0.017,-0.758 l -0.002,-0.885 c -0.007,-0.982 -0.013,-2.088 0.016,-3.255 -0.233,0.245 -0.501,0.461 -0.8,0.646 -1.423,0.873 -3.362,1.281 -6.104,1.281 -1.253,0 -2.475,-0.083 -3.454,-0.153 l -0.629,-0.041 c -1.465,-0.094 -2.955,-0.134 -4.45,-0.174 -2.369,-0.063 -4.824,-0.128 -7.224,-0.406 -2.135,-0.248 -3.762,-1.727 -4.751,-3.646 -0.061,0.606 -0.128,1.206 -0.194,1.792 -0.142,1.275 -0.276,2.481 -0.305,3.528 -0.004,0.231 0.008,0.542 0.021,0.899 0.082,2.292 0.206,5.758 -2.121,7.248 -0.784,0.503 -1.686,0.922 -2.664,1.249 z"
         id="path245" />
      <path
         style="fill:#3c3c3d"
         inkscape:connector-curvature="0"
         d="m 576.399,120.126 c -2.342,0 -4.715,-0.269 -7.01,-0.528 -1.832,-0.208 -3.564,-0.404 -5.117,-0.442 -1.537,-0.04 -5.136,-0.133 -5.475,-4.183 -0.396,-4.813 2.069,-5.971 3.573,-6.231 2.723,-0.475 5.777,-0.695 9.617,-0.695 2.351,0 4.694,0.08 6.96,0.16 l 1.94,0.063 c 1.795,0.035 5.132,0.102 5.701,2.446 0.495,2.022 0.508,5.352 -1.229,7.018 -0.433,0.434 -1.189,0.872 -1.73,1.059 -1.951,0.895 -4.334,1.333 -7.23,1.333 z m -40.043,-1.871 c -4.156,0.002 -10.113,-0.619 -13.844,-5.989 -1.878,-2.707 -2.285,-6.147 -2.646,-9.186 l -0.165,-1.349 c -0.264,-2.027 -0.363,-4.293 0.894,-5.725 0.814,-0.929 2.05,-1.382 3.771,-1.382 0.447,0 0.939,0.031 1.482,0.095 3.671,0.425 4.2,4.089 4.667,7.319 0.535,3.697 1.044,5.966 3.563,6.263 0.301,0.035 0.626,0.048 0.964,0.048 0.69,0 1.438,-0.053 2.199,-0.107 0.852,-0.061 1.722,-0.122 2.562,-0.122 1.696,0 2.954,0.256 3.957,0.805 1.679,0.92 1.864,3.298 1.513,5.058 -0.263,1.328 -0.808,2.398 -1.527,3.093 -0.212,0.73 -1.063,0.807 -1.832,0.876 -0.096,0.01 -0.243,0.021 -0.243,0.021 -1.578,0.14 -3.446,0.282 -5.315,0.282 z m 70.116,-0.15 c -2.563,0 -3.816,-1.006 -4.42,-1.851 -0.952,-1.335 -1.031,-3.183 -0.232,-5.493 1.196,-3.468 6.164,-3.573 9.79,-3.652 0.896,-0.019 1.741,-0.037 2.284,-0.11 3.01,-0.406 3.336,-2.205 3.691,-5.616 0.298,-2.839 0.669,-6.376 4.384,-7.849 0.776,-0.31 2.304,-0.64 3.82,-0.64 1.624,0 2.821,0.383 3.56,1.139 0.526,0.537 0.796,1.243 0.778,2.039 -0.094,4.379 -0.688,7.923 -1.764,10.534 -4.175,10.124 -13.324,11.242 -21.572,11.494 z M 524.944,80.181 c -4.297,0 -4.934,-2.401 -5.008,-3.434 -0.194,-2.714 -0.161,-5.927 0.091,-9.06 0.008,-0.113 0.018,-0.238 0.028,-0.373 0.086,-0.977 0.026,-2.313 -0.035,-3.729 -0.172,-3.888 -0.384,-8.729 2.037,-11.257 1.049,-1.094 2.461,-1.646 4.205,-1.646 l 0.313,0.005 c 1.761,0.063 3.144,0.632 4.112,1.687 1.912,2.081 1.746,5.543 1.602,8.6 -0.048,0.969 -0.094,1.911 -0.066,2.761 0.012,0.377 0.042,0.894 0.08,1.504 0.393,6.31 0.493,13.142 -3.277,14.324 -0.949,0.299 -2.517,0.618 -4.082,0.618 z m 100.015,-1.673 c -3.325,0 -6.969,-1.999 -7.314,-5.342 -0.628,-6.101 -0.538,-12.529 0.281,-19.65 0.244,-2.137 2.535,-3.572 5.695,-3.572 2.698,0 5.604,1.145 6.013,3.701 0.832,5.191 0.759,10.699 0.69,16.026 -0.019,1.454 -0.038,2.893 -0.038,4.308 0,2.709 -2.14,4.529 -5.327,4.529 z M 525.381,35.722 c -1.913,0 -3.5,-0.641 -4.464,-1.803 -0.606,-0.733 -1.249,-2.032 -0.864,-4.062 0.271,-1.422 0.286,-2.866 0.302,-4.393 0.03,-2.66 0.063,-5.408 1.504,-8.074 1.693,-3.128 4.971,-5.558 8.555,-6.339 2.279,-0.498 4.688,-0.762 6.958,-0.762 0.605,0 1.21,0.019 1.802,0.057 1.807,0.116 3.067,0.67 3.855,1.696 1.153,1.506 0.914,3.629 0.574,5.311 -0.787,3.923 -2.966,5.675 -7.055,5.678 -0.345,0 -1.605,-0.026 -1.898,-0.026 -2.09,0 -2.817,0.32 -2.995,2.221 -0.048,0.522 -0.034,1.241 -0.017,2 0.059,2.709 0.137,6.417 -2.633,7.706 -1.098,0.509 -2.385,0.79 -3.624,0.79 z m 101.378,-0.847 c -0.96,0 -1.948,-0.144 -2.904,-0.282 -0.32,-0.046 -0.634,-0.092 -0.938,-0.129 -3.109,-0.39 -2.981,-4.34 -2.896,-6.957 0.025,-0.788 0.052,-1.602 -0.021,-1.999 -0.43,-2.344 -2.028,-3.531 -4.754,-3.531 -0.218,0 -0.438,0.008 -0.662,0.023 l -0.527,0.04 c -0.729,0.056 -1.515,0.114 -2.271,0.114 -1.308,0 -3.183,-0.147 -4.383,-1.42 -0.78,-0.831 -1.131,-1.985 -1.043,-3.427 0.305,-4.929 1.748,-6.328 6.721,-6.514 l 1.241,-0.054 c 1.046,-0.048 2.169,-0.101 3.291,-0.101 2.253,0 3.939,0.213 5.314,0.672 3.247,1.083 6.033,3.729 7.271,6.901 1.372,3.519 1.211,6.481 1.041,9.618 -0.052,0.982 -0.107,1.992 -0.115,3.056 0,0.015 0,0.043 0,0.043 -0.021,1.474 -0.614,3.947 -4.365,3.947 z M 581.053,22.743 c -1.211,0 -2.408,-0.083 -3.368,-0.149 l -0.635,-0.043 c -1.481,-0.095 -2.989,-0.136 -4.496,-0.176 -2.349,-0.063 -4.772,-0.126 -7.117,-0.4 -3.111,-0.359 -4.896,-4.078 -4.767,-7.317 0.074,-1.824 0.765,-3.235 1.872,-3.994 0.313,-0.573 1.115,-0.593 1.96,-0.615 2.075,-0.051 4.196,-0.197 6.246,-0.335 2.604,-0.178 5.3,-0.361 7.972,-0.361 1.77,0 3.366,0.079 4.891,0.241 2.041,0.216 4.835,0.511 4.851,4.407 l 0.006,0.426 c 0.036,2.89 -0.079,6.067 -1.946,7.213 -1.227,0.753 -2.965,1.103 -5.469,1.103 z"
         id="path247" />
      <path
         inkscape:connector-curvature="0"
         d="m 638.741,43.456 c -0.081,-4.715 -2.492,-8.795 -2.261,-13.601 0.208,-4.243 0.884,-9.743 -0.449,-13.806 C 632.208,4.379 619.293,4.66 609.485,4.66 c -1.758,0 -3.973,0.322 -5.688,-0.171 -2.574,-0.743 -4.38,-2.402 -7.286,-2.146 -2.584,0.231 -4.116,2.073 -6.733,2.337 -4.214,0.425 -8.63,-0.033 -12.871,-0.028 -5.129,0.007 -10.279,0.089 -15.406,-0.108 -2.596,-0.1 -4.466,-1.534 -6.91,-2.087 -3.293,-0.743 -5.352,1.896 -8.362,2.202 -8.99,0.913 -21.454,-1.33 -27.777,7.306 -4.291,5.858 -3.566,15.486 -3.479,22.447 0.051,3.984 -2.362,6.914 -1.543,10.978 0.998,4.947 1.529,9.319 1.608,14.357 0.072,4.457 0.146,8.916 -0.021,13.372 -0.092,2.402 0.558,5.345 -0.124,7.646 -0.783,2.655 -1.777,4.524 -1.125,7.405 2.214,9.761 -1.689,21.819 6.233,29.675 3.624,3.592 9.631,5.474 14.596,5.899 4.252,0.367 10.178,-1.277 13.969,0.968 4.41,2.61 9.087,-0.882 13.591,-0.865 3.979,0.016 7.952,0.178 11.931,0.141 3.861,-0.036 7.721,-0.14 11.582,-0.173 4.817,-0.042 7.975,2.766 13.041,0.996 3.861,-1.349 8.144,-0.892 12.161,-1.228 5.941,-0.499 11.796,-1.767 16.88,-5 3.884,-2.47 6.043,-5.953 7.585,-10.249 1.75,-4.876 0.687,-9.786 1.411,-14.758 0.375,-2.572 1.984,-5.119 1.77,-7.731 -0.223,-2.715 -1.628,-5.075 -2.147,-7.717 -0.663,-3.36 -0.145,-7.235 -0.126,-10.633 0.021,-4.087 0.058,-8.176 0.18,-12.262 0.063,-2.071 0.038,-4.238 0.491,-6.272 0.453,-2.07 1.863,-3.157 1.825,-5.505 z M 590.378,26.172 c 0,-4.015 -0.363,-13.255 3.829,-15.405 2.894,-1.483 4.716,-0.482 6.777,1.467 2.391,2.26 0.926,5.874 0.962,8.682 0.042,3.452 1.319,9.656 -2.977,10.961 -1.861,0.564 -5.075,0.936 -6.945,0.209 -2.091,-0.81 -1.646,-4.11 -1.646,-5.914 z M 564.531,11.267 c 6.323,-0.157 12.62,-1.137 18.95,-0.462 2.449,0.259 3.751,0.609 3.762,3.201 0.008,1.54 0.203,5.635 -1.363,6.597 -2.138,1.315 -6.368,0.885 -8.752,0.731 -3.808,-0.243 -7.777,-0.131 -11.553,-0.568 -4.093,-0.474 -5.262,-9.394 -1.044,-9.499 3.339,-0.082 -3.188,0.079 0,0 z m 20.72,18.164 c -0.038,2.851 -7.962,1.578 -9.762,1.653 -2.476,0.106 -12.553,1.857 -12.553,-1.688 0,-4.683 9.086,-2.651 12.236,-2.815 2.832,-0.144 10.133,-1.263 10.079,2.85 z M 545.953,16.447 c 0.459,-2.699 1.228,-5.083 3.576,-6.713 2.196,-1.522 5.789,-1.828 7.4,0.675 2.538,3.946 0.794,10.002 0.682,14.389 -0.034,1.4 0.453,5.239 -0.98,6.157 -2.474,1.583 -6.522,2.079 -9.383,1.348 -2.477,-0.634 -1.644,-13.807 -1.295,-15.856 z m 12.518,20.696 c 4.147,0.832 8.762,0.174 12.945,-0.018 3.616,-0.164 7.206,0.013 10.822,-0.089 8.104,-0.231 16.4,-1.759 24.519,-0.82 3.926,0.455 7.615,0.413 11.547,0.372 2.712,-0.03 9.348,-0.636 11.45,1.431 4.215,4.141 0.419,9.03 -4.271,9.718 -4.255,0.625 -8.684,0.242 -12.97,0.352 -7.698,0.198 -15.139,1.453 -22.896,0.872 -9.492,-0.712 -19.519,-0.882 -29.035,-0.116 -10.52,0.847 -21.005,-1.004 -31.567,-0.78 -3.542,0.075 -8.104,0.373 -9.458,-3.868 -2.14,-6.701 8.099,-7.072 11.979,-6.659 8.934,0.947 18.003,-2.187 26.935,-0.395 z m 48.731,-9.013 c 0,-3.042 3.297,-2.356 5.508,-2.134 2.924,0.29 3.438,1.626 3.037,4.33 -0.361,2.445 -3.274,1.696 -5.112,1.61 -3.682,-0.174 -3.433,-0.35 -3.433,-3.806 z m 6.697,40.432 c -0.021,1.149 0.507,5.243 -0.625,6.157 -0.914,0.736 -4.637,1.527 -5.03,-0.107 -1.01,-4.171 -0.841,-8.955 -1.118,-13.2 -0.173,-2.636 0.862,-11.398 5.552,-6.953 2.476,2.345 1.273,11.122 1.221,14.103 z m -12.953,1.845 c 0.052,1.727 0.322,3.846 -0.52,5.434 -0.857,1.618 -5.584,1.03 -7.113,1.025 -3.209,-0.008 -3.629,-1.262 -3.983,-4.372 -0.361,-3.146 -0.664,-6.313 -0.853,-9.474 -0.138,-2.375 -0.854,-6.077 0.396,-8.257 1.459,-2.545 5.751,-1.868 8.176,-1.809 5.617,0.145 3.79,14.189 3.897,17.453 0.029,0.907 -0.053,-1.613 0,0 z m -17.788,-0.456 c -0.13,3.589 -1.086,5.799 -4.853,6.26 -3.299,0.403 -6.971,0.729 -10.307,0.536 -6.304,-0.365 -4.682,-11.927 -4.77,-16.352 -0.166,-8.448 8.188,-6.899 14.289,-6.751 6.311,0.154 5.791,12.136 5.641,16.307 -0.118,3.258 0.115,-3.259 0,0 z m -26.113,-9.863 c 0,5.49 0.173,11.027 0.54,16.499 0.116,1.746 -1.676,2.122 -3.11,2.121 -3.15,-0.004 -4.97,0.351 -5.179,-3.109 -0.164,-2.731 -0.262,-5.469 -0.445,-8.2 -0.266,-4.012 -1.489,-8.45 0.162,-12.326 1.05,-2.456 4.454,-2.464 6.675,-1.667 1.841,0.662 1.357,5.162 1.357,6.682 z m -20.744,-3.349 c 0.828,-5.119 7.417,-3.415 6.563,1.887 -0.729,4.504 2.638,13.924 -0.675,17.626 -1.141,1.272 -2.993,1.362 -4.573,1.282 -1.938,-0.099 -1.759,-2.143 -1.677,-3.635 0.312,-5.727 -0.56,-11.45 0.362,-17.16 0.218,-1.348 -0.948,5.868 0,0 z M 534.22,28.657 c 0,-5.124 9.217,-3.011 7.208,2.709 -0.493,1.409 -3.543,1.581 -4.737,1.563 -2.42,-0.038 -2.471,-2.417 -2.471,-4.272 z m -12.972,1.426 c 0.774,-4.082 -0.396,-8.276 1.681,-12.114 1.538,-2.84 4.586,-5.041 7.741,-5.729 2.711,-0.591 5.659,-0.854 8.425,-0.678 3.521,0.224 3.972,2.293 3.314,5.549 -0.677,3.356 -2.394,4.7 -5.863,4.703 -2.858,0.002 -5.743,-0.558 -6.105,3.298 -0.228,2.44 0.755,7.458 -1.947,8.715 -3.154,1.466 -8.088,0.704 -7.246,-3.744 z m 0.024,37.318 c 0.404,-4.665 -2.218,-15.771 5.258,-15.497 6.151,0.225 4.339,7.318 4.475,11.867 0.088,2.882 1.327,13.477 -2.345,14.629 -2.044,0.643 -7.286,1.36 -7.51,-1.741 -0.209,-2.939 -0.133,-6.312 0.122,-9.258 0.332,-3.82 -0.255,2.951 0,0 z m 20.533,49.338 c -6.669,0.6 -14.083,0.89 -18.289,-5.169 -1.97,-2.837 -2.171,-6.666 -2.604,-9.996 -0.545,-4.169 0.166,-6.181 4.8,-5.646 5.749,0.665 1.291,12.764 8.227,13.582 2.694,0.316 6.805,-0.851 9.24,0.482 1.923,1.055 0.974,6.535 -1.374,6.747 -1.673,0.15 2.383,-0.215 0,0 z m -7.312,-17.712 c 1.102,-1.638 4.811,-1.03 6.438,-0.576 2.462,0.688 2.578,5.746 -0.084,6.236 -1.475,0.271 -4.73,0.764 -5.702,-0.687 -0.592,-0.884 -1.287,-4.029 -0.652,-4.973 0.441,-0.656 -0.441,0.657 0,0 z m 21.943,8.806 c -0.238,3.092 0.435,6.893 -0.641,9.836 -0.922,2.525 -3.364,3.878 -5.575,1.759 -1.986,-1.904 -1.832,-4.611 -1.912,-7.172 -0.102,-3.138 -2.015,-12.564 1.415,-14.104 6.994,-3.138 6.653,5.79 6.713,9.681 -0.062,0.791 -0.026,-1.605 0,0 z m 27.68,9.33 c -5.5,3.311 -13.827,0.924 -19.814,0.775 -2.247,-0.058 -4.069,-0.456 -4.288,-3.066 -0.18,-2.159 0.156,-4.512 2.566,-4.932 5.717,-0.996 12.133,-0.652 17.924,-0.462 1.147,0.038 4.521,-0.053 4.907,1.525 0.423,1.74 0.499,5.084 -1.295,6.16 -2.541,1.529 1.63,-0.978 0,0 z M 565.571,98.504 c 4.745,0 9.046,-0.068 13.771,-0.428 1.979,-0.152 4.16,-0.351 4.064,2.084 -0.061,1.528 0.641,4.485 -1.592,4.818 -4.51,0.676 -9.481,0.257 -14.037,0.231 -2.013,-0.013 -4.89,0.111 -5.5,-2.346 -0.577,-2.341 0.818,-4.359 3.294,-4.359 z m 18.272,-5.915 c -11,0.457 -21.574,2.104 -32.636,1.746 -4.839,-0.157 -9.7,-0.234 -14.525,-0.652 -4.145,-0.36 -10.021,-0.11 -13.763,-2.016 -4.913,-2.499 -1.511,-8.5 2.844,-8.881 3.477,-0.305 6.938,-0.507 10.428,-0.6 10.317,-0.277 20.449,0.395 30.698,-0.547 10.725,-0.983 21.36,-1.656 32.112,-1.708 9.624,-0.046 20.171,-1.665 29.625,0.541 3.488,0.814 5.71,4.856 3.081,7.969 -2.053,2.434 -10.462,2.956 -13.422,3.291 -11.416,1.287 -22.976,0.384 -34.442,0.857 -5.317,0.222 2.041,-0.085 0,0 z m 14.363,16.336 c -0.383,3.149 -0.215,13.51 -6.78,8.959 -2.574,-1.784 -2.555,-10.449 -2.752,-13.393 -0.354,-5.229 0.119,-8.634 6.22,-7.971 5.603,0.608 3.797,8.418 3.312,12.405 z m 7.539,-10.482 c 2.607,-2.54 10.804,-1.505 8.202,3.435 -2.74,5.207 -12.991,1.235 -8.202,-3.435 0.992,-0.964 -1.398,1.364 0,0 z m 21.492,7.7 c -3.731,9.049 -11.488,10.466 -20.484,10.741 -3.812,0.115 -5.036,-2.093 -3.783,-5.725 1.193,-3.457 8.421,-2.593 11.087,-2.953 7.77,-1.051 1.948,-10.997 8.361,-13.541 1.437,-0.569 6.552,-1.335 6.491,1.381 -0.069,3.214 -0.436,7.1 -1.672,10.097 z m 1.832,-32.164 c 0,5.146 -9.717,3.875 -10.213,-0.938 -0.674,-6.521 -0.469,-12.885 0.278,-19.386 0.385,-3.361 8.732,-3.346 9.297,0.184 1.042,6.493 0.638,13.577 0.638,20.14 z m 0.836,-43.103 c -0.023,3.774 -4.009,2.732 -6.837,2.378 -2.775,-0.346 -1.524,-6.069 -1.871,-7.966 -0.653,-3.574 -3.509,-4.726 -6.697,-4.502 -2.966,0.208 -7.184,0.787 -6.925,-3.406 0.268,-4.345 1.229,-5.209 5.548,-5.37 2.848,-0.106 6.687,-0.456 9.419,0.455 2.903,0.969 5.416,3.359 6.521,6.188 1.697,4.352 0.871,7.847 0.842,12.223 -0.008,1.272 0.014,-2.109 0,0 z"
         id="path249" />
    </g>
  </g>
</svg>
