<?xml version="1.0" encoding="UTF-8" standalone="no"?>
<!-- Created with Inkscape (http://www.inkscape.org/) -->

<svg
   xmlns:dc="http://purl.org/dc/elements/1.1/"
   xmlns:cc="http://creativecommons.org/ns#"
   xmlns:rdf="http://www.w3.org/1999/02/22-rdf-syntax-ns#"
   xmlns:svg="http://www.w3.org/2000/svg"
   xmlns="http://www.w3.org/2000/svg"
   xmlns:sodipodi="http://sodipodi.sourceforge.net/DTD/sodipodi-0.dtd"
   xmlns:inkscape="http://www.inkscape.org/namespaces/inkscape"
   width="33mm"
   height="66mm"
   viewBox="0 0 33 66"
   version="1.1"
   id="svg15056"
   inkscape:version="0.92.3 (2405546, 2018-03-11)"
   sodipodi:docname="coffin_trans.svg">
  <defs
     id="defs15050" />
  <sodipodi:namedview
     id="base"
     pagecolor="#ffffff"
     bordercolor="#666666"
     borderopacity="1.0"
     inkscape:pageopacity="0.0"
     inkscape:pageshadow="2"
     inkscape:zoom="0.98994949"
     inkscape:cx="-18.806779"
     inkscape:cy="-9.5973697"
     inkscape:document-units="mm"
     inkscape:current-layer="Coffin"
     showgrid="false"
     inkscape:window-width="1366"
     inkscape:window-height="703"
     inkscape:window-x="0"
     inkscape:window-y="0"
     inkscape:window-maximized="1" />
  <metadata
     id="metadata15053">
    <rdf:RDF>
      <cc:Work
         rdf:about="">
        <dc:format>image/svg+xml</dc:format>
        <dc:type
           rdf:resource="http://purl.org/dc/dcmitype/StillImage" />
        <dc:title></dc:title>
      </cc:Work>
    </rdf:RDF>
  </metadata>
  <g
     inkscape:label="Layer 1"
     inkscape:groupmode="layer"
     id="layer1"
     transform="translate(-94.643774,-22.73285)">
    <g
       transform="matrix(0.26458333,0,0,0.26458333,26.458475,-147.6318)"
       id="Coffin">
      <path
         style="fill:none"
         inkscape:connector-curvature="0"
         d="m 342.521,855.609 c -0.549,0 -1.151,-0.063 -1.793,-0.181 -4.163,-0.77 -8.344,-1.125 -12.389,-1.471 -4.848,-0.412 -9.861,-0.838 -14.716,-1.99 -1.854,-0.438 -3.821,-0.448 -5.723,-0.459 -5.28,-0.026 -7.018,-0.354 -7.392,-4.139 -0.893,-9.07 -3.335,-17.979 -5.697,-26.596 l -0.694,-2.541 c -0.986,-3.627 -2.341,-6.765 -3.536,-9.354 -0.779,-1.69 -2.469,-3.707 -6.085,-3.707 -1.251,0 -2.506,0.23 -3.613,0.435 -0.459,0.086 -0.906,0.17 -1.332,0.229 -0.183,0.025 -0.36,0.039 -0.531,0.039 -0.788,0 -1.691,-0.238 -2.425,-2.002 -2.059,-4.936 0.072,-15.309 2.403,-17.66 5.387,-5.432 0.782,-16.461 -2.265,-23.758 -0.548,-1.314 -1.041,-2.494 -1.396,-3.463 -2.304,-6.26 -4.249,-9.234 -12.113,-9.457 -1.481,-0.037 -2.537,-2.861 -2.829,-7.553 -0.029,-0.461 -0.065,-0.943 -0.104,-1.445 -0.276,-3.691 -0.619,-8.287 1.663,-10.285 1.073,-0.938 2.097,-1.707 3.086,-2.449 2.407,-1.811 4.684,-3.52 6.84,-6.973 2.747,-4.397 5.717,-8.771 8.588,-13 2.1,-3.094 4.2,-6.186 6.24,-9.32 0.555,-0.854 1.269,-2.073 2.1,-3.493 2.472,-4.234 8.263,-14.146 11.488,-14.438 1.394,-0.125 2.83,-0.188 4.392,-0.188 5.167,0 10.623,0.695 15.899,1.367 3.769,0.48 7.666,0.976 11.419,1.213 1.229,0.076 2.464,0.179 3.697,0.279 2.581,0.213 5.249,0.435 7.918,0.435 0.827,0 1.655,-0.021 2.481,-0.07 0.378,-0.023 0.743,-0.035 1.095,-0.035 2.393,0 3.448,0.563 4.521,2.404 2.984,5.104 5.495,10.586 7.923,15.887 1.658,3.619 3.374,7.363 5.239,10.99 0.343,0.67 0.708,1.42 1.095,2.211 1.697,3.479 3.812,7.809 6.447,10.27 1.216,1.138 2.657,1.836 3.928,2.451 2.372,1.148 3.235,1.699 3.41,3.271 l 0.006,0.067 c 0.426,4.326 -0.142,9.773 -1.384,13.248 -0.228,0.642 -0.536,0.814 -2.198,1.24 -1.579,0.404 -3.967,1.018 -5.209,3.564 -1.728,3.541 -2.509,7.356 -3.266,11.049 -0.371,1.811 -0.723,3.52 -1.175,5.19 -0.214,0.787 -0.483,1.611 -0.76,2.463 -1.196,3.673 -2.686,8.242 -0.713,12.416 l 0.281,0.595 1.83,1.219 c 3.716,2.457 3.716,2.457 4.988,7.385 0.685,2.654 0.224,8.099 -0.619,10.527 -0.876,2.533 -2.489,3.045 -5.503,3.801 -3.191,0.797 -7.561,1.894 -9.004,7.824 -0.776,3.229 -1.507,6.459 -2.238,9.692 -1.328,5.88 -2.702,11.961 -4.335,17.849 -0.445,1.604 -0.774,3.403 -1.093,5.147 -1.28,7.011 -2.383,11.27 -6.847,11.27 z"
         id="path80" />
      <path
         style="fill:none"
         inkscape:connector-curvature="0"
         d="m 296.432,800.479 c -3.042,0 -5.415,-0.182 -8.244,-2.563 -0.015,-0.012 -0.049,-0.039 -0.18,-0.039 -0.313,0 -0.765,0.152 -1.204,0.299 -0.547,0.185 -1.112,0.373 -1.684,0.373 -0.735,0 -1.204,-0.315 -1.468,-0.584 -0.659,-0.664 -0.728,-1.674 -0.721,-2.373 0.076,-8.516 11.478,-8.516 15.224,-8.516 0.631,0 1.214,0.01 1.736,0.02 5.621,0.086 11.339,0.312 16.869,0.527 2.928,0.115 5.854,0.23 8.776,0.326 0.811,0.026 1.635,0.037 2.471,0.037 1.692,0 3.434,-0.045 5.19,-0.088 1.815,-0.045 3.649,-0.091 5.473,-0.091 4.684,0 8.118,0.314 11.137,1.021 0.608,0.143 1.998,0.229 3.473,0.326 4.914,0.313 11.645,0.746 13.507,3.823 0.38,0.63 0.71,1.619 0.336,2.939 l 0.052,0.023 c -0.113,0.256 -0.307,0.686 -0.316,0.705 l -0.005,0.012 c -0.838,1.873 -3.584,2.709 -8.909,2.709 -3.253,0 -6.777,-0.316 -9.349,-0.547 -1.154,-0.104 -2.096,-0.189 -2.693,-0.215 -1.313,-0.054 -2.629,-0.125 -3.948,-0.197 -2.521,-0.14 -5.128,-0.283 -7.671,-0.283 -0.509,0 -1.019,0.004 -1.529,0.018 -2.011,0.052 -3.974,0.367 -6.053,0.701 -2.25,0.363 -4.578,0.738 -6.953,0.738 l -0.911,-0.006 c -3.719,0 -7.505,0.229 -11.165,0.449 -3.677,0.225 -7.476,0.454 -11.241,0.456 z m -14.381,-56.122 c 1.646,-0.062 3.288,-0.123 4.916,-0.123 h 0.417 c 4.874,0 9.775,-0.509 14.514,-0.998 4.654,-0.484 9.467,-0.982 14.168,-0.982 0.353,0 0.705,0.002 1.06,0.008 2.716,0.039 5.472,0.146 8.243,0.252 3.533,0.138 7.188,0.277 10.776,0.277 2.785,0 5.255,-0.086 7.551,-0.258 3.409,-0.264 6.361,-0.394 9.024,-0.394 2.3,0 4.392,0.095 6.395,0.281 0.56,0.053 1.188,0.139 1.859,0.229 1.478,0.2 3.152,0.43 4.802,0.43 2.691,0 4.643,-0.629 5.968,-1.922 2.133,-2.08 2.063,-3.791 1.629,-4.857 -0.846,-2.078 -3.679,-3.026 -5.951,-3.026 -0.575,0 -1.129,0.057 -1.645,0.168 -0.859,0.186 -1.788,0.274 -2.839,0.274 h -10e-4 c -2.362,0 -4.921,-0.469 -7.396,-0.922 -1.756,-0.322 -3.571,-0.656 -5.262,-0.805 -2.143,-0.189 -4.4,-0.281 -6.903,-0.281 -4.229,0 -8.555,0.271 -12.737,0.529 -3.5,0.217 -7.116,0.44 -10.629,0.504 l -0.918,0.008 c -4.294,0 -8.563,-0.508 -14.271,-1.695 -0.802,-0.17 -1.643,-0.252 -2.568,-0.252 -1.351,0 -2.69,0.179 -3.988,0.351 -1.302,0.172 -2.532,0.336 -3.778,0.336 -0.577,0 -1.107,-0.035 -1.618,-0.109 -4.85,-0.692 -9.169,-1.043 -12.839,-1.043 -6.651,0 -10.875,1.121 -12.91,3.428 -1.486,1.679 -1.877,3.658 -1.102,5.574 1.166,2.881 4.593,4.812 7.231,5.014 1.146,0.089 2.378,0.132 3.76,0.132 1.676,-0.003 3.36,-0.065 5.042,-0.128 z"
         id="path82" />
      <path
         inkscape:connector-curvature="0"
         d="m 344.457,779.283 c -1.861,-0.441 -2.838,-4.693 -3.335,-8.178 -0.666,-4.646 0.188,-9.664 1.899,-11.812 1.711,-2.146 0.972,7.338 0.726,11.271 -0.217,3.495 2.57,9.161 0.71,8.719 z"
         id="path84" />
      <path
         inkscape:connector-curvature="0"
         d="m 307.062,771.311 c 3.88,0.125 3.903,6.795 0.721,8.109 -2.916,1.205 -3.441,-7.113 -0.721,-8.109 0.853,0.027 -0.659,0.24 0,0 z"
         id="path86" />
      <path
         inkscape:connector-curvature="0"
         d="m 298.809,760.732 c -0.036,3.682 -1.738,6.698 -2.7,1.065 -0.997,-5.82 2.537,-7.686 2.7,-1.065 -0.01,1.014 -0.035,-1.371 0,0 z"
         id="path88" />
      <path
         inkscape:connector-curvature="0"
         d="m 308.67,705.105 c -0.495,1.698 -0.87,6.946 -2.181,3.905 -1.313,-3.041 -2.158,-8.856 0.521,-10.022 4.082,-1.773 2.025,5.133 1.66,6.117 -0.332,1.137 0.272,-0.736 0,0 z"
         id="path90" />
      <path
         inkscape:connector-curvature="0"
         d="m 330.297,819.119 c -0.062,-1.156 0.538,-2.844 1.712,-3.182 0.734,-0.212 0.189,3.53 0.002,7.432 -0.112,2.338 0.085,4.19 0.404,6.371 0.318,2.178 -0.946,0.362 -1.305,-1.523 -0.566,-2.969 -0.902,-8.047 -0.813,-9.098 0.05,-1.056 -0.073,0.873 0,0 z"
         id="path92" />
      <path
         inkscape:connector-curvature="0"
         d="m 337.64,816.211 c 0,-0.666 -0.52,-3.473 0.339,-3.969 0.858,-0.498 1.802,3.17 1.83,5.504 0.029,2.332 -2.093,6.738 -1.998,4.453 0.095,-2.283 -0.011,-3.992 -0.171,-5.988 0,-0.557 0.079,0.984 0,0 z"
         id="path94" />
      <path
         inkscape:connector-curvature="0"
         d="m 382.139,730.895 c 0,-0.002 0,-0.004 0,-0.008 -0.464,-4.715 -5.323,-4.707 -8.09,-7.289 -2.873,-2.682 -5.246,-8.319 -7.048,-11.828 -4.579,-8.905 -8.136,-18.288 -13.223,-26.985 -1.889,-3.242 -4.302,-3.754 -7.814,-3.549 -4.59,0.266 -9.227,-0.355 -13.808,-0.646 -10.421,-0.656 -21.675,-3.315 -32.075,-2.387 -5.499,0.496 -12.549,14.67 -15.371,19.006 -4.883,7.5 -10.105,14.76 -14.853,22.357 -2.764,4.426 -5.729,5.625 -9.473,8.891 -3.556,3.111 -2.637,9.402 -2.37,13.674 0.189,3.033 0.839,9.674 5.143,9.787 6.434,0.182 7.782,2.027 9.942,7.898 2.184,5.938 9.331,19.551 4.206,24.719 -4.339,4.377 -7.01,25 2.578,23.662 2.965,-0.42 6.908,-1.845 8.533,1.68 1.369,2.971 2.541,5.828 3.399,8.982 2.57,9.438 5.36,19.002 6.321,28.743 0.854,8.675 9.266,5.343 14.936,6.685 9.092,2.158 18.168,1.811 27.221,3.486 10.934,2.021 10.389,-10.457 12.466,-17.945 2.531,-9.129 4.379,-18.416 6.593,-27.613 2.141,-8.797 11.68,-3.42 14.442,-11.41 1.009,-2.908 1.473,-8.805 0.676,-11.903 -1.646,-6.375 -2.022,-6.113 -7.254,-9.619 -1.969,-4.166 0.525,-9.207 1.618,-13.234 1.42,-5.233 1.891,-10.914 4.283,-15.82 1.586,-3.254 6.185,-1.329 7.511,-5.047 1.476,-4.137 1.937,-9.957 1.511,-14.287 z m -22.473,-11.684 c 1.799,-1.568 4.813,-0.35 4.857,2.072 v 0 0 0 c 0.042,2.393 3.129,5.459 0.781,7.494 -1.875,1.625 -4.072,0.35 -5.33,-1.324 -1.118,-1.49 -1.944,-6.812 -0.308,-8.242 z M 322.22,711.58 c 0.456,-3.529 0.559,-20.941 6.578,-20.443 6.651,0.549 1.743,19.474 4.719,15.877 2.977,-3.596 -1.323,-12.432 3.484,-14.135 6.403,-2.264 10.096,-2.127 12.981,3.924 2.968,6.222 4.384,11.064 4.384,17.976 -0.205,4.916 -0.268,13.393 -7.684,11.633 -5.938,-1.412 1.041,-15.586 -3.532,-16.521 -2.312,-0.471 -1.142,13.207 -1.841,14.754 -1.745,3.854 -12.544,3.033 -15.909,2.371 -4.666,-0.926 -3.6,-12.186 -3.18,-15.436 -0.013,0.094 -0.014,0.115 0,0 z m -33.63,7.367 c 0.072,-7.652 2.829,-13.662 6.877,-19.988 4.069,-6.377 5.278,-12.666 14.235,-9.635 2.776,0.938 5.985,1.543 6.074,5.141 0.109,4.004 -0.116,8.006 0.148,12.004 0.28,4.191 4.494,17.615 -0.582,20.049 -3.063,1.468 -7.95,0.375 -11.284,0.509 -2.803,0.11 -3.925,-2.394 -4.014,-4.804 -0.116,-3.364 2.499,-21.02 -0.771,-17.291 -3.271,3.73 0.559,15.207 -0.577,19.3 -0.696,2.502 -5.488,4.987 -7.978,3.692 -2.118,-1.104 -2.153,-6.914 -2.128,-8.977 -0.005,0.403 0.011,-1.199 0,0 z m -6.768,-1.592 c 1.433,-0.044 2.242,3.045 2.124,4.891 -0.119,1.861 -0.879,3.66 -2.324,4.356 -2.949,1.421 -3.563,-1.854 -2.755,-4.928 0.505,-1.92 1.523,-4.276 2.955,-4.319 z m 0.046,45.803 c -0.314,-1.861 -1.318,-4.076 -2.437,-4.551 -1.119,-0.478 -2.288,-1.642 -2.288,-3.388 0.002,-2.129 -0.276,-5.631 2.412,-6.34 1.342,-0.354 1.479,-0.311 3.678,0.725 2.199,1.035 -0.328,8.144 1.085,11.38 0.886,2.026 1.704,3.896 0.923,6.071 -1.734,0.896 -3.192,-2.815 -3.369,-3.873 0.122,0.728 0.043,0.259 -0.004,-0.024 z m 34.296,61.047 c -10e-4,0.018 -10e-4,0.029 -0.003,0.049 0.002,-0.014 0.002,-0.033 0.003,-0.049 -10e-4,0.023 -10e-4,0.035 -0.003,0.057 -0.223,3.828 0.579,23.59 -6.146,19.039 -2.635,-1.783 -3.159,-7.035 -4.173,-9.778 -1.939,-5.255 -4.973,-10.041 -6.311,-15.507 -0.594,-2.418 -2.303,-10.793 -0.7,-12.842 1.535,-1.963 7.346,-2.258 8.381,-1.121 1.034,1.14 0.688,12.914 2.543,13.777 1.854,0.863 0.206,-10.744 0.696,-11.705 0.49,-0.963 1.917,-0.658 3.414,-0.416 1.497,0.242 1.411,1.119 1.588,2.982 0.461,4.885 1.028,10.645 0.711,15.514 z m 31.413,-17.635 c -6.292,6.627 -2.57,18.586 -4.116,26.955 -0.393,2.127 -4.318,15.555 -7.996,11.684 -1.993,-2.104 -1.256,-4.885 -4.647,-2.135 -2.368,1.922 -4.312,-0.873 -5.252,-2.857 -4.477,-9.375 -7.209,-24.174 -1.578,-33.438 2.997,-4.935 7.178,-5.053 12.412,-3.9 0.676,0.148 15.374,-0.75 11.181,3.687 0.172,-0.181 0.317,-0.336 -0.004,0.004 z m 18.507,-11.107 c -0.064,0.146 -0.567,1.269 -0.318,0.711 -1.561,3.492 -16.346,1.389 -19.813,1.242 -4.397,-0.178 -8.825,-0.572 -13.228,-0.463 -4.425,0.109 -8.712,1.473 -13.147,1.438 -7.735,-0.063 -15.42,0.894 -23.146,0.896 -3.084,0 -5.057,-0.248 -7.479,-2.283 -1.648,-1.379 -4.864,2.402 -4.83,-1.4 0.067,-7.491 10.804,-7.396 15.749,-7.315 8.534,0.131 17.094,0.572 25.627,0.854 7.646,0.25 16.585,-0.895 24.037,0.851 3.149,0.735 19.044,-0.104 16.229,6.184 0.209,-0.471 0.298,-0.668 0.319,-0.715 z m -52.196,-28.822 c 0.007,0.183 0.012,0.285 0,0.019 0.207,4.834 -1.138,9.358 0.178,14.225 1.161,4.277 -8.754,3.508 -10.653,3.539 -5.067,0.027 -12.435,0.844 -12.316,-6.338 0.087,-5.246 -2.042,-10.129 -1.834,-15.389 0.135,-3.425 -1.769,-10.933 0.966,-13.435 1.873,-1.717 4.783,0.213 6.935,-0.047 2.574,-0.311 4.336,-2.527 7.026,-2.754 3.974,-0.34 10.249,-2.09 10.478,3.52 0.233,5.624 -1.006,11.119 -0.78,16.66 z m 7.799,-8.7 c -0.003,-0.021 -0.005,-0.035 -0.006,-0.054 0.001,0.017 0.001,0.021 0.004,0.039 -0.427,-3.229 0.65,-10.602 3.832,-11.631 4.598,-0.254 9.171,-0.233 13.773,-0.188 9.657,0.098 12.261,6.245 12.28,15.629 0.014,5.617 3.165,21.342 -4.711,22.619 -2.9,-0.063 -10.354,0.854 -11.861,-2.332 -1.184,-2.502 -0.15,-11.205 -1.795,-9.472 -1.644,1.734 -1.298,5.756 -1.801,8.006 -0.999,4.468 -6.394,5.589 -8.446,1.244 -0.518,-3.565 -0.713,-7.166 -1.228,-10.735 -0.643,-4.449 0.525,-8.742 -0.041,-13.125 z m 43.537,-2.078 c -0.003,0.008 -0.003,0.014 -0.006,0.021 10e-4,-0.004 0.003,-0.008 0.003,-0.012 -0.002,0.006 -0.003,0.012 -0.005,0.018 -1.557,5.183 -4.25,11.063 -3.961,16.437 0.106,1.983 -2.936,1.858 -3.036,0 -0.124,-2.217 -1.436,-4.738 -1.338,-6.896 0.193,-4.27 -1.333,-15.149 1.967,-18.231 1.266,-1.185 5.354,-0.947 6.494,0.209 2.22,2.245 0.637,5.948 -0.118,8.454 z m 5.687,-15.558 c -2.716,2.65 -8.396,1.242 -11.684,0.931 -5.146,-0.482 -10.477,-0.287 -15.624,0.108 -8.665,0.656 -17.775,-0.146 -26.461,-0.272 -9.972,-0.162 -19.929,2.004 -29.971,1.973 -4.577,-0.014 -9.27,0.469 -13.833,0.121 -3.778,-0.291 -8.861,-4.621 -5.329,-8.609 4.077,-4.621 19.149,-2.787 24.689,-1.994 4.061,0.578 7.968,-1.166 11.876,-0.34 5.176,1.078 10.096,1.81 15.454,1.713 10.017,-0.18 20.282,-1.627 30.144,-0.756 4.977,0.439 10.922,2.496 15.856,1.429 3.497,-0.757 9.104,1.579 4.883,5.696 z"
         id="path96" />
    </g>
  </g>
</svg>
