<?xml version="1.0" encoding="UTF-8" standalone="no"?>
<!-- Created with Inkscape (http://www.inkscape.org/) -->

<svg
   xmlns:dc="http://purl.org/dc/elements/1.1/"
   xmlns:cc="http://creativecommons.org/ns#"
   xmlns:rdf="http://www.w3.org/1999/02/22-rdf-syntax-ns#"
   xmlns:svg="http://www.w3.org/2000/svg"
   xmlns="http://www.w3.org/2000/svg"
   xmlns:sodipodi="http://sodipodi.sourceforge.net/DTD/sodipodi-0.dtd"
   xmlns:inkscape="http://www.inkscape.org/namespaces/inkscape"
   width="33.50478mm"
   height="33.50478mm"
   viewBox="0 0 33.504779 33.50478"
   version="1.1"
   id="svg2961"
   inkscape:version="0.92.3 (2405546, 2018-03-11)"
   sodipodi:docname="curved_stairs.svg">
  <defs
     id="defs2955" />
  <sodipodi:namedview
     id="base"
     pagecolor="#ffffff"
     bordercolor="#666666"
     borderopacity="1.0"
     inkscape:pageopacity="0.0"
     inkscape:pageshadow="2"
     inkscape:zoom="2.8"
     inkscape:cx="26.51496"
     inkscape:cy="44.761196"
     inkscape:document-units="mm"
     inkscape:current-layer="layer1"
     showgrid="false"
     inkscape:window-width="1366"
     inkscape:window-height="703"
     inkscape:window-x="0"
     inkscape:window-y="0"
     inkscape:window-maximized="1" />
  <metadata
     id="metadata2958">
    <rdf:RDF>
      <cc:Work
         rdf:about="">
        <dc:format>image/svg+xml</dc:format>
        <dc:type
           rdf:resource="http://purl.org/dc/dcmitype/StillImage" />
        <dc:title></dc:title>
      </cc:Work>
    </rdf:RDF>
  </metadata>
  <g
     inkscape:label="Layer 1"
     inkscape:groupmode="layer"
     id="layer1"
     transform="translate(-110.869,-82.944039)">
    <g
       transform="matrix(0.26458333,0,0,0.26458333,42.994697,48.896083)"
       id="Curved_Stairs">
      <path
         style="fill:#e3e3ea"
         inkscape:connector-curvature="0"
         d="m 365.558,223.418 -1.384,0.161 c 0.184,-1.655 0.013,-3.611 -0.345,-5.923 -0.556,-3.594 -1.499,-7.099 -2.412,-10.489 -0.695,-2.58 -1.413,-5.245 -1.93,-7.863 -1.14,-5.864 -6.553,-12.153 -6.279,-14.42 0.288,-2.393 -1.591,-4.053 -3.249,-5.52 -0.456,-0.402 -0.934,-0.82 -1.381,-1.271 -1.678,-1.676 -3.135,-3.557 -4.677,-5.546 -1.407,-1.815 -2.861,-3.692 -4.516,-5.428 -0.506,-0.531 -1.033,-1.112 -1.576,-1.71 -1.665,-1.832 -3.552,-3.907 -5.522,-5.347 -1.015,-0.738 -2.089,-1.113 -3.192,-1.113 -1.73,0 -3.124,0.886 -4.269,2.117 0.169,-1.569 -0.057,-2.922 -0.687,-4.125 -1.926,-3.663 -6.702,-4.353 -12.234,-5.15 -3.537,-0.513 -7.15,-1.31 -10.647,-2.082 -3.941,-0.87 -8.016,-1.771 -12.111,-2.296 -1.26,-0.165 -2.36,-0.242 -3.368,-0.242 -2.711,0 -4.731,0.646 -6.214,1.896 l -0.917,-11.11 c 0,0 -10.553,-6.415 -16.14,-2.483 -2.768,1.949 0.1,24.162 0.414,46.973 0.319,23.221 -1.876,47.05 -0.414,49.869 2.08,4.013 13.557,2.795 19.856,1.79 -0.936,3.185 -3.506,13.226 -0.222,17.894 1.95,2.768 22.213,-2.867 45.023,-3.181 23.221,-0.32 46.668,2.948 49.869,0.413 3.202,-2.535 -11.476,-25.814 -11.476,-25.814 z"
         id="path284" />
      <path
         inkscape:connector-curvature="0"
         d="m 280.018,216.907 c -2.39,-19.684 -3.406,-39.418 -4.346,-59.236 -0.227,-4.853 0.081,-9.561 -0.673,-14.4 -0.856,-5.524 -5.503,-2.37 -8.485,-1.578 -2.681,0.715 -5.935,-2.778 -6.934,-4.862 -2.37,-4.94 3.511,-7.384 7.08,-7.941 4.171,-0.651 9.036,0.382 13.121,1.252 3.9,0.822 2.876,5.518 5.128,7.992 1.697,1.865 7.264,2.57 9.738,3.172 4.938,1.198 10.251,2.578 15.324,3.028 4.031,0.354 7.761,1.938 11.761,2.46 2.607,0.338 8.269,1.401 10.288,3.1 7.438,6.268 13.502,13.611 20.112,20.647 3.421,3.642 5.82,5.784 7.383,10.639 1.252,3.902 4.344,6.416 5.392,10.596 2.457,9.805 3.063,21.124 6.83,30.475 2.252,2.643 5.897,1.665 7.646,5.106 1.993,3.897 1.555,8.218 1.437,12.482 -0.104,3.812 1.146,10.301 -2.157,13.095 -3.352,2.84 -5.251,-6.814 -5.626,-8.247 -0.862,-3.286 -0.704,-8.377 -4.8,-9.331 -5.125,-1.192 -10.231,-1.779 -15.447,-2.383 -4.607,-0.533 -8.571,0.9 -13.115,1.003 -5.599,0.121 -11.268,-0.229 -16.834,0.497 -9.503,0.387 -19.342,1.153 -28.819,0.695 -14.594,-0.709 -0.961,16.994 -10.653,19.851 -8.215,2.42 -4.422,-10.56 -6.449,-14.349 -3.164,-5.909 -12.082,0.748 -16.15,-4.054 -1.616,-1.907 -1.076,-5.234 0.946,-6.69 2.521,-1.811 7.045,0.085 9.85,0.341 2.771,0.254 6.74,1.135 8.198,-1.968 1.388,-2.957 0.664,-8.236 0.254,-11.392 -0.311,-2.557 0.341,2.636 0,0 z m 9.618,9.165 c 5.783,0.565 15.337,-7.608 19.549,-11.102 6.68,-5.543 14.005,-10.666 20.935,-15.964 5.776,-4.417 11.563,-8.394 18.008,-11.779 5.397,-2.835 1.581,-4.631 -1.235,-7.447 -3.39,-3.39 -5.918,-7.54 -9.23,-11.016 -2.032,-2.133 -4.399,-5.036 -6.775,-6.773 -3.896,-2.834 -6.501,4.271 -7.894,6.667 -2.298,3.946 -3.798,7.587 -6.493,11.361 -2.556,3.581 -5.307,7 -7.748,10.66 -4.585,6.872 -9.316,14.122 -12.668,21.691 -2.075,3.114 -5.084,7.162 -6.149,10.759 -0.146,0.486 -0.664,4.475 -0.3,2.943 z m -8.281,-64.461 c 0,15.668 2.104,31.037 3.662,46.588 1.046,10.443 6.778,-0.207 9.216,-4.39 4.071,-6.983 7.883,-13.882 12.867,-20.288 4.359,-5.602 8.399,-10.979 11.563,-17.366 4.235,-8.552 -0.138,-9.413 -8.104,-10.564 -6.925,-1.001 -13.734,-3.085 -20.646,-3.974 -8.528,-1.099 -8.882,2.356 -8.558,9.994 0,0.672 -0.089,-2.131 0,0 z m 72.868,65.344 c 7.431,0.77 8.388,-1.59 7.251,-8.936 -0.957,-6.188 -3.112,-12.118 -4.327,-18.261 -1.637,-8.428 -6.064,-8.063 -12.678,-4.621 -6.336,3.298 -13.274,8.459 -18.218,13.59 -5.229,5.427 -12.243,9.085 -18.038,13.874 -1.218,1.005 -8.119,3.781 -6.159,6.146 1.639,1.986 5.876,1.073 8.066,1.157 7.047,0.269 14.165,-0.671 21.214,-0.87 7.694,-0.217 15.289,-2.587 22.889,-2.079 0.796,0.082 -0.798,-0.054 0,0 z"
         id="path286" />
    </g>
  </g>
</svg>
