<?xml version="1.0" encoding="UTF-8" standalone="no"?>
<!-- Created with Inkscape (http://www.inkscape.org/) -->

<svg
   xmlns:dc="http://purl.org/dc/elements/1.1/"
   xmlns:cc="http://creativecommons.org/ns#"
   xmlns:rdf="http://www.w3.org/1999/02/22-rdf-syntax-ns#"
   xmlns:svg="http://www.w3.org/2000/svg"
   xmlns="http://www.w3.org/2000/svg"
   xmlns:sodipodi="http://sodipodi.sourceforge.net/DTD/sodipodi-0.dtd"
   xmlns:inkscape="http://www.inkscape.org/namespaces/inkscape"
   width="30mm"
   height="60mm"
   viewBox="0 0 30 60"
   version="1.1"
   id="svg17559"
   inkscape:version="0.92.3 (2405546, 2018-03-11)"
   sodipodi:docname="dirt_trans.svg">
  <defs
     id="defs17553" />
  <sodipodi:namedview
     id="base"
     pagecolor="#ffffff"
     bordercolor="#666666"
     borderopacity="1.0"
     inkscape:pageopacity="0.0"
     inkscape:pageshadow="2"
     inkscape:zoom="1.979899"
     inkscape:cx="-26.028382"
     inkscape:cy="116.29064"
     inkscape:document-units="mm"
     inkscape:current-layer="Dirt_Patch"
     showgrid="false"
     inkscape:window-width="1366"
     inkscape:window-height="703"
     inkscape:window-x="0"
     inkscape:window-y="0"
     inkscape:window-maximized="1" />
  <metadata
     id="metadata17556">
    <rdf:RDF>
      <cc:Work
         rdf:about="">
        <dc:format>image/svg+xml</dc:format>
        <dc:type
           rdf:resource="http://purl.org/dc/dcmitype/StillImage" />
        <dc:title></dc:title>
      </cc:Work>
    </rdf:RDF>
  </metadata>
  <g
     inkscape:label="Layer 1"
     inkscape:groupmode="layer"
     id="layer1"
     transform="translate(-104.43115,-103.94336)">
    <g
       transform="matrix(0.26458333,0,0,0.26458333,-32.913839,-69.448109)"
       id="Dirt_Patch">
      <path
         style="fill:none"
         inkscape:connector-curvature="0"
         d="m 584.578,680.495 c -11.82,-12.433 -24.644,-9.343 -39.662,1.782 -15.574,11.124 -19.912,21.44 -21.025,39.239 -1.11,15.021 -3.336,33.107 0,47.571 2.783,14.462 -0.672,22.961 -0.114,37.979 0.557,13.905 6.965,10.837 17.744,36.489 10.78,25.654 39.555,25.617 52.901,20.61 16.689,-5.563 20.039,-22.18 21.148,-36.644 1.114,-13.904 -3.841,-24.404 1.604,-47.677 5.444,-23.271 -1.213,-25.376 -3.438,-42.063 -0.56,-8.901 4.815,-27.707 -0.748,-35.494 -4.449,-5.558 -16.59,-9.359 -28.41,-21.792 z"
         id="path2" />
      <path
         inkscape:connector-curvature="0"
         d="m 543.982,766.161 c -4.789,6.414 -5.341,13.986 -8.517,14.124 -3.178,0.138 -4.963,-14.331 -9.93,-19.608 -4.967,-5.275 0.598,-4.138 4.488,0.259 3.893,4.397 3.403,12.946 7.59,6.438 1.5,-2.333 3.225,-3.542 6.901,-8.378 3.679,-4.835 12.925,-1.952 9.56,-0.779 -3.361,1.172 -5.303,1.529 -10.092,7.944 z"
         id="path4" />
      <path
         inkscape:connector-curvature="0"
         d="m 586.996,750.778 c 5.586,-0.319 8.83,2.063 10.559,6.348 1.728,4.282 -5.039,-1.656 -11.18,-1.312 -6.141,0.344 -8.521,2.634 -6.967,6.386 2.701,6.521 0.414,8.993 -5.474,5.071 -3.907,-2.604 -6.625,-2.354 -11.303,-0.975 -4.676,1.381 -4.469,-4.206 1.738,-5.724 6.207,-1.52 7.77,-3.264 11.061,-6.006 4.091,-3.404 5.978,-3.467 11.566,-3.788 z"
         id="path6" />
      <path
         inkscape:connector-curvature="0"
         d="m 545.049,839.425 c -2.688,6.421 9.365,13.676 13.635,15.957 3.482,1.861 7.095,2.474 10.91,3.072 4.847,0.763 -2.58,4.451 -4.28,4.545 -8.505,0.475 -18.382,-7.494 -22.695,-14.271 -1.926,-3.033 -4.234,-7.63 -2.933,-11.347 0.515,-1.466 1.519,-2.598 3.177,-2.507 3.174,0.173 2.606,2.075 2.186,4.551 -0.492,1.177 0.14,-0.828 0,0 z"
         id="path8" />
      <path
         inkscape:connector-curvature="0"
         d="m 528.354,730.084 c 0,-4.056 -1.745,-7.258 -2.088,-11.122 -0.399,-4.531 1.304,-8.043 3.355,-11.919 2.188,-4.129 5.221,-6.852 9.635,-8.495 4.824,-0.626 0.635,4.588 -0.668,5.498 -3.258,2.274 -4.813,6.54 -6.492,9.969 -1.729,3.558 0.705,8.191 1.271,11.748 0.521,3.258 0.481,9.052 -2.303,11.501 -3.289,2.895 -2.935,-7.18 -2.71,-7.18 0,-0.802 0.007,0 0,0 z"
         id="path10" />
      <path
         inkscape:connector-curvature="0"
         d="m 614.932,809.512 c 0,3.211 -1.705,6.436 -1.914,9.727 -0.215,3.362 0.644,6.768 0.505,10.166 -0.156,3.736 -0.761,7.024 -2.976,10.16 -1.016,1.439 -6.487,6.875 -6.551,2.015 -0.035,-2.954 1.783,-5.021 3.139,-7.552 1.48,-2.753 0.547,-7.947 0.666,-10.929 0.16,-4.089 0.322,-7.854 1.441,-11.842 0.725,-2.568 5.367,-6.978 5.69,-1.745 0,0.178 -0.065,-1.029 0,0 z"
         id="path12" />
      <path
         inkscape:connector-curvature="0"
         d="m 549.127,674.389 c 1.189,-2.535 4.971,3.973 7.527,4.429 2.354,0.422 5.332,-5.719 6.918,-7.064 2.698,-2.288 7.526,-2.871 10.887,-3.488 6.4,-1.178 -0.152,2.495 -2.156,3.483 -7.063,3.479 -7.116,11.998 -12.989,16.573 -4.113,3.229 -5.875,-1.243 -7.082,-5.706 -0.851,-3.134 -4.294,-5.692 -3.105,-8.227 z"
         id="path14" />
      <path
         inkscape:connector-curvature="0"
         d="m 605.957,705.392 c 1.234,6.801 -14.053,-5.587 -15.42,-6.887 -2.514,-2.399 -4.019,-5.48 -7.705,-6.207 -2.119,-0.419 -7.353,0.799 -8.066,-2.215 -1.553,-6.591 11.884,-4.043 14.431,-1.984 3.198,2.587 4.783,6.656 8.168,9.221 2.588,1.959 7.498,4.815 8.592,8.072 0.16,0.882 -0.254,-0.756 0,0 z"
         id="path16" />
      <path
         inkscape:connector-curvature="0"
         d="m 612.762,736.58 c 0.047,6.442 -4.088,1.026 -5.229,-0.708 -2.275,-3.451 -4.187,-8.574 -10.045,-11.058 -5.857,-2.483 2.346,-5.12 5.785,-1.558 3.969,4.102 5.663,4.809 8.807,-0.481 1.912,-3.216 4.699,-7.213 7.984,-9.164 3.842,-2.281 8.782,1.647 5.004,2.394 -3.845,0.747 -6.427,3.875 -8.591,6.938 -1.264,1.783 -2.211,3.797 -3.264,5.708 -1.822,3.309 -0.457,4.419 -0.451,7.929 0.009,1.114 -0.002,-0.806 0,0 z"
         id="path18" />
      <path
         inkscape:connector-curvature="0"
         d="m 593.398,867.773 c -6.486,0.993 -2.818,-8.737 -5.646,-12.221 -2.826,-3.481 -13.229,-4.69 -6.234,-5.104 6.992,-0.414 7.031,0.328 9.478,3.311 2.443,2.982 3.938,6.381 6.492,5.427 2.272,-0.849 4.336,-4.391 10.682,-4.046 6.348,0.345 -5.584,3.999 -8.344,7.104 -2.762,3.103 -1.799,5.389 -6.428,5.529 -2.921,0.449 0.803,-0.024 0,0 z"
         id="path20" />
      <path
         inkscape:connector-curvature="0"
         d="m 610.99,769.615 c 1.09,-7.05 -0.433,-11.719 -1.908,-18.443 -1.66,-7.557 4.574,-4.821 6.111,0.438 2.178,7.439 3.071,14.498 -0.023,21.825 -0.703,1.663 -2.229,6.149 -4.637,3.773 -1.644,-1.64 0.082,-5.719 0.457,-7.593 0.137,-0.886 -0.451,2.251 0,0 z"
         id="path22" />
      <path
         inkscape:connector-curvature="0"
         d="m 547.609,808.719 c 4.896,-2.688 10.207,-2.637 11.655,-1.418 1.449,1.219 -2.969,1.865 -4.828,2.797 -5.219,2.617 -8.346,4.553 -9.034,8.276 -0.691,3.725 -0.64,6.094 -2.853,6.254 -2.51,0.181 -1.449,-2.646 -1.356,-6.321 0.092,-3.677 1.518,-6.902 6.416,-9.588 z"
         id="path24" />
      <path
         inkscape:connector-curvature="0"
         d="m 580.445,838.927 c 0.459,6.322 -8.629,-1.041 -10.593,-1.62 -2.768,-0.815 -5.186,-0.063 -7.151,1.991 -1.623,1.706 -4.594,2.934 -4.771,-0.6 -0.643,-12.632 20.164,-9.465 22.515,0.229 0.032,0.424 -0.367,-1.514 0,0 z"
         id="path26" />
      <path
         inkscape:connector-curvature="0"
         d="m 628.674,779.849 c 3.795,2.554 -2.52,7.459 -3.889,9.435 -1.555,2.24 -3.744,9.684 -6.67,10.012 -3.719,0.417 -2.563,-9.289 -1.49,-11.197 2.197,-3.914 7.633,-7.712 12.049,-8.25 0.75,0.505 -0.385,0.047 0,0 z"
         id="path28" />
      <path
         inkscape:connector-curvature="0"
         d="m 563.9,725.703 c 2.002,4.958 -7.849,-0.294 -9.039,-0.307 -2.648,-0.029 -9.73,6.837 -10.759,1.688 -1.813,-9.081 17.421,-11.019 19.798,-1.381 0.371,0.913 -0.379,-1.532 0,0 z"
         id="path30" />
      <path
         inkscape:connector-curvature="0"
         d="m 539.219,823.777 c -0.629,7.006 -3.19,3.594 -4.164,-0.367 -0.594,-2.428 -1.024,-6.711 -3.172,-8.277 -1.637,-1.193 -7.035,-3.725 -5.518,-4.759 1.516,-1.035 7.965,0.462 9.653,2.346 3.091,3.439 3.628,6.262 3.201,11.057 -0.073,0.792 0.187,-2.106 0,0 z"
         id="path32" />
      <path
         inkscape:connector-curvature="0"
         d="m 566.354,801.754 c -6.745,-0.771 -3.311,-8.441 2.313,-7.888 2.283,0.229 4.215,2.146 3.691,4.59 -0.538,2.506 -3.854,3.298 -6.004,3.298 -0.506,-0.058 0.085,0 0,0 z"
         id="path34" />
      <path
         inkscape:connector-curvature="0"
         d="m 599.779,806.007 c -0.199,6.321 -4.168,1.667 -7.015,0.146 -3.627,-1.94 -11.217,3.461 -12.741,-0.256 -1.609,-3.943 5.084,-5.693 7.538,-5.624 2.693,0.072 12.757,0.579 12.218,5.734 -0.058,1.887 0.024,-0.216 0,0 z"
         id="path36" />
      <path
         inkscape:connector-curvature="0"
         d="m 538.75,744.508 c -0.807,4.617 -0.432,9.375 -0.238,14.027 -1.746,4.105 -4.188,-1.752 -4.395,-3.66 -0.431,-4.017 -0.308,-8.938 1.467,-12.642 2.445,-5.105 3.973,-1.874 3.166,2.275 -0.326,1.86 0.09,-0.466 0,0 z"
         id="path38" />
      <path
         inkscape:connector-curvature="0"
         d="m 577.199,722.223 c -3.447,-0.414 -6.578,-0.139 -7.394,-6.108 -1.104,-8.076 8.636,-6.031 10.842,-2.237 2.21,3.793 -0.001,8.759 -3.448,8.345 z"
         id="path40" />
      <path
         inkscape:connector-curvature="0"
         d="m 605.295,788.483 c 3.426,0.714 11.58,11.468 5.088,12.272 -2.537,0.313 -3.5,-4.719 -4.504,-6.324 -0.83,-1.326 -6.492,-6.835 -0.584,-5.948 1.295,0.27 -0.731,-0.11 0,0 z"
         id="path42" />
    </g>
  </g>
</svg>
