<?xml version="1.0" encoding="UTF-8" standalone="no"?>
<!-- Created with Inkscape (http://www.inkscape.org/) -->

<svg
   xmlns:dc="http://purl.org/dc/elements/1.1/"
   xmlns:cc="http://creativecommons.org/ns#"
   xmlns:rdf="http://www.w3.org/1999/02/22-rdf-syntax-ns#"
   xmlns:svg="http://www.w3.org/2000/svg"
   xmlns="http://www.w3.org/2000/svg"
   xmlns:sodipodi="http://sodipodi.sourceforge.net/DTD/sodipodi-0.dtd"
   xmlns:inkscape="http://www.inkscape.org/namespaces/inkscape"
   width="33.44632mm"
   height="33.44632mm"
   viewBox="0 0 33.446319 33.44632"
   version="1.1"
   id="svg7736"
   inkscape:version="0.92.3 (2405546, 2018-03-11)"
   sodipodi:docname="gear3.svg">
  <defs
     id="defs7730" />
  <sodipodi:namedview
     id="base"
     pagecolor="#ffffff"
     bordercolor="#666666"
     borderopacity="1.0"
     inkscape:pageopacity="0.0"
     inkscape:pageshadow="2"
     inkscape:zoom="0.35"
     inkscape:cx="-163.9372"
     inkscape:cy="-148.80411"
     inkscape:document-units="mm"
     inkscape:current-layer="layer1"
     showgrid="false"
     inkscape:window-width="1366"
     inkscape:window-height="703"
     inkscape:window-x="0"
     inkscape:window-y="0"
     inkscape:window-maximized="1" />
  <metadata
     id="metadata7733">
    <rdf:RDF>
      <cc:Work
         rdf:about="">
        <dc:format>image/svg+xml</dc:format>
        <dc:type
           rdf:resource="http://purl.org/dc/dcmitype/StillImage" />
        <dc:title></dc:title>
      </cc:Work>
    </rdf:RDF>
  </metadata>
  <g
     inkscape:label="Layer 1"
     inkscape:groupmode="layer"
     id="layer1"
     transform="translate(-38.46136,-76.015924)">
    <g
       transform="matrix(0.26458333,0,0,0.26458333,-131.08201,8.225992)"
       id="Gear_x2C__Flat">
      <path
         style="fill:#c6a724"
         inkscape:connector-curvature="0"
         d="m 764.193,317.565 c -0.153,-1.49 -0.296,-2.878 -0.371,-4.092 -0.084,-1.396 -0.819,-3.127 -2.23,-3.62 -0.284,-0.098 -0.668,-0.146 -1.169,-0.146 -0.462,0 -0.932,0.034 -1.4,0.067 -0.586,0.043 -1.17,0.081 -1.741,0.081 -1.284,0 -3.183,-0.17 -4.836,-1.633 -4.934,-4.355 0.027,-10.685 2.993,-14.466 0.669,-0.854 1.304,-1.662 1.656,-2.226 -0.2,-0.788 -1.981,-2.464 -2.669,-3.107 -0.483,-0.454 -0.914,-0.86 -1.218,-1.197 -1.86,-2.044 -3.606,-4.459 -5.496,-7.603 -0.355,-0.593 -0.712,-1.294 -1.085,-2.032 -0.813,-1.617 -1.928,-3.829 -3.095,-4.229 -0.085,-0.03 -0.184,-0.043 -0.299,-0.043 -0.92,0 -2.368,0.81 -3.646,1.525 -1.116,0.623 -2.269,1.268 -3.426,1.608 -0.813,0.24 -1.653,0.361 -2.494,0.361 -6.149,0 -11.684,-6.583 -12.803,-12.49 -0.485,-2.564 -1.176,-4.246 -6.126,-4.246 -0.232,0 -0.474,0.006 -0.723,0.015 -0.396,0.013 -0.799,0.018 -1.198,0.018 -1.458,0 -2.905,-0.078 -4.306,-0.154 -1.307,-0.07 -2.601,-0.143 -3.858,-0.143 -3.735,0 -5.954,0.682 -7.663,2.355 -1.543,1.504 -2.003,2.907 -2.354,5.121 -0.644,4.114 -5.246,7.6 -8.309,8.759 -0.727,0.275 -1.453,0.414 -2.158,0.414 -2.961,0 -4.646,-2.259 -5.88,-3.911 l -0.426,-0.568 c -0.105,-0.134 -0.461,-0.572 -0.691,-0.572 -0.652,0 -2.064,1.075 -2.825,1.651 -1.313,0.997 -2.555,2.062 -3.867,3.189 -1.193,1.023 -2.429,2.082 -3.717,3.083 -1.111,0.861 -2.3,1.606 -3.448,2.329 -1.882,1.181 -3.658,2.297 -4.892,3.766 -2.365,2.819 -1.84,3.824 -0.437,6.512 0.769,1.472 1.726,3.302 2.149,5.652 0.667,3.682 -1.42,8.45 -5.476,9.404 -0.518,0.121 -1.071,0.183 -1.651,0.183 -1.286,0 -2.557,-0.302 -3.677,-0.567 -0.924,-0.221 -1.797,-0.428 -2.479,-0.428 -0.486,0 -0.701,0.109 -0.838,0.205 -0.858,0.611 -1.068,1.875 -1.313,3.882 -0.079,0.656 -0.16,1.301 -0.276,1.904 -0.114,0.598 -0.233,1.181 -0.352,1.751 -0.528,2.575 -0.983,4.802 -0.795,7.338 0.074,1.024 0.047,2.304 0.015,3.781 -0.083,3.804 -0.238,10.887 2.46,11.796 0.128,0.043 0.289,0.064 0.492,0.064 0.408,0 0.914,-0.084 1.447,-0.173 0.66,-0.11 1.41,-0.234 2.195,-0.234 1.472,0 2.742,0.454 3.78,1.35 l 0.172,0.149 0.143,0.179 c 1.187,1.491 2.192,3.065 3.169,4.59 0.813,1.271 1.58,2.472 2.431,3.604 3.21,4.259 0.032,7.915 -1.324,9.477 -1.216,1.396 -0.931,4.137 0.571,5.532 5.522,5.123 11.94,9.257 14.035,9.534 0.635,0 1.938,-0.798 2.984,-1.438 1.771,-1.083 3.779,-2.313 6.032,-2.313 0.785,0 1.543,0.153 2.256,0.452 2.656,1.114 3.516,4.026 4.347,6.843 0.81,2.75 1.485,4.724 2.798,5.057 1.731,0.438 3.849,0.66 6.293,0.66 3.738,0 8.251,-0.517 13.413,-1.539 2.685,-0.525 2.922,-1.81 3.213,-5.439 0.237,-2.939 0.53,-6.6 3.729,-9.129 1.278,-1.014 2.763,-1.525 4.412,-1.525 3.534,0 6.888,2.464 8.572,3.936 0.199,0.174 0.387,0.243 0.667,0.243 1.374,0 3.545,-1.569 4.844,-2.508 l 0.749,-0.537 c 3.047,-2.128 6.842,-4.779 9.026,-8.073 0.536,-0.807 0.801,-1.805 1.108,-2.959 0.062,-0.229 0.121,-0.464 0.187,-0.694 -0.146,-0.137 -0.348,-0.308 -0.498,-0.434 -0.733,-0.612 -1.739,-1.449 -2.197,-2.813 -1.122,-3.338 2.384,-9.534 5.402,-10.742 1.659,-0.665 3.264,-0.749 4.479,-0.749 0.498,0 0.997,0.016 1.496,0.033 0.445,0.015 0.892,0.03 1.336,0.03 1.35,0 2.469,-0.145 3.541,-0.834 4.773,-3.065 3.83,-12.203 3.14,-18.877 z m -70.437,25.697 c -0.703,1.719 -2.195,2.743 -3.995,2.743 -0.506,0 -1.036,-0.081 -1.574,-0.242 -3.963,-1.165 -7.084,-3.489 -9.017,-6.722 -0.032,-0.054 -3,-5.317 -1.123,-8.623 0.335,-0.591 0.797,-1.067 1.354,-1.413 l 0.017,-0.637 c 0,0 2.439,-0.024 2.487,-0.024 0.252,0 0.6,0.013 0.97,0.107 1.995,0.391 3.221,1.854 4.062,2.855 0.31,0.369 0.603,0.721 0.862,0.946 0.507,0.443 1.116,0.855 1.761,1.288 0.91,0.615 1.854,1.25 2.728,2.107 1.767,1.736 2.443,5.225 1.468,7.615 z m 3.25,-41.814 c -0.386,2.218 -2.814,3.911 -4.958,5.404 -0.513,0.357 -0.973,0.671 -1.272,0.926 -0.308,0.26 -0.91,1.12 -1.394,1.813 -1.517,2.172 -3.404,4.873 -6.227,4.873 -0.479,0 -0.951,-0.082 -1.407,-0.242 -2.042,-0.719 -2.636,-2.208 -2.81,-3.029 -0.508,-2.435 1.123,-5.31 5.136,-9.047 3.576,-3.333 6.57,-5.023 8.903,-5.023 1.434,0 2.656,0.612 3.444,1.724 0.539,0.757 0.746,1.68 0.585,2.601 z m 14.746,1.574 c 0.57,-3.828 2.881,-4.24 3.846,-4.24 3.916,0 7.528,7.044 7.902,8.963 l -0.18,1.498 c -1.298,2.794 -3.338,3.212 -4.439,3.212 -1.625,0 -3.291,-0.896 -4.692,-2.524 -1.366,-1.582 -2.821,-4.34 -2.437,-6.909 z m 13.653,28.246 c -0.439,3.399 -2.676,5.357 -4.808,6.825 -0.381,0.261 -0.709,0.568 -1.034,0.864 -1.04,0.94 -2.466,2.231 -4.792,2.355 l -0.259,0.008 c -1.122,0 -2.127,-0.394 -2.921,-1.139 l -0.048,-0.04 -0.168,-0.175 c -1.528,-1.727 -1.566,-4.428 -0.158,-6.224 1.442,-1.842 2.652,-2.704 4.051,-3.705 0.343,-0.243 0.709,-0.505 1.112,-0.804 0.7,-0.521 1.058,-0.919 1.369,-1.27 0.563,-0.627 1.412,-1.574 3.108,-1.574 1.299,0 2.608,0.609 3.506,1.626 0.823,0.935 1.192,2.089 1.042,3.253 z"
         id="path223" />
      <path
         inkscape:connector-curvature="0"
         d="m 766.261,313.325 c -0.146,-2.408 -1.474,-4.941 -3.866,-5.776 -2.642,-0.921 -6.031,0.883 -8.334,-1.153 -4.129,-3.646 3.339,-10.604 5.192,-13.709 1.466,-2.444 -2.848,-5.57 -4.238,-7.101 -2.008,-2.206 -3.675,-4.666 -5.21,-7.216 -1.38,-2.302 -2.715,-6.368 -5.48,-7.314 -2.795,-0.957 -6.244,2.289 -8.854,3.06 -5.708,1.681 -11.232,-5.103 -12.208,-10.243 -0.728,-3.844 -2.535,-6.444 -9.327,-6.218 -6.793,0.227 -13.917,-1.866 -18.649,2.77 -1.992,1.942 -2.642,3.826 -3.062,6.492 -0.46,2.941 -4.132,5.857 -6.762,6.853 -2.801,1.062 -4.22,-1.399 -5.666,-3.272 -2.202,-2.854 -4.6,-1.142 -6.927,0.626 -2.619,1.989 -5.001,4.27 -7.603,6.285 -2.818,2.185 -6.4,3.7 -8.716,6.457 -5.109,6.091 0.103,8.188 1.184,14.167 0.451,2.505 -0.945,5.961 -3.632,6.593 -3.026,0.71 -6.87,-2.094 -9.502,-0.221 -2.319,1.649 -2.098,4.846 -2.572,7.317 -0.646,3.362 -1.442,6.246 -1.186,9.729 0.316,4.271 -1.456,15.829 4.133,17.712 2.35,0.79 5.035,-1.241 7.098,0.54 2.051,2.579 3.586,5.512 5.561,8.145 1.847,2.449 0.484,4.446 -1.217,6.402 -2.17,2.494 -1.637,6.707 0.753,8.926 4.842,4.492 12.148,9.738 15.329,10.161 3.18,0.425 7.162,-4.946 10.694,-3.463 3.532,1.484 2.471,10.743 7.488,12.015 5.021,1.272 12.261,0.836 20.777,-0.848 8.279,-1.627 2.613,-10.8 7.986,-15.053 3.248,-2.572 7.663,0.416 9.861,2.334 2.817,2.463 7.032,-1.076 9.268,-2.638 3.46,-2.419 7.296,-5.16 9.662,-8.728 0.938,-1.412 1.227,-2.999 1.683,-4.599 0.613,-2.152 -2.219,-2.688 -2.803,-4.429 -0.681,-2.019 2.128,-6.948 3.995,-7.696 3.688,-1.478 7.549,0.66 11.266,-1.731 7.227,-4.651 4.321,-18.019 3.884,-25.176 z m -7.734,13.674 c -0.839,5.774 -8.109,1.795 -11.574,3.62 -2.213,1.166 -3.567,4.845 -4.704,6.908 -1.505,2.735 -4.388,5.709 -4.965,8.823 -0.451,2.43 4.021,5.811 2.183,7.679 -1.547,1.57 -4.276,5.012 -6.58,5.317 -2.791,0.371 -3.777,-2.841 -5.823,-4.01 -2.868,-1.638 -5.601,-0.207 -7.842,1.695 -2.533,2.152 -5.759,3.155 -8.296,5.3 -2.002,1.693 -1.885,5.167 -2.094,7.525 -0.431,4.861 -10.656,7.01 -13.491,2.947 -1.73,-2.474 -0.409,-5.625 -2.472,-8.015 -2.107,-2.441 -4.581,-1.759 -7.202,-2.976 -2.12,-0.984 -4.28,-2.69 -6.795,-2.481 -3.389,0.279 -4.896,3.915 -7.843,4.519 -2.245,0.458 -4.597,-2.778 -5.893,-4.125 -2.158,-2.259 -2.199,-3.959 -0.01,-6.162 2.109,-2.124 2.385,-3.9 0.636,-6.432 -1.93,-2.793 -3.483,-4.551 -4.646,-7.837 -0.866,-2.445 -1.361,-6.759 -3.206,-8.63 -2.029,-2.063 -5.608,-1.268 -7.979,-2.838 -2.384,-1.579 -1.883,-6.325 -1.633,-8.718 0.389,-3.722 1.326,-6.247 5.248,-6.831 2.698,-0.403 6.77,-0.686 8.798,-2.738 2.091,-2.111 1.953,-5.439 3.841,-7.676 1.808,-2.131 3.184,-3.715 1.024,-6.272 -2.503,-2.971 -1.267,-4.812 1.334,-7.094 2.271,-1.993 6.2,-8.387 9.259,-7.811 2.472,0.467 3.061,3.576 5.397,4.192 3.167,0.837 5.364,-4.116 10.171,-6.731 4.805,-2.616 8.19,-2.037 9.05,-5.411 1.148,-4.514 8.583,-9.211 12.485,-4.523 1.642,1.971 1.241,4.729 2.4,6.927 1.211,2.297 3.619,2.13 5.771,2.87 4.017,1.38 7.944,6.91 12.148,7.084 2.59,0.109 4.206,-2.708 6.858,-1.792 2.091,0.723 4.224,3.53 4.974,5.524 0.983,2.618 -1.37,4.326 -2.253,6.54 -1.05,2.636 0.335,5.483 0.795,8.097 0.977,5.536 0.373,10.076 7.007,11.442 1.982,0.407 4.417,0.231 5.313,2.451 1.155,2.866 1.052,6.648 0.609,9.643 -0.057,0.398 0.426,-2.879 0,0 z"
         id="path225" />
      <path
         inkscape:connector-curvature="0"
         d="m 684.965,324.02 c 2.897,1.054 3.96,3.686 5.696,5.967 2.006,2.639 4.291,2.367 5.89,5.426 1.201,2.295 -0.141,3.392 -0.212,8.62 -0.07,5.229 -2.927,6.57 -6.359,6.018 -3.434,-0.554 -13.207,-6.658 -15.152,-12.493 -1.122,-3.366 -3.699,-7.712 -1.403,-11.104 1.798,-2.674 8.702,-2.434 11.54,-2.434 0.856,0.31 -0.326,0 0,0 z m -2.928,6.782 c -3.771,-0.242 -1.68,5.462 -0.771,6.985 1.701,2.846 4.468,4.709 7.617,5.635 3.622,1.08 3.381,-4.374 1.688,-6.031 -1.302,-1.278 -3.008,-2.096 -4.383,-3.298 -1.322,-1.158 -2.197,-3.167 -4.151,-3.291 -0.828,-0.053 0.805,0.051 0,0 z"
         id="path227" />
      <path
         inkscape:connector-curvature="0"
         d="m 699.479,300.942 c 0,3.164 -4.157,5.698 -6.889,8.572 -3.22,3.392 -5.192,6.878 -6.71,6.953 -2.805,0.142 -12.751,1.854 -10.89,-5.095 0.738,-2.756 2.432,-7.276 5.588,-10.691 6.787,-7.347 17.371,-11.972 18.901,0.261 0,1.248 -0.099,-0.796 0,0 z m -5.048,-0.684 c -1.201,-1.696 -4.521,-0.214 -8.691,3.674 -4.17,3.887 -5.793,7.066 -3.181,7.986 2.613,0.919 4.91,-4.549 6.643,-6.008 1.516,-1.276 6.432,-3.957 5.229,-5.652 z"
         id="path229" />
      <path
         inkscape:connector-curvature="0"
         d="m 723.476,324.014 c -3.039,-0.08 -4.07,-0.763 -6.57,1.051 -2.326,1.688 -3.457,3.598 -6.323,4.542 -6.338,2.095 -3.027,8.704 -0.95,13.153 3.655,7.834 11.468,-0.912 15.047,-4.694 2.519,-2.662 5.839,-8.55 5.569,-11.021 -0.272,-2.475 -3.734,-2.952 -6.773,-3.031 z m -4.262,12.065 c -1.556,1.071 -2.477,2.683 -4.573,2.795 -0.631,0.035 -1.097,-0.188 -1.431,-0.526 -0.025,-0.02 -0.046,-0.047 -0.07,-0.069 -0.687,-0.778 -0.692,-2.142 0,-3.025 1.544,-1.97 2.663,-2.546 4.697,-4.056 2.034,-1.512 1.938,-2.36 3.022,-2.36 1.046,0 2.27,0.972 2.122,2.121 -0.307,2.391 -1.859,3.808 -3.767,5.12 z"
         id="path231" />
      <path
         inkscape:connector-curvature="0"
         d="m 708.646,300.365 c 0.491,-2.372 0.496,-5.667 2.914,-6.979 2.518,-1.364 5.236,0.582 6.992,2.233 3.086,2.9 10.199,11.312 9.171,15.939 -0.923,4.157 -9.561,7.397 -12.272,3.379 -1.61,-2.389 -3.92,-4.143 -6.118,-5.949 -2.54,-2.08 -1.145,-6.001 -0.687,-8.623 0.219,-1.061 -0.306,1.745 0,0 z m 12.458,7.85 c -0.445,-2.294 -6.021,-10.975 -6.938,-4.832 -0.504,3.388 4.657,9.748 6.938,4.832 -0.078,-0.402 -0.149,0.321 0,0 z"
         id="path233" />
      <path
         inkscape:connector-curvature="0"
         d="m 707.85,321.688 c 0.083,7.191 -15.024,6.226 -12.018,-1.695 2.69,-7.087 11.74,-6.243 12.018,1.695 0.007,0.581 -0.084,-2.408 0,0 z"
         id="path235" />
    </g>
  </g>
</svg>
