<?xml version="1.0" encoding="UTF-8" standalone="no"?>
<!-- Created with Inkscape (http://www.inkscape.org/) -->

<svg
   xmlns:dc="http://purl.org/dc/elements/1.1/"
   xmlns:cc="http://creativecommons.org/ns#"
   xmlns:rdf="http://www.w3.org/1999/02/22-rdf-syntax-ns#"
   xmlns:svg="http://www.w3.org/2000/svg"
   xmlns="http://www.w3.org/2000/svg"
   xmlns:sodipodi="http://sodipodi.sourceforge.net/DTD/sodipodi-0.dtd"
   xmlns:inkscape="http://www.inkscape.org/namespaces/inkscape"
   width="32.708931mm"
   height="32.708931mm"
   viewBox="0 0 32.708931 32.708931"
   version="1.1"
   id="svg8337"
   inkscape:version="0.92.3 (2405546, 2018-03-11)"
   sodipodi:docname="gear4.svg">
  <defs
     id="defs8331" />
  <sodipodi:namedview
     id="base"
     pagecolor="#ffffff"
     bordercolor="#666666"
     borderopacity="1.0"
     inkscape:pageopacity="0.0"
     inkscape:pageshadow="2"
     inkscape:zoom="0.35"
     inkscape:cx="-358.08969"
     inkscape:cy="-115.3307"
     inkscape:document-units="mm"
     inkscape:current-layer="layer1"
     showgrid="false"
     inkscape:window-width="1366"
     inkscape:window-height="703"
     inkscape:window-x="0"
     inkscape:window-y="0"
     inkscape:window-maximized="1" />
  <metadata
     id="metadata8334">
    <rdf:RDF>
      <cc:Work
         rdf:about="">
        <dc:format>image/svg+xml</dc:format>
        <dc:type
           rdf:resource="http://purl.org/dc/dcmitype/StillImage" />
        <dc:title></dc:title>
      </cc:Work>
    </rdf:RDF>
  </metadata>
  <g
     inkscape:label="Layer 1"
     inkscape:groupmode="layer"
     id="layer1"
     transform="translate(-89.830873,-85.609824)">
    <g
       transform="matrix(0.26458333,0,0,0.26458333,-80.433657,-16.569041)"
       id="Gear_x2C__Clock">
      <path
         style="fill:#c6a724"
         inkscape:connector-curvature="0"
         d="m 699.993,507.308 c -0.685,0 -0.708,0 -1.71,-1.271 -0.309,-0.395 -0.646,-0.823 -1.049,-1.287 -1.896,-2.178 -3.389,-3.897 -5.822,-3.897 -1.565,0 -3.052,0.76 -4.938,1.984 -1.107,0.717 -2.5,1.097 -4.02,1.097 -3.424,0 -7.425,-2.074 -8.094,-5.918 -0.007,-0.2 0.136,-1.052 0.229,-1.613 0.4,-2.386 0.949,-5.653 -1.502,-7.223 -0.894,-0.569 -1.829,-0.848 -2.857,-0.848 -0.998,0 -1.914,0.263 -2.889,0.542 -0.786,0.224 -1.675,0.479 -2.777,0.645 h -0.002 c -1.187,0 -4.034,-1.848 -5.492,-4.307 -0.65,-1.096 -0.609,-1.683 -0.575,-1.744 0.974,-1.782 2.604,-4.763 1.162,-7.374 -1.397,-2.535 -4.797,-3.028 -7.229,-3.182 -1.813,-0.111 -3.131,-0.862 -3.908,-2.231 -1.073,-1.891 -1.017,-4.789 0.146,-7.045 0.468,-0.911 1.232,-1.822 1.975,-2.706 1.434,-1.705 3.058,-3.639 2.514,-6.021 -0.549,-2.405 -3.05,-3.534 -3.872,-3.908 -2.327,-1.051 -3.312,-3.148 -3.255,-4.765 0.027,-0.837 0.339,-1.937 1.644,-2.418 4.777,-1.771 6.264,-4.351 6.67,-6.203 0.354,-1.622 0.195,-4.136 -2.576,-6.908 -0.741,-0.74 -0.479,-2.28 0.018,-3.471 0.967,-2.33 3.081,-4.304 4.617,-4.304 0.152,0 0.292,0.021 0.428,0.061 0.851,0.248 1.663,0.374 2.421,0.374 2.003,0 3.668,-0.871 4.687,-2.455 1.656,-2.578 1.071,-6.066 0.065,-8.265 -0.018,-0.104 0.084,-0.868 1.053,-2.159 1.708,-2.277 4.446,-4.06 5.461,-4.149 3.493,-0.312 7.792,-1.018 10.016,-3.739 1.056,-1.289 1.509,-2.887 1.313,-4.616 -0.093,-0.825 0.484,-1.611 0.839,-2.007 0.91,-1.02 2.25,-1.659 3.013,-1.69 1.364,1.813 3.689,2.969 6.026,2.969 3.107,0 5.474,-2.021 6.174,-5.277 0.303,-1.401 3.564,-3.282 6.483,-3.282 0.669,0 1.811,0.104 1.956,0.803 0.702,3.349 3.2,5.348 6.684,5.348 2.611,0 5.479,-1.131 7.162,-2.254 1.264,-0.838 2.451,-1.263 3.526,-1.263 1.9,0 3.539,1.313 5.024,2.729 0.391,0.372 0.434,0.573 0.393,1.79 -0.051,1.572 -0.137,4.202 2.854,6.337 1.888,1.352 3.813,2.007 5.885,2.007 1.716,0 3.32,-0.448 4.87,-0.882 l 1.042,-0.286 c 0.061,-0.02 0.129,-0.025 0.201,-0.025 1.749,0 4.473,3.328 4.479,5.007 -0.006,0.413 -0.57,1.604 -0.944,2.388 -1.188,2.505 -3.178,6.696 0.047,9.924 1.618,1.616 3.375,2.284 4.925,2.876 1.872,0.71 3.229,1.226 4.366,3.377 2.701,5.093 2.227,6.019 0.23,9.917 -0.253,0.487 -0.519,1.006 -0.795,1.567 -0.991,1.34 -1.022,2.571 -0.862,3.392 0.448,2.299 2.72,3.521 4.726,4.603 0.361,0.192 0.722,0.388 1.067,0.587 0.602,0.827 1.164,4.355 0.396,7.375 -0.398,1.56 -0.981,2.279 -1.363,2.423 -2.966,1.112 -6.473,2.773 -7.248,5.763 -0.292,1.125 -0.3,2.87 1.326,4.782 0.39,0.469 0.807,2.792 0.246,5.763 -0.449,2.384 -1.237,3.628 -1.603,3.921 -0.478,-0.037 -0.999,-0.061 -1.521,-0.061 -3.5,0 -6.096,1 -7.503,2.896 -0.847,1.14 -1.656,3.153 -0.712,6.27 0.334,1.101 0.552,2.649 -0.295,3.795 -0.705,0.951 -2.072,1.476 -3.847,1.476 -0.347,0 -0.704,-0.02 -1.076,-0.061 -1.523,-0.165 -2.595,-0.237 -3.467,-0.237 -5.903,0 -6.021,4.216 -6.103,7.008 -0.082,2.897 -0.72,3.108 -2.418,3.675 -1.424,0.472 -3.259,1.014 -4.855,1.014 -1.474,0 -2.506,-0.458 -3.348,-1.479 -0.959,-1.164 -2.063,-1.754 -3.28,-1.754 -1.946,0 -3.172,1.423 -4.467,2.928 -1.371,1.593 -3.079,3.576 -5.901,4.366 -1.963,0.539 -3.33,0.806 -4.184,0.806 z"
         id="path201" />
      <path
         inkscape:connector-curvature="0"
         d="m 762.598,444.539 c -2.595,-1.515 -6.142,-2.79 -4.186,-5.152 2.699,-5.514 4.389,-6.933 0.645,-13.996 -2.668,-5.028 -6.688,-3.806 -9.733,-6.85 -3.044,-3.044 1.646,-7.809 1.633,-10.549 -0.015,-3.125 -4.351,-8.318 -7.83,-7.396 -3.479,0.925 -6.144,2.086 -9.696,-0.453 -3.552,-2.536 -0.29,-5.342 -2.971,-7.9 -2.683,-2.559 -6.361,-5.265 -11.672,-1.738 -2.397,1.597 -8.894,3.78 -10.003,-1.522 -1.113,-5.306 -12.325,-2.25 -13.341,2.463 -1.018,4.714 -6.163,3.7 -7.873,1.162 -1.707,-2.541 -8.729,1.157 -8.222,5.652 0.508,4.495 -6.089,6.38 -8.407,5.294 -2.319,-1.088 -10.746,6.795 -9.224,10.131 1.522,3.335 0.972,8.412 -4.189,6.903 -5.16,-1.509 -11.38,8.044 -7.539,11.89 3.843,3.844 1.731,7.168 -3.188,8.988 -4.92,1.821 -4.206,9.263 1.449,11.818 5.653,2.556 0.244,5.203 -1.813,9.204 -2.554,4.966 -1.178,12.488 5.837,12.924 7.015,0.436 5.927,3.371 4.022,6.851 -1.902,3.479 5.057,10.275 8.646,9.731 3.588,-0.544 5.017,-1.845 6.797,-0.706 1.628,1.041 -0.113,5.614 0.152,7.154 1.24,7.101 10.481,10.028 15.946,6.494 3.906,-2.534 4.506,-1.997 7.505,1.453 2.588,2.979 2.33,4.526 9.506,2.516 7.18,-2.013 8.266,-9.732 11.038,-6.361 2.772,3.37 6.92,2.582 10.93,1.25 2.24,-0.745 4.007,-1.561 4.132,-5.98 0.125,-4.421 0.762,-5.001 6.797,-4.352 6.035,0.653 9.515,-3.044 7.883,-8.426 -1.63,-5.383 3.317,-6.2 7.287,-5.873 3.968,0.326 5.762,-10.927 3.315,-13.81 -2.447,-2.883 0.544,-4.946 4.894,-6.579 4.347,-1.631 4.065,-12.718 1.473,-14.235 z m -36.625,-0.514 c 0.991,4.111 0.412,8.647 -4.799,6.966 -3.354,-1.084 -12.046,-2.808 -9.453,-7.899 1.498,-2.934 4.722,-8.854 8.063,-9.849 3.325,-0.992 5.712,8.796 6.189,10.782 0.294,1.214 -0.194,-0.804 0,0 z m 30.31,10.509 c -2.565,0.979 -3.277,0.153 -6.145,0.706 -2.866,0.552 -2.504,2.649 -3.283,5.836 -0.562,2.291 0.454,4.657 2.901,7.16 2.447,2.5 1.035,5.708 -3.314,5.436 -4.351,-0.271 -9.55,5.538 -7.808,9.12 0.896,1.833 2.324,5.986 -1.776,4.303 -2.816,-1.164 -4.547,-4.061 -7.819,-1.438 -2.042,1.635 -2.867,1.369 -3.91,3.187 -1.043,1.816 -0.002,4.631 0.063,7.221 0.099,3.915 -4.932,2.715 -6.207,1.152 -2.632,-3.217 -2.384,-5.538 -6.944,-4.737 -3.662,0.645 -4.202,2.828 -4.474,5.359 -0.272,2.531 -1.084,4.354 -3.314,5.329 -2.117,0.926 -3.034,-0.877 -3.178,-2.682 -0.109,-1.343 -0.624,-2.161 -1.052,-3.44 -0.937,-2.804 -5.536,-3.395 -8.062,-3.2 -1.934,0.15 -3.008,1.012 -4.785,2.665 -1.776,1.652 -3.305,2.884 -4.354,3.349 -1.782,0.788 -4.954,-1.689 -3.745,-4.491 1.207,-2.8 3.313,-6.227 1.359,-7.558 -2.438,-1.661 -5.386,-2.841 -7.778,-4.531 -1.714,-1.225 -4.799,1.2 -6.771,1.725 -2.014,0.538 -3.938,-1.38 -2.852,-3.5 1.086,-2.12 1.373,-2.848 2.012,-4.783 0.64,-1.938 0.313,-2.733 -1.468,-5.384 -0.807,-1.201 -3.251,-2.408 -6.035,-2.064 -2.782,0.341 -4.366,0.678 -5.773,-0.923 -1.136,-1.291 -0.769,-4.032 1.969,-6.036 2.734,-2.007 4.729,-2.395 3.968,-6.962 -0.759,-4.566 -4.11,-4.87 -5.758,-5.583 -1.809,-0.781 -1.442,-3.264 -0.021,-4.174 2.413,-1.55 6.313,-0.578 7.05,-3.038 0.731,-2.461 1.562,-4.11 0.796,-6.614 -0.673,-2.201 -4.594,-5.099 -2.718,-7.558 1.455,-1.909 6.183,-0.673 8.047,-1.468 1.952,-0.838 5.054,-4.824 4.679,-7.019 -0.417,-2.434 -3,-4.256 -1.85,-6.954 1.189,-2.802 4.793,-3.422 7.211,-3.082 3.178,0.456 4.771,0.298 7.405,-1.373 2.771,-1.751 0.802,-5.505 2.268,-7.757 1.42,-2.188 3.296,-1.564 4.605,-0.294 1.313,1.271 4.722,1.569 5.831,1.086 2.572,-1.125 3.358,-3.466 4.446,-5.817 1.952,-4.196 5.075,-2.55 6.543,-0.706 1.606,2.02 4.184,3.563 6.336,4.323 2.262,0.798 5.31,-0.985 7.513,-3.235 2.199,-2.25 6.52,1.041 5.853,2.447 -0.665,1.403 -1.727,2.566 -1.76,3.785 -0.035,1.215 1.977,3.001 1.515,4.044 -0.615,1.392 -3.231,6.487 -4.816,9.137 -3.323,5.566 -12.141,-2.199 -17.5,-0.762 -5.469,1.466 -11.968,2.627 -16.198,6.665 -2.042,1.947 -3.713,3.908 -5.32,6.233 -1.995,2.892 -5.286,7.013 -7.226,13.415 -1.94,6.402 -1.92,8.311 -1.661,11.7 0.249,3.254 1.113,5.811 2.481,8.745 1.559,3.331 2.288,5.16 4.398,8.17 1.909,2.722 5.45,5.819 8.271,7.375 2.693,1.484 5.265,2.749 8.238,3.574 6.639,1.841 14.192,2.993 20.229,-0.728 3.229,-1.99 6.479,-5.335 9.655,-7.576 3.179,-2.241 5.297,-8.034 7.432,-7.432 2.137,0.604 6.588,1.872 7.676,-1.807 1.09,-3.679 -4.049,-6.359 -6.35,-7.788 -2.302,-1.427 1.213,-11.307 -1.542,-17.469 -2.752,-6.162 -4.932,-9.017 -6.732,-11.764 -2.125,-3.257 2.597,-11.149 4.621,-13.686 1.174,-1.479 1.687,-1.744 3.018,-1.354 1.328,0.396 2.146,-1.835 3.589,-2.372 2.234,-0.831 6.92,2.068 5.218,3.753 -1.258,1.258 -3.641,3.385 -2.937,7.338 0.706,3.956 4.405,7.123 9.244,6.904 4.838,-0.217 5.655,6.2 3.208,8.374 -2.447,2.177 -2.523,7.786 -0.762,10.493 1.296,1.991 4.295,1.857 5.927,2.892 1.63,1.035 0.99,5.157 -1.577,6.138 z m -59.244,-0.765 c 2.377,2.315 6.735,3.729 10.073,1.972 3.58,-1.872 6.412,0.328 9.845,1.636 8.57,3.268 4.655,9.104 -1.144,13.38 -5.8,4.275 -12.452,3.664 -15.122,3.011 -4.12,-1.008 -7.813,-3.221 -10.902,-6.077 -5.355,-4.955 -9.075,-11.078 -8.544,-18.562 0.497,-6.994 3.492,-13.98 7.95,-19.354 5.147,-6.211 12.486,-7.098 20.026,-5.31 8.816,2.092 -2.614,15.41 -4.571,17.077 -1.958,1.667 -5.314,0.443 -7.214,3.126 -1.68,2.373 -2.811,6.735 -0.397,9.101 0.6,0.583 -0.634,-0.623 0,0 z"
         id="path203" />
    </g>
  </g>
</svg>
