<?xml version="1.0" encoding="UTF-8" standalone="no"?>
<!-- Created with Inkscape (http://www.inkscape.org/) -->

<svg
   xmlns:dc="http://purl.org/dc/elements/1.1/"
   xmlns:cc="http://creativecommons.org/ns#"
   xmlns:rdf="http://www.w3.org/1999/02/22-rdf-syntax-ns#"
   xmlns:svg="http://www.w3.org/2000/svg"
   xmlns="http://www.w3.org/2000/svg"
   xmlns:sodipodi="http://sodipodi.sourceforge.net/DTD/sodipodi-0.dtd"
   xmlns:inkscape="http://www.inkscape.org/namespaces/inkscape"
   width="25.249781mm"
   height="25.25mm"
   viewBox="0 0 25.249781 25.25"
   version="1.1"
   id="svg1162"
   inkscape:version="0.92.3 (2405546, 2018-03-11)"
   sodipodi:docname="iron_bar.svg">
  <defs
     id="defs1156" />
  <sodipodi:namedview
     id="base"
     pagecolor="#ffffff"
     bordercolor="#666666"
     borderopacity="1.0"
     inkscape:pageopacity="0.0"
     inkscape:pageshadow="2"
     inkscape:zoom="1.979899"
     inkscape:cx="-5.1290831"
     inkscape:cy="7.5290232"
     inkscape:document-units="mm"
     inkscape:current-layer="layer1"
     showgrid="false"
     inkscape:window-width="1366"
     inkscape:window-height="703"
     inkscape:window-x="0"
     inkscape:window-y="0"
     inkscape:window-maximized="1" />
  <metadata
     id="metadata1159">
    <rdf:RDF>
      <cc:Work
         rdf:about="">
        <dc:format>image/svg+xml</dc:format>
        <dc:type
           rdf:resource="http://purl.org/dc/dcmitype/StillImage" />
        <dc:title></dc:title>
      </cc:Work>
    </rdf:RDF>
  </metadata>
  <g
     inkscape:label="Layer 1"
     inkscape:groupmode="layer"
     id="layer1"
     transform="translate(-112.8632,-52.087281)">
    <g
       transform="matrix(0.26458333,0,0,0.26458333,108.55473,47.618532)"
       id="Iron_Bars">
      <g
         id="g315">
        <path
           style="fill:#656668"
           inkscape:connector-curvature="0"
           d="m 102.366,68.651 c -3.108,0 -5.454,-2.39 -5.454,-5.558 0,-1.402 0.479,-2.729 1.345,-3.736 1.009,-1.174 2.469,-1.822 4.109,-1.822 3.109,0 5.455,2.39 5.455,5.559 0,1.402 -0.479,2.729 -1.346,3.736 -1.008,1.173 -2.468,1.821 -4.109,1.821 z"
           id="path307" />
        <path
           style="fill:#656668"
           inkscape:connector-curvature="0"
           d="m 77.04,76.589 c -2.928,0 -5.332,-2.442 -5.846,-5.939 -0.485,-3.308 0.933,-6.053 3.528,-6.833 0.774,-0.232 1.556,-0.351 2.322,-0.351 3.261,0 6.015,2.12 6.694,5.156 0.646,2.868 -0.817,5.648 -3.737,7.173 -0.161,0.088 -0.309,0.154 -0.42,0.206 l -0.002,10e-4 c -0.227,0.104 -0.417,0.191 -0.626,0.252 -0.639,0.222 -1.28,0.333 -1.913,0.335 z"
           id="path309" />
        <path
           style="fill:#656668"
           inkscape:connector-curvature="0"
           d="m 50.355,64.655 c -2.862,0 -4.875,-1.868 -5.008,-4.647 -0.153,-3.215 2.309,-7.052 6.086,-7.414 l 0.253,-0.01 c 0.287,0.002 0.73,0.007 1.197,0.091 3.457,0.508 4.715,3.002 4.729,5.065 0.02,3.007 -2.481,6.493 -6.555,6.88 -0.244,0.024 -0.478,0.035 -0.702,0.035 z"
           id="path311" />
        <path
           style="fill:#656668"
           inkscape:connector-curvature="0"
           d="m 25.403,72.472 c -1.424,0 -2.705,-0.569 -3.609,-1.604 -0.768,-0.877 -1.605,-2.491 -1.242,-5.201 0.584,-4.369 3.715,-6.359 6.376,-6.359 1.638,0 3.155,0.704 4.166,1.931 1.105,1.345 1.502,3.18 1.112,5.168 v 0.007 l -0.05,0.207 c -0.155,0.548 -0.33,1.157 -0.646,1.658 -1.286,2.547 -3.635,4.193 -6.107,4.193 z"
           id="path313" />
      </g>
      <path
         inkscape:connector-curvature="0"
         d="m 36.683,65.323 c 0.782,13.389 -23.104,15.922 -20.145,0.523 0.963,-5.014 4.295,-9.524 9.358,-10.864 7.292,-1.933 10.787,3.292 10.787,10.341 0.087,1.493 0,-0.912 0,0 z m -6.82,0.645 c 1.059,-5.338 -6.137,-6.058 -6.95,0.017 -0.773,5.777 5.475,5.162 6.95,-0.017 0.106,-0.524 -0.681,2.395 0,0 z"
         id="path317" />
      <path
         inkscape:connector-curvature="0"
         d="m 87.602,71.145 c 0,-5.409 -1.993,-10.35 -7.816,-11.642 -5.187,-1.152 -11.054,3.038 -11.569,8.214 -0.597,5.985 2.519,10.985 8.81,11.73 4.897,0.592 10.411,-4.676 10.575,-8.302 0,-1.412 0.027,-0.61 0,0 z m -9.018,2.691 c -4.935,2.269 -6.864,-6.628 -3.176,-7.735 5.413,-1.625 8.854,5.121 3.176,7.735 -1.058,0.486 1.556,-0.716 0,0 z"
         id="path319" />
      <path
         inkscape:connector-curvature="0"
         d="m 61.534,56.434 c 0.275,11.174 -18.67,18.623 -20.034,4.751 -0.619,-6.308 1.901,-10.212 7.925,-12.053 6.253,-1.913 11.689,0.577 12.109,7.302 0.033,1.317 -0.043,-0.698 0,0 z m -9.872,-1.466 c -4.042,0.386 -5.98,7.771 -0.831,7.279 4.63,-0.441 6.631,-7.221 0.831,-7.279 -0.372,0.035 2.225,0.023 0,0 z"
         id="path321" />
      <path
         inkscape:connector-curvature="0"
         d="m 109.307,55.691 c -2.939,-2.419 -9.444,-2.18 -12.529,-0.028 -4.78,3.336 -5.239,9.126 -1.485,13.522 8.876,10.398 21.833,-7.059 14.014,-13.494 z m -6.941,10.576 c -4.093,0 -4.093,-6.347 0,-6.347 4.094,-0.001 4.094,6.347 0,6.347 z"
         id="path323" />
    </g>
  </g>
</svg>
