<?xml version="1.0" encoding="UTF-8" standalone="no"?>
<!-- Created with Inkscape (http://www.inkscape.org/) -->

<svg
   xmlns:dc="http://purl.org/dc/elements/1.1/"
   xmlns:cc="http://creativecommons.org/ns#"
   xmlns:rdf="http://www.w3.org/1999/02/22-rdf-syntax-ns#"
   xmlns:svg="http://www.w3.org/2000/svg"
   xmlns="http://www.w3.org/2000/svg"
   xmlns:sodipodi="http://sodipodi.sourceforge.net/DTD/sodipodi-0.dtd"
   xmlns:inkscape="http://www.inkscape.org/namespaces/inkscape"
   width="25.249912mm"
   height="25.25mm"
   viewBox="0 0 25.249912 25.25"
   version="1.1"
   id="svg1769"
   inkscape:version="0.92.3 (2405546, 2018-03-11)"
   sodipodi:docname="iron_gate.svg">
  <defs
     id="defs1763" />
  <sodipodi:namedview
     id="base"
     pagecolor="#ffffff"
     bordercolor="#666666"
     borderopacity="1.0"
     inkscape:pageopacity="0.0"
     inkscape:pageshadow="2"
     inkscape:zoom="2.8"
     inkscape:cx="41.418305"
     inkscape:cy="6.5679001"
     inkscape:document-units="mm"
     inkscape:current-layer="layer1"
     showgrid="false"
     inkscape:window-width="1366"
     inkscape:window-height="703"
     inkscape:window-x="0"
     inkscape:window-y="0"
     inkscape:window-maximized="1" />
  <metadata
     id="metadata1766">
    <rdf:RDF>
      <cc:Work
         rdf:about="">
        <dc:format>image/svg+xml</dc:format>
        <dc:type
           rdf:resource="http://purl.org/dc/dcmitype/StillImage" />
        <dc:title></dc:title>
      </cc:Work>
    </rdf:RDF>
  </metadata>
  <g
     inkscape:label="Layer 1"
     inkscape:groupmode="layer"
     id="layer1"
     transform="translate(-34.244091,-62.947503)">
    <g
       transform="matrix(0.26458333,0,0,0.26458333,29.935762,24.705993)"
       id="Iron_Bar_Gate">
      <path
         style="fill:#656668"
         inkscape:connector-curvature="0"
         d="m 26.949,201.378 c -2.445,0 -4.603,-1.689 -5.5,-4.303 -0.956,-2.789 -0.167,-5.688 2.013,-7.385 0.967,-0.75 2.087,-1.146 3.244,-1.146 2.695,0 5.231,2.142 6.03,5.093 0.757,2.793 -0.326,5.437 -2.827,6.897 l -0.054,0.032 c -0.372,0.212 -0.646,0.37 -0.975,0.451 -0.656,0.247 -1.292,0.361 -1.931,0.361 z m 32.216,-0.931 -0.204,0.242 c -3.774,-0.194 -8.196,-1.261 -8.885,-7.855 -0.183,-1.76 -0.563,-5.422 2.551,-7.758 1.563,-1.175 3.534,-1.746 6.022,-1.746 2.275,0 4.616,0.468 6.88,0.919 1.82,0.361 3.54,0.706 4.824,0.706 0.508,-0.01 0.908,-0.047 1.32,-0.082 0.634,-0.057 1.289,-0.11 1.921,-0.11 3.801,0 5.192,2.111 5.693,3.883 0.798,2.846 -0.264,5.835 -2.777,7.802 -4.885,3.822 -10.944,4.027 -16.29,4.207 z m 42.736,-4.146 c -2.61,0 -5.252,-1.783 -5.265,-5.766 -0.005,-1.641 0.563,-3.079 1.646,-4.164 1.152,-1.156 2.85,-1.82 4.655,-1.82 2.158,0 4.072,0.907 5.12,2.424 0.72,1.041 0.975,2.275 0.757,3.563 -0.062,0.597 -0.291,1.218 -0.566,1.707 -1.178,2.382 -3.748,4.056 -6.347,4.056 z"
         id="path298" />
      <path
         inkscape:connector-curvature="0"
         d="m 63.139,204.666 c -4.48,0.138 -9.924,2.093 -14.206,0.185 -5.096,-2.27 -4.925,-7.556 -4.648,-12.38 0.266,-4.607 0.975,-10.524 5.71,-12.899 3.564,-1.789 9.832,-0.184 13.792,-0.351 5.244,-0.217 10.2,-1.23 15.505,-0.797 6.764,0.547 7.748,9.276 7.396,14.38 -0.368,5.328 -0.735,9.441 -6.635,9.859 -2.566,0.182 -4.764,1.6 -7.336,1.699 -3.192,0.128 -6.384,0.207 -9.578,0.304 -3.199,0.099 3.194,-0.097 0,0 z m -4.053,-6.357 c 5.587,-0.204 11.396,-0.172 15.955,-3.738 1.656,-1.298 2.521,-3.244 1.949,-5.279 -0.838,-2.978 -4.153,-2.003 -6.452,-1.955 -4.603,0.096 -12.368,-3.443 -16.481,-0.354 -1.841,1.382 -1.825,3.534 -1.61,5.604 0.445,4.262 2.603,5.516 6.639,5.722 0.799,-0.03 -0.794,-0.041 0,0 z"
         id="path300" />
      <path
         inkscape:connector-curvature="0"
         d="m 38.125,193.73 c -1.468,-12.924 -18.557,-12.895 -21.495,-0.633 -3.561,14.893 21.495,15.1 21.495,0.633 -0.091,-0.811 0,0.388 0,0 z m -9.455,4.767 c -4.096,2.346 -7.201,-4.235 -3.744,-6.925 3.6,-2.797 8.377,4.27 3.744,6.925 -1.2,0.688 1.182,-0.677 0,0 z"
         id="path302" />
      <path
         inkscape:connector-curvature="0"
         d="m 111.283,185.717 c -1.106,-5.584 -7.445,-6.174 -11.856,-4.466 -5.755,2.241 -6.755,9.108 -5.403,14.229 1.539,5.858 8.216,7.097 12.736,3.816 4.767,-3.459 5.636,-7.96 4.523,-13.579 -0.155,-0.784 0.233,1.173 0,0 z m -5.006,5.091 c -1.369,3.614 -7.24,4.749 -7.257,-0.28 -0.015,-5.274 9.018,-4.364 7.257,0.28 -0.534,1.412 0.616,-1.62 0,0 z"
         id="path304" />
    </g>
  </g>
</svg>
