<?xml version="1.0" encoding="UTF-8" standalone="no"?>
<!-- Created with Inkscape (http://www.inkscape.org/) -->

<svg
   xmlns:dc="http://purl.org/dc/elements/1.1/"
   xmlns:cc="http://creativecommons.org/ns#"
   xmlns:rdf="http://www.w3.org/1999/02/22-rdf-syntax-ns#"
   xmlns:svg="http://www.w3.org/2000/svg"
   xmlns="http://www.w3.org/2000/svg"
   xmlns:sodipodi="http://sodipodi.sourceforge.net/DTD/sodipodi-0.dtd"
   xmlns:inkscape="http://www.inkscape.org/namespaces/inkscape"
   width="25.863119mm"
   height="25.863119mm"
   viewBox="0 0 25.863119 25.86312"
   version="1.1"
   id="svg13251"
   inkscape:version="0.92.3 (2405546, 2018-03-11)"
   sodipodi:docname="mushroom2.svg">
  <defs
     id="defs13245" />
  <sodipodi:namedview
     id="base"
     pagecolor="#ffffff"
     bordercolor="#666666"
     borderopacity="1.0"
     inkscape:pageopacity="0.0"
     inkscape:pageshadow="2"
     inkscape:zoom="2.8"
     inkscape:cx="-0.18371048"
     inkscape:cy="25.993994"
     inkscape:document-units="mm"
     inkscape:current-layer="layer1"
     showgrid="false"
     inkscape:window-width="1366"
     inkscape:window-height="703"
     inkscape:window-x="0"
     inkscape:window-y="0"
     inkscape:window-maximized="1" />
  <metadata
     id="metadata13248">
    <rdf:RDF>
      <cc:Work
         rdf:about="">
        <dc:format>image/svg+xml</dc:format>
        <dc:type
           rdf:resource="http://purl.org/dc/dcmitype/StillImage" />
        <dc:title></dc:title>
      </cc:Work>
    </rdf:RDF>
  </metadata>
  <g
     inkscape:label="Layer 1"
     inkscape:groupmode="layer"
     id="layer1"
     transform="translate(-85.342247,-77.477475)">
    <g
       transform="matrix(0.26458333,0,0,0.26458333,-54.126213,-62.058541)"
       id="Mushrooms_2">
      <path
         style="fill:#9b7175"
         inkscape:connector-curvature="0"
         d="m 542.583,620.795 c -1.107,0 -2.179,-0.183 -3.182,-0.543 -3.569,-1.277 -8.916,-4.994 -9.014,-10.003 -0.046,-2.3 0.774,-4.378 2.373,-6.008 1.918,-1.957 4.907,-3.126 7.998,-3.126 1.832,0 3.559,0.41 4.983,1.184 3.448,1.867 7.714,7.201 6.409,11.961 -1,3.664 -5.205,6.535 -9.567,6.535 z m 29.755,-7.874 c -0.223,0 -0.447,-0.011 -0.68,-0.029 -3.599,-0.311 -6.58,-2.286 -7.976,-5.285 -1.055,-2.273 -0.947,-4.678 0.285,-6.427 1.542,-2.188 3.829,-3.344 6.616,-3.344 1.522,0 3.206,0.328 5.147,1.003 3.103,1.08 4.805,4.063 4.235,7.42 -0.554,3.311 -3.356,6.662 -7.627,6.662 z m 18.738,-5.103 c -1.678,0 -3.31,-0.911 -4.359,-2.438 -1.405,-2.04 -2.024,-5.222 -0.069,-7.382 1.465,-1.615 3.596,-2.189 4.973,-2.189 l 0.46,0.021 c 0.966,0.092 2.798,0.474 4.198,2.003 1.832,1.999 1.447,5.777 -0.807,7.924 -0.382,0.363 -1.168,0.896 -1.76,1.277 -0.813,0.515 -1.718,0.784 -2.636,0.784 z m -40.873,-9.695 c -2.456,0 -5.02,-1.51 -6.09,-3.589 -0.616,-1.195 -0.737,-2.532 -0.338,-3.763 0.427,-1.31 1.43,-2.439 2.756,-3.105 0.977,-0.492 2.018,-0.74 3.088,-0.74 0.543,0 1.1,0.063 1.697,0.191 2.53,0.555 3.575,3.487 3.813,4.783 0.316,1.374 0.036,2.884 -0.766,4.066 -0.8,1.188 -2.024,1.937 -3.445,2.11 -0.234,0.031 -0.472,0.047 -0.715,0.047 z m 59.453,-3.318 c -0.271,0 -0.563,-0.009 -0.893,-0.023 -1.722,-0.094 -3.284,-1.036 -4.295,-2.586 -0.979,-1.504 -1.229,-3.282 -0.669,-4.76 0.876,-2.305 2.313,-3.452 5.297,-4.233 0.543,-0.143 1.104,-0.216 1.662,-0.216 1.711,0 3.378,0.694 4.57,1.906 1.041,1.057 1.599,2.367 1.578,3.693 -0.043,2.287 -0.869,3.715 -2.853,4.934 -1.33,0.814 -2.474,1.285 -4.397,1.285 z m -46.762,-13.522 c -1.043,0 -2.029,-0.293 -2.854,-0.85 -2.14,-1.443 -2.807,-3.127 -2.99,-4.285 -0.175,-1.104 -0.085,-2.804 1.341,-4.63 1.313,-1.679 3.316,-2.641 5.499,-2.641 0.826,0 1.652,0.139 2.395,0.402 2.48,0.883 3.956,3.088 3.754,5.618 -0.268,3.285 -3.738,6.386 -7.145,6.386 z m 41.127,-3.139 c -4.215,0 -8.25,-1.91 -11.362,-5.382 -3.438,-3.829 -5.177,-8.988 -4.653,-13.801 1.699,-15.646 10.396,-17.983 15.428,-17.983 0.438,0 0.883,0.018 1.343,0.05 3.78,0.277 10.11,0.738 13.494,5.828 1.339,2.013 1.83,4.662 2.265,7.003 0.135,0.723 0.262,1.413 0.409,2.02 l 0.328,1.344 -0.064,0.101 c 0.832,7.35 -5.555,17.148 -11.614,19.681 -1.82,0.754 -3.696,1.139 -5.574,1.139 z m -59.198,-6.619 c -3.46,0 -6.721,-1.623 -9.173,-4.57 -2.646,-3.176 -3.882,-7.703 -3.145,-11.532 0.633,-3.275 2.594,-5.886 5.672,-7.548 0.748,-0.404 1.634,-0.607 2.641,-0.607 4.521,0 12.091,4.267 14.147,9.063 1.503,3.501 2.096,8.599 -3.625,13.007 -1.829,1.41 -4.144,2.187 -6.517,2.187 z m 17.699,-30.75 c -2.204,0 -4.188,-1.489 -4.827,-3.621 -0.634,-2.109 0.205,-4.291 2.132,-5.559 l 0.421,-0.366 c 0.985,-0.812 1.854,-1.215 3.109,-1.447 0.267,-0.05 0.543,-0.076 0.816,-0.076 1.472,0 2.953,0.742 3.957,1.985 0.313,0.396 0.548,0.811 0.712,1.247 1.011,1.997 0.588,4.396 -1.065,5.823 -0.163,0.143 -0.32,0.258 -0.479,0.363 -1.042,0.974 -2.429,1.548 -3.792,1.552 -0.326,0.067 -0.656,0.099 -0.984,0.099 z"
         id="path115" />
      <path
         inkscape:connector-curvature="0"
         d="m 622.528,546.869 c -3.397,-6.443 -7.576,-8.799 -14.889,-9.738 -15.571,-1.961 -24.771,9.735 -25.372,24.154 -0.004,0.13 -0.009,0.225 -0.012,0.241 0.014,7.679 3.211,12.896 9.643,17.31 1.629,1.118 3.062,2.063 5.599,3.162 2.537,1.098 7.564,1.191 12.967,-0.671 5.401,-1.863 6.921,-4.887 8.122,-6.062 2.14,-2.099 3.421,-5.446 4.394,-8.218 2.31,-6.582 2.894,-13.83 -0.452,-20.178 z m -14.039,27.491 c -9.672,4.04 -18.637,-5.948 -17.644,-15.092 0.879,-8.096 4.204,-16.084 13.72,-15.39 4.039,0.296 8.835,0.82 11.319,4.559 1.396,2.099 1.691,5.726 2.277,8.119 0.038,0.163 0.055,0.226 0.018,0.079 1.498,5.814 -4.408,15.52 -9.69,17.725 z"
         id="path117" />
      <path
         inkscape:connector-curvature="0"
         d="m 608.227,583.207 c -1.985,0.692 -5.617,2.377 -5.698,5.509 -0.082,3.133 0.433,4.208 2.576,5.525 3.727,2.286 8.063,1.679 10.592,-0.674 1.91,-1.776 3.038,-5.423 1.577,-7.827 -1.461,-2.405 -5.339,-3.829 -9.047,-2.533 z m 5.822,5.332 c -0.022,1.223 -0.249,1.779 -1.49,2.542 -1.244,0.763 -1.907,0.932 -3.646,0.841 -1.734,-0.092 -2.918,-2.203 -2.438,-3.472 0.481,-1.268 1.064,-1.884 3.348,-2.481 2.283,-0.601 4.249,1.123 4.226,2.57 z"
         id="path119" />
      <path
         inkscape:connector-curvature="0"
         d="m 560.058,558.502 c -2.889,-5.545 -4.099,-7.755 -8.019,-10.18 -4.635,-2.865 -9.986,-6.952 -15.729,-3.856 -4.774,2.575 -7.729,9.461 -7.942,14.606 -0.285,6.679 5.955,15.651 16.179,16.107 10.224,0.457 18.399,-11.133 15.511,-16.677 z m -10.461,8.568 c -2.959,2.28 -8.039,2.508 -11.749,-1.945 -3.079,-3.693 -4.668,-11.301 1.691,-14.734 2.517,-1.356 10.957,2.774 12.8,7.066 1.843,4.295 0.222,7.328 -2.742,9.613 z"
         id="path121" />
      <path
         inkscape:connector-curvature="0"
         d="m 568.97,568.748 c -3.335,-1.861 -5.7,-1.793 -9.412,0.23 -3.713,2.022 -4.126,6.629 -3.104,9.681 1.022,3.052 5.527,5.556 10.738,2.335 4.343,-2.684 5.113,-10.384 1.778,-12.246 z m -7.331,9.315 c -2.01,-1.356 -2.314,-3.087 -0.991,-4.781 1.321,-1.693 3.424,-1.75 4.677,-1.306 1.253,0.446 1.959,1.481 1.861,2.696 -0.188,2.335 -3.66,4.662 -5.547,3.391 z"
         id="path123" />
      <path
         inkscape:connector-curvature="0"
         d="m 546.545,597.711 c 2.196,0.873 5.554,1.727 7.323,0.397 1.769,-1.326 2.616,-3.133 2.585,-5.169 -0.03,-2.033 -0.731,-3.686 -2.067,-5.257 -3.526,-4.148 -7.965,-1.568 -9.979,0.246 -2.015,1.816 -2.263,3.729 -1.974,5.336 0.29,1.608 1.916,3.574 4.112,4.447 z m 1.27,-7.489 c 1.087,-0.547 2.054,-0.491 2.896,-0.31 0.843,0.186 1.496,1.739 1.615,2.564 0.293,1.105 -0.328,2.588 -1.758,2.764 -1.431,0.177 -3.252,-0.735 -3.913,-2.02 -0.662,-1.281 0.072,-2.452 1.16,-2.998 z"
         id="path125" />
      <path
         inkscape:connector-curvature="0"
         d="m 548.725,600.345 c -7.155,-4.712 -11.068,-4.16 -15.227,-1.325 -4.157,2.834 -7.064,7.134 -6.23,12.458 1.796,11.46 14.216,15.524 23.349,10.393 3.563,-2.001 5.906,-5.295 5.525,-8.714 -0.381,-3.419 -0.261,-8.1 -7.417,-12.812 z m -8.36,17.215 c -3.061,-1.095 -7.054,-4.104 -7.117,-7.365 -0.11,-5.555 7.227,-7.498 11.131,-5.38 2.668,1.444 5.853,5.638 5.015,8.69 -0.835,3.054 -5.373,5.363 -9.029,4.055 z"
         id="path127" />
      <path
         inkscape:connector-curvature="0"
         d="m 582.187,610.495 c 1.264,-2.95 0.782,-10.085 -2.476,-12.539 -3.256,-2.454 -7.568,-3.009 -9.841,-2.871 -4.073,0.249 -7.74,2.799 -9.063,5.456 -1.32,2.658 -0.586,5.085 -0.557,5.236 0.35,1.882 1.227,3.604 2.455,5.062 2.709,3.213 7.26,5.157 11.452,4.939 3.192,-0.169 6.767,-2.332 8.03,-5.283 z m -7.393,-8.954 c 4.55,1.583 2.186,8.939 -2.889,8.501 -5.075,-0.438 -7.089,-5.103 -5.6,-7.213 1.489,-2.11 3.937,-2.871 8.489,-1.288 z"
         id="path129" />
      <path
         inkscape:connector-curvature="0"
         d="m 584.87,604.385 c 1.23,3.25 4.635,4.838 6.95,4.642 2.315,-0.197 3.81,-0.869 5.189,-2.704 2.714,-3.608 2.795,-8.403 -1.188,-11.191 -2.419,-1.691 -5.778,-1.53 -8.543,0.154 -2.763,1.685 -3.571,6.027 -2.408,9.099 z m 6.939,-5.707 c 0.697,0.066 1.678,0.342 2.359,1.087 0.683,0.744 0.558,2.753 -0.67,3.92 -0.24,0.229 -1.249,0.888 -1.336,0.943 -1.115,0.71 -2.347,0.207 -3.089,-0.87 -0.74,-1.076 -1.206,-2.845 -0.307,-3.839 0.902,-0.992 2.346,-1.308 3.043,-1.241 z"
         id="path131" />
      <path
         inkscape:connector-curvature="0"
         d="m 564.482,528.001 c -8.434,-1.008 -12.111,11.037 -3.962,14.232 9.27,3.636 15.661,-13.279 3.962,-14.232 z m -1.261,9.8 c -2.261,0.742 -4.112,-2.307 -1.821,-3.813 0.183,-0.12 0.313,-0.254 0.674,-0.555 0.59,-0.482 1.02,-0.69 1.806,-0.838 0.813,-0.151 1.594,0.357 2.028,0.896 0.149,0.188 0.249,0.388 0.308,0.597 0.459,0.771 0.459,1.852 -0.305,2.51 -0.143,0.123 -0.278,0.197 -0.415,0.288 -0.575,0.622 -1.46,1.021 -2.275,0.915 z"
         id="path133" />
    </g>
  </g>
</svg>
