<?xml version="1.0" encoding="UTF-8" standalone="no"?>
<!-- Created with Inkscape (http://www.inkscape.org/) -->

<svg
   xmlns:dc="http://purl.org/dc/elements/1.1/"
   xmlns:cc="http://creativecommons.org/ns#"
   xmlns:rdf="http://www.w3.org/1999/02/22-rdf-syntax-ns#"
   xmlns:svg="http://www.w3.org/2000/svg"
   xmlns="http://www.w3.org/2000/svg"
   xmlns:sodipodi="http://sodipodi.sourceforge.net/DTD/sodipodi-0.dtd"
   xmlns:inkscape="http://www.inkscape.org/namespaces/inkscape"
   width="33mm"
   height="49.5mm"
   viewBox="0 0 33 49.5"
   version="1.1"
   id="svg14458"
   inkscape:version="0.92.3 (2405546, 2018-03-11)"
   sodipodi:docname="skeleton2.svg">
  <defs
     id="defs14452" />
  <sodipodi:namedview
     id="base"
     pagecolor="#ffffff"
     bordercolor="#666666"
     borderopacity="1.0"
     inkscape:pageopacity="0.0"
     inkscape:pageshadow="2"
     inkscape:zoom="1.979899"
     inkscape:cx="-11.582595"
     inkscape:cy="72.029273"
     inkscape:document-units="mm"
     inkscape:current-layer="layer1"
     showgrid="false"
     inkscape:window-width="1366"
     inkscape:window-height="703"
     inkscape:window-x="0"
     inkscape:window-y="0"
     inkscape:window-maximized="1" />
  <metadata
     id="metadata14455">
    <rdf:RDF>
      <cc:Work
         rdf:about="">
        <dc:format>image/svg+xml</dc:format>
        <dc:type
           rdf:resource="http://purl.org/dc/dcmitype/StillImage" />
        <dc:title></dc:title>
      </cc:Work>
    </rdf:RDF>
  </metadata>
  <g
     inkscape:label="Layer 1"
     inkscape:groupmode="layer"
     id="layer1"
     transform="translate(-82.867719,-58.424841)">
    <g
       transform="matrix(0.26458333,0,0,0.26458333,48.63071,-119.69155)"
       id="Skeleton_x2C__Sitting">
      <path
         style="fill:#f2f2f2"
         inkscape:connector-curvature="0"
         d="m 137.684,853.235 c -0.108,0 -0.61,-0.231 -1.443,-1.265 -0.864,-1.072 -1.32,-2.189 -1.212,-2.988 0.146,-1.083 0.463,-1.473 1.064,-2.118 0.882,-0.952 1.293,-2.226 1.155,-3.581 -0.192,-1.866 -1.417,-3.729 -3.36,-5.108 -0.099,-0.289 0.111,-1.648 0.401,-2.131 0.32,-0.467 1.399,-1.293 2.188,-1.896 0.485,-0.371 0.963,-0.737 1.385,-1.094 l 0.32,-0.258 c 2.118,-1.721 3.18,-3.64 1.463,-7.412 -0.029,-0.192 0.123,-1.365 1.141,-2.72 0.683,-0.905 2.189,-2.446 4.658,-2.616 6.417,-0.437 8.151,-2.135 10.07,-4.677 0.16,-0.214 0.33,-0.438 0.515,-0.669 1.759,-2.204 1.987,-6.429 2.246,-13.708 0.084,-2.396 0.173,-4.873 0.357,-7.081 0.298,-3.578 0.229,-6.433 0.168,-8.953 -0.062,-2.595 -0.111,-4.645 0.295,-6.431 0.293,-1.284 0.838,-2.542 1.365,-3.757 1.052,-2.434 2.141,-4.947 1.325,-7.784 l -0.239,-0.824 c -0.938,-3.234 -1.909,-6.576 -1.197,-9.235 0.411,-1.538 0.722,-3.113 1.024,-4.64 0.483,-2.457 0.941,-4.777 1.765,-6.828 l 0.138,-0.345 c 1.941,-4.816 3.88,-10.244 2.303,-13.709 -0.971,-2.143 -3.189,-3.414 -5.335,-4.644 -0.938,-0.54 -2.006,-1.147 -2.441,-1.583 -1.515,-1.509 -3.163,-2.776 -4.754,-4.004 -1.619,-1.249 -3.146,-2.426 -4.474,-3.791 -3.409,-3.509 -3.052,-8.489 1.064,-14.8 0.672,-1.029 1.345,-2.123 2.032,-3.244 3.301,-5.378 6.712,-10.938 12.095,-12.642 0.409,-0.131 0.83,-0.193 1.291,-0.193 1.475,0 3.118,0.646 4.857,1.329 1.987,0.78 4.042,1.589 6.262,1.589 2.079,-0.003 3.941,-0.725 5.535,-2.151 3.064,-2.74 7.779,-4.51 12.009,-4.51 1.29,0 2.507,0.159 3.621,0.475 3.49,0.989 6.118,2.368 8.037,4.212 0.273,0.262 0.564,0.55 0.865,0.852 2.409,2.397 5.707,5.683 9.802,5.731 0,0 0.002,0 0.005,0 2.356,0 4.362,-0.744 6.298,-1.465 1.563,-0.579 3.038,-1.127 4.354,-1.155 l 0.319,-0.002 c 3.71,0 6.425,1.391 9.604,3.638 0.784,0.555 1.634,1.125 2.518,1.719 4.577,3.074 10.274,6.899 10.876,11.689 0.569,4.55 -2.892,13.562 -6.496,16.918 -3.141,2.922 -6.338,4.404 -9.506,4.404 v 0 c -1.66,0 -3.392,-0.404 -5.144,-1.201 -0.162,-0.118 -1.217,-1.013 -2.063,-1.731 -4.595,-3.899 -8.358,-6.883 -11.465,-6.883 -1.325,0 -2.503,0.527 -3.318,1.487 -1.424,1.675 -1.243,3.991 -0.982,5.588 l 0.079,0.473 0.219,0.425 c 0.764,1.475 1.65,2.729 2.508,3.945 1.102,1.561 2.141,3.031 2.688,4.704 0.508,1.553 0.636,3.071 0.867,5.833 0.192,2.273 0.453,5.386 1.066,9.821 0.646,4.673 0.199,7.578 -0.16,9.911 -0.379,2.458 -0.736,4.78 0.867,7.134 2.7,3.96 2.148,5.807 1.498,6.853 -0.55,0.881 -1.155,1.707 -1.673,2.417 -1.395,1.91 -2.599,3.561 -1.604,5.518 0.563,1.106 1.678,1.769 2.98,1.769 0.675,0 1.409,-0.173 2.463,-0.578 0.587,0.226 1.692,2.488 1.69,4.153 -0.566,1.75 -5.318,7.245 -7.619,9.904 -1.66,1.92 -2.971,3.435 -3.655,4.418 -0.493,0.705 -1.225,1.415 -2.001,2.165 -2.057,1.99 -5.887,5.699 -2.495,10.729 0.725,1.074 2.074,2.354 4.597,4.708 2.564,2.396 5.757,5.375 8.444,8.519 4.737,5.545 5.348,8.632 5.022,10.246 -0.099,0.484 -0.394,1.967 -3.323,3.446 -0.559,0.28 -2.825,0.668 -5.249,0.668 -1.047,0 -1.596,-0.082 -1.72,-0.112 -0.354,-0.092 -0.827,-0.409 -1.283,-0.718 -0.862,-0.584 -1.938,-1.307 -3.369,-1.307 h -0.15 l -0.254,0.021 c -1.158,0.116 -2.126,0.733 -3.148,1.388 -0.806,0.517 -1.808,1.161 -2.539,1.276 -0.136,0.022 -0.262,0.035 -0.382,0.035 -0.186,0 -0.53,0 -1.393,-1.596 -0.246,-0.454 -0.392,-1.07 -0.559,-1.786 -0.458,-1.935 -1.146,-4.857 -4.779,-6.272 -2.241,-0.872 -3.916,-1.033 -5.267,-1.165 -1.704,-0.165 -2.48,-0.241 -4.199,-1.771 -4.816,-4.279 -5.486,-9.182 -2.176,-15.896 0.385,-0.779 1.005,-1.582 1.665,-2.428 1.291,-1.659 2.757,-3.54 3.205,-6.164 l 0.359,-2.172 c 0.606,-3.687 1.131,-6.871 2.343,-10.371 2.427,-7.009 6.011,-13.141 9.475,-18.825 l 0.159,-0.264 c 2.106,-3.452 4.993,-8.182 2.074,-13.52 -2.288,-4.192 -3.835,-8.486 -4.244,-11.778 -0.222,-1.75 -0.49,-3.492 -0.761,-5.231 -0.372,-2.378 -0.754,-4.84 -0.979,-7.225 l -0.081,-0.987 c -0.224,-2.94 -0.688,-9.064 -6.983,-9.645 -0.152,-0.016 -0.325,-0.024 -0.495,-0.024 -6.459,0 -7.87,10.23 -8.76,20.708 -0.071,0.825 -0.128,1.499 -0.18,1.948 -0.353,2.972 -1.463,5.352 -2.636,7.869 -1.416,3.042 -3.02,6.489 -3.207,11.091 -0.18,4.353 0.204,9.854 0.579,15.172 0.384,5.487 0.783,11.161 0.552,15.408 -0.395,7.322 -3.365,24.312 -5.6,28.141 -2.343,4.017 -5.641,5.934 -8.831,7.787 -4.131,2.403 -7.558,3.916 -8.441,4.084 -0.102,0.021 -0.197,0.024 -0.286,0.024 -0.243,0 -0.466,-0.031 -0.677,-0.056 -0.404,-0.044 -0.786,-0.081 -1.158,-0.081 -1.096,0 -2.089,0.305 -2.951,0.901 -1.404,0.979 -1.848,2.552 -2.239,3.94 -0.155,0.548 -0.414,1.464 -0.615,1.71 l -0.237,0.166 c -1.571,1.178 -3.197,2.396 -6.325,4.306 -0.584,0.358 -1.141,0.735 -1.678,1.1 -0.827,0.563 -1.961,1.334 -2.399,1.334 z"
         id="path99" />
      <path
         inkscape:connector-curvature="0"
         d="m 253.002,708.084 c -0.902,-7.188 -9.344,-11.744 -14.643,-15.49 -3.697,-2.612 -7.067,-4.283 -11.723,-4.185 -3.67,0.079 -7.129,2.664 -10.556,2.619 -3.308,-0.04 -6.451,-3.661 -8.619,-5.745 -2.586,-2.485 -5.887,-3.968 -9.301,-4.936 -6.114,-1.737 -13.795,0.521 -18.453,4.687 -4.877,4.364 -10.664,-3.16 -16.852,-1.198 -7.708,2.442 -11.716,10.948 -15.735,17.107 -3.732,5.724 -6.119,12.966 -0.702,18.54 2.857,2.938 6.399,4.98 9.265,7.831 1.761,1.752 6.195,3.212 7.16,5.338 1.225,2.695 -1.455,9.09 -2.497,11.69 -1.48,3.694 -1.872,7.96 -2.899,11.809 -1.003,3.736 0.364,7.889 1.448,11.666 0.843,2.933 -1.811,6.004 -2.731,10.045 -0.922,4.041 0.081,8.492 -0.527,15.801 -0.611,7.308 -0.178,16.932 -1.961,19.166 -1.781,2.235 -2.205,3.797 -8.437,4.221 -6.23,0.424 -9.546,6.905 -8.331,9.578 1.214,2.673 0.374,2.992 -0.976,4.124 -1.351,1.131 -3.286,2.371 -4.134,3.609 -0.848,1.239 -1.608,4.874 0.348,6.265 1.958,1.391 2.613,3.255 1.741,4.194 -0.869,0.937 -1.589,1.873 -1.84,3.764 -0.254,1.889 0.652,3.788 1.853,5.276 3.636,4.502 5.966,1.62 9.427,-0.491 3.459,-2.112 5.195,-3.444 6.87,-4.698 1.678,-1.254 1.552,-4.726 2.697,-5.522 1.146,-0.798 2.252,0.012 3.914,-0.305 1.666,-0.315 5.841,-2.372 9.396,-4.438 3.37,-1.96 7.176,-4.176 9.917,-8.873 2.739,-4.698 5.644,-22.798 6.001,-29.49 0.471,-8.626 -1.483,-22.007 -1.128,-30.622 0.311,-7.558 4.953,-11.401 5.825,-18.729 0.424,-3.584 1.079,-20.491 6.176,-19.992 4.207,0.388 4.045,4.728 4.346,7.92 0.392,4.198 1.222,8.36 1.749,12.545 0.526,4.24 2.559,9.127 4.589,12.849 2.143,3.92 -0.155,7.481 -2.163,10.778 -3.865,6.341 -7.306,12.356 -9.747,19.405 -1.545,4.458 -2.05,8.465 -2.828,13.021 -0.524,3.083 -3.269,5.065 -4.602,7.767 -3.675,7.459 -3.318,13.968 2.872,19.474 4.058,3.604 5.686,1.666 10.376,3.49 3.241,1.263 2.478,4.273 3.783,6.688 1.305,2.414 2.574,3.469 4.893,3.1 2.32,-0.371 4.453,-2.536 5.516,-2.643 1.059,-0.105 2.246,1.472 4.013,1.924 1.764,0.453 7.22,0.151 9.067,-0.781 8.498,-4.295 4.89,-11.711 -0.769,-18.331 -4.977,-5.822 -11.538,-11.029 -12.834,-12.955 -2.773,-4.109 2.158,-6.179 4.469,-9.493 1.948,-2.798 11.69,-12.813 11.809,-15.789 0.118,-2.977 -2.163,-8.602 -5.773,-7.21 -3.611,1.394 -0.686,-1.272 1.468,-4.729 2.153,-3.458 0.392,-7.266 -1.566,-10.135 -1.956,-2.871 1.143,-5.977 -0.212,-15.763 -1.353,-9.787 -0.943,-12.776 -2.055,-16.181 -1.15,-3.513 -3.722,-5.889 -5.383,-9.096 -1.625,-9.955 11.724,3.9 13.615,4.761 6.668,3.034 12.664,1.176 17.945,-3.738 4.138,-3.853 8.141,-13.809 7.429,-19.494 z m -92.146,14.185 c -2.762,-0.473 7.064,-13.612 6.064,-14.744 -1,-1.133 -9.242,11.7 -11.593,9.396 -2.347,-2.308 5.851,-10.57 3.567,-9.854 -2.283,0.718 -5.912,4.87 -7.74,4.937 -1.825,0.065 -0.478,-2.61 0.784,-5.611 1.261,-3.001 8.476,-10.538 11.786,-12.611 3.312,-2.073 6.161,1.266 8.467,4.27 2.092,2.732 0.404,4.618 -0.854,7.256 -1.259,2.64 -2.119,4.088 -4.045,8.266 -1.928,4.17 -3.677,9.167 -6.436,8.695 z m 1.224,86.223 c 0.262,-4.729 0.299,-9.634 0.922,-14.325 0.497,-3.768 1.354,-13.159 2.655,-16.463 1.298,-3.305 1.857,0.41 1.854,3.106 -0.002,2.7 -0.82,7.705 -1.766,13.999 -0.773,5.147 -0.809,16.253 -1.867,17.57 -1.059,1.316 -1.869,-2.543 -1.798,-3.887 z m -20.337,15.727 c 0.38,-0.995 1.448,-2.18 3.757,-2.515 2.308,-0.334 3.153,-0.611 5.564,-0.819 1.298,-0.11 1.971,1.157 1.587,1.692 -0.387,0.538 -1.074,0.95 -1.56,1.058 -1.217,0.273 -2.309,0.414 -4.035,1.17 -1.725,0.753 -2.259,0.935 -3.658,1.422 -1.302,0.457 -2.034,-1.011 -1.655,-2.008 z m -3.729,11.138 c 1.907,-1.597 3.22,-2.483 4.483,-2.638 1.263,-0.153 3.87,0.055 2.971,1.526 -1.476,2.425 -3.357,3.523 -5.276,4.109 -1.921,0.585 -3.062,0.416 -3.372,-0.069 -0.316,-0.48 -0.713,-1.336 1.194,-2.928 z m 10.217,7.789 c -0.374,0.959 -1.801,1.687 -2.853,2.575 -1.049,0.891 -2.82,1.862 -4,2.697 -1.178,0.839 -2.047,2.235 -3.38,1.832 -1.333,-0.404 -1.288,-2.128 -0.51,-3.557 0.843,-1.553 1.298,-2.855 2.976,-3.67 1.633,-0.791 5.163,-2.915 6.498,-2.761 1.334,0.158 1.646,1.929 1.269,2.884 z m 2.466,-10.994 c -0.476,0.194 -0.85,0.094 -1.49,-0.319 -0.638,-0.411 -1.362,-1.42 -0.566,-2.244 0.796,-0.823 2.311,-1.562 3.38,-2.074 1.066,-0.51 2.589,-1.152 3.663,-1.115 1.076,0.033 1.563,0.883 0.261,2.002 -1.683,1.442 -3.164,2.892 -5.248,3.75 z m 8.996,3.342 c -1.44,0.988 -3.062,2.188 -4.183,2.231 -1.121,0.041 -2.621,-0.237 -2.938,-1.074 -0.318,-0.835 1.101,-1.696 2.062,-2.231 0.963,-0.537 4.109,-3.338 6.048,-3.676 1.938,-0.334 2.714,-0.11 2.544,1.159 -0.17,1.273 -2.091,2.599 -3.533,3.591 z m 9.674,-6.909 c -1.68,1.571 -6.784,-2.707 -9.525,-4.338 -2.739,-1.632 -4.208,-4.828 -2.446,-6.264 1.761,-1.436 2.943,-2.13 4.375,-2.012 1.431,0.119 2.052,0.445 3.683,1.849 1.631,1.402 3.034,2.937 3.131,4.926 0.098,1.99 2.462,4.271 0.782,5.839 z m 4.579,-25.587 c -1.22,4.351 -1.308,10.896 -1.741,16.878 -0.094,1.335 -1.045,2.002 -2.087,0 -1.042,-2.002 -0.859,-6.937 -1.392,-12.788 -0.476,-5.287 -0.798,-11.951 0.906,-20.634 1.705,-8.686 -1.081,-15.903 2.139,-15.644 3.22,0.261 3.566,6.091 3.914,12.006 0.35,5.915 -0.519,15.83 -1.739,20.182 z m 7.412,-67.904 c -0.086,2.27 -0.646,4.31 -1.215,6.469 -1.258,4.797 -2.507,9.608 -3.919,14.361 -1.534,5.146 -9.348,17.408 -10.479,5.692 -0.155,-2.565 -0.015,-0.5 0.005,-0.054 -0.458,-7.926 5.483,-19.273 9.242,-26.06 2.585,-4.655 6.704,-9.215 6.366,-0.408 z m 6.375,-17.066 c -4.582,-5.622 -4.762,-14.429 -2.937,-20.165 1.828,-5.737 5.321,-6.063 7.634,-6.029 3.124,0.047 6.944,1.882 9.462,4.989 4.429,5.458 7.967,11.781 5.806,19.052 -2.288,7.688 -16.144,6.836 -19.965,2.153 z m 9.11,115.814 c -3.89,-0.755 -6.336,-2.874 -7.313,-4.408 -0.98,-1.532 0.68,-1.817 2.055,-1.794 1.374,0.024 5.644,0.687 6.917,2.675 1.269,1.99 2.233,4.282 -1.659,3.527 z m 0.665,-9.721 c -1.662,-0.271 -5.257,0.316 -6.217,0.162 -1.639,-0.271 -4.831,-0.738 -4.676,-3.205 0.15,-2.468 1.966,-5.799 6.197,-6.09 4.232,-0.29 5.72,1.059 7.496,1.171 1.776,0.111 2.259,-0.779 4.461,-0.702 2.2,0.075 2.109,0.542 2.485,2.311 0.377,1.769 -2.409,4.155 -3.48,5.336 -1.074,1.179 -4.601,1.291 -6.266,1.017 z m 9.994,18.603 c -0.717,0.555 -1.563,0.764 -2.15,-0.108 -0.375,-0.558 -1.03,-2.806 -1.404,-3.361 -0.587,-0.875 -0.99,-2.288 -0.357,-2.771 0.717,-0.558 1.532,-0.326 2.901,1.207 1.369,1.53 1.64,4.547 1.01,5.033 z m 0.475,-9.451 c -0.502,0.854 -2.147,0.069 -3.017,-0.577 -1.087,-0.807 -2.058,-1.704 -3.013,-2.659 -1.811,-1.812 1.298,-3.325 3.108,-1.519 0.707,0.705 1.409,1.444 2.21,2.04 0.867,0.643 1.303,1.707 0.712,2.715 z m 12.369,0.54 c 0.463,-0.712 1.396,-0.974 2.604,-0.021 1.047,0.827 1.722,2.354 2.566,3.343 1.599,1.873 -0.769,3.749 -2.189,3.228 -1.422,-0.522 -2.471,-2.052 -2.577,-3.368 -0.106,-1.316 -0.703,-2.721 -0.404,-3.182 z m -1.361,9.291 c -1.172,0.098 -3.231,0.418 -3.938,-0.403 -0.973,-1.134 -1.582,-1.979 -2.688,-2.794 -1.104,-0.815 -1.008,-1.633 -0.5,-2.501 0.581,-0.995 1.734,-1.17 2.712,-0.712 1.786,0.836 2.697,2.531 3.927,3.965 0.702,0.817 1.662,2.345 0.487,2.445 z m -6.459,-20.032 c 2.407,2.545 5.412,3.359 6.148,5.465 0.737,2.104 -2.579,1.823 -4.005,1.572 -1.424,-0.252 -3.432,-1.479 -5.634,-3.809 -1.398,-1.478 2.078,-4.724 3.491,-3.228 z m 7.048,-34.254 c 1.241,-0.855 3.134,-0.39 1.695,1.533 -1.437,1.923 -7.203,7.201 -9.693,10.536 -2.309,3.099 -6.939,6.563 -8.216,7.634 -1.275,1.07 1.789,-3.646 2.186,-4.533 0.399,-0.888 2.113,-1.521 4.665,-5.213 2.372,-3.436 5.888,-7.554 9.363,-9.957 z m -0.82,-12.87 c -1.224,2.314 -8.05,12.577 -9.488,14.632 -1.877,2.687 -4.373,7.242 -5.513,9.852 -1.144,2.61 -3.239,6.165 -5.282,8.941 -1.704,2.318 -3.167,2.478 -4.311,1.042 -1.141,-1.437 2.106,-9.791 3.296,-14.908 1.273,-5.483 6.43,-12.68 9.721,-17.213 1.589,-2.188 5.476,-5.891 7.998,-5.802 2.52,0.087 4.804,1.139 3.579,3.456 z m -5.356,-12.219 c -5.976,-0.715 -6.36,-13.229 -7.097,-17.226 -0.554,-3.021 -4.811,-14.838 -0.547,-16.503 -1.429,0.558 1.357,-0.588 0,0 6.544,-2.838 12.057,34.261 7.644,33.729 z m 30.928,-52.466 c -3.218,0.214 -8.713,-4.366 -8.637,-3.151 0.076,1.216 6.589,5.459 6.372,8.197 -0.076,0.998 0.03,2.029 -4.089,0.09 -4.118,-1.941 -9.786,-5.938 -10.048,-4.242 -0.261,1.697 4.516,6.376 7.048,7.96 2.529,1.584 1.725,4.088 0.175,3.893 -4.131,-0.521 -9.86,-6.267 -12.701,-10.133 -2.84,-3.866 -2.761,-9.995 -1.392,-12.092 1.367,-2.095 4.784,-4.349 6.784,-4.132 2,0.216 4.377,0.999 7.439,2.737 3.062,1.739 6.668,4.478 7.959,5.654 1.291,1.176 4.307,5.005 1.09,5.219 z"
         id="path101" />
    </g>
  </g>
</svg>
