<?xml version="1.0" encoding="UTF-8" standalone="no"?>
<!-- Created with Inkscape (http://www.inkscape.org/) -->

<svg
   xmlns:dc="http://purl.org/dc/elements/1.1/"
   xmlns:cc="http://creativecommons.org/ns#"
   xmlns:rdf="http://www.w3.org/1999/02/22-rdf-syntax-ns#"
   xmlns:svg="http://www.w3.org/2000/svg"
   xmlns="http://www.w3.org/2000/svg"
   xmlns:sodipodi="http://sodipodi.sourceforge.net/DTD/sodipodi-0.dtd"
   xmlns:inkscape="http://www.inkscape.org/namespaces/inkscape"
   width="33.5mm"
   height="67mm"
   viewBox="0 0 33.5 67"
   version="1.1"
   id="svg13861"
   inkscape:version="0.92.3 (2405546, 2018-03-11)"
   sodipodi:docname="skeleton1.svg">
  <defs
     id="defs13855" />
  <sodipodi:namedview
     id="base"
     pagecolor="#ffffff"
     bordercolor="#666666"
     borderopacity="1.0"
     inkscape:pageopacity="0.0"
     inkscape:pageshadow="2"
     inkscape:zoom="1.4"
     inkscape:cx="-5.9475524"
     inkscape:cy="107.87667"
     inkscape:document-units="mm"
     inkscape:current-layer="layer1"
     showgrid="false"
     inkscape:window-width="1366"
     inkscape:window-height="703"
     inkscape:window-x="0"
     inkscape:window-y="0"
     inkscape:window-maximized="1" />
  <metadata
     id="metadata13858">
    <rdf:RDF>
      <cc:Work
         rdf:about="">
        <dc:format>image/svg+xml</dc:format>
        <dc:type
           rdf:resource="http://purl.org/dc/dcmitype/StillImage" />
        <dc:title></dc:title>
      </cc:Work>
    </rdf:RDF>
  </metadata>
  <g
     inkscape:label="Layer 1"
     inkscape:groupmode="layer"
     id="layer1"
     transform="translate(-85.20155,-59.387586)">
    <g
       transform="matrix(0.26458333,0,0,0.26458333,85.309536,-110.3057)"
       id="Skeleton_x2C__Lying">
      <path
         style="fill:#f2f2f2"
         inkscape:connector-curvature="0"
         d="m 86.051,892.514 c -1.373,0 -2.293,-0.255 -2.461,-0.68 -0.61,-1.541 -1.494,-4.034 -2.203,-6.038 -0.569,-1.604 -1.06,-2.987 -1.303,-3.589 -0.245,-0.609 -0.432,-1.119 -0.596,-1.561 -0.758,-2.064 -1.225,-3.149 -3.542,-5.24 -2.297,-2.071 -3.083,-6.099 -2.496,-8.644 0.728,-3.151 1.064,-5.062 -0.58,-7.052 -0.362,-1.141 -0.017,-5.388 0.134,-7.228 0.051,-0.639 0.098,-1.218 0.128,-1.692 0.157,-2.415 0.65,-4.738 1.175,-7.197 0.465,-2.189 0.946,-4.456 1.18,-6.826 0.223,-2.238 0.952,-4.109 1.798,-6.278 0.281,-0.723 0.566,-1.454 0.838,-2.216 0.934,-2.596 -0.601,-5.137 -1.721,-6.989 -0.332,-0.552 -0.646,-1.071 -0.833,-1.482 -2.092,-4.582 -3.42,-9.671 -4.501,-14.08 -0.574,-2.345 -1.294,-4.612 -1.99,-6.804 -1.078,-3.391 -2.094,-6.594 -2.603,-10.023 -0.179,-1.199 -0.416,-2.38 -0.653,-3.559 -0.309,-1.529 -0.599,-2.974 -0.757,-4.454 -0.476,-4.463 -4.638,-4.718 -6.873,-4.856 -0.796,-0.05 -1.576,-0.163 -2.331,-0.271 -1.033,-0.152 -2.101,-0.307 -3.238,-0.307 -1.063,0 -2.055,0.138 -3.036,0.415 -2.728,0.775 -3.694,2.436 -4.63,4.038 l -0.264,0.45 c -2.823,4.75 -6.244,10.365 -7.371,11.871 -0.487,0.648 -1.031,1.324 -1.596,2.024 -2.62,3.249 -5.88,7.291 -5.908,11.94 -0.01,1.859 0.184,2.605 0.506,3.61 0.149,0.464 0.302,0.943 0.463,1.844 0.136,0.756 0.23,1.476 0.322,2.175 0.236,1.779 0.479,3.622 1.301,5.644 1.15,2.826 2.242,5.681 3.335,8.539 0.846,2.209 1.693,4.423 2.566,6.624 1.947,4.905 3.464,9.698 4.51,14.242 0.613,2.663 1.02,5.934 1.365,9.067 0.167,1.495 -0.112,2.814 -0.638,3.075 h -0.503 l -0.123,0.209 -3.319,1.083 2.636,1.91 c 0.026,2.724 -1.294,6.646 -2.702,8.906 -1.225,1.962 -2.33,3.946 -3.399,5.866 -0.71,1.275 -1.421,2.551 -2.17,3.829 -0.858,1.463 -1.627,2.771 -2.669,3.537 l -0.604,0.447 c -1.201,0.896 -1.994,1.488 -3.367,1.877 -0.052,0.015 -0.1,0.021 -0.145,0.021 -0.909,0 -2.698,-2.512 -3.41,-5.334 l -0.086,-0.333 c -0.431,-1.689 -0.608,-2.393 -0.241,-3.615 0.494,-1.639 -0.446,-3.28 -1.356,-4.865 -0.315,-0.549 -0.79,-1.378 -0.851,-1.681 0,-1.213 0.472,-1.63 1.972,-2.75 0.919,-0.688 2.064,-1.548 3.038,-2.864 0.276,-0.371 0.801,-0.825 1.309,-1.267 1.149,-0.994 3.244,-2.811 2.023,-4.94 0.047,-0.333 0.241,-0.959 0.375,-1.396 0.326,-1.048 0.697,-2.236 0.634,-3.425 -0.107,-2.084 -1.466,-4.979 -3.231,-8.551 -0.54,-1.094 -1.05,-2.127 -1.328,-2.812 -1.914,-4.724 -4.735,-21.763 -3.979,-25.87 0.698,-3.779 -0.554,-6.188 -1.47,-7.947 -0.362,-0.698 -0.675,-1.3 -0.786,-1.827 -0.41,-1.96 -0.467,-2.55 0.625,-5.914 0.296,-0.915 0.56,-1.888 0.838,-2.914 0.772,-2.854 1.646,-6.087 3.768,-9.515 2.282,-3.688 6.673,-10.39 10.464,-13.819 0.336,-0.305 0.766,-0.611 1.204,-0.931 1.666,-1.21 3.948,-2.872 3.48,-5.467 -0.197,-1.104 -0.639,-2 -1.028,-2.789 -0.395,-0.802 -0.736,-1.493 -0.878,-2.419 -0.239,-1.557 0.162,-3.407 1.1,-5.087 0.067,-0.119 1.683,-2.959 3.743,-2.959 0.765,0.014 2.61,0.498 4.091,0.89 2.029,0.531 3.945,1.037 5.207,1.037 1.83,0 2.65,-1.125 2.797,-2.089 0.009,-0.055 0.016,-0.113 0.023,-0.171 0.297,1.065 0.902,1.843 2.164,2.253 0.37,0.12 0.785,0.178 1.307,0.178 1.961,0 5.472,-0.829 7.183,-1.543 1.201,-0.504 2.224,-0.757 3.039,-0.757 0.861,0 1.262,0.294 1.492,0.513 0.782,0.794 2.281,5.474 2.468,7.702 0.234,2.813 1.533,5.627 2.789,8.35 0.57,1.237 1.109,2.404 1.5,3.476 1.464,4.016 2.947,8.266 3.901,12.15 1.213,4.948 2.025,8.977 2.482,12.313 0.442,3.212 1.015,6.4 1.568,9.481 0.39,2.162 0.779,4.33 1.13,6.525 l 0.166,1.019 c 0.361,2.158 0.77,4.607 0.436,6.497 -0.11,0.628 -0.307,1.276 -0.516,1.962 -0.376,1.246 -0.805,2.658 -0.779,4.245 0.031,1.787 0.074,3.566 0.114,5.346 0.089,3.745 0.18,7.62 0.164,11.427 -0.007,1.505 -0.097,3.009 -0.196,4.598 -0.085,1.372 -0.168,2.744 -0.194,4.112 -0.006,0.275 0.002,0.604 0.012,0.973 0.021,0.746 0.07,2.496 -0.279,2.985 l -0.664,0.927 0.426,1.059 c 0.802,1.996 0.92,3.975 1.017,5.562 0.121,2.008 0.305,5.041 3.297,5.188 0.838,0.042 1.549,0.369 2.533,0.824 0.646,0.297 1.377,0.635 2.241,0.921 2.633,0.877 6.108,3.177 5.592,5.541 -0.095,0.108 -0.679,0.481 -1.065,0.729 -1.229,0.781 -4.105,2.616 -2.691,6.048 0.048,0.123 0.183,0.448 -0.165,1.09 -0.756,1.388 -2.96,2.813 -4.916,3.177 -1.515,0.285 -3.264,0.576 -4.735,0.576 z m 12.25,-65.906 c -0.061,0 -0.164,-0.075 -0.241,-0.138 -0.681,-0.564 -0.734,-0.793 -1.033,-2.061 l -0.12,-0.507 c -0.075,-0.313 -0.116,-0.73 -0.157,-1.173 -0.146,-1.533 -0.368,-3.852 -2.715,-4.992 -0.659,-0.32 -1.104,-0.864 -1.439,-2.704 -0.444,-2.423 -0.795,-4.336 -0.69,-6.236 0.038,-0.674 0.372,-1.442 0.763,-2.333 0.501,-1.15 1.072,-2.457 1.175,-4.014 0.024,-0.361 0.117,-0.813 0.21,-1.302 0.398,-2.1 0.999,-5.269 -1.384,-6.932 l -0.353,-0.245 -0.423,-0.086 c -3.155,-0.642 -3.622,-2.397 -4.15,-7.26 -0.407,-3.74 0.18,-7.41 0.8,-11.295 0.112,-0.696 0.224,-1.393 0.329,-2.093 0.675,-4.507 1.177,-10.695 -0.262,-14.602 -0.991,-2.695 -3.162,-4.936 -5.264,-7.104 -1.092,-1.127 -2.122,-2.19 -2.872,-3.208 -0.795,-1.077 -2.228,-3.892 -3.274,-5.945 -0.515,-1.011 -0.985,-1.932 -1.348,-2.598 -3.587,-6.593 -4.856,-7.117 -6.144,-7.117 -1.085,0 -2.261,0.765 -2.448,2.468 -0.366,3.361 2.265,7.957 2.574,8.372 0.234,0.313 0.704,1.077 1.353,2.133 0.002,0.002 0.003,0.002 0.004,0.002 0.001,0 0.003,-0.002 0.003,-0.008 0.027,0.431 -0.434,1.633 -1.104,2.421 -0.141,0.164 -0.829,0.529 -1.957,0.529 -0.879,0 -1.85,-0.221 -2.805,-0.638 -1.613,-0.702 -5.223,-1.747 -6.903,-1.747 -0.323,0 -0.608,0.036 -0.868,0.107 -1.724,0.483 -2.355,2.162 -2.557,4.226 -0.393,-3.438 -1.358,-4.021 -1.795,-4.283 -0.412,-0.25 -0.896,-0.369 -1.479,-0.369 -1.597,0 -4.76,0.955 -6.791,3.077 -0.936,0.978 -2.094,1.561 -3.099,1.561 -0.311,0 -0.588,-0.06 -0.777,-0.168 l -0.261,-0.147 c -2.315,-1.309 -3.067,-2.114 -2.775,-2.978 0.149,-0.438 0.338,-0.839 0.518,-1.226 0.68,-1.476 1.614,-3.493 0.146,-6.1 -0.5,-0.885 -1.126,-1.483 -1.63,-1.968 -0.76,-0.728 -0.755,-0.754 -0.673,-1.203 0.29,-1.595 1.165,-2.929 2.484,-4.562 3.018,-3.741 -0.479,-6.646 -2.159,-8.038 -0.366,-0.305 -0.734,-0.606 -1.067,-0.919 -1.747,-1.636 -2.653,-3.393 -3.802,-5.612 -0.661,-1.271 -1.103,-2.752 -1.574,-4.317 -0.295,-0.981 -0.6,-1.997 -0.97,-2.983 -0.347,-0.923 -0.749,-1.825 -1.154,-2.728 -0.652,-1.458 -1.268,-2.834 -1.604,-4.248 -0.485,-2.042 -1.342,-4.063 -2.168,-6.019 -1.386,-3.275 -2.694,-6.368 -2.313,-9.31 0.18,-1.385 0.727,-1.848 2.048,-2.962 0.231,-0.195 0.473,-0.399 0.72,-0.616 1.979,-1.735 3.227,-4.013 3.927,-7.165 1.172,-5.294 3.568,-10.471 5.757,-14.836 1.119,-2.229 2.116,-3.822 3.905,-5.358 0.704,-0.604 1.533,-1.176 2.409,-1.781 1.38,-0.952 2.805,-1.94 3.959,-3.2 3.386,-3.681 5.933,-6.106 10.29,-6.254 2.957,-0.099 4.702,-0.752 7.227,-1.813 0.81,-0.341 1.596,-0.521 2.271,-0.521 0.476,0 0.883,0.094 1.212,0.272 1.173,0.637 1.459,1.345 1.823,2.241 0.411,1.021 1.181,2.919 3.703,3.015 0.286,0.063 1.227,0.915 1.623,2.268 0.082,0.278 0.319,1.229 -0.108,1.65 -0.617,0.611 -1.323,1.052 -2.007,1.476 -1.486,0.922 -3.731,2.313 -3.231,5.59 -0.284,0.095 -0.938,0.223 -2.416,0.223 -0.642,0 -1.324,-0.021 -2.028,-0.042 -0.544,-0.018 -1.098,-0.032 -1.654,-0.04 l -0.81,-0.008 c -3.918,0 -5.978,0.483 -7.866,1.844 -2.493,1.797 -2.664,3.606 -2.846,5.52 l -0.056,0.577 c -0.213,2.033 -1.173,4.109 -2.39,5.171 -3.201,2.763 -6.598,6.059 -10.688,10.36 -3.051,3.212 -1.298,6.91 -0.138,9.357 l 0.316,0.674 c 0.43,0.935 1.313,2.77 2.239,4.696 1.137,2.365 2.426,5.047 2.878,6.068 0.379,0.854 0.676,1.879 0.99,2.961 0.519,1.793 1.057,3.647 2.093,5.217 1.052,1.595 2.271,2.4 3.623,2.4 0.691,0 1.71,-0.225 2.639,-1.28 1.236,-1.411 1.8,-3.834 1.611,-5.272 -0.272,-2.072 -1.75,-3.652 -3.315,-5.323 -0.895,-0.957 -1.821,-1.943 -2.644,-3.118 -1.859,-2.652 -2.346,-5.879 -1.367,-9.077 0.822,-2.69 3.782,-7.579 9.656,-8.852 1.945,-0.419 3.637,-0.622 5.174,-0.622 3.175,0 5.798,0.885 8.507,2.869 2.396,1.755 4.841,6.303 5.341,9.938 0.211,1.527 -0.004,2.438 -0.252,2.756 -1.408,1.795 -1.677,7.106 -1.726,9.081 -0.638,0.207 -1.771,0.391 -2.38,0.486 -1.797,0.289 -3.095,0.498 -3.77,1.649 -0.347,0.594 -0.409,1.306 -0.17,1.953 0.574,1.559 2.256,1.906 4.383,2.344 0.753,0.156 2.108,0.438 2.6,0.688 0.314,0.55 0.295,0.691 -0.188,1.664 -0.773,1.562 -1.716,2.061 -3.885,2.061 -0.734,0 -1.507,-0.054 -2.311,-0.109 -0.946,-0.063 -1.924,-0.131 -2.964,-0.135 -0.272,0 -0.751,-0.08 -1.213,-0.158 -0.71,-0.117 -1.514,-0.253 -2.331,-0.253 -2.484,0 -3.618,1.29 -4.132,2.371 -0.688,1.458 -0.309,2.55 -0.021,3.069 0.911,1.655 2.945,1.904 4.577,2.106 0.373,0.045 0.934,0.114 1.106,0.171 1.077,0.531 2.252,0.808 3.524,0.808 1.72,0 3.27,-0.504 4.768,-0.987 1.329,-0.432 2.585,-0.839 3.822,-0.839 0.567,0 1.101,0.085 1.633,0.261 3.335,1.088 6.502,5.023 8.889,8.333 0.484,0.668 0.974,1.34 1.467,2.01 3.11,4.247 6.327,8.639 8.004,13.518 0.112,0.327 0.231,0.66 0.354,0.999 0.629,1.741 1.281,3.54 0.958,4.967 -0.722,3.207 0.319,5.512 1.326,7.737 0.164,0.368 0.334,0.742 0.502,1.135 2.303,5.393 2.803,11.402 3.149,17.597 0.093,1.642 0.469,3.049 0.833,4.413 0.225,0.84 0.438,1.631 0.576,2.451 0.445,2.625 -0.017,6.509 -0.169,7.787 l -0.052,0.415 c -0.349,2.9 -0.711,5.896 1.506,9.041 1.083,1.53 1.822,2.997 2.553,5.068 0.776,2.2 0.99,3.511 1.202,6.095 0.112,1.33 0.558,2.501 0.989,3.633 0.475,1.245 0.923,2.419 0.875,3.717 -0.025,0.756 -0.271,3.218 -2.281,3.218 v 0 c -0.259,0 -0.541,-0.033 -0.845,-0.101 -0.544,-0.122 -1.093,-0.185 -1.633,-0.185 -1.713,0 -3.032,0.59 -4.093,1.063 -0.498,0.222 -1.06,0.475 -1.314,0.475 z"
         id="path104" />
      <path
         inkscape:connector-curvature="0"
         d="m 68.205,697.952 c 0.518,-2.538 -0.965,-4.72 -4.038,-4.433 -2.064,0.193 -3.221,2.239 -3.629,4.391 -0.599,3.159 1.929,3.382 4.141,3.23 3.115,-0.209 3.217,-1.667 3.526,-3.188 z"
         id="path106" />
      <path
         inkscape:connector-curvature="0"
         d="m 108.677,814.616 c -0.216,-2.607 -0.441,-4.136 -1.314,-6.615 -0.735,-2.08 -1.54,-3.772 -2.815,-5.575 -1.844,-2.612 -1.441,-5.053 -1.09,-8.01 0.303,-2.533 0.583,-5.861 0.156,-8.379 -0.389,-2.29 -1.251,-4.256 -1.384,-6.635 -0.345,-6.154 -0.861,-12.553 -3.313,-18.297 -1.139,-2.666 -2.382,-4.617 -1.711,-7.6 0.532,-2.357 -0.623,-4.91 -1.375,-7.099 -2.05,-5.966 -6.104,-11.02 -9.75,-16.068 -2.377,-3.293 -5.896,-7.778 -9.927,-9.093 -5.089,-1.679 -8.926,3.104 -13.552,0.839 -1.213,-0.596 -5.802,-0.076 -4.629,-2.558 0.993,-2.09 4.095,-0.774 5.792,-0.771 4.704,0.01 8.813,1.49 11.028,-2.973 0.79,-1.591 0.848,-2.411 0,-3.844 -0.848,-1.435 -6.331,-1.476 -6.708,-2.497 -0.377,-1.023 6.493,-0.637 6.437,-2.681 -0.056,-2.044 0.39,-7.336 1.294,-8.488 2.414,-3.073 -1.135,-12.464 -5.497,-15.654 -4.428,-3.244 -8.864,-4.002 -15.348,-2.602 -6.484,1.4 -10.092,6.626 -11.207,10.274 -1.116,3.649 -0.661,7.581 1.653,10.881 2.314,3.3 5.294,5.199 5.599,7.517 0.227,1.73 -1.501,6.632 -4.073,2.737 -1.447,-2.189 -1.84,-5.444 -2.917,-7.871 -0.826,-1.871 -4.155,-8.676 -5.13,-10.796 -1.14,-2.48 -2.837,-5.33 -0.56,-7.727 3.331,-3.507 6.894,-7.073 10.545,-10.229 1.778,-1.547 2.853,-4.227 3.093,-6.52 0.222,-2.106 0.133,-3.244 2.05,-4.626 1.42,-1.024 3.002,-1.514 7.427,-1.444 4.425,0.066 8.673,0.638 8.188,-2.529 -0.448,-2.915 2.343,-2.997 4.646,-5.276 2.303,-2.279 -0.463,-7.389 -2.901,-7.478 -2.438,-0.092 -1.077,-3.083 -4.608,-5.005 -1.628,-0.887 -3.67,-0.52 -5.287,0.16 -2.376,1.001 -3.867,1.563 -6.49,1.653 -5.329,0.179 -8.42,3.304 -11.754,6.927 -1.682,1.837 -4.262,3.155 -6.188,4.809 -2.047,1.758 -3.205,3.6 -4.411,6.006 -2.431,4.849 -4.752,10.006 -5.929,15.316 -0.523,2.361 -1.418,4.433 -3.265,6.049 -1.761,1.544 -3.132,2.35 -3.459,4.876 -0.709,5.476 3.284,10.888 4.519,16.078 0.602,2.525 1.928,4.809 2.835,7.223 0.918,2.45 1.446,5.215 2.644,7.526 1.244,2.405 2.243,4.317 4.23,6.177 2.008,1.878 5.138,3.516 3.026,6.133 -1.339,1.658 -2.523,3.357 -2.911,5.497 -0.437,2.423 1.543,2.798 2.538,4.563 1.257,2.23 -0.117,3.57 -0.821,5.635 -1.004,2.963 2.393,4.695 3.973,5.6 1.582,0.901 4.271,0.478 6.412,-1.761 1.885,-1.97 5.178,-2.676 5.692,-2.364 0.516,0.31 0.82,2.592 0.899,3.832 0.052,0.815 0.313,3.814 0.123,5.067 -0.191,1.254 -7.541,-1.563 -9.965,-1.604 -3.251,-0.057 -5.356,3.532 -5.631,4.021 -1.063,1.899 -1.675,4.246 -1.341,6.419 0.353,2.295 1.595,3.479 1.915,5.263 0.32,1.78 -2.563,3.154 -4.034,4.482 -3.795,3.439 -8.144,9.915 -10.837,14.271 -3.04,4.915 -3.668,9.346 -4.815,12.881 -1.147,3.536 -1.197,4.522 -0.681,6.983 0.517,2.46 3.089,4.396 2.246,8.97 -0.844,4.574 2.008,21.885 4.094,27.029 1.006,2.481 4.275,8.068 4.409,10.689 0.099,1.868 -1.599,4.512 -0.813,5.625 0.786,1.113 -1.971,2.501 -3.123,4.056 -2.155,2.913 -5.434,3.135 -5.41,6.961 0.009,1.468 2.715,4.413 2.287,5.84 -0.566,1.882 -0.203,3.06 0.301,5.056 0.715,2.824 3.109,7.663 6.141,6.804 1.998,-0.564 3.036,-1.476 4.635,-2.648 1.412,-1.039 2.319,-2.607 3.232,-4.162 1.894,-3.229 3.547,-6.449 5.541,-9.647 1.709,-2.74 3.34,-7.704 2.959,-10.974 -0.017,0.24 -0.068,-0.195 -0.008,-0.151 -0.041,-0.03 -0.082,-0.05 -0.123,-0.08 2.058,-0.672 2.337,-3.372 2.123,-5.308 -0.324,-2.935 -0.747,-6.443 -1.405,-9.306 -1.133,-4.922 -2.741,-9.852 -4.604,-14.545 -2.006,-5.058 -3.868,-10.162 -5.909,-15.18 -1.025,-2.521 -1.027,-4.742 -1.502,-7.397 -0.471,-2.641 -0.952,-2.339 -0.937,-5.075 0.028,-4.828 4.414,-9.163 7.089,-12.733 1.516,-2.021 6.357,-10.143 7.496,-12.056 1.019,-1.714 1.556,-2.947 3.676,-3.549 2.81,-0.803 5.038,0.061 7.904,0.238 2.859,0.177 4.675,0.577 4.933,3 0.292,2.752 1.016,5.368 1.421,8.1 0.879,5.921 3.21,11.225 4.631,17.017 1.189,4.854 2.545,9.888 4.628,14.448 0.89,1.95 3.305,4.636 2.489,6.907 -1.1,3.074 -2.416,5.662 -2.747,8.99 -0.477,4.825 -2.049,9.276 -2.361,14.094 -0.179,2.778 -0.924,9.075 0.125,10.28 1.05,1.205 0.962,2.229 0.24,5.357 -0.723,3.131 0.194,8.008 3.13,10.655 2.559,2.309 2.35,2.933 3.601,6.032 0.551,1.367 2.404,6.851 3.502,9.617 1.097,2.77 5.958,2.048 9.51,1.388 3.554,-0.662 7.889,-4.034 6.624,-7.105 -1.265,-3.068 3.384,-3.378 3.858,-5.502 0.004,-0.011 0.007,-0.021 0.007,-0.034 0.862,-3.926 -3.777,-6.901 -6.967,-7.962 -2.063,-0.688 -3.371,-1.755 -5.328,-1.852 -2.135,-0.106 -0.513,-4.533 -2.486,-9.446 0.943,-1.316 0.631,-3.877 0.654,-5.127 0.059,-2.912 0.382,-5.844 0.394,-8.742 0.021,-5.615 -0.181,-11.201 -0.28,-16.813 -0.032,-2.044 0.916,-3.844 1.265,-5.815 0.453,-2.568 -0.19,-5.651 -0.597,-8.202 -0.855,-5.374 -1.952,-10.578 -2.69,-15.964 -0.561,-4.084 -1.543,-8.524 -2.524,-12.523 -0.997,-4.072 -2.525,-8.415 -3.966,-12.367 -1.271,-3.484 -3.865,-7.629 -4.171,-11.287 -0.192,-2.297 -1.74,-7.719 -3.098,-9.025 -1.358,-1.31 -3.524,-1.533 -6.775,-0.179 -1.814,0.755 -6.005,1.646 -7.044,1.309 -1.039,-0.339 -0.993,-1.266 -1.039,-4.312 -0.045,-3.049 0.335,-4.507 1.117,-4.726 0.78,-0.22 4.585,0.759 6.378,1.541 3.391,1.479 6.206,0.694 7.179,-0.45 0.973,-1.146 2.101,-3.522 1.352,-4.741 -0.749,-1.218 -1.228,-1.998 -1.526,-2.399 -0.299,-0.398 -2.444,-4.419 -2.173,-6.901 0.271,-2.483 3.523,3.264 4.695,5.418 1.173,2.154 3.489,7.041 4.774,8.784 2.279,3.095 6.536,6.199 7.858,9.797 1.335,3.625 0.724,9.78 0.157,13.569 -0.702,4.643 -1.656,9.201 -1.141,13.926 0.5,4.596 0.989,8.097 5.805,9.072 1.701,1.188 0.4,4.67 0.288,6.392 -0.155,2.346 -1.822,4.234 -1.939,6.367 -0.116,2.129 0.257,4.188 0.72,6.725 0.342,1.873 0.914,3.394 2.577,4.2 1.788,0.872 1.355,3.127 1.761,4.786 0.416,1.711 0.492,2.554 1.851,3.681 2.438,2.014 4.313,-1.648 8.149,-0.79 3.838,0.856 5.554,-2.055 5.661,-5.073 0.107,-3.019 -1.667,-5.187 -1.867,-7.598 z m -15.722,61.507 c 1.309,-0.313 3.606,1.547 4.65,2.221 1.406,0.91 0.856,3.135 -0.865,3.161 -1.328,0.02 -2.37,-0.236 -3.139,-0.71 -0.768,-0.474 -2.076,-1.083 -2.731,-2.257 -0.654,-1.174 0.909,-2.137 2.085,-2.415 z m -3.864,7.289 c 0.587,-1.083 2.352,-1.179 2.937,-0.027 0.479,0.942 2.838,2.559 2.571,4.341 -0.268,1.783 -1.144,1.509 -2.409,1.747 -1.264,0.24 -1.982,-2.377 -2.818,-3.771 -0.59,-0.983 -0.941,-1.068 -0.281,-2.29 z M 59.863,725.201 c 0.729,0.08 1.929,0.156 2.661,0.398 0.732,0.244 1.317,0.483 1.726,0.661 0.355,0.152 0.789,0.169 1.117,0.396 0.398,0.271 0.939,0.377 1.088,1.157 0.15,0.781 -0.177,1.047 -1.107,1.005 -0.93,-0.042 -1.623,-0.038 -3.313,-0.19 -1.691,-0.152 -2.939,-0.556 -4.349,-0.596 -0.491,-0.015 -1.018,0.171 -1.293,-0.396 -0.274,-0.563 -0.268,-2.278 0.114,-2.552 0.383,-0.267 2.114,-0.012 3.356,0.117 z m 5.448,10.046 c -2.371,2.415 -8.059,0.181 -8.895,0 -0.836,-0.181 -0.487,-0.799 -0.402,-1.604 0.084,-0.801 -0.01,-1.147 0.208,-1.67 0.217,-0.518 11.459,0.857 9.089,3.274 z m 5.147,-19.813 c -0.641,1.94 -9.565,-1.432 -11.258,-1.563 -3.255,-0.261 -3.838,-5.839 -3.491,-7.224 0.348,-1.387 3.028,-1.861 4.335,-1.566 1.358,0.305 1.025,4.068 2.708,4.575 1.683,0.506 6.227,2.867 7.345,3.01 1.117,0.139 0.746,1.601 0.361,2.768 z M 49.755,697.641 c 0.893,1.069 -0.449,-0.539 0,0 -3.144,-3.755 1.725,-10.438 5.232,-11.464 3.854,-1.127 7.207,-0.686 10.895,0.934 4.301,1.886 6.966,8.723 5.349,11.872 -1.617,3.15 1.272,6.187 0.069,6.88 -1.203,0.691 -4.213,0.303 -5.237,1.146 -1.024,0.841 -1.634,-0.803 -3.917,-2.329 -2.283,-1.523 -6.112,-1.439 -7.99,-1.873 -1.879,-0.436 -2.404,-2.777 -4.401,-5.166 z m -3.438,29.03 c 0.518,-0.104 4.513,-1.063 3.128,-0.83 1.314,-0.241 3.584,-0.949 3.789,-0.392 0.205,0.557 0.211,2.061 0.095,2.485 -0.117,0.428 -0.892,0.426 -1.329,0.489 -1.114,0.168 -3.123,0.503 -4.628,0.653 -1.505,0.151 -2.199,0.301 -2.951,-0.603 -0.753,-0.901 1.953,-1.814 1.896,-1.802 z m 10.077,-71.137 c -1.229,-0.646 -1.399,-1.896 -0.474,-2.643 0.925,-0.743 3.838,-0.879 5.237,-0.99 1.4,-0.114 1.658,0.263 1.953,0.785 0.295,0.521 1.292,1.665 -1.027,1.944 -2.32,0.282 -4.458,1.55 -5.689,0.904 z m 10.121,3.974 c -1.023,0.603 -3.313,0.18 -3.312,0.182 -0.005,-0.002 -2.929,-0.27 -3.55,-0.934 -0.867,-0.933 0.262,-1.998 1.474,-1.836 0.889,0.117 4.173,-0.038 5.017,0.504 0.844,0.542 1.394,1.482 0.371,2.084 z m 1.392,-9.392 c 2.047,-0.192 3.858,0.162 3.858,1.701 0,1.021 -1.225,1.615 -2.691,1.846 -1.558,0.246 -2.742,0.22 -2.951,-0.229 -0.051,-0.13 -0.88,-1.398 -0.745,-2.122 0.136,-0.722 1.122,-1.062 2.529,-1.196 z m -9.013,-4.133 c 1.658,-0.171 4.491,-1.486 6.414,-1.269 1.925,0.215 -0.392,2.229 -1.532,2.672 -1,0.391 -3.157,1.596 -4.179,1.176 -0.957,-0.394 -2.36,-2.41 -0.703,-2.579 z m -6.44,2.103 c 0.848,-0.253 1.875,-0.921 2.863,-0.349 1.046,0.606 1.478,1.888 0.753,2.349 -0.726,0.461 -1.793,0.738 -3.153,1.047 -1.359,0.309 -3.214,0.112 -3.002,-0.881 0.211,-0.992 1.691,-1.911 2.539,-2.166 z m -6.106,5.507 c 0.89,-0.938 4.247,-0.479 5.959,0.992 1.781,1.529 2.932,5.33 0.994,5.646 -1.444,0.235 -3.566,-0.676 -5.237,-2.304 -1.672,-1.628 -2.606,-3.394 -1.716,-4.334 z m -12.854,18.016 c 1.865,-2.629 4.275,-7.708 7.526,-10.897 3.251,-3.19 5.208,-0.157 5.599,2.649 0.336,2.428 -3.833,7.228 -5.215,9.081 -1.247,1.673 -4.777,5.786 -7.065,6.933 -2.289,1.144 -2.71,-5.136 -0.845,-7.766 z m -2.236,33.761 c -1.169,-2.62 -2.319,-5.282 -3.331,-7.968 -0.669,-1.775 -1.998,-8.36 1.669,-5.138 1.738,1.528 2.516,3.933 3.598,5.915 1.472,2.694 2.912,5.322 3.945,8.244 0.992,2.81 1.75,5.729 2.663,8.569 0.29,0.898 3.127,10.552 -1.266,6.348 -4.391,-4.203 -5.257,-11.439 -7.278,-15.97 z m 9.102,29.466 c 2.684,-1.366 3.711,-1.463 6.734,-2.105 3.024,-0.644 6.003,-1.392 6.127,-0.622 0.125,0.769 0.147,2.326 -0.507,2.937 -0.655,0.608 -5.95,0.588 -9.166,2.032 -4.424,1.985 -5.871,-0.873 -3.188,-2.242 z m 11.857,7.929 c -1.083,0.407 -4.762,1.332 -6.974,2.732 -0.979,0.618 -2.3,2.255 -3.616,1.768 -0.995,-0.366 -2.035,-1.827 0.295,-3.485 1.909,-1.36 9.273,-4.293 10.563,-4.234 1.289,0.061 0.625,0.914 0.668,1.45 0.049,0.59 0.148,1.363 -0.936,1.769 z m -27.391,90.419 c -1.199,-4.865 -1.69,-12.119 -0.626,-11.77 1.063,0.348 0.764,1.381 2.132,6.053 1.443,4.314 6.654,21.889 7.224,23.537 0.568,1.645 -2.377,0.191 -3.851,-1.865 -1.304,-1.812 -3.508,-10.379 -4.879,-15.955 z m 8.88,31.011 c 0.542,0.992 -1.421,4.809 -2.457,5.643 -1.034,0.833 -3.674,-1.691 -1.065,-4.355 1.575,-1.606 2.981,-2.281 3.522,-1.288 z m -11.048,10.227 c -0.999,-0.62 -0.612,-1.452 0.663,-2.889 1.278,-1.442 1.738,-2.232 2.949,-1.566 1.242,0.681 0.08,2.35 -1.022,3.37 -1.104,1.022 -1.458,1.789 -2.59,1.085 z m 1.257,5.216 c 0.611,-1.419 3.898,-4.963 5.237,-5.05 1.338,-0.086 1.226,1.228 1.092,2.121 -0.133,0.895 -3.446,4.549 -4.667,5.219 -1.225,0.67 -2.271,-0.865 -1.662,-2.29 z m 7.444,5.372 c -1.048,0.96 -2.495,2.322 -3.238,2.775 -1.044,0.637 -1.983,-0.441 -1.758,-1.616 0.226,-1.174 2.399,-3.711 3.934,-3.892 1.536,-0.18 2.108,1.772 1.062,2.733 z m 3.185,-4.55 c -1.341,0.792 -2.944,-0.647 -2.428,-2.076 0.347,-0.961 0.655,-2.398 1.337,-3.232 1.208,-1.47 2.74,0.381 2.858,0.851 0.12,0.471 -0.578,3.759 -1.767,4.457 z m 4.345,-8.499 c -0.88,1.327 -3.281,0.701 -3.16,-0.978 0.097,-1.362 1.676,-4.135 3.028,-4.565 1.613,-0.516 1.896,0.55 1.902,1.661 0.006,1.111 -1.061,3.099 -1.77,3.882 z m 3.906,-16.211 c 0.393,0.889 0.446,1.964 -0.059,2.915 -1.206,2.274 -6.444,2.652 -8.764,2.569 -1.865,-0.065 -2.967,-1.969 -2.377,-3.672 0.734,-2.115 5.864,-2.572 7.763,-3.455 0.32,-0.148 0.563,-0.264 0.007,-0.003 1.408,-0.661 2.823,0.27 3.43,1.646 z m -8.337,-24.791 c 1.686,3.25 4.935,13.302 5.659,16.313 0.747,3.105 -2.521,4.755 -3.792,1.987 -2.886,-6.263 -6.723,-17.057 -8.191,-23.819 -0.62,-2.872 -2.36,-6.152 -2.205,-9.096 0.052,-0.995 0.049,-5.159 1.557,-4.488 1.296,0.576 2.011,4.674 2.228,5.809 1.145,5.981 3.057,10.042 4.744,13.294 z m 4.423,-47.072 c -2.343,3.896 -11.97,20.044 -12.851,21.546 -0.882,1.503 -4.581,3.301 -3.974,0.844 0.532,-2.166 5.457,-12.655 8.804,-17.323 2.922,-4.072 5.509,-7.402 7.721,-10.248 2.212,-2.845 5.084,-4.106 5.508,-3.071 0.426,1.035 -2.546,4.178 -5.208,8.252 z m 34.969,77.229 c -0.072,-1.675 1.756,-10.516 2.131,-14.782 0.207,-2.368 1.182,-4.563 1.393,-6.939 0.076,-0.862 0.857,-10.872 2.656,-6.824 2.015,4.542 -0.082,12.935 -0.179,17.649 -0.062,2.892 0.228,5.757 0.17,8.652 -0.015,0.71 0.359,1.554 0.511,2.396 0.152,0.843 0.263,2.161 -2.306,2.587 -2.57,0.422 -4.304,-1.064 -4.376,-2.739 z m 1.556,10.173 c -0.881,-1.067 -1.111,-1.596 -0.614,-2.624 0.498,-1.027 2.189,-1.396 3.524,-1.332 1.626,0.078 5.845,-1.551 6.568,1.083 0.32,1.166 -4.021,3.294 -4.746,3.526 -0.83,0.263 -4.112,0.099 -4.732,-0.653 z m 5.585,10.037 c -1.361,-0.748 -2.257,-3.476 -2.104,-4.303 0.153,-0.83 -0.179,-1.245 1.23,-1.963 2.042,-1.029 2.598,1.737 3.199,2.951 1.3,2.639 -0.964,4.061 -2.325,3.315 z m 6.014,9.96 c -0.335,0.249 -0.181,0.13 0,0 -2.419,1.795 -5.064,-5.109 -3.784,-6.69 1.065,-1.314 2.963,0.347 3.748,1.577 0.906,1.424 1.058,4.352 0.036,5.113 z m 1.225,-16.234 c 0.724,2.128 0.695,3.688 -0.435,3.726 -1.131,0.038 -3.657,-3.433 -3.938,-4.731 -0.279,-1.302 3.164,-2.524 4.373,1.005 z m -5.394,-29.407 c 0.647,-3.479 0.391,-7.156 -0.01,-10.654 -0.075,-0.66 -0.205,-5.765 0.409,-6.306 0.716,-0.63 1.245,1.674 1.445,2.215 0.594,1.593 0.205,6.415 0.359,8.104 0.353,3.981 0.376,11.875 -0.134,15.823 -0.224,1.745 -1.864,4.551 -1.986,2.71 -0.121,-1.784 -0.412,-10.091 -0.092,-11.842 -0.04,0.218 -0.068,0.365 0.009,-0.05 z M 71.813,775.093 c 2.257,1.714 2.949,6.63 3.531,9.157 0.723,3.134 1.499,6.314 2.439,9.393 1.873,6.147 3.561,12.466 4.026,18.897 0.045,0.638 0.46,3.693 0.673,5.264 0.152,1.117 -0.109,4.599 -2.095,2.979 -1.372,-1.117 -2.437,-4.661 -2.897,-6.336 -0.722,-2.637 -0.947,-5.368 -1.837,-7.967 -1.816,-5.308 -2.627,-10.522 -3.754,-15.995 -0.57,-2.771 -1.578,-5.435 -2.314,-8.162 -0.403,-1.489 -0.03,-8.947 2.228,-7.23 z M 59.771,760.979 c 2.171,-0.73 6.714,-3.104 8.34,-1.179 1.625,1.929 3.25,6.084 0.422,8.67 -2.829,2.589 -7.887,4.996 -12.944,5.178 -5.057,0.181 -16.404,-7.021 -11.663,-10.914 4.741,-3.894 10.932,-0.1 15.845,-1.755 z m 9.558,-14.469 c -1.292,1.41 -6.11,-1.51 -8.127,-2.279 -1.791,-0.688 -4.062,-1.145 -4.656,-1.352 -0.594,-0.21 -0.498,-1.091 -0.491,-1.559 0.011,-0.695 -0.161,-1.865 0.474,-2.104 0.635,-0.235 5.694,1.058 8.875,2.335 3.298,1.328 5.641,3.088 3.925,4.959 z m 19.288,5.627 c -4.58,-3.397 -6.305,-8.589 -9.266,-13.215 -1.443,-2.046 -2.747,-4.193 -3.922,-6.405 -0.497,-0.935 -1.709,-2.532 -1.513,-3.685 0.307,-1.798 2.465,-0.78 3.144,0.04 3.455,4.156 6.969,8.054 9.743,12.714 1.148,1.93 2.036,3.997 3.046,5.999 0.476,0.941 1.106,6.289 -1.232,4.552 0.758,0.563 -3.177,-2.359 0,0 z m 2.43,38.718 c -0.854,0.085 -1.245,-2.713 -1.417,-4.023 -0.133,-0.987 -0.402,-1.93 -0.435,-4.192 -0.033,-2.263 0.045,-3.477 0.974,-5.69 0.929,-2.214 1.835,5.028 1.829,7.531 -0.005,2.501 -0.096,6.29 -0.951,6.374 z m 1.986,-28.223 c 0.715,-1.144 2.664,0.856 3.25,3.836 0.589,2.98 0.995,6.457 1.536,11.424 0.541,4.968 1.917,8.137 1.896,10.34 -0.026,2.92 -1.129,4.65 -3.025,4.694 -1.896,0.046 -2.521,-4.495 -3.205,-9.978 -0.687,-5.482 -0.813,-8.218 -0.858,-10.069 -0.046,-1.85 -0.308,-9.106 0.406,-10.247 z m 2.162,49.086 c -0.184,2.276 0.104,5.781 -1.572,4.794 -0.861,-0.507 -1.248,-2.927 -1.185,-4.813 0.06,-1.789 0.536,-3.041 1.047,-3.684 1.046,-1.314 1.892,1.426 1.71,3.703 z m 2.249,-2.664 c 0.655,-0.899 1.558,-0.654 1.986,0.104 0.428,0.758 0.534,2.329 0.609,2.912 0,0 0.183,2.873 -0.096,3.608 -0.393,1.039 -2.094,1.02 -2.33,-0.04 -0.234,-1.058 -1.2,-5.168 -0.169,-6.584 z m 3.108,16.525 c -0.567,0.573 -1.625,0.63 -2.167,-0.271 -0.541,-0.903 -0.759,-3.104 -0.631,-5.306 0.059,-1.047 1.173,-1.761 1.918,-1.129 0.745,0.632 0.834,2.4 1.079,3.443 0.189,0.808 0.57,2.487 -0.199,3.263 z m -0.701,-19.696 c -2.556,0.938 -5.556,-0.348 -5.373,-2.392 0.185,-2.042 0.288,-2.537 2.243,-3.041 -0.323,0.084 -1.172,0.303 0.004,0 0.169,-0.044 0.121,-0.032 0.004,0 2.569,-0.658 4.387,0.105 5.094,2.225 0.707,2.119 -0.007,2.489 -1.972,3.208 z m 3.344,8.296 c -0.003,-0.006 -0.004,-0.012 -0.008,-0.018 -0.462,-1.087 -1.074,-3.185 -0.988,-4.349 0.118,-1.571 1.58,-2.096 2.058,-0.909 0.479,1.186 1.51,3.551 1.576,4.61 0.068,1.063 -0.271,1.266 -0.984,1.411 -0.712,0.15 -1.346,-0.03 -1.654,-0.745 z m 4.1,9.318 c -0.538,0.895 -2.22,0.67 -2.34,-0.295 -0.237,-1.882 -0.691,-3.758 -0.409,-5.675 0.197,-1.332 1.509,-1.383 1.982,-0.702 0.472,0.684 0.911,2.409 1.048,3.344 0.18,1.233 0.179,2.558 -0.281,3.328 z"
         id="path108" />
      <path
         inkscape:connector-curvature="0"
         d="m 49.147,764.076 c -2.794,0 -2.794,4.995 0,4.995 2.795,0 2.795,-4.995 0,-4.995 z"
         id="path110" />
      <path
         inkscape:connector-curvature="0"
         d="m 64,762.933 c -2.795,0 -2.795,5.117 0,5.117 2.795,0 2.795,-5.117 0,-5.117 z"
         id="path112" />
    </g>
  </g>
</svg>
