<?xml version="1.0" encoding="UTF-8" standalone="no"?>
<!-- Created with Inkscape (http://www.inkscape.org/) -->

<svg
   xmlns:dc="http://purl.org/dc/elements/1.1/"
   xmlns:cc="http://creativecommons.org/ns#"
   xmlns:rdf="http://www.w3.org/1999/02/22-rdf-syntax-ns#"
   xmlns:svg="http://www.w3.org/2000/svg"
   xmlns="http://www.w3.org/2000/svg"
   xmlns:sodipodi="http://sodipodi.sourceforge.net/DTD/sodipodi-0.dtd"
   xmlns:inkscape="http://www.inkscape.org/namespaces/inkscape"
   width="33.349499mm"
   height="33.349499mm"
   viewBox="0 0 33.349499 33.349499"
   version="1.1"
   id="svg2366"
   inkscape:version="0.92.3 (2405546, 2018-03-11)"
   sodipodi:docname="stairs.svg">
  <defs
     id="defs2360" />
  <sodipodi:namedview
     id="base"
     pagecolor="#ffffff"
     bordercolor="#666666"
     borderopacity="1.0"
     inkscape:pageopacity="0.0"
     inkscape:pageshadow="2"
     inkscape:zoom="3.959798"
     inkscape:cx="67.754581"
     inkscape:cy="60.14324"
     inkscape:document-units="mm"
     inkscape:current-layer="layer1"
     showgrid="false"
     inkscape:window-width="1366"
     inkscape:window-height="703"
     inkscape:window-x="0"
     inkscape:window-y="0"
     inkscape:window-maximized="1" />
  <metadata
     id="metadata2363">
    <rdf:RDF>
      <cc:Work
         rdf:about="">
        <dc:format>image/svg+xml</dc:format>
        <dc:type
           rdf:resource="http://purl.org/dc/dcmitype/StillImage" />
        <dc:title></dc:title>
      </cc:Work>
    </rdf:RDF>
  </metadata>
  <g
     inkscape:label="Layer 1"
     inkscape:groupmode="layer"
     id="layer1"
     transform="translate(-39.472128,-80.753823)">
    <g
       transform="matrix(0.26458333,0,0,0.26458333,-28.567419,80.495187)"
       id="Straight_Stairs">
      <path
         style="fill:#e3e3ea"
         inkscape:connector-curvature="0"
         d="m 369.772,82.417 c -0.648,-1.618 -0.286,-3.774 0.066,-5.858 0.224,-1.326 0.454,-2.698 0.434,-3.976 l -0.021,-1.855 c -0.027,-2.991 -0.057,-6.085 -0.541,-9.141 -0.468,-2.915 -0.197,-6.305 0.146,-10.599 0.168,-2.119 0.355,-4.47 0.486,-7.124 0.139,-2.802 0.41,-5.545 0.651,-7.967 0.577,-5.838 0.809,-8.707 -0.267,-10.101 -1.494,-1.938 -4.479,-1.955 -7.933,-1.975 l -1.135,-0.008 -0.897,-0.016 c -0.506,-0.01 -1.021,-0.021 -1.534,-0.021 -3.229,0 -6.489,0.417 -8.478,3.438 -0.301,0.457 -0.641,1.121 -1.001,1.928 -1.676,-3.838 -3.907,-7.116 -6.044,-8.91 -1.894,-1.588 -6.077,-2.654 -10.413,-2.654 -6.063,0 -9.916,2.095 -10.451,5.603 -1.65,-2.36 -3.643,-4.519 -5.046,-6.031 -1.248,-1.347 -2.976,-2.029 -5.134,-2.029 l -0.288,0.004 c -4.067,0.114 -8.608,1.049 -12.15,2.499 -1.44,0.592 -3.142,1.438 -4.812,2.43 -0.687,-5.801 -1.482,-9.774 -2.327,-10.91 -4.831,-6.484 -26.339,-6.508 -28.414,-2.979 -0.93,1.58 1.46,24.406 1.648,49.467 0.234,30.948 -1.463,65.227 0.138,66.217 2.897,1.793 16.417,3.312 25.521,-2.069 1.62,-0.957 2.851,-4.882 3.752,-10.708 1.507,1.683 3.8,2.577 6.844,2.625 0.634,0.01 1.476,0.078 2.439,0.152 1.458,0.113 3.273,0.254 5.034,0.254 3.939,0 6.396,-0.707 7.705,-2.223 1.563,-1.135 3.96,-3.154 5.708,-5.335 0.925,0.955 1.967,1.599 3.13,1.812 1.843,0.72 4.479,1.131 7.265,1.131 6.78,0 11.405,-2.236 12.387,-6.027 l 0.158,-0.607 -0.02,-0.026 c 0.204,-1.088 1.363,-2.232 2.6,-3.402 1.346,1.327 2.814,2.27 4.271,2.586 2.603,0.566 5.273,0.865 7.724,0.865 1.523,0 2.974,-0.113 4.313,-0.336 0.721,-0.12 1.386,-0.136 1.884,-0.136 l 1.353,0.016 c 0.951,0 2.03,-0.066 2.826,-0.868 0.851,-0.854 0.94,-2.174 0.935,-3.093 -0.023,-3.819 -0.913,-10.037 -2.512,-14.043 z"
         id="path289" />
      <path
         inkscape:connector-curvature="0"
         d="m 375.191,103.254 c 0.868,-5.029 0.668,2.83 -0.674,-40.389 -0.388,-12.459 0.732,-24.607 1.949,-36.994 1.232,-12.628 -16.415,-4.493 -22.917,-7.51 -3.581,-1.661 -2.548,-6.841 -8.049,-7.03 -4.977,-0.167 -14.064,1.766 -18.551,-0.214 -1.847,-0.813 -2.338,-2.871 -4.412,-3.474 -2.454,-0.713 -5.521,0.148 -8.031,0.124 -3.895,-0.047 -12.762,3.139 -16.045,0.709 -4.003,-2.964 -2.554,-5.547 -8.815,-6.63 -6.908,-1.195 -14.032,-0.899 -21.018,-0.613 -4.339,0.175 -6.98,5.18 -3.663,8.494 4.332,4.332 7.363,0.622 12.026,-0.013 15.812,-2.15 14.205,9.243 15.511,21.205 1.082,10.029 0.229,21.047 -0.432,31.126 -0.78,11.892 0.437,24.04 -1.122,35.876 -1.273,9.671 1.061,22.877 -12.748,19.562 -5.059,-1.216 -11.573,-3.738 -13.978,1.802 -3.392,7.816 5.723,6.218 11.1,6.541 5.123,0.309 10.45,1.839 15.568,0.891 4.78,-0.886 5.161,-8.021 9.59,-7.588 5.728,0.556 12.298,1.578 18.028,0.686 4.265,-0.66 5.839,-5.611 10.14,-5.737 5.437,-0.154 10.136,0.368 15.54,-0.567 2.782,-0.482 5.801,-0.406 7.191,-3.403 1.046,-2.259 2.327,-3.566 4.907,-3.643 4.772,-0.142 18.037,1.818 18.905,-3.211 z M 319.216,68.639 c 0,0.013 0,0.02 -0.001,0.032 -0.731,9.474 -1.025,19.304 -0.818,28.804 0.06,2.754 1.509,9.562 -1.458,11.518 -2.4,3.046 -11.085,1.563 -14.346,1.512 -11.967,-0.193 -6.821,-13.665 -6.375,-22.14 0.525,-9.938 -0.813,-20.831 1.193,-30.582 0.866,-4.21 -0.096,-9.438 -0.067,-13.778 0.03,-4.646 0.729,-9.102 0.375,-13.746 -0.317,-4.175 -1.822,-9.57 2.956,-11.533 3.529,-1.445 7.951,-2.304 11.732,-2.41 9.058,-0.246 6.088,12.564 6.103,18.169 0.03,11.249 1.551,22.98 0.706,34.154 z m 25.602,3.697 c 0.126,5.212 -0.419,10.434 -0.368,15.638 0.04,4.048 1.631,9.292 0.629,13.219 0.021,-0.079 0.03,-0.121 0,0.002 0,0.003 0,0.001 -0.002,0.005 -1.476,5.737 -13.447,5.916 -18.166,4.002 -6.329,-0.953 -3.288,-20.703 -3.12,-24.784 0.782,-18.949 -1.571,-37.892 0.165,-56.806 0.589,-6.526 15.356,-5.508 18.982,-2.466 5.458,4.581 1.503,22.063 1.521,28.32 0.023,7.673 0.17,15.224 0.359,22.87 z m 24.964,-45.812 c 1.275,1.655 -0.227,9.111 -0.63,17.281 -0.404,8.171 -1.342,13.455 -0.619,17.971 0.568,3.583 0.491,7.215 0.548,10.827 0.05,3.179 -1.637,7.207 -0.416,10.258 1.452,3.636 1.714,8.192 1.739,12.156 0.026,3.964 -1.703,3.744 -5.313,4.346 -3.609,0.602 -7.76,0.315 -11.588,-0.518 -3.828,-0.832 -3.887,-8.051 -3.919,-13.825 -0.173,-1.443 -0.232,-2.884 -0.189,-4.263 0.118,-3.724 0.668,-9.958 0.28,-16.756 -0.389,-6.798 0.269,-13.783 0.472,-14.843 -0.229,-0.949 -0.572,-17.994 1.598,-21.289 2.169,-3.295 6.329,-2.906 9.898,-2.863 3.571,0.043 6.864,-0.138 8.139,1.518 z"
         id="path291" />
      <path
         inkscape:connector-curvature="0"
         d="m 319.238,68.353 c 0.007,-0.083 0.009,-0.106 0,0 z"
         id="path293" />
      <path
         inkscape:connector-curvature="0"
         d="m 345.027,101.397 c -0.021,0.083 -0.016,0.064 0,0 z"
         id="path295" />
    </g>
  </g>
</svg>
