<?xml version="1.0" encoding="UTF-8" standalone="no"?>
<!-- Created with Inkscape (http://www.inkscape.org/) -->

<svg
   xmlns:dc="http://purl.org/dc/elements/1.1/"
   xmlns:cc="http://creativecommons.org/ns#"
   xmlns:rdf="http://www.w3.org/1999/02/22-rdf-syntax-ns#"
   xmlns:svg="http://www.w3.org/2000/svg"
   xmlns="http://www.w3.org/2000/svg"
   xmlns:sodipodi="http://sodipodi.sourceforge.net/DTD/sodipodi-0.dtd"
   xmlns:inkscape="http://www.inkscape.org/namespaces/inkscape"
   width="23.71291mm"
   height="23.71291mm"
   viewBox="0 0 23.71291 23.71291"
   version="1.1"
   id="svg16928"
   inkscape:version="0.92.3 (2405546, 2018-03-11)"
   sodipodi:docname="tombstone2.svg">
  <defs
     id="defs16922" />
  <sodipodi:namedview
     id="base"
     pagecolor="#ffffff"
     bordercolor="#666666"
     borderopacity="1.0"
     inkscape:pageopacity="0.0"
     inkscape:pageshadow="2"
     inkscape:zoom="1.979899"
     inkscape:cx="-13.363946"
     inkscape:cy="-0.65698791"
     inkscape:document-units="mm"
     inkscape:current-layer="layer1"
     showgrid="false"
     inkscape:window-width="1366"
     inkscape:window-height="703"
     inkscape:window-x="0"
     inkscape:window-y="0"
     inkscape:window-maximized="1" />
  <metadata
     id="metadata16925">
    <rdf:RDF>
      <cc:Work
         rdf:about="">
        <dc:format>image/svg+xml</dc:format>
        <dc:type
           rdf:resource="http://purl.org/dc/dcmitype/StillImage" />
        <dc:title></dc:title>
      </cc:Work>
    </rdf:RDF>
  </metadata>
  <g
     inkscape:label="Layer 1"
     inkscape:groupmode="layer"
     id="layer1"
     transform="translate(-73.566163,-75.768347)">
    <g
       transform="matrix(0.26458333,0,0,0.26458333,-33.110706,-65.031326)"
       id="Grave_2">
      <path
         style="fill:#6e533b"
         inkscape:connector-curvature="0"
         d="m 469.84,593.11 c -5.594,-1.97 -10.274,-1.774 -14.565,-2.496 -2.332,-0.394 -12.828,-0.597 -15.313,-0.413 -4.363,0.324 -8.777,0.824 -12.83,1.725 -0.869,0.194 -4.896,1.749 -7.035,1.186 -2.139,-0.563 -4.426,-5.84 -5.69,-7.761 -0.463,-0.698 -0.924,-1.398 -1.392,-2.093 l -0.493,-0.73 c -1.164,-1.719 -2.267,-3.344 -2.865,-4.938 -0.732,-1.944 -1.154,-3.807 -1.328,-5.863 l -0.121,-1.305 c -0.23,-2.461 -0.471,-5.004 0.115,-6.775 0.041,-0.12 0.069,-0.166 0.069,-0.166 0.148,-0.111 0.765,-0.361 2.972,-0.494 3.52,-0.218 8.764,-1.498 16.479,-2.155 7.715,-0.656 22.646,-2.104 25.025,-2.104 2.076,0 4.733,0.271 5.602,1.563 1.652,2.461 4.338,1.612 7.429,2.05 1.082,0.154 8.346,1.064 9.932,1.449 5.459,1.316 14.348,3.587 15.104,6.414 0.761,2.828 -8.067,12.285 -8.688,12.76 -2.214,1.687 -11.634,9.489 -12.407,10.146 z"
         id="path45" />
      <path
         inkscape:connector-curvature="0"
         d="m 490.904,566.986 c -5.318,-2.805 -10.15,-4.543 -16.035,-5.967 -2.908,-0.702 -5.834,-0.789 -8.781,-1.206 -1.662,-0.236 -2.721,-0.787 -3.66,-2.187 -4.057,-6.042 -15.727,-2.896 -21.785,-2.522 -6.426,0.395 -12.584,2.108 -19.008,2.486 -3.521,0.206 -7.041,0.416 -10.563,0.632 -3.093,0.188 -6.191,0.64 -7.279,3.927 -1.031,3.123 -0.49,6.775 -0.219,9.979 0.211,2.491 0.729,4.783 1.617,7.14 0.899,2.393 2.446,4.537 3.866,6.648 1.75,2.604 3.42,5.286 5.334,7.774 1.117,1.455 2.404,2.718 4.193,3.282 2.318,0.733 4.537,-0.212 6.816,-0.701 4.811,-1.032 9.647,-2.271 14.563,-2.639 4.736,-0.35 9.676,-0.613 14.381,0.176 4.98,0.839 10.265,2.477 15.011,4.188 3.372,0.555 5.987,-4.133 7.723,-6.438 2.111,-2.807 5.057,-4.689 7.758,-6.871 2.076,-1.678 3.617,-4.425 5.228,-6.523 1.772,-2.31 4.717,-9.13 0.84,-11.178 -0.709,-0.374 1.344,0.71 0,0 z m -21.25,2.312 c 0.463,-1.471 -1.265,-4.106 1.061,-4.041 2.558,0.074 5.033,0.717 7.437,1.543 2.262,0.781 3.76,0.894 6.021,1.674 1.652,0.57 5.066,0.673 4.416,2.896 -0.516,1.759 -0.652,3.621 -2.486,3.657 -2.526,0.05 -4.911,-0.842 -7.444,-0.833 -2.383,0.007 -4.793,0.34 -7.166,-0.007 -3.132,-0.454 -2.598,-2.469 -1.839,-4.889 0.483,-1.531 -0.48,1.531 0,0 z m -8.656,0.626 c 1.016,-1.433 1.078,-4.782 2.736,-5.613 2.766,-1.387 3.028,4.235 2.842,5.632 -0.127,0.941 -0.637,2.556 -1.744,2.766 -1.207,0.227 -1.926,1.383 -3.166,1.693 -2.734,0.682 -1.525,-3.269 -0.668,-4.478 0.736,-1.038 -0.736,1.038 0,0 z m -49.629,-2.054 c 0,-1.877 0.381,-2.604 2.271,-3.096 1.586,-0.41 3.226,-0.598 4.849,-0.785 3.358,-0.395 6.727,-0.681 10.096,-0.967 5.076,-0.437 10.199,-0.205 15.246,-0.867 3.209,-0.42 6.563,-1.173 9.815,-0.896 1.505,0.128 3.33,1.08 2.849,2.902 -0.443,1.668 -2.404,2.792 -3.834,3.506 -3.123,1.563 -7.148,1.612 -10.553,2.069 -6.277,0.846 -12.441,2.364 -18.73,3.192 -4.327,0.571 -12.009,1.49 -12.009,-5.058 z m 67.51,14.061 c -1.561,1.808 -3.899,2.356 -5.473,4.063 -1.412,1.531 -2.486,3.896 -4.568,4.521 -2.397,0.717 -2.315,-0.295 -1.502,-2.213 0.68,-1.601 2.545,-3.894 1.914,-5.705 -0.791,-2.271 -3.457,-0.935 -4.521,0.488 -1.832,2.439 -2.619,6.468 -6.638,5.832 -3.383,-0.521 -6.836,0.239 -10.188,-0.24 -1.054,-0.149 -2.564,-0.492 -3.099,-1.514 -0.516,-0.981 -0.618,-2.15 -1.133,-3.149 -1.203,-2.334 -2.408,2.223 -2.711,3.02 -0.639,1.688 -1.975,2.129 -3.639,2.496 -2.775,0.611 -5.217,0.747 -6.701,-2.146 -0.875,-1.704 -1.811,-3.322 -3.125,-4.744 -0.709,-0.769 -2.23,-1.936 -2.039,-0.072 0.188,1.813 0.883,3.531 1.145,5.331 0.298,2.017 -2.858,1.616 -3.887,0.787 -2.492,-2.005 -4.58,-4.483 -7.227,-6.241 -1.383,-0.919 -2.64,-2.321 -3.637,-3.635 -1.229,-1.614 2.432,-1.134 3.282,-1.162 5.525,-0.191 11.41,-2.008 16.92,-1.312 1.271,0.162 1.959,1.394 2.679,2.34 0.481,0.635 1.508,2.56 2.412,2.665 0.264,0.032 0.598,-3.771 0.731,-4.238 0.506,-1.761 1.428,-2.731 3.195,-3.067 3.899,-0.739 7.637,-0.957 11.586,-0.519 0.836,0.092 1.432,0.563 1.953,1.194 0.633,0.769 0.799,0.647 1.657,0.962 1.695,0.616 -0.633,4.21 1.697,4.265 2.236,0.055 4.213,-2.161 6.431,-2.514 2.79,-0.442 6.004,0.353 8.846,0.313 1.457,-0.02 2.912,-0.096 4.36,-0.252 1.318,-0.143 3.14,-0.753 4.388,-0.024 1.779,1.037 -2.442,3.698 -3.108,4.47 z"
         id="path47" />
      <path
         inkscape:connector-curvature="0"
         d="m 456.686,586.526 c -1.159,0 -1.856,0.1 -2.432,-1.093 -0.565,-1.172 -0.477,-2.209 0.65,-2.934 3.213,-2.065 4.473,3.534 1.782,4.027 -0.678,0 0.89,-0.163 0,0 z"
         id="path49" />
    </g>
  </g>
</svg>
