<?xml version="1.0" encoding="UTF-8" standalone="no"?>
<!-- Created with Inkscape (http://www.inkscape.org/) -->

<svg
   xmlns:dc="http://purl.org/dc/elements/1.1/"
   xmlns:cc="http://creativecommons.org/ns#"
   xmlns:rdf="http://www.w3.org/1999/02/22-rdf-syntax-ns#"
   xmlns:svg="http://www.w3.org/2000/svg"
   xmlns="http://www.w3.org/2000/svg"
   xmlns:sodipodi="http://sodipodi.sourceforge.net/DTD/sodipodi-0.dtd"
   xmlns:inkscape="http://www.inkscape.org/namespaces/inkscape"
   width="25.521099mm"
   height="25.521099mm"
   viewBox="0 0 25.521099 25.521099"
   version="1.1"
   id="svg4741"
   inkscape:version="0.92.3 (2405546, 2018-03-11)"
   sodipodi:docname="trapdoor.svg">
  <defs
     id="defs4735" />
  <sodipodi:namedview
     id="base"
     pagecolor="#ffffff"
     bordercolor="#666666"
     borderopacity="1.0"
     inkscape:pageopacity="0.0"
     inkscape:pageshadow="2"
     inkscape:zoom="1.979899"
     inkscape:cx="5.3729363"
     inkscape:cy="-7.2977286"
     inkscape:document-units="mm"
     inkscape:current-layer="layer1"
     showgrid="false"
     inkscape:window-width="1366"
     inkscape:window-height="703"
     inkscape:window-x="0"
     inkscape:window-y="0"
     inkscape:window-maximized="1" />
  <metadata
     id="metadata4738">
    <rdf:RDF>
      <cc:Work
         rdf:about="">
        <dc:format>image/svg+xml</dc:format>
        <dc:type
           rdf:resource="http://purl.org/dc/dcmitype/StillImage" />
        <dc:title></dc:title>
      </cc:Work>
    </rdf:RDF>
  </metadata>
  <g
     inkscape:label="Layer 1"
     inkscape:groupmode="layer"
     id="layer1"
     transform="translate(-46.8516,-49.138257)">
    <g
       transform="matrix(0.26458333,0,0,0.26458333,-58.900973,11.098727)"
       id="Trapdoor_1_">
      <path
         style="fill:#6e533b"
         inkscape:connector-curvature="0"
         d="m 415.389,235.461 c -2.645,0 -3.354,0 -3.393,-5.22 -0.008,-1.182 0.068,-2.849 0.146,-4.614 0.177,-3.828 0.355,-7.787 -0.051,-10.658 -0.475,-3.331 -2.289,-4.811 -3.401,-5.527 -0.705,-3.435 -0.679,-7.272 -0.652,-11.325 0.014,-2.286 0.031,-4.651 -0.098,-6.955 -0.087,-1.562 -0.259,-3.219 -0.439,-4.973 -0.236,-2.27 -0.477,-4.6 -0.51,-6.591 1.401,-0.365 3.557,-1.208 4.545,-3.667 0.672,-1.666 0.756,-4.161 0.703,-11.874 -0.013,-1.995 -0.027,-3.857 0.014,-5.101 0.019,-0.565 0.002,-1.191 -0.016,-1.851 -0.019,-0.684 -0.05,-1.864 0.055,-2.496 0.348,-0.104 1.078,-0.249 2.432,-0.249 1.507,0 3.177,0.178 4.652,0.335 1.32,0.141 2.459,0.262 3.457,0.262 0.27,0 0.52,-0.008 0.748,-0.026 2.914,-0.211 4.979,-1.796 6.154,-4.71 0.487,-0.071 1.157,-0.133 2.002,-0.133 0.854,0 1.729,0.066 2.53,0.188 0.005,0 0.015,0 0.017,0 0.094,0.086 0.176,0.177 0.26,0.264 1.033,1.04 2.957,2.979 7.076,2.979 1.932,0 4.832,-0.104 7.904,-0.212 3.495,-0.125 7.11,-0.254 9.786,-0.254 4.576,0 7.033,-1.151 8.689,-4.094 0.811,-0.202 2.406,-0.42 4.346,-0.42 0.539,0 0.992,0.018 1.357,0.042 0.461,1.041 1.322,2.353 3.059,3.258 1.392,0.727 3.054,0.873 5.283,0.873 0.781,0 1.641,-0.02 2.516,-0.039 0.834,-0.02 1.688,-0.041 2.496,-0.041 0.804,0 1.351,0.023 1.722,0.049 0.178,1.021 -0.021,3.017 -0.115,3.944 l -0.07,0.723 c -0.207,2.241 -0.324,4.517 -0.438,6.721 -0.164,3.197 -0.32,6.224 -0.728,9.129 -0.813,0.476 -1.713,1.245 -2.418,2.519 -1.924,3.463 -1.899,21.718 -0.703,25.844 0.498,1.72 1.42,2.956 2.742,3.678 1.035,0.563 1.414,0.779 1.816,1.185 0.367,2.526 -0.035,9.925 -0.174,12.471 l -0.05,0.905 c -0.088,1.692 -0.188,3.362 -0.291,5.029 -0.145,2.358 -0.286,4.708 -0.395,7.089 -0.867,0.131 -2.123,0.139 -2.689,0.144 l -0.557,0.005 c -3.082,0.049 -6.088,0.224 -8.996,0.392 -3.377,0.195 -6.567,0.38 -9.834,0.38 v 0 c -1.699,0 -3.26,-0.05 -4.771,-0.153 -2.672,-0.183 -5.49,-0.276 -8.377,-0.276 -11.57,0 -23.351,1.479 -33.742,2.783 -1.459,0.179 -2.634,0.268 -3.599,0.268 z"
         id="path263" />
      <path
         style="fill:#656668"
         inkscape:connector-curvature="0"
         d="m 470.186,219.885 c -1.43,-0.022 -5.233,-0.084 -5.493,-3.713 -0.689,-9.551 -0.121,-20.573 0.381,-30.299 l 0.168,-3.356 c 0.227,-4.547 0.233,-9.148 0.244,-13.596 0.01,-5.228 0.02,-10.634 0.381,-16.035 0.18,-2.707 2.49,-5.084 4.947,-5.084 0.174,0 0.348,0.013 0.52,0.037 l 0.389,0.044 c 3.24,0.333 4.81,1.636 4.658,3.872 -0.545,8.183 -0.947,16.515 -1.303,23.865 -0.119,2.493 -0.236,4.884 -0.351,7.136 -0.538,10.622 -1.004,21.854 -0.262,32.144 0.043,0.594 0.174,2.402 -1.074,3.744 -0.526,0.567 -1.496,1.243 -3.106,1.243 z M 431.863,215.6 c -3.125,0 -4.367,-1.983 -4.486,-3.841 -0.172,-2.622 -0.063,-5.159 0.043,-7.609 0.109,-2.545 0.213,-4.949 0.025,-7.418 -0.463,-6.091 -0.58,-11.024 -0.365,-15.527 0.432,-9.104 1.156,-24.299 0.91,-27.352 -0.144,-1.798 0.483,-2.889 1.037,-3.486 0.528,-0.574 1.502,-1.258 3.129,-1.258 l 0.164,0.001 c 1.823,0.052 4.002,1.305 4.653,4.672 0.279,1.449 0.117,5.322 -0.223,12.616 -0.225,4.846 -0.48,10.337 -0.531,14.946 -0.028,2.837 0.187,5.612 0.416,8.55 0.162,2.099 0.332,4.268 0.398,6.444 0.067,2.198 0.055,4.445 0.037,6.618 -0.021,2.916 -0.039,5.933 0.146,8.804 0.063,0.961 -0.24,1.859 -0.852,2.532 -1.113,1.219 -2.738,1.261 -3.812,1.288 0.005,0 -0.558,0.02 -0.689,0.02 z"
         id="path265" />
      <path
         inkscape:connector-curvature="0"
         d="m 493.039,203.948 c -1.242,-1.5 -2,-1.966 -3.707,-2.896 -1.707,-0.932 -1.189,-21.158 -0.156,-23.021 1.035,-1.862 2.301,0.329 2.91,-3.731 0.801,-5.38 0.75,-11.089 1.254,-16.512 0.269,-2.896 1.021,-7.737 -2.096,-9.422 -2.055,-1.112 -10.633,0.104 -12.277,-0.754 -1.643,-0.858 -0.608,-2.667 -2.637,-3.414 -2.029,-0.747 -9.674,-0.569 -11.435,0.983 -1.758,1.552 -0.413,3.104 -5.586,3.104 -5.174,0 -13.733,0.466 -17.69,0.466 -3.957,0 -3.217,-2.663 -6.629,-3.187 -3.41,-0.523 -7.123,-0.165 -8.521,0.715 -1.396,0.879 -0.629,3.706 -3.237,3.897 -2.611,0.19 -10.638,-1.823 -14.037,0.695 -2.314,1.708 -1.634,5.506 -1.709,7.931 -0.127,3.919 0.254,13.79 -0.375,15.349 -0.627,1.559 -4.688,0.21 -4.861,3.725 -0.205,4.08 0.705,9.499 0.93,13.55 0.353,6.346 -0.459,13.427 0.986,19.647 0.676,2.896 2.77,1.508 3.205,4.566 0.529,3.724 -0.17,10.88 -0.144,14.636 0.068,9.323 3.771,10.722 12.354,9.645 13.537,-1.699 27.537,-3.418 41.201,-2.481 8.196,0.563 15.86,-0.48 23.998,-0.606 2.471,-0.037 7.727,0.194 7.893,-3.634 0.18,-4.425 0.496,-8.717 0.73,-13.148 0.238,-4.451 0.878,-14.602 -0.364,-16.103 z M 482.33,191.223 c 0,3.214 0.393,7.121 -0.279,8.155 -0.672,1.035 -3.703,2.036 -4.737,0.587 -1.035,-1.448 0.19,-18.775 0.36,-20.744 0.207,-2.38 3.437,-2.077 4.088,-0.931 1.217,2.142 0.568,9.719 0.568,12.933 z m -14.707,-8.588 c 0.494,-9.955 -0.041,-19.684 0.619,-29.591 0.104,-1.553 1.571,-3.012 2.76,-2.845 0.955,0.134 3.084,0.141 3,1.396 -0.729,10.966 -1.201,22.105 -1.656,31.039 -0.532,10.515 -1.016,21.935 -0.258,32.437 0.103,1.407 -0.26,2.457 -1.863,2.431 -1.604,-0.025 -3.055,-0.1 -3.153,-1.5 -0.761,-10.506 0.026,-22.848 0.551,-33.367 z m -28.262,-25.209 c 1.207,-2.034 6.381,-0.671 13.162,-0.883 3.727,-0.116 8.67,-0.51 9.684,0.743 1.014,1.253 0.588,8.144 0.338,11.78 -0.252,3.638 -0.25,4.846 -2.492,4.742 -2.242,-0.104 -10.539,0.259 -10.912,0.294 -2.791,0.441 -8.391,1.991 -9.932,-0.333 -1.584,-2.389 -1.057,-14.31 0.152,-16.343 z m 22.631,34.369 c 0.303,4.768 0.395,8.867 -5.006,9.733 -3.375,0.543 -8.55,1.07 -13.402,1.282 -4.855,0.212 -4.869,-4.771 -5.176,-11.467 0.002,-0.254 0.006,-0.405 0.01,-0.506 0.117,-8.581 1.508,-10.605 10.871,-11.563 3.348,-0.354 9.852,-2.338 11.859,1.567 1.305,2.536 0.659,8.058 0.844,10.954 z m -27.359,-37.561 c 0.438,2.257 -0.686,16.792 -0.795,27.083 -0.053,5.073 0.656,10.041 0.814,15.095 0.159,5.11 -0.146,10.392 0.188,15.503 0.09,1.359 -1.637,1.248 -2.688,1.294 -1.129,0.05 -2.304,-0.152 -2.396,-1.604 -0.332,-5.113 0.459,-9.955 0.068,-15.054 -0.381,-5.01 -0.603,-10.199 -0.361,-15.233 0.465,-9.77 1.166,-24.449 0.906,-27.657 -0.146,-1.826 0.893,-2.195 1.887,-2.168 0.75,0.021 1.941,0.485 2.377,2.741 z m -19.758,6.554 c 0.42,-3.697 4.998,-3.547 7.719,-3.271 4.015,0.412 3.604,4.824 3.604,7.771 -0.025,0.235 -0.041,0.323 -0.051,0.358 -0.312,2.276 -0.101,6.642 -1.757,7.417 -1.655,0.776 -8.018,1.448 -9.416,0.104 -1.396,-1.344 -0.449,-9.342 -0.099,-12.379 z m -4.43,37.084 c -0.388,-5.584 -0.593,-17.617 2.149,-18.574 2.742,-0.957 12.939,-2.373 12.438,4.298 -0.613,5.86 1.682,21.28 -1.912,22.395 -3.594,1.115 -8.578,3.566 -10.939,1.27 -2.206,-2.152 -1.55,-6.73 -1.736,-9.389 z m 37.975,31.296 c -6.063,-0.656 -6.104,-5.82 -3,-6.751 3.104,-0.932 5.613,-1.294 7.346,0.439 1.733,1.733 1.716,6.968 -4.346,6.312 z m 34.143,1.443 c -3.347,1.711 -8.787,0.826 -12.421,0.865 -4.823,-0.051 -14.866,-0.214 -12.541,-5.956 2.328,-5.742 -2.313,-8.29 -8.541,-8.007 -5.157,0.234 -12.875,1.799 -10.133,8.576 2.742,6.776 -1.809,5.341 -7.076,5.71 -4.625,0.323 -14.323,2.055 -15.979,-0.998 -1.656,-3.052 -2.137,-14.386 -0.172,-15.473 1.967,-1.086 6.754,-2.184 8.537,-1.396 2.289,1.014 1.145,3.848 2.43,4.19 1.285,0.342 8.957,-0.627 10.746,-0.696 1.791,-0.07 0.998,-6.573 2.447,-7.84 1.446,-1.266 4.289,-1.333 6.756,-1.621 3.496,-0.406 11.719,-2.126 14.533,0.663 3.422,3.39 1.68,10.606 2.661,12.029 0.982,1.423 10.41,1.379 11.355,-0.052 0.945,-1.431 -1.578,-11.752 3.953,-12.554 5.522,-0.798 6.944,1.919 6.598,6.93 -0.28,4.057 1.286,13.364 -3.153,15.63 z m 0.429,-59.129 c -5.539,0.77 -5.414,-7.557 -5.318,-12.282 0.115,-5.561 6.176,-4.636 7.967,-3.776 1.791,0.86 0.937,5.652 1.091,8.137 -0.107,2.916 0.198,7.377 -3.74,7.921 z"
         id="path267" />
    </g>
  </g>
</svg>
