<?xml version="1.0" encoding="UTF-8" standalone="no"?>
<!-- Created with Inkscape (http://www.inkscape.org/) -->

<svg
   xmlns:dc="http://purl.org/dc/elements/1.1/"
   xmlns:cc="http://creativecommons.org/ns#"
   xmlns:rdf="http://www.w3.org/1999/02/22-rdf-syntax-ns#"
   xmlns:svg="http://www.w3.org/2000/svg"
   xmlns="http://www.w3.org/2000/svg"
   xmlns:sodipodi="http://sodipodi.sourceforge.net/DTD/sodipodi-0.dtd"
   xmlns:inkscape="http://www.inkscape.org/namespaces/inkscape"
   width="32.575771mm"
   height="32.575771mm"
   viewBox="0 0 32.575771 32.575771"
   version="1.1"
   id="svg5337"
   inkscape:version="0.92.3 (2405546, 2018-03-11)"
   sodipodi:docname="tradoor2.svg">
  <defs
     id="defs5331" />
  <sodipodi:namedview
     id="base"
     pagecolor="#ffffff"
     bordercolor="#666666"
     borderopacity="1.0"
     inkscape:pageopacity="0.0"
     inkscape:pageshadow="2"
     inkscape:zoom="2.8"
     inkscape:cx="44.27014"
     inkscape:cy="54.137138"
     inkscape:document-units="mm"
     inkscape:current-layer="layer1"
     showgrid="false"
     inkscape:window-width="1366"
     inkscape:window-height="703"
     inkscape:window-x="0"
     inkscape:window-y="0"
     inkscape:window-maximized="1" />
  <metadata
     id="metadata5334">
    <rdf:RDF>
      <cc:Work
         rdf:about="">
        <dc:format>image/svg+xml</dc:format>
        <dc:type
           rdf:resource="http://purl.org/dc/dcmitype/StillImage" />
        <dc:title></dc:title>
      </cc:Work>
    </rdf:RDF>
  </metadata>
  <g
     inkscape:label="Layer 1"
     inkscape:groupmode="layer"
     id="layer1"
     transform="translate(-73.956845,-55.438306)">
    <g
       transform="matrix(0.26458333,0,0,0.26458333,-28.19747,54.792832)"
       id="Trapdoor">
      <path
         style="fill:#e3e3ea"
         inkscape:connector-curvature="0"
         d="m 469.911,122.384 c -4.034,0 -8.145,-0.437 -12.117,-0.859 -3.473,-0.369 -6.753,-0.718 -9.926,-0.789 -7.479,-0.165 -15.098,-0.194 -22.468,-0.22 -3.532,-0.014 -7.066,-0.028 -10.598,-0.054 l -0.332,-0.002 c -0.905,0 -1.851,0.024 -2.806,0.051 -1.028,0.027 -2.071,0.055 -3.104,0.055 -0.012,0 -0.021,0 -0.032,0 -4.153,0 -13.791,-0.026 -14.422,-10.731 -0.192,-3.424 -0.435,-6.854 -0.678,-10.291 -0.489,-6.921 -0.994,-14.076 -1.078,-21.094 -0.033,-3.229 0.039,-6.538 0.108,-9.737 0.128,-5.828 0.261,-11.856 -0.249,-17.573 -0.055,-0.742 -0.099,-1.311 -0.121,-1.759 -0.36,-5.389 -0.525,-10.941 -0.518,-17.353 0.004,-1.655 -0.264,-3.818 -0.545,-6.109 -0.64,-5.221 -1.367,-11.136 0.547,-15.129 2.391,-4.982 11.213,-5.516 17.652,-5.905 1.214,-0.074 2.273,-0.136 3.063,-0.228 2.949,-0.34 6.169,-0.513 9.572,-0.513 3.17,0 6.479,0.148 9.845,0.441 6.792,0.592 13.578,1.245 20.351,1.896 l 0.949,0.09 c 2.095,0.201 8.572,0.466 14.521,0.525 29.271,0.288 32.383,2.207 33.403,2.838 4.082,2.516 3.84,9.556 3.709,13.339 l -0.008,0.247 c -0.209,6.137 -0.025,12.43 0.15,18.519 0.092,3.136 0.183,6.271 0.223,9.402 l 0.031,2.237 c 0.134,9.61 0.271,19.548 -0.642,29.022 -1.041,10.767 -1.811,19.659 -2.424,27.985 -0.501,6.809 -1.458,10.986 -10.493,11.578 -0.349,0.024 -0.702,0.034 -1.059,0.034 -1.773,0 -3.521,-0.269 -5.21,-0.527 -1.586,-0.244 -3.083,-0.474 -4.498,-0.474 -0.767,0 -1.439,0.067 -2.06,0.208 -2.606,0.593 -5.465,0.88 -8.736,0.88 z"
         id="path252" />
      <path
         style="fill:#6e533b"
         inkscape:connector-curvature="0"
         d="m 411.942,104.935 c -2.645,0 -3.354,0 -3.393,-5.221 -0.009,-1.182 0.067,-2.848 0.146,-4.613 0.175,-3.828 0.354,-7.787 -0.053,-10.658 -0.474,-3.332 -2.289,-4.812 -3.4,-5.527 -0.705,-3.436 -0.679,-7.273 -0.653,-11.326 0.015,-2.286 0.031,-4.652 -0.097,-6.956 -0.087,-1.562 -0.259,-3.219 -0.439,-4.973 -0.235,-2.27 -0.477,-4.599 -0.51,-6.591 1.402,-0.365 3.556,-1.208 4.545,-3.666 0.671,-1.667 0.756,-4.161 0.703,-11.874 -0.013,-1.995 -0.027,-3.857 0.013,-5.101 0.019,-0.566 0.003,-1.191 -0.015,-1.852 -0.018,-0.684 -0.05,-1.863 0.055,-2.496 0.349,-0.104 1.077,-0.249 2.433,-0.249 1.505,0 3.176,0.178 4.65,0.335 1.32,0.141 2.46,0.262 3.458,0.262 0.271,0 0.52,-0.008 0.747,-0.025 2.914,-0.212 4.98,-1.796 6.154,-4.711 0.489,-0.071 1.159,-0.133 2.003,-0.133 0.854,0 1.729,0.066 2.53,0.189 0.005,0 0.015,0 0.016,0 0.094,0.086 0.177,0.176 0.261,0.264 1.033,1.039 2.956,2.978 7.075,2.978 1.933,0 4.833,-0.104 7.904,-0.212 3.496,-0.124 7.11,-0.254 9.787,-0.254 4.575,0 7.032,-1.151 8.689,-4.093 0.812,-0.202 2.406,-0.421 4.347,-0.421 0.537,0 0.99,0.018 1.355,0.042 0.462,1.041 1.322,2.354 3.059,3.258 1.393,0.728 3.055,0.873 5.283,0.873 0.782,0 1.642,-0.02 2.517,-0.039 0.835,-0.02 1.688,-0.04 2.497,-0.04 0.802,0 1.35,0.022 1.721,0.048 0.178,1.022 -0.021,3.017 -0.115,3.945 l -0.071,0.723 c -0.207,2.24 -0.322,4.517 -0.437,6.72 -0.165,3.198 -0.32,6.224 -0.729,9.129 -0.813,0.476 -1.712,1.245 -2.418,2.519 -1.924,3.463 -1.898,21.718 -0.702,25.844 0.497,1.72 1.421,2.957 2.742,3.678 1.035,0.564 1.413,0.779 1.815,1.185 0.368,2.527 -0.034,9.925 -0.173,12.471 l -0.049,0.905 c -0.09,1.693 -0.19,3.363 -0.292,5.029 -0.146,2.359 -0.286,4.708 -0.396,7.089 -0.867,0.131 -2.123,0.14 -2.688,0.145 l -0.559,0.005 c -3.082,0.048 -6.087,0.223 -8.995,0.391 -3.377,0.196 -6.567,0.38 -9.834,0.38 v 0 c -1.698,0 -3.261,-0.05 -4.771,-0.153 -2.672,-0.183 -5.49,-0.276 -8.376,-0.276 -11.571,0 -23.351,1.479 -33.743,2.784 -1.455,0.18 -2.632,0.269 -3.597,0.269 z"
         id="path254" />
      <path
         style="fill:#656668"
         inkscape:connector-curvature="0"
         d="m 466.74,89.358 c -1.432,-0.022 -5.234,-0.084 -5.494,-3.714 -0.689,-9.551 -0.122,-20.573 0.38,-30.299 l 0.169,-3.355 c 0.228,-4.548 0.234,-9.148 0.243,-13.596 0.01,-5.229 0.021,-10.635 0.381,-16.035 0.18,-2.708 2.491,-5.085 4.947,-5.085 0.175,0 0.349,0.014 0.521,0.037 l 0.389,0.044 c 3.24,0.333 4.81,1.636 4.658,3.872 -0.545,8.184 -0.946,16.516 -1.303,23.866 -0.119,2.492 -0.235,4.884 -0.35,7.136 -0.539,10.621 -1.004,21.854 -0.263,32.143 0.042,0.594 0.174,2.402 -1.074,3.744 -0.526,0.567 -1.495,1.243 -3.106,1.243 z m -38.323,-4.286 c -3.125,0 -4.366,-1.983 -4.486,-3.841 -0.171,-2.622 -0.062,-5.158 0.044,-7.609 0.109,-2.545 0.214,-4.948 0.025,-7.417 -0.464,-6.092 -0.58,-11.026 -0.366,-15.528 0.434,-9.105 1.157,-24.3 0.911,-27.352 -0.144,-1.798 0.483,-2.89 1.036,-3.487 0.529,-0.574 1.502,-1.258 3.129,-1.258 l 0.165,0.002 c 1.823,0.052 4.002,1.305 4.653,4.672 0.279,1.448 0.117,5.321 -0.224,12.616 -0.225,4.845 -0.479,10.336 -0.529,14.945 -0.029,2.837 0.186,5.613 0.415,8.55 0.161,2.099 0.332,4.269 0.398,6.445 0.068,2.198 0.054,4.445 0.037,6.618 -0.02,2.917 -0.04,5.934 0.146,8.805 0.063,0.96 -0.239,1.858 -0.853,2.531 -1.112,1.219 -2.737,1.261 -3.811,1.288 0.003,10e-4 -0.559,0.02 -0.69,0.02 z"
         id="path256" />
      <path
         inkscape:connector-curvature="0"
         d="m 489.593,73.422 c -1.241,-1.501 -1.999,-1.966 -3.707,-2.897 -1.707,-0.931 -1.188,-21.159 -0.154,-23.021 1.034,-1.862 2.301,0.33 2.908,-3.731 0.803,-5.38 0.751,-11.088 1.254,-16.512 0.27,-2.896 1.021,-7.737 -2.095,-9.422 -2.055,-1.112 -10.633,0.105 -12.276,-0.753 -1.645,-0.858 -0.609,-2.668 -2.639,-3.415 -2.029,-0.746 -9.674,-0.568 -11.433,0.983 -1.759,1.551 -0.414,3.104 -5.587,3.104 -5.174,0 -13.733,0.466 -17.691,0.466 -3.957,0 -3.217,-2.662 -6.628,-3.187 -3.411,-0.523 -7.123,-0.165 -8.52,0.715 -1.396,0.879 -0.63,3.707 -3.239,3.897 -2.611,0.191 -10.636,-1.823 -14.036,0.695 -2.314,1.709 -1.633,5.506 -1.71,7.931 -0.126,3.919 0.254,13.79 -0.374,15.349 -0.627,1.559 -4.688,0.21 -4.862,3.725 -0.205,4.08 0.705,9.499 0.931,13.551 0.353,6.345 -0.459,13.426 0.986,19.647 0.675,2.896 2.771,1.509 3.204,4.567 0.529,3.723 -0.169,10.88 -0.142,14.635 0.066,9.323 3.77,10.722 12.354,9.645 13.536,-1.698 27.536,-3.417 41.2,-2.481 8.197,0.563 15.862,-0.479 23.998,-0.605 2.472,-0.038 7.728,0.193 7.893,-3.635 0.181,-4.425 0.496,-8.717 0.73,-13.147 0.236,-4.454 0.877,-14.604 -0.365,-16.104 z M 478.885,60.695 c 0,3.214 0.394,7.122 -0.279,8.157 -0.673,1.034 -3.703,2.035 -4.738,0.587 -1.034,-1.449 0.19,-18.776 0.362,-20.746 0.206,-2.379 3.436,-2.077 4.087,-0.931 1.216,2.142 0.568,9.719 0.568,12.933 z m -14.708,-8.587 c 0.494,-9.955 -0.041,-19.685 0.62,-29.591 0.104,-1.554 1.572,-3.012 2.759,-2.846 0.955,0.135 3.084,0.141 3,1.397 -0.729,10.965 -1.2,22.105 -1.654,31.039 -0.533,10.514 -1.017,21.934 -0.26,32.436 0.103,1.408 -0.259,2.457 -1.861,2.432 -1.604,-0.026 -3.057,-0.101 -3.155,-1.501 -0.761,-10.505 0.026,-22.848 0.551,-33.366 z m -28.262,-25.21 c 1.207,-2.033 6.382,-0.671 13.162,-0.883 3.727,-0.116 8.67,-0.509 9.684,0.744 1.015,1.253 0.589,8.143 0.338,11.78 -0.251,3.637 -0.249,4.845 -2.49,4.741 -2.242,-0.104 -10.539,0.259 -10.912,0.294 -2.792,0.441 -8.393,1.992 -9.934,-0.333 -1.584,-2.388 -1.056,-14.309 0.152,-16.343 z m 22.631,34.369 c 0.304,4.768 0.396,8.868 -5.005,9.734 -3.376,0.544 -8.549,1.07 -13.403,1.282 -4.854,0.212 -4.868,-4.771 -5.175,-11.467 10e-4,-0.254 0.005,-0.405 0.01,-0.506 0.117,-8.581 1.509,-10.604 10.87,-11.563 3.349,-0.354 9.853,-2.338 11.86,1.568 1.304,2.534 0.657,8.057 0.843,10.952 z m -27.358,-37.56 c 0.437,2.257 -0.687,16.792 -0.796,27.083 -0.054,5.073 0.656,10.041 0.814,15.095 0.16,5.11 -0.146,10.392 0.188,15.504 0.09,1.359 -1.638,1.248 -2.688,1.293 -1.129,0.05 -2.303,-0.152 -2.396,-1.604 -0.333,-5.113 0.458,-9.955 0.068,-15.055 -0.382,-5.01 -0.602,-10.2 -0.362,-15.234 0.467,-9.769 1.166,-24.449 0.907,-27.656 -0.146,-1.827 0.894,-2.195 1.887,-2.168 0.75,0.021 1.941,0.485 2.378,2.742 z M 411.43,30.26 c 0.419,-3.697 4.997,-3.547 7.719,-3.271 4.014,0.413 3.604,4.824 3.604,7.771 -0.025,0.236 -0.042,0.323 -0.052,0.358 -0.311,2.276 -0.101,6.642 -1.755,7.418 -1.656,0.775 -8.02,1.448 -9.416,0.104 -1.397,-1.345 -0.45,-9.342 -0.1,-12.38 z M 407,67.345 c -0.388,-5.584 -0.592,-17.617 2.15,-18.574 2.74,-0.957 12.938,-2.373 12.438,4.297 -0.614,5.86 1.682,21.282 -1.912,22.395 -3.594,1.114 -8.578,3.566 -10.938,1.27 -2.21,-2.151 -1.553,-6.729 -1.738,-9.388 z m 37.975,31.296 c -6.063,-0.656 -6.104,-5.819 -3.001,-6.751 3.104,-0.931 5.613,-1.293 7.348,0.439 1.731,1.734 1.715,6.968 -4.347,6.312 z m 34.142,1.443 c -3.347,1.711 -8.788,0.826 -12.42,0.865 -4.824,-0.05 -14.868,-0.213 -12.541,-5.955 2.328,-5.743 -2.313,-8.29 -8.542,-8.008 -5.157,0.234 -12.874,1.8 -10.133,8.576 2.741,6.777 -1.81,5.342 -7.076,5.71 -4.625,0.323 -14.324,2.055 -15.979,-0.997 -1.655,-3.053 -2.138,-14.387 -0.172,-15.473 1.966,-1.087 6.754,-2.185 8.536,-1.397 2.29,1.014 1.146,3.848 2.431,4.19 1.285,0.342 8.957,-0.627 10.746,-0.696 1.79,-0.069 0.997,-6.573 2.446,-7.839 1.448,-1.266 4.29,-1.334 6.757,-1.622 3.495,-0.405 11.718,-2.125 14.533,0.663 3.421,3.39 1.679,10.606 2.661,12.029 0.982,1.423 10.41,1.379 11.354,-0.052 0.945,-1.431 -1.578,-11.751 3.954,-12.553 5.522,-0.799 6.945,1.919 6.599,6.929 -0.281,4.057 1.286,13.364 -3.154,15.63 z m 0.43,-59.129 c -5.54,0.77 -5.415,-7.557 -5.317,-12.281 0.114,-5.562 6.176,-4.637 7.967,-3.776 1.791,0.859 0.935,5.651 1.09,8.136 -0.107,2.916 0.197,7.378 -3.74,7.921 z"
         id="path258" />
      <path
         inkscape:connector-curvature="0"
         d="m 507.43,60.411 c 0.308,-10.479 0.096,-20.813 -0.086,-31.281 -0.084,-4.818 0.063,-9.631 0.277,-14.441 0.125,-2.77 1.079,-7.026 -1.154,-9.241 -2.79,-2.773 -9.283,-1.554 -15.905,-1.554 -6.621,0 -7.282,0.211 -14.136,0.211 -6.853,0 -13.374,0.276 -22.166,-0.005 -10.592,-0.338 -20.646,-1.498 -31.271,-1.648 -9.554,-0.135 -18.896,0.874 -28.415,0.92 -10.823,0.052 -6.013,16.549 -5.823,23.289 0.262,9.378 0.935,18.969 0.644,28.338 0.133,-4.274 0.249,5.36 0,0 0.433,9.337 -0.214,18.688 -0.096,28.032 0.13,10.34 1.746,20.577 1.683,30.945 -0.019,3.374 -2.386,4.981 0.259,7.962 2.86,3.214 8.764,1.229 12.395,1.009 10.166,-0.615 20.412,0.16 30.584,0.11 9.819,-0.049 19.481,0.232 29.194,1.652 8.882,1.296 18.674,0.602 27.658,0.777 8.591,0.168 14.389,0.836 15.095,-9.104 0.696,-9.814 2.124,-19.723 2.301,-29.575 0.156,-8.846 -1.297,-17.541 -1.038,-26.396 z m -5.407,22.061 c -0.896,9.265 -1.736,18.636 -2.43,28.04 -0.483,6.593 -1.162,8.909 -8.271,9.375 -4.319,0.284 -8.957,-1.66 -13.194,-0.707 -9.558,2.162 -20.478,-0.609 -30.208,-0.827 -11.029,-0.244 -22.068,-0.189 -33.101,-0.275 -7.556,-0.057 -17.732,1.838 -18.334,-8.384 -0.585,-10.38 -1.628,-20.897 -1.753,-31.273 -0.095,-9.061 0.655,-18.472 -0.148,-27.493 -0.304,-4.056 -0.087,-1.24 -0.016,-0.262 -0.463,-6.266 -0.621,-12.351 -0.613,-18.635 0.007,-5.563 -2.619,-15.233 -0.232,-20.211 2.198,-4.581 14.469,-4.291 18.84,-4.795 6.118,-0.705 12.817,-0.597 18.938,-0.064 7.103,0.619 14.198,1.305 21.277,1.985 2.275,0.218 8.833,0.477 14.725,0.535 5.892,0.058 28.688,0.331 32.177,2.482 2.986,1.84 2.666,8.594 2.569,11.477 -0.317,9.33 0.25,18.704 0.373,28.032 0.135,10.111 0.374,20.917 -0.599,31 z"
         id="path260" />
    </g>
  </g>
</svg>
