<?xml version="1.0" encoding="UTF-8" standalone="no"?>
<!-- Created with Inkscape (http://www.inkscape.org/) -->

<svg
   xmlns:dc="http://purl.org/dc/elements/1.1/"
   xmlns:cc="http://creativecommons.org/ns#"
   xmlns:rdf="http://www.w3.org/1999/02/22-rdf-syntax-ns#"
   xmlns:svg="http://www.w3.org/2000/svg"
   xmlns="http://www.w3.org/2000/svg"
   xmlns:sodipodi="http://sodipodi.sourceforge.net/DTD/sodipodi-0.dtd"
   xmlns:inkscape="http://www.inkscape.org/namespaces/inkscape"
   width="25.63641mm"
   height="25.63641mm"
   viewBox="0 0 25.63641 25.63641"
   version="1.1"
   id="svg12024"
   inkscape:version="0.92.3 (2405546, 2018-03-11)"
   sodipodi:docname="bush_trans.svg">
  <defs
     id="defs12018" />
  <sodipodi:namedview
     id="base"
     pagecolor="#ffffff"
     bordercolor="#666666"
     borderopacity="1.0"
     inkscape:pageopacity="0.0"
     inkscape:pageshadow="2"
     inkscape:zoom="2.8"
     inkscape:cx="-13.136755"
     inkscape:cy="19.941306"
     inkscape:document-units="mm"
     inkscape:current-layer="Bush"
     showgrid="false"
     inkscape:window-width="1366"
     inkscape:window-height="703"
     inkscape:window-x="0"
     inkscape:window-y="0"
     inkscape:window-maximized="1" />
  <metadata
     id="metadata12021">
    <rdf:RDF>
      <cc:Work
         rdf:about="">
        <dc:format>image/svg+xml</dc:format>
        <dc:type
           rdf:resource="http://purl.org/dc/dcmitype/StillImage" />
        <dc:title></dc:title>
      </cc:Work>
    </rdf:RDF>
  </metadata>
  <g
     inkscape:label="Layer 1"
     inkscape:groupmode="layer"
     id="layer1"
     transform="translate(-112.75952,-75.538937)">
    <g
       transform="matrix(0.26458333,0,0,0.26458333,108.55493,-30.175551)"
       id="Bush">
      <path
         style="fill:none"
         inkscape:connector-curvature="0"
         d="m 69.6,489.819 c -3.009,0 -5.75,-0.649 -8.15,-1.93 -4.5,-2.396 -4.725,-6.232 -4.888,-9.032 -0.111,-1.896 -0.212,-3.004 -0.997,-3.729 -0.935,-0.863 -2.278,-0.942 -4.57,-1.009 -2.926,-0.086 -6.57,-0.191 -10.196,-3.023 -5.518,-4.305 -3.999,-9.942 -2.995,-13.675 0.294,-1.091 0.572,-2.123 0.672,-2.994 0.149,-1.291 -0.674,-2.045 -3.791,-4.145 -1.547,-1.043 -3.303,-2.228 -5.079,-3.849 -6.226,-5.68 -4.151,-11.588 -2.321,-16.802 1.985,-5.658 4.145,-9.593 9.863,-14.176 0.845,-0.68 1.661,-1.386 2.475,-2.087 3.948,-3.413 8.029,-6.942 14.575,-6.942 0.619,0 1.263,0.034 1.929,0.103 6.021,0.624 8.781,4.686 10.608,7.374 0.698,1.025 1.568,2.305 2.069,2.436 0.514,0.135 0.944,0.202 1.279,0.202 0.521,0 0.741,-0.132 1.627,-0.808 0.475,-0.36 0.988,-0.749 1.615,-1.124 1.583,-0.948 4.239,-1.539 6.936,-1.539 3.924,0 7.391,1.239 9.763,3.494 4.638,4.405 4.22,6.846 3.004,11.128 l -0.359,1.283 c -0.259,0.959 1.177,2.505 2.696,4.143 2.448,2.635 5.799,6.245 5.791,11.559 -0.011,6.829 -4.045,10.434 -6.99,13.063 -1.028,0.918 -1.998,1.786 -2.488,2.538 -0.43,0.661 -0.03,1.646 0.981,3.735 1.001,2.063 2.244,4.63 2.172,7.771 -0.164,7.026 -5.56,10.678 -11.558,14.094 -4.46,2.542 -9.314,3.941 -13.67,3.941 -10e-4,0 -10e-4,0 -0.003,0 z"
         id="path153" />
      <path
         inkscape:connector-curvature="0"
         d="m 112.062,443.733 c 0.01,0.891 0.078,2.093 0.026,3.293 -0.063,1.6 -0.249,3.193 -0.75,4.738 -0.123,0.385 -0.209,0.784 -0.389,1.145 -0.363,0.724 -0.772,1.431 -1.178,2.135 -2.414,4.207 -2.396,4.223 -6.16,7.587 -1.317,1.182 -1.925,2.594 -1.952,4.257 -0.013,0.802 0.058,1.6 0.064,2.399 0.005,0.8 0,1.601 -0.042,2.397 -0.047,0.808 -0.244,1.591 -0.566,2.335 -0.929,2.159 -2.969,5.684 -4.209,7.404 -1.201,1.665 -2.55,3.215 -3.974,4.712 -1.147,1.203 -2.41,2.299 -3.89,3.115 -2.202,1.218 -4.309,2.637 -6.852,3.233 -2.723,1.17 -5.422,2.38 -8.271,3.276 -1.65,0.521 -3.327,0.718 -5.049,0.681 -0.854,-0.019 -1.708,-0.08 -2.563,-0.122 -0.428,-0.021 -0.856,-0.021 -1.283,-0.062 -1.715,-0.15 -3.369,-0.524 -4.942,-1.202 -1.174,-0.503 -2.255,-1.132 -3.232,-1.928 -1.622,-1.318 -3.063,-2.795 -4.362,-4.394 -1.036,-1.275 -1.993,-2.588 -2.731,-4.052 -0.902,-1.779 -1.768,-2.513 -3.47,-3.402 -0.372,-0.195 -0.729,-0.448 -1.128,-0.567 -2.488,-0.747 -4.597,-2.118 -6.677,-3.532 -1.04,-0.705 -2.042,-1.46 -3.075,-2.173 -1.754,-1.208 -3.063,-2.763 -4.176,-4.501 -0.682,-1.062 -0.969,-2.215 -1.113,-3.406 -0.29,-2.393 -0.411,-4.791 -0.199,-7.196 0.072,-0.813 -0.017,-1.606 -0.259,-2.363 -0.124,-0.382 -0.246,-0.787 -0.486,-1.107 -0.979,-1.319 -2.244,-2.404 -3.424,-3.562 -2.661,-2.607 -5.209,-5.312 -7.52,-8.202 -0.774,-0.974 -1.322,-2.069 -1.613,-3.241 -0.291,-1.166 -0.486,-2.359 -0.626,-3.552 -0.141,-1.195 -0.139,-2.399 0.049,-3.596 0.186,-1.188 0.373,-2.378 0.574,-3.563 0.203,-1.19 0.564,-2.349 1.033,-3.467 0.78,-1.866 1.619,-3.716 2.938,-5.319 0.785,-0.958 1.359,-2.038 2.075,-3.033 0.957,-1.33 1.946,-2.64 3.099,-3.828 1.435,-1.485 2.871,-2.976 4.367,-4.405 2.104,-2.01 4.394,-3.816 7.064,-5.148 0.757,-0.379 1.478,-0.799 2.184,-1.257 1.058,-0.682 2.173,-1.268 3.41,-1.639 0.814,-0.244 1.641,-0.505 2.385,-0.891 2.297,-1.188 4.843,-1.525 7.352,-2.018 0.865,-0.168 1.669,-0.228 2.535,-0.066 2.949,0.554 5.824,1.287 8.564,2.475 1.161,0.503 2.417,0.809 3.594,1.284 1.173,0.474 2.271,1.102 3.492,1.487 1.279,0.404 2.538,0.241 3.767,-0.107 0.812,-0.229 1.589,-0.598 2.349,-0.963 1.169,-0.567 2.436,-0.744 3.711,-0.863 0.85,-0.079 1.71,-0.071 2.566,-0.086 2.173,-0.034 4.239,0.414 6.228,1.222 1.985,0.806 3.769,1.884 5.315,3.3 0.611,0.563 1.242,1.107 1.819,1.697 0.869,0.89 1.624,1.869 2.243,2.922 0.618,1.051 1.171,2.141 1.689,3.239 0.69,1.47 1.226,2.989 1.41,4.6 0.092,0.797 0.161,1.6 0.307,2.389 0.146,0.784 0.306,1.579 0.574,2.336 0.809,2.315 1.991,4.407 4.131,5.941 1.015,0.729 1.871,1.641 2.67,2.585 1.08,1.28 1.787,2.717 2.063,4.331 0.064,0.396 0.141,0.792 0.192,1.189 0.05,0.397 0.084,0.798 0.107,1.196 0.073,1.201 0.131,2.402 0.215,3.913 z m -29.97,40.075 c 5.992,-3.414 10.225,-6.499 10.354,-12.077 0.13,-5.579 -5.006,-9.311 -2.768,-12.753 2.239,-3.44 9.079,-6.119 9.092,-14.304 0.014,-8.184 -9.704,-11.517 -8.402,-16.32 1.301,-4.806 2.233,-6.051 -1.987,-10.062 -4.22,-4.011 -11.573,-2.992 -13.828,-1.639 -2.256,1.353 -2.799,2.919 -6.351,1.993 -3.552,-0.928 -4.321,-8.917 -12.321,-9.745 -8.001,-0.828 -12.105,4.295 -17.243,8.414 -5.138,4.118 -7.176,7.61 -9.104,13.105 -1.928,5.495 -3.263,9.743 1.68,14.252 4.941,4.509 10.136,5.653 9.632,10.026 -0.505,4.373 -4.194,10.135 1.421,14.518 5.614,4.382 11.389,0.901 14.916,4.159 3.527,3.258 -0.474,9.286 5.39,12.411 5.862,3.127 13.526,1.436 19.519,-1.978 z"
         id="path155" />
    </g>
  </g>
</svg>
