<?xml version="1.0" encoding="UTF-8" standalone="no"?>
<!-- Created with Inkscape (http://www.inkscape.org/) -->

<svg
   xmlns:dc="http://purl.org/dc/elements/1.1/"
   xmlns:cc="http://creativecommons.org/ns#"
   xmlns:rdf="http://www.w3.org/1999/02/22-rdf-syntax-ns#"
   xmlns:svg="http://www.w3.org/2000/svg"
   xmlns="http://www.w3.org/2000/svg"
   xmlns:sodipodi="http://sodipodi.sourceforge.net/DTD/sodipodi-0.dtd"
   xmlns:inkscape="http://www.inkscape.org/namespaces/inkscape"
   width="25.117439mm"
   height="25.117439mm"
   viewBox="0 0 25.11744 25.117439"
   version="1.1"
   id="svg12640"
   inkscape:version="0.92.3 (2405546, 2018-03-11)"
   sodipodi:docname="mushroom1.svg">
  <defs
     id="defs12634" />
  <sodipodi:namedview
     id="base"
     pagecolor="#ffffff"
     bordercolor="#666666"
     borderopacity="1.0"
     inkscape:pageopacity="0.0"
     inkscape:pageshadow="2"
     inkscape:zoom="3.959798"
     inkscape:cx="16.662644"
     inkscape:cy="42.277722"
     inkscape:document-units="mm"
     inkscape:current-layer="layer1"
     showgrid="false"
     inkscape:window-width="1366"
     inkscape:window-height="703"
     inkscape:window-x="0"
     inkscape:window-y="0"
     inkscape:window-maximized="1" />
  <metadata
     id="metadata12637">
    <rdf:RDF>
      <cc:Work
         rdf:about="">
        <dc:format>image/svg+xml</dc:format>
        <dc:type
           rdf:resource="http://purl.org/dc/dcmitype/StillImage" />
        <dc:title></dc:title>
      </cc:Work>
    </rdf:RDF>
  </metadata>
  <g
     inkscape:label="Layer 1"
     inkscape:groupmode="layer"
     id="layer1"
     transform="translate(-58.559554,-118.13175)">
    <g
       transform="matrix(0.26458333,0,0,0.26458333,-81.115191,12.156926)"
       id="Mushrooms_1">
      <path
         style="fill:#7990b2"
         inkscape:connector-curvature="0"
         d="m 587.362,491.928 c -0.372,0 -0.785,-0.018 -1.262,-0.057 -0.392,-0.032 -0.762,-0.048 -1.118,-0.064 -2.139,-0.096 -4.796,-0.217 -7.468,-3.265 -2.771,-3.158 -4.191,-7.617 -3.964,-10.106 0.203,-2.223 1.396,-7.092 4.46,-9.576 3.066,-2.485 5.933,-2.54 8.457,-2.587 0.376,-0.008 0.798,-0.063 1.249,-0.115 0.757,-0.092 1.616,-0.192 2.555,-0.192 2.109,0 3.856,0.538 5.342,1.643 l 0.841,0.615 c 2.199,1.604 4.273,3.12 5.153,5.994 0.844,2.764 0.959,7.075 -1.497,10.139 -2.18,2.717 -4.894,4.912 -7.445,6.025 -0.371,0.163 -0.688,0.313 -0.973,0.448 -1.194,0.563 -2.323,1.098 -4.33,1.098 z m -26.105,-1.558 c -1.397,0 -2.757,-0.382 -3.929,-1.104 -1.01,-0.625 -4.091,-2.524 -4.283,-6.338 -0.029,-0.522 -0.056,-1.245 0.015,-1.997 0.271,-3.001 2.527,-5.034 5.889,-5.293 0.194,-0.017 0.385,-0.022 0.574,-0.022 1.767,0 3.397,0.663 4.713,1.916 l 0.177,0.183 c 1.651,1.876 2.658,3.818 3.077,5.938 0.466,2.331 -0.389,4.382 -2.347,5.617 -1.129,0.718 -2.475,1.1 -3.886,1.1 z m -9.073,-27.583 c -3.296,0 -5.484,-2.259 -6.206,-3 -1.144,-1.18 -1.753,-3.016 -1.629,-4.906 0.118,-1.805 0.884,-3.35 2.155,-4.355 1.811,-1.436 3.54,-1.628 4.993,-1.628 l 1.028,0.01 c 3.235,0 6.212,1.753 7.235,4.264 1.176,2.892 -0.223,7.142 -4.535,8.976 -1.002,0.423 -2.026,0.639 -3.041,0.639 z m 36.77,-13.827 c -1.475,0 -2.921,-0.552 -4.186,-1.599 -2.649,-2.191 -3.636,-5.84 -2.342,-8.671 0.893,-1.958 2.607,-3.71 4.371,-4.466 0.682,-0.294 1.402,-0.44 2.138,-0.44 2.122,0 4.162,1.261 5.462,3.375 1.981,3.23 1.771,7.148 -0.52,9.526 -1.43,1.49 -3.133,2.275 -4.923,2.275 z m -37.415,-7.744 c -4.391,0 -8.152,-2.728 -10.207,-5.278 -2.66,-3.306 -4.009,-6.434 -2.515,-11.811 1.64,-5.902 7.002,-9.866 13.343,-9.866 0.196,0 0.395,0.003 0.595,0.013 0.773,0.028 1.479,0.042 2.122,0.054 3.215,0.063 5.754,0.11 7.68,2.313 1.831,2.089 2.497,5.063 3.085,7.688 0.604,2.712 -0.499,4.962 -1.388,6.771 -0.24,0.486 -0.486,0.985 -0.7,1.504 -1.129,2.728 -4.86,7.428 -10.079,8.431 -0.633,0.121 -1.286,0.181 -1.936,0.181 z m 57.576,-4.14 c -3.912,0 -6.684,-2.039 -7.229,-5.319 -0.291,-1.738 0.187,-3.445 1.335,-4.804 1.261,-1.487 3.185,-2.377 5.149,-2.377 2.787,0 6.341,1.774 7.432,5.063 0.496,1.495 0.228,3.072 -0.761,4.442 -1.291,1.79 -3.674,2.995 -5.926,2.995 z m -13.68,-15.332 c -1.287,0 -2.64,-0.307 -3.709,-0.844 -3.523,-1.76 -6.396,-4.958 -7.493,-8.351 -0.68,-2.103 -0.457,-4.773 0.553,-6.647 0.73,-1.355 1.828,-2.269 3.17,-2.639 0.53,-0.146 1.131,-0.219 1.79,-0.219 2.304,0 6.695,1.054 8.676,3.878 0.233,0.331 0.468,0.653 0.701,0.971 1.229,1.682 2.623,3.587 3.065,6.181 0.482,2.795 -0.754,5.286 -3.389,6.831 -0.939,0.548 -2.102,0.839 -3.364,0.839 z"
         id="path136" />
      <path
         inkscape:connector-curvature="0"
         d="m 553.061,446.838 c -3.3,-0.389 -5.514,0.479 -7.153,1.091 -1.642,0.61 -2.491,2.091 -2.857,3.037 -0.951,2.458 -1.135,5.036 -0.381,7.564 0.778,2.605 3.498,5.01 5.922,5.818 3.276,1.097 7.495,0.186 10.267,-1.446 2.771,-1.631 3.51,-4.025 3.516,-6.162 0.005,-2.14 -0.248,-4.421 -1.863,-6.238 -1.616,-1.814 -4.152,-3.277 -7.451,-3.664 z m 1.046,12.674 c -2.934,1.245 -5.005,-0.61 -6.076,-1.717 -1.074,-1.105 -1.242,-3.849 0.248,-5.029 1.488,-1.179 2.729,-0.998 4.246,-0.998 1.991,0 4,1.046 4.586,2.483 0.586,1.437 -0.073,4.015 -3.004,5.261 z"
         id="path138" />
      <path
         inkscape:connector-curvature="0"
         d="m 568.697,421.514 c -0.08,-0.469 -0.257,-0.922 -0.396,-1.38 -0.558,-1.839 -2.682,-5.493 -4.668,-7.317 -1.985,-1.825 -6.473,-2.102 -9.342,-2.106 -0.968,0.068 -2.403,0.136 -3.83,0.288 -1.932,0.208 -3.713,0.896 -5.38,1.878 -0.409,0.243 -0.804,0.516 -1.197,0.785 -1.588,1.086 -2.956,2.438 -4.404,3.688 -0.712,0.615 -1.294,1.408 -1.83,2.192 -1.091,1.587 -1.901,3.335 -2.56,5.132 -0.496,1.351 -0.688,2.797 -0.598,4.238 0.058,0.946 0.256,1.896 0.487,2.821 0.597,2.354 1.645,4.484 3.313,6.277 0.979,1.053 1.962,2.103 2.962,3.132 0.598,0.615 0.629,0.77 4.074,2.348 3.444,1.58 7.426,1.361 9.528,0.771 2.104,-0.59 3.893,-1.172 4.509,-1.634 1.153,-0.857 2.317,-1.695 3.38,-2.667 1.064,-0.977 1.951,-2.116 2.673,-3.356 0.723,-1.241 1.396,-2.52 1.96,-3.839 1.542,-3.61 1.974,-7.375 1.319,-11.251 z m -7.787,9.997 c -0.96,2.321 -4.142,5.978 -7.976,6.714 -3.677,0.706 -7.325,-1.537 -9.374,-4.082 -2.05,-2.545 -3.229,-4.779 -1.985,-9.25 1.241,-4.469 5.521,-7.979 11.067,-7.764 4.192,0.163 6.411,-0.148 7.764,1.395 1.35,1.542 1.93,4.136 2.442,6.433 0.514,2.296 -0.979,4.231 -1.938,6.554 z"
         id="path140" />
      <path
         inkscape:connector-curvature="0"
         d="m 568.765,487.778 c 0.753,-2.985 0.475,-5.288 -0.787,-8.2 -1.261,-2.912 -1.471,-2.81 -3.371,-4.525 -1.901,-1.716 -4.772,-2.01 -7.29,-1.563 -2.52,0.445 -5.572,2.545 -6.188,5.221 -0.614,2.676 -0.516,5.182 0.204,7.032 0.916,2.354 2.454,4.059 4.721,5.139 0.431,0.204 0.824,0.487 1.243,0.72 0.419,0.233 0.87,0.411 1.263,0.685 1.441,0.999 5.146,0.905 6.937,-0.113 0.534,-0.31 2.516,-1.41 3.268,-4.396 z m -5.151,-0.926 c -1.323,0.842 -3.262,0.921 -4.782,-0.021 -1.581,-0.975 -2.836,-2.199 -2.93,-4.046 -0.03,-0.536 -0.045,-1.069 0.005,-1.587 0.15,-1.673 1.336,-2.56 3.26,-2.708 1.143,-0.087 2.175,0.235 3.097,1.112 1.257,1.427 2.089,2.937 2.42,4.603 0.248,1.246 -0.184,2.085 -1.07,2.647 z"
         id="path142" />
      <path
         inkscape:connector-curvature="0"
         d="m 605.438,474.018 c -0.364,-1.891 -1.052,-3.655 -2.587,-4.983 -1.093,-0.945 -2.319,-1.696 -3.436,-2.603 -1.114,-0.903 -2.204,-1.839 -3.332,-2.723 -1.163,-0.907 -2.557,-1.342 -3.972,-1.543 -2.868,-0.412 -5.73,-0.264 -8.583,0.266 -2.419,0.45 -3.85,0.985 -5.748,2.511 -1.829,1.47 -2.611,1.505 -4.293,3.729 -1.683,2.223 -3.988,8.23 -3.109,11.597 0.549,2.105 2.447,8.176 6.283,11.692 3.836,3.516 8.707,3.793 12.139,3.339 1.427,-0.188 2.828,-0.495 4.228,-0.828 1.428,-0.34 2.711,-0.99 3.864,-1.84 1.935,-1.418 3.753,-2.97 5.156,-4.962 0.554,-0.79 1.045,-1.598 1.409,-2.492 0.725,-1.777 1.4,-3.567 1.841,-5.439 0.109,-0.466 0.214,-0.938 0.245,-1.414 0.1,-1.442 0.166,-2.896 -0.105,-4.307 z m -7.559,8.545 c -1.66,2.07 -3.963,4.149 -6.357,5.196 -2.161,0.946 -2.572,1.473 -5.188,1.261 -2.614,-0.212 -4.434,0.183 -6.666,-2.363 -2.234,-2.544 -3.421,-6.267 -3.266,-7.959 0.146,-1.622 1.117,-5.755 3.414,-7.618 2.297,-1.862 4.325,-1.903 6.709,-1.948 1.963,-0.036 4.962,-1.031 7.383,0.771 2.421,1.8 4.283,2.918 4.967,5.151 0.681,2.233 0.664,5.44 -0.996,7.509 z"
         id="path144" />
      <path
         inkscape:connector-curvature="0"
         d="m 617.021,429.018 c -0.186,-0.438 -0.355,-0.895 -0.608,-1.296 -0.987,-1.579 -1.887,-2.853 -3.66,-4.112 -1.771,-1.262 -5.374,-1.063 -7.694,0.073 -2.318,1.137 -5.257,4.052 -5.1,7.286 0.156,3.236 2.092,5.478 3.823,6.625 1.731,1.148 5.718,1.892 8.482,0.609 1.309,-0.604 2.426,-1.536 3.461,-2.545 0.852,-0.829 1.691,-2.563 1.789,-3.834 0.074,-0.979 -0.113,-1.92 -0.493,-2.806 z m -7.906,5.196 c -1.901,0 -4.035,-0.69 -4.408,-2.927 -0.371,-2.235 1.708,-3.85 3.664,-3.85 1.85,0 4.097,1.233 4.718,3.104 0.621,1.871 -1.968,3.673 -3.974,3.673 z"
         id="path146" />
      <path
         inkscape:connector-curvature="0"
         d="m 595.996,437.559 c -0.705,-2.276 -2.237,-3.983 -3.623,-4.807 -1.385,-0.823 -4.612,-1.03 -7.22,0.751 -2.608,1.781 -3.534,3.993 -3.91,4.89 -0.766,1.82 -0.864,3.665 -0.428,5.584 0.336,1.47 1.183,2.587 2.239,3.561 1.063,0.976 2.339,1.634 3.645,2.232 1.71,0.785 3.799,0.527 5.431,-0.496 2.215,-1.39 4.162,-3.453 4.487,-5.426 0.323,-1.971 0.083,-4.011 -0.621,-6.289 z m -9.403,7.599 c -1.827,-1.512 -2.226,-3.832 -1.563,-5.28 0.661,-1.45 1.944,-2.616 2.896,-3.021 1.523,-0.654 3.104,0.281 4.034,1.8 1.172,1.909 1.35,4.499 -0.14,6.047 -1.49,1.547 -3.4,1.965 -5.227,0.454 z"
         id="path148" />
      <path
         inkscape:connector-curvature="0"
         d="m 604.025,421.01 c 1.183,-2.021 2.052,-4.02 2.05,-6.338 -0.001,-2.318 -2.954,-7.564 -5.274,-10.054 -2.318,-2.486 -5.006,-3.907 -9.126,-4.065 -4.12,-0.159 -7.134,0.755 -7.971,1.49 -1.86,1.639 -3.064,3.643 -3.372,6.153 -0.236,1.95 0.018,3.851 0.719,5.652 0.696,1.793 1.699,3.447 2.925,4.942 0.918,1.119 1.995,2.051 3.199,2.871 2.608,1.772 6.328,3.493 8.518,3.517 2.186,0.025 7.149,-2.147 8.332,-4.168 z m -17.072,-9.339 c -0.618,-1.915 -0.114,-5.132 1.76,-5.646 1.752,-0.481 5.976,0.561 7.366,2.543 1.391,1.981 2.889,3.65 3.29,5.989 0.285,1.657 -0.484,2.981 -2.019,3.881 -1.194,0.7 -3.145,0.509 -4.346,-0.093 -2.718,-1.359 -5.147,-3.879 -6.051,-6.674 z"
         id="path150" />
    </g>
  </g>
</svg>
