<?xml version="1.0" encoding="UTF-8" standalone="no"?>
<!-- Created with Inkscape (http://www.inkscape.org/) -->

<svg
   xmlns:dc="http://purl.org/dc/elements/1.1/"
   xmlns:cc="http://creativecommons.org/ns#"
   xmlns:rdf="http://www.w3.org/1999/02/22-rdf-syntax-ns#"
   xmlns:svg="http://www.w3.org/2000/svg"
   xmlns="http://www.w3.org/2000/svg"
   xmlns:sodipodi="http://sodipodi.sourceforge.net/DTD/sodipodi-0.dtd"
   xmlns:inkscape="http://www.inkscape.org/namespaces/inkscape"
   width="32.609428mm"
   height="31.534101mm"
   viewBox="0 0 32.609428 31.534101"
   version="1.1"
   id="svg10973"
   inkscape:version="0.92.3 (2405546, 2018-03-11)"
   sodipodi:docname="rock.svg">
  <defs
     id="defs10967" />
  <sodipodi:namedview
     id="base"
     pagecolor="#ffffff"
     bordercolor="#666666"
     borderopacity="1.0"
     inkscape:pageopacity="0.0"
     inkscape:pageshadow="2"
     inkscape:zoom="0.35"
     inkscape:cx="-236.94733"
     inkscape:cy="151.02057"
     inkscape:document-units="mm"
     inkscape:current-layer="layer1"
     showgrid="false"
     inkscape:window-width="1366"
     inkscape:window-height="703"
     inkscape:window-x="0"
     inkscape:window-y="0"
     inkscape:window-maximized="1" />
  <metadata
     id="metadata10970">
    <rdf:RDF>
      <cc:Work
         rdf:about="">
        <dc:format>image/svg+xml</dc:format>
        <dc:type
           rdf:resource="http://purl.org/dc/dcmitype/StillImage" />
        <dc:title></dc:title>
      </cc:Work>
    </rdf:RDF>
  </metadata>
  <g
     inkscape:label="Layer 1"
     inkscape:groupmode="layer"
     id="layer1"
     transform="translate(-57.778623,-157.25676)">
    <g
       transform="matrix(0.26458333,0,0,0.26458333,-146.05264,-182.57583)"
       id="Rock">
      <path
         d="m 823.515,1391.701 c -1.717,0 -3.317,-0.36 -4.896,-1.103 -0.43,-0.202 -0.855,-0.406 -1.283,-0.61 -1.479,-0.71 -3.009,-1.444 -4.623,-2.037 -1.117,-0.411 -1.625,-1.016 -1.806,-2.151 -0.413,-2.622 -0.482,-4.609 0.446,-6.405 0.609,-1.177 0.63,-2.518 0.055,-3.678 -1.197,-2.415 -4.414,-2.976 -5.471,-3.16 -3.105,-0.542 -11.298,-3.157 -15.855,-4.756 -3.067,-1.076 -7.207,-3.098 -11.07,-5.406 -1.217,-0.729 -2.541,-2.416 -3.146,-4.012 -2.331,-6.139 -3.068,-11.605 -2.318,-17.207 0.609,-4.574 1.955,-8.852 4.501,-14.306 1.432,-3.065 2.717,-6.238 3.962,-9.308 l 0.951,-2.339 c 1.109,-2.714 2.726,-5.021 4.939,-7.056 3.983,-3.656 7.079,-6.828 9.739,-9.98 2.373,-2.812 5.458,-4.857 9.713,-6.44 5.686,-2.111 10.774,-3.486 15.559,-4.202 0.784,-0.118 2.519,-0.258 6.329,-0.258 2.467,0 4.983,0.057 6.823,0.098 l 1.259,0.027 c 2.416,0.047 5.157,0.566 8.952,1.288 0.777,0.146 1.593,0.303 2.453,0.463 4.945,0.918 5.658,1.219 8.613,2.663 4.848,2.369 9.859,4.816 11.516,10.694 2.529,8.974 0.445,14.799 -0.565,16.888 -2.191,4.518 -3.558,7.657 -4.062,9.334 -0.229,0.758 -0.764,2.535 0.367,4.057 1.15,1.55 3.062,1.555 4.092,1.555 0.005,0 0.009,0 0.013,0 0.51,0 1.131,-0.02 1.877,-0.044 l 0.742,-0.021 c 3.637,0 6.487,2.833 8.241,5.209 2.523,3.426 3.455,7.867 2.693,12.846 -1.07,6.972 -3.891,13.406 -6.449,18.891 -1.563,3.352 -3.533,5.949 -5.135,6.779 -2.25,1.165 -11.229,4.136 -15.303,4.136 v 0 c -2.902,-0.032 -4.26,-0.561 -5.98,-1.229 -0.735,-0.286 -1.498,-0.582 -2.403,-0.853 -0.802,-0.238 -1.476,-0.351 -2.119,-0.351 -2.92,0 -4.313,2.309 -4.771,3.066 -1.451,2.401 -1.977,3.013 -4.737,4.608 -3.162,1.828 -4.974,2.717 -6.919,3.397 -1.725,0.608 -3.381,0.913 -4.924,0.913 z"
         id="path52"
         inkscape:connector-curvature="0"
         style="fill:#656668" />
      <path
         d="m 844.349,1324.298 c 0.148,1.867 2.226,1.748 3.375,1.044 1.148,-0.703 8.062,-6.464 9.132,-8.818 1.071,-2.355 0.524,-5.201 0.211,-6.302 -0.313,-1.101 -1.576,1 -2.242,3.172 -0.668,2.173 -3.119,4.622 -5.574,6.869 -2.457,2.244 -5.051,2.167 -4.902,4.035 z"
         id="path54"
         inkscape:connector-curvature="0" />
      <path
         d="m 807.593,1355.918 c -0.797,0 -1.177,0.589 -0.565,1.215 0.334,0.339 1.096,1.063 1.915,1.35 0.818,0.286 2.818,0.627 5.646,0.084 1.968,-0.381 3.904,-2.115 3.846,-3.223 -0.028,-0.541 0.306,-2.433 -0.563,-2.455 -0.869,-0.02 -2.367,1.59 -4.199,2.193 -2.069,0.683 -4.85,0.84 -6.08,0.836 z"
         id="path56"
         inkscape:connector-curvature="0" />
      <path
         d="m 860.396,1372.813 c 1.205,0.748 2.366,0.572 3.653,-0.448 1.289,-1.023 3.025,-2.188 3.111,-2.997 0.194,-1.881 -1.748,-1.555 -3.377,-1.229 -1.354,0.271 -3.072,-0.226 -4.06,0.8 -0.986,1.021 -0.534,3.125 0.673,3.874 z"
         id="path58"
         inkscape:connector-curvature="0" />
      <path
         d="m 881.878,1337.789 c -3.104,-4.208 -6.875,-6.502 -10.875,-6.375 -3.998,0.127 -4.646,0.246 -4.016,-1.843 0.467,-1.554 1.895,-4.781 3.895,-8.906 2,-4.125 3.078,-10.649 0.746,-18.925 -2.002,-7.103 -7.883,-9.989 -13.022,-12.501 -3.261,-1.595 -4.197,-1.951 -9.353,-2.908 -5.151,-0.957 -8.688,-1.736 -11.875,-1.799 -3.187,-0.063 -11.649,-0.322 -14.896,0.164 -5.459,0.816 -10.891,2.402 -16.137,4.352 -3.996,1.487 -7.83,3.635 -10.908,7.283 -2.94,3.483 -6.178,6.679 -9.487,9.717 -2.457,2.257 -4.341,4.864 -5.656,8.086 -1.58,3.859 -3.104,7.759 -4.856,11.52 -2.24,4.8 -4.007,9.589 -4.746,15.142 -0.896,6.704 0.248,12.731 2.479,18.611 0.822,2.165 2.543,4.371 4.361,5.461 3.434,2.052 7.871,4.346 11.596,5.652 4.023,1.409 12.742,4.252 16.313,4.875 3.571,0.623 3.754,1.905 3.354,2.676 -1.379,2.662 -1.17,5.418 -0.733,8.183 0.36,2.274 1.672,3.672 3.657,4.403 1.933,0.709 3.793,1.668 5.675,2.551 3.967,1.863 8.006,1.7 11.993,0.305 2.179,-0.762 4.175,-1.752 7.41,-3.623 3.236,-1.871 4.082,-2.834 5.763,-5.613 1.049,-1.738 1.977,-1.93 3.602,-1.444 2.857,0.853 4.463,2.146 9.09,2.199 4.627,0.053 14.111,-3.095 16.744,-4.458 2.633,-1.364 4.963,-4.999 6.42,-8.118 2.895,-6.202 5.598,-12.578 6.686,-19.673 0.836,-5.479 -0.142,-10.811 -3.224,-14.994 z m -44.375,44.542 c -1.065,2.334 -10.166,7.209 -12.791,6.959 -2.625,-0.25 -5.611,-0.84 -8.174,-2.09 -2.563,-1.25 -2.607,-2.981 -2.91,-4.433 -0.496,-2.375 2.035,-7.659 4,-8.813 1.611,-0.944 8.917,-4.208 12.5,-4.125 3.584,0.083 5.945,3.875 7.188,6.188 1.245,2.314 0.892,4.775 0.187,6.314 z m -3.192,-24.699 c -2.201,4.218 -5.298,7.539 -9.724,8.822 -0.448,0.131 -11.751,3.952 -16.82,3.344 -0.529,-0.063 -8.17,-1.342 -8.391,-1.489 -2.297,-0.574 -11.745,-4.718 -13.455,-5.991 -1.71,-1.274 -4.668,-2.652 -6.209,-4.235 -1.541,-1.583 -1.463,-7.419 -1.584,-12.5 -0.172,-7.21 2.484,-13.588 3.168,-15.584 0.683,-1.996 3.142,-5.678 3.457,-7.083 0.317,-1.405 2.637,-4.592 3.801,-5.868 2.541,-2.782 2.89,-2.553 5.767,-4.912 4.006,-3.286 7.901,-6.576 10.1,-11.906 0.541,-1.314 1.961,-2.366 3.184,-3.082 7.728,-4.53 15.351,-6.396 23.9,-6.002 3.91,0.184 17.875,0.75 21.438,1.375 3.563,0.625 6.989,2.605 8.813,4.438 1.824,1.833 4.092,5.491 5.01,9.287 1.228,5.069 -0.372,9.673 -1.655,14.41 -1.342,4.963 -4.478,8.586 -6.812,12.799 -0.446,0.809 -1.446,1.321 -2.285,1.735 -9.484,4.688 -16.466,12.404 -21.703,22.442 z m 41.147,8.904 c -1.057,1.893 -1.965,4.811 -4.019,7.106 -2.051,2.298 -6.795,3.776 -12.264,4.625 -5.467,0.85 -9.236,-0.021 -12.674,-1.938 -3.438,-1.917 -5.43,-3.588 -5.637,-3.847 -3.217,-2.161 -5.486,-6.156 -4.486,-10.056 -0.023,-0.026 -0.029,-0.08 -0.002,-0.183 0.375,-1.417 3.125,-6.957 4.125,-8.791 1,-1.834 3,-3.388 4.334,-4.459 1.334,-1.071 2.768,-2.779 3.666,-3.791 0.801,-0.9 2.514,-2.137 2.902,-2.474 0.457,-0.395 2.395,-2.065 3.358,-2.508 3.468,-1.582 6.996,-3.521 10.627,-3.975 4.177,-0.521 8.791,-0.246 11.964,3.675 1.313,1.629 1.95,4.222 2.348,6.501 1.289,7.381 -0.871,14.082 -4.242,20.115 z"
         id="path60"
         inkscape:connector-curvature="0" />
      <path
         d="m 786.626,1338.213 c 0.93,2.141 2.828,1.205 4.402,0.047 1.573,-1.162 1.356,-2.623 0.586,-4.452 -0.222,-0.523 -0.16,-3.384 -2.007,-2.894 -1.846,0.491 -3.905,5.158 -2.981,7.299 z"
         id="path62"
         inkscape:connector-curvature="0" />
      <path
         d="m 893.634,1320.327 c 0.015,2.389 -1.41,4.095 -4.146,5.116 -2,0.746 -3.199,-0.868 -4.313,-2.249 -0.717,-0.891 -1.174,-2.118 -1.557,-3.278 -0.992,-3.009 0.641,-5.267 3.506,-4.9 1.346,0.172 2.715,0.327 4.01,0.743 2.121,0.68 2.054,2.974 2.5,4.568 z"
         id="path64"
         inkscape:connector-curvature="0" />
      <path
         d="m 866.63,1403.59 c -0.274,-0.432 -1.1,-1.205 -1.305,-2.152 -0.404,-1.859 0.09,-3.519 1.965,-4.025 0.984,-0.268 2.022,-0.316 3.043,-0.367 1.631,-0.079 2.342,1.032 1.822,2.756 -0.529,1.756 -3.129,3.831 -5.525,3.788 z"
         id="path66"
         inkscape:connector-curvature="0" />
      <path
         d="m 791.696,1403.525 c -0.267,-0.522 -0.972,-1.338 -1.076,-2.244 -0.226,-1.924 1.102,-3.792 2.371,-3.738 1.729,0.074 2.912,1.489 2.985,3.573 0.054,1.508 -1.225,2.363 -4.28,2.409 z"
         id="path68"
         inkscape:connector-curvature="0" />
      <path
         d="m 783.146,1390.952 c -2.892,-0.048 -3.869,-1.053 -3.771,-3.204 0.088,-1.893 1.217,-2.28 2.621,-2.261 1.455,0.017 2.817,1.573 2.547,3.417 -0.132,0.902 -1.101,1.642 -1.397,2.048 z"
         id="path70"
         inkscape:connector-curvature="0" />
      <path
         d="m 822.704,1325.399 c -0.916,0.034 -2.994,-0.832 -3.617,-1.716 -1.309,-1.866 -2.744,-4.877 -2.91,-6.147 -0.167,-1.271 -0.981,-3.654 0.142,-3.836 1.123,-0.183 1.589,1.781 1.705,2.329 0.479,2.279 3,5.587 4.925,6.874 0.688,0.461 4.644,1.657 4.659,2.442 0.017,0.789 -3.989,0.018 -4.904,0.054 z"
         id="path72"
         inkscape:connector-curvature="0" />
      <path
         d="m 825.268,1306.157 c -0.834,0.139 -1.558,-0.624 -1.634,-1.108 -0.09,-0.595 0.521,-1.589 1.105,-1.927 1.127,-0.662 2.42,-1.203 3.7,-1.369 0.722,-0.095 2.115,0.342 2.337,1.019 0.223,0.678 -0.646,1.394 -1.185,1.678 -1.246,0.658 -3.487,1.57 -4.323,1.707 z"
         id="path74"
         inkscape:connector-curvature="0" />
      <path
         d="m 857.759,1344.709 c 0.681,-0.903 3.238,-1.999 4.119,-2.438 0.881,-0.439 1.375,-0.091 1.742,0.606 0.367,0.698 -0.142,2.304 -1.217,2.62 -1.074,0.317 -2.726,0.604 -3.931,0.588 -1.201,-0.017 -1.393,-0.471 -0.713,-1.376 z"
         id="path76"
         inkscape:connector-curvature="0" />
    </g>
  </g>
</svg>
