<?xml version="1.0" encoding="UTF-8" standalone="no"?>
<!-- Created with Inkscape (http://www.inkscape.org/) -->

<svg
   xmlns:dc="http://purl.org/dc/elements/1.1/"
   xmlns:cc="http://creativecommons.org/ns#"
   xmlns:rdf="http://www.w3.org/1999/02/22-rdf-syntax-ns#"
   xmlns:svg="http://www.w3.org/2000/svg"
   xmlns="http://www.w3.org/2000/svg"
   xmlns:sodipodi="http://sodipodi.sourceforge.net/DTD/sodipodi-0.dtd"
   xmlns:inkscape="http://www.inkscape.org/namespaces/inkscape"
   width="32.384911mm"
   height="30.423227mm"
   viewBox="0 0 32.384911 30.423227"
   version="1.1"
   id="svg13085"
   inkscape:version="0.92.3 (2405546, 2018-03-11)"
   sodipodi:docname="rubble.svg">
  <defs
     id="defs13079" />
  <sodipodi:namedview
     id="base"
     pagecolor="#ffffff"
     bordercolor="#666666"
     borderopacity="1.0"
     inkscape:pageopacity="0.0"
     inkscape:pageshadow="2"
     inkscape:zoom="0.35"
     inkscape:cx="-614.51445"
     inkscape:cy="123.20699"
     inkscape:document-units="mm"
     inkscape:current-layer="layer1"
     showgrid="false"
     inkscape:window-width="1366"
     inkscape:window-height="703"
     inkscape:window-x="0"
     inkscape:window-y="0"
     inkscape:window-maximized="1" />
  <metadata
     id="metadata13082">
    <rdf:RDF>
      <cc:Work
         rdf:about="">
        <dc:format>image/svg+xml</dc:format>
        <dc:type
           rdf:resource="http://purl.org/dc/dcmitype/StillImage" />
        <dc:title></dc:title>
      </cc:Work>
    </rdf:RDF>
  </metadata>
  <g
     inkscape:label="Layer 1"
     inkscape:groupmode="layer"
     id="layer1"
     transform="translate(-157.67659,-151.00862)">
    <g
       transform="matrix(0.26458333,0,0,0.26458333,-80.133799,-189.37956)"
       id="Rubble_-_Cave">
      <path
         d="m 969.994,1398.531 c -0.598,-0.351 -1.762,-1.367 -2.18,-1.732 -1.353,-1.182 -2.334,-2.486 -3.285,-3.748 -1.342,-1.781 -2.729,-3.621 -4.986,-4.926 -0.9,-0.521 -1.777,-1.449 -2.705,-2.432 l -0.477,-0.502 c -1.502,-1.57 -2.988,-2.332 -4.543,-2.332 -1.902,0 -3.523,1.102 -4.818,3.278 -1.598,2.685 -3.816,5.015 -7.195,7.552 -0.244,0.184 -0.412,0.288 -0.521,0.35 -0.129,-0.076 -0.351,-0.223 -0.693,-0.502 -3.608,-2.934 -6.602,-6.084 -9.149,-9.637 -0.783,-1.095 -1.914,-1.549 -2.664,-1.853 -0.174,-0.069 -0.438,-0.176 -0.521,-0.229 -0.141,-0.097 -0.303,-0.199 -0.467,-0.308 -0.139,-0.088 -0.332,-0.213 -0.488,-0.322 -1.397,-5.934 -2.276,-11.288 0.234,-16.44 l 0.088,-0.181 c 1.322,-2.717 1.492,-3.065 3.926,-3.805 2.56,-0.775 4.451,-1.748 6.123,-2.604 0.898,-0.464 1.748,-0.898 2.568,-1.228 1.975,-0.789 3.057,-1 5.945,-1.563 l 1.2,-0.234 c 0.979,-0.193 1.679,-0.287 2.138,-0.287 0.385,0 0.385,0 1.213,0.582 l 0.51,0.354 c 2.182,1.491 4.813,3.813 5.309,4.674 0.539,1.957 1.418,3.229 2.437,4.697 l 0.309,0.444 c 0.861,1.254 1.263,2.371 1.63,3.767 0.795,3.026 3.096,3.262 3.782,3.264 v 0 c 1.463,0 2.771,-0.793 4.285,-1.982 3.178,-2.492 6.188,-5.1 9.51,-8.002 0.113,-0.098 0.271,-0.207 0.439,-0.33 0.824,-0.602 2.069,-1.512 2.791,-2.875 0.521,-0.981 0.553,-2.119 0.084,-3.116 -0.765,-1.63 -2.525,-2.57 -6.287,-3.361 -1.633,-0.344 -3.81,-1.15 -4.803,-1.623 0.02,-0.32 0.162,-0.897 0.809,-1.656 2.566,-3.008 5.203,-9.198 5.642,-13.248 0.278,-2.569 0.155,-4.323 0.047,-5.871 -0.049,-0.704 -0.092,-1.313 -0.092,-1.938 0,-1.152 0.073,-2.021 0.141,-2.789 0.045,-0.543 0.086,-1.021 0.092,-1.494 0.125,-1.066 0.824,-6.961 1.217,-9.297 0.107,-0.639 1.041,-1.473 2.029,-2.357 0.947,-0.848 2.021,-1.809 2.953,-3.063 1.791,-2.412 3.445,-4.41 5.58,-4.41 0.102,0 0.207,0.01 0.313,0.014 5.369,0.435 11.109,0.972 16.695,1.951 2.549,0.447 3.84,1.511 4.021,1.847 0.267,0.772 0.138,1.877 -0.674,5.579 -0.512,2.33 -1.813,8.396 -2.865,14.339 -0.657,3.707 -0.997,6.565 -0.522,8.473 0.289,1.152 1.365,2.496 3.455,2.496 0.09,0 0.184,0 0.281,-0.01 1.159,1.778 3.467,5.571 4.563,7.475 0.674,1.168 1.601,3.039 2.498,4.85 1.109,2.24 2.258,4.558 3.18,6.08 0.261,0.43 0.484,0.801 -0.334,2.219 -0.248,0.429 -0.991,1.009 -1.536,1.435 l -2.798,2.178 c -5.911,4.609 -12.026,9.377 -18.098,13.975 -3.965,3.007 -7.854,5.914 -11.854,8.437 -3.427,2.16 -6.738,5.522 -9.4,8.225 -1.25,1.271 -2.328,2.363 -3.111,3.021 -0.498,0.405 -0.797,0.62 -0.971,0.729 z"
         id="path27"
         inkscape:connector-curvature="0"
         style="fill:#4f5560" />
      <path
         d="m 911.105,1341.473 c -0.779,0 -1.281,-0.032 -1.589,-0.065 -0.032,-0.619 0,-1.672 0.031,-2.697 0.037,-1.229 0.084,-2.762 0.084,-4.68 0,-1.384 0.06,-2.683 0.115,-3.938 0.242,-5.418 0.473,-10.537 -4.91,-15.613 -1.83,-1.727 -2.473,-4.039 -2.875,-6.981 -0.547,-4.002 -0.258,-8.398 0.863,-13.066 0.936,-3.893 2.524,-4.69 4.627,-4.69 h 0.125 c 0.625,0.01 1.248,0.014 1.873,0.014 2.758,0 5.541,-0.094 8.229,-0.184 2.521,-0.087 5.123,-0.175 7.662,-0.183 h 1.111 c 3.287,0 6.639,0.045 9.883,0.09 3.262,0.045 6.633,0.09 9.961,0.09 h 1.592 c 1.469,0 2.203,0.334 2.945,1.322 1.854,2.469 3.828,4.883 5.867,7.176 1.088,1.23 2.592,1.931 3.588,2.392 0.734,0.342 1.467,0.569 2.113,0.772 0.477,0.15 0.926,0.291 1.301,0.453 0.543,0.234 0.686,0.408 0.697,0.424 -0.004,0 0.026,0.133 -0.029,0.449 -0.418,2.289 -0.75,5.186 -0.912,7.942 -0.076,1.291 -0.367,3.136 -0.648,4.916 -0.274,1.757 -0.537,3.412 -0.643,4.773 l -0.039,0.512 c -0.156,2.039 -0.572,7.453 -0.814,8.504 -0.116,0.509 -0.293,1.371 -0.489,2.351 -0.318,1.563 -0.713,3.506 -0.982,4.524 -0.106,0.402 -0.203,0.812 -0.295,1.213 -0.067,0.293 -0.151,0.656 -0.24,0.984 -0.416,-0.07 -0.885,-0.158 -1.301,-0.238 -1.617,-0.309 -3.629,-0.69 -5.5,-0.694 h -0.541 c -7.498,0 -10.057,0.487 -11.377,1.561 -1.113,0.236 -4.129,0.406 -6.385,0.535 -2.767,0.154 -5.902,0.332 -8.414,0.685 -4.689,0.651 -11.012,1.353 -14.684,1.353 z"
         id="path29"
         inkscape:connector-curvature="0"
         style="fill:#4f5560" />
      <path
         d="m 911.283,1335.436 c -0.527,4.232 1.881,3.759 5.531,3.281 3.649,-0.477 8.844,-1.166 12.271,-1.373 4.211,-0.256 9.324,-0.762 14.322,-0.877 4.547,-0.104 8.985,0.183 12.821,0.053 1.855,-0.061 2.729,-0.752 3.023,-2.551 0.791,-4.846 0.646,-10.141 1.332,-15 0.467,-3.295 0.172,-6.518 0.75,-9.668 0.58,-3.149 0.666,-6.271 -2.021,-7.209 -2.687,-0.938 -6.575,-4.262 -9.186,-7.666 -1.473,-1.92 -3.25,-2.721 -5.555,-2.561 -2.896,0.203 -6.924,-1.33 -9.822,-1.273 -5.145,0.101 -20.654,0.398 -23.635,0.398 -2.979,0 -5.363,0.811 -5.781,2.395 -1.102,4.176 -0.541,7.938 -0.229,14.438 0.312,6.5 2.457,4.832 4.707,8.957 2.25,4.125 1.857,15.562 1.472,18.656 z m 104.531,22.798 c 0.188,-0.656 -1.631,-2.685 -2.479,-4.519 -0.848,-1.832 -4.01,-9.914 -5.416,-10.375 -1.406,-0.461 -2.168,-2.229 -3.479,-1.78 -1.313,0.448 -12.498,10.422 -15.675,13.323 -3.174,2.902 -8.778,8.179 -14.264,12.416 -5.481,4.236 -17.727,13.689 -17.438,15.261 0.291,1.569 8.623,7.987 9.959,9.405 1.337,1.418 2.945,2.603 4.479,1.375 1.933,-1.545 3.188,-3.375 7.188,-6.75 4,-3.375 9.819,-6.496 15.578,-10.655 5.575,-4.025 12.395,-9.316 13.983,-10.906 1.588,-1.59 7.377,-6.138 7.564,-6.795 z m -89.062,12.11 c 0.201,2.359 -0.176,5.42 0.209,7.75 0.178,1.086 2.645,2.002 3.393,2.813 1.677,1.813 3.523,3.479 5.388,5.104 2.715,2.371 3.617,4.195 5.846,1.498 4.508,-5.459 10.582,-13.75 13.457,-15.959 2.875,-2.207 1.125,-5.651 0.117,-7.475 -1.92,-3.475 -4.912,-5.334 -7.867,-7.482 -0.68,-0.494 -2.869,0.246 -3.771,0.635 -3.436,1.48 -6.893,2.976 -10.116,4.851 -3.215,1.866 -6.758,4.263 -6.656,8.265 z m 49.469,-39.893 c 0.281,3.875 -0.135,6.973 -0.875,9.047 -1.293,3.625 -2.676,6.418 -4.334,9.896 -0.664,1.391 -0.367,2.006 0.99,2.321 1.773,0.416 4.863,0.813 6.576,1.4 2.176,0.748 3.984,0.396 5.693,-1.068 4.409,-3.776 8.846,-7.521 13.266,-11.287 1.883,-1.604 3.953,-4.819 4.152,-7.356 0.448,-5.674 3.563,-18.387 4.063,-20.144 0.5,-1.754 0,-2.856 -1.938,-3.92 -1.938,-1.063 -8.271,-1.703 -12.438,-2 -4.167,-0.297 -7.822,2.074 -9.688,4.375 -1.475,1.822 -3.42,1.699 -4.063,4.345 -0.641,2.647 -1.686,10.516 -1.404,14.391 z m -18.916,29.145 c 0.447,1.705 1.248,2.748 2.365,4.373 1.117,1.625 1.625,3.082 2.041,4.666 0.416,1.584 1.326,1.459 3.504,-0.252 3.219,-2.524 6.313,-5.215 9.396,-7.906 0.614,-0.538 2.018,-1.321 2.58,-2.385 0.562,-1.063 -1.978,-1.834 -4.25,-2.313 -2.271,-0.478 -5.595,-1.75 -6.375,-2.375 -0.781,-0.625 -1.396,-3.045 0.78,-5.594 2.177,-2.55 4.595,-8.22 4.97,-11.688 0.375,-3.468 -0.063,-5.313 -0.063,-7.5 0,-2.187 0.246,-3.496 0.232,-4.451 0,0 0.811,-6.944 1.258,-9.604 0.447,-2.662 3.545,-4.015 5.51,-6.662 1.965,-2.648 4.455,-5.871 8.438,-5.551 5.674,0.459 11.364,1.002 16.963,1.985 3.219,0.564 5.678,2.113 6.225,3.689 0.549,1.575 0.33,3.118 -0.563,7.188 -0.892,4.068 -1.998,9.455 -2.843,14.226 -0.358,2.026 -0.975,5.629 -0.563,7.274 0.174,0.697 1.969,-0.063 2.469,0.375 0.5,0.438 4.313,6.73 5.531,8.844 1.549,2.688 4.045,8.229 5.647,10.88 1.148,1.897 0.615,3.553 -0.305,5.147 -0.516,0.896 -1.422,1.611 -2.262,2.266 -6.955,5.418 -13.896,10.854 -20.924,16.179 -3.931,2.979 -7.894,5.946 -12.058,8.573 -4.731,2.984 -9.553,8.796 -12.196,11.017 -2.645,2.221 -3.386,2.039 -6.894,-1.029 -3.508,-3.066 -4.637,-6.51 -7.817,-8.35 -1.453,-0.84 -2.638,-2.197 -3.82,-3.437 -1.902,-1.985 -3.363,-1.996 -4.808,0.431 -2.03,3.413 -4.815,6.034 -7.938,8.381 -1.877,1.412 -2.926,1.271 -4.762,-0.222 -3.675,-2.983 -6.912,-6.342 -9.675,-10.192 -0.493,-0.688 -1.678,-0.84 -2.457,-1.369 -0.754,-0.514 -1.844,-1.086 -2.018,-1.816 -1.51,-6.309 -2.728,-12.654 0.32,-18.904 1.481,-3.043 2.057,-4.354 5.766,-5.479 3.707,-1.123 5.951,-2.748 8.457,-3.75 2.508,-1.002 3.817,-1.193 7.66,-1.951 3.842,-0.758 4.153,-0.191 6.041,1.098 1.612,1.098 5.988,4.483 6.438,6.188 z m 7.736,-39.19 c -0.203,2.646 -0.609,8.096 -0.918,9.438 -0.309,1.342 -1.035,5.229 -1.496,6.967 -0.459,1.74 -0.693,3.63 -1.602,4.316 -0.826,0.627 -5.146,-0.902 -8.523,-0.91 -3.377,-0.01 -9.422,0.029 -10.234,1.063 -0.812,1.034 -10.266,0.875 -16.078,1.688 -5.812,0.813 -16.215,1.979 -18.188,1.031 -1.973,-0.945 -1.25,-2.531 -1.25,-9.969 0,-7.438 1.6,-12.277 -3.891,-17.455 -2.533,-2.392 -3.316,-5.504 -3.752,-8.688 -0.648,-4.741 -0.193,-9.508 0.916,-14.129 0.938,-3.899 2.928,-6.977 7.602,-6.897 5.898,0.1 11.805,-0.332 17.707,-0.353 7.514,-0.022 15.029,0.211 22.543,0.176 2.264,-0.012 3.902,0.664 5.262,2.472 1.808,2.405 3.717,4.744 5.717,6.994 0.67,0.756 1.699,1.25 2.646,1.688 1.068,0.496 2.258,0.728 3.344,1.195 1.74,0.748 2.744,1.926 2.359,4.033 -0.383,2.104 -0.711,4.889 -0.869,7.598 -0.16,2.707 -1.09,7.096 -1.295,9.742 z"
         id="path31"
         inkscape:connector-curvature="0" />
      <path
         d="m 917.457,1294.963 c -0.408,0.693 -1.002,2.588 -1.643,3.463 -1.771,2.42 -3.586,4.806 -5.423,7.17 -0.295,0.381 -0.823,1.104 -1.211,0.894 -0.387,-0.209 -0.213,-1.011 -0.045,-1.392 1.271,-2.856 2.515,-5.739 3.992,-8.489 0.451,-0.834 1.678,-1.421 2.474,-1.871 0.795,-0.452 2.264,-0.47 1.856,0.225 z"
         id="path33"
         inkscape:connector-curvature="0" />
      <path
         d="m 957.789,1317.656 c 0.439,1.896 -1.898,0.91 -2.744,-0.98 -1.197,-2.682 -3.352,-4.924 -4.721,-7.549 -0.803,-1.541 -0.955,-3.453 -1.232,-5.225 -0.072,-0.461 0.375,-1.613 0.762,-1.539 0.386,0.074 0.826,0.67 1.062,1.104 1.119,2.072 2.098,4.226 3.279,6.261 0.747,1.282 1.635,2.543 2.688,3.582 1.599,1.577 0.465,2.45 0.906,4.346 z"
         id="path35"
         inkscape:connector-curvature="0" />
      <path
         d="m 921.225,1330.338 c -0.639,-0.033 -1.362,-0.016 -1.879,-0.311 -0.539,-0.31 -1.031,-0.438 -1.295,-1.478 -0.264,-1.04 0.83,-1.145 1.76,-1.002 0.929,0.142 11.144,1.787 16.697,2.777 0.549,0.096 1.832,0.526 1.51,1.021 -0.321,0.492 -1.287,0.601 -1.893,0.535 -1.912,-0.199 -4.004,-0.717 -5.709,-0.883 -1.705,-0.161 -6.127,-0.489 -9.191,-0.659 z"
         id="path37"
         inkscape:connector-curvature="0" />
      <path
         d="m 1010.412,1357.857 c 0.166,0.584 -1.061,2.207 -1.359,2.393 -0.803,0.498 -1.654,1.037 -2.559,1.236 -1.928,0.426 -2.949,1.612 -3.531,2.414 -0.582,0.801 -1.076,1.795 -1.516,2.024 -2.652,1.385 -6.31,2.701 -7.285,3.4 -0.979,0.698 -1.719,1.313 -2,1.03 -0.281,-0.281 0.41,-1.133 0.59,-1.28 1.545,-1.271 2.998,-2.734 4.73,-3.674 2.176,-1.181 4.377,-2.084 5.67,-4.449 0.758,-1.387 2.11,-1.596 3.477,-1.801 0.785,-0.117 1.775,-0.175 2.256,-0.572 0.478,-0.396 1.359,-1.307 1.527,-0.721 z"
         id="path39"
         inkscape:connector-curvature="0" />
      <path
         d="m 968,1378.211 c -0.475,0.18 -0.846,0.342 -1.137,0 -0.289,-0.34 -0.045,-1.135 0.1,-1.418 0.463,-0.916 1.285,-1.842 2.096,-2.412 1.779,-1.25 3.047,-0.887 4.613,-2.188 1.568,-1.301 1.752,-0.931 1.881,-0.65 0.131,0.279 -1.725,1.854 -1.893,1.994 -1.961,1.647 -5.187,4.496 -5.66,4.674 z"
         id="path41"
         inkscape:connector-curvature="0" />
      <path
         d="m 981.768,1316.82 c 0.604,-0.906 1.666,-2.248 2.476,-2.65 1.092,-0.545 3.151,-1.264 3.16,-0.422 0.008,0.844 -1.197,2.258 -1.938,3.238 -1.584,2.1 -4.463,5.569 -4.932,6.104 -0.469,0.531 -1.226,1.119 -1.875,0.84 -0.652,-0.28 0.229,-1.66 0.754,-2.522 0.523,-0.867 1.751,-3.678 2.355,-4.588 z"
         id="path43"
         inkscape:connector-curvature="0" />
      <path
         d="m 919.475,1352.102 c -1.5,0.56 -2.004,1.181 -2.715,1.271 -0.713,0.09 -2.055,1.031 -2.258,2.328 -0.201,1.295 0.057,2.188 1.078,3.205 1.082,1.076 2.449,1.385 3.643,1.037 1.48,-0.433 2.877,-0.953 2.937,-3.209 0.057,-2.265 -1.185,-5.191 -2.685,-4.632 z"
         id="path45"
         inkscape:connector-curvature="0" />
      <path
         d="m 979.137,1302.74 c 1.172,-0.441 2.379,-1.592 2.916,-2.705 0.801,-1.664 -0.459,-3.65 -2.106,-4.113 -1.357,-0.383 -2.652,0.094 -3.177,1.201 -0.524,1.105 -0.627,1.289 -0.77,1.646 -0.23,0.569 -0.527,1.967 -0.426,2.565 0.113,0.66 0.496,1.262 1.037,1.652 0.793,0.571 1.643,0.086 2.526,-0.246 z"
         id="path47"
         inkscape:connector-curvature="0" />
      <path
         d="m 957.842,1397.943 c 0.033,-0.968 -0.805,-2.033 -1.889,-2.228 -1.033,-0.186 -2.178,-0.123 -2.93,0.637 -0.313,0.314 -0.613,0.689 -0.693,1.119 -0.012,0.052 -0.012,0.103 -0.021,0.152 -0.428,1 0.134,2.246 1.144,2.776 0.643,0.339 1.33,0.39 1.955,0.224 1.535,-0.066 2.391,-1.418 2.434,-2.68 z"
         id="path49"
         inkscape:connector-curvature="0" />
    </g>
  </g>
</svg>
