<?xml version="1.0" encoding="UTF-8" standalone="no"?>
<!-- Created with Inkscape (http://www.inkscape.org/) -->

<svg
   xmlns:dc="http://purl.org/dc/elements/1.1/"
   xmlns:cc="http://creativecommons.org/ns#"
   xmlns:rdf="http://www.w3.org/1999/02/22-rdf-syntax-ns#"
   xmlns:svg="http://www.w3.org/2000/svg"
   xmlns="http://www.w3.org/2000/svg"
   xmlns:sodipodi="http://sodipodi.sourceforge.net/DTD/sodipodi-0.dtd"
   xmlns:inkscape="http://www.inkscape.org/namespaces/inkscape"
   width="33.664688mm"
   height="33.664688mm"
   viewBox="0 0 33.664687 33.664688"
   version="1.1"
   id="svg16313"
   inkscape:version="0.92.3 (2405546, 2018-03-11)"
   sodipodi:docname="tombstone1_trans.svg">
  <defs
     id="defs16307" />
  <sodipodi:namedview
     id="base"
     pagecolor="#ffffff"
     bordercolor="#666666"
     borderopacity="1.0"
     inkscape:pageopacity="0.0"
     inkscape:pageshadow="2"
     inkscape:zoom="2.8"
     inkscape:cx="11.479277"
     inkscape:cy="64.232959"
     inkscape:document-units="mm"
     inkscape:current-layer="Grave_1"
     showgrid="false"
     inkscape:window-width="1366"
     inkscape:window-height="703"
     inkscape:window-x="0"
     inkscape:window-y="0"
     inkscape:window-maximized="1" />
  <metadata
     id="metadata16310">
    <rdf:RDF>
      <cc:Work
         rdf:about="">
        <dc:format>image/svg+xml</dc:format>
        <dc:type
           rdf:resource="http://purl.org/dc/dcmitype/StillImage" />
        <dc:title></dc:title>
      </cc:Work>
    </rdf:RDF>
  </metadata>
  <g
     inkscape:label="Layer 1"
     inkscape:groupmode="layer"
     id="layer1"
     transform="translate(-103.47863,-100.25099)">
    <g
       transform="matrix(0.26458333,0,0,0.26458333,1.8523844,-1.4498148)"
       id="Grave_1">
      <path
         style="fill:none"
         inkscape:connector-curvature="0"
         d="m 425.965,506.851 c -2.504,0 -3.936,-0.116 -4.721,-0.222 -1.369,-2.275 -2.674,-9.729 -3.324,-13.435 -0.164,-0.943 -0.322,-1.854 -0.479,-2.707 -0.771,-4.199 -2.136,-8.494 -3.457,-12.648 -1.123,-3.525 -2.281,-7.174 -3.099,-10.8 -1.74,-7.735 -4.709,-18.551 -7.391,-26.913 -1.051,-3.288 -3.851,-12.021 -1.699,-14.054 0.832,-0.649 4.422,-0.839 6.353,-0.938 4.481,-0.235 10.622,-0.559 11.928,-6.026 0.834,-3.49 -0.146,-8.138 -1.012,-12.234 -0.183,-0.873 -0.414,-1.968 -0.546,-2.74 1.154,-1.036 4.103,-2.857 7.724,-3.987 4.063,-1.27 6.453,-2.557 9.475,-4.188 1.438,-0.775 3.107,-1.676 5.312,-2.769 6.729,-3.338 10.635,-4.037 12.725,-4.037 1.504,0 5.162,0.933 10.508,3.562 l 2.138,1.057 c 3.704,1.833 7.903,3.908 11.108,5.256 2.479,1.043 6.328,3.73 8.629,5.338 0.48,0.335 0.91,0.636 1.275,0.885 -1.957,2.665 -7.15,9.741 -1.742,14.581 2.518,2.254 5.533,2.708 7.738,3.04 0.479,0.072 1.053,0.158 1.543,0.262 -0.226,1.744 -1.121,4.735 -1.648,6.5 -0.506,1.686 -0.981,3.274 -1.313,4.745 -1.246,5.538 -3.189,15.48 -4.058,20.235 -0.395,2.158 -1.123,4.161 -1.963,6.479 -0.875,2.407 -1.865,5.138 -2.539,8.35 -0.483,2.302 -1.01,4.743 -1.531,7.17 -0.797,3.705 -1.588,7.38 -2.215,10.489 l -0.387,1.962 c -1.813,9.263 -3.25,15.136 -4.281,17.503 -0.768,-0.034 -1.83,-0.197 -2.946,-0.37 -1.906,-0.296 -4.279,-0.663 -6.964,-0.69 -2.354,-0.023 -4.403,-0.252 -6.389,-0.471 -1.977,-0.218 -3.842,-0.425 -5.846,-0.425 -0.871,0 -1.691,0.039 -2.508,0.119 -2.045,0.2 -3.716,0.491 -5.332,0.773 -2.086,0.364 -4.06,0.707 -6.892,0.868 l -0.768,0.044 c -3.225,0.182 -7.641,0.436 -11.406,0.436 z"
         id="path52" />
      <path
         style="fill:none"
         inkscape:connector-curvature="0"
         d="m 443.908,492.962 c -2.601,0 -4.045,-0.278 -4.984,-0.962 -1.707,-1.241 -2.393,-3.857 -3.115,-7.148 l -0.034,-0.167 c -0.509,-2.307 -1.104,-9.618 -1.029,-12.616 0.024,-2.881 -1.695,-7.53 -2.408,-9.716 l -0.475,-1.421 c -0.683,-2.016 -1.174,-3.473 -1.398,-6.083 -0.084,-0.965 -0.324,-1.868 -0.604,-2.915 -0.437,-1.623 -0.929,-3.463 -0.863,-5.848 0.111,-4.063 -1.332,-7.146 -2.683,-10.548 -0.202,-0.513 -0.459,-1.127 -0.745,-1.813 -2.724,-6.517 -4.673,-11.73 -2.978,-14.642 0.613,-1.049 -0.869,-4.687 -1.649,-7.509 -0.072,-0.264 -0.189,-0.539 -0.306,-0.828 -0.565,-1.416 -2.069,-5.177 2.006,-7.415 2.861,-1.573 11.816,-5.51 14.605,-6.435 2.09,-1.122 6.822,-3.165 10.254,-4.628 l 0.623,-0.267 c 0.672,-0.309 1.303,-0.461 1.914,-0.461 1.348,0 5.992,-0.188 7.041,-0.229 l 0.178,-0.005 c 1.75,0 4.185,1.03 7.437,2.485 0.627,0.279 1.2,0.538 1.676,0.735 0.975,0.404 2.211,1.02 3.406,1.612 1.17,0.582 2.379,1.183 3.229,1.531 2.916,1.188 6.438,2.95 8.191,4.1 l 0.283,0.186 c 1.448,0.936 4.84,3.128 3.051,7.184 -1.09,2.478 -2.588,5.868 -6.664,6.339 -0.193,0.022 -0.387,0.034 -0.584,0.034 -2.146,-0.002 -0.459,0.853 0.725,4.177 1.504,4.219 -3.629,14.938 -5.574,17.018 -1.418,1.52 -2.553,5.24 -2.387,6.703 0.051,0.43 0.027,0.729 -0.438,4.358 -0.205,1.607 -0.433,3.363 -0.541,4.454 -0.25,2.508 -5.152,7.116 -4.957,8.686 0.258,2.071 -0.785,13.038 -1.218,14.719 l -0.036,0.15 -0.058,0.145 c -0.442,1.107 -0.873,3.713 -1.248,6.012 -0.694,4.224 -1.17,6.879 -2.178,8.255 -1.74,2.368 -5.064,2.421 -7.994,2.468 -0.625,0.01 -1.236,0.018 -1.799,0.054 l -0.594,0.037 c -1.504,0.094 -3.371,0.214 -5.078,0.214 z"
         id="path54" />
      <g
         id="g58">
        <path
           inkscape:connector-curvature="0"
           d="m 465.055,510.27 c -5.848,-0.062 -9.803,-1.232 -14.229,-0.799 -4.426,0.435 -7.039,1.353 -12.416,1.657 -5.379,0.306 -15.313,0.93 -19.037,-0.002 -3.725,-0.931 -5.279,-12.451 -6.623,-19.779 -1.344,-7.328 -4.676,-15.075 -6.516,-23.262 -1.843,-8.185 -4.832,-18.865 -7.279,-26.504 -2.447,-7.639 -4.426,-15.201 -0.437,-18.973 3.99,-3.772 15.982,-0.688 16.918,-4.609 0.937,-3.921 -1.938,-12.513 -1.788,-14.847 0.146,-2.335 5.75,-5.868 11.17,-7.561 5.418,-1.69 7.237,-3.281 14.088,-6.677 6.85,-3.396 11.533,-4.533 14.844,-4.533 3.312,0 8.492,2.026 12.611,4.052 4.119,2.026 9.305,4.646 12.989,6.195 3.687,1.55 9.05,5.551 11.115,6.93 2.068,1.379 2.344,3.961 1.709,5.165 -0.746,1.427 -6.074,7.095 -3.33,9.553 2.746,2.457 7.14,1.306 9.908,3.33 2.771,2.022 -0.951,10.637 -2.115,15.813 -1.164,5.176 -3.094,14.979 -4.02,20.046 -0.924,5.066 -3.307,9.146 -4.527,14.952 -1.219,5.806 -2.701,12.488 -3.735,17.623 -1.037,5.134 -3.923,21.245 -6.519,22.734 -2.592,1.491 -6.934,-0.443 -12.781,-0.504 z m 6.517,-8.202 c 2.067,-2.064 3.287,-13.479 5.16,-18.272 1.875,-4.795 3.62,-16.779 4.524,-21.037 0.904,-4.259 2.104,-9.979 3.563,-14.932 1.461,-4.951 2.68,-11.196 1.553,-12.902 -1.127,-1.705 -6.076,-0.275 -7.15,1.094 -1.075,1.369 -2.412,3.2 -3.887,4.578 -1.219,1.142 -1.859,2.625 -2.141,4.201 -0.282,1.576 -1.013,7.752 -2.447,15.435 -1.437,7.683 -6.092,20.204 -6.66,23.049 -0.57,2.844 -1.777,6.17 -1.26,7.464 0.518,1.293 5.063,1.464 5.809,2.25 0.746,0.786 -0.221,1.732 -4.565,1.578 -4.346,-0.155 -9.34,0.669 -13.244,0.827 -3.904,0.157 -11.797,0.56 -13.502,-0.932 -1.705,-1.492 -4.685,-8.04 -5.455,-14.676 -0.771,-6.637 -1.996,-11.402 -2.728,-15.372 -0.729,-3.971 -2.856,-16.505 -4.727,-19.749 -1.869,-3.245 -2.996,-10.728 -4.502,-12.332 -1.508,-1.604 -3.131,-2.022 -5.422,-2.021 -2.293,0.003 -6.369,0.993 -7.607,2.325 -1.237,1.332 0.832,8.528 3.558,17.519 2.725,8.99 3.188,13.077 4.774,19.846 1.59,6.771 2.76,11.237 4.146,15.041 1.387,3.806 1.979,14.412 6.34,16.503 4.361,2.09 9.815,1.732 14.201,1.43 4.387,-0.305 9.768,-1.8 13.998,-1.334 4.229,0.466 7.121,0.571 9.493,1.026 1.188,0.225 6.11,1.458 8.178,-0.607 z m -12.121,-61.161 c -2.006,-0.007 -4.002,0.105 -5.974,0.514 -0.391,0.082 -5.909,1.065 -8.321,1.07 -3.205,0.005 -13.685,0.18 -13.779,3.66 -0.095,3.479 1.217,5.657 1.461,8.493 0.244,2.836 0.801,4.016 1.764,6.97 0.966,2.953 4.505,5.462 5.656,3.199 1.154,-2.265 2.703,3.346 3.842,4.085 1.142,0.738 -0.979,7.205 -1.704,4.309 -0.726,-2.897 -1.482,-2.522 -3.414,-3.208 -1.933,-0.686 -1.845,1.743 -1.854,2.126 -0.068,2.813 0.508,9.928 0.973,12.049 0.468,2.121 1.089,5.069 2.226,5.897 1.139,0.828 6.299,0.434 9.104,0.259 2.807,-0.175 6.697,0.247 8.019,-1.552 1.322,-1.8 1.942,-10.763 3.135,-13.741 0.398,-1.551 1.367,-12.177 1.16,-13.832 -0.207,-1.655 -5.846,-2.328 -6.725,-2.328 -0.882,0 -7.759,3.68 -5.978,1.691 1.779,-1.989 3.166,-4.698 3.928,-4.911 1.938,-0.54 10.314,-0.298 10.705,-0.384 1.543,-0.342 2.871,-1.797 3.021,-3.283 0.235,-2.392 1.028,-7.921 0.981,-8.311 -0.045,-0.396 -1.471,-2.2 -2.246,-2.371 -1.57,-0.343 -5.581,-0.398 -5.98,-0.401 z m -2.416,-4.481 c 3.651,-0.898 11.834,0.604 13.656,-1.346 1.821,-1.949 6.104,-11.691 5.069,-14.588 -1.033,-2.897 -6.83,-5.483 -10.244,-7.347 -3.414,-1.862 -9.034,-4.346 -11.483,-4.346 -2.449,0 -10.615,2.597 -12.951,4.173 -2.336,1.576 -14.982,4.828 -16.432,7.313 -1.45,2.483 2.479,10.848 3.879,14.373 1.397,3.525 4.291,4.121 6.879,3.616 2.588,-0.505 2.317,-1.462 2.078,-3.54 -0.24,-2.079 -2.697,-6.586 -0.109,-9.174 2.586,-2.586 5.49,-3.75 8.125,-3.529 2.635,0.22 -0.738,1.442 -2.643,3.529 -1.905,2.088 -1.912,3.93 -1.476,5.226 0.439,1.297 0.867,3.538 2.438,5.167 1.57,1.63 9.56,1.371 13.214,0.473 z M 427.031,413.63 c 1.93,-0.828 15.074,-5.199 16.555,-7.796 1.479,-2.596 7.559,-3.113 7.707,-4.237 0.146,-1.123 0.328,-3.458 0.086,-5.419 -0.24,-1.961 -0.795,-2.68 -2.274,-2.001 -0.363,0.165 -8.457,3.554 -10.914,4.921 -2.318,0.708 -11.621,4.795 -14.4,6.322 -2.781,1.528 -1.023,3.813 -0.553,5.521 0.471,1.705 1.864,3.516 3.793,2.689 z m 29.549,-11.95 c 0.938,2.706 2.322,3.421 4.836,4.788 2.516,1.368 3.41,1.147 6.826,2.119 3.416,0.972 6.664,4.836 9.352,4.525 2.687,-0.312 3.722,-2.587 4.756,-4.934 1.033,-2.346 -0.938,-3.416 -2.461,-4.413 -1.521,-0.998 -4.84,-2.687 -7.785,-3.887 -1.834,-0.75 -4.813,-2.386 -6.651,-3.15 -2.199,-0.914 -6.555,-3.104 -8.277,-3.033 -1.727,0.07 -1.533,5.279 -0.596,7.985 z"
           id="path56" />
      </g>
    </g>
  </g>
</svg>
