<?xml version="1.0" encoding="UTF-8" standalone="no"?>
<!-- Created with Inkscape (http://www.inkscape.org/) -->

<svg
   xmlns:dc="http://purl.org/dc/elements/1.1/"
   xmlns:cc="http://creativecommons.org/ns#"
   xmlns:rdf="http://www.w3.org/1999/02/22-rdf-syntax-ns#"
   xmlns:svg="http://www.w3.org/2000/svg"
   xmlns="http://www.w3.org/2000/svg"
   xmlns:sodipodi="http://sodipodi.sourceforge.net/DTD/sodipodi-0.dtd"
   xmlns:inkscape="http://www.inkscape.org/namespaces/inkscape"
   width="56.693729mm"
   height="56.693729mm"
   viewBox="0 0 56.69373 56.693729"
   version="1.1"
   id="svg11408"
   inkscape:version="0.92.3 (2405546, 2018-03-11)"
   sodipodi:docname="tree.svg">
  <defs
     id="defs11402" />
  <sodipodi:namedview
     id="base"
     pagecolor="#ffffff"
     bordercolor="#666666"
     borderopacity="1.0"
     inkscape:pageopacity="0.0"
     inkscape:pageshadow="2"
     inkscape:zoom="0.35"
     inkscape:cx="-168.57654"
     inkscape:cy="46.7853"
     inkscape:document-units="mm"
     inkscape:current-layer="layer1"
     showgrid="false"
     inkscape:window-width="1366"
     inkscape:window-height="703"
     inkscape:window-x="0"
     inkscape:window-y="0"
     inkscape:window-maximized="1" />
  <metadata
     id="metadata11405">
    <rdf:RDF>
      <cc:Work
         rdf:about="">
        <dc:format>image/svg+xml</dc:format>
        <dc:type
           rdf:resource="http://purl.org/dc/dcmitype/StillImage" />
        <dc:title></dc:title>
      </cc:Work>
    </rdf:RDF>
  </metadata>
  <g
     inkscape:label="Layer 1"
     inkscape:groupmode="layer"
     id="layer1"
     transform="translate(-39.688852,-104.51821)">
    <g
       transform="matrix(0.26458333,0,0,0.26458333,0.30228362,-2.5088137)"
       id="Tree">
      <path
         style="fill:#2ea039"
         inkscape:connector-curvature="0"
         d="m 231.014,606.775 c -1.297,0 -2.555,-0.197 -3.736,-0.582 -7.353,-2.406 -10.771,-9.637 -13.516,-15.446 -0.906,-1.919 -1.764,-3.731 -2.655,-5.171 -0.503,-0.809 -0.919,-1.018 -2.027,-1.018 -0.714,0 -1.58,0.11 -2.496,0.229 -1.146,0.15 -2.444,0.318 -3.816,0.318 -3.532,0 -6.48,-1.172 -9.01,-3.578 -5.49,-5.223 -5.548,-10.501 -5.595,-14.74 -0.021,-1.894 -0.041,-3.679 -0.5,-5.37 -0.598,-2.195 -4.398,-3.474 -8.426,-4.823 -3.459,-1.159 -7.037,-2.36 -9.982,-4.511 -6.32,-4.607 -3.96,-10.74 -1.88,-16.152 0.901,-2.34 1.831,-4.761 2.402,-7.431 0.625,-2.94 -1.352,-5.593 -4.629,-9.673 -3.655,-4.552 -8.204,-10.217 -7.328,-18.179 1.592,-14.433 17.193,-25.466 24.499,-28.548 2.053,-0.863 1.864,-4.258 1.308,-9.746 -0.379,-3.748 -0.769,-7.622 0.069,-11.129 2.215,-9.248 11.723,-17.679 19.951,-17.687 4.294,0 8.011,2.503 11.29,4.709 1.808,1.219 4.06,2.736 5.157,2.736 0.904,-0.447 2.35,-3.23 3.405,-5.265 3.131,-6.021 7.416,-14.271 16.64,-17.274 5.259,-1.712 10.267,-2.581 14.879,-2.581 8.046,0 14.895,2.581 20.356,7.677 6.801,6.339 7.364,9.976 8.015,14.188 0.213,1.373 0.432,2.794 0.911,4.495 1.438,5.114 3.544,6.081 6.927,6.081 0.681,0 1.4,-0.047 2.161,-0.131 l 0.759,-0.086 c 2.02,-0.23 4.111,-0.469 6.323,-0.469 3.966,0 9.986,0.684 16.449,6.593 6.439,5.891 5.257,12.071 4.392,16.586 -0.377,1.967 -0.731,3.824 -0.476,5.399 0.429,2.646 0.437,2.695 5.41,3.437 1.491,0.225 3.35,0.499 5.49,0.951 8.679,1.838 17.995,5.766 21.299,20.968 2.317,10.669 -4.228,19.376 -9.486,26.374 -1.92,2.557 -3.734,4.97 -4.868,7.132 -1.65,3.146 -1.643,8.238 -1.636,13.632 0.007,7.259 0.019,15.485 -4.153,21.732 -4.45,6.666 -12.072,7.518 -17.637,8.138 -2.953,0.328 -6.301,0.703 -6.741,1.843 -0.434,1.107 -0.78,2.1 -1.092,2.987 -1.523,4.352 -2.627,7.491 -8.649,10.262 -1.496,0.688 -3.048,1.035 -4.617,1.035 -2.794,0 -5.15,-1.052 -7.431,-2.068 -1.901,-0.85 -3.694,-1.65 -5.595,-1.755 -0.005,0 -0.008,0 -0.011,0 -2.169,0 -4.259,1.847 -6.678,3.985 -2.725,2.409 -5.815,5.141 -10.128,6.673 -1.887,0.67 -3.563,0.995 -5.128,0.995 -3.494,0 -5.566,-1.626 -7.083,-2.813 -0.901,-0.708 -1.438,-1.111 -1.999,-1.17 -0.723,0.063 -3.116,1.549 -4.862,2.634 -4.019,2.5 -9.022,5.607 -14.226,5.607 z"
         id="path158" />
      <path
         style="fill:#39b54a"
         inkscape:connector-curvature="0"
         d="m 207.114,476.87 c -5.252,13.343 -7.868,22.903 -6.037,29.426 1.826,6.521 14.084,8.34 16.798,15.485 2.71,7.147 1.101,9.046 1.754,20.471 0.653,11.425 4.288,26.872 17.668,28.083 13.378,1.21 25.104,-7.987 30.969,-15.485 5.859,-7.495 27.527,1.442 33.594,-6.822 6.07,-8.264 -4.371,-24.915 -1.155,-32.545 3.213,-7.632 8.373,-19.372 4.938,-29.146 -3.437,-9.771 -11.954,-18.621 -23.484,-16.784 -11.529,1.837 -16.551,7.435 -24.127,3.149 -7.578,-4.281 -7.843,-11.531 -19.241,-11.177 -11.398,0.353 -26.427,2.003 -31.677,15.345 z"
         id="path160" />
      <path
         style="fill:#39b54a"
         inkscape:connector-curvature="0"
         d="m 228.324,490.303 c -2.761,2.979 -4.629,6.69 -3.516,10.66 1.111,3.967 3.904,8.294 7.107,10.132 3.201,1.837 4.445,1.479 6.096,5.826 1.65,4.353 -2.327,8.483 -1.929,15.437 0.397,6.953 1.695,11.693 9.837,12.433 8.143,0.735 13.437,-4.844 17.005,-9.405 3.566,-4.563 13.31,-0.716 17.001,-5.746 3.694,-5.027 -3.422,-11.563 -1.465,-16.208 1.956,-4.644 5.097,-11.789 3.006,-17.735 -2.092,-5.949 -11.287,-6.449 -15.28,-4.279 -3.99,2.169 -4.418,7.033 -9.029,4.425 -4.612,-2.605 -5.744,-14.254 -12.68,-14.039 -6.936,0.212 -13.396,5.519 -16.153,8.499 z"
         id="path162" />
      <path
         inkscape:connector-curvature="0"
         d="m 155.322,522.482 c -5.67,-10.009 -9.978,-23.021 -2.364,-34.956 7.614,-11.937 20.613,-17.939 23.538,-22.083 2.923,-4.145 0.577,-13.179 2.384,-19.363 1.806,-6.188 2.763,-14.606 13.312,-18.006 10.549,-3.4 15.363,2.558 25.028,-2.87 9.667,-5.428 11.897,-22.04 38.235,-19.777 26.338,2.266 29.989,22.112 38.241,28.903 8.25,6.791 12.082,-1.887 23.727,7.702 11.645,9.588 10.867,22.3 13.968,27.055 3.101,4.755 13.307,3.714 20.802,8.87 7.494,5.157 10.896,16.894 10.945,28.872 0.048,11.979 -14.262,24.808 -16.649,36.014 -2.39,11.206 -1.697,21.633 -7.372,32.131 -5.676,10.497 -15.853,10.274 -20.545,13.601 -4.693,3.326 -8.982,11.403 -17.266,14.038 -8.281,2.632 -12.783,-0.474 -19.48,0.182 -6.696,0.654 -13.108,10.643 -19.764,11.709 -6.656,1.066 -6.711,-1.706 -11.757,-2.158 -5.046,-0.45 -13.483,7.111 -24.4,6.393 -10.916,-0.721 -15.646,-16.842 -21.417,-21.115 -5.772,-4.275 -13.354,-2.593 -18.749,-8.858 -5.395,-6.264 -4.045,-16.709 -6.82,-20.76 -2.774,-4.052 -7.313,-2.557 -15.197,-6.852 -7.884,-4.293 -10.736,-13.48 -8.432,-19.997 2.305,-6.52 5.702,-8.667 0.032,-18.675 z m 175.056,46.264 c 6.651,-9.959 1.185,-26.625 5.624,-35.089 4.439,-8.465 16.894,-18.499 14.078,-31.46 -2.816,-12.961 -10.086,-16.771 -18.971,-18.65 -8.885,-1.881 -12.231,-0.52 -13.261,-6.863 -1.029,-6.343 4.799,-13.135 -2.97,-20.237 -7.77,-7.103 -14.682,-5.988 -21.154,-5.266 -6.475,0.726 -10.335,-1.018 -12.336,-8.136 -2.001,-7.119 0.119,-9.65 -8.076,-17.292 -8.196,-7.642 -19.535,-8.569 -32.238,-4.431 -12.701,4.138 -15.092,20.484 -19.628,22.418 -4.534,1.931 -10.938,-7.182 -17.798,-7.175 -6.858,0.005 -15.117,7.452 -17.013,15.364 -1.894,7.914 3.727,20.063 -3.142,22.959 -6.87,2.897 -21.258,13.293 -22.668,26.093 -1.411,12.799 13.921,18.697 11.906,28.147 -2.014,9.451 -8.12,15.83 -1.698,20.512 6.423,4.686 17.844,4.724 19.546,10.982 1.702,6.261 -1.551,12.232 5.261,18.715 6.812,6.481 14.093,-1.393 17.834,4.645 3.742,6.036 6.25,16.626 14.542,19.336 8.292,2.711 18.103,-8.22 22.202,-7.787 4.101,0.43 4.766,6.027 12.882,3.145 8.115,-2.882 11.858,-11.162 17.991,-10.828 6.133,0.335 10.291,5.784 16.218,3.061 5.926,-2.726 5.716,-5.247 8.183,-11.598 2.467,-6.351 18.035,-0.607 24.686,-10.565 z"
         id="path164" />
      <path
         inkscape:connector-curvature="0"
         d="m 268.397,540.415 c -2.756,1.706 -6.008,5.313 -10.762,7.479 -4.752,2.167 -11.81,3.612 -17.06,1.775 -5.249,-1.838 -9.16,-6.737 -10.223,-10.817 -1.062,-4.081 0.72,-13.817 -0.145,-17.202 -0.861,-3.387 -5.51,-5.709 -6.691,-7.961 -1.181,-2.252 -3.644,-3.272 -3.881,-12.952 -0.238,-9.681 7.801,-17.197 11.549,-20.122 3.749,-2.926 15.335,-5.063 19.364,-2.795 4.029,2.267 8.359,7.416 13.763,7.033 5.402,-0.382 11.794,-0.978 14.567,0.392 2.771,1.367 6.467,6.223 8.031,9.108 1.564,2.889 1.691,6.326 1.437,8.872 -0.151,1.513 -0.41,3.009 -1.066,4.412 -0.643,1.379 -1.3,2.754 -1.852,4.173 -1.202,3.098 -1.896,5.121 -0.63,9.84 1.268,4.718 1.97,8.135 -1.968,13.12 -3.934,4.989 -11.677,3.94 -14.433,5.645 z m -36.718,-47.022 c -2.39,2.58 -4.007,5.793 -3.044,9.229 0.964,3.438 3.382,7.182 6.154,8.771 2.771,1.593 3.848,1.28 5.277,5.048 1.429,3.767 -2.016,7.342 -1.671,13.362 0.345,6.02 1.468,10.124 8.518,10.763 7.049,0.639 11.634,-4.192 14.722,-8.144 3.088,-3.948 11.523,-0.619 14.721,-4.974 3.195,-4.355 -2.963,-10.013 -1.27,-14.032 1.693,-4.022 4.412,-10.208 2.603,-15.356 -1.812,-5.148 -9.773,-5.584 -13.228,-3.704 -3.456,1.878 -3.826,6.089 -7.819,3.832 -3.992,-2.259 -4.972,-12.342 -10.978,-12.155 -6.005,0.185 -11.598,4.78 -13.985,7.36 z"
         id="path166" />
    </g>
  </g>
</svg>
