<?xml version="1.0" encoding="UTF-8" standalone="no"?>
<!-- Created with Inkscape (http://www.inkscape.org/) -->

<svg
   xmlns:dc="http://purl.org/dc/elements/1.1/"
   xmlns:cc="http://creativecommons.org/ns#"
   xmlns:rdf="http://www.w3.org/1999/02/22-rdf-syntax-ns#"
   xmlns:svg="http://www.w3.org/2000/svg"
   xmlns="http://www.w3.org/2000/svg"
   xmlns:sodipodi="http://sodipodi.sourceforge.net/DTD/sodipodi-0.dtd"
   xmlns:inkscape="http://www.inkscape.org/namespaces/inkscape"
   width="31.264587mm"
   height="30.865347mm"
   viewBox="0 0 31.264587 30.865347"
   version="1.1"
   id="svg8486"
   inkscape:version="0.92.3 (2405546, 2018-03-11)"
   sodipodi:docname="campfire_lit.svg">
  <defs
     id="defs8480" />
  <sodipodi:namedview
     id="base"
     pagecolor="#ffffff"
     bordercolor="#666666"
     borderopacity="1.0"
     inkscape:pageopacity="0.0"
     inkscape:pageshadow="2"
     inkscape:zoom="0.35"
     inkscape:cx="706.22553"
     inkscape:cy="-78.814641"
     inkscape:document-units="mm"
     inkscape:current-layer="layer1"
     showgrid="false"
     inkscape:window-width="1366"
     inkscape:window-height="703"
     inkscape:window-x="0"
     inkscape:window-y="0"
     inkscape:window-maximized="1" />
  <metadata
     id="metadata8483">
    <rdf:RDF>
      <cc:Work
         rdf:about="">
        <dc:format>image/svg+xml</dc:format>
        <dc:type
           rdf:resource="http://purl.org/dc/dcmitype/StillImage" />
        <dc:title></dc:title>
      </cc:Work>
    </rdf:RDF>
  </metadata>
  <g
     inkscape:label="Layer 1"
     inkscape:groupmode="layer"
     id="layer1"
     transform="translate(191.7692,-97.114946)">
    <g
       transform="matrix(0.26458333,0,0,0.26458333,-193.06996,27.881063)"
       id="Campfire-Lit">
      <path
         d="m 61.671,375.836 c -3.682,0 -7.183,-2.024 -9.604,-5.554 -2.685,-3.914 -5.833,-4.454 -8.834,-4.454 -0.334,0 -0.68,0.008 -1.036,0.021 -0.426,0.016 -0.844,0.023 -1.25,0.023 -4.392,0 -7.464,-0.906 -9.669,-2.854 -0.247,-0.218 -1.141,-1.188 -2.288,-4.531 -0.39,-1.132 -0.547,-2.108 -0.686,-2.971 -0.213,-1.323 -0.433,-2.69 -1.492,-3.749 -1.082,-1.082 -2.616,-1.227 -4.24,-1.38 -0.791,-0.074 -1.985,-0.187 -2.396,-0.424 -1.668,-0.96 -3.24,-2.586 -4.669,-4.834 -1.994,-3.136 -2.535,-6.366 -1.653,-9.872 0.066,-0.262 0.279,-0.647 0.524,-1.093 0.48,-0.874 1.137,-2.07 1.441,-3.725 0.516,-2.804 -1.738,-4.629 -3.55,-6.095 -0.769,-0.624 -1.564,-1.267 -1.96,-1.817 -2.145,-2.979 -3.421,-5.689 -2.687,-9.23 1.439,-6.948 4.858,-10.871 11.081,-12.723 l 2.624,-0.781 -1.024,-2.539 c -2.536,-6.287 -0.604,-10.581 6.261,-13.924 2.685,-1.308 4.514,-3.457 5.756,-6.764 1.591,-4.234 4.698,-6.472 8.981,-6.472 0.504,0 1.021,0.032 1.55,0.094 0.845,0.1 1.678,0.15 2.476,0.15 3.784,0 7.091,-1.094 10.406,-3.445 2.592,-1.837 5.006,-2.73 7.384,-2.73 2.237,0 4.448,0.792 6.756,2.421 3.714,2.622 7.79,3.896 12.459,3.896 0.379,0 0.761,-0.008 1.149,-0.025 0.588,-0.025 1.156,-0.037 1.701,-0.037 8.1,0 10.696,2.613 12.076,12.159 0.377,2.617 0.913,4.771 3.997,6.703 4.889,3.063 8.02,7.451 9.306,13.043 0.108,0.47 1.14,4.625 4.023,5.243 3.209,0.686 3.963,2.9 5.016,6.755 0.111,0.41 0.223,0.816 0.338,1.215 0.752,2.599 1.531,7.442 -1.7,10.677 -4.5,4.505 -5.864,9.829 -7.182,14.976 -0.207,0.8 -0.412,1.607 -0.632,2.419 -2.673,9.841 -8.586,15.708 -18.612,18.464 -0.772,0.213 -1.554,0.421 -2.34,0.629 -6.602,1.755 -14.083,3.744 -19.967,9.645 -2.279,2.283 -4.986,3.49 -7.834,3.49 z"
         id="path23"
         inkscape:connector-curvature="0"
         style="fill:#adadaa" />
      <polygon
         points="73.644,357.963 60.558,355.043 52.23,357.963 46.606,347.256 33.845,346.175 31.358,333.738 22.489,326.849 27.572,313.622 21.949,299.563 34.277,299.996 38.279,290.046 46.823,288.964 53.116,282.908 71.805,282.908 77.429,289.396 92.246,290.046 92.246,305.186 107.278,308.972 101.546,320.436 105.655,331.683 94.896,335.685 86.622,346.716 79.051,347.905 "
         id="polygon25"
         style="fill:#34393f" />
      <path
         d="m 42.821,308.042 c -0.332,3.028 4.429,9.875 4.429,9.875 l -6.338,9.404 5.624,8.724 11.031,-8.076 c 0,0 6.516,12.556 10.35,13.085 3.834,0.529 13.838,-7.401 12.794,-10.561 -1.044,-3.16 -9.734,-14.564 -9.734,-14.564 0,0 8.817,-6.767 8.857,-9.179 0.04,-2.412 -4.854,-6.076 -7.333,-5.917 -2.479,0.159 -10.751,7.093 -10.751,7.093 0,0 -9.69,-8.241 -12.761,-8.292 -3.071,-0.051 -5.837,5.38 -6.168,8.408 z"
         id="path27"
         inkscape:connector-curvature="0"
         style="fill:#6e533b" />
      <path
         d="m 25.047,353.529 c -0.9,-0.901 -4.368,-0.399 -6.117,-1.406 -2.268,-1.306 -4.076,-3.375 -5.527,-5.657 -2.456,-3.862 -2.983,-7.779 -1.968,-11.816 0.347,-1.374 1.535,-2.499 1.932,-4.662 0.397,-2.163 -3.517,-3.828 -5.083,-6.007 -2.286,-3.176 -4.058,-6.592 -3.104,-11.19 1.463,-7.057 5.052,-12.297 12.809,-14.605 -3.333,-8.261 0.186,-13.543 7.479,-17.096 2.263,-1.101 3.564,-2.868 4.514,-5.399 2.21,-5.877 7.04,-8.701 13.157,-7.978 4.313,0.511 7.746,-0.441 11.149,-2.852 5.543,-3.931 11.154,-4.449 17.017,-0.313 3.528,2.491 7.374,3.618 12.064,3.418 10.974,-0.465 14.729,3.039 16.35,14.254 0.334,2.315 0.684,3.589 2.854,4.948 5.359,3.358 8.952,8.253 10.411,14.597 0.289,1.259 1.194,3.167 2.117,3.365 5.382,1.15 6.098,5.816 7.226,9.714 1.31,4.528 1.141,9.654 -2.332,13.13 -4.664,4.669 -5.558,10.335 -7.171,16.287 -2.775,10.218 -9.102,17.122 -20.355,20.215 -7.216,1.984 -15.14,3.549 -21.204,9.63 -6.604,6.623 -16.043,5.18 -21.254,-2.415 -2.089,-3.045 -4.35,-3.479 -7.723,-3.353 -5.634,0.211 -9.731,-0.864 -12.662,-3.453 -1.203,-1.063 -2.225,-3.347 -2.996,-5.59 -1.003,-2.918 -0.682,-4.866 -1.583,-5.766 z m 19.829,-62.277 c -2.592,0.381 -3.843,0.154 -6.463,1.528 -1.394,0.73 -1.108,3.396 -1.182,6.351 -0.064,2.604 0.006,4.697 -1.764,5.515 -1.769,0.817 -2.687,-1.506 -4.326,-1.839 -1.472,-0.297 -6.989,-0.982 -5.711,0.969 1.277,1.951 4.53,4.815 4.454,7.791 -0.064,2.453 -2.126,6.112 -1.569,7.706 0.556,1.594 6.157,1.073 8.883,1.435 3.425,0.452 4.638,-1.009 3.329,-4.096 -0.565,-1.334 -2.515,-2.814 -3.329,-2.558 -0.974,0.308 -4.196,1.875 -3.569,-0.432 0.627,-2.308 1.5,-1.932 4.651,-4.542 1.737,-1.44 2.066,-3.325 2.705,-5.417 0.519,-1.7 2.973,-5.397 5.731,-6.1 2.757,-0.703 -0.882,-4.038 3.101,-3.911 3.982,0.126 -1.261,2.199 0.108,3.64 1.369,1.442 10.562,5.011 12.346,5.263 1.785,0.253 -0.376,-3.063 -0.341,-4.145 0.035,-1.082 0.877,-2.776 2.813,-3.383 1.937,-0.606 2.3,-0.756 5.139,-1.549 2.256,-0.632 4.037,-1.094 6.279,-0.154 2.242,0.94 -0.321,1.988 -2.805,2.336 -1.827,0.256 -7.035,1.627 -5.284,2.152 1.75,0.525 5.757,0.555 8.229,1.659 3.542,1.581 5.158,3.786 5.779,5.355 1.056,2.666 -3.278,7.379 -5.264,9.95 -2.835,3.67 1.396,6.432 3.123,10.03 1.721,3.583 4.299,5.605 1.817,8.319 -2.483,2.715 0.963,10.611 2.861,9.775 1.898,-0.835 5.723,-7.456 9.363,-9.74 2.552,-1.602 8.121,-0.847 8.709,-2.73 0.588,-1.883 -3.473,-4.951 -4.317,-7.704 -1.678,-5.479 6.055,-10.244 5.696,-12.432 -0.358,-2.188 -6.937,-0.933 -10.132,-1.614 -3.829,-0.816 -5.852,-3.979 -6.259,-7.269 -0.364,-2.951 4.262,-7.713 1.658,-9.323 -2.604,-1.61 -9.114,1.61 -12.889,0 -3.775,-1.61 -2.899,-3.24 -6.149,-6.047 -3.249,-2.808 -10.628,-0.433 -14.34,-0.753 -3.71,-0.32 -4.534,1.622 -5.86,4.001 -1.327,2.379 -3.707,1.499 -5.221,1.963 z m 2.271,46.919 c -2.488,0 -5.137,-2.272 -7.246,-4.975 -1.972,-2.53 0.541,-6.705 -2.488,-8.219 -3.029,-1.514 -8.037,-1.257 -10.147,-0.105 -2.111,1.15 5.801,4.433 7.371,8.721 1.569,4.288 -1.21,9.035 2.41,8.401 3.62,-0.634 9.037,0.964 11.687,3.495 2.594,2.478 2.354,7.662 4.706,8.076 2.352,0.414 1.933,-6.116 3.025,-9.051 0.75,-2.023 2.627,-5.466 2.217,-7.641 -0.184,-0.98 -2.163,-3.569 -3.244,-4.11 -1.082,-0.539 -5.804,5.408 -8.291,5.408 z M 108,339.49 c 0.065,-2.757 -7.659,-3.719 -9.253,-3.085 -2.594,1.029 -4.925,3.325 -6.731,5.593 -1.786,2.245 -1.639,4.825 0.653,7.229 4.134,4.333 9.55,4.063 12.402,-1.191 1.402,-2.58 2.864,-5.788 2.929,-8.546 z m -59.158,-7.735 c 2.037,-0.82 6.028,-6.776 10.583,-11.225 4.593,-4.484 7.008,-7.485 12.416,-9.216 5.407,-1.73 6.707,-3.894 4.903,-6.778 -1.803,-2.883 -3.386,-1.745 -4.542,-1.441 -1.984,0.523 -4.211,2.29 -5.913,3.532 -1.687,1.23 -3.604,4.429 -5.247,5.729 -3.532,2.791 -11.353,8.191 -15.609,11.84 -4.256,3.649 -0.679,9.204 3.409,7.559 z m -2.031,22.263 c -0.005,-3.23 -0.667,-5.027 -2.418,-5.717 -1.197,-0.471 -4.534,-0.977 -7.203,0.26 -2.669,1.236 -4.189,3.348 -4.42,6.309 -0.25,3.239 1.777,5.046 4.35,6.171 5.98,2.616 9.705,-0.148 9.691,-7.023 z m 36.557,-66.54 c 4.549,-0.124 7.636,-2.133 7.856,-5.11 0.253,-3.426 -4.664,-8.198 -8.081,-7.844 -3.619,0.378 -8.136,5.171 -7.88,8.363 0.244,3.025 3.241,4.721 8.105,4.591 z M 70.904,355.08 c 3.017,-1.616 2.753,-3.042 3.856,-6.093 1.104,-3.051 0.146,-7.174 -4.289,-6.272 -4.434,0.902 -8.084,-2.7 -9.522,-0.665 -1.438,2.036 -0.937,3.119 -1.082,4.104 -0.203,1.377 -1.801,5.338 2.852,6.655 4.655,1.316 5.169,3.886 8.185,2.271 z M 43.917,275.199 c -3.51,0.195 -7.205,4.421 -6.42,7.771 0.711,3.021 3.193,3.956 6.089,3.783 3.985,-0.24 7.475,-3.697 7.328,-7.189 -0.094,-2.25 -3.776,-4.546 -6.997,-4.365 z m 66.941,49.845 c 4.604,-0.154 5.529,-5.548 3.987,-9.009 -0.126,-0.284 -0.359,-0.54 -0.587,-0.762 -1.599,-1.56 -5.082,-1.188 -7.261,0.762 -2.777,2.483 -3.716,5.931 -1.944,7.797 0.857,0.904 1.201,1.366 5.805,1.212 z M 62.131,281.378 c 3.811,0.204 6.422,-1.917 6.911,-5.613 0.392,-2.955 -2.192,-5.343 -5.72,-5.294 -3.454,0.047 -5.809,2.487 -6.284,6.499 -0.318,2.678 1.455,4.213 5.093,4.408 z M 23.052,343.59 c 5.575,0.982 9.688,-5.545 5.309,-10.508 -0.879,-0.998 -2.902,-1.729 -4.167,-1.469 -1.911,0.396 -4.013,0.188 -5.322,3.242 -1.309,3.055 -1.394,7.753 4.18,8.735 z m 34.402,15.157 c -1.699,1.475 -2.188,7.512 0.876,8.971 3.066,1.459 5.907,0.278 8.089,-1.546 2.183,-1.825 2.618,-6.417 0.438,-8.146 -2.18,-1.731 -7.705,-0.755 -9.403,0.721 z M 12.999,312.488 c -0.254,2.354 0.584,4.171 1.097,5.189 0.678,1.342 2.591,2.441 3.799,2.771 1.197,0.327 2.955,-0.679 4.201,-1.506 0.946,-0.627 1.732,-1.793 2.126,-2.888 0.991,-2.746 2.147,-6.231 -0.919,-8.031 -1.594,-0.932 -3.308,-2.673 -6.068,-1.626 -2.76,1.048 -3.982,3.737 -4.236,6.091 z m 84.175,-19.354 c -3.106,-0.037 -3.505,3.08 -3.795,4.675 -0.285,1.553 0.674,4.049 1.937,4.981 1.346,0.997 3.273,1.846 6.247,1.609 2.974,-0.238 4.092,-1.827 2.149,-5.951 -1.943,-4.124 -3.432,-5.279 -6.538,-5.314 z m -8.813,61.11 c 1.034,-3.301 -3.927,-5.303 -6.628,-4.831 -3.037,0.534 -4.386,2.772 -4.365,5.743 0.025,3.222 3.056,6.021 6.065,5.034 1.713,-0.558 3.894,-2.646 4.928,-5.946 z M 45.25,304.5 c -1.676,5.031 -0.172,6.246 0.917,7.5 0.783,0.903 2.387,2.814 4.345,3 1.958,0.187 4.974,-1.671 6.618,-3.884 1.644,-2.212 -0.29,-4.909 -3.38,-6.949 -3.089,-2.041 -6.824,-4.698 -8.5,0.333 z m 22.002,33.343 c 1.554,1.122 3.761,-0.935 6.29,-3.122 1.729,-1.494 5.993,-1.843 5.532,-3.691 -0.459,-1.849 -7.034,-8.125 -8.324,-9.947 -1.29,-1.821 -3.894,-3.464 -4.949,-2.979 -1.054,0.484 -1.723,1.378 -3.171,2.597 -1.449,1.218 -2.937,2.416 -3.113,4.525 -0.178,2.111 5.12,10.727 7.735,12.617 z m -32.628,-43.37 c 0.381,-4.296 0.381,-7.12 -3.779,-7.713 -4.16,-0.594 -8.728,3.99 -6.939,6.51 1.788,2.517 3.065,2.955 5.969,3.943 2.901,0.988 4.364,1.557 4.749,-2.74 z"
         id="path29"
         inkscape:connector-curvature="0" />
      <path
         d="m 94.516,313.333 c 0.649,0.938 0.555,1.635 -0.963,1.705 -1.518,0.07 -2.581,0.607 -3.413,1.384 -1.389,1.292 -2.383,3.736 -3.275,4.83 -0.892,1.094 -2.491,1.242 -2.232,-0.287 0.258,-1.53 0.311,-4.548 1.527,-5.702 1.744,-1.656 3.728,-2.597 5.796,-2.723 2.069,-0.126 1.912,-0.144 2.56,0.793 z"
         id="path31"
         inkscape:connector-curvature="0" />
      <path
         d="m 93.682,324.333 c 1.159,-0.544 2.498,1.644 1.987,2.515 -0.511,0.87 -0.827,1.449 -2.099,2.158 -1.273,0.709 -2.546,0.804 -2.353,-1.487 0.195,-2.291 1.305,-2.642 2.465,-3.186 z"
         id="path33"
         inkscape:connector-curvature="0" />
      <path
         d="m 57.274,295.577 c -0.922,-0.284 -2.156,-1.523 -2.154,-2.332 0.001,-0.921 1.066,-2.327 1.961,-2.614 0.791,-0.253 2.379,0.468 2.906,1.242 0.799,1.179 1.182,1.705 1.254,2.822 0.074,1.119 -2.596,1.306 -3.967,0.882 z"
         id="path35"
         inkscape:connector-curvature="0" />
      <path
         d="m 55.472,341.506 c -0.84,1.553 -0.969,1.892 -2.356,1.916 -1.388,0.024 -2.244,-0.417 -2.474,-0.894 -0.742,-1.528 1.862,-4.248 3.656,-3.791 0.487,0.125 2.013,1.215 1.174,2.769 z"
         id="path37"
         inkscape:connector-curvature="0" />
      <g
         id="g49">
        <path
           d="m 79.5,271.25 c -3.15,7.087 -9.012,16.383 -7,24.258 2.013,7.875 7.038,4.577 6.98,-3.648 6.358,7.233 -0.904,23.8 9.188,18.271 -2.004,6.583 -3.569,12.195 -5.323,15.224 -1.754,3.029 -10.693,12.377 -19.264,13.834 -8.569,1.458 -14.441,-2.837 -17.581,-5.565 -3.141,-2.73 -6.33,-9.977 -7.824,-16.471 -1.494,-6.496 -1.855,-11.229 -1.394,-17.693 1.511,7.334 7.612,9.613 9.502,3.133 1.891,-6.479 3.85,-13.358 3.325,-19.424 6.417,5.483 0.224,14.14 6.641,11.165 6.417,-2.975 4.981,-19.667 22.75,-23.084 z"
           id="path39"
           inkscape:connector-curvature="0"
           style="fill:#fe663d" />
        <path
           d="m 60.16,337.968 c -5.327,0 -9.138,-2.776 -11.54,-4.863 -2.281,-1.982 -5.146,-8.228 -6.524,-14.217 -0.55,-2.394 -0.935,-4.51 -1.168,-6.574 0.656,0.205 1.339,0.311 2.037,0.311 3.239,0 5.848,-2.311 6.978,-6.182 0.361,-1.235 0.731,-2.503 1.088,-3.792 0.733,0.93 4.388,2.183 7.804,-0.733 3.416,-2.916 3.526,-5.545 4.75,-8.734 1.136,-2.958 3.456,-5.81 6.495,-8.387 -1.614,5.154 -3.412,11.363 -1.995,16.905 1.326,5.19 4.225,5.966 5.834,5.966 1.012,0 2.823,-0.182 4.333,-1.702 0.04,-0.041 -0.21,0.99 -0.171,0.948 10e-4,0.021 0.002,0.042 0.003,0.062 0.144,3.675 0.46,12.15 5.293,9.442 -1.17,3.821 -3.066,7.717 -4.103,9.506 -1.489,2.573 -9.429,10.628 -16.361,11.807 -0.93,0.157 -1.855,0.237 -2.753,0.237 z"
           id="path41"
           inkscape:connector-curvature="0"
           style="fill:#ff9b50" />
        <path
           d="m 60.227,336.54 c -3.969,0 -6.854,-2.065 -8.923,-3.864 -1.294,-1.125 -3.905,-6.199 -5.219,-11.911 -0.175,-0.761 -0.329,-1.481 -0.465,-2.169 3.672,-0.752 6.328,-4.717 7.632,-9.036 1.72,1.381 3.665,1.162 5.99,0.084 2.325,-1.078 3.925,-7.644 5.372,-8.908 -0.196,2.931 -0.111,4.776 0,8.306 0.111,3.53 5.833,6.976 10.501,5.011 3.029,8.271 1.243,11.486 0.622,12.559 -1.027,1.773 -7.934,8.813 -13.42,9.746 -0.709,0.121 -1.412,0.182 -2.09,0.182 z"
           id="path43"
           inkscape:connector-curvature="0"
           style="fill:#fcca4d" />
        <path
           d="m 89.185,305.964 c 0,0 3.794,-6.062 0.807,-10.456 0,0 -0.393,3.673 -0.643,5.474 -0.251,1.798 -0.164,4.982 -0.164,4.982 z"
           id="path45"
           inkscape:connector-curvature="0"
           style="fill:#ff9b50" />
        <path
           d="m 41.337,278.183 c 0,0 -3.795,6.061 -0.809,10.456 0,0 0.393,-3.673 0.643,-5.474 0.253,-1.798 0.166,-4.982 0.166,-4.982 z"
           id="path47"
           inkscape:connector-curvature="0"
           style="fill:#ff9b50" />
      </g>
    </g>
  </g>
</svg>
