<?xml version="1.0" encoding="UTF-8" standalone="no"?>
<!-- Created with Inkscape (http://www.inkscape.org/) -->

<svg
   xmlns:dc="http://purl.org/dc/elements/1.1/"
   xmlns:cc="http://creativecommons.org/ns#"
   xmlns:rdf="http://www.w3.org/1999/02/22-rdf-syntax-ns#"
   xmlns:svg="http://www.w3.org/2000/svg"
   xmlns="http://www.w3.org/2000/svg"
   xmlns:sodipodi="http://sodipodi.sourceforge.net/DTD/sodipodi-0.dtd"
   xmlns:inkscape="http://www.inkscape.org/namespaces/inkscape"
   width="64.840057mm"
   height="64.943924mm"
   viewBox="0 0 64.840057 64.943924"
   version="1.1"
   id="svg1780"
   inkscape:version="0.92.3 (2405546, 2018-03-11)"
   sodipodi:docname="tent.svg">
  <defs
     id="defs1774" />
  <sodipodi:namedview
     id="base"
     pagecolor="#ffffff"
     bordercolor="#666666"
     borderopacity="1.0"
     inkscape:pageopacity="0.0"
     inkscape:pageshadow="2"
     inkscape:zoom="0.35"
     inkscape:cx="-444.61046"
     inkscape:cy="374.15726"
     inkscape:document-units="mm"
     inkscape:current-layer="layer1"
     showgrid="false"
     inkscape:window-width="1366"
     inkscape:window-height="703"
     inkscape:window-x="0"
     inkscape:window-y="0"
     inkscape:window-maximized="1" />
  <metadata
     id="metadata1777">
    <rdf:RDF>
      <cc:Work
         rdf:about="">
        <dc:format>image/svg+xml</dc:format>
        <dc:type
           rdf:resource="http://purl.org/dc/dcmitype/StillImage" />
        <dc:title></dc:title>
      </cc:Work>
    </rdf:RDF>
  </metadata>
  <g
     inkscape:label="Layer 1"
     inkscape:groupmode="layer"
     id="layer1"
     transform="translate(-112.72283,-182.88518)">
    <g
       transform="matrix(0.26458333,0,0,0.26458333,111.20569,181.49078)"
       id="Tent">
      <path
         d="m 210.001,228.124 c 0.056,0.847 0.114,1.722 0.062,2.237 -0.124,1.206 -0.385,1.465 -0.388,1.468 -0.193,-0.009 -0.386,-0.027 -0.692,-0.114 -3.979,-1.12 -7.853,-1.271 -11.117,-1.271 -1.354,0 -2.708,0.03 -4.061,0.061 -1.326,0.03 -2.653,0.06 -3.978,0.06 -1.033,0 -2.064,-0.019 -3.095,-0.069 -4.632,-0.232 -8.645,-0.345 -14.012,-0.463 -0.448,-0.01 -0.913,-0.015 -1.386,-0.015 -1.838,0 -3.789,0.067 -5.673,0.132 l -2.137,0.069 c -7.88,0.226 -18.247,0.505 -28.559,0.669 l -0.263,0.002 c -1.56,0 -3.066,-0.224 -4.353,-0.646 -0.473,-0.155 -0.734,-0.329 -0.846,-0.428 0.028,-0.065 0.081,-0.167 0.183,-0.308 1.403,-1.938 0.435,-6.68 -0.187,-8.242 -0.169,-0.424 -2.376,-12.52 -3.652,-12.761 l -0.164,-0.031 -0.239,-0.006 c -2.064,0 -4.784,15.21 -5.061,17.089 -0.088,0.603 0.073,1.18 0.457,1.624 0.227,0.263 0.74,0.705 1.622,0.705 0.106,0 0.211,-0.006 0.319,-0.018 -1.197,1.255 -2.352,2.817 -2.83,4.717 -0.74,2.935 -1.084,5.42 -1.389,7.612 -0.153,1.104 -0.302,2.172 -0.492,3.249 -0.203,1.141 -0.64,2.325 -1.082,3.435 -0.315,0.79 -0.703,1.761 -0.928,2.056 -0.026,0.002 -0.064,0.004 -0.114,0.004 -0.504,0 -1.384,-0.168 -2.604,-0.402 l -0.318,-0.062 c -2.101,-0.401 -4.437,-0.61 -6.944,-0.619 -5.176,-0.022 -9.674,-1.496 -13.752,-4.507 -7.182,-5.3 -14.896,-8.174 -23.587,-8.787 -4.624,-0.326 -9.21,-1.58 -13.894,-2.947 -1.438,-0.419 -3.326,-1.267 -4.155,-2.919 -0.033,-0.146 0.015,-0.771 0.047,-1.185 0.105,-1.362 0.282,-3.642 -1.755,-4.609 l 2.941,-5.236 c 0.538,-3.402 0.872,-6.763 0.992,-9.987 0.164,-4.445 0.193,-8.961 0.221,-13.328 0.049,-7.521 0.1,-15.298 0.849,-22.836 0.658,-6.616 0.368,-13.203 0.087,-19.571 -0.17,-3.848 -0.346,-7.828 -0.305,-11.728 0.026,-2.443 0.014,-4.887 0.002,-7.331 -0.017,-3.27 -0.034,-6.651 0.046,-9.962 0.042,-1.683 0.209,-3.348 0.388,-5.109 0.181,-1.776 0.367,-3.612 0.407,-5.456 0.023,-1.046 0.053,-2.095 0.084,-3.144 0.131,-4.491 0.268,-9.134 -0.257,-13.69 C 53.737,89.439 52.768,83.298 51.831,77.359 51.175,73.2 50.497,68.899 49.918,64.668 49.599,62.335 49.366,59.928 49.14,57.6 48.862,54.722 48.573,51.746 48.118,48.834 l -0.223,-1.401 c -0.594,-3.701 -0.769,-5.011 -0.177,-5.59 0.882,-0.865 3.957,-1.518 6.202,-1.996 L 55,39.613 c 1.193,-0.261 2.389,-0.512 3.585,-0.763 3.321,-0.696 6.758,-1.417 10.102,-2.362 9.43,-2.665 22.926,-6.666 31.226,-10.621 4.884,-2.328 6.993,-3.613 9.03,-4.856 1.364,-0.833 2.653,-1.618 4.759,-2.703 0.287,-0.147 0.685,-0.313 1.134,-0.504 1.512,-0.64 3.393,-1.437 4.586,-2.636 1.12,-1.125 0.942,-2.124 0.735,-2.62 -0.162,-0.392 -0.708,-1.304 -2.24,-1.304 -0.195,0 -0.405,0.014 -0.619,0.039 0.707,-0.216 1.414,-0.432 2.121,-0.648 3.864,-1.18 7.86,-2.4 11.801,-3.532 0.044,-0.013 0.175,-0.043 0.396,-0.043 0.497,0 0.901,0.148 1.007,0.228 4.07,3.039 10.309,5.882 15.894,7.243 1.25,0.305 2.499,0.612 3.748,0.919 -1.234,0.086 -1.769,0.719 -2.002,1.257 -0.161,0.372 -0.431,1.348 0.542,2.386 2.045,2.18 11.433,5.252 26.959,9.823 5.672,1.671 11.791,3.322 18.089,4.069 1.784,0.211 4.072,0.318 6.802,0.318 1.459,0 2.792,-0.031 3.784,-0.063 0.024,0.756 -0.191,2.186 -0.342,3.195 -0.109,0.731 -0.226,1.501 -0.317,2.284 -0.374,3.178 -0.599,5.798 -0.835,8.574 l -0.184,2.127 c -0.699,7.93 -1.411,15.862 -2.141,23.791 -0.014,0.16 -0.058,0.296 -0.098,0.448 -0.222,0.845 -0.409,1.752 -0.265,3.554 0.187,2.327 0.267,5.943 0.208,9.437 -0.048,2.829 -0.169,5.716 -0.287,8.507 -0.182,4.333 -0.37,8.814 -0.292,13.25 0.086,4.94 0.08,9.973 0.074,14.84 -0.008,6.684 -0.018,13.596 0.214,20.402 0.162,4.753 0.566,9.558 0.955,14.204 0.482,5.743 0.98,11.682 1.015,17.492 0.056,9.172 1.337,18.053 2.186,23.929 0.269,1.869 0.481,3.345 0.585,4.355 0.107,1.051 0.208,2.338 0.313,3.708 0.442,5.663 0.797,9.504 1.692,11.232 z"
         id="path2"
         inkscape:connector-curvature="0"
         style="display:inline;fill:#877b6b" />
      <path
         d="m 169.444,135.516 c -2.383,0 -8.42,-1.44 -10.546,-1.996 l -1.254,-0.321 c -3.041,-0.771 -6.487,-1.646 -8.624,-3.29 -1.985,-1.529 -2.244,-5.924 -2.359,-15.59 -0.03,-2.6 -0.061,-5.057 -0.182,-7.094 -0.095,-1.582 -0.476,-3.71 -0.813,-5.589 -0.412,-2.29 -0.623,-3.521 -0.56,-4.326 0.073,-0.927 0.833,-1.866 2.141,-1.866 1.198,0 3.042,0.797 6.961,2.615 2.006,0.93 4.081,1.892 5.39,2.315 1.38,0.447 3.276,0.834 5.109,1.209 3.714,0.76 5.538,1.168 6.391,2.149 0.888,1.021 0.912,2.77 0.629,9.223 -0.107,2.424 -0.217,4.93 -0.155,6.732 0.044,1.267 0.173,2.903 0.309,4.635 0.628,7.993 0.721,10.547 -1.514,11.098 -0.265,0.066 -0.558,0.096 -0.923,0.096 z m -83.721,4.418 c 2.213,0 7.181,-1.621 8.65,-2.118 2.629,-0.889 5.267,-2.014 8.551,-3.646 0.556,-0.278 1.217,-0.577 1.899,-0.887 3.303,-1.5 5.194,-2.422 5.652,-3.903 0.335,-1.085 0.089,-2.906 -0.548,-6.801 -0.125,-0.762 -0.246,-1.5 -0.354,-2.237 -0.901,-6.16 -1.752,-11.979 -1.226,-17.904 l 0.02,-0.163 c 0.072,-0.538 0.22,-1.657 -0.568,-2.556 -0.35,-0.399 -1,-0.874 -2.118,-0.874 -0.139,0 -0.289,0.007 -0.451,0.023 -1.094,0.109 -3.835,1.215 -10.297,3.904 l -2.298,0.954 c -0.692,0.287 -1.577,0.593 -2.515,0.917 -3.353,1.158 -5.129,1.826 -5.683,3.208 -0.398,0.99 -0.367,2.69 -0.21,6.068 0.034,0.732 0.067,1.434 0.082,2.024 0.026,1.141 0.08,2.387 0.136,3.678 0.122,2.851 0.247,5.797 0.132,8.297 -0.069,1.499 -0.466,3.423 -0.816,5.121 -0.744,3.612 -1.236,5.998 0.871,6.733 0.314,0.108 0.669,0.162 1.091,0.162 z"
         id="path4"
         inkscape:connector-curvature="0"
         style="fill:#adadaa" />
      <path
         d="m 122.156,225.817 c -0.17,1.153 4.663,-1.749 5.439,-0.661 0.777,1.088 -4.829,3.582 -5.907,7.863 -1.078,4.281 -1.276,7.47 -1.854,10.735 -0.229,1.292 -0.693,2.56 -1.181,3.785 -1.457,3.651 -1.465,3.553 -5.964,2.693 -2.166,-0.415 -4.408,-0.579 -6.615,-0.588 -5.483,-0.023 -10.34,-1.558 -14.808,-4.857 -6.703,-4.946 -14.17,-7.843 -22.65,-8.441 -4.811,-0.338 -9.608,-1.654 -14.269,-3.015 -2.238,-0.653 -4.267,-1.867 -5.254,-3.834 -0.646,-1.288 0.679,-4.243 -0.875,-4.98 -1.555,-0.738 -12.824,2.851 -19.266,3.946 -6.238,1.059 -16.722,3.824 -18.036,3.842 -1.313,0.018 -1.361,-4.534 -2.02,-6.839 -0.51,-1.779 -3.186,-1.282 -1.787,-3.341 1.398,-2.06 4.62,-2.711 7.149,-2.021 2.529,0.691 -0.268,1.503 -0.039,2.875 0.247,1.487 -0.072,3.722 1.437,4.015 1.508,0.294 20.319,-4.223 30.192,-6.316 1.921,-0.407 3.977,-1.173 4.312,-3.294 0.515,-3.259 0.849,-6.512 0.97,-9.774 0.448,-12.093 -0.117,-24.268 1.078,-36.275 1.042,-10.477 -0.336,-20.766 -0.225,-31.14 0.061,-5.773 -0.091,-11.549 0.048,-17.318 0.085,-3.525 0.716,-7.038 0.794,-10.561 0.119,-5.531 0.469,-11.125 -0.161,-16.589 -1.189,-10.31 -3.11,-20.533 -4.516,-30.821 -0.719,-5.251 -0.979,-10.591 -1.796,-15.798 -0.815,-5.206 -1.3,-7.159 0.117,-8.548 1.417,-1.389 5.135,-2.038 8.15,-2.697 4.537,-0.993 9.12,-1.837 13.583,-3.099 9.735,-2.751 22.85,-6.657 30.943,-10.514 8.092,-3.856 8.418,-4.796 13.739,-7.534 1.166,-0.6 3.971,-1.504 5.271,-2.811 1.3,-1.307 -1.054,-1.027 -3.918,0.072 -2.865,1.098 -26.151,8.906 -40.273,11.706 -17.365,3.445 -34.808,6.491 -52.224,9.667 -3.144,0.573 -3.928,1.025 -6.363,1.802 -2.435,0.777 -4.422,1.037 -5.872,1.296 C 8.519,38.624 8.78,36.129 7.964,32.826 7.148,29.524 5.237,30.798 5.855,28.98 c 0.618,-1.818 4.013,-3.38 7.083,-2.37 3.07,1.01 0.301,1.478 0.169,2.759 -0.13,1.282 -0.228,3.866 1.851,3.457 2.079,-0.408 9.126,-1.9 13.405,-2.691 16.733,-3.096 33.562,-5.763 50.173,-9.41 10.99,-2.412 21.679,-6.204 32.492,-9.419 6.573,-1.954 13.11,-4.031 19.7,-5.923 0.89,-0.255 2.247,-0.069 2.969,0.47 3.748,2.799 9.64,5.573 15.247,6.939 15.254,3.717 30.446,7.722 45.783,11.052 6.874,1.492 13.793,2.633 20.857,3.794 7.064,1.162 8.223,1.583 12.319,2.496 1.723,0.382 6.817,1.461 8.548,1.794 2.587,0.498 3.258,-2.176 4.755,-4.811 1.157,-2.034 -1.57,-5.06 1.476,-4.702 3.046,0.358 6.338,2.582 7.849,4.974 1.511,2.392 -3.832,1.522 -4.546,2.292 -1.172,1.263 -1.445,2.364 -2.44,3.749 -2.487,3.454 -0.385,3.959 -4.963,2.846 -5.146,-1.253 -12.306,-3.063 -17.485,-4.163 -7.549,-1.604 -15.15,-2.956 -22.702,-4.545 -9.718,-2.049 -19.424,-4.156 -29.105,-6.375 -5.97,-1.369 -19.256,-5.542 -17.176,-3.323 2.08,2.219 16.952,6.62 26.158,9.33 5.88,1.733 11.791,3.296 17.795,4.008 3.546,0.42 8.457,0.312 10.752,0.228 2.294,-0.083 1.207,3.53 0.74,7.493 -0.466,3.963 -0.704,7.137 -1.013,10.648 -0.699,7.934 -1.411,15.868 -2.142,23.799 -0.08,0.873 -0.55,1.339 -0.36,3.694 0.189,2.356 0.273,6.041 0.212,9.611 -0.121,7.232 -0.704,14.46 -0.578,21.696 0.207,11.737 -0.111,23.486 0.289,35.213 0.36,10.594 1.907,21.161 1.97,31.747 0.073,12.024 2.331,23.881 2.762,28.113 0.431,4.233 0.753,12.249 1.814,14.298 1.061,2.049 1.378,1.74 5.526,3.217 6.786,2.417 22.449,5.85 24.625,6.212 2.176,0.361 2.859,-0.534 3.427,-2.246 0.569,-1.712 -1.446,-3.019 -0.028,-3.058 1.418,-0.039 2.858,0.299 3.984,0.912 1.35,0.734 2.053,1.334 2.544,2.623 0.491,1.29 -1.129,-0.383 -2.945,3.043 -1.815,3.426 0.893,5.668 -2.112,4.736 -3.005,-0.933 -16.786,-5.067 -22.658,-5.977 -3.428,-0.531 -9.466,-3.071 -10.59,-2.886 -1.125,0.184 -0.243,4.305 -0.438,6.218 -0.256,2.491 -1.196,3.5 -3.345,2.896 -7.223,-2.034 -14.573,-0.792 -21.856,-1.156 -4.85,-0.242 -9.11,-0.354 -13.961,-0.461 -2.836,-0.064 -6.263,0.104 -9.106,0.187 -9.527,0.272 -19.053,0.518 -28.582,0.669 -1.738,0.028 -3.56,-0.194 -5.202,-0.733 -1.484,-0.488 -2.929,-1.592 -1.554,-3.488 0.948,-1.31 -0.071,-7.21 -1.03,-7.391 -0.963,-0.181 -4.886,3.599 -5.056,4.752 z m 40.692,-10.348 c 4.274,1.477 12.641,3.721 16.881,4.9 5.023,1.397 11.042,2.903 16.431,4.115 5.389,1.211 9.896,2.228 9.688,0.673 -0.208,-1.555 0.092,-2.403 -1.263,-2.877 -1.355,-0.475 -23.788,-4.911 -29.305,-6.025 -5.517,-1.113 -9.089,-2.469 -14.321,-4.075 -5.232,-1.607 -13.568,-4.299 -13.416,-2.668 0.154,1.631 11.031,4.481 15.305,5.957 z m -40.11,-17.199 c 2.221,-0.891 2.44,-1.654 2.444,-3.618 0.017,-6.392 0.01,-12.784 0.179,-19.172 0.093,-3.518 0.627,-7.022 0.779,-10.541 0.305,-7.064 0.524,-14.132 0.704,-21.201 0.127,-5.033 0.153,-10.07 0.188,-15.106 0.035,-5.286 -0.152,-10.578 0.073,-15.854 0.374,-8.77 1.102,-17.525 1.488,-26.296 0.347,-7.913 0.612,-15.836 0.592,-23.754 -0.019,-8.606 -0.364,-17.212 -0.655,-25.814 -0.156,-4.617 -0.508,-9.227 -0.755,-13.84 -0.122,-2.288 -0.101,-6.797 -1.811,-6.409 -1.709,0.389 -4.564,3.055 -7.518,4.76 -2.955,1.705 -10.17,5.642 -15.542,7.511 -11.877,4.131 -23.95,7.695 -35.883,11.672 -5.129,1.708 -13.131,3.255 -14.181,5.975 -1.049,2.72 2.105,11.186 2.263,17.055 0.314,11.662 2.711,23.276 2.897,34.931 0.234,14.75 2.172,29.451 0.764,44.275 -1.168,12.284 -1.321,24.667 -1.871,37.008 -0.49,10.996 -0.933,21.993 -1.322,32.992 -0.051,1.468 -0.824,5.212 2.534,4.26 3.358,-0.952 37.458,-10.61 56.958,-16.167 0.69,-0.196 5.455,-1.776 7.675,-2.667 z m 9.22,-185.012 c -1.876,0.338 -0.401,10.268 -0.253,14.853 0.185,5.74 0.996,11.464 1.059,17.201 0.144,13.261 0.559,26.515 -0.719,39.781 -0.884,9.171 -0.808,18.438 -1.124,27.663 -0.148,4.374 -0.505,8.769 -0.231,13.121 0.261,4.154 0.48,8.253 -0.037,12.401 -0.245,1.967 -0.178,20.047 -0.275,27.076 -0.137,9.937 -2.029,19.802 -1.125,29.8 0.309,3.407 1.011,4.536 3.599,5.656 1.552,0.673 6.968,1.823 5.544,0.725 -1.424,-1.098 -4.227,-2.154 -5.803,-4.196 -0.915,-1.187 -1.608,-1.803 -1.339,-3.685 0.173,-1.212 1.288,-5.9 1.858,-4.813 0.569,1.088 0.584,5.392 1.527,6.924 1.897,3.082 5.227,4.494 8.959,5.652 5.049,1.567 9.852,3.909 14.867,5.598 9.213,3.102 20.271,6.143 27.67,7.469 7.399,1.328 7.847,1.471 11.516,2.293 2.077,0.463 5.354,1.784 5.164,0.493 -0.189,-1.292 -1.263,-4.515 -2.409,-7.615 -2.641,-7.137 -3.066,-20.403 -3.193,-21.907 -0.128,-1.504 -0.233,-3.045 0.538,-3.021 0.771,0.022 0.778,0.921 0.83,1.421 0.261,2.604 0.615,5.211 0.924,7.807 0.571,4.804 1.415,9.546 3.088,14.565 0.582,1.744 1.467,3.716 2.05,4.67 0.583,0.954 0.686,-1.14 -0.402,-9.066 -1.088,-7.926 -2.216,-13.731 -3.004,-22.276 -0.402,-4.346 -0.502,-7.974 -0.716,-12.341 -0.248,-5.07 -0.758,-10.126 -1.054,-15.193 -0.155,-2.656 0.03,-5.332 -0.158,-7.983 -0.623,-8.802 -1.472,-17.592 -1.993,-26.399 -0.496,-8.344 0.761,-16.648 0.084,-25.073 -1.296,-16.15 1.682,-32.127 3.38,-48.143 0.318,-3.01 1.165,-9.252 0.046,-9.646 -1.118,-0.394 -5.883,-0.59 -8.712,-0.625 -5.153,-0.062 -9.609,-1.301 -14.821,-3.041 -5.211,-1.741 -8.237,-3.274 -12.483,-4.481 -4.719,-1.341 -9.057,-3.413 -13.361,-5.675 -6.033,-3.172 -17.615,-10.328 -19.491,-9.99 z m -65.78,215.786 c 8.3,1.567 16.306,3.811 23.067,8.332 6.385,4.27 13.264,5.75 20.46,6.83 2.551,0.382 3.722,-0.586 4.253,-3.046 0.464,-2.147 0.658,-4.354 1.168,-6.488 2.337,-9.806 7.521,-28.319 7.573,-30.288 0.052,-1.968 -9.33,5.618 -14.074,8.168 -13.678,7.357 -27.985,11.966 -42.447,16.492 z m 68.592,-3.627 c 2.515,0.389 19.844,0.631 25.509,0.961 9.31,0.542 22.235,1.283 26.919,1.059 2.187,-0.104 2.28,-1.169 0.103,-1.554 -6.839,-1.207 -15.741,-3.312 -22.902,-6.194 -1.23,-0.496 -2.175,-1.259 -7.3,-2.354 -5.125,-1.095 -15.389,-4.775 -23.889,-10.096 -0.992,-0.621 -2.2,-0.896 -4.02,-1.607 0.752,3.688 0.656,7.282 1.101,10.754 0.364,2.846 1.964,8.642 4.479,9.031 z m -23.675,-18.443 c 2.513,-1.214 0,-1.295 -3.575,-0.259 -3.575,1.037 -20.594,6.264 -31.602,9.478 -6.362,1.858 -12.677,3.878 -19.036,5.753 -2.266,0.668 -2.253,3.732 0.274,3.939 2.528,0.207 8.018,-1.146 14.641,-3.052 8.38,-2.412 18.186,-6.009 26.693,-9.884 4.926,-2.244 10.091,-4.761 12.605,-5.975 z m 14.893,6.895 c -0.699,-1.865 -1.218,1.828 -2.461,4.314 -1.244,2.486 2.876,0.063 3.342,-0.273 0.466,-0.336 -0.182,-2.176 -0.881,-4.041 z"
         id="path6"
         inkscape:connector-curvature="0" />
      <path
         d="m 144.381,92.697 c 1.825,-1.393 6.008,0.82 8.635,2.182 4.562,2.365 9.279,3.766 14.374,4.316 1.841,0.199 3.651,1.246 5.335,2.162 1.661,0.903 2.343,2.292 2.025,4.42 -1.119,7.497 -0.894,15.005 0.461,22.471 0.078,0.435 0.083,0.882 0.116,1.324 0.517,6.698 -1.813,9.103 -8.368,8.453 -6.425,-0.636 -12.55,-2.421 -18.295,-5.37 -0.886,-0.457 -2.226,-1.098 -3.119,-3.429 -0.894,-2.331 -0.932,-4.987 -1.01,-12.86 -0.077,-7.874 -0.388,-10.258 -1.243,-15.853 -0.854,-5.596 -0.735,-6.424 1.089,-7.816 z m 25.365,12.211 c -0.849,-0.977 -7.187,-1.691 -10.7,-2.83 -3.674,-1.187 -12.055,-5.901 -12.156,-4.627 -0.101,1.274 1.183,6.426 1.375,9.666 0.431,7.208 -0.269,19.743 1.847,21.373 2.117,1.629 6.059,2.467 9.238,3.298 3.38,0.882 9.375,2.192 10.588,1.894 1.213,-0.298 0.005,-9.366 -0.155,-13.931 -0.166,-4.763 0.812,-13.867 -0.037,-14.843 z"
         id="path8"
         inkscape:connector-curvature="0" />
      <path
         d="m 196.811,39.996 c 1.162,0.89 -3.736,1.398 -4.748,1.449 -1.493,0.071 -9.269,-0.817 -10.149,-2.269 -0.88,-1.452 5.404,-0.287 8.288,-0.282 2.882,0.005 5.446,0.212 6.609,1.102 z"
         id="path10"
         inkscape:connector-curvature="0" />
      <path
         d="m 195.98,45.203 c 0.225,1.133 0.702,3.164 0.702,4.78 0,1.628 -0.264,4.477 -1.196,6.509 -0.933,2.034 -1.077,-1.254 -1.332,-2.334 -0.255,-1.082 -0.567,-2.342 -0.504,-4.231 0.046,-1.349 0.023,-3.535 0.593,-5.933 0.569,-2.399 1.512,0.076 1.737,1.209 z"
         id="path12"
         inkscape:connector-curvature="0" />
      <path
         d="m 81.205,143.25 c -1.839,-0.308 -0.495,-7.329 0.102,-10.5 1.294,-6.849 0.516,-12.951 0.44,-19.804 -0.024,-2.289 -1.397,-8.134 1.503,-8.911 2.901,-0.777 5.175,-1.367 8.323,-2.313 4.854,-1.458 9.517,-3.51 14.183,-5.587 3.177,-1.413 6.78,-0.007 6.316,1.541 -0.463,1.549 -1.339,6.417 -1.318,9.461 0.031,4.696 1.254,9.456 1.538,14.209 0.182,3.04 0.369,6.096 0.223,9.131 -0.043,0.893 -1.036,2.048 -1.902,2.543 -5.748,3.288 -11.635,6.202 -18.139,8.11 -3.548,1.041 -9.43,2.428 -11.269,2.12 z m 24.205,-42.602 c -1.092,0.109 -6.562,2.441 -12.088,4.731 -2.418,1.002 -6.824,2.146 -7.222,3.137 -0.398,0.992 -0.056,5.041 0,7.383 0.087,3.633 0.438,8.356 0.267,12.101 -0.178,3.883 -2.229,9.702 -1.144,10.081 1.085,0.379 5.904,-1.058 8.577,-1.96 2.933,-0.992 5.672,-2.234 8.327,-3.554 2.302,-1.145 6.315,-2.67 6.638,-3.715 0.323,-1.045 -0.547,-5.412 -0.95,-8.161 -0.908,-6.209 -1.798,-12.246 -1.25,-18.412 0.055,-0.628 0.414,-1.788 -1.155,-1.631 z"
         id="path14"
         inkscape:connector-curvature="0" />
      <path
         d="m 122.933,20.745 c 1.612,-0.097 1.31,2.479 1,5.452 -0.29,2.756 -1.206,10.906 -1.792,9.633 -0.587,-1.272 -0.885,-5.37 -0.59,-7.622 0.186,-1.414 1.247,-4.161 0.082,-4.316 -1.166,-0.155 -3.303,2.059 -4.391,2.312 -1.088,0.252 -3.095,1.957 -3.011,1.049 0.082,-0.908 7.09,-6.411 8.702,-6.508 z"
         id="path16"
         inkscape:connector-curvature="0" />
      <path
         d="m 111.835,193.533 c -1.697,-0.454 -4.004,-0.786 -5.211,-1.619 -1.206,-0.831 1.702,-1.341 4.23,-0.708 2.528,0.634 4.2,1.916 4.449,2.406 0.249,0.491 -1.772,0.376 -3.468,-0.079 z"
         id="path18"
         inkscape:connector-curvature="0" />
      <path
         d="m 117.899,197.894 c -3.056,0.784 -4.321,1.435 -7.529,1.947 -3.208,0.515 -7.057,1.984 -6.407,0.76 0.65,-1.227 1.647,-1.631 6.382,-3.109 4.734,-1.478 6.461,-1.879 7.733,-3.215 1.272,-1.335 1.617,-2.378 1.772,-5.797 0.155,-3.419 1.752,-6.644 2.384,-5.647 0.631,1 0.862,5.806 0.881,7.227 0.033,2.351 0.492,5.519 -0.204,6.375 -0.697,0.853 -1.956,0.678 -5.012,1.459 z"
         id="path20"
         inkscape:connector-curvature="0" />
    </g>
  </g>
</svg>
