<?xml version="1.0" encoding="UTF-8" standalone="no"?>
<svg
   xmlns:dc="http://purl.org/dc/elements/1.1/"
   xmlns:cc="http://creativecommons.org/ns#"
   xmlns:rdf="http://www.w3.org/1999/02/22-rdf-syntax-ns#"
   xmlns:svg="http://www.w3.org/2000/svg"
   xmlns="http://www.w3.org/2000/svg"
   xmlns:sodipodi="http://sodipodi.sourceforge.net/DTD/sodipodi-0.dtd"
   xmlns:inkscape="http://www.inkscape.org/namespaces/inkscape"
   sodipodi:docname="beartrap.svg"
   inkscape:version="1.0 (4035a4fb49, 2020-05-01)"
   id="svg1679"
   version="1.1"
   viewBox="0 0 33.572972 33.572971"
   height="33.572971mm"
   width="33.572971mm">
  <defs
     id="defs1673" />
  <sodipodi:namedview
     inkscape:window-maximized="1"
     inkscape:window-y="-8"
     inkscape:window-x="-8"
     inkscape:window-height="1356"
     inkscape:window-width="3440"
     showgrid="false"
     inkscape:document-rotation="0"
     inkscape:current-layer="layer1"
     inkscape:document-units="mm"
     inkscape:cy="63.413685"
     inkscape:cx="169.78367"
     inkscape:zoom="7.9195959"
     inkscape:pageshadow="2"
     inkscape:pageopacity="0.0"
     borderopacity="1.0"
     bordercolor="#666666"
     pagecolor="#ffffff"
     id="base" />
  <metadata
     id="metadata1676">
    <rdf:RDF>
      <cc:Work
         rdf:about="">
        <dc:format>image/svg+xml</dc:format>
        <dc:type
           rdf:resource="http://purl.org/dc/dcmitype/StillImage" />
        <dc:title></dc:title>
      </cc:Work>
    </rdf:RDF>
  </metadata>
  <g
     transform="translate(-89.802803,-83.5174)"
     id="layer1"
     inkscape:groupmode="layer"
     inkscape:label="Layer 1">
    <g
       transform="matrix(0.26458333,0,0,0.26458333,55.79523,83.966042)"
       id="g126">
      <path
         style="fill:#adadaa"
         d="m 243.721,84.381 c -2.021,0 -2.745,-2.444 -2.845,-3.735 -0.092,-1.187 0.896,-3.425 2.072,-4.695 1.068,-1.154 2.11,-1.396 2.797,-1.396 l 0.188,0.006 c 1.035,0.064 1.865,0.597 2.278,1.46 1.036,2.168 -0.938,5.341 -1.834,6.604 -0.308,0.434 -1.246,1.756 -2.656,1.756 z m 7.405,-20.734 c -0.569,0 -1.412,-0.232 -2.198,-1.338 -0.958,-1.348 -1.579,-3.714 -0.913,-5.628 0.59,-1.694 1.937,-2.833 3.351,-2.833 1.2,0 2.16,0.832 2.446,2.118 0.413,1.856 0.45,5.412 -1.204,7.054 -0.408,0.404 -0.934,0.627 -1.482,0.627 z M 228.624,31.356 c -1.563,0 -4.352,-0.829 -5.305,-2.328 -0.435,-0.683 -0.494,-1.479 -0.165,-2.183 0.622,-1.338 2.083,-2.139 3.908,-2.139 1.22,0 2.845,0.38 3.746,1.445 0.841,0.994 1.144,2.152 0.833,3.177 -0.279,0.919 -1.029,1.615 -2.058,1.909 -0.283,0.08 -0.596,0.119 -0.959,0.119 0,0 0,0 0,0 z m 16.643,12.094 c -1.261,0 -2.428,-0.992 -3.011,-1.583 -0.594,-0.602 -1.972,-2.213 -1.946,-4.169 0.036,-2.646 1.918,-2.78 2.295,-2.78 0.884,0 1.852,0.459 3.138,1.488 1.01,0.808 1.716,2.194 1.845,3.618 0.098,1.093 -0.169,2.063 -0.752,2.733 -0.39,0.446 -0.947,0.693 -1.569,0.693 z m -49.713,9.893 c -0.956,0 -1.795,-0.492 -2.245,-1.316 -0.515,-0.943 -0.443,-2.139 0.188,-3.12 0.094,-0.145 9.864,-14.494 12.851,-14.494 h 0.097 l 0.137,0.016 c 1.003,0.136 1.836,0.688 2.409,1.598 0.989,1.573 1.006,4.011 0.521,5.507 -0.425,1.309 -1.247,1.816 -1.973,2.264 -0.483,0.298 -1.031,0.636 -1.707,1.343 -0.068,0.071 -6.827,7.1 -9.109,7.975 -0.395,0.15 -0.788,0.227 -1.169,0.227 z m -34.096,36.282 c -1.956,-0.057 -2.971,-0.83 -3.289,-2.504 -0.355,-1.867 1.45,-3.387 3.171,-4.665 0.393,-0.292 0.749,-0.55 1.085,-0.793 1.19,-0.864 2.05,-1.487 3.423,-2.777 0.323,-0.304 0.661,-0.646 1.013,-1.004 1.788,-1.811 4.013,-4.064 6.853,-4.136 l 0.185,-0.002 c 1.923,0 2.577,0.867 2.787,1.593 0.833,2.878 -6.127,7.311 -6.424,7.498 -1.195,0.754 -2.647,2.171 -3.928,3.421 -2.269,2.214 -3.514,3.37 -4.814,3.37 z"
         id="path100" />
      <path
         style="fill:#3c3c3d"
         d="m 239.992,63.519 c -4.857,-5.163 -9.571,-7.754 -4.384,-15.021 1.499,-2.094 -5.436,-4.493 -6.836,-5.681 -5.47,-1.955 -9.036,-12.686 -13.984,-16.844 -6.359,-4.232 -16.074,-5.928 -15.855,-14.904 0.064,-2.64 -1.308,-5.588 -4.207,-3.388 -10.709,8.129 -10.683,8.934 -20.063,-2.615 -4.792,8.551 -5.174,21.72 -16.379,9.936 0.174,7.843 0.013,12.456 -2.131,14.262 -2.074,1.749 -5.226,-2.438 -13.81,-2.829 -6.997,-0.319 1.179,11.315 1.41,13.583 0.656,6.431 -6.886,7.521 -11.235,9.704 8.813,9.991 9.825,9.589 -0.189,22.381 -3.474,4.438 2.422,4.616 5.793,6.619 3.587,2.131 7.516,9.318 9.433,12.848 5.469,10.065 11.689,5.758 19.013,12.316 3.845,3.443 4.099,9.648 7.621,13.401 -0.666,-0.709 0.605,-0.323 0,0 4.853,-2.591 7.257,-8.797 13.647,-8.797 2.568,0 11.497,9.41 12.99,6.784 2.493,-4.382 -0.565,-11.902 5.001,-14.862 3.444,-1.832 8.323,1.357 12.009,1.212 -0.086,-14.689 1.164,-16.189 14.143,-17.436 -0.691,-4.927 -4.328,-8.355 -1.645,-13.409 1.916,-3.611 7.104,-4.234 9.658,-7.26 z M 216.88,60.48 c -0.859,3.959 -1.393,9.077 -3.564,12.505 -2.284,3.606 -5.044,7.071 -7.952,10.219 -3.073,3.332 -5.196,4.666 -8.411,7.852 -2.834,2.804 -7.059,4.988 -13.235,6.373 -6.176,1.385 -13.202,0.112 -15.149,-0.082 -2.386,-0.238 -3.761,0.239 -9.406,-4.381 -5.645,-4.62 -5.561,-6.733 -6.113,-10.114 -0.683,-4.18 -0.141,-8.67 -0.123,-12.888 0.02,-4.698 -0.306,-8.805 0.562,-13.422 0.319,-1.696 3.407,-9.121 4.355,-10.857 1.757,-3.218 4.408,-7.458 7.666,-9.276 1.749,-0.976 8.944,-4.956 10.829,-5.615 8.899,-3.115 16.647,-5.105 26.154,-2.946 4.45,1.012 5.312,4.28 8.389,7.074 3.266,2.964 4.906,7.968 5.626,12.178 0.722,4.23 1.286,9.169 0.372,13.38 z m -32.414,15.545 c -2.785,0 -5.152,-1.264 -6.665,-3.559 -2.053,-3.114 -2.301,-7.845 -0.617,-11.772 1.348,-3.143 4.596,-6.819 9.315,-6.839 h 0.139 c 3.436,0 4.262,0.606 5.749,2.339 0.197,0.23 0.417,0.486 0.677,0.771 2.059,2.253 2.727,4.31 3.651,7.156 l 0.159,0.487 c 0.494,1.514 0.295,3.128 -0.575,4.667 -1.905,3.37 -6.734,5.848 -9.397,6.461 -0.839,0.191 -1.657,0.289 -2.436,0.289 z"
         id="path102" />
      <g
         id="g124">
        <path
           style="clip-rule:evenodd;fill-rule:evenodd"
           d="m 237.987,36.261 c -1.11,-3.252 -6.342,-3.634 -9.035,-3.634 -1.007,0.074 1.086,0 0,0 -0.932,0.068 -4.07,-0.354 -3.99,1.297 0.082,1.69 0.702,3.279 1.586,4.705 0.955,1.54 1.703,1.699 3.339,2.294 1.483,0.539 8.813,5.302 8.696,6.72 -0.117,1.418 -5.031,5.664 -3.086,8.484 1.761,2.557 4.611,4.18 6.461,6.349 2.512,2.945 -8.517,7.056 -9.716,9.315 -1.21,2.28 -1.274,3.63 0.091,6.56 1.365,2.93 2.375,6.625 1.542,7.5 -0.833,0.875 -11.417,1.063 -12.832,3.003 -1.833,2.515 -0.567,12.529 -1.252,14.304 -0.685,1.775 -13.212,-0.439 -14.391,-3.683 -1.179,-3.244 10.299,0.289 11.267,-0.125 0.968,-0.414 -0.5,-4.462 -0.497,-6.052 0.005,-2.45 0.81,-4.142 1.818,-6.316 0.515,-1.115 1.546,-1.594 2.196,-2.575 0.642,-0.97 0.515,-2.034 0.704,-3.121 0.48,-2.771 3.045,-3.776 5.32,-4.609 1.813,-0.667 1.607,-6.055 2.542,-7.619 1.341,-2.245 7.958,-5.167 7.875,-6.042 -0.083,-0.875 -0.992,-1.028 -3.303,-2.981 -1.153,-0.975 -2.855,-2.576 -3.219,-4.108 -0.427,-1.796 -2.606,-6.484 -2.021,-7.635 0.585,-1.151 1.902,0.681 2.999,1.516 1.252,0.954 3.919,-1.25 3.086,-2.417 -0.833,-1.167 -4.586,-2.252 -6.031,-1.635 -4.211,1.793 -5.013,-3.283 -6.602,-6.332 -1.885,-3.618 -3.133,-6.765 -6.8,-8.75 -1.462,-0.791 -2.184,-2.314 -3.32,-3.461 -1.568,-1.582 -3.751,-3.1 -5.799,-3.98 -4.315,-1.855 -7.593,-1.41 -8.128,-6.813 -0.283,-2.863 0.376,-8.629 -3.899,-5.708 -5.347,3.653 2.415,3.696 1.409,7.364 -0.673,2.457 -6.324,-2.285 -8.091,-1.552 -1.264,0.526 -2.027,1.595 -3.558,1.356 -1.996,-0.311 -5.847,0.303 -8.514,2.011 -2.667,1.708 -4.171,3.847 -5.335,4.611 -1.164,0.764 -8.123,-5.111 -8.998,-4.569 -0.875,0.542 -1.223,4.483 -1,7.833 0.357,5.372 -4.125,6.917 -6.188,6.417 -2.063,-0.5 -2.598,-2.193 -5.643,-3.825 -3.045,-1.632 -10.191,-4.992 -3.878,-4.95 6.313,0.042 9.84,4.209 11.554,2.633 1.216,-1.118 0.845,-6.797 0.895,-8.44 0.063,-2.066 -0.782,-6.626 1.093,-7.709 1.875,-1.083 8.029,11.162 10.768,4.206 1.975,-5.016 4.315,-13.539 6.357,-13.789 2.042,-0.25 6.223,9.656 9.946,10.074 2.417,0.271 5.029,-3.017 6.638,-4.471 2.368,-2.14 3.236,-2.972 6.396,-2.729 6.901,0.533 1.014,9.374 5.609,11.664 4.682,2.341 8.785,4.547 13.159,7.476 4.916,3.292 8.948,-4.119 13.927,-0.434 2.061,1.525 3.803,2.706 5.742,4.454 2.713,2.447 3.914,2.428 7.271,3.227 1.44,0.343 4.2,1.78 4.437,3.526 0.389,2.919 2.298,5.32 2.687,8.173 0.738,5.434 4.512,9.201 5.085,14.642 0.213,2.014 -0.023,4.405 -1.636,5.822 -2.653,2.334 -3.055,5.009 -4.043,8.266 -0.705,2.327 0.644,5.338 0.626,7.777 -0.019,2.246 -2.178,5.819 -4.896,6.131 -2.718,0.312 -2.404,3.651 -5.216,4.463 -2.812,0.812 -0.361,-3.868 -0.375,-4.75 -0.049,-3.182 -1.93,-5.218 -0.503,-8.495 1.2,-2.757 3.775,-3.852 5.755,-5.893 1.417,-1.459 2.476,-4.183 2.08,-6.233 -0.821,-4.254 -1.731,-7.347 0.27,-11.43 1.319,-2.692 0.724,-5.34 -1.833,-7.143 -1.379,-0.972 -3.8,-2.23 -5.582,-4.036 -1.782,-1.806 -2.016,-6.129 -2.016,-6.129 z M 173.833,17.31 c 2.163,-0.742 6.021,-1.78 5.021,-3.903 -0.771,-1.633 -1.942,-4.49 -3.521,-5.389 -2.027,-1.152 -2.611,5.161 -2.831,6.032 10e-4,0.318 -0.831,4.002 1.331,3.26 z m 71.37,64.482 c 2.001,-2.82 2.641,-5.669 0.641,-5.794 -2,-0.125 -3.604,3.597 -3.532,4.537 0.072,0.94 0.89,4.077 2.891,1.257 z m -17.804,1.464 c 1.158,-0.198 2.345,-0.236 2.586,-1.654 0.171,-1.007 -0.73,-2.364 -1.886,-2.139 -3.069,0.602 -5.466,4.391 -0.7,3.793 0.414,-0.07 -0.841,0.106 0,0 z m 25.007,-26.977 c -0.375,-1.688 -2.343,-1.103 -3.031,0.875 -0.824,2.368 1.094,5.96 2.219,4.844 1.125,-1.116 1.187,-4.032 0.812,-5.719 z M 229.708,27.081 c -0.96,-1.135 -4.386,-1.483 -5.25,0.375 -0.681,1.454 3.417,2.771 4.729,2.396 1.312,-0.375 1.481,-1.636 0.521,-2.771 z m 15.136,10.448 c -1.25,-1 -3.063,-2.125 -3.094,0.188 -0.031,2.313 3.156,5.063 4,4.094 0.844,-0.969 0.344,-3.282 -0.906,-4.282 z"
           id="path104" />
        <path
           style="clip-rule:evenodd;fill-rule:evenodd"
           d="m 167.928,98.703 c -2.479,-0.247 -3.907,0.249 -9.771,-4.551 -5.864,-4.8 -5.777,-6.996 -6.351,-10.508 -0.709,-4.342 -0.146,-9.007 -0.128,-13.389 0.021,-4.88 -0.318,-9.147 0.584,-13.944 0.331,-1.762 3.54,-9.476 4.524,-11.28 1.826,-3.343 4.58,-7.748 7.964,-9.637 1.817,-1.014 9.292,-5.148 11.25,-5.833 9.245,-3.236 17.295,-5.304 27.172,-3.06 4.624,1.051 5.519,4.447 8.715,7.349 3.393,3.08 5.097,8.278 5.845,12.652 0.751,4.394 1.337,9.525 0.387,13.901 -0.893,4.113 -1.447,9.43 -3.703,12.992 -2.373,3.747 -5.241,7.346 -8.262,10.617 -3.193,3.462 -5.398,4.847 -8.738,8.157 -2.945,2.913 -7.333,5.182 -13.75,6.621 -6.417,1.439 -13.715,0.115 -15.738,-0.087 z m 40.214,-57.615 c 0.5,-1.54 0.347,-4.95 -1.753,-5.233 -1.514,-0.205 -10.199,11.527 -11.681,13.83 -0.737,1.147 -0.056,2.68 1.5,2.084 1.556,-0.596 6.791,-5.75 8.583,-7.625 1.792,-1.875 2.877,-1.596 3.351,-3.056 z M 161.5,88.186 c 1.417,0.042 5.089,-4.737 7.992,-6.568 0.74,-0.467 9.286,-6.556 4.258,-6.432 -2.763,0.07 -5.076,3.021 -6.917,4.75 -1.841,1.729 -2.854,2.354 -4.635,3.677 -1.781,1.323 -2.781,2.364 -2.615,3.239 0.166,0.875 0.5,1.292 1.917,1.334 z m -5.27,-15.562 c 0.14,2.478 -0.613,5.894 0.18,8.212 1.212,3.518 5.351,-1.729 6.402,-2.705 2.54,-2.357 5.304,-4.473 8.269,-6.267 2.347,-1.419 1.375,-6.851 1.871,-9.221 1.132,-5.403 5.68,-11.408 11.513,-12.329 3.588,-0.57 5.7,-0.971 8.078,-3.996 2.463,-3.133 4.884,-6.3 7.25,-9.508 0.835,-1.134 3.924,-4.293 2.489,-5.932 -1.724,-1.968 -8.168,-1.366 -10.467,-1.137 -6.989,0.698 -14.871,3.903 -20.911,7.426 -13.13,7.66 -13.761,21.76 -14.674,35.457 0.052,0.909 0.149,-2.23 0,0 z m 57.266,-17.353 c 0,-3.01 -0.389,-5.731 -0.971,-8.682 -0.778,-3.975 -6.454,1.803 -7.274,2.533 -2.18,1.943 -6.208,4.063 -7.318,6.881 -1.317,3.345 2.266,7.138 1.662,10.59 -0.983,5.618 -7.94,10.975 -13.255,11.88 -4.247,0.723 -7.19,1.499 -10.756,3.956 -3.284,2.263 -6.539,4.592 -9.485,7.29 -5.58,5.11 10.396,5.182 12.769,4.949 5.628,-0.552 11.989,-3.604 16.62,-6.826 10.322,-7.18 18.579,-19.692 18.008,-32.571 0,-0.121 0.076,1.715 0,0 z m -26.991,0.023 c -12.072,1.044 -11.946,21.805 0.073,19.037 3.403,-0.784 10.379,-4.827 8.927,-9.278 -0.986,-3.021 -1.548,-4.977 -3.504,-7.118 -1.847,-2.021 -2.48,-2.241 -5.496,-2.641 -0.65,0.057 0.649,0.086 0,0 z"
           id="path106" />
        <path
           style="clip-rule:evenodd;fill-rule:evenodd"
           d="m 166.458,104.185 c -1.361,1.653 -9.92,-2.167 -14.833,-4.5 -4.691,-2.231 -6.944,-7.715 -9.442,-12.033 -1.122,-1.939 -1.774,-3.554 -3.183,-5.3 -1.566,-1.941 -2.792,-2.208 -5.542,-3.292 -2.75,-1.084 -4.708,-3.083 -4.917,-4.167 -0.209,-1.084 3.518,-6.215 5.208,-8.833 1.121,-1.736 3.882,-4.563 3.897,-6.689 0.016,-2.223 -7.724,-8.338 -7.897,-9.978 -0.173,-1.64 8.362,-3.796 10.788,-5.839 3.763,-3.168 -3.371,-11.87 -2.246,-17.12 1.125,-5.25 5.803,11.228 7.787,14.004 1.984,2.776 2.207,5.648 -2.742,6.261 -2.287,0.283 -7.586,2.777 -7.294,3.985 0.292,1.208 2.671,3.008 3.788,2.222 0.627,-0.442 3.73,-2.793 3.229,-0.123 -0.304,1.622 -1.475,2.95 -1.866,4.57 -0.48,1.987 0.313,4.104 -0.693,5.955 -1.838,3.379 -7.375,10.083 -7.375,11.125 0,1.042 5.072,2.528 7.118,3.024 4.051,0.984 4.073,6.166 5.875,9.254 2.086,3.574 5.591,6.513 8.216,7.971 2.625,1.458 13.485,7.85 12.124,9.503 z"
           id="path108" />
        <path
           style="clip-rule:evenodd;fill-rule:evenodd"
           d="m 184.069,107.107 c 1.229,-0.484 4.201,-0.227 5.431,-0.755 3.689,-1.584 3.358,1.122 5.889,3.421 1.12,1.017 6.938,6.412 6.396,7.329 -0.542,0.917 -8.209,-3.879 -9.123,-4.464 -3.008,-1.927 -4.743,-2.797 -8.078,-1.029 -1.543,0.819 -2.951,1.876 -4.199,3.097 -1.216,1.19 -4.567,4.727 -6.261,4.854 -1.694,0.127 -3.3,-3.617 -4.606,-6.132 -0.886,-1.706 -1.738,-3.43 -2.538,-5.178 -0.379,-0.832 -1.533,-2.567 0.02,-4.607 1.553,-2.04 6.417,11.333 7.417,11.542 1,0.209 2.876,-3.03 3.935,-3.642 0.922,-0.531 4.725,-4.045 5.717,-4.436 z"
           id="path110" />
        <path
           style="clip-rule:evenodd;fill-rule:evenodd"
           d="m 205.119,100.729 c 0.941,0.968 -0.766,3.268 -0.881,5.176 -0.086,1.431 -0.737,9.03 -2.737,7.405 -2,-1.625 0.201,-7.34 -2.375,-7.667 -1.555,-0.198 -3.156,0.532 -4.5,-0.542 -2.589,-2.067 -0.875,-2.542 2.125,-3.042 3,-0.5 7.427,-2.298 8.368,-1.33 z"
           id="path112" />
        <path
           style="clip-rule:evenodd;fill-rule:evenodd"
           d="m 229.756,65.796 c -1.281,0.398 -3.25,-5.486 1.035,-5.304 3.433,0.148 0.247,4.908 -1.035,5.304 z"
           id="path114" />
        <path
           style="clip-rule:evenodd;fill-rule:evenodd"
           d="m 210.842,94.309 c -2.887,0.264 -0.067,-3.709 1.238,-4.157 2.857,-0.984 0.935,3.564 -1.238,4.157 -0.539,0.049 0.247,-0.067 0,0 z"
           id="path116" />
        <path
           style="clip-rule:evenodd;fill-rule:evenodd"
           d="m 178.5,105.811 c -1.095,-0.011 -2.184,-0.126 -3.268,-0.28 -0.809,-0.115 -1.608,0.185 -1.845,1.047 -0.196,0.711 0.236,1.73 1.047,1.845 1.349,0.191 2.701,0.374 4.065,0.387 1.937,0.02 1.935,-2.98 0.001,-2.999 z"
           id="path118" />
        <path
           style="clip-rule:evenodd;fill-rule:evenodd"
           d="m 142,68.36 c 0,-1.935 -2.322,-0.483 -2.322,1.451 0,1.116 0.015,2.225 0.14,3.333 0.091,0.81 0.503,1.5 1.258,1.5 0.617,0 1.35,-0.688 1.258,-1.5 C 142.21,72.036 142,69.476 142,68.36 Z"
           id="path120" />
        <path
           style="clip-rule:evenodd;fill-rule:evenodd"
           d="m 151.507,34.64 c -0.747,-0.438 -1.586,-0.131 -2.052,0.539 -0.878,1.262 -1.706,2.558 -2.5,3.875 -1.001,1.661 1.594,3.168 2.591,1.514 0.793,-1.317 1.622,-2.612 2.5,-3.875 0.467,-0.673 0.124,-1.665 -0.539,-2.053 z"
           id="path122" />
      </g>
    </g>
  </g>
</svg>
