<?xml version="1.0" encoding="UTF-8" standalone="no"?>
<!-- Created with Inkscape (http://www.inkscape.org/) -->

<svg
   xmlns:dc="http://purl.org/dc/elements/1.1/"
   xmlns:cc="http://creativecommons.org/ns#"
   xmlns:rdf="http://www.w3.org/1999/02/22-rdf-syntax-ns#"
   xmlns:svg="http://www.w3.org/2000/svg"
   xmlns="http://www.w3.org/2000/svg"
   xmlns:sodipodi="http://sodipodi.sourceforge.net/DTD/sodipodi-0.dtd"
   xmlns:inkscape="http://www.inkscape.org/namespaces/inkscape"
   width="31.488911mm"
   height="31.488911mm"
   viewBox="0 0 31.488911 31.488911"
   version="1.1"
   id="svg7887"
   inkscape:version="0.92.3 (2405546, 2018-03-11)"
   sodipodi:docname="crack2.svg">
  <defs
     id="defs7881" />
  <sodipodi:namedview
     id="base"
     pagecolor="#ffffff"
     bordercolor="#666666"
     borderopacity="1.0"
     inkscape:pageopacity="0.0"
     inkscape:pageshadow="2"
     inkscape:zoom="1.4"
     inkscape:cx="101.31991"
     inkscape:cy="99.676475"
     inkscape:document-units="mm"
     inkscape:current-layer="layer1"
     showgrid="false"
     inkscape:window-width="1366"
     inkscape:window-height="703"
     inkscape:window-x="0"
     inkscape:window-y="0"
     inkscape:window-maximized="1" />
  <metadata
     id="metadata7884">
    <rdf:RDF>
      <cc:Work
         rdf:about="">
        <dc:format>image/svg+xml</dc:format>
        <dc:type
           rdf:resource="http://purl.org/dc/dcmitype/StillImage" />
        <dc:title></dc:title>
      </cc:Work>
    </rdf:RDF>
  </metadata>
  <g
     inkscape:label="Layer 1"
     inkscape:groupmode="layer"
     id="layer1"
     transform="translate(2.1373136,-239.62434)">
    <path
       inkscape:connector-curvature="0"
       id="Crack1"
       d="m 24.667785,255.14537 c -1.303604,0.0143 -4.78552,-0.22199 -5.921112,0.0609 -2.234406,0.55668 -2.709862,3.41604 -2.128308,4.31377 0.581819,0.89773 2.252133,1.00197 3.435614,1.22925 1.132152,0.21828 3.08954,0.61251 4.384148,0.81042 1.29487,0.19764 -0.22966,0.41328 -1.499131,0.37703 -1.269735,-0.0362 -3.557852,-0.17965 -5.333206,-0.13229 -1.093259,0.0291 -2.187575,0.30321 -3.264959,0.53975 -1.135591,0.24924 -2.224616,0.97261 -2.331508,1.90473 -0.102923,0.8935 -0.225954,1.66847 0.707761,2.04127 0.933714,0.37332 2.781035,0.56144 4.402931,0.9644 1.62216,0.40296 -5.217319,0.35745 -5.941748,-0.4064 -0.724694,-0.76359 -1.09855,-3.0652 -1.3321766,-3.70417 -0.233892,-0.63922 -2.361671,-0.25822 -3.4009543,0.59479 -0.8461375,0.6948 -1.8888605,1.05648 -2.1687896,2.41538 -0.1785938,0.86387 -0.6143625,1.45997 -1.1739563,1.92882 -0.89535,0.75062 -3.45889782,0.49053 -4.6344416,0.72945 -1.1755437,0.23892 0.85116458,-0.889 1.93939588,-1.24962 1.08823112,-0.36063 1.99681032,-0.25083 2.46274162,-0.71094 0.7254875,-0.71596 0.7874,-2.97339 0.1042458,-3.09166 -0.6831542,-0.11827 -3.03344782,0.27887 -2.21958962,-0.27887 0.81385832,-0.55721 3.77295832,-0.84719 3.84254382,-1.68539 0.06985,-0.8382 -0.075406,-2.55323 -0.9699625,-2.46513 -0.8945563,0.0881 -0.4093105,-1.79599 -0.9659938,-2.21641 -0.5569479,-0.42016 -2.92179362,-0.55959 -3.8570957,-1.60179 -0.6096,-0.67918 -1.0088563,-2.18651 -0.9321271,-3.41947 0.076729,-1.23296 0.6606646,1.61925 1.35757708,2.41908 0.6969125,0.79931 4.15607492,1.29355 6.50689782,0.24024 1.2599458,-0.56488 3.4954105,-0.56012 3.9883295,-1.01018 0.4929176,-0.44979 0.5416016,-1.23031 0.6119806,-1.86398 0.184679,-1.65683 -0.0762,-1.94602 -1.7922876,-2.07698 -0.591079,-0.045 -2.2105933,-0.39979 -3.4046579,-0.65009 -1.1938,-0.25003 2.1126979,-0.17462 2.4018875,-0.18415 1.0170584,-0.0347 4.053416,0.32412 4.764087,-0.14208 1.652852,-1.08479 3.709458,-1.54384 4.630738,-2.25901 0.921279,-0.71517 1.787525,-2.34421 1.994958,-3.13558 0.207433,-0.79136 0.999596,-2.03411 0.746654,-1.09272 -0.253206,0.94138 -0.964671,3.29194 -1.552575,4.07908 -0.931598,1.24856 -1.828006,1.22872 -2.305844,2.16005 -0.478102,0.9316 3.821907,-0.21113 5.46735,0.38788 1.645444,0.59928 -1.022085,0.0325 -2.882106,0.47043 -1.859756,0.43762 -2.83501,0.19024 -4.297098,0.44186 -1.185069,0.20346 -2.091531,3.15992 -0.950648,3.36259 1.141148,0.20293 2.888986,0.20928 4.636294,0.3892 1.325827,0.13626 2.937933,0.10848 4.007908,-0.20426 1.07024,-0.31353 0.531284,-1.1221 0.67654,-2.14921 0.144992,-1.02711 0.411692,1.11839 1.868753,0.94536 1.457325,-0.17225 3.313377,0.38073 4.794779,0.9054 1.481667,0.52467 -5.349611,0.20294 -5.75363,0.60907 -0.40349,0.40561 2.583658,1.39594 1.279791,1.41023 z m -9.428693,-0.39502 c -0.451644,-0.30957 -4.083844,0.39317 -5.7327266,0.82682 -0.863071,0.22675 -3.3991023,0.29528 -3.7401502,0.65299 -0.3413125,0.35825 -0.3656541,1.61502 -0.020902,2.68129 0.3439584,1.06468 0.356923,1.92881 1.4687021,2.20953 0.7360711,0.18521 2.4069141,0.15161 3.1345187,-0.0947 1.139295,-0.38655 2.865966,-0.42386 3.763962,-1.18004 0.786342,-0.66172 0.813858,-2.14127 1.181365,-3.13266 0.201083,-0.54319 0.397139,-1.65365 -0.05477,-1.96321 z"
       style="stroke-width:0.26458332" />
  </g>
</svg>
