<?xml version="1.0" encoding="UTF-8" standalone="no"?>
<svg
   xmlns:dc="http://purl.org/dc/elements/1.1/"
   xmlns:cc="http://creativecommons.org/ns#"
   xmlns:rdf="http://www.w3.org/1999/02/22-rdf-syntax-ns#"
   xmlns:svg="http://www.w3.org/2000/svg"
   xmlns="http://www.w3.org/2000/svg"
   xmlns:sodipodi="http://sodipodi.sourceforge.net/DTD/sodipodi-0.dtd"
   xmlns:inkscape="http://www.inkscape.org/namespaces/inkscape"
   sodipodi:docname="maneatingflower.svg"
   inkscape:version="1.0 (4035a4fb49, 2020-05-01)"
   id="svg2295"
   version="1.1"
   viewBox="0 0 27.6451 27.6451"
   height="27.6451mm"
   width="27.6451mm">
  <defs
     id="defs2289" />
  <sodipodi:namedview
     inkscape:window-maximized="1"
     inkscape:window-y="-8"
     inkscape:window-x="-8"
     inkscape:window-height="1356"
     inkscape:window-width="3440"
     showgrid="false"
     inkscape:document-rotation="0"
     inkscape:current-layer="layer1"
     inkscape:document-units="mm"
     inkscape:cy="134.48682"
     inkscape:cx="-145.2796"
     inkscape:zoom="1.979899"
     inkscape:pageshadow="2"
     inkscape:pageopacity="0.0"
     borderopacity="1.0"
     bordercolor="#666666"
     pagecolor="#ffffff"
     id="base" />
  <metadata
     id="metadata2292">
    <rdf:RDF>
      <cc:Work
         rdf:about="">
        <dc:format>image/svg+xml</dc:format>
        <dc:type
           rdf:resource="http://purl.org/dc/dcmitype/StillImage" />
        <dc:title></dc:title>
      </cc:Work>
    </rdf:RDF>
  </metadata>
  <g
     transform="translate(-302.9215,-22.029155)"
     id="layer1"
     inkscape:groupmode="layer"
     inkscape:label="Layer 1">
    <g
       transform="matrix(0.26458333,0,0,0.26458333,232.12017,19.439239)"
       id="g140">
      <g
         id="g136">
        <path
           style="clip-rule:evenodd;fill:#39b54a;fill-rule:evenodd"
           d="m 281.167,109.333 c -2.969,0 -6.672,-3.961 -7.257,-4.373 1.346,-0.349 3.001,-1.869 4.756,-2.794 6.127,-3.229 11.587,-9.426 13.387,-16.453 0.484,-1.891 0.758,-3.885 1.022,-5.814 0.755,-5.503 1.426,-8.983 4.366,-10.893 0.374,-0.243 6.318,-3.515 6.442,-7.911 0.127,-4.645 -7.567,-8.137 -7.832,-8.358 -3.327,-2.78 -6.11,-9.717 -7.288,-14.986 -1.779,-7.958 -0.628,-17.759 4.569,-20.335 1.26,-0.625 6.551,-3.062 6.417,-2.833 -3.522,6.009 0.722,14.211 5.667,18.083 2.143,1.676 11.354,5.516 12.772,5.516 1.643,0 5.708,-1.787 5.708,-1.787 3.743,-1.799 8.401,-4.038 12.284,-4.038 0.528,0 4.001,0.708 4.31,0.911 0.042,0.32 0.577,6.048 3.291,8.188 1.802,1.422 6.329,1.693 6.516,1.785 1.452,1.03 2.118,3.414 2.672,5.766 0.963,4.082 0.143,8.15 -2.583,12.805 -0.268,0.457 -3.667,5.113 -4.082,7.425 -0.61,3.402 1.018,11.542 1.112,12.05 1.126,6.072 6.417,10.379 10.25,11.796 3.833,1.417 8.465,0.05 9.417,-0.25 -1.838,2.768 -3.417,5.667 -7.917,8.25 -4.5,2.583 -11.949,0.213 -14.62,-0.429 -4.637,-1.115 -10.313,-4.332 -13.764,-6.748 -1.78,-1.246 -3.299,-2.848 -4.391,-4.632 -0.099,-0.174 -3.477,-7.377 -7.135,-7.377 -1.427,0 -7.928,8.603 -8.513,9.43 -1.358,1.923 -2.834,3.587 -4.789,5.395 -3.651,3.378 -8.579,7.9 -14.371,10.269 -2.575,1.054 -7.851,2.342 -10.416,2.342 z"
           id="path128" />
        <g
           id="g134">
          <path
             style="clip-rule:evenodd;fill:#c12552;fill-rule:evenodd"
             d="m 320.26,75.226 c 4.35,0.425 7.763,0.179 12.006,-1.245 3.869,-1.298 9.752,-3.345 11.642,-7.313 0.74,-1.562 2.131,-2.407 3.266,-3.648 1.746,-1.91 2.16,-3.859 2.694,-6.303 0.772,-3.534 4.383,-9.396 -1.099,-11.122 -3.382,-1.06 -2.076,9.055 -4.141,10.495 -1.399,0.976 -3.336,-0.885 -4.003,-0.072 -0.667,0.813 -1.292,6.016 -2.417,6.792 -1.125,0.776 -4.271,-2 -4.979,-1.479 -0.708,0.521 -1.872,6.147 -4.276,6.407 -1.728,0.186 -3.658,-1.551 -5.266,-1.928 -2.681,-0.629 -3.968,0.31 -5.987,-1.965 -4.645,-5.233 4.154,-8.931 4.612,-10.264 0.458,-1.333 -1.417,-5.23 -0.688,-6.668 0.729,-1.438 7.521,-0.957 8.5,-2.041 0.979,-1.084 0.769,-5.601 2.249,-6.655 0.74,-0.527 4.289,-0.51 5.501,-1.199 1.212,-0.689 0.089,-2.083 -0.816,-2.704 -2.047,-1.403 -4.252,0.204 -6.29,0.857 -10.697,3.432 -18.423,10.261 -23.155,20.444 -1.918,4.119 -1.881,10.406 0.79,14.168 2.737,3.855 8.214,5.2 12.631,5.494 -0.258,-0.004 -0.516,-0.021 -0.774,-0.051 2.41,0.235 1.147,0.087 0,0 z"
             id="path130" />
          <path
             style="clip-rule:evenodd;fill:#3c3c3d;fill-rule:evenodd"
             d="m 342.688,45.727 c 0.229,-3.104 -4.625,-6.729 -7.167,-4.667 -2.542,2.062 -1.208,6.896 -2.021,8 -0.813,1.104 -7.229,-0.328 -7.896,0.502 -0.686,0.853 0.153,5.027 0.147,6.081 -0.006,1.054 -1.833,1.533 -3.283,3.011 -2.377,2.422 4.721,4.637 6.615,2.636 2.188,-2.313 1.854,-5.104 2.417,-5.313 0.563,-0.209 3.729,3.125 5.271,2.438 1.542,-0.687 0.844,-7.576 1.542,-8 0.698,-0.424 3.333,1.604 4.125,1.042 0.792,-0.562 0.02,-2.626 0.25,-5.73 z"
             id="path132" />
        </g>
      </g>
      <path
         style="clip-rule:evenodd;fill-rule:evenodd"
         d="m 305.637,10.034 c 0.5,0.75 -1.887,4.151 -4.012,7.776 -2.125,3.625 2.317,9.803 6.615,13.169 1.984,1.552 4.241,2.018 6.574,2.777 3.039,0.988 3.592,1.275 6.642,-0.183 4.915,-2.348 11.235,-5.616 16.853,-4.638 2.081,0.362 5.312,1.018 5.707,3.556 0.333,2.131 0.08,4.629 1.995,6.14 1.805,1.424 4.426,0.302 6.347,1.66 2.543,1.802 3.433,4.997 4.116,7.89 1.318,5.587 -0.151,10.619 -2.98,15.45 -1.116,1.905 -3.249,4.036 -3.645,6.241 -0.585,3.261 0.511,7.541 1.108,10.759 0.944,5.091 4.096,8.261 8.789,9.97 4.693,1.709 9.3,-4.005 11.425,-4.942 2.125,-0.937 0.04,3.801 -1.305,6.394 -2.389,4.608 -5.143,8.459 -9.644,11.171 -4.733,2.852 -11.385,2.165 -16.516,0.932 -4.88,-1.173 -10.884,-4.427 -14.987,-7.299 -2.163,-1.514 -4.018,-3.449 -5.397,-5.702 -0.783,-1.279 -2.969,-7.589 -5.117,-5.067 -1.847,2.164 -2.874,4.987 -4.521,7.318 -1.588,2.249 -3.266,4.092 -5.284,5.96 -4.594,4.251 -9.593,8.219 -15.459,10.619 -6.192,2.533 -13.174,2.656 -19.086,-0.777 -1.568,-0.911 -6.938,-4.479 -6.188,-6.146 0.75,-1.667 3.855,-0.27 9.245,-3.111 5.39,-2.841 10.151,-9.262 11.654,-15.129 1.619,-6.323 0.726,-14.813 6.915,-18.833 2.121,-1.377 4.721,-2.031 4.804,-4.993 0.091,-3.322 -4.556,-3.834 -6.542,-5.494 -4.336,-3.624 -7.3,-11.63 -8.493,-16.962 -2.088,-9.339 1.69,-21.416 8.688,-24.884 6.998,-3.468 11.199,-4.372 11.699,-3.622 z m 1.863,32.557 c 2.875,-0.198 5.194,-1.492 3.722,-4.091 -0.586,-1.035 -2.37,-1.19 -3.286,-1.822 -1.183,-0.816 -2.34,-1.667 -3.478,-2.543 -2.219,-1.71 -3.614,-1.764 -5.458,-3.887 -0.856,-0.986 -1.75,-3.125 -2.25,-5.563 -0.5,-2.438 0.563,-5.563 -0.563,-6.688 -1.126,-1.125 -5.813,4.438 -6.229,6.271 -0.416,1.833 1.792,1.208 1.875,2.042 0.083,0.834 -2.5,1.125 -2.25,3.208 0.25,2.083 2.708,-0.167 3.042,0.625 0.334,0.792 -4,4.167 -3.083,5.667 0.917,1.5 3.208,-0.792 3.792,-0.125 0.584,0.667 -2.833,4.625 -1.5,6.667 1.333,2.042 2.875,-0.959 3.667,-0.167 0.792,0.792 -0.65,7.042 1.669,8.898 2.319,1.856 4.072,0.47 4.847,-2.797 0.368,-1.549 -1.001,-4.128 -2.172,-6.601 -1.299,-2.742 -2.776,-6.656 -2.25,-6.875 0.527,-0.22 2.505,2.473 4.531,4.25 1.819,1.596 4.014,3.625 5.374,3.531 z m -7.625,28.344 c -1.693,0.208 -2.383,1.441 -3.503,2.699 -1.434,1.61 -1.343,5.756 -1.726,7.806 -0.553,2.955 -1.418,6.065 -2.562,8.871 -1.111,2.721 -4.735,7.503 -6.708,9.333 -1.973,1.83 -5.639,3.363 -7.487,4.802 -1.848,1.439 2.58,4.204 5.721,2.765 3.141,-1.439 2.886,-2.76 4.475,-3.064 1.4,-0.268 1.453,1.604 3.167,1.331 1.714,-0.273 1.083,-5.83 2.167,-6.371 1.084,-0.541 1.357,4.523 2.833,4.038 1.22,-0.402 -0.167,-7.079 1.208,-7.204 1.375,-0.125 2.716,4.441 3.833,3.079 0.978,-1.193 0.125,-8.011 1.792,-8.128 1.667,-0.117 2.948,2.843 3.625,2.211 0.836,-0.781 0.183,-2.185 1,-3.833 0.817,-1.648 7.427,-6.929 4.125,-9.333 -0.967,-0.705 -4.292,1.599 -6.896,4.124 -3.04,2.947 -5.482,4.492 -6.375,3.688 -0.893,-0.804 2.871,-3.778 3.688,-8.625 0.642,-3.821 -1.63,-8.281 -2.377,-8.189 z m 20.385,4.291 c 4.35,0.425 7.763,0.179 12.006,-1.245 3.869,-1.298 9.752,-3.345 11.642,-7.313 0.74,-1.562 2.131,-2.407 3.266,-3.648 1.746,-1.91 2.16,-3.859 2.694,-6.303 0.772,-3.534 4.383,-9.396 -1.099,-11.122 -3.382,-1.06 -2.076,9.055 -4.141,10.495 -1.399,0.976 -3.336,-0.885 -4.003,-0.072 -0.667,0.813 -1.292,6.016 -2.417,6.792 -1.125,0.776 -4.271,-2 -4.979,-1.479 -0.708,0.521 -1.872,6.147 -4.276,6.407 -1.728,0.186 -3.658,-1.551 -5.266,-1.928 -2.681,-0.629 -3.968,0.31 -5.987,-1.965 -4.645,-5.233 4.154,-8.931 4.612,-10.264 0.458,-1.333 -1.417,-5.23 -0.688,-6.668 0.729,-1.438 7.521,-0.957 8.5,-2.041 0.979,-1.084 0.769,-5.601 2.249,-6.655 0.74,-0.527 4.289,-0.51 5.501,-1.199 1.212,-0.689 0.089,-2.083 -0.816,-2.704 -2.047,-1.403 -4.252,0.204 -6.29,0.857 -10.697,3.432 -18.423,10.261 -23.155,20.444 -1.918,4.119 -1.881,10.406 0.79,14.168 2.737,3.855 8.214,5.2 12.631,5.494 -0.258,-0.004 -0.516,-0.021 -0.774,-0.051 2.41,0.235 1.147,0.087 0,0 z m 31.68,25.022 c 1.958,0.112 7.783,-0.347 10.22,-3.097 1.257,-1.418 -0.348,-1.903 -2.723,-2.153 -2.375,-0.25 -6.187,1.625 -7.437,1.062 -1.25,-0.563 1.933,-2.577 0.563,-3.75 -1.378,-1.18 -6,1.063 -6.625,-0.063 -0.625,-1.126 1.484,-3.028 1.563,-4.527 0.105,-2.014 -4.141,-1.145 -4.313,-2.473 -0.172,-1.328 3.179,-2.952 2.5,-5.175 -0.679,-2.223 -2.58,-5.205 -4.856,-4.605 -0.795,0.209 -5.029,2.264 -4.081,5.53 0.948,3.266 4.438,7.438 3.625,7.875 -0.813,0.437 -3.692,-1.711 -6.033,-4.278 -2.341,-2.567 -3.279,-4.285 -5.217,-3.41 -1.938,0.875 -4.083,4.167 -0.542,7.875 3.541,3.708 9.845,6.414 12.913,7.863 3.671,1.737 6.423,3.055 10.443,3.326 -0.273,-0.016 -1.857,-0.125 0,0 z m -9.252,-54.521 c 0.229,-3.104 -4.625,-6.729 -7.167,-4.667 -2.542,2.062 -1.208,6.896 -2.021,8 -0.813,1.104 -7.229,-0.328 -7.896,0.502 -0.686,0.853 0.153,5.027 0.147,6.081 -0.006,1.054 -1.833,1.533 -3.283,3.011 -2.377,2.422 4.721,4.637 6.615,2.636 2.188,-2.313 1.854,-5.104 2.417,-5.313 0.563,-0.209 3.729,3.125 5.271,2.438 1.542,-0.687 0.844,-7.576 1.542,-8 0.698,-0.424 3.333,1.604 4.125,1.042 0.792,-0.562 0.02,-2.626 0.25,-5.73 z"
         id="path138" />
    </g>
  </g>
</svg>
