<?xml version="1.0" encoding="UTF-8" standalone="no"?>
<!-- Created with Inkscape (http://www.inkscape.org/) -->

<svg
   xmlns:dc="http://purl.org/dc/elements/1.1/"
   xmlns:cc="http://creativecommons.org/ns#"
   xmlns:rdf="http://www.w3.org/1999/02/22-rdf-syntax-ns#"
   xmlns:svg="http://www.w3.org/2000/svg"
   xmlns="http://www.w3.org/2000/svg"
   xmlns:sodipodi="http://sodipodi.sourceforge.net/DTD/sodipodi-0.dtd"
   xmlns:inkscape="http://www.inkscape.org/namespaces/inkscape"
   width="31.388638mm"
   height="32.142101mm"
   viewBox="0 0 31.388638 32.142101"
   version="1.1"
   id="svg7290"
   inkscape:version="0.92.3 (2405546, 2018-03-11)"
   sodipodi:docname="pit.svg">
  <defs
     id="defs7284" />
  <sodipodi:namedview
     id="base"
     pagecolor="#ffffff"
     bordercolor="#666666"
     borderopacity="1.0"
     inkscape:pageopacity="0.0"
     inkscape:pageshadow="2"
     inkscape:zoom="0.35"
     inkscape:cx="-359.25432"
     inkscape:cy="60.740979"
     inkscape:document-units="mm"
     inkscape:current-layer="layer1"
     showgrid="false"
     inkscape:window-width="1366"
     inkscape:window-height="703"
     inkscape:window-x="0"
     inkscape:window-y="0"
     inkscape:window-maximized="1" />
  <metadata
     id="metadata7287">
    <rdf:RDF>
      <cc:Work
         rdf:about="">
        <dc:format>image/svg+xml</dc:format>
        <dc:type
           rdf:resource="http://purl.org/dc/dcmitype/StillImage" />
        <dc:title></dc:title>
      </cc:Work>
    </rdf:RDF>
  </metadata>
  <g
     inkscape:label="Layer 1"
     inkscape:groupmode="layer"
     id="layer1"
     transform="translate(-90.139015,-132.76228)">
    <g
       transform="matrix(0.26458333,0,0,0.26458333,-80.43311,64.166384)"
       id="Pit">
      <path
         d="m 755.114,378.276 c -0.406,0 -0.868,-0.033 -1.394,-0.084 l -1.169,-0.116 c -6.764,-0.673 -13.757,-1.369 -20.653,-1.95 -0.617,-0.052 -1.239,-0.076 -1.864,-0.076 -1.342,0 -2.753,0.114 -4.194,0.339 -3.243,0.51 -6.646,0.757 -10.408,0.757 -4.944,0 -9.948,-0.442 -14.19,-0.874 -9.233,-0.94 -18.284,-1.793 -27.522,-1.895 l -0.35,-0.001 c -3.966,0 -7.889,0.726 -11.684,1.428 -1.526,0.284 -3.054,0.566 -4.579,0.8 -0.897,0.137 -1.745,0.351 -2.564,0.558 -0.932,0.235 -1.813,0.458 -2.63,0.526 -0.176,0.014 -0.348,0.022 -0.515,0.022 -0.864,0 -1.536,-0.199 -1.894,-0.561 -0.315,-0.319 -0.474,-0.853 -0.465,-1.586 0.052,-4.415 -0.461,-8.791 -0.958,-13.022 -0.843,-7.18 -1.639,-13.961 0.084,-20.965 1.351,-5.498 1.038,-11.308 0.735,-16.927 -0.102,-1.874 -0.202,-3.744 -0.239,-5.592 -0.075,-3.714 -0.272,-7.468 -0.465,-11.099 -0.202,-3.837 -0.411,-7.803 -0.474,-11.683 -0.024,-1.641 0.197,-3.327 0.434,-5.111 0.247,-1.856 0.502,-3.776 0.477,-5.75 -0.054,-4.256 -0.333,-8.546 -0.602,-12.694 -0.122,-1.874 -0.246,-3.748 -0.349,-5.623 -0.04,-0.746 0.078,-1.307 0.336,-1.582 0.252,-0.27 0.797,-0.424 1.531,-0.432 l 0.657,-0.004 c 1.852,0 3.352,0.094 4.938,0.194 1.658,0.104 3.373,0.212 5.543,0.212 2.451,0 5.164,-0.143 8.297,-0.437 5.617,-0.526 10.077,-0.698 14.392,-0.863 3.682,-0.141 7.158,-0.275 11.094,-0.616 2.888,-0.25 6.044,-0.436 9.935,-0.587 2.167,-0.084 4.335,-0.191 6.504,-0.298 4.585,-0.227 9.326,-0.461 13.954,-0.461 1.026,0 2.055,0.012 3.081,0.037 2.036,0.05 4.071,0.075 6.105,0.075 5.699,0 11.638,-0.197 17.649,-0.586 0.207,-0.013 0.412,-0.02 0.618,-0.02 0.288,0 0.577,0.013 0.865,0.034 3.711,0.294 5.873,0.965 6.797,2.111 0.891,1.103 1.095,3.187 0.64,6.561 -1.141,8.452 -1.716,17.415 -1.759,27.402 -0.03,7.543 -0.676,15.258 -1.302,22.719 -0.421,5.039 -0.856,10.248 -1.105,15.399 -0.291,6.065 -0.257,12.214 -0.227,18.16 0.016,2.839 0.03,5.677 0.011,8.515 l -0.011,3.28 c -0.007,3.407 -0.014,6.93 -0.171,10.36 -0.057,1.236 -0.186,1.757 -0.261,1.961 -0.11,0.018 -0.321,0.045 -0.679,0.045 z"
         id="path214"
         inkscape:connector-curvature="0"
         style="fill:#adadaa" />
      <rect
         x="677.72699"
         y="289.19699"
         width="53.354"
         height="54.494999"
         id="rect216"
         style="fill:#34393f" />
      <path
         d="m 694.259,261.11 c 3.344,-0.29 6.698,-0.465 10.051,-0.595 7.897,-0.308 15.808,-0.918 23.693,-0.724 7.871,0.194 15.7,0 23.537,-0.506 0.608,-0.04 1.226,-0.03 1.832,0.017 8.423,0.667 10.8,3.222 9.688,11.458 -1.215,9.007 -1.695,17.97 -1.734,27.083 -0.053,12.744 -1.795,25.471 -2.41,38.227 -0.425,8.84 -0.154,17.714 -0.213,26.573 -0.028,4.581 0.025,9.166 -0.184,13.737 -0.185,3.999 -1.146,4.652 -5.041,4.266 -7.259,-0.722 -14.518,-1.451 -21.787,-2.063 -1.807,-0.152 -3.678,-0.039 -5.472,0.242 -8.424,1.324 -16.801,0.759 -25.23,-0.1 -9.074,-0.925 -18.192,-1.782 -27.3,-1.883 -5.395,-0.058 -10.813,1.371 -16.211,2.199 -1.804,0.274 -3.558,0.953 -5.363,1.103 -3.282,0.271 -5.579,-1.269 -5.54,-4.61 0.132,-11.5 -3.707,-22.741 -0.806,-34.547 1.699,-6.914 0.573,-14.566 0.428,-21.882 -0.154,-7.6 -0.819,-15.193 -0.938,-22.792 -0.059,-3.618 0.953,-7.252 0.91,-10.87 -0.077,-6.073 -0.615,-12.14 -0.946,-18.212 -0.156,-2.886 1.32,-4.579 4.301,-4.614 6.41,-0.077 8.763,0.958 19.23,-0.023 10.468,-0.981 17.016,-0.748 25.505,-1.484 z m -9.718,60.473 c -0.249,1.568 -2.732,4.561 -3.053,4.026 -0.321,-0.535 -0.196,-3.389 -0.196,-5.029 0,-1.64 1.271,-2.213 2.105,-2.068 0.834,0.146 1.393,1.504 1.144,3.071 z m 43.427,31.584 c -2.648,-0.143 -2.492,-3.14 -1.695,-3.763 0.796,-0.623 1.953,-0.577 2.702,0.636 0.749,1.213 3.982,4.876 3.441,5.168 -0.541,0.292 -1.798,-1.897 -4.448,-2.041 z m 12.918,1.761 c 1.085,0.794 6.082,6.453 7.294,7.844 1.212,1.391 5.684,6.175 5.239,3.16 -0.443,-3.016 -0.346,-9.146 -0.258,-13.678 0.373,-19.178 3.322,-37.918 1.996,-56.813 -0.165,-2.372 0.385,-4.812 0.73,-7.2 0.872,-6.007 0.591,-17.315 -1.126,-16.792 -1.715,0.523 -5.433,4.691 -6.553,7.57 -2.087,5.368 -5.363,9.823 -8.534,14.456 -0.838,1.224 -2.819,5.417 -1.376,5.117 1.444,-0.3 8.646,-5.428 7.575,-4.174 -1.071,1.254 -3.315,6.151 -3.625,8.958 -0.188,1.695 4.493,-1.313 4.25,-0.25 -0.054,0.235 -1.286,1.115 -2.122,1.933 -0.836,0.818 -0.652,5.275 -1.443,3.442 -0.793,-1.833 -1.144,-2.125 -3.477,-1.25 -2.333,0.875 -1.834,7.647 -2.52,9.933 -0.952,3.168 2.02,1.173 2.697,2.437 0.68,1.264 -1.175,5.712 0.146,6.721 1.317,1.009 5.749,-0.374 5.674,1.267 -0.075,1.641 -7.981,6.61 -8.059,7.959 -0.058,1.011 3.514,-0.27 3.479,0.266 -0.035,0.536 -0.934,1.803 -2.004,3.729 -1.069,1.926 0.313,3.213 1.308,3.929 0.994,0.716 2.127,-3.046 2.237,-4.242 0.268,-2.889 1.44,-0.012 1.163,3.193 -0.369,4.272 -0.798,3.897 1.684,8.627 0.727,1.383 0.709,3.443 1.42,4.927 0.711,1.484 -3.015,-2.04 -4.868,-3.283 -1.854,-1.243 -2.979,-1.444 -2.942,-0.802 0.037,0.642 0.93,2.222 2.015,3.016 z M 663.602,373.1 c 1.927,-0.458 26.855,-0.359 40.25,0.232 7.247,0.317 14.35,0.602 21.633,-0.039 7.176,-0.632 19.647,0.677 21.645,1.105 1.996,0.428 2.247,-0.86 0.463,-3.174 -1.783,-2.313 -2.855,-3.214 -5.045,-5.581 -1.212,-1.309 -2.107,-3.051 -3.802,-4.501 -1.167,-1 -5.781,-4.261 -5.453,-3.226 0.328,1.035 7.357,8.494 8.236,10.526 0.88,2.032 -5.187,-0.878 -8.38,-4.493 -2.075,-2.347 -6.717,-2.234 -7.834,-5.576 -1.118,-3.342 -4.601,-2.949 -7.252,-2.949 -6.063,0 -9.348,-0.099 -10.522,1.282 -1.174,1.381 -2.567,7.666 -3.137,5.833 -0.57,-1.833 -0.58,-7.505 0.306,-8.625 0.886,-1.12 4.646,-1.562 9.083,-2.875 4.438,-1.313 -8.786,-1.571 -9.791,-1.573 -1.338,-0.002 -3.661,2.96 -3.95,5.279 -0.428,3.442 0.225,9.456 -1.047,10.631 -1.271,1.174 -1.824,-1.777 -2.192,-2.902 -1.195,-3.634 0.341,-5.88 -0.755,-6.409 -1.435,-0.692 -5.895,-1.49 -8.486,0.535 -2.594,2.025 -0.385,4.915 -2.284,5.671 -1.126,0.45 -0.98,-2.737 -4.627,-3.294 -3.647,-0.557 3.594,-3.696 6.09,-4.873 2.496,-1.177 6.671,-1.034 9.06,-1.141 2.39,-0.107 2.285,-4.38 -1.03,-3.631 -3.317,0.749 -11.157,-0.752 -12.692,0.375 -1.535,1.127 -2.356,4.24 -4.323,5.788 -5.027,3.958 -7.612,2.354 -11.09,7.168 -3.478,4.814 -8.712,10.779 -7.16,10.833 1.545,0.055 2.16,0.062 4.086,-0.396 z m 88.1,-107.822 c -1.918,-0.619 -8.633,-0.416 -12.777,-0.46 -21.833,-0.231 -43.443,0.918 -65.356,2.612 -6.004,0.463 -17.39,0.573 -18.092,1.496 -0.701,0.923 7.895,8.813 10.104,11.568 2.209,2.755 1.22,-7.372 2.632,-5.121 1.412,2.251 5.657,6.221 8.199,7.008 2.543,0.787 4.576,-0.924 4.79,-3.064 0.214,-2.14 4.538,2.852 6.339,2.766 3.544,-0.168 9.386,1.204 10.95,-0.496 1.564,-1.7 1.911,-3.897 1.921,-6.336 0.009,-2.218 0.781,-7.151 1.604,-7.053 0.823,0.098 0.065,4.656 0.645,6.696 0.4,1.412 1.16,2.558 1.784,3.817 0.426,0.862 0.652,3.013 1.414,2.879 0.761,-0.134 1.908,-9.983 3.043,-11.083 0.755,-0.732 0.578,3.244 2.497,3.958 1.919,0.714 12.514,-0.783 11.585,0.608 -0.929,1.391 -5.143,1.264 -6.7,1.996 -1.481,0.693 -2.004,1.419 -1.897,2.492 0.07,0.705 0.687,2.36 1.397,2.673 0.713,0.313 6.509,-1.624 9.468,-3.373 6.012,-3.556 12.385,-6.9 13.775,-7.048 1.39,-0.148 -2.567,3.436 -4.234,5.936 -1.667,2.5 -0.534,2.254 -1.692,4.777 -1.157,2.523 -2.063,3.183 -1.771,3.638 0.292,0.455 1.854,0.107 2.782,-1.355 0.928,-1.462 1.997,-2.354 3.424,-3.781 1.426,-1.427 2.487,-2.702 2.926,-3.16 0.439,-0.458 4.425,-4.793 6.917,-7.219 2.491,-2.424 6.241,-4.753 4.323,-5.371 z m -69.654,48.2 c 0.671,0.826 5.084,-2.063 5.563,-3.609 1.011,-3.27 -2.216,-5.038 -2.902,-5.661 -0.686,-0.623 2.239,-1.17 2.667,-3.042 0.429,-1.873 3.209,-4.5 0.792,-5.333 -2.417,-0.833 -6.059,3.744 -6.34,7.385 -0.165,2.115 -0.45,9.434 0.22,10.26 z M 672,326.053 c 0,-1.222 -3.815,-2.458 -3.637,0.396 0.178,2.853 -0.266,5.067 0.319,6.527 0.586,1.459 3.13,0.269 3.13,-1.943 10e-4,-2.213 0.188,-3.758 0.188,-4.98 z m 22.691,-32.352 c 1.278,-0.13 2.465,-0.851 1.838,-1.234 -0.624,-0.381 -2.913,-0.477 -4.106,-0.336 -1.192,0.14 -2.901,0.745 -1.942,1.062 0.959,0.318 2.93,0.637 4.21,0.508 z m 31.273,40.903 c 0.008,-1.426 -9.978,5.978 -7.423,6.522 2.555,0.544 6.416,0.153 6.632,-0.939 0.216,-1.093 0.782,-4.157 0.791,-5.583 z m -56.589,14.021 c 0.785,-1.354 2.488,-4.468 2.488,-6.756 0,-2.288 0.225,-3.172 -0.096,-4.58 -0.319,-1.408 -1.85,-1.421 -2.424,-0.337 -0.575,1.083 -1.054,4.256 -1.637,4.34 -0.583,0.084 -0.093,-3.351 -0.932,-4.162 -0.84,-0.811 -4.816,1.106 -6.028,0.107 -1.212,-0.999 3.924,-1.444 3.924,-4.172 0,-2.729 -1.205,-3.147 -0.428,-4.209 0.776,-1.062 2.232,-0.971 1.774,-3.547 -0.457,-2.576 -8.324,-1.125 -9.692,-1.695 -1.368,-0.57 3.494,-0.252 3.433,-3.697 -0.021,-1.211 0.65,-4.021 0.616,-7.207 -0.034,-3.186 1.803,3.201 1.944,6.303 0.143,3.103 5.4,1.074 8.05,0.642 2.648,-0.432 -0.134,-6.419 -0.241,-9.469 -0.106,-3.049 1.62,-1.396 1.612,-3.82 -0.009,-2.424 -1.523,-2.452 -2.949,-2.31 -1.426,0.142 -1.515,1.689 -1.552,6.397 -0.02,2.317 -1.239,3.506 -1.406,1.048 -0.167,-2.458 -0.438,-4.065 -0.4,-5.658 0.071,-3.138 -5.041,-4.054 -5.076,-5.266 -0.033,-1.212 5.24,0.316 6.1,-0.321 0.859,-0.637 -0.245,-2.77 -0.872,-3.437 -1.425,-1.515 -0.381,-1.291 -1.917,-3.484 -1.362,-1.944 -1.304,-2.54 1.834,-1.042 3.138,1.498 -6.635,-10.715 -8.796,-13.253 -2.161,-2.538 -3.34,-3.485 -4.159,-2.869 -0.819,0.616 -1.229,6.547 -1.252,9.709 -0.039,4.935 0.581,9.716 0.479,14.468 -0.276,12.799 1.148,25.765 -0.458,38.365 -1.378,10.794 0.78,30.556 1.695,30.854 0.914,0.298 1.21,-0.375 3.602,-3.584 2.391,-3.21 3.304,-4.445 4.813,-6.349 2.366,-2.981 1.269,-5.662 0.786,-9.995 -0.481,-4.333 -0.602,-6.845 0.094,-7.247 0.695,-0.401 1.818,0.238 1.939,2.191 0.12,1.954 -0.146,2.569 1.317,2.283 1.464,-0.286 1.549,-0.283 2.284,-2.033 0.737,-1.75 0.745,5.147 1.531,3.792 z m 46.862,-14.288 c 1.044,-1.119 7.105,-4.775 5.45,-5.4 -1.656,-0.625 -5.229,-0.284 -6.563,0.344 -1.335,0.628 -2.512,-0.957 -1.818,-2.939 0.694,-1.982 6.655,-6.122 8.287,-6.342 1.632,-0.22 -0.771,3.274 0.368,4.594 1.141,1.32 4.528,7.1 5.052,4.796 0.524,-2.304 1.259,-11.239 1.969,-16.276 0.212,-1.501 0.497,-3.094 0.217,-4.542 -1.006,-5.209 -1.545,-16.237 -2.937,-15.773 -1.391,0.464 -2.283,3.636 -4.918,2.749 -1.981,-0.667 -4.495,-0.404 -6.059,-1.538 -1.942,-1.41 -1.909,-2.284 -5.951,-2.284 -4.043,0 -6.181,0.069 -8.251,0.253 -2.069,0.185 2.969,3.972 3.317,4.726 0.348,0.754 -4.826,3.813 -7.506,5.65 -2.003,1.373 -5.045,2.277 -3.897,5.236 1.6,4.133 4.781,1.082 6.995,0.508 4.707,-1.217 9.201,-3.23 13.874,-4.606 2.222,-0.655 5.17,-1.046 4.841,-0.034 -0.329,1.012 -2.864,2.612 -4.25,3.386 -1.387,0.774 -3.008,1.767 -5,2.989 -0.906,0.557 -5.071,1.998 -4.321,3.623 0.75,1.625 0.202,3.357 -2.258,3.707 -4.126,0.585 -13.333,1.535 -14.855,2.548 -1.522,1.013 5.372,7.173 4.351,8.391 -1.023,1.218 -11.223,2.716 -11.223,6.247 0,3.531 5.825,4.2 8.153,6.464 0.779,0.757 2.021,1.511 3.029,1.479 6.018,-0.19 18.338,0.577 18.596,-0.986 0.257,-1.563 -1.207,-5.333 -0.271,-6.194 0.936,-0.861 4.535,0.343 5.579,-0.776 z"
         id="path218"
         inkscape:connector-curvature="0" />
      <path
         d="m 741.278,317.781 c -0.588,0 0.839,-1.637 1.18,-2.365 0.604,-1.299 0.845,-4.769 1.375,-3.792 0.53,0.977 1.416,4.125 0.5,5.25 -0.916,1.125 -2.466,0.907 -3.055,0.907 z"
         id="path220"
         inkscape:connector-curvature="0" />
      <path
         d="m 694.775,332.167 c 0.998,-0.56 7.688,-4.872 9.021,-5.63 1.331,-0.758 2.68,-1.687 2.412,-0.746 -0.268,0.941 -1.384,2.93 -1.17,3.403 0.636,1.381 2.437,3.483 2.647,4.842 0.159,1.02 -1.549,1.219 -2.144,2.444 -0.455,0.935 0.144,2.557 -0.909,2.887 -1.052,0.33 -4.256,0.225 -4.717,-0.659 -0.461,-0.884 -6.138,-5.981 -5.14,-6.541 z"
         id="path222"
         inkscape:connector-curvature="0" />
      <path
         d="m 719.318,307.563 c 1.338,-0.775 2.633,-0.886 4.384,-0.513 2.469,0.527 3.47,2.26 3.052,4.694 -0.439,2.578 -2.636,4.256 -5.078,4.056 -2.809,-0.232 -4.854,-2.046 -4.57,-4.46 0.207,-1.767 0.874,-3.001 2.212,-3.777 z"
         id="path224"
         inkscape:connector-curvature="0" />
    </g>
  </g>
</svg>
