<?xml version="1.0" encoding="UTF-8" standalone="no"?>
<svg
   xmlns:dc="http://purl.org/dc/elements/1.1/"
   xmlns:cc="http://creativecommons.org/ns#"
   xmlns:rdf="http://www.w3.org/1999/02/22-rdf-syntax-ns#"
   xmlns:svg="http://www.w3.org/2000/svg"
   xmlns="http://www.w3.org/2000/svg"
   xmlns:sodipodi="http://sodipodi.sourceforge.net/DTD/sodipodi-0.dtd"
   xmlns:inkscape="http://www.inkscape.org/namespaces/inkscape"
   sodipodi:docname="wallspike.svg"
   inkscape:version="1.0 (4035a4fb49, 2020-05-01)"
   id="svg1056"
   version="1.1"
   viewBox="0 0 30.499999 30.5"
   height="30.5mm"
   width="30.5mm">
  <defs
     id="defs1050" />
  <sodipodi:namedview
     inkscape:window-maximized="1"
     inkscape:window-y="-8"
     inkscape:window-x="-8"
     inkscape:window-height="1356"
     inkscape:window-width="3440"
     showgrid="false"
     inkscape:document-rotation="0"
     inkscape:current-layer="layer1"
     inkscape:document-units="mm"
     inkscape:cy="48.73977"
     inkscape:cx="-55.184992"
     inkscape:zoom="1.979899"
     inkscape:pageshadow="2"
     inkscape:pageopacity="0.0"
     borderopacity="1.0"
     bordercolor="#666666"
     pagecolor="#ffffff"
     id="base" />
  <metadata
     id="metadata1053">
    <rdf:RDF>
      <cc:Work
         rdf:about="">
        <dc:format>image/svg+xml</dc:format>
        <dc:type
           rdf:resource="http://purl.org/dc/dcmitype/StillImage" />
        <dc:title></dc:title>
      </cc:Work>
    </rdf:RDF>
  </metadata>
  <g
     transform="translate(-72.140679,-110.28347)"
     id="layer1"
     inkscape:groupmode="layer"
     inkscape:label="Layer 1">
    <g
       transform="matrix(0.26458333,0,0,0.26458333,65.313423,107.96001)"
       id="g98">
      <g
         id="g88">
        <path
           style="clip-rule:evenodd;fill:#6d523a;fill-rule:evenodd"
           d="m 30.471,88.123 c -0.563,1 -0.221,5.25 0.404,6.125 0,0 6.496,-0.188 8.438,1.938 1.942,2.126 3.852,2.1 4.313,4 0.461,1.9 26.063,-5.563 25.125,-6.438 -0.938,-0.875 -22.376,-11.25 -23.688,-11.188 -1.312,0.062 -0.688,3.188 -2.313,4.313 -1.625,1.125 -12.279,1.25 -12.279,1.25 z"
           id="path72" />
        <g
           id="g80">
          <path
             style="clip-rule:evenodd;fill:#3c3c3d;fill-rule:evenodd"
             d="m 29.708,102.602 c -0.625,1.75 -1.333,4.583 -1.583,6.458 -0.188,1.625 0.25,3.25 0.438,4.813 0.375,2.438 0.819,6.372 0.313,8.104 -0.506,1.732 4.667,-1.208 5.917,-4.167 1.25,-2.959 2.417,-10.583 1.25,-12.667 -1.167,-2.084 -6.335,-2.541 -6.335,-2.541 z"
             id="path74" />
          <path
             style="clip-rule:evenodd;fill:#3c3c3d;fill-rule:evenodd"
             d="M 27.813,49.748 C 26.188,50.873 27,57.498 27.25,61.31 c 0.188,3.625 1.5,7.375 2.188,10.875 0.125,0.813 0.577,6.125 2.39,5.188 0.508,-0.263 5.266,-3.874 5.673,-7.063 0.407,-3.189 -0.527,-13.799 -1.438,-15.563 -1.7,-3.292 -7.606,-5.445 -8.25,-4.999 z"
             id="path76" />
          <path
             style="clip-rule:evenodd;fill:#3c3c3d;fill-rule:evenodd"
             d="m 27.287,9.998 c -0.5,3.063 -0.849,6.313 -1.037,9.375 -0.125,1.563 -0.313,3.125 -0.438,4.688 -0.063,1.688 0.25,3.563 0.5,5.25 0.125,1 0.625,4.063 1.25,5.188 0.625,1.125 4.284,-5.25 5.58,-7.313 1.296,-2.063 3.733,-9.938 1.983,-11.875 -1.75,-1.937 -7.838,-5.313 -7.838,-5.313 z"
             id="path78" />
        </g>
        <path
           style="clip-rule:evenodd;fill:#6d523a;fill-rule:evenodd"
           d="m 28,36.56 c -1.188,1.438 -0.563,3.75 -0.438,5.438 0,0 7.625,0.063 9.625,1.375 2,1.312 0.36,5.095 3.688,4.33 3.328,-0.765 26.125,-6.267 26,-7.83 C 66.75,38.31 46.375,32.725 43.5,31.35 40.625,29.975 41.118,33.445 39.5,35.873 37.882,38.301 28,36.56 28,36.56 Z"
           id="path82" />
        <path
           style="clip-rule:evenodd;fill:#adadaa;fill-rule:evenodd"
           d="M 66.875,39.873 C 66.75,38.31 46.375,32.725 43.5,31.35 c -1.228,-0.587 -1.839,-0.287 -2.266,0.435 1.817,2.946 4.132,6.93 4.183,8.193 0.05,1.253 -1.896,4.821 -3.458,7.471 5.578,-1.326 25.032,-6.132 24.916,-7.576 z"
           id="path84" />
        <path
           style="clip-rule:evenodd;fill:#adadaa;fill-rule:evenodd"
           d="M 68.75,93.748 C 67.863,92.92 48.655,83.603 45.458,82.645 c 1.855,4.219 3.554,9.204 2.208,10.999 -1.16,1.546 -2.711,4.166 -4.044,6.533 0,0.003 0.002,0.005 0.003,0.008 0.461,1.9 26.063,-5.562 25.125,-6.437 z"
           id="path86" />
      </g>
      <path
         style="clip-rule:evenodd;fill-rule:evenodd"
         d="m 35.375,38.269 c -1.167,-0.208 -6.488,-0.045 -6.969,-0.49 -0.702,-0.65 -1.328,-1.364 -1.734,-2.232 -0.408,-0.87 -0.625,-1.787 -0.291,-2.743 0.727,-2.088 5.39,-5.743 5.974,-8.66 0.584,-2.917 1.189,-6.272 1.188,-6.583 -0.015,-2.846 -7.318,-4.615 -7.353,-7.459 -0.004,-0.281 0.209,-0.621 0.42,-0.838 0.399,-0.411 0.868,-0.884 2.593,0.098 1.725,0.982 6.256,2.825 7.527,4.699 1.271,1.874 0.889,11.709 -1.271,14.292 -2.16,2.583 -5.444,5.661 -4.833,6.083 0.731,0.506 7.051,0.936 7.875,0.5 0.744,-0.395 -0.5,-3.813 0.656,-5.188 1.156,-1.375 4.211,0.411 8.406,1.531 4.195,1.12 9.354,2.781 12.479,3.531 3.125,0.75 10.833,3.417 10.792,4.708 -0.041,1.291 -7.908,4.375 -10.777,4.751 -0.939,0.124 -8.323,1.975 -11.045,2.848 -1.503,0.483 -7.178,2.397 -9.157,2.42 -1.979,0.023 -2.69,-2.233 -2.999,-3.134 -0.391,-1.14 -0.965,-1.612 -1.991,-1.77 -1.565,-0.24 -7.682,-0.783 -8.294,-1.574 -0.612,-0.791 -0.255,-2.099 0.346,-2.5 0.523,-0.351 9.209,0.125 10.542,1.042 1.333,0.917 2.097,2.765 2.708,2.875 1.693,0.308 3.6,-2.545 3.625,-3.875 0.025,-1.33 -1.604,-5.208 -3.073,-3.625 -1.469,1.583 -4.177,1.501 -5.344,1.293 z m 27.75,1.541 c 0.042,-0.708 -7.469,-3.031 -11.969,-4.281 -4.5,-1.25 -8.688,-2.701 -6.146,0.09 2.542,2.791 3.168,4.535 1.225,7.196 -1.943,2.661 3.8,1.205 5.375,0.817 0.609,-0.15 11.473,-3.113 11.515,-3.822 z"
         id="path90" />
      <path
         style="clip-rule:evenodd;fill-rule:evenodd"
         d="m 65.97,89.827 c -2.087,-0.803 -6.212,-2.205 -6.818,-2.407 -1.53,-0.51 -4.239,-1.761 -5.585,-2.62 -2.156,-1.375 -6.129,-4.709 -8.973,-4.959 -2.844,-0.25 -2.185,3.223 -2.75,4.906 -0.545,1.62 -5.525,1.476 -6.948,1.568 -1.273,0.083 -2.547,0.152 -3.818,0.257 -0.31,0.025 -0.614,0.151 -0.915,0.25 -0.788,0.261 -1.031,0.724 -0.795,1.396 0.209,0.593 0.555,1.146 1.197,1.378 2.494,0.901 3.415,0.313 7.029,0.026 3.614,-0.287 6.193,-1.854 7.625,-0.969 1.471,0.908 1.408,2.623 1.376,3.562 -0.032,0.939 -1.688,2.438 -3.501,4.032 -1.813,1.594 -1.861,-1.492 -3.939,-2.455 -2.078,-0.963 -7.087,-1.022 -8.041,-0.918 -0.954,0.104 -1.266,1.367 -0.989,2.092 0.208,0.548 0.894,0.748 1.516,1.005 0.586,0.243 1.223,0.378 1.848,0.508 1.425,0.296 4.012,0.206 5.418,1.3 1.406,1.094 2.182,1.676 2.669,3.572 0.487,1.896 1.521,2.07 3.089,1.427 1.801,-0.739 2.787,-0.956 5.992,-1.78 3.205,-0.824 6.284,-1.728 9.72,-2.46 3.752,-0.799 14.291,-3.978 14.396,-5.21 0.105,-1.232 -7.014,-2.813 -8.803,-3.501 z m -3.656,4.369 c -1.506,0.503 -3.037,0.931 -4.536,1.452 -2.13,0.739 -6.028,1.354 -8.903,2.414 -2.875,1.06 -2.863,0.229 -1.76,-1.59 1.103,-1.819 3.26,-4.037 2.885,-5.725 -0.375,-1.688 -4.188,-6.281 -0.813,-4.719 3.375,1.562 5.125,2.875 8.25,4.063 3.125,1.188 5.922,2.682 6.094,2.938 0.357,0.53 -0.4,0.893 -1.217,1.167 z"
         id="path92" />
      <path
         style="clip-rule:evenodd;fill-rule:evenodd"
         d="m 35.063,64.654 c -0.026,-1.898 -0.299,-4.738 -0.402,-6.633 -0.052,-0.942 -0.342,-1.888 -0.888,-2.68 -0.35,-0.507 -0.783,-1.043 -1.309,-1.325 -1.665,-0.896 -3.552,-1.329 -5.125,-2.449 -0.782,-0.557 -1.609,-2.184 -0.745,-3.07 0.864,-0.886 2.327,-0.031 2.934,0.156 2.136,0.662 4.114,1.666 5.953,2.919 1.326,0.903 2.332,2.135 3.034,3.578 0.272,0.562 0.466,1.19 0.553,1.809 0.572,4.078 1.12,9.195 0.964,12.039 -0.156,2.844 -1.217,5.197 -2.363,5.838 -1.683,0.941 -2.877,2.479 -4.477,3.515 -0.549,0.355 -1.721,1.352 -2.379,1.179 -0.862,-0.226 -0.922,-2.186 -0.701,-3.009 0.488,-1.817 3.826,-2.991 4.482,-5.272 0.656,-2.281 0.478,-5.931 0.469,-6.595 z"
         id="path94" />
      <path
         style="clip-rule:evenodd;fill-rule:evenodd"
         d="m 35.425,120.045 c -1.463,1.748 -3.2,3.044 -5.513,3.422 -0.655,0.106 -2.372,0.765 -2.496,-0.636 -0.124,-1.401 1.438,-2.354 3.521,-3.708 2.083,-1.354 2.953,-1.929 2.864,-3.556 -0.104,-1.925 1.312,-5.081 1.199,-7.756 -0.113,-2.675 -5.524,-2.727 -6.291,-4.208 -0.537,-1.038 -0.202,-2.013 0.616,-2.473 0.55,-0.31 3.218,-0.074 5.116,0.851 1.898,0.925 3.59,1.738 3.637,3.237 0.047,1.499 0.707,6.749 0.05,9.655 -0.657,2.906 -2.056,4.399 -2.703,5.172 z"
         id="path96" />
    </g>
  </g>
</svg>
