<?xml version="1.0" encoding="UTF-8" standalone="no"?>
<svg
   xmlns:dc="http://purl.org/dc/elements/1.1/"
   xmlns:cc="http://creativecommons.org/ns#"
   xmlns:rdf="http://www.w3.org/1999/02/22-rdf-syntax-ns#"
   xmlns:svg="http://www.w3.org/2000/svg"
   xmlns="http://www.w3.org/2000/svg"
   xmlns:sodipodi="http://sodipodi.sourceforge.net/DTD/sodipodi-0.dtd"
   xmlns:inkscape="http://www.inkscape.org/namespaces/inkscape"
   sodipodi:docname="web1.svg"
   inkscape:version="1.0 (4035a4fb49, 2020-05-01)"
   id="svg4796"
   version="1.1"
   viewBox="0 0 33.304619 33.304619"
   height="33.304619mm"
   width="33.304619mm">
  <defs
     id="defs4790" />
  <sodipodi:namedview
     inkscape:window-maximized="1"
     inkscape:window-y="-8"
     inkscape:window-x="-8"
     inkscape:window-height="1356"
     inkscape:window-width="3440"
     showgrid="false"
     inkscape:document-rotation="0"
     inkscape:current-layer="layer1"
     inkscape:document-units="mm"
     inkscape:cy="-14.007261"
     inkscape:cx="-380.77488"
     inkscape:zoom="2.8"
     inkscape:pageshadow="2"
     inkscape:pageopacity="0.0"
     borderopacity="1.0"
     bordercolor="#666666"
     pagecolor="#ffffff"
     id="base" />
  <metadata
     id="metadata4793">
    <rdf:RDF>
      <cc:Work
         rdf:about="">
        <dc:format>image/svg+xml</dc:format>
        <dc:type
           rdf:resource="http://purl.org/dc/dcmitype/StillImage" />
        <dc:title></dc:title>
      </cc:Work>
    </rdf:RDF>
  </metadata>
  <g
     transform="translate(-96.740547,-103.60457)"
     id="layer1"
     inkscape:groupmode="layer"
     inkscape:label="Layer 1">
    <g
       transform="matrix(0.26458333,0,0,0.26458333,28.93178,71.1704)"
       id="g182">
      <path
         d="m 285.658,210.525 c 0.085,0 0.167,0 0.241,0 -0.063,-0.002 -0.122,-0.004 -0.17,-0.004 -0.024,0 -0.047,0.004 -0.071,0.004 z"
         id="path176" />
      <path
         d="m 367.61,200.606 c -7.515,-3.568 -9.925,-13.553 -7.272,-20.933 1.939,-5.393 5.366,-8.729 9.767,-12.247 2.243,-1.795 1.146,-3.867 3.84,-8.446 2.694,-4.579 3.371,-7.191 1.798,-7.146 -1.573,0.045 -6.332,5.699 -8.401,7.775 -4.176,4.187 -6.571,6.635 -12.786,5.665 -3.621,-0.565 -7.151,-1.558 -9.76,-4.202 -6.438,-6.526 -2.441,-13.878 0.333,-21.244 0.771,-2.048 1.515,-5.741 -0.046,-5.186 -1.768,0.629 -6.008,7.417 -6.455,8.987 -0.877,3.091 -6.172,6.292 -9.001,7.318 -4.116,1.493 -4.145,3.8 -6.128,7.111 -2.015,3.366 -6.434,7.303 -9.333,9.833 -13.786,12.034 -28.25,29.833 -42.646,35.649 -4.072,1.645 -6.356,4.881 -10.7,5.666 -3.625,0.655 -7.438,3.479 -1.265,3.845 4.702,0.278 8.96,-0.033 13.654,-0.222 4.299,-0.185 8.087,-2.283 12.448,-2.307 -0.625,-0.001 -1.379,-0.004 0.071,-0.004 0.696,0.004 0.529,0.005 0.17,0.004 2.23,0.082 13.94,1.47 9.968,5.613 -2.166,2.264 -4.759,4.397 -6.268,7.174 -1.886,3.466 3.174,2.312 4.301,1.849 4.679,-1.923 7.387,-5.822 11.457,-8.794 3.46,-2.525 6.915,-4.629 10.751,-6.535 8.157,-4.053 15.58,-8.896 25.643,-8.084 10.063,0.812 13.886,-0.25 19.248,2.073 5.362,2.323 10.209,3.994 13.149,6.116 1.417,1.022 7.77,7.123 8.01,3.262 0.24,-3.861 -10.846,-10.833 -14.547,-12.59 z m -84.186,3.489 c 1.674,-1.965 4.031,-3.063 9.014,-6.91 5.023,-3.878 7.083,-5.863 11.182,-10.705 3.45,-4.075 27.641,-30.704 28.797,-29.67 1.156,1.034 -14.917,17.063 -16.292,21.375 -1.375,4.312 -10.984,12.162 -18.25,17.563 -9.501,7.062 -16.125,10.312 -14.451,8.347 z m 50.236,-17.231 c -0.009,0.104 -0.021,0.151 -0.033,0.176 -0.746,4.328 -14.623,8.614 -14.31,6.353 0.317,-2.292 5.572,-13.221 8.56,-13.061 2.733,0.148 5.018,4.376 5.783,6.532 z m -23.243,9.78 c -2.083,1.5 -9.208,3.777 -8.667,2.75 0.539,-1.027 3.814,-2.836 7.49,-5.418 3.676,-2.583 7.01,-8.667 8.093,-8 1.083,0.667 -4.833,9.168 -6.916,10.668 z m -9.19,12.734 c -1.283,0.653 -4.852,-1.692 -7.269,-2.484 -2.417,-0.792 10.324,-3.634 11.428,-2.821 1.104,0.813 -2.876,4.652 -4.159,5.305 z m 8.69,-2.068 c 0.667,-1.5 1.583,-2.791 3.375,-4.833 1.792,-2.042 11.633,-2.093 12.875,-2.333 2.664,1.404 -16.917,8.666 -16.25,7.166 z m 27.958,-12.812 c -0.276,0.996 -8.688,2 -6.688,0.75 2,-1.25 4.452,-3.75 5.438,-3.375 0.986,0.375 1.526,1.628 1.25,2.625 z m 8.875,0.125 c -3.88,-0.212 -4,0.5 -4.688,-2.75 -0.688,-3.25 5.999,-7.319 9.406,-7.941 1.236,-0.8 1.682,6.199 1.858,7.531 0.565,4.242 -1.3,3.447 -6.576,3.16 z m -6.327,-11.638 c -4.212,-0.735 -6.406,-7.177 -6.406,-10.774 -0.16,-3.328 1.801,-11.198 6.208,-7.047 2.51,2.365 4.553,3.306 7.947,3.954 1.417,0.271 5.399,0.583 5.707,2.654 0.469,3.145 -10.479,11.733 -13.456,11.213 z"
         id="path178" />
      <path
         d="m 333.627,187.041 c 0.01,-0.059 0.027,-0.118 0.033,-0.176 -0.178,-0.501 -0.098,0.312 -0.033,0.176 z"
         id="path180" />
    </g>
  </g>
</svg>
