<?xml version="1.0" encoding="UTF-8" standalone="no"?>
<svg
   xmlns:dc="http://purl.org/dc/elements/1.1/"
   xmlns:cc="http://creativecommons.org/ns#"
   xmlns:rdf="http://www.w3.org/1999/02/22-rdf-syntax-ns#"
   xmlns:svg="http://www.w3.org/2000/svg"
   xmlns="http://www.w3.org/2000/svg"
   xmlns:sodipodi="http://sodipodi.sourceforge.net/DTD/sodipodi-0.dtd"
   xmlns:inkscape="http://www.inkscape.org/namespaces/inkscape"
   sodipodi:docname="web2.svg"
   inkscape:version="1.0 (4035a4fb49, 2020-05-01)"
   id="svg5386"
   version="1.1"
   viewBox="0 0 32.196949 32.196949"
   height="32.196949mm"
   width="32.196949mm">
  <defs
     id="defs5380" />
  <sodipodi:namedview
     inkscape:window-maximized="1"
     inkscape:window-y="-8"
     inkscape:window-x="-8"
     inkscape:window-height="1356"
     inkscape:window-width="3440"
     showgrid="false"
     inkscape:document-rotation="0"
     inkscape:current-layer="layer1"
     inkscape:document-units="mm"
     inkscape:cy="212.37937"
     inkscape:cx="-66.625451"
     inkscape:zoom="1.979899"
     inkscape:pageshadow="2"
     inkscape:pageopacity="0.0"
     borderopacity="1.0"
     bordercolor="#666666"
     pagecolor="#ffffff"
     id="base" />
  <metadata
     id="metadata5383">
    <rdf:RDF>
      <cc:Work
         rdf:about="">
        <dc:format>image/svg+xml</dc:format>
        <dc:type
           rdf:resource="http://purl.org/dc/dcmitype/StillImage" />
        <dc:title></dc:title>
      </cc:Work>
    </rdf:RDF>
  </metadata>
  <g
     transform="translate(-51.181285,-121.81653)"
     id="layer1"
     inkscape:groupmode="layer"
     inkscape:label="Layer 1">
    <path
       style="clip-rule:evenodd;fill-rule:evenodd;stroke-width:0.264583"
       d="m 80.37691,132.24807 c 0.290248,0.88504 0.711994,1.78488 1.344877,2.47545 0.920486,1.00435 2.355321,1.70312 1.263915,2.39765 -1.091406,0.69453 -1.924844,1.47399 -2.287588,2.31854 -0.268287,0.62469 -0.681037,1.19989 -0.975783,1.8161 -0.619654,1.29487 -1.297781,3.56659 -1.02526,4.98237 0.149225,0.77497 0.948002,0.97023 0.705643,1.66476 -0.242358,0.69453 0.886355,2.45057 0.638175,2.94666 -0.248179,0.4961 -2.324629,-1.42054 -3.063346,-1.77244 -1.047486,-0.4998 -2.029354,-1.02685 -3.151452,-1.34779 -4.056063,-1.16072 -8.00788,-0.73263 -12.166071,-0.69929 -0.893763,0.007 -1.887538,0.17727 -2.761192,0.36936 -0.765704,0.16854 -2.706158,0.78237 -3.301471,0.84852 -0.595312,0.0661 0.01931,-1.36737 0.230453,-2.07989 0.258233,-0.86836 -0.07752,-2.21192 -0.475192,-3.00249 -0.397669,-0.79058 -1.050396,-1.42399 -1.753923,-1.94522 -0.521494,-0.38629 -2.163763,-1.01071 -2.385219,-1.61872 -0.221456,-0.60828 0.768086,-0.78899 0.884502,-1.34647 0.177007,-0.84269 1.304661,-1.45706 1.92749,-1.94654 1.573477,-1.23613 2.641071,-3.42688 3.655219,-5.13185 0.475456,-0.79825 0.938741,-1.37346 1.493043,-3.25358 0.554302,-1.88013 -0.100012,-2.8239 0.991394,-3.73328 1.091406,-0.90937 1.300956,0.83635 3.52769,1.52612 2.226733,0.68977 4.679156,0.89429 6.859058,0.91255 1.910821,0.0159 3.650721,-0.26458 5.519473,-0.61833 0.830262,-0.15716 1.640682,-0.40138 2.442105,-0.66622 1.065741,-0.35111 2.463271,-0.72814 1.908704,0.79719 -0.554567,1.52532 -0.672835,4.19258 -0.04524,6.10684 z m -10.647099,0.2966 c 3.061494,0.24421 6.14098,-2.24922 7.77584,-4.59184 1.377686,-1.97432 -1.721115,-0.83873 -2.603235,-0.635 -1.652059,0.381 -3.339042,0.30824 -4.998244,0.46381 -1.380861,0.12965 -2.941902,-0.0307 -4.285192,-0.431 -0.882914,-0.26326 -1.753658,-0.4199 -2.683404,-0.35931 -0.7747,0.0503 -0.268023,1.40547 -0.12356,1.74837 0.293687,0.69823 0.649552,1.37213 1.08876,1.98993 0.377031,0.53128 0.936096,0.46064 1.426369,0.80063 1.400969,0.97129 2.8067,0.66807 4.402666,1.01441 0.33708,0.027 -0.164306,-0.0357 0,0 z m 5.571332,5.8248 c 1.003035,-0.11377 6.701632,-0.96705 5.502276,-2.5228 -0.728663,-0.94482 -1.266032,-1.80975 -1.646238,-2.95169 -0.297656,-0.89456 -0.286544,-2.41882 -0.837142,-3.17235 -0.48207,-0.65961 -1.865313,0.98134 -2.202128,1.27 -0.478895,0.41063 -1.089818,0.74136 -1.515004,1.20544 -0.369093,0.40269 -0.459581,0.95382 -0.807508,1.37213 -0.636323,0.76544 -1.398852,1.60549 -0.851429,2.69213 0.725223,1.44172 0.448733,2.345 2.357173,2.10714 0.335227,-0.0381 -0.33364,0.0415 0,0 z m -19.077781,-0.0762 c 1.093787,-0.0286 2.554816,0.10002 3.493293,-0.5797 0.987425,-0.71543 1.775354,-2.2053 2.201334,-3.32237 0.286543,-0.75142 0.905933,-2.51804 0.554302,-3.28136 -0.212725,-0.46302 -1.160198,-3.83329 -1.623219,-3.70099 -0.463021,0.13229 -0.697971,1.63327 -0.902229,2.08756 -0.220927,0.49133 -0.631561,0.9136 -0.801423,1.42319 -0.427038,1.27741 -1.507067,2.23229 -2.088356,3.43482 -0.574411,1.18851 -1.513417,2.05608 -2.497402,2.90301 -1.434571,1.23455 0.834231,1.06468 1.6637,1.03584 0.3937,-0.0103 -0.697442,0.0243 0,0 z m 10.003366,7.52396 c 1.192477,-0.0619 2.357438,0.0511 3.545681,0.0781 0.360363,0.008 3.631671,0.32703 2.906184,-0.56753 -1.516327,-1.87431 -5.242984,-3.26972 -7.579254,-2.47677 -0.50165,0.1696 -0.855134,0.45747 -1.417638,0.46303 -0.461433,0.005 -0.970227,-5.3e-4 -1.397265,0.19949 -0.87577,0.41011 -2.956189,1.36896 -3.492499,2.16323 -0.406665,0.60246 0.348985,0.46514 0.658548,0.40402 0.826558,-0.16324 1.673489,-0.11562 2.511424,-0.14393 1.421871,-0.0482 2.842155,-0.11774 4.264819,-0.11959 0.776023,-0.0402 -1.409435,0.002 0,0 z m 12.635178,-7.03104 c -1.092994,0.0741 -2.17567,0.51991 -3.256228,0.72919 -0.945092,0.18283 -2.408767,0.11483 -3.171825,0.81228 -1.384829,1.26576 0.760677,3.57637 1.73355,4.25264 0.728398,0.50642 2.236788,1.67958 2.765954,1.69069 0.529167,0.0111 0.414338,-2.20636 0.771791,-3.02075 0.357452,-0.81438 0.690827,-1.72852 1.064683,-2.53338 0.271198,-0.5842 1.176602,-1.72218 0.09207,-1.93067 -0.167481,0.0114 0.0807,0.0156 0,0 z m -21.622809,0.48498 c -0.753798,0.0193 -1.595173,-0.063 -2.309812,0.22464 -1.243807,0.50059 0.25347,1.3036 0.722047,1.78011 0.614628,0.62548 1.130036,1.43457 1.367367,2.28415 0.271463,0.97208 0.3683,1.89786 1.56845,1.23375 0.740304,-0.40957 4.455054,-2.56407 3.071019,-3.5679 -0.64479,-0.46779 -1.427163,-0.6604 -2.089944,-1.07712 -0.930275,-0.58553 -1.171839,-0.8464 -2.329127,-0.87763 -0.65114,0.0167 0.190765,0.005 0,0 z m 11.81735,-5.67769 c -0.953558,-0.0611 -1.908704,-0.17383 -2.861998,-0.22093 -1.181629,-0.0601 0.284956,2.71648 0.513027,3.05515 0.84111,1.24618 2.773892,-1.09458 3.375025,-1.63301 1.274763,-1.14141 0.12065,-1.14485 -1.026054,-1.20121 -0.937154,-0.0603 0.06826,0.003 0,0 z M 63.54253,137.93 c 1.02235,0 2.260071,0.24183 1.659731,-1.13453 -0.205052,-0.4699 -0.81571,-2.79744 -1.420812,-2.7051 -0.712258,0.10874 -1.394619,2.12936 -1.726142,2.70192 -0.698235,1.20544 0.658813,1.12025 1.487223,1.13771 0.531019,0 -0.386027,-0.008 0,0 z m 7.132902,0.90593 c 0.476779,0.0198 1.806311,-0.45428 1.448329,-1.17422 -0.60907,-1.22396 -0.774964,-2.30716 -2.16482,-1.33376 -0.415396,0.29104 -1.630892,1.03955 -1.571096,1.65338 0.07541,0.77893 1.757362,0.84058 2.287587,0.8546 0.338932,0.014 -0.596106,-0.0159 0,0 z m -5.940954,2.48418 c 0.541073,0.37544 1.947863,0.0386 2.655888,0.17145 0.385233,0.072 1.535641,0.16827 1.084262,-0.63738 -0.37465,-0.66649 -0.878681,-1.23243 -1.671902,-1.27979 -0.75274,-0.0455 -2.177785,0.92763 -2.068248,1.74572 0.06668,0.0463 -0.01085,-0.081 0,0 z m -1.722967,-2.13069 c -0.29792,0.018 -1.523206,-0.0288 -1.622425,0.19156 -0.09922,0.22039 1.293548,1.1885 1.631686,1.26762 0.413279,0.0958 0.926042,-0.46885 1.201737,-0.83768 0.559859,-0.7485 -0.736864,-0.56832 -1.210998,-0.6215 -0.274108,0.0167 0.227013,0.0254 0,0 z"
       id="path2" />
  </g>
</svg>
