<?xml version="1.0" encoding="UTF-8" standalone="no"?>
<svg
   xmlns:dc="http://purl.org/dc/elements/1.1/"
   xmlns:cc="http://creativecommons.org/ns#"
   xmlns:rdf="http://www.w3.org/1999/02/22-rdf-syntax-ns#"
   xmlns:svg="http://www.w3.org/2000/svg"
   xmlns="http://www.w3.org/2000/svg"
   xmlns:sodipodi="http://sodipodi.sourceforge.net/DTD/sodipodi-0.dtd"
   xmlns:inkscape="http://www.inkscape.org/namespaces/inkscape"
   version="1.1"
   id="katman_1"
   x="0px"
   y="0px"
   viewBox="0 0 75 75.000107"
   xml:space="preserve"
   sodipodi:docname="eggplant.svg"
   width="75"
   height="75.000107"
   inkscape:version="1.0.1 (3bc2e813f5, 2020-09-07)"><metadata
   id="metadata1883"><rdf:RDF><cc:Work
       rdf:about=""><dc:format>image/svg+xml</dc:format><dc:type
         rdf:resource="http://purl.org/dc/dcmitype/StillImage" /><dc:title></dc:title></cc:Work></rdf:RDF></metadata><defs
   id="defs1881" /><sodipodi:namedview
   pagecolor="#ffffff"
   bordercolor="#666666"
   borderopacity="1"
   objecttolerance="10"
   gridtolerance="10"
   guidetolerance="10"
   inkscape:pageopacity="0"
   inkscape:pageshadow="2"
   inkscape:window-width="1718"
   inkscape:window-height="1368"
   id="namedview1879"
   showgrid="false"
   fit-margin-top="0"
   fit-margin-left="0"
   fit-margin-right="0"
   fit-margin-bottom="0"
   inkscape:zoom="2.216"
   inkscape:cx="227.74001"
   inkscape:cy="85.879997"
   inkscape:window-x="1713"
   inkscape:window-y="0"
   inkscape:window-maximized="0"
   inkscape:current-layer="g1876" />
<style
   type="text/css"
   id="style2">
	.st0{fill:#F40303;}
	.st1{fill:#4E9B04;}
	.st2{opacity:0.1;}
	.st3{opacity:0.15;fill:#FFFFFF;}
	.st4{fill:none;}
	.st5{fill:#DF0000;}
	.st6{fill:#41A500;}
	.st7{opacity:0.1;fill:#231F20;}
	.st8{fill:#84C100;}
	.st9{fill:#F86107;}
	.st10{opacity:0.07;}
	.st11{opacity:0.2;fill:#FFFFFF;}
	.st12{fill:#E55107;}
	.st13{fill:#E61206;}
	.st14{fill:#0D5C00;}
	.st15{fill:#27AB3B;}
	.st16{fill:#09913C;}
	.st17{fill:#E6012C;}
	.st18{fill:#680756;}
	.st19{fill:#74990D;}
	.st20{fill:#B22483;}
	.st21{fill:#43BC48;}
	.st22{fill:#2EAF2E;}
	.st23{fill:#8D1E60;}
	.st24{fill:#753D24;}
	.st25{fill:#348801;}
	.st26{fill:#2C7005;}
	.st27{fill:#63AB16;}
	.st28{fill:#8EBA24;}
	.st29{fill:#3B7524;}
	.st30{fill:#B4D459;}
	.st31{opacity:0.2;fill:#B4D459;}
	.st32{fill:#FEB544;}
	.st33{opacity:0.1;fill:#CE863A;}
	.st34{fill:#CE863A;}
	.st35{fill:#57BF44;}
	.st36{fill:#BBFF96;}
	.st37{fill:#DFFFAA;}
	.st38{fill:#39AA50;}
	.st39{fill:#5DD166;}
	.st40{fill:#8FDC50;}
	.st41{fill:#29602E;}
	.st42{fill:#8CD13D;}
	.st43{fill:#24892E;}
	.st44{fill:#15441A;}
	.st45{fill:#699E25;}
	.st46{fill:#4A8912;}
	.st47{fill:#FCD30B;}
	.st48{fill:#FFE36C;}
	.st49{fill:#FCD30B;stroke:#ED5100;stroke-width:0.0803;stroke-miterlimit:10;}
	.st50{fill:#FCD30B;stroke:#ED5100;stroke-width:0.0749;stroke-miterlimit:10;}
	.st51{fill:#FCD30B;stroke:#ED5100;stroke-width:0.0709;stroke-miterlimit:10;}
	.st52{fill:#FCD30B;stroke:#ED5100;stroke-width:0.0592;stroke-miterlimit:10;}
	.st53{fill:#FCD30B;stroke:#ED5100;stroke-width:0.0529;stroke-miterlimit:10;}
	.st54{fill:#FCD30B;stroke:#ED5100;stroke-width:0.0474;stroke-miterlimit:10;}
	.st55{fill:#FCD30B;stroke:#ED5100;stroke-width:0.0447;stroke-miterlimit:10;}
	.st56{fill:#FCD30B;stroke:#ED5100;stroke-width:0.0607;stroke-miterlimit:10;}
	.st57{fill:#FCD30B;stroke:#ED5100;stroke-width:0.0574;stroke-miterlimit:10;}
	.st58{fill:#FCD30B;stroke:#ED5100;stroke-width:0.0479;stroke-miterlimit:10;}
	.st59{fill:#FCD30B;stroke:#ED5100;stroke-width:0.0402;stroke-miterlimit:10;}
	.st60{fill:#FCD30B;stroke:#ED5100;stroke-width:0.0362;stroke-miterlimit:10;}
	.st61{fill:#FCD30B;stroke:#ED5100;stroke-width:0.033;stroke-miterlimit:10;}
	.st62{fill:#FCD30B;stroke:#ED5100;stroke-width:0.0788;stroke-miterlimit:10;}
	.st63{fill:#FCD30B;stroke:#ED5100;stroke-width:0.0766;stroke-miterlimit:10;}
	.st64{fill:#FCD30B;stroke:#ED5100;stroke-width:0.0793;stroke-miterlimit:10;}
	.st65{fill:#FCD30B;stroke:#ED5100;stroke-width:0.0791;stroke-miterlimit:10;}
	.st66{fill:#FCD30B;stroke:#ED5100;stroke-width:0.0796;stroke-miterlimit:10;}
	.st67{fill:#FCD30B;stroke:#ED5100;stroke-width:0.0635;stroke-miterlimit:10;}
	.st68{fill:#FCD30B;stroke:#ED5100;stroke-width:0.0533;stroke-miterlimit:10;}
	.st69{fill:#FCD30B;stroke:#ED5100;stroke-width:0.0498;stroke-miterlimit:10;}
	.st70{fill:#FCD30B;stroke:#ED5100;stroke-width:0.0329;stroke-miterlimit:10;}
	.st71{fill:#FCD30B;stroke:#ED5100;stroke-width:0.0389;stroke-miterlimit:10;}
	.st72{fill:#FCD30B;stroke:#ED5100;stroke-width:0.023;stroke-miterlimit:10;}
	.st73{fill:#FCD30B;stroke:#ED5100;stroke-width:0.0359;stroke-miterlimit:10;}
	.st74{fill:#FCD30B;stroke:#ED5100;stroke-width:0.0251;stroke-miterlimit:10;}
	.st75{fill:#FCD30B;stroke:#ED5100;stroke-width:0.0795;stroke-miterlimit:10;}
	.st76{fill:#FCD30B;stroke:#ED5100;stroke-width:0.0675;stroke-miterlimit:10;}
	.st77{fill:#FCD30B;stroke:#ED5100;stroke-width:0.0543;stroke-miterlimit:10;}
	.st78{fill:#FCD30B;stroke:#ED5100;stroke-width:0.0466;stroke-miterlimit:10;}
	.st79{fill:#FCD30B;stroke:#ED5100;stroke-width:0.0354;stroke-miterlimit:10;}
	.st80{fill:#489B0B;}
	.st81{fill:#72B236;}
	.st82{fill:#62A428;}
	.st83{fill:#528E2A;}
	.st84{fill:#92BC4C;}
	.st85{fill:#569B30;}
	.st86{fill:#E2C3A4;stroke:#A97D60;stroke-width:0.2737;stroke-miterlimit:10;}
	.st87{fill:#EFE3D3;stroke:#A97D60;stroke-width:0.3649;stroke-linecap:round;stroke-linejoin:round;stroke-miterlimit:10;}
	.st88{fill:#9D6B50;}
	.st89{fill:#E2C19E;}
	.st90{fill:#A16038;}
	.st91{fill:#DFC298;}
	.st92{fill:#EEE4BF;}
	.st93{fill:#D3B689;}
	.st94{fill:#689D34;}
	.st95{fill:#A5BC81;}
	.st96{fill:#DED6A8;}
	.st97{fill:#F4EDDA;}
	.st98{fill:#FF7900;stroke:#DB4900;stroke-width:0.5055;stroke-linecap:round;stroke-linejoin:round;stroke-miterlimit:10;}
	.st99{fill:none;stroke:#DB4900;stroke-width:0.5055;stroke-linecap:round;stroke-linejoin:round;stroke-miterlimit:10;}
	.st100{fill:#2E4819;}
	.st101{fill:#85BB19;}
	.st102{fill:#B2DC55;stroke:#A2C63C;stroke-width:0.2575;stroke-miterlimit:10;}
	.st103{fill:#86CE2C;}
	.st104{fill:#86CE2C;stroke:#72AA1A;stroke-width:0.1884;stroke-linecap:round;stroke-linejoin:round;stroke-miterlimit:10;}
	.st105{opacity:0.6;fill:#DDE68D;}
	.st106{opacity:0.6;}
	.st107{fill:#DDE68D;}
	.st108{fill:#86CE2C;stroke:#72AA1A;stroke-width:0.208;stroke-linecap:round;stroke-linejoin:round;stroke-miterlimit:10;}
</style>
<g
   id="g1876"
   transform="translate(-22.26,-114.12)">
	
	
	
	
	
	<g
   id="g232">
		<g
   id="g228">
			<path
   class="st18"
   d="m 78.51,144.46 c -0.24,1.11 -0.46,2.43 -0.68,3.92 -1.34,8.98 -2.81,23.85 -10,31.75 -8.38,9.22 -18.92,12.44 -26.88,4.44 -1.35,-1.36 -2.39,-2.72 -3.15,-4.07 -3.75,-6.62 -1.05,-13.07 2.88,-18.24 4.72,-6.22 6.62,-5.01 16.71,-21.7 0,0 3.72,-6.86 5.21,-8.92 1.5,-2.06 16.24,1.21 16.24,1.21 0,0 1.37,3.84 -0.33,11.61 z"
   id="path218" />
			<path
   class="st19"
   d="m 82.61,114.15 c -0.84,-0.11 -1.69,0.16 -2.33,0.7 -1.6,1.35 -5.27,4.81 -8.73,10.57 -0.03,0.05 -0.06,0.11 -0.1,0.16 -0.14,0.24 -0.92,1.35 -3.62,1.95 -1.76,0.39 -3.39,1.24 -4.66,2.51 -0.16,0.16 -0.32,0.33 -0.47,0.51 -1.83,2.1 -4.99,5.33 -6.39,5.39 -1.35,0.05 5.3,2.26 9.43,0.7 0.26,-0.1 0.54,0 0.68,0.24 0.81,1.38 3.24,5.89 2.28,8.94 -0.02,0.08 0.07,0.14 0.13,0.08 1.21,-1.26 6.36,-6.59 8.72,-8.46 0.26,-0.21 0.65,-0.08 0.74,0.24 0.25,0.92 0.81,2.48 1.68,2.54 0,0 0.57,-6.44 -2.06,-8.76 -2.63,-2.32 3.54,-13.52 5.19,-15.69 0.86,-1.14 0.27,-1.52 -0.49,-1.62 z"
   id="path220" />
			<path
   class="st2"
   d="m 77.83,148.38 c -1.34,8.98 -2.81,23.85 -10,31.75 -8.38,9.22 -18.92,12.44 -26.88,4.44 -1.35,-1.36 -2.39,-2.72 -3.15,-4.07 23.18,12.6 39.91,-31.81 40.03,-32.12 z"
   id="path222" />
			
				<ellipse
   transform="matrix(0.5737,-0.819,0.819,0.5737,-93.9338,109.89)"
   class="st11"
   cx="58.610001"
   cy="145.19"
   rx="4.1799998"
   ry="1.48"
   id="ellipse224" />
			
				<ellipse
   transform="matrix(0.5737,-0.819,0.819,0.5737,-101.5332,108.8872)"
   class="st11"
   cx="53.84"
   cy="151.99001"
   rx="2.3599999"
   ry="0.83999997"
   id="ellipse226" />
		</g>
		<rect
   x="22.26"
   y="114.12"
   class="st4"
   width="75"
   height="75"
   id="rect230" />
	</g>
	
	
	
	
	
	
	
	
	
	
	
	
	
	
</g>
</svg>
