<?xml version="1.0" encoding="UTF-8" standalone="no"?>
<svg
   xmlns:dc="http://purl.org/dc/elements/1.1/"
   xmlns:cc="http://creativecommons.org/ns#"
   xmlns:rdf="http://www.w3.org/1999/02/22-rdf-syntax-ns#"
   xmlns:svg="http://www.w3.org/2000/svg"
   xmlns="http://www.w3.org/2000/svg"
   xmlns:sodipodi="http://sodipodi.sourceforge.net/DTD/sodipodi-0.dtd"
   xmlns:inkscape="http://www.inkscape.org/namespaces/inkscape"
   version="1.1"
   id="katman_1"
   x="0px"
   y="0px"
   viewBox="0 0 74.999998 75.296028"
   xml:space="preserve"
   sodipodi:docname="lettuce.svg"
   width="75"
   height="75.296028"
   inkscape:version="1.0.1 (3bc2e813f5, 2020-09-07)"><metadata
   id="metadata1883"><rdf:RDF><cc:Work
       rdf:about=""><dc:format>image/svg+xml</dc:format><dc:type
         rdf:resource="http://purl.org/dc/dcmitype/StillImage" /><dc:title></dc:title></cc:Work></rdf:RDF></metadata><defs
   id="defs1881" /><sodipodi:namedview
   pagecolor="#ffffff"
   bordercolor="#666666"
   borderopacity="1"
   objecttolerance="10"
   gridtolerance="10"
   guidetolerance="10"
   inkscape:pageopacity="0"
   inkscape:pageshadow="2"
   inkscape:window-width="1718"
   inkscape:window-height="1368"
   id="namedview1879"
   showgrid="false"
   fit-margin-top="0"
   fit-margin-left="0"
   fit-margin-right="0"
   fit-margin-bottom="0"
   inkscape:zoom="2.216"
   inkscape:cx="-153.35"
   inkscape:cy="-106.09403"
   inkscape:window-x="1713"
   inkscape:window-y="0"
   inkscape:window-maximized="0"
   inkscape:current-layer="g1876" />
<style
   type="text/css"
   id="style2">
	.st0{fill:#F40303;}
	.st1{fill:#4E9B04;}
	.st2{opacity:0.1;}
	.st3{opacity:0.15;fill:#FFFFFF;}
	.st4{fill:none;}
	.st5{fill:#DF0000;}
	.st6{fill:#41A500;}
	.st7{opacity:0.1;fill:#231F20;}
	.st8{fill:#84C100;}
	.st9{fill:#F86107;}
	.st10{opacity:0.07;}
	.st11{opacity:0.2;fill:#FFFFFF;}
	.st12{fill:#E55107;}
	.st13{fill:#E61206;}
	.st14{fill:#0D5C00;}
	.st15{fill:#27AB3B;}
	.st16{fill:#09913C;}
	.st17{fill:#E6012C;}
	.st18{fill:#680756;}
	.st19{fill:#74990D;}
	.st20{fill:#B22483;}
	.st21{fill:#43BC48;}
	.st22{fill:#2EAF2E;}
	.st23{fill:#8D1E60;}
	.st24{fill:#753D24;}
	.st25{fill:#348801;}
	.st26{fill:#2C7005;}
	.st27{fill:#63AB16;}
	.st28{fill:#8EBA24;}
	.st29{fill:#3B7524;}
	.st30{fill:#B4D459;}
	.st31{opacity:0.2;fill:#B4D459;}
	.st32{fill:#FEB544;}
	.st33{opacity:0.1;fill:#CE863A;}
	.st34{fill:#CE863A;}
	.st35{fill:#57BF44;}
	.st36{fill:#BBFF96;}
	.st37{fill:#DFFFAA;}
	.st38{fill:#39AA50;}
	.st39{fill:#5DD166;}
	.st40{fill:#8FDC50;}
	.st41{fill:#29602E;}
	.st42{fill:#8CD13D;}
	.st43{fill:#24892E;}
	.st44{fill:#15441A;}
	.st45{fill:#699E25;}
	.st46{fill:#4A8912;}
	.st47{fill:#FCD30B;}
	.st48{fill:#FFE36C;}
	.st49{fill:#FCD30B;stroke:#ED5100;stroke-width:0.0803;stroke-miterlimit:10;}
	.st50{fill:#FCD30B;stroke:#ED5100;stroke-width:0.0749;stroke-miterlimit:10;}
	.st51{fill:#FCD30B;stroke:#ED5100;stroke-width:0.0709;stroke-miterlimit:10;}
	.st52{fill:#FCD30B;stroke:#ED5100;stroke-width:0.0592;stroke-miterlimit:10;}
	.st53{fill:#FCD30B;stroke:#ED5100;stroke-width:0.0529;stroke-miterlimit:10;}
	.st54{fill:#FCD30B;stroke:#ED5100;stroke-width:0.0474;stroke-miterlimit:10;}
	.st55{fill:#FCD30B;stroke:#ED5100;stroke-width:0.0447;stroke-miterlimit:10;}
	.st56{fill:#FCD30B;stroke:#ED5100;stroke-width:0.0607;stroke-miterlimit:10;}
	.st57{fill:#FCD30B;stroke:#ED5100;stroke-width:0.0574;stroke-miterlimit:10;}
	.st58{fill:#FCD30B;stroke:#ED5100;stroke-width:0.0479;stroke-miterlimit:10;}
	.st59{fill:#FCD30B;stroke:#ED5100;stroke-width:0.0402;stroke-miterlimit:10;}
	.st60{fill:#FCD30B;stroke:#ED5100;stroke-width:0.0362;stroke-miterlimit:10;}
	.st61{fill:#FCD30B;stroke:#ED5100;stroke-width:0.033;stroke-miterlimit:10;}
	.st62{fill:#FCD30B;stroke:#ED5100;stroke-width:0.0788;stroke-miterlimit:10;}
	.st63{fill:#FCD30B;stroke:#ED5100;stroke-width:0.0766;stroke-miterlimit:10;}
	.st64{fill:#FCD30B;stroke:#ED5100;stroke-width:0.0793;stroke-miterlimit:10;}
	.st65{fill:#FCD30B;stroke:#ED5100;stroke-width:0.0791;stroke-miterlimit:10;}
	.st66{fill:#FCD30B;stroke:#ED5100;stroke-width:0.0796;stroke-miterlimit:10;}
	.st67{fill:#FCD30B;stroke:#ED5100;stroke-width:0.0635;stroke-miterlimit:10;}
	.st68{fill:#FCD30B;stroke:#ED5100;stroke-width:0.0533;stroke-miterlimit:10;}
	.st69{fill:#FCD30B;stroke:#ED5100;stroke-width:0.0498;stroke-miterlimit:10;}
	.st70{fill:#FCD30B;stroke:#ED5100;stroke-width:0.0329;stroke-miterlimit:10;}
	.st71{fill:#FCD30B;stroke:#ED5100;stroke-width:0.0389;stroke-miterlimit:10;}
	.st72{fill:#FCD30B;stroke:#ED5100;stroke-width:0.023;stroke-miterlimit:10;}
	.st73{fill:#FCD30B;stroke:#ED5100;stroke-width:0.0359;stroke-miterlimit:10;}
	.st74{fill:#FCD30B;stroke:#ED5100;stroke-width:0.0251;stroke-miterlimit:10;}
	.st75{fill:#FCD30B;stroke:#ED5100;stroke-width:0.0795;stroke-miterlimit:10;}
	.st76{fill:#FCD30B;stroke:#ED5100;stroke-width:0.0675;stroke-miterlimit:10;}
	.st77{fill:#FCD30B;stroke:#ED5100;stroke-width:0.0543;stroke-miterlimit:10;}
	.st78{fill:#FCD30B;stroke:#ED5100;stroke-width:0.0466;stroke-miterlimit:10;}
	.st79{fill:#FCD30B;stroke:#ED5100;stroke-width:0.0354;stroke-miterlimit:10;}
	.st80{fill:#489B0B;}
	.st81{fill:#72B236;}
	.st82{fill:#62A428;}
	.st83{fill:#528E2A;}
	.st84{fill:#92BC4C;}
	.st85{fill:#569B30;}
	.st86{fill:#E2C3A4;stroke:#A97D60;stroke-width:0.2737;stroke-miterlimit:10;}
	.st87{fill:#EFE3D3;stroke:#A97D60;stroke-width:0.3649;stroke-linecap:round;stroke-linejoin:round;stroke-miterlimit:10;}
	.st88{fill:#9D6B50;}
	.st89{fill:#E2C19E;}
	.st90{fill:#A16038;}
	.st91{fill:#DFC298;}
	.st92{fill:#EEE4BF;}
	.st93{fill:#D3B689;}
	.st94{fill:#689D34;}
	.st95{fill:#A5BC81;}
	.st96{fill:#DED6A8;}
	.st97{fill:#F4EDDA;}
	.st98{fill:#FF7900;stroke:#DB4900;stroke-width:0.5055;stroke-linecap:round;stroke-linejoin:round;stroke-miterlimit:10;}
	.st99{fill:none;stroke:#DB4900;stroke-width:0.5055;stroke-linecap:round;stroke-linejoin:round;stroke-miterlimit:10;}
	.st100{fill:#2E4819;}
	.st101{fill:#85BB19;}
	.st102{fill:#B2DC55;stroke:#A2C63C;stroke-width:0.2575;stroke-miterlimit:10;}
	.st103{fill:#86CE2C;}
	.st104{fill:#86CE2C;stroke:#72AA1A;stroke-width:0.1884;stroke-linecap:round;stroke-linejoin:round;stroke-miterlimit:10;}
	.st105{opacity:0.6;fill:#DDE68D;}
	.st106{opacity:0.6;}
	.st107{fill:#DDE68D;}
	.st108{fill:#86CE2C;stroke:#72AA1A;stroke-width:0.208;stroke-linecap:round;stroke-linejoin:round;stroke-miterlimit:10;}
</style>
<g
   id="g1876"
   transform="translate(-403.35001,-306.09403)">
	
	
	
	
	
	
	
	
	
	
	
	
	
	
	
	
	
	
	
	<g
   id="g1874">
		<g
   id="g1870">
			<g
   id="g1776">
				<path
   class="st103"
   d="m 426.6,345.82 c -0.02,0 -0.01,-0.01 0.03,-0.01 -0.02,0.01 -0.02,0.01 -0.03,0.01 z"
   id="path1686" />
				<path
   class="st103"
   d="m 432.86,361.59 c 0,0 0.02,0 0.06,0.01 -0.01,0 -0.03,0 -0.04,0 -0.02,0 -0.02,0 -0.02,-0.01 z"
   id="path1688" />
				<path
   class="st103"
   d="m 469.48,324.39 c 0,0 -0.11,0 -0.26,-0.05 0.15,0.01 0.26,0.05 0.26,0.05 z"
   id="path1690" />
				<path
   class="st103"
   d="m 471.17,326.68 c 0,0 0.02,0.03 0.06,0.07 -0.04,-0.02 -0.06,-0.05 -0.06,-0.07 z"
   id="path1692" />
				<path
   class="st104"
   d="m 476.28,346.6 c -0.08,0.1 -2.82,-1.04 -2.53,-0.48 0.29,0.56 -0.08,0.43 -0.08,0.43 -1.82,0.59 -0.38,2.23 0.05,2.33 0.43,0.1 0.96,0.62 0.91,0.74 -0.05,0.11 -1.85,-0.15 -2.14,0.23 -0.29,0.38 0.01,0.8 -0.45,0.64 -0.46,-0.16 -1.46,0.13 -0.68,1.17 0.79,1.04 0.37,0.7 -0.88,0.95 -1.26,0.25 0.56,1.33 0.96,1.35 0.41,0.02 -0.21,0.52 -0.21,0.52 0.3,0.32 0.68,-0.05 0.73,0.15 0.05,0.2 -0.42,0.85 -0.78,0.76 -0.37,-0.09 -0.43,0.69 -0.52,0.6 -0.08,-0.09 -1.87,-2.28 -2.19,-1.29 -0.32,1 -0.81,0.96 -0.81,0.96 -0.19,-1.5 -0.93,-0.99 -0.93,-0.99 -0.94,0.92 0.86,1.56 1.29,1.59 0.43,0.03 0.97,-0.43 0.97,-0.43 -0.13,0.25 0.19,1 0.19,1 -0.44,0.17 0.05,0.83 -0.09,0.84 -0.14,0.02 -1.01,0.4 -1.1,0.55 -0.08,0.15 0.35,0.52 0.08,0.84 -0.27,0.32 -0.9,-0.52 -1.21,-0.62 -0.31,-0.11 0.08,0.54 -0.14,0.96 -0.22,0.42 -0.55,-0.38 -0.55,-0.38 -0.82,-0.51 -1.79,-0.62 -1.17,0.63 0.62,1.25 -0.05,1.16 -0.05,1.16 -1.12,-0.83 -1.35,-0.59 -1.55,0.4 -0.2,0.99 0.89,0.63 1.63,0.78 0.74,0.15 0.78,1.12 0.78,1.12 0.77,0.16 0.68,0.58 -0.72,0.8 -1.4,0.22 -0.19,1.19 -0.34,1.83 -0.15,0.64 -0.89,-0.53 -1.64,-0.8 -0.75,-0.27 -0.32,1.48 -0.48,1.51 -0.16,0.03 -0.5,-0.47 -0.5,-0.47 -0.84,-0.24 0.19,0.91 0.19,0.91 1.1,0.07 0.83,0.46 -0.39,0.71 -1.22,0.25 0.4,0.33 1.15,0.69 0.75,0.35 -0.11,0.63 -0.47,0.86 -0.36,0.23 -0.73,0.41 -0.85,0.1 -0.12,-0.31 -1.1,0.47 -1.06,0.21 0.04,-0.26 -0.83,-0.9 -0.83,-0.9 0.01,0.33 -0.47,0.66 -0.47,0.66 0.06,-1.49 -0.85,-1.43 -1.39,-1.53 -0.53,-0.11 -0.61,1.01 -0.8,1.12 -0.19,0.11 0.01,-0.69 -0.66,-0.62 -0.67,0.07 -0.13,0.9 -0.1,1.25 0.03,0.36 1.05,0.41 0.89,0.6 -0.16,0.19 0.46,0.92 -0.03,0.81 -0.48,-0.11 -0.92,0.58 -0.99,0.16 -0.07,-0.42 -0.63,-0.93 -0.73,-0.99 -0.1,-0.06 -0.37,0.67 -0.35,-0.14 0.03,-0.81 -0.96,-0.6 -1.14,-0.58 -0.18,0.01 0.87,-1.12 0.09,-0.93 -0.78,0.18 -0.01,-0.25 -0.29,-1.11 -0.28,-0.86 -1.13,-0.01 -1.13,-0.01 0.56,1.85 -1.72,0.85 -1.72,0.85 -4.89,-0.47 -4.85,8.46 -4.85,8.46 0,0 -0.47,0.1 -0.94,0.04 -0.39,-0.04 -0.77,-0.18 -0.91,-0.56 -0.24,-0.65 -0.95,-0.45 -1.66,-0.04 -0.2,0.12 -0.41,0.25 -0.6,0.38 -0.88,0.61 -0.97,-0.07 -1.54,-0.63 -0.57,-0.56 -1.5,-0.01 -1.35,-0.59 0.15,-0.58 -0.8,-1.1 -0.56,-1.08 0.24,0.02 0.31,-0.28 0.31,-0.28 0.67,-0.71 -0.62,-1.3 -0.62,-1.3 0,0 -0.13,0.04 0.36,-0.29 0.49,-0.33 -0.47,-0.21 -0.13,-0.93 0.34,-0.72 -1.38,-1.13 -1.22,-1.22 0.16,-0.09 0.58,0 1.26,-0.35 0.68,-0.35 -0.37,-0.9 -0.37,-0.9 0.65,-0.65 -0.7,-0.75 -1.42,-1.07 -0.72,-0.32 -0.53,-1.02 0.35,-0.92 0.87,0.1 0.24,-0.32 0.27,-0.5 0.03,-0.19 0.52,-0.25 0.52,-0.25 1.03,-0.49 -1.38,-1.87 -1.38,-1.87 -0.04,-0.95 -2.06,-0.5 -1.77,-0.78 0.29,-0.28 -1.56,-0.23 -1.88,-0.29 -0.32,-0.06 -0.8,-0.37 0.64,-0.81 1.24,-0.38 -0.31,-0.64 -0.63,-0.69 0.17,0 0.26,-0.23 0.6,-0.69 0.37,-0.5 -0.49,-0.05 -0.73,-0.61 -0.24,-0.56 -1.56,-0.08 -1.63,-0.29 -0.08,-0.21 -1.71,-0.99 -1.08,-0.99 0.63,0 1.84,-1.09 2.2,-1.27 0.36,-0.18 -1.23,-1.38 -0.98,-1.34 0.25,0.04 0.6,-1.13 0.85,-1.54 0.25,-0.41 -1.21,-0.46 -1.49,-0.52 -0.28,-0.06 -1.9,-0.86 -1.31,-1.1 0.59,-0.24 2.04,0.08 2.44,-0.24 0.4,-0.32 -1.77,-0.29 -1.4,-0.74 0.37,-0.45 -0.2,-0.86 -1.07,-0.53 -0.87,0.33 -2.38,1.14 -2.18,0.94 0.2,-0.2 0.03,-1.61 -0.47,-1.45 -0.5,0.16 -1.13,0.26 -0.94,0.01 0.18,-0.25 0.16,-1.02 0.16,-1.02 0.32,-0.21 -0.06,-1.23 -0.06,-1.23 0.44,-0.18 0.04,-1.18 0.04,-1.18 0.3,-0.01 1.29,-0.16 1.29,-0.16 1.26,0.82 2.19,-0.22 0.66,-0.5 -1.52,-0.28 -0.92,-0.31 -0.62,-0.89 0.24,-0.48 -0.39,-0.47 -0.55,-0.45 0.15,-0.09 0.62,-0.88 0.35,-1 -0.29,-0.13 -0.26,-0.9 -0.26,-0.9 0.57,-0.04 0.48,-0.45 0.48,-0.45 -0.97,-0.56 -0.31,-1.14 -0.31,-1.14 0.85,0.36 0.98,-0.25 0.78,-0.66 -0.18,-0.4 -1.06,-0.95 -1.11,-0.99 0.37,0.22 1.97,-0.95 1.01,-1.38 -0.96,-0.43 -1.17,-1.27 -0.3,-0.98 0.87,0.3 0.6,-0.03 0.43,-0.48 -0.18,-0.46 0.69,-0.14 0.69,-0.14 0.77,0.51 1.05,-0.85 1.05,-0.85 0.7,0.12 0.79,-0.82 1.29,-0.53 0.5,0.29 0.54,-0.75 1.2,-0.56 0.66,0.19 0.06,-0.26 0.18,-0.72 0.12,-0.45 -0.62,-0.84 -0.39,-0.76 0.24,0.08 1.41,-0.81 1.6,-0.78 0.19,0.03 -0.54,-0.6 -0.14,-0.46 0.4,0.14 0.92,-0.91 1.8,-0.54 0.88,0.37 -0.45,-1.69 -1.07,-1.91 -0.62,-0.22 -1.72,-1.26 -1.21,-1.09 0.5,0.17 1.01,-0.58 1.01,-0.58 0.58,0.49 0.96,-0.29 0.96,-0.29 0.7,0.5 1.06,1.12 2.04,-0.03 0.98,-1.15 1.76,-0.57 1.76,-0.57 1.53,0.3 0.67,-0.76 0.67,-0.76 -1.51,0.41 -1.79,-1.1 -1.3,-1.18 0.49,-0.08 0.49,-0.53 0.49,-0.53 -0.95,-0.26 -0.6,-1.34 -0.2,-1.45 0.4,-0.11 0.24,-0.23 0.34,-1.11 0.1,-0.87 0.94,-2.01 1.04,-2.11 0.1,-0.1 0.42,0.31 0.72,0.28 0.29,-0.03 0.38,0.18 0.56,0.4 0.17,0.22 1.29,0.01 1.33,-0.31 0.04,-0.32 -1.28,-0.6 -1.28,-0.6 -0.96,-1.35 1.21,-2.5 2.01,-2.09 0.8,0.4 1.09,-0.19 0.22,-0.75 -0.87,-0.56 -0.49,-1.34 -0.49,-1.34 -0.68,-0.63 -0.52,-2.31 -0.35,-2.17 0.17,0.14 1.67,-0.11 1.67,-0.11 0.19,0.48 1.42,0.19 1.39,-0.01 -0.03,-0.2 -0.91,-0.82 -0.61,-0.64 0.3,0.18 0.8,-0.67 0.94,-0.57 0.13,0.09 1.26,-2.05 1.8,-1.21 0.54,0.84 1.39,0.29 1.39,0.29 -0.05,0.13 0.15,1.62 0.55,1.49 0.39,-0.12 0.34,-1.26 0.33,-1.36 0.04,0.23 2.22,0.79 1.97,0.41 -0.25,-0.38 0.33,-1.03 0.33,-1.03 -1.4,-0.01 0.71,-1.86 0.91,-0.94 0.2,0.91 0.64,-0.05 1.23,0.12 0.59,0.17 0.98,-0.9 0.98,-0.9 0.05,0.43 1.3,1.18 1.3,1.18 -0.81,1.08 0.16,1.09 0.37,0.67 0.21,-0.42 1,-0.17 1,-0.17 -0.3,0.2 -0.72,1.01 -0.82,1.14 -0.67,0.95 0.76,1.96 1.09,0.83 0.33,-1.13 1.56,-1.4 1.56,-1.4 0.35,-0.64 0.58,-0.2 0.88,-0.26 0.3,-0.06 1.9,-0.02 2.14,0.26 0.24,0.28 -0.58,0.3 -0.86,0.94 -0.29,0.65 1.55,-0.05 1.55,-0.05 -0.1,0.15 0.09,1.25 0.16,1.61 0.08,0.36 1.44,0.67 1.44,0.67 -0.05,0.23 0.65,0.6 1.55,1.55 0.9,0.95 -0.08,0.57 -0.32,0.6 -0.24,0.03 0.22,0.27 0.14,0.71 -0.08,0.43 -0.41,0.34 -0.41,0.34 -1.23,0.21 -0.41,0.77 -0.1,1.67 0.31,0.9 1.55,-0.81 1.54,0.13 0,0.94 0.85,1.1 0.85,1.1 -0.76,1.01 0.29,1.3 0.39,2.16 0.07,0.54 0.41,0.75 0.66,0.83 -0.23,0 -0.55,0.1 -0.61,0.68 -0.1,0.94 1.38,0.02 1.38,0.02 -0.24,0.18 0.85,1.43 0.85,1.43 -1.07,0.13 -1.65,1.27 -1.65,1.27 -0.38,1.89 0.92,1.91 1.9,0.96 0.83,-0.81 0.31,-1.69 0.13,-1.95 0.28,0.21 1.56,0.37 1.56,0.37 0.19,0.56 1.91,1.52 1.91,1.52 -0.44,-0.02 -0.48,0.48 -0.48,0.48 0.61,0.24 -0.1,0.68 -0.1,0.68 -0.09,1.01 1.33,1.03 1.33,1.03 0.54,0.99 -1.07,1.07 -1.76,1.29 -0.68,0.21 1.34,0.68 0.51,1.03 -0.83,0.35 -0.79,0.77 -0.42,1.28 0.37,0.51 1.06,0.03 1.06,0.03 0.16,0.93 0.85,0.5 1.17,0.1 0.32,-0.4 0.79,0.3 0.78,0.51 -0.01,0.21 -1.25,0.42 -0.33,0.81 0.92,0.4 0.02,0.44 -0.67,0.6 -0.68,0.16 0.15,1.27 -0.17,1.08 -0.32,-0.19 -1.87,-0.43 -1.77,-0.37 0.09,0.06 1.1,0.98 0.97,0.92 -0.13,-0.06 -1.86,0.33 -1.58,0.54 0.28,0.21 0.8,-0.06 0.97,0.11 0.17,0.17 -0.91,-0.03 -1.09,1.79 -0.17,1.82 0.92,1.19 1.71,0.89 0.79,-0.3 0.66,0.29 1.06,0.72 0.4,0.43 0.68,1.3 0.68,1.3 -1.55,0.1 -0.7,2.12 -0.41,2.29 0.29,0.17 0.19,0.71 0.1,0.81 z"
   id="path1694" />
				<path
   class="st105"
   d="m 445.25,376.57 c -0.39,-0.04 -0.77,-0.18 -0.91,-0.56 -0.24,-0.65 -0.95,-0.45 -1.66,-0.04 l -1.04,-2.3 c -4.02,-8.43 0.69,-19.58 2.25,-21.28 2.91,-3.18 9.7,-13.8 9.7,-13.8 -0.09,1.39 -1.33,7.03 -8.33,16.91 -6.05,8.55 -1.38,18.53 -0.01,21.07 z"
   id="path1696" />
				<g
   class="st106"
   id="g1774">
					<g
   class="st106"
   id="g1764">
						<g
   id="g1762">
							<g
   id="g1700">
								<path
   class="st107"
   d="m 443.85,357.83 c 1.26,-1.68 3.01,-2.96 4.88,-3.95 1.9,-0.96 4.01,-1.52 6.15,-1.63 1.09,-0.03 2.04,-0.04 3.04,-0.23 0.98,-0.22 1.92,-0.58 2.81,-1.05 0.88,-0.5 1.68,-1.14 2.37,-1.89 0.72,-0.73 1.31,-1.59 1.79,-2.52 -0.64,2 -2.03,3.76 -3.82,4.96 -0.9,0.6 -1.93,0.97 -2.98,1.25 -1.04,0.23 -2.18,0.27 -3.17,0.32 -1.01,0.01 -2.02,0.18 -3.01,0.39 -0.99,0.24 -1.95,0.59 -2.89,0.98 -0.94,0.41 -1.85,0.89 -2.71,1.46 -0.88,0.56 -1.72,1.17 -2.46,1.91 z"
   id="path1698" />
							</g>
							<g
   id="g1704">
								<path
   class="st107"
   d="m 442.56,362.45 c 0.97,-1.48 2.38,-2.72 4.08,-3.43 0.85,-0.36 1.77,-0.56 2.71,-0.56 0.46,0.02 0.94,0.03 1.39,0.14 l 1.3,0.3 c 1.65,0.41 3.39,0.34 5.1,0.11 0.86,-0.12 1.71,-0.32 2.55,-0.56 0.85,-0.22 1.68,-0.51 2.5,-0.83 -1.5,0.96 -3.18,1.62 -4.93,2.03 -1.75,0.39 -3.62,0.5 -5.41,0.07 l -1.27,-0.31 c -0.4,-0.11 -0.82,-0.11 -1.24,-0.15 -0.83,-0.04 -1.66,0.13 -2.47,0.37 -0.81,0.25 -1.58,0.65 -2.3,1.14 -0.72,0.47 -1.39,1.04 -2.01,1.68 z"
   id="path1702" />
							</g>
							<g
   id="g1708">
								<path
   class="st107"
   d="m 449.65,348.61 c 1.5,-0.5 3.01,-0.95 4.51,-1.43 1.49,-0.49 2.99,-0.95 4.45,-1.5 1.47,-0.55 2.87,-1.13 4.09,-2.06 0.62,-0.45 1.19,-0.97 1.68,-1.56 0.5,-0.58 0.93,-1.24 1.16,-2 -0.15,1.62 -1.24,3 -2.42,4.07 -1.19,1.12 -2.74,1.79 -4.21,2.35 -1.5,0.54 -3.03,0.99 -4.57,1.33 -1.55,0.35 -3.11,0.65 -4.69,0.8 z"
   id="path1706" />
							</g>
							<g
   id="g1712">
								<path
   class="st107"
   d="m 452.41,342.89 c 0.73,-0.32 1.42,-0.72 2.12,-1.1 l 2.1,-1.13 c 1.39,-0.77 2.79,-1.51 4.16,-2.3 0.68,-0.39 1.37,-0.79 2,-1.23 0.17,-0.1 0.32,-0.22 0.46,-0.33 0.16,-0.11 0.27,-0.23 0.37,-0.34 0.2,-0.25 0.34,-0.61 0.47,-0.97 0.25,-0.73 0.41,-1.5 0.58,-2.28 0.1,-0.39 0.19,-0.78 0.31,-1.17 0.12,-0.37 0.23,-0.81 0.58,-1.05 -0.27,0.3 -0.29,0.72 -0.36,1.1 -0.05,0.39 -0.09,0.79 -0.12,1.18 -0.09,0.79 -0.18,1.59 -0.36,2.4 -0.1,0.4 -0.22,0.82 -0.49,1.21 -0.15,0.21 -0.32,0.38 -0.48,0.5 -0.16,0.14 -0.32,0.28 -0.49,0.4 -0.66,0.49 -1.36,0.9 -2.05,1.31 -1.4,0.79 -2.83,1.51 -4.3,2.15 -1.47,0.62 -2.93,1.29 -4.5,1.65 z"
   id="path1710" />
							</g>
							<g
   id="g1716">
								<path
   class="st107"
   d="m 445.42,350.52 c 0.09,-1.75 0.28,-3.48 0.48,-5.22 0.19,-1.73 0.45,-3.46 0.7,-5.18 0.28,-1.72 0.55,-3.44 0.9,-5.15 0.33,-1.71 0.68,-3.42 1.12,-5.12 -0.09,1.75 -0.28,3.48 -0.48,5.21 -0.19,1.73 -0.45,3.46 -0.7,5.18 -0.28,1.72 -0.56,3.44 -0.9,5.15 -0.33,1.73 -0.68,3.44 -1.12,5.13 z"
   id="path1714" />
							</g>
							<g
   id="g1720">
								<path
   class="st107"
   d="m 444.2,328.62 c 0.15,2.1 0.19,4.21 0.2,6.32 0.01,2.11 -0.08,4.21 -0.14,6.31 -0.14,2.1 -0.27,4.21 -0.52,6.3 -0.27,2.09 -0.56,4.2 -1.23,6.21 0.16,-1.04 0.3,-2.08 0.36,-3.13 0.1,-1.04 0.16,-2.09 0.22,-3.14 0.11,-2.09 0.25,-4.19 0.32,-6.29 l 0.34,-6.29 c 0.12,-2.09 0.25,-4.19 0.45,-6.29 z"
   id="path1718" />
							</g>
							<g
   id="g1724">
								<path
   class="st107"
   d="m 435.1,344.1 c 0.86,1.03 1.61,2.14 2.33,3.27 0.72,1.13 1.36,2.31 1.95,3.51 0.57,1.21 1.1,2.46 1.47,3.76 0.34,1.29 0.66,2.7 0.28,4.01 -0.03,-0.34 0.01,-0.67 -0.06,-0.99 -0.08,-0.32 -0.1,-0.64 -0.22,-0.96 -0.16,-0.63 -0.39,-1.25 -0.62,-1.86 -0.51,-1.21 -1.04,-2.41 -1.62,-3.6 l -1.76,-3.56 c -0.58,-1.18 -1.19,-2.37 -1.75,-3.58 z"
   id="path1722" />
							</g>
							<g
   id="g1728">
								<path
   class="st107"
   d="m 452.99,327.48 c -0.31,1.72 -0.7,3.41 -1.1,5.1 -0.39,1.69 -0.85,3.37 -1.29,5.04 -0.47,1.67 -0.93,3.34 -1.45,5 -0.51,1.66 -1.02,3.32 -1.58,4.97 0.21,-1.73 0.57,-3.44 0.95,-5.13 0.37,-1.7 0.81,-3.38 1.26,-5.06 0.47,-1.67 0.94,-3.34 1.49,-4.99 0.53,-1.66 1.08,-3.31 1.72,-4.93 z"
   id="path1726" />
							</g>
							<g
   id="g1732">
								<path
   class="st107"
   d="m 453.83,347.62 c 0.49,-1.19 1.23,-2.21 2.06,-3.15 0.43,-0.46 0.88,-0.91 1.38,-1.3 0.5,-0.38 1.07,-0.76 1.71,-0.87 -0.48,0.43 -0.85,0.89 -1.26,1.35 -0.39,0.47 -0.8,0.92 -1.2,1.38 -0.83,0.91 -1.67,1.8 -2.69,2.59 z"
   id="path1730" />
							</g>
							<g
   id="g1736">
								<path
   class="st107"
   d="m 456.09,352.64 c 0.89,0.23 1.65,0.59 2.4,0.96 0.75,0.38 1.45,0.75 2.25,1.2 -0.92,0.21 -1.84,-0.07 -2.63,-0.45 -0.79,-0.4 -1.51,-0.93 -2.02,-1.71 z"
   id="path1734" />
							</g>
							<g
   id="g1740">
								<path
   class="st107"
   d="m 463.99,348.26 c -0.29,-0.6 -0.24,-1.37 0.05,-2.01 0.29,-0.65 0.8,-1.18 1.36,-1.56 0.28,-0.21 0.59,-0.33 0.89,-0.5 0.32,-0.1 0.62,-0.24 0.95,-0.31 0.64,-0.16 1.3,-0.23 1.96,-0.19 -0.59,0.31 -1.17,0.55 -1.74,0.81 -0.56,0.27 -1.1,0.54 -1.59,0.88 -0.98,0.66 -1.75,1.56 -1.88,2.88 z"
   id="path1738" />
							</g>
							<g
   id="g1744">
								<path
   class="st107"
   d="m 443.26,349.05 c -0.87,-1.32 -1.66,-2.62 -2.53,-3.86 -0.43,-0.63 -0.89,-1.22 -1.36,-1.82 -0.48,-0.59 -1,-1.14 -1.54,-1.73 1.49,0.59 2.68,1.77 3.59,3.06 0.45,0.66 0.84,1.35 1.15,2.07 0.32,0.73 0.58,1.49 0.69,2.28 z"
   id="path1742" />
							</g>
							<g
   id="g1748">
								<path
   class="st107"
   d="m 451.6,341.64 c -0.1,-1.58 0.01,-3.17 0.24,-4.74 0.23,-1.57 0.62,-3.14 1.29,-4.62 0.32,-0.74 0.77,-1.44 1.27,-2.1 l 1.49,-1.81 c 0.49,-0.61 0.97,-1.23 1.43,-1.86 0.48,-0.62 0.92,-1.27 1.35,-1.93 -0.54,1.49 -1.37,2.86 -2.25,4.18 -0.43,0.67 -0.92,1.29 -1.39,1.92 -0.43,0.6 -0.84,1.24 -1.13,1.95 -0.65,1.38 -1.05,2.88 -1.42,4.39 -0.19,0.76 -0.34,1.52 -0.47,2.29 -0.17,0.78 -0.28,1.55 -0.41,2.33 z"
   id="path1746" />
							</g>
							<g
   id="g1752">
								<path
   class="st107"
   d="m 464.23,342.31 c 0.73,-0.59 1.57,-0.9 2.43,-1.12 0.86,-0.19 1.77,-0.3 2.68,-0.06 -0.83,0.43 -1.64,0.67 -2.48,0.88 -0.85,0.19 -1.69,0.34 -2.63,0.3 z"
   id="path1750" />
							</g>
							<g
   id="g1756">
								<path
   class="st107"
   d="m 440.73,333.69 c 0.59,1.67 0.85,3.4 0.97,5.14 0.04,0.87 0.04,1.75 -0.05,2.63 -0.09,0.87 -0.26,1.78 -0.73,2.54 0.13,-0.87 0.1,-1.71 0.07,-2.57 l -0.14,-2.56 c -0.08,-1.7 -0.19,-3.42 -0.12,-5.18 z"
   id="path1754" />
							</g>
							<g
   id="g1760">
								<path
   class="st107"
   d="m 463.54,327.7 c -1.28,2.13 -2.72,4.17 -4.26,6.14 -0.77,0.99 -1.59,1.93 -2.47,2.83 -0.45,0.45 -0.89,0.9 -1.4,1.3 -0.49,0.41 -1.04,0.8 -1.73,1.04 -0.21,0.07 -0.44,-0.04 -0.52,-0.25 -0.04,-0.11 -0.03,-0.23 0.02,-0.32 l 0.01,-0.02 c 1.11,-2.12 2.24,-4.22 3.53,-6.23 0.64,-1.01 1.31,-2 2.02,-2.96 0.74,-0.94 1.48,-1.89 2.38,-2.68 -0.77,0.91 -1.43,1.9 -2.04,2.91 -0.63,1 -1.24,2.02 -1.81,3.06 -1.15,2.07 -2.29,4.15 -3.33,6.28 l -0.48,-0.59 c 0.97,-0.36 1.94,-1.24 2.8,-2.07 0.88,-0.85 1.67,-1.8 2.51,-2.71 0.82,-0.92 1.61,-1.88 2.4,-2.84 0.81,-0.95 1.58,-1.93 2.37,-2.89 z"
   id="path1758" />
							</g>
						</g>
					</g>
					<g
   id="g1768">
						<path
   class="st107"
   d="m 450.87,333.72 c -0.6,-2.19 -0.83,-4.47 -0.7,-6.75 0.08,-1.14 0.22,-2.28 0.56,-3.39 0.33,-1.1 0.81,-2.18 1.55,-3.05 -0.86,2.1 -1.13,4.28 -1.27,6.49 -0.15,2.2 -0.07,4.43 -0.14,6.7 z"
   id="path1766" />
					</g>
					<g
   id="g1772">
						<path
   class="st107"
   d="m 437.9,349.37 c -0.8,-0.16 -1.55,-0.47 -2.26,-0.84 -0.71,-0.38 -1.39,-0.84 -2,-1.38 -0.6,-0.56 -1.15,-1.18 -1.55,-1.91 -0.39,-0.73 -0.63,-1.55 -0.6,-2.36 0.32,0.75 0.7,1.4 1.16,2 0.47,0.59 1,1.14 1.56,1.64 0.56,0.52 1.17,0.98 1.79,1.46 z"
   id="path1770" />
					</g>
				</g>
			</g>
			<g
   id="g1868">
				<path
   class="st103"
   d="m 407.32,354.34 c -0.02,0.01 -0.01,0 0.02,-0.02 -0.01,0.02 -0.02,0.02 -0.02,0.02 z"
   id="path1778" />
				<path
   class="st103"
   d="m 419.45,368.62 c 0,0 0.02,-0.01 0.06,-0.01 -0.01,0.01 -0.03,0.01 -0.05,0.01 0,0 -0.01,0 -0.01,0 z"
   id="path1780" />
				<path
   class="st103"
   d="m 444.56,316.74 c 0,0 -0.12,0.04 -0.29,0.04 0.15,-0.04 0.29,-0.04 0.29,-0.04 z"
   id="path1782" />
				<path
   class="st103"
   d="m 447.13,318.54 c 0,0 0.03,0.02 0.08,0.06 -0.04,-0.02 -0.07,-0.04 -0.08,-0.06 z"
   id="path1784" />
				<path
   class="st108"
   d="m 459.54,337.55 c -0.05,0.14 -3.31,-0.09 -2.81,0.4 0.5,0.49 0.07,0.48 0.07,0.48 -1.69,1.26 0.4,2.47 0.88,2.42 0.48,-0.05 1.23,0.31 1.21,0.45 -0.02,0.14 -1.98,0.5 -2.16,1 -0.18,0.5 0.29,0.83 -0.24,0.83 -0.53,0 -1.48,0.66 -0.29,1.47 1.19,0.81 0.64,0.6 -0.59,1.31 -1.23,0.71 1.05,1.19 1.48,1.07 0.43,-0.12 -0.03,0.62 -0.03,0.62 0.43,0.22 0.69,-0.29 0.81,-0.1 0.12,0.19 -0.14,1.04 -0.55,1.07 -0.41,0.03 -0.21,0.88 -0.33,0.81 -0.12,-0.07 -2.76,-1.73 -2.74,-0.57 0.02,1.16 -0.5,1.29 -0.5,1.29 -0.72,-1.5 -1.33,-0.71 -1.33,-0.71 -0.66,1.29 1.45,1.33 1.92,1.21 0.47,-0.12 0.87,-0.79 0.87,-0.79 -0.05,0.31 0.55,0.98 0.55,0.98 -0.4,0.33 0.35,0.85 0.21,0.91 -0.14,0.07 -0.91,0.78 -0.95,0.97 -0.03,0.19 0.55,0.41 0.38,0.85 -0.17,0.43 -1.12,-0.22 -1.48,-0.22 -0.36,0 0.28,0.53 0.19,1.05 -0.09,0.52 -0.71,-0.21 -0.71,-0.21 -1.04,-0.24 -2.09,-0.02 -1,1.07 1.09,1.09 0.36,1.23 0.36,1.23 -1.47,-0.47 -1.62,-0.14 -1.48,0.97 0.14,1.1 1.16,0.35 1.98,0.24 0.83,-0.1 1.21,0.9 1.21,0.9 0.86,-0.1 0.91,0.36 -0.47,1.09 -1.38,0.73 0.22,1.31 0.29,2.04 0.07,0.72 -1.12,-0.24 -2,-0.26 -0.88,-0.02 0.19,1.66 0.03,1.74 -0.16,0.09 -0.69,-0.31 -0.69,-0.31 -0.97,0.05 0.52,0.88 0.52,0.88 1.17,-0.31 1.04,0.19 -0.16,0.88 -1.19,0.69 0.53,0.21 1.44,0.31 0.91,0.1 0.1,0.7 -0.18,1.07 -0.28,0.37 -0.62,0.69 -0.85,0.41 -0.23,-0.28 -0.98,0.88 -1.04,0.6 -0.05,-0.28 -1.19,-0.65 -1.19,-0.65 0.13,0.34 -0.26,0.85 -0.26,0.85 -0.47,-1.58 -1.4,-1.19 -1.99,-1.11 -0.6,0.08 -0.28,1.27 -0.44,1.45 -0.16,0.18 -0.23,-0.72 -0.91,-0.41 -0.67,0.31 0.18,0.98 0.34,1.35 0.16,0.37 1.24,0.05 1.14,0.31 -0.1,0.26 0.8,0.8 0.26,0.85 -0.54,0.05 -0.75,0.93 -0.98,0.52 -0.23,-0.41 -0.98,-0.75 -1.11,-0.78 -0.13,-0.03 -0.16,0.83 -0.41,-0.03 -0.25,-0.86 -1.22,-0.28 -1.4,-0.21 -0.18,0.08 0.52,-1.48 -0.23,-1.01 -0.75,0.47 -0.1,-0.26 -0.7,-1.06 -0.6,-0.8 -1.19,0.39 -1.19,0.39 1.24,1.73 -1.5,1.5 -1.5,1.5 -5.28,1.24 -2.07,10.56 -2.07,10.56 0,0 -0.46,0.27 -0.97,0.38 -0.42,0.09 -0.87,0.08 -1.15,-0.26 -0.48,-0.59 -1.15,-0.13 -1.75,0.55 -0.17,0.19 -0.34,0.4 -0.49,0.61 -0.71,0.96 -1.04,0.27 -1.83,-0.11 -0.79,-0.38 -1.57,0.52 -1.62,-0.14 -0.05,-0.66 -1.23,-0.86 -0.97,-0.93 0.26,-0.07 0.22,-0.4 0.22,-0.4 0.45,-0.98 -1.1,-1.14 -1.1,-1.14 0,0 -0.12,0.09 0.28,-0.43 0.4,-0.52 -0.57,-0.05 -0.47,-0.93 0.1,-0.88 -1.85,-0.69 -1.71,-0.85 0.14,-0.16 0.6,-0.21 1.19,-0.81 0.59,-0.6 -0.71,-0.81 -0.71,-0.81 0.45,-0.91 -1,-0.53 -1.86,-0.62 -0.86,-0.09 -0.91,-0.88 0.03,-1.09 0.95,-0.21 0.14,-0.41 0.1,-0.62 -0.03,-0.21 0.45,-0.45 0.45,-0.45 0.9,-0.88 -2.11,-1.47 -2.11,-1.47 -0.38,-0.98 -2.33,0.21 -2.12,-0.19 0.21,-0.4 -1.71,0.31 -2.07,0.36 -0.36,0.05 -0.97,-0.1 0.38,-1.07 1.16,-0.83 -0.55,-0.56 -0.9,-0.5 0.18,-0.06 0.19,-0.33 0.38,-0.94 0.21,-0.66 -0.53,0.12 -0.98,-0.38 -0.45,-0.5 -1.66,0.47 -1.81,0.28 -0.15,-0.19 -2.14,-0.43 -1.48,-0.66 0.66,-0.23 1.54,-1.79 1.85,-2.11 0.31,-0.31 -1.78,-1 -1.5,-1.05 0.28,-0.05 0.22,-1.4 0.35,-1.92 0.13,-0.52 -1.43,-0.05 -1.74,-0.02 -0.31,0.03 -2.3,-0.22 -1.76,-0.69 0.53,-0.47 2.16,-0.64 2.47,-1.12 0.31,-0.48 -1.95,0.33 -1.73,-0.28 0.22,-0.61 -0.52,-0.83 -1.31,-0.17 -0.79,0.66 -2.09,2.04 -1.95,1.76 0.14,-0.28 -0.53,-1.69 -1,-1.35 -0.47,0.34 -1.09,0.67 -0.98,0.35 0.1,-0.33 -0.19,-1.12 -0.19,-1.12 0.26,-0.33 -0.5,-1.26 -0.5,-1.26 0.4,-0.35 -0.38,-1.24 -0.38,-1.24 0.31,-0.12 1.29,-0.62 1.29,-0.62 1.6,0.41 2.21,-1 0.52,-0.76 -1.69,0.24 -1.07,0 -0.97,-0.71 0.09,-0.59 -0.58,-0.36 -0.73,-0.28 0.13,-0.15 0.33,-1.14 0.01,-1.17 -0.35,-0.03 -0.59,-0.85 -0.59,-0.85 0.59,-0.24 0.35,-0.64 0.35,-0.64 -1.21,-0.24 -0.72,-1.09 -0.72,-1.09 1.02,0.07 0.93,-0.6 0.59,-0.97 -0.33,-0.35 -1.45,-0.62 -1.51,-0.64 0.47,0.09 1.72,-1.69 0.57,-1.8 -1.16,-0.1 -1.67,-0.91 -0.66,-0.91 1.02,0 0.62,-0.24 0.28,-0.66 -0.34,-0.42 0.67,-0.4 0.67,-0.4 0.98,0.26 0.79,-1.26 0.79,-1.26 0.78,-0.12 0.53,-1.14 1.16,-1.01 0.63,0.13 0.29,-0.97 1.05,-1.01 0.76,-0.04 -0.03,-0.29 -0.07,-0.81 -0.03,-0.52 -0.95,-0.66 -0.67,-0.66 0.28,0 1.19,-1.35 1.4,-1.38 0.21,-0.03 -0.78,-0.43 -0.31,-0.43 0.47,0 0.64,-1.28 1.69,-1.21 1.05,0.07 -1.07,-1.6 -1.79,-1.62 -0.72,-0.01 -2.24,-0.71 -1.66,-0.71 0.58,0 0.85,-0.97 0.85,-0.97 0.78,0.31 0.9,-0.64 0.9,-0.64 0.91,0.28 1.5,0.79 2.12,-0.76 0.62,-1.55 1.64,-1.23 1.64,-1.23 1.71,-0.22 0.43,-1.04 0.43,-1.04 -1.43,0.97 -2.26,-0.52 -1.78,-0.78 0.48,-0.26 0.33,-0.72 0.33,-0.72 -1.09,0.07 -1.1,-1.19 -0.72,-1.45 0.38,-0.26 0.17,-0.33 -0.03,-1.28 -0.21,-0.95 0.28,-2.43 0.35,-2.57 0.07,-0.14 0.55,0.17 0.85,0.03 0.29,-0.14 0.47,0.05 0.72,0.22 0.26,0.17 1.35,-0.45 1.28,-0.79 -0.07,-0.35 -1.55,-0.17 -1.55,-0.17 -1.48,-1.07 0.38,-3.04 1.36,-2.9 0.98,0.14 1.07,-0.59 -0.03,-0.86 -1.1,-0.27 -0.98,-1.23 -0.98,-1.23 -0.93,-0.41 -1.36,-2.23 -1.14,-2.14 0.22,0.09 1.71,-0.71 1.71,-0.71 0.36,0.43 1.55,-0.31 1.45,-0.5 -0.1,-0.19 -1.24,-0.53 -0.86,-0.45 0.38,0.09 0.6,-0.98 0.78,-0.93 0.17,0.05 0.59,-2.59 1.45,-1.9 0.86,0.69 1.55,-0.19 1.55,-0.19 0,0.16 0.72,1.64 1.1,1.36 0.36,-0.26 -0.09,-1.44 -0.14,-1.55 0.12,0.23 2.6,0.04 2.21,-0.27 -0.4,-0.31 -0.02,-1.19 -0.02,-1.19 -1.47,0.48 0.09,-2.19 0.62,-1.31 0.53,0.88 0.66,-0.28 1.33,-0.31 0.67,-0.03 0.71,-1.29 0.71,-1.29 0.21,0.43 1.78,0.78 1.78,0.78 -0.47,1.42 0.55,1.09 0.62,0.57 0.07,-0.52 0.98,-0.53 0.98,-0.53 -0.24,0.31 -0.4,1.31 -0.45,1.48 -0.37,1.23 1.48,1.78 1.43,0.48 -0.05,-1.29 1.14,-2.02 1.14,-2.02 0.14,-0.79 0.53,-0.41 0.83,-0.59 0.29,-0.17 1.98,-0.69 2.33,-0.48 0.35,0.21 -0.5,0.52 -0.57,1.29 -0.07,0.78 1.6,-0.6 1.6,-0.6 -0.05,0.19 0.53,1.28 0.74,1.62 0.21,0.35 1.74,0.19 1.74,0.19 0.03,0.26 0.9,0.4 2.17,1.07 1.28,0.67 0.12,0.62 -0.12,0.74 -0.24,0.12 0.33,0.21 0.4,0.69 0.07,0.48 -0.31,0.5 -0.31,0.5 -1.21,0.66 -0.16,0.95 0.48,1.78 0.64,0.83 1.33,-1.4 1.66,-0.41 0.33,0.98 1.28,0.85 1.28,0.85 -0.43,1.33 0.76,1.26 1.17,2.12 0.26,0.54 0.7,0.63 0.99,0.63 -0.25,0.08 -0.54,0.3 -0.4,0.93 0.22,1.02 1.45,-0.47 1.45,-0.47 -0.19,0.28 1.4,1.19 1.4,1.19 -1.07,0.52 -1.28,1.92 -1.28,1.92 0.28,2.11 1.64,1.67 2.33,0.33 0.58,-1.14 -0.27,-1.88 -0.55,-2.08 0.37,0.12 1.76,-0.16 1.76,-0.16 0.4,0.52 2.54,0.91 2.54,0.91 -0.47,0.14 -0.33,0.67 -0.33,0.67 0.72,0.03 0.14,0.74 0.14,0.74 0.26,1.09 1.76,0.6 1.76,0.6 0.91,0.85 -0.74,1.5 -1.38,1.97 -0.64,0.47 1.64,0.24 0.9,0.9 -0.74,0.66 -0.55,1.09 0.02,1.48 0.57,0.4 1.12,-0.35 1.12,-0.35 0.5,0.91 1.07,0.22 1.26,-0.31 0.19,-0.53 0.93,0.03 1,0.26 0.07,0.23 -1.16,0.88 -0.05,0.97 1.11,0.09 0.17,0.45 -0.48,0.86 -0.65,0.41 0.6,1.28 0.21,1.19 -0.4,-0.09 -2.11,0.21 -1.98,0.24 0.13,0.03 1.5,0.64 1.35,0.62 -0.16,-0.02 -1.83,1 -1.47,1.12 0.36,0.12 0.81,-0.35 1.05,-0.22 0.24,0.12 -0.97,0.29 -0.5,2.26 0.47,1.97 1.38,0.91 2.11,0.33 0.73,-0.58 0.79,0.07 1.36,0.38 0.57,0.31 1.17,1.12 1.17,1.12 -1.59,0.66 0.02,2.47 0.38,2.54 0.26,0.14 0.35,0.76 0.3,0.89 z"
   id="path1786" />
				<path
   class="st105"
   d="m 437.72,379.88 c -0.42,0.09 -0.87,0.08 -1.15,-0.26 -0.48,-0.59 -1.15,-0.13 -1.75,0.55 l -1.9,-2.03 c -7.19,-7.39 -6.22,-20.72 -5.2,-23.05 1.91,-4.35 5.25,-17.86 5.25,-17.86 0.39,1.48 1.1,7.82 -2.71,20.63 -3.3,11.07 5.12,19.85 7.46,22.02 z"
   id="path1788" />
				<g
   class="st106"
   id="g1866">
					<g
   class="st106"
   id="g1856">
						<g
   id="g1854">
							<g
   id="g1792">
								<path
   class="st107"
   d="m 429.61,360.78 c 0.72,-2.21 2.1,-4.16 3.71,-5.86 0.81,-0.85 1.74,-1.58 2.71,-2.26 0.99,-0.63 2.04,-1.21 3.15,-1.62 1.13,-0.42 2.11,-0.77 3.09,-1.33 0.95,-0.57 1.81,-1.27 2.57,-2.08 0.74,-0.83 1.35,-1.78 1.81,-2.81 0.49,-1.02 0.81,-2.13 0.98,-3.26 0.04,2.32 -0.78,4.65 -2.24,6.54 -0.74,0.94 -1.67,1.71 -2.66,2.37 -1.01,0.61 -2.2,1.05 -3.21,1.44 -2.1,0.78 -4,2.03 -5.69,3.52 -0.84,0.76 -1.61,1.59 -2.31,2.48 -0.74,0.9 -1.4,1.84 -1.91,2.87 z"
   id="path1790" />
							</g>
							<g
   id="g1796">
								<path
   class="st107"
   d="m 429.9,366.07 c 0.5,-1.89 1.51,-3.7 3.05,-5.03 0.76,-0.67 1.66,-1.21 2.63,-1.55 0.24,-0.1 0.5,-0.14 0.74,-0.21 0.25,-0.07 0.5,-0.13 0.76,-0.14 l 1.47,-0.15 c 1.87,-0.16 3.67,-0.84 5.37,-1.7 1.69,-0.89 3.3,-1.97 4.79,-3.24 -1.23,1.52 -2.74,2.84 -4.43,3.88 -1.7,1.02 -3.61,1.8 -5.63,1.99 l -1.44,0.13 c -0.46,0.03 -0.9,0.17 -1.35,0.28 -0.89,0.26 -1.69,0.72 -2.45,1.27 -1.49,1.13 -2.67,2.71 -3.51,4.47 z"
   id="path1794" />
							</g>
							<g
   id="g1800">
								<path
   class="st107"
   d="m 432.41,349.09 4.21,-3.09 c 1.39,-1.03 2.79,-2.05 4.12,-3.14 1.33,-1.1 2.61,-2.19 3.54,-3.61 0.92,-1.39 1.73,-2.97 1.71,-4.73 0.4,1.74 -0.21,3.59 -1.09,5.12 -0.86,1.59 -2.24,2.84 -3.57,3.95 -2.76,2.19 -5.75,4.03 -8.92,5.5 z"
   id="path1798" />
							</g>
							<g
   id="g1804">
								<path
   class="st107"
   d="m 433.26,342.13 c 0.65,-0.59 1.23,-1.25 1.82,-1.9 l 1.79,-1.93 c 1.19,-1.29 2.39,-2.57 3.54,-3.88 0.57,-0.65 1.15,-1.31 1.66,-1.99 0.14,-0.17 0.25,-0.34 0.36,-0.51 l 0.16,-0.25 0.1,-0.23 c 0.12,-0.33 0.14,-0.76 0.14,-1.18 -0.01,-0.85 -0.11,-1.72 -0.2,-2.59 -0.04,-0.44 -0.07,-0.88 -0.09,-1.33 0,-0.43 -0.05,-0.93 0.23,-1.3 -0.18,0.41 -0.04,0.85 0.02,1.28 0.08,0.43 0.19,0.85 0.3,1.28 0.2,0.86 0.4,1.72 0.47,2.64 0.03,0.46 0.06,0.93 -0.09,1.43 l -0.14,0.38 c -0.06,0.11 -0.12,0.21 -0.18,0.31 -0.12,0.21 -0.24,0.41 -0.37,0.59 -0.52,0.75 -1.1,1.42 -1.68,2.1 -1.19,1.32 -2.43,2.58 -3.73,3.77 -1.29,1.17 -2.61,2.37 -4.11,3.31 z"
   id="path1802" />
							</g>
							<g
   id="g1808">
								<path
   class="st107"
   d="m 428.66,352.59 c -1.02,-3.73 -1.77,-7.5 -2.45,-11.29 -0.65,-3.79 -1.23,-7.59 -1.53,-11.45 1.03,3.72 1.77,7.5 2.45,11.29 0.65,3.79 1.23,7.6 1.53,11.45 z"
   id="path1806" />
							</g>
							<g
   id="g1812">
								<path
   class="st107"
   d="m 419.62,330.13 c 0.9,2.15 1.69,4.33 2.44,6.53 0.76,2.2 1.44,4.42 2.09,6.65 0.62,2.24 1.22,4.49 1.69,6.77 0.46,2.28 0.91,4.59 0.91,6.93 -0.2,-1.15 -0.43,-2.28 -0.73,-3.4 -0.27,-1.13 -0.57,-2.24 -0.88,-3.36 l -1.89,-6.68 -1.87,-6.7 c -0.61,-2.24 -1.22,-4.47 -1.76,-6.74 z"
   id="path1810" />
							</g>
							<g
   id="g1816">
								<path
   class="st107"
   d="m 415.6,349.53 c 2.52,1.56 4.78,3.47 6.88,5.56 1.03,1.07 2.01,2.18 2.87,3.4 0.83,1.22 1.63,2.59 1.71,4.1 -0.15,-0.35 -0.23,-0.7 -0.41,-1.01 -0.19,-0.31 -0.33,-0.64 -0.56,-0.92 -0.4,-0.6 -0.86,-1.16 -1.31,-1.72 -0.95,-1.09 -1.94,-2.15 -2.96,-3.19 -2.06,-2.08 -4.17,-4.09 -6.22,-6.22 z"
   id="path1814" />
							</g>
							<g
   id="g1820">
								<path
   class="st107"
   d="m 428.41,325.81 c 0.56,3.81 0.85,7.63 1.09,11.45 0.22,3.82 0.36,7.65 0.37,11.49 -0.75,-3.78 -1.05,-7.61 -1.3,-11.44 -0.22,-3.82 -0.34,-7.65 -0.16,-11.5 z"
   id="path1818" />
							</g>
							<g
   id="g1824">
								<path
   class="st107"
   d="m 436.42,346.57 c 0.09,-1.42 0.51,-2.74 1.03,-4.02 0.28,-0.63 0.59,-1.26 0.98,-1.84 0.39,-0.58 0.85,-1.17 1.48,-1.52 -0.35,0.61 -0.57,1.23 -0.84,1.86 -0.24,0.63 -0.51,1.25 -0.77,1.87 -0.53,1.24 -1.09,2.47 -1.88,3.65 z"
   id="path1822" />
							</g>
							<g
   id="g1828">
								<path
   class="st107"
   d="m 440.56,351.03 c 1.01,-0.08 1.93,0.04 2.85,0.15 0.92,0.13 1.79,0.27 2.78,0.46 -0.88,0.55 -1.95,0.58 -2.91,0.47 -0.96,-0.16 -1.91,-0.45 -2.72,-1.08 z"
   id="path1826" />
							</g>
							<g
   id="g1832">
								<path
   class="st107"
   d="m 447.27,343.65 c -0.52,-0.53 -0.73,-1.34 -0.66,-2.12 0.07,-0.78 0.42,-1.52 0.87,-2.11 0.22,-0.31 0.5,-0.56 0.76,-0.83 0.3,-0.22 0.57,-0.48 0.88,-0.66 0.61,-0.4 1.28,-0.7 1.98,-0.89 -0.51,0.53 -1.03,0.99 -1.53,1.47 -0.48,0.48 -0.96,0.96 -1.34,1.49 -0.8,1 -1.28,2.22 -0.96,3.65 z"
   id="path1830" />
							</g>
							<g
   id="g1836">
								<path
   class="st107"
   d="m 425.88,351.81 c -1.38,-1.07 -2.66,-2.15 -4.01,-3.14 -0.67,-0.51 -1.36,-0.96 -2.07,-1.42 -0.71,-0.45 -1.45,-0.84 -2.22,-1.26 1.77,0.09 3.43,0.9 4.84,1.92 0.7,0.53 1.36,1.11 1.94,1.76 0.59,0.66 1.12,1.36 1.52,2.14 z"
   id="path1834" />
							</g>
							<g
   id="g1840">
								<path
   class="st107"
   d="m 431.97,341.12 c -0.65,-1.62 -1.14,-3.31 -1.44,-5.04 -0.31,-1.73 -0.46,-3.5 -0.28,-5.29 0.08,-0.89 0.29,-1.78 0.59,-2.64 l 0.92,-2.42 c 0.57,-1.63 1.15,-3.25 1.56,-4.95 -0.05,1.75 -0.4,3.48 -0.86,5.17 -0.22,0.85 -0.51,1.68 -0.78,2.5 -0.24,0.78 -0.44,1.59 -0.49,2.43 -0.18,1.67 -0.08,3.39 0.07,5.09 0.17,1.72 0.41,3.43 0.71,5.15 z"
   id="path1838" />
							</g>
							<g
   id="g1844">
								<path
   class="st107"
   d="m 445.42,337.33 c 0.55,-0.87 1.32,-1.5 2.14,-2.03 0.83,-0.51 1.74,-0.94 2.78,-1.01 -0.71,0.74 -1.48,1.28 -2.28,1.8 -0.82,0.5 -1.65,0.96 -2.64,1.24 z"
   id="path1842" />
							</g>
							<g
   id="g1848">
								<path
   class="st107"
   d="m 417.8,336.66 c 1.2,1.53 2.09,3.25 2.83,5.03 0.35,0.9 0.67,1.82 0.88,2.77 0.21,0.94 0.36,1.96 0.13,2.92 -0.17,-0.96 -0.5,-1.82 -0.83,-2.71 l -1.05,-2.63 c -0.69,-1.76 -1.42,-3.52 -1.96,-5.38 z"
   id="path1846" />
							</g>
							<g
   id="g1852">
								<path
   class="st107"
   d="m 439.52,322.31 c -0.59,2.69 -1.36,5.32 -2.27,7.92 -0.45,1.3 -0.96,2.58 -1.56,3.84 -0.31,0.62 -0.62,1.25 -1.01,1.85 -0.36,0.6 -0.81,1.19 -1.45,1.7 -0.2,0.15 -0.48,0.12 -0.63,-0.08 -0.08,-0.1 -0.11,-0.22 -0.09,-0.34 v -0.03 c 0.39,-2.61 0.85,-5.2 1.48,-7.77 0.32,-1.28 0.66,-2.55 1.07,-3.81 0.44,-1.24 0.87,-2.5 1.54,-3.64 -0.48,1.23 -0.82,2.49 -1.11,3.77 -0.31,1.27 -0.58,2.55 -0.81,3.84 -0.46,2.57 -0.9,5.16 -1.25,7.74 l -0.72,-0.45 c 0.89,-0.72 1.57,-1.99 2.18,-3.16 0.63,-1.2 1.13,-2.46 1.68,-3.71 0.53,-1.26 1.02,-2.53 1.5,-3.81 0.51,-1.29 0.96,-2.58 1.45,-3.86 z"
   id="path1850" />
							</g>
						</g>
					</g>
					<g
   id="g1860">
						<path
   class="st107"
   d="m 428.41,333.09 c -1.4,-2.08 -2.46,-4.38 -3.13,-6.81 -0.32,-1.22 -0.58,-2.47 -0.61,-3.74 -0.05,-1.26 0.07,-2.56 0.54,-3.74 -0.15,2.5 0.33,4.87 0.97,7.23 0.31,1.18 0.69,2.35 1.07,3.52 0.38,1.17 0.8,2.33 1.16,3.54 z"
   id="path1858" />
					</g>
					<g
   id="g1864">
						<path
   class="st107"
   d="m 420.39,354.05 c -0.89,0.12 -1.78,0.06 -2.66,-0.08 -0.88,-0.14 -1.75,-0.38 -2.58,-0.74 -0.82,-0.37 -1.62,-0.83 -2.3,-1.45 -0.67,-0.62 -1.21,-1.4 -1.47,-2.26 0.6,0.67 1.23,1.21 1.92,1.68 0.7,0.45 1.44,0.83 2.21,1.17 0.77,0.35 1.57,0.61 2.38,0.89 z"
   id="path1862" />
					</g>
				</g>
			</g>
		</g>
		<rect
   x="403.35001"
   y="306.26999"
   class="st4"
   width="75"
   height="75"
   id="rect1872" />
	</g>
</g>
</svg>
