<?xml version="1.0" encoding="UTF-8" standalone="no"?>
<svg
   xmlns:dc="http://purl.org/dc/elements/1.1/"
   xmlns:cc="http://creativecommons.org/ns#"
   xmlns:rdf="http://www.w3.org/1999/02/22-rdf-syntax-ns#"
   xmlns:svg="http://www.w3.org/2000/svg"
   xmlns="http://www.w3.org/2000/svg"
   xmlns:sodipodi="http://sodipodi.sourceforge.net/DTD/sodipodi-0.dtd"
   xmlns:inkscape="http://www.inkscape.org/namespaces/inkscape"
   version="1.1"
   id="katman_1"
   x="0px"
   y="0px"
   viewBox="0 0 74.999998 75"
   xml:space="preserve"
   sodipodi:docname="peas.svg"
   width="75"
   height="75"
   inkscape:version="1.0.1 (3bc2e813f5, 2020-09-07)"><metadata
   id="metadata1883"><rdf:RDF><cc:Work
       rdf:about=""><dc:format>image/svg+xml</dc:format><dc:type
         rdf:resource="http://purl.org/dc/dcmitype/StillImage" /><dc:title></dc:title></cc:Work></rdf:RDF></metadata><defs
   id="defs1881" /><sodipodi:namedview
   pagecolor="#ffffff"
   bordercolor="#666666"
   borderopacity="1"
   objecttolerance="10"
   gridtolerance="10"
   guidetolerance="10"
   inkscape:pageopacity="0"
   inkscape:pageshadow="2"
   inkscape:window-width="1718"
   inkscape:window-height="1368"
   id="namedview1879"
   showgrid="false"
   fit-margin-top="0"
   fit-margin-left="0"
   fit-margin-right="0"
   fit-margin-bottom="0"
   inkscape:zoom="2.216"
   inkscape:cx="-58.079983"
   inkscape:cy="-106.26999"
   inkscape:window-x="1713"
   inkscape:window-y="0"
   inkscape:window-maximized="0"
   inkscape:current-layer="g1876" />
<style
   type="text/css"
   id="style2">
	.st0{fill:#F40303;}
	.st1{fill:#4E9B04;}
	.st2{opacity:0.1;}
	.st3{opacity:0.15;fill:#FFFFFF;}
	.st4{fill:none;}
	.st5{fill:#DF0000;}
	.st6{fill:#41A500;}
	.st7{opacity:0.1;fill:#231F20;}
	.st8{fill:#84C100;}
	.st9{fill:#F86107;}
	.st10{opacity:0.07;}
	.st11{opacity:0.2;fill:#FFFFFF;}
	.st12{fill:#E55107;}
	.st13{fill:#E61206;}
	.st14{fill:#0D5C00;}
	.st15{fill:#27AB3B;}
	.st16{fill:#09913C;}
	.st17{fill:#E6012C;}
	.st18{fill:#680756;}
	.st19{fill:#74990D;}
	.st20{fill:#B22483;}
	.st21{fill:#43BC48;}
	.st22{fill:#2EAF2E;}
	.st23{fill:#8D1E60;}
	.st24{fill:#753D24;}
	.st25{fill:#348801;}
	.st26{fill:#2C7005;}
	.st27{fill:#63AB16;}
	.st28{fill:#8EBA24;}
	.st29{fill:#3B7524;}
	.st30{fill:#B4D459;}
	.st31{opacity:0.2;fill:#B4D459;}
	.st32{fill:#FEB544;}
	.st33{opacity:0.1;fill:#CE863A;}
	.st34{fill:#CE863A;}
	.st35{fill:#57BF44;}
	.st36{fill:#BBFF96;}
	.st37{fill:#DFFFAA;}
	.st38{fill:#39AA50;}
	.st39{fill:#5DD166;}
	.st40{fill:#8FDC50;}
	.st41{fill:#29602E;}
	.st42{fill:#8CD13D;}
	.st43{fill:#24892E;}
	.st44{fill:#15441A;}
	.st45{fill:#699E25;}
	.st46{fill:#4A8912;}
	.st47{fill:#FCD30B;}
	.st48{fill:#FFE36C;}
	.st49{fill:#FCD30B;stroke:#ED5100;stroke-width:0.0803;stroke-miterlimit:10;}
	.st50{fill:#FCD30B;stroke:#ED5100;stroke-width:0.0749;stroke-miterlimit:10;}
	.st51{fill:#FCD30B;stroke:#ED5100;stroke-width:0.0709;stroke-miterlimit:10;}
	.st52{fill:#FCD30B;stroke:#ED5100;stroke-width:0.0592;stroke-miterlimit:10;}
	.st53{fill:#FCD30B;stroke:#ED5100;stroke-width:0.0529;stroke-miterlimit:10;}
	.st54{fill:#FCD30B;stroke:#ED5100;stroke-width:0.0474;stroke-miterlimit:10;}
	.st55{fill:#FCD30B;stroke:#ED5100;stroke-width:0.0447;stroke-miterlimit:10;}
	.st56{fill:#FCD30B;stroke:#ED5100;stroke-width:0.0607;stroke-miterlimit:10;}
	.st57{fill:#FCD30B;stroke:#ED5100;stroke-width:0.0574;stroke-miterlimit:10;}
	.st58{fill:#FCD30B;stroke:#ED5100;stroke-width:0.0479;stroke-miterlimit:10;}
	.st59{fill:#FCD30B;stroke:#ED5100;stroke-width:0.0402;stroke-miterlimit:10;}
	.st60{fill:#FCD30B;stroke:#ED5100;stroke-width:0.0362;stroke-miterlimit:10;}
	.st61{fill:#FCD30B;stroke:#ED5100;stroke-width:0.033;stroke-miterlimit:10;}
	.st62{fill:#FCD30B;stroke:#ED5100;stroke-width:0.0788;stroke-miterlimit:10;}
	.st63{fill:#FCD30B;stroke:#ED5100;stroke-width:0.0766;stroke-miterlimit:10;}
	.st64{fill:#FCD30B;stroke:#ED5100;stroke-width:0.0793;stroke-miterlimit:10;}
	.st65{fill:#FCD30B;stroke:#ED5100;stroke-width:0.0791;stroke-miterlimit:10;}
	.st66{fill:#FCD30B;stroke:#ED5100;stroke-width:0.0796;stroke-miterlimit:10;}
	.st67{fill:#FCD30B;stroke:#ED5100;stroke-width:0.0635;stroke-miterlimit:10;}
	.st68{fill:#FCD30B;stroke:#ED5100;stroke-width:0.0533;stroke-miterlimit:10;}
	.st69{fill:#FCD30B;stroke:#ED5100;stroke-width:0.0498;stroke-miterlimit:10;}
	.st70{fill:#FCD30B;stroke:#ED5100;stroke-width:0.0329;stroke-miterlimit:10;}
	.st71{fill:#FCD30B;stroke:#ED5100;stroke-width:0.0389;stroke-miterlimit:10;}
	.st72{fill:#FCD30B;stroke:#ED5100;stroke-width:0.023;stroke-miterlimit:10;}
	.st73{fill:#FCD30B;stroke:#ED5100;stroke-width:0.0359;stroke-miterlimit:10;}
	.st74{fill:#FCD30B;stroke:#ED5100;stroke-width:0.0251;stroke-miterlimit:10;}
	.st75{fill:#FCD30B;stroke:#ED5100;stroke-width:0.0795;stroke-miterlimit:10;}
	.st76{fill:#FCD30B;stroke:#ED5100;stroke-width:0.0675;stroke-miterlimit:10;}
	.st77{fill:#FCD30B;stroke:#ED5100;stroke-width:0.0543;stroke-miterlimit:10;}
	.st78{fill:#FCD30B;stroke:#ED5100;stroke-width:0.0466;stroke-miterlimit:10;}
	.st79{fill:#FCD30B;stroke:#ED5100;stroke-width:0.0354;stroke-miterlimit:10;}
	.st80{fill:#489B0B;}
	.st81{fill:#72B236;}
	.st82{fill:#62A428;}
	.st83{fill:#528E2A;}
	.st84{fill:#92BC4C;}
	.st85{fill:#569B30;}
	.st86{fill:#E2C3A4;stroke:#A97D60;stroke-width:0.2737;stroke-miterlimit:10;}
	.st87{fill:#EFE3D3;stroke:#A97D60;stroke-width:0.3649;stroke-linecap:round;stroke-linejoin:round;stroke-miterlimit:10;}
	.st88{fill:#9D6B50;}
	.st89{fill:#E2C19E;}
	.st90{fill:#A16038;}
	.st91{fill:#DFC298;}
	.st92{fill:#EEE4BF;}
	.st93{fill:#D3B689;}
	.st94{fill:#689D34;}
	.st95{fill:#A5BC81;}
	.st96{fill:#DED6A8;}
	.st97{fill:#F4EDDA;}
	.st98{fill:#FF7900;stroke:#DB4900;stroke-width:0.5055;stroke-linecap:round;stroke-linejoin:round;stroke-miterlimit:10;}
	.st99{fill:none;stroke:#DB4900;stroke-width:0.5055;stroke-linecap:round;stroke-linejoin:round;stroke-miterlimit:10;}
	.st100{fill:#2E4819;}
	.st101{fill:#85BB19;}
	.st102{fill:#B2DC55;stroke:#A2C63C;stroke-width:0.2575;stroke-miterlimit:10;}
	.st103{fill:#86CE2C;}
	.st104{fill:#86CE2C;stroke:#72AA1A;stroke-width:0.1884;stroke-linecap:round;stroke-linejoin:round;stroke-miterlimit:10;}
	.st105{opacity:0.6;fill:#DDE68D;}
	.st106{opacity:0.6;}
	.st107{fill:#DDE68D;}
	.st108{fill:#86CE2C;stroke:#72AA1A;stroke-width:0.208;stroke-linecap:round;stroke-linejoin:round;stroke-miterlimit:10;}
</style>
<g
   id="g1876"
   transform="translate(-308.07999,-306.26999)">
	
	
	
	
	
	
	
	
	
	
	
	
	
	
	
	
	
	
	<g
   id="g1684">
		<g
   id="g1680">
			<path
   class="st101"
   d="m 374.49,321.58 c 0,0.01 -0.04,0.1 -0.11,0.24 -1.05,2.15 -9.85,18 -40.8,29.01 -0.02,0.01 -0.05,0.02 -0.07,0.03 -0.87,0.38 -17.1,7.32 -23.85,-1.38 v 0 c -0.57,-0.73 -1.06,-1.57 -1.48,-2.53 -0.33,-0.77 0.22,-1.63 1.06,-1.65 4.08,-0.09 15.24,-1.17 26.76,-7.04 1.52,-0.78 17.21,-7.22 17.21,-7.22 1.28,-0.77 9.3,-3.75 14.15,-5.53 2.49,-0.91 4.83,-2.18 6.94,-3.78 0.01,-0.01 0.01,-0.01 0.01,-0.01 z"
   id="path1652" />
			<path
   class="st2"
   d="m 374.38,321.82 c -1.05,2.15 -9.85,18 -40.8,29.01 -0.02,0.01 -0.05,0.02 -0.07,0.03 -0.87,0.38 -17.1,7.32 -23.85,-1.38 21.63,8.53 63.75,-27.01 64.63,-27.75 0.01,-0.01 0.01,-0.01 0.01,-0.01 0,0 0.03,0.03 0.08,0.1 z"
   id="path1654" />
			<path
   class="st101"
   d="m 314.19,360.96 c -0.65,0.31 -0.63,1.23 0.03,1.52 0.86,0.39 1.5,1.31 2.35,1.77 2.19,1.18 11.76,4.05 22.74,-2.02 0,0 14.36,-6.65 20.43,-13.59 0,0 11.18,-9.35 14.46,-17.06 0,0 2.12,-3.18 4.14,-3.85 2.02,-0.67 4.72,0.39 4.72,0.39 0,0 0.29,-2.41 -4.05,-2.41 -4.34,0 -10.05,1.91 -11.66,2.86 -2.6,1.54 -0.03,-0.76 -11.95,7.9 -10.96,7.96 -18.37,15 -24.89,17.26 -1.57,0.54 -3.13,1.14 -4.64,1.82 -3.08,1.4 -7.95,3.63 -11.68,5.41 z"
   id="path1656" />
			<path
   class="st2"
   d="m 363.45,331.86 c -1.52,0.58 -1.7,2.95 -9.02,8.22 -10.33,7.44 -17.53,13.47 -23.55,14.81 0,0 -5.53,2.22 -10.32,4.35 -1.37,0.61 -1.83,2.31 -0.98,3.54 0.01,0.01 0.02,0.03 0.03,0.04 1,1.5 10.19,3.51 19.71,-1.75 0,0 12.44,-5.76 17.7,-11.77 0,0 8.44,-7.06 11.87,-13.43 0.49,-0.91 0.35,-2.03 -0.35,-2.78 -0.97,-1.07 -2.66,-2.16 -5.09,-1.23 z"
   id="path1658" />
			<path
   class="st102"
   d="m 326.26,361.65 c 0,1.78 -1.21,2.83 -3.11,2.83 -1.89,0 -3.43,-1.44 -3.43,-3.22 0,-1.78 2.09,-3.27 3.99,-3.27 1.9,0 2.55,0.2 2.55,3.66 z"
   id="path1660" />
			<path
   class="st102"
   d="m 332.93,360.71 c 0,2.17 -1.41,2.97 -3.27,2.97 -1.86,0 -3.37,-1.76 -3.37,-3.93 0,-2.17 1.27,-3.72 3.13,-3.72 1.86,0.01 3.51,2.51 3.51,4.68 z"
   id="path1662" />
			<path
   class="st102"
   d="m 337.91,357 c 0.71,1.97 1.38,3.76 -1.13,4.88 -2.6,1.16 -3.61,-0.93 -4.32,-2.91 -0.71,-1.97 -1.3,-3.8 1.43,-4.56 2.06,-0.57 3.31,0.62 4.02,2.59 z"
   id="path1664" />
			<path
   class="st102"
   d="m 347.32,350.84 c 0.98,1.85 1.95,3.3 -0.32,4.73 -2.35,1.48 -3.64,-0.45 -4.62,-2.31 -0.98,-1.85 -1.69,-3.17 0.75,-4.48 1.99,-1.06 3.21,0.21 4.19,2.06 z"
   id="path1666" />
			<path
   class="st102"
   d="m 351.84,347.31 c 1.26,1.59 2.3,2.82 -0.04,4.59 -2.42,1.84 -3.86,0.11 -4.98,-1.58 -1.12,-1.69 -2.04,-3.01 0.6,-4.57 1.49,-0.87 3.18,-0.01 4.42,1.56 z"
   id="path1668" />
			<path
   class="st102"
   d="m 356.03,344.1 c 1.26,1.59 2.3,2.82 -0.04,4.59 -2.42,1.84 -3.86,0.11 -4.98,-1.58 -1.12,-1.69 -2.04,-3.01 0.6,-4.57 1.49,-0.88 3.18,-0.01 4.42,1.56 z"
   id="path1670" />
			<path
   class="st102"
   d="m 360.4,340.9 c 1.26,1.59 2.3,2.82 -0.04,4.59 -2.42,1.84 -3.86,0.11 -4.98,-1.58 -1.12,-1.69 -2.04,-3.01 0.6,-4.57 1.49,-0.87 3.18,-0.01 4.42,1.56 z"
   id="path1672" />
			<path
   class="st102"
   d="m 364.43,337.08 c 1.44,1.37 2.63,2.42 0.58,4.49 -2.12,2.14 -3.77,0.67 -5.09,-0.82 -1.32,-1.49 -2.4,-2.64 -0.02,-4.55 1.33,-1.07 3.1,-0.47 4.53,0.88 z"
   id="path1674" />
			<path
   class="st102"
   d="m 367.45,332.57 c 1.38,0.93 2.01,2.6 0.83,4.39 -1.59,2.42 -3.58,0.88 -4.85,-0.18 -1.27,-1.06 -2.32,-1.87 -0.36,-4.04 1.1,-1.22 3.01,-1.08 4.38,-0.17 z"
   id="path1676" />
			<path
   class="st102"
   d="m 342.98,353.75 c 0.94,1.94 1.8,3.69 -0.64,5.09 -2.53,1.45 -3.78,-0.57 -4.71,-2.51 -0.93,-1.94 -2.29,-3.21 0.98,-4.8 1.97,-0.96 3.44,0.28 4.37,2.22 z"
   id="path1678" />
		</g>
		<rect
   x="308.07999"
   y="306.26999"
   class="st4"
   width="75"
   height="75"
   id="rect1682" />
	</g>
	
</g>
</svg>
