<?xml version="1.0" encoding="UTF-8" standalone="no"?>
<svg
   xmlns:dc="http://purl.org/dc/elements/1.1/"
   xmlns:cc="http://creativecommons.org/ns#"
   xmlns:rdf="http://www.w3.org/1999/02/22-rdf-syntax-ns#"
   xmlns:svg="http://www.w3.org/2000/svg"
   xmlns="http://www.w3.org/2000/svg"
   xmlns:sodipodi="http://sodipodi.sourceforge.net/DTD/sodipodi-0.dtd"
   xmlns:inkscape="http://www.inkscape.org/namespaces/inkscape"
   version="1.1"
   id="katman_1"
   x="0px"
   y="0px"
   viewBox="0 0 75 75"
   xml:space="preserve"
   sodipodi:docname="tomato.svg"
   width="75"
   height="75"
   inkscape:version="1.0.1 (3bc2e813f5, 2020-09-07)"><metadata
   id="metadata1883"><rdf:RDF><cc:Work
       rdf:about=""><dc:format>image/svg+xml</dc:format><dc:type
         rdf:resource="http://purl.org/dc/dcmitype/StillImage" /><dc:title></dc:title></cc:Work></rdf:RDF></metadata><defs
   id="defs1881" /><sodipodi:namedview
   pagecolor="#ffffff"
   bordercolor="#666666"
   borderopacity="1"
   objecttolerance="10"
   gridtolerance="10"
   guidetolerance="10"
   inkscape:pageopacity="0"
   inkscape:pageshadow="2"
   inkscape:window-width="1718"
   inkscape:window-height="1368"
   id="namedview1879"
   showgrid="false"
   fit-margin-top="0"
   fit-margin-left="0"
   fit-margin-right="0"
   fit-margin-bottom="0"
   inkscape:zoom="2.216"
   inkscape:cx="227.74"
   inkscape:cy="181.95"
   inkscape:window-x="1713"
   inkscape:window-y="0"
   inkscape:window-maximized="0"
   inkscape:current-layer="g1876" />
<style
   type="text/css"
   id="style2">
	.st0{fill:#F40303;}
	.st1{fill:#4E9B04;}
	.st2{opacity:0.1;}
	.st3{opacity:0.15;fill:#FFFFFF;}
	.st4{fill:none;}
	.st5{fill:#DF0000;}
	.st6{fill:#41A500;}
	.st7{opacity:0.1;fill:#231F20;}
	.st8{fill:#84C100;}
	.st9{fill:#F86107;}
	.st10{opacity:0.07;}
	.st11{opacity:0.2;fill:#FFFFFF;}
	.st12{fill:#E55107;}
	.st13{fill:#E61206;}
	.st14{fill:#0D5C00;}
	.st15{fill:#27AB3B;}
	.st16{fill:#09913C;}
	.st17{fill:#E6012C;}
	.st18{fill:#680756;}
	.st19{fill:#74990D;}
	.st20{fill:#B22483;}
	.st21{fill:#43BC48;}
	.st22{fill:#2EAF2E;}
	.st23{fill:#8D1E60;}
	.st24{fill:#753D24;}
	.st25{fill:#348801;}
	.st26{fill:#2C7005;}
	.st27{fill:#63AB16;}
	.st28{fill:#8EBA24;}
	.st29{fill:#3B7524;}
	.st30{fill:#B4D459;}
	.st31{opacity:0.2;fill:#B4D459;}
	.st32{fill:#FEB544;}
	.st33{opacity:0.1;fill:#CE863A;}
	.st34{fill:#CE863A;}
	.st35{fill:#57BF44;}
	.st36{fill:#BBFF96;}
	.st37{fill:#DFFFAA;}
	.st38{fill:#39AA50;}
	.st39{fill:#5DD166;}
	.st40{fill:#8FDC50;}
	.st41{fill:#29602E;}
	.st42{fill:#8CD13D;}
	.st43{fill:#24892E;}
	.st44{fill:#15441A;}
	.st45{fill:#699E25;}
	.st46{fill:#4A8912;}
	.st47{fill:#FCD30B;}
	.st48{fill:#FFE36C;}
	.st49{fill:#FCD30B;stroke:#ED5100;stroke-width:0.0803;stroke-miterlimit:10;}
	.st50{fill:#FCD30B;stroke:#ED5100;stroke-width:0.0749;stroke-miterlimit:10;}
	.st51{fill:#FCD30B;stroke:#ED5100;stroke-width:0.0709;stroke-miterlimit:10;}
	.st52{fill:#FCD30B;stroke:#ED5100;stroke-width:0.0592;stroke-miterlimit:10;}
	.st53{fill:#FCD30B;stroke:#ED5100;stroke-width:0.0529;stroke-miterlimit:10;}
	.st54{fill:#FCD30B;stroke:#ED5100;stroke-width:0.0474;stroke-miterlimit:10;}
	.st55{fill:#FCD30B;stroke:#ED5100;stroke-width:0.0447;stroke-miterlimit:10;}
	.st56{fill:#FCD30B;stroke:#ED5100;stroke-width:0.0607;stroke-miterlimit:10;}
	.st57{fill:#FCD30B;stroke:#ED5100;stroke-width:0.0574;stroke-miterlimit:10;}
	.st58{fill:#FCD30B;stroke:#ED5100;stroke-width:0.0479;stroke-miterlimit:10;}
	.st59{fill:#FCD30B;stroke:#ED5100;stroke-width:0.0402;stroke-miterlimit:10;}
	.st60{fill:#FCD30B;stroke:#ED5100;stroke-width:0.0362;stroke-miterlimit:10;}
	.st61{fill:#FCD30B;stroke:#ED5100;stroke-width:0.033;stroke-miterlimit:10;}
	.st62{fill:#FCD30B;stroke:#ED5100;stroke-width:0.0788;stroke-miterlimit:10;}
	.st63{fill:#FCD30B;stroke:#ED5100;stroke-width:0.0766;stroke-miterlimit:10;}
	.st64{fill:#FCD30B;stroke:#ED5100;stroke-width:0.0793;stroke-miterlimit:10;}
	.st65{fill:#FCD30B;stroke:#ED5100;stroke-width:0.0791;stroke-miterlimit:10;}
	.st66{fill:#FCD30B;stroke:#ED5100;stroke-width:0.0796;stroke-miterlimit:10;}
	.st67{fill:#FCD30B;stroke:#ED5100;stroke-width:0.0635;stroke-miterlimit:10;}
	.st68{fill:#FCD30B;stroke:#ED5100;stroke-width:0.0533;stroke-miterlimit:10;}
	.st69{fill:#FCD30B;stroke:#ED5100;stroke-width:0.0498;stroke-miterlimit:10;}
	.st70{fill:#FCD30B;stroke:#ED5100;stroke-width:0.0329;stroke-miterlimit:10;}
	.st71{fill:#FCD30B;stroke:#ED5100;stroke-width:0.0389;stroke-miterlimit:10;}
	.st72{fill:#FCD30B;stroke:#ED5100;stroke-width:0.023;stroke-miterlimit:10;}
	.st73{fill:#FCD30B;stroke:#ED5100;stroke-width:0.0359;stroke-miterlimit:10;}
	.st74{fill:#FCD30B;stroke:#ED5100;stroke-width:0.0251;stroke-miterlimit:10;}
	.st75{fill:#FCD30B;stroke:#ED5100;stroke-width:0.0795;stroke-miterlimit:10;}
	.st76{fill:#FCD30B;stroke:#ED5100;stroke-width:0.0675;stroke-miterlimit:10;}
	.st77{fill:#FCD30B;stroke:#ED5100;stroke-width:0.0543;stroke-miterlimit:10;}
	.st78{fill:#FCD30B;stroke:#ED5100;stroke-width:0.0466;stroke-miterlimit:10;}
	.st79{fill:#FCD30B;stroke:#ED5100;stroke-width:0.0354;stroke-miterlimit:10;}
	.st80{fill:#489B0B;}
	.st81{fill:#72B236;}
	.st82{fill:#62A428;}
	.st83{fill:#528E2A;}
	.st84{fill:#92BC4C;}
	.st85{fill:#569B30;}
	.st86{fill:#E2C3A4;stroke:#A97D60;stroke-width:0.2737;stroke-miterlimit:10;}
	.st87{fill:#EFE3D3;stroke:#A97D60;stroke-width:0.3649;stroke-linecap:round;stroke-linejoin:round;stroke-miterlimit:10;}
	.st88{fill:#9D6B50;}
	.st89{fill:#E2C19E;}
	.st90{fill:#A16038;}
	.st91{fill:#DFC298;}
	.st92{fill:#EEE4BF;}
	.st93{fill:#D3B689;}
	.st94{fill:#689D34;}
	.st95{fill:#A5BC81;}
	.st96{fill:#DED6A8;}
	.st97{fill:#F4EDDA;}
	.st98{fill:#FF7900;stroke:#DB4900;stroke-width:0.5055;stroke-linecap:round;stroke-linejoin:round;stroke-miterlimit:10;}
	.st99{fill:none;stroke:#DB4900;stroke-width:0.5055;stroke-linecap:round;stroke-linejoin:round;stroke-miterlimit:10;}
	.st100{fill:#2E4819;}
	.st101{fill:#85BB19;}
	.st102{fill:#B2DC55;stroke:#A2C63C;stroke-width:0.2575;stroke-miterlimit:10;}
	.st103{fill:#86CE2C;}
	.st104{fill:#86CE2C;stroke:#72AA1A;stroke-width:0.1884;stroke-linecap:round;stroke-linejoin:round;stroke-miterlimit:10;}
	.st105{opacity:0.6;fill:#DDE68D;}
	.st106{opacity:0.6;}
	.st107{fill:#DDE68D;}
	.st108{fill:#86CE2C;stroke:#72AA1A;stroke-width:0.208;stroke-linecap:round;stroke-linejoin:round;stroke-miterlimit:10;}
</style>
<g
   id="g1876"
   transform="translate(-22.26,-18.049999)">
	<g
   id="g18">
		<g
   id="g14">
			<path
   class="st0"
   d="m 90.39,66.27 c 0,14.24 -14.33,26.78 -30.63,26.78 -0.82,0 -1.63,-0.03 -2.44,-0.09 -3.14,-0.24 -6.19,-0.94 -9.04,-2.02 -11,-4.15 -19.15,-13.92 -19.15,-24.67 0,-14.69 7.58,-20.64 18.58,-22.58 3.19,-0.56 7,-0.11 9.85,1.15 l 2.2,1.13 c 1.02,-1.33 4.91,-1.87 8.04,-2.09 3.86,-0.27 7.74,0.36 11.26,1.95 0.95,0.43 1.86,0.92 2.71,1.47 0,0 0,0 0,0 1.84,1.19 3.44,2.66 4.74,4.48 0,0 0,0 0,0 2.48,3.47 3.88,8.17 3.88,14.49 z"
   id="path4" />
			<path
   class="st1"
   d="m 81.72,22.24 c 0,1.48 -0.48,2.85 -1.09,4.13 -0.31,0.64 -0.66,1.26 -1.05,1.86 -0.38,0.6 -0.79,1.18 -1.22,1.75 -0.43,0.56 -0.88,1.12 -1.35,1.63 l -1.47,1.58 c -0.96,1.09 -2.01,2.07 -3,3.11 -1.76,1.7 -3.57,3.33 -5.49,4.79 0.57,-0.85 1.07,-1.74 1.5,-2.66 0.5,-1.08 0.91,-2.2 1.25,-3.32 0.33,-1.13 0.57,-2.27 0.76,-3.42 0.35,-2.3 0.46,-4.61 0.35,-6.89 -0.12,-2.28 -0.41,-4.55 -0.99,-6.74 0.04,1.13 0.02,2.25 -0.01,3.37 l -0.03,0.84 -0.05,0.84 c -0.03,0.56 -0.08,1.11 -0.14,1.66 -0.21,2.21 -0.57,4.39 -1.12,6.5 -0.27,1.05 -0.61,2.09 -0.98,3.09 -0.01,0.03 -0.02,0.06 -0.04,0.09 0.01,-0.28 0.02,-0.56 0.02,-0.83 -0.02,-1.39 -0.2,-2.77 -0.52,-4.1 -0.32,-1.33 -0.78,-2.61 -1.34,-3.83 -0.56,-1.22 -1.23,-2.38 -1.99,-3.47 -0.38,-0.54 -0.78,-1.07 -1.22,-1.57 -0.43,-0.5 -0.88,-0.99 -1.39,-1.42 0.46,1.24 0.9,2.45 1.3,3.66 0.4,1.21 0.77,2.4 1.09,3.6 0.63,2.4 1.06,4.79 1.09,7.15 0.01,1.18 -0.08,2.34 -0.3,3.49 -0.11,0.57 -0.25,1.14 -0.42,1.7 -0.17,0.56 -0.38,1.11 -0.61,1.65 -0.23,0.55 -0.51,1.07 -0.8,1.6 -0.02,0.02 -0.03,0.03 -0.05,0.05 -0.05,0.04 -0.1,0.09 -0.14,0.14 l -0.04,0.05 -0.19,0.22 -0.21,0.24 c -0.14,0.16 -0.29,0.31 -0.44,0.46 -0.3,0.3 -0.6,0.59 -0.92,0.85 -0.1,0.08 -0.19,0.16 -0.29,0.24 0.35,-0.77 0.64,-1.55 0.89,-2.35 0.5,-1.62 0.85,-3.27 1.08,-4.93 0.23,-1.66 0.34,-3.33 0.32,-5.01 -0.01,-0.84 -0.06,-1.69 -0.15,-2.54 -0.05,-0.42 -0.1,-0.85 -0.18,-1.28 -0.07,-0.43 -0.16,-0.85 -0.28,-1.29 -0.21,0.4 -0.38,0.8 -0.54,1.2 -0.16,0.4 -0.31,0.8 -0.45,1.2 -0.28,0.8 -0.52,1.61 -0.73,2.42 -0.42,1.62 -0.72,3.25 -0.95,4.88 -0.23,1.64 -0.38,3.28 -0.44,4.94 -0.02,0.44 -0.03,0.87 -0.03,1.31 -0.02,-0.06 -0.04,-0.12 -0.06,-0.18 -0.08,-0.23 -0.16,-0.45 -0.23,-0.68 -0.15,-0.46 -0.31,-0.92 -0.44,-1.39 -0.54,-1.88 -1,-3.8 -1.37,-5.76 L 56.47,34.14 C 56.42,33.9 56.38,33.65 56.34,33.4 56.26,32.91 56.16,32.42 56.08,31.92 L 55.6,28.94 c -0.13,-1 -0.28,-2 -0.43,-3 -0.13,-1 -0.27,-2.01 -0.44,-3.02 -0.14,1.01 -0.25,2.03 -0.35,3.04 -0.05,0.51 -0.07,1.02 -0.1,1.53 -0.03,0.51 -0.05,1.02 -0.08,1.53 -0.01,0.51 -0.01,1.02 -0.01,1.53 0,0.51 -0.01,1.03 0.01,1.54 0.04,1.03 0.07,2.05 0.17,3.08 0.16,2.05 0.47,4.11 0.94,6.15 0.11,0.51 0.25,1.02 0.39,1.53 0.06,0.25 0.15,0.51 0.23,0.76 0.05,0.15 0.1,0.31 0.15,0.46 C 55.23,43.61 54.37,43.09 53.54,42.52 53.09,42.21 52.63,41.9 52.19,41.57 51.74,41.25 51.3,40.91 50.85,40.58 49.96,39.91 49.08,39.21 48.2,38.51 46.45,37.1 44.72,35.64 42.98,34.17 l -2.61,-2.21 c -0.87,-0.74 -1.75,-1.47 -2.64,-2.2 0.63,0.96 1.31,1.89 2.01,2.8 0.35,0.46 0.71,0.91 1.06,1.36 0.36,0.44 0.73,0.89 1.1,1.33 1.48,1.76 3.04,3.45 4.69,5.06 0.82,0.81 1.68,1.59 2.55,2.36 0.88,0.76 1.79,1.5 2.74,2.2 0.96,0.69 1.95,1.36 3.04,1.94 0.54,0.29 1.11,0.56 1.72,0.79 0.61,0.23 1.27,0.41 2.02,0.5 0.08,0.01 0.17,0.01 0.25,0.01 0.04,0 0.09,0.01 0.13,0 h 0.15 0.06 0.05 l 0.19,-0.02 c 0.13,-0.01 0.23,-0.03 0.35,-0.05 0.23,-0.03 0.43,-0.08 0.65,-0.13 0.21,-0.04 0.41,-0.11 0.61,-0.17 0.2,-0.06 0.4,-0.12 0.59,-0.19 0.38,-0.14 0.76,-0.28 1.12,-0.45 0.36,-0.16 0.73,-0.32 1.07,-0.51 l 0.52,-0.27 0.26,-0.14 c 0.09,-0.05 0.17,-0.1 0.25,-0.15 l 0.99,-0.61 c 0.32,-0.21 0.63,-0.43 0.95,-0.65 0.31,-0.22 0.63,-0.43 0.93,-0.67 2.41,-1.85 4.55,-3.96 6.52,-6.18 0.48,-0.57 0.96,-1.13 1.43,-1.71 l 0.35,-0.43 0.18,-0.21 0.17,-0.22 0.67,-0.88 1.33,-1.78 c 0.44,-0.63 0.84,-1.26 1.22,-1.91 0.74,-1.31 1.38,-2.68 1.81,-4.13 0.21,-0.72 0.36,-1.46 0.43,-2.21 0.03,-0.73 0.01,-1.48 -0.17,-2.2 z"
   id="path6" />
			<path
   class="st2"
   d="m 90.39,66.27 c 0,14.24 -14.33,26.78 -30.63,26.78 -0.82,0 -1.63,-0.03 -2.44,-0.09 -3.14,-0.24 -6.19,-0.94 -9.04,-2.02 0,0 0,0 0,0 39.17,-1.62 38.23,-38.86 38.23,-39.15 2.48,3.46 3.88,8.16 3.88,14.48 z"
   id="path8" />
			<circle
   class="st3"
   cx="43.07"
   cy="56.459999"
   r="5.3200002"
   id="circle10" />
			<circle
   class="st3"
   cx="38.720001"
   cy="65"
   r="2.0999999"
   id="circle12" />
		</g>
		<rect
   x="22.26"
   y="18.049999"
   class="st4"
   width="75"
   height="75"
   id="rect16" />
	</g>
	
	
	
	
	
	
	
	
	
	
	
	
	
	
	
	
	
	
	
</g>
</svg>
