<?xml version="1.0" encoding="UTF-8" standalone="no"?>
<svg
   xmlns:dc="http://purl.org/dc/elements/1.1/"
   xmlns:cc="http://creativecommons.org/ns#"
   xmlns:rdf="http://www.w3.org/1999/02/22-rdf-syntax-ns#"
   xmlns:svg="http://www.w3.org/2000/svg"
   xmlns="http://www.w3.org/2000/svg"
   xmlns:sodipodi="http://sodipodi.sourceforge.net/DTD/sodipodi-0.dtd"
   xmlns:inkscape="http://www.inkscape.org/namespaces/inkscape"
   version="1.1"
   id="katman_1"
   x="0px"
   y="0px"
   viewBox="0 0 74.999999 75"
   xml:space="preserve"
   sodipodi:docname="zucchini.svg"
   width="75"
   height="75"
   inkscape:version="1.0.1 (3bc2e813f5, 2020-09-07)"><metadata
   id="metadata1883"><rdf:RDF><cc:Work
       rdf:about=""><dc:format>image/svg+xml</dc:format><dc:type
         rdf:resource="http://purl.org/dc/dcmitype/StillImage" /><dc:title></dc:title></cc:Work></rdf:RDF></metadata><defs
   id="defs1881" /><sodipodi:namedview
   pagecolor="#ffffff"
   bordercolor="#666666"
   borderopacity="1"
   objecttolerance="10"
   gridtolerance="10"
   guidetolerance="10"
   inkscape:pageopacity="0"
   inkscape:pageshadow="2"
   inkscape:window-width="1718"
   inkscape:window-height="1368"
   id="namedview1879"
   showgrid="false"
   fit-margin-top="0"
   fit-margin-left="0"
   fit-margin-right="0"
   fit-margin-bottom="0"
   inkscape:zoom="2.216"
   inkscape:cx="227.74"
   inkscape:cy="-106.26999"
   inkscape:window-x="1713"
   inkscape:window-y="0"
   inkscape:window-maximized="0"
   inkscape:current-layer="g1876" />
<style
   type="text/css"
   id="style2">
	.st0{fill:#F40303;}
	.st1{fill:#4E9B04;}
	.st2{opacity:0.1;}
	.st3{opacity:0.15;fill:#FFFFFF;}
	.st4{fill:none;}
	.st5{fill:#DF0000;}
	.st6{fill:#41A500;}
	.st7{opacity:0.1;fill:#231F20;}
	.st8{fill:#84C100;}
	.st9{fill:#F86107;}
	.st10{opacity:0.07;}
	.st11{opacity:0.2;fill:#FFFFFF;}
	.st12{fill:#E55107;}
	.st13{fill:#E61206;}
	.st14{fill:#0D5C00;}
	.st15{fill:#27AB3B;}
	.st16{fill:#09913C;}
	.st17{fill:#E6012C;}
	.st18{fill:#680756;}
	.st19{fill:#74990D;}
	.st20{fill:#B22483;}
	.st21{fill:#43BC48;}
	.st22{fill:#2EAF2E;}
	.st23{fill:#8D1E60;}
	.st24{fill:#753D24;}
	.st25{fill:#348801;}
	.st26{fill:#2C7005;}
	.st27{fill:#63AB16;}
	.st28{fill:#8EBA24;}
	.st29{fill:#3B7524;}
	.st30{fill:#B4D459;}
	.st31{opacity:0.2;fill:#B4D459;}
	.st32{fill:#FEB544;}
	.st33{opacity:0.1;fill:#CE863A;}
	.st34{fill:#CE863A;}
	.st35{fill:#57BF44;}
	.st36{fill:#BBFF96;}
	.st37{fill:#DFFFAA;}
	.st38{fill:#39AA50;}
	.st39{fill:#5DD166;}
	.st40{fill:#8FDC50;}
	.st41{fill:#29602E;}
	.st42{fill:#8CD13D;}
	.st43{fill:#24892E;}
	.st44{fill:#15441A;}
	.st45{fill:#699E25;}
	.st46{fill:#4A8912;}
	.st47{fill:#FCD30B;}
	.st48{fill:#FFE36C;}
	.st49{fill:#FCD30B;stroke:#ED5100;stroke-width:0.0803;stroke-miterlimit:10;}
	.st50{fill:#FCD30B;stroke:#ED5100;stroke-width:0.0749;stroke-miterlimit:10;}
	.st51{fill:#FCD30B;stroke:#ED5100;stroke-width:0.0709;stroke-miterlimit:10;}
	.st52{fill:#FCD30B;stroke:#ED5100;stroke-width:0.0592;stroke-miterlimit:10;}
	.st53{fill:#FCD30B;stroke:#ED5100;stroke-width:0.0529;stroke-miterlimit:10;}
	.st54{fill:#FCD30B;stroke:#ED5100;stroke-width:0.0474;stroke-miterlimit:10;}
	.st55{fill:#FCD30B;stroke:#ED5100;stroke-width:0.0447;stroke-miterlimit:10;}
	.st56{fill:#FCD30B;stroke:#ED5100;stroke-width:0.0607;stroke-miterlimit:10;}
	.st57{fill:#FCD30B;stroke:#ED5100;stroke-width:0.0574;stroke-miterlimit:10;}
	.st58{fill:#FCD30B;stroke:#ED5100;stroke-width:0.0479;stroke-miterlimit:10;}
	.st59{fill:#FCD30B;stroke:#ED5100;stroke-width:0.0402;stroke-miterlimit:10;}
	.st60{fill:#FCD30B;stroke:#ED5100;stroke-width:0.0362;stroke-miterlimit:10;}
	.st61{fill:#FCD30B;stroke:#ED5100;stroke-width:0.033;stroke-miterlimit:10;}
	.st62{fill:#FCD30B;stroke:#ED5100;stroke-width:0.0788;stroke-miterlimit:10;}
	.st63{fill:#FCD30B;stroke:#ED5100;stroke-width:0.0766;stroke-miterlimit:10;}
	.st64{fill:#FCD30B;stroke:#ED5100;stroke-width:0.0793;stroke-miterlimit:10;}
	.st65{fill:#FCD30B;stroke:#ED5100;stroke-width:0.0791;stroke-miterlimit:10;}
	.st66{fill:#FCD30B;stroke:#ED5100;stroke-width:0.0796;stroke-miterlimit:10;}
	.st67{fill:#FCD30B;stroke:#ED5100;stroke-width:0.0635;stroke-miterlimit:10;}
	.st68{fill:#FCD30B;stroke:#ED5100;stroke-width:0.0533;stroke-miterlimit:10;}
	.st69{fill:#FCD30B;stroke:#ED5100;stroke-width:0.0498;stroke-miterlimit:10;}
	.st70{fill:#FCD30B;stroke:#ED5100;stroke-width:0.0329;stroke-miterlimit:10;}
	.st71{fill:#FCD30B;stroke:#ED5100;stroke-width:0.0389;stroke-miterlimit:10;}
	.st72{fill:#FCD30B;stroke:#ED5100;stroke-width:0.023;stroke-miterlimit:10;}
	.st73{fill:#FCD30B;stroke:#ED5100;stroke-width:0.0359;stroke-miterlimit:10;}
	.st74{fill:#FCD30B;stroke:#ED5100;stroke-width:0.0251;stroke-miterlimit:10;}
	.st75{fill:#FCD30B;stroke:#ED5100;stroke-width:0.0795;stroke-miterlimit:10;}
	.st76{fill:#FCD30B;stroke:#ED5100;stroke-width:0.0675;stroke-miterlimit:10;}
	.st77{fill:#FCD30B;stroke:#ED5100;stroke-width:0.0543;stroke-miterlimit:10;}
	.st78{fill:#FCD30B;stroke:#ED5100;stroke-width:0.0466;stroke-miterlimit:10;}
	.st79{fill:#FCD30B;stroke:#ED5100;stroke-width:0.0354;stroke-miterlimit:10;}
	.st80{fill:#489B0B;}
	.st81{fill:#72B236;}
	.st82{fill:#62A428;}
	.st83{fill:#528E2A;}
	.st84{fill:#92BC4C;}
	.st85{fill:#569B30;}
	.st86{fill:#E2C3A4;stroke:#A97D60;stroke-width:0.2737;stroke-miterlimit:10;}
	.st87{fill:#EFE3D3;stroke:#A97D60;stroke-width:0.3649;stroke-linecap:round;stroke-linejoin:round;stroke-miterlimit:10;}
	.st88{fill:#9D6B50;}
	.st89{fill:#E2C19E;}
	.st90{fill:#A16038;}
	.st91{fill:#DFC298;}
	.st92{fill:#EEE4BF;}
	.st93{fill:#D3B689;}
	.st94{fill:#689D34;}
	.st95{fill:#A5BC81;}
	.st96{fill:#DED6A8;}
	.st97{fill:#F4EDDA;}
	.st98{fill:#FF7900;stroke:#DB4900;stroke-width:0.5055;stroke-linecap:round;stroke-linejoin:round;stroke-miterlimit:10;}
	.st99{fill:none;stroke:#DB4900;stroke-width:0.5055;stroke-linecap:round;stroke-linejoin:round;stroke-miterlimit:10;}
	.st100{fill:#2E4819;}
	.st101{fill:#85BB19;}
	.st102{fill:#B2DC55;stroke:#A2C63C;stroke-width:0.2575;stroke-miterlimit:10;}
	.st103{fill:#86CE2C;}
	.st104{fill:#86CE2C;stroke:#72AA1A;stroke-width:0.1884;stroke-linecap:round;stroke-linejoin:round;stroke-miterlimit:10;}
	.st105{opacity:0.6;fill:#DDE68D;}
	.st106{opacity:0.6;}
	.st107{fill:#DDE68D;}
	.st108{fill:#86CE2C;stroke:#72AA1A;stroke-width:0.208;stroke-linecap:round;stroke-linejoin:round;stroke-miterlimit:10;}
</style>
<g
   id="g1876"
   transform="translate(-22.26,-306.26999)">
	
	
	
	
	
	
	
	
	<g
   id="g364">
		<g
   id="g360">
			<path
   class="st28"
   d="m 30.62,321.18 c -0.87,-0.66 -2.08,-1.6 -2.92,-2.35 -0.71,-0.64 -1.82,-0.59 -2.44,0.14 -0.02,0.02 -0.03,0.04 -0.05,0.06 -0.19,0.23 -0.42,0.42 -0.7,0.54 -0.27,0.12 -0.6,0.44 -0.71,1.29 -0.16,1.16 -0.63,1.84 -1.02,2.21 -0.38,0.36 -0.56,0.88 -0.51,1.4 0.16,1.72 0.74,5.13 2.88,5.65 2.18,0.53 4.83,-4.39 5.99,-6.81 0.35,-0.74 0.13,-1.63 -0.52,-2.13 z"
   id="path334" />
			<path
   class="st29"
   d="m 96.74,360.55 c -2.29,7.68 -11.99,11.78 -25.34,5.62 -3.67,-1.69 -12.2,-6.29 -18.68,-9.84 -6.66,-3.64 -12.88,-8.01 -18.55,-13.05 0,0 -0.01,-0.01 -0.01,-0.01 -0.79,-0.7 -1.56,-1.41 -2.32,-2.14 -2.5,-2.37 -4.58,-4.6 -5.7,-6.3 -4.09,-6.22 -0.26,-12.26 5.19,-13.2 0.17,-0.03 3.19,-1.02 6.39,0.94 3.19,1.96 14.88,8.63 17.27,9.28 l 14.21,5.62 6.77,2.57 c 0,0 1.54,0.46 3.7,1.19 6.76,1.66 15.48,5.12 17.15,12.13 0.62,2.58 0.57,5.03 -0.08,7.19 z"
   id="path336" />
			<path
   class="st2"
   d="m 96.74,360.55 c -2.29,7.68 -11.99,11.78 -25.34,5.62 -3.67,-1.69 -12.2,-6.29 -18.68,-9.84 -6.66,-3.64 -12.88,-8.01 -18.55,-13.05 20.03,16.85 62.57,17.27 62.57,17.27 z"
   id="path338" />
			<g
   id="g354">
				<g
   id="g344">
					<g
   id="g342">
						<path
   class="st30"
   d="m 35.91,323.94 c 1.93,1.92 3.98,3.71 6.08,5.45 2.11,1.73 4.29,3.37 6.54,4.91 1.13,0.77 2.27,1.52 3.43,2.24 1.16,0.73 2.34,1.41 3.54,2.08 2.4,1.32 4.88,2.52 7.44,3.52 1.28,0.5 2.59,0.94 3.92,1.33 0.33,0.1 0.67,0.18 1,0.27 0.34,0.08 0.67,0.17 1.01,0.24 0.67,0.16 1.38,0.28 2,0.41 2.58,0.54 5.08,1.49 7.5,2.64 2.41,1.15 4.74,2.52 6.98,4.01 1.13,0.74 2.23,1.53 3.31,2.34 0.54,0.4 1.08,0.82 1.61,1.24 0.53,0.42 1.06,0.85 1.58,1.29 -0.45,-0.51 -0.93,-0.99 -1.42,-1.47 -0.49,-0.48 -0.98,-0.94 -1.49,-1.4 -0.5,-0.46 -1.02,-0.9 -1.54,-1.34 -0.52,-0.44 -1.05,-0.87 -1.59,-1.29 -2.16,-1.68 -4.45,-3.2 -6.88,-4.5 -0.61,-0.32 -1.22,-0.63 -1.85,-0.93 -0.63,-0.29 -1.26,-0.56 -1.91,-0.82 -1.29,-0.51 -2.62,-0.93 -3.98,-1.25 -0.7,-0.16 -1.33,-0.28 -1.98,-0.44 -0.32,-0.08 -0.64,-0.16 -0.97,-0.25 -0.32,-0.09 -0.64,-0.18 -0.96,-0.27 -1.28,-0.38 -2.54,-0.81 -3.78,-1.3 -1.25,-0.48 -2.48,-1.01 -3.7,-1.57 -1.22,-0.56 -2.42,-1.16 -3.61,-1.78 -2.38,-1.25 -4.71,-2.61 -7,-4.04 -2.29,-1.43 -4.54,-2.93 -6.75,-4.49 -2.2,-1.55 -4.37,-3.17 -6.53,-4.83 z"
   id="path340" />
					</g>
				</g>
				<g
   id="g348">
					<path
   class="st30"
   d="m 31.25,326.03 0.03,0.06 0.04,0.06 c 0.02,0.04 0.05,0.08 0.08,0.11 0.05,0.08 0.11,0.15 0.17,0.22 0.11,0.14 0.23,0.28 0.35,0.42 0.24,0.28 0.48,0.55 0.73,0.82 0.5,0.54 1.01,1.06 1.53,1.58 1.04,1.03 2.11,2.03 3.2,3.01 2.18,1.95 4.46,3.81 6.79,5.59 4.67,3.55 9.59,6.78 14.72,9.63 5.13,2.86 10.47,5.35 15.98,7.37 0.69,0.25 1.38,0.5 2.08,0.73 0.69,0.24 1.39,0.46 2.09,0.69 1.4,0.44 2.81,0.85 4.23,1.22 0.71,0.19 1.42,0.35 2.13,0.53 l 1.07,0.24 0.54,0.12 0.54,0.11 c 1.43,0.3 2.88,0.55 4.32,0.76 -5.65,-1.5 -11.17,-3.35 -16.54,-5.57 -5.37,-2.21 -10.59,-4.77 -15.66,-7.59 -5.07,-2.82 -9.99,-5.92 -14.76,-9.25 -2.38,-1.66 -4.73,-3.39 -7.03,-5.17 -0.58,-0.44 -1.15,-0.9 -1.72,-1.35 -0.57,-0.46 -1.13,-0.92 -1.69,-1.38 -0.56,-0.47 -1.11,-0.94 -1.66,-1.42 -0.27,-0.24 -0.54,-0.48 -0.81,-0.73 -0.13,-0.12 -0.26,-0.25 -0.39,-0.38 -0.06,-0.07 -0.13,-0.13 -0.19,-0.2 -0.03,-0.03 -0.06,-0.07 -0.09,-0.1 l -0.04,-0.05 z"
   id="path346" />
				</g>
				<g
   id="g352">
					<path
   class="st30"
   d="m 28.54,327.79 c 0.86,1.28 1.8,2.5 2.76,3.71 0.48,0.6 0.97,1.2 1.47,1.78 0.5,0.59 1,1.17 1.51,1.75 2.05,2.31 4.21,4.51 6.47,6.62 4.52,4.21 9.44,8.02 14.75,11.23 5.3,3.21 11,5.82 16.98,7.49 0.74,0.22 1.5,0.39 2.25,0.58 0.76,0.17 1.51,0.35 2.28,0.48 0.76,0.15 1.53,0.27 2.29,0.39 0.38,0.06 0.77,0.1 1.15,0.15 l 0.58,0.07 0.58,0.06 c 1.54,0.16 3.09,0.24 4.63,0.25 1.54,0.02 3.09,-0.06 4.62,-0.2 -0.38,-0.01 -0.77,-0.03 -1.15,-0.04 -0.19,-0.01 -0.38,-0.01 -0.58,-0.02 l -0.57,-0.03 c -0.38,-0.02 -0.77,-0.04 -1.15,-0.06 l -1.14,-0.1 c -1.52,-0.15 -3.04,-0.32 -4.55,-0.59 l -0.56,-0.09 -0.56,-0.11 c -0.37,-0.07 -0.75,-0.14 -1.12,-0.22 -0.74,-0.17 -1.49,-0.32 -2.23,-0.51 -0.74,-0.17 -1.47,-0.38 -2.21,-0.58 l -1.09,-0.33 c -0.37,-0.11 -0.73,-0.22 -1.09,-0.34 -5.79,-1.86 -11.31,-4.51 -16.51,-7.66 -5.21,-3.15 -10.11,-6.81 -14.74,-10.8 -2.32,-1.99 -4.56,-4.07 -6.74,-6.22 -1.09,-1.07 -2.16,-2.17 -3.21,-3.29 -0.53,-0.56 -1.05,-1.12 -1.56,-1.69 -0.55,-0.52 -1.06,-1.09 -1.56,-1.68 z"
   id="path350" />
				</g>
			</g>
			
				<ellipse
   transform="matrix(0.4661,-0.8847,0.8847,0.4661,-267.8869,215.9372)"
   class="st31"
   cx="44.98"
   cy="329.94"
   rx="1.53"
   ry="6.0300002"
   id="ellipse356" />
			
				<ellipse
   transform="matrix(0.4661,-0.8847,0.8847,0.4661,-267.2477,227.8901)"
   class="st31"
   cx="55.209999"
   cy="335.39001"
   rx="0.88"
   ry="3.46"
   id="ellipse358" />
		</g>
		<rect
   x="22.26"
   y="306.26999"
   class="st4"
   width="75"
   height="75"
   id="rect362" />
	</g>
	
	
	
	
	
	
	
	
	
	
	
</g>
</svg>
