<?xml version="1.0" encoding="UTF-8"?>
<!DOCTYPE svg PUBLIC "-//W3C//DTD SVG 1.1//EN" "http://www.w3.org/Graphics/SVG/1.1/DTD/svg11.dtd">
<!-- Creator: CorelDRAW 2020 (64-Bit) -->
<svg xmlns="http://www.w3.org/2000/svg" xml:space="preserve" width="512px" height="509px" version="1.1" style="shape-rendering:geometricPrecision; text-rendering:geometricPrecision; image-rendering:optimizeQuality; fill-rule:evenodd; clip-rule:evenodd"
viewBox="0 0 512 509.1"
 xmlns:xlink="http://www.w3.org/1999/xlink"
 xmlns:xodm="http://www.corel.com/coreldraw/odm/2003">
 <defs>
  <style type="text/css">
   <![CDATA[
    .fil8 {fill:#010100}
    .fil3 {fill:#020201}
    .fil46 {fill:#030303}
    .fil0 {fill:#060606}
    .fil2 {fill:#323B35}
    .fil7 {fill:#353D39}
    .fil4 {fill:#38433C}
    .fil20 {fill:#3D4436}
    .fil21 {fill:#434C44}
    .fil6 {fill:#4A5349}
    .fil12 {fill:#56594C}
    .fil22 {fill:#5B563C}
    .fil39 {fill:#5D593C}
    .fil11 {fill:#5D685D}
    .fil29 {fill:#5E6147}
    .fil10 {fill:#626333}
    .fil27 {fill:#646B32}
    .fil13 {fill:#65685A}
    .fil23 {fill:#666E33}
    .fil16 {fill:#6D7A6C}
    .fil37 {fill:#707C6E}
    .fil14 {fill:#767537}
    .fil19 {fill:#778273}
    .fil44 {fill:#908F6F}
    .fil48 {fill:#A8A58C}
    .fil26 {fill:#AA9966}
    .fil41 {fill:#B19E6A}
    .fil32 {fill:#B2AD93}
    .fil15 {fill:#B4AE8C}
    .fil30 {fill:#C4B756}
    .fil43 {fill:#C5B76C}
    .fil25 {fill:#CABC5A}
    .fil47 {fill:#CBCB5C}
    .fil45 {fill:#CCBD57}
    .fil49 {fill:#CDBE58}
    .fil1 {fill:#CDC55A}
    .fil42 {fill:#CED3AD}
    .fil18 {fill:#EC9294}
    .fil5 {fill:#ECC5C2}
    .fil36 {fill:#EFD872}
    .fil35 {fill:#F0DFDA}
    .fil33 {fill:#F1ECED}
    .fil9 {fill:#FAC8CA}
    .fil31 {fill:#FAF2F5}
    .fil17 {fill:#FBEA6C}
    .fil34 {fill:#FBFBF4}
    .fil40 {fill:#FBFBFB}
    .fil28 {fill:#FDDE61}
    .fil38 {fill:#FDF7A9}
    .fil24 {fill:#FEFAB5}
   ]]>
  </style>
 </defs>
 <g id="Layer_x0020_1">
  <metadata id="CorelCorpID_0Corel-Layer"/>
  <g id="_2226824853312">
   <path class="fil0" d="M368.87 452c0.14,-4.2 1.14,-5.27 4.13,-7.07 4.43,4.33 5.91,9.42 8.71,15.13 -3.86,-1.39 -10.43,-5.31 -12.84,-8.06zm-108.83 -452l8.99 0c3.49,1.01 6.78,3.39 9.05,7.92 2.48,4.96 3.99,8.09 4.95,14.05 0.52,3.27 1.05,5.73 1.38,9.63 0.93,11.06 1.09,3.96 7.19,11.8l6.54 10.46c6.41,9.45 5.77,24.03 2.62,35.36l-3.37 6.14c-3.95,6.65 -5.01,4.4 -7.39,7.64 7.86,1.83 15.44,6.35 23.62,8.31 2.5,0.6 4.36,1.36 6.78,0.19 4.76,-2.33 19.8,-8.53 22.91,-13.19l13.13 -15.88c0.13,-0.15 0.32,-0.38 0.46,-0.53 0.13,-0.16 0.32,-0.39 0.46,-0.54 0.13,-0.16 0.31,-0.39 0.45,-0.55 3.89,-4.26 8.49,-7.03 13.35,-9.65 9.53,-5.14 6.32,-5.08 19.14,-7.7l9.12 -2.04c5.44,-1.03 8.57,-0.86 12.27,-1.02 5.61,-0.24 9.78,-0.52 14.44,0.47l30.19 9.81c8.59,3.82 13.51,14.66 13.7,25.37 0.14,7.22 -3.04,17.16 -7.29,22.68 -3.23,4.22 -8.06,6.07 -9.6,10.4 -5.03,14.16 -11.79,15.58 -22.71,22.39 -9.14,5.7 -25.46,5.33 -33.82,-1.12 -7.97,-6.15 -17.8,-16.96 -17.09,-27.96 0.33,-5.14 1.17,-6.96 3.06,-11.87l4.43 -10.57c-6.5,0.54 -13.47,7.93 -15.55,13.45l-3.54 11.47c-1.94,11.65 -5.74,22.14 2.85,32.32l9.23 13.77c0.13,0.16 0.32,0.4 0.44,0.56l1.57 2.43c4.01,-1.07 0.41,-0.39 2.86,-1.15 0.2,-0.06 0.49,-0.14 0.69,-0.2l1.32 -0.24c0.16,-0.03 0.46,-0.04 0.62,-0.07l27.15 -10.7c3.58,-1.81 6.9,-2.66 10.96,-4.04 14.15,-4.82 15.96,-1.8 19.77,-0.91l18.71 1.77c5.52,1 13.49,5.26 18.47,7.99 4.37,2.38 5.45,2.69 9.15,5.85 6.85,5.86 9.47,7.61 14.05,16.03 2.38,4.37 1.84,6.35 3.61,10.29 2.88,6.47 1.13,18.65 -2.5,24.24l-4.45 5.55c-0.15,0.14 -0.38,0.33 -0.53,0.47 -7.95,7.33 -6.32,20.69 -16.06,26.94l-14.12 6.8c-13.68,2.14 -27.56,-1.76 -37.01,-11.31l-8.17 -17.94c-1.15,-12.05 6.97,-28.17 16.37,-34.52l3.2 -1.65c0.16,-0.07 0.44,-0.17 0.59,-0.23l4.97 -2.24c7.66,-2.81 17.9,-0.21 24.35,4.27 1.11,-0.74 1.81,-1.16 2.91,-2.11 8.53,-7.4 -4.69,-13.83 -12.19,-14.65 -5.23,-0.57 -21.37,1.48 -27.29,3.11 -6.64,1.82 -11.91,5.95 -17.3,9.78l-3.74 3.26c-1.53,1.68 -0.54,0.64 -1.81,2.19l-8.01 10.99c-3.01,5.42 -4.2,13.14 -3.97,16.11 0.03,0.42 1.14,3.43 1.16,3.46 2.78,5.71 6.92,9.97 12.68,15.42l20.01 16.99c1.23,0.93 0.63,0.48 1.78,1.22 4.47,2.86 10.2,3.76 14.29,6.71l34.07 16.93c6.56,2.88 16.6,12.01 19.81,18.27 1.74,3.41 0.6,2.81 1.67,6.35 1.41,4.63 1.82,9.35 1.93,14.22l0 11.84c-0.06,15.99 -2.39,17.67 -10.21,26.7 -6.16,7.12 -14.25,11.27 -24.62,12.45 -3.73,0.42 -11.22,0.37 -15.8,-1.61 -6.86,-2.98 -5.68,-3.17 -13.76,-5.24 -4.61,-1.17 -8.48,-4.24 -11.8,-7.2 -2.08,-1.87 -7.73,-16.89 -8.15,-19.58l4.72 -22.23c1.53,-5.12 4.61,-7.22 7.74,-11.26 4.77,-6.14 6.13,-5.02 8.88,-9.12 -2.01,-1.06 -4.05,-2.11 -6.14,-2.86l-7.94 -3.06c-0.29,-0.12 -1.15,-0.44 -1.45,-0.55 -1.1,-0.42 -1.84,-0.66 -2.9,-1.1 -3.41,-1.44 -2.62,-1.64 -5.57,-2.43 4.24,8.84 5,18.03 5,28 -12.4,6.56 -9.82,8.79 -11,23 -5.28,-0.44 -5.72,-4.89 -9,-8 -4.6,1.07 -6.76,2.62 -8.96,6.04l-5.53 8.54c-0.9,3.29 -0.18,9.49 1.41,11.5 3.19,4.07 33.55,11.62 41.05,14.95 2.55,1.14 2.07,1.08 5.13,1.87 6.26,1.6 14.5,5.83 18.9,10.22 7.01,6.99 -0.87,4.03 -6.34,1.22l-14.59 -4.98c-0.17,-0.03 -0.45,-0.1 -0.62,-0.14 -0.18,-0.05 -0.46,-0.16 -0.64,-0.2 -0.27,-0.08 -1.06,-0.41 -1.36,-0.48 -3.39,-0.81 -9.65,1.1 -13.88,2.03 -14.01,3.07 -15.28,4.75 -21.57,6.43l0 2c4.48,1.2 12.78,6.82 17.16,9.84l21.42 17.58c5.14,3.99 8.3,8.75 12.13,13.87 1.97,2.62 4.49,4.7 5.29,7.71 -3.99,-2.67 -8.32,-4.78 -12.83,-7.17 -21.71,-11.49 -6.75,-4.1 -21.47,-8.53 -6.62,-1.98 -15.12,-7.75 -21.7,-8.3l3.69 12.86c2.06,6.56 6.82,12.58 8.1,18.93l-2.79 3.21c-8.65,-4.58 -11.55,-14.01 -19,-19 -0.36,4.32 -3.74,7.2 -5.09,10.99 -1.4,3.97 -0.79,1.07 0.5,5.49l8.59 28.75c2.89,11.49 -9.03,-4.33 -12.27,-6.96 -4.75,-3.87 -3.9,-1.56 -13.05,-9.95 -1.44,-1.32 -2.42,-2.22 -3.68,-3.32 -4.24,2.24 -6.65,5.37 -10.46,8.54 -9.53,7.93 -20,17.41 -31.03,22.97l-18.32 9.68c-20.32,12.18 -46.29,7.49 -68.64,4.26 -9.61,-1.39 -19.49,-4.63 -28.49,-6.05 -12.91,-2.04 -28.59,-8.77 -39.74,-14.72 -5.26,-2.81 -6.38,-5.04 -10.32,-7.68 -7.14,1.66 -13.25,6.61 -16.83,12.17 -1.78,2.77 -3.73,5.95 -5.27,8.74 -4.55,8.28 -10.64,5.77 -7.29,-4.27 2.71,-8.12 6.34,-15.86 8.39,-24.64 -3.73,-0.31 -7.43,-3.28 -10,-5 -0.11,5.09 -0.86,3.93 -2.24,7.76 -1.22,3.36 -0.56,3.32 -2.21,6.79 -2.99,6.23 -2.74,10.05 -7.55,10.45 -1.76,-21.14 -0.06,-16.14 -0.5,-31.2 -0.11,-3.81 0.65,-2.36 -2.67,-5.56 -9.66,-9.32 -8.99,-10.05 -8.83,-17.24 -6.53,1.74 -16.19,8.56 -21.74,12.26 -0.18,0.12 -0.42,0.28 -0.6,0.4 -0.18,0.12 -0.42,0.28 -0.59,0.41l-6.8 4.2c-0.2,0.1 -0.45,0.24 -0.65,0.35l-2.41 1.59c-0.17,0.12 -0.41,0.3 -0.57,0.43 -0.18,0.12 -0.41,0.3 -0.58,0.43l-1.14 0.86c-1.03,0.7 -1.09,0.94 -2.62,1.48 -3.41,1.21 -3.85,0.76 -6.3,-0.41 0.73,-2.02 0.3,-1.05 1.43,-2.57 1.78,-2.4 9.54,-6.8 12.57,-9.43l-21.35 6.72c-3.85,1.22 -8.24,1.58 -10.65,-1.72 1.66,-6.23 7.77,-4.23 18.64,-8.36l26.5 -12.5c4.25,-3.31 4.39,-5.75 6.29,-8.71l6.19 -8.81c4.19,-5.51 2.79,-0.21 3.38,-5.62 -4.96,2.62 -8.81,5.9 -15.9,5.39 -6.26,-0.44 -2.8,-2.38 -7.76,-1.94 -3.98,0.35 -24.53,5.85 -31.94,-0.85 -5.67,-5.15 -3.94,-1.38 -4.4,-5.6 4.22,-1.74 21.02,1.14 27.26,-0.59 17.11,-4.74 21.45,-7.77 30.81,-22.38 3.8,-5.94 0.35,-4.22 1.93,-8.03l-17.07 1.86c-1.4,0.22 -1.21,0.05 -2.54,0.51 -2.41,0.83 -0.1,-0.23 -1.99,1.03 -1.6,1.08 -1.31,1.2 -2.67,2.33 -2.24,1.88 -3.42,2.99 -6.73,3.27 1.86,-3.51 2.11,-4.39 3.06,-8.94 0.33,-1.6 0.55,-3.07 1.45,-4.55l7.35 -7.65c0.15,-0.15 0.33,-0.37 0.48,-0.52 3.12,-3.17 10.92,-6.17 15.38,-7.62 12.47,-4.05 15.28,0.88 15.28,-17.72 -3.1,-0.83 -4.15,-2.3 -8.33,-3.67 -3.55,-1.16 -6.25,-1.38 -9.62,-2.4 -6.88,-2.07 -6.23,-2.46 -5.3,-12.16 2.82,-29.29 6.19,-20.44 13.25,-33.77 -3.65,0.85 -2.4,0.55 -4.44,2.56l-3.44 3.56c-2.42,2.24 -1.4,1.2 -4.06,2.94 -1.93,1.28 -2.08,1.58 -3.93,3.07 -4.92,4 -16.67,9.1 -17.13,9.87 -2,3.37 9.27,16.1 3.42,31.4l-2.36 10.66c-1.77,6.54 -10.13,17.13 -16.48,19.52 -2.91,1.1 -11.59,3.31 -14.64,3.4 -16.33,0.49 -23.61,-14.76 -26.68,-18.24 -1.94,-2.2 -2.59,-2.25 -4.24,-4.76 -3.54,-5.36 -2.5,-8.74 -4.41,-13.59 -1.56,-3.99 -7.28,-5.56 -8.25,-13.9 -0.01,-0.05 -0.19,-2.44 -0.21,-2.79 -0.06,-0.93 -0.12,-1.72 -0.15,-2.45l0 -2.33c0.06,-1.02 0.21,-2.08 0.51,-3.4 1.12,-4.94 4.04,-8.12 7.32,-10.69l24.57 -11.43c2.96,-1.1 3.35,-1.53 6.08,-2.92 9.14,-4.63 19.36,-8.12 28.89,-12.11 0.22,-0.09 0.49,-0.2 0.72,-0.28 6.32,-2.42 8.68,-5.59 13.91,-8.09 2.97,-1.43 0.49,0.28 3.13,-1.87l14.22 -16.78c7.77,-14.44 9.54,-24.8 13.21,-40.79 2.32,-10.12 4.04,-9.43 -3.89,-27.23 -2.38,-5.33 -4.93,-13.95 -10.6,-16.4 -5.92,-2.55 -15.41,-4.62 -22.06,-4.94 -12.1,-0.59 -18.7,-0.43 -27.88,5.14 -5.36,3.26 -5.45,7.2 -4.13,12.87l15.19 1.65c4.09,0.89 8.41,3.66 11.33,6.83 10.53,11.43 15.74,32.25 6.52,46.56 -6.89,10.67 -21.07,18.01 -34,18 -18.43,-0.01 -16.69,-0.8 -29.39,-7.69 -5.9,-3.2 -8.7,-8.27 -11.84,-14.16 -0.82,-1.54 -1.43,-3.76 -1.81,-6.31l0 -14.88c0.44,-3.1 1.15,-5.89 2.15,-7.85 6.45,-12.73 5.76,-0.59 4.54,-22.34l1.07 -14.36c1.7,-6.97 0.94,-7.93 6,-13.69l0.9 -1.1c3.28,-3.82 7.48,-6.43 11.6,-9.4 3.86,-2.79 12.66,-7.79 16.98,-9.02 2.29,-0.65 3.5,-0.76 5.68,-1.37l6.85 -1.64c7.34,-2.49 8.45,-1.65 15.23,-3.23 -2.8,-12 0.79,-10.7 -2.68,-15.27 -2.43,-3.19 -2.8,-2.68 -4.12,-6.93 -1.01,-3.28 -1.75,-5.29 -2.58,-8.44 -3.74,-14.12 4.74,-37.47 12.31,-45.43 5.26,-5.52 12.32,-9.8 19.48,-12.52 7.58,-2.87 15.11,-6 24.46,-5.29 6.58,0.49 27.14,4.07 33.56,8.45l24.89 16.11c10.18,8.4 21.06,16.25 30.61,25.39l5.38 5.62c0.57,0.69 0.77,0.95 1.39,1.61l7.31 7.69c1.38,1.62 10.97,16.27 11.49,9.18 0.17,-2.4 -0.72,-1.63 -2.25,-3.32l-2.62 -3.49c-0.1,-0.13 -0.28,-0.39 -0.38,-0.51 -3.73,-4.22 -4.49,-0.59 -5.8,-9.39 -1.1,-7.47 -3.68,-8.79 -1.07,-17.07 4.12,-13.04 4.02,-16.66 15.65,-27.36l1.03 -0.97c2.53,-2.93 3.23,-9.88 4.83,-14.06 2.58,-6.75 5.7,-14.2 11.34,-18.77 1.6,-1.3 4.04,-2.53 6.81,-3.23zm-184.04 445l1.95 -1.15 -1.95 1.15zm154.14 -25l1.8 -4.93 8.89 -1.05c-0.36,4.42 -3.49,16.1 -10.69,5.98zm65.61 -8c2.43,-3.61 3.19,-4.82 8.75,-4.52 -0.49,-7.04 1.57,-4.53 3.49,-10.45 1.84,-5.67 2.08,-6.02 6.12,-8.8 2.03,3.18 8.68,24.48 7.97,27.67 -0.6,2.63 -2.67,3.86 -5.98,3.36 -6.01,-0.89 -0.1,-1.71 -6.23,-2.98 -6.25,-1.29 -9.34,-1.22 -14.12,-4.28zm-120.26 -23.98c10.53,3.09 5.75,11.98 12.51,12.95 1.86,-2.07 0.09,0.82 1.02,-2.28 0.15,-0.49 -0.11,-11.41 13.28,-3.03 3.8,2.38 3.21,3.14 4.38,8.61 0.83,3.89 2.22,7.11 2.23,10.86 -7.36,-2.36 -11.95,-12.89 -13.91,-15.27 -0.17,0.22 -0.32,0.34 -0.38,0.75 -0.32,2.22 -4.25,12.23 -14.48,8.18 -6.73,-2.65 -4.75,-15.12 -4.65,-20.77zm90.31 22.29c0.18,-0.23 0.45,-0.84 0.54,-0.67 0.08,0.17 0.39,-0.51 0.51,-0.65 1.25,-1.55 0.18,-0.02 1.45,-1.76 4.29,-5.92 0.59,-9.24 1.74,-16.11 4.42,1.37 0.08,0.66 3.54,2.23 3.85,1.74 -0.53,-0.95 3.46,0.65 -0.54,3.94 -2.28,7.16 -3.15,10.05 -1.74,5.77 -1.49,5.87 -8.09,6.26zm-10.35 -18.77c-0.02,5.99 0.42,12.58 -3.45,15.51 -3.41,-1.48 -0.62,-0.1 -2.86,-2.24 -2.65,-2.53 -6.62,-6.57 -7.71,-9.55 -3.46,-9.51 9.9,-4.19 14.02,-3.72zm4.55 13.65c-2.03,-4.2 -1.59,-8.22 -1.41,-13.77 3.25,-1.5 6.14,-1.62 8.72,-0.73 1.71,4.39 -2.92,13.57 -7.31,14.5zm-31.31 -14.19c1.68,0.78 1.31,-1.45 1.31,2l1.07 1 0 0.83c2.96,3.72 4.65,5.46 8.15,7.63 -1.67,3.38 -2.72,3.38 -5.37,5.4 -7.05,5.39 -3.91,8.16 -19.39,1.63 -1.56,-8.61 -2.4,-15.96 -2.39,-25.48 -1.26,-5.41 -1.82,-13.65 -0.8,-19.93 5.76,1.22 16.15,22.61 17.42,26.92zm69.01 3.87l-4.58 13.01c-1.97,-0.06 -14.18,-2.35 -15.07,-2.78 -0.45,-1.01 -0.34,0.01 -0.25,-1.75 0.59,-11.89 9.72,-21.86 14.17,-31.35l3.03 -3.71c3.65,9.83 -5.36,21.02 2.7,26.58zm-192.7 -22.87l0 0zm24.67 -13.5c4.39,2.68 10.42,37.78 11.58,44.91 1.72,10.64 2.16,16.75 0.76,27.95 -0.77,6.14 -9.32,16.62 -11.78,17.32 0.09,-5.18 2.38,-6.02 1.97,-13.86 -5.97,1.18 -3.21,3.03 -7.54,7.83 -5.22,-1.54 -8.07,-8.42 -8.1,-8.65 0.47,-1.88 1.76,-5.13 2.62,-6.56 4.41,-7.31 15.62,-6.33 18.81,-10.44 -2.07,-1.74 -5.21,-1.7 -7.95,-1.26 -6.29,0.99 -4.63,2.32 -8.5,0.84 0.36,-7.26 2.45,-5.98 3.96,-12.2 1.52,-6.24 5.56,-42.1 4.17,-45.88zm324.23 -47.94c11.18,-4.04 25.16,-0.03 31.59,8.89 2.54,3.52 3.34,4.01 4.74,9.18 4.54,16.72 -1.04,29.56 -17.22,35.49 -8.95,3.29 -26.54,2.46 -31.84,-6.32 -1.83,-3.04 -3.95,-5.81 -4.55,-9.22 -3.16,-17.88 4.06,-33.25 17.28,-38.02zm-100.29 113.39c-1.81,-1.52 -1.78,-4.36 -1.96,-6.44 -3.43,-2.41 -11.32,-21.83 -13.74,-26.31 -1.96,-3.65 -3.53,-5.25 -5.14,-9.2 3.36,-9.89 32.65,-34.24 42.97,-40.44 -1.96,17.03 -7.39,29.62 -5.2,50.45 1.37,13.01 2.56,23.41 6.3,35.47 1.86,5.99 0.71,10.07 1.49,12.52 -2.73,0.95 -10.43,-14.03 -24.72,-16.05zm-207.88 -27.82c-0.27,-5.84 -2.04,-12.6 -3.53,-18.48 -1.42,-5.59 -4.07,-12.28 -4.75,-17.13 -1.98,-2.07 -3.03,-8.14 -4.03,-10.83 -1.64,-4.45 -2.97,-6.3 -4.72,-11.13 5.18,1.63 8.91,3.34 13.62,5.13 5.43,2.06 7.24,3.59 12.35,5.65 6.42,2.6 5.59,3.13 11.91,6.15 4.68,2.23 6.78,4.08 10.06,6.55 -4.4,13.58 -9,16.67 -14.55,27.04 -2.4,4.48 -12.4,24.65 -14.75,27.03l-1.61 -19.98zm-104.26 -95.08c6.46,-1.35 15.86,0.71 20.15,4.32 9.59,8.07 11.73,11.78 8.92,29.26 -1.35,8.45 -20.05,28.26 -42.52,13.36 -2.45,-1.62 -5.33,-4.49 -6.6,-7.43 -1.02,-2.37 -2.74,-7.55 -2.99,-9.84 -0.35,-3.3 -0.15,-9.21 0.7,-12.48 2.17,-8.26 14.99,-15.65 22.34,-17.19zm407.53 0.95l0 0zm-342 -20c1.18,-3.27 -1.3,-0.73 3,-3 -1.18,3.27 1.3,0.73 -3,3zm3 -3c1.18,-3.27 -1.3,-0.73 3,-3 -0.8,3.01 0.01,2.2 -3,3zm4 -4l-1 1 1 -1zm2 -1l-2 1 2 -1zm0 0l0 0zm344.52 19.02c1.42,-1.14 3.89,1.25 -0.64,-3.72 -4.13,-4.54 -5.12,-2.98 -10.43,-9.84l15.48 7.65c5.51,2.75 10.16,5.89 15.67,8.44 14.64,6.79 17.83,6.94 23.96,22.72 1.4,3.62 1.46,17.67 1.06,22.27 -0.64,7.37 -3.07,13.72 -6.08,17.85 -1.76,2.42 -4.52,3.9 -7.53,5.89 -5.71,3.77 -1.47,2.52 -5.26,5.63 -3.63,2.97 -15.21,3.99 -19.03,2.35 1.46,-1.4 0.05,-0.32 2.24,-1.53 4.51,-2.52 16.72,-6.66 20.65,-13.01 7.54,-12.16 11.23,-28.6 1.74,-42 -10.08,-14.24 -21.07,-12.88 -36.51,-11.56 1.76,0.13 10.89,-6.07 20.27,-2.98 11.57,3.82 12.52,7.58 18.74,9.54 -2.53,-10.96 -17.75,-16.29 -32.18,-15.65 -11.42,2.31 -38.87,-14.89 -48.36,-22.38 -7.24,-5.73 -9.51,-6.2 -10.7,-14.15 4.66,-0.28 5.06,-1.12 9.36,1.36 6.97,4.02 12.96,10.85 19.4,15.65 5.07,3.79 8.27,5.05 14.83,8.39 4.86,2.48 8.29,6.27 13.32,9.08zm-5.29 -90.21c14.64,-2.37 20.79,3.79 28.56,10.35 9.49,8.01 4.97,24.2 0.64,30.26 -11.23,15.73 -44.94,13.33 -50.29,-8.61 -3.24,-13.3 2.07,-19.99 7.98,-25.67 4.46,-4.29 1.49,-4.44 13.11,-6.33zm-21.45 -23.81c-5.89,1.78 -7.38,2.88 -12.6,6.2 -17.73,11.29 -19.41,22.8 -25.98,27.99l-3.1 -16.58 -3.06 -9.34c16.29,-5.96 56.09,-26.38 77.88,-17.13 6.16,2.61 14.11,3.44 17.33,5.59 10.78,7.16 18.77,14.18 21.25,29.48 0.42,2.6 0.65,7.43 -1.19,11.03 -1.1,2.14 -3.75,4.91 -6.14,5.63 -1.8,-1.94 -0.9,0.45 -0.82,-2.21 0.09,-2.72 0.41,-0.73 0.81,-0.9 -5.65,-0.82 -5.17,-2.35 -6.64,-6.37 -1.84,-5.03 -1.69,-3.26 -6.34,-5.39l1.82 -2.75c8.97,4.66 3.58,5.88 9.62,4.29 1.31,-5.42 -1.41,-8.71 -6.38,-10.63 0.1,-3.73 0.27,-7.15 -1.07,-10.07 -1.3,-2.86 -3.19,-3.24 -6.11,-4.83 -10.87,-5.94 -18.49,-8.54 -31.25,-7.51 -22.51,1.82 -10.12,2.76 -18.03,3.5zm-304.34 -9c-0.92,5.67 -3.82,8.94 -5.39,14.1 -0.72,-0.95 -0.29,-0.15 -1.2,-1.95l-0.62 -1.41c-3.39,-7.79 -7.57,-13.18 -9.12,-18.6 5.38,1.89 12.17,4.24 16.33,7.86zm-93.45 -6.97c-7.13,16.64 19.63,14.07 26.25,19.5 0.28,0.23 1.55,1.48 1.69,1.63 1.57,1.68 0.2,-0.16 1.68,2.08 3.33,5.39 8.03,9.75 9.03,18.07 0.64,5.26 -2.9,17.36 -5.1,21.22 -3.25,5.71 -7.41,9.09 -15.34,11.75 -11.36,3.79 -12.9,1.32 -22.79,1.36 -7.7,-0.9 -7.51,-2.3 -9.97,-4.02 -4.75,-3.33 -3.1,-1.97 -6.36,-6.66 -12.08,-17.33 -7.52,-34.22 5.61,-48.28 4.11,-4.39 4.99,-0.42 7.03,-7.27 -9.16,0.46 -8.26,3.67 -13.89,5.67 -0.45,-11.85 -1.34,-19.83 8.28,-29 2.47,-2.36 3.88,-4.12 6.14,-5.81 40.23,-30 58.09,-9.02 76.76,-9.18 13.66,-0.11 8.57,-2.93 18.07,4.84 4.36,3.57 9.75,7.46 14.78,10.26 -0.29,1.91 -0.96,3.66 -1.88,5.87l-3.15 5.67 -2.38 4.68c-6.2,-3.65 -12.99,-7.53 -22.03,-9.99 -8.06,-2.19 -15.76,-5.98 -24.61,-7.23 -13.81,-1.95 -47.13,1.46 -47.82,14.84zm373.49 -66.03c15.19,-3.01 26.65,3.7 28.09,18.23 4.66,47.11 -69.44,30.94 -43.74,-9.4 3.85,-6.05 6.68,-7.05 15.65,-8.83zm-308.31 -16.15c1.85,-0.65 23.89,5.27 27.26,18.68 4.07,16.22 -14.44,33.5 -39.28,22.37 -14.88,-6.68 -9.15,-20.77 -1.92,-31.63 5.04,-7.59 5.14,-6.35 13.94,-9.42zm128.64 -21.35c4.23,-12.85 17.32,-20.95 33.26,-19.53 9.26,0.83 13.45,2.17 20.17,6.77 6.05,4.15 8.4,8.47 9.57,17.11 4.97,9.3 -0.96,24.01 -5.88,29.08 -6.06,6.22 -16.91,8.98 -28.53,7.56 -18.73,-2.28 -37.44,-19.17 -28.59,-40.99zm-114.81 -3.5c12.93,0 17.33,4.41 29.59,9.41 0.23,0.09 0.5,0.19 0.72,0.28 2.97,1.21 2.43,0.44 5.61,3.39 0.15,0.14 0.35,0.36 0.5,0.5 0.15,0.14 0.35,0.36 0.5,0.5 12.3,11.67 15.33,17.09 21.25,33.75 1.03,2.91 1.04,2.39 1.89,6.22 1.37,6.12 3.34,6.19 -7.34,11.67 -3.09,1.59 -1.72,1.06 -3.97,3.03l-4.18 2.82c-0.17,0.12 -0.42,0.28 -0.59,0.41 -1.26,0.93 -0.27,0.13 -1.6,1.4l-2.97 3.03c-0.15,0.14 -0.37,0.34 -0.52,0.48l-6.59 6.41c-8.12,9.02 -22.76,-8 -24.3,-10.3 4.25,-1.13 9.53,-11.44 11.17,-15.54 2.55,-6.35 0.96,-14.46 -0.94,-21.69l-4.65 -9.35c-0.19,-0.23 -0.74,-0.85 -0.93,-1.07 -4.82,-5.61 -7.99,-7.54 -15.62,-9.42 -6.91,-1.7 -5.21,0.07 -12.03,0.07 -1.44,-3 -1.9,-5.63 -0.55,-8.47 1.58,-3.31 0,-1.02 2.12,-2.95 2.25,-2.06 9.39,-4.58 13.43,-4.58zm-28.18 12.53l0.07 6.47c-2.33,1.65 -5.09,3.38 -6.95,4.89 -4.58,3.7 -1.3,2.63 -3.94,8.17 -9.86,-2.57 -7.9,-18.69 -4.37,-26.5 4.46,-9.85 9.88,-14.22 18.43,-19.44 17.44,-10.67 41.98,-10.78 60.39,-1.47 11.02,5.58 15.44,6.77 24.08,13.83 3.22,2.64 7.28,5.63 10.16,8.84l13.23 14.77c5.48,5.71 7.67,9.11 12.01,16 3.21,5.09 4.97,6.18 8.33,10.66 2.76,3.7 5.42,7.13 7.33,10.72 3.96,-1.08 1.91,-2.94 7.53,-2.94 2.43,0 6.02,-0.06 7.91,0.08 0.7,1.43 0.82,0.19 0.28,2.73 -0.41,1.93 -2.4,3.57 -2.82,4.07 -0.99,1.18 -0.4,0.51 -1.36,1.71 -2.47,3.12 -3.35,3.73 -7.85,5.55l0.61 1.61c2.71,0.52 3.74,-1.07 6.09,-2.29 2.12,-1.09 4.38,-1.59 6.61,-2.52 1.3,-3.24 4.61,-4.64 6.85,-8.1l4.56 -9.64c22.36,5.16 5.05,-2.68 21.96,6.28 1.79,3.98 5.62,7.28 9.56,9.48 4.91,2.75 7.05,5.03 10.91,7.32l4.45 -0.07c-1.4,-7.33 -7.15,-2.13 -15.1,-14.8 6.04,1.22 11.77,2.03 16.94,4.39l13.9 7.47c3.52,1.36 8.05,2.31 11.3,-0.84 2.02,-1.96 1.98,-3.39 4.03,-5.02 3.21,-2.53 1.36,0.31 4.61,-3.45 4.32,-4.98 4.87,-3.67 9.53,-7.29 12,-9.32 10.88,-19.59 34.21,-32.76 19.29,-10.89 52.6,-11.24 71.74,1.59 5.99,4.02 9.18,7.03 10.49,14.25 1.22,6.76 0.62,8.62 -2.43,13.94 -2.93,5.1 -3.96,6.81 -7.1,8.68 -1.79,-6.56 -1.2,-5.67 -5.74,-11.14l-1.39 -1.6c-10.67,-12.72 -16.71,-8.94 -28.31,-14.16 4.47,-4.68 12.59,-4.11 19.03,-2.48 9.01,2.28 7.05,4.74 13.67,8.93 3.36,-6.97 -0.07,-9.34 -3.69,-12.09 -16.45,-12.49 -24.45,-2.82 -34.95,1.41 -9.75,3.93 -16.08,2.25 -26.22,4.52 -9.52,2.13 -14.91,10.18 -19.25,12.65 -1.26,3.52 -3.35,4.05 -5.57,7.63 -8.68,14 -3.27,19.08 -5.64,29.36 -0.54,2.32 -0.52,1.75 -0.94,2.55l-2.93 -3.64c-2.14,-2.94 0.49,-0.53 -2.35,-2.56l-7.03 -3.57 -4.81 -1.28c-0.15,-0.01 -0.59,0.29 -0.7,0.05 -0.1,-0.23 -0.47,0.03 -0.69,0.09 -3.75,8.57 6.01,9.97 9.76,13.16 3.99,3.38 5.51,11.78 9.46,14.5l12.21 11.89c1.94,2.63 0.59,1.06 2.73,3.17 6.07,5.97 17.11,34.28 17.3,35.63 0.55,4.02 0.9,6.09 1.83,10.03l7.95 39.33c-8.86,-5.12 -13.05,-28.72 -13.36,-40.82l-4.82 1.54 0.85 4c-2.57,1.96 -2.87,1.31 -3.37,4.09 -1.36,7.52 8.87,27.52 12.27,33.56 0.66,1.16 0.87,1.6 1.4,2.53l0.76 1.32c0.12,0.21 0.27,0.45 0.4,0.66 0.79,1.34 1.5,2.6 2.23,3.84 2.64,4.46 3.43,4.09 5.85,7.15 4.11,5.18 -0.21,2.64 2.4,6.48 1.67,2.46 1.09,0.41 3.2,3.83 3.78,6.13 5.17,25.47 4.63,28.49 -1.17,6.52 -9.56,8.14 -16.15,10.42 -22.56,7.79 -11.81,5.12 -21.94,10.84 -5.01,2.83 -8.41,5.47 -12.49,6.56 -3.58,3.59 -8,6.42 -10.97,9.85 -9.57,11.06 -14.78,17.74 -20.96,31.09 -1.9,4.1 -2.92,2.84 -3.13,8.29l2.52 0.87c3.56,0.85 0.51,-2.18 5.95,5.02 2.38,3.15 3.73,6.37 6.13,9.94 6.46,9.61 7.69,16.8 12.41,18.97 6.99,-1.93 5.36,2.06 15.93,11.75 2.95,2.7 2.39,2.63 4.57,5.45l-2.82 0.92c-1.67,2.55 -0.22,0.48 -2.07,2.22 -0.7,0.66 -1.79,1.5 -2.65,2.38l-13.43 14.51 -27.45 18.56c-2.67,1.51 -3.92,1.75 -6.21,2.84 -14.99,7.12 -18.61,10.41 -42.37,13.63 -10.07,1.37 -15.14,1.25 -24.74,-0.5 -3.22,-0.58 -5.46,-0.51 -9.07,-1 -10.77,-1.45 -41.19,-7.17 -51.89,-11.8 -5.59,-2.42 -22.97,-14.05 -23,-14.07 -2.19,-0.88 -4.95,-0.45 -8.43,-1.55 0.74,-3.75 4.26,-8.7 8.03,-11.04 0.47,-3.04 4.36,-4.99 6.28,-9.41l-2.26 0.02 -5.33 3.95c-1.39,1.12 -8.94,8.28 -15.3,10.75 -4.28,-2.58 -10.16,-5.55 -13.24,-8.41 3.14,-13.13 8.2,-15.49 10.4,-18.59 3.83,-5.39 -2.71,-13.2 6.9,-20.86l12.42 -18.75c1.49,-2.21 2.9,-4.21 3.82,-7.27 2,2.56 2.71,7.72 2.77,10.96 0.1,5.68 -6.91,6.97 -11.31,14.6 -1.78,3.07 -3.72,6.53 -3.57,10.37 -0.13,0.21 -0.38,0.26 -0.43,0.62 -0.14,1.14 -0.84,0.32 -1.15,3.93l3.35 0.87c1.7,-0.62 2.77,-1.21 3.51,-1.61 0.8,-0.95 0.56,-0.67 1.79,-1.6l5.25 -4.84c0.01,-0.01 1.54,-1.28 1.64,-1.35l6.95 -3.15 2.97 4.71 -4.2 1.55 8.15 9.38c9.66,2.76 8.35,-0.41 9.13,-1.97l-5.41 -4.04c-2.04,-1.21 -3.02,-1.28 -4.5,-3.6 -1.28,-1.99 -0.5,-0.49 -1.35,-2.88 -4.16,-11.66 10.4,-6.51 12.44,-3.14 3.05,5.02 2.29,12.28 6.94,18.06 4.85,6.03 3.96,10.19 7.97,18.07 -0.89,-5.69 -4.76,-11.69 -5.24,-17.63 -0.43,-5.24 -0.44,-5.19 -1.87,-8.81l-0.72 -1.81c-0.46,-1.36 -0.26,-0.69 -0.68,-2.28 -0.63,-2.44 -0.24,-1.94 -1.19,-4.83 19.07,9.78 8.5,12.88 17.5,12.94 1.83,-4.01 0.82,-4.36 0.73,-9.14 5.71,-2.48 2.59,-2.37 3.9,-5.48 11.4,11.89 12.1,18.3 21,2.51l12.69 -0.65 -1.86 2.26c-6.08,7.78 -2.6,17.02 2.48,16.83l1.24 -14.68c-0.07,-1.98 -0.06,-0.95 -0.37,-2.36l-0.82 -2.89c9.16,-0.04 2.99,-2.49 16.95,-0.37 3.21,0.48 15.21,2.52 17.06,3.43 1.14,3.92 -3.36,14.54 3.77,9.69 5.35,-3.63 8.88,-5.14 10.11,-10.8 3.15,0.3 4.78,0.66 7.75,1.52 0.4,0.11 2.58,0.8 2.98,0.99l3.27 2.09c-0.53,8.56 -5.85,11.29 -7.26,18.84 5.62,-2.66 4.63,-5.2 8.08,-9.84 2.5,-3.36 6.82,-6.41 9.93,-8.63 5.65,4.21 6.93,3.62 9.98,7.63 2.94,3.86 -0.93,0.82 3.02,3.43 3.1,-1.99 2.8,-3.16 1.54,-6.82l-7.94 -14.22c-9.26,-14.78 -8.85,-6.63 -12.93,-19.82 -2.1,-6.77 -1.75,-11.38 -8.67,-14.25 -7.87,4.24 -7.81,10.84 -12.33,11.02 0.21,-2.42 1.6,-4.59 2.63,-7.19 2.38,-6.03 -0.17,-3.49 5.51,-16.45 4.7,-10.72 1.44,-8.47 0.78,-9.38 -0.93,3.87 -2.89,5.85 -4.78,9.64 -3.53,7.1 -4.26,6.12 -5.1,7.48 -1.44,-3.91 0.81,-8.26 -2.71,-13.45 -5.09,-0.4 -5.76,1.18 -11.98,9.12 -3.25,4.14 -5.3,9.97 -8.02,13.67l-1.93 -8.83c-0.98,-3.21 -0.96,-6.25 -2.66,-8.57 -3.56,5.32 -1.94,13.53 -1.84,19.07l-8.99 -1.09c-0.23,-5.58 6.93,-25.28 5.16,-29.04l-6.74 14.09c-1.13,5.22 -2.63,9.43 -4.14,14.39 -15.93,0.01 -5.42,-0.72 -10.45,1.85 1.92,-5.81 -2.08,-1.39 -1,-17.64 -0.84,-4.12 0.09,-5.62 1.57,-9.27 -4.57,2.46 -3.53,4.58 -5.81,8.47l-7.17 8.37c-16.43,-7.96 -20.16,-31.98 -29.53,-15.9 -1.17,2.02 -1.73,6.01 -1.68,9.33l0.44 14.2 -5.8 -10.52c-2.57,-3.73 -4.46,-8.16 -7.15,-11.33 0.03,4.71 5.25,20.22 7.26,22.47 -4.85,-0.34 -8.33,-0.76 -9.07,3.66 -1.52,-7.23 -4.59,-3.37 -9.33,-6.49 -1.68,-4.82 1.05,-6.76 2.45,-12.54 1.83,-7.57 -0.29,-7.82 -2.46,-13.27 -4.75,-3.6 -8.3,-8.95 -15.18,-12.15 -1.89,-0.88 -3.26,-1.08 -5,-2.02 -2.55,-1.38 -5.15,-4.13 -12.19,-7.82 -5.32,-2.79 -22.11,-10.81 -28.16,-12.05 -3.11,-0.63 -9.3,-0.6 -10.65,-2.52 -0.66,-0.94 0.95,-30.7 11.22,-35.26 1.23,-2.94 3.88,-5.72 5.61,-8.59 2.8,-4.62 4.33,-17.36 3.23,-22.51 -2.88,-13.53 5.27,-47.3 8.69,-59.11 -8.67,2.61 -10.28,11.28 -13.44,23.2 -8.92,33.58 -1.4,34.58 -9.1,46.69 -5.12,8.04 -6.48,6.76 -9.97,8.31 -2.72,1.22 -0.89,0.08 -2.84,1.99 -0.15,0.14 -0.34,0.37 -0.48,0.52 -6.16,6.56 -2.27,2.76 -9.73,7.35l-2.25 1.63c-3.02,2.72 -0.63,2.19 -5.79,4.15 -5.04,0.5 -8.83,2.94 -12.65,5.44 -7.92,5.2 -4.97,3.5 -12.96,3.14 -3.91,-0.01 -4.31,-1.19 -8.44,-1.66 -3.07,-0.35 -6.21,0.17 -9.07,0.35 -20.68,1.3 -27.83,20.33 -30.36,22.47 -2.66,-12.64 2.94,-14.56 11.66,-19.47 4.61,-2.6 16.45,-9.27 21.24,-10.71 18.09,-5.45 7.26,-4.01 23.67,-8.48 5.63,-1.54 4.37,-3.32 9.31,-6.52 3.7,-2.41 6.7,-3.74 10,-6.04 11.6,-8.06 18.89,-18.14 25.44,-30.63 3.74,-7.14 6.24,-7.26 6.29,-16 0.03,-4.53 10.31,-29.59 14.88,-32.37 2.77,-4.91 3.55,-12.12 6.24,-17.19 9.07,-17.13 18.6,-19.57 21.48,-24.57 2.8,-4.88 1.71,-3.27 5.39,-6.65 4.8,-4.41 1.81,-1.46 1.61,-7.41 8.69,-1.89 4.78,1.72 14.2,-3.18 6.41,-13.91 21.08,-15.79 20.63,-22.1 -0.28,-0.13 -0.62,-0.26 -0.86,-0.32 -2.02,-0.51 0.62,-1.33 -7.32,-0.17l-5.48 2.1c-6.05,-9.45 -9.28,-18.97 -13.31,-24.67 -2.89,-4.09 -5.4,-7.89 -8.15,-10.89 -2.44,-2.66 -7.41,-6.84 -9.21,-10.02 -2.74,-1.04 -4.97,-3.84 -8.15,-5.66 -15.78,-9.05 -45.83,-15.5 -57.93,2.54 -1.76,2.61 -2.92,5.6 -4.43,8.2zm160.42 -36.74c0.35,-2.9 0.33,-7.29 1.63,-10.11 2.01,-4.36 7.35,-4.95 13.08,-4.89 11.71,0.13 14.52,4.59 12.55,15.97 -11.53,-0.41 -8.43,-1.91 -27.26,-0.97z"/>
   <path class="fil1" d="M254.32 348.37c-4.05,0.34 -5.64,0.23 -7.54,-2.25 -4.64,-6.03 6.59,-25.98 7.54,2.25zm32.64 -5.37c3.65,-2.9 3.25,-4.22 6.04,-7.81 2.25,0.18 1.09,0.15 2.52,0.57 0.31,0.1 1.28,0.42 1.59,0.54 3.18,1.2 0.97,0 3.46,1.7 -1.03,6.32 -0.69,2.66 -3.67,6.85 -3.38,4.74 1.31,4.3 -5.9,4.69l-2.32 -3.18c-0.41,-0.74 -1.15,-2.21 -1.72,-3.36zm-18.48 2.71c-1.42,-4.46 0.27,-10.88 3.23,-15.01 10.82,-1.79 8.95,17.72 -3.23,15.01zm-34.25 -0.79c-0.39,6.99 -6.37,3.76 -9.48,1.42 -1.64,-11.85 4.84,-3.47 1.29,-14.02 5.71,1.16 8.4,8.82 8.19,12.6zm-53.52 -167c-2.87,2.49 -4.06,6.67 -5.81,11.03 -1.66,4.15 -4.68,7.52 -5.41,10.97 3.56,2.12 3.02,-0.17 7.36,-1.56l4.64 3.64c-0.1,4.18 -1.48,5.95 -3.48,8.85 -6.28,9.09 -9.43,12.72 -19.99,14.96 -2.74,-2.57 -1.75,-3.5 -5.02,-5l-0.31 7.62c0.75,2.85 1.77,3.61 2.68,6.92l-0.7 0.18 3.13 4.75c3.5,7.92 2.67,5.24 6.74,11.36 0.67,-8.24 -7.11,-19.44 4.6,-20.84 1.34,13.75 4.65,34.56 9.26,47.08 9.17,24.94 2.62,11.87 12.8,21.9 1.72,1.7 2.72,2.77 4.49,4.43l4.88 4.04c3.6,2.52 7.36,5.79 11.11,8.1 8.49,5.24 8.65,1.24 12.31,7.65 -3.6,-0.42 -12.95,-3.14 -15.56,-4.35 -7.44,-3.45 -16.12,-10.94 -22.51,-16.55 -5.35,-4.71 0.17,-2.53 -5.81,-6.26 -11.08,-6.92 -5.37,-5.64 -13.77,-13.06 -8.33,-7.36 -4.52,-14.34 -5.3,-19.76 -0.57,-3.95 -4.15,-6.25 -6.02,-11.1 -1.74,1.66 -3.16,3.09 -4.97,5.08l1.28 0.73c5.03,2.29 5.7,0.46 6.85,5.04 1.02,4.05 -1.6,6.32 -5.02,7.38 0.89,4.27 3.05,4.46 5.37,7.66 -0.8,1.2 -1.53,2.08 -2.36,3.11 0.83,1.85 1.85,3.53 2.9,4.99 1.5,2.1 1.75,1.9 3.62,4.38 2.36,3.16 3.58,8.66 3.59,12.73 4.6,2.6 0.34,3.73 3.57,8.98 -2.71,2.93 -2.85,4.36 -5.43,7.44l-5.16 3.69c-5.41,2.17 1.27,-1.24 -2.03,0.67 3.08,4.37 6.69,7.7 10.53,13.44 1.82,2.72 2.8,4.54 4.23,7.82 3.17,7.3 1.92,1.59 6.84,4.94l0.3 6.19c2.17,5.45 4.29,5.7 2.46,13.27 -1.4,5.78 -4.13,7.72 -2.45,12.54 4.74,3.12 7.81,-0.74 9.33,6.49 0.74,-4.42 4.22,-4 9.07,-3.66 -2.01,-2.25 -7.23,-17.76 -7.26,-22.47 2.69,3.17 4.58,7.6 7.15,11.33l5.8 10.52 -0.44 -14.2c-0.05,-3.32 0.51,-7.31 1.68,-9.33 9.37,-16.08 13.1,7.94 29.53,15.9l7.17 -8.37c2.28,-3.89 1.24,-6.01 5.81,-8.47 -1.48,3.65 -2.41,5.15 -1.57,9.27 0.17,0.21 0.32,0.54 0.41,0.69l2.89 3.51c1.12,0.83 3.87,1.82 5.29,2.18 3.24,-2.17 2.99,-3.35 7,-4.98l6.74 -14.09c1.77,3.76 -5.39,23.46 -5.16,29.04l8.99 1.09c-0.1,-5.54 -1.72,-13.75 1.84,-19.07 1.7,2.32 1.68,5.36 2.66,8.57l1.93 8.83c2.72,-3.7 4.77,-9.53 8.02,-13.67 6.22,-7.94 6.89,-9.52 11.98,-9.12 3.52,5.19 1.27,9.54 2.71,13.45 0.84,-1.36 1.57,-0.38 5.1,-7.48 1.89,-3.79 3.85,-5.77 4.78,-9.64 0.66,0.91 3.92,-1.34 -0.78,9.38 -5.68,12.96 -3.13,10.42 -5.51,16.45 -1.03,2.6 -2.42,4.77 -2.63,7.19 4.52,-0.18 4.46,-6.78 12.33,-11.02 6.92,2.87 6.57,7.48 8.67,14.25 4.08,13.19 3.67,5.04 12.93,19.82l7.94 14.22c1.26,3.66 1.56,4.83 -1.54,6.82 -3.95,-2.61 -0.08,0.43 -3.02,-3.43 -3.05,-4.01 -4.33,-3.42 -9.98,-7.63 -3.11,2.22 -7.43,5.27 -9.93,8.63 -3.45,4.64 -2.46,7.18 -8.08,9.84 1.41,-7.55 6.73,-10.28 7.26,-18.84l-3.27 -2.09c-0.4,-0.19 -2.58,-0.88 -2.98,-0.99 -2.97,-0.86 -4.6,-1.22 -7.75,-1.52 -1.23,5.66 -4.76,7.17 -10.11,10.8 -7.13,4.85 -2.63,-5.77 -3.77,-9.69 -1.85,-0.91 -13.85,-2.95 -17.06,-3.43 -13.96,-2.12 -7.79,0.33 -16.95,0.37l0.82 2.89c0.31,1.41 0.3,0.38 0.37,2.36l-1.24 14.68c-5.08,0.19 -8.56,-9.05 -2.48,-16.83l1.86 -2.26 -12.69 0.65c-8.9,15.79 -9.6,9.38 -21,-2.51 -1.31,3.11 1.81,3 -3.9,5.48 0.09,4.78 1.1,5.13 -0.73,9.14 -9,-0.06 1.57,-3.16 -17.5,-12.94 0.95,2.89 0.56,2.39 1.19,4.83 0.42,1.59 0.22,0.92 0.68,2.28l0.72 1.81c1.43,3.62 1.44,3.57 1.87,8.81 0.48,5.94 4.35,11.94 5.24,17.63 -4.01,-7.88 -3.12,-12.04 -7.97,-18.07 -4.65,-5.78 -3.89,-13.04 -6.94,-18.06 -2.04,-3.37 -16.6,-8.52 -12.44,3.14 0.85,2.39 0.07,0.89 1.35,2.88 1.48,2.32 2.46,2.39 4.5,3.6l5.41 4.04c-0.78,1.56 0.53,4.73 -9.13,1.97 -10.36,0.41 -6.16,-0.67 -12.35,-6.58 -6,0.93 -0.43,4.93 -10.2,1.88 -0.74,0.4 -1.81,0.99 -3.51,1.61 -1.49,1.43 -4.77,1.61 2.86,7.77 -0.27,10.17 -9.31,12.5 -12.07,17.37 6.26,-1.45 13.14,-7.47 15.92,-9.01l3.96 1.7 2.26 -0.02c3.76,-1.15 -0.66,-0.2 3.78,-1.86 6.06,4.02 4.73,5.32 16.95,10.3 3.09,1.26 17.45,5.32 18.24,6.82 -2.91,-3.47 -9.12,-5.57 -7.64,-11.55 6.05,0.7 1.06,3.98 19.45,10.94l0.38 -4.72c3.53,1.5 8.7,8.55 25.87,8.39 0.16,-1.7 -0.09,-2.58 -0.16,-4.36l0.12 -3.49c0.04,-0.28 0.18,-0.65 0.23,-0.88 0.05,-0.23 0.12,-0.6 0.27,-0.87 3.34,0.31 4.04,3.89 5.29,8.6l8.85 -2.48c-0.87,2.93 -2.09,2.85 -4.86,4 3.58,0.7 9.45,-1.76 11.81,-3.74 3.51,-2.93 5.04,-7.43 7.2,-10.79 3.47,3.53 0.82,-0.76 2.28,3.63 1,3 -0.6,5.76 0.2,8.07 1.5,4.35 -0.46,1.18 2.52,2.79l2.98 -5.31c1.67,-2.57 1.53,-1.9 5.02,-4.18 2.61,4.58 -2.14,4.83 12,4.74 9.05,-0.06 8.38,-1.66 15.14,-3.12 2.4,-0.95 3.94,-1.91 5.75,-3.79 3.27,-3.39 2.01,-3.78 3.5,-7.36 14.07,-1.21 11.45,3.09 15.61,7.42 5.74,-4.66 7.05,-0.22 9.6,-11.01 0.64,-8.45 -3.95,-15.09 -1.06,-19.08 -4.72,-2.17 -5.95,-9.36 -12.41,-18.97 -2.4,-3.57 -3.75,-6.79 -6.13,-9.94 -5.44,-7.2 -2.39,-4.17 -5.95,-5.02l-2.52 -0.87c0.21,-5.45 1.23,-4.19 3.13,-8.29 6.18,-13.35 11.39,-20.03 20.96,-31.09 2.97,-3.43 7.39,-6.26 10.97,-9.85l10.69 -13 -0.95 -1.71c-1.67,-3.28 -2.05,-3.66 -1.48,-6.86 0.63,-3.57 2.34,-3.53 2.04,-8.33l-2.9 -0.8 -1.99 -1.36c-3.3,1.59 -1.09,1.89 -3.95,2.43 -0.47,0.08 -2.73,-0.34 -5.09,0 -4.68,2.08 -7.24,2.41 -9.96,6.14 -9.75,4.09 -9.44,13.49 -17.94,0.64 -1.86,-2.82 -1.74,-3.82 -4.12,-6.59 3.57,-7.6 14.01,-12.18 11.65,-17.47l-17.59 18.36c-2.58,2.29 0.14,1.11 -4.6,2.07l-21 6.03c-17.7,6.81 -63.2,7.68 -74.68,-6.07 -5.73,-6.86 -10.47,-5.3 -15.57,-12.46 -7.76,-10.9 -11.24,-7.69 -12.56,-15.48 10.21,3.51 8.32,10.55 29.28,20.54l6.21 2.77c12.49,5.06 37.54,6 50.98,4.3 5.9,-0.74 15.25,-6.23 19.99,-8.91l5.75 -3.01c-1.99,-1.97 1.64,-2.61 -3.91,-0.56 -6.03,2.23 -8.01,5.88 -22.31,7.51 -9.35,1.06 -1.28,-2.75 -9.58,-2.63 -10.65,4.95 -23.74,1.34 -34.97,-0.19 -6.38,-0.87 -10.27,-2.03 -15.03,-5.1l-11.28 -8.72c-2.48,-1.82 -3.09,-2.95 -5.54,-5.47 -2.64,-2.72 -8.94,-5.54 -13.93,-16.25 -10.46,-22.42 2.2,-10.03 -3.92,-24.33 -4.42,-10.35 1.25,-34.25 10.8,-42.11l12.51 -13.54c8.73,-10.85 9.21,-4.17 14.85,-9.07 15.19,-13.2 22.84,-8.01 42.22,-7.23 10.25,0.41 11.25,0.15 16.66,3.36 4.47,2.65 0.96,0.8 3.94,0.81 4.82,0.01 11.98,5.47 15.9,8.78 13.04,3.06 27.66,28.71 28.33,45.76 0.39,9.91 3.54,24.98 0.57,33.15 -6.58,18.09 -11.9,16.65 -13.01,24.74 4.64,1.88 4.86,5.07 8.89,1.09 -3.06,0.16 -10.94,8.39 -13.48,11.65 -2.54,3.25 -2.39,2.99 -2.47,5.11 14.14,-1.03 24.96,-18.1 30.96,-21.92 1.99,1.13 1.06,-2.87 1.86,2.71l1.09 -4.19c-0.37,-1.63 -0.45,-5.17 -0.48,-7.98 -4.27,-0.13 -4.56,-0.06 -7.41,-1.38 1.05,-8.85 0.57,-18.35 0.42,-25.94 -0.17,-8.7 -2.74,-17.72 -2,-25.92 2.86,1.99 0.57,-1.98 3.05,2.94 6.59,5.36 6.81,17.19 7.11,27.95 0.19,-0.18 0.41,-0.46 0.53,-0.6 0.12,-0.13 0.39,-0.43 0.53,-0.59 7.39,-8.73 -0.27,-12.01 -0.96,-20.82 -0.3,-3.8 0,-5.5 -2.32,-7.43l-1.26 -0.76c-3.07,-2.29 -3.65,-5.05 -5.43,-12.12 -0.55,-2.02 -3.31,-5.73 -4.77,-8.07 -13.03,-3.62 -5.71,-5.4 -10.82,-11.69 -2.32,-2.86 -3.65,-1.99 -6.41,-4.69 -0.88,-0.85 -3.44,-4.24 -4.12,-5.71 -6.89,-7.93 -15.97,-8.61 -28.32,-11.57 -13.13,-3.16 -20.86,-0.83 -34,0.03 -14.56,0.95 -21.23,-1.57 -32.8,5.55 -9.58,5.9 -10.29,5.55 -17.62,12.43 -3.51,3.29 -8.04,2.18 -5.82,-2.82 0.02,-0.04 2.44,-3.52 2.52,-3.64 13.75,-20.32 16.93,-11.99 16.73,-19.53 -1,-0.61 -0.55,-0.62 -2.51,-0.98 -5.13,-0.95 -21.5,11.88 -23.08,14.9z"/>
   <path class="fil2" d="M197 147c0.4,4.34 2.11,9.35 -4.88,16.13 -1.72,1.66 -4,3.15 -6.66,4.29 -4.56,1.95 -4.71,2.35 -6.82,-1.15 -2.39,-3.98 -0.06,-8.17 2.47,-10 3.8,-2.73 11.83,-8.75 15.89,-9.27zm99.43 -18.19c0.68,1.48 0.94,2.16 1.87,3.77 -6.02,0.09 -7.07,1.62 -9.2,5.5 -6.25,-0.52 -19.14,0.86 -22.03,-4.19 -2.02,-3.57 -0.29,-2.4 2.63,-6.76 -7.26,-1.01 -14.91,1.91 -21.57,4.13 -23.81,7.95 -50.73,4.25 -70.58,16.36l-12.3 8.55c-5.51,4.72 -19.88,17.32 -22.26,20.84 -2.15,3.18 -3.91,4.73 -5.63,7.4 -1.78,2.76 -2.38,4.6 -4.54,7.13l-0.71 -3.02c-4.57,2.78 -14.85,27.84 -14.88,32.37 -0.05,8.74 -2.55,8.86 -6.29,16 -6.55,12.49 -13.84,22.57 -25.44,30.63 -3.3,2.3 -6.3,3.63 -10,6.04 -4.94,3.2 -3.68,4.98 -9.31,6.52 -16.41,4.47 -5.58,3.03 -23.67,8.48 -4.79,1.44 -16.63,8.11 -21.24,10.71 -8.72,4.91 -14.32,6.83 -11.66,19.47 2.53,-2.14 9.68,-21.17 30.36,-22.47 2.86,-0.18 6,-0.7 9.07,-0.35 4.13,0.47 4.53,1.65 8.44,1.66 -1.3,-1.57 -0.62,-0.45 -1.44,-1.67 -1.76,-2.62 -0.49,-0.03 -1.58,-2.91 4.23,-2.9 19.03,-6.32 24.49,-9.18 1.95,-1.02 6.18,-6.22 6.26,-2.51 0.13,5.75 0.25,-0.03 -2.12,7.69 5.16,-1.96 2.77,-1.43 5.79,-4.15l2.25 -1.63c7.46,-4.59 3.57,-0.79 9.73,-7.35 0.14,-0.15 0.33,-0.38 0.48,-0.52 1.95,-1.91 0.12,-0.77 2.84,-1.99 3.49,-1.55 4.85,-0.27 9.97,-8.31 7.7,-12.11 0.18,-13.11 9.1,-46.69 3.16,-11.92 4.77,-20.59 13.44,-23.2 -3.42,11.81 -11.57,45.58 -8.69,59.11 1.1,5.15 -0.43,17.89 -3.23,22.51 -1.73,2.87 -4.38,5.65 -5.61,8.59l2.85 1.33c-1.16,2.96 -3.7,5.05 -6.22,7.04l0.58 16.27c0.51,0.16 0.89,0.06 1.03,0.41 0.13,0.35 0.56,0.32 0.74,0.41l6.89 1.9c1.97,-0.1 1.93,-0.21 3.5,-1.22 3.87,-2.5 2.02,-1.13 2.08,-2.51 -1.88,-10.91 1.42,-17.65 10.12,-21.43 0.62,-0.27 3.52,-1.52 3.63,-1.58 3.27,-1.77 1.51,-0.32 2.39,-1.99 -4.85,-6.65 -11.21,-3.8 -14.52,-4.22 0.08,-0.81 3.35,-8.9 3.77,-9.55 7.44,-2.21 5.44,-0.66 9.99,2.94l5.1 -1.19c-2.39,-7.35 -11.1,-1.62 -11.1,-24.97l14 0 0.9 3.83c2.29,-16.1 -0.83,-5.73 -0.23,-15.31l0.7 -0.18c-6.79,-2.48 -5.35,-9.74 -18.9,-3.6 4.03,-6.22 12.69,-12.76 10.89,-21.85 -0.85,-4.29 2.46,-6.95 5.22,-10.29 3.29,-4 1.87,-1.39 5.29,-3.77 3.99,-2.78 0.39,-2.13 4.62,-4.41 0.53,-2.88 4.02,-7.85 6.34,-9.57 2.98,-2.22 7.19,-3.11 11.88,-3.94 1.58,-3.02 17.95,-15.85 23.08,-14.9 1.96,0.36 1.51,0.37 2.51,0.98 0.2,7.54 -2.98,-0.79 -16.73,19.53 -0.08,0.12 -2.5,3.6 -2.52,3.64 -2.22,5 2.31,6.11 5.82,2.82 7.33,-6.88 8.04,-6.53 17.62,-12.43 11.57,-7.12 18.24,-4.6 32.8,-5.55 13.14,-0.86 20.87,-3.19 34,-0.03 12.35,2.96 21.43,3.64 28.32,11.57l3.03 2.77c3.73,2.93 2.19,2.23 6.6,3.15 -1.07,-5.08 -3.26,-7.82 -6.16,-10.47 -2.43,-2.22 -1.97,-2.43 -4.06,-4.18l-9.79 -5.25c-7.86,-3.36 -11.1,-2.66 -18.72,-4.57 -17.59,-4.39 -21.95,0.61 -27.97,-2.65 -12.16,-6.57 -21.13,-5.71 -15.88,-11.93 -4.28,-0.45 -7.85,-1.41 -11.82,-2.28l2.45 -1.83c9.56,-5.04 12.69,-6.08 24.77,-6.2 8.94,-0.09 23.32,-0.33 28.45,6.89 -1.46,5.1 -2.91,3.21 -4.06,6.54 3.97,2.69 3.61,0.21 7.68,3.35 3.22,2.5 1.59,1.95 6.07,3.9 3.72,1.62 10.56,3.52 14.9,4.93 0.5,-1.42 0.57,-0.43 -0.1,-1.72 0.21,-0.75 -0.07,-2.7 1,-4 4.91,1 20.24,8.2 23.45,11.6 2.73,2.9 1.32,4.33 5.56,3.99 0.68,-7.91 -5.15,-10.06 -3.27,-15.68 3.19,0.54 6.12,1.34 7.76,3.59 0.96,1.33 3.36,6.72 3.69,9.5l0.82 0c-0.01,8.2 -0.35,3.63 -0.84,4.19 -0.1,0.11 -0.35,0.28 -0.47,0.38 -0.12,0.1 -0.41,0.23 -0.55,0.34 -4.23,3.08 -2.85,0.13 -4.01,4.09 0.18,4.26 13.91,12.98 14.75,14.05 1.3,1.65 2.48,4.42 3.56,6.37 3.36,6.14 2.86,7.2 3.46,15.61 0.49,6.82 2.28,11.65 2.34,13.04 0.32,6.43 0.62,2.53 -1.06,4.05 0.65,4.27 4.01,8.4 4.66,13 1,7.1 -3,11.84 -1.14,16.37 3.66,1.41 5.61,-1.24 9.98,3.51 -1.17,3.45 -8.18,3.69 -1.69,10.53 4.17,-1.42 2.99,-2.77 5.15,-4.99 0.53,1.57 0.95,3.02 1.58,4.49l2.63 4.22c0.15,0.18 0.39,0.49 0.64,0.67 3.8,-3.91 1.43,-7.12 -0.29,-11.16 4.2,0.42 2.94,1.25 7.44,2.07 0.36,10.91 -3.85,3.89 2.36,14.71 3.39,5.93 3.2,11.61 1.06,16.97l-0.98 3.66c-0.85,2.97 0.7,0.94 -1.78,3.62 -2.01,2.17 -3.72,1.94 -6.55,4.47l-10.44 10.85c-0.12,0.15 -0.34,0.45 -0.54,0.66l-10.69 13c4.08,-1.09 7.48,-3.73 12.49,-6.56 10.13,-5.72 -0.62,-3.05 21.94,-10.84 6.59,-2.28 14.98,-3.9 16.15,-10.42 0.54,-3.02 -0.85,-22.36 -4.63,-28.49 -2.11,-3.42 -1.53,-1.37 -3.2,-3.83 -2.61,-3.84 1.71,-1.3 -2.4,-6.48 -2.42,-3.06 -3.21,-2.69 -5.85,-7.15 -0.73,-1.24 -1.44,-2.5 -2.23,-3.84 -0.13,-0.21 -0.28,-0.45 -0.4,-0.66l-0.76 -1.32c-0.53,-0.93 -0.74,-1.37 -1.4,-2.53 -3.4,-6.04 -13.63,-26.04 -12.27,-33.56 0.5,-2.78 0.8,-2.13 3.37,-4.09l-0.85 -4c-0.99,1.71 -2.38,-2.53 -0.86,2.84 -4.33,-14.9 -13.19,-39.58 -23.01,-51.55l-8.68 -11.33c-9.95,-12.78 -7.46,-6.16 -11.28,-10.62l-1.51 -2.64c-2.79,-4.98 -8.4,-7.63 -15.36,-11.39 -1.84,-0.99 -4.61,-2.36 -6.72,-3.38 -1.84,-0.88 -2.85,-0.79 -4.9,-3.2 -1.29,-1.5 -0.17,-0.03 -1.43,-2.11 6.31,-1.08 5.83,0.6 11.82,1.18l-13.9 -7.47c-5.17,-2.36 -10.9,-3.17 -16.94,-4.39 7.95,12.67 13.7,7.47 15.1,14.8l-4.45 0.07z"/>
   <path class="fil3" d="M195.07 249.63c-0.05,-7.66 2.23,-17.58 4.75,-23.8 1.8,-4.47 2.8,-5.88 5.49,-9.5 1.94,-2.6 4.46,-4.82 7.41,-6.07l2.71 -2.84c7.34,-5.8 16.1,-6.07 25.04,-7.89 34.23,-7 61.24,12.2 62.99,47.39 -2.18,20.2 -0.82,20.94 -11.27,36.18 -1.78,2.81 -6.89,8.65 -10.65,11.46 -17.48,13.06 -56.25,10.89 -70.65,-6.46 -4.79,-5.77 -12.85,-4.58 -15.82,-38.47zm-8.07 3.78c-16.65,-19.29 18.85,-67.99 56.09,-72.13 16.32,-1.81 43.54,7.1 52.4,15.23 10.65,9.76 22.5,25.46 22.5,46.49 0,9.93 0.27,23.43 -3.97,32.86 -3.71,8.24 -6.48,11.29 -13.02,13.14 1.39,-4.7 2.25,-4.81 3.81,-8.18 0.97,-2.1 1.52,-4.13 2.37,-6.35 1.42,-3.71 3.05,-11.22 3.64,-15.17 1.87,-12.53 -3.88,-33.78 -10.14,-43.91 -1.39,-2.25 -2.68,-4.5 -3.93,-6.09 -27.26,-34.77 -100.74,-24.02 -107.79,29.55l-1.09 11.87c-0.38,2.33 -0.52,2.1 -0.87,2.69zm78 53.91c10.44,-4.34 19.51,-6.06 28.69,-9.84 3.2,-1.32 5.6,-4.07 9.15,-6.67 7.25,-5.31 5.47,-0.24 10.05,-5.92 5.64,-7 6.99,-2.66 9.68,-21.18 2.71,-18.66 2.94,-25.12 -5.19,-43.12l-8.92 -17.06c-3.34,-5.38 -6.61,-10.44 -11.25,-15.27 -3.92,-3.31 -11.08,-8.77 -15.9,-8.78 -2.98,-0.01 0.53,1.84 -3.94,-0.81 -5.41,-3.21 -6.41,-2.95 -16.66,-3.36 -19.38,-0.78 -27.03,-5.97 -42.22,7.23 -5.64,4.9 -6.12,-1.78 -14.85,9.07l-12.51 13.54c-9.55,7.86 -15.22,31.76 -10.8,42.11 6.12,14.3 -6.54,1.91 3.92,24.33 4.99,10.71 11.29,13.53 13.93,16.25 2.45,2.52 3.06,3.65 5.54,5.47l11.28 8.72c4.76,3.07 8.65,4.23 15.03,5.1 11.23,1.53 24.32,5.14 34.97,0.19z"/>
   <path class="fil4" d="M351.6 444.88c-2.55,10.79 -3.86,6.35 -9.6,11.01 -4.16,-4.33 -1.54,-8.63 -15.61,-7.42 -1.49,3.58 -0.23,3.97 -3.5,7.36 -1.81,1.88 -3.35,2.84 -5.75,3.79 -1.34,2.62 -2.33,3.29 -5.88,5.59 -16.37,10.58 -13.14,-1.53 -21.45,8.59 -2.41,2.93 -10.4,8.85 -14.8,8.47 -6.09,-0.52 0.48,-2.3 -7.55,-0.92 -4.67,0.8 -7.23,0.93 -12.03,1.02 0.85,-6.63 -1.3,-7.46 -0.87,-13.37l3.43 -1.47c2.77,-1.15 3.99,-1.07 4.86,-4l-8.85 2.48c-1.25,-4.71 -1.95,-8.29 -5.29,-8.6 -0.15,0.27 -0.22,0.64 -0.27,0.87 -0.05,0.23 -0.19,0.6 -0.23,0.88l-0.12 3.49c0.07,1.78 0.32,2.66 0.16,4.36 -17.17,0.16 -22.34,-6.89 -25.87,-8.39l-0.38 4.72c-18.39,-6.96 -13.4,-10.24 -19.45,-10.94 -1.48,5.98 4.73,8.08 7.64,11.55 7.7,1.75 14.12,1.79 18.4,5.43 3.41,2.9 3.73,5.13 9.21,8.76l4.12 2.3c0.22,-0.28 0.71,0.36 1.07,0.52 -2.31,-3.73 -3.54,-8.91 -6.73,-11.3l-2.27 -0.67c0.81,0.04 14.99,2.58 16.01,3.01 2.28,3.4 0.46,5.57 4.42,9.58l-2.15 7.58c-7.73,-0.46 -14.48,-2.99 -21.86,-5.72 -8.12,-3.01 -3.88,-7.29 -16.82,-10.07 -4.3,-0.92 -11.09,1.15 -18.59,-2.37 -7.57,-3.56 -11.73,-7.31 -16.31,-13.8 -1.36,-1.93 0.93,-0.3 -1.69,-1.92 -4.42,1.21 -6.1,3.8 -8.96,7.93l-3.15 -0.74 0.05 -4.37c-3.77,2.34 -7.29,7.29 -8.03,11.04 3.48,1.1 6.24,0.67 8.43,1.55 0.03,0.02 17.41,11.65 23,14.07 10.7,4.63 41.12,10.35 51.89,11.8 3.61,0.49 5.85,0.42 9.07,1 9.6,1.75 14.67,1.87 24.74,0.5 23.76,-3.22 27.38,-6.51 42.37,-13.63 2.29,-1.09 3.54,-1.33 6.21,-2.84l27.45 -18.56 13.43 -14.51c0.86,-0.88 1.95,-1.72 2.65,-2.38 1.85,-1.74 0.4,0.33 2.07,-2.22 -3.64,-0.12 -6.3,-0.14 -9.93,-0.53 -4.75,-0.52 -3.51,-1.19 -6.69,1.49z"/>
   <path class="fil5" d="M248 214.71c19.72,-2.76 47.7,19.38 25.9,50.18 -6.35,8.97 -25.08,10.25 -35.97,8.3 -9.52,-1.7 -17.62,-13.58 -18.44,-26.25 -1.33,-20.49 10.94,-29.78 28.51,-32.23zm-35.28 -4.45l2.44 5.74c-4.8,2.07 -6.3,7.92 -7.16,13.84 5.98,-2.2 9.08,-9.37 13.36,-5.84 1.33,1.1 2.18,-2.98 0.4,4.24 -0.65,2.65 0.1,-0.59 -0.8,2.25l-3.36 9.82c-3.45,11.9 1.39,14.52 -5.55,16.59 -3.52,-8.01 1.41,-15.54 2.06,-24.56 -6.55,2.75 -7.12,10.14 -9.96,15.44 1.18,2.85 -0.54,13.75 13.07,29.06 5.75,6.48 5.24,13.11 12.33,15.63 9.17,3.24 10.06,2.31 15.15,0.19 4.75,-1.97 8.88,-2.18 15.19,-2.64 5.15,-0.39 10.43,-1.21 15.2,-2.83 2.79,-0.95 3.18,-1.25 5.9,-3.15l5.2 -5.19c2.18,3.52 0.42,1.12 2.59,2.89 -1.71,-4.98 -0.38,-3.91 1.63,-7.22l3.64 -11.56c-2.84,3.36 -6.67,12.1 -10.97,11.26 -1.23,-1.33 -2.35,1.68 -1.08,-4.89 0.48,-2.47 2.72,-4.08 2.61,-12.15 -0.06,-4.73 -1.07,-12.36 0.06,-17.61 2.71,0.44 4.92,-0.92 5.09,8.79l0.23 6.76c0.84,2.75 -0.36,0.41 1.29,2.55 2.36,-11.27 8.43,-9.76 12.18,-10.75 -1.75,-35.19 -28.76,-54.39 -62.99,-47.39 -8.94,1.82 -17.7,2.09 -25.04,7.89l-2.71 2.84z"/>
   <path class="fil6" d="M316.62 125.8c-5.99,-0.58 -5.51,-2.26 -11.82,-1.18 1.26,2.08 0.14,0.61 1.43,2.11 2.05,2.41 3.06,2.32 4.9,3.2 2.11,1.02 4.88,2.39 6.72,3.38 6.96,3.76 12.57,6.41 15.36,11.39l1.51 2.64c3.82,4.46 1.33,-2.16 11.28,10.62l8.68 11.33c9.82,11.97 18.68,36.65 23.01,51.55 -1.52,-5.37 -0.13,-1.13 0.86,-2.84l4.82 -1.54c0.31,12.1 4.5,35.7 13.36,40.82l-7.95 -39.33c-0.93,-3.94 -1.28,-6.01 -1.83,-10.03 -0.19,-1.35 -11.23,-29.66 -17.3,-35.63 -2.14,-2.11 -0.79,-0.54 -2.73,-3.17l-12.21 -11.89c-3.95,-2.72 -5.47,-11.12 -9.46,-14.5 -3.75,-3.19 -13.51,-4.59 -9.76,-13.16 0.22,-0.06 0.59,-0.32 0.69,-0.09 0.11,0.24 0.55,-0.06 0.7,-0.05l4.81 1.28c1.74,-2.74 2.33,-6.17 3.92,-9.2 3.78,-7.21 5.56,-7.98 8.35,-12.6 2.08,-3.44 -0.67,-1.21 3.03,-4.09 2.18,-1.7 6,-3.64 9.16,-3.88 4.34,-2.47 9.73,-10.52 19.25,-12.65 10.14,-2.27 16.47,-0.59 26.22,-4.52 10.5,-4.23 18.5,-13.9 34.95,-1.41 3.62,2.75 7.05,5.12 3.69,12.09 -6.62,-4.19 -4.66,-6.65 -13.67,-8.93 -6.44,-1.63 -14.56,-2.2 -19.03,2.48 11.6,5.22 17.64,1.44 28.31,14.16l1.39 1.6c4.54,5.47 3.95,4.58 5.74,11.14 3.14,-1.87 4.17,-3.58 7.1,-8.68 3.05,-5.32 3.65,-7.18 2.43,-13.94 -1.31,-7.22 -4.5,-10.23 -10.49,-14.25 -19.14,-12.83 -52.45,-12.48 -71.74,-1.59 -23.33,13.17 -22.21,23.44 -34.21,32.76 -4.66,3.62 -5.21,2.31 -9.53,7.29 -3.25,3.76 -1.4,0.92 -4.61,3.45 -2.05,1.63 -2.01,3.06 -4.03,5.02 -3.25,3.15 -7.78,2.2 -11.3,0.84z"/>
   <path class="fil7" d="M86.82 68.53l-7.59 1.99c-0.92,-7.45 2.27,-11.52 6.58,-14.71 17.25,-12.8 6.26,-9.47 33.92,-12.55 8.05,-0.89 12.38,1.14 19.98,1.41 5.53,0.06 12.12,2.31 16.62,4.87 5.42,3.08 8.38,2.13 14.76,11.44l9.89 15.91c3.88,7 14.45,24.8 12.5,30.04 7.94,-1.16 5.3,-0.34 7.32,0.17 0.24,0.06 0.58,0.19 0.86,0.32 0.45,6.31 -14.22,8.19 -20.63,22.1 4.06,-2.32 8.41,-6.12 11.91,-7.49 7.9,-3.11 6.1,-4.46 13.61,-2.62 6.51,0.91 9.84,2.07 11.69,8.03l-6.35 2.08c1.57,1.89 -3.71,1.49 3.11,1.62 5.72,-0.61 8.54,-2.37 14.89,-2.86l-0.61 -1.61c4.5,-1.82 5.38,-2.43 7.85,-5.55 0.96,-1.2 0.37,-0.53 1.36,-1.71 0.42,-0.5 2.41,-2.14 2.82,-4.07 0.54,-2.54 0.42,-1.3 -0.28,-2.73 -1.89,-0.14 -5.48,-0.08 -7.91,-0.08 -5.62,0 -3.57,1.86 -7.53,2.94 -1.91,-3.59 -4.57,-7.02 -7.33,-10.72 -3.36,-4.48 -5.12,-5.57 -8.33,-10.66 -4.34,-6.89 -6.53,-10.29 -12.01,-16l-13.23 -14.77c-2.88,-3.21 -6.94,-6.2 -10.16,-8.84 -8.64,-7.06 -13.06,-8.25 -24.08,-13.83 -18.41,-9.31 -42.95,-9.2 -60.39,1.47 -8.55,5.22 -13.97,9.59 -18.43,19.44 -3.53,7.81 -5.49,23.93 4.37,26.5 2.64,-5.54 -0.64,-4.47 3.94,-8.17 1.86,-1.51 4.62,-3.24 6.95,-4.89l-0.07 -6.47z"/>
   <path class="fil8" d="M248.83 229.74c6.71,-0.67 13.44,-0.48 13.66,6.66 4.71,5.03 -0.75,23.4 -18.65,15.71 -11.87,-5.09 -5.57,-19.76 4.99,-22.37zm-0.83 -15.03c-17.57,2.45 -29.84,11.74 -28.51,32.23 0.82,12.67 8.92,24.55 18.44,26.25 10.89,1.95 29.62,0.67 35.97,-8.3 21.8,-30.8 -6.18,-52.94 -25.9,-50.18z"/>
   <path class="fil2" d="M31.41 238.64c1.27,-7.2 -0.98,-2.69 3.58,-4.35l-6.78 -2.68c-24.07,-11.37 -18.81,-49.65 9.74,-51 5.31,-0.24 10.82,0.12 15.41,2.04 5.75,2.4 6.35,3.67 10.64,6.19 -0.13,-3.99 -0.75,-1.97 1.61,-2.6 -1.48,-2.24 -0.11,-0.4 -1.68,-2.08 -0.14,-0.15 -1.41,-1.4 -1.69,-1.63 -6.62,-5.43 -33.38,-2.86 -26.25,-19.5 -2.83,-2.03 -1.78,3.06 -2.46,-2.76l8.68 -9.06c11.36,-11.54 6.32,-11.74 40.81,-11.65 10.85,0.03 19.77,3.25 28.89,6.38 4.59,1.57 8.13,4.09 11.57,6.63 7.44,5.49 8.05,4.24 9.35,8.16l3.15 -5.67c0.92,-2.21 1.59,-3.96 1.88,-5.87 -5.03,-2.8 -10.42,-6.69 -14.78,-10.26 -9.5,-7.77 -4.41,-4.95 -18.07,-4.84 -18.67,0.16 -36.53,-20.82 -76.76,9.18 -2.26,1.69 -3.67,3.45 -6.14,5.81 -9.62,9.17 -8.73,17.15 -8.28,29 5.63,-2 4.73,-5.21 13.89,-5.67 -2.04,6.85 -2.92,2.88 -7.03,7.27 -13.13,14.06 -17.69,30.95 -5.61,48.28 3.26,4.69 1.61,3.33 6.36,6.66 2.46,1.72 2.27,3.12 9.97,4.02z"/>
   <path class="fil9" d="M456 356.58c-7.74,-2.03 -6.88,-32.85 6.75,-36.23 1.73,6.78 -0.79,12.27 -2.83,18.63 -2.01,6.28 -2.32,10.63 -3.92,17.6zm-2.1 -46.02c-13.22,4.77 -20.44,20.14 -17.28,38.02 0.6,3.41 2.72,6.18 4.55,9.22 5.3,8.78 22.89,9.61 31.84,6.32 16.18,-5.93 21.76,-18.77 17.22,-35.49 -1.4,-5.17 -2.2,-5.66 -4.74,-9.18 -6.43,-8.92 -20.41,-12.93 -31.59,-8.89z"/>
   <path class="fil10" d="M265 307.32c8.3,-0.12 0.23,3.69 9.58,2.63 14.3,-1.63 16.28,-5.28 22.31,-7.51 5.55,-2.05 1.92,-1.41 3.91,0.56l-5.75 3.01c-4.74,2.68 -14.09,8.17 -19.99,8.91 -13.44,1.7 -38.49,0.76 -50.98,-4.3l-6.21 -2.77c-20.96,-9.99 -19.07,-17.03 -29.28,-20.54 1.32,7.79 4.8,4.58 12.56,15.48 5.1,7.16 9.84,5.6 15.57,12.46 11.48,13.75 56.98,12.88 74.68,6.07l21 -6.03c4.74,-0.96 2.02,0.22 4.6,-2.07l17.59 -18.36c1.85,-1.64 1.71,-2.32 4.27,-4.31 -0.8,-5.58 0.13,-1.58 -1.86,-2.71 -6,3.82 -16.82,20.89 -30.96,21.92 0.08,-2.12 -0.07,-1.86 2.47,-5.11 2.54,-3.26 10.42,-11.49 13.48,-11.65 -4.03,3.98 -4.25,0.79 -8.89,-1.09 1.11,-8.09 6.43,-6.65 13.01,-24.74 2.97,-8.17 -0.18,-23.24 -0.57,-33.15 -0.67,-17.05 -15.29,-42.7 -28.33,-45.76 4.64,4.83 7.91,9.89 11.25,15.27l8.92 17.06c8.13,18 7.9,24.46 5.19,43.12 -2.69,18.52 -4.04,14.18 -9.68,21.18 -4.58,5.68 -2.8,0.61 -10.05,5.92 -3.55,2.6 -5.95,5.35 -9.15,6.67 -9.18,3.78 -18.25,5.5 -28.69,9.84z"/>
   <path class="fil11" d="M242.59 123.47c-2.23,0.93 -4.49,1.43 -6.61,2.52 -2.35,1.22 -3.38,2.81 -6.09,2.29 -6.35,0.49 -9.17,2.25 -14.89,2.86 -6.82,-0.13 -1.54,0.27 -3.11,-1.62 -3.49,0.33 -5.17,0.57 -8.52,1.15 -5.7,0.99 -3.16,2.04 -5.39,-1.74 -1.13,-3.13 6.47,-7.11 8.57,-9.52 -7.51,-1.84 -5.71,-0.49 -13.61,2.62 -3.5,1.37 -7.85,5.17 -11.91,7.49 -9.42,4.9 -5.51,1.29 -14.2,3.18 0.2,5.95 3.19,3 -1.61,7.41 -3.68,3.38 -2.59,1.77 -5.39,6.65 -2.88,5 -12.41,7.44 -21.48,24.57 -2.69,5.07 -3.47,12.28 -6.24,17.19l0.71 3.02c2.16,-2.53 2.76,-4.37 4.54,-7.13 1.72,-2.67 3.48,-4.22 5.63,-7.4 2.38,-3.52 16.75,-16.12 22.26,-20.84l12.3 -8.55c19.85,-12.11 46.77,-8.41 70.58,-16.36 6.66,-2.22 14.31,-5.14 21.57,-4.13 -2.92,4.36 -4.65,3.19 -2.63,6.76 2.89,5.05 15.78,3.67 22.03,4.19 2.13,-3.88 3.18,-5.41 9.2,-5.5 -0.93,-1.61 -1.19,-2.29 -1.87,-3.77 -3.86,-2.29 -6,-4.57 -10.91,-7.32 -3.94,-2.2 -7.77,-5.5 -9.56,-9.48 -2.29,1.94 1.48,0.43 -4.9,1.16 -5.07,0.59 -2.1,0.67 -11.79,5.13 -1.13,4.09 -0.57,2.84 0.18,7.12 -5.41,-1.12 -4.12,-1.86 -9.11,-1.87 -2.91,-0.01 -5.3,0.74 -7.75,-0.08z"/>
   <path class="fil9" d="M44.64 324.44l-8.19 -13.44c2.68,-1.45 2.27,-1.4 5.9,-0.51 11.05,2.73 14.95,22.05 8.65,29.07 -1.49,-1.68 -4.15,-11.17 -6.36,-15.12zm-3.17 -23.39c-7.35,1.54 -20.17,8.93 -22.34,17.19 -0.85,3.27 -1.05,9.18 -0.7,12.48 0.25,2.29 1.97,7.47 2.99,9.84 1.27,2.94 4.15,5.81 6.6,7.43 22.47,14.9 41.17,-4.91 42.52,-13.36 2.81,-17.48 0.67,-21.19 -8.92,-29.26 -4.29,-3.61 -13.69,-5.67 -20.15,-4.32z"/>
   <path class="fil12" d="M154.67 235.53c-0.6,9.58 2.52,-0.79 0.23,15.31l-0.9 -3.83 -14 0c0,23.35 8.71,17.62 11.1,24.97l-5.1 1.19c-4.55,-3.6 -2.55,-5.15 -9.99,-2.94 -0.42,0.65 -3.69,8.74 -3.77,9.55 3.31,0.42 9.67,-2.43 14.52,4.22 -0.88,1.67 0.88,0.22 -2.39,1.99 -0.11,0.06 -3.01,1.31 -3.63,1.58 -8.7,3.78 -12,10.52 -10.12,21.43 0.87,1.32 -0.32,0.3 1.85,0.52l1.1 -1.51c10.94,-13.34 18.09,-9.94 15.03,-22.37 5.13,-1.48 3.81,-1.87 7.57,-3.72 0.83,-1.03 1.56,-1.91 2.36,-3.11 -2.32,-3.2 -4.48,-3.39 -5.37,-7.66 3.42,-1.06 6.04,-3.33 5.02,-7.38 -1.15,-4.58 -1.82,-2.75 -6.85,-5.04l-1.28 -0.73c1.81,-1.99 3.23,-3.42 4.97,-5.08 1.87,4.85 5.45,7.15 6.02,11.1 0.78,5.42 -3.03,12.4 5.3,19.76 8.4,7.42 2.69,6.14 13.77,13.06 5.98,3.73 0.46,1.55 5.81,6.26 6.39,5.61 15.07,13.1 22.51,16.55 2.61,1.21 11.96,3.93 15.56,4.35 -3.66,-6.41 -3.82,-2.41 -12.31,-7.65 -3.75,-2.31 -7.51,-5.58 -11.11,-8.1l-4.88 -4.04c-1.77,-1.66 -2.77,-2.73 -4.49,-4.43 -10.18,-10.03 -3.63,3.04 -12.8,-21.9 -4.61,-12.52 -7.92,-33.33 -9.26,-47.08 -11.71,1.4 -3.93,12.6 -4.6,20.84 -4.07,-6.12 -3.24,-3.44 -6.74,-11.36l-3.13 -4.75z"/>
   <path class="fil13" d="M351.65 417.51c-0.14,-8.56 -4.28,-11.94 -7.36,-22.55 -1.32,-4.54 -2.05,-3.76 -3.57,-6.96 2.11,-2.69 6.29,-6.21 9.28,-7.16 4.1,7.28 3.78,10.08 6.17,17.89 3.96,12.96 1.12,11.21 0.84,23.35l-1.28 0.73c-0.15,0.08 -0.53,0.29 -0.69,0.38l-1.43 0.76c14.29,2.02 21.99,17 24.72,16.05 -0.78,-2.45 0.37,-6.53 -1.49,-12.52 -3.74,-12.06 -4.93,-22.46 -6.3,-35.47 -2.19,-20.83 3.24,-33.42 5.2,-50.45 -10.32,6.2 -39.61,30.55 -42.97,40.44 1.61,3.95 3.18,5.55 5.14,9.2 2.42,4.48 10.31,23.9 13.74,26.31z"/>
   <path class="fil9" d="M417 100.33c3.8,5.42 2,15.91 0.94,22.49 -0.57,3.56 -0.22,5.29 -2.21,7.51 -4.64,-9.82 -9.51,-21.83 1.27,-30zm-7.52 -3.33c-8.97,1.78 -11.8,2.78 -15.65,8.83 -25.7,40.34 48.4,56.51 43.74,9.4 -1.44,-14.53 -12.9,-21.24 -28.09,-18.23z"/>
   <path class="fil14" d="M187 253.41c0.35,-0.59 0.49,-0.36 0.87,-2.69l1.09 -11.87c7.05,-53.57 80.53,-64.32 107.79,-29.55 1.25,1.59 2.54,3.84 3.93,6.09 6.26,10.13 12.01,31.38 10.14,43.91 -0.59,3.95 -2.22,11.46 -3.64,15.17 -0.85,2.22 -1.4,4.25 -2.37,6.35 -1.56,3.37 -2.42,3.48 -3.81,8.18 6.54,-1.85 9.31,-4.9 13.02,-13.14 4.24,-9.43 3.97,-22.93 3.97,-32.86 0,-21.03 -11.85,-36.73 -22.5,-46.49 -8.86,-8.13 -36.08,-17.04 -52.4,-15.23 -37.24,4.14 -72.74,52.84 -56.09,72.13z"/>
   <path class="fil15" d="M333.53 228.08c5.32,7.38 3.64,10.23 4.54,20.72 0.51,5.82 0.85,15.84 -1.13,22.36 4.49,2.38 5.47,-4.44 6.06,-5.74 4.38,0.6 2.35,1.65 6.31,6.29 0.87,1.02 1.09,0.9 2.09,2.29 -2.55,5.18 -2.68,2.95 -5.04,6.45 -2.58,3.83 -0.86,5.77 -6.41,5.91l-1.09 4.19c-2.56,1.99 -2.42,2.67 -4.27,4.31 2.36,5.29 -8.08,9.87 -11.65,17.47 2.38,2.77 2.26,3.77 4.12,6.59 8.5,12.85 8.19,3.45 17.94,-0.64 -5.4,-1.72 -2.54,-3.18 -6.34,-6.94 -2.94,-2.9 -4.59,-1.86 -5.22,-7.34 2.95,-3.1 3.15,-1.47 5.6,-3.89 3.13,-3.09 0.49,-4.07 7.17,-4.08 4.61,5.7 0.59,4.61 5.58,8.18 2.65,1.89 7,2.78 3.17,7.93 2.36,-0.34 4.62,0.08 5.09,0 2.86,-0.54 0.65,-0.84 3.95,-2.43l1.99 1.36 9.37 -7.26c-8.24,-3.38 -5.56,-8.53 -10.27,-5.38 -3.18,2.12 -3.94,1.38 -9.4,1.86l-3.26 -9.16c2.94,-3.8 3.36,-0.47 5.7,-6.98 2.87,-7.97 1.2,-2.34 6.4,-6.58 -4.96,-0.81 -4.57,-1.84 -8.63,-4.97l2.93 -9.5c-6.15,-3.33 -2.7,0.58 -7.86,-5.09 -2,-2.2 -5.57,-4.28 -4.4,-8.47 0.76,-2.73 1.21,-1.25 1.81,-3.94 0.55,-2.4 -0.25,-3.56 0.43,-6.59 1.2,-5.3 5.02,-2.8 8.38,-3.89 0.6,-5.21 0.43,-2.1 -1.13,-6.17l-5.16 -14.15c-3.64,1.94 -0.74,1.27 -4.95,2.2 -10.65,2.37 -8.76,-1.09 -14.22,-3.29 1.78,7.07 2.36,9.83 5.43,12.12l1.26 0.76c2.32,1.93 2.02,3.63 2.32,7.43 0.69,8.81 8.35,12.09 0.96,20.82 -0.14,0.16 -0.41,0.46 -0.53,0.59 -0.12,0.14 -0.34,0.42 -0.53,0.6 -0.3,-10.76 -0.52,-22.59 -7.11,-27.95z"/>
   <path class="fil16" d="M365.99 311.07l2.9 0.8c0.3,4.8 -1.41,4.76 -2.04,8.33 -0.57,3.2 -0.19,3.58 1.48,6.86l0.95 1.71c0.2,-0.21 0.42,-0.51 0.54,-0.66l10.44 -10.85c2.83,-2.53 4.54,-2.3 6.55,-4.47 2.48,-2.68 0.93,-0.65 1.78,-3.62l0.98 -3.66c2.14,-5.36 2.33,-11.04 -1.06,-16.97 -6.21,-10.82 -2,-3.8 -2.36,-14.71 -4.5,-0.82 -3.24,-1.65 -7.44,-2.07 1.72,4.04 4.09,7.25 0.29,11.16 -0.25,-0.18 -0.49,-0.49 -0.64,-0.67l-2.63 -4.22c-0.63,-1.47 -1.05,-2.92 -1.58,-4.49 -2.16,2.22 -0.98,3.57 -5.15,4.99 -6.49,-6.84 0.52,-7.08 1.69,-10.53 -4.37,-4.75 -6.32,-2.1 -9.98,-3.51 -1.86,-4.53 2.14,-9.27 1.14,-16.37 -0.65,-4.6 -4.01,-8.73 -4.66,-13 -3.36,1.09 -7.18,-1.41 -8.38,3.89 -0.68,3.03 0.12,4.19 -0.43,6.59 -0.6,2.69 -1.05,1.21 -1.81,3.94 -1.17,4.19 2.4,6.27 4.4,8.47 5.16,5.67 1.71,1.76 7.86,5.09l-2.93 9.5c4.06,3.13 3.67,4.16 8.63,4.97 -5.2,4.24 -3.53,-1.39 -6.4,6.58 -2.34,6.51 -2.76,3.18 -5.7,6.98l3.26 9.16c5.46,-0.48 6.22,0.26 9.4,-1.86 4.71,-3.15 2.03,2 10.27,5.38l-9.37 7.26z"/>
   <path class="fil17" d="M455.17 206.87c1.19,-0.74 16.39,-0.06 18.88,11.93 3.18,15.3 -17.49,40.18 -25.48,11.78 -1.9,-6.73 2.88,-21.39 6.6,-23.71zm0.06 -4.06c-11.62,1.89 -8.65,2.04 -13.11,6.33 -5.91,5.68 -11.22,12.37 -7.98,25.67 5.35,21.94 39.06,24.34 50.29,8.61 4.33,-6.06 8.85,-22.25 -0.64,-30.26 -7.77,-6.56 -13.92,-12.72 -28.56,-10.35z"/>
   <path class="fil9" d="M107 117.87c-5.88,-5.48 -8.74,-18.42 -5,-27.69 5.35,4.48 10.25,19.8 5,27.69zm-5.83 -37.02c-8.8,3.07 -8.9,1.83 -13.94,9.42 -7.23,10.86 -12.96,24.95 1.92,31.63 24.84,11.13 43.35,-6.15 39.28,-22.37 -3.37,-13.41 -25.41,-19.33 -27.26,-18.68z"/>
   <path class="fil10" d="M305.61 183.55c0.68,1.47 3.24,4.86 4.12,5.71 2.76,2.7 4.09,1.83 6.41,4.69 5.11,6.29 -2.21,8.07 10.82,11.69 2.59,-21.14 -7.56,-12.2 -11.73,-21.32 -2.29,-5 -2.64,-6.62 -5.53,-11.2 -3.6,-5.7 -4.26,-7.27 -8.7,-9.12 0.67,1.29 0.6,0.3 0.1,1.72 -4.34,-1.41 -11.18,-3.31 -14.9,-4.93 -4.48,-1.95 -2.85,-1.4 -6.07,-3.9 -4.07,-3.14 -3.71,-0.66 -7.68,-3.35 1.15,-3.33 2.6,-1.44 4.06,-6.54 -5.13,-7.22 -19.51,-6.98 -28.45,-6.89 -12.08,0.12 -15.21,1.16 -24.77,6.2l-2.45 1.83c3.97,0.87 7.54,1.83 11.82,2.28 -5.25,6.22 3.72,5.36 15.88,11.93 6.02,3.26 10.38,-1.74 27.97,2.65 7.62,1.91 10.86,1.21 18.72,4.57l9.79 5.25c2.09,1.75 1.63,1.96 4.06,4.18 2.9,2.65 5.09,5.39 6.16,10.47 -4.41,-0.92 -2.87,-0.22 -6.6,-3.15l-3.03 -2.77z"/>
   <path class="fil18" d="M195.07 249.63c2.97,33.89 11.03,32.7 15.82,38.47 14.4,17.35 53.17,19.52 70.65,6.46 3.76,-2.81 8.87,-8.65 10.65,-11.46l-3.41 -1.36c-2.17,-1.77 -0.41,0.63 -2.59,-2.89l-5.2 5.19c-2.72,1.9 -3.11,2.2 -5.9,3.15 -4.77,1.62 -10.05,2.44 -15.2,2.83 -6.31,0.46 -10.44,0.67 -15.19,2.64 -5.09,2.12 -5.98,3.05 -15.15,-0.19 -7.09,-2.52 -6.58,-9.15 -12.33,-15.63 -13.61,-15.31 -11.89,-26.21 -13.07,-29.06 -1.98,-0.17 -3,-0.64 -4.77,-1.24 -0.02,3.64 -1.26,4.72 -2.61,7.47l-1.7 -4.38z"/>
   <path class="fil19" d="M301 164c4.44,1.85 5.1,3.42 8.7,9.12 2.89,4.58 3.24,6.2 5.53,11.2 4.17,9.12 14.32,0.18 11.73,21.32 1.46,2.34 4.22,6.05 4.77,8.07 5.46,2.2 3.57,5.66 14.22,3.29 4.21,-0.93 1.31,-0.26 4.95,-2.2l5.16 14.15c1.56,4.07 1.73,0.96 1.13,6.17 1.68,-1.52 1.38,2.38 1.06,-4.05 -0.06,-1.39 -1.85,-6.22 -2.34,-13.04 -0.6,-8.41 -0.1,-9.47 -3.46,-15.61 -1.08,-1.95 -2.26,-4.72 -3.56,-6.37 -0.84,-1.07 -14.57,-9.79 -14.75,-14.05 1.16,-3.96 -0.22,-1.01 4.01,-4.09 0.14,-0.11 0.43,-0.24 0.55,-0.34 0.12,-0.1 0.37,-0.27 0.47,-0.38 0.49,-0.56 0.83,4.01 0.84,-4.19l-0.82 0 0.34 3.82c-1.64,0.11 -2.76,0.07 -4.32,0.46 -4.12,1.03 0.77,0.07 -2.92,1.3l-1.28 -2.99c-4.24,0.34 -2.83,-1.09 -5.56,-3.99 -3.21,-3.4 -18.54,-10.6 -23.45,-11.6 -1.07,1.3 -0.79,3.25 -1,4z"/>
   <path class="fil20" d="M392.1 196.61c1.52,-1.78 33.38,-20.47 39.14,-18.91 3.02,0.82 1.45,0.48 2.54,1.3 7.91,-0.74 -4.48,-1.68 18.03,-3.5 12.76,-1.03 20.38,1.57 31.25,7.51 2.92,1.59 4.81,1.97 6.11,4.83 1.34,2.92 1.17,6.34 1.07,10.07 4.97,1.92 7.69,5.21 6.38,10.63 -6.04,1.59 -0.65,0.37 -9.62,-4.29l-1.82 2.75c4.65,2.13 4.5,0.36 6.34,5.39 1.47,4.02 0.99,5.55 6.64,6.37 -0.4,0.17 -0.72,-1.82 -0.81,0.9 -0.08,2.66 -0.98,0.27 0.82,2.21 2.39,-0.72 5.04,-3.49 6.14,-5.63 1.84,-3.6 1.61,-8.43 1.19,-11.03 -2.48,-15.3 -10.47,-22.32 -21.25,-29.48 -3.22,-2.15 -11.17,-2.98 -17.33,-5.59 -21.79,-9.25 -61.59,11.17 -77.88,17.13l3.06 9.34z"/>
   <path class="fil10" d="M179.13 357.19l-0.3 -6.19c-4.92,-3.35 -3.67,2.36 -6.84,-4.94 -1.43,-3.28 -2.41,-5.1 -4.23,-7.82 -3.84,-5.74 -7.45,-9.07 -10.53,-13.44 -2.96,-2.46 -5.43,-6.68 -11.23,-6.81 -1.21,-1.45 -0.09,-0.57 -0.43,-2.71 -3.88,-2.47 -7.46,-5.61 -13.1,-5.76 -2.17,-0.22 -0.98,0.8 -1.85,-0.52 -0.06,1.38 1.79,0.01 -2.08,2.51 -1.57,1.01 -1.53,1.12 -3.5,1.22l-6.89 -1.9c-0.18,-0.09 -0.61,-0.06 -0.74,-0.41 -0.14,-0.35 -0.52,-0.25 -1.03,-0.41l-0.58 -16.27c2.52,-1.99 5.06,-4.08 6.22,-7.04l-2.85 -1.33c-10.27,4.56 -11.88,34.32 -11.22,35.26 1.35,1.92 7.54,1.89 10.65,2.52 6.05,1.24 22.84,9.26 28.16,12.05 7.04,3.69 9.64,6.44 12.19,7.82 1.74,0.94 3.11,1.14 5,2.02 6.88,3.2 10.43,8.55 15.18,12.15z"/>
   <path class="fil21" d="M129.67 358.5c1.39,3.78 -2.65,39.64 -4.17,45.88 -1.51,6.22 -3.6,4.94 -3.96,12.2 3.87,1.48 2.21,0.15 8.5,-0.84 2.74,-0.44 5.88,-0.48 7.95,1.26 -3.19,4.11 -14.4,3.13 -18.81,10.44 -0.86,1.43 -2.15,4.68 -2.62,6.56 0.03,0.23 2.88,7.11 8.1,8.65 4.33,-4.8 1.57,-6.65 7.54,-7.83 0.41,7.84 -1.88,8.68 -1.97,13.86 2.46,-0.7 11.01,-11.18 11.78,-17.32 1.4,-11.2 0.96,-17.31 -0.76,-27.95 -1.16,-7.13 -7.19,-42.23 -11.58,-44.91z"/>
   <path class="fil22" d="M137.45 360.52l0.1 -3.14c9.65,0.05 8.53,0.46 12.75,6.33 8.1,11.25 10.67,10.2 3.65,24.2 -2.09,4.18 -3.35,9 -5.95,12.07l-2.27 -3.85 1.61 19.98c2.35,-2.38 12.35,-22.55 14.75,-27.03 5.55,-10.37 10.15,-13.46 14.55,-27.04 -3.28,-2.47 -5.38,-4.32 -10.06,-6.55 -6.32,-3.02 -5.49,-3.55 -11.91,-6.15 -5.11,-2.06 -6.92,-3.59 -12.35,-5.65 -4.71,-1.79 -8.44,-3.5 -13.62,-5.13 1.75,4.83 3.08,6.68 4.72,11.13 1,2.69 2.05,8.76 4.03,10.83z"/>
   <path class="fil23" d="M171.22 448.69c-1.92,4.42 -5.81,6.37 -6.28,9.41l-0.05 4.37 3.15 0.74c2.86,-4.13 4.54,-6.72 8.96,-7.93 2.62,1.62 0.33,-0.01 1.69,1.92 4.58,6.49 8.74,10.24 16.31,13.8 7.5,3.52 14.29,1.45 18.59,2.37 12.94,2.78 8.7,7.06 16.82,10.07 7.38,2.73 14.13,5.26 21.86,5.72l2.15 -7.58c-3.96,-4.01 -2.14,-6.18 -4.42,-9.58 -1.02,-0.43 -15.2,-2.97 -16.01,-3.01l2.27 0.67c3.19,2.39 4.42,7.57 6.73,11.3 -0.36,-0.16 -0.85,-0.8 -1.07,-0.52l-4.12 -2.3c-5.48,-3.63 -5.8,-5.86 -9.21,-8.76 -4.28,-3.64 -10.7,-3.68 -18.4,-5.43 -0.79,-1.5 -15.15,-5.56 -18.24,-6.82 -12.22,-4.98 -10.89,-6.28 -16.95,-10.3 -4.44,1.66 -0.02,0.71 -3.78,1.86z"/>
   <path class="fil24" d="M259 78.86c-6,-7.85 -5.77,-17.21 -1.5,-24.46 -3.81,-0.79 -10.16,2.59 -12.85,5.24 -8.65,8.51 -5.78,30.35 16.2,29.04 3.29,-0.2 11.96,-2.95 13.95,-4.86 3.8,-3.64 3.8,-8.37 3.75,-12.93 -0.06,-5.23 -0.44,-8.83 -4.36,-12.07 -3.67,-3.03 -8.37,-4.98 -13.73,-5.25 1.51,7.5 3.04,19.72 -1.46,25.29z"/>
   <path class="fil12" d="M460.52 293.02l2.15 2.05c14.43,-0.64 29.65,4.69 32.18,15.65 -6.22,-1.96 -7.17,-5.72 -18.74,-9.54 -9.38,-3.09 -18.51,3.11 -20.27,2.98 15.44,-1.32 26.43,-2.68 36.51,11.56 9.49,13.4 5.8,29.84 -1.74,42 -3.93,6.35 -16.14,10.49 -20.65,13.01 -2.19,1.21 -0.78,0.13 -2.24,1.53 3.82,1.64 15.4,0.62 19.03,-2.35 3.79,-3.11 -0.45,-1.86 5.26,-5.63 3.01,-1.99 5.77,-3.47 7.53,-5.89 3.01,-4.13 5.44,-10.48 6.08,-17.85 0.4,-4.6 0.34,-18.65 -1.06,-22.27 -6.13,-15.78 -9.32,-15.93 -23.96,-22.72 -5.51,-2.55 -10.16,-5.69 -15.67,-8.44l-15.48 -7.65c5.31,6.86 6.3,5.3 10.43,9.84 4.53,4.97 2.06,2.58 0.64,3.72z"/>
   <path class="fil3" d="M259 78.86c4.5,-5.57 2.97,-17.79 1.46,-25.29 5.36,0.27 10.06,2.22 13.73,5.25 3.92,3.24 4.3,6.84 4.36,12.07 0.05,4.56 0.05,9.29 -3.75,12.93 -1.99,1.91 -10.66,4.66 -13.95,4.86 -21.98,1.31 -24.85,-20.53 -16.2,-29.04 2.69,-2.65 9.04,-6.03 12.85,-5.24 -4.27,7.25 -4.5,16.61 1.5,24.46zm-23.58 -14.32c1,13.5 -1.06,14.05 7.16,21.89 10.74,10.24 33.71,9.57 40.37,-2.42 5.62,-10.09 2.1,-12.93 0.05,-22.67l-1.62 -2.62c-4.84,-8.52 -13.94,-12.3 -23.24,-9.72 -24.82,6.89 -16.82,9.43 -22.72,15.54z"/>
   <path class="fil25" d="M292.81 63.85l-4.36 -3.06c-1.81,-0.54 -2.56,0.1 -5.45,0.55 2.05,9.74 5.57,12.58 -0.05,22.67 -6.66,11.99 -29.63,12.66 -40.37,2.42 -8.22,-7.84 -6.16,-8.39 -7.16,-21.89 0.04,-3.27 0.52,-2.16 -0.39,-4.49l-5.22 -0.55c-8.85,21.82 9.86,38.71 28.59,40.99 11.62,1.42 22.47,-1.34 28.53,-7.56 4.92,-5.07 10.85,-19.78 5.88,-29.08z"/>
   <path class="fil13" d="M155.37 235.35c-0.91,-3.31 -1.93,-4.07 -2.68,-6.92l0.31 -7.62c3.27,1.5 2.28,2.43 5.02,5 10.56,-2.24 13.71,-5.87 19.99,-14.96 2,-2.9 3.38,-4.67 3.48,-8.85l-4.64 -3.64c-4.34,1.39 -3.8,3.68 -7.36,1.56l-7.24 -1.64 0.24 -6.85c-4.23,2.28 -0.63,1.63 -4.62,4.41 -3.42,2.38 -2,-0.23 -5.29,3.77 -2.76,3.34 -6.07,6 -5.22,10.29 1.8,9.09 -6.86,15.63 -10.89,21.85 13.55,-6.14 12.11,1.12 18.9,3.6z"/>
   <path class="fil26" d="M35.99 163.03c0.69,-13.38 34.01,-16.79 47.82,-14.84 8.85,1.25 16.55,5.04 24.61,7.23 9.04,2.46 15.83,6.34 22.03,9.99l2.38 -4.68c-1.3,-3.92 -1.91,-2.67 -9.35,-8.16 -3.44,-2.54 -6.98,-5.06 -11.57,-6.63 -9.12,-3.13 -18.04,-6.35 -28.89,-6.38 -34.49,-0.09 -29.45,0.11 -40.81,11.65l-8.68 9.06c0.68,5.82 -0.37,0.73 2.46,2.76z"/>
   <path class="fil3" d="M65.22 210c-1.45,9.12 -5.54,13.89 -12,18.28 -5.89,4 -18.54,3.22 -23.23,-1.53l-1.99 -1.07c-12.28,-3.7 -15.53,-28.8 3.86,-37.81 6.99,-3.25 18.81,-2.65 25.05,1.26 5.18,3.25 11.05,12.09 8.31,20.87zm-30.23 24.29c5.4,2.38 11.99,1.25 17.75,-0.64 6.83,-2.25 9.72,-4.85 12.7,-10.11 6.33,-11.19 6.38,-30.92 -1.44,-34.7 -4.29,-2.52 -4.89,-3.79 -10.64,-6.19 -4.59,-1.92 -10.1,-2.28 -15.41,-2.04 -28.55,1.35 -33.81,39.63 -9.74,51l6.78 2.68z"/>
   <path class="fil27" d="M257.99 467.53l-3.43 1.47c-0.43,5.91 1.72,6.74 0.87,13.37 4.8,-0.09 7.36,-0.22 12.03,-1.02 8.03,-1.38 1.46,0.4 7.55,0.92 4.4,0.38 12.39,-5.54 14.8,-8.47 8.31,-10.12 5.08,1.99 21.45,-8.59 3.55,-2.3 4.54,-2.97 5.88,-5.59 -6.76,1.46 -6.09,3.06 -15.14,3.12 -14.14,0.09 -9.39,-0.16 -12,-4.74 -3.49,2.28 -3.35,1.61 -5.02,4.18l-2.98 5.31c-2.98,-1.61 -1.02,1.56 -2.52,-2.79 -0.8,-2.31 0.8,-5.07 -0.2,-8.07 -1.46,-4.39 1.19,-0.1 -2.28,-3.63 -2.16,3.36 -3.69,7.86 -7.2,10.79 -2.36,1.98 -8.23,4.44 -11.81,3.74z"/>
   <path class="fil28" d="M28 225.68c-6.73,-11.92 4.43,-44.23 21.55,-31.28 8.25,6.24 3.01,13.36 3.25,18.77 0.26,5.97 -1.4,4.8 -3.09,8.83 1.68,1.46 -2.26,2.41 3.23,0.82 6.62,-2.45 9.6,-12.24 10.77,-20.24 1.75,2 0.96,0.1 1.56,3.42 0.23,1.24 0.01,2.76 -0.05,4 2.74,-8.78 -3.13,-17.62 -8.31,-20.87 -6.24,-3.91 -18.06,-4.51 -25.05,-1.26 -19.39,9.01 -16.14,34.11 -3.86,37.81z"/>
   <path class="fil29" d="M168.96 448.71l-3.96 -1.7c-2.78,1.54 -9.66,7.56 -15.92,9.01 2.76,-4.87 11.8,-7.2 12.07,-17.37 -7.63,-6.16 -4.35,-6.34 -2.86,-7.77l-3.35 -0.87c0.31,-3.61 1.01,-2.79 1.15,-3.93 0.05,-0.36 0.3,-0.41 0.43,-0.62 -3.91,-0.87 -3.45,0.22 -4.24,-3.72 -0.12,-0.59 0.11,-5.07 0.11,-6.19 -9.61,7.66 -3.07,15.47 -6.9,20.86 -2.2,3.1 -7.26,5.46 -10.4,18.59 3.08,2.86 8.96,5.83 13.24,8.41 6.36,-2.47 13.91,-9.63 15.3,-10.75l5.33 -3.95z"/>
   <path class="fil11" d="M157.33 63.45c1.8,3.18 6.77,7.36 9.21,10.02 2.75,3 5.26,6.8 8.15,10.89 4.03,5.7 7.26,15.22 13.31,24.67l5.48 -2.1c1.95,-5.24 -8.62,-23.04 -12.5,-30.04l-9.89 -15.91c-6.38,-9.31 -9.34,-8.36 -14.76,-11.44 -4.5,-2.56 -11.09,-4.81 -16.62,-4.87 5.95,5.83 15.79,4.12 24.46,19.06l-6.84 -0.28z"/>
   <path class="fil30" d="M86.82 68.53c1.51,-2.6 2.67,-5.59 4.43,-8.2 12.1,-18.04 42.15,-11.59 57.93,-2.54 3.18,1.82 5.41,4.62 8.15,5.66l6.84 0.28c-8.67,-14.94 -18.51,-13.23 -24.46,-19.06 -7.6,-0.27 -11.93,-2.3 -19.98,-1.41 -27.66,3.08 -16.67,-0.25 -33.92,12.55 -4.31,3.19 -7.5,7.26 -6.58,14.71l7.59 -1.99z"/>
   <path class="fil16" d="M229.81 59.5l5.22 0.55c0.91,2.33 0.43,1.22 0.39,4.49 5.9,-6.11 -2.1,-8.65 22.72,-15.54 9.3,-2.58 18.4,1.2 23.24,9.72l1.62 2.62c2.89,-0.45 3.64,-1.09 5.45,-0.55l4.36 3.06c-1.17,-8.64 -3.52,-12.96 -9.57,-17.11 -6.72,-4.6 -10.91,-5.94 -20.17,-6.77 -15.94,-1.42 -29.03,6.68 -33.26,19.53z"/>
   <path class="fil31" d="M195.07 249.63l1.7 4.38c1.35,-2.75 2.59,-3.83 2.61,-7.47 1.77,0.6 2.79,1.07 4.77,1.24 2.84,-5.3 3.41,-12.69 9.96,-15.44 -0.65,9.02 -5.58,16.55 -2.06,24.56 6.94,-2.07 2.1,-4.69 5.55,-16.59l3.36 -9.82c0.9,-2.84 0.15,0.4 0.8,-2.25 1.78,-7.22 0.93,-3.14 -0.4,-4.24 -4.28,-3.53 -7.38,3.64 -13.36,5.84 0.86,-5.92 2.36,-11.77 7.16,-13.84l-2.44 -5.74c-2.95,1.25 -5.47,3.47 -7.41,6.07 -2.69,3.62 -3.69,5.03 -5.49,9.5 -2.52,6.22 -4.8,16.14 -4.75,23.8z"/>
   <path class="fil24" d="M460.25 239.53c-6.59,-7.43 -5.15,-20.73 2.75,-26.13 4.33,6.67 1.77,20.84 -2.75,26.13zm-5.08 -32.66c-3.72,2.32 -8.5,16.98 -6.6,23.71 7.99,28.4 28.66,3.52 25.48,-11.78 -2.49,-11.99 -17.69,-12.67 -18.88,-11.93z"/>
   <path class="fil31" d="M288.78 281.74l3.41 1.36c10.45,-15.24 9.09,-15.98 11.27,-36.18 -3.75,0.99 -9.82,-0.52 -12.18,10.75 -1.65,-2.14 -0.45,0.2 -1.29,-2.55l-0.23 -6.76c-0.17,-9.71 -2.38,-8.35 -5.09,-8.79 -1.13,5.25 -0.12,12.88 -0.06,17.61 0.11,8.07 -2.13,9.68 -2.61,12.15 -1.27,6.57 -0.15,3.56 1.08,4.89 4.3,0.84 8.13,-7.9 10.97,-11.26l-3.64 11.56c-2.01,3.31 -3.34,2.24 -1.63,7.22z"/>
   <path class="fil25" d="M462.67 295.07l-2.15 -2.05c-5.03,-2.81 -8.46,-6.6 -13.32,-9.08 -6.56,-3.34 -9.76,-4.6 -14.83,-8.39 -6.44,-4.8 -12.43,-11.63 -19.4,-15.65 -4.3,-2.48 -4.7,-1.64 -9.36,-1.36 1.19,7.95 3.46,8.42 10.7,14.15 9.49,7.49 36.94,24.69 48.36,22.38z"/>
   <path class="fil32" d="M137.45 360.52c0.68,4.85 3.33,11.54 4.75,17.13 1.49,5.88 3.26,12.64 3.53,18.48l2.27 3.85c2.6,-3.07 3.86,-7.89 5.95,-12.07 7.02,-14 4.45,-12.95 -3.65,-24.2 -4.22,-5.87 -3.1,-6.28 -12.75,-6.33l-0.1 3.14z"/>
   <path class="fil6" d="M339.95 286.36c5.55,-0.14 3.83,-2.08 6.41,-5.91 2.36,-3.5 2.49,-1.27 5.04,-6.45 -1,-1.39 -1.22,-1.27 -2.09,-2.29 -3.96,-4.64 -1.93,-5.69 -6.31,-6.29 -0.59,1.3 -1.57,8.12 -6.06,5.74 1.98,-6.52 1.64,-16.54 1.13,-22.36 -0.9,-10.49 0.78,-13.34 -4.54,-20.72 -2.48,-4.92 -0.19,-0.95 -3.05,-2.94 -0.74,8.2 1.83,17.22 2,25.92 0.15,7.59 0.63,17.09 -0.42,25.94 2.85,1.32 3.14,1.25 7.41,1.38 0.03,2.81 0.11,6.35 0.48,7.98z"/>
   <path class="fil33" d="M297.7 394.87c-8.06,-5.56 0.95,-16.75 -2.7,-26.58l-3.03 3.71c-4.45,9.49 -13.58,19.46 -14.17,31.35 -0.09,1.76 -0.2,0.74 0.25,1.75 0.89,0.43 13.1,2.72 15.07,2.78l4.58 -13.01z"/>
   <path class="fil32" d="M132.47 309.52c5.64,0.15 9.22,3.29 13.1,5.76 0.3,-3.13 0.84,-4.99 2.21,-7.52 1.83,-3.38 1.18,-2.82 4.83,-4.17 11.11,-4.11 5.1,-1.88 13.67,0.43 -0.01,-4.07 -1.23,-9.57 -3.59,-12.73 -1.87,-2.48 -2.12,-2.28 -3.62,-4.38 -1.05,-1.46 -2.07,-3.14 -2.9,-4.99 -3.76,1.85 -2.44,2.24 -7.57,3.72 3.06,12.43 -4.09,9.03 -15.03,22.37l-1.1 1.51z"/>
   <path class="fil34" d="M29.99 226.75c4.69,4.75 17.34,5.53 23.23,1.53 6.46,-4.39 10.55,-9.16 12,-18.28 0.06,-1.24 0.28,-2.76 0.05,-4 -0.6,-3.32 0.19,-1.42 -1.56,-3.42 -1.17,8 -4.15,17.79 -10.77,20.24 -2.43,2.16 -3.95,1.86 -8.16,2.62 0.17,-0.22 0.41,-0.5 0.53,-0.66 9.92,-12.33 2.99,-32.19 0.08,-28.21 -0.35,6.28 2.41,26.21 -4.39,30.69 -6.31,-4.32 -1.46,-27.48 2.04,-31.99l-4.23 0.44c-1.32,2.81 -0.55,3.96 -1.37,7.91 -0.39,1.91 -1.23,4.07 -1.78,5.96 -1.51,5.25 -1.82,8.69 -2.16,13.81 -1.63,-1.96 -2.39,-2.2 -5.14,-0.39 1.63,2.49 0.47,-0.32 1.63,3.75z"/>
   <path class="fil35" d="M175.49 388.02c-0.1,5.65 -2.08,18.12 4.65,20.77 10.23,4.05 14.16,-5.96 14.48,-8.18 0.06,-0.41 0.21,-0.53 0.38,-0.75 1.96,2.38 6.55,12.91 13.91,15.27 -0.01,-3.75 -1.4,-6.97 -2.23,-10.86 -1.17,-5.47 -0.58,-6.23 -4.38,-8.61 -13.39,-8.38 -13.13,2.54 -13.28,3.03 -0.93,3.1 0.84,0.21 -1.02,2.28 -6.76,-0.97 -1.98,-9.86 -12.51,-12.95z"/>
   <path class="fil35" d="M295.75 412c4.78,3.06 7.87,2.99 14.12,4.28 6.13,1.27 0.22,2.09 6.23,2.98 3.31,0.5 5.38,-0.73 5.98,-3.36 0.71,-3.19 -5.94,-24.49 -7.97,-27.67 -4.04,2.78 -4.28,3.13 -6.12,8.8 -1.92,5.92 -3.98,3.41 -3.49,10.45 -5.56,-0.3 -6.32,0.91 -8.75,4.52z"/>
   <path class="fil36" d="M262.49 236.4l-0.56 5.71c-5.89,2.13 -5,-1.99 -7.42,-4.62 -3.37,-3.67 -1.5,0.42 -4.25,-2.8 -1.34,-1.56 -1.18,-3.06 -1.43,-4.95 -10.56,2.61 -16.86,17.28 -4.99,22.37 17.9,7.69 23.36,-10.68 18.65,-15.71z"/>
   <path class="fil37" d="M145.57 315.28c0.34,2.14 -0.78,1.26 0.43,2.71 5.8,0.13 8.27,4.35 11.23,6.81 3.3,-1.91 -3.38,1.5 2.03,-0.67l5.16 -3.69c2.58,-3.08 2.72,-4.51 5.43,-7.44 -3.23,-5.25 1.03,-6.38 -3.57,-8.98 -8.57,-2.31 -2.56,-4.54 -13.67,-0.43 -3.65,1.35 -3,0.79 -4.83,4.17 -1.37,2.53 -1.91,4.39 -2.21,7.52z"/>
   <path class="fil38" d="M28 225.68l1.99 1.07c-1.16,-4.07 0,-1.26 -1.63,-3.75 2.75,-1.81 3.51,-1.57 5.14,0.39 0.34,-5.12 0.65,-8.56 2.16,-13.81 0.55,-1.89 1.39,-4.05 1.78,-5.96 0.82,-3.95 0.05,-5.1 1.37,-7.91l4.23 -0.44 2.35 1.3c2.91,-3.98 9.84,15.88 -0.08,28.21 -0.12,0.16 -0.36,0.44 -0.53,0.66 4.21,-0.76 5.73,-0.46 8.16,-2.62 -5.49,1.59 -1.55,0.64 -3.23,-0.82 1.69,-4.03 3.35,-2.86 3.09,-8.83 -0.24,-5.41 5,-12.53 -3.25,-18.77 -17.12,-12.95 -28.28,19.36 -21.55,31.28z"/>
   <path class="fil39" d="M247.24 31.79c18.83,-0.94 15.73,0.56 27.26,0.97 1.97,-11.38 -0.84,-15.84 -12.55,-15.97 -5.73,-0.06 -11.07,0.53 -13.08,4.89 -1.3,2.82 -1.28,7.21 -1.63,10.11z"/>
   <path class="fil40" d="M212.07 384.01l2.36 4.73c1.09,3.22 0.11,2 1.9,4.92 0.53,0.86 1.6,2.13 2.5,3.43 0.09,0.13 1.16,1.8 1.2,1.85l1.97 2.39c4.26,-1.41 1.53,-1.67 9.07,-6.5l0 -0.83 -1.07 -1 -1.31 -2c-1.27,-4.31 -11.66,-25.7 -17.42,-26.92 -1.02,6.28 -0.46,14.52 0.8,19.93z"/>
   <path class="fil41" d="M351.65 417.51c0.18,2.08 0.15,4.92 1.96,6.44l1.43 -0.76c0.16,-0.09 0.54,-0.3 0.69,-0.38l1.28 -0.73c0.28,-12.14 3.12,-10.39 -0.84,-23.35 -2.39,-7.81 -2.07,-10.61 -6.17,-17.89 -2.99,0.95 -7.17,4.47 -9.28,7.16 1.52,3.2 2.25,2.42 3.57,6.96 3.08,10.61 7.22,13.99 7.36,22.55z"/>
   <path class="fil42" d="M231.07 394.83c-7.54,4.83 -4.81,5.09 -9.07,6.5l-1.97 -2.39c-0.04,-0.05 -1.11,-1.72 -1.2,-1.85 -0.9,-1.3 -1.97,-2.57 -2.5,-3.43 -1.79,-2.92 -0.81,-1.7 -1.9,-4.92l-2.36 -4.73c-0.01,9.52 0.83,16.87 2.39,25.48 15.48,6.53 12.34,3.76 19.39,-1.63 2.65,-2.02 3.7,-2.02 5.37,-5.4 -3.5,-2.17 -5.19,-3.91 -8.15,-7.63z"/>
   <path class="fil43" d="M392.1 196.61l3.1 16.58c6.57,-5.19 8.25,-16.7 25.98,-27.99 5.22,-3.32 6.71,-4.42 12.6,-6.2 -1.09,-0.82 0.48,-0.48 -2.54,-1.3 -5.76,-1.56 -37.62,17.13 -39.14,18.91z"/>
   <path class="fil43" d="M64 188.84c7.82,3.78 7.77,23.51 1.44,34.7 -2.98,5.26 -5.87,7.86 -12.7,10.11 -5.76,1.89 -12.35,3.02 -17.75,0.64 -4.56,1.66 -2.31,-2.85 -3.58,4.35 9.89,-0.04 11.43,2.43 22.79,-1.36 7.93,-2.66 12.09,-6.04 15.34,-11.75 2.2,-3.86 5.74,-15.96 5.1,-21.22 -1,-8.32 -5.7,-12.68 -9.03,-18.07 -2.36,0.63 -1.74,-1.39 -1.61,2.6z"/>
   <path class="fil44" d="M341.69 130.71l7.03 3.57c2.84,2.03 0.21,-0.38 2.35,2.56l2.93 3.64c0.42,-0.8 0.4,-0.23 0.94,-2.55 2.37,-10.28 -3.04,-15.36 5.64,-29.36 2.22,-3.58 4.31,-4.11 5.57,-7.63 -3.16,0.24 -6.98,2.18 -9.16,3.88 -3.7,2.88 -0.95,0.65 -3.03,4.09 -2.79,4.62 -4.57,5.39 -8.35,12.6 -1.59,3.03 -2.18,6.46 -3.92,9.2z"/>
   <path class="fil37" d="M345 318.28c2.72,-3.73 5.28,-4.06 9.96,-6.14 3.83,-5.15 -0.52,-6.04 -3.17,-7.93 -4.99,-3.57 -0.97,-2.48 -5.58,-8.18 -6.68,0.01 -4.04,0.99 -7.17,4.08 -2.45,2.42 -2.65,0.79 -5.6,3.89 0.63,5.48 2.28,4.44 5.22,7.34 3.8,3.76 0.94,5.22 6.34,6.94z"/>
   <path class="fil45" d="M242.59 123.47c2.45,0.82 4.84,0.07 7.75,0.08 4.99,0.01 3.7,0.75 9.11,1.87 -0.75,-4.28 -1.31,-3.03 -0.18,-7.12 9.69,-4.46 6.72,-4.54 11.79,-5.13 6.38,-0.73 2.61,0.78 4.9,-1.16 -16.91,-8.96 0.4,-1.12 -21.96,-6.28l-4.56 9.64c-2.24,3.46 -5.55,4.86 -6.85,8.1z"/>
   <path class="fil30" d="M197 147c-4.06,0.52 -12.09,6.54 -15.89,9.27 -2.53,1.83 -4.86,6.02 -2.47,10 2.11,3.5 2.26,3.1 6.82,1.15 2.66,-1.14 4.94,-2.63 6.66,-4.29 6.99,-6.78 5.28,-11.79 4.88,-16.13z"/>
   <path class="fil46" d="M456 356.58c1.6,-6.97 1.91,-11.32 3.92,-17.6 2.04,-6.36 4.56,-11.85 2.83,-18.63 -13.63,3.38 -14.49,34.2 -6.75,36.23z"/>
   <path class="fil16" d="M350.54 425.8c-2.89,3.99 1.7,10.63 1.06,19.08 3.18,-2.68 1.94,-2.01 6.69,-1.49 3.63,0.39 6.29,0.41 9.93,0.53l2.82 -0.92c-2.18,-2.82 -1.62,-2.75 -4.57,-5.45 -10.57,-9.69 -8.94,-13.68 -15.93,-11.75z"/>
   <path class="fil47" d="M152.39 415.55c0,1.12 -0.23,5.6 -0.11,6.19 0.79,3.94 0.33,2.85 4.24,3.72 -0.15,-3.84 1.79,-7.3 3.57,-10.37 4.4,-7.63 11.41,-8.92 11.31,-14.6 -0.06,-3.24 -0.77,-8.4 -2.77,-10.96 -0.92,3.06 -2.33,5.06 -3.82,7.27l-12.42 18.75z"/>
   <path class="fil3" d="M36.45 311l8.19 13.44c2.21,3.95 4.87,13.44 6.36,15.12 6.3,-7.02 2.4,-26.34 -8.65,-29.07 -3.63,-0.89 -3.22,-0.94 -5.9,0.51z"/>
   <path class="fil26" d="M57.49 297.58c7.99,0.36 5.04,2.06 12.96,-3.14 3.82,-2.5 7.61,-4.94 12.65,-5.44 2.37,-7.72 2.25,-1.94 2.12,-7.69 -0.08,-3.71 -4.31,1.49 -6.26,2.51 -5.46,2.86 -20.26,6.28 -24.49,9.18 1.09,2.88 -0.18,0.29 1.58,2.91 0.82,1.22 0.14,0.1 1.44,1.67z"/>
   <path class="fil48" d="M162.49 191.43l-0.24 6.85 7.24 1.64c0.73,-3.45 3.75,-6.82 5.41,-10.97 1.75,-4.36 2.94,-8.54 5.81,-11.03 -4.69,0.83 -8.9,1.72 -11.88,3.94 -2.32,1.72 -5.81,6.69 -6.34,9.57z"/>
   <path class="fil46" d="M45.39 196.57l-2.35 -1.3c-3.5,4.51 -8.35,27.67 -2.04,31.99 6.8,-4.48 4.04,-24.41 4.39,-30.69z"/>
   <path class="fil3" d="M417 100.33c-10.78,8.17 -5.91,20.18 -1.27,30 1.99,-2.22 1.64,-3.95 2.21,-7.51 1.06,-6.58 2.86,-17.07 -0.94,-22.49z"/>
   <path class="fil33" d="M249.14 404.81c2.24,2.14 -0.55,0.76 2.86,2.24 3.87,-2.93 3.43,-9.52 3.45,-15.51 -4.12,-0.47 -17.48,-5.79 -14.02,3.72 1.09,2.98 5.06,7.02 7.71,9.55z"/>
   <path class="fil46" d="M460.25 239.53c4.52,-5.29 7.08,-19.46 2.75,-26.13 -7.9,5.4 -9.34,18.7 -2.75,26.13z"/>
   <path class="fil0" d="M107 117.87c5.25,-7.89 0.35,-23.21 -5,-27.69 -3.74,9.27 -0.88,22.21 5,27.69z"/>
   <path class="fil49" d="M211.89 129.52l6.35 -2.08c-1.85,-5.96 -5.18,-7.12 -11.69,-8.03 -2.1,2.41 -9.7,6.39 -8.57,9.52 2.23,3.78 -0.31,2.73 5.39,1.74 3.35,-0.58 5.03,-0.82 8.52,-1.15z"/>
   <path class="fil26" d="M124.05 184.1c1.57,-5.16 4.47,-8.43 5.39,-14.1 -4.16,-3.62 -10.95,-5.97 -16.33,-7.86 1.55,5.42 5.73,10.81 9.12,18.6l0.62 1.41c0.91,1.8 0.48,1 1.2,1.95z"/>
   <path class="fil23" d="M261 371.41c-4.01,1.63 -3.76,2.81 -7,4.98 -1.42,-0.36 -4.17,-1.35 -5.29,-2.18l-2.89 -3.51c-0.09,-0.15 -0.24,-0.48 -0.41,-0.69 -1.08,16.25 2.92,11.83 1,17.64 5.03,-2.57 -5.48,-1.84 10.45,-1.85 1.51,-4.96 3.01,-9.17 4.14,-14.39z"/>
   <path class="fil27" d="M161.8 429.27c9.77,3.05 4.2,-0.95 10.2,-1.88 6.19,5.91 1.99,6.99 12.35,6.58l-8.15 -9.38 4.2 -1.55 -2.97 -4.71 -6.95 3.15c-0.1,0.07 -1.63,1.34 -1.64,1.35l-5.25 4.84c-1.23,0.93 -0.99,0.65 -1.79,1.6z"/>
   <path class="fil45" d="M331.01 175.59l1.28 2.99c3.69,-1.23 -1.2,-0.27 2.92,-1.3 1.56,-0.39 2.68,-0.35 4.32,-0.46l-0.34 -3.82c-0.33,-2.78 -2.73,-8.17 -3.69,-9.5 -1.64,-2.25 -4.57,-3.05 -7.76,-3.59 -1.88,5.62 3.95,7.77 3.27,15.68z"/>
   <path class="fil3" d="M268.48 345.71c12.18,2.71 14.05,-16.8 3.23,-15.01 -2.96,4.13 -4.65,10.55 -3.23,15.01z"/>
   <path class="fil3" d="M286.96 343c0.57,1.15 1.31,2.62 1.72,3.36l2.32 3.18c7.21,-0.39 2.52,0.05 5.9,-4.69 2.98,-4.19 2.64,-0.53 3.67,-6.85 -2.49,-1.7 -0.28,-0.5 -3.46,-1.7 -0.31,-0.12 -1.28,-0.44 -1.59,-0.54 -1.43,-0.42 -0.27,-0.39 -2.52,-0.57 -2.79,3.59 -2.39,4.91 -6.04,7.81z"/>
   <path class="fil38" d="M262.49 236.4c-0.22,-7.14 -6.95,-7.33 -13.66,-6.66 0.25,1.89 0.09,3.39 1.43,4.95 2.75,3.22 0.88,-0.87 4.25,2.8 2.42,2.63 1.53,6.75 7.42,4.62l0.56 -5.71z"/>
   <path class="fil3" d="M224.75 346.34c3.11,2.34 9.09,5.57 9.48,-1.42 0.21,-3.78 -2.48,-11.44 -8.19,-12.6 3.55,10.55 -2.93,2.17 -1.29,14.02z"/>
   <path class="fil35" d="M260 405.19c4.39,-0.93 9.02,-10.11 7.31,-14.5 -2.58,-0.89 -5.47,-0.77 -8.72,0.73 -0.18,5.55 -0.62,9.57 1.41,13.77z"/>
   <path class="fil3" d="M254.32 348.37c-0.95,-28.23 -12.18,-8.28 -7.54,-2.25 1.9,2.48 3.49,2.59 7.54,2.25z"/>
   <path class="fil35" d="M265.8 410.31c6.6,-0.39 6.35,-0.49 8.09,-6.26 0.87,-2.89 2.61,-6.11 3.15,-10.05 -3.99,-1.6 0.39,1.09 -3.46,-0.65 -3.46,-1.57 0.88,-0.86 -3.54,-2.23 -1.15,6.87 2.55,10.19 -1.74,16.11 -1.27,1.74 -0.2,0.21 -1.45,1.76 -0.12,0.14 -0.43,0.82 -0.51,0.65 -0.09,-0.17 -0.36,0.44 -0.54,0.67z"/>
   <path class="fil41" d="M368.87 452c2.41,2.75 8.98,6.67 12.84,8.06 -2.8,-5.71 -4.28,-10.8 -8.71,-15.13 -2.99,1.8 -3.99,2.87 -4.13,7.07z"/>
   <path class="fil35" d="M230.14 420c7.2,10.12 10.33,-1.56 10.69,-5.98l-8.89 1.05 -1.8 4.93z"/>
  </g>
 </g>
</svg>
