<?xml version="1.0" encoding="UTF-8"?>
<!DOCTYPE svg PUBLIC "-//W3C//DTD SVG 1.1//EN" "http://www.w3.org/Graphics/SVG/1.1/DTD/svg11.dtd">
<!-- Creator: CorelDRAW 2020 (64-Bit) -->
<svg xmlns="http://www.w3.org/2000/svg" xml:space="preserve" width="487px" height="512px" version="1.1" style="shape-rendering:geometricPrecision; text-rendering:geometricPrecision; image-rendering:optimizeQuality; fill-rule:evenodd; clip-rule:evenodd"
viewBox="0 0 485.51 510.25"
 xmlns:xlink="http://www.w3.org/1999/xlink"
 xmlns:xodm="http://www.corel.com/coreldraw/odm/2003">
 <defs>
  <style type="text/css">
   <![CDATA[
    .fil0 {fill:#020101}
    .fil33 {fill:#020202}
    .fil51 {fill:#050202}
    .fil65 {fill:#050404}
    .fil73 {fill:#0A0405}
    .fil50 {fill:#18130B}
    .fil46 {fill:#242C65}
    .fil41 {fill:#293575}
    .fil61 {fill:#2F3D88}
    .fil28 {fill:#31418E}
    .fil13 {fill:#3A7FAF}
    .fil3 {fill:#4960D7}
    .fil17 {fill:#51BEFB}
    .fil70 {fill:#52C0FD}
    .fil76 {fill:#64182B}
    .fil60 {fill:#6D1C31}
    .fil9 {fill:#7498F1}
    .fil34 {fill:#774939}
    .fil22 {fill:#77553B}
    .fil40 {fill:#793749}
    .fil57 {fill:#853352}
    .fil37 {fill:#854848}
    .fil55 {fill:#865546}
    .fil63 {fill:#894D36}
    .fil42 {fill:#8B3755}
    .fil29 {fill:#8B4855}
    .fil78 {fill:#90B1F6}
    .fil35 {fill:#917339}
    .fil69 {fill:#92FFF9}
    .fil6 {fill:#93DEF1}
    .fil43 {fill:#95544F}
    .fil53 {fill:#9C4E62}
    .fil45 {fill:#9F3D61}
    .fil1 {fill:#A48555}
    .fil14 {fill:#A62B49}
    .fil58 {fill:#A82C4A}
    .fil25 {fill:#A84469}
    .fil77 {fill:#A95B68}
    .fil74 {fill:#AB8B77}
    .fil31 {fill:#AD9884}
    .fil75 {fill:#B05650}
    .fil38 {fill:#B3616E}
    .fil11 {fill:#B36C4F}
    .fil52 {fill:#B39C87}
    .fil44 {fill:#B4A28A}
    .fil62 {fill:#B4A443}
    .fil4 {fill:#B57B65}
    .fil56 {fill:#B5AE38}
    .fil32 {fill:#B5D3FE}
    .fil49 {fill:#B66472}
    .fil26 {fill:#B68D15}
    .fil71 {fill:#B7816A}
    .fil67 {fill:#B84B72}
    .fil68 {fill:#B94C74}
    .fil20 {fill:#BCFEEC}
    .fil30 {fill:#C7A74C}
    .fil5 {fill:#C87A6A}
    .fil21 {fill:#C96F4E}
    .fil19 {fill:#CA4856}
    .fil39 {fill:#CB6476}
    .fil15 {fill:#CCAC51}
    .fil24 {fill:#CD5053}
    .fil64 {fill:#D4716F}
    .fil7 {fill:#D53A5B}
    .fil72 {fill:#D7B3AA}
    .fil10 {fill:#D98574}
    .fil54 {fill:#E7D38B}
    .fil47 {fill:#EAB4B8}
    .fil59 {fill:#ECB4A7}
    .fil16 {fill:#EFA993}
    .fil48 {fill:#F2CDAE}
    .fil66 {fill:#F2D7C9}
    .fil12 {fill:#F3B79A}
    .fil36 {fill:#F4EED8}
    .fil18 {fill:#F7909D}
    .fil2 {fill:#F8EDC1}
    .fil8 {fill:#F9F1C3}
    .fil27 {fill:#FAF6E7}
    .fil23 {fill:#FDD11C}
   ]]>
  </style>
 </defs>
 <g id="Layer_x0020_1">
  <metadata id="CorelCorpID_0Corel-Layer"/>
  <g id="_2955453610096">
   <path class="fil0" d="M284.06 480.05c-1.24,-3.47 0.51,-2.03 -4.28,-2.95 4.64,-13.36 12.55,-20.24 15.65,-34.54 0.76,-3.53 0.61,-11.26 3.84,-13.02 2.32,3.95 2.26,21.43 3.35,28.42 0.21,6.34 2.95,12.04 -0.63,17.35 -4.5,6.69 -6.73,3.16 -13.53,6.3 -2.86,1.62 -2.91,6.5 -10.63,7.3l-4.96 -0.7c4.27,-7.72 8.04,-2.18 11.19,-8.16zm-60.14 -10.74c5.16,-2.16 27.79,4.11 40.22,-2.41 3.55,-1.86 5.26,-3.87 8.79,-3.78l3.57 0.94c1.86,12.63 -12.65,16.18 -22.44,16.44 -2.82,0.07 -7.97,0.42 -10.5,0.11 -3.63,-0.44 -3.75,-1.57 -7.37,-2.92 -4.37,-1.64 -9.27,-4.32 -12.27,-8.38zm130.56 -39.26c-2.1,-1.53 -3.73,-2.29 -5.97,-3.55 0.7,-4.6 4.97,-7.87 9.6,-9.83 -0.9,5.66 -2.54,6.07 -3.63,13.38zm19.43 -20.33c2.58,-0.45 2.1,-0.71 4.84,-0.3l4.96 2.15 -1.39 7.11c-3.21,-0.7 -2.88,-0.86 -4.87,-3.54 -4.39,-5.87 -2.57,-0.99 -3.54,-5.42zm-348.65 12.92l4.24 1.65 3 -4.53c2.43,4.02 3.53,8.71 6.47,11.68 0.3,1.35 4.92,12.4 5.48,13.33 1.63,-0.53 0.83,0.02 1.89,-1.02 1.96,-9.66 -1.78,-10.74 -3.99,-18.89 -0.74,-2.71 -0.85,-6.94 -0.59,-10.15 0.46,-5.56 1.97,-4.47 3.69,-9.15 6.38,3.39 4.01,4.8 10.85,13.67 15.1,19.56 16.37,4.62 -8.59,38 -2.1,2.81 -1.02,2.34 -3.66,3.78 -4.06,-1.55 -0.99,-0.19 -2.41,-2.3 -5.97,-2.81 -17.65,-19.12 -19.7,-23.84 -2.97,-1.4 -0.99,-1.81 -1.56,-4.97 -0.87,-4.78 -1.68,-2.67 -2.91,-8.28 -0.95,-1.59 -1.78,-4.79 -2.26,-6.22 -1,-2.96 -1.66,-3.88 -2.59,-6.94 -0.39,-1.26 -0.49,-2.05 -0.87,-3.29l-3.16 -11.2c5.2,1.7 2.98,-0.4 5.73,5.41 1.55,3.28 2.48,4.81 3.91,7.67l7.03 15.59zm171.68 -34.31l5.72 2.25c34.98,3.6 37.04,-15.64 53.55,-1.15 10.3,9.04 6.15,1.47 15.62,6.41 0.02,6.83 -2.13,6.33 -6.52,9.15 -10.63,6.84 -17.5,12.48 -35.54,13.31l-27.17 -1.8c-4.74,-0.32 -6.05,-0.93 -7.98,0.36 3.32,3.09 17.02,6.94 23.96,7.38 13.18,-0.63 23.23,0.74 34.4,-5.28 12.47,-6.71 17.34,-14.58 26.36,-11.58 -0.51,5.41 -4.82,6.97 -11.86,11.33 -3.83,2.37 -3.07,2.29 -7.6,4 -9.09,3.43 -37.96,15.3 -47.53,8.44l-18.18 -0.21c2.01,7.17 15.66,7.43 23.09,7.75 12.31,0.53 18.12,-2.39 28.13,-3.79l3.87 -1.91c5.31,-2.18 14.78,-5.3 19.09,-8.09 2.99,-1.94 2.94,-3.44 5.98,-4.82 8.57,-1.33 12.15,-1.11 11,8.82 -3.79,3.94 -9.2,5.87 -14.33,7.71 -4.65,5.26 -15.38,9.72 -24.27,12.93 -7.27,2.63 -6.89,3.2 -15.81,3.19 -4.67,-0.01 -13.66,0.74 -17.65,-0.84l-7.93 -0.95c1.19,4.9 0.21,3.59 5.26,5.3 8.1,2.75 17.91,2.57 26.65,2 11.05,-0.73 20.38,-6.11 28.2,-9.33 0.17,-0.26 0.47,-0.92 0.57,-0.72l1.22 -1.25c0.16,-0.15 0.45,-0.36 0.63,-0.52 6.68,-5.93 -0.79,-3.93 7.09,-6.21l8.04 -1.1c3.43,9.82 3.19,16.07 -8.54,16.46 -5.95,3.14 -15.75,7.56 -24.96,8.48 -7.84,0.85 -14.38,1.14 -22.66,0.66 -13.25,-0.77 -6.69,0.9 -16.35,-5.43 -2.3,-1.52 -0.88,-0.54 -3.01,-2.25l-1.19 -0.97c-0.18,-0.14 -0.42,-0.33 -0.6,-0.48 -1.17,-0.94 -0.79,-0.6 -1.77,-1.42 -3.17,-2.62 -4.46,-3.59 -6.98,-5.47 -4.11,-3.06 -9.79,-7.68 -13.04,-10.77 -3.54,-1.01 -7.05,-5.75 -10.03,-8.15 -3.69,-2.97 -7.42,-5.44 -10.35,-7.7 0.13,-11.15 -1.88,-17.79 -2.24,-26.71 -1.26,-1.27 -1.59,-0.71 -1.72,-4.69 -0.16,-4.89 0.87,-2.61 0.85,-5.54 -0.04,-6.32 -1.73,0.85 -3.82,-8.2l10.69 -9.12c1.23,-1.04 0.01,-0.43 1.75,-1.49 8.55,22.24 8.94,14.7 11.74,42.39 -0.09,7.64 -4.06,13.53 3.94,15.07l2.07 -2.99 -1.22 -9.7 -0.32 -16.49c-0.16,-0.21 -0.31,-0.84 -0.35,-0.7 -0.05,0.14 -0.27,-0.56 -0.33,-0.74 -0.06,-0.19 -0.21,-0.56 -0.28,-0.8l-2.96 -11.81c-1.67,-4.02 -1.14,-1.1 -2.8,-6.65l-2.25 -7.37c27.65,1.57 24.08,4.2 43.57,6.72l-18.56 3.38c8.18,6.43 20.53,-2.09 26.26,-0.79 5.24,1.2 1.97,2.65 8.16,3.72 -6.88,6.26 -38.59,8.68 -38.76,8.77zm-81.51 20.65c-1.56,-1.77 1.06,-0.34 -2.8,-7.36 -3.79,-6.88 -10.07,-22.63 -6.79,-29.03 0.97,-1.89 4.84,-4.42 7.2,-5.49 11.79,-5.4 16.66,-11.77 23.4,-14.33 -1.24,2.37 -2.35,3.74 -3.52,6.07l-9.06 20.29c-4.4,10.24 -3.43,21.16 -8.43,29.85zm-44.64 -46.05c2.66,4.99 5.3,10.09 6.89,16.87l2.8 8.9c0.84,4.05 -0.12,8.07 0.25,12.49 1.43,3.21 0.85,2.33 4.49,2.79 0.68,-1.45 0.72,-2.16 1.4,-3.37 0.8,-1.4 1.43,-2.02 2.67,-3.68 2.08,-2.77 2.76,-4.05 4.4,-7 3.36,4.5 7.68,9.58 10.98,15.56 3.2,5.79 4.74,12.55 10.86,17.14 0.17,-0.22 0.48,-0.8 0.57,-0.63 0.08,0.18 0.43,-0.48 0.55,-0.63 0.98,-1.28 0.44,-0.33 1.42,-1.94l5.09 -13.77c1.76,-4.88 4.78,-14.09 6.97,-17.98 0.14,0.2 0.26,0.32 0.28,0.67 0.89,13.95 -2.8,14.49 2.45,34.13 1.34,5.04 -0.96,2.39 2.52,4.26 4.38,-2.34 1.46,1.03 2.27,-4.6 0.53,-3.69 -1.12,-0.9 1.35,-5.9 2.91,0.81 14.18,13.88 19.46,17.36 9.39,6.19 9.29,4.31 22.58,15.21 7.41,6.07 13.67,10.57 21.74,16.1 6.44,4.42 21.5,12.5 23.41,16.18 -8.73,0.33 -7.63,0.28 -14.79,-2.77 -4.89,-2.08 -7.85,-4.02 -13.15,-4.69 -9.49,-1.21 -5.62,-0.88 -12.67,-4.05 -4.37,-1.96 -10.49,-2.39 -15.71,-2.41 7.37,6.35 22.77,7.41 29.48,13.48 -12.16,-0.16 -22.09,-3.83 -32.1,-7.55 -12.78,-4.76 -10.62,-4.18 -20.96,-9.43 -3.98,-2.02 -4.36,-1.8 -6.56,-4.4l-6.33 1.99 -4.4 -7.6c0,0.02 -1.72,7.7 -7,2.67l-14.99 -9.03c-3.91,-3.47 -4.14,-1.85 -8.2,-4.41 -10.71,-6.73 -16.77,-15.92 -19.08,-17.73 -3.7,-2.9 -3.59,-0.78 -6.85,-5.66 -9.25,-13.87 -19.96,-21.6 -26.99,-34.99 -4.23,-8.08 -13.6,-28.27 -13.35,-36.97 2.64,-0.96 8.53,0.09 12.41,0.5 8.02,0.84 9.52,-1.36 15.9,-0.82l9.94 15.71zm399.28 -23.16c1.38,1.58 0.5,0.13 1.93,2.92 0.53,1.03 1.05,2.46 1.57,3.69 1.55,3.59 1.61,2.81 2.07,7.46 -0.18,0.11 -0.54,-0.04 -0.6,0.2 -0.15,0.57 -0.59,-0.47 -1.79,1.04l-1.53 3.21c-0.09,0.17 -0.23,0.55 -0.43,0.77 -11.36,-8.6 -1.93,-2.05 -10.71,-15.4l-11.92 2.02c-4.95,2.9 -12.14,-1.74 -14.22,-5.49 5.14,-4.69 12.06,-4.28 19.36,-6.08 8.99,-2.21 12.23,-1.11 16.27,5.66zm-44.97 -40.52l0 0zm-5.24 -12.59l4.2 10.49c-3.12,-2.28 -4.2,-5.06 -4.2,-10.49zm-14.05 18.56c-3.32,-0.33 -4.16,-2.14 -5.77,-4.98 -6.42,-11.29 -24.49,-43.06 -26.42,-51.54 5.32,2.41 5.41,5.8 11.62,6.84 6.85,1.15 6.95,0.32 11.02,5.38 3.8,4.71 10.27,16.65 11.65,24.28 -4.52,-1.89 -6.77,-3.76 -9.68,-6.31 -3.38,-2.94 -4.19,-5.04 -9.38,-6.41 -0.95,14.08 11.71,18.09 16.96,32.74zm-36.71 -83.88l9.97 11.63c9.89,13.09 26.49,23.13 27.18,33.96 -1.67,-1.22 -3.04,-2.82 -4.43,-4.22l-11.86 -13.33c-10.57,-10.53 -8.64,-8.13 -20.45,-13.25l-0.41 -14.79zm-51.32 -32.23c-0.77,-9.31 -2.37,-13.59 -4.44,-22.83 5.12,0.79 5.89,1.56 7.39,5.38l3.12 7.55c0.07,-0.17 0.3,0.47 0.48,0.69 0.5,-1.12 0.43,-0.19 0.48,-2.27l-1.56 -7.48 5.28 0.4c1.29,3.74 -0.87,2.31 1.9,5.94 1.59,2.1 8.81,3.63 1.2,14.83l-13.85 -2.21zm-139.09 -63.94c5.57,0.82 10.52,2.9 15.73,4.68 1.51,0.52 0.86,0.16 2.38,0.82 0.31,0.13 1.15,0.55 1.44,0.71l9.34 6.49c8.27,5.96 13.83,15.94 16.5,26.55 -2.72,1.14 -3.86,2.57 -6.9,3.62 -4.01,1.39 -19.81,3.92 -25.98,1.86 -4.29,-1.43 -21.31,-13.36 -22.6,-16.67 -19.2,-11.42 -9.78,-34.89 10.09,-28.06zm-70.98 19.13c-2.57,-5.55 -0.83,-13.4 3.52,-17.44 2.86,1.22 2.49,1.54 4.91,4.43 -0.57,5.3 -3.26,11.36 -8.43,13.01zm246.01 18.75c-0.12,-10.16 1.1,-17.24 4.56,-26.06 5.23,-13.32 6.06,-14.71 14.98,-13.69 0.24,7.32 -6.69,6.89 -8.74,7.28 -2.19,8.37 -4.73,10.9 1.17,18.19l8.31 -0.98c-0.25,13.64 -8.93,21.17 -20.28,15.26zm-202.2 -14.72c3.74,6.88 6.34,8.78 11.93,13.69 3,2.62 5.04,4.01 7.27,6.37 1.97,2.08 4.12,3.89 6.68,5.08 3.66,1.73 17.75,13.55 32.99,5.65 4.79,-2.48 1.87,-3.51 8.85,-4.68 3.05,-3.89 3.06,-1.93 7.96,-4.74 14.04,-7.49 5.22,-11.35 4.6,-12.21l-2 -5.06c-1.59,-4.16 -3.43,-5.73 -5.12,-8.75 -2.62,-4.7 -2.29,-4.17 -5.7,-7.81 -5.86,-6.26 -8.36,-7.96 -14.99,-12.23 -2.05,-1.32 -6.42,-3.35 -9.22,-4.43 -13.98,-5.41 -17.42,-4.06 -21.64,-5.76l10.78 -3.12c10.49,-1.56 25.88,3.75 29.58,8.08 13.44,7.38 22.72,14.27 31.91,26.52 4.02,2.89 4.39,6.27 9.49,7.27 4.53,-11.67 -14.35,-24.64 -18.91,-29.85l-23.75 -16.81c6.53,2.04 12.64,5.6 18.51,9.04l17.69 9.71c16.59,9.95 35.47,0.21 42.09,13.3 -1.33,3.75 -4.14,6.7 -8.18,8.44 -0.2,-0.16 -0.44,-0.44 -0.56,-0.55l-1.08 -1.09c-2.45,-2.44 -6.35,-6.03 -10.18,-5.14 1.55,1.18 4.34,4.18 6.33,5.75 -1.12,1.05 -4.39,3.63 -5.77,4.61 -0.76,1.89 -1.97,4.19 -2.64,6.88 1.31,1.59 -2.73,1.17 2.89,1.33l0.4 -3.8c2.42,-0.69 12.88,-3.5 15.17,-4.52 6.29,-2.8 3.02,-6.02 14.22,-6.59l5.42 1.59c5.13,2.68 2.63,2.16 4.73,7.22l5.59 0.79c-1.99,-4.42 -4.29,-7.84 -5.35,-11.09 3.55,0.34 8.19,1.34 11.45,2.86 3.87,1.81 3.53,3.22 9.01,1.89 -0.81,-7.24 -3.18,-4.68 -6.79,-8.57 -4.74,-6.38 -0.5,-7.94 -11.53,-10.17 -0.02,0.05 -0.29,1.51 -0.97,2.84 5.74,0.35 6.81,1.7 8.42,6.4 -11.17,-1.95 -16.42,-0.24 -27.21,-0.16 -2.14,-3.42 -2.73,-4.49 -4.66,-7.47 4.62,-1.04 6.52,-3.64 10.02,-2.14 4.22,1.8 3.12,4.73 7.91,5.15 -1.56,-4.75 -2.21,-4.99 -6.4,-8.1 17.2,-12.77 12.86,-8.38 12.21,-17.54 4.21,-0.01 3,0.34 5.99,1.06 5.5,1.33 10.76,-1.65 15.02,4.3 5.18,4.47 20.39,-0.08 27.08,1.68 1.17,7.52 -3.82,8.34 -7.11,14.94 -2.37,4.77 -4.96,10.7 -5.09,16.32 -1.64,6.35 -2.16,16.46 -1.16,23.4l5.79 0.97c-2.9,2.93 -5.18,3.15 -6.09,8.57 5.33,2.12 4.69,3.36 9.73,-0.94 13.74,-11.72 8.78,-4.41 17.99,-9.29 6.19,-3.28 4.2,-5.37 6.48,-6.51 -2.81,6.82 2.12,2.38 0.09,10.1 -3.82,2.14 -6.66,1.63 -10.24,3.19 -3.63,1.58 -4.32,3.99 -7.49,6.15 -6.8,4.63 -9.81,7.57 -10.45,17.69 4.1,-1.67 2.71,-1.27 4.9,-4.49 1.58,-2.31 0.12,-1.85 3.33,-3.09l-2.23 13.01c-0.72,16.12 -0.17,42.28 7.72,54.98 7.5,12.08 10.57,19.57 16.41,30.88 5.49,10.64 5.43,7.96 2.2,9.92 -2.07,0.99 2.44,3.58 -3.35,-0.31l-12.34 -18.24c-2.19,-3.61 -16.65,-30.79 -16.93,-35.06 -0.26,-3.9 3.46,-7.83 -0.59,-13.54 -5.16,-7.28 -4.22,0.43 -6.15,-11.8 -0.87,-5.52 -2.69,-9.64 -3.15,-14.07 -4.09,-6.27 -1.86,-26.99 -1.35,-35.03 0.92,-14.84 3.44,-22.53 -4.32,-32.71l0.31 0.16 -4.41 -0.55c0.2,11.19 2.47,18.4 -3.94,26.86 -6.08,-0.33 -4.67,-3.05 -12.61,-3.75 -5.01,-0.43 -9.87,-0.35 -15.03,-0.51 -4.44,0.53 -14.99,4.32 -18.76,6.29l5.38 1.66c5.45,0.35 6.89,-2.97 10.18,9.26 2.09,-1.53 2.27,2.52 1.37,-3.1l-2.52 -7.29 3.82 -1.18c1.57,-1.15 -0.63,-0.36 2.02,-1 1.63,-0.4 1.59,-0.07 3.05,-0.03l6.1 13.1c0.68,1.02 0.58,0.41 1.07,2.38 0.41,1.67 0.15,0.08 0.31,1.89 0.15,1.71 -0.21,3.51 -0.32,5.5 -10.82,-0.47 -12.62,0.54 -22.08,2.89l-2.97 -9.07c-1.75,-2.07 -2.52,-3.6 -5.25,-4.5 -2.51,1.77 -2.55,-0.75 0.02,2.99 1.81,2.64 4.86,4.47 4.59,11.69l-13 7.47c-0.9,-1.26 -1.41,-2.22 -2.55,-3.79 -1.99,-2.72 -1.01,-0.37 -2.73,-3.88l-3.74 0.2c2.35,2.93 5.18,5.14 4.86,9.28 -0.74,9.68 -13.22,4.08 -19.3,24.47 6.27,-1.06 3.95,-1.85 6.92,-6.18 1.24,-1.8 4.75,-4.27 7.09,-5.77 5.22,0.87 3.42,3.73 9.37,0.24 0.11,-6.66 0.86,-0.46 -1.59,-4.73 4.7,-2.22 15.39,-14.67 28.5,-13.71 3.1,-2.89 11.2,-1.09 15.86,-0.04 7.73,17.9 0.56,8.63 -4.71,13.23 2.04,3.02 10.37,3.55 9.62,11.91 -3.91,-0.15 -5.56,-1.74 -8.84,-2.1 -8.49,-0.95 -26.7,12.18 -26.82,12.31 -1.97,-1.57 -0.44,-0.13 -1.84,-1.82 -2.6,-3.14 -1.17,-3.03 -3.8,-5.35 -2.23,3.35 1.21,5.73 3,8.2l-4.1 4.08c-9.07,-7.84 -4.34,-8.94 -10.12,-9.1 1.19,5.81 5.29,6.67 7.03,11.27 -3.35,3.59 -5.57,5.4 -4.76,9.99 9.64,1.34 9.54,-14.86 35.8,-19.84 2.33,-1.84 8.82,-1.84 11.87,-1.61l1.77 0.24c1.23,0.16 -0.98,0.78 3.16,0.47 4.51,-9.99 -1.34,-11.53 -2.05,-16.8 -0.02,-0.15 -0.03,-0.46 -0.03,-0.61l0.27 -1.29c0.05,-0.2 0.19,-0.49 0.24,-0.7 1.33,-5.64 0.46,-5.44 -1.47,-12.18l10.56 1.43c1.87,7.87 15.05,21.86 4.47,25.92 -3.37,-4.4 -0.11,-7.94 -5.25,-12.72 -1.25,2 -0.88,0.04 -0.76,3.27l2.34 7.63c-2.39,1.99 -4.06,1.51 -5.93,4.43 17.53,1.37 3.1,1.06 16.06,6.87 10.23,4.59 3.85,10.25 5.88,17.52 1.2,4.29 5.21,4.49 2.35,12.14 -5.91,0.88 -13.49,-9.72 -34.12,0.62 -1.9,0.63 -3.36,1.13 -5.76,2.59 -10.01,6.07 -4.44,2.99 -12.6,-1.7 -3.36,1.49 -7.24,4.34 -5.89,9.5l5.89 -5.06c0.96,1.1 0.72,0.34 2.08,2.68 1.1,1.88 0.69,0.79 1.05,2.78l-1.02 5.93c-12.62,1.41 -20.31,-0.67 -18.21,16.23 -3.39,2.06 -3.49,0.54 -6.69,4.17 0.46,2.23 -0.47,1.35 1.56,1.88l9.9 -3.95c-0.1,-5.2 -0.89,-5.61 0.85,-10.49 8,-3.71 11.71,1.85 15.94,-7.34 3.41,0.64 3.94,3.14 6.42,-0.74 2.2,-3.43 0.59,-1.83 -0.87,-7.88 5.45,-1.57 9.31,-5.39 16.95,-5.22 12.96,-3.74 16.29,2.55 24.48,3.65 6.33,0.85 6.67,-0.03 9.93,4.58 2.88,4.08 3.56,6.03 3.39,11.9l-5.79 3.69c-2.7,0.59 -4.88,-0.52 -6.72,-1.44 -1.22,-4.4 0.63,-8.35 -3.3,-12.33 -2.1,-2.12 -7.03,-4.75 -9.55,-2.52 3.01,4.28 11.62,2.49 8.76,13.39 -4.87,-1.85 -10.76,-1.25 -16.62,-0.86 -5.39,1.72 -8.64,3.09 -12.32,5.63 -4.09,2.82 -7.86,4.75 -8.67,10.42l5.24 -0.21c2.18,-4.83 9.63,-7.73 16.48,-9.6 4.99,-1.79 10.25,-0.69 14.66,0.89 13.24,1.85 25.36,-6.8 27.15,2.57 1.19,6.25 1.12,4.64 -3.48,5.45 -0.93,0.17 -12.61,-0.93 -22,1.58l-4.44 0.97c-2.87,-3.54 -2.68,-5.47 -7.88,-7.01l2.77 9.33c-0.18,0.14 -0.45,0.36 -0.64,0.51l-1.24 0.95c-2.3,1.68 0.57,0.12 -2.48,1.63 -2.3,-1.24 -5,-3.23 -5.68,-6.42 -2.46,-1.2 -3.38,-2.16 -6.54,-2.66 1.73,4.16 6.04,7.32 8.61,12.28 -1.24,1.37 -2.52,2.34 -3.74,3.31 -2.92,-2.54 -2.08,-3.72 -7.15,-4.43 1.54,5.56 9.45,8.45 -0.2,17.67 -10,-1.38 -8.85,-13.02 -12.6,-16.22 -6.63,3.28 -2.62,21.59 14.48,20.1 4.58,-8.14 15.67,-21.13 26.26,-23.71l11.72 -0.98c5.4,-0.12 11.27,1.39 16.63,2.41 5.25,0.99 8.13,1.5 9.53,7.78 -5.14,0.68 -9.15,0 -13.77,1.1 -5.02,1.2 -6.34,1.98 -12.35,2.15l-5.3 0.27c-0.77,-2.12 -0.68,-1.55 -1.67,-3.55 -1.25,-2.51 -0.5,-0.22 -1.11,-2.3 -5.28,-1.35 -1.8,-1.48 -6.98,-2.65 2.23,6.43 6.74,1.14 6.92,9.55 -7.69,3.86 -17.88,2.06 -17.39,12.9 10.42,-2.54 6.53,-7.82 13.74,-2.1 3.38,2.68 0.87,2.28 3.79,2.21 1.26,-3.94 -0.04,-2.58 -2.45,-6.64 10.03,-1.03 16.29,-2.83 20.11,9.75 -18.48,1.43 -23.63,-3.61 -38.01,4.6l-2.76 -5.99 -4.31 2.17c0.4,5.39 4.25,7.02 2.33,14.09 -1.18,4.33 -1.66,2.72 -1.89,7.79 -0.4,8.49 1.79,14.37 5.92,21.75l7.7 11.49c5.16,0.95 4.47,5.53 10.19,1.88 -0.94,-5.4 -4.22,-6.72 -6.43,-11.67 -2.69,-2.5 -4.86,-9.81 -5.61,-14.14 -2.02,-11.49 2.91,-22.78 17.92,-21.82 13.04,0.82 8.09,0.14 18.32,-2.22 2.21,-3.78 0.99,-2.37 4.91,-5.13 2.67,-1.87 3.23,-1.28 3.58,-5.76l-3.41 0.08 -5.52 2.53 -3.19 -6.35c-0.9,-1.41 -2.45,-3.53 -2.88,-4.18 1.67,-1.8 0.4,-1.83 9.19,-1.99 30.88,-0.59 16.34,1.75 25.57,5.54 -7.22,0.68 -10.06,-0.07 -15.33,2.48 1.93,11.33 11.41,-0.04 24.29,4.77 5.69,2.13 18.18,9.35 21.08,13.34 3.08,-0.12 13.38,4.87 17.59,6.62 3.42,1.43 5.5,2.15 8.27,4.34 4.98,3.94 4.36,2.19 8.78,4.52l-14.56 2.16 1.7 4.61c10.13,2.45 8.47,-1.89 15.59,-1.72 1.5,5.4 0.09,5.91 -1.84,8.66 -1.87,2.66 -2.33,5.61 -4.85,7.91 -3.76,2.14 -2.91,0.48 -5.76,1.63 -2.74,1.1 -1.52,1.72 -4.98,3.04 -6.38,2.44 -5.36,-0.62 -12.64,4.32 -3.1,2.1 -7.43,2.84 -12.45,3.14 -4.3,0.25 -13.15,1.68 -15.99,-1.98 -1.73,0.38 -4.26,1.66 -6.04,1.76 -0.77,0.04 -6.87,-0.74 -9.25,-0.96 -4.1,-0.38 -17.05,0.04 -17.81,-0.42 -9.66,-0.9 -9.18,4.2 -17.11,4.36 -1.97,3.62 -1.07,1.65 -4.55,4.36 -16.13,12.53 -6.89,6.54 -13.47,12.76 -6.14,5.8 -12.3,11.33 -12.46,22.97l1.86 2.53c4.38,-1.91 10.41,-6.18 12.89,-10.29 2.87,0.86 2.75,1.52 4.57,2.34 3.31,1.49 3.28,0.51 6.68,1.53 4.09,1.23 6.49,4.13 12.62,1.94l0.57 -26.77c2.25,2.32 3.58,3.95 6.35,7.7 2.64,3.57 2.92,5.47 9.35,5.59 2.93,-5.36 4.08,-11.21 7.1,-17.59 5.73,0.76 17.84,27.14 17.59,0.67 9.58,-0.63 18.54,1.33 27.15,-2.28l10.48 -4.3c3.93,-1.43 9.4,-2.54 12.27,-3.14 1.53,-3.09 3.14,-4.97 7.04,-5.57 8.41,7.54 6.28,15.92 8.62,26.85 3.25,15.22 4.24,15.5 -0.62,30.16 -1.57,4.75 -2.14,8.98 -5.82,12.03 -4.49,3.73 -17.69,8.5 -24.51,12.26 -4.83,2.65 -7.28,2.72 -14.13,0.24l7.07 -13.12c3.2,3.37 1.98,5.62 7.35,6.78 5.63,-2.43 7.49,-10.46 8.24,-18.57 -3.99,-0.02 -5.43,7.45 -8.24,11.02l-2.43 -3.45c-1.31,-2.44 -0.63,-2.06 -2.82,-4.56 -6.36,1.55 -4.61,5.61 -8.21,8.95 -1.97,10.02 -9.8,5.72 -12.78,5.27 -0.91,1.48 -0.13,0.8 -0.75,2.71 -2.4,7.39 -3.5,2.8 -14.66,-2.69 -2.1,-1.03 0.12,0.15 -2.01,-1.16 -9.17,-5.65 -33.7,-7.8 -44.48,-9.89 -4.73,-0.92 -20.84,-5.53 -23.13,-4.72l-0.64 -2.14c-2.17,-0.29 -9.41,-0.92 -11.03,-1.66 -3.8,-1.74 -3.12,-4.61 -4.72,-8.78 -1.81,-4.68 -5.75,-16.41 -6.19,-20.79 -0.21,-0.18 -0.5,-0.8 -0.58,-0.63l-9.36 -13.99c-3.53,-3.92 -11.32,-8.21 -13.03,-11.57 -6.28,-2.19 -11.84,-7.18 -16.28,-10.55 -4.28,-3.25 -11.69,-7.32 -14.81,-10.53l-8.72 -5.27c-2.13,-0.62 -1.61,0.82 -1.78,-0.93 -5.63,-2.46 -21.41,-9.92 -28.39,-10.55 -5.07,-0.46 -9.18,1.92 -16.8,0.07 -2.71,-0.66 -5.04,-2.25 -6.66,-2.63 -5.13,-1.17 -2.54,1.65 -6.77,-0.21 3.8,-1.41 14.51,-4.52 9.29,-11.5 -3.85,-2.25 -8.17,0.56 -11.79,2.48l-12.04 5.17c2.97,-6.37 13.99,-10.24 14.79,-18.14 -17.3,3.27 -15.21,12.69 -31.62,16.23 3.28,-5.56 16.3,-15.09 23.45,-17.96 4.52,-1.82 6.94,-0.66 8.92,-5.27 -8.08,-2.41 -17.15,4.66 -25.37,5.93 1.19,-4.12 3.91,-8.06 2.69,-12.39 -5,-0.62 -2.71,-0.44 -5.96,2.38l-15.08 12.92c-3.12,3.11 -15.7,13.15 -20.41,15.95 0.35,4.22 -3.6,0.2 -8.22,5.16 -2.7,2.9 -2.08,3.62 -6.08,6.73 0.37,-4.08 3.76,-11.05 5.5,-14.82 2.3,-5.01 3.52,-8.97 5.89,-13.72 4.29,-8.59 10.08,-19.31 15.39,-23.98 1.49,-3.57 3.39,-6.66 6.41,-9.18 2.34,1.17 0.48,0.31 2.08,2.25 10.12,12.23 13.66,-9.6 15.63,-12.65 0.88,-1.36 1.88,-2.31 2.44,-4.04 1.3,-4.03 1.43,-2.45 -0.82,-2.94 -0.93,1.95 -3.64,7.87 -4.55,9.15l-7.44 6.92c-4.23,-6.6 0.82,-5.28 0.62,-12.67l-7.47 1.72c-1.56,4.47 -16.18,21.19 -23.75,36.42 -5.72,11.5 -9.35,24.14 -14.56,37.19 -1.09,2.74 -0.88,2.74 -2.56,3.57 -0.77,-5.03 -0.93,-7.18 -1.07,-12.27 -0.39,-14.28 -6.04,-10.84 -1.84,-28.55 0.73,-4.75 -0.1,-9.89 0.86,-14.69 1.08,-5.38 6.06,-8.55 2.74,-11.32 -3.56,-1.61 -6.09,1.55 -7.66,4.05 -2.02,3.23 -1.46,5.8 -4.09,8.59 -1.8,-4.42 -1.85,-10.68 -1.34,-15.84 0.64,-6.52 2.33,-8.55 2.86,-13.59 0.68,-8.48 5.15,-15.88 3.83,-21.82 -0.58,-2.64 0.18,-0.78 -1.15,-2.53 -7.32,1.45 -5.59,12.24 -8.17,18.24 0.06,8.54 -2.4,15.3 -2.49,23.96 -0.11,9.49 2.91,15.04 2.9,21.96 -0.01,8.42 -1.18,13.95 0,23.31l3.12 18.69c-0.17,2.96 0.43,0.47 -0.61,1.92 -5.53,-11.59 -14.73,-29.99 -17.39,-43.08 -2.26,-11.13 -2.63,-32.46 -2.22,-44.85 0.13,-4.06 -0.23,-10.82 2.04,-14.17 0.71,-27.46 3.68,-44.86 10.8,-70.35 1.63,-5.81 0.97,-4.29 5.72,-6.02 2.16,3.85 2.04,4.82 5.51,7.36 3.34,-3.41 5.15,-5.57 8.02,-9.87 2.08,-6.23 4.78,-9.46 8.26,-13.16l-0.8 -3.74c-3.88,1.23 -11.38,12.64 -13.9,16.28 -1.8,-0.36 -4.51,-1.39 -5.48,-1.86 3.2,-6.93 3.98,-12.87 10.65,-17.06 9.55,-6 9.68,-11.86 21.57,-20.43 3.07,-2.22 3.36,-4.92 5.42,-8.42 5.18,-8.83 11.97,-16.66 21.48,-20.33 3.73,-1.43 11.01,-7.29 16.37,-10.87 20.47,-13.67 9.11,-15.63 35.39,-4.81 4.74,1.95 5.2,1.63 8.87,3.9 -7.32,-2.02 -14.65,-5.53 -23.75,-5.23 -8.61,0.28 -15.33,3.18 -21.32,8.42 -2.86,2.51 -6.25,3.52 -8.18,6.43 -1.05,1.58 -1.28,3.3 -2.12,5.3 -4.21,10.03 -9.27,9.81 -3.66,28.7zm-17.55 -42.96c3.01,-7.08 19.65,-20.65 26.89,-26.3 12.61,-9.84 18.74,-14.21 38.47,-14.6 5.93,-0.12 18.14,1.64 21.91,5.05 6.27,5.66 36.59,33.68 38.65,41.4 -9.71,-1.81 -29.93,-9.56 -35.74,-15.15 -6.53,-1.67 -5.84,-4.1 -9.96,-4.37 -4.58,-0.31 1.46,2.15 -4.98,-0.31 -6.26,-2.4 -19.52,-6.65 -25.61,-4.91 -10.55,3.03 -8.39,1.35 -18.45,7.73 -4.65,2.94 -10.06,7.85 -12.97,12.99 -10.31,-0.23 -7.01,-0.06 -9.19,3.67 -3.59,6.18 -4,4.11 -7.63,8.13 -2.03,2.26 -7.87,10.63 -8.93,11.19 -1.51,-10.14 -1.08,-20.39 7.54,-24.52zm122.73 -25.9c3.99,0.65 5.56,2.39 9.91,4.64 8.12,4.19 7.63,2.68 19.46,9.85 3.05,1.84 1.7,0.67 4.03,3.35 3.3,3.8 2.79,4.29 2.53,8.73 -6.95,4.91 -10.49,6.55 -22,5.45l-1.64 -3.13c-0.24,-0.17 -0.53,-0.41 -0.67,-0.54 -0.15,-0.12 -0.49,-0.38 -0.66,-0.53 -7.96,-7 -25.41,-32.78 -26.02,-37.57 4.54,0.74 12.58,6.68 15.06,9.75zm-97.01 -9.71c-4.18,3.73 -9.09,2.78 -14.23,6.55l-5.78 4.73c-0.19,0.2 -1.34,1.5 -1.52,1.7 -5.26,6.03 -6.18,4.48 -11.14,11.88 -1.42,2.13 -0.75,1.53 -2.36,3.02 -3.07,2.86 -2.33,0.9 -5.04,5.3 -1.48,2.41 -2.03,4.14 -4.27,5.7 -5.99,9.58 -6.36,4.43 -9.64,8.77 -2.6,3.44 -1.33,9.45 -6.02,11.43 -4.73,-4.6 -8.33,-16.77 -8.33,-24.82 0.01,-12.96 3.26,-14.79 9.45,-24.11 3.25,-4.89 11.23,-14.52 15.21,-18.36 7.14,-6.87 1.32,-5.18 3.83,-10.91 1.28,-2.92 5.82,-6.48 8.53,-7.7 2.53,-3.17 6.66,-4.84 10.81,-5.88 1.38,-1.65 15.77,-11.04 18.65,-12.04 8.16,-7.8 16,-2.84 20.51,-2.67 4.14,0.16 24.97,-5.77 42.66,0.08 2.77,0.92 4.15,1.71 6.36,3.21 1.41,0.96 1.98,1.48 3.2,2.17 15.66,8.86 13.23,12.59 18.63,23.17l6.72 11.72c-5.98,-0.72 -12.19,-3.02 -16.74,-3.56 -2.69,-0.32 -7.53,-0.17 -10.43,-0.16 -2.07,0 -6.33,0.28 -7.92,-1.12l-1.72 -1.85c-6.83,-5.6 -26.89,-3.51 -33.48,-1.59 -3.53,1.03 -16.97,12.58 -25.94,15.34zm-4.41 -53.93c-4.02,4.66 -13.64,7.01 -19.12,9.26 -3.64,1.5 -5.63,2.15 -9.45,4.09 -7.01,3.57 -4.9,3.57 -7.94,3.44 -1.47,3.93 -2.67,3.92 -5.76,7.03 -1.87,1.88 -3.8,4.13 -5.31,6.23l-18.25 27.92c-9.34,14.95 0.72,6.63 -3.91,14.44 -5.35,11.95 -2.27,6.37 -4.75,13.45 -3.83,-0.75 -4.3,-3.82 -7.72,-1.42 -2.35,1.66 -1.39,4.78 -2.78,6.75 -6.79,-2 -24.8,-12.61 -27.25,-19.21 -5.45,-0.08 -6.01,-3.24 -6.33,4.65 3.44,1.81 13.96,11.14 15.85,13.06 4.54,2.55 7.77,4.54 12.02,6.39 3.9,1.7 10.93,1.78 13.77,4.05 1.74,1.39 6.18,7.73 7.96,9.76 2.79,3.17 6.22,6 6.09,11.87 -4.63,2.2 -13.72,2.55 -18.95,0.99l-5.27 -0.74c-3.99,0.78 -4.8,-0.18 -9.37,-0.66 -7.11,-0.75 -2.64,0.02 -7.51,1.47 1.61,3.69 -1.54,0.74 2.67,3.82 0.81,0.6 3.18,1.1 4.02,1.21 5.15,0.68 3.9,-0.83 8.11,1.56 23.51,1.17 13.51,0.51 32.69,-2.44l4.74 7.36c-6.36,5.53 -17.47,7.02 -26.58,8.18 -6.48,-0.01 -9.59,-2.9 -11.06,4.36 3.27,1.56 6.06,1.5 10.18,1.77 5.21,0.35 3.65,-0.56 8.9,-0.63 -8.19,8.47 -4.27,13.97 -7.89,20.36 -0.74,1.31 -1.17,1.81 -1.89,3.58 -0.95,2.32 -2.05,6 -2.56,7.88l-9.73 32.19 -6.99 -13.97c-0.61,-1.94 -0.99,-2.6 -1.67,-5.05 -2.59,-11.98 -9.43,-25.44 -13.66,-36.22 -2.27,-5.78 -5.16,-12.23 -7.45,-17.7 -2.16,-5.2 -5.66,-12.97 -7.36,-18.12 -0.97,-5.16 -3.64,-12.26 -5.06,-17.9 -1.69,-6.73 -2.88,-12.08 -4.44,-18.9 -1.21,-5.58 -0.85,-14.8 -0.19,-21.18 5.33,-3.11 3.4,0.78 7.5,-5.75l12.42 -14.97c5.39,-3.49 2.97,-0.72 6.65,-5.86 3.39,-4.75 9.05,-9.53 12.67,-13.59 16.04,-18.01 29.37,-19.12 56.73,-23.05 7.37,-1.06 15.29,-3.72 23.32,-3.36 4.99,0.22 21.33,1.1 24.93,2.05 -3.16,1.29 -1.61,1.84 -5.02,1.55zm280.73 306.52l-3.56 2.63c-5.06,-3.15 -3.17,-5.01 -6.12,-10.17 -1.51,-2.64 -5.03,-5.25 -7.58,-8.14l-14.2 -16.72c3.01,0.59 2.8,1.68 7.67,4.33 4.62,2.51 4.75,1.6 7.31,5.31 5.85,8.48 7.73,7.71 11.87,14.36l0 0.79c2.41,1.61 2.95,2.22 4.88,4.46l2.47 -3.15c-3.53,-5.28 -6.43,-7.45 -10.56,-11.49 -2.36,-2.31 -2.09,-1.03 -3.09,-5.31 4.4,0.37 1.59,-0.32 3.76,1.49 4.83,4.02 9.03,17.15 17.67,11.63 3,-1.92 1.94,-0.77 2.72,-3.67 -3.2,-4.36 -1.6,0.45 -7.34,-3.07 -4.52,-2.78 -12.39,-16.17 -14.83,-24.1l-5.43 -13.46c-3.18,-9.64 -0.35,-7.8 -12.54,-21.06 -2.25,-2.44 -3.89,-3.88 -6.44,-6.15l-7.44 -5.16c-2.81,-2.04 -4.48,-3.29 -6.41,-6.18l-4 -5.46c-4.73,-4.84 -9.16,-11.78 -12.72,-17.78 -3.02,-5.09 -0.81,-14.68 0.52,-20.4 2.53,0 7.2,-0.55 9.39,-1.1 11.89,-3.02 11.12,-32.57 9.4,-41.84 -1.02,-5.51 -4.19,-10.98 -6.02,-16.02l-5.31 -11.49c-0.08,-0.26 -0.14,-0.56 -0.22,-0.82l-4.5 -9.15c-4.14,-6.6 -11.76,-5.02 -21.46,-6.81 -13.02,-2.41 -13.73,2.2 -18.02,2.2 -5.07,-1.35 -3.37,-3.02 -11.87,-3.65l-7.94 0.88c-0.15,-0.02 -0.46,-0.08 -0.62,-0.12 -4.89,-1.19 -7.83,-6.13 -11.81,-8.96 -6.21,-4.43 -11.5,-11 -18.72,-13.89 -7.01,-2.81 -4,2.73 -10.74,-3.87 -8.25,-8.07 -8.82,-10.06 -13.89,-19.72l-10.47 -22.07c-5.53,-12.16 -16.64,-19.68 -30.44,-19.95 -22.4,-0.45 -8.34,-5.36 -28.39,-5.32 -7.45,0.02 -7.96,1.85 -12.57,4.3 -3.57,-2.39 -1.42,-2.9 -5.88,-2.7 -5,0.23 -2.94,1.11 -7.91,-0.28 -6.52,-1.82 -7.93,-1.58 -14.53,-2.27 -6.45,-0.68 -11.11,-1.99 -17.36,-1.76 -5.33,0.2 -6.82,-1.16 -12.07,-1.43 -3.23,-0.17 -5.99,0.25 -8.75,0.5 -14.93,1.35 -25.12,7.59 -45.6,9.35 -7.84,0.67 -11.4,5.76 -15.44,11.72 -0.12,0.18 -0.28,0.45 -0.4,0.64l-1.68 2.52c-2,2.68 -2.26,2.45 -4.05,5.4 -3.95,6.52 -8.08,9.97 -13.55,14.79l-11.97 12.18c-9.01,10.42 -20.23,27.7 -17.15,41.55 0.77,3.49 0.67,4.04 1.18,8.31l8.46 29.33c4.92,15.33 10.88,31.46 18.31,45.73 5.05,9.69 8.12,19.44 12.36,29.62l9.32 17.98c0.12,0.2 0.26,0.47 0.36,0.68 0.06,0.11 1.26,2.84 1.3,2.91 6.63,15.3 6.09,5.15 1.75,30.7l-1.93 15.05c-0.57,4.46 -1.77,12.87 -1.83,18.11 -0.17,13.44 -0.36,26 4.24,34.68 -15.31,3.57 -36.59,2.12 -39.61,5.45 -0.88,0.96 -1.28,3.15 -0.97,4.84 1.88,10.47 4.8,22.12 10.21,31.63 0.93,1.63 0.58,0.82 1.69,2.51 1.43,2.19 0.06,-0.12 1.57,2.62l9.26 15.94c-1.14,4.28 -4.11,6.22 -5.25,10.5 -2.13,-1.57 -5.48,-6.98 -7.34,-9.46 -1.3,-1.74 -2.1,-2.76 -3.72,-4.68l-4.43 -5.01c-10.48,-11.52 -4.45,-10.63 -4.87,-17.68 -0.25,-4.16 -1.32,-2.43 -4.83,-4.11 -7.42,4.96 -5.84,10.21 -6.72,21.31 -0.51,6.55 -1.3,21.83 0.72,30.77l3.3 16.74c0.99,4.98 1.86,6.04 4.43,9.22 4.44,5.51 9.77,8.63 14.19,14.16l13.88 12.37c6.43,1.92 17.01,-1.36 25.74,-9.14l2.96 -2.29c0.19,-0.13 0.45,-0.29 0.65,-0.4l12.63 -10.47c2.25,-2.46 1.91,-1.45 2.75,-4.59l5.35 5.15c0.15,0.15 0.37,0.37 0.53,0.51 0.57,0.54 1.74,1.58 2.24,1.96 2.76,2.1 2.51,1.31 5.18,3.22l14.62 10.57c3.47,2.59 5.38,5.31 8.81,7.99l7.44 5.16c10.52,6.55 7.58,2.85 13.34,5.48 5.56,2.54 6.22,3.25 12.54,4.33 4.74,0.8 7.08,3.07 12.24,4.55 18.35,5.27 37.61,8.13 56.59,10.6 5.83,0.76 9.59,1.1 15.41,1.39 9.71,0.47 28.1,6.42 38.86,7.32 1.61,-2.32 0.17,-1.3 3.15,-2.1 -0.18,-8.32 -1.13,-4.74 7.18,-8.57 1.32,-0.61 3.13,-1.39 4.35,-1.94 10.52,-4.72 19.55,-12.93 29.08,-19.29 4.87,-3.24 2.82,-0.95 8.19,-1.29 9.97,-0.62 28.34,-9.17 52.46,1.22 3.79,1.63 3.91,2.48 7.45,3.78 2.29,0.85 -2.08,-0.76 1.74,0.51l1.74 0.63c1.27,0.5 3.27,1.33 4.44,1.73 17.86,6.09 11.27,11.97 35.62,10.61 7.49,-0.42 10.23,0.49 18.2,-1.67l17.25 -6.92c9.15,-4.61 13.28,-9.83 16.22,-19.47 4.87,-16.03 3.28,-15.48 2.88,-31.76 -0.15,-6.19 -1.46,-15.39 -2.7,-21.45 -1.43,-6.97 -4.11,-13.17 -8.85,-16.34 0.57,-5.14 0.54,-1.69 0.99,-3.09 2.23,-6.98 4.65,-8.65 7.38,-14.91 3.23,-7.4 -4.08,-5.11 -0.8,-19.64 0.98,-4.38 1.66,-4.69 0.64,-9.31 -1.94,-8.79 -8.28,-26.59 -16.56,-30.78 -6.24,-3.16 -22.59,0.31 -29.03,2.15z"/>
   <path class="fil1" d="M237.97 299.53c4.11,-4.29 2.21,-7.99 8.68,-8.76 3.71,4.94 0.09,1.67 1.44,6.23 1.01,3.39 1.78,3.31 2.16,8.4 -3.67,2.15 -6.87,10.69 -10.95,1.35 -2.94,2.01 -1.18,1.37 -2.97,3.09 -7.07,6.82 -9.26,3.81 -12.97,3.33 2.81,-23.61 8.42,-13.6 14.61,-13.64zm-46.96 8.21c-3.96,-4.57 -4.45,-9.88 -3.06,-16.82 0.63,-3.16 0.38,-2.4 2.01,-4.45 3.2,1.34 3.26,0.87 2.53,4.53 -0.26,1.28 -1.77,5.27 -2.12,5.97 2.07,1.63 1.98,1.56 3.79,4.15l4.97 -0.13c5.09,-8.33 2.73,-13.25 8.68,-14.5 2.01,3.68 -1.94,10.01 -3.95,14.04 -2.79,5.56 -5.09,7.49 -12.85,7.21zm80.54 -20.78c14.32,10.21 -13.16,6.03 -6.52,-4 2.68,0.55 4.21,2.36 6.52,4zm-33.3 -47.91c3.71,-1 9.57,-4.45 11.85,-4.9 8.16,-1.63 5.74,5.77 16.52,16.82 2.89,2.97 6.92,5.03 7,9.19 -3.89,2.54 -4.39,1.77 -7.33,-1.46 -10.88,-11.95 -6.58,-6.53 -11.18,-20.21 -6.28,0.98 -10.14,6.06 -15.18,6.77 -6.29,0.88 -9.85,-4.74 -5.57,-10.09l3.89 3.88zm-16.97 -9.98c-1,4.99 1.08,11.77 -0.04,17.27 -0.47,2.32 -1.51,6.36 -3.07,7.77 -5.31,4.84 -8.38,-1.39 -9.75,-3.96 -4.79,-8.97 -9.05,0.53 -4.26,-16.29 1.58,-5.54 0.25,-2.86 3.41,-7.18 4.34,0.27 3.76,1.45 5.54,0.81 0.61,-0.22 -0.57,-1.77 5.33,-1.89 1.25,1.21 1.68,1.46 2.84,3.47zm0 0c2.03,-2.7 0.67,-2.21 4.07,-2.96 3.72,-0.82 0.19,-0.01 4.58,-1.66 0.95,4.59 -0.83,8.99 -4.28,11.17l-4.37 -6.55zm80.54 -33.29l8.31 1.24c0.67,12.46 -5.84,9.52 -11.75,11.84 -5.67,2.23 -1.37,0.96 -4.49,2.78 -1.4,-1.77 -2.11,-3.64 -3.52,-5.81 3.46,-6.17 3.31,-5.27 11.45,-10.05zm-88.85 13.68c-0.96,2.51 -1.51,3.42 -4.09,5.89 -1.96,1.86 -2.62,2.02 -4.9,3.34 -1.14,0.65 -9.59,5.66 -9.92,6.03l-1.29 2.76c-3.49,12.56 4.69,7.38 -5.89,17.29l-1.11 1.02c-5.24,4.65 -3.7,4.48 -4.3,16.72 -3.1,1.83 -3.96,-0.15 -6.11,4.16 0.11,4.19 0.15,7.48 0.05,11.64 -0.22,8.47 0.96,7.5 1.96,8.76 7.46,-4.17 5.25,-12.67 12.29,-12.64 0.26,4.77 -6.99,17.48 -11.24,20.49 -5.91,0.26 -7.74,-2.69 -8.26,-8.47 -0.22,-2.41 0.36,-11.88 0.96,-14.65l-5.3 15.98 -1.43 -2.93c-0.64,-1.49 -0.28,-1.15 -0.71,-1.94l-1.62 0.87c2.25,0.49 2.12,-1.09 0.82,2.94 -0.56,1.73 -1.56,2.68 -2.44,4.04 -1.97,3.05 -5.51,24.88 -15.63,12.65 -1.6,-1.94 0.26,-1.08 -2.08,-2.25 -3.02,2.52 -4.92,5.61 -6.41,9.18 6.14,-0.59 3.28,-0.83 5.22,-1.85 1.41,-0.75 1.16,-1.2 3.02,-1.12 3.64,0.16 4.57,2.33 6.28,3.77 -0.95,2.69 -0.77,0.8 -1.74,4.08 -1.93,6.55 -0.44,8.24 -4.73,13.6l-3.99 2.29c-0.06,-0.17 1.04,-0.71 3.45,3.05 0.12,0.19 0.31,0.56 0.42,0.86l15.08 -12.92c3.25,-2.82 0.96,-3 5.96,-2.38 1.22,4.33 -1.5,8.27 -2.69,12.39 8.22,-1.27 17.29,-8.34 25.37,-5.93 -1.98,4.61 -4.4,3.45 -8.92,5.27 -7.15,2.87 -20.17,12.4 -23.45,17.96 16.41,-3.54 14.32,-12.96 31.62,-16.23l1.44 1.05c7.84,4.25 7.72,-1.12 11.24,10.63 14.21,1.86 8.55,2.67 12.47,3.92l12.92 3.43c6.11,2.05 17.64,9.66 20.3,16.28 0.17,1.75 -0.35,0.31 1.78,0.93l-1.58 -3.74c3.97,0.5 7.49,1.08 12.41,0.8 -0.28,0.1 0.4,2.46 -2.32,-0.78 -1.21,-1.44 -0.87,-0.38 -1.45,-3.27 -0.4,-2.02 0.12,-6.44 0.4,-8.59 4.73,-1.77 7.87,-1.35 9.41,-5.77 2.79,-7.99 -6.57,-6.68 -7.19,-6.83 -2.36,-4.27 -5.06,-8.17 -7.31,-12.54 -4.12,2.07 -4.78,0.77 -7.02,4.88 -0.05,-7.11 -0.94,-3.7 2.58,-7.28 2.32,-2.37 2.49,-2.83 3.57,-6.01 1.39,-4.09 3.67,-11.92 6.18,-13.75 1.66,2.42 1.7,3.48 0.21,6.14 7.77,0.24 -0.03,3.07 11.33,2.2 3.86,-1.7 1.95,-6.09 9.4,-11.43l1.92 -1.3c-2.03,-0.53 -1.1,0.35 -1.56,-1.88 3.2,-3.63 3.3,-2.11 6.69,-4.17 -2.1,-16.9 5.59,-14.82 18.21,-16.23l1.02 -5.93c-0.36,-1.99 0.05,-0.9 -1.05,-2.78 -1.36,-2.34 -1.12,-1.58 -2.08,-2.68l-5.89 5.06c-1.35,-5.16 2.53,-8.01 5.89,-9.5 8.16,4.69 2.59,7.77 12.6,1.7 2.4,-1.46 3.86,-1.96 5.76,-2.59l-0.92 -3.48c-3.61,-0.32 -5.25,-0.93 -4.49,-3.97 0.41,-1.6 1.64,-1.16 2.26,-6.83 -2,-1.44 3.12,-2.47 -3.97,-0.85 -5.76,-0.6 -20.91,7.1 -24.99,10.28 -4.84,3.77 -3.82,5.69 -7,10.64 -1.64,2.56 0.03,-0.63 -1.54,2.6 -5.04,10.45 -11.43,1.92 -4.73,-2.33 5.69,-3.62 2.15,1.61 5.1,-4.47 8.04,-16.63 2.54,-12.21 14.97,-15.5 1.14,-0.3 5.63,-2.15 6.78,-2.7 6.94,-3.31 10.76,-2.69 13.21,-6.26l-2.46 -1.91c-0.08,-1.49 0.85,-8.68 -1.58,-9.85 -26.26,4.98 -26.16,21.18 -35.8,19.84 -0.81,-4.59 1.41,-6.4 4.76,-9.99 -1.74,-4.6 -5.84,-5.46 -7.03,-11.27 5.78,0.16 1.05,1.26 10.12,9.1l4.1 -4.08c-1.79,-2.47 -5.23,-4.85 -3,-8.2 2.63,2.32 1.2,2.21 3.8,5.35 1.4,1.69 -0.13,0.25 1.84,1.82 0.12,-0.13 18.33,-13.26 26.82,-12.31 3.28,0.36 4.93,1.95 8.84,2.1 0.75,-8.36 -7.58,-8.89 -9.62,-11.91 5.27,-4.6 12.44,4.67 4.71,-13.23 -4.66,-1.05 -12.76,-2.85 -15.86,0.04 -13.11,-0.96 -23.8,11.49 -28.5,13.71 2.45,4.27 1.7,-1.93 1.59,4.73 -5.95,3.49 -4.15,0.63 -9.37,-0.24 -2.34,1.5 -5.85,3.97 -7.09,5.77 -2.97,4.33 -0.65,5.12 -6.92,6.18 6.08,-20.39 18.56,-14.79 19.3,-24.47 0.32,-4.14 -2.51,-6.35 -4.86,-9.28l3.74 -0.2 0.01 -3.98c-4.45,-1.14 -2.47,-2.34 -9.4,-2.17l-8.07 0.12c-0.12,-0.29 -0.51,-0.15 -0.74,-0.29 -2.63,4.48 -2.62,5.12 -7.45,8.12 -3.14,1.95 -24.78,9.82 -31.09,15.68z"/>
   <path class="fil2" d="M391.47 445.41c-5.31,-1.04 -1.45,1.03 -3.52,-2.34 1.46,-1.51 -3.15,-1.48 3.5,-2.66 3.74,-0.67 18.85,3.63 13.68,18.58 -5.15,0.52 -11.17,-2.41 -11.04,-7.05 4.14,-0.91 2.77,0.34 7.13,1.93 -1.42,-11 -5.5,-7.64 -9.75,-8.46zm13.67 -8.38c3.06,-13.8 5.17,-13.53 18.15,-13.73 3.39,-0.05 4.58,0.68 7.06,2.79 2.46,-2.26 2.12,-2.63 7.2,-1.8 3.06,15.27 -15.28,25.26 -21.16,22.43 -3.76,-2.22 -0.53,-0.07 -2.6,-3 -2.71,-3.84 -2.18,-2.24 -8.65,-6.69zm44.91 -3.18c1.99,-9.65 13.28,-11.74 15.24,0.55 2.28,14.3 -10.54,15.42 -10.4,5.52 1.65,-0.73 1.78,-0.41 2.74,-0.8 2.29,-0.92 0.65,0.14 2.43,-1.3 -1.27,-8.96 -1.87,-3.52 -10.01,-3.97zm-120.53 11.01c-1.82,-0.38 -3.38,-2.65 -5.35,4.5 2.34,1.62 5.5,0.94 7.92,3.83 5.86,-0.96 6.97,0 11.86,1.33 3.54,0.96 8.99,0.42 13.75,-0.19 27.17,-3.46 23.05,2.03 50.18,10.17 4.64,1.39 7.72,3.56 11.06,4.66 6.88,2.27 8.2,-1.19 11.6,-3.35 3.6,-3.34 1.85,-7.4 8.21,-8.95 2.19,2.5 1.51,2.12 2.82,4.56l2.43 3.45c2.81,-3.57 4.25,-11.04 8.24,-11.02 1.46,2.34 2.26,-3.53 1.1,4.09 6.81,-7.94 5.49,-9.31 13.4,-6.72 1.94,-18.44 4.9,-30.24 -4.52,-45.31 -2.27,-3.63 0.19,-2.8 -3.22,-3.12 -2.87,0.6 -8.34,1.71 -12.27,3.14l-10.48 4.3c-8.61,3.61 -17.57,1.65 -27.15,2.28 0.25,26.47 -11.86,0.09 -17.59,-0.67 -3.02,6.38 -4.17,12.23 -7.1,17.59 -6.43,-0.12 -6.71,-2.02 -9.35,-5.59 -2.77,-3.75 -4.1,-5.38 -6.35,-7.7l-0.57 26.77c-6.13,2.19 -8.53,-0.71 -12.62,-1.94 -3.4,-1.02 -3.37,-0.04 -6.68,-1.53 -1.82,-0.82 -1.7,-1.48 -4.57,-2.34 -2.48,4.11 -8.51,8.38 -12.89,10.29l-1.86 -2.53z"/>
   <path class="fil3" d="M25.77 136.79c1.7,5.15 5.2,12.92 7.36,18.12 2.29,5.47 5.18,11.92 7.45,17.7 4.23,10.78 11.07,24.24 13.66,36.22 0.21,-0.13 0.48,-0.65 0.55,-0.5l1.56 -2.63c0.56,-1.48 0.85,-3.27 1.55,-4.88l2.31 -4.19c2.89,-5.26 7.98,-15.14 7.09,-20.39 -3.18,-18.83 -13.31,-20.33 -17.52,-23.36 -1.05,-0.76 -2.45,-1.86 -3.41,-2.52 -1.01,-10.25 1.86,-10.32 4.93,-11.71 4.87,-1.45 0.4,-2.22 7.51,-1.47 4.57,0.48 5.38,1.44 9.37,0.66l-5.06 -4.66c-5.9,-5.23 -5.38,-6.63 -9.44,-9.42 -3.22,-2.21 -2.82,-1.18 -5.26,-4.18 -1.67,-2.05 -2.45,-3.29 -4.24,-5.2 -7.1,-7.58 -1.79,-10.58 -7.47,-21.92 0.32,-7.89 0.88,-4.73 6.33,-4.65l3.11 -2c22.63,15.6 18.47,1.93 39.39,2.43 4.63,-7.81 -5.43,0.51 3.91,-14.44l18.25 -27.92c1.51,-2.1 3.44,-4.35 5.31,-6.23 3.09,-3.11 4.29,-3.1 5.76,-7.03 -5.78,2.06 -0.68,0.63 -4.83,2.68 -2.2,1.08 -2.02,0.74 -4.6,1.54 -13.58,4.19 -2.97,-0.72 -18.13,6.15 -8.35,3.78 0.01,-1.74 -12.42,5.44 -4.78,2.76 -8.48,2.1 -21.13,12.49 -3.23,2.65 -8.66,7.45 -10.4,10.64 -3.1,5.71 -11.88,12.37 -15.68,20 -2,4.04 -1.37,38.27 -1.31,42.79l-4.5 2.44z"/>
   <path class="fil4" d="M277.91 302.15l-1.92 1.3c-7.45,5.34 -5.54,9.73 -9.4,11.43 -11.36,0.87 -3.56,-1.96 -11.33,-2.2 1.49,-2.66 1.45,-3.72 -0.21,-6.14 -2.51,1.83 -4.79,9.66 -6.18,13.75 -1.08,3.18 -1.25,3.64 -3.57,6.01 -3.52,3.58 -2.63,0.17 -2.58,7.28 2.24,-4.11 2.9,-2.81 7.02,-4.88 2.25,4.37 4.95,8.27 7.31,12.54 0.62,0.15 9.98,-1.16 7.19,6.83 -1.54,4.42 -4.68,4 -9.41,5.77 -0.28,2.15 -0.8,6.57 -0.4,8.59 0.58,2.89 0.24,1.83 1.45,3.27 2.72,3.24 2.04,0.88 2.32,0.78 -4.92,0.28 -8.44,-0.3 -12.41,-0.8l1.58 3.74 8.72 5.27 0 -1.17c6.89,-0.36 12.32,-0.12 16.8,-2.69 0.09,-0.18 0.14,-0.73 0.14,-0.59 0,0.02 3.18,3.91 -4.56,-11.81 -2.61,-5.29 -1.32,-13.04 0.22,-17.57 4.43,-0.33 12.12,0.78 15.94,2.69 1.23,-2.1 1.83,-2.35 2.96,-4.48 1.68,-3.16 1.39,-2.17 0.44,-4.65 -2.66,-0.74 -7.38,-5.93 -7.74,-9.83 4.13,0.71 3.47,0.49 5.54,3.7 3.29,5.12 1.09,2.74 4.23,4.67 1.51,-4.13 0.54,-1.47 4.02,-4.15 0.75,-0.58 1.53,-1.18 2.19,-2.08 1.68,-2.29 0.12,1.07 1.81,-3.36 -5.22,-0.28 -1.91,1.69 -4.48,-1.85 -1.63,-2.24 -0.76,-10.83 7.64,-16.02 3.95,-2.44 1.58,-2.65 5.67,-2.08l0.26 5.27c2.72,-2.49 2.84,3.73 2.23,-4.19l5.45 -1.48c0.33,-0.15 0.76,-0.33 1.08,-0.59l-5.24 0.21c0.81,-5.67 4.58,-7.6 8.67,-10.42 3.68,-2.54 6.93,-3.91 12.32,-5.63l6.29 -2.07c0.81,-0.1 3.06,0.04 4.06,0.04 -0.05,-3.96 -0.41,-1.99 -0.91,-3.25l-4.12 -7.13c-4.35,-6 -2.01,-4.95 -10.12,-4.04l0.22 -3.61c-7.64,-0.17 -11.5,3.65 -16.95,5.22 1.46,6.05 3.07,4.45 0.87,7.88 -2.48,3.88 -3.01,1.38 -6.42,0.74 -4.23,9.19 -7.94,3.63 -15.94,7.34 -1.74,4.88 -0.95,5.29 -0.85,10.49l-9.9 3.95z"/>
   <path class="fil5" d="M315.93 302.43c-0.32,0.26 -0.75,0.44 -1.08,0.59l-5.45 1.48c0.61,7.92 0.49,1.7 -2.23,4.19 -2.17,1.56 -5.62,3.47 -6.83,5.39 -1.25,1.98 -2.5,6.98 -2.26,9.29 -1.69,4.43 -0.13,1.07 -1.81,3.36 -0.66,0.9 -1.44,1.5 -2.19,2.08 -3.48,2.68 -2.51,0.02 -4.02,4.15l-2.03 1.46c0.95,2.48 1.24,1.49 -0.44,4.65 -1.13,2.13 -1.73,2.38 -2.96,4.48 -3.82,-1.91 -11.51,-3.02 -15.94,-2.69 -1.54,4.53 -2.83,12.28 -0.22,17.57 7.74,15.72 4.56,11.83 4.56,11.81 0,-0.14 -0.05,0.41 -0.14,0.59 -4.48,2.57 -9.91,2.33 -16.8,2.69l0 1.17c3.12,3.21 10.53,7.28 14.81,10.53 4.44,3.37 10,8.36 16.28,10.55l-1.42 -3.6c10.31,-0.21 12.52,-6.66 19.48,-4.63 -0.91,-2.7 1.46,-5.34 3.34,-7.42 -0.37,0.7 -0.27,1.48 -1.53,-0.01 0,0 -1.16,-0.55 -0.65,-2.56 1.77,-6.97 1.47,0.82 5.65,-5.17l-4.03 -0.26c-1.3,-4.35 -7.09,-37.15 10.42,-35.76 0.31,-0.16 1.63,-0.74 1.83,-0.92 1.7,-1.52 0.33,0.17 1.74,-2.11 -17.1,1.49 -21.11,-16.82 -14.48,-20.1 3.75,3.2 2.6,14.84 12.6,16.22 9.65,-9.22 1.74,-12.11 0.2,-17.67 5.07,0.71 4.23,1.89 7.15,4.43 1.22,-0.97 2.5,-1.94 3.74,-3.31 -2.57,-4.96 -6.88,-8.12 -8.61,-12.28 3.16,0.5 4.08,1.46 6.54,2.66 -0.4,-4 -0.93,-4.13 1.64,-8.17l1.62 -2.28c-6.85,1.87 -14.3,4.77 -16.48,9.6z"/>
   <path class="fil6" d="M122 456.33l3.89 0.9c0.16,-0.45 0.27,-1.16 0.34,-0.99 0.74,1.85 -0.52,-1.12 2.33,-3.18 -4.61,-7.62 -7.47,-5.55 -16.84,-17.84 -5.77,-7.56 -9.69,-10.49 -18.38,-21.5 -1.09,-1.38 -2.03,-2.19 -2.98,-3.3 -1.94,-2.26 -3.34,-4.26 -5.14,-6.44 -3.64,-0.46 -3.06,0.42 -4.49,-2.79 -1.95,-3.55 -1.79,-6.43 -4.23,-9.48 -2.96,-3.68 -2.12,-1.43 -5.75,-7.88 -2.81,-4.99 -8.9,-12.57 -10.07,-17.19 4.65,0.79 2.2,1.79 7.46,1.74 1.22,-2.76 1.5,-2.35 2.65,-5.45l-9.94 -15.71c-6.38,-0.54 -7.88,1.66 -15.9,0.82 -3.88,-0.41 -9.77,-1.46 -12.41,-0.5 -0.25,8.7 9.12,28.89 13.35,36.97 7.03,13.39 17.74,21.12 26.99,34.99 3.26,4.88 3.15,2.76 6.85,5.66 2.31,1.81 8.37,11 19.08,17.73 4.06,2.56 4.29,0.94 8.2,4.41l14.99 9.03z"/>
   <path class="fil7" d="M122.61 234.3c-1.12,-4.06 -0.02,-6.11 2.27,-9.43l4.56 1.49c0.37,4.57 -1.96,8.47 -4.46,11.02l-2.37 -3.08zm-1.88 -68.11c0.19,-2.36 -0.18,-0.57 0.47,-2.94 0.01,-0.05 0.66,-1.85 0.9,-2.33 1.05,-2.11 1.09,-1.85 3.03,-3.15l3.12 5.02c-1.37,3.16 -1.81,3.89 -3.26,6.13 -2.87,-1.07 -1.86,-0.84 -4.26,-2.73zm-9.75 5.86c-3.48,3.7 -6.18,6.93 -8.26,13.16 7.57,-7.14 7.63,-12.54 15.22,-11.27 0.04,4.86 -17.01,26.86 -23.5,28.33l-5.68 -4.31c-1.26,5.45 -5.87,13.46 -5.23,17.16 1.99,-2.6 3.13,-4.3 4.22,-7.67 1.22,0 9.57,0.52 9.58,0.53 2.75,1.18 0.2,-0.93 1.93,1.49 1.72,2.4 1.29,5.36 0.92,7.71 1.39,-4.73 0.3,-5.87 0.61,-10.33 0.52,-7.47 4.09,-5.46 5.19,-5.44 3.16,6.48 -2.9,8.04 2.27,12.51 5.65,-2.86 3.3,-15.54 9.47,-14.84 1.59,2.78 0.8,4.44 0.79,4.46l-3.06 9.47c-1.42,5.17 -2.63,7.06 -6.61,9.39 -0.95,0.78 -0.85,0.95 -2.56,1.74 -0.21,0.1 -1.71,0.47 -2.07,0.57 -0.28,3.81 0.54,2.49 -1.52,4.91 12.48,11.64 6.42,9.55 5.99,21.84l3.46 -0.02c4.75,-0.93 5.73,-7.56 4.51,-12.07 -1.41,-5.22 -4.73,-9.82 -0.17,-14.26 5.9,3.77 1.46,6.43 6.13,9.19l0.94 5.77c8.47,-2.11 4.36,-10.16 11.83,-11.86l0.73 6.51 0.88 2.75c2.19,-2.67 1.9,-1.23 4.92,-4.13 0.15,-0.15 0.39,-0.35 0.54,-0.51l2.96 -6.41c0.1,-0.24 0.22,-0.51 0.33,-0.74l4.3 -12.27c-1.8,-1.73 -2.02,-2.39 -3.57,-3.99 -1.77,-1.83 -2.47,-2.01 -4.35,-4.05 -2.39,-2.59 -5.14,-6.5 -6.31,-9.51 -8.8,0.61 -2.67,-4.38 -0.2,-6.66 3.02,-2.79 0.97,-0.89 3.3,-4.03 2.13,-2.88 0.93,-1.16 3.62,-3.62 -0.69,-4.43 -1.31,-2.99 -3.64,-8.35l-0.63 -1.5c-0.99,-2.16 -0.22,-0.23 -1.4,-2.62 1.34,-3.85 2.09,-1.87 3.93,-6.42l-1.21 -3.34c-3.97,3.49 -1.56,4.99 -7.6,7.73 -1.68,-5.69 2.2,-12.54 4.65,-17.76l0.08 -5.67c-5.88,1.66 -11.16,8.21 -15.28,12.52l-8.64 11.33c-1.15,2.44 -0.55,2.36 -1.81,4.58z"/>
   <path class="fil8" d="M139.19 37.06c-1.15,3.17 -1.7,8.26 -0.78,10.37 1.96,4.5 7.02,5.42 9.44,10.51 1.31,2.75 0.83,3.35 1.69,5.77 1.15,3.24 2.91,4.29 6.83,7.02l3.32 -0.97c8.97,-2.76 22.41,-14.31 25.94,-15.34 6.59,-1.92 26.65,-4.01 33.48,1.59l1.72 1.85c1.1,-5.61 5.07,-5.37 7.43,-6.97 6.11,-4.14 0.8,-4.59 -0.26,-5.87 -3.77,-4.52 -0.64,-5.05 -8.32,-10.63 -24.25,-17.61 -55.63,1.47 -61.84,-9.37 -2.88,1 -17.27,10.39 -18.65,12.04z"/>
   <path class="fil9" d="M16.27 99.99c1.56,6.82 2.75,12.17 4.44,18.9 1.42,5.64 4.09,12.74 5.06,17.9l4.5 -2.44c-0.06,-4.52 -0.69,-38.75 1.31,-42.79 3.8,-7.63 12.58,-14.29 15.68,-20 1.74,-3.19 7.17,-7.99 10.4,-10.64 12.65,-10.39 16.35,-9.73 21.13,-12.49 12.43,-7.18 4.07,-1.66 12.42,-5.44 15.16,-6.87 4.55,-1.96 18.13,-6.15 2.58,-0.8 2.4,-0.46 4.6,-1.54 4.15,-2.05 -0.95,-0.62 4.83,-2.68 3.04,0.13 0.93,0.13 7.94,-3.44 3.82,-1.94 5.81,-2.59 9.45,-4.09 5.48,-2.25 15.1,-4.6 19.12,-9.26 -10.61,2 -27.87,-0.07 -35.3,1.82 -3.28,0.84 -2.37,1.67 -11.31,3.15 -14.19,2.35 -16.92,4.93 -27.07,7.28 -6.28,1.45 -0.41,-0.56 -5.17,2.27 -8.5,5.04 -7.9,4 -15.42,12.94 -2.34,2.79 -0.88,1.21 -3.82,3.48 -5.04,3.88 -14.69,15.71 -19.25,19.56 -19.3,16.26 -10.42,3.41 -19.12,28.11 -0.52,1.47 -0.12,0.74 -0.85,2.44 -0.85,1.97 0.2,-0.31 -0.77,1.58 -0.13,0.23 -0.35,0.58 -0.46,0.76 -0.1,0.19 -0.29,0.53 -0.47,0.77z"/>
   <path class="fil10" d="M322.01 333.33c-1.41,2.28 -0.04,0.59 -1.74,2.11 -0.2,0.18 -1.52,0.76 -1.83,0.92l2.41 4.92c-4.33,5.32 -9.71,1.41 -8.39,11.99 0.95,7.71 -1.73,10.66 -0.41,19.11 -4.18,5.99 -3.88,-1.8 -5.65,5.17 -0.51,2.01 0.65,2.56 0.65,2.56 1.26,1.49 1.16,0.71 1.53,0.01 -1.88,2.08 -4.25,4.72 -3.34,7.42 -6.96,-2.03 -9.17,4.42 -19.48,4.63l1.42 3.6c1.71,3.36 9.5,7.65 13.03,11.57l9.36 13.99c0.08,-0.17 0.37,0.45 0.58,0.63 1.42,-5.21 3.22,-3.57 9.24,-15.3 0.91,-1.77 -0.03,-0.38 1.22,-1.95 1.84,-2.3 3.19,-2.32 5.02,-5.47 0.11,-0.2 0.25,-0.48 0.35,-0.69 0.12,-0.21 0.23,-0.5 0.33,-0.71 1.11,-2.26 0.58,-1.83 2.08,-4.09 5.03,2.23 0.95,3.74 10.28,1.67l-7.7 -11.49c-4.13,-7.38 -6.32,-13.26 -5.92,-21.75 0.23,-5.07 0.71,-3.46 1.89,-7.79 1.92,-7.07 -1.93,-8.7 -2.33,-14.09l4.31 -2.17 2.76 5.99c14.38,-8.21 19.53,-3.17 38.01,-4.6 -3.82,-12.58 -10.08,-10.78 -20.11,-9.75 2.41,4.06 3.71,2.7 2.45,6.64 -2.92,0.07 -0.41,0.47 -3.79,-2.21 -7.21,-5.72 -3.32,-0.44 -13.74,2.1 -0.49,-10.84 9.7,-9.04 17.39,-12.9 -0.18,-8.41 -4.69,-3.12 -6.92,-9.55 5.18,1.17 1.7,1.3 6.98,2.65 -2.59,-7.33 -5.21,-2.68 -3.68,-6.88 -10.59,2.58 -21.68,15.57 -26.26,23.71z"/>
   <path class="fil0" d="M136.63 149.29c-2.45,5.22 -6.33,12.07 -4.65,17.76 6.04,-2.74 3.63,-4.24 7.6,-7.73l1.21 3.34c1.92,4.03 -0.51,1.88 3.77,9.75 1.85,3.39 2.5,5.32 4.94,7.73 2.65,2.62 3.97,2.36 7.3,5.34 10.75,9.57 35.06,14.58 48.52,15.57 -1.43,1.33 -12.52,7.93 -15.61,8.63 -7.91,1.82 -15.29,-0.74 -20.31,-4.23 -4.31,-2.98 -10.55,-8.25 -13.29,-12.02 -5.29,-7.28 -8.1,-12.24 -13.58,-11.88 -2.69,2.46 -1.49,0.74 -3.62,3.62 -2.33,3.14 -0.28,1.24 -3.3,4.03 -2.47,2.28 -8.6,7.27 0.2,6.66 1,-1.28 5.52,-2.83 7.96,-3.3 4.18,4.92 7.72,8.92 12,13.86 8.47,9.8 24.45,17.7 38.56,12.19 7.32,-2.86 14.29,-8.4 18.64,-9.15 6.31,-5.86 27.95,-13.73 31.09,-15.68 4.83,-3 4.82,-3.64 7.45,-8.12 0.29,-0.53 0.73,-1.76 1.69,-2.93 -0.88,-1.13 -0.08,-1.29 -1.31,-1.42 -2.59,0.84 -20.49,9.15 -25.64,10.31 -19.18,4.3 -70.4,-7.98 -75.07,-26.5 -3.61,-3.11 -3.71,-3.69 -5.49,-8.54 -1.05,-2.86 -2.22,-6.3 -3.43,-8.96 -2.52,0.02 -3.53,0.92 -5.63,1.67z"/>
   <path class="fil11" d="M161.47 239.42c-2.99,5.21 -5.44,9.25 -5.62,16.03 9.36,-2.03 6.3,-7.52 14.48,-5.74 -1.1,6.5 -4.95,5.75 -9.16,9.2 -3.76,3.09 -4.58,6.55 -10.39,3.97 -2.37,-6.62 0.94,-12.58 2.94,-19.09 -1.74,0.94 -1.9,1.15 -3.4,2.25 -0.18,0.14 -0.41,0.34 -0.6,0.47 -0.18,0.14 -0.41,0.33 -0.59,0.47 -5.36,4.05 -10.4,10.24 -12.04,16.27 7.92,-4.87 3.4,7.13 2.12,11.47 -1.94,6.6 -5.31,10.54 -12.48,6.81 0.69,3.94 0.67,1.19 -1.31,2.33 0.48,4.14 -0.57,5.92 -1.99,8.75 -1.58,3.14 -2.55,5.52 -4.48,8.68 0.09,1.09 0.04,2.19 0.36,3.29 1.42,4.95 -0.01,0.59 1.26,2.88 3.27,-4.64 6.41,-8.5 9.37,-12.61 1.64,-2.27 2.22,-3.79 5.08,-5.48 3.37,-1.99 4.33,-0.86 8.2,-0.47l7.47 -1.72c0.2,7.39 -4.85,6.07 -0.62,12.67l7.44 -6.92c0.91,-1.28 3.62,-7.2 4.55,-9.15l1.62 -0.87c0.43,0.79 0.07,0.45 0.71,1.94l1.43 2.93 5.3 -15.98c1.52,-4.15 0.3,-3.66 4.24,-5.13 2.15,-4.31 3.01,-2.33 6.11,-4.16 0.6,-12.24 -0.94,-12.07 4.3,-16.72l1.11 -1.02c10.58,-9.91 2.4,-4.73 5.89,-17.29l1.29 -2.76c-4.9,0.77 -9.8,2.89 -15.14,2.61 -2.37,-0.13 -6.4,-0.33 -8.51,-0.93 -3.46,-0.99 -2.25,-1.53 -6.15,-2.42l-1.35 0.74c-0.24,14.76 -0.93,10.33 1.67,11.58 -2.5,1.19 -2.2,0.39 -3.11,3.12z"/>
   <path class="fil12" d="M375.37 354.91c-1.88,1.15 -0.6,0.43 -2.06,1.53 -1.68,1.28 -0.33,0.69 -2.57,1.92 -2.23,1.23 -4.13,1.59 -7.27,1.62l1.79 1.22c1.32,1.73 11.61,5.4 16.03,10.31 5.01,5.56 4.83,6.27 16.24,10.73 8.4,3.29 11.34,2.89 22.92,-0.3 4.14,-1.14 7.52,-1.45 11.31,-2.61 4.05,-1.24 5.8,-2.84 10.14,-3.56 2.45,2.86 0.89,0.01 1.25,4.31l3.75 -3.99c2.12,8.28 -3.05,5.08 -4.37,12.1 7.68,-5.05 6.63,-2.85 12.46,-10.21 -0.18,-0.27 -0.4,-1.07 -0.48,-0.87l-1.38 -2.08 -1.7 -4.61 14.56 -2.16c-4.42,-2.33 -3.8,-0.58 -8.78,-4.52 -2.77,-2.19 -4.85,-2.91 -8.27,-4.34 -4.21,-1.75 -14.51,-6.74 -17.59,-6.62 -4.44,-1.22 -3.71,-0.1 -7.9,-0.97 -3.11,-0.65 -3.64,-1.32 -6.74,-1.84 -0.02,4.11 -1.29,3.65 -2.1,4.44 -2.8,0.22 -6.74,1.84 -9.41,3.68 -3.75,2.58 -4.06,3.37 -9.32,3.07 -1.65,-7.2 -0.91,-3.17 3.67,-7.16 0.55,-0.39 3.09,-1.3 3.96,-2.96 0.97,-1.89 0.94,-1.77 -0.13,-3.36 -3.07,-4.57 -9.43,-0.11 -12.11,2.78 -7.55,8.11 1.92,-0.4 -4.44,3.95l-11.46 0.5z"/>
   <path class="fil13" d="M115.53 422.63c5.43,0.77 0.73,0.19 4.79,2.97l13.67 9.47c0.97,0.58 4.65,2.82 5.28,3.09 10.55,4.46 1.85,0.52 10.01,5.66 13.8,8.7 22.55,12.61 34.91,19.79 2.46,1.43 2.66,1.54 5.07,3.23l4.2 3.79c-4.55,-1.23 -8.15,-3.43 -13.94,-4.79l-12.91 -2.67c-4.54,-1.08 -3.51,-1.77 -6.54,-2.58 -3.8,-1.01 -3.97,-0.05 -7.67,-0.85 -8.11,-1.75 1.06,-1.69 -12.67,-0.47 2.2,2.6 2.58,2.38 6.56,4.4 10.34,5.25 8.18,4.67 20.96,9.43 10.01,3.72 19.94,7.39 32.1,7.55 -6.71,-6.07 -22.11,-7.13 -29.48,-13.48 5.22,0.02 11.34,0.45 15.71,2.41 7.05,3.17 3.18,2.84 12.67,4.05 5.3,0.67 8.26,2.61 13.15,4.69 7.16,3.05 6.06,3.1 14.79,2.77 -1.91,-3.68 -16.97,-11.76 -23.41,-16.18 -8.07,-5.53 -14.33,-10.03 -21.74,-16.1 -13.29,-10.9 -13.19,-9.02 -22.58,-15.21 -5.28,-3.48 -16.55,-16.55 -19.46,-17.36 -2.47,5 -0.82,2.21 -1.35,5.9 -0.81,5.63 2.11,2.26 -2.27,4.6 -3.48,-1.87 -1.18,0.78 -2.52,-4.26 -5.25,-19.64 -1.56,-20.18 -2.45,-34.13 -0.02,-0.35 -0.14,-0.47 -0.28,-0.67 -2.19,3.89 -5.21,13.1 -6.97,17.98l-5.09 13.77c-0.98,1.61 -0.44,0.66 -1.42,1.94 -0.12,0.15 -0.47,0.81 -0.55,0.63 -0.09,-0.17 -0.4,0.41 -0.57,0.63z"/>
   <path class="fil14" d="M89.98 222.95c-0.27,6.19 1.23,2.17 1.17,8.3l-5.11 -0.31c-1.58,-3.16 -1.2,-4.67 -0.82,-8.37 2.88,0.06 1.67,0.03 4.76,0.38zm-7.34 -5.25c-3.77,15.62 -7.86,29.48 -7.89,47.85l-0.27 3.41c7.58,-0.67 1.23,0.34 5.94,2.08 4.5,1.67 3.99,-0.3 7.25,0.92l-0.35 4.39c2.58,-6 0.85,-16.79 8.17,-18.24 1.33,1.75 0.57,-0.11 1.15,2.53 1.32,5.94 -3.15,13.34 -3.83,21.82 3.52,0.58 1.51,1.6 2.32,-2.86 3.53,5.44 1.21,-2.03 4.43,6.94 1.63,4.52 1.53,2.88 5.69,6.41 0.24,3.78 -1.33,6.07 1.75,9.45 -0.11,-3.13 0.09,-9.11 0.56,-12.14 0.68,-4.42 1.18,-5.12 5.42,-5.31l0.17 6.45c2.51,-2.3 0.19,2.66 2.61,-3.43 1.14,-2.86 0.53,-2.8 0.55,-5.46 0.02,-4.18 0.23,-7.1 0.97,-11.1 1.42,-7.78 3.44,-10.97 0.81,-19.24 -0.18,0.21 -0.34,0.54 -0.43,0.71 -0.09,0.16 -0.31,0.51 -0.42,0.71 -1.72,3.35 -2.13,6.46 -5.44,9.53 -13,12.08 -17.81,-24.37 -9.19,-27.62 3.52,7.73 -0.51,15.48 4.17,22.86 4.03,-1.72 3.96,-2.28 5.36,-6.92l-3.46 0.02c0.43,-12.29 6.49,-10.2 -5.99,-21.84 2.06,-2.42 1.24,-1.1 1.52,-4.91 0.36,-0.1 1.86,-0.47 2.07,-0.57 1.71,-0.79 1.61,-0.96 2.56,-1.74 -7.37,0.83 -5.42,-2.85 -8.79,0.56 -2.13,-1.45 -1.64,2.6 -1.68,-3.48l-1.23 1.55c-0.19,0.26 -0.87,1.14 -1.06,1.4 -0.83,1.11 -0.93,1.29 -1.64,2.31 -1.1,-2.25 -1.45,-1.65 -4.46,-1.79 3.04,-4.51 0.75,-9.81 0.75,-9.82 -0.06,-0.58 -0.28,-0.69 -0.49,-1 -3.19,0.67 -4.77,-1.01 -5.25,8.62 -1.07,-1 0.25,0.32 -1.03,-1.35l-1.32 -1.7z"/>
   <path class="fil15" d="M133.97 105.37c3.4,1.96 25.38,-27.16 47.95,-25.25 9.35,0.8 5.46,-1.17 18.63,3.84 9.56,3.63 18.43,4.01 23.6,11.81 5.81,5.59 26.03,13.34 35.74,15.15 -2.06,-7.72 -32.38,-35.74 -38.65,-41.4 -3.77,-3.41 -15.98,-5.17 -21.91,-5.05 -19.73,0.39 -25.86,4.76 -38.47,14.6 -7.24,5.65 -23.88,19.22 -26.89,26.3z"/>
   <path class="fil16" d="M342.43 385.63c2.21,4.95 5.49,6.27 6.43,11.67 -5.72,3.65 -5.03,-0.93 -10.19,-1.88 -9.33,2.07 -5.25,0.56 -10.28,-1.67 -1.5,2.26 -0.97,1.83 -2.08,4.09 -0.1,0.21 -0.21,0.5 -0.33,0.71 -0.1,0.21 -0.24,0.49 -0.35,0.69 -1.83,3.15 -3.18,3.17 -5.02,5.47 -1.25,1.57 -0.31,0.18 -1.22,1.95 -6.02,11.73 -7.82,10.09 -9.24,15.3 0.44,4.38 4.38,16.11 6.19,20.79 1.6,4.17 0.92,7.04 4.72,8.78 1.62,0.74 8.86,1.37 11.03,1.66 -2.42,-2.89 -5.58,-2.21 -7.92,-3.83 1.97,-7.15 3.53,-4.88 5.35,-4.5 0.16,-11.64 6.32,-17.17 12.46,-22.97 6.58,-6.22 -2.66,-0.23 13.47,-12.76 3.48,-2.71 2.58,-0.74 4.55,-4.36 -6.39,1.24 -1.23,0.91 -3.75,-0.55l0.71 -18.18 -1.99 -2.96c-1.8,-2.28 -0.6,-0.68 -2.51,-2.73 -3.71,-3.99 -2.46,-3.91 -3.4,-11.33 -0.78,-6.18 -0.19,-4.8 4.37,-9.35 -11.4,2.03 -5.35,6.11 -6.26,11.63 -1.54,9.38 -4.37,-4.32 -1.92,14.03 -1.85,1.22 2.8,3.47 -2.82,0.3z"/>
   <path class="fil17" d="M85.22 403.98c1.8,2.18 3.2,4.18 5.14,6.44 0.95,1.11 1.89,1.92 2.98,3.3 8.69,11.01 12.61,13.94 18.38,21.5 9.37,12.29 12.23,10.22 16.84,17.84 -2.85,2.06 -1.59,5.03 -2.33,3.18 -0.07,-0.17 -0.18,0.54 -0.34,0.99l-3.89 -0.9c5.28,5.03 7,-2.65 7,-2.67l4.4 7.6 6.33 -1.99c13.73,-1.22 4.56,-1.28 12.67,0.47 3.7,0.8 3.87,-0.16 7.67,0.85 3.03,0.81 2,1.5 6.54,2.58l12.91 2.67c5.79,1.36 9.39,3.56 13.94,4.79l-4.2 -3.79c-2.41,-1.69 -2.61,-1.8 -5.07,-3.23 -12.36,-7.18 -21.11,-11.09 -34.91,-19.79 -8.16,-5.14 0.54,-1.2 -10.01,-5.66 -0.63,-0.27 -4.31,-2.51 -5.28,-3.09l-13.67 -9.47c-4.06,-2.78 0.64,-2.2 -4.79,-2.97 -6.12,-4.59 -7.66,-11.35 -10.86,-17.14 -3.3,-5.98 -7.62,-11.06 -10.98,-15.56 -1.64,2.95 -2.32,4.23 -4.4,7 -1.24,1.66 -1.87,2.28 -2.67,3.68 -0.68,1.21 -0.72,1.92 -1.4,3.37z"/>
   <path class="fil18" d="M186.78 420.79c0.25,6.37 -1.97,2.5 -1.26,7.97l2.13 0.74c0.02,5.39 1.03,4.06 0.99,8.27l-4.02 -0.64 -0.72 0.79c3.25,3.09 8.93,7.71 13.04,10.77 2.52,1.88 3.81,2.85 6.98,5.47 0.98,0.82 0.6,0.48 1.77,1.42 0.18,0.15 0.42,0.34 0.6,0.48l1.19 0.97c2.13,1.71 0.71,0.73 3.01,2.25 9.66,6.33 3.1,4.66 16.35,5.43 8.28,0.48 14.82,0.19 22.66,-0.66 2.57,-5.48 3.56,-5.66 9.3,-7.71 6.72,-2.4 8.56,-0.09 9.64,-6.98l-2.99 -0.45c-7.82,3.22 -17.15,8.6 -28.2,9.33 -8.74,0.57 -18.55,0.75 -26.65,-2 -5.05,-1.71 -4.07,-0.4 -5.26,-5.3l7.93 0.95c1.65,-1.64 -0.55,-0.31 1.86,-1.34l8.86 -1.43c13.62,-1.8 26.46,-2.27 32.17,-12.58 -5.48,-2.36 -4.05,-1.72 -10.77,-1.64 -10.01,1.4 -15.82,4.32 -28.13,3.79 -7.43,-0.32 -21.08,-0.58 -23.09,-7.75l18.18 0.21c8.4,-0.87 14.43,2.15 19.19,-2.23 -1.99,-0.71 -4.15,-1.57 -6.17,-2.29 -1.4,-0.49 -1.89,-0.54 -3.15,-0.97l-3.64 -1.42c-6.94,-0.44 -20.64,-4.29 -23.96,-7.38 -0.57,-0.77 -0.04,-7.28 -9.06,-5.77l1.22 9.7z"/>
   <path class="fil19" d="M227.2 169.7l2.95 3.34c2.58,2.31 5.14,3.48 9.18,3.58 9.68,0.23 4.06,-3.34 15.07,-8.11 0.23,-0.1 0.5,-0.22 0.73,-0.32 0.23,-0.09 0.5,-0.22 0.73,-0.31 9.82,-4.22 5.49,-3.23 9.6,-7.27 2.96,-2.93 2.38,-1.18 5.87,-2.79 -5.62,-0.16 -1.58,0.26 -2.89,-1.33 0.67,-2.69 1.88,-4.99 2.64,-6.88 -2.8,-2.72 0.36,-1.16 -8.69,-2.56 -1.41,-1.95 -1.07,-2.09 -2.27,-3.98 -4.41,-6.96 0.03,-7.19 -2.69,-10.73l-20.23 -12.47c-1.68,0.93 -1.66,-2.5 -1.22,2.48 4.56,5.21 23.44,18.18 18.91,29.85 -5.1,-1 -5.47,-4.38 -9.49,-7.27l-0.83 5.34c-4.87,-0.29 -2.4,0.49 -5.33,-3.19 -1.79,-2.26 -2.02,-2.27 -4,-4.38l-15.51 -16.98c-5.77,-5.87 -9.53,-4.67 -6.24,-7.31 -3.7,-4.33 -19.09,-9.64 -29.58,-8.08l-10.78 3.12c4.22,1.7 7.66,0.35 21.64,5.76 2.8,1.08 7.17,3.11 9.22,4.43 6.63,4.27 9.13,5.97 14.99,12.23 3.41,3.64 3.08,3.11 5.7,7.81 1.69,3.02 3.53,4.59 5.12,8.75l2 5.06c0.62,0.86 9.44,4.72 -4.6,12.21z"/>
   <path class="fil20" d="M192.99 139.69c0.82,6.82 1.92,8.5 -1.79,13.78 -11.23,16 -21.44,-3.82 -7.54,-18.1l9.33 4.32zm-24.39 13.54c1.29,3.31 18.31,15.24 22.6,16.67 6.17,2.06 21.97,-0.47 25.98,-1.86 3.04,-1.05 4.18,-2.48 6.9,-3.62 -2.67,-10.61 -8.23,-20.59 -16.5,-26.55l-9.34 -6.49c-0.29,-0.16 -1.13,-0.58 -1.44,-0.71 -1.52,-0.66 -0.87,-0.3 -2.38,-0.82 -5.21,-1.78 -10.16,-3.86 -15.73,-4.68l-3.55 2.72c-10.7,7.68 -6.78,21.27 -6.54,25.34z"/>
   <path class="fil21" d="M271.33 157.82c-3.49,1.61 -2.91,-0.14 -5.87,2.79 -4.11,4.04 0.22,3.05 -9.6,7.27 -0.23,0.09 -0.5,0.22 -0.73,0.31 -0.23,0.1 -0.5,0.22 -0.73,0.32 -11.01,4.77 -5.39,8.34 -15.07,8.11 -4.04,-0.1 -6.6,-1.27 -9.18,-3.58l-2.95 -3.34c-4.9,2.81 -4.91,0.85 -7.96,4.74l3.22 -0.15c1.02,19.06 20.83,2.3 28.21,2.95 9.22,-2.69 8.02,-1.31 12.88,-3.95 2.29,-0.74 -0.35,-2.47 8.52,-2.23l-0.2 3.28 11.51 3.16c2.73,0.9 3.5,2.43 5.25,4.5 0.26,0.22 0.66,0.21 0.8,0.61l2.36 1.04c2.8,-1.13 7.27,-2.02 9.65,-2.74 7.33,-2.23 8.98,-0.9 11.18,-2.5l-6.1 -13.1c-1.46,-0.04 -1.42,-0.37 -3.05,0.03 -2.65,0.64 -0.45,-0.15 -2.02,1 3.64,1.76 5.67,2.41 4.27,7.05 -1.36,0.72 0.02,0.25 -2.5,0.86 -1.47,0.36 -1.37,0 -3.07,0.56 0.9,5.62 0.72,1.57 -1.37,3.1 -3.29,-12.23 -4.73,-8.91 -10.18,-9.26l-5.38 -1.66c3.77,-1.97 14.32,-5.76 18.76,-6.29 0.27,-0.09 0.64,-0.12 0.85,-0.14l1.78 -0.25c0.4,-0.05 9.36,0.53 7.76,-6.54l-1.1 -2.05c-2.1,-5.06 0.4,-4.54 -4.73,-7.22 1.62,3.51 0.81,0.81 1.69,5.39 -4.69,1.98 -3.8,2.85 -10.6,3.15 -0.59,-1.96 -1.22,-3.31 -1.89,-4.95 2.57,-3.31 2.81,-1.57 5.38,-5.18 -11.2,0.57 -7.93,3.79 -14.22,6.59 -2.29,1.02 -12.75,3.83 -15.17,4.52l-0.4 3.8z"/>
   <path class="fil22" d="M308.14 228.52c2.43,1.17 1.5,8.36 1.58,9.85l2.46 1.91 2.54 -0.85 -2.5 -5.78c7.5,-0.73 -0.74,5.43 12.11,5.81 1.38,-4.05 -1.12,-2.55 1.81,-6.08 4.28,5.01 -0.11,5.78 6.59,6.52 1.36,-3.58 -1.8,-5.29 -3.35,-10.16 7.56,1.43 7.19,7.45 7.63,10.82 0.6,4.62 2.22,0.92 0.57,5.62 -4.49,0.71 -9.62,0.66 -14.3,0.51 -4.15,-0.14 -10.46,-2.05 -12.9,1.33 7.09,-1.62 1.97,-0.59 3.97,0.85 -0.62,5.67 -1.85,5.23 -2.26,6.83 -0.76,3.04 0.88,3.65 4.49,3.97l0.92 3.48c20.63,-10.34 28.21,0.26 34.12,-0.62 2.86,-7.65 -1.15,-7.85 -2.35,-12.14 -2.03,-7.27 4.35,-12.93 -5.88,-17.52 -12.96,-5.81 1.47,-5.5 -16.06,-6.87 1.87,-2.92 3.54,-2.44 5.93,-4.43l-2.34 -7.63c-0.12,-3.23 -0.49,-1.27 0.76,-3.27 5.14,4.78 1.88,8.32 5.25,12.72 10.58,-4.06 -2.6,-18.05 -4.47,-25.92l-10.56 -1.43c1.93,6.74 2.8,6.54 1.47,12.18 -0.05,0.21 -0.19,0.5 -0.24,0.7l-0.27 1.29c0,0.15 0.01,0.46 0.03,0.61 0.71,5.27 6.56,6.81 2.05,16.8 -4.14,0.31 -1.93,-0.31 -3.16,-0.47l-1.77 -0.24c-3.05,-0.23 -9.54,-0.23 -11.87,1.61z"/>
   <path class="fil23" d="M128.38 42.94c-2,9.89 -2.35,8.19 -5.34,16.21 -1.58,4.23 -3.33,12.22 -4.12,15.97 -0.88,4.16 -8.2,32.2 -3.57,33.52 2.24,-1.56 2.79,-3.29 4.27,-5.7 2.71,-4.4 1.97,-2.44 5.04,-5.3 1.61,-1.49 0.94,-0.89 2.36,-3.02 4.96,-7.4 5.88,-5.85 11.14,-11.88 0.18,-0.2 1.33,-1.5 1.52,-1.7l5.78 -4.73c5.14,-3.77 10.05,-2.82 14.23,-6.55l-3.32 0.97c-3.92,-2.73 -5.68,-3.78 -6.83,-7.02 -0.86,-2.42 -0.38,-3.02 -1.69,-5.77 -2.42,-5.09 -7.48,-6.01 -9.44,-10.51 -0.92,-2.11 -0.37,-7.2 0.78,-10.37 -4.15,1.04 -8.28,2.71 -10.81,5.88z"/>
   <path class="fil24" d="M136.11 234.72c-3.11,3.65 -3.17,7.98 -7.41,10.56 -6.31,3.83 -10.06,-1.93 -10.61,6.89 2.63,8.27 0.61,11.46 -0.81,19.24 -0.74,4 -0.95,6.92 -0.97,11.1 -0.02,2.66 0.59,2.6 -0.55,5.46 -2.42,6.09 -0.1,1.13 -2.61,3.43l0.18 7.02c4.56,-3.48 6.4,-9.51 8.5,-14.82l3.59 0.26c1.98,-1.14 2,1.61 1.31,-2.33 -2.5,-3.84 -9.85,-14.73 -2.9,-19.74l2.16 8.34c0.55,2.26 0.48,3.13 1.34,4.9 4.5,9.35 9.75,-6.79 9.76,-11.78 1.64,-6.03 6.68,-12.22 12.04,-16.27 0.18,-0.14 0.41,-0.33 0.59,-0.47 0.19,-0.13 0.42,-0.33 0.6,-0.47 1.5,-1.1 1.66,-1.31 3.4,-2.25 0.74,-1.45 2,-5.34 3.04,-6.28 2.83,-2.54 4.82,-1.07 4.71,1.91 0.91,-2.73 0.61,-1.93 3.11,-3.12 -2.6,-1.25 -1.91,3.18 -1.67,-11.58l1.35 -0.74c-3.96,-3.8 -2.53,-1.61 -7.33,-3.99 -5,-2.48 -3.33,-3.92 -6.89,-6.58l-4.3 12.27c-0.11,0.23 -0.23,0.5 -0.33,0.74l-2.96 6.41c-0.15,0.16 -0.39,0.36 -0.54,0.51 -3.02,2.9 -2.73,1.46 -4.92,4.13l-0.88 -2.75z"/>
   <path class="fil25" d="M110.98 172.05c1.26,-2.22 0.66,-2.14 1.81,-4.58l8.64 -11.33c4.12,-4.31 9.4,-10.86 15.28,-12.52l-0.08 5.67c2.1,-0.75 3.11,-1.65 5.63,-1.67 1.21,2.66 2.38,6.1 3.43,8.96 1.78,4.85 1.88,5.43 5.49,8.54 0.53,-3.21 0.74,-3.13 2.05,-5.92 -0.45,-4.76 -3.23,-5.17 -3.83,-9.98 0.77,-1.01 0.58,-0.26 2.12,-0.89 -5.61,-18.89 -0.55,-18.67 3.66,-28.7 0.84,-2 1.07,-3.72 2.12,-5.3 1.93,-2.91 5.32,-3.92 8.18,-6.43 5.99,-5.24 12.71,-8.14 21.32,-8.42 9.1,-0.3 16.43,3.21 23.75,5.23 -3.67,-2.27 -4.13,-1.95 -8.87,-3.9 -26.28,-10.82 -14.92,-8.86 -35.39,4.81 -5.36,3.58 -12.64,9.44 -16.37,10.87 -9.51,3.67 -16.3,11.5 -21.48,20.33 -2.06,3.5 -2.35,6.2 -5.42,8.42 -11.89,8.57 -12.02,14.43 -21.57,20.43 -6.67,4.19 -7.45,10.13 -10.65,17.06 0.97,0.47 3.68,1.5 5.48,1.86 2.52,-3.64 10.02,-15.05 13.9,-16.28l0.8 3.74z"/>
   <path class="fil26" d="M115.35 108.64c-4.63,-1.32 2.69,-29.36 3.57,-33.52 0.79,-3.75 2.54,-11.74 4.12,-15.97 2.99,-8.02 3.34,-6.32 5.34,-16.21 -2.71,1.22 -7.25,4.78 -8.53,7.7 -2.51,5.73 3.31,4.04 -3.83,10.91 -3.98,3.84 -11.96,13.47 -15.21,18.36 -6.19,9.32 -9.44,11.15 -9.45,24.11 0,8.05 3.6,20.22 8.33,24.82 4.69,-1.98 3.42,-7.99 6.02,-11.43 3.28,-4.34 3.65,0.81 9.64,-8.77z"/>
   <path class="fil25" d="M87.32 276.35l0.35 -4.39c-3.26,-1.22 -2.75,0.75 -7.25,-0.92 -4.71,-1.74 1.64,-2.75 -5.94,-2.08l0.27 -3.41 -2.08 -1.46c-2.27,3.35 -1.91,10.11 -2.04,14.17 -0.41,12.39 -0.04,33.72 2.22,44.85 2.66,13.09 11.86,31.49 17.39,43.08 1.04,-1.45 0.44,1.04 0.61,-1.92l-3.12 -18.69c-1.18,-9.36 -0.01,-14.89 0,-23.31 0.01,-6.92 -3.01,-12.47 -2.9,-21.96 0.09,-8.66 2.55,-15.42 2.49,-23.96z"/>
   <path class="fil27" d="M157.84 25.02c6.21,10.84 37.59,-8.24 61.84,9.37 7.68,5.58 4.55,6.11 8.32,10.63 1.06,1.28 6.37,1.73 0.26,5.87 -2.36,1.6 -6.33,1.36 -7.43,6.97 1.59,1.4 5.85,1.12 7.92,1.12 2.9,-0.01 7.74,-0.16 10.43,0.16 4.55,0.54 10.76,2.84 16.74,3.56l-6.72 -11.72c-5.4,-10.58 -2.97,-14.31 -18.63,-23.17 -1.22,-0.69 -1.79,-1.21 -3.2,-2.17 -2.21,-1.5 -3.59,-2.29 -6.36,-3.21 -17.69,-5.85 -38.52,0.08 -42.66,-0.08 -4.51,-0.17 -12.35,-5.13 -20.51,2.67z"/>
   <path class="fil28" d="M54.24 208.83c0.68,2.45 1.06,3.11 1.67,5.05l6.99 13.97 9.73 -32.19c0.51,-1.88 1.61,-5.56 2.56,-7.88 0.72,-1.77 1.15,-2.27 1.89,-3.58 3.62,-6.39 -0.3,-11.89 7.89,-20.36 -5.25,0.07 -3.69,0.98 -8.9,0.63 -4.12,-0.27 -6.91,-0.21 -10.18,-1.77 1.47,-7.26 4.58,-4.37 11.06,-4.36 -1.7,-3.91 -9.74,-0.27 -10.92,-8.21 -0.27,-1.84 -0.06,-1.53 -0.06,-2.66 0.07,-7.75 0.71,2.85 0.13,-2.23 -4.21,-2.39 -2.96,-0.88 -8.11,-1.56 -0.84,-0.11 -3.21,-0.61 -4.02,-1.21 -4.21,-3.08 -1.06,-0.13 -2.67,-3.82 -3.07,1.39 -5.94,1.46 -4.93,11.71 0.96,0.66 2.36,1.76 3.41,2.52 4.21,3.03 14.34,4.53 17.52,23.36 0.89,5.25 -4.2,15.13 -7.09,20.39l-2.31 4.19c-0.7,1.61 -0.99,3.4 -1.55,4.88l-1.56 2.63c-0.07,-0.15 -0.34,0.37 -0.55,0.5z"/>
   <path class="fil29" d="M202.66 390.58c1.24,0.82 1.48,1.59 6.18,2.12 1.41,0.16 4.45,-0.03 6.05,-0.03 -3.18,-1.26 -5.43,-0.89 -8.91,0.79 5.11,3.31 -3.16,4.74 12.64,6.16 7.1,0.63 12.14,-2.11 14.93,0.57 8.77,-1.58 15.97,-7.64 25.01,-7.93 -1.73,7.34 -9.87,9.87 -19.32,12.91 -9.96,3.19 -18.1,4.37 -30.19,3.07 0.3,0.22 0.74,0.12 0.96,0.59l3 1.35c3.43,0.91 10.35,-0.08 13.69,-0.58 4.44,6.68 -0.09,1.06 5.55,6.17l-1.83 1.91c-0.12,0.12 -0.43,0.43 -0.65,0.62 18.04,-0.83 24.91,-6.47 35.54,-13.31 4.39,-2.82 6.54,-2.32 6.52,-9.15 -9.47,-4.94 -5.32,2.63 -15.62,-6.41 -16.51,-14.49 -18.57,4.75 -53.55,1.15z"/>
   <path class="fil30" d="M151.18 165.12c4.67,18.52 55.89,30.8 75.07,26.5 5.15,-1.16 23.05,-9.47 25.64,-10.31l-1.22 -4.07c-7.38,-0.65 -27.19,16.11 -28.21,-2.95l-3.22 0.15c-6.98,1.17 -4.06,2.2 -8.85,4.68 -15.24,7.9 -29.33,-3.92 -32.99,-5.65 0.62,2.46 0.97,0.59 -0.03,2.04 -5.63,-1.67 -9.03,-4.27 -12.75,-7.36l-11.39 -8.95c-1.31,2.79 -1.52,2.71 -2.05,5.92z"/>
   <path class="fil31" d="M459 402.79c3.41,0.32 0.95,-0.51 3.22,3.12 9.42,15.07 6.46,26.87 4.52,45.31 -7.91,-2.59 -6.59,-1.22 -13.4,6.72 1.16,-7.62 0.36,-1.75 -1.1,-4.09 -0.75,8.11 -2.61,16.14 -8.24,18.57 -5.37,-1.16 -4.15,-3.41 -7.35,-6.78l-7.07 13.12c6.85,2.48 9.3,2.41 14.13,-0.24 6.82,-3.76 20.02,-8.53 24.51,-12.26 3.68,-3.05 4.25,-7.28 5.82,-12.03 4.86,-14.66 3.87,-14.94 0.62,-30.16 -2.34,-10.93 -0.21,-19.31 -8.62,-26.85 -3.9,0.6 -5.51,2.48 -7.04,5.57z"/>
   <path class="fil32" d="M16.27 99.99c0.18,-0.24 0.37,-0.58 0.47,-0.77 0.11,-0.18 0.33,-0.53 0.46,-0.76 0.97,-1.89 -0.08,0.39 0.77,-1.58 0.73,-1.7 0.33,-0.97 0.85,-2.44 8.7,-24.7 -0.18,-11.85 19.12,-28.11 4.56,-3.85 14.21,-15.68 19.25,-19.56 2.94,-2.27 1.48,-0.69 3.82,-3.48 7.52,-8.94 6.92,-7.9 15.42,-12.94 4.76,-2.83 -1.11,-0.82 5.17,-2.27 10.15,-2.35 12.88,-4.93 27.07,-7.28 8.94,-1.48 8.03,-2.31 11.31,-3.15 7.43,-1.89 24.69,0.18 35.3,-1.82 3.41,0.29 1.86,-0.26 5.02,-1.55 -3.6,-0.95 -19.94,-1.83 -24.93,-2.05 -8.03,-0.36 -15.95,2.3 -23.32,3.36 -27.36,3.93 -40.69,5.04 -56.73,23.05 -3.62,4.06 -9.28,8.84 -12.67,13.59 -3.68,5.14 -1.26,2.37 -6.65,5.86l-12.42 14.97c-4.1,6.53 -2.17,2.64 -7.5,5.75 -0.66,6.38 -1.02,15.6 0.19,21.18z"/>
   <path class="fil19" d="M337.66 138.49c7.76,10.18 5.24,17.87 4.32,32.71 -0.51,8.04 -2.74,28.76 1.35,35.03l3.04 2.96c13.21,-1.67 4.81,-3.5 13.14,-5.72l2.23 -13.01c-3.21,1.24 -1.75,0.78 -3.33,3.09 -2.19,3.22 -0.8,2.82 -4.9,4.49 0.64,-10.12 3.65,-13.06 10.45,-17.69 3.17,-2.16 3.86,-4.57 7.49,-6.15 3.58,-1.56 6.42,-1.05 10.24,-3.19 2.03,-7.72 -2.9,-3.28 -0.09,-10.1 -2.28,1.14 -0.29,3.23 -6.48,6.51 -9.21,4.88 -4.25,-2.43 -17.99,9.29 -5.04,4.3 -4.4,3.06 -9.73,0.94 0.91,-5.42 3.19,-5.64 6.09,-8.57l-5.79 -0.97c-1,-6.94 -0.48,-17.05 1.16,-23.4 -4.55,-0.97 -4.01,-0.97 -3.66,-5.84l-1.96 -2.87 -5.58 2.49z"/>
   <path class="fil33" d="M368.57 383.98l13.51 -1.41 1.1 2.26c10,0.71 14.36,9.46 32.19,6.13 3.54,-0.66 26.43,-9.83 27.78,-10.88 -0.36,-4.3 1.2,-1.45 -1.25,-4.31 -4.34,0.72 -6.09,2.32 -10.14,3.56 -3.79,1.16 -7.17,1.47 -11.31,2.61 -11.58,3.19 -14.52,3.59 -22.92,0.3 -11.41,-4.46 -11.23,-5.17 -16.24,-10.73 -4.42,-4.91 -14.71,-8.58 -16.03,-10.31 -11.51,-1.14 -13.13,3.68 -8.6,11.75 2.33,4.14 2.78,3.27 5.55,5.91l2.33 2.98c2.85,3.17 1.03,1.63 4.03,2.14z"/>
   <path class="fil34" d="M343.33 206.23c0.46,4.43 2.28,8.55 3.15,14.07 1.93,12.23 0.99,4.52 6.15,11.8 4.05,5.71 0.33,9.64 0.59,13.54 0.28,4.27 14.74,31.45 16.93,35.06l12.34 18.24c5.79,3.89 1.28,1.3 3.35,0.31 3.23,-1.96 3.29,0.72 -2.2,-9.92 -5.84,-11.31 -8.91,-18.8 -16.41,-30.88 -7.89,-12.7 -8.44,-38.86 -7.72,-54.98 -8.33,2.22 0.07,4.05 -13.14,5.72l-3.04 -2.96z"/>
   <path class="fil35" d="M133.97 105.37c-8.62,4.13 -9.05,14.38 -7.54,24.52 1.06,-0.56 6.9,-8.93 8.93,-11.19 3.63,-4.02 4.04,-1.95 7.63,-8.13 2.18,-3.73 -1.12,-3.9 9.19,-3.67 2.91,-5.14 8.32,-10.05 12.97,-12.99 10.06,-6.38 7.9,-4.7 18.45,-7.73 6.09,-1.74 19.35,2.51 25.61,4.91 6.44,2.46 0.4,0 4.98,0.31 4.12,0.27 3.43,2.7 9.96,4.37 -5.17,-7.8 -14.04,-8.18 -23.6,-11.81 -13.17,-5.01 -9.28,-3.04 -18.63,-3.84 -22.57,-1.91 -44.55,27.21 -47.95,25.25z"/>
   <path class="fil36" d="M443.15 380.08c-1.35,1.05 -24.24,10.22 -27.78,10.88 -17.83,3.33 -22.19,-5.42 -32.19,-6.13 -2.82,-0.42 -8.27,0.65 -11.32,2.6l-0.1 10.5c0.39,0.02 1.92,0.07 2.18,0.19 3.07,1.36 1.45,0.1 3.17,2.29 0.76,0.46 13.71,0.04 17.81,0.42 2.38,0.22 8.48,1 9.25,0.96 1.78,-0.1 4.31,-1.38 6.04,-1.76l3.57 1.03c3.64,-7.55 3.47,0.78 15.06,-4.55 3.8,-1.75 11.45,-7.94 13.69,-8.32 1.32,-7.02 6.49,-3.82 4.37,-12.1l-3.75 3.99z"/>
   <path class="fil37" d="M185.24 394.6l1.55 -5.71 10.15 -0.56c0.17,-0.09 31.88,-2.51 38.76,-8.77 -6.19,-1.07 -2.92,-2.52 -8.16,-3.72 -5.73,-1.3 -18.08,7.22 -26.26,0.79l18.56 -3.38c-19.49,-2.52 -15.92,-5.15 -43.57,-6.72l2.25 7.37c1.66,5.55 1.13,2.63 2.8,6.65l2.96 11.81c0.07,0.24 0.22,0.61 0.28,0.8 0.06,0.18 0.28,0.88 0.33,0.74 0.04,-0.14 0.19,0.49 0.35,0.7z"/>
   <path class="fil38" d="M185.24 394.6l0.32 16.49c9.02,-1.51 8.49,5 9.06,5.77 1.93,-1.29 3.24,-0.68 7.98,-0.36l27.17 1.8c0.22,-0.19 0.53,-0.5 0.65,-0.62l1.83 -1.91c-5.64,-5.11 -1.11,0.51 -5.55,-6.17 -3.34,0.5 -10.26,1.49 -13.69,0.58l-3 -1.35c-0.22,-0.47 -0.66,-0.37 -0.96,-0.59 -4.06,0 -14.99,-1.13 -17.14,-4.01 1.08,-0.92 0.18,-1.32 5.33,-1.09 8.48,0.4 30.52,-0.06 36.31,-2.95 -2.79,-2.68 -7.83,0.06 -14.93,-0.57 -15.8,-1.42 -7.53,-2.85 -12.64,-6.16 3.48,-1.68 5.73,-2.05 8.91,-0.79 -1.6,0 -4.64,0.19 -6.05,0.03 -4.7,-0.53 -4.94,-1.3 -6.18,-2.12l-5.72 -2.25 -10.15 0.56 -1.55 5.71z"/>
   <path class="fil10" d="M366.55 328.64c7.78,-0.38 8,-2.11 13.46,1.88 -0.33,3.44 -0.6,3.86 -1.87,6.12l3.41 -0.08c-0.35,4.48 -0.91,3.89 -3.58,5.76 -3.92,2.76 -2.7,1.35 -4.91,5.13 2.97,2.59 0.9,-2.08 2.53,3.77 0.91,3.26 0.33,2 -0.22,3.69l11.46 -0.5c6.36,-4.35 -3.11,4.16 4.44,-3.95 2.68,-2.89 9.04,-7.35 12.11,-2.78 1.07,1.59 1.1,1.47 0.13,3.36 -0.87,1.66 -3.41,2.57 -3.96,2.96l15.07 -4.62 -0.01 5.03c0.81,-0.79 2.08,-0.33 2.1,-4.44 3.1,0.52 3.63,1.19 6.74,1.84 4.19,0.87 3.46,-0.25 7.9,0.97 -2.9,-3.99 -15.39,-11.21 -21.08,-13.34 -12.88,-4.81 -22.36,6.56 -24.29,-4.77 5.27,-2.55 8.11,-1.8 15.33,-2.48 -9.23,-3.79 5.31,-6.13 -25.57,-5.54 -8.79,0.16 -7.52,0.19 -9.19,1.99z"/>
   <path class="fil39" d="M92.81 282.46c-0.53,5.04 -2.22,7.07 -2.86,13.59 -0.51,5.16 -0.46,11.42 1.34,15.84 2.63,-2.79 2.07,-5.36 4.09,-8.59 1.57,-2.5 4.1,-5.66 7.66,-4.05 3.32,2.77 -1.66,5.94 -2.74,11.32 -0.96,4.8 -0.13,9.94 -0.86,14.69 1.44,8.91 -0.97,7.48 3.39,17.3l10.92 -22.89c1.37,-3.06 4.83,-11.27 6.82,-12.21 -1.27,-2.29 0.16,2.07 -1.26,-2.88 -0.32,-1.1 -0.27,-2.2 -0.36,-3.29 -0.82,1.19 -3.81,4.45 -6.16,4.93 -5.42,1.09 -2.43,-1.21 -5.79,-3.82 -3.08,-3.38 -1.51,-5.67 -1.75,-9.45 -4.16,-3.53 -4.06,-1.89 -5.69,-6.41 -3.22,-8.97 -0.9,-1.5 -4.43,-6.94 -0.81,4.46 1.2,3.44 -2.32,2.86z"/>
   <path class="fil40" d="M120.57 307.46c-1.99,0.94 -5.45,9.15 -6.82,12.21l-10.92 22.89c-4.36,-9.82 -1.95,-8.39 -3.39,-17.3 -4.2,17.71 1.45,14.27 1.84,28.55 0.14,5.09 0.3,7.24 1.07,12.27 1.68,-0.83 1.47,-0.83 2.56,-3.57 5.21,-13.05 8.84,-25.69 14.56,-37.19 7.57,-15.23 22.19,-31.95 23.75,-36.42 -3.87,-0.39 -4.83,-1.52 -8.2,0.47 -2.86,1.69 -3.44,3.21 -5.08,5.48 -2.96,4.11 -6.1,7.97 -9.37,12.61z"/>
   <path class="fil41" d="M46.34 443.75c0.2,4.1 -2.83,12.29 -4.7,14.96 1.42,2.11 -1.65,0.75 2.41,2.3 2.64,-1.44 1.56,-0.97 3.66,-3.78 24.96,-33.38 23.69,-18.44 8.59,-38 -6.84,-8.87 -4.47,-10.28 -10.85,-13.67 -1.72,4.68 -3.23,3.59 -3.69,9.15 -0.26,3.21 -0.15,7.44 0.59,10.15 2.21,8.15 5.95,9.23 3.99,18.89z"/>
   <path class="fil42" d="M115.43 408.98c5,-8.69 4.03,-19.61 8.43,-29.85l9.06 -20.29c1.17,-2.33 2.28,-3.7 3.52,-6.07 -6.74,2.56 -11.61,8.93 -23.4,14.33 -2.36,1.07 -6.23,3.6 -7.2,5.49 -3.28,6.4 3,22.15 6.79,29.03 3.86,7.02 1.24,5.59 2.8,7.36z"/>
   <path class="fil43" d="M142.53 181.55c5.48,-0.36 8.29,4.6 13.58,11.88 2.74,3.77 8.98,9.04 13.29,12.02 5.02,3.49 12.4,6.05 20.31,4.23 3.09,-0.7 14.18,-7.3 15.61,-8.63 -13.46,-0.99 -37.77,-6 -48.52,-15.57 -3.33,-2.98 -4.65,-2.72 -7.3,-5.34 -2.44,-2.41 -3.09,-4.34 -4.94,-7.73 -4.28,-7.87 -1.85,-5.72 -3.77,-9.75 -1.84,4.55 -2.59,2.57 -3.93,6.42 1.18,2.39 0.41,0.46 1.4,2.62l0.63 1.5c2.33,5.36 2.95,3.92 3.64,8.35z"/>
   <path class="fil14" d="M161.28 395.36c0.36,8.92 2.37,15.56 2.24,26.71 2.93,2.26 6.66,4.73 10.35,7.7 2.98,2.4 6.49,7.14 10.03,8.15l0.72 -0.79c-3.5,-4.71 -4.85,-4.28 -3.05,-8.57l3.95 0.2c-0.71,-5.47 1.51,-1.6 1.26,-7.97l-2.07 2.99c-8,-1.54 -4.03,-7.43 -3.94,-15.07l-1.37 -2.41c-0.16,-0.3 -0.61,-1.21 -0.77,-1.5 -2.83,-5.25 -3.31,-4.47 -6.74,-8.74 -3.56,-4.42 -4.55,-8.93 -11.49,-8.77l0.88 8.07z"/>
   <path class="fil44" d="M332.09 453.19l0.64 2.14c2.29,-0.81 18.4,3.8 23.13,4.72 10.78,2.09 35.31,4.24 44.48,9.89 2.13,1.31 -0.09,0.13 2.01,1.16 11.16,5.49 12.26,10.08 14.66,2.69 0.62,-1.91 -0.16,-1.23 0.75,-2.71 2.98,0.45 10.81,4.75 12.78,-5.27 -3.4,2.16 -4.72,5.62 -11.6,3.35 -3.34,-1.1 -6.42,-3.27 -11.06,-4.66 -27.13,-8.14 -23.01,-13.63 -50.18,-10.17 -4.76,0.61 -10.21,1.15 -13.75,0.19 -4.89,-1.33 -6,-2.29 -11.86,-1.33z"/>
   <path class="fil14" d="M135.81 195.86c1.17,3.01 3.92,6.92 6.31,9.51 1.88,2.04 2.58,2.22 4.35,4.05 1.55,1.6 1.77,2.26 3.57,3.99 3.56,2.66 1.89,4.1 6.89,6.58 4.8,2.38 3.37,0.19 7.33,3.99 3.9,0.89 2.69,1.43 6.15,2.42 2.11,0.6 6.14,0.8 8.51,0.93 5.34,0.28 10.24,-1.84 15.14,-2.61 0.33,-0.37 8.78,-5.38 9.92,-6.03 2.28,-1.32 2.94,-1.48 4.9,-3.34 2.58,-2.47 3.13,-3.38 4.09,-5.89 -4.35,0.75 -11.32,6.29 -18.64,9.15 -14.11,5.51 -30.09,-2.39 -38.56,-12.19 -4.28,-4.94 -7.82,-8.94 -12,-13.86 -2.44,0.47 -6.96,2.02 -7.96,3.3z"/>
   <path class="fil34" d="M245.59 368.49c-2.66,-6.62 -14.19,-14.23 -20.3,-16.28l-12.92 -3.43c-3.92,-1.25 1.74,-2.06 -12.47,-3.92 -3.52,-11.75 -3.4,-6.38 -11.24,-10.63l-1.44 -1.05c-0.8,7.9 -11.82,11.77 -14.79,18.14l12.04 -5.17c3.62,-1.92 7.94,-4.73 11.79,-2.48 5.22,6.98 -5.49,10.09 -9.29,11.5 4.23,1.86 1.64,-0.96 6.77,0.21 1.62,0.38 3.95,1.97 6.66,2.63 7.62,1.85 11.73,-0.53 16.8,-0.07 6.98,0.63 22.76,8.09 28.39,10.55z"/>
   <path class="fil45" d="M235.98 122.35c-0.44,-4.98 -0.46,-1.55 1.22,-2.48l20.23 12.47c2.72,3.54 -1.72,3.77 2.69,10.73 1.2,1.89 0.86,2.03 2.27,3.98 9.05,1.4 5.89,-0.16 8.69,2.56 1.38,-0.98 4.65,-3.56 5.77,-4.61 -1.99,-1.57 -4.78,-4.57 -6.33,-5.75 3.83,-0.89 7.73,2.7 10.18,5.14l1.08 1.09c0.12,0.11 0.36,0.39 0.56,0.55 4.04,-1.74 6.85,-4.69 8.18,-8.44 -6.62,-13.09 -25.5,-3.35 -42.09,-13.3l-17.69 -9.71c-5.87,-3.44 -11.98,-7 -18.51,-9.04l23.75 16.81z"/>
   <path class="fil46" d="M73.45 138.58c5.23,1.56 14.32,1.21 18.95,-0.99 0.13,-5.87 -3.3,-8.7 -6.09,-11.87 -1.78,-2.03 -6.22,-8.37 -7.96,-9.76 -2.84,-2.27 -9.87,-2.35 -13.77,-4.05 -4.25,-1.85 -7.48,-3.84 -12.02,-6.39 3.33,13.53 12.51,16.28 15.89,24.34 1.22,2.91 0.21,1.67 2.01,4.4l2.99 4.32z"/>
   <path class="fil47" d="M102.72 185.21c-2.87,4.3 -4.68,6.46 -8.02,9.87 -3.47,-2.54 -3.35,-3.51 -5.51,-7.36 -4.75,1.73 -4.09,0.21 -5.72,6.02 -7.12,25.49 -10.09,42.89 -10.8,70.35l2.08 1.46c0.03,-18.37 4.12,-32.23 7.89,-47.85l0.89 -2.58c-0.64,-3.7 3.97,-11.71 5.23,-17.16l5.68 4.31c6.49,-1.47 23.54,-23.47 23.5,-28.33 -7.59,-1.27 -7.65,4.13 -15.22,11.27z"/>
   <path class="fil27" d="M405.14 437.03c6.47,4.45 5.94,2.85 8.65,6.69 2.07,2.93 -1.16,0.78 2.6,3 5.88,2.83 24.22,-7.16 21.16,-22.43 -5.08,-0.83 -4.74,-0.46 -7.2,1.8 -2.48,-2.11 -3.67,-2.84 -7.06,-2.79 -12.98,0.2 -15.09,-0.07 -18.15,13.73z"/>
   <path class="fil10" d="M136.32 310.34c-5.31,4.67 -11.1,15.39 -15.39,23.98 -2.37,4.75 -3.59,8.71 -5.89,13.72 -1.74,3.77 -5.13,10.74 -5.5,14.82 4,-3.11 3.38,-3.83 6.08,-6.73 4.62,-4.96 8.57,-0.94 8.22,-5.16 3.15,-6.62 3,-19.54 6.9,-23.88 2.02,-2.26 3.46,-2.26 4.64,-5.15 0.11,0.16 0.22,0.27 0.26,0.54 0.58,4.02 7.52,5.51 8.73,6.34 4.29,-5.36 2.8,-7.05 4.73,-13.6 0.97,-3.28 0.79,-1.39 1.74,-4.08 -1.71,-1.44 -2.64,-3.61 -6.28,-3.77 -1.86,-0.08 -1.61,0.37 -3.02,1.12 -1.94,1.02 0.92,1.26 -5.22,1.85z"/>
   <path class="fil48" d="M342.43 385.63c5.62,3.17 0.97,0.92 2.82,-0.3 -2.45,-18.35 0.38,-4.65 1.92,-14.03 0.91,-5.52 -5.14,-9.6 6.26,-11.63 4.07,-3.7 6.31,-2.04 10.04,0.31 3.14,-0.03 5.04,-0.39 7.27,-1.62 2.24,-1.23 0.89,-0.64 2.57,-1.92 1.46,-1.1 0.18,-0.38 2.06,-1.53 0.55,-1.69 1.13,-0.43 0.22,-3.69 -1.63,-5.85 0.44,-1.18 -2.53,-3.77 -10.23,2.36 -5.28,3.04 -18.32,2.22 -15.01,-0.96 -19.94,10.33 -17.92,21.82 0.75,4.33 2.92,11.64 5.61,14.14z"/>
   <path class="fil49" d="M223.92 469.31c3,4.06 7.9,6.74 12.27,8.38 3.62,1.35 3.74,2.48 7.37,2.92 2.53,0.31 7.68,-0.04 10.5,-0.11 9.79,-0.26 24.3,-3.81 22.44,-16.44l-3.57 -0.94c-3.53,-0.09 -5.24,1.92 -8.79,3.78 -12.43,6.52 -35.06,0.25 -40.22,2.41z"/>
   <path class="fil50" d="M312.18 240.28c-2.45,3.57 -6.27,2.95 -13.21,6.26 -1.15,0.55 -5.64,2.4 -6.78,2.7 -12.43,3.29 -6.93,-1.13 -14.97,15.5 -2.95,6.08 0.59,0.85 -5.1,4.47 -6.7,4.25 -0.31,12.78 4.73,2.33 1.57,-3.23 -0.1,-0.04 1.54,-2.6 3.18,-4.95 2.16,-6.87 7,-10.64 4.08,-3.18 19.23,-10.88 24.99,-10.28 2.44,-3.38 8.75,-1.47 12.9,-1.33 4.68,0.15 9.81,0.2 14.3,-0.51 1.65,-4.7 0.03,-1 -0.57,-5.62 -0.44,-3.37 -0.07,-9.39 -7.63,-10.82 1.55,4.87 4.71,6.58 3.35,10.16 -6.7,-0.74 -2.31,-1.51 -6.59,-6.52 -2.93,3.53 -0.43,2.03 -1.81,6.08 -12.85,-0.38 -4.61,-6.54 -12.11,-5.81l2.5 5.78 -2.54 0.85z"/>
   <path class="fil51" d="M112.14 251.44c-1.4,4.64 -1.33,5.2 -5.36,6.92 -4.68,-7.38 -0.65,-15.13 -4.17,-22.86 -8.62,3.25 -3.81,39.7 9.19,27.62 3.31,-3.07 3.72,-6.18 5.44,-9.53 0.11,-0.2 0.33,-0.55 0.42,-0.71 0.09,-0.17 0.25,-0.5 0.43,-0.71 0.55,-8.82 4.3,-3.06 10.61,-6.89 4.24,-2.58 4.3,-6.91 7.41,-10.56l-0.73 -6.51c-7.47,1.7 -3.36,9.75 -11.83,11.86l-0.94 -5.77c-4.67,-2.76 -0.23,-5.42 -6.13,-9.19 -4.56,4.44 -1.24,9.04 0.17,14.26 1.22,4.51 0.24,11.14 -4.51,12.07z"/>
   <path class="fil52" d="M453.13 375.03l1.38 2.08c0.08,-0.2 0.3,0.6 0.48,0.87 -5.83,7.36 -4.78,5.16 -12.46,10.21 -2.24,0.38 -9.89,6.57 -13.69,8.32 -11.59,5.33 -11.42,-3 -15.06,4.55l-3.57 -1.03c2.84,3.66 11.69,2.23 15.99,1.98 5.02,-0.3 9.35,-1.04 12.45,-3.14 7.28,-4.94 6.26,-1.88 12.64,-4.32 3.46,-1.32 2.24,-1.94 4.98,-3.04 2.85,-1.15 2,0.51 5.76,-1.63 2.52,-2.3 2.98,-5.25 4.85,-7.91 1.93,-2.75 3.34,-3.26 1.84,-8.66 -7.12,-0.17 -5.46,4.17 -15.59,1.72z"/>
   <path class="fil45" d="M405.81 305.22c-5.25,-14.65 -17.91,-18.66 -16.96,-32.74 5.19,1.37 6,3.47 9.38,6.41 2.91,2.55 5.16,4.42 9.68,6.31 -1.38,-7.63 -7.85,-19.57 -11.65,-24.28 -4.07,-5.06 -4.17,-4.23 -11.02,-5.38 -6.21,-1.04 -6.3,-4.43 -11.62,-6.84 1.93,8.48 20,40.25 26.42,51.54 1.61,2.84 2.45,4.65 5.77,4.98z"/>
   <path class="fil11" d="M250.67 177.24l1.22 4.07c1.23,0.13 0.43,0.29 1.31,1.42 -0.96,1.17 -1.4,2.4 -1.69,2.93 0.23,0.14 0.62,0 0.74,0.29l8.07 -0.12c6.93,-0.17 4.95,1.03 9.4,2.17l-0.01 3.98c1.72,3.51 0.74,1.16 2.73,3.88 1.14,1.57 1.65,2.53 2.55,3.79l13 -7.47c0.27,-7.22 -2.78,-9.05 -4.59,-11.69 -2.57,-3.74 -2.53,-1.22 -0.02,-2.99l-11.51 -3.16c-1.18,2.56 -0.81,2.88 -4,4.39 -1.59,0.76 -3.25,1.09 -5.78,1.4l1.46 -6.84c-4.86,2.64 -3.66,1.26 -12.88,3.95z"/>
   <path class="fil53" d="M245.39 434.9c6.72,-0.08 5.29,-0.72 10.77,1.64 -5.71,10.31 -18.55,10.78 -32.17,12.58l-8.86 1.43c-2.41,1.03 -0.21,-0.3 -1.86,1.34 3.99,1.58 12.98,0.83 17.65,0.84 8.92,0.01 8.54,-0.56 15.81,-3.19 8.89,-3.21 19.62,-7.67 24.27,-12.93 0.95,-3.18 3.45,-13.3 3.33,-16.53 -3.04,1.38 -2.99,2.88 -5.98,4.82 -4.31,2.79 -13.78,5.91 -19.09,8.09l-3.87 1.91z"/>
   <path class="fil54" d="M268.99 108.36l1.64 3.13c11.51,1.1 15.05,-0.54 22,-5.45 0.26,-4.44 0.77,-4.93 -2.53,-8.73 -2.33,-2.68 -0.98,-1.51 -4.03,-3.35 -11.83,-7.17 -11.34,-5.66 -19.46,-9.85 -4.35,-2.25 -5.92,-3.99 -9.91,-4.64 -1.91,0.75 -0.91,-0.32 -1.37,1.36 1.82,2.32 2.69,3.41 4.91,6.5l12.37 10.52c5.11,2.18 4.59,-0.04 6.81,4.05 -3.02,5.4 -8.38,1.51 -10.43,6.46z"/>
   <path class="fil55" d="M331.68 286.59c5.86,-0.39 11.75,-0.99 16.62,0.86 2.86,-10.9 -5.75,-9.11 -8.76,-13.39 2.52,-2.23 7.45,0.4 9.55,2.52 3.93,3.98 2.08,7.93 3.3,12.33 1.84,0.92 4.02,2.03 6.72,1.44l5.79 -3.69c0.17,-5.87 -0.51,-7.82 -3.39,-11.9 -3.26,-4.61 -3.6,-3.73 -9.93,-4.58 -8.19,-1.1 -11.52,-7.39 -24.48,-3.65l-0.22 3.61c8.11,-0.91 5.77,-1.96 10.12,4.04l4.12 7.13c0.5,1.26 0.86,-0.71 0.91,3.25 -1,0 -3.25,-0.14 -4.06,-0.04l-6.29 2.07z"/>
   <path class="fil20" d="M353.72 163.05c11.35,5.91 20.03,-1.62 20.28,-15.26l-8.31 0.98c-5.9,-7.29 -3.36,-9.82 -1.17,-18.19 2.05,-0.39 8.98,0.04 8.74,-7.28 -8.92,-1.02 -9.75,0.37 -14.98,13.69 -3.46,8.82 -4.68,15.9 -4.56,26.06z"/>
   <path class="fil56" d="M221.28 229.07c-1.16,-2.01 -1.59,-2.26 -2.84,-3.47 -5.9,0.12 -4.72,1.67 -5.33,1.89 -1.78,0.64 -1.2,-0.54 -5.54,-0.81 -3.16,4.32 -1.83,1.64 -3.41,7.18 -4.79,16.82 -0.53,7.32 4.26,16.29 1.37,2.57 4.44,8.8 9.75,3.96 1.56,-1.41 2.6,-5.45 3.07,-7.77 1.12,-5.5 -0.96,-12.28 0.04,-17.27z"/>
   <path class="fil57" d="M313.65 127.43c0.35,-4.52 1.31,-7.42 4.56,-9.96 -0.22,-4.35 -0.15,-2.51 2.32,-4.28l0.3 -2.22c3.61,0.13 4.04,0.66 6.44,0.62 3.15,-0.05 1.92,-0.95 6.71,0.18 -4.26,-5.95 -9.52,-2.97 -15.02,-4.3 -2.99,-0.72 -1.78,-1.07 -5.99,-1.06 0.65,9.16 4.99,4.77 -12.21,17.54 4.19,3.11 4.84,3.35 6.4,8.1 -4.79,-0.42 -3.69,-3.35 -7.91,-5.15 -3.5,-1.5 -5.4,1.1 -10.02,2.14 1.93,2.98 2.52,4.05 4.66,7.47 10.79,-0.08 16.04,-1.79 27.21,0.16 -1.61,-4.7 -2.68,-6.05 -8.42,-6.4 0.68,-1.33 0.95,-2.79 0.97,-2.84z"/>
   <path class="fil28" d="M68.18 137.84l5.27 0.74 -2.99 -4.32c-1.8,-2.73 -0.79,-1.49 -2.01,-4.4 -3.38,-8.06 -12.56,-10.81 -15.89,-24.34 -1.89,-1.92 -12.41,-11.25 -15.85,-13.06 5.68,11.34 0.37,14.34 7.47,21.92 1.79,1.91 2.57,3.15 4.24,5.2 2.44,3 2.04,1.97 5.26,4.18 4.06,2.79 3.54,4.19 9.44,9.42l5.06 4.66z"/>
   <path class="fil58" d="M311.27 151.72l1.1 2.05c1.6,7.07 -7.36,6.49 -7.76,6.54l-1.78 0.25c-0.21,0.02 -0.58,0.05 -0.85,0.14 5.16,0.16 10.02,0.08 15.03,0.51 7.94,0.7 6.53,3.42 12.61,3.75 6.41,-8.46 4.14,-15.67 3.94,-26.86l-8.38 -0.5c3.61,3.89 5.98,1.33 6.79,8.57 -5.48,1.33 -5.14,-0.08 -9.01,-1.89 -3.26,-1.52 -7.9,-2.52 -11.45,-2.86 1.06,3.25 3.36,6.67 5.35,11.09l-5.59 -0.79z"/>
   <path class="fil29" d="M218.58 424.24l3.64 1.42c1.26,0.43 1.75,0.48 3.15,0.97 2.02,0.72 4.18,1.58 6.17,2.29 -4.76,4.38 -10.79,1.36 -19.19,2.23 9.57,6.86 38.44,-5.01 47.53,-8.44 4.53,-1.71 3.77,-1.63 7.6,-4 7.04,-4.36 11.35,-5.92 11.86,-11.33 -9.02,-3 -13.89,4.87 -26.36,11.58 -11.17,6.02 -21.22,4.65 -34.4,5.28z"/>
   <path class="fil59" d="M320.53 113.19c3.05,3.61 8.44,3.9 12.9,5.77 6.91,2.9 9.44,1.68 17.48,1.76 -2.08,8.47 -5.86,5.3 -5.71,18.15 -0.35,4.87 -0.89,4.87 3.66,5.84 0.13,-5.62 2.72,-11.55 5.09,-16.32 3.29,-6.6 8.28,-7.42 7.11,-14.94 -6.69,-1.76 -21.9,2.79 -27.08,-1.68 -4.79,-1.13 -3.56,-0.23 -6.71,-0.18 -2.4,0.04 -2.83,-0.49 -6.44,-0.62l-0.3 2.22z"/>
   <path class="fil60" d="M161.28 395.36l-0.88 -8.07c6.94,-0.16 7.93,4.35 11.49,8.77 3.43,4.27 3.91,3.49 6.74,8.74 0.16,0.29 0.61,1.2 0.77,1.5l1.37 2.41c-2.8,-27.69 -3.19,-20.15 -11.74,-42.39 -1.74,1.06 -0.52,0.45 -1.75,1.49l-10.69 9.12c2.09,9.05 3.78,1.88 3.82,8.2 0.02,2.93 -1.01,0.65 -0.85,5.54 0.13,3.98 0.46,3.42 1.72,4.69z"/>
   <path class="fil61" d="M43.04 87.81c2.45,6.6 20.46,17.21 27.25,19.21 1.39,-1.97 0.43,-5.09 2.78,-6.75 3.42,-2.4 3.89,0.67 7.72,1.42 2.48,-7.08 -0.6,-1.5 4.75,-13.45 -20.92,-0.5 -16.76,13.17 -39.39,-2.43l-3.11 2z"/>
   <path class="fil46" d="M66.1 145.24c0.58,5.08 -0.06,-5.52 -0.13,2.23 0,1.13 -0.21,0.82 0.06,2.66 1.18,7.94 9.22,4.3 10.92,8.21 9.11,-1.16 20.22,-2.65 26.58,-8.18l-4.74 -7.36c-19.18,2.95 -9.18,3.61 -32.69,2.44z"/>
   <path class="fil15" d="M268.99 108.36c2.05,-4.95 7.41,-1.06 10.43,-6.46 -2.22,-4.09 -1.7,-1.87 -6.81,-4.05l-12.37 -10.52c-2.22,-3.09 -3.09,-4.18 -4.91,-6.5 0.46,-1.68 -0.54,-0.61 1.37,-1.36 -2.48,-3.07 -10.52,-9.01 -15.06,-9.75 0.61,4.79 18.06,30.57 26.02,37.57 0.17,0.15 0.51,0.41 0.66,0.53 0.14,0.13 0.43,0.37 0.67,0.54z"/>
   <path class="fil51" d="M233.55 400.19c-5.79,2.89 -27.83,3.35 -36.31,2.95 -5.15,-0.23 -4.25,0.17 -5.33,1.09 2.15,2.88 13.08,4.01 17.14,4.01 12.09,1.3 20.23,0.12 30.19,-3.07 9.45,-3.04 17.59,-5.57 19.32,-12.91 -9.04,0.29 -16.24,6.35 -25.01,7.93z"/>
   <path class="fil62" d="M237.97 299.53c-6.19,0.04 -11.8,-9.97 -14.61,13.64 3.71,0.48 5.9,3.49 12.97,-3.33 1.79,-1.72 0.03,-1.08 2.97,-3.09 4.08,9.34 7.28,0.8 10.95,-1.35 -0.38,-5.09 -1.15,-5.01 -2.16,-8.4 -1.35,-4.56 2.27,-1.29 -1.44,-6.23 -6.47,0.77 -4.57,4.47 -8.68,8.76z"/>
   <path class="fil13" d="M284.06 480.05l12.57 -18.46c2.24,-3 2.54,-1.91 3.51,-5.36 0.06,0.07 2.25,1.54 2.48,1.73 -1.09,-6.99 -1.03,-24.47 -3.35,-28.42 -3.23,1.76 -3.08,9.49 -3.84,13.02 -3.1,14.3 -11.01,21.18 -15.65,34.54 4.79,0.92 3.04,-0.52 4.28,2.95z"/>
   <path class="fil28" d="M21.94 434.87c2.05,4.72 13.73,21.03 19.7,23.84 1.87,-2.67 4.9,-10.86 4.7,-14.96 -1.06,1.04 -0.26,0.49 -1.89,1.02 -0.56,-0.93 -5.18,-11.98 -5.48,-13.33 -3.58,3.46 -1.09,3.38 -6.77,3.46 -4.54,0.07 -2.88,0.44 -5.19,0.61 -3.37,0.26 -0.93,0.75 -5.07,-0.64z"/>
   <path class="fil63" d="M317.78 189.11l13.85 2.21c7.61,-11.2 0.39,-12.73 -1.2,-14.83 -2.77,-3.63 -0.61,-2.2 -1.9,-5.94l-5.28 -0.4 1.56 7.48c-0.05,2.08 0.02,1.15 -0.48,2.27 -0.18,-0.22 -0.41,-0.86 -0.48,-0.69l-3.12 -7.55c-1.5,-3.82 -2.27,-4.59 -7.39,-5.38 2.07,9.24 3.67,13.52 4.44,22.83z"/>
   <path class="fil17" d="M284.06 480.05c-3.15,5.98 -6.92,0.44 -11.19,8.16l4.96 0.7c7.72,-0.8 7.77,-5.68 10.63,-7.3 6.8,-3.14 9.03,0.39 13.53,-6.3 3.58,-5.31 0.84,-11.01 0.63,-17.35 -0.23,-0.19 -2.42,-1.66 -2.48,-1.73 -0.97,3.45 -1.27,2.36 -3.51,5.36l-12.57 18.46z"/>
   <path class="fil0" d="M192.99 139.69l-9.33 -4.32c-13.9,14.28 -3.69,34.1 7.54,18.1 3.71,-5.28 2.61,-6.96 1.79,-13.78z"/>
   <path class="fil48" d="M368.57 383.98c-0.79,1.33 -1.27,2.34 -2.25,4.42 -6.43,-0.09 -3.68,-1.5 -9.36,-2.36l-0.71 18.18c2.52,1.46 -2.64,1.79 3.75,0.55 7.93,-0.16 7.45,-5.26 17.11,-4.36 -1.72,-2.19 -0.1,-0.93 -3.17,-2.29 -0.26,-0.12 -1.79,-0.17 -2.18,-0.19l0.1 -10.5c3.05,-1.95 8.5,-3.02 11.32,-2.6l-1.1 -2.26 -13.51 1.41z"/>
   <path class="fil64" d="M318.21 117.47c1.42,2.78 -1.74,0.34 3.32,2.75l14.45 3.67c-1.33,3.4 -5.49,5.4 1.99,14.76l-0.31 -0.16 5.58 -2.49 1.96 2.87c-0.15,-12.85 3.63,-9.68 5.71,-18.15 -8.04,-0.08 -10.57,1.14 -17.48,-1.76 -4.46,-1.87 -9.85,-2.16 -12.9,-5.77 -2.47,1.77 -2.54,-0.07 -2.32,4.28z"/>
   <path class="fil65" d="M238.25 239.05l-3.89 -3.88c-4.28,5.35 -0.72,10.97 5.57,10.09 5.04,-0.71 8.9,-5.79 15.18,-6.77 4.6,13.68 0.3,8.26 11.18,20.21 2.94,3.23 3.44,4 7.33,1.46 -0.08,-4.16 -4.11,-6.22 -7,-9.19 -10.78,-11.05 -8.36,-18.45 -16.52,-16.82 -2.28,0.45 -8.14,3.9 -11.85,4.9z"/>
   <path class="fil66" d="M448.66 345.68c1.75,-2.04 -0.54,-0.42 2.19,-1.98 3.19,-1.83 14.8,-3.36 19.21,-0.79l0.01 -3.14c-4.04,-6.77 -7.28,-7.87 -16.27,-5.66 -7.3,1.8 -14.22,1.39 -19.36,6.08 2.08,3.75 9.27,8.39 14.22,5.49z"/>
   <path class="fil67" d="M313.65 127.43c11.03,2.23 6.79,3.79 11.53,10.17l8.38 0.5 4.41 0.55c-7.48,-9.36 -3.32,-11.36 -1.99,-14.76l-14.45 -3.67c-5.06,-2.41 -1.9,0.03 -3.32,-2.75 -3.25,2.54 -4.21,5.44 -4.56,9.96z"/>
   <path class="fil68" d="M123.84 350.97c4.71,-2.8 17.29,-12.84 20.41,-15.95 -0.11,-0.3 -0.3,-0.67 -0.42,-0.86 -2.41,-3.76 -3.51,-3.22 -3.45,-3.05l3.99 -2.29c-1.21,-0.83 -8.15,-2.32 -8.73,-6.34 -0.04,-0.27 -0.15,-0.38 -0.26,-0.54 -1.18,2.89 -2.62,2.89 -4.64,5.15 -3.9,4.34 -3.75,17.26 -6.9,23.88z"/>
   <path class="fil69" d="M168.6 153.23c-0.24,-4.07 -4.16,-17.66 6.54,-25.34l3.55 -2.72c-19.87,-6.83 -29.29,16.64 -10.09,28.06z"/>
   <path class="fil51" d="M100.18 217.18l-1.81 2.3c0.04,6.08 -0.45,2.03 1.68,3.48 3.37,-3.41 1.42,0.27 8.79,-0.56 3.98,-2.33 5.19,-4.22 6.61,-9.39l3.06 -9.47c0.01,-0.02 0.8,-1.68 -0.79,-4.46 -6.17,-0.7 -3.82,11.98 -9.47,14.84 -5.17,-4.47 0.89,-6.03 -2.27,-12.51 -1.1,-0.02 -4.67,-2.03 -5.19,5.44 -0.31,4.46 0.78,5.6 -0.61,10.33z"/>
   <path class="fil70" d="M80.73 401.19c-0.37,-4.42 0.59,-8.44 -0.25,-12.49l-2.8 -8.9c-1.59,-6.78 -4.23,-11.88 -6.89,-16.87 -1.15,3.1 -1.43,2.69 -2.65,5.45 -5.26,0.05 -2.81,-0.95 -7.46,-1.74 1.17,4.62 7.26,12.2 10.07,17.19 3.63,6.45 2.79,4.2 5.75,7.88 2.44,3.05 2.28,5.93 4.23,9.48z"/>
   <path class="fil71" d="M353.43 359.67c-4.56,4.55 -5.15,3.17 -4.37,9.35 0.94,7.42 -0.31,7.34 3.4,11.33 1.91,2.05 0.71,0.45 2.51,2.73l1.99 2.96c5.68,0.86 2.93,2.27 9.36,2.36 0.98,-2.08 1.46,-3.09 2.25,-4.42 -3,-0.51 -1.18,1.03 -4.03,-2.14l-2.33 -2.98c-2.77,-2.64 -3.22,-1.77 -5.55,-5.91 -4.53,-8.07 -2.91,-12.89 8.6,-11.75l-1.79 -1.22c-3.73,-2.35 -5.97,-4.01 -10.04,-0.31z"/>
   <path class="fil19" d="M369.51 236.13c11.81,5.12 9.88,2.72 20.45,13.25l11.86 13.33c1.39,1.4 2.76,3 4.43,4.22 -0.69,-10.83 -17.29,-20.87 -27.18,-33.96l-9.97 -11.63 0.41 14.79z"/>
   <path class="fil51" d="M171.12 271.8c-0.6,2.77 -1.18,12.24 -0.96,14.65 0.52,5.78 2.35,8.73 8.26,8.47 4.25,-3.01 11.5,-15.72 11.24,-20.49 -7.04,-0.03 -4.83,8.47 -12.29,12.64 -1,-1.26 -2.18,-0.29 -1.96,-8.76 0.1,-4.16 0.06,-7.45 -0.05,-11.64 -3.94,1.47 -2.72,0.98 -4.24,5.13z"/>
   <path class="fil51" d="M312.05 372.38c-1.32,-8.45 1.36,-11.4 0.41,-19.11 -1.32,-10.58 4.06,-6.67 8.39,-11.99l-2.41 -4.92c-17.51,-1.39 -11.72,31.41 -10.42,35.76l4.03 0.26z"/>
   <path class="fil51" d="M113.15 291.4l-0.17 -6.45c-4.24,0.19 -4.74,0.89 -5.42,5.31 -0.47,3.03 -0.67,9.01 -0.56,12.14 3.36,2.61 0.37,4.91 5.79,3.82 2.35,-0.48 5.34,-3.74 6.16,-4.93 1.93,-3.16 2.9,-5.54 4.48,-8.68 1.42,-2.83 2.47,-4.61 1.99,-8.75l-3.59 -0.26c-2.1,5.31 -3.94,11.34 -8.5,14.82l-0.18 -7.02z"/>
   <path class="fil51" d="M153.72 243.79c-2,6.51 -5.31,12.47 -2.94,19.09 5.81,2.58 6.63,-0.88 10.39,-3.97 4.21,-3.45 8.06,-2.7 9.16,-9.2 -8.18,-1.78 -5.12,3.71 -14.48,5.74 0.18,-6.78 2.63,-10.82 5.62,-16.03 0.11,-2.98 -1.88,-4.45 -4.71,-1.91 -1.04,0.94 -2.3,4.83 -3.04,6.28z"/>
   <path class="fil43" d="M347.07 293.72c0.55,1.29 1.85,3.86 2.08,5.05 0.56,2.9 0.75,1.81 -0.41,4.55 9.39,-2.51 21.07,-1.41 22,-1.58 4.6,-0.81 4.67,0.8 3.48,-5.45 -1.79,-9.37 -13.91,-0.72 -27.15,-2.57z"/>
   <path class="fil72" d="M332.41 292.83l-1.62 2.28c-2.57,4.04 -2.04,4.17 -1.64,8.17 0.68,3.19 3.38,5.18 5.68,6.42 3.05,-1.51 0.18,0.05 2.48,-1.63l1.24 -0.95c0.19,-0.15 0.46,-0.37 0.64,-0.51l-2.77 -9.33c5.2,1.54 5.01,3.47 7.88,7.01l4.44 -0.97c1.16,-2.74 0.97,-1.65 0.41,-4.55 -0.23,-1.19 -1.53,-3.76 -2.08,-5.05 -4.41,-1.58 -9.67,-2.68 -14.66,-0.89z"/>
   <path class="fil59" d="M245.4 144.93c-9.19,-12.25 -18.47,-19.14 -31.91,-26.52 -3.29,2.64 0.47,1.44 6.24,7.31l15.51 16.98c1.98,2.11 2.21,2.12 4,4.38 2.93,3.68 0.46,2.9 5.33,3.19l0.83 -5.34z"/>
   <path class="fil3" d="M25.26 422.64c-1.95,1.7 -1.81,0.53 -7.79,-1.02 1.23,5.61 2.04,3.5 2.91,8.28 0.57,3.16 -1.41,3.57 1.56,4.97 4.14,1.39 1.7,0.9 5.07,0.64 2.31,-0.17 0.65,-0.54 5.19,-0.61 5.68,-0.08 3.19,0 6.77,-3.46 -2.94,-2.97 -4.04,-7.66 -6.47,-11.68l-3 4.53 -4.24 -1.65z"/>
   <path class="fil65" d="M191.01 307.74c7.76,0.28 10.06,-1.65 12.85,-7.21 2.01,-4.03 5.96,-10.36 3.95,-14.04 -5.95,1.25 -3.59,6.17 -8.68,14.5l-4.97 0.13c-1.81,-2.59 -1.72,-2.52 -3.79,-4.15 0.35,-0.7 1.86,-4.69 2.12,-5.97 0.73,-3.66 0.67,-3.19 -2.53,-4.53 -1.63,2.05 -1.38,1.29 -2.01,4.45 -1.39,6.94 -0.9,12.25 3.06,16.82z"/>
   <path class="fil68" d="M436.01 322.35l0.27 -3.15c-1.93,-2.24 -2.47,-2.85 -4.88,-4.46l0 -0.79c-4.14,-6.65 -6.02,-5.88 -11.87,-14.36 -2.56,-3.71 -2.69,-2.8 -7.31,-5.31 -4.87,-2.65 -4.66,-3.74 -7.67,-4.33l14.2 16.72c2.55,2.89 6.07,5.5 7.58,8.14 2.95,5.16 1.06,7.02 6.12,10.17l3.56 -2.63z"/>
   <path class="fil72" d="M301.82 195.78c-8.14,4.78 -7.99,3.88 -11.45,10.05 1.41,2.17 2.12,4.04 3.52,5.81 3.12,-1.82 -1.18,-0.55 4.49,-2.78 5.91,-2.32 12.42,0.62 11.75,-11.84l-8.31 -1.24z"/>
   <path class="fil73" d="M126.73 281.53c7.17,3.73 10.54,-0.21 12.48,-6.81 1.28,-4.34 5.8,-16.34 -2.12,-11.47 -0.01,4.99 -5.26,21.13 -9.76,11.78 -0.86,-1.77 -0.79,-2.64 -1.34,-4.9l-2.16 -8.34c-6.95,5.01 0.4,15.9 2.9,19.74z"/>
   <path class="fil63" d="M288.63 182l2.97 9.07c9.46,-2.35 11.26,-3.36 22.08,-2.89 0.11,-1.99 0.47,-3.79 0.32,-5.5 -0.16,-1.81 0.1,-0.22 -0.31,-1.89 -0.49,-1.97 -0.39,-1.36 -1.07,-2.38 -2.2,1.6 -3.85,0.27 -11.18,2.5 -2.38,0.72 -6.85,1.61 -9.65,2.74l-2.36 -1.04c-0.14,-0.4 -0.54,-0.39 -0.8,-0.61z"/>
   <path class="fil74" d="M448.66 345.68l11.92 -2.02c8.78,13.35 -0.65,6.8 10.71,15.4 0.2,-0.22 0.34,-0.6 0.43,-0.77l1.53 -3.21c1.2,-1.51 1.64,-0.47 1.79,-1.04 0.06,-0.24 0.42,-0.09 0.6,-0.2 -0.46,-4.65 -0.52,-3.87 -2.07,-7.46 -0.52,-1.23 -1.04,-2.66 -1.57,-3.69 -1.43,-2.79 -0.55,-1.34 -1.93,-2.92l-0.01 3.14c-4.41,-2.57 -16.02,-1.04 -19.21,0.79 -2.73,1.56 -0.44,-0.06 -2.19,1.98z"/>
   <path class="fil75" d="M360.03 322.08c6.01,-0.17 7.33,-0.95 12.35,-2.15 4.62,-1.1 8.63,-0.42 13.77,-1.1 -1.4,-6.28 -4.28,-6.79 -9.53,-7.78 -5.36,-1.02 -11.23,-2.53 -16.63,-2.41 2.29,2.63 2.3,1.66 4.72,3.77 3.24,2.82 2.53,4.63 2.42,6.79l-7.1 2.88z"/>
   <path class="fil59" d="M348.27 309.62c-1.53,4.2 1.09,-0.45 3.68,6.88 0.61,2.08 -0.14,-0.21 1.11,2.3 0.99,2 0.9,1.43 1.67,3.55l5.3 -0.27 7.1 -2.88c0.11,-2.16 0.82,-3.97 -2.42,-6.79 -2.42,-2.11 -2.43,-1.14 -4.72,-3.77l-11.72 0.98z"/>
   <path class="fil65" d="M450.05 433.85c8.14,0.45 8.74,-4.99 10.01,3.97 -1.78,1.44 -0.14,0.38 -2.43,1.3 -0.96,0.39 -1.09,0.07 -2.74,0.8 -0.14,9.9 12.68,8.78 10.4,-5.52 -1.96,-12.29 -13.25,-10.2 -15.24,-0.55z"/>
   <path class="fil76" d="M274.46 455.57c11.73,-0.39 11.97,-6.64 8.54,-16.46l-8.04 1.1c-1.92,4.58 -2.29,1.35 -2.58,7.04 -0.24,4.78 0.26,5.82 2.08,8.32z"/>
   <path class="fil77" d="M265.45 448.91l2.99 0.45c-1.08,6.89 -2.92,4.58 -9.64,6.98 -5.74,2.05 -6.73,2.23 -9.3,7.71 9.21,-0.92 19.01,-5.34 24.96,-8.48 -1.82,-2.5 -2.32,-3.54 -2.08,-8.32 0.29,-5.69 0.66,-2.46 2.58,-7.04 -7.88,2.28 -0.41,0.28 -7.09,6.21 -0.18,0.16 -0.47,0.37 -0.63,0.52l-1.22 1.25c-0.1,-0.2 -0.4,0.46 -0.57,0.72z"/>
   <path class="fil78" d="M17.47 421.62c5.98,1.55 5.84,2.72 7.79,1.02l-7.03 -15.59c-1.43,-2.86 -2.36,-4.39 -3.91,-7.67 -2.75,-5.81 -0.53,-3.71 -5.73,-5.41l3.16 11.2c0.38,1.24 0.48,2.03 0.87,3.29 0.93,3.06 1.59,3.98 2.59,6.94 0.48,1.43 1.31,4.63 2.26,6.22z"/>
   <path class="fil76" d="M274.33 420.08c0.12,3.23 -2.38,13.35 -3.33,16.53 5.13,-1.84 10.54,-3.77 14.33,-7.71 1.15,-9.93 -2.43,-10.15 -11,-8.82z"/>
   <path class="fil24" d="M83.53 215.12l-0.89 2.58 1.32 1.7c1.28,1.67 -0.04,0.35 1.03,1.35 0.48,-9.63 2.06,-7.95 5.25,-8.62 0.21,0.31 0.43,0.42 0.49,1 0,0.01 2.29,5.31 -0.75,9.82 3.01,0.14 3.36,-0.46 4.46,1.79 0.71,-1.02 0.81,-1.2 1.64,-2.31 0.19,-0.26 0.87,-1.14 1.06,-1.4l1.23 -1.55 1.81 -2.3c0.37,-2.35 0.8,-5.31 -0.92,-7.71 -1.73,-2.42 0.82,-0.31 -1.93,-1.49 -0.01,-0.01 -8.36,-0.53 -9.58,-0.53 -1.09,3.37 -2.23,5.07 -4.22,7.67z"/>
   <path class="fil65" d="M387.95 443.07c2.07,3.37 -1.79,1.3 3.52,2.34 4.25,0.82 8.33,-2.54 9.75,8.46 -4.36,-1.59 -2.99,-2.84 -7.13,-1.93 -0.13,4.64 5.89,7.57 11.04,7.05 5.17,-14.95 -9.94,-19.25 -13.68,-18.58 -6.65,1.18 -2.04,1.15 -3.5,2.66z"/>
   <path class="fil66" d="M153.23 159.2l11.39 8.95c3.72,3.09 7.12,5.69 12.75,7.36 1,-1.45 0.65,0.42 0.03,-2.04 -2.56,-1.19 -4.71,-3 -6.68,-5.08 -2.23,-2.36 -4.27,-3.75 -7.27,-6.37 -5.59,-4.91 -8.19,-6.81 -11.93,-13.69 -1.54,0.63 -1.35,-0.12 -2.12,0.89 0.6,4.81 3.38,5.22 3.83,9.98z"/>
   <path class="fil51" d="M298.08 323.37c-0.24,-2.31 1.01,-7.31 2.26,-9.29 1.21,-1.92 4.66,-3.83 6.83,-5.39l-0.26 -5.27c-4.09,-0.57 -1.72,-0.36 -5.67,2.08 -8.4,5.19 -9.27,13.78 -7.64,16.02 2.57,3.54 -0.74,1.57 4.48,1.85z"/>
   <path class="fil65" d="M399.55 354c-4.58,3.99 -5.32,-0.04 -3.67,7.16 5.26,0.3 5.57,-0.49 9.32,-3.07 2.67,-1.84 6.61,-3.46 9.41,-3.68l0.01 -5.03 -15.07 4.62z"/>
   <path class="fil35" d="M107.71 144.3c5.17,-1.65 7.86,-7.71 8.43,-13.01 -2.42,-2.89 -2.05,-3.21 -4.91,-4.43 -4.35,4.04 -6.09,11.89 -3.52,17.44z"/>
   <path class="fil48" d="M378.14 336.64c1.27,-2.26 1.54,-2.68 1.87,-6.12 -5.46,-3.99 -5.68,-2.26 -13.46,-1.88 0.43,0.65 1.98,2.77 2.88,4.18l3.19 6.35 5.52 -2.53z"/>
   <path class="fil66" d="M306.54 144.5l-5.42 -1.59c-2.57,3.61 -2.81,1.87 -5.38,5.18 0.67,1.64 1.3,2.99 1.89,4.95 6.8,-0.3 5.91,-1.17 10.6,-3.15 -0.88,-4.58 -0.07,-1.88 -1.69,-5.39z"/>
   <path class="fil73" d="M265.03 282.96c-6.64,10.03 20.84,14.21 6.52,4 -2.31,-1.64 -3.84,-3.45 -6.52,-4z"/>
   <path class="fil73" d="M263.55 173.29l-1.46 6.84c2.53,-0.31 4.19,-0.64 5.78,-1.4 3.19,-1.51 2.82,-1.83 4,-4.39l0.2 -3.28c-8.87,-0.24 -6.23,1.49 -8.52,2.23z"/>
   <path class="fil47" d="M122.61 234.3l2.37 3.08c2.5,-2.55 4.83,-6.45 4.46,-11.02l-4.56 -1.49c-2.29,3.32 -3.39,5.37 -2.27,9.43z"/>
   <path class="fil27" d="M354.48 430.05c1.09,-7.31 2.73,-7.72 3.63,-13.38 -4.63,1.96 -8.9,5.23 -9.6,9.83 2.24,1.26 3.87,2.02 5.97,3.55z"/>
   <path class="fil0" d="M221.28 229.07l4.37 6.55c3.45,-2.18 5.23,-6.58 4.28,-11.17 -4.39,1.65 -0.86,0.84 -4.58,1.66 -3.4,0.75 -2.04,0.26 -4.07,2.96z"/>
   <path class="fil27" d="M378.75 409.42c-2.74,-0.41 -2.26,-0.15 -4.84,0.3 0.97,4.43 -0.85,-0.45 3.54,5.42 1.99,2.68 1.66,2.84 4.87,3.54l1.39 -7.11 -4.96 -2.15z"/>
   <path class="fil51" d="M184.62 437.13l4.02 0.64c0.04,-4.21 -0.97,-2.88 -0.99,-8.27l-2.13 -0.74 -3.95 -0.2c-1.8,4.29 -0.45,3.86 3.05,8.57z"/>
   <path class="fil47" d="M120.73 166.19c2.4,1.89 1.39,1.66 4.26,2.73 1.45,-2.24 1.89,-2.97 3.26,-6.13l-3.12 -5.02c-1.94,1.3 -1.98,1.04 -3.03,3.15 -0.24,0.48 -0.89,2.28 -0.9,2.33 -0.65,2.37 -0.28,0.58 -0.47,2.94z"/>
   <path class="fil59" d="M300.15 174.81c1.7,-0.56 1.6,-0.2 3.07,-0.56 2.52,-0.61 1.14,-0.14 2.5,-0.86 1.4,-4.64 -0.63,-5.29 -4.27,-7.05l-3.82 1.18 2.52 7.29z"/>
   <path class="fil73" d="M89.98 222.95c-3.09,-0.35 -1.88,-0.32 -4.76,-0.38 -0.38,3.7 -0.76,5.21 0.82,8.37l5.11 0.31c0.06,-6.13 -1.44,-2.11 -1.17,-8.3z"/>
   <path class="fil73" d="M288.03 334.42l2.03 -1.46c-3.14,-1.93 -0.94,0.45 -4.23,-4.67 -2.07,-3.21 -1.41,-2.99 -5.54,-3.7 0.36,3.9 5.08,9.09 7.74,9.83z"/>
  </g>
 </g>
</svg>
