<?xml version="1.0" encoding="UTF-8"?>
<!DOCTYPE svg PUBLIC "-//W3C//DTD SVG 1.1//EN" "http://www.w3.org/Graphics/SVG/1.1/DTD/svg11.dtd">
<!-- Creator: CorelDRAW 2020 (64-Bit) -->
<svg xmlns="http://www.w3.org/2000/svg" xml:space="preserve" width="512px" height="511px" version="1.1" style="shape-rendering:geometricPrecision; text-rendering:geometricPrecision; image-rendering:optimizeQuality; fill-rule:evenodd; clip-rule:evenodd"
viewBox="0 0 511 510.05"
 xmlns:xlink="http://www.w3.org/1999/xlink"
 xmlns:xodm="http://www.corel.com/coreldraw/odm/2003">
 <defs>
  <style type="text/css">
   <![CDATA[
    .fil0 {fill:#030201}
    .fil3 {fill:#5F4916}
    .fil18 {fill:#7C5D1C}
    .fil23 {fill:#853D4E}
    .fil9 {fill:#8C9193}
    .fil5 {fill:#916B21}
    .fil7 {fill:#936CB6}
    .fil21 {fill:#98947B}
    .fil4 {fill:#A47B24}
    .fil17 {fill:#A5AAA6}
    .fil22 {fill:#AA4F64}
    .fil16 {fill:#AFAB92}
    .fil1 {fill:#BB8D2B}
    .fil19 {fill:#C7C3A3}
    .fil12 {fill:#D29AFD}
    .fil20 {fill:#DCD2FC}
    .fil15 {fill:#DCE4DA}
    .fil11 {fill:#DF6783}
    .fil2 {fill:#E0BF3D}
    .fil13 {fill:#ECE5B9}
    .fil8 {fill:#F2FBF1}
    .fil6 {fill:#FCA98C}
    .fil14 {fill:#FCF3C9}
    .fil10 {fill:#FFD6AF}
   ]]>
  </style>
 </defs>
 <g id="Layer_x0020_1">
  <metadata id="CorelCorpID_0Corel-Layer"/>
  <g id="_2118314894688">
   <path class="fil0" d="M14 141.14c0,9.68 2.06,18.52 2.01,29 -0.04,6.95 -0.75,14.15 1.6,20.46l1.81 40.12c-0.64,8.91 3.62,10.15 -4.64,17.2 -5.97,5.08 -14.78,18.17 -14.78,26.22l0 25.65c0.87,4.99 3.11,8.88 8.28,12.08 3.85,2.37 9.24,6.9 13.72,7.27 -2.94,12.62 1,56.24 1,69 0,10.41 -3.04,28.36 -5.16,38.84 -1.29,6.37 -5.97,6.95 5.29,21.03 3.51,4.38 5.55,6.66 11.87,8.13 -2.11,7.91 -12.73,23.27 -9.32,37.31 0.89,3.7 0.52,2.89 3.81,4.2 10.03,3.98 19.05,-1.96 27.34,-6.68 1.59,-0.91 0.72,-0.39 2.44,-1.55 13.59,-9.13 39.14,-25.02 54.72,-25.28 11.43,-0.19 7.1,-2.49 13.95,-3.06 10.89,-0.9 20.66,1.09 31.06,1.07l20.3 -0.2c3.09,0.17 5.45,0.3 8.58,0.02 3.48,-0.32 2.62,-0.73 6.27,-0.04 6.61,1.24 7.68,7.66 12.08,11.99 2.05,2.02 2.63,1.77 4.43,3.56 6.36,6.36 11.67,14.81 23.11,6.43 11.09,-8.13 6.39,-20.05 14.2,-20.87l62.48 5.68c2.95,1.05 0.07,0.52 4.28,1.59l13.7 1.32c5.41,-0.34 2.8,0.63 8.2,-0.78 7.37,-1.92 12.42,-3.7 20.4,-3.68 7.08,0.02 5.06,-0.88 9.97,-2.03 0,9.16 0.53,7 10,7 0.32,3.88 1.27,3.39 3.65,5.35 2.14,1.76 3.3,2.99 5.32,4.68l10.29 9.71c6.91,6.88 16.29,23.1 28.18,16.71 5.57,-3 6.14,-12.1 6.31,-17.98 0.03,-0.81 0.13,-2.52 0.18,-3.46l0.5 -15.74c-1.2,-13.39 1.59,-5.26 8.02,-14.81 3.28,-4.86 2.56,-6.12 7.55,-9.46 5.12,3.43 9.39,9.1 13.25,13.76 1.49,1.8 0.86,1.16 1.59,2.4l5.2 8.8c1.04,1.82 2.3,3.36 3.55,5.46 4.36,7.3 7.23,12.76 15.95,8.12 4.72,-2.51 10.58,-8.16 13.16,-12.84 1.16,-2.1 1.35,-3.29 2.72,-5.27 4.48,-6.5 6.36,-8.97 7.88,-18.14 1.08,-6.48 0.84,-14.45 -0.79,-20.8 -0.8,-3.14 -0.52,-4.95 -1.36,-7.64 -0.94,-2.96 -1.45,-2.74 -2.13,-5.93 -0.93,-4.4 0.17,-3.33 -0.48,-6.65 -0.96,-4.94 -1.86,0.6 -0.66,-6.33l0.78 -21.78c-0.1,-2.39 -0.46,-5.64 -0.32,-7.31 0.95,-11.19 0.74,-47.66 1.98,-55.55l2.32 -33.8c0.27,-3.78 -0.15,-3.95 -0.3,-6.94 -0.43,-8.2 1.66,-17.35 1.66,-25.56l-1.03 -69.89c-0.77,-6.14 -6.97,-23.54 -6.97,-28.11 0,-22.58 3.86,-21.55 -1.4,-42.6 -9.7,-38.8 -22.64,-53.48 -54.6,-76.4 -10.43,-7.49 -12.01,-9.7 -23.59,-14.41 -0.22,-0.09 -0.48,-0.2 -0.7,-0.3 -0.2,-0.1 -0.45,-0.24 -0.65,-0.35l-1.21 -0.79c-8.52,-5.2 -47.89,-12.97 -57.99,-14.01 -2.98,-0.3 -5.94,0.07 -8.84,-0.16 -7.94,-0.61 -1.09,-1.91 -22.04,-2 -9.72,-0.04 -17.02,1.36 -27.03,1l-14.95 -0.98c-13.29,0 -8.04,1.45 -24.27,-0.72l-17.91 -0.64c-18.17,-1.37 -37.23,-1 -55.51,1.67 -30.19,4.43 -12.77,2 -32.3,9.7 -13.13,5.19 -45.06,15.93 -55.27,22.73 -1.99,1.33 -1.68,1.22 -3.86,2.15 -14.48,6.14 -27.93,16.41 -39,27l-4.12 3.87c-1.08,1.21 -1.26,1.59 -2.25,2.75l-11.66 15.34c-2.66,3.85 -4.67,10.18 -8.34,12.66 -7.73,5.22 -9.09,9.32 -13.18,17.83 -3.48,7.25 -8.33,15.87 -8.33,24.66z"/>
   <path class="fil0" d="M454 395.52c35.05,-0.4 33.34,19.93 25.9,-57.47 -0.7,-7.32 0.17,-7.74 3.37,-12.61 2.19,-3.34 2.29,-7.39 3.41,-11.72 4.81,-18.55 0.65,-36.1 0.99,-43.55 0.94,-20.77 -0.19,-13.66 -7.16,-23.5 -1.97,-2.78 -2.54,-11.98 -1.47,-15.72 2.59,-9.12 -0.27,5.08 0.92,-2.9 0.53,-3.57 -0.36,-4.46 -0.3,-6.8 0.32,-12.45 1.69,-18.12 2.24,-28.13 0.67,-12.1 11.49,-11.24 -12.55,-20.34 -5.28,-2 -13.36,-2.05 -19.95,-2.86 -7.43,-0.91 -14.66,-1.36 -21.53,-2.45 -7.6,-1.22 -14.84,0.38 -22.49,0.31 -10.13,-0.65 -31,2.68 -33.29,11.49 -2.28,8.78 -5.93,52.17 -5.24,60.9 1.25,15.71 3.25,47.21 6.22,59.71 3.43,14.44 1.46,7.9 2.78,20.13 2.77,25.52 -1.52,32.27 16.96,49.32 10.46,9.65 9.96,12.57 25.45,18.65 22.76,8.94 30.03,5.28 35.74,7.54z"/>
   <path class="fil1" d="M285.28 67.51l6.02 4.23c12.44,6.43 7.07,3.58 17.88,11.23 5.36,3.79 4.77,5.32 9.43,9.58 7.54,6.89 15.61,23.76 19.65,29.35 5.17,7.15 15.89,23.96 12.62,32.12 -4.22,-0.83 -4.04,-3.35 -6.95,-5.82 -2.53,-2.15 -21.25,-9.59 -25.68,-11.29 -14.18,-5.44 -41.52,-13.92 -57.42,-16.95 -18.26,-3.48 -3.98,-0.02 -18.77,-4.98 -7.09,-2.37 -11.63,-4.78 -17.52,-7.58 -5.13,-2.43 -10.25,-6.23 -17.68,-6.25 -3.37,4.99 0.57,0.32 -2.58,2.19 -5.12,3.04 -18.09,-6.59 -32.68,-3.02 -4.66,1.14 -22.33,4.91 -25.43,8.01 -0.14,0.14 -0.33,0.37 -0.47,0.52 -0.14,0.14 -0.34,0.37 -0.48,0.52l-3.57 3.53c6.94,-3.86 7.02,-4.67 13.37,-6.39 2.32,-0.62 1.82,-0.53 3.12,-0.95 12.94,-4.23 45.68,-0.11 58.57,8.91 3.16,2.21 6.11,3.77 9.85,6.24 3.62,2.4 38.39,13.94 55.47,22.42 4.27,2.12 17.12,8.91 19.53,11.48 6.56,7 14.41,11.27 15.34,15.29 -5.28,-1.72 -10.14,-9.26 -16.76,-11.99 -4.36,-1.8 -6.05,-3.34 -9.6,-5.21 -11.7,-6.15 -38.96,-19 -50.42,-20.42 0.78,2.62 5.56,11.99 7.3,15.46 2.77,5.54 4.56,10.93 5.62,17.38 2.58,15.69 -4.42,20.88 -7.65,27.39 -2.22,4.47 -2.16,3.84 -4.28,7.35 3.44,-1.64 7.82,-8 9.56,-11.04 2.07,-3.62 3.42,-9.69 6.33,-12.64 5.6,0.6 5.71,2.8 4.15,7.74 9.2,-5.92 2.07,-26.31 0.74,-34.77 9.53,-0.32 9.79,7.1 9.75,15.99 -0.07,14.09 -0.83,29.36 -8.08,41.49 -5.67,9.5 -9.02,9.61 -9.32,14.51 6.38,3.06 2.66,-0.46 15.38,-2.62 3.29,-0.56 7.3,-2.96 9.99,-4.72 2.87,-1.89 0.65,0.2 2.5,-2.17 -2.28,0.02 -1.19,0.43 -2.69,-0.49 -0.12,-5.28 2.38,-6.43 3.59,-10.73 1.12,-3.99 0.3,-8.5 1.87,-11.27 5.6,-2.05 5.3,4.87 4.98,9.07 3.8,-5.81 -1.44,-28.93 -1.68,-33.86 7.06,3.16 6.45,8.74 7.49,17.34 2.31,18.99 -1.92,34.72 -18.69,43.48 -2.29,1.2 -1.89,1.06 -4.05,1.97 -1.15,0.49 -1.03,0.35 -2.11,0.88 -1.41,0.67 -1.11,0.5 -1.84,1.12l22.96 16.04c2.21,2.04 4.63,4.3 8.06,5.56 0.87,-0.84 0.75,-0.66 1.74,-1.8 0.7,-0.82 0.65,-0.79 1.38,-1.78 0.71,-0.95 0.94,-1.47 1.93,-2.94l5.75 1.11c-0.24,6.19 -3.79,6.49 -5.86,10.81 1.48,2.84 4.2,5.74 7.06,7.29 3.23,-1.49 5.34,-3.92 8.09,-3.29 1.4,2.65 1.53,1.96 -0.12,4.83 -1.68,2.91 -1.62,0.46 -3.46,4.46l7.49 5.18c4.27,-1.59 2.81,-2.45 7.39,-3.88 2.94,5.74 0.54,6.31 -2.65,8.98 0.91,5.52 25.04,41.32 25.86,51.89l-2.59 -0.76c2.04,8.44 6.49,16.77 8.14,31.3 1.94,1.22 2.52,0.83 3.7,1.84 4.18,3.61 -2.09,-4.66 1.71,2.43l0.76 1.73c0.14,-5.61 -0.81,-2.25 1.68,-4.99 4.11,1.28 3.88,1 5.37,4.54l0.2 -5.05c2.53,-0.98 5.19,-4.07 10.99,3.98l9.08 12.87c2.77,3.28 3.33,4.32 7.25,6.7 5.41,3.29 7.08,2.54 6.89,11.37l21.89 9.68c5.32,1.77 14.53,7.12 23.34,7.91 -0.18,-0.72 -5.52,-7.22 6.06,-10.96 -3.3,-2.76 -1.1,-0.89 -2.57,-4.72l-2.5 -3.95c-5.71,-2.26 -12.98,1.4 -35.74,-7.54 -15.49,-6.08 -14.99,-9 -25.45,-18.65 -18.48,-17.05 -14.19,-23.8 -16.96,-49.32 -1.32,-12.23 0.65,-5.69 -2.78,-20.13 -2.97,-12.5 -4.97,-44 -6.22,-59.71 -0.69,-8.73 2.96,-52.12 5.24,-60.9 2.29,-8.81 23.16,-12.14 33.29,-11.49 0.92,-0.67 15.81,-3.34 18.58,-3.31 7.4,0.08 14.66,0.15 22.04,0.21 2.94,-1.18 1.58,0.49 1.66,-3.12 -12.24,-1.07 -26.31,-2.26 -38.65,-3.04 -10.9,-0.7 -33.57,2.23 -41.88,-2.38l-0.06 -5.53c2.59,-1.01 6.21,-1.45 9.51,-1.78 -0.44,-5.31 -2.25,-8.57 -2.57,-14.72 -0.81,-15.5 -19.44,-34.93 -19.46,-34.97l-0.57 -14.87c-2.7,-1.17 -6.27,-1.46 -9.69,-2.31 -4.07,-1.02 -3.26,-0.71 -5.75,-3.41 -0.92,-1.01 0.13,-0.07 -1.44,-1.56 -20.2,-19.19 -18.83,-14.82 -34,-26.97 -4.48,-3.59 -1.47,-4.47 -9.09,-5.13 0.2,0.26 0.52,0.51 0.71,0.69 0.19,0.17 0.48,0.45 0.71,0.66 3.66,3.41 6.86,9.62 4,14.21 -5.66,9.05 -8.67,7.09 -14.15,7.06z"/>
   <path class="fil0" d="M141.65 112.9c-4.56,1.8 -7.81,4.22 -11.66,6.19 -3.77,1.92 -9.89,2.9 -12.45,4.6 -3.88,2.57 -1.59,3.46 -10.82,7.09 -22.58,8.87 -26.09,20.09 -39.8,30.31 -8.56,6.37 -8.19,3.58 -8.89,7.91 10.34,-1.87 38.25,-29.87 45.42,-30.92l-2.5 9.07c-1.42,9.44 -4.87,12.28 -3.79,23.01 0.42,4.12 2.05,19.42 3.09,21.83 7.98,18.42 20.82,19.4 23.89,26.38 -13.39,4.15 -16.99,6.84 -33.09,-12.26 -6.63,-7.86 -7.5,-6.43 -7.46,-19.02 0.01,-3.83 0.72,-7.88 1.74,-11.38 1.23,-4.23 3.28,-7.25 0.67,-11.02 -4.48,2.53 -6.58,9.83 -7.48,14.78 -1.34,7.41 0.28,14.2 0.11,20.49 0.18,0.2 0.42,0.26 0.5,0.63l3.95 6.44c2.07,3.65 1.8,5.57 3.97,8.08l5.32 5.66c2.14,2.23 4.58,3.11 6.43,5.37 -8.43,7.36 -17.88,10.09 -28.36,25.32l-4.09 4.55c-1.19,3.37 -5.27,8.08 -5.1,12.88 3.44,-1.13 3.22,-2.63 5.54,-5.08 7.52,-10.16 12.22,-10.38 24.11,-17.71 4.4,-2.71 8.5,-5.54 13,-8.02 2.01,-1.1 13.21,-5.78 14.81,-6.15l13.61 -6.79c0.75,-8.74 -6.17,-11.6 -9.8,-14.51 -2.77,-2.22 -4.46,-7.67 -9.97,-14.94 -3.34,-4.42 -1.1,0.91 -2.7,-5.44 -0.79,-3.12 -1.55,-4.29 -2.14,-6.55 -1.38,-5.34 -2.47,-25.77 -1.02,-31.03 1.02,-3.7 3.02,-7.38 5,-10.99 1.16,-2.12 1.83,-2.66 3.44,-4.47 1.56,-1.76 2.43,-2.86 4.78,-3.85 -3.67,19.9 -9.99,25.1 -3.34,49.76 2.38,3.68 2.29,5.45 4.11,9.28 1.31,2.78 3.5,5.25 5.22,8.61 1.37,1.27 0.59,0.43 2.02,2.23 5.62,7.05 1.91,2.68 7.68,7.28 14.56,11.59 23.65,14.88 46.46,11.6 6.35,-0.91 18.56,-2.46 23.86,-4.99 2.64,-1.26 4.67,-1.57 7.24,-2.82 5.95,-2.87 3.63,-4.39 12.9,-7.06 2.76,-0.79 4.86,-0.95 7.63,-2.46 2.36,-1.29 3.3,-2.83 6.73,-3.99l0.69 -0.94c2.12,-3.51 2.06,-2.88 4.28,-7.35 3.23,-6.51 10.23,-11.7 7.65,-27.39 -1.06,-6.45 -2.85,-11.84 -5.62,-17.38 -1.74,-3.47 -6.52,-12.84 -7.3,-15.46 11.46,1.42 38.72,14.27 50.42,20.42 3.55,1.87 5.24,3.41 9.6,5.21 6.62,2.73 11.48,10.27 16.76,11.99 -0.93,-4.02 -8.78,-8.29 -15.34,-15.29 -2.41,-2.57 -15.26,-9.36 -19.53,-11.48 -17.08,-8.48 -51.85,-20.02 -55.47,-22.42 -3.74,-2.47 -6.69,-4.03 -9.85,-6.24 -12.89,-9.02 -45.63,-13.14 -58.57,-8.91 -1.3,0.42 -0.8,0.33 -3.12,0.95 -6.35,1.72 -6.43,2.53 -13.37,6.39z"/>
   <path class="fil0" d="M206.86 101.15c7.43,0.02 12.55,3.82 17.68,6.25 5.89,2.8 10.43,5.21 17.52,7.58 14.79,4.96 0.51,1.5 18.77,4.98 15.9,3.03 43.24,11.51 57.42,16.95 4.43,1.7 23.15,9.14 25.68,11.29 2.91,2.47 2.73,4.99 6.95,5.82 3.27,-8.16 -7.45,-24.97 -12.62,-32.12 -4.04,-5.59 -12.11,-22.46 -19.65,-29.35 -4.66,-4.26 -4.07,-5.79 -9.43,-9.58 -10.81,-7.65 -5.44,-4.8 -17.88,-11.23l-6.02 -4.23c-5.76,-1.47 -23.51,-10.23 -32.67,-12.86 -19.08,-5.47 -65.26,-6.6 -83.38,-2.41 -32.06,7.41 -37.91,11.31 -64.8,29.3l-23.59 18.44 -20.37 25.63c-1.69,3.57 -2.97,5.26 -4.12,7.86 -2,4.54 -0.23,3.37 -3.67,7.4 -3.2,3.73 -10.95,9.62 -0.07,11.69 6.64,-13.27 6.68,-5.8 17.54,-10.24 2.56,-1.04 6.52,-2.85 9.83,-4.23 9.34,-3.9 22.96,-12.25 26.48,-13.43 16.54,-5.51 8.52,-5.44 16.12,-10.97 5.93,-4.31 11.55,-5.79 17.54,-10.45 6.5,-5.05 11.28,-5.54 19.88,-7.01 18.94,-3.24 30.76,0.49 46.86,4.92z"/>
   <path class="fil2" d="M118.71 231.93c4.1,-0.17 3.36,-1.49 4.92,2.79 0.58,1.6 0.38,3.18 -0.69,4.2 -1.99,1.89 -5.98,0.43 -9.81,2.37 -7.92,4.02 -4.68,1.43 -15.16,6.86 -4.74,2.45 -12.52,5.55 -15.9,8.08 -4.62,3.46 -7.28,8.35 -14.74,10.02l-0.54 -2.44c-2.32,2.45 -2.1,3.95 -5.54,5.08 -0.17,-4.8 3.91,-9.51 5.1,-12.88 2.15,-17.78 -7.03,-7.33 -13.5,-10.21l-3.79 -3.6c-2.07,-2.71 -1.45,-2.24 -3.06,-6.03 -1.64,-2.2 -3.46,-4.08 -5.98,-5.84l2.93 41.76c-0.41,4.45 -1.77,3.23 -1.21,7.43 1.56,11.58 1.61,10.39 -3.24,15.62 0.87,16.62 3.33,35.05 3.79,52.02 0.08,2.9 2.13,16 -3.69,12.25 -2.31,-1.49 -2.04,-22.7 -3.14,-28.1l-0.44 -1.57c-0.05,-0.18 -0.14,-0.5 -0.25,-0.73 -2.81,22.51 1.1,37.11 0.04,57.13 -1.24,23.39 -1.97,12.14 -3.7,26.17 -0.77,6.26 -1.49,25.63 1.16,29.83 3.89,1.1 8.73,0.8 12.83,0.66 7.39,-0.25 6.41,-1.7 4.31,-7.13 -10.75,2.48 -5.38,-4.63 -7.48,-13.81 -7.94,-34.72 6.07,-36.59 6.92,-59.71 0.2,-5.5 -1.03,-5.51 -1.76,-9.24 -1.64,-8.35 3.11,-22.38 5.15,-30.3 3.21,-12.55 8.97,-23.44 14.88,-33.2 2.09,-3.46 2.89,-3.2 5.19,-5.92 2.06,-2.44 2.91,-4.7 4.81,-7.19 3.19,-4.15 2.82,-2 6.46,-5.59 6.91,-6.82 9.77,-9.46 19.91,-15.1 14.52,-8.07 7.62,-7.04 13.74,-10.25 5.2,-2.73 11.79,-3.66 17.58,-5.51l42.19 -5.76c21.71,0.45 20.96,-0.71 41.59,5.43 8.43,2.5 20.16,7.08 27.41,7.35 4.35,0.16 23.77,6.96 27.63,8.73 3.37,1.54 10.66,6.23 14.07,8.78 35.51,26.58 54.97,53.22 68.65,98.61 3.46,11.47 8.12,50.9 8.12,50.9 1.14,3.76 2.7,-1.07 5.88,18.04 0.77,4.62 1.03,5.06 1.17,10.69l6.06 0.47c1.6,4.85 1.17,8.88 3.81,11.91 0.08,-6.43 -2.58,-6.15 1.72,-11.41 1.66,-4.79 5.2,-8.02 11.05,-7.53 1.11,-1.26 1.06,-2.67 1.35,-3.33 -10.91,-3.11 -20.42,-18.6 -23.07,-29.47 -1.29,-5.13 -4.7,-6.15 -4.79,-13.6l4.27 0.83c1.53,-13.26 16.23,12.68 18.19,14.57 0.99,0.95 2.12,1.69 2.94,3.32 2.09,4.14 0.87,2.96 -0.88,3.54 3,3.13 6.41,4.83 10.15,6.93 4.65,2.61 7.17,7.11 10.38,5.49 3.49,-3.63 12.26,1.38 8.45,-7.95 -1.75,-2.08 -1.53,-2.01 -3.56,-3.78l-5.58 -3.75c-1.74,-2.41 -4.29,-3.13 -6.23,-4.36 -14.01,-8.85 -31.62,-21.56 -39.46,-36.36l-0.76 -1.73c-3.8,-7.09 2.47,1.18 -1.71,-2.43 -1.18,-1.01 -1.76,-0.62 -3.7,-1.84 -1.65,-14.53 -6.1,-22.86 -8.14,-31.3 1.14,-5.77 -27.58,-44.13 -32.47,-50.24 -3.92,-4.89 -7.05,-6.62 -10.57,-10.43 -2.79,-3.03 -7.18,-7.92 -10.28,-10.7 -5.03,-4.51 -17.24,-12.85 -24.73,-16.4 3.46,3.32 0.93,0.27 2.03,3.07 -3.85,2.26 -3.5,1.12 -8.9,-1.13 -7.67,-3.2 -10.84,1.68 -27.55,-7.87 -0.15,-4.86 -1.54,-3.99 1.34,-4.87 -3.93,-2.35 -15.39,-1.95 -18.32,-4.62 -6.05,-5.85 10.02,-12.07 13.15,-13.83 7.05,-3.95 12.34,-5.99 15.77,-14.69 -3.52,1.56 -3.84,2.55 -7.15,4.62 -3.55,2.23 -4.94,1.56 -3.91,-2.95 -3.43,1.16 -4.37,2.7 -6.73,3.99 -2.77,1.51 -4.87,1.67 -7.63,2.46 -9.27,2.67 -6.95,4.19 -12.9,7.06 -2.57,1.25 -4.6,1.56 -7.24,2.82 -5.3,2.53 -17.51,4.08 -23.86,4.99 -22.81,3.28 -31.9,-0.01 -46.46,-11.6 -5.77,-4.6 -2.06,-0.23 -7.68,-7.28 -1.43,-1.8 -0.65,-0.96 -2.02,-2.23 -0.25,3.11 1.01,1.89 -1.6,3.42 -3.32,1.95 -3.36,-3.2 -5.95,-6.68 -2.91,-3.89 -2.19,-0.66 -4.24,-5.66 -1.29,-3.15 -1.95,-3.66 -2.25,-7.25l4.71 -1.72c-6.65,-24.66 -0.33,-29.86 3.34,-49.76 -2.35,0.99 -3.22,2.09 -4.78,3.85 -1.61,1.81 -2.28,2.35 -3.44,4.47 -1.98,3.61 -3.98,7.29 -5,10.99 -1.45,5.26 -0.36,25.69 1.02,31.03 0.59,2.26 1.35,3.43 2.14,6.55 1.6,6.35 -0.64,1.02 2.7,5.44 5.51,7.27 7.2,12.72 9.97,14.94 3.63,2.91 10.55,5.77 9.8,14.51l-13.61 6.79z"/>
   <path class="fil2" d="M169.4 28.61l-17.24 8.74c-13.38,7.87 -22.77,7.49 -51.96,27 -27.67,18.49 -9.08,11.64 -20.05,18.91 -4.04,2.68 -1.37,2.32 -7.91,8.11 -0.21,0.19 -0.79,0.76 -1.01,0.95 -0.16,0.13 -0.37,0.33 -0.53,0.46 -9.16,7.44 -0.6,1.1 -9.55,11.52 -2.61,3.05 -3.52,5.23 -6.65,8.37 -3.37,3.37 -3.56,6.57 -5.84,10.1 -2.18,3.36 -6.4,8.91 -7.61,12.49 -0.35,1.02 -0.09,1.12 -0.87,3.08 -0.66,1.68 -2.31,3.79 -3.3,4.94 0.59,-5.49 0.58,-6.88 1.92,-11.51 -2.91,3.22 -3.15,13.75 -5.04,19.31 2.79,-2.7 0.18,-1.17 2.82,-1.55 1.33,2.49 2.13,12.37 2.34,16.58l0.95 18.3c0.36,4.33 -0.07,4.04 -0.76,7.87 -0.71,3.95 0.38,1.74 0.73,6.83 0.46,6.66 -0.76,11.59 0.06,18.27 4.51,-3.13 0.9,-1.9 3.11,-6.48 0.76,-1.57 2.44,-2.36 3.99,-4.83 2.23,-3.44 7.99,-1.66 11.62,-1.19 -4.1,-29.33 -2.1,-21.53 6.83,-33.24 4.82,-6.31 12.58,-11.45 18.42,-14.55l14.97 -8.34c0.22,-0.16 0.48,-0.36 0.68,-0.51l1.43 -1.09 2.5 -9.07c-7.17,1.05 -35.08,29.05 -45.42,30.92 0.7,-4.33 0.33,-1.54 8.89,-7.91 13.71,-10.22 17.22,-21.44 39.8,-30.31 9.23,-3.63 6.94,-4.52 10.82,-7.09 2.56,-1.7 8.68,-2.68 12.45,-4.6 3.85,-1.97 7.1,-4.39 11.66,-6.19l3.57 -3.53c0.14,-0.15 0.34,-0.38 0.48,-0.52 0.14,-0.15 0.33,-0.38 0.47,-0.52 3.1,-3.1 20.77,-6.87 25.43,-8.01 14.59,-3.57 27.56,6.06 32.68,3.02 3.15,-1.87 -0.79,2.8 2.58,-2.19 -16.1,-4.43 -27.92,-8.16 -46.86,-4.92 -8.6,1.47 -13.38,1.96 -19.88,7.01 -5.99,4.66 -11.61,6.14 -17.54,10.45 -7.6,5.53 0.42,5.46 -16.12,10.97 -3.52,1.18 -17.14,9.53 -26.48,13.43 -3.31,1.38 -7.27,3.19 -9.83,4.23 -10.86,4.44 -10.9,-3.03 -17.54,10.24 -10.88,-2.07 -3.13,-7.96 0.07,-11.69 3.44,-4.03 1.67,-2.86 3.67,-7.4 1.15,-2.6 2.43,-4.29 4.12,-7.86l20.37 -25.63 23.59 -18.44c26.89,-17.99 32.74,-21.89 64.8,-29.3 18.12,-4.19 64.3,-3.06 83.38,2.41 9.16,2.63 26.91,11.39 32.67,12.86 5.48,0.03 8.49,1.99 14.15,-7.06 2.86,-4.59 -0.34,-10.8 -4,-14.21 -0.23,-0.21 -0.52,-0.49 -0.71,-0.66 -0.19,-0.18 -0.51,-0.43 -0.71,-0.69 -4.72,-5.45 -24.36,-11.74 -32.23,-14.52 -2.93,-1.04 -5.5,-1.35 -7.71,-2.34 -4.1,-1.83 -1.65,-2.58 -7.06,-3l-27.06 -2.15c-5.49,-0.27 -4.23,-1.47 -8.05,-1.68 -1.56,-0.08 -39.38,5 -42.5,7.41z"/>
   <path class="fil3" d="M463.42 379.39l-0.43 3.46c-6.55,-0.65 -4.83,-2.12 -12.4,-3.38 -5.07,-0.85 -17.93,-9.18 -22.14,-12.76 -3.47,-2.95 -5.64,-7.19 -7.32,-10.69 12.76,1.2 16.54,7.93 23.67,2.6 4.61,5.09 11.55,1.26 16.08,-1.79 -0.3,4.29 -0.5,9.41 1.12,13.34l1.05 1.97 -3.44 -42.31c-25.32,0.25 -49.63,13.15 -56.13,-15.22 -0.83,-3.58 -1.34,-7.21 -2.01,-10.98 -2.41,-13.48 2.81,-8.99 -3.43,-14.51l-7.83 -10.15c-4.28,-5.6 -5.49,-9.35 -4.3,-18.82 0.71,-5.68 9.34,-17.12 14.47,-19.47l6.87 -2.36c1.59,-0.87 0.96,-0.45 2.01,-1.51l-5.71 1.11c1,-8.72 2.32,-12.1 3.43,-19.5 0.45,-2.99 1.04,-7.56 2.11,-10.26 1.48,-3.71 2.35,-3.68 7.45,-4.69l43.13 -3.04c-0.25,6.19 -3.59,26.51 0.66,31.88 -1.01,-26.7 2.64,-37.36 2.85,-53.31 -14.61,-1.16 -30.37,-3.87 -45.18,-4.27 -7.92,-0.22 -26.06,0.71 -33.72,3.69 -4.22,1.64 -4.3,2.96 -4.91,7.79 -0.9,7.14 -2.42,15.26 -2.94,21.1 -0.7,7.98 -0.44,15.9 -1.21,23.88l2.93 47c0.76,11.9 5.83,23.73 6.33,42.98 0.19,7.57 1.26,15.1 1.96,22.34 1.27,13.21 9.09,23.63 20.21,29.92 9.63,5.44 24.12,15.19 34.31,15.92 8.45,0.61 15.77,1.6 24.58,1.56 -0.07,-2.17 -0.09,-4.76 -0.41,-6.9 -0.13,-0.86 -0.31,-1.81 -0.61,-2.63 -0.95,-2.69 0.41,-0.31 -1.1,-1.99z"/>
   <path class="fil1" d="M120 82c-1.46,3.31 -0.13,1.17 -2.18,2.99 -3.11,2.77 -1.81,-0.95 -7.86,7.07 -4.19,5.56 -4.28,4.43 -6.05,13.98l25.11 -3.4c0.18,-0.12 0.4,-0.58 0.46,-0.43 0,0 3.17,-3.76 9.58,-6.04 18.81,-6.69 22.69,-9.81 43.06,-8.76 6.2,0.32 21.23,3.38 26.1,5.55 7.67,3.41 14.86,7.9 23.55,11.34 29.6,11.72 51.7,12.42 79.84,24.29l25.57 9.78c-0.97,-5.34 -4.48,-9.63 -6.77,-13.71 -1.35,-2.41 -1.72,-3.63 -3.31,-6.74 -2.14,-4.17 -17.79,-24.13 -22.84,-28.06 -12.76,-9.93 -10.25,-7.41 -24.18,-15.76 -3.68,-2.2 -9.75,-3.5 -14.29,-5.77 -1.38,-0.69 -5.33,-3.08 -6.36,-3.51 -18.22,-7.58 -72.9,-11.01 -99.06,-2.27 -5.33,1.78 -9.39,2.03 -15.09,4.84 -5.03,2.48 -23.6,10.43 -25.28,14.61z"/>
   <path class="fil3" d="M405.38 167.78c7.65,0.07 14.89,-1.53 22.49,-0.31 6.87,1.09 14.1,1.54 21.53,2.45 6.59,0.81 14.67,0.86 19.95,2.86 24.04,9.1 13.22,8.24 12.55,20.34 -0.55,10.01 -1.92,15.68 -2.24,28.13 -0.06,2.34 0.83,3.23 0.3,6.8 -1.19,7.98 1.67,-6.22 -0.92,2.9 -1.07,3.74 -0.5,12.94 1.47,15.72 6.97,9.84 8.1,2.73 7.16,23.5 -0.34,7.45 3.82,25 -0.99,43.55 -1.12,4.33 -1.22,8.38 -3.41,11.72 -3.2,4.87 -4.07,5.29 -3.37,12.61 7.44,77.4 9.15,57.07 -25.9,57.47l2.5 3.95c1.47,3.83 -0.73,1.96 2.57,4.72 -11.58,3.74 -6.24,10.24 -6.06,10.96 -8.81,-0.79 -18.02,-6.14 -23.34,-7.91l-21.89 -9.68c-13.96,-8.97 -25.66,-17.85 -34.41,-29.87 -1.49,-3.54 -1.26,-3.26 -5.37,-4.54 -2.49,2.74 -1.54,-0.62 -1.68,4.99 7.84,14.8 25.45,27.51 39.46,36.36 1.94,1.23 4.49,1.95 6.23,4.36 6.87,1.14 14.04,10.19 41.74,12.86 3.56,0.34 8.24,-0.44 12.29,0.2 4.7,0.75 6.73,2.73 10.47,3.68 9.76,2.49 8.32,-3.73 16.82,5.34l2.12 1.85c-1.7,-9.9 -6.63,-18.18 -6.62,-28.65 0,-4.61 1.19,-10.28 1.36,-15.99 0.18,-5.88 0.02,-11.77 0.4,-17.64 4.05,-62.22 10.22,-137.49 5.74,-199.37 -1.24,-0.7 -3.32,-2 -4.8,-2.53 -7.04,-2.51 -37.33,-6.66 -43.87,-7.05 -0.08,3.61 1.28,1.94 -1.66,3.12 -7.38,-0.06 -14.64,-0.13 -22.04,-0.21 -2.77,-0.03 -17.66,2.64 -18.58,3.31z"/>
   <path class="fil3" d="M397.26 97.75c12.03,0.62 21.35,2.17 33.73,1.83 20.85,-0.57 18.56,0.82 35.06,2.55 -1.6,-9.54 -25.49,-38.8 -32.87,-46.17l-13 -14.01c-10.82,-12.48 -17.22,-16.12 -33.23,-19.79 -9.69,-2.22 -39.02,-4.7 -49.52,-2.55l17.66 15.45c9.99,9.46 24.9,26.38 31.44,38.47 4.59,8.48 8.53,14.01 10.73,24.22z"/>
   <path class="fil4" d="M223.99 422.41c-3.21,2.3 -2.7,1.2 -6.99,1.57 -1.68,0.14 -1.75,-0.09 -3.61,0.62 -3.7,1.39 -1.37,0.62 -2.57,1.82 17.26,0.77 32.18,-0.23 49.24,1.63 7.91,0.87 13.91,2.48 21.55,3.51l21.72 3.58c-1.33,2.02 0.63,0.86 -2.49,1.97 -5.29,1.88 -36.69,-1.93 -42.82,-2l-47.07 2.1c-11.05,2.07 -35.06,0.95 -47.97,0.93 -12.91,-0.01 -20.1,-1.07 -29.62,-6.3 -1.64,-0.9 -2.51,-1.03 -4.23,-1.85l-3.78 -2.85c2.65,-1.51 6.13,-0.86 9.17,-0.71 -1.22,-1 -0.63,-0.68 -2.61,-1.38 -0.33,-0.12 -2.77,-0.67 -2.94,-0.68 -4.95,-0.42 -2.46,-0.42 -5.12,1.28 -0.95,0.61 -0.65,1.36 -3.71,2.67l-15.15 3c-12.6,0.94 -6.27,3.9 -31.81,1.76 -6.86,-0.57 -12.31,5.21 -19.28,2.07l0.42 5.98c5.37,0.25 12.02,-1 18.02,-1.8 7.06,-0.95 12.2,1.24 19.71,1.44l118.36 4.75c3.63,1.76 -0.83,2.47 7.5,2.65l40.17 0.73c8.15,-0.51 0.51,-4.42 27.83,-2.44 7.15,0.52 11.1,1.17 18.46,0.16 7.19,-0.98 12.37,0.94 19.69,0.68 10.34,-0.38 3.6,-3.95 17.33,-0.45 6.65,1.7 8.28,-1.01 8.28,-1.02 4.33,-2.17 4.08,-0.85 9.33,-1.74 2.57,-5.26 2.02,-10.64 -3.16,-13.66 -17.98,-10.48 -33.03,-12.44 -52.83,-14.08 -9.37,-0.78 -17.24,-3.16 -27.76,-3.35 1.28,0.84 -0.27,0.25 2.8,1.3 2.26,0.77 -0.33,0 1.88,0.51 1.1,0.25 2.24,0.24 3.33,0.33 -0.62,0.51 -0.51,0.69 -1.96,1.34l-12.9 2.11c-5.95,1.26 -10.79,0.81 -15.14,1.09 -0.94,0.06 -5.65,0.91 -7.86,1.44 -12.07,2.91 -6.39,-3.06 -15.19,-1.78 -2.67,0.39 -4.6,2.01 -6.22,3.07z"/>
   <path class="fil5" d="M409.26 236.81c6.63,0.67 8.06,-0.55 13.66,2.28 1.22,0.61 9.08,5.22 9.91,6.2 0.29,0.35 5.6,10.16 5.64,10.3 3.37,10.38 -5.59,18.75 -6.02,24.54 -0.55,7.55 0.06,21.03 10.18,20.52 14.87,-0.75 14.72,-0.33 15.41,-5.48 0.1,-0.81 0.06,-4.1 0.01,-5.03 -0.19,-3.81 -0.84,-6.2 -1.23,-10 -2.76,-1.48 -2.16,-0.14 -5.07,-2.72 -7.49,-6.63 -8.27,-9.36 -7.77,-16.28 0.97,-13.55 10.19,-14.7 15.74,-17.09l0.61 -11.74c-4.25,-5.37 -0.91,-25.69 -0.66,-31.88l-43.13 3.04c-5.1,1.01 -5.97,0.98 -7.45,4.69 -1.07,2.7 -1.66,7.27 -2.11,10.26 -1.11,7.4 -2.43,10.78 -3.43,19.5l5.71 -1.11z"/>
   <path class="fil0" d="M261.15 183.92c-5.24,4.45 -5.65,11.19 -9.67,15.21 -3.43,8.7 -8.72,10.74 -15.77,14.69 -3.13,1.76 -19.2,7.98 -13.15,13.83 2.93,2.67 14.39,2.27 18.32,4.62 13.39,0.94 22.61,7.13 33.08,10.8 7.49,3.55 19.7,11.89 24.73,16.4 3.1,2.78 7.49,7.67 10.28,10.7 3.52,3.81 6.65,5.54 10.57,10.43 4.89,6.11 33.61,44.47 32.47,50.24l2.59 0.76c-0.82,-10.57 -24.95,-46.37 -25.86,-51.89 3.19,-2.67 5.59,-3.24 2.65,-8.98 -4.58,1.43 -3.12,2.29 -7.39,3.88l-7.49 -5.18c1.84,-4 1.78,-1.55 3.46,-4.46 1.65,-2.87 1.52,-2.18 0.12,-4.83 -2.75,-0.63 -4.86,1.8 -8.09,3.29 -2.86,-1.55 -5.58,-4.45 -7.06,-7.29 2.07,-4.32 5.62,-4.62 5.86,-10.81l-5.75 -1.11c-0.99,1.47 -1.22,1.99 -1.93,2.94 -0.73,0.99 -0.68,0.96 -1.38,1.78 -0.99,1.14 -0.87,0.96 -1.74,1.8 -3.43,-1.26 -5.85,-3.52 -8.06,-5.56l-22.96 -16.04c0.73,-0.62 0.43,-0.45 1.84,-1.12 1.08,-0.53 0.96,-0.39 2.11,-0.88 2.16,-0.91 1.76,-0.77 4.05,-1.97 16.77,-8.76 21,-24.49 18.69,-43.48 -1.04,-8.6 -0.43,-14.18 -7.49,-17.34 0.24,4.93 5.48,28.05 1.68,33.86 -0.65,4.06 -5.41,10.92 -7.75,13.42 -1.85,2.37 0.37,0.28 -2.5,2.17 -2.69,1.76 -6.7,4.16 -9.99,4.72 -12.72,2.16 -9,5.68 -15.38,2.62 0.3,-4.9 3.65,-5.01 9.32,-14.51 7.25,-12.13 8.01,-27.4 8.08,-41.49 0.04,-8.89 -0.22,-16.31 -9.75,-15.99 1.33,8.46 8.46,28.85 -0.74,34.77z"/>
   <path class="fil3" d="M427.7 105.58c1.5,5.68 1.36,4.1 3.66,8.39l-8.21 -0.23 1.83 11 1.82 0.61 -2.03 -10.22c9.87,0.74 23.67,0.13 33.48,2.9 1.37,0.39 2.65,0.85 4.33,1.3 7.55,2.01 5.31,2.27 6.84,11.34 1.31,7.68 -0.84,4 -0.67,10.47 2.99,1.69 19.31,7.22 23.34,7.94 0.18,-7.77 -0.84,-9.12 1.39,-16.29 1.58,-5.08 2.9,-10.5 2.18,-16.03 -1.27,-9.87 -6.56,-19.73 -10.69,-27.59 -2.38,-4.55 -4.51,-8.29 -7.11,-11.89l-19.13 -18.95c-2.29,-1.61 -11.05,-6.07 -13.34,-6.76l24.07 47c1.06,5.71 -0.46,4.9 -0.06,10.01 -13.14,-3.77 -27.56,-1.79 -41.7,-3z"/>
   <path class="fil5" d="M285.73 22.33l-4.36 -2.25c4.17,-1.2 8.56,-1.02 11.81,-0.37 0.31,0.06 1.96,0.52 2.27,0.63 9.99,3.73 4.56,7.16 19.92,11.9 6.62,2.04 16.14,8.45 21.31,13.3 5.35,5.03 14.23,5.8 28.6,26.31 1.81,2.59 3.91,5.55 5.99,8.03 3.2,3.85 5.17,11.34 9.18,13.65l3.57 1.54c3.41,2.58 2.92,9.64 5.94,15.15 1.66,3 3.31,12.23 6.04,13.4 4.56,0.74 10.3,-0.39 14.79,0.09 3.31,0.36 2.83,1.05 6.02,1.14 2.31,0.06 4.83,-0.37 8.17,-0.11l-1.83 -11 8.21 0.23c-2.3,-4.29 -2.16,-2.71 -3.66,-8.39 -3.9,-0.25 -11.14,-0.49 -15.72,-0.5 -19.68,-0.03 -15.63,-2.91 -18.95,-9.98 -4.66,-9.9 -17.95,-30.93 -25.29,-38.73l-18.28 -19.68c-5.29,-4.69 -16.08,-15.12 -21.97,-16.79 -3.84,-1.1 -46.92,-1.56 -48.51,-0.76l6.75 3.19z"/>
   <path class="fil0" d="M154.99 179.01c-1.68,1.89 -1.27,-1.44 -1.76,4.18 -0.51,5.86 -0.71,6.16 1.39,11.3 9.55,1.15 20.37,0.26 29.16,-0.71l-0.18 -3.02c-5.15,-18.91 -13.06,-12 6.41,-37.63 2.36,-3.1 3.36,-3.24 2.53,-8.03 -3.5,-2.36 -7.15,-6.27 -12.4,-9.19 -7.38,-4.1 -7.97,-14.24 -28.12,2.3 -16.17,13.27 -6.67,13.81 -0.29,25.12 0.11,0.2 0.23,0.47 0.34,0.66l1.62 2.4c0.84,1.43 0.96,-0.32 1.25,3.73 0.28,3.92 -1.32,5.51 0.05,8.89z"/>
   <path class="fil1" d="M47 206.07c15.08,-1.73 19.22,1.9 28.09,9.43 6.53,0.75 5.37,2.13 5.64,3.06 -0.63,-5.33 -3.9,-9.47 -2.1,-18.6 0.17,-6.29 -1.45,-13.08 -0.11,-20.49 0.9,-4.95 3,-12.25 7.48,-14.78 2.61,3.77 0.56,6.79 -0.67,11.02 -1.02,3.5 -1.73,7.55 -1.74,11.38 -0.04,12.59 0.83,11.16 7.46,19.02 16.1,19.1 19.7,16.41 33.09,12.26 -3.07,-6.98 -15.91,-7.96 -23.89,-26.38 -1.04,-2.41 -2.67,-17.71 -3.09,-21.83 -1.08,-10.73 2.37,-13.57 3.79,-23.01l-1.43 1.09c-0.2,0.15 -0.46,0.35 -0.68,0.51l-14.97 8.34c-5.84,3.1 -13.6,8.24 -18.42,14.55 -8.93,11.71 -10.93,3.91 -6.83,33.24 -3.63,-0.47 -9.39,-2.25 -11.62,1.19z"/>
   <path class="fil2" d="M53.9 435.15c6.97,3.14 12.42,-2.64 19.28,-2.07 25.54,2.14 19.21,-0.82 31.81,-1.76l15.15 -3c3.06,-1.31 2.76,-2.06 3.71,-2.67 2.66,-1.7 0.17,-1.7 5.12,-1.28 0.17,0.01 2.61,0.56 2.94,0.68 1.98,0.7 1.39,0.38 2.61,1.38 5.99,1.37 45.62,2.88 50.34,0.54 -20.26,-1.26 -27.61,3.47 -29.43,-9.83 7,-5.68 5.61,-2.24 10.14,-2.69 2.94,-0.3 2.32,-0.88 4.56,-1.33 3.5,-0.72 17.78,-0.04 22.48,-0.28 19.49,-0.99 18.09,3.33 25.81,3.99 3.93,0.34 4.87,1.25 5.57,5.58 1.62,-1.06 3.55,-2.68 6.22,-3.07 8.8,-1.28 3.12,4.69 15.19,1.78 2.21,-0.53 6.92,-1.38 7.86,-1.44 4.35,-0.28 9.19,0.17 15.14,-1.09l12.9 -2.11c1.45,-0.65 1.34,-0.83 1.96,-1.34 -1.09,-0.09 -2.23,-0.08 -3.33,-0.33 -2.21,-0.51 0.38,0.26 -1.88,-0.51 -3.07,-1.05 -1.52,-0.46 -2.8,-1.3 -10.3,0.01 -31.78,-3.89 -56.23,-3.94 -10.73,-0.03 -20.88,0.57 -30.99,0.95 -12.43,0.47 -56.8,1.7 -64.77,5.48 -9.19,4.36 -5.61,-2.42 -19.8,2.03 -7.59,2.38 -16.77,6.21 -24.55,7.28 -4.84,0.66 -10.36,-0.16 -14.57,1.57 -1.92,0.78 -3.44,2.19 -4.89,3.18 -3.15,2.16 -2.5,1.03 -5.62,2.59l0.07 3.01z"/>
   <path class="fil6" d="M191.98 131.15c3.05,2.3 9.36,5.95 10.97,7.95 0.46,0.57 2.64,4.61 3.21,5.81 1.17,2.49 1.33,3.28 2.01,6.63 5.24,2.4 5.04,0.45 7.99,4.54 4.04,5.6 2.86,11.74 -1.1,17.16 -2.52,3.44 -3.46,2.83 -8.34,2.24 -4.57,1.52 1.82,1.99 -9.12,11.29 -2.1,1.79 -6.79,5.31 -9.61,5.38l-4.39 -1.39 0.18 3.02c-8.79,0.97 -19.61,1.86 -29.16,0.71 -2.1,-5.14 -1.9,-5.44 -1.39,-11.3 -3.12,3.54 -2.21,5.17 -1.22,8.72 -10.38,-0.66 -15.82,-5.51 -20.25,-12.62 -6.02,-9.65 -4.42,2.64 -5.27,-19.84 -3.5,4.41 -0.63,22.6 2.71,29.43 1.93,3.93 4.87,6.73 8.36,8.77 7.01,4.1 4.71,4.2 4.93,13.18 14.38,2.38 3.47,-4.77 13.3,-4.81 2.52,-0.01 8.66,1.87 12.24,2.11 7.44,0.52 15.61,-1.67 23.42,-3.36l3.51 5.04 6.49 0.02c1.25,-4.97 -0.12,-5.81 2.42,-8.85 3.66,-4.39 4.82,-1.78 9.35,-12.55 0.81,-1.91 2.84,-5.67 3.51,-7.74 1.02,-3.18 0.01,-2.67 1.57,-6.28 8.99,-20.81 -10.72,-61.28 -59.37,-56.42l-4.88 1.53 16.95 -0.47c1.39,1.53 1.83,4.83 2.28,5.99 4.64,-1.05 1.49,-1.37 5.72,-3.34 6.79,2.49 7.66,7.14 12.98,9.45z"/>
   <path class="fil7" d="M212.97 377.71c4.29,-1.4 7.09,-2 11.51,-0.18 5.64,2.33 4.06,2.41 2.96,7.64l4.52 -5.07c11.91,-12.47 13.55,-12.52 29.83,-16.16 4.61,-1.04 12.28,-1.88 16.53,1.43 -14.84,1.73 -20.74,0.92 -31.6,10.42l-2.57 3.03c-0.13,0.18 -0.34,0.5 -0.5,0.76 5.85,-0.98 14.97,-1.7 19.95,0.14 1.25,0.21 1.96,0.36 3.01,0.6 0.3,0.06 1.28,0.27 1.61,0.36 0.26,0.07 0.53,0.14 0.79,0.22l1.55 0.51c0.01,0 2.69,1.19 2.81,1.26 2.06,1.27 1.68,-0.29 2.06,2.13 5.42,2.89 6.23,2.57 9.93,6.94l2.79 3.4c-5.3,3.81 -1.69,2.77 -9.71,4.61 -7.8,1.8 -3.16,2.22 -12.29,1.77 1.32,2.62 2.27,1.76 5.8,1.97 8.51,0.48 9.19,1.39 19.05,1.37 11.67,-0.03 15.66,0.94 22.58,-5.72 0.35,-6.68 -3.79,-7.8 -7.26,-11.31 -3.19,-3.22 -5.26,-7.02 -9.06,-10.93 -2.52,-2.6 -6.44,-6.33 -10.07,-8.9 -17.05,-12.05 -26.69,-8.57 -47.23,-3.86 -6.92,1.58 -20.32,6 -25.45,11.6 -1.09,1.19 -0.59,0.55 -1.54,1.97z"/>
   <path class="fil5" d="M394.16 436.06c9.81,-1.67 18.52,0.38 25.36,4.54 3.95,2.39 5.88,4.44 12.27,2.45 3.4,-1.05 6.8,-4.57 9.16,-6.98 8.98,-9.18 8.96,1.01 23.12,16.01 4.55,4.82 3.15,5.99 6.69,8.49 5.19,-0.57 0.41,-6.73 2.26,-12.37 2.53,-7.72 1.54,-2.15 3.43,-11.02 0.7,-3.28 -0.78,-1.82 1.52,-3.58 2.46,-0.67 2.25,0.47 3.25,2.18 0.81,1.39 0.78,1.95 1.35,2.86 1.55,2.47 0.23,0.95 2.03,2.32l-1.3 -6.2 9.89 2.03c1.94,0.59 1.69,0.34 2.95,1.09 0.18,3.93 0.18,3.19 -0.64,6.6 -0.72,3.02 -0.31,0.17 -0.3,4.3l-3.23 -0.01c0.9,0.93 -1.32,1.15 3.34,2.05 1.94,0.37 2.47,-0.08 3.9,-0.52 2.34,-6.76 0.2,-13.94 -3.76,-17.51l-2.12 -1.85c-8.5,-9.07 -7.06,-2.85 -16.82,-5.34 -3.74,-0.95 -5.77,-2.93 -10.47,-3.68 -4.05,-0.64 -8.73,0.14 -12.29,-0.2 -27.7,-2.67 -34.87,-11.72 -41.74,-12.86l5.58 3.75c2.03,1.77 1.81,1.7 3.56,3.78 8.79,1.83 14.8,9.14 23.33,11.43 -0.2,0.22 -0.5,0.25 -0.6,0.65l-2.19 2.38c-10.17,10.12 -20.41,1.46 -29.93,0.35 5.06,-1.64 -0.34,0.47 2.14,-2.28 -9.06,1.93 -5.45,1.12 -14.02,-1.74 -3.54,-1.18 -8.32,-3.24 -11.07,-5.84 -3.28,-3.09 -3.71,-5.8 -8.03,-8.98 -1.62,-1.2 -3.1,-2.09 -4.23,-3.76 -2.31,-3.37 -0.18,-2.71 -4.11,-5.34 2.65,10.87 12.16,26.36 23.07,29.47 -0.29,0.66 -0.24,2.07 -1.35,3.33z"/>
   <path class="fil8" d="M33.76 151.08c-6.79,14.63 -5.75,1.17 -3.75,29.04 0.29,4.03 0.77,5.62 0.73,9.99 -0.01,1.45 -0.09,4.6 0.02,6.01 0.32,3.85 0.38,1.5 0.83,5.16l1.07 51.26c2.32,13.84 2.89,64.58 2.11,76.47 0.11,0.23 0.2,0.55 0.25,0.73l0.44 1.57c1.1,5.4 0.83,26.61 3.14,28.1 5.82,3.75 3.77,-9.35 3.69,-12.25 -0.46,-16.97 -2.92,-35.4 -3.79,-52.02 4.85,-5.23 4.8,-4.04 3.24,-15.62 -0.56,-4.2 0.8,-2.98 1.21,-7.43l-2.93 -41.76c-0.69,-6.16 -1.42,-6.37 -0.12,-12.95 -0.82,-6.68 0.4,-11.61 -0.06,-18.27 -0.35,-5.09 -1.44,-2.88 -0.73,-6.83 0.69,-3.83 1.12,-3.54 0.76,-7.87l-0.95 -18.3c-0.21,-4.21 -1.01,-14.09 -2.34,-16.58 -2.64,0.38 -0.03,-1.15 -2.82,1.55z"/>
   <path class="fil1" d="M285.73 22.33c4.14,1.8 8.26,4.03 11.77,6.14l0.49 9.38c21.77,1.46 12.76,-2.43 29.67,10.69 14.53,11.27 11.31,7.77 24.3,21.62l7.91 9.11c5.86,7.04 21.27,25.95 24.88,33l5.08 18.03c5.84,1.79 28.79,2.8 37.12,2.81l-0.15 -7.76 -1.82 -0.61c-3.34,-0.26 -5.86,0.17 -8.17,0.11 -3.19,-0.09 -2.71,-0.78 -6.02,-1.14 -4.49,-0.48 -10.23,0.65 -14.79,-0.09 -2.73,-1.17 -4.38,-10.4 -6.04,-13.4 -3.02,-5.51 -2.53,-12.57 -5.94,-15.15l-3.57 -1.54c-4.01,-2.31 -5.98,-9.8 -9.18,-13.65 -2.08,-2.48 -4.18,-5.44 -5.99,-8.03 -14.37,-20.51 -23.25,-21.28 -28.6,-26.31 -5.17,-4.85 -14.69,-11.26 -21.31,-13.3 -15.36,-4.74 -9.93,-8.17 -19.92,-11.9 -0.31,-0.11 -1.96,-0.57 -2.27,-0.63 -3.25,-0.65 -7.64,-0.83 -11.81,0.37l4.36 2.25z"/>
   <path class="fil0" d="M210.82 426.42l-25.96 0.55c-4.72,2.34 -44.35,0.83 -50.34,-0.54 -3.04,-0.15 -6.52,-0.8 -9.17,0.71l3.78 2.85c1.72,0.82 2.59,0.95 4.23,1.85 9.52,5.23 16.71,6.29 29.62,6.3 12.91,0.02 36.92,1.14 47.97,-0.93l47.07 -2.1c6.13,0.07 37.53,3.88 42.82,2 3.12,-1.11 1.16,0.05 2.49,-1.97l-21.72 -3.58c-7.64,-1.03 -13.64,-2.64 -21.55,-3.51 -17.06,-1.86 -31.98,-0.86 -49.24,-1.63z"/>
   <path class="fil9" d="M419.9 320.45c2.49,5.99 6.82,4.18 14.11,4.23 6.02,0.04 10.74,-0.93 16.05,-2.29 20.03,-5.13 32.34,-7.82 26.45,-41.96 -1.17,-6.79 1.06,-18.96 -8.34,-17.96 -13.1,1.39 3.68,26.47 -3.85,37.89 -3.14,4.78 -7.75,4.01 -13.91,6.17 -12.98,4.53 -12.46,1.87 -12.89,6.61 5.1,2.71 7.14,-1.28 7.44,5 -4.73,2.95 -12.27,-0.73 -14.18,-4.73 -3.61,-7.55 -5.81,-28.93 -6.11,-38.32 -0.16,-4.65 -0.92,-4.56 -1.6,-8.99 -0.75,-4.89 -0.62,-5.68 -4.98,-7.23l0.15 21.6c0.02,3.57 -1.15,3.91 -1.08,8.47 0.16,9.63 3.15,26.11 13.63,30.49 5.09,2.13 3.18,0.33 7.16,3.44 -2.26,0.27 -16.24,1.18 -17.33,-1.93 -0.13,-0.37 -0.46,-0.35 -0.72,-0.49z"/>
   <path class="fil8" d="M38.8 131.77c-1.34,4.63 -1.33,6.02 -1.92,11.51 0.99,-1.15 2.64,-3.26 3.3,-4.94 0.78,-1.96 0.52,-2.06 0.87,-3.08 1.21,-3.58 5.43,-9.13 7.61,-12.49 2.28,-3.53 2.47,-6.73 5.84,-10.1 3.13,-3.14 4.04,-5.32 6.65,-8.37 8.95,-10.42 0.39,-4.08 9.55,-11.52 0.16,-0.13 0.37,-0.33 0.53,-0.46 0.22,-0.19 0.8,-0.76 1.01,-0.95 6.54,-5.79 3.87,-5.43 7.91,-8.11 10.97,-7.27 -7.62,-0.42 20.05,-18.91 29.19,-19.51 38.58,-19.13 51.96,-27l17.24 -8.74c-10.05,0.97 -16.89,3.93 -25.9,7.13l-18.68 6.39c-1.07,0.46 -6.14,4.9 -16.55,9.19 -4.62,1.91 -1.76,0.24 -5.27,2.79l-10.13 6.88c-17.1,10.54 -5.87,2.65 -20.76,5.18 -1.25,12.5 4.02,7.48 -5.63,17.47 -6.72,6.95 -9.14,13.97 -12.68,18.32 -1.41,1.75 -1.68,1.43 -2.87,3.12 -7.28,10.34 -10.54,24.6 -12.13,26.69z"/>
   <path class="fil8" d="M129.3 145.86l2.7 1.15c3.25,-3.95 0.84,-3.07 6.01,-6.11 -3.44,12.81 -6.64,6.68 5.39,26.85 1.13,1.89 1.15,2.5 2.47,4.52 1.7,2.58 1.13,2.27 4.18,3.74l4.94 3c-1.37,-3.38 0.23,-4.97 -0.05,-8.89 -0.29,-4.05 -0.41,-2.3 -1.25,-3.73l-1.62 -2.4c-0.11,-0.19 -0.23,-0.46 -0.34,-0.66 -6.38,-11.31 -15.88,-11.85 0.29,-25.12 20.15,-16.54 20.74,-6.4 28.12,-2.3 5.25,2.92 8.9,6.83 12.4,9.19l3.42 -2.07c0.01,-5.15 -2.56,-6.85 -3.98,-11.88 -5.32,-2.31 -6.19,-6.96 -12.98,-9.45 -4.23,1.97 -1.08,2.29 -5.72,3.34 -0.45,-1.16 -0.89,-4.46 -2.28,-5.99l-16.95 0.47c-10.11,0.28 -25.28,15.14 -24.75,26.34z"/>
   <path class="fil0" d="M324.3 228.06c14.22,6.13 24.76,-3.82 25.63,-8.03 0.94,-4.53 -0.96,-6.37 1.28,-11.17 0.08,-0.17 0.26,-0.48 0.44,-0.68 -3.19,-11.63 -18.95,-15.18 -30.24,-8.63 -5.49,3.18 -6.63,7.73 -6.38,15.61 0.26,8.18 4.72,10.27 9.27,12.9z"/>
   <path class="fil0" d="M39.9 217.38c-1.3,6.58 -0.57,6.79 0.12,12.95 2.52,1.76 4.34,3.64 5.98,5.84 6.79,1.84 17.3,4.39 23.3,-0.73 0.4,-0.34 5.71,-6.69 5.95,-7.11 2.37,-4.07 1.05,-9.07 -0.16,-12.83 -8.87,-7.53 -13.01,-11.16 -28.09,-9.43 -1.55,2.47 -3.23,3.26 -3.99,4.83 -2.21,4.58 1.4,3.35 -3.11,6.48z"/>
   <path class="fil5" d="M129.02 102.64l-25.11 3.4c1.77,-9.55 1.86,-8.42 6.05,-13.98 6.05,-8.02 4.75,-4.3 7.86,-7.07 2.05,-1.82 0.72,0.32 2.18,-2.99 -13.21,5.06 -22.2,13.78 -31.97,23.17 -2.26,2.18 -4.08,3.17 -6.78,6.2 -5.66,6.33 -14.81,17.12 -16.48,25.92 11.51,-1.29 22.75,-11.36 32.64,-15.74 4.62,-2.05 8.22,-3.09 12.59,-4.82 2.56,-5.17 1.04,-5.83 7.49,-8.23l8.41 -3.3c2.55,-1.39 1.1,0.37 3.12,-2.56z"/>
   <path class="fil10" d="M192.54 145.1c0.83,4.79 -0.17,4.93 -2.53,8.03 -19.47,25.63 -11.56,18.72 -6.41,37.63l4.39 1.39c2.82,-0.07 7.51,-3.59 9.61,-5.38 10.94,-9.3 4.55,-9.77 9.12,-11.29 -2.43,-2.4 -2.94,-1.49 -5.95,-2.83 -1.69,-7.12 -1.8,-10.96 -0.59,-19.58l7.99 -1.53c-0.68,-3.35 -0.84,-4.14 -2.01,-6.63 -0.57,-1.2 -2.75,-5.24 -3.21,-5.81 -1.61,-2 -7.92,-5.65 -10.97,-7.95 1.42,5.03 3.99,6.73 3.98,11.88l-3.42 2.07z"/>
   <path class="fil8" d="M184.86 426.97l25.96 -0.55c1.2,-1.2 -1.13,-0.43 2.57,-1.82 1.86,-0.71 1.93,-0.48 3.61,-0.62 4.29,-0.37 3.78,0.73 6.99,-1.57 -0.7,-4.33 -1.64,-5.24 -5.57,-5.58 -7.72,-0.66 -6.32,-4.98 -25.81,-3.99 -4.7,0.24 -18.98,-0.44 -22.48,0.28 -2.24,0.45 -1.62,1.03 -4.56,1.33 -4.53,0.45 -3.14,-2.99 -10.14,2.69 1.82,13.3 9.17,8.57 29.43,9.83z"/>
   <path class="fil11" d="M60 359.16c3.57,-6 1.67,-15.8 3.44,-23.3 0.77,-3.31 1.83,-7.51 3.13,-10.16 4.85,-9.89 0.13,-5.61 3.89,-10.09 9.73,-11.59 29.31,7.6 35.54,11.58 2.15,-0.89 1.57,-0.77 3.42,-1.54l3.47 -1.51c-1.84,-3.12 -3.28,-3.96 -4.98,-6.88 -2.71,-4.66 -0.12,-4.73 -3.91,-8.2 -4.48,1.24 -0.78,-1.03 -3,3.78 -2.24,-0.82 -2.88,-2.17 -6.09,-3.54 -4.42,-1.88 -9.6,-2.74 -15.21,-5.78 -3.42,-1.85 -3.91,-2.83 -7.7,-3.64 -8.81,9.05 -15.98,31.44 -17.58,44.55 -0.82,6.75 2.96,10.66 5.58,14.73z"/>
   <path class="fil4" d="M75.09 215.5c1.21,3.76 2.53,8.76 0.16,12.83 -0.24,0.42 -5.55,6.77 -5.95,7.11 -6,5.12 -16.51,2.57 -23.3,0.73 1.61,3.79 0.99,3.32 3.06,6.03l3.79 3.6c6.47,2.88 15.65,-7.57 13.5,10.21l4.09 -4.55c10.48,-15.23 19.93,-17.96 28.36,-25.32 -1.85,-2.26 -4.29,-3.14 -6.43,-5.37l-5.32 -5.66c-2.17,-2.51 -1.9,-4.43 -3.97,-8.08l-3.95 -6.44c-0.08,-0.37 -0.32,-0.43 -0.5,-0.63 -1.8,9.13 1.47,13.27 2.1,18.6 -0.27,-0.93 0.89,-2.31 -5.64,-3.06z"/>
   <path class="fil10" d="M129.3 145.86c-1.26,1.52 -0.51,0.02 -1.69,2.86 -0.37,0.87 -0.69,2.06 -0.9,3.08 -0.74,3.54 -0.66,4.18 -0.22,7.65 0.85,22.48 -0.75,10.19 5.27,19.84 4.43,7.11 9.87,11.96 20.25,12.62 -0.99,-3.55 -1.9,-5.18 1.22,-8.72 0.49,-5.62 0.08,-2.29 1.76,-4.18l-4.94 -3c-3.05,-1.47 -2.48,-1.16 -4.18,-3.74 -1.32,-2.02 -1.34,-2.63 -2.47,-4.52 -12.03,-20.17 -8.83,-14.04 -5.39,-26.85 -5.17,3.04 -2.76,2.16 -6.01,6.11l-2.7 -1.15z"/>
   <path class="fil12" d="M266.15 401.52c9.13,0.45 4.49,0.03 12.29,-1.77 8.02,-1.84 4.41,-0.8 9.71,-4.61l-2.79 -3.4c-3.7,-4.37 -4.51,-4.05 -9.93,-6.94 0.25,6.62 -1.73,10.64 -7.48,11.58 -6.86,1.11 -8.33,-0.78 -13.53,-3.57 0.25,-2.33 1.64,-5.38 2.56,-7.72 1.65,-4.24 1.7,-3.84 6.62,-5.37 -4.98,-1.84 -14.1,-1.12 -19.95,-0.14 -4.83,0.91 -3.38,3 -6.89,7.33 -2.95,3.65 -3.43,6.66 -4.09,11.43 8.9,0.55 26.28,1.21 33.48,3.18z"/>
   <path class="fil5" d="M463.42 379.39l-0.37 -7.25 -1.05 -1.97c-1.62,-3.93 -1.42,-9.05 -1.12,-13.34 -4.53,3.05 -11.47,6.88 -16.08,1.79 -7.13,5.33 -10.91,-1.4 -23.67,-2.6 1.68,3.5 3.85,7.74 7.32,10.69 4.21,3.58 17.07,11.91 22.14,12.76 7.57,1.26 5.85,2.73 12.4,3.38l0.43 -3.46z"/>
   <path class="fil4" d="M403.58 484.07l6.69 6.77c2.97,3.62 3.63,5.16 8.29,7.07 2.61,-16.08 -1.01,-44.75 -0.61,-47.77 -2.55,-1.28 -2.55,-1.75 -5.84,-3.01 -4.87,-1.87 -9.56,-4.8 -13.12,-5.34 -7,-1.06 -7.05,0.59 -7.98,1.71l8.07 -0.54c2.13,6.19 1.01,3.66 4.92,9.23 6.64,9.45 7.95,29.77 -0.42,31.88z"/>
   <path class="fil13" d="M168.78 322.84c4.08,-8.65 5.5,-20.31 0.22,-29.42 -29.58,-5.58 -25.5,31.21 -0.22,29.42z"/>
   <path class="fil14" d="M182.65 290.68c-0.2,7.71 1.87,12.76 5.01,17.8 2.29,3.67 7.1,10.14 12.34,11.07 6.41,-8.75 6.96,-15.37 5.66,-28.13 -8.6,-4.86 -14.05,-7.23 -23.01,-0.74z"/>
   <path class="fil2" d="M381.13 455.28c1.43,7.72 5.57,11.42 10.68,15.04 5.76,4.09 6.58,10.79 11.77,13.75 8.37,-2.11 7.06,-22.43 0.42,-31.88 -3.91,-5.57 -2.79,-3.04 -4.92,-9.23l-8.07 0.54 -1.04 0.58 5.76 13.99c-0.99,0.68 -2.1,1.33 -3.39,2.4 -3.23,2.72 0.88,0.79 -3.34,2.62 -2.92,-1.26 -4.54,-3.67 -6.25,-5.84 -0.17,-0.22 -0.96,-0.84 -1.06,-1.31 -0.09,-0.4 -0.35,-0.47 -0.56,-0.66z"/>
   <path class="fil4" d="M41.22 465.14c6.42,-2.06 14.27,1.33 19.09,4l-7.05 6.25c-0.17,0.13 -0.41,0.31 -0.59,0.43l-1.91 1.19c-3.88,2.27 -7.06,3.84 -10.2,6.37l-1.77 -2.26c-4.81,-6.82 2.27,1.28 -1.49,-2.46l0.73 11.88c4.25,-1.66 -0.04,-0.02 3.32,-1.97 11.72,-6.81 7.29,-2.32 22.27,-13.77 2.03,-1.55 3.44,-3.35 5.5,-4.59l19.89 -10.92 -43.01 -1.29c-2.02,2.15 -3.4,4.62 -4.78,7.14z"/>
   <path class="fil14" d="M275 330.9c3.91,-1.45 4.12,-4 9.93,-6.92 10.77,-5.42 5.86,-14.99 -0.51,-22.25 -2.02,-2.29 -2.31,-2.76 -3.9,-5.02 -2.53,-3.59 -0.93,-2.52 -7.12,-2.97 -5.21,13.09 -6.33,6.08 -2.73,17.78 1.86,6.04 0.75,14.72 4.33,19.38z"/>
   <path class="fil14" d="M79.45 325.63c-0.34,11.95 -5.49,11.02 8.51,24.55 4.07,3.93 15.19,14.59 22,14.85 -2.72,-15.36 -17.14,-27.4 -24.96,-41.6 -2.33,0.27 -3.84,1.16 -5.55,2.2z"/>
   <path class="fil8" d="M102.88 269.14c1.17,3.46 3.03,3.94 5.99,6.18 9.85,7.43 13.76,13.97 23.52,12.24 0.85,-7.57 -4.58,-21.63 -4.55,-29.17 -6.88,0.38 -21.28,6.96 -24.96,10.75z"/>
   <path class="fil1" d="M229 197.8c5.64,-2.29 9.36,-9.25 12.17,-14.44 4.79,-8.83 6.09,-11.93 2.81,-23.12 -2.3,-7.86 -14.77,-28.78 -22.95,-32.88 0.54,3.86 6.75,9.4 8.9,13.91 6.73,14.13 4.78,34.93 0.71,48.55 -0.86,2.88 -3.58,3.92 -1.64,7.98z"/>
   <path class="fil15" d="M419.9 320.45c0.26,0.14 0.59,0.12 0.72,0.49 1.09,3.11 15.07,2.2 17.33,1.93 -3.98,-3.11 -2.07,-1.31 -7.16,-3.44 -10.48,-4.38 -13.47,-20.86 -13.63,-30.49 -0.07,-4.56 1.1,-4.9 1.08,-8.47l-0.15 -21.6c-5.28,0.45 -9.67,5.87 -10.22,10.42 -0.6,5.02 1.03,3.06 1.91,7.94 0.6,3.35 0.23,6.78 0.63,10.41 1.09,10.13 4.21,27.38 9.49,32.81z"/>
   <path class="fil16" d="M213.84 320.38l-4.84 -0.08c-2.76,3.54 -0.03,3.5 -4.16,7.69 -12.47,12.67 -3.39,24.71 2.17,24.97 6.83,0.3 11.88,-7.62 12.87,-13.09 0.97,-5.42 -1.43,-6.01 -3.04,-9.65 -1.39,-3.13 -1.49,-6.34 -3,-9.84z"/>
   <path class="fil11" d="M161.93 282.92c-4.66,0.57 -6.1,-0.73 -8.2,2.22 2.16,1.98 0.24,1.85 10.33,1.29 8.91,-0.49 4.09,-0.59 8.94,-3.12 6.54,2.28 2.09,4.63 10.57,0.45 1.81,-0.89 2.62,-0.8 4.36,-1.62 -0.67,-4.81 -5.06,-8.23 -8.77,-12.14 -3.51,-3.69 -0.7,-2.36 -3.63,-7.35 -0.88,-1.49 -2.89,-5.27 -4.53,-6.31 -2.45,3.62 -5.63,20.08 -9.07,26.58z"/>
   <path class="fil3" d="M470.76 460.57c2.45,4.33 10.82,16.49 15.24,15.64 6.25,-3.37 6,-7.96 6.59,-15.61 -2.73,-1 -4.4,-1.43 -6.31,-3.74 -4.43,-5.36 -9.1,-15.79 -8.31,-23.26 -2.3,1.76 -0.82,0.3 -1.52,3.58 -1.89,8.87 -0.9,3.3 -3.43,11.02 -1.85,5.64 2.93,11.8 -2.26,12.37z"/>
   <path class="fil0" d="M372.44 403.26c3.93,2.63 1.8,1.97 4.11,5.34 1.13,1.67 2.61,2.56 4.23,3.76 4.32,3.18 4.75,5.89 8.03,8.98 2.75,2.6 7.53,4.66 11.07,5.84 8.57,2.86 4.96,3.67 14.02,1.74l1.49 -3.73c-1.36,-1.29 0.06,-0.6 -2.69,-0.85 -3.21,1.62 -5.73,-2.88 -10.38,-5.49 -3.74,-2.1 -7.15,-3.8 -10.15,-6.93 -3.45,-1.28 -8.81,-6.5 -11.67,-9.28 -4.18,-4.04 -7.02,-6.02 -8.58,-12.15l-4.27 -0.83c0.09,7.45 3.5,8.47 4.79,13.6z"/>
   <path class="fil17" d="M401.09 279.3c0,-5.29 -2.42,-11.07 0.6,-15.56 3.27,-4.87 17.95,-14.16 24.19,-7.49 1.6,1.7 1.86,4.16 2.54,6.64 1.2,4.4 0.36,4.28 3.74,5.2 1.35,-2.43 1.85,-7.25 1.09,-10.94 -2.55,-12.37 -25.84,-12.52 -33.43,-3.22 -1.27,1.57 -12.25,21.13 1.27,25.37z"/>
   <path class="fil18" d="M471.7 242.78c0.44,-3.67 -1.25,-16.81 0.4,-29.67 0.66,-5.18 2.87,-25.6 0.9,-29.57 -5.86,-0.9 -2.42,-1.88 -6.48,10.9 -2.48,7.84 -1.57,27.59 -1.7,36.71 -0.11,8.43 -2.56,13.27 6.88,11.63z"/>
   <path class="fil13" d="M251 322.03c2.55,-2.18 3.39,-3.38 4.55,-7.1 1.93,-6.2 2.97,-4.37 4.71,-8.59 2.14,-5.2 -4.85,-11.69 -7.14,-16.28l-12.36 -0.2c1.78,8.52 5.38,6.09 3.55,17.99 -0.94,6.13 0.66,12.91 6.69,14.18z"/>
   <path class="fil8" d="M323.48 369.68c9.63,3.33 15.2,0.96 24.98,0 -0.35,-4.42 -5,-15.86 -7.46,-18.95 -7.9,-0.59 -9.02,1.35 -12.76,5.62 -4.29,4.88 -5.54,4.63 -4.76,13.33z"/>
   <path class="fil3" d="M324.3 228.06c0.28,3.74 0.78,5.41 3.11,7.74 5.96,5.97 17.24,5.53 22.82,1.73l4.78 -5.27c5.14,-10.56 -2.4,-15.47 -2.41,-15.48 -1.14,-1.9 -0.66,-5.92 -0.95,-8.6 -0.18,0.2 -0.36,0.51 -0.44,0.68 -2.24,4.8 -0.34,6.64 -1.28,11.17 -0.87,4.21 -11.41,14.16 -25.63,8.03z"/>
   <path class="fil8" d="M206.72 175.48c4.88,0.59 5.82,1.2 8.34,-2.24 3.96,-5.42 5.14,-11.56 1.1,-17.16 -2.95,-4.09 -2.75,-2.14 -7.99,-4.54l-7.99 1.53c-1.21,8.62 -1.1,12.46 0.59,19.58 3.01,1.34 3.52,0.43 5.95,2.83z"/>
   <path class="fil18" d="M475.14 390.1l-1.7 -30.45c-0.56,-5.1 -0.48,-10.07 -1.58,-15.17 -1.42,-6.64 -0.55,-10.05 -1.2,-16.9 -6.39,0.54 -4.12,6.52 -4.27,13.56 -0.27,12.15 0.27,32.94 2.65,44.93 0.85,4.27 1.57,4 6.1,4.03z"/>
   <path class="fil8" d="M66.79 263.81l0.54 2.44c7.46,-1.67 10.12,-6.56 14.74,-10.02 3.38,-2.53 11.16,-5.63 15.9,-8.08 10.48,-5.43 7.24,-2.84 15.16,-6.86 3.83,-1.94 7.82,-0.48 9.81,-2.37 1.07,-1.02 1.27,-2.6 0.69,-4.2 -1.56,-4.28 -0.82,-2.96 -4.92,-2.79 -1.6,0.37 -12.8,5.05 -14.81,6.15 -4.5,2.48 -8.6,5.31 -13,8.02 -11.89,7.33 -16.59,7.55 -24.11,17.71z"/>
   <path class="fil11" d="M197.85 280.14c2.47,1.69 3.44,1.14 6.19,3.01 1.51,1.02 3.19,3.12 5.26,3.5 4.69,0.83 9.23,-3.91 10.68,-6.51 0.17,-0.97 -6.27,-14.76 -8.95,-17l-5.7 -4.57 -7.48 21.57z"/>
   <path class="fil19" d="M167.51 352.6c2.84,-5.31 3.65,-11.6 2.92,-18.9 -6,-3.44 -11.88,-6.67 -21.18,-4.3 -0.83,6.03 2.61,11.11 5.81,14.67 2.59,2.88 8.71,8.55 12.45,8.53z"/>
   <path class="fil14" d="M309.42 345.5c3.83,-12.52 0.09,-20.14 -14.86,-19.66 -2.53,4.33 -4.7,10.22 -3.17,17.14 1.23,5.56 11.83,2.71 18.03,2.52z"/>
   <path class="fil1" d="M412.7 424.34c2.75,0.25 1.33,-0.44 2.69,0.85l-1.49 3.73c-2.48,2.75 2.92,0.64 -2.14,2.28 9.52,1.11 19.76,9.77 29.93,-0.35l2.19 -2.38c0.1,-0.4 0.4,-0.43 0.6,-0.65 -8.53,-2.29 -14.54,-9.6 -23.33,-11.43 3.81,9.33 -4.96,4.32 -8.45,7.95z"/>
   <path class="fil13" d="M213.32 292.14c1.34,7.64 11.63,21.87 19.03,24.29l-0.45 -24.06c-7.8,-4.63 -10.97,-6.24 -18.58,-0.23z"/>
   <path class="fil8" d="M373.37 367.69c8.75,12.02 20.45,20.9 34.41,29.87 0.19,-8.83 -1.48,-8.08 -6.89,-11.37 -3.92,-2.38 -4.48,-3.42 -7.25,-6.7l-9.08 -12.87c-5.8,-8.05 -8.46,-4.96 -10.99,-3.98l-0.2 5.05z"/>
   <path class="fil11" d="M128.73 297.14c0.22,4.5 2.17,7.16 5.96,3.85 5.66,-4.94 -0.17,-3.43 9.31,-3.64 3.26,-4.71 6.11,-7.07 6.7,-10.05l1.6 -9.63c-7.52,-6.13 -9.44,-10.35 -14.01,-12.16 -1.61,15.78 5.83,24.65 0.81,29.79 -1.6,1.63 -4.92,0.99 -7.94,1.34l-1.66 0.31c-0.19,0.03 -0.53,0.09 -0.77,0.19z"/>
   <path class="fil8" d="M317.33 346.74c6.46,0.65 17.81,-0.8 22.14,-4.15 2.93,-3.94 -2.96,-11.34 -6.47,-17.96 -3.52,0.78 -17.05,15.45 -15.67,22.11z"/>
   <path class="fil8" d="M137.41 255.14c5.75,3.55 0.48,-2.39 9.55,8.05 1.72,1.98 5.95,8.5 8.04,10.17l3.65 -3.67c2.46,-3.45 5.25,-15.14 5.69,-18.88 -7.41,0.85 -21.9,1.46 -26.93,4.33z"/>
   <path class="fil8" d="M190 272.77l6.71 0.16c0.67,-4.81 -0.71,-5.88 0.25,-9.84 1.03,-4.27 2.34,-5.29 1.97,-10.76l-21.56 -1.63c0.84,5.59 3.35,7.89 6.28,11.78 5.77,7.65 3.92,7.29 6.35,10.29z"/>
   <path class="fil14" d="M111.36 309.14c1.84,13.13 13.92,17.51 20.44,20.71 -0.37,-7.19 -3.13,-16.43 -5.27,-23.19 -8.1,-1.68 -7.98,-2.5 -15.17,2.48z"/>
   <path class="fil19" d="M138.25 335.97c-9.29,0.19 -14.5,-4.19 -16.57,-2.09 -3.38,3.45 3.99,7.6 9.46,12.09 9.07,7.43 8.38,7.8 14.92,5.16 -1.06,-8.54 -4.02,-14.83 -5.59,-22.47l-2.22 7.31z"/>
   <path class="fil12" d="M225.11 392.15c-2.87,2.15 -5.13,3.57 -8.92,3.83 -3.79,0.26 -8.25,-0.12 -7.25,-4.63 0.82,-3.74 0.37,-1.29 2.98,-3.26 4.27,-3.24 4.65,-6.45 12.08,-6.58 1.59,2.61 1.51,2.72 1.59,7.71 1.24,-1.24 0.72,0.13 1.54,-1.91 0.85,-2.14 0.18,0.01 0.31,-2.14 1.1,-5.23 2.68,-5.31 -2.96,-7.64 -4.42,-1.82 -7.22,-1.22 -11.51,0.18 -2.95,1.04 -12.56,6.87 -10.65,15.09 0.59,2.56 0.25,1.12 2.7,4.36l19.86 1.16 0.23 -6.17z"/>
   <path class="fil20" d="M275.43 384.8c-0.38,-2.42 0,-0.86 -2.06,-2.13 -0.12,-0.07 -2.8,-1.26 -2.81,-1.26l-1.55 -0.51c-0.26,-0.08 -0.53,-0.15 -0.79,-0.22 -0.33,-0.09 -1.31,-0.3 -1.61,-0.36 -1.05,-0.24 -1.76,-0.39 -3.01,-0.6 -4.92,1.53 -4.97,1.13 -6.62,5.37 -0.92,2.34 -2.31,5.39 -2.56,7.72 5.2,2.79 6.67,4.68 13.53,3.57 5.75,-0.94 7.73,-4.96 7.48,-11.58z"/>
   <path class="fil21" d="M250.25 353.98c4.69,-0.75 12.21,-8.6 16.05,-11.33 -0.16,-5.12 -2.81,-10.25 -4.74,-15.11 -2,0.71 -2.69,1.54 -5.03,3.12 -4.33,2.91 -2.9,0.59 -4.17,5.93 -1.29,5.39 -3.35,12.05 -2.11,17.39z"/>
   <path class="fil11" d="M102.67 305.43c1.87,0.49 4.59,-2.63 8.12,-4.49 3.08,-1.62 8.24,-1.72 10.68,-4.8l-2.28 -2.19c-2.97,-2.1 -2.68,-0.52 -7.75,-5.27 -3.05,-2.86 -5.66,-6.88 -9.07,-7.28 -0.94,7.39 -2.47,17.72 0.3,24.03z"/>
   <path class="fil16" d="M226.51 347.68c5.69,0.03 7.14,-4.93 9.66,-8.4 2.59,-3.57 8.67,-7.28 3.85,-12.16 -3.32,-2.56 -10.79,-1.73 -15.68,-1.58 0.29,4.77 1.36,5.67 1.82,10.58 0.39,4.13 -0.02,7.7 0.35,11.56z"/>
   <path class="fil15" d="M439.26 135.14c3.45,1.5 14.2,3 18.41,2.72l1.93 -11.69 -3.89 -1.77c-1.49,-0.49 -3.44,-0.83 -4.88,-1.03 -2.73,-0.38 -6.98,-0.93 -9.32,-0.67 -1.09,3.84 -2.59,8.44 -2.25,12.44z"/>
   <path class="fil2" d="M37.3 478.66c3.76,3.74 -3.32,-4.36 1.49,2.46l1.77 2.26c3.14,-2.53 6.32,-4.1 10.2,-6.37l1.91 -1.19c0.18,-0.12 0.42,-0.3 0.59,-0.43l7.05 -6.25c-4.82,-2.67 -12.67,-6.06 -19.09,-4 -2.93,3.32 -3.04,7.97 -3.92,13.52z"/>
   <path class="fil8" d="M77.86 294.14c2.68,2.07 4.54,2.01 7.13,4.05 4.22,3.31 1.93,3 9.12,2.95 0.07,-4.67 -0.96,-10.06 -0.95,-13.08 0.01,-3.92 1.99,-6.22 2.09,-12.28 -5.46,1.31 -15.43,13.62 -17.39,18.36z"/>
   <path class="fil15" d="M22 301l0.84 -8.85 -6.7 -3.27c-0.21,-7.98 -0.19,-6.71 3.51,-11.05 3.28,-3.86 2.16,-7.74 2.19,-13.59 -1.57,1.15 -17.3,24.02 -10.71,31.72 2.13,2.49 6.66,5.49 10.87,5.04z"/>
   <path class="fil11" d="M298.95 318.25l7.63 0.32c1.81,-2.98 3.52,-8.72 5.15,-10.74 2.02,-2.47 2.74,-1.23 3.25,-4.83 1.42,-10.14 -16.23,-11.71 -16.03,15.25z"/>
   <path class="fil8" d="M222.57 271.51c3.64,-1.52 1.64,-0.93 4.64,-3.16 1.95,-1.46 3.26,-2.27 4.57,-3.41 2.77,-2.4 4.96,-5.37 5.87,-8.8 -1.47,-1.01 -17.34,-2.86 -20.19,-1.24 -3.87,2.19 1.07,9.02 5.11,16.61z"/>
   <path class="fil16" d="M179.91 343.28c4.66,0.27 6.09,0.15 8.62,-2.62 8.51,-9.29 2.29,-18.33 -6.86,-18.83 -6.49,13.04 -2.28,3.9 -1.76,21.45z"/>
   <path class="fil8" d="M273.96 243.07c-10.47,-3.67 -19.69,-9.86 -33.08,-10.8 -2.88,0.88 -1.49,0.01 -1.34,4.87 16.71,9.55 19.88,4.67 27.55,7.87 5.4,2.25 5.05,3.39 8.9,1.13 -1.1,-2.8 1.43,0.25 -2.03,-3.07z"/>
   <path class="fil14" d="M69.04 366.36l17.85 7.81c-1.95,-12.92 -10.56,-19.16 -14.89,-24.53 -1.45,2.19 -0.22,0.78 -1.13,3.25 -2.25,6.11 -2.7,4.96 -1.83,13.47z"/>
   <path class="fil8" d="M265 294.81c0.48,-0.86 3.53,-13.14 7.51,-18.16 1.62,-2.03 2.75,-2.39 3.07,-5.51 -4.07,-2.15 -9.39,-5.45 -13.93,-6.24 0.42,5.93 0.81,11.28 0.84,17.28 0.03,4.99 -0.85,11.08 2.51,12.63z"/>
   <path class="fil14" d="M53.7 423.02c9.28,-1.56 13.87,-19.29 13.95,-19.88 -2.85,-2.89 -6.34,-5.81 -11.39,-5.8l-2.56 25.68z"/>
   <path class="fil19" d="M117.32 381.14c12.1,4.67 6.01,-1.73 16.14,7.51 0.1,0.09 0.35,0.32 0.54,0.46l4.68 -2.22 0.56 -6.74 -12.03 -6.37c-6.13,-3.08 -10.98,0.87 -9.89,7.36z"/>
   <path class="fil9" d="M452.1 269.17c2.65,-0.79 1.22,0.21 2.89,-2.32 2.24,-3.38 0.48,-6.69 8.71,-8.96 12.68,-3.49 14.46,2.51 17.05,4.01 0.52,-5.78 -1.25,-8.15 -5.05,-9.38 -1.61,-0.52 -11.4,-2.49 -12.78,-2.48 -5.24,0.04 -6.06,3.05 -8.09,6.9 -2.37,4.5 -3.87,6.2 -2.73,12.23z"/>
   <path class="fil8" d="M316 329.22c2.9,-0.99 11.09,-9.24 11.12,-11.08 -1.96,-5.15 -6.92,-13.41 -12.03,-6.98 -1.55,1.95 -3.14,6.27 -3.23,9.05 -0.14,4.17 -0.33,2.02 1.2,4.86l2.94 4.15z"/>
   <path class="fil8" d="M241.11 199.86l-0.69 0.94c-1.03,4.51 0.36,5.18 3.91,2.95 3.31,-2.07 3.63,-3.06 7.15,-4.62 4.02,-4.02 4.43,-10.76 9.67,-15.21 1.56,-4.94 1.45,-7.14 -4.15,-7.74 -2.91,2.95 -4.26,9.02 -6.33,12.64 -1.74,3.04 -6.12,9.4 -9.56,11.04z"/>
   <path class="fil8" d="M381.39 455l-0.26 0.28c0.21,0.19 0.47,0.26 0.56,0.66 0.1,0.47 0.89,1.09 1.06,1.31 1.71,2.17 3.33,4.58 6.25,5.84 4.22,-1.83 0.11,0.1 3.34,-2.62 1.29,-1.07 2.4,-1.72 3.39,-2.4l-5.76 -13.99 -6.73 2.74 -0.13 -3.23c-4.3,5.26 -1.64,4.98 -1.72,11.41z"/>
   <path class="fil8" d="M371.92 390.49c1.56,6.13 4.4,8.11 8.58,12.15 2.86,2.78 8.22,8 11.67,9.28 1.75,-0.58 2.97,0.6 0.88,-3.54 -0.82,-1.63 -1.95,-2.37 -2.94,-3.32 -1.96,-1.89 -16.66,-27.83 -18.19,-14.57z"/>
   <path class="fil14" d="M57.47 391.09l11.84 3.75c2.23,-4.86 5.24,-7.55 5.82,-13.76 -5.15,-0.04 -11.8,1.15 -15.66,-0.48l-2 10.49z"/>
   <path class="fil20" d="M225.11 392.15l0.48 -2.93c-0.08,-4.99 0,-5.1 -1.59,-7.71 -7.43,0.13 -7.81,3.34 -12.08,6.58 -2.61,1.97 -2.16,-0.48 -2.98,3.26 -1,4.51 3.46,4.89 7.25,4.63 3.79,-0.26 6.05,-1.68 8.92,-3.83z"/>
   <path class="fil14" d="M333.02 399.14c0.56,4.46 -1.25,1.49 7.65,5.37 0.29,0.13 1.13,0.47 1.41,0.61 4.41,2.11 1.44,1.81 5.06,2.89 1.7,0.52 6.34,0.47 8.29,0.51l-0.54 -11.1c-8.77,1.15 -18.7,0.4 -21.87,1.72z"/>
   <path class="fil11" d="M223.8 282.33c3.06,0.81 9.02,3.42 9.38,3.47 2.7,0.39 6.9,-1.88 8.91,-3.66 -1.92,-4.26 -2.9,-9.39 -2.95,-15.24l-15.34 15.43z"/>
   <path class="fil14" d="M331.84 381.99l3.76 3.6c4.82,3.56 11.02,1.63 17.42,-0.38l-1.86 -6.19c-0.84,-2.01 -0.43,-1.14 -1.16,-2.35 -10.38,0 -11.36,2.28 -18.16,5.32z"/>
   <path class="fil8" d="M249 282.02c3.39,-3.35 1.65,-2 2.5,-6.71 0.32,-1.73 4.11,-8.86 -0.15,-14.62 -1.64,-2.2 -3.8,-2.47 -7.07,-2.41 0.02,4.19 0.24,21.52 4.72,23.74z"/>
   <path class="fil8" d="M107.68 214.21c0.65,-6 -5.43,-7.99 -8.44,-12.36 -13.95,-20.29 -14.44,-2.25 -4.45,4.54 1.44,0.98 1.42,0.68 3.02,1.84 0.17,0.12 0.39,0.32 0.56,0.44l1.1 0.93c0.23,0.19 0.89,0.76 1.12,0.95 2.3,1.96 3.15,3.59 7.09,3.66z"/>
   <path class="fil8" d="M288.57 281.86c-0.91,2.6 -0.5,7.38 0.12,10.81 0.74,4.09 1.42,5.36 3.79,8.21 0.11,0.13 0.34,0.39 0.52,0.57 3.3,-2.3 5.58,-9.41 6.35,-13.73 -4.02,-2.3 -5.29,-4.81 -7.33,-5.71 -2.38,-1.05 -3.01,-0.31 -3.45,-0.15z"/>
   <path class="fil22" d="M135.22 368.5c0.07,-6.81 0.07,-8.29 -2.47,-14.08 -0.72,0.03 -7.44,0.73 -8.59,0.93 -3.36,0.6 -5.75,2.9 -3.93,6.25l14.99 6.9z"/>
   <path class="fil8" d="M282.11 211.63c2.34,-2.5 7.1,-9.36 7.75,-13.42 0.32,-4.2 0.62,-11.12 -4.98,-9.07 -1.57,2.77 -0.75,7.28 -1.87,11.27 -1.21,4.3 -3.71,5.45 -3.59,10.73 1.5,0.92 0.41,0.51 2.69,0.49z"/>
   <path class="fil8" d="M167.46 400.7l19.84 -1.69c-0.1,-11.9 -18.54,-8.18 -19.84,1.69z"/>
   <path class="fil2" d="M484.6 440.96c0.61,2.35 3.96,6.97 7.37,7.81l3.23 0.01c-0.01,-4.13 -0.42,-1.28 0.3,-4.3 0.82,-3.41 0.82,-2.67 0.64,-6.6 -1.26,-0.75 -1.01,-0.5 -2.95,-1.09l-9.89 -2.03 1.3 6.2z"/>
   <path class="fil8" d="M125.9 201.01c-1.72,-3.36 -3.91,-5.83 -5.22,-8.61 -1.82,-3.83 -1.73,-5.6 -4.11,-9.28l-4.71 1.72c0.3,3.59 0.96,4.1 2.25,7.25 2.05,5 1.33,1.77 4.24,5.66 2.59,3.48 2.63,8.63 5.95,6.68 2.61,-1.53 1.35,-0.31 1.6,-3.42z"/>
   <path class="fil8" d="M53 217.17c-1.77,2.52 -4.31,4.51 -3.87,7.8 0.99,7.44 14.03,5.72 12.03,-3.64 -0.95,-4.43 -4.06,-4.15 -8.16,-4.16z"/>
   <path class="fil21" d="M146.55 361.14c1.94,3.73 6.04,8.48 10.45,9.43 2.76,-3.19 2.55,-3.59 2.19,-9.87 -4.31,-2.42 -4.97,-2.72 -8.19,-5.36 -3.16,2.24 -3.46,3.1 -4.45,5.8z"/>
   <path class="fil19" d="M300.86 361.84c2.28,-2.6 3.97,-3.73 4.25,-7.7 -3.21,-1.9 -8.64,-2.33 -13.13,-2.08 -2.02,9.6 -2.58,10.75 8.88,9.78z"/>
   <path class="fil21" d="M316.4 377.32c-0.53,-3.36 -3.86,-8.25 -7.4,-10.56 -3.28,1.67 -1.55,1.72 -4.59,3.78 -2.41,1.63 -5.84,0.35 -3.18,5.04 2.02,3.55 11.77,2.47 15.17,1.74z"/>
   <path class="fil15" d="M340.21 218.14c-1.07,-0.77 -0.06,-0.63 -2.29,-1.06 -1.56,-0.3 -1.42,-0.06 -2.89,-0.19 -8.65,-0.79 -7.14,-4.34 -10.03,-7.99 -11.05,10.88 8.33,18.14 15.21,9.24z"/>
   <path class="fil14" d="M105.9 392.92c2,-5.01 2.12,-10.2 2.51,-16.06l-5.37 -1.87c-3.58,5.71 -5.15,13.49 2.86,17.93z"/>
   <path class="fil21" d="M273.92 345.14l-0.41 7.52c4.13,-0.51 9.64,-3 12.55,-4.31l-4.06 -8.7c-2.39,1.79 -5.58,3.96 -8.08,5.49z"/>
   <path class="fil23" d="M169.78 381.34l7.18 -0.29 0.4 -9.72 -9.77 -1.56c-0.19,1.12 1.72,9.93 2.19,11.57z"/>
   <path class="fil11" d="M79.55 393.24l14.38 -2.54c-1.3,-4.67 -4.93,-6.98 -9.93,-7.47l-4.45 10.01z"/>
   <path class="fil8" d="M136.92 402l15.52 -0.17c0.16,-3.38 -1.07,-4.33 -2.44,-6.21 -5.16,-0.08 -12.22,1.77 -13.08,6.38z"/>
  </g>
 </g>
</svg>
