<?xml version="1.0" encoding="UTF-8"?>
<!DOCTYPE svg PUBLIC "-//W3C//DTD SVG 1.1//EN" "http://www.w3.org/Graphics/SVG/1.1/DTD/svg11.dtd">
<!-- Creator: CorelDRAW 2020 (64-Bit) -->
<svg xmlns="http://www.w3.org/2000/svg" xml:space="preserve" width="512px" height="500px" version="1.1" style="shape-rendering:geometricPrecision; text-rendering:geometricPrecision; image-rendering:optimizeQuality; fill-rule:evenodd; clip-rule:evenodd"
viewBox="0 0 512.85 501.31"
 xmlns:xlink="http://www.w3.org/1999/xlink"
 xmlns:xodm="http://www.corel.com/coreldraw/odm/2003">
 <defs>
  <style type="text/css">
   <![CDATA[
    .fil16 {fill:black}
    .fil0 {fill:#050403}
    .fil6 {fill:#5B3E2C}
    .fil12 {fill:#995413}
    .fil7 {fill:#A68B65}
    .fil2 {fill:#AE6319}
    .fil8 {fill:#B69B76}
    .fil10 {fill:#BC755F}
    .fil4 {fill:#C6A982}
    .fil1 {fill:#D4C88D}
    .fil3 {fill:#D7E9F3}
    .fil14 {fill:#D9436D}
    .fil5 {fill:#E6DAAB}
    .fil15 {fill:#ECEEEC}
    .fil11 {fill:#EFA093}
    .fil13 {fill:#F4628F}
    .fil9 {fill:#FBFBFB}
   ]]>
  </style>
 </defs>
 <g id="Layer_x0020_1">
  <metadata id="CorelCorpID_0Corel-Layer"/>
  <g id="_1937677907984">
   <path class="fil0" d="M123.39 35.16l0 -6.03 -3.02 0c-0.54,2.06 -12.34,17.55 -13.54,26.8 -1.49,11.43 -5.54,8.78 -10.85,30.19 -1.56,6.31 -3.74,16.17 -3.74,24.39 -5.04,-3.38 -12.23,-15.65 -15.89,-22.28 -0.21,-0.4 -1.05,-1.93 -1.06,-1.95 -0.11,-0.19 -0.27,-0.44 -0.38,-0.63 -14.3,-22.86 -8.96,-42.56 -11.8,-48.48 -3.76,1.36 -1.89,1.45 -5.31,10.77 -1.85,5.02 -2.31,12.38 -2.46,17.48 0,0.21 0,0.49 -0.01,0.7 0,0.23 -0.01,0.5 -0.02,0.74l0.22 9.27c0.16,1.51 0.16,3.03 0.1,4.62 -0.13,3.76 0.09,2.37 0.45,6.65 -1,-1.14 0.16,0.38 -1.28,-1.73l-3.63 -6.42c-0.71,-1.71 -0.89,-2.49 -1.69,-4.34l-6.62 -13.47c-1.17,-2.81 -2.36,-7.36 -4.87,-9.2 -4.26,3.12 -3.01,7.01 -3.01,14.07 -5.37,-3.94 -10.45,-18.47 -12.65,-25.53 -1.78,-5.7 -0.77,-5.16 -5.43,-7.63 -3.89,8.1 -2.01,27.62 -2.01,37.17 -0.14,-0.19 -0.34,-0.75 -0.39,-0.61 -0.2,0.55 -1.62,-2.84 -1.62,-8.43l-4.02 0c-2.89,12.39 1.33,29.55 5.37,40.84 1.72,4.8 4.2,6.74 4.68,12.41 -7.68,-4.06 -12.22,-12.97 -18.09,-16.08 -1.74,3.64 -0.4,7.44 1.17,10.89l5.67 9.4c5.42,9.21 13.21,17.08 21.87,23.34 5.8,4.19 13.15,7.06 19.56,10.58 2.95,1.63 7.32,2.74 10,5.07l-9.62 -2.64c-5.38,-0.74 -5.41,3.27 2.98,8.27 2.03,1.21 1.95,1.36 3.61,2.43 2.11,1.36 1.59,0.95 3.95,2.07 3.5,1.67 1.9,-0.09 4.1,2.93 -7.1,0.59 -12.81,5.59 -18.15,8.96 -3.67,2.32 -2.52,1.48 -4.95,5.1 6.14,2.95 8.8,-0.42 13.97,1.98 0.21,0.09 0.51,0.25 0.7,0.34 0.19,0.09 0.55,0.27 0.7,0.35 0.16,0.08 0.48,0.21 0.7,0.35 -5.61,1.31 -13.28,7.03 -17.67,10.45 -6.04,4.7 -9.52,9.36 -11.46,17.68 5.16,-1.38 18.77,-13.25 32.21,-15.47l13 -0.61c-4.59,6.85 -16.26,7.17 -17.08,17.08 -11.1,0 -21.04,2.62 -29.97,7.21 -5.18,2.66 -8.79,4.6 -12.83,9.27 -1.69,1.95 -0.64,0.65 -2.12,2.9 -7.32,11.14 -8.54,23.16 -7.31,35.85 0.86,8.8 1.05,14.45 4.49,22.65 1.49,3.56 0.42,-0.63 1.52,3.5 5.97,-0.5 1.95,-1.03 6.03,-4.02l5.15 6.91c0.38,0.49 1.04,0.97 1.88,2.13 4.9,-1.14 5.5,-1.65 9.05,-4.02 0,5.84 -0.08,7.42 1,12.06 6.69,0.55 2.71,2.43 8.84,-1.22 3.78,-2.25 2.85,-0.79 9.24,-0.79 0,10.24 -6.4,12.9 -7.41,33.22 -0.64,13.07 0.24,21.26 5.81,33.68 2.02,4.51 7.08,16.1 10.65,18.49 2.29,-3.42 2.11,-4.23 0.85,-9.86 -0.83,-3.73 -2.52,-7.09 -2.86,-11.24 0.15,0.18 0.37,0.25 0.43,0.58l6.86 12.22c3.92,8.39 17.99,32.28 23.07,38.22 0.75,0.87 1.49,1.64 2.4,2.62 1.91,2.02 12.63,13.36 12.96,7.81 0.04,-0.74 -10.44,-12.92 -12.53,-17.28 -2.2,-4.59 -4.94,-10.47 -5.06,-16.04 6.98,5.12 12.75,21.85 28.13,32.15l4.02 -4.02c0.92,3.96 3.75,6.85 7.03,9.05l-5.94 53.37c-0.43,4.88 0.81,4.15 0.91,8.91 10.09,0 1.7,-3.26 22.45,-13.72l11.59 -6.49c7.61,-3.39 15.7,-6.5 21.65,-12.51l17.29 -17.87c3.93,-4.58 6.27,-9.26 11.41,-12.7 0.38,4.47 5.22,7.32 8.15,10.94 3.07,3.78 6.19,5.76 10.53,8.57 12.75,8.25 7.08,5.04 18.87,9.25 3.98,1.42 7.32,5.39 11.3,7.79 0.26,0.16 0.98,0.62 1.23,0.78 0.18,0.12 0.4,0.3 0.58,0.42 6.5,4.22 12.82,4.13 21.53,4.61 4.41,0.24 9.36,-1.53 13.68,1.31 6.1,3.99 5.81,4.55 14.6,4.55 1.54,-6.63 0.46,-8.78 -1.01,-15.07 0.76,0.07 1.84,0.21 2.43,0.25 4.43,0.36 8.56,1.52 12.33,4.1 1.64,1.13 2.55,2.35 4.64,2.58 6.34,0.72 3.51,-12.19 3.61,-17.07 0.11,-5.18 -0.72,-3.85 2.11,-5.93 2.18,8.18 2.48,-1.67 0.41,17.66l-0.1 8.08c0.73,4.53 0.9,5.39 4.71,6.41 4.23,-8.81 4.31,-21.38 11.05,-29.14 0,9.03 -3.77,12.51 -2.01,20.1l3.83 -2.21c0.13,-0.16 0.29,-0.42 0.41,-0.59l0.76 -1.25c0.66,-1.06 0.74,-1.17 1.51,-2.51 3.55,-6.2 6.2,-12.18 10.31,-17.82l5.29 -8.78c-0.42,4.96 -0.22,1.14 -1.25,4.78 -2.01,7.1 -2.77,9.91 -2.77,18.33 6.88,-0.57 6.02,-2.15 7.41,-7.66l2.33 -5.71c3.79,-7.54 6.83,-19.42 13.36,-23.8 -0.93,3.51 -4.56,8.3 -6.4,11.68 -1.89,3.46 -3.04,11.51 -1.63,14.44 5.12,-0.43 4.74,-3.57 6.59,-8.48 2.84,-7.55 1.92,-3.77 10.73,-13.38l7.43 -7.64c2.33,-2.45 2.45,-1.69 3.38,-5.66 3.35,3.85 7.33,6.54 12.05,9.04l4.72 -4.4c1.39,-2.95 0.86,-5.26 0.31,-7.66l5.14 2.94c2.15,1.74 3.63,2.79 6.48,2.93 6.58,0.32 7.13,-4.69 11.48,-7.88 2.32,9.94 11.95,3.65 14.53,3.94 4.87,0.53 8.07,2.52 12.21,-3.32 2.87,-4.05 2.67,-8.06 7.64,-8.9 2.22,-0.38 0.85,0.23 2.75,-0.72 4.89,-2.46 8.73,-11.44 10.27,-16.64 1.51,-5.09 4.16,-3.52 6.77,-9.61l5.84 -40.66c0.69,-18.73 -1.74,-25.82 -1.74,-31.58 2.92,-0.78 3.91,-2.37 7.03,-4.02 0,-9.03 -3.75,-13.57 -6.8,-21.34 -2.32,-5.88 -1.23,-5.96 0.02,-11.62 0.72,-3.25 -0.25,-7.49 -0.25,-13.25 2.97,-0.8 2.91,-0.54 4.22,-3.52 3.98,-9.03 2.94,-19.99 -1.25,-28.58l-4.84 -7.23c-1.56,-2.34 0.45,-0.4 -2.15,-2.87 9.15,-0.76 19.72,-5.58 9.62,-16.65 -3.14,-3.45 -4.76,-7.91 -7.34,-11.75l-11.69 -22.54c-2.14,-6.66 2.07,-5.53 -1.6,-11.32 -2.61,-4.12 -5.06,-4.13 -5.06,-11.08 5.23,-0.11 3.29,0.07 6.03,-4.02 -1.23,-4.58 -10.83,-15.21 -14.07,-16.07 2.35,-3.2 1.67,-0.82 4.02,-4.02l-3.12 -5.92c-0.42,-0.53 -1,-0.88 -1.9,-2.12 3,-0.32 2.55,-0.46 4.01,-2 -0.76,-1.15 -1.15,-1.85 -2.1,-2.92 -0.14,-0.15 -0.35,-0.37 -0.49,-0.52l-2.08 -1.93c-0.21,-0.2 -0.81,-0.8 -1.01,-1.01 -1.84,-1.94 -2.7,-2.84 -3.36,-5.68 8.34,4.41 10.92,-1.08 4.44,-6.44 -2.38,-1.97 -3.55,-3.13 -5.85,-5.21 -6.58,-5.96 -7.71,-17.27 -7.68,-26.55 0.03,-11.45 3.3,-10.47 5.07,-18.06 -6.54,1.53 -13.32,9.53 -15.07,16.07l-5.02 -4.01c2.72,-5.14 5.62,-7.73 8.37,-12.73 1.38,-2.51 2.01,-4.2 3.41,-6.64 2.18,-3.83 2.29,-2.94 2.29,-8.76 -4.43,2.96 -5.19,5.17 -13.53,10.58 -0.18,0.11 -0.42,0.28 -0.6,0.4l-6.83 4.24c-2.83,1.26 -6.07,2.34 -9.18,0.85 2.65,-3.96 3.53,-3.43 7.06,-5.99 2.16,-1.57 5.23,-5.21 6,-8.07 -3.61,0.08 -4.19,0.76 -6.23,1.81 -17.34,8.85 -14.33,1.69 -30.94,1.2 -10.96,-0.32 -15.51,-6.47 -26.13,-7.03 -8.81,-0.47 -7.42,-1.86 -13.72,1.39 -6.64,3.42 -13.83,-4.11 -17.02,-1.08 -3.17,3.01 -0.59,0.73 -0.63,2.05l0.22 1.66c0.31,4.15 -9.16,-0.42 -11.06,-1.99l-8.16 -3.8c-0.24,-0.03 -0.54,-0.03 -0.78,-0.05l-1.48 0c-4.24,-0.31 -7.96,-1.92 -12.64,-0.08 -5.21,2.05 -5.63,2.36 -9.07,-4.13 -18.83,0 -13.48,3.85 -21.58,5.5 -3.8,0.78 -1.15,-0.42 -6.42,-1.6 -6.65,-1.5 -22.15,5.54 -25.24,10.16 -8.66,-5.79 -10.85,2.06 -18.78,-4.32 -2.85,-2.29 -5.5,-3.8 -11.06,-2.46 -0.15,0.04 -4.15,1.73 -4.91,2.18 -3.4,2.01 -2.49,1 -3.43,3.6 -6.61,-4.43 -3.44,-5.56 -14.06,-8.04 -1.55,1.04 -1.82,1.66 -3.62,2.42l-4.51 1.52c-5.7,2.8 -9.28,8.14 -14.45,11.66 -3.39,2.31 -6.52,1.48 -11.58,1.48l-3.18 -4.86c-1.58,-2.67 -1.44,-2.04 -3.56,-4.48 -1.48,-1.71 -2.28,-3.16 -3.17,-4.86 -3.71,-7.16 -5.88,-14.65 -11,-21.15 -1.85,-2.34 -2.24,-3.04 -5.21,-3.83 0.13,5.96 2.01,7.39 2.01,15.07 -2.9,-1.94 -4.12,-4.13 -5.03,-8.04l-3.01 0c0,8.25 -2.66,23.86 -9.04,28.13z"/>
   <path class="fil1" d="M17.75 281.62c-0.78,-10.46 2.9,-26.96 7.05,-34.44 5.95,-10.73 11.74,-15.52 27.1,-16.82 -2.21,3.51 -1.39,2.14 -3.5,4.33 -5.5,5.71 -3.68,7.31 -6.15,13.86 -1.58,4.2 -10.2,26.18 1.3,20.37 3.33,-1.69 2.08,-1.39 3.73,-4.2 2.96,0.74 2.01,0.8 3.65,1.64l8.16 4.62c2.84,-0.65 1.38,-1.8 2.1,1.28l1.28 1c2.09,0 1.64,-0.56 1.64,1.39 7.73,3.08 8.31,14.5 9.77,18.89 1.73,5.26 2.78,5.32 4.59,6l-0.74 -3.61c4.45,0.35 6.47,7.87 8.6,12.47 3.69,8 4.68,8.72 14.88,10.02 -0.39,-4.76 -3.05,-9.81 -1.93,-13.33 8.13,3.65 8.45,22.93 9.36,33.48 3.58,41.47 8.27,38.32 17.39,66.68 3.27,10.2 1.73,6.95 7.18,13.93 3.12,4 5.97,8.01 7.1,13.82 -6.92,-0.15 -1.08,-3.52 -8.72,-3.88 -0.28,9.56 0.21,20.42 -0.54,29.7 -0.47,5.86 -5.49,20.71 -3.21,23.93 3.1,2.4 5.68,-1.48 9.5,-3.69 3.36,-1.94 7.57,-2.96 11.36,-4.72 7.22,-3.35 14.75,-8.4 20.33,-12.78 6.03,-4.74 10.67,-11.3 15.86,-17.26 6.4,-7.34 8.77,-16.23 13.7,-19.13l1.85 6.45c3.04,-2.87 4.49,-6.14 7.19,-8.81 14.52,-14.34 11.45,-17.31 16.95,-27.2l0.78 -1.22c0.96,-1.3 0.54,-0.79 1.51,-1.55 1.65,1.35 0.73,0.77 1.95,2.08l2.06 2.18c5.23,-2.52 9.89,-7.18 11.97,-12.31 2.69,-6.63 5.91,-11.77 6.26,-19.27 4.02,1.91 -0.49,-0.05 2.32,1.86 1.98,1.36 -0.1,0.69 2.55,1.25 0.54,0.12 2.24,0.08 2.95,0.01 0.29,-0.02 1.14,-0.14 1.42,-0.19 0.19,-0.03 0.52,-0.11 0.7,-0.15 4.1,-0.83 1.97,-7.76 9.01,-13.17 7.03,1.59 -0.2,2.62 7.03,2.11 2.48,-3.1 3.18,-6.19 4.6,-9.06 1.92,-3.87 3.72,-5.55 6.04,-8.68 8.35,3.74 3.03,6.19 7.28,10.66 5.35,0.93 2.84,1 4.96,-0.89 1.67,-1.49 2.02,-3.77 2.61,-5.38 1.42,-3.82 2.68,-6.91 4.4,-10.72 2.8,-6.23 7.03,-4.78 8.66,-3.12 1.36,1.38 2.7,9.03 4.05,11.93 2.22,-1.74 0.32,0.32 2.44,-2.51l3.86 -8.38c1.55,-6.05 -0.01,-7.87 5.35,-10.11 2.62,3.06 2.81,3.95 1.5,7.98 -1.15,3.53 -1.43,7.04 -1.25,11.46 3.43,-2.79 4.5,-7.61 7.12,-11.59 3.8,-5.8 1.7,-13.53 4.68,-15.07 3.81,2.23 -0.26,9.93 3.43,16.74 0.13,0.24 0.38,0.56 0.5,0.75 0.11,0.2 0.32,0.51 0.51,0.75 2.01,-3.45 3.89,-6.02 4.51,-10.57 0.73,-5.29 -0.19,-9.81 3.11,-12.5 2.48,2.89 0.45,4.39 0.99,8.37 0.44,3.28 1.21,2.36 1.59,7.95 2.58,-7.46 2.66,-14.28 5.46,-16.2 1.66,4.52 2.08,12.05 3.79,16.26 1.1,-2.65 1.63,-3.31 3.02,-5.91 0.58,-1.09 0.87,-1.84 1.33,-2.68 2.06,-3.71 0.24,-0.5 2.11,-3 5.27,-7.05 -0.9,-8.42 1.8,-14.46 5.51,3.3 3.65,13.78 3.91,15.37l0.3 1.06c1.42,4.44 1.55,3.01 2.16,9.33 11.18,-0.29 8.41,-18.56 9.96,-22.23 1.28,-3 -0.1,-1.61 2.89,-2.68l0.76 9.76c2.49,3.76 4.59,8.19 11.19,5.56 0.24,-4.25 -0.52,-4.35 -4.77,-9.35 -3.55,-4.19 -3.91,-5.7 -3.29,-11.65 6.32,0.33 8.37,1.93 8.56,6.46 -0.47,-6.52 -3.63,-11.61 -6.81,-17.58 0.17,-0.2 0.51,-0.71 0.58,-0.53 0.02,0.04 2.65,-1.36 1.5,-5.16 -0.84,-2.82 -1.97,-5.15 -3.38,-7.41l5.68 5.1c0.16,0.12 0.39,0.31 0.56,0.43 3.96,2.92 3.47,2.22 5.56,1.54 1.8,-5.46 -10.8,-22.09 -14.47,-22.31 6.87,0.72 7.32,4.93 13.52,4.25 0.42,-7.86 -11.68,-11.12 -16.01,-10.43 -2.78,1.59 0.73,1.05 -3.74,0.66l-12.75 -0.77c-6.47,-0.57 -12.39,-0.61 -18.92,-1.36 -10.39,-1.18 -16.94,-5.91 -33.75,4.32 9.16,1.12 16.7,-4.28 34.83,3.31 3.4,1.42 6.81,3.7 9.42,4.6 7.13,2.45 3.68,0 7.84,5.35 6.53,8.41 17.52,10.88 18.38,24.83 -4.28,-1.62 -1.95,-0.31 -4.51,-3.63 -4.09,-5.33 -6.09,-6.9 -12.64,-10.27 -8.83,-4.55 -20.04,0.4 -23.04,3.04 -3.13,2.76 -0.63,4.74 -5.94,9.15 -6.27,5.2 -9.03,1.71 -20.02,11.17 -6.86,5.9 -2.83,-0.34 -10.96,5.05 -2.74,1.82 -16.57,10.55 -19.29,10.56 -13.85,0.05 -10.73,5.24 -21.54,8.74 -5.55,1.79 -24.34,11.5 -29.72,16.67 -3.52,3.37 -4.2,6.8 -3.63,12.56 -4.04,2.51 -4.35,3.59 -7.17,6.76 -6.24,7.03 -17.58,10.67 -24.04,20.31 -3.74,5.56 -0.42,2.95 -8,13.05l-22.2 28.98c-12.08,15.62 -19.73,22.15 -32.7,40.69 -4.95,7.08 -7.16,9.93 -15.4,13.4 -1.26,-6.71 5.44,-13.03 7.8,-26.04 4.38,-24.22 -0.59,-26.76 -9.79,-55.16 -1.41,-4.32 -2.31,-8.58 -3.77,-13.37 -2.62,-8.53 -6.03,-3.56 -5.23,-12.4 1.14,-12.55 -4.87,-14.08 -6.6,-25.74 -1,-6.73 -3.47,-25.05 -6.27,-29.17 -6.09,-8.97 -2.75,-10.46 -11.97,-22.1l-16.18 -18.79 12.59 32.22c-3.36,-1.83 -17.1,-20.88 -19.33,-26.74l-4.64 -11.47c-2.9,-9.11 -1.57,-24.6 -15.98,-13.01 -2.25,1.81 -2.13,1.83 -3.84,4.15 -2.4,3.26 -1.05,2.74 -4.37,4.35 0.43,-8.52 3.73,-20.64 10.64,-24.15 6.57,-3.35 20.65,-6.8 29.75,-5.83 7.4,0.79 20.21,6.28 24.83,9.61 7.23,5.21 10.45,10.84 15.92,19.22 -0.56,-5.46 17.42,-33.96 18.08,-40.52l-1.61 -0.88c-9.18,-1.72 -2.09,3.71 -18.24,-0.07 -6.27,-1.47 -10.84,-3.06 -9.22,-10.25 5.02,1.65 1.47,0.98 5.35,3.56l4.95 -1.96c-4.94,-7.85 -2.48,-2.32 -7.88,-10.18 -1.72,4.71 -13.36,17.12 -18.2,16.88 -0.47,-2.03 0.9,-3.61 2.57,-4.91 -3.44,0.74 -5.07,2.16 -8.77,3.61 -3.43,1.34 -7.21,1.79 -10.54,2.89 1.82,1.57 -1.01,0.43 3.36,1.91 0.61,0.21 21.25,3.95 23.9,9.54 -4.9,1.68 -9.24,-1.96 -15.6,-2.26 -6.18,-0.28 -13.52,-0.32 -20,-0.89 -23.27,-2.05 -46.23,-7.66 -57.62,22.69 -3.18,8.47 -8.86,25.97 -4.67,34.51 4.3,-0.03 4.54,-0.65 5.88,-3.59z"/>
   <path class="fil2" d="M311.53 213.62c1.53,0.76 10.02,3.51 11.92,3.67 3.96,0.33 4.72,-0.52 7.9,-0.74l30.48 -0.17c-6.62,0.52 -8.54,0.24 -12.53,3.44 2.31,10.79 14.56,-0.48 21.33,7.54 17.85,-1.4 22.02,-2.82 36.51,4.14 21.88,10.52 25.75,44.6 20.78,59.87 -2.65,8.16 -6.83,25.68 -13.45,28.96 -2.59,-1.13 -1.57,-0.26 -3.7,-1.86 1.27,-6.29 4.48,-11.46 4.78,-16.18 0.41,-6.55 -4.09,-13.37 -0.8,-18.81 2.88,0.9 1.74,-0.35 2.92,3.77 0.89,3.09 0.55,3.69 1.98,6.28 4.15,-15.34 -3.65,-11.66 -5.22,-23.43 8.72,-0.11 3.66,3.05 9.3,6.63 1,-7.88 -5.5,-22.39 -9.78,-28.83 -0.94,-1.41 -4.85,-5.75 -6.39,-6.7 -6.97,-4.32 -36.9,-5.4 -44.74,-2 5.84,4.49 14.18,0.16 29.12,9.59 4.33,-0.69 16.43,2.57 16.01,10.43 -6.2,0.68 -6.65,-3.53 -13.52,-4.25 3.67,0.22 16.27,16.85 14.47,22.31 -2.09,0.68 -1.6,1.38 -5.56,-1.54 -0.17,-0.12 -0.4,-0.31 -0.56,-0.43l-5.68 -5.1c1.41,2.26 2.54,4.59 3.38,7.41 1.15,3.8 -1.48,5.2 -1.5,5.16 -0.07,-0.18 -0.41,0.33 -0.58,0.53 3.18,5.97 6.34,11.06 6.81,17.58 -0.19,-4.53 -2.24,-6.13 -8.56,-6.46 -0.62,5.95 -0.26,7.46 3.29,11.65 4.25,5 5.01,5.1 4.77,9.35 -6.6,2.63 -8.7,-1.8 -11.19,-5.56l0.32 11.7c-8.31,3.48 -1.55,0.11 -10.23,9.87 -1.79,2.02 -1.39,2.05 -4.04,3.55 -6.22,-1.68 -4.98,-2.79 -5.61,-9.06 -6.55,2.77 -4.59,5.56 -9.39,10.78 -2.58,2.81 -1.42,2.52 -4.99,2.52l0.31 -7.34c-10.78,-2.59 0.7,5.03 -21.2,5.79 -2.67,4.96 -5.23,7.27 -10.36,10.24 -1.84,-1.18 -0.67,-0.45 -2.1,-2.08l-1.51 -1.84c-0.12,-0.15 -0.31,-0.46 -0.51,-0.65l-4.69 4.48c-2.12,1.92 -2.46,2.67 -6.47,2.78 -5.8,-6.57 -1.15,-9.18 -4.08,-14.67 -1.68,2.6 -5.35,21.76 -13.02,27.36 -4.08,-1.58 0.4,-1.18 -5.5,-2.88 -1.59,4.13 -0.53,13.36 0.77,17.41 2.43,7.64 8.73,6.64 12.33,3.28 6.9,-6.44 13.46,-17.52 24.77,-12.3 0.61,2.01 0.36,0.88 0.48,3.07l-0.64 3.78 -1.63 5.14c-0.11,3.49 0.75,6.04 3.05,8.97 6.5,-10.39 2.46,-19.61 7.45,-22.57 6.28,-3.71 14.8,8.62 17.75,13.24l3.44 4.56c1.09,1.05 0.54,0.51 1.64,1.41 3.84,-5.28 9.9,-23.04 14.83,-7.75 0.99,3.05 1.75,6.43 2.97,8.79 8.89,-3.27 5.98,-15.04 12.96,-19.47 4.14,-0.98 10.4,9.29 16.56,1.98 -2.37,-2.56 -0.06,5.74 -11.43,-8.41 -1.87,-2.33 -1.74,-2.77 -3.12,-4.7 -7.35,12.91 -5.35,-0.63 -24.87,-4.3l-9.4 -3.94c6.69,-4.26 18.53,0.52 25.23,1.22l3.75 -4.41c3.42,0.58 2.4,0.33 5.04,1.53l4.99 2.94c-0.77,-3.56 -2.96,-9.42 -1.73,-11.9 6.98,1.09 1.21,0.04 7.15,14.35 2.18,5.27 3.39,12.73 9.93,12.8 3.4,-5.88 1.64,-14.06 0.44,-20.34 -0.07,-0.36 -0.41,-3.13 -0.4,-3.29 0.03,-0.25 0.07,-0.54 0.11,-0.78l0.86 -2.23c3.14,2.99 5.4,9.61 6.82,15.11 2.94,11.35 -1.76,14.27 9.04,13.71 3.94,-8.05 2.78,-16.68 2.81,-27.04 3.21,2.42 6.87,10.9 11.5,15.44 0.69,0.68 -0.2,2.37 3.55,1.32 3.06,-0.85 1.08,-4.01 0.55,-6.56 -0.99,-4.8 -3.03,-31.28 -0.34,-36.38 1.53,-2.9 0.86,-1.83 3.71,-3.06 2.05,6.23 -2.38,21.8 5.39,39.31 6.28,-1.54 6.23,-11.98 6.22,-18.83 -0.02,-43.78 -11.36,-50.81 -12.3,-63.24 12.2,8.52 14.9,33.33 24.5,35.37 -0.15,-6.79 -3.26,-19.55 -5.09,-25.44 -1.43,-4.58 -4.78,-15.89 -9.58,-17.49l-10.78 -27.5c-3.68,-7.27 -2.62,-3.99 -6.01,-7.18l3.15 -1.96c2.7,1.02 2.84,2.17 4.75,4.22l14.78 13.3c4.16,3.5 12,17.04 15.38,21.48 -1.59,-11.88 -10.59,-36.97 -17.33,-48.34 -4.27,-7.2 -1.84,-13 -17.95,-15.8 -4.78,-0.83 -24.86,0.11 -29.46,0.59 -6.12,0.64 -9.01,8.62 -36.48,11.16 -6.32,0.58 -9.63,1.4 -15.08,2.18 -11.56,1.67 -39.5,-5.48 -43.25,-5.39 -2.58,0.07 -3.05,1.11 -5.15,2.3 -4.22,2.39 -3.3,0.29 -5.55,3.84z"/>
   <path class="fil3" d="M335.37 89.37c-4.48,-0.97 -3.15,-11.16 -14.65,9.53 -3.8,6.81 -8.98,12.28 -12.95,18.21 -5.38,8.02 -12.14,21.91 -17.54,28.64 -1.52,1.9 -5.96,6.84 -8.11,8.24l-0.31 -4.6c1.16,-4.9 4.35,-8.2 5.54,-13.35 -7.1,3.97 -38.83,40.21 -50.29,41.63 2.57,-4.58 12.72,-10.84 15.81,-17.97 -1.49,1.19 -6.62,4.64 -9.21,5.74 -6.07,2.56 -5.29,1.31 -9.74,5.34 -2.92,2.64 -13.58,12.41 -17.89,10.05 2.05,-4.22 6.09,-3.41 8.54,-10.94 -5.6,-0.61 -8.43,3.62 -12.43,6.25 -7.21,4.76 -22.48,10.76 -30.39,6.53 -12.68,-6.77 -26.17,-12.33 -37.14,-22.05 -6.61,-5.85 -13.77,-19.76 -18.49,-22.1l2.13 14.66c-7.16,-2.94 -3.95,-11.6 -22.64,-19.91 -3.5,-1.56 -4.77,-3.32 -7.43,-5.8l-1.24 13.92c-4.34,-1.58 -7.91,-20.99 -13.39,-28.21 -4.19,-5.52 -12.72,-21.32 -15.85,-24.63 -0.23,-0.24 -0.47,-0.43 -0.71,-0.65l-1.66 -1.29c0.99,18.58 6.87,22.84 8.38,34.5l-7.86 -10.34c-5.86,-9.72 -11.57,-13.05 -16.73,-22.42 -1.85,-3.35 -4.33,-10 -8.11,-12.44 -2.6,1.17 -5.02,-0.02 0.12,9.31 5.13,9.29 12.66,22.11 15.61,31.81 -3.29,-4.79 -6.51,-5.49 -15.11,-20.16 -2.37,-4.04 -4.86,-7.55 -6.84,-11.2 -5.44,-10.02 -0.33,-7.08 -8.57,-10.45 1.13,6.39 4.58,12.19 5.2,18.34 1.24,12.25 3.32,10.15 6.01,19.2 -4.48,-2.87 -2.59,-6.52 -8.7,-7.28 0.78,5.53 7.28,13.05 11.16,17.2 2.25,2.4 3.24,2.02 4.16,6.17 -4.13,-0.95 -2.81,-2.2 -6.56,-3.73 3.75,7.29 7.74,7.95 14.31,11.75 3.53,2.04 3.29,0.68 5,3.96 -5.07,-0.93 -14.44,-5.86 -19.53,-5.19 2.35,6.56 16.19,12.2 23.82,16.12l28.51 10.76c0.18,0.05 0.53,0.11 0.76,0.23 -0.49,6.34 -3.48,4.28 -9.86,4.32 6.07,1.35 14.37,4.45 20.38,4.33 -0.28,-4.75 -1.96,-4.04 -1.81,-11.66 -5.13,-2.89 -11.17,-5.7 -13.13,-11.21 13.27,3.05 68.95,32.82 74.64,39.27 2.3,-3.71 0.08,-4.33 5,-6.36 2.91,3.07 3.43,6.77 7.68,8.8 6.11,2.91 22.52,-1.07 31.14,1.1 3.96,1 7.69,3.73 12.42,4.44 2.14,-2.07 2.88,-2.75 4.25,-5.69 1.93,-4.13 0.53,-4.23 3.79,-5.72 2.54,2.16 2.03,6.38 1.99,10.27 2.2,-0.79 6.55,-2.27 8.18,-3.67l6.53 -6.53c8.07,-6.34 11.97,-1.42 20.22,-5.92 9.51,-5.19 28.94,-8.7 41.19,-11.22 14.75,-3.03 28.34,-4.59 42.48,-9.7 5.28,-1.91 32.88,-13.86 34.54,-16.43 -5.12,2.63 -15.8,4.13 -20.65,5.51 -7.94,2.25 -13.81,3.88 -23.07,4.01 2.3,-6.32 30.05,-10.78 35.94,-12.54 3.12,-0.92 8.08,-2.7 10.92,-4.01 -4.2,0.12 -10.82,3.99 -13.01,-0.16 -0.05,-0.1 -3.32,-0.52 1.22,-3.36 3.15,-1.96 10.53,-2.82 14.07,-4.12 5.62,-2.06 12.47,-4.29 15.63,-10.08 -3.88,-0.37 -24.74,7.37 -33.93,8.67 0.18,-0.25 0.48,-0.89 0.59,-0.7l5.87 -4.82c7.41,-5.29 16.58,-9.76 21.78,-16.37 5.57,-7.1 15.66,-11.77 19.23,-20.61 -4.76,0.22 -9.07,2.89 -11.43,5.29 -9.95,10.14 -22.46,16.82 -33.35,25.91 -2.9,2.42 -2.13,2.4 -4.43,4.63l-26.62 15.59c-2.87,1.32 -3,1.87 -6.58,2.59 2.15,-3.8 26.25,-22.42 32.05,-26.37 2.92,-1.99 1.37,-1.07 3.84,-3.21 8.86,-7.7 20.06,-15.08 27.33,-24.3 -17.22,-1.98 -25.5,3.47 -35.66,10.95 -7.3,5.38 -15.56,19.19 -24.42,22.9 1.58,-3.42 4.75,-9.16 6.77,-11.41l16.49 -20.69c3.71,-4.99 7.85,-5.3 10.34,-9.12 -2.64,-1.36 -7.71,-1.08 -10.75,-0.34 -2.73,0.67 -6.24,2.09 -8.72,3.38l-14.07 10.98z"/>
   <path class="fil4" d="M285.54 103.55c4.27,-2.39 11.25,-0.5 16.59,0.6 4.86,-3.5 11.71,-35.2 18.43,-31.12 3.24,3.8 0.32,9.82 -0.8,15.04 6.15,-3.73 6.79,-18.85 15.37,-9.13 4.19,-4.09 17.13,-15.47 23.24,-14.94 5.31,0.45 6.54,2.56 13.62,-2.25 6.64,-4.5 4.49,-3.78 12,-7.04 -5.44,-3.28 -23.79,2.05 -29.54,0.44 0.66,-3.95 0.34,-3.06 3.61,-4.92 -3.63,-1.48 -11.74,-2.68 -15.98,-3.79 3.41,-8.61 26.49,1.8 35.46,1.62 9.09,-0.18 12.04,-0.9 19.87,-2.24 4.46,-0.76 15.35,-2.43 18.97,-1.03 -1.46,-5.89 -9.72,-0.82 -21.73,-0.35l-22.2 0.26c-3.54,-0.19 -4.73,-0.97 -6.03,-2.51 3.47,-4.34 10.09,-2.66 15.2,-2.99 5.43,-0.34 15.47,0.7 19.86,-1.02 -1.25,-3.13 -6.08,-2.39 -11.82,-2.62 -18.96,-0.73 -24.04,-3.66 -43.37,0.57 -4.27,0.93 -9.22,3.27 -11.59,3.73 -2.24,0.44 -1.19,0.44 -2.83,-0.28l-1.05 -0.8c-0.14,-0.08 -0.34,-0.33 -0.48,-0.4 -1.78,-0.96 -4.18,-0.16 -6.99,0 -10.89,0.6 -22.28,7.22 -26.6,3.38 3.66,-2.24 6.68,-4.38 12.06,-6.02 2.88,-0.87 13,-2.72 14.33,-4.6 -3.75,-2.97 -17.09,0.21 -21.59,2.32 -7.34,3.43 -10.7,8.15 -18.93,8.98 0.88,-4.59 1.67,-4.37 6.18,-6.59 1.29,-0.63 3.56,-1.54 4.13,-1.84 5.01,-2.69 2.44,0.02 3.28,-4.16 -13.75,0.18 -20.29,9.6 -29.64,14.95 -2.33,1.34 -3.41,1.45 -5.92,3.11 -3.83,2.53 -6.82,4.97 -11.67,6.02 1.37,-2.89 9.96,-9.55 12.49,-11.33 3.86,-2.71 12.46,-7.08 14.78,-9.45 -9.74,-5.83 -52.93,30.41 -62.31,34.83 12.63,-14.68 11.53,-13.45 27.28,-24.54 2.63,-1.85 2.92,-1.06 2.16,-4.82 -12.51,-1.06 -42.43,32.17 -54.5,42.37 15.05,-30.05 34.78,-29.32 34.79,-37.79 -5.82,-2.74 -8.67,2.05 -13.23,4.58 -5.15,2.86 -8.68,4.88 -13.01,8.15 -1.89,1.43 -4.39,3.11 -5.76,4.33l-15.5 15.48c1.22,-11.63 14.76,-21.09 22.75,-28.33 4.24,-3.83 -1.23,1.3 0.99,-0.9 1.6,-1.58 0.14,1.26 1.52,-1.76 -30.14,-2.08 -31.78,22.95 -36.8,30.7 -4.56,7.03 -10.26,12.35 -15.78,18.36 -3.66,3.97 -4,5.21 -10.03,6.79 -4.33,1.14 -11.01,1.74 -12.14,5.89 1.65,0.84 13.16,1.38 16.95,2.1 3.77,0.71 5.08,1.11 8.98,0.56l5.12 -1.55c0.2,-0.09 0.44,-0.24 0.63,-0.34l1.22 -0.67c0.19,-0.09 0.45,-0.22 0.64,-0.3 13.04,-5.79 19.62,-3.56 32.08,-1.41 1.78,-4.4 4.49,-4.43 10.69,-13.21l17.02 -20.19c3.73,-2.77 4.54,-0.41 8.62,-4.42 3.11,-3.06 8.62,-11.33 13.3,-11.72l-0.16 7.04c6.72,-0.74 16.17,-9.5 23.92,-11.5 -1.05,3.71 -3.05,4.09 -6.07,5.99 -2.71,1.72 -4.02,2.92 -6.5,4.52 -9.85,6.36 -5.15,8.31 -10.06,12.67 -2.19,-2.09 -2.03,-5.36 -4.14,-7.85 -12.17,7.32 -0.3,14.18 -15.12,21.39l1.58 -8.3c-6.64,0.77 -12.56,8.49 -15.35,14.13 3.01,2.25 7.46,-0.37 13.8,3.01 1.5,10.18 -2.96,5.38 -5.14,12.02 12.3,-0.79 19.68,-5.55 31.21,-9.83 10.66,-3.95 25.45,2.32 35.64,4.92z"/>
   <path class="fil5" d="M273.78 244.55c-0.97,1.72 -0.35,3.63 -2.71,6.31 -4.45,1.74 -14.11,0.99 -19.11,-0.71 -5.63,-1.91 -10.92,-8.14 -16.57,-3.01 1.99,1.28 7.64,2.93 10.08,4.42l2.71 2.38c2.81,2.26 3.81,1.37 5.64,3.25 -2.43,1.33 -4.88,0.35 -9.03,1.84 -4.2,1.5 -3.24,1.64 -8.97,0.47 -5.03,-1.02 -4.02,-1.58 -7.27,-3.07l-7.39 -2.85c2.56,7.72 0.47,-0.23 -1.06,7.73 -1.11,5.78 0.02,5.96 -4.55,9.74 -1.57,5.66 -2.83,5.64 -4.68,9.28 -2.2,4.33 0.2,9.14 0.2,14.11 -5.03,-0.66 -3.72,-1.45 -7.04,-3.92 -1.86,3.22 -2,1.6 -3.61,4.25 -1.33,2.2 0.14,1.89 -0.47,7.07 -3.24,-0.54 -3.65,-0.08 -4.69,-2.94 -1.28,1.44 -2.64,2.68 -4.12,3.92 1.45,3.75 2.44,1.19 1.07,5.98 -9.1,1.97 -0.42,-8.54 -16.32,13.71 -1.21,1.7 0.32,0.29 -1.49,1.8 -0.98,-14.36 3.38,-16.96 11.87,-23.34 3.44,-2.58 14.32,-16.05 15.16,-20.76 0.47,-0.85 1.83,-2.98 2.13,-3.56l4.84 -10.32c2.48,-9.01 1.31,-13.49 -7.38,-10.99 -11.43,3.14 -18.48,8.35 -23.47,8.7 -14.87,1.02 -9.56,-7.96 -23.07,-10.01 -4.74,-0.73 -13.76,1.74 -19.85,2.36 -7.46,13.99 -3.14,18.84 3.05,29.71 3.25,5.7 12.37,21.26 11.79,27.41 -3.88,-2.36 -13.32,-20.2 -16.9,-25.01 -0.38,17.6 3.59,39.8 13.2,54.86 4.05,6.34 3.99,9.59 6.12,17.1 5.99,-1.59 5.3,-7.47 15.3,-14.27 5.66,-3.85 1.34,-2.43 8.96,-6.29l8.9 -6.02c7.66,-4.91 12.45,-6.04 20.12,-9.9 5.32,-2.68 17.58,-7.36 20.5,-10.66 0.06,-4.62 -3.12,-4.11 1.27,-8.82 3.68,-3.94 19.09,-19.3 22.83,-21.36 10.69,-5.9 26.23,-16.86 35.79,-23.51 18.32,-12.75 13.41,-3.31 39.11,-19.07 3.23,-1.98 6.51,-2.93 9.48,-4.68l5.35 -2.62c12.66,-4.44 14.54,-5.09 31.13,-5.9 -6.77,-8.02 -19.02,3.25 -21.33,-7.54 3.99,-3.2 5.91,-2.92 12.53,-3.44l-30.48 0.17c-3.18,0.22 -3.94,1.07 -7.9,0.74 -1.9,-0.16 -10.39,-2.91 -11.92,-3.67 -8.76,-1.12 -9.21,1.99 -15.34,4.6 0.7,2.46 1.57,3.34 1.31,6.96 -7.41,1.86 -22.25,0.65 -29.17,-1.32 -2.97,-0.85 -2.04,-1.28 -4.91,-2.14 -1.28,-0.38 -9.36,-0.8 -9.81,-0.7 4.83,2.84 17.92,4.62 23.88,4.76 3.96,5.46 1.09,5.11 11.63,3.86 12.53,-1.5 35.34,-10.15 37.86,-8.62 -5.13,8.05 -35.41,14.16 -48.23,14.6 -0.64,4.06 1.39,1.53 -2.47,3.62 12.42,11.98 54.17,-16.2 58.12,-15.21 -1.41,3.12 -21.44,13.5 -25.58,15.66 -15.2,7.93 -25.44,3.73 -35.04,4.86z"/>
   <path class="fil2" d="M285.54 103.55l3.85 2.56c-17.81,3.95 -18.75,-6.57 -56.93,5.76 -17.57,5.68 -18.68,-6.16 -30.77,8.68l-7.79 8.22c-3.52,3.31 -1.81,1.15 -6.33,2.84 -0.33,7.12 2.25,4.85 -0.11,11.7l-6.67 -1.71 5.87 21.25c-0.01,0.47 2.45,-1.83 -0.98,3.37 -7.05,-0.67 -3.32,-2.02 -5.15,-8.24 -1.19,-4.02 -2.73,-2.72 -5.44,-7.69 -0.75,-1.38 -1.15,-2.14 -2.18,-3.83 -3.57,-5.83 -4.61,-6.83 -5.05,-14.68 17.14,-2.09 7.54,4.25 17.86,5.17 -0.29,-10.28 -4.82,-6.51 6.34,-18.05l2.07 -1.97c1.67,-1.25 1.29,-0.95 3.2,-1.61 -1.33,-1.53 1.08,-2.15 -4.16,-2.31 -6.34,-0.2 -0.44,1.77 -15.64,-1.4 -31,-6.46 -15.81,11.36 -37.49,2.39 -2.35,-0.97 -19.45,-2.06 -21.42,-1.4 -1.19,5.42 1.2,9 6.97,15.78l19.42 20.78c3.37,3.65 5.73,7.3 11.37,9.27 -1.71,-2.42 -3.87,-5.41 -5.66,-7.99 -2.53,-3.62 -4.39,-5.22 -4.77,-10.27 5.01,0.81 3.11,1.13 10.65,8.43 3.95,3.82 6.18,5.88 9.1,9 3.59,3.84 4.87,4.92 9.56,8.5 8.12,6.19 1.44,3.54 11.86,5.04 11.81,1.69 16.34,-5.17 23.96,-9.24 6.41,-3.42 7.92,-10.3 20.87,-16.21l-3.94 10.16c4.37,-2.96 4.45,-2.38 8.1,-5.95l22.35 -21.54c-0.69,5.01 -9.11,18.96 -11.9,22.8 5.67,-5.75 -1.06,5.54 17.73,-18.24 4.16,-5.27 12.65,-16.9 18.42,-19.91 -1.83,9.41 -6.94,15.93 -9.66,24.64 3.89,-3.08 12.57,-10.91 16.15,-15.01 4.78,-5.48 9.44,-12.17 12.93,-18.49 -5.34,-1.1 -12.32,-2.99 -16.59,-0.6z"/>
   <path class="fil6" d="M328.16 375.66l0.64 -3.78c-0.12,-2.19 0.13,-1.06 -0.48,-3.07 -11.31,-5.22 -17.87,5.86 -24.77,12.3 -3.6,3.36 -9.9,4.36 -12.33,-3.28 -1.3,-4.05 -2.36,-13.28 -0.77,-17.41l-0.96 -5.28c-1.38,1.89 -2.1,4.08 -2.85,5.92 -1.84,4.49 -0.77,4.9 -5.52,4.84 -1.74,-3.05 -0.23,-4.5 -0.02,-9.39 -6.9,10.6 -6.43,19.91 -10.78,18.96 -4,-0.88 -1.12,-2.6 -3.14,-6.45 -2.71,3.76 -2.7,2.11 -5.05,7.63 -3.79,8.9 -4.68,1.28 -8.51,5.65 -2.45,2.79 0.26,6.5 -3.78,9.46 -9.08,6.66 -16.8,-8.59 -0.76,23.16 3.64,7.19 7.09,12.59 11.34,18.7 2.56,3.67 3.06,5.78 6.04,8.97 3.64,3.91 3.54,4.05 6.75,8.29 3.32,4.41 12.53,13.18 17.75,12.97 -0.1,-6.05 -5.05,-12.88 -7.83,-16.83 -3.41,-4.83 -6.66,-10.43 -9.69,-15.47 -3.12,-5.17 -5.13,-11.17 -8.33,-16.8 -3.21,-5.64 -8.54,-11.36 -9.55,-17.5 4.7,0.4 7.62,3.17 10.62,6.54 1.85,2.08 2.13,2.45 3.8,4.1 2.58,2.53 2.43,1.59 3.1,5.01 2.61,-2.1 3.72,3.27 3.74,-13.06 0.01,-6.24 -1.68,-7.42 3.31,-9.99 1.76,4.87 0.65,12.95 0.95,19.08 0.42,8.37 3.56,12.63 -6.82,10.39 2.59,6.62 18.75,32.33 22.81,36.91 2.08,2.34 3.02,2.24 5.02,5.05 2.54,3.56 0.36,3.8 5.77,3.41 3.64,-10.22 -17.75,-46.31 -19,-63.94 -0.14,-1.93 -0.36,-4.16 -0.48,-6 -0.09,-1.49 -0.41,-4.12 0.77,-5.74 1.77,4.49 3.3,14.14 5.16,19.73 5.4,16.25 8.98,23.23 13.97,37.25 1.29,3.63 4.35,17.76 5.99,19.51 6.07,-1.32 5.2,-10.46 5.95,-17.41 0.75,-7.04 -4.44,-9.03 -7.8,-15.27 -3.58,-6.66 -16.44,-27.03 -11.21,-36.57 4.68,6.63 3.64,23.03 12.94,25.95 0.33,-9.34 1.72,-18.53 3.39,-27.48 1.85,-9.89 6.14,-14.36 10.02,-20.75l0.6 1.69z"/>
   <path class="fil7" d="M489.41 288.53c-4.09,-1.55 -4.07,-2.64 -5.64,-6.93 -1.87,-5.11 -12.39,-22.2 -14.68,-24.17 3.98,8.04 9.29,30.82 9.51,40.93 0.17,7.73 0.85,10.16 -3.59,13.95 -4.76,-1.75 -5.11,-4.58 -9.13,-7.18l6.37 39.46c-2.93,5.09 -0.65,-0.79 -3.88,3.35 -3.93,5.04 1.54,9.87 -8.43,16.07 -2.29,-1.02 -4.7,-2.3 -6.37,-2.82 3.09,6.55 -8.11,9.2 -8.13,9.21 -0.84,0.38 -4.37,3.63 -5.48,4.7 -7.15,6.91 6.8,0.64 -5.81,8.98l-15.24 14.76c3.87,4.33 6.94,8.84 11.53,10.73 0.6,-3.86 -0.45,-3.64 2.38,-6.44 6.1,0.95 -0.2,1.57 4.35,3.22 4.13,-14.08 -1.49,-22.88 5.45,-21.18 4.61,1.13 4.07,17.8 10.29,24.5 6.67,-4.54 3.75,-12.46 7.74,-17.83 6.18,3.14 1.1,7.14 4.98,13.1 3.57,-1.35 4.6,-4.26 4.85,-11.1 0.23,-6.23 -2.37,-9.84 3.59,-11.11 2.48,5.52 -0.22,13.68 5.43,9.79 4.72,-3.26 6.39,-19.57 6.85,-25.48 0.66,-8.47 0.79,-4.74 5.39,-7.38l-0.64 -32.35c5.09,-2.22 5.51,2.37 5.05,-7.76 -0.77,-17.09 -7.13,-28.58 -5.21,-32.36 4.83,-0.21 3.28,-0.53 4.99,3.24 0.99,2.19 1.89,3.73 2.73,5.38l-10.75 -49.64c-0.77,-3.96 -0.96,-2.85 -4.1,-5.03 0.71,6.74 2.6,15.88 3.75,22.67 1.29,7.6 1.42,16.5 1.85,24.72z"/>
   <path class="fil6" d="M326.53 380.8c-9.04,12.89 1.08,22.43 5.07,28.76 1.97,3.12 2.63,7.04 3.77,10.18l1.47 -1.74c0.17,-0.25 0.43,-0.54 0.62,-0.85 0.89,-1.45 0.93,-1.79 1.47,-3.22l4.21 -11.33c1.75,-2.93 1.7,-2.3 4.85,-4.24 -1.04,8.84 -10.65,28.85 -6.44,47.67 10.23,0.03 8.21,-17.47 8.81,-25.13 0.34,-4.41 -0.65,2.31 0.2,-1.77 0.5,-2.37 -0.13,-0.86 0.88,-2.18 4.92,6.71 4.03,21.41 3.48,30.73 6.44,-7.91 8.1,-17 7.49,-28.76 -0.57,-11.19 -0.89,-21 -4.47,-31.47 9.47,5.5 11.09,20 12.26,31.87 7.86,1.42 6.25,-5.1 14.68,-20.26 3.71,-6.68 3.9,-7.81 7.03,-10.98 4.52,-4.58 2.73,-8.22 9.13,-9.53l-7.78 20.61 8.82 -9.94c2.49,-3.05 6.5,-8.77 11.29,-9.21 -1.1,3.88 -1.16,0.8 -2.38,5.9 -2.21,9.2 -4.62,6.37 -5.9,11.57 2.3,-3.56 0.85,-2.38 5.56,-3.4 -1.4,8.74 -3.51,6.07 -5.61,11.4 4.21,-3.64 12.13,-13.51 20.7,-20.7 -0.69,-4.08 -0.24,-8.08 -1.06,-10.05 -1.46,-1.87 -0.59,-0.09 -3.92,-0.71 -2.96,-0.54 -0.8,-0.88 -4.4,-1.47 -7.4,-1.23 -1.44,2.14 -9.18,-2.59 -6.16,7.31 -12.42,-2.96 -16.56,-1.98 -6.98,4.43 -4.07,16.2 -12.96,19.47 -1.22,-2.36 -1.98,-5.74 -2.97,-8.79 -4.93,-15.29 -10.99,2.47 -14.83,7.75 -1.1,-0.9 -0.55,-0.36 -1.64,-1.41l-3.44 -4.56c-2.95,-4.62 -11.47,-16.95 -17.75,-13.24 -4.99,2.96 -0.95,12.18 -7.45,22.57 -2.3,-2.93 -3.16,-5.48 -3.05,-8.97z"/>
   <path class="fil6" d="M390.25 70.32l0.93 4.61c10.46,-5.38 12.84,-3.4 16.52,-3.26 7.03,0.27 12.14,-3.82 18.63,-1.96 1.58,6.1 -0.69,11.65 -4.31,17.9 -1.79,3.08 -2.18,5.33 -4.03,8.03 -1.24,1.81 -3.66,4.1 -4.95,6.42 8.33,1.01 3.69,-6.94 12.58,-5.62 2.54,0.38 3.64,1.95 5.97,3.22 2.81,1.53 4.92,1.55 7.14,2.7 1.64,18.69 3.76,25.95 -3.95,43.17 -6.43,14.38 -4.76,8.6 -12.36,14.9 -7.17,5.96 -11.94,4.55 -19.3,7.83 1.42,1.87 9.05,6.25 11.94,7.06 6.9,1.95 9.69,0.38 13.4,-3.78 1.37,-1.54 3.29,-4.37 4.9,-5.39 4.65,-2.96 3.6,0.71 5.58,-4.08 0.8,-1.94 1.42,-6.63 2.25,-8.12 4.75,-8.58 7.54,7.71 8.48,-22.74l1.14 1.24c3.36,2.85 3.22,2.08 5.67,1.76 1.38,-5.21 0.09,-15.26 -1.83,-19.85 2.31,0.81 3.77,1.17 6.94,0.77 0.1,-7.88 -8.54,-19.13 -8.91,-20.02l9.11 0.48c3.41,-11.12 -11.32,-22.57 -14.67,-27.43 -2.51,-3.65 -6.22,-7.26 -11.57,-8.83 -13.23,-3.9 -24.72,-1.42 -36.4,4.57 -3.51,1.79 -5.66,4.12 -8.9,6.42z"/>
   <path class="fil5" d="M194.72 251.9c0.29,-0.23 0.82,-0.77 1.01,-0.49 0.17,0.27 0.72,-0.34 0.94,-0.45 0.22,-0.1 1.85,-0.84 2.03,-0.98l3.63 -9.9c1.17,-8.66 3.41,-11.25 3.28,-16.02 -2.27,-1.93 -11.47,-7.2 -7.83,-13.09 6.78,1.09 8.83,5.29 11.82,1.81 -2.59,-4.32 -10.56,-7.48 -17.37,-9.48 -5.46,-1.6 -19.07,-2.75 -22.24,-0.03 -1.91,2.12 2.61,1.47 -2.9,5.19 -5.67,3.82 -13.18,8.47 -16.98,15.1 -2.88,5.03 -5.73,7.04 -8.55,12.56 -11.21,21.95 -1.42,12.73 2.33,12.19 4.68,-0.68 6.99,1.82 10.79,1.38 4.75,-0.55 6.89,-12.26 8.01,-17.63 2.57,-12.29 -3.98,-11.53 4.65,-21.3 3.54,-4 11.67,-9.45 17.64,-7.32 -2.51,6.03 -5,2.51 -10.59,7.33 -2.95,2.54 -5.15,7.22 -7.6,10.25 0.18,0.1 0.51,-0.02 0.59,0.23 0.47,1.46 0.54,-0.53 3.27,1.92 -5.92,3.5 -11.31,25.84 -5.67,31.62 9.12,9.36 20.81,0.81 22.45,0.18 3.07,-1.17 4.77,-0.72 7.29,-3.07z"/>
   <path class="fil1" d="M209.6 212.78c-2.99,3.48 -5.04,-0.72 -11.82,-1.81 -3.64,5.89 5.56,11.16 7.83,13.09 0.13,4.77 -2.11,7.36 -3.28,16.02l-3.63 9.9c-0.18,0.14 -1.81,0.88 -2.03,0.98 -0.22,0.11 -0.77,0.72 -0.94,0.45 -0.19,-0.28 -0.72,0.26 -1.01,0.49l5.03 0.17 1.27 3.27c8.69,-2.5 9.86,1.98 7.38,10.99l-4.84 10.32c-0.3,0.58 -1.66,2.71 -2.13,3.56 5.28,-3.98 7.16,-11.14 8.29,-18.88 3.9,1.97 5.86,3.61 5.83,9.72 4.57,-3.78 3.44,-3.96 4.55,-9.74 1.53,-7.96 3.62,-0.01 1.06,-7.73l7.39 2.85c3.25,1.49 2.24,2.05 7.27,3.07 5.73,1.17 4.77,1.03 8.97,-0.47 4.15,-1.49 6.6,-0.51 9.03,-1.84 -1.83,-1.88 -2.83,-0.99 -5.64,-3.25l-2.71 -2.38c-2.44,-1.49 -8.09,-3.14 -10.08,-4.42 5.65,-5.13 10.94,1.1 16.57,3.01 5,1.7 14.66,2.45 19.11,0.71 2.36,-2.68 1.74,-4.59 2.71,-6.31 -2.26,-2.03 -4.03,-1.82 -6.92,-3.38 -3.57,-1.92 -2.45,-2.57 -5.46,-4.51 -1.7,-1.1 -5.08,-2.28 -6.68,-3.28l-17.52 -13.61c-8.41,-8.54 -2.69,-1.15 -12.63,-5.2 2.5,6.1 12.49,15.78 17.31,21.55 1.45,1.73 1.41,1.78 2.79,3.21 2.68,2.75 1.63,0.68 3.46,4.04 -7.03,-2.63 -14.66,-11.53 -18.92,-16.66 -4.32,-5.21 -9.65,-14.8 -17.73,-17.58 1.57,5.6 1.99,0.92 2.94,5.52 -2.54,-0.37 -2.03,-0.79 -4.82,-1.87z"/>
   <path class="fil2" d="M17.75 281.62c7.22,-5.55 7.73,-12.28 15.4,-9.66 -0.72,5.26 -13.18,10.32 -8.22,20.75 5.81,0.6 6.71,-4.79 9.78,-8.66 1.28,-1.62 3.3,-3.25 4.88,-4.19 2.5,-1.49 2.71,-1.55 5.19,0.36 -3.46,5.12 -6.1,8.1 -6.37,15.15 -0.18,4.74 -0.51,4.52 2.6,7.02 8.68,-0.45 5.46,-3.59 9.04,-8.45l2.41 1.98c6.34,6.12 15.01,11.64 12.89,-3.39 6.06,5.23 6.71,13.78 13.83,14.27l0.49 -1.55c0.31,-2.42 0.43,-3.31 -1.2,-5.71 -1.81,-0.68 -2.86,-0.74 -4.59,-6 -1.46,-4.39 -2.04,-15.81 -9.77,-18.89l-1.64 -1.39 -1.28 -1 -2.1 -1.28 -8.16 -4.62c-1.64,-0.84 -0.69,-0.9 -3.65,-1.64 -1.65,2.81 -0.4,2.51 -3.73,4.2 -11.5,5.81 -2.88,-16.17 -1.3,-20.37 2.47,-6.55 0.65,-8.15 6.15,-13.86 2.11,-2.19 1.29,-0.82 3.5,-4.33 -15.36,1.3 -21.15,6.09 -27.1,16.82 -4.15,7.48 -7.83,23.98 -7.05,34.44z"/>
   <path class="fil0" d="M158.55 334.81l0.96 -19.3c12.05,-2.5 5.74,-1.45 11.05,-8.14 0.82,-1.02 3.85,-3.75 4.98,-5.07l7.96 -11.14c4.79,-7.48 7.04,-12.12 7.83,-21.57 -8.01,-5.8 -10.6,-2.19 -26.89,-2.2 -0.19,0.57 -0.42,1.67 -0.6,2.18 -1.57,4.48 1.64,-4.07 -0.57,1.52l-0.7 1.56c-4.16,-2.07 -1.01,-0.9 -4.09,-3.42 -0.16,-0.13 -0.4,-0.31 -0.56,-0.44l-8.41 -6.69c-6.18,2.52 -9.09,4.95 -6.64,16.72 3.14,15.02 4.6,12.53 5.71,18.27 2.82,14.64 5.77,1.81 5.55,16.3 -0.07,4.67 -0.42,7.12 0.76,11.73l2.06 6.95c0.63,1.46 -0.67,-1.15 0.72,1.41l0.88 1.33z"/>
   <path class="fil6" d="M118.37 53.25c0.14,0.28 0.46,0.3 0.57,0.75l1.16 1.41c0.18,0.21 0.4,0.43 0.59,0.65 1.7,1.93 0.93,-0.2 2.24,2.59 -3.09,1.23 -5.27,2.35 -7.77,5.29 6.19,8.31 9.33,-7.38 13.89,29l4.57 -2.36c0.19,-0.12 0.44,-0.29 0.62,-0.41l1.24 -0.82c9.5,-6.99 0.6,-21.25 2.98,-24.83 2.76,1.29 1.64,-1.24 4.37,8.43 1.31,4.65 2.48,6.58 2.77,11.16 29.49,-20.13 8.71,-48.19 5.92,-49.41l-1.58 6.9c-1.38,-1.47 -0.28,0.67 -1.95,-2.82 -0.38,-0.81 -0.74,-2.23 -0.97,-3.1 -1.06,-4.05 -0.14,-3.65 -2.53,-6.49 -4.63,3.91 -1.14,4.44 -6.03,14.01 -0.53,-1.97 -0.73,-3.46 -1.01,-5.28 -0.22,-1.38 -0.26,-2.25 -0.57,-3.75l-1.44 -4.86c-3.64,1.51 -8.17,12.05 -11.1,15.93 -3.69,4.91 -4.35,4.03 -5.97,8.01z"/>
   <path class="fil8" d="M431.46 183.97c7.65,1.36 5.21,-0.47 8.39,5.42 11.73,0.7 18.27,2.66 25.06,9.57 6.02,6.13 12.36,12.79 15.06,21.06 2.47,7.54 2.47,3.64 6.81,7.32 2.21,1.87 8.64,13.52 11.31,16.73 -0.03,-9.47 -4.78,-16.72 -9.21,-23.91 -1.3,-2.1 -1.77,-3.21 -2.96,-5.01 -1.37,-2.09 -2.93,-3.82 -3.65,-5.49 -5.14,-11.85 10,2.68 -15.04,-17.04 -7.29,-5.73 -2.81,-2.44 -4.55,-10.32 -1.04,-4.74 -2.91,-8.68 -3.95,-13.44 -1.15,-5.29 -1.45,-9.35 -2.98,-14.51 6.02,0.1 14.67,5.98 12.5,12.72 -2.68,-0.57 0,-1.67 -5.59,-3.74l2.95 21.13c-0.07,2.52 14.03,10.25 17.83,14.08 8.11,8.19 5.02,10.75 20.35,9.86l-14.63 -13.6c-4.56,-3.99 -12.24,-10.3 -13.59,-15.97 3.25,-2.19 3.47,-1.11 4.49,-0.71l2.49 1.34c-3.39,-13.11 -6.8,-11.33 -17.7,-23.63 -2.56,-2.88 -4.34,-4.04 -6.92,-6.74 -1.06,1.49 -3.55,7.31 -4.96,9.7 -2.77,4.71 -2.92,4.95 -6.42,8.63l-7.48 7.57c-1.78,2.19 -1.52,2.61 -3.44,4.64l-3.13 3.12c-0.14,0.16 -0.4,0.47 -0.52,0.61 -0.12,0.13 -0.35,0.41 -0.52,0.61z"/>
   <path class="fil6" d="M76.25 377.73c1.44,-2.94 -1.72,-17 -1.92,-23.09 -0.19,-5.81 -4,-20.78 4.11,-20.32 0.96,4.46 -0.54,8.82 -0.34,13.45 0.25,5.84 -0.45,10.23 2.09,15.36 3.94,-3.92 -1.22,-6.23 3.01,-10.03 2.95,0.86 1.64,-0.42 2.72,3.63l3.32 20c0.39,-0.12 0.89,-0.8 1.13,-0.49 1.37,1.8 3.86,-8.06 7.73,5.63 2.85,10.06 2.01,10.41 8.03,14.13 0.19,0.12 0.47,0.24 0.66,0.37l2.11 1.92c4.45,5.62 4.82,12.15 11.91,14.22l-10.72 -30.55c-2.54,-7.12 -6.22,-2.51 -11.38,-30.66 -2.08,-11.34 -3.32,-13.38 -0.26,-24.01 -3.58,-0.68 -3.45,-1.33 -6.36,-2.56 -2.11,-0.9 -4.84,-1.72 -6.76,-2.47 -6.54,-2.56 -2.59,-7.36 -10.59,-7.81 1.06,5.59 -0.59,10.06 -1.03,15.41 -0.78,9.61 -1.21,40.34 2.54,47.87z"/>
   <path class="fil9" d="M305.23 275.4c1.87,-1.8 -2.01,-0.18 2.47,-1.67 2.04,-0.67 1.31,-0.41 3.56,-0.43 2.12,-1.3 3.57,-3.08 5.11,-5.96 2.08,-3.86 0.73,-5.35 4.12,-7.18 1.69,4.84 -0.96,8.27 -0.19,9.62l6.02 0.63 0.9 -1.26c2.18,-3.01 0.9,-2.21 3.12,-3.46 1.4,1.5 2.29,8.65 6.15,2.92 0.57,-0.85 3,-8.92 3.2,-10.16 0.76,-4.84 -3.89,-2.59 -6.78,-2.12 -11.4,1.87 -21.43,2.6 -33.21,6.42 -5.89,1.91 -4.94,-0.1 -8.75,4.27 -3.6,4.15 -12.88,8.56 -16.4,10.72 -7.61,4.66 -4.45,1.37 -9.12,3.97 -5.06,2.8 -24.99,22.08 -26.64,25.68 -1.1,2.38 -1.25,16.7 8.17,16.62l7.72 -24.98c1.57,-4.99 0.12,-4.86 4.33,-6.77 1.87,3.41 -0.3,6.53 0.7,9.55 1.49,4.49 0.58,1.7 2.32,3.04 6.12,-1.69 6.74,-13.97 12.05,-22.78 4.45,0.97 0.8,-1.35 3.81,2.43 0.99,1.24 1.35,2.42 2.34,3.74 2.17,2.9 3.98,4.03 7.92,4.18 2.76,-3.72 4.93,-16.61 5.47,-21.68l8.23 0.35c2.72,-4.42 2,-5.58 5.7,-7.8 1.12,4.21 -1.77,6.39 -2.49,8.87 -0.84,2.88 -0.01,-3.71 -0.25,1.33 -0.11,2.38 -0.46,0.35 0.42,1.91z"/>
   <path class="fil10" d="M399.58 125.58c-6.18,3.12 -12.3,18.16 -9.61,25.68 3.64,10.15 6.89,18.17 20.48,11.27 14,-7.11 13.27,-7.99 18.57,-16.64 3.13,-5.11 9.65,-21.81 5.77,-28.36 2.17,6.69 -3.89,10.64 -6.65,14.43 -2.48,3.4 -6.24,8.27 -9.65,10.43 -9.76,6.18 -23.46,-4.02 -18.91,-16.81z"/>
   <path class="fil11" d="M399.58 125.58c-4.55,12.79 9.15,22.99 18.91,16.81 3.41,-2.16 7.17,-7.03 9.65,-10.43 2.76,-3.79 8.82,-7.74 6.65,-14.43 -2.46,-5.15 -0.08,-5.87 -4.33,-10.77 -14,-0.91 -16.04,7.16 -24.32,13.2 -2.12,1.55 -5.71,3.72 -6.56,5.62z"/>
   <path class="fil12" d="M57.68 180.83c5.84,4.16 15.04,3.57 20.95,8.6 7.25,6.17 14.05,3.93 14.06,16.16 -3.58,1.77 -13.02,5.24 -13.95,9.88 8.99,-2.42 19.87,-5.85 27.2,-10.52 0.51,-8.72 0.22,-5.53 -0.94,-7.84 -6.61,-13.15 -8.9,-4.65 -12.97,-15.27l4.8 -4.16c-23.3,-5.48 -5.4,-3.75 -30.36,-0.67l-6.91 2.07c-2.05,1.4 -0.76,0.34 -1.88,1.75z"/>
   <path class="fil6" d="M170.42 304.99c1.89,-3.21 0.46,-4.09 7.38,-15.38 2.17,-3.55 8.39,-11.89 8.57,-15.07 -9.04,0.17 -9.88,-2.74 -14.92,-0.46 -6.43,2.91 -1.37,5.09 -11.89,5.68 -1.01,-2.46 -1.62,-5.82 -4.92,-7.75 -3.08,-1.8 0.66,-0.77 -5.13,-1.76 -0.38,12.25 2.16,11.55 5.2,22.69 2.53,9.29 4.41,14.36 15.71,12.05z"/>
   <path class="fil11" d="M116.05 73.86c-2.95,1.08 -1.39,0.3 -3.62,1.51 -3.63,1.97 -3.54,3.88 -4.99,8.15 -6.13,18.15 -2.26,13.26 -7.54,26.82 -1.58,4.06 1.19,10.1 5.57,8.44 2.27,-0.87 14.12,-11.24 15.89,-18.1 4.4,-17.06 -2.51,-19.41 -5.31,-26.82z"/>
   <path class="fil13" d="M263.03 186.55l-1 -0.27c-12.16,-2.11 -17.97,6.56 -17.56,18.28 14.49,11.37 31.21,6.76 27.05,-9.23 -1.24,-4.75 -3.66,-7.17 -8.49,-8.78z"/>
   <path class="fil0" d="M201.43 280.21c-0.84,4.71 -11.72,18.18 -15.16,20.76 -8.49,6.38 -12.85,8.98 -11.87,23.34 1.81,-1.51 0.28,-0.1 1.49,-1.8 15.9,-22.25 7.22,-11.74 16.32,-13.71 1.37,-4.79 0.38,-2.23 -1.07,-5.98 1.48,-1.24 2.84,-2.48 4.12,-3.92 1.04,2.86 1.45,2.4 4.69,2.94 0.61,-5.18 -0.86,-4.87 0.47,-7.07 1.61,-2.65 1.75,-1.03 3.61,-4.25 3.32,2.47 2.01,3.26 7.04,3.92 0,-4.97 -2.4,-9.78 -0.2,-14.11 1.85,-3.64 3.11,-3.62 4.68,-9.28 0.03,-6.11 -1.93,-7.75 -5.83,-9.72 -1.13,7.74 -3.01,14.9 -8.29,18.88z"/>
   <path class="fil9" d="M154.15 400.98c5.95,-0.25 5.65,-0.92 7.67,-5.9 1.49,-3.65 2.96,-6.41 4.01,-10.08 2.69,-9.37 2.41,-13.06 1.64,-22.88 -2.2,1.67 -4.96,2.07 -8.01,4.54 -7.95,6.43 -5.77,18.43 -5.31,34.32z"/>
   <path class="fil9" d="M125.4 356.31c4.73,-1.76 4.33,-5.77 6.69,-18.18 1.11,-5.81 -2.44,-16.11 -8.64,-15.71 -13.45,0.89 -1.78,31.27 1.95,33.89z"/>
   <path class="fil14" d="M128.09 194.07c2.61,5.71 5.28,8.99 12.63,9.56 14.87,1.14 13.68,-21.21 -2.04,-19.51 -7.34,0.8 -7.23,5.8 -10.59,9.95z"/>
   <path class="fil9" d="M171.38 418.5c-6.56,-3.94 -0.93,-12.1 -5.8,-17.85l-3.02 0.27 -1.58 30.54c10.84,0.33 6.43,-1.57 10.72,-7.43 1.14,-1.56 2.15,-2.18 3.21,-3.78 2.1,-3.17 1.8,-6.86 1.47,-10.95l-1.76 -11.85c-9.36,0.96 0.08,13.05 -3.24,21.05z"/>
   <path class="fil15" d="M189.62 363.86c7.05,2.7 8.74,-5.53 10.99,-11.37 2.04,-5.28 4.16,-13.19 5.04,-18.94 -3.63,1.58 -4.87,3.12 -7.79,5.09l-8 5.13c-4.47,2.84 -3.04,6.67 -1.8,14.55 0.48,3.08 0.23,3.23 1.56,5.54z"/>
   <path class="fil9" d="M102.98 286.92c1.24,-5.48 -0.98,-6.92 -1.56,-11.76 -0.72,-6.06 1.52,-8.11 1.17,-12.25 -7.23,-2.05 -7.55,5.76 -12.5,8.42 -5.05,-8.53 -2.79,-13.72 -5.72,-21.4 -3.53,1.8 -5.42,7.12 -4.24,10.36 0.69,1.88 5.52,7.34 7.39,9.65 7.63,9.41 9.09,17.05 15.46,16.98z"/>
   <path class="fil9" d="M125.96 369.71c4.56,4.87 3.58,12.05 11.41,13.05 0.4,-9.75 5.02,-24.34 4.62,-29.65 -9.83,-1.15 -12.23,7.81 -16.03,16.6z"/>
   <path class="fil9" d="M118.87 261.21c-0.16,-0.22 -0.46,-0.77 -0.54,-0.6 -0.1,0.21 -0.66,-0.71 -1.03,-1.21 -1.37,-1.84 -0.61,-0.64 -1.6,-2.55 -2.05,-4 -4.35,-8.77 -10.71,-10.84 -1.68,19.4 -1.04,7.06 1.18,13.54 1.9,5.52 -2.23,21.96 4.93,19.86 2.48,-0.72 1.08,-0.06 2.06,-2.13 0.02,-0.04 0.71,-2.96 0.79,-3.34 1.36,-5.96 3.13,-7.42 4.92,-12.73z"/>
   <path class="fil9" d="M199.06 380.68c3.61,-1.39 7.91,-12.38 14.26,-18.49 2.76,-2.65 3.75,-3.43 4.78,-6.55 -1.04,-1.82 -10.11,-12.78 -14.96,2.43 -0.61,1.93 -0.9,3.71 -1.6,5.4 -1.55,3.73 -1.61,2.18 -2.72,4.28 -1.59,2.98 -0.09,8.73 0.24,12.93z"/>
   <path class="fil9" d="M143.48 414.83c8.28,-8.74 7.36,-23.42 4.87,-34.86 -6.73,0.41 -12.44,16.94 -8.13,25.11 2.15,4.07 1.77,6.53 3.26,9.75z"/>
   <path class="fil9" d="M264.67 320.62c4.69,-1.06 0.1,-1.1 12.3,-6.39 5.59,-2.43 7.29,-2.61 8.71,-8.82 -1.96,-3.11 -2.75,-2.69 -4.7,-4.95 -1.81,-2.08 -2.04,-4.33 -3.88,-6.74 -5.56,4.22 -2.69,9.58 -6.82,12.94 -0.6,0.49 -8.34,1.73 -5.61,13.96z"/>
   <path class="fil9" d="M108.5 292.35c0.19,4.3 1.6,7.51 2.5,11.3 0.32,1.36 1.06,4.99 1.38,5.78 1.47,3.61 0.15,2.53 3.98,3.32 3.37,-2.32 5.23,-19.39 5.57,-23.87 0.91,-11.63 -6.95,-1.07 -8.78,0.3 -2.05,1.53 -2.87,1.51 -4.65,3.17z"/>
   <path class="fil15" d="M179.74 378.52c2.92,-4.52 3.26,-20.04 2.43,-26.44 -7.72,-0.99 -10.22,4.13 -9.45,11.47 0.67,6.36 4,10.52 7.02,14.97z"/>
   <path class="fil9" d="M292.17 309.05c3.43,-2.03 0.11,-0.24 2.4,-2.23 2.25,-1.96 -1.07,-0.32 2.36,-1.67 3.74,-1.47 3.39,0.81 7.04,-1.75 2.9,-3.41 -2.94,-15.36 -3.77,-16.55 -4.57,2.1 -7.04,10.03 -8.4,15.3 -1.68,6.48 0.1,6.49 0.37,6.9z"/>
   <path class="fil9" d="M324.77 288.79c-1.05,-3.33 -1.49,-3.73 -3.47,-6.6 -2.87,-0.08 -3.37,-0.34 -6.24,0.88 -1.96,0.84 -1.14,0.68 -1.89,1.13 -0.91,0.56 -1.29,0.81 -2.5,1.55 -3.85,2.36 -1.9,-0.44 -3.59,3.53 -1.03,2.39 -2.19,11.34 3.62,8.93 1.38,-0.57 2.32,-2.49 4.31,-4.14 2.96,-2.46 6.68,-3.61 9.76,-5.28z"/>
   <path class="fil9" d="M221.23 350.32c7.93,-3.93 10.96,-8.29 10.48,-20.09 -2.75,-1.42 -2.67,-2.22 -5.85,-2.77 -4.33,3.98 -5.46,15.73 -4.63,22.86z"/>
   <path class="fil9" d="M95.91 257.81c3.42,-15.55 6.1,-20.39 -7.34,-18.37 -0.54,4.06 -0.23,8.06 0.48,11.85 0.95,5.05 0.75,6.83 6.86,6.52z"/>
   <path class="fil9" d="M210.01 331.53c-0.69,4.51 -0.63,9.58 0.84,13.01l3.96 0.23 5.72 -16.73c-4.86,1.03 -6,1.22 -10.52,3.49z"/>
   <path class="fil9" d="M328.51 286.08c3.9,-2.09 0.25,-0.91 4.88,-1.4 3.62,-0.38 2.54,0.61 6.03,-1.37 1.06,-7.64 -6.56,-8.52 -9.11,-8.24 -6.7,0.76 -2.63,6.53 -1.8,11.01z"/>
   <path class="fil9" d="M69.38 246.26c0.25,0.53 0.95,1.76 0.96,1.78 2.28,4.82 1.19,4.33 4.83,6.19 2.11,-2.8 8.06,-10.28 7.45,-13.48 -7.79,-1.31 -9.47,2.84 -13.24,5.51z"/>
  </g>
  <ellipse class="fil16" cx="142.24" cy="193.94" rx="3.56" ry="4.04"/>
  <ellipse class="fil16" cx="258.64" cy="199.46" rx="3.98" ry="3.6"/>
 </g>
</svg>
