<?xml version="1.0" encoding="UTF-8"?>
<!DOCTYPE svg PUBLIC "-//W3C//DTD SVG 1.1//EN" "http://www.w3.org/Graphics/SVG/1.1/DTD/svg11.dtd">
<!-- Creator: CorelDRAW 2020 (64-Bit) -->
<svg xmlns="http://www.w3.org/2000/svg" xml:space="preserve" width="504px" height="512px" version="1.1" style="shape-rendering:geometricPrecision; text-rendering:geometricPrecision; image-rendering:optimizeQuality; fill-rule:evenodd; clip-rule:evenodd"
viewBox="0 0 511.9 520.46"
 xmlns:xlink="http://www.w3.org/1999/xlink"
 xmlns:xodm="http://www.corel.com/coreldraw/odm/2003">
 <defs>
  <style type="text/css">
   <![CDATA[
    .fil0 {fill:black}
    .fil14 {fill:#75E58C}
    .fil10 {fill:#9AEF8A}
    .fil1 {fill:#A44D3A}
    .fil12 {fill:#B59973}
    .fil3 {fill:#C4453E}
    .fil11 {fill:#C6A77B}
    .fil6 {fill:#C85B2A}
    .fil7 {fill:#D3714F}
    .fil16 {fill:#D3B2A8}
    .fil9 {fill:#DA7937}
    .fil5 {fill:#DB6331}
    .fil2 {fill:#DC9A3A}
    .fil8 {fill:#DDA64B}
    .fil4 {fill:#DEBA89}
    .fil15 {fill:#DFEFA8}
    .fil13 {fill:#FAF5F7}
   ]]>
  </style>
 </defs>
 <g id="Layer_x0020_1">
  <metadata id="CorelCorpID_0Corel-Layer"/>
  <g id="_2226698434688">
   <path class="fil0" d="M0.86 153.78c0.5,22.73 9.84,50.75 18.01,71.17 5.43,13.57 2.85,15.96 13.77,15.96 2.11,9.07 -3.65,9.81 0.41,19.04 2.96,6.75 2.93,13.76 11.89,13.76 0.33,4.07 1.02,2.47 1.02,5.13 0,6.58 -3.58,-0.95 1.91,12.44 2.13,5.2 3.74,7.9 6.25,12.2 9.02,15.55 18.36,31.43 28.75,46.08 0.69,0.97 1.11,1.42 1.74,2.36l28.59 42.14c1.51,2.27 2.24,3.33 3.79,5.44 1.68,2.28 2.15,3.4 3.65,5.57l11.87 16.84c4.78,7.55 11.05,13.48 16.68,20.21 4.23,5.07 9.12,10.35 14.65,14.05 -6.03,11.41 -1.98,20.24 4.3,29.54 4.59,6.8 29.04,29.44 38.44,31.34 2.84,0.57 5.01,0.28 8.52,-0.35 9.09,-1.61 23.89,-5.64 30.75,-9.27l0 -6.15c-39.48,3.28 -29.9,15.15 -42.5,-21.13 -3.08,-8.88 0.28,-13.45 0.47,-21.93l1.5 5.84c0.22,1.6 0.64,4.15 1.75,6.25l2.59 3.6c0.01,0.01 1.07,1.73 1.18,1.9 1.94,3.17 1.52,2.65 4.1,5.12l2.12 1.98c1.26,1.03 1.68,1.2 3.13,1.99l18.78 8.91c20.69,8.02 14.81,0.61 24.15,12.75 5.83,7.57 19.49,19.09 29.39,10.63l1.06 -1c3.65,-3.7 5.3,-8.81 8.49,-13.03 1.89,-2.5 3.47,-3.26 5.29,-5.98 14.61,3.4 19.12,10.91 34.24,-27.27 1.12,-2.83 2.39,-4.9 3.91,-7.36 1.86,-2.99 3.44,-4.53 6.96,-5.35 2.16,1.59 7.29,10.02 7.8,13.7 0.41,2.9 -0.79,4.94 -1.98,7.48l-3.58 8.73c-1.92,4.5 -3.82,9.73 -7.29,13.22 -15.8,15.96 -22.8,2.73 -34.93,9.15 1.38,5.93 6.53,5.73 12.41,8.09 4.48,1.81 9.15,3.7 14.59,2.53 7.14,-1.53 7.41,-2.5 12.72,-7.81 4.01,-4.01 6.22,-6.28 10.66,-9.84l21.03 -19.97c6.68,-7.07 11.94,-12.43 10.13,-22.14 -0.33,-1.76 0.08,-1.16 -0.56,-4.17 4.31,2.07 8.47,2.21 12.91,5.55 3.49,2.62 10.69,11.77 13.07,15.63 5.66,9.21 5.32,8.89 17.07,11.63l-20.39 -57.52c-9.17,-28.8 -5.36,-24.38 13.34,-40.77 1.15,-1.01 1.11,-1.1 2.04,-2.06l28.54 -23.74 8.53 -3.77c19.58,-8.09 19.18,14.38 37.15,-24.35 4.74,-10.23 5.45,-15.97 6.05,-27.45 0.28,-5.24 0.13,-9.19 -0.51,-16.05 -0.42,-4.66 -2.73,-9.53 -3.45,-14.13 -0.38,-2.41 0.48,0.07 -0.39,-2.64 -2.48,-7.69 -6.14,-16.42 -10.47,-23.25 -4.14,-6.53 -1.18,-8.61 -0.97,-16.43 0.16,-6.29 0.57,-10.88 1.47,-17.01 0.61,-4.15 0.55,-3.77 0.21,-8.12 -0.18,-2.4 0.05,-4.85 0.53,-8.5 2.17,-16.27 1.35,-33.7 -0.65,-49.1l-9.69 -60.88c-3.52,-15.36 -7.23,-29.85 -12.8,-44.59l-8.21 -19.47c-2.66,-5.37 -14.86,-29.13 -20.08,-29.13 -3.83,0 -5.47,0.4 -8.85,1.39 -1.38,0.41 -2.53,0.76 -3.71,1.42 -0.19,0.11 -0.43,0.29 -0.62,0.4 -0.19,0.12 -0.41,0.32 -0.59,0.44 -0.18,0.12 -0.41,0.32 -0.58,0.44 -0.18,0.13 -0.41,0.32 -0.59,0.44 -0.18,0.13 -0.41,0.32 -0.59,0.43 -6.87,4.33 -16.41,6.83 -23.51,10.33 -0.21,0.1 -0.46,0.25 -0.66,0.35l-3.41 1.72c-1.12,0.53 -1.09,0.45 -2.12,0.96 -2.18,1.09 -4.26,2.35 -6.49,3.76 -2.84,1.8 -3.3,3.66 -6.71,4.57 -0.41,-5.04 -4.93,-10.59 -7.13,-14.39 -2.93,-5.05 -3.17,-10.63 -9.27,-12.26 -1.91,7.14 -2.28,-1.06 -3.07,6.15 -5.53,0.46 -8.62,6.76 -12.3,10.25 -8.03,-5.38 -9.12,-11.87 -14.35,-15.38 -4.33,1.01 -11.77,4.92 -15.16,7.4l-1.7 1.38c-0.16,0.13 -0.39,0.33 -0.56,0.46 -5.77,4.32 -19.63,9.69 -23.36,14.59 -4.48,5.88 1.58,7.75 -6.38,13.08 0,-4.96 -1.3,-8.3 -1.88,-12.47 -0.8,-5.69 -1.38,-18.51 -4.96,-21.69 -4.77,-4.25 -16.37,-5.39 -21.13,-0.99 -0.91,0.85 -5.2,6.7 -5.72,7.61 -0.51,0.88 -1.81,3.57 -2.03,4.11 -1.94,4.89 -0.96,12.54 -3.23,17.27 3.7,0.31 4.88,1.28 8.2,2.06l0 4.1c-4.4,1.17 -2.52,2.6 -8.2,3.07 -0.15,6.6 -2.05,11.39 -2.05,19.48l-1.5 0.32c-12.42,3.73 -42.23,35.73 -51.68,49l-10.64 14.99c-6.68,7.39 -3.15,11.24 -1.96,19.92 3.74,27.27 2.74,15.24 -15.52,45.63 -4.86,8.08 -15.06,23.17 -15.06,33.12l1.26 32.72c0.85,8.14 1.38,2.28 -2.23,8.36 -2.17,3.65 -1.36,5.66 -2.1,9.15l-3.08 0c-1.24,-3.43 0.98,-0.82 -3.12,-3.03 -0.07,-0.04 -1.96,-0.84 -2.14,-0.93 -0.57,-0.26 -1.6,-0.76 -2.08,-1 -6.79,-3.4 -16.71,-5.73 -18.43,4.82 -1.54,9.44 0.13,21.57 2.84,30.25l3.9 11.48c3.21,12.87 10.79,29.01 15.98,40.39 3.37,7.38 7.27,12.94 11.19,19.56 2.42,4.08 3.5,5.45 6.35,9.04 4.85,6.11 10.64,10.98 13.76,18.14 2.16,4.93 0.96,3.34 -0.16,6.89l-0.48 1.63c-3.66,13.67 -2.11,8.59 -7.1,20.63 -0.95,2.3 -1.03,4 -2.06,6.14 -8.09,-5.42 -20.97,-34.74 -25.82,-44.91 -2.68,-5.63 -3.67,-11.56 -6.16,-17.41 -0.86,-2.01 -0.84,-1.5 -1.58,-3.55l-9.92 -32.1c-5.15,-18.16 -4.86,-11.29 -5.65,-29.21 -0.19,-4.23 -0.72,-6.61 -5.19,-7.1 3.7,-7.71 -4.95,-16.82 -5.38,-25.28 -0.26,-5.13 3.07,-6.72 -0.35,-16.22 -1.89,-5.27 -1.79,-12.53 -3.61,-18.9 -3.29,-11.51 -2.35,-15.07 -3.35,-21.14 -0.41,-2.51 -1.14,-4.44 -1.53,-6.75 -0.58,-3.41 -0.47,-3.69 -1.42,-6.86 -0.84,-2.8 -0.19,0.36 -0.89,-2.83l-0.2 -1.29c-0.01,-0.13 -0.1,-1.85 -0.12,-2.07 -1.56,-17.47 -6.85,-37.44 -9.52,-54.76l-6.88 -39.14c-0.25,-7.09 -0.56,-9.78 -7.76,-9.78 0,-8.69 4.21,-8.25 3.75,-14.63 -0.3,-4.18 -0.39,-1.52 -1.32,-5.15l-5.5 -30.44 -6.12 -1.18c-0.03,-9.57 4.25,-3.55 1.99,-14.08 -1.57,-7.29 -1.83,-15.59 -5.53,-22.24 -2.16,-3.89 -7.1,-5.28 -11.11,-7.35 -11.99,-6.19 -14.22,-2.37 -25.52,12.91 -12.48,16.85 -21.89,55.37 -22.94,76.34 -0.69,13.7 -4.08,36.52 -1.25,46.5 1.14,4 6.95,5.78 5.43,10.25 -0.91,2.7 -3.06,3.73 -5.68,4.43z"/>
   <path class="fil1" d="M326.47 160.81c12.41,23.78 3.38,17.51 5.71,30.7 8.17,1.63 8.28,-2.78 17.44,17.48 1.8,4 -0.06,0.51 2.63,3.41 2.86,3.08 4.94,11.71 9.22,20.42l7.44 15.95c3.02,-1.96 10.6,-8.52 17.11,-8.47 8,8.3 1.14,33.21 -0.3,43.29 -1.28,8.89 1.71,0.04 2.21,15.12 3.53,0.81 2.64,1.26 5.7,3.06 4.78,-18.42 13.69,-29.17 18.3,-39.36 2.11,-4.66 4.58,-8.49 6.8,-12.28 -1.22,-3.67 -0.03,0.03 -2.21,-3.5 -4.45,-7.2 -7.7,-15.9 -10.81,-22.06 -3.99,-7.89 -18.44,-37.02 -24.63,-42.11 -0.74,3.29 0.95,1.41 -2.17,2.37 -2.59,0.8 -3.73,-1.14 -7.26,-4.05l-16.32 -14.49c-2.72,-2.07 -5.36,-3.62 -8.14,-6.36 2.06,-3.88 2.12,-4.33 3.41,-9.57 -2.38,-3.71 -4.2,-4.49 -7.99,-6.76 1.62,6.67 1.73,9.54 -3.48,12.59l-10.34 -6.41 -1.49 8.45c-0.04,0.19 -0.1,0.53 -0.14,0.69l-0.69 1.89z"/>
   <path class="fil2" d="M284.77 202.45c2.94,5.71 5.42,13.85 8.21,20.06 5.54,12.35 -4.09,12.15 -2.05,22.41l11.29 0.91c6.45,9.87 17.63,40.55 22.23,53.23 1.54,4.24 3.72,6.42 4.78,12.36l8.15 19.43c2.81,7.23 6.2,15.35 8.91,21.83l14.15 33.02c3.16,7.45 14.35,22.69 18.6,29.3 1.33,-2.17 -1.82,-5.68 -3.7,-9.31 -8.45,-16.34 -19.65,-37.6 -24.71,-55.17 -2.77,-9.65 -6.62,-16.85 -6.27,-23.25 -4.16,-3.6 -2.43,-9.31 -6.43,-16.43 -2.71,-4.81 -1.02,-4.93 -3.21,-12.2 -1.34,-4.42 -2.36,-5.69 -3.49,-9.66l-3.5 -11.29c-2.02,-6.64 -5.09,-12.6 -6.28,-19.22 -0.63,-3.5 -1.25,-5.93 -2.68,-9.39 -5.48,-13.24 0.49,-1.67 -5.71,-17.73 -1.02,-2.64 -0.46,-2.11 -1.16,-4.79 -0.43,-1.61 -0.16,-1 -0.87,-2.61 -3.73,-8.44 -0.39,-4.16 -2.77,-10.33l-2.4 -5.35c-2.65,-6.62 -1.24,-7.41 -4.15,-13.79 -4.6,-10.12 -2.29,-23.02 -2.65,-36.61l1.7 -34.88c0.44,-3.36 -0.58,-6.8 -1.57,-9.2 -0.68,5.46 1.14,7.81 -0.24,13.92 -0.93,4.09 -1.07,8.33 -0.87,12.74 0.47,10.09 2.17,19.35 -9.22,18.59 -2.16,-9.77 -0.02,-16.39 -0.92,-25.79 -1.19,-12.46 -1.56,-9.6 -1.57,-24 -3.98,-1.04 -1.18,0.85 -3.41,-1.39l8.03 -23.85c0.23,-4.49 -2.01,-5.8 -0.71,-8.61 -3.68,1.62 -4.77,19.55 -9.59,23.79 -1.73,-2.77 -1.02,-3.24 1.32,-10.74 3.22,-10.37 6.84,-15.7 5.75,-22.61 -0.54,-3.41 -1.14,-9.5 -3.36,-12.27 -4.72,10.36 -4.91,23.68 -5.98,36.69 -1.57,18.85 -2.34,17.08 -2.85,39.94 -0.81,35.91 9.8,67.16 9.61,70.69l-0.41 1.56z"/>
   <path class="fil3" d="M409.49 50.6c-0.98,6.18 1.88,11.04 4.35,15.06 3.26,5.3 3.58,7.3 11.22,7.89 0.18,12.03 -3.94,20.24 1.22,26.88 3.21,4.13 1.79,4.04 5.17,4.36 3.74,0.36 5.79,-3.3 7.27,-6.18 2.49,4.4 4.95,9.45 6.38,14.83 0.77,2.88 1.77,5 2.77,7.44 1.53,3.72 2.18,3.17 3.12,7.18 1.01,4.32 0.51,4.25 2.22,7.91 2.33,5.01 9.42,34.9 10.63,41.7 1.17,6.59 0.35,12.58 1.34,19.21 1.51,10.06 2.65,0.99 5.2,15.2 2.83,15.76 1.14,5.59 7.62,13.28 -1.5,-5.34 0,-1.35 1.28,-2.9 2.26,-7.85 -0.25,-75.74 -3.96,-82.76l-0.38 2.49c-2.13,-5.6 -4.82,-9.78 -6.56,-15.94 -1.53,-5.38 -2.37,-13 -3.67,-19.45 -3.23,-16.04 -7.54,-24.72 -9.52,-34.3 -1.9,0.87 -2.32,1.17 -3.3,2 -7.76,-7.48 -11.33,-38.58 -28.76,-30.5 -3.3,1.53 -11.4,4.74 -13.64,6.6z"/>
   <path class="fil1" d="M388.87 371.69c3.5,-6.25 -0.62,-5.46 12.26,-18.57 3.13,-3.19 4.73,-6.19 7.24,-8.13 3.27,-2.54 2.08,-0.38 4.98,-3.23 1.08,-1.06 1.94,-2.75 3.75,-4.45 14.19,-13.28 13.23,-6.86 21.47,-10.33 0.29,-0.13 3.68,-2.23 4.45,-2.61 6.07,-2.93 7.59,-2.15 15.4,-9.3 7.95,-7.27 -1.99,-10.43 7.36,-22.37 3,-3.84 2.94,-7.36 0.52,-10.79 -7.72,-10.98 -6.56,-19.3 -12.41,-27.57 -8.26,-11.67 -4.86,-8.86 -3.78,-15.17 0.65,-3.8 -2.47,-10.68 3.4,-9.84 -1.06,-1.28 1.04,-1.68 -7.4,-2.61 -0.63,8.29 -1.84,21.29 -5.39,29.73 -0.69,1.64 -0.87,1.79 -1.75,4.32 -4.66,13.4 -2.99,4.76 -13.47,19.37l-18.16 33.14c-5.03,12.96 -19.17,48.78 -18.47,58.41z"/>
   <path class="fil3" d="M388.87 371.69c0.6,2.27 -0.49,5.56 10.05,6.22 2.96,14.18 8.6,10.63 14.36,10.57l36.33 -26.9c2.13,-1.15 1.52,-0.56 3.31,-2.03 -9.36,-4 -13.69,-9.62 -3.34,-16.32 4.35,-2.82 6.07,-2.74 9.56,-6.95 2.2,-2.65 3.28,-6.39 6.07,-10.1 -15.23,-1 -17.73,10.82 -30.55,17.37l-15.47 8.27c-5.36,3.01 -8.72,8.96 -14.75,8.99 2.14,-7.97 11.65,-13.43 18.13,-17.99 6.34,-4.46 9.94,-3.92 16.77,-9.79 4.08,-3.5 4.67,-5.99 8.19,-8.29 7.13,-4.65 13.77,-4.82 23.21,-5.56 6.14,-0.49 8.58,2.44 13.07,-0.16 -1.08,-10.05 -3.26,-24.39 -6.8,-33.42 -1.28,-3.25 -2.02,-7.45 -2.73,-10.64 -4.97,-22.4 -3.44,-10.08 -15.59,-24.46 -4.49,-5.31 -2.85,-2.07 -7.77,-5.41l1.09 -5.03c5.87,0.94 8.59,5.06 11.73,6.88l2.24 -1.93c-0.3,-3.85 -0.73,-3.03 -1.46,-6.39l2.97 -1.05c-2.87,-4 -8.54,-7.35 -13.98,-8.24 -5.87,-0.84 -2.75,6.04 -3.4,9.84 -1.08,6.31 -4.48,3.5 3.78,15.17 5.85,8.27 4.69,16.59 12.41,27.57 2.42,3.43 2.48,6.95 -0.52,10.79 -9.35,11.94 0.59,15.1 -7.36,22.37 -7.81,7.15 -9.33,6.37 -15.4,9.3 -0.77,0.38 -4.16,2.48 -4.45,2.61 -8.24,3.47 -7.28,-2.95 -21.47,10.33 -1.81,1.7 -2.67,3.39 -3.75,4.45 -2.9,2.85 -1.71,0.69 -4.98,3.23 -2.51,1.94 -4.11,4.94 -7.24,8.13 -12.88,13.11 -8.76,12.32 -12.26,18.57z"/>
   <path class="fil2" d="M48.8 257.47l44.04 87.23c1.06,1.44 1.64,1.93 2.64,3.57 3.56,5.86 14.52,24.27 18.43,27.67 0.81,-2.37 -27.29,-54.52 -32.46,-65.94l-23.02 -52.03c-0.98,-3.31 -2.19,-4.87 -3.38,-8.59 -1.21,-3.81 -2.46,-5.99 -4.04,-9.33l-15.45 -40.74c-0.57,-1.89 -0.5,-5.16 -0.82,-7.65 3.17,2.21 3.36,2.04 7.46,2.49 1.31,-8.28 2.02,3.14 2.04,-14.94 0.01,-8.71 2.02,-7.38 4.42,-14.47 3.19,2.71 2.03,-2.75 1.28,10.6 -0.36,6.4 0.17,5.68 1.44,10.43 1.52,5.68 -0.58,17.38 0.53,23.62 0.43,-0.54 4.63,-9.68 5.07,-10.78 1.75,-4.37 3.34,-7.96 4.92,-12.45 2.72,-7.74 5.92,-18.84 8.93,-24.95 3.99,-8.09 -0.42,-13.68 -2.45,-27.92 -0.74,-5.13 -2.1,-8.66 -3.11,-14.13 -0.88,-4.75 -1.28,-10.71 -2.17,-15.36l-2.95 0.66c0.23,4.03 -0.47,4.62 -1.81,9.21l-16.32 42.21c-2.34,7.11 -2.23,12.8 -8.36,15.32 -5.93,-2.56 -9.34,-22.56 -9.73,-30.59 -1.14,-23.46 3.67,-32.41 0.5,-37.62 -4.42,4 -3.47,14.24 -3.88,20.05 -0.93,13.05 -2.28,0.34 -0.91,21.51 0.94,14.38 18.96,76.71 24.46,95.15l5.07 13.45c1.51,6.1 0.38,3.04 -0.37,4.32z"/>
   <path class="fil3" d="M58.29 237.2l-1.87 2.89c-3.24,-0.82 -2.28,-0.07 -4.02,-2.72 -1.93,1.52 -2,-2.31 -1.39,2.68 1.58,3.34 2.83,5.52 4.04,9.33 1.19,3.72 2.4,5.28 3.38,8.59l23.02 52.03c5.17,11.42 33.27,63.57 32.46,65.94 1.8,3.07 3.93,6.25 6.11,9.24 2.63,3.6 3.03,6.27 5.35,9.99 2.4,3.85 4.64,4.95 6.8,8.64 10.15,17.28 2.6,7.76 18.94,27.21l14.35 16.76c-1.69,-3.93 -7.28,-12.69 -10.08,-17 -3.69,-5.7 -7,-10.62 -11.08,-16.59 -17.6,-25.7 -34.93,-93.91 -43.79,-124.77 -2.48,4.25 1.49,2.14 -3.82,3.37 -2.82,0.65 -3.38,-0.57 -5.21,-2.11 -8.24,-6.97 -1.62,-23.24 -7.79,-30.88 -2.47,-3.05 -3.15,-1.36 -3.69,-4.46 -4.18,4.36 -4.46,9.13 -9.34,10.03 -0.79,-5.68 3.42,-10.74 5.13,-16.26 -2.07,-2.2 -2.58,-29.24 -1.9,-33.88 -6.95,5.81 -8.55,17.77 -14.87,24.87l-0.73 -2.9z"/>
   <path class="fil1" d="M402.77 52.3c3,11.9 11.24,20.29 15.55,36.55 7.56,28.47 16.69,47.44 22.63,79.66 2.9,15.75 2.15,31 4.22,46.52 2.19,3.97 16.13,1.98 30.36,15.68 0.65,0.62 2.14,2.66 3.64,2.52l0.11 -10.77c-1.28,1.55 -2.78,-2.44 -1.28,2.9 -6.48,-7.69 -4.79,2.48 -7.62,-13.28 -2.55,-14.21 -3.69,-5.14 -5.2,-15.2 -0.99,-6.63 -0.17,-12.62 -1.34,-19.21 -1.21,-6.8 -8.3,-36.69 -10.63,-41.7 -1.71,-3.66 -1.21,-3.59 -2.22,-7.91 -0.94,-4.01 -1.59,-3.46 -3.12,-7.18 -1,-2.44 -2,-4.56 -2.77,-7.44 -1.43,-5.38 -3.89,-10.43 -6.38,-14.83 -1.48,2.88 -3.53,6.54 -7.27,6.18 -3.38,-0.32 -1.96,-0.23 -5.17,-4.36 -5.16,-6.64 -1.04,-14.85 -1.22,-26.88 -7.64,-0.59 -7.96,-2.59 -11.22,-7.89 -2.47,-4.02 -5.33,-8.88 -4.35,-15.06 -4.36,1.25 -2.77,2.54 -6.72,1.7z"/>
   <path class="fil4" d="M48.8 257.47c0.75,-1.28 1.88,1.78 0.37,-4.32l-5.07 -13.45c-5.5,-18.44 -23.52,-80.77 -24.46,-95.15 -1.37,-21.17 -0.02,-8.46 0.91,-21.51 0.41,-5.81 -0.54,-16.05 3.88,-20.05 3.17,5.21 -1.64,14.16 -0.5,37.62 0.39,8.03 3.8,28.03 9.73,30.59 6.13,-2.52 6.02,-8.21 8.36,-15.32l16.32 -42.21c1.34,-4.59 2.04,-5.18 1.81,-9.21 -6.34,5.46 -17.79,25.45 -21.92,34.48 -2.43,5.31 -2.8,10.44 -8.15,12.02 -0.87,-8.56 5.51,-12.92 6.38,-20.7 -0.77,-8.73 2.65,-16.9 -0.85,-21.94 -2.34,4.11 -0.86,4.87 -5.35,7l1.21 -6.89c-0.74,-10.48 3.47,-33.03 5.56,-43.59 2.89,-14.57 7.55,-25.24 11.15,-38.24l0.77 -9.23c-10.66,5.21 -21.13,40.52 -24.56,52.37 -6.68,23.12 -8.59,42.67 -8.63,68.66 -0.05,25.92 8.53,42.02 13.76,63.7 2.4,9.96 4.79,19.73 8.38,29.34 0.84,2.24 2.08,4.68 2.48,6.87 2.02,11.04 1.53,-0.66 8.42,19.16z"/>
   <path class="fil5" d="M357.65 29.74c4.47,1.88 -3.85,13.61 -3.88,13.55 -0.07,-0.17 -0.34,0.42 -0.54,0.59 3.52,2.83 8.08,7 8.44,11.76 -4.07,-1.39 -2.7,-2.72 -7.6,-3.39 0.11,6.07 -5.5,23.22 -8.28,29.33 -2.71,5.97 -2.27,11.69 -10.23,26.07 0.55,1.82 1.72,1.11 5.25,7.56l15.72 24.41c2.22,-6.95 1.74,-6.25 -0.95,-11.47 -2.32,-4.53 -1.76,-7.18 -4.39,-11.27l3.75 -1.36c-1.51,-4.07 -0.58,-0.79 0.59,-1.99l14.47 10.44c2.18,2.48 3.55,3.68 6.26,6.02l18.95 17.89c2.7,2.74 4.34,4.41 5.97,6.37 6.68,8.06 1.1,5.18 6.64,6.42 2.06,-2.05 0.88,0.87 0.2,-1.42l-20.86 -24.79c-7.96,-8.16 -8.33,-6.41 -12.6,-12.04 -5.71,-7.54 -10.34,-6.16 -13.43,-10.67 4.28,-3.77 5.2,-2.25 7.77,-9.39 1.81,-5.02 2.92,-8.47 1.89,-14.32 -2.19,-4.64 -10.79,-11.6 -6.13,-15.56 2.87,-0.14 9.37,8.32 10.68,10.2 8.02,11.47 21.68,42.47 21.7,42.49 3.35,3.9 -0.27,1.01 3.6,2.34 0.79,-2.17 0.1,-3.6 0.1,-3.6l-3.12 -7.07c-0.44,-1.02 -0.91,-2.42 -1.46,-3.67l-22.75 -38.32c5,-3.85 5.6,-5.55 3.65,-9.14 -3.25,-5.5 -8.86,0.35 -7.08,-10.25 4.7,-0.24 6.64,2.42 10.6,4.21 -0.55,-4.86 -2.18,-5.16 -4.52,-9.53 -1.7,-3.19 -3.33,-5.98 -4.67,-8.54 -3.2,-6.13 -6.79,-10.82 -7.88,-18.08 -2.82,3.69 -3.07,1.69 -5.86,6.22z"/>
   <path class="fil1" d="M397.04 125.17c1.49,5.1 3.93,9.22 5.78,14.1 1.65,4.35 3.9,11.21 5.37,14.23l-37.4 -65.46c1.03,5.85 -0.08,9.3 -1.89,14.32 -2.57,7.14 -3.49,5.62 -7.77,9.39 3.09,4.51 7.72,3.13 13.43,10.67 4.27,5.63 4.64,3.88 12.6,12.04l20.86 24.79c0.68,2.29 1.86,-0.63 -0.2,1.42 2.23,4.01 7.25,9.32 10.87,13.95l7.03 9.34c0.19,0.24 0.74,0.88 0.94,1.1 1.47,1.62 2.38,2.55 3.82,3.57 1.72,-11.94 -5.33,-31.46 -7.79,-45.36l-2.35 -6.4c-1.56,2.67 0.22,2.99 -2.58,-1.02 -1,-1.43 -1.52,-2.97 -2.09,-4.24l-10.91 -28.05c-6.18,-17.37 -4.87,-5.44 -9.51,-16.17l-8.36 -16.92 -9.83 -4.76c1.95,3.59 1.35,5.29 -3.65,9.14l22.75 38.32c0.55,1.25 1.02,2.65 1.46,3.67l3.12 7.07c0,0 0.69,1.43 -0.1,3.6 -3.87,-1.33 -0.25,1.56 -3.6,-2.34z"/>
   <path class="fil1" d="M338.06 227.78l3.12 -0.82c6.09,6.73 1.72,11.79 2.33,16.63 0.31,2.4 0.88,0.8 1.14,5.51 0.48,8.68 -0.35,19.56 0.14,25.97 1.02,13.63 -1.25,36.01 -0.43,52.2 -0.35,6.4 3.5,13.6 6.27,23.25 5.06,17.57 16.26,38.83 24.71,55.17 1.88,3.63 5.03,7.14 3.7,9.31 4.06,7.54 9.53,10.98 16.25,22.92 2.47,4.39 2.11,5.81 7.33,5.86 -0.48,-4.25 -15.31,-35.22 -19.29,-42.05 -5.89,-10.1 -13.76,-31.14 -17.83,-43.8 -2.37,-7.37 -3.52,-17.52 -6.17,-24.45 -3.2,-8.38 -4.12,-17.3 -4.21,-26.97 -0.1,-10.19 -0.55,-20.48 0.93,-30.57 2.62,-17.87 5.88,-15.22 5.57,-25.09 -6.48,-5.54 -0.56,3.64 -11.92,-16.41l-5.82 -8.45c-2.24,-2.83 -2.85,-6.44 -4.6,-9.32l-1.22 11.11z"/>
   <path class="fil5" d="M214.34 164.17l5.3 0.43c2.27,6.62 -2.07,8.53 -3.95,14.2 3.75,-1.18 3.46,-1.72 6.61,-2.57 -2.87,5.05 -5.93,6.8 -9.46,10.14 -2.91,2.77 -7.61,7.76 -9.9,10.64 2.86,-0.84 3.04,-1.29 6.47,-0.57 1.7,3.65 1.08,2.57 0.79,6.67 1.97,-4.5 3.91,-5.11 7.16,-8.13 3.91,-3.62 4.34,-5.43 9.47,-7.78 -2.14,5.27 -3.84,4.46 -4.88,9.07 -0.1,3.71 2.45,4.13 4.61,5.19l-7.16 10.02c-4.19,7.26 -5.77,5.75 -6.49,11.19 1.95,0.37 1.25,0.19 2.28,0.79 0.17,0.1 2.05,1.72 2.16,1.94 1.72,3.09 0.87,2.48 -0.49,5.06 3.03,-1.1 8.96,-10.21 11.3,-13.42 1.99,-2.73 3.5,-4.37 5.45,-6.82 2.16,-2.73 2.73,-4.09 5.1,-7.29l17.03 -19.84c3.12,-3.57 3.59,-2.69 7.41,-0.64 -9.32,-23.73 -6.93,-40.85 -8.97,-47.22l-1.13 1.1c-0.15,0.16 -0.82,0.91 -1.01,1.13l-37.7 26.71z"/>
   <path class="fil6" d="M331.23 288.98l2.77 -0.92c-2.56,-4.63 -2.12,-19.17 -2.05,-25.71l2.55 -7.1 -3.34 -0.67c0.04,-12.32 0.73,-21.42 1.51,-33.13 1.19,-17.95 2.09,-13.93 -4.51,-28.43 -0.66,5.25 -1.93,10.91 -3.07,15.37 -0.84,3.28 -1.07,4.5 -1.28,7.95 -0.23,3.95 0.21,5.98 -2.26,8.28 -4.63,-13.47 6.48,-44.96 -5.98,-62.62 -2.43,13.01 -3.53,38.08 -4.35,40.89 -3.56,-2.32 -1.61,-5.59 -1.34,-17.3 0.19,-7.97 0.22,-15.77 -0.06,-23.61 -0.96,-27.18 -0.09,-9.92 -6.9,-34.42l-2.16 -4.57 -1.7 34.88c0.36,13.59 -1.95,26.49 2.65,36.61 2.91,6.38 1.5,7.17 4.15,13.79l2.4 5.35c2.38,6.17 -0.96,1.89 2.77,10.33 0.71,1.61 0.44,1 0.87,2.61 0.7,2.68 0.14,2.15 1.16,4.79 6.2,16.06 0.23,4.49 5.71,17.73 1.43,3.46 2.05,5.89 2.68,9.39 1.19,6.62 4.26,12.58 6.28,19.22l3.5 11.29z"/>
   <path class="fil1" d="M357.53 141.85c1.76,4.49 0.74,2.65 0.1,3.64 10.56,11.97 25.63,18.77 38.31,40.74 1.7,2.96 29.05,46.56 31.35,48.17 4.7,-8.07 5.5,-26.34 -0.5,-33.99 -4.48,-5.69 -10.45,-17.77 -17.53,-24.59l-39.37 -44.58c3.48,7.46 -0.89,10.64 -6.22,12.8l-5.02 -3.54c-1.63,0.9 -2.05,-1.29 -1.12,1.35z"/>
   <path class="fil3" d="M51.01 240.05c-0.61,-4.99 -0.54,-1.16 1.39,-2.68 1.74,2.65 0.78,1.9 4.02,2.72l1.87 -2.89c0.83,-3.95 1.07,-4.5 2.65,-8.1 3.02,-6.85 1.47,-9.86 9.55,-24.25 13.22,-23.55 7.48,-12.33 7.88,-24.35 0.14,-4.13 1.55,-4.05 2.21,-8.27 -6.3,-1.24 -7.23,4.03 -9.77,8.49 -6.6,11.6 -10.54,17.84 -15.6,30.55 -1.39,3.49 -0.9,3.98 -4.12,4.96 -1.02,-3.06 0.15,-3.92 0.82,-6.84 -1.11,-6.24 0.99,-17.94 -0.53,-23.62 -1.27,-4.75 -1.8,-4.03 -1.44,-10.43 0.75,-13.35 1.91,-7.89 -1.28,-10.6 -2.4,7.09 -4.41,5.76 -4.42,14.47 -0.02,18.08 -0.73,6.66 -2.04,14.94 -4.1,-0.45 -4.29,-0.28 -7.46,-2.49 0.32,2.49 0.25,5.76 0.82,7.65l15.45 40.74z"/>
   <path class="fil4" d="M284.77 202.45l0.41 -1.56c0.19,-3.53 -10.42,-34.78 -9.61,-70.69 0.51,-22.86 1.28,-21.09 2.85,-39.94 1.07,-13.01 1.26,-26.33 5.98,-36.69 0.74,-5.53 -4.16,-23.68 -6.21,-26.58l-4.39 -5.16c-4.81,14.53 -5.55,77.35 -4.93,95.05 1.06,30.41 8.13,58.06 15.9,85.57z"/>
   <path class="fil2" d="M317.52 88.45c2.69,-2.34 4.61,-6.39 6.42,-9.34 3.5,-5.71 5.28,-4.68 8.12,-8.19 2.73,-3.38 4.55,-5.84 6.75,-8.67 5.62,-7.2 3.86,-7.54 8.47,-7.82 0.26,2.34 -10.28,29.3 -12.31,32.81 -0.01,0 -1.02,1.9 -1.05,1.97 -2.93,5.77 -5.8,13.14 -9.9,17.66 -2.24,2.46 -2.77,4.09 -6.81,4.88 2.39,3.58 38.76,32.6 40.42,33.74 0.64,-0.99 1.66,0.85 -0.1,-3.64l-1 -2.23 -15.72 -24.41c-3.53,-6.45 -4.7,-5.74 -5.25,-7.56 7.96,-14.38 7.52,-20.1 10.23,-26.07 2.78,-6.11 8.39,-23.26 8.28,-29.33 -2.48,-2.59 -7.15,-5.1 -10.79,-5.81 -2.01,1.67 -5.42,6.09 -7.14,8.96 -3.18,5.3 -15.2,18.63 -18.62,33.05z"/>
   <path class="fil4" d="M222.63 417.13c6.08,-15.61 12.84,-11.51 18.04,-20.44 1.91,-3.28 3.91,-8.94 4.73,-13.53 1.98,-11.19 1.13,-13.65 -4.79,-14.33 -2.87,-1.9 -0.43,0.42 -2.69,-2.86 0.78,-2.82 6.05,-18.52 8.65,-21.84 4.39,-5.6 3.6,-2.63 2.71,-11.11 -0.69,-6.56 -1.6,-9.23 2.72,-12.77 1.82,2.34 1.4,3.11 1.47,6.25 2.75,-0.85 1.47,0.04 2.88,-0.98l-0.35 -8.03c-1.94,-1.78 -2.81,-3.68 -6.79,-3.2 -5.6,0.02 -8.79,6.59 -12.58,12.78 -4.72,7.75 -9.2,20.74 -5.23,28.93 2.77,5.71 -0.78,0.74 2.29,8.64 1.97,5.09 0.47,6.84 0.37,10.65 -0.08,3.09 1.77,6.56 2.03,11.04l-5.22 6.7c-2.29,3.12 -3.45,6.77 -5.73,8.54 -3.65,2.83 -5.16,0.96 -5.83,7.59 -0.33,3.32 0.22,10.69 3.32,7.97z"/>
   <path class="fil2" d="M406.6 27.85c-7.7,0.99 -3.34,4.52 -13.61,6.63 1.12,2.44 0.5,1.05 1.6,3.33l4.89 8.14c6.02,-2.85 11.95,-5.57 18.6,-8.89 7.44,-3.72 11.19,-7.16 19.23,-1.86 2.17,1.43 1.78,1.1 3.28,2.74 4.22,4.57 5.62,7.31 7.98,13.53 2.77,7.29 3.71,13.77 6.62,21.03 1.98,9.58 6.29,18.26 9.52,34.3 1.3,6.45 2.14,14.07 3.67,19.45 1.74,6.16 4.43,10.34 6.56,15.94l0.38 -2.49c0.56,-14.76 -7.49,-43.59 -7.89,-47.53 -0.47,-4.53 -0.62,-13.57 -2.38,-16.98l0.06 6.57 -8.56 -23.81c-3.17,-8.65 -8.91,-26.54 -17.83,-30.44 -2.46,-1.08 -8.56,-2.31 -13.27,-1.7 -4.33,0.56 -22.02,12.07 -18.85,2.04z"/>
   <path class="fil7" d="M339.13 36.14c5.69,-1.91 0.87,0.73 4.1,-3.23 0.89,-1.09 0.78,-1.27 2.05,-2.28 1.51,-1.19 0.34,-0.34 2.29,-1.2 -2.71,-4.16 -0.8,-2.16 -1.06,-4.48 -0.36,-3.02 -0.85,-3.46 -2.25,-5.12 -2.26,0.8 -10.68,5.48 -12.42,6.68 -10.66,7.38 -2.33,3.56 -17.47,11.18l-12.09 7.4c-3.33,2.67 -1.95,2.2 -6.11,4.13l8.46 41.61c1.04,2.07 0.57,1.29 1.85,2.59 0.04,-7.71 6.66,-18.03 9.71,-24.12 3.44,-6.86 11.22,-16.07 12.83,-21.4 -6.48,2.73 -6.95,0.06 -12.21,4.59 -3.32,2.86 -4.31,5.75 -9.53,6.98 -0.97,-13.16 25.41,-19.45 27.84,-23.64l4.01 0.31z"/>
   <path class="fil4" d="M137.79 280.89c-0.91,10.96 5.57,28.16 8.89,38.59 4.4,13.83 6.9,0.72 9.2,9.97 1.11,4.46 -3.2,30.22 20.3,54.92 1.8,1.89 3.38,3.95 4.9,5.36l-2.73 -13.57c-4.48,-4.12 -15.48,-36.31 -16.95,-42.33l-10.72 -47.82c-1.94,-4.64 -0.36,-2.77 -4.34,-5.09 -2.28,-1.34 -4.26,-2.37 -7.28,-1.06 0.28,1.55 0.5,1.03 -1.27,1.03z"/>
   <path class="fil3" d="M263.26 305.07l5.48 6.22c1.62,2.33 2.61,3.3 4.91,6.3 3.09,4.01 6.03,10.3 7.43,16.13 4.25,-2.2 3.38,-2.66 5.49,-4.09 3.12,-2.1 2.95,-1.07 6.46,-1.46 7.71,-0.86 5.27,-4.87 14.32,-4.47 -1.04,-0.7 1.8,-2.07 -5.01,-1.68 1.14,-4.5 0.12,-1.22 2.96,-5.23 -3.42,1.58 -6.2,2.42 -9.98,4.27 -4.12,2.02 -5.56,2.9 -10.57,3.03 0.42,-4.56 -0.47,-1.6 1.33,-4.04 2.23,-8.96 13.81,-8.36 16.55,-20.21l3.84 0.49c-7.85,-4.32 -3,-2.05 -5.42,-10 -1.13,-3.69 -5.99,-5.11 -9.6,-6.85 -7.97,-3.84 -15.79,-6.17 -26.23,-4.19l13.16 0.3c0.84,5.45 3.58,5.16 2.16,13.94 -0.92,5.68 -2.75,8.78 -4.5,13.35 -2.97,0.35 -4.58,0.63 -7.63,0.04 -4.26,-0.82 -0.71,-0.46 -5.15,-1.85z"/>
   <path class="fil5" d="M463.74 246.94c2.56,3.55 4.14,3.92 7,6.91 2.1,2.21 3.88,6.8 4.19,7.21l4.63 -0.67c1.83,4.04 3.13,5.17 4.76,10.79 5.28,18.35 9.39,50.42 -1.57,66.27 -3.98,5.77 -6.41,7.79 -10.96,11.48 -0.8,0.66 -1.29,1.06 -2.11,2.17 -1.6,2.14 0.1,-0.96 -1.28,2.32 15.76,-3.5 17.11,-0.22 24.92,-18.78 11.81,-28.05 3.36,-39.28 -1.09,-55.12 -6.28,-22.4 -7.45,-18.84 -14.65,-29.47 -3.89,-5.72 -4.88,-8.83 -10.09,-12.48l-2.97 1.05c0.73,3.36 1.16,2.54 1.46,6.39l-2.24 1.93z"/>
   <path class="fil5" d="M338.06 227.78c-1.06,2.71 -3.89,24.05 -3.56,27.47l-2.55 7.1c-0.07,6.54 -0.51,21.08 2.05,25.71l-2.77 0.92c1.13,3.97 2.15,5.24 3.49,9.66 2.19,7.27 0.5,7.39 3.21,12.2 4,7.12 2.27,12.83 6.43,16.43 -0.82,-16.19 1.45,-38.57 0.43,-52.2 -0.49,-6.41 0.34,-17.29 -0.14,-25.97 -0.26,-4.71 -0.83,-3.11 -1.14,-5.51 -0.61,-4.84 3.76,-9.9 -2.33,-16.63l-3.12 0.82z"/>
   <path class="fil5" d="M261.27 367.05c0.83,4.94 -0.06,5.23 1.22,9.91 0.99,3.63 2.62,6.86 3.53,10.91 6.28,0.09 13.54,1.74 19.35,4.19 9.34,3.95 21.91,11.11 29.77,17.38 1.76,1.4 4.37,5.16 6.35,5.9 2.62,0.98 2.59,0.2 7.07,-1.19 2.68,-6.17 1.74,-5.85 -0.6,-10.33 -8.75,-16.77 -3.25,-5.21 -26.28,-13.68l-13.54 -10.18c-6.15,-2.28 -15.05,-1.36 -18.42,-3.94 -2.81,-2.15 -3.14,-4.79 -4.24,-7.27 -1.17,-2.61 -2.79,-6.58 -4.21,-1.7z"/>
   <path class="fil3" d="M204.22 249.23l-4.5 3.25c-5.63,-2.66 -15.36,-5.11 -2.62,-16.2 9.65,-8.38 6.97,-13.75 15.81,-13.61 0.72,-5.44 2.3,-3.93 6.49,-11.19l7.16 -10.02c-2.16,-1.06 -4.71,-1.48 -4.61,-5.19 -3.81,1.86 -26.76,31.46 -31.03,37.9l-10.62 17.04c-0.72,1.23 -2.25,3.65 -2.78,4.37l-3.57 3.81c13.09,9.29 5,3.24 13.12,11.56 2.37,2.42 2.07,2.21 4.91,3.92l5.33 -12.77c2.52,-4.59 4.58,-8.44 6.91,-12.87z"/>
   <path class="fil3" d="M258.13 477.62l-1 2.62c-6.47,-0.08 -26.94,-7.27 -32.49,-12.24 1.01,-4.48 0.68,-4.48 6.91,-4.7 4.44,-0.16 4.44,0.13 8.15,1.36 -7.63,-12.59 -6.2,-29.75 -13.01,-35.3l-5.78 -1.46c-1.84,-0.98 -0.07,-0.83 -2.36,-1.32 2.31,5.61 1.71,6.23 0.34,11.66 -1.01,4 -0.46,10.16 -0.87,14.7 -1.76,19.83 19.91,27.44 27.42,34.41 10.29,9.55 16.96,-2.38 12.69,-9.73z"/>
   <path class="fil8" d="M483.81 319.02c-2.6,4.03 -4.06,5.38 -8.55,5.87 -1.13,10.06 -4.84,10.84 -10.42,15.17 -3.67,2.85 -8.14,8.81 -8.81,15.7l3.22 1.02 9.15 -3.36c1.38,-3.28 -0.32,-0.18 1.28,-2.32 0.82,-1.11 1.31,-1.51 2.11,-2.17 4.55,-3.69 6.98,-5.71 10.96,-11.48 10.96,-15.85 6.85,-47.92 1.57,-66.27 -1.63,-5.62 -2.93,-6.75 -4.76,-10.79l-4.63 0.67c3.26,10.28 5.4,16.88 7.32,28.25 1.29,7.62 5.2,23.17 1.56,29.71z"/>
   <path class="fil5" d="M178.35 376.16c-0.37,-5.03 -0.81,-8.16 -0.28,-13.31 0.46,-4.41 1.4,-6.87 2.06,-11.25 -0.8,-4.72 -2.44,-8.01 -4.1,-12.11l-10.08 -22.8c-2.03,-3.57 -4.09,-8.09 -1.96,-10.9 -1.37,-4.95 -3.43,-7.78 -5.78,-10.99 -1.03,-1.41 -6.48,-7.8 -7.53,-8.79l10.72 47.82c1.47,6.02 12.47,38.21 16.95,42.33z"/>
   <path class="fil1" d="M253.47 326.5c0.86,15.84 4.62,10.94 10.34,17.42 2.24,2.53 3.29,4.19 5.78,7.49 2.99,3.97 3.65,4.6 2.08,10.84 -9.56,1.52 -6.58,-0.79 -14.07,-3.99 1.12,3.32 2.3,6.53 3.67,8.79 1.42,-4.88 3.04,-0.91 4.21,1.7 1.1,2.48 1.43,5.12 4.24,7.27 3.37,2.58 12.27,1.66 18.42,3.94l-0.64 -3.75c-7.9,-3.44 -8.37,-9 -10.38,-15.05 -3.37,-10.11 7.59,-18.4 -2.8,-31.8 -1.14,-1.46 -0.62,-0.87 -1.45,-1.44 -6.36,3.17 -11.72,-0.45 -16.52,-2.4 -1.41,1.02 -0.13,0.13 -2.88,0.98z"/>
   <path class="fil3" d="M216.65 151.3c5.65,-1 21.92,-15.29 26.19,-18.01 2.17,-1.38 4.55,-2.64 6.58,-4.63 9.97,-9.78 0.39,-7.27 8.38,-14.18 2.74,-2.37 4.15,-2.53 4.81,-6.83 -0.85,-0.37 0,-0.44 -2.57,-0.7 -1.24,-0.13 -1.4,-0.16 -2.65,-0.01 -1.81,0.22 -2.43,0.77 -4.18,1.4 -0.53,-4.47 -0.7,-3.25 0.67,-6.87 -5.77,1.42 -12.54,11.46 -16.68,15.98 -4.62,5.06 -10.57,12.28 -14.12,18.73 -1.34,2.43 -3.01,5.38 -3.79,7.48 -0.9,2.4 -1.51,5.41 -2.64,7.64z"/>
   <path class="fil9" d="M225.41 251.44c-5.22,-5.42 11.35,-29.65 15.85,-35.66 2.13,-2.84 0.31,-0.61 2.53,-2.56 5.06,-4.43 8.75,-8.68 16.16,-5.61 -1.74,-4.6 -3.89,-0.57 -2.9,-7.5 0.43,-3.04 2.12,-5.83 4.22,-7.1l-2.35 -1.58 -11.39 14.26c-2.03,2.6 -0.49,0.71 -2.45,2.67l-14.16 16.6c-6.31,8.01 -18.38,28.82 -23.44,38.03 -7.45,13.54 -12.69,22.23 -3.66,28.3l16.05 -29.34c2.24,-3.67 3.78,-6.88 5.54,-10.51z"/>
   <path class="fil4" d="M317.52 88.45c-3.52,4.33 -3.39,11.49 -7.89,15.22 2.29,2.9 4.48,6.91 7.58,8.08 4.04,-0.79 4.57,-2.42 6.81,-4.88 4.1,-4.52 6.97,-11.89 9.9,-17.66 0.03,-0.07 1.04,-1.97 1.05,-1.97 2.03,-3.51 12.57,-30.47 12.31,-32.81 -4.61,0.28 -2.85,0.62 -8.47,7.82 -2.2,2.83 -4.02,5.29 -6.75,8.67 -2.84,3.51 -4.62,2.48 -8.12,8.19 -1.81,2.95 -3.73,7 -6.42,9.34z"/>
   <path class="fil9" d="M31.47 108.43l7.47 -20.04c11.46,-26.62 17.25,-20.21 13.86,-38.84l-4.62 -22.95c-3.6,13 -8.26,23.67 -11.15,38.24 -2.09,10.56 -6.3,33.11 -5.56,43.59z"/>
   <path class="fil4" d="M225.41 251.44c2.72,-1.81 7.07,-9.99 8.72,-12.98 1.84,-3.33 3.18,-4.15 4.85,-6.48 1.57,-2.19 2.98,-4.44 5.1,-7.19 2.12,-2.73 3.16,-3.85 6.03,-5.34 18.67,-9.67 8.78,-4.1 24.58,-0.35 -0.12,-3.33 -3.41,-11.18 -4.58,-14.62 -3.61,-10.55 -1.31,-6.59 -8.84,-11.47 -2.1,1.27 -3.79,4.06 -4.22,7.1 -0.99,6.93 1.16,2.9 2.9,7.5 -7.41,-3.07 -11.1,1.18 -16.16,5.61 -2.22,1.95 -0.4,-0.28 -2.53,2.56 -4.5,6.01 -21.07,30.24 -15.85,35.66z"/>
   <path class="fil4" d="M286.37 109.25c0.01,14.4 0.38,11.54 1.57,24 0.9,9.4 -1.24,16.02 0.92,25.79 11.39,0.76 9.69,-8.5 9.22,-18.59 -0.2,-4.41 -0.06,-8.65 0.87,-12.74 1.38,-6.11 -0.44,-8.46 0.24,-13.92 -2.41,-5.45 -5.1,-17.67 -6.42,-23.45 -2.35,4.83 -5.99,12.44 -6.4,18.91z"/>
   <path class="fil1" d="M302.16 335.52c1.36,0.66 3.73,2.7 4.46,3.54 2.53,2.89 1.67,-0.69 1.82,4.72 3.23,-0.07 1.99,-0.63 4.66,0.55 4.67,2.05 1.26,-0.19 3.47,3.19 -2.48,2.3 3.93,2.11 -5.11,1.99 7.12,1.37 8.93,2.92 13.22,8.3 1.86,2.32 -0.13,-1.03 1.75,2.44 3.2,5.89 4.35,22.31 -10.52,29.89 5.15,0.77 7.58,-0.86 10.74,-2.79 6.1,-3.73 3.65,-0.53 7.85,-6.52 1.92,-2.74 3.92,-5.77 3.99,-10.78 0.08,-6.37 -2.56,-6.49 -4.15,-11.52l-2.06 -5.17c-4.55,-7.41 -8.33,-16.49 -17.59,-19.25 -3.9,-1.16 -9.47,-1.42 -12.53,1.41z"/>
   <path class="fil4" d="M406.6 27.85c-3.17,10.03 14.52,-1.48 18.85,-2.04 4.71,-0.61 10.81,0.62 13.27,1.7 8.92,3.9 14.66,21.79 17.83,30.44l8.56 23.81 -0.06 -6.57c1.49,-19.41 -9.73,-32.34 -16.24,-48.46 -9.85,-24.38 -8.49,-9.94 -24.98,-5.48 -5.35,1.45 -13.78,3.47 -17.23,6.6z"/>
   <path class="fil5" d="M399.48 45.95l3.29 6.35c3.95,0.84 2.36,-0.45 6.72,-1.7 2.24,-1.86 10.34,-5.07 13.64,-6.6 17.43,-8.08 21,23.02 28.76,30.5 0.98,-0.83 1.4,-1.13 3.3,-2 -2.91,-7.26 -3.85,-13.74 -6.62,-21.03 -2.36,-6.22 -3.76,-8.96 -7.98,-13.53 -1.5,-1.64 -1.11,-1.31 -3.28,-2.74 -8.04,-5.3 -11.79,-1.86 -19.23,1.86 -6.65,3.32 -12.58,6.04 -18.6,8.89z"/>
   <path class="fil4" d="M305.28 456.34c2.14,0.39 1.34,-0.24 2.83,1.02 -0.03,4.78 -2.71,8.83 -5.08,11.9 -3.23,4.17 -4.37,6.58 -10.73,6.77l0.85 1.75c6.71,2 12.34,-1.04 18.18,-3.35 7.11,-2.81 7.76,-6.44 13.85,-8.66l0.46 -4.73 -4.26 -4.87c2.12,-4.68 4.74,-6.78 7.71,-9 4.22,-3.16 8.77,-3 10.68,-4.97 -1.74,-2.49 -2.94,-3.15 -9.92,-1.63 -11.79,2.56 -14.56,5.47 -21.37,12.55l-3.2 3.22z"/>
   <path class="fil5" d="M80 255.34c0.54,3.1 1.22,1.41 3.69,4.46 6.17,7.64 -0.45,23.91 7.79,30.88 1.83,1.54 2.39,2.76 5.21,2.11 5.31,-1.23 1.34,0.88 3.82,-3.37 0.99,-3.1 3.74,-7.9 2.98,-10.92 -1.27,-5.11 -4.18,-3.8 -6.16,-8.98 -2.59,-6.75 -3.16,-19.11 -5.24,-25.73 -5.82,-0.33 -11.58,10.05 -12.09,11.55z"/>
   <path class="fil5" d="M172.03 305.97l4.18 10.8 11.01 7.39c2.46,0.78 3.93,0.16 5.83,-0.53l6.73 -3.79c0.77,-9.41 1.91,-8.82 -2.85,-16.72 -3.17,-5.28 -5.39,-9.98 -10.22,-12.62 2.85,6.3 1.35,5.15 -1.34,10.01 -1.62,0.03 -5.54,-0.64 -7.22,-1.05 -1.8,-0.45 -1.7,-0.35 -3.02,-1.07 -3.37,-1.83 -1.08,-0.52 -1.22,-1.28 1.43,3.4 2.62,8.76 -1.88,8.86z"/>
   <path class="fil3" d="M218.03 300.6c3.99,2.52 2.35,3.75 2.99,9 0.57,4.57 1.47,6.11 4.93,7.79l-1.73 2.02c-0.66,3.76 -2.21,3.87 -6.62,2.32 -2.07,-0.73 -4.13,-2.5 -6.84,-3.5 -2.05,3.23 -3.4,9.79 -3.7,13.91 5.4,0 6.61,0.93 8.8,4.36 1.35,2.13 3.19,6.31 4.35,8.8l11.3 -23.72c-4.13,-1.46 -0.62,-2.96 -0.55,-9.31 0.03,-3.14 -2.25,-3.51 -3.7,-7.72 -2.22,-6.48 3.96,-11.93 5.07,-17.89 -6.73,3.43 -11.21,7.52 -14.3,13.94z"/>
   <path class="fil9" d="M326.47 160.81l0.69 -1.89c0.04,-0.16 0.1,-0.5 0.14,-0.69l1.49 -8.45 10.34 6.41c5.21,-3.05 5.1,-5.92 3.48,-12.59 -1.49,-2.74 -19.13,-17.74 -23.64,-20.93l-4.28 -2.61c-0.22,-0.13 -0.57,-0.31 -0.85,-0.48 0.83,6.15 10.13,36.37 12.63,41.23z"/>
   <path class="fil3" d="M228.5 103.42c-6.36,3.73 -13.79,14.56 -17.79,21.24 -2.8,4.67 -4.1,8.84 -6.61,12.97 -3.57,5.86 -3.1,7.19 -1.55,13.8 4.17,-4.16 17.89,-26.18 28.2,-36.23 0.94,-0.91 2.11,-2.65 3.2,-4.06l14.14 -14.63c2.15,-2.11 6.76,-4.25 4.78,-8.16 -1.38,2.83 -3.06,2.76 -5.64,5.31 -2.46,2.44 -2.81,4.21 -4.83,6.43 -3.72,4.08 -7.16,5.28 -13.9,5.39l0 -2.06z"/>
   <path class="fil0" d="M465.21 326.18l10.05 -1.29c4.49,-0.49 5.95,-1.84 8.55,-5.87 -4.49,2.6 -6.93,-0.33 -13.07,0.16 -9.44,0.74 -16.08,0.91 -23.21,5.56 -3.52,2.3 -4.11,4.79 -8.19,8.29 -6.83,5.87 -10.43,5.33 -16.77,9.79 -6.48,4.56 -15.99,10.02 -18.13,17.99 6.03,-0.03 9.39,-5.98 14.75,-8.99l15.47 -8.27c12.82,-6.55 15.32,-18.37 30.55,-17.37z"/>
   <path class="fil1" d="M266.67 483.95l-1.49 14.07c3.03,0.83 5.68,2.88 7.69,4.98 3.7,3.87 12.8,14.22 19.07,0.25 4.68,-10.45 5.32,-13.06 0.26,-17.59 -3.27,-2.92 -3.83,-4.41 -8.42,-4.99 -0.13,0.23 -0.21,0.37 -0.24,0.76l-0.44 3.02c-0.54,7.24 -5.86,19.96 -10.64,6.93 -1.74,-4.74 -1.58,-5.17 -5.79,-7.43z"/>
   <path class="fil3" d="M180.13 351.6l3.72 -5.57c1.88,-3.15 1.69,-3.72 4.21,-6.13 7.28,-6.98 1.03,-3.16 10.41,-8.78l1.31 -11.28 -6.73 3.79c-1.9,0.69 -3.37,1.31 -5.83,0.53l-11.01 -7.39 4.69 12.05c-10.84,0.1 -11.5,-16.21 -16.91,-23.03 -2.13,2.81 -0.07,7.33 1.96,10.9l10.08 22.8c1.66,4.1 3.3,7.39 4.1,12.11z"/>
   <path class="fil8" d="M35.61 108.32c3.5,5.04 0.08,13.21 0.85,21.94 1.3,-1.29 0.78,-0.65 1.9,-2.42 1.78,-2.82 3.46,-9.76 10.19,-20.68 1.39,-2.26 0.67,-0.99 1.88,-3.32 4.13,-7.92 5.3,-7.04 7.6,-11.89 2.98,-6.26 -0.2,-10.52 -0.56,-17.18 -6.13,3.4 -9.06,7.39 -12.37,14.69 -1.76,3.88 -2.64,5.49 -4.21,8.93 -1.6,3.5 -3.83,6.56 -5.28,9.93z"/>
   <path class="fil3" d="M207.57 185.96c-5.72,-3.28 -5.57,-9.21 -5.39,-15.45 4.42,-1.43 4.15,-0.41 5.74,-3.72 -10.23,1.39 -7.1,-0.77 -11.74,8.06 -3.13,5.96 -11.87,16.53 -13.11,18.63 -4.46,7.52 -5.97,16.97 -7.38,25.53 1.43,-0.85 0.19,-0.19 1.44,-1.71 6.97,-8.5 3.36,-6.65 12.88,-15.85 2.91,-2.81 4.79,-5.01 8.23,-8.15l7.08 -5.23c2.21,-1.77 0.98,-0.62 2.25,-2.11z"/>
   <path class="fil5" d="M73.89 215.23c-0.68,4.64 -0.17,31.68 1.9,33.88 3.93,-0.34 11.77,-14.16 11.84,-20.6 0.02,-2.37 -1.66,-10.83 -2.31,-13.61 -2.6,-11.29 -0.19,-5.44 1.2,-14.35 -5.98,0.39 -5.1,1.56 -8.07,6.23 -2.09,3.29 -3.65,5.06 -4.56,8.45z"/>
   <path class="fil1" d="M301.23 448.05c0.94,2.98 1.75,2.18 -0.09,5.94 -1.64,3.35 0.15,0.18 -1.63,1.77l-6.35 4.86c-0.17,0.11 -0.64,0.64 -0.76,0.43 -0.13,-0.22 -0.54,0.25 -0.79,0.41 4.57,-0.67 8.24,-2.58 12.36,-1.19l1.31 -3.93 3.2 -3.22c6.81,-7.08 9.58,-9.99 21.37,-12.55 6.98,-1.52 8.18,-0.86 9.92,1.63l1.33 0.64c-0.47,-6.19 -1.13,-5.93 -2.67,-10.54 -1.45,-4.33 -0.8,-7.22 -3.4,-10 -4.55,2.88 -7.63,20.74 -28.35,18.95 -0.59,-3.92 -1.65,-5.28 -0.77,-10.22 0.76,-4.28 1.37,-5.63 1.03,-10.25 -7.27,4.08 -5.17,14.43 -2.24,21.64 1.8,4.4 3.98,3.01 1.21,8.31l-4.68 -2.68z"/>
   <path class="fil4" d="M363.51 23.52c1.09,7.26 4.68,11.95 7.88,18.08 1.34,2.56 2.97,5.35 4.67,8.54 2.34,4.37 3.97,4.67 4.52,9.53 5.42,2.07 13.57,8.27 16.46,12.81 -2.91,-11.77 -14.94,-29.82 -20.69,-39.98 -2.59,-4.59 -4.81,-10 -7.43,-13.84 -3.07,1.89 -2.93,2.34 -5.41,4.86z"/>
   <path class="fil5" d="M232.33 286.66c-1.11,5.96 -7.29,11.41 -5.07,17.89 1.45,4.21 3.73,4.58 3.7,7.72 -0.07,6.35 -3.58,7.85 0.55,9.31 5.54,-8.3 4.97,-7.63 12.04,-14.17l-2.8 -0.89c0.66,-4.13 0.74,-9.53 2.48,-12.9 2.36,-4.59 2.89,-8.37 4.68,-13.25 -6.58,0.96 -11.86,2.73 -15.58,6.29z"/>
   <path class="fil0" d="M370.79 88.04l37.4 65.46c-1.47,-3.02 -3.72,-9.88 -5.37,-14.23 -1.85,-4.88 -4.29,-9 -5.78,-14.1 -0.02,-0.02 -13.68,-31.02 -21.7,-42.49 -1.31,-1.88 -7.81,-10.34 -10.68,-10.2 -4.66,3.96 3.94,10.92 6.13,15.56z"/>
   <path class="fil1" d="M334.61 393.64c4.89,10.17 6.02,18.93 8.22,24.9l2.51 3.82c2.81,2.72 -0.91,0.57 3.29,2.36 7.92,-28.01 5.59,-23.46 -2.78,-36.83 -1.52,-2.42 -0.98,-2.39 -2.62,-4.67l-1.64 1.53c-2.15,2.65 -2.8,5.18 -6.98,8.89z"/>
   <path class="fil2" d="M263.26 305.07c4.44,1.39 0.89,1.03 5.15,1.85 3.05,0.59 4.66,0.31 7.63,-0.04 1.75,-4.57 3.58,-7.67 4.5,-13.35 1.42,-8.78 -1.32,-8.49 -2.16,-13.94l-13.16 -0.3c-0.36,9.87 -0.29,17.49 -3.59,25.17l1.63 0.61z"/>
   <path class="fil1" d="M325.64 461.04l-0.46 4.73c-6.09,2.22 -6.74,5.85 -13.85,8.66 -5.84,2.31 -11.47,5.35 -18.18,3.35 1.7,2.49 8.03,8.79 10.58,9.75 4.82,1.81 12.95,0.62 16.48,-2.09 3.66,-2.82 10.21,-22.48 11.77,-28.51 -2.48,1.28 -3.68,1.78 -6.34,4.11z"/>
   <path class="fil4" d="M204.22 249.23c0.98,-1.53 1.95,-2.47 2.93,-3.96 1.17,-1.79 1.57,-3 3.15,-5.07 2.57,-3.41 5.12,-5.89 6.56,-9.74 1.36,-2.58 2.21,-1.97 0.49,-5.06 -0.11,-0.22 -1.99,-1.84 -2.16,-1.94 -1.03,-0.6 -0.33,-0.42 -2.28,-0.79 -8.84,-0.14 -6.16,5.23 -15.81,13.61 -12.74,11.09 -3.01,13.54 2.62,16.2l4.5 -3.25z"/>
   <path class="fil9" d="M193.14 375.09c-7.33,-2.1 -3.2,-3.73 -4.56,-8.89l-0.48 -1.11c-1.15,-2.08 1.83,2.58 -0.92,-1.21l-1.17 -1.39c-4.53,11.68 -1.85,34.21 13.14,41.96 3.78,1.95 10.54,5.75 13.86,6.52 0.7,-3.16 1.22,-3.52 -0.51,-6.32 -3.22,-5.23 -18.76,-4.85 -19.36,-29.56z"/>
   <path class="fil1" d="M413.28 388.48c-5.76,0.06 -11.4,3.61 -14.36,-10.57 -10.54,-0.66 -9.45,-3.95 -10.05,-6.22 -2.01,1.59 -2.48,4.46 -2.54,7.59 -0.1,5.76 5.9,19.24 8.22,24.53l5.45 0.04 13.28 -15.37z"/>
   <path class="fil2" d="M360.43 277.1c3.84,2.06 3.24,1.04 7.86,2.28 3.76,9.82 2,8.04 3.72,13.73l0.98 2.52c2.76,-10.01 9.49,-31.92 7.96,-42.27 -8.91,-1.5 -5.96,0.67 -11.07,10.09l-8.92 12.99c-0.12,0.15 -0.36,0.43 -0.53,0.66z"/>
   <path class="fil5" d="M465.21 326.18c-2.79,3.71 -3.87,7.45 -6.07,10.1 -3.49,4.21 -5.21,4.13 -9.56,6.95 -10.35,6.7 -6.02,12.32 3.34,16.32 3.42,-0.32 3.99,-0.73 6.33,-2.77l-3.22 -1.02c0.67,-6.89 5.14,-12.85 8.81,-15.7 5.58,-4.33 9.29,-5.11 10.42,-15.17l-10.05 1.29z"/>
   <path class="fil10" d="M319.44 362.89c-0.21,-0.17 -6.23,-9.55 -15.12,-5.05 -7.92,4 -3.47,24.33 1.2,25.31 3.66,0.76 1.69,0.12 3.99,-1.56l3.07 -2.15c3.11,-2.06 3.31,-1.59 4.44,-7.13 0.49,-2.39 0.29,-3.09 0.75,-5.11 1.03,-4.53 0.36,-0.25 1.67,-4.31z"/>
   <path class="fil0" d="M483.81 319.02c3.64,-6.54 -0.27,-22.09 -1.56,-29.71 -1.92,-11.37 -4.06,-17.97 -7.32,-28.25 -0.31,-0.41 -2.09,-5 -4.19,-7.21 -2.86,-2.99 -4.44,-3.36 -7,-6.91 -3.14,-1.82 -5.86,-5.94 -11.73,-6.88l-1.09 5.03c4.92,3.34 3.28,0.1 7.77,5.41 12.15,14.38 10.62,2.06 15.59,24.46 0.71,3.19 1.45,7.39 2.73,10.64 3.54,9.03 5.72,23.37 6.8,33.42z"/>
   <path class="fil3" d="M240.61 368.83c5.92,0.68 6.77,3.14 4.79,14.33 -0.82,4.59 -2.82,10.25 -4.73,13.53 -5.2,8.93 -11.96,4.83 -18.04,20.44 10.17,-2.32 11.44,-11.03 18.27,-15.12 16.21,-9.73 12.14,-14.74 11.19,-30.96 -0.25,-4.37 0.08,-5.87 -0.69,-10.7 0.18,6.61 -5.81,6.86 -10.79,8.48z"/>
   <path class="fil5" d="M381.08 182.46c-0.88,-2.01 -4.28,-6.99 -6.05,-9.3 -5.4,-7.04 -13.93,-13.01 -19.47,-19.48 -2.31,-2.7 -1.28,-1.92 -4.96,-3.32 -1.29,5.24 -1.35,5.69 -3.41,9.57 2.78,2.74 5.42,4.29 8.14,6.36l16.32 14.49c3.53,2.91 4.67,4.85 7.26,4.05 3.12,-0.96 1.43,0.92 2.17,-2.37z"/>
   <path class="fil6" d="M183.06 455.89l3.16 0.52c0.15,-0.25 0.49,0.3 0.75,0.42 0.76,4.95 -1.15,24.47 -7.73,26.87 1.16,1.92 15.88,17.97 22.02,19.35 -9.08,-20.33 -9.49,-24.26 -10.18,-48.59l-8.02 1.43z"/>
   <path class="fil1" d="M367.11 446.05c1.51,-7.2 2.25,-9.95 -0.1,-17.85 -0.94,-3.16 -4.08,-11.82 -3.61,-13.36l-3.56 -6.07c-4.63,4.98 1.93,7.28 -7.07,30.13 1.44,1.6 9.28,7.85 11.81,9.65l2.53 -2.5z"/>
   <path class="fil3" d="M199.04 214.26c-3.66,-1.13 -2.15,-0.39 -3.94,-2.54 -0.19,-0.23 -0.64,-1 -0.8,-1.23l-1.68 -2.49c-6.69,3.3 -13.44,20.42 -15.3,22.82l-2.15 1.98c-2.53,2.07 -1.62,11.73 -1.75,15.32 2.15,-1.15 4.66,-5.32 6.38,-7.63 2.66,-3.57 3.13,-5.25 6.35,-9.08 2.42,-2.87 3.65,-5.06 6.06,-8.25 2.35,-3.11 4.59,-5.27 6.83,-8.9z"/>
   <path class="fil4" d="M420.34 136.87c-0.77,-6.85 -17.03,-51.04 -19.74,-54.82 -1.29,-1.8 -4.34,-4.86 -6.06,-6.21 -3.32,-2.61 -5.23,-2.49 -7.65,-5.37l8.36 16.92c4.64,10.73 3.33,-1.2 9.51,16.17l10.91 28.05c0.57,1.27 1.09,2.81 2.09,4.24 2.8,4.01 1.02,3.69 2.58,1.02z"/>
   <path class="fil4" d="M311.46 349.51c9.04,0.12 2.63,0.31 5.11,-1.99 -2.21,-3.38 1.2,-1.14 -3.47,-3.19 -2.67,-1.18 -1.43,-0.62 -4.66,-0.55 -16.23,0.02 -14.08,6.09 -21.19,9.13 0.47,-7.51 2.07,-8.95 5.48,-12.72l-0.49 -2.7c-3.06,-0.15 -6.53,-2.11 -9.08,10.32 -0.64,3.11 -0.98,11.41 0.23,14.51 2.1,5.41 0.15,1.5 2.44,3.2 5.72,-4.33 -1.48,-5.36 9.87,-12.1 4.57,-2.72 7.98,-5.51 15.76,-3.91z"/>
   <path class="fil4" d="M190.82 350.65l-4.81 11.84 1.17 1.39c2.75,3.79 -0.23,-0.87 0.92,1.21l0.48 1.11c1.36,5.16 -2.77,6.79 4.56,8.89 -0.15,-7.7 -0.1,-8.46 5.24,-11.47l1.88 -1.1c0.17,-0.12 0.39,-0.31 0.56,-0.43 3.17,-2.08 0.74,-1.82 5.8,-2.29 -1.43,-7.63 2.19,-10.83 -4.04,-11.92 -2.03,-0.36 -4.21,-0.01 -5.96,0.49 -2.89,0.83 -1.41,0.54 -3.15,1.24 -0.5,0.21 -0.66,2.37 -1.74,0.7 -0.17,-0.26 -0.6,0.26 -0.91,0.34z"/>
   <path class="fil3" d="M256.35 274.27c-3.87,-0.39 -3.67,-1.05 -6.59,-2.38 -0.44,-8.03 -1.19,-12.65 3.46,-13.77 5.4,-1.31 3.5,-0.34 4.93,1.25 -1.13,-6.66 -16.92,2.3 -18.27,3.25 -6.27,4.38 -8.88,8.38 -8.69,18.49 7.14,-0.13 6.25,-1.57 12.18,-3.68 4.72,-1.67 8.9,-1.78 12.98,-3.16z"/>
   <path class="fil2" d="M179.24 483.7c6.58,-2.4 8.49,-21.92 7.73,-26.87 -0.26,-0.12 -0.6,-0.67 -0.75,-0.42l-3.16 -0.52 -8.67 2.6c-0.33,4.85 -1.8,10.44 -1.04,14.72 0.7,3.93 3.21,7.96 5.89,10.49z"/>
   <path class="fil11" d="M291.61 461.46c0.25,-0.16 0.66,-0.63 0.79,-0.41 0.12,0.21 0.59,-0.32 0.76,-0.43l6.35 -4.86c1.78,-1.59 -0.01,1.58 1.63,-1.77 1.84,-3.76 1.03,-2.96 0.09,-5.94 -2.33,-3.44 -4.89,-6.24 -8.3,-8.25 -4.14,-2.45 -4.87,-4.81 -10.6,-4.55 -0.81,4.71 6.94,23.78 9.28,26.21z"/>
   <path class="fil9" d="M367.11 446.05c6.18,-1.06 10.74,0.69 17.29,1.37 -0.73,-9.08 -12.1,-23.73 -18.99,-30.83 -1.19,-1.22 -1,-1.15 -2.01,-1.75 -0.47,1.54 2.67,10.2 3.61,13.36 2.35,7.9 1.61,10.65 0.1,17.85z"/>
   <path class="fil6" d="M372.99 295.63l-0.98 -2.52c-1.72,-5.69 0.04,-3.91 -3.72,-13.73 -4.62,-1.24 -4.02,-0.22 -7.86,-2.28 -0.51,2.62 3.3,37.25 4.33,39.48l8.23 -20.95z"/>
   <path class="fil3" d="M356.53 139.62l1 2.23c-0.93,-2.64 -0.51,-0.45 1.12,-1.35l5.02 3.54c5.33,-2.16 9.7,-5.34 6.22,-12.8 -2.11,-3.98 -11.36,-12.27 -14.95,-15.72l-3.75 1.36c2.63,4.09 2.07,6.74 4.39,11.27 2.69,5.22 3.17,4.52 0.95,11.47z"/>
   <path class="fil4" d="M183.06 426.71c-2.19,4.56 -5.99,14.4 -5.97,18.97l11.76 -1.61c0.94,-4.26 5.42,-10.25 7.2,-13.57 -0.69,-3.84 -1.37,-1.51 -1.94,-5.09 -0.45,-2.8 0.65,-2.86 -0.48,-6.03 -9.19,0.4 -1.58,5.58 -10.57,7.33z"/>
   <path class="fil6" d="M368.75 454.12c-0.3,4.72 0.77,8.64 0.58,13.37 -0.2,5.07 -1.91,6.9 -2.05,12.48 6.89,-0.15 5.87,-0.3 8.68,-5.44 1.85,-3.4 3.45,-4.92 4.57,-8.95 2.88,-10.32 -1.42,-15.69 -11.78,-11.46z"/>
   <path class="fil4" d="M59.29 176.79c3.87,-5.37 10.28,-28.01 6.07,-40.43 -1.26,2.33 -2.87,6.37 -4.61,8.61 -5.94,7.65 -3.58,11.6 -4.67,23.03 -0.45,4.75 -2.39,7.48 3.21,8.79z"/>
   <path class="fil1" d="M284.94 273.17c5.65,0.72 6.24,4.55 15.6,6.77 -0.1,-4.18 -6.82,-16.53 -9.24,-19.9 -5.22,-7.27 -22.23,-4.78 -23.43,-3.16 5.65,-2.27 8.31,1.04 11.45,3.84 4.54,4.06 5.07,5.1 5.62,12.45z"/>
   <path class="fil4" d="M207.92 166.79c-1.59,3.31 -1.32,2.29 -5.74,3.72 -0.18,6.24 -0.33,12.17 5.39,15.45 1.95,-2.32 2.1,-1.6 4.46,-3.56 1.31,-1.08 2.44,-2.07 3.66,-3.6 1.88,-5.67 6.22,-7.58 3.95,-14.2l-5.3 -0.43c-3.79,0.48 -4.92,0.21 -6.42,2.62z"/>
   <path class="fil9" d="M284.94 273.17c-0.55,-7.35 -1.08,-8.39 -5.62,-12.45 -3.14,-2.8 -5.8,-6.11 -11.45,-3.84l-4.29 0.52c-0.09,5.35 2.3,0.03 1.83,6.22 -0.31,4.02 -1.89,4 -0.83,8.68 9.46,0.79 7.27,-3.54 20.36,0.87z"/>
   <path class="fil2" d="M168.33 295.19l3.7 10.78c4.5,-0.1 3.31,-5.46 1.88,-8.86 0.14,0.76 -2.15,-0.55 1.22,1.28 1.32,0.72 1.22,0.62 3.02,1.07 1.68,0.41 5.6,1.08 7.22,1.05 2.69,-4.86 4.19,-3.71 1.34,-10.01 -0.96,-2.56 -2.05,-3.69 -4.48,-5.32l-4.81 1.12c-11.58,1.03 -5.21,3.64 -9.09,8.89z"/>
   <path class="fil4" d="M247.91 280.37c-1.79,4.88 -2.32,8.66 -4.68,13.25 -1.74,3.37 -1.82,8.77 -2.48,12.9l2.8 0.89 7.95 -2.59c-0.23,-15.84 2.44,-16.16 4.26,-24.62 -3.21,-1.46 -3.34,-0.49 -7.85,0.17z"/>
   <path class="fil12" d="M270.46 463.18c3.87,-3.24 0.15,-1.36 4.09,-3.15 2.8,2.6 4.83,7.97 6.18,11.75 9.42,-4.62 4.98,-3.13 -2.95,-27.88 -1.45,-4.52 0.24,-2.58 -3.28,-4.54 -0.49,6.64 -1.48,6.28 -2.44,10.91 -0.78,3.79 -1.03,8.89 -1.6,12.91z"/>
   <path class="fil5" d="M190.82 350.65c0.31,-0.08 0.74,-0.6 0.91,-0.34 1.08,1.67 1.24,-0.49 1.74,-0.7 1.74,-0.7 0.26,-0.41 3.15,-1.24 1.75,-0.5 3.93,-0.85 5.96,-0.49 6.23,1.09 2.61,4.29 4.04,11.92 7.16,-0.06 6.09,3.99 13.21,3.74 0.3,-6.1 -7.94,-13.94 -11.34,-17.61 -7.69,-8.31 -13.56,-5.7 -17.67,4.72z"/>
   <path class="fil4" d="M224.64 468c5.55,4.97 26.02,12.16 32.49,12.24l1 -2.62c-1.42,-4.35 -4.43,-6.07 -8.1,-8.28 -4.21,0.37 -8.26,-0.41 -11.71,-1.41 -7.09,-2.06 -6.36,-0.46 -13.68,0.07z"/>
   <path class="fil12" d="M250.4 447.43c3.72,1.13 2.52,-1.8 3.67,3.71 1.13,5.44 -1.2,11.02 -3.07,15.77 10.68,-2.56 7.72,3.34 9.13,-10.71 0.58,-5.82 2.1,-14.16 -0.95,-19.3 -6.46,-0.74 -5.98,4.86 -8.78,10.53z"/>
   <path class="fil11" d="M252.58 423.87c2.13,-0.69 5.28,-1.66 6.98,-3.22 2.21,-2.04 1.38,-3.57 5.04,-5.35l-2.43 -11.14c-6.79,0.11 -4.35,-0.16 -10.64,3.14l-1.32 0.7c-0.01,5.38 -0.27,11.96 2.37,15.87z"/>
   <path class="fil13" d="M239.7 464.66c-3.71,-1.23 -3.71,-1.52 -8.15,-1.36 -6.23,0.22 -5.9,0.22 -6.91,4.7 7.32,-0.53 6.59,-2.13 13.68,-0.07 3.45,1 7.5,1.78 11.71,1.41 -0.75,-0.53 -0.76,-1.45 -1.41,-2.19l2.38 -0.24c1.87,-4.75 4.2,-10.33 3.07,-15.77 -1.15,-5.51 0.05,-2.58 -3.67,-3.71 -1.46,6.32 -3.46,9.03 -4.98,13.4l-2.1 5.19c-3.65,0.27 -1.14,0.79 -3.62,-1.36z"/>
   <path class="fil4" d="M228.5 103.42l0 2.06c6.74,-0.11 10.18,-1.31 13.9,-5.39 2.02,-2.22 2.37,-3.99 4.83,-6.43 2.58,-2.55 4.26,-2.48 5.64,-5.31 0.52,-3.91 1.53,-4.47 0.44,-7.35 -1.75,-0.58 1.51,-1.95 -6.27,4.25l-12.55 12.05c-2.22,2.09 -4.35,4.93 -5.99,6.12z"/>
   <path class="fil14" d="M210.17 389.38c3.13,2.05 5.7,1.41 9.91,1.52 -0.37,-8.91 -4.71,-16.52 -10.98,-19.84 -0.05,4.83 -3.68,6.33 -5.48,10.28 2.59,5.79 2.48,5.19 6.56,6.89 0.24,0.1 0.57,0.2 0.79,0.3 0.23,0.1 0.6,0.28 0.78,0.36l-1.58 0.49z"/>
   <path class="fil1" d="M371.48 357.45c3.79,-4.13 2.87,-6.07 4.87,-10.58 2.33,-5.24 5.94,-8.2 5.95,-9.6 -1.08,-3.56 -4.86,-11.66 -7.22,-14.45 -1.71,12.72 -6.46,19.98 -3.6,34.63z"/>
   <path class="fil2" d="M249.21 314.29c3.98,-0.48 4.85,1.42 6.79,3.2l0.35 8.03c4.8,1.95 10.16,5.57 16.52,2.4 -1.14,-3.11 -6.18,-9.29 -7.95,-10.74 -5.48,-4.49 -4.72,-5.27 -12.92,-5.28 -2.41,0.91 -1.55,0.59 -2.79,2.39z"/>
   <path class="fil4" d="M202.94 197.01c-2.59,1.51 -9.03,8.2 -10.32,10.99l1.68 2.49c0.16,0.23 0.61,1 0.8,1.23 1.79,2.15 0.28,1.41 3.94,2.54 4.57,-2 6.05,-8.38 11.16,-11.15 0.29,-4.1 0.91,-3.02 -0.79,-6.67 -3.43,-0.72 -3.61,-0.27 -6.47,0.57z"/>
   <path class="fil5" d="M196.05 430.5c-1.78,3.32 -6.26,9.31 -7.2,13.57 12.23,-3.03 1.95,0.7 15.48,-10.95 3.33,-2.86 1.52,-2.05 4.07,-5.08 -4.13,-4.42 -1.55,-5.12 -8.03,-7.83 -0.54,1.9 -0.81,3.08 -1.48,5.31 -1.27,4.23 0.03,2.37 -2.84,4.98z"/>
   <path class="fil5" d="M325.64 461.04c2.66,-2.33 3.86,-2.83 6.34,-4.11 2.76,-2.59 10.24,-8.43 9.12,-14.09l-1.33 -0.64c-1.91,1.97 -6.46,1.81 -10.68,4.97 -2.97,2.22 -5.59,4.32 -7.71,9l4.26 4.87z"/>
   <path class="fil13" d="M267.12 470.58c3.87,-0.56 2.17,2.27 3.17,-3.12 0.08,-0.43 0.12,-3.56 0.17,-4.28 0.57,-4.02 0.82,-9.12 1.6,-12.91 0.96,-4.63 1.95,-4.27 2.44,-10.91l-1.62 -3.3c-0.59,0.42 -0.88,0.44 -0.97,0.8 -0.08,0.32 -2.6,1.9 -3.87,5.82 -0.61,1.92 -1.31,6.24 -1.61,8.59 -0.67,5.43 -1.66,15.11 0.69,19.31z"/>
   <path class="fil8" d="M256.35 274.27c4.89,-2.56 4.42,-4.29 5.51,-9.78 -0.2,-0.23 -0.57,-0.79 -0.68,-0.59 -0.01,0 -2.74,-1.77 -3.03,-4.53 -1.43,-1.59 0.47,-2.56 -4.93,-1.25 -4.65,1.12 -3.9,5.74 -3.46,13.77 2.92,1.33 2.72,1.99 6.59,2.38z"/>
   <path class="fil2" d="M347.57 29.43c-1.95,0.86 -0.78,0.01 -2.29,1.2 -1.27,1.01 -1.16,1.19 -2.05,2.28 -3.23,3.96 1.59,1.32 -4.1,3.23 1.69,3.79 9.11,2.83 14.1,7.74 0.2,-0.17 0.47,-0.76 0.54,-0.59 0.03,0.06 8.35,-11.67 3.88,-13.55 -2.03,0.25 -3.57,1.93 -6.22,3.38 -1.68,-0.98 -0.43,-0.03 -1.89,-1.42 -0.81,-0.77 -1.24,-1.43 -1.97,-2.27z"/>
   <path class="fil5" d="M292.73 340.19c-3.41,3.77 -5.01,5.21 -5.48,12.72 7.11,-3.04 4.96,-9.11 21.19,-9.13 -0.15,-5.41 0.71,-1.83 -1.82,-4.72 -0.73,-0.84 -3.1,-2.88 -4.46,-3.54 -3.51,0.03 -1.65,-0.24 -5.03,1.76 -2.85,1.68 -1.93,1.53 -4.4,2.91z"/>
   <path class="fil2" d="M183.06 426.71c8.99,-1.75 1.38,-6.93 10.57,-7.33 1.13,3.17 0.03,3.23 0.48,6.03 0.57,3.58 1.25,1.25 1.94,5.09 2.87,-2.61 1.57,-0.75 2.84,-4.98 0.67,-2.23 0.94,-3.41 1.48,-5.31 -1.68,-2.34 -4.81,-5.16 -6.79,-6.97l-6.71 2.38 -3.81 11.09z"/>
   <path class="fil15" d="M210.17 389.38l1.58 -0.49c-0.18,-0.08 -0.55,-0.26 -0.78,-0.36 -0.22,-0.1 -0.55,-0.2 -0.79,-0.3 -4.08,-1.7 -3.97,-1.1 -6.56,-6.89 1.8,-3.95 5.43,-5.45 5.48,-10.28 0.48,-2 -6.7,-1.06 -8.45,-0.91 -4.33,9.45 -2.01,19.05 9.52,19.23z"/>
   <path class="fil4" d="M168.33 295.19c3.88,-5.25 -2.49,-7.86 9.09,-8.89l4.81 -1.12c-3.98,-4.37 -18.99,-11.38 -17.88,-1.79l3.98 11.8z"/>
   <path class="fil16" d="M235.79 431.34c5.35,-4.68 -3.06,4.66 1.25,-1.45 4.81,-6.83 3.77,-7.57 5.53,-12.61 0.09,-0.26 0.2,-0.53 0.3,-0.77 0.09,-0.24 0.25,-0.49 0.34,-0.73l1.13 -4.6c-6.57,1.2 -12.34,7.9 -12.1,14.27 0.1,2.93 -0.26,1.82 3.55,5.89z"/>
   <path class="fil4" d="M286.08 320.05c7.31,-2.15 5.53,-1.69 10.29,-5.09 0.24,-0.18 1,-0.61 1.23,-0.8l6.77 -6.54c2.23,-2.02 3.53,-2.93 4.18,-6.23l-2.08 -1.06 -3.84 -0.49c-2.74,11.85 -14.32,11.25 -16.55,20.21z"/>
   <path class="fil5" d="M305.3 316.79c-2.84,4.01 -1.82,0.73 -2.96,5.23 6.81,-0.39 3.97,0.98 5.01,1.68l10.25 1.35c-0.5,-3.63 -3.79,-11.95 -6.15,-13.98 -2.1,1.22 -5.66,3.69 -6.15,5.72z"/>
   <path class="fil12" d="M272.7 408.83l1.71 -1.08c5.29,0.1 11.08,3.67 10.92,9.2 1.41,-1.43 0.42,0.37 1.4,-1.8 0.73,-1.61 0.5,-1.35 0.82,-3.18 0.39,-2.27 0.67,-3.89 0.88,-6.02l-3.62 -4.08 -11.37 0.5 -0.74 6.46z"/>
   <path class="fil1" d="M384.97 324.17c7.29,-7.08 2.01,-12.09 -3.68,-23 -3.86,5.03 -2.86,7.89 -0.8,12.16 1.77,3.68 3.03,8.15 4.48,10.84z"/>
   <path class="fil13" d="M303.97 460.27c-3.03,3.39 -2.48,6.3 -9.22,10.97 -2.66,1.85 -1.67,1.02 -3.7,3.39 0.11,3.61 -0.27,0.5 1.25,1.4 6.36,-0.19 7.5,-2.6 10.73,-6.77 2.37,-3.07 5.05,-7.12 5.08,-11.9 -1.49,-1.26 -0.69,-0.63 -2.83,-1.02l-1.31 3.93z"/>
   <path class="fil4" d="M224.22 319.41l1.73 -2.02c-3.46,-1.68 -4.36,-3.22 -4.93,-7.79 -0.64,-5.25 1,-6.48 -2.99,-9 -1.61,1.59 -1.59,1.97 -4.06,3.55 0.35,8.58 3.61,12.17 10.25,15.26z"/>
   <path class="fil5" d="M270.46 463.18c-0.05,0.72 -0.09,3.85 -0.17,4.28 -1,5.39 0.7,2.56 -3.17,3.12 1.85,1.31 -2.3,0.18 2.77,1.44 0.58,0.14 2.96,0.31 3.63,0.33 2.86,0.11 4.83,0.1 7.21,-0.57 -1.35,-3.78 -3.38,-9.15 -6.18,-11.75 -3.94,1.79 -0.22,-0.09 -4.09,3.15z"/>
   <path class="fil4" d="M284.9 420.3l0.43 -3.35c0.16,-5.53 -5.63,-9.1 -10.92,-9.2 1.33,7.98 1.98,11.53 10.49,12.55z"/>
   <path class="fil11" d="M298.38 421.52c3.34,-3.83 3.57,-5.4 6.67,-8.56 -3.42,-1.66 -6.71,-4.37 -10.58,-4.69 -0.16,7.14 -2.2,9.49 3.91,13.25z"/>
   <path class="fil16" d="M311.68 433.62c7.27,-2.25 7.27,-4.9 9.59,-10.25 -0.94,-0.86 -1.76,-1.53 -2.99,-2.63l-3.95 -3.56 -2.65 16.44z"/>
   <path class="fil13" d="M252.58 423.87c1.17,3.29 0.68,3.27 4.52,3.64 2.52,0.25 5.17,-0.15 7.21,-1.06 1.39,-3.29 0.93,-7.48 0.29,-11.15 -3.66,1.78 -2.83,3.31 -5.04,5.35 -1.7,1.56 -4.85,2.53 -6.98,3.22z"/>
   <path class="fil13" d="M284.9 420.3c-8.51,-1.02 -9.16,-4.57 -10.49,-12.55l-1.71 1.08c-0.1,6.09 -0.39,8.65 1.14,14.29l9.89 0.43 1.17 -3.25z"/>
  </g>
 </g>
</svg>
