<?xml version="1.0" encoding="UTF-8"?>
<!DOCTYPE svg PUBLIC "-//W3C//DTD SVG 1.1//EN" "http://www.w3.org/Graphics/SVG/1.1/DTD/svg11.dtd">
<!-- Creator: CorelDRAW 2020 (64-Bit) -->
<svg xmlns="http://www.w3.org/2000/svg" xml:space="preserve" width="512px" height="512px" version="1.1" style="shape-rendering:geometricPrecision; text-rendering:geometricPrecision; image-rendering:optimizeQuality; fill-rule:evenodd; clip-rule:evenodd"
viewBox="0 0 512.97 512.81"
 xmlns:xlink="http://www.w3.org/1999/xlink"
 xmlns:xodm="http://www.corel.com/coreldraw/odm/2003">
 <defs>
  <style type="text/css">
   <![CDATA[
    .fil0 {fill:#010101}
    .fil12 {fill:#020202}
    .fil23 {fill:#040304}
    .fil53 {fill:#050506}
    .fil51 {fill:#0C0B0C}
    .fil34 {fill:#171719}
    .fil17 {fill:#435DB4}
    .fil14 {fill:#4A424E}
    .fil8 {fill:#4B4350}
    .fil46 {fill:#544339}
    .fil16 {fill:#544439}
    .fil13 {fill:#56453A}
    .fil6 {fill:#5F83B0}
    .fil20 {fill:#5F84B1}
    .fil42 {fill:#685746}
    .fil56 {fill:#702352}
    .fil4 {fill:#712252}
    .fil11 {fill:#7C7063}
    .fil49 {fill:#887E76}
    .fil28 {fill:#8D790C}
    .fil52 {fill:#8F7B0C}
    .fil22 {fill:#9B856F}
    .fil9 {fill:#A28B74}
    .fil48 {fill:#A5323C}
    .fil35 {fill:#A79C8B}
    .fil10 {fill:#A82F7A}
    .fil25 {fill:#A8DDFE}
    .fil1 {fill:#AADDFE}
    .fil47 {fill:#ADDEFD}
    .fil30 {fill:#AF9A77}
    .fil43 {fill:#B13A86}
    .fil29 {fill:#B14B92}
    .fil50 {fill:#B14E57}
    .fil40 {fill:#BDB9A8}
    .fil45 {fill:#C7B773}
    .fil26 {fill:#C7E5FA}
    .fil19 {fill:#D2ECFE}
    .fil2 {fill:#D3EEFE}
    .fil37 {fill:#D565BB}
    .fil3 {fill:#DAF1FF}
    .fil31 {fill:#DBC291}
    .fil55 {fill:#DE71CA}
    .fil24 {fill:#E472CD}
    .fil15 {fill:#E4DBC2}
    .fil41 {fill:#E775D1}
    .fil5 {fill:#E9E0C5}
    .fil32 {fill:#EAE9C5}
    .fil36 {fill:#EAF5FE}
    .fil39 {fill:#ECD02C}
    .fil54 {fill:#F0EDD0}
    .fil21 {fill:#F2EDD4}
    .fil33 {fill:#F5F7EA}
    .fil27 {fill:#F6F3DB}
    .fil7 {fill:#FDFCE5}
    .fil18 {fill:#FDFDE8}
    .fil38 {fill:#FDFEFE}
    .fil44 {fill:#FEC5EE}
   ]]>
  </style>
 </defs>
 <g id="Layer_x0020_1">
  <metadata id="CorelCorpID_0Corel-Layer"/>
  <g id="_2955301469744">
   <path class="fil0" d="M178.8 499.44c-5.59,-1.1 -13.13,-10.9 -14.05,-17 -1.11,-7.34 1.23,-20.92 5.86,-25.47 2.75,-7.14 7.1,-10.72 12.86,-14.69 4.95,-3.41 15.11,-7.63 21.73,-4.97 6.34,-0.22 11.87,2.86 14.77,6.19 2.35,2.72 7.63,9.43 7.85,13.65l2.33 4.57c0.68,3.95 1.35,16.67 -1.83,21.4 -0.12,0.18 -0.31,0.41 -0.45,0.59 -0.13,0.17 -0.32,0.39 -0.45,0.57l-7.87 10.16c-8.64,8.71 -18.95,8.43 -30.87,8.39 -2.31,-0.01 -3.46,0.13 -5.52,-0.42 -3.01,-0.81 -3.09,-1.38 -4.36,-2.97zm334.17 -188.19l0 1.73c-0.03,0.41 -0.21,-1.39 -1.14,0.94 -9.65,24.2 -9.17,20.24 -20.65,39.58l-18.36 32.84c-0.11,0.18 -0.25,0.44 -0.36,0.63l-1.53 2.49c-0.8,1.19 -2.04,2.8 -2.98,4.05 -5.54,7.37 -12.17,14.2 -19.8,19.35l-3.11 1.91c-5.67,3.5 -9.82,1.84 -12.62,4.42l-10.92 10.18c-1.23,0.94 -2.64,2.33 -4.03,3.03 -5.54,2.76 -0.04,0.11 -4.88,0.11 -3.97,0 -11.34,3.83 -15.33,5.03 -0.17,0.05 -0.44,0.16 -0.61,0.21 -0.19,0.06 -0.46,0.18 -0.65,0.25 -0.1,0.03 -3.84,1.14 -3.91,1.15l-9.79 2.17c-14.69,5.06 -4,-0.09 -20.49,7.66l-10.54 4.52c-7.19,1.99 -9.42,8.52 -14.04,14.06l-1.38 1.64c-3.01,3.78 -4.84,5.23 -9.59,6.47l-7.78 2.8c-10.46,4.2 -23.67,8.39 -34.47,9.86 -7.78,1.06 -17.41,0.34 -24.97,0.97l-15.36 3.17c-9.93,1.93 -9.64,0.14 -13.1,3.87l-9.64 8.52c-4.85,3.17 -12.01,5.63 -15.71,6.66 -3.39,0.94 0.54,1.28 -3.25,1.29l-0.19 0 -9.83 0c-8.85,-0.18 -15.75,-1.43 -23.85,-8.48l-2.47 -2.54c-3.66,-4.31 -6.83,-6.65 -12.67,-8.42 -9.87,-2.99 -29.92,-9.02 -37.65,-14.54 -3.81,-2.71 -9.83,-4.62 -13.78,-7.3l-23.36 -17.79c-14.64,-11.72 -24.43,-26.77 -37.43,-36.85 -7.87,-6.11 -14.35,-13.89 -20.89,-21.28 -0.92,-1.04 -1.37,-1.55 -2.38,-2.64 -0.14,-0.15 -0.33,-0.37 -0.48,-0.52 -4.4,-4.63 -10.34,-5.71 -13.6,-11.5 -6.42,-11.41 -1.88,-18.52 -1.36,-24.73 5.78,-0.48 12.48,-6.5 18.07,-9.03 0.32,-0.15 -0.01,-0.28 2,-1.01 0,-5.78 -1.09,-5.3 -2.25,-10.8 -1.46,-7 -0.32,-3.41 -4.04,-8.07 -2.58,-3.25 -1.53,-3.65 -3.28,-7.63 -0.77,-1.76 -0.89,-2.74 -1.69,-4.4 -1.88,-3.92 0.6,-1.86 -2.79,-3.23l0 -4.01c2.79,-0.75 7.88,-5.67 9.95,-8.13 4.84,-5.74 4.24,-3.73 1.76,-11.59l-2.59 -9.59c-1.05,-3.29 -5.33,-12.01 -4.34,-15.11 1.07,-3.35 2.13,-2.83 5.23,-3.79 6.87,-2.14 10.37,-6.79 15.32,-11.78 14.94,-15.06 1.38,-9.23 8.8,-20.32l23.09 0c-0.24,-2.9 -0.57,-2.64 -0.98,-5.19 -1.17,-7.45 4.82,-6.87 11.01,-6.56l13.05 1.71c-0.81,-3.05 -3.12,-6.03 -4.95,-8.11 -2.51,-2.85 -1.94,-4.42 -2.62,-7.71 -1.14,-5.6 -2.94,1.39 -0.32,-12.86l0.16 -1.29c0.4,-8.52 0.7,-16.04 -2.22,-24.38 -3.01,-8.58 -0.46,-10.36 3.93,-16.92 -4.16,-2.2 -6.54,-5.85 -8.32,-9.74 -0.75,-1.62 -0.12,-0.48 -1.02,-2 -0.01,-0.03 -1.03,-1.48 -1.22,-1.78 -5.72,-8.67 -10.65,-17.36 -13.65,-27.22 -0.04,-0.11 -0.5,-1.63 -0.5,-1.64l-0.6 -1.68c-2.11,-5.95 -3.78,-12.53 -3.34,-17.18 0.17,-1.9 0.46,-7.07 0.8,-10.48 1.1,-10.9 5.25,-24.57 17.72,-27.23 6.04,-1.29 13.75,0.82 19.85,2.85 11.37,3.79 28.17,7.85 39.41,6.16l8.11 -1.38c7.71,-2.33 9.49,-2.11 13.05,-4.97 3.34,-2.69 8.49,-5.45 13.14,-6.44 0.21,-0.04 3.16,-0.27 4.19,-0.36 5.89,-0.54 7.01,-1.51 10.37,-4.7 0.75,-0.72 0.85,-0.77 1.57,-1.44 1.42,-1.31 1.71,-1.62 2.99,-3.03l12.3 -10.79c3.17,-2.13 3.3,-2.8 5.83,-5.21 3.62,-3.44 10.15,-6.25 16.84,-6.25 6.39,0 18.04,5.73 19.89,5.42 3.66,-0.6 2.65,-3.33 8.59,-5.04 4.47,-1.29 5.78,-1.09 9.31,-3.74 5.54,-4.15 24.82,-6.58 33.45,-7.76 7.38,-1.01 14.4,-1.33 22.46,0.74 3.34,0.86 9.69,1.71 12.06,3 4.35,2.35 2.98,6.02 8.89,7.17 4.26,0.84 8.95,0.63 13.58,1.48 3.93,0.72 9.04,3.12 12.18,3.33 2.96,0.2 0.87,-1.39 5.48,1.01 11.82,6.15 13.29,12.38 34.53,19.75 2.55,0.89 3.48,1.01 5.96,2.08 2.25,0.97 2.37,1.07 4.97,2.05l30.52 8.08c1.55,0.17 3.17,-0.04 6.1,0.39 4.9,0.74 7.89,1.52 12.81,2.33 5.28,0.87 20.41,2.49 21.22,9.9l4.01 0c-1.43,6.17 -17.78,30.43 -22.68,38.56l-22.05 39.18c-12.89,21.38 -36.74,56.77 -64.68,56.77 0,4.9 -2.05,8.2 3.99,9.04 12.01,1.65 32.11,11.33 42.6,17.64 5.88,3.54 10.89,2.99 12.63,10.46 3.59,-0.08 4.37,-1.2 7.46,-0.44 3.54,0.87 9.15,1.52 12.33,3.75 4.3,3.02 1.88,0.83 3.61,4.41 0.11,0.21 0.21,0.48 0.31,0.7 4.22,9.03 1.19,6.38 10.79,12.29l4.97 3.07c0.27,0.14 1.05,0.54 1.32,0.68 0.2,0.1 0.46,0.24 0.66,0.34 0.2,0.11 0.46,0.25 0.66,0.35 10.92,5.62 35.18,8.26 35.18,25.04l0 27.11 0 0.2zm-338.26 121.94c-0.58,5.47 0.43,1.3 -2.35,5.27l-3.6 -2.95 0.47 -6.14 0.37 -6.71c2.15,2.11 6.89,7.1 8.11,9.76l-3 0.77zm93.56 -6.96c1.53,-3.11 5.69,-6.16 8.39,-9.21 7.61,-8.57 3.64,-3.44 9.3,-7.81 3.62,-2.8 2.99,-6.57 7.82,-10.2 8.55,-6.44 7.97,-6.15 10.78,-5.02 0.83,2.93 -0.53,3.08 -0.53,3.08 -2.01,2.72 0.27,-0.02 -2.26,1.89 -2.18,1.65 -2.93,2.03 -5.15,3.91l-28.35 23.36zm86.94 -14.8c4.33,-0.31 7.66,-3.82 11.65,-6.59 5.57,-3.87 23.18,-20.81 26.33,-24.88l13.74 -13.29 15.97 -9.16c3.04,-1.46 8.51,-4.44 11.47,-4.99 -1.54,11.9 -4.65,16.84 -8.8,26.65 -6.96,16.41 -2.75,22.59 -14.29,20.52 -0.36,-4.7 5.01,-17.4 6.36,-24.09 -4.95,2.31 -12.77,14.86 -16.66,21.21 -3.04,4.97 -3.98,7.16 -6.61,12.47 -0.92,1.86 -2.1,3.84 -3.68,5.3 -3.04,2.79 -2.14,1.86 -7.63,1.84l1.32 -9.8c-2.39,1.2 -4.56,1.89 -5.91,3.84 -1.87,2.69 -0.57,1.88 -1.58,3.45 -2.79,4.33 -2.21,-0.76 -7.08,7.95 -1.25,2.24 -2.51,4.55 -3.52,6.42l-6.73 -0.26c3,-4.1 0.15,-1.39 -2.31,-7.46 -1.89,-4.7 -0.38,-5.31 -2.04,-9.13zm-103.72 -36.16c3.02,-8.66 14.39,-23.13 18.2,-33.37 3.82,-10.25 4.4,-19.34 8.8,-21.94 1.62,7.19 0.25,75.92 -2.09,82.5 -1.59,3.17 -3.94,3.32 -6.31,5.02 -5.08,3.65 -14.16,14.3 -17.62,16.23 1.11,-4.28 2.73,-6.57 1.83,-9.45l-1.22 -0.15c-0.01,0 -0.24,-0.81 -2.74,1.56 -20.76,19.71 -6.09,22.65 -17.75,28.43l-4.17 -3.11c2.28,-7.88 7.83,-20.45 1.48,-29.28 -2.77,2.87 -2.69,12.08 -7.62,22.76 -4.8,-2.09 -14.6,-9.13 -21.16,-7.73 -5.12,1.09 -4.53,3.06 -12.17,2.28 -4.05,-0.41 -8.07,-1.6 -9.59,-4.54 3.34,-3.99 8.05,2.56 15.55,-4.79 -8.01,-0.57 -11.3,-0.4 -17.92,-2.48 -8.28,-2.6 -8.55,-3.48 -10.34,-11.7 33.49,-0.69 19.68,7.15 31.88,8.52 0.74,-1.98 1.82,-6.98 0.77,-10.07 -1.22,-3.6 -1.77,-0.78 -4.96,-9.04 3.52,-0.79 7.96,-4.02 10.33,-5.71 3.18,-2.27 6.26,-3.78 9.7,-6.38 11.99,-9.02 12.19,-7.58 19.9,-13.22 3.24,-2.37 6.26,-5.85 8.8,-8.25 6.68,-6.29 10.26,-28.4 18.82,-29.89 0.62,4.48 -3.41,9.9 -5.25,14.32 -1.79,4.29 -3.67,10.04 -5.5,14.57 -3.93,9.71 -7.32,19.01 -10.28,29.29 9.14,-5.53 6.93,-0.95 16.25,-12.34 4.71,-5.75 2.24,-4.2 1.58,-4.83 -2.63,-2.49 2.02,0.35 -7.2,2.79zm-219.23 -67.49c1.89,4.45 9.09,23.67 11.41,26.35 6.69,7.72 4.52,13.61 13.76,23.92 5.88,6.56 12.19,13.74 17.42,21.81 5.37,8.27 7.98,17.98 13.3,25.43 -4.64,-1.11 -18.36,-16.47 -21.5,-20.32 -1.48,-1.81 -1.58,-2.33 -2.85,-4.24 -1.99,-2.97 -0.5,-2.19 -3.85,-3.24 1.17,6.21 6.28,9.95 9.52,13.71 3.3,3.82 6.54,9.74 9.13,13.93 6.24,10.11 11.84,13.14 23.56,22.57 9.72,7.81 23.24,23.94 29.77,27.55 7.22,4 15.54,9.04 23.8,11.07l-1.08 7.06c-8.33,-2.48 -27.06,-9 -34.48,-13.45 -3.79,-2.27 -6.05,-4.63 -9.86,-6.34 0.73,4.29 8.15,10.54 11.6,12.66l15.22 9.32c-13.17,-0.11 -39.26,-18.3 -49.88,-26.87 -3.52,-2.84 -3.32,-2.26 -6.82,-6.24 -9.39,-10.7 -18.47,-11.39 -34.01,-31.24 -3.84,-4.9 -7.07,-10.03 -10.88,-15.23 -3.89,-5.3 -8.2,-8.46 -11.47,-14.68 0.2,-0.13 0.58,-0.45 0.68,-0.23l2.04 -0.44c5.76,-0.52 6.38,2.7 7.79,4.26 2.37,2.6 3.73,2.26 4.94,4.67 0.06,0.11 0.13,0.41 0.18,0.52 1.19,2.9 -0.63,1.3 2.09,3.57 1.93,1.61 3.27,1.96 5.48,3.65 7.51,5.77 2.39,3.58 9.76,6.51 1.89,0.75 3.94,2.52 5.81,4.04 3.4,2.76 5.88,5.17 10.19,7.83 4.64,2.85 7.47,5.18 10.15,8.97 10.34,14.59 7.14,7.28 13.66,13.41 2.88,2.71 1.96,2.91 5.59,4.42 -3.85,-9.57 -13.02,-17.55 -20.34,-26.79 -5.6,-7.06 -8.97,-10.04 -15.13,-18.98 -2.92,-4.23 -8.18,-13.44 -11.04,-16.15 -9.54,-9.04 -7.88,-11.07 -10.72,-16.27l-9.13 -18.02c-3.73,-6.64 -5.61,-10.11 -6.99,-20.1 -0.44,-3.13 -2.05,-11.12 -0.27,-14.38 1.52,-2.78 1.15,-2.23 3.45,-4.02zm254.87 5.07c5.93,-3.76 4.92,-9.64 5.26,-17.93 0.22,-5.37 -0.25,-5.32 3.82,-7.93 2.06,-1.32 4.27,-2.69 7.72,-2.88 -1.07,13.62 -1.11,27.75 1.71,39.55 3.86,16.16 2.01,9.26 -0.32,22.59 -0.65,3.73 -0.8,4.34 -1.85,8.25 -6.52,24.4 -13.28,27.03 -19.58,38.64l-2.44 3.69c-0.13,0.16 -0.4,0.45 -0.51,0.57 -0.11,0.13 -0.46,0.74 -0.54,0.57 -0.08,-0.17 -0.35,0.39 -0.55,0.56 0.42,-5.63 4.27,-26.18 6.53,-32.04 1.62,-4.21 2.1,-3.75 3.31,-8.75 2.48,-10.28 0.67,-11.51 -1.15,-21.05 -1.57,-8.26 -1.21,-15.29 -1.41,-23.84zm-256.46 -34.58c-0.36,-11.25 6.47,-21.28 18.48,-22.31 5.08,6.28 16.1,21.29 18.19,29.93 0.98,4.05 0.3,5.42 1,9.86 1.33,5.65 0.41,8.3 -0.92,13.45 -0.97,4.97 -6.45,16.39 -8.74,20.72 -4.02,-5.28 -11.63,-24.09 -14.92,-31.48 -1.89,-4.23 -2.66,-7.23 -6.63,-8 -3.32,-0.85 -3.44,-0.96 -4.89,-4.54 -0.87,-2.15 -1.29,-4.91 -1.57,-7.63zm439.58 9.92c-0.34,-3.25 -2.96,-14.04 -2.78,-15.57l1.39 -0.27c0.17,0 0.51,-0.03 0.7,-0.01l34.16 16.62c0.28,4.72 1.24,5.14 0.35,9.06 -0.8,3.5 -1.65,4.96 -2.71,8.36 -1.06,3.42 -0.91,6.06 -1.84,9.29l-5.21 15.91c-2.57,7.1 -11.21,21.37 -15.68,27.41 -1.6,2.16 -3.21,4.05 -4.82,6.25 -1.41,1.93 -2.61,4.05 -4.37,6.67 -1.54,2.29 -2.5,2.89 -4.51,5.51 -2.06,2.7 -2.98,3.33 -5.28,5.77l-4.18 4.81c-0.14,0.15 -0.36,0.36 -0.5,0.51l-5.42 5.68c-2.08,2.24 -2.78,3.84 -5.08,5.16 2.68,-5.39 5.97,-7.77 9.12,-12.16 15.63,-21.8 15.08,-21.17 17.44,-43.8l0.89 -18.29c0.05,-3.32 0.82,-6.12 0.62,-8.67l-2.29 -28.24zm-411.2 -34.36c3.04,-4.86 12.1,-13.19 14.67,-13.59 6.64,-1.05 2.87,12.41 -3.74,16.18 0.55,5.41 0.71,9.96 2.64,15.03 0.5,1.32 2.21,5.11 2.15,6.51 -0.19,4.92 -0.27,-1.82 -2.08,4.76 -2.84,-14.09 -11.23,-21.78 -13.64,-28.89zm359.65 66.48l-17.87 8.51 6.41 -10.01c2.39,-3.73 3.77,-6.02 6.11,-9.01 7.03,-9.02 7.64,-14.05 10.64,-19.56 11.22,-20.64 -0.99,-38.36 0.01,-46.49 0.28,-2.29 -0.34,-0.44 0.73,-1.91 5.79,15.15 13.23,20.57 18.37,47.7 0.62,3.3 0.13,5.53 0.57,8.39 0.47,3.08 4.04,9.63 3.58,19.79 -0.37,8.36 5.9,17.67 6.46,24.42 -11.05,2 -5.33,0.78 -16.69,4.46 -5.98,1.94 -12.31,2.71 -18.42,4.58 -9.4,2.88 -27.58,9.21 -37.85,7.85 -0.47,-5.74 4.03,-8.69 7.28,-11.28 4.27,-3.4 6.32,-5.49 10.62,-8.48 7.63,-5.3 16.99,-10.28 20.05,-18.96zm44.56 12.9c-4.68,-0.21 -3.75,0.85 -5.15,-3.46 -2.2,-6.77 -0.47,-13.75 -1.83,-19.27 -2.01,-8.11 -3.18,-15.45 -4.69,-24.38 -0.96,-5.67 -5.27,-28.05 -7.58,-33.52 -1.22,-2.87 -2.61,-6.96 -3.94,-9.72 10.27,0.11 12.02,0.88 18.03,21.79l4.28 27.72c0.32,2.07 0.26,3.95 0.4,6.55 0.55,10.7 2.71,23.7 0.48,34.29zm-325.92 -93.11l-4.24 27.48c-2.01,-1.07 -8.84,-14.34 -9.24,-18.55l13.48 -8.93zm-32.77 1.78c-2.25,4.42 -4.82,7.82 -8.34,11.82 -6.04,6.87 -4.93,5.36 -0.94,13.01 5.43,3.34 6.35,11.73 2.38,18.57l-9.72 15.74c-5.17,5.76 -5.59,5.57 -6.04,13.02 -0.39,6.64 -0.71,10.74 0.55,16.11 2.46,10.42 10.21,19.45 5.48,31.08 -2.34,16.44 -9.89,8.26 2.54,23.98 6.98,8.84 33.32,21.51 44.56,25.7 5.93,2.21 4.45,5.5 13.22,2.21l11.12 -3.79c0.39,4.94 2.09,8.53 2.59,13.31 0.45,4.38 -0.6,6.31 -0.86,11.47 -5.73,-1.01 -11.6,-4.3 -15,-7.17 -3.69,-3.12 -17.41,-12.99 -21.28,-13.43 3.96,9.02 7.55,8.05 10.4,13.97 2.5,2.16 2.65,3.18 6.13,5.27 2.75,1.65 5.04,2.79 8.06,4.66 3.98,1.31 0.68,0.15 3.67,1.71l11.6 5.43c-0.98,1.7 -2.13,3.21 -3.04,5.01l-3.03 6.26 -0.48 3.27c-1.63,0.24 -0.73,0.38 -2.51,0.19 -2.14,-0.22 -1.27,0.19 -2.02,-0.72 -7.76,-2.96 -12.69,-6.64 -17.32,-11.76l-25.43 -20.8c-13.71,-9.19 -23.78,-29.03 -27.97,-45.27 -3.57,-13.84 -12.42,-30.57 -13.12,-35.67 -3.34,-14.75 1.94,-25.05 7.05,-37.5 3.91,-9.51 11.96,-24.14 8.46,-37.47 -1.21,-4.56 -4.36,-8.12 -3.86,-13.12 0.45,-4.51 12.56,-18.77 13.07,-19.12 1.69,-1.19 0.66,-0.48 2.86,-1.1 0.27,-0.08 2.44,-0.6 3.26,-0.83 3.42,-0.94 2.59,-1.79 5.91,-0.16 0.93,3.27 -0.42,4 -1.95,6.12zm278.83 18.07c-5.26,9.37 -7.79,8.01 -10.77,12.12 -2.14,2.96 -4.84,10.35 -7.7,12.53 2.46,-6.16 -0.37,-1.74 2.21,-7.94 0.08,-0.18 0.24,-0.43 0.31,-0.62 0.92,-2.37 0.32,0.2 0.85,-3.19 3.26,-20.98 6.12,-19.78 -0.75,-25.13 -3.66,-2.84 -6.29,-6.13 -11.89,-5.8 -1.06,7.24 4.15,7.94 8.68,11.91l-0.06 7.2c-6.67,-0.88 -7.08,-3.94 -12.48,-6.62 -5.45,-2.72 -6.87,-2.2 -10.57,-3.33 -1.87,-0.58 -1.76,-0.44 -2.81,-1.26 0.19,-4.37 6.11,-11.79 10.99,-12.19 -0.11,-5.22 -0.3,-6.2 3.19,-10.69 0.86,-1.09 0.78,-1.01 1.52,-1.75 1.59,-1.83 8.4,-7.16 10.93,-8.39 3.54,-3.06 1.1,-1.4 3.38,-4.91 18.72,-1.48 13.03,1.81 19.25,4.7 8.35,3.89 6.65,-0.36 19.97,9.06 0.83,0.59 2.14,1.76 3.29,2.72 5.67,4.72 8.77,1.84 10.01,24.23l0.94 7.19c0.39,8.14 1.77,11.21 -4.58,20.07l-1.06 1.27c-2.11,5.44 -8.34,13.91 -12,18.56 -23.03,29.3 -38.7,33.39 -49.4,43.41l-5.89 3.7c-0.53,6.78 2.28,-0.03 -2.76,11.21 -4.97,11.08 -4.11,15.79 -6.82,24.35 -2.78,8.78 -1.67,7.1 0.65,9.78 1.38,-7.02 3.46,-13.42 5.63,-19.48 2.43,-6.74 4.58,-10.34 8.99,-15.16l12.13 -12.96c2.91,-2.56 4.4,-2.64 7.08,-5 3.61,-3.17 2.99,-3.34 8.97,-3.39 -0.94,6.1 -5.61,8.27 -7.82,13.56 -4.43,10.64 -4.99,5.88 -8.48,12.77 -5.23,10.34 -14.96,16.3 -16.85,24.38 -0.63,2.68 -1.05,3.12 -1.71,6.11 -0.26,1.19 -0.57,1.7 -0.49,3.4 0.13,2.71 -0.17,1.52 0.87,3.11 3.79,-1.11 10.52,-14.82 13.06,-19.16 2.58,-4.4 0.93,-2.52 6.99,-3.9 2.26,7.3 1.31,9.02 -2.15,15.72 -2.15,4.16 -5.65,9.49 -8.39,11.74 -4.09,3.34 -2.97,0.04 -4.58,5.46 -0.95,3.22 -0.9,4.13 -2.49,7.52 -6.6,14.04 -13.47,13.06 -16.94,14.24 -1.47,0.5 -4.56,2.54 -6.46,3.57 -12.85,6.97 -15.35,12.27 -23.87,16.27 -2.05,0.96 -4.7,2.01 -7.1,3.01 -2,0.83 -5.59,2.11 -8.07,0.64 3.85,-3.28 8.15,-4.84 13.04,-8.75 4.28,-3.41 7.98,-6.35 12.4,-9.74 2.48,-1.91 4.49,-2.98 6.6,-4.44 5.88,-4.09 1.99,-1.64 4.61,-6.59 2.27,-4.32 9.02,-4.92 9.85,-12.09 -8.73,1.03 -4.57,3.29 -7.32,5.75l-0.8 0.5c-0.09,0.04 -0.36,0.14 -0.46,0.18l-21.32 14.65c0.04,0.11 0.19,0.45 0.23,0.56l0.51 1.4c-3.83,2.56 -9.07,6.58 -13.15,9.94 -2.46,2.03 -3.81,3.69 -6.64,4.74 -8.02,2.97 -9.6,11.4 -19.01,12.93 -5.93,0.97 -9.34,5.81 -14.65,6.88 3.81,-4.57 7.12,-9.44 12.21,-13.52 3.7,-2.96 10.81,-8.38 13.32,-12.06l-3.02 -0.02c-4.77,6.04 -26.95,22.46 -36.54,26.55 -1.69,-10.59 -0.49,-10.7 2.27,-13.41 12.53,-12.32 11.5,-6.1 18.03,-16.01 3.35,-5.08 5.33,-4.48 9.21,-7.96 8.39,-7.52 6.18,-1.63 12.46,-4.62 2.32,-1.09 2.26,-2.38 4.73,-4.19 4.38,-3.21 8.62,-4.51 15.24,-9.83 9.71,-7.81 5.72,0.16 9.61,-3.4 5.09,-4.65 -2.83,-2.13 6.57,-10.31 -1.13,-2.81 -3.53,-0.8 -4.88,-8.14 -1.1,-2.6 -4.55,-5.44 -5.34,-8.99 -0.62,-2.76 12.51,-23.57 14.36,-26.17 6.31,-8.85 5.07,-9.32 10.75,-18.32l12.7 -15.03c6.5,-8.91 3.34,-5.62 11.32,-13.15 16.09,-15.19 12,-13.66 22.28,-25.94 2.44,-2.92 3.5,-3.96 5.94,-6.24 3.55,-3.32 1.7,-3 1.71,-5.16 5.06,-1.2 5.96,-8.43 12.47,-17.65 15.08,-21.41 8.05,-22.41 1.5,-25.82 -14.24,-7.41 -20.8,-14.81 -30.58,-5.65 22.26,4.21 31.03,23.98 14.84,34.48zm-239.32 -65.94c-2.06,-3.25 -1.19,-6.19 -0.15,-8.91 7.93,2.19 -0.51,0.43 8.34,9.51 -1.9,3.93 -1.08,2.65 -4.68,4.84 -0.07,-0.12 -0.14,-0.34 -0.16,-0.4l-0.24 -0.92c-1.28,-3.6 -1.47,-1.55 -3.11,-4.12zm-38.2 -3.82c-0.09,-2.84 -0.95,-5.69 -0.85,-9.64l9.38 1.84c1.79,8.71 -5.5,15.93 -7.53,16.92 -0.7,-4.01 -0.89,-5.78 -1,-9.12zm36.65 8.43c-3.2,-0.27 -6.61,-1.89 -8.83,-3.17 -4.62,-2.67 -7.78,-8.89 -10.23,-13.79 -3.07,-6.14 -3.81,-3.21 -4.81,-6.74 10.7,-1.33 17.93,-1.29 23.83,4.33 -0.98,5.56 -3.22,4.32 -3.42,10.72 -0.12,3.81 1.86,5.2 3.46,8.65zm197.79 -28.65c1.3,-3.68 6.63,-9.79 9.09,-13.3 3.79,3.47 8.06,4.72 6.85,12.55 -0.88,5.68 -1.36,10.33 -3.25,13.98l-13.69 25.2c-2.85,-4.74 3.86,-12.22 -2.79,-15.32 2.35,-1.92 0.69,-0.35 2.53,-2.73 7.07,-9.15 7.61,-12.58 1.26,-20.38zm-236.8 4.6c-1.62,-3.51 -2.21,-9 -2.72,-14.26 6.71,1.79 6.69,2.68 14.56,0.82l1.87 5.37 -13.71 8.07zm-14.86 18.81c-1.49,-9.44 3.97,-19.09 0.15,-29.44 -1.43,-3.88 -2.1,-6.7 -0.71,-10.67 2.5,-0.82 4.66,1.57 5.64,3.82 0.78,1.77 1.47,6.33 1.44,8.42 -0.05,4.22 -1.77,6.11 -0.78,9.83 1.18,4.48 2.3,1.29 4.06,6.22 -1.87,4 -2.72,3.64 -5.21,7.02 -0.07,2.79 0.62,9.17 0.97,11.3 1.2,7.41 5.09,5.44 8.32,8.76 1.86,1.92 5.63,15.12 5.89,17.21 -7.3,0.97 -4.98,0.42 -8.55,-4.61 -9.13,-12.86 -6.88,-0.44 -11.22,-27.86zm278.35 -45.32l2.88 2.8c7.86,11.97 -14.36,54.8 -16.68,56.26 -4.78,11.49 -4.25,8.39 -8.44,16.98l-10.68 14.79c-7.77,4.41 -21.63,-1.5 -18.6,-16.81 1.06,-5.4 8.97,-12.41 12.77,-16.46l5.2 -4.28c-1.96,7.97 -3.87,13.03 -4.35,22.66 3.1,-1.45 3.68,-2.63 6.48,-5.01 9.21,-7.85 6.44,-6.8 12.32,-15.74l2.43 -3.09c1.21,-5.76 7.19,-12.59 8.66,-19.06 1.31,-5.75 0.02,-2.13 -0.05,-5.6 -0.15,-7.35 3.3,-4.92 -0.35,-15.88l-6 -6.17 8.36 -11.2c3.26,1.25 4.93,1.75 6.05,5.81zm-232.69 -2.09c4.39,1.51 4.9,3.91 7.38,7.38 5.23,7.31 5.48,10.62 9.94,18.24 5.33,9.1 1.1,7.66 0.51,8.23 -1.17,-1.96 -2.24,-3.62 -3.83,-4.95l-5.11 -3.35c-3.79,-1.07 -3.67,-2.51 -8.4,-4.23 -4.76,-1.74 -6.78,-1.43 -10.49,-2.41l0.05 -5.42c-0.08,-6.81 -3.6,-5.71 -3.96,-14.3 6.02,-1.39 6.78,-3.99 13.91,0.81zm-4.54 -7.58c13.2,-7.89 22.53,12.67 26.41,20.65 0.82,1.69 1.75,3.74 1.97,5.71 0.54,4.85 -1.34,5.64 -1.54,5.91 -2.37,-2.39 -8.13,-15.69 -10.63,-19.62 -6.01,-9.44 -13.35,-10.36 -16.21,-12.65zm94.27 -39.57c0.18,-0.21 0.46,-0.44 0.6,-0.56l7.25 -5.09c11.42,-5.77 4.98,-2.3 12.1,-4.84 2.24,-0.8 1.21,-0.52 2.06,-1.01 3.43,-1.99 6.26,-4.73 12.16,-5.81 5.68,-1.04 18.21,-0.18 23.61,1.06 8.07,1.86 10.22,3.98 14.97,10.01 11.67,14.84 9.17,15.26 6.82,37.58 -0.37,3.48 -1.29,4.63 -3.14,8.5 -2.64,5.53 -8.51,20.85 -12.95,24.63 -1.23,9.56 -10.97,14.64 -11.48,22.9 1.32,1.64 5.05,6.72 7.24,12.12 4.4,9.27 8.46,20.6 6.82,33.44 -2.45,1.61 -4.37,1.02 -7.61,2.35 -4.15,1.69 -2.5,1.87 -7.2,2.7 -2.17,1.88 -8.65,4.46 -11.16,6.08 -3.46,2.23 -8.51,4.77 -11.21,6.87 -6.49,5.04 -5.02,22.31 -3.34,31.43 0.06,1.2 0.18,3.21 0.69,4.26 1.33,2.78 -0.03,1.68 2.71,2.65 2.16,-4.69 1.25,-5.34 1.16,-10.39 -1.38,-2.11 -1.03,-5.35 -0.91,-7.77 0.67,-13.14 -1.44,-12.89 6.96,-17.91 4.06,-2.43 21.5,-7.41 25.93,-7.15 -2.28,9.58 -4.17,21.21 -4.47,32.05 -0.17,6.16 -0.79,11.42 -0.4,17.02 0.19,2.84 0.37,5.8 0.56,8.63 0.07,1.06 0.23,2.38 0.14,3.44l-0.86 3.24c-7.5,2.06 -7.46,0.76 -14.4,4.45 -26.99,14.34 -27.31,38.25 -30.75,43.56 -6.09,9.43 -21.65,19.12 -31.5,24.12 -9.4,6.68 -22.4,10.14 -33.08,15.66 -5.69,2.93 -11.76,3.93 -17.61,6.56 -5.6,2.52 -10.76,2.39 -17.26,-0.1 -2.05,-0.79 -0.75,-0.04 -2.2,-1.19 -7.3,-1.76 -23.85,-11.87 -29.05,-16.8 -8.2,-7.77 -8.42,-24.04 -7.85,-38.34 1.94,-48.1 4.14,-31.33 19.18,-50.12 2.52,-3.15 2.58,-2.72 2.33,-7.28 -0.54,-9.73 -0.27,-8.04 -2.79,-8.92 -1.39,4.42 1.02,6.55 -2.12,10.72 -0.99,1.32 -5.05,4.93 -6.06,5.88 -2.43,2.29 -12.33,9.45 -13.81,11.76 1.18,3.13 1.19,1.56 -0.61,7.07 -1,3.07 -1.14,6.28 -2.14,8.64l-1.29 -3.56c-4.32,-18.05 5.71,-18.29 17.86,-35.94 5.93,-8.6 7.58,-39.27 7.3,-50.73 -0.42,-17.41 -6.16,-24.04 -2.8,-29.75 1.19,-2.9 1.73,-5.02 5.08,-6.41l5.41 14.2c1.5,1.77 0,0.8 2.8,1.34 -0.11,-5.92 -8.04,-20.03 -4.25,-25.42 10.03,8.9 0.15,8.55 20.34,14.58l2.39 0.99c0.14,-0.23 0.54,0.25 0.77,0.42 -4.13,3.72 -20.36,12 -18.5,16.82 7.78,-0.96 13.28,-8.48 17.57,-9.53l-5.71 22.46 -3.55 0.97c-2.92,5.93 -12.86,7.32 -14.82,10.44 -2.87,6.15 4.06,19.9 6.05,24.52 3.13,7.31 6.74,14.23 12.45,18.16 4.18,0.5 5.98,-1.59 8.72,-3.92l20.86 -15.29c10.58,-7.5 16.39,-9.12 24.95,-14.19 2.95,-1.75 1.93,-2.07 2.34,-3.29l0.42 -1.45c5.08,0.91 27.2,9.62 31.32,14.1 7.82,2.26 6.03,12.2 11.85,16.82 0.34,-0.79 0.35,-0.44 0.27,-1.92l-1.3 -6.38c-2.26,-15.56 -5.01,-8.32 -14.08,-16.63 -2.46,-0.23 -22.65,-9.09 -26.06,-10.82 -4.21,-3.85 1.21,-6.21 -5.34,-6.21 -3.28,0 -7.09,0.36 -10.69,0.27 -2.19,-5.42 -4.69,-7.54 -6.58,-13.85 -1.14,1.06 -2.32,0.09 -0.65,5.97 0.71,2.48 0.95,3.59 1.59,6.42 1.63,2.27 2.71,5.39 3.65,8.63 4.18,-0.37 7.34,-1.06 10.05,1.07 -1.78,4.98 -2.32,0.4 -13.36,8.79 -1.76,1.33 -1.27,1.14 -3.39,2.66l-12.23 8.84c-0.72,0.6 -0.88,0.79 -1.68,1.4 -0.17,0.13 -0.41,0.31 -0.58,0.43l-18.07 15.05c-2.25,-4 -6.56,-4.15 -2.57,-20.82l22.03 -79.34c1.08,-3.35 1.49,-6.35 2.84,-10.04 4.05,-11.12 9.98,-16.77 8.2,-27.49 -1.31,-7.82 -4.43,-13.37 -9.86,-15.94 -1.26,3.47 -4.65,8.59 -2.5,12.01 4.37,-1.78 -0.26,-0.35 4.07,-4.32 0.9,5.76 2.65,8.46 1.79,15.26 -3.5,-1.11 -4.84,-6.03 -6.84,-8.9 -12.19,-17.44 -23.67,-12.66 -32.93,-11.86 2.5,-5.82 7.24,-11.2 12.42,-15.57 3.53,-2.97 5.12,-2.96 7.78,-6.35 9.85,-12.57 18,-29.33 37.58,-30.33 3.52,10.35 0.04,21.06 1.84,27.47 -0.85,4.81 -0.94,7.77 -0.88,12.64l0.91 8.07c0.05,0.12 0.28,0.75 0.31,0.61 0.04,-0.14 0.2,0.43 0.34,0.63 4.74,-6.61 12.66,-11.69 19.26,-16.96l19.77 -14.93zm199.59 50.82c-5.65,5.57 -19.69,18.96 -26.66,22.28 -9.11,4.35 -7.11,4.1 -19.12,8.4 0.17,-7.86 1.44,-13.24 0.89,-23.01 -1.1,-19.61 -4.43,-15.8 -5.14,-22.67l18.62 -10.57c1.62,-0.67 22.01,-3.61 24.68,-3.68l5.45 -0.33c-9.93,-5.95 -37.09,2.46 -49.32,7.89 -4.46,1.97 -9.76,5.6 -13.65,6.66 -1.95,3.18 -0.02,1.59 -3.01,3.78 -0.69,2.87 0.15,1.51 -2.01,3.01l-1 1.01 -1 1 -1.01 1.01 -1 1 -1.01 2.01 -1 1c0,1.47 0.32,1 -1.34,1l-6.28 8.46c-4.21,6.74 -15.27,21.9 -17.08,27.17l-3.1 4.91c-1.44,4.23 0.16,1.08 -0.34,3.45 -0.29,1.35 -3.44,6.99 -4.99,8.99 -2.79,-4.83 -1.8,-22.12 0.18,-28.65 2.69,-8.81 3.84,-8.94 8.05,-14.18 0.13,-0.16 0.31,-0.4 0.44,-0.56 2.47,-3.22 1.79,-3.06 5.8,-5.48l1.13 -4.49c-7.57,5.92 -14.27,5.64 -21.16,19.92 -1.55,3.21 -3.17,5.83 -4.34,8.53 -1.66,20.82 -3.3,15.32 -0.07,32.3 1.57,8.25 -2.2,-0.61 0.75,10.79 1.8,6.99 1.21,14.57 3.11,20.3 4.53,13.71 15.66,21.21 19.91,25.99 -4.08,3.48 -6.5,5.33 -12.85,5.31 -6.03,-0.81 -25.23,7.92 -29.72,10.63 -0.9,-8.64 2.03,-18.52 4.27,-26.34 4.25,-14.81 4.87,-38.19 0.54,-54.01 -1.76,-6.44 -10.77,-15.49 -5.29,-22.02 0.13,-0.16 0.36,-0.36 0.5,-0.51l3.44 -3.58c4.39,-6.12 4.95,-9.27 7.88,-15.28 3.56,-7.3 8.41,-12.57 10.6,-20.62 1.17,-4.3 1.31,-8.66 2.53,-13.45 5.21,-20.38 -0.62,-24.05 -2.77,-35.98l4.59 0.18c0.26,-0.13 0.6,-0.27 0.79,-0.35 7.28,-3.01 10.4,-2.4 17.2,-4.36l4.61 -2.36c-9.05,0.06 -25.79,2.97 -31.39,2.24 3.56,-7.72 12.7,-4.36 17.73,-8.69 4.42,-3.81 1.1,-3.14 7.97,-5.34 15.02,-4.81 34.52,-8.77 51.46,-11.88 9.8,-3.56 39.72,-4 51.61,-3.54 7.38,0.29 16.64,1.19 23.87,3.14 8.17,2.21 12.18,2 15.1,6.02l2.34 4.04c-0.06,2.56 -8.62,19.19 -10.77,22.57 -8.16,12.81 -16.49,26.61 -25.66,38.58l-13.96 18.36zm-294.99 -69.1c-2.55,3.17 -1.32,-0.04 -3.39,3.65 1.14,3.53 2.05,3.73 4.2,5.71 3,0.89 4.36,1.6 5.6,3.76 3.46,6.03 4.19,10.44 -0.56,15.55l-2.25 2.22c-3.17,3.18 -4.68,4.91 -8.31,8.34 -1.58,1.49 -0.7,0.34 -1.8,2.33 -1.78,3.21 -0.78,4.49 -5.66,7.01 -0.92,2.65 -9.14,8.01 -11.13,10.29 1.69,3.83 5.52,12.81 6.07,17.13 -2.69,-2.42 -4.5,-2.41 -7.56,-4.51 -7.59,-5.19 -12.55,-9.88 -16.84,-17.78 -8.09,-2.61 -6.74,-7.59 -11.34,-13.34 -1.69,-2.11 -1.02,-0.54 -2.98,-2.97 -10.66,-13.2 -6.78,-49.84 -4.46,-54.51 1.49,-6.93 4.16,-6.45 19.4,-3.54 9.16,1.74 22.63,7.07 35.66,7.23 2.52,-0.32 16.13,-0.39 18.99,-0.15 -0.43,2.93 -2.96,7.77 -4.38,9.59 -2.28,2.93 -4.88,2.84 -9.26,3.99zm33.75 0.77l-17.72 15.72c-3.4,-14.73 -0.63,-12.56 5.47,-22.3 4.19,-6.69 5.12,-10.29 11.1,-15.95 1.71,-1.61 -0.96,-0.03 1.87,-1.29 3.56,-4.81 6.38,-4.39 10.86,-2.41 -3.04,5.95 -5.18,17.61 -6.69,21.76 -1.33,3.64 -1.21,3.17 -4.89,4.47zm134.09 -5.64c-2.54,-0.01 -10.77,-1.97 -15.02,-2.86 -9.71,-2.01 -6.56,-1.04 -15.73,0.22 1.24,-2.63 13.43,-13.67 15.57,-15.74l11.96 -10.15c3.44,-2.76 9.73,-6.67 14.15,-8.05 15.45,-4.79 8.83,-8.11 19.23,-10.99 5.03,-1.4 6.4,-2.82 10.65,-2.81 5.16,-2.67 18.37,-0.22 23.73,2.08 7.87,3.37 11.62,11.74 16.05,15.08 15.45,11.62 -23.36,11.18 -33.75,15.39 -5.41,3.34 1.96,0.95 -4.58,4.63 -1.14,0.64 -4.95,2.17 -5.71,2.43 -4.41,1.48 -8.36,2.26 -12.66,4.32 -3.95,1.9 -9.95,9.71 -21.1,7.59 -2.31,-0.44 -1.62,-0.17 -2.79,-1.14zm-103.92 -21.38c-3.87,9.46 1.87,14.5 -19.43,18.96 0.7,-8.94 3.07,-4.47 4.93,-11.8 3.91,-15.34 8.7,-19.95 18.51,-27.61 0.99,-0.74 2.32,-1.88 3.45,-2.63 6.36,-4.18 12.28,-11.15 25.5,-9.86 -3.25,2 -6.9,4.51 -9.63,6.65 -17.75,13.88 -18.09,20.12 -23.33,26.29zm51.93 23.62c-4.71,6.05 -14.95,9.28 -20.23,12.71 -3.17,2.07 -2.59,2.34 -6.36,4.69l-19.63 13.46c-2.32,2.03 -2.88,3.05 -5.7,4.77 1.07,-5.67 0.77,-6.97 2.91,-8.75 0.16,-3.29 1.98,-6.16 3.16,-9.63 2.01,-5.92 1.33,-3.58 4.99,-7.1 7.6,-7.32 17.4,-19.56 23.92,-24.31l14.38 -10.53c3.98,-5.36 19.17,-15.72 26.58,-19.75 6.56,-3.57 24.06,-14.13 30.09,-15.61 0.8,-0.64 0.73,-0.62 2.08,-1.4l4.28 -1.85c2.82,-0.81 4.57,-0.51 6.56,-0.13 4.54,0.86 9.12,1.49 11.74,5 -1.79,2.25 -3.23,2.36 -6.04,3.53 -2.03,0.85 -3.36,1.73 -5.33,2.71 -5.01,2.47 -6.54,3.09 -11.03,5.92 -15.4,9.68 -21.74,17.18 -24.36,18.86 -6.69,4.29 -9.97,11.58 -17.38,16.72 -5.69,3.95 -9.57,8.78 -14.63,10.69zm-54.81 28.55c0.71,-8.65 1.55,-11.69 3.45,-18.86 1.09,-4.15 0.31,-5.59 0.91,-8.21 1.16,-5 2.38,-3.23 4.17,-5.87 1.54,-2.28 1.59,-5.78 2.51,-8.53 5.11,-15.32 15.29,-15.97 26,-26.1 4.31,-4.08 5.94,-5.87 11.4,-9.74 7.52,-5.32 18.52,-13.16 27.61,-13.74 -3.72,1.05 -2.85,1.84 -5.8,4.47 -1.84,1.64 -4.17,3.06 -5.86,4.28 -11.97,8.61 -23.33,19.14 -32.48,30.65 -3.74,4.69 -5.89,7.1 -9.03,12.06 -2.47,3.89 -12.73,13.91 -16.78,25.36l-6.1 14.23zm92.06 -87.34l-30.73 17.92c-13.52,8.37 -23.03,19.32 -27.05,21.43 3.29,-6.53 15.76,-17.52 21.47,-22.95 3.84,-3.64 21.17,-17.25 25.27,-18.31 7.2,-6.7 17.84,-5.77 27.49,-5.07 -3.08,1.94 -12.62,5.28 -16.45,6.98z"/>
   <path class="fil1" d="M234.82 236.76c6.29,-1.7 8.71,-1.52 5.27,5.13 -1.72,3.32 -2.11,8.16 -5.79,8.42 -1.1,-4.29 0.33,-8.89 0.52,-13.55zm-7.47 -118.1c-4.31,-8.9 8.4,-16.88 15.32,-19.71 7.99,-3.28 24.36,-4.3 31.81,-0.1 18.25,10.27 -35.67,23.29 -47.13,19.81zm-3.3 -19.84l-19.77 14.93c-6.6,5.27 -14.52,10.35 -19.26,16.96 -0.14,-0.2 -0.3,-0.77 -0.34,-0.63 -0.03,0.14 -0.26,-0.49 -0.31,-0.61l-0.91 -8.07c-0.06,-4.87 0.03,-7.83 0.88,-12.64l0.39 -4.4c-2.88,1.7 -1.29,-0.81 -3.24,3.89 -3,7.26 -4.96,25.83 -0.78,32.1 4.55,-2.69 -0.15,-4.6 10.61,-9.38 19.49,-8.64 20.44,0.76 33.13,-0.87 7.9,-1.01 57.77,-15.82 55.36,13.18 -0.04,0.55 -1.49,7.11 -1.79,7.96 -1.22,3.47 -1.59,3.38 -5.35,4.35 1.39,3.24 -0.11,6.85 -2.13,4.74 -7.56,0.77 -3.3,1.56 -10.61,-1.72 -8.11,-3.65 -26.25,1.31 -33.5,4.48 -3.55,1.55 -7.03,2.64 -10.14,3.81 -3.33,1.25 -2.12,0.46 -5.04,2.04 -4.69,2.55 -18.25,10.38 -19.13,14.84l3.6 -0.21c4.2,-0.4 0.67,-2.5 11.77,-6.36 3.89,-1.35 9.8,-3.65 13.85,-4.28 5.47,-0.86 11.88,-1.34 17.59,-1.66 6.14,-0.34 13.07,0.81 18.07,0.42 3.47,-3.61 3.63,-5.08 9.48,-5.32 -0.66,3.95 -3.42,5.93 -5.7,8.29 2.49,2.04 1.66,1.72 0.88,6.53 -0.32,1.97 -0.59,4.2 -1.67,6 7.22,10.23 2.67,13.85 -4.01,22.44 -3.2,4.12 -3.42,5.84 -6.46,10.56 -2.76,4.31 -2.86,7.69 -7.57,8.24l1.21 -4.98c-3.23,-0.41 -2.57,1.25 -3.57,-3.04 -0.75,-3.18 0.88,-2.86 2.38,-7.64 1.13,-3.59 0.49,-0.59 1.59,-4.47 -11.97,7.05 -13.11,8.44 -13.42,18.39 -0.33,10.62 -1.26,19.97 -0.68,31.09 -3.21,-2.14 -0.84,-1.89 -5.63,-1.45 9.07,8.31 11.82,1.07 14.08,16.63l1.3 6.38c0.08,1.48 0.07,1.13 -0.27,1.92 -5.82,-4.62 -4.03,-14.56 -11.85,-16.82 -28.03,-8.36 -33.98,-8.75 -52.54,5.23l-26.44 21.83c-1.37,1.46 -0.5,0.42 -1.22,1.72 4.74,-0.72 12.45,-5.14 15.84,-7.19 10.42,-6.28 25.78,-13.48 37.22,-17.93 5.04,-1.97 13.27,-9.08 22.47,2.29 5.14,6.37 19.97,35.82 20.08,43.58l-3.29 1.17 -7.91 1.26c-1.12,9.64 -4.59,18.32 -11.34,24.86 -3.3,3.2 -2.03,2.56 -5.44,2.99l0.18 -8.6 -3.45 1.09c-10.12,3.7 -5.43,1.41 -4.67,-5.71 0.05,-6.05 -0.46,-6.63 -5.11,-8.72 -0.32,1.96 1.98,1.37 -5.33,4.17 -10.21,3.9 -5.1,16.63 -11.41,18.91 -8.52,-0.35 -10.2,-5.85 -19.68,-2.02 0.26,6.06 5.09,5.06 7.67,8.84 1.6,2.35 3.42,10.27 -4.05,11.26l-2.02 -1.43c-0.16,-0.52 -0.64,-0.5 -0.93,-0.8l-1.07 4.1c-3.69,-1.01 -1.15,0.59 -3.34,-2.8 -2.31,-3.58 0.1,-0.84 -2.67,-3.39 -0.53,3.24 -0.3,1.68 -5.94,1.48 -4.57,-0.16 -4.36,0.86 -8.07,-0.39l4.89 11.29c-2.98,-1.27 -0.75,1.1 -3.1,-3.08 -0.72,-1.28 -1.12,-2.27 -1.64,-3.37 -2.07,-4.29 -0.81,-3.12 -4.81,-5.47 -1.14,2.66 -6.58,1.93 -9.84,1.56l0.97 5.77c-3.84,-0.18 -5.82,-5.59 -6.41,-9.39 -4.51,0.72 0.41,0.55 -3.69,-1.7 -0.89,-0.49 -3.2,-1.37 -4.68,-1.95 0.68,3.51 1.5,6.19 2.37,9.02 1.01,3.28 2.22,5.08 2.46,8.16 -5.34,-3.97 -5.9,-11.22 -9.21,-16.38 -2.07,2.32 -1.34,1.01 0.14,5.79l0.99 3.16c2.94,7.29 11.28,13.97 17.21,18.78 -3.54,3.25 -4.38,1.06 -6.79,5.91 -1.26,6.1 13.96,12.36 10.81,13.97 1.45,1.15 0.15,0.4 2.2,1.19 6.5,2.49 11.66,2.62 17.26,0.1 5.85,-2.63 11.92,-3.63 17.61,-6.56 10.68,-5.52 23.68,-8.98 33.08,-15.66 2.46,-4.33 9.59,-11.3 10.57,-12.83 1.69,-2.64 2.76,-5.15 4.4,-7.77 10.22,-16.27 3.48,-9.68 11.54,-22.56 8.9,-14.19 4.86,-11.2 6.97,-15.64 6.46,-0.75 6.34,0.07 12.45,-1.13 3.64,-9.49 2.25,-0.68 5.6,-15.43 1.91,-8.44 5.43,-5.77 9.04,-12.03 2.34,-4.07 2.08,-32.15 1.42,-34.63 -0.63,2.93 -1.89,5.54 -2.31,7.71 -0.46,2.43 -0.24,6.26 -0.26,8.84 -4.99,3.06 -2.74,4.1 -7.96,6.86 0.06,-1.94 0.28,-0.88 -0.4,-2.8 -0.6,-1.7 -0.82,-1.65 -1.36,-2.27 0.09,5.05 1,5.7 -1.16,10.39 -2.74,-0.97 -1.38,0.13 -2.71,-2.65 -0.51,-1.05 -0.63,-3.06 -0.69,-4.26 -4.44,-1.29 -8.04,-8.93 -8.93,-14.19 -0.4,-2.33 -0.46,-6.46 0.24,-9.05 1.76,-6.56 2.11,-1.04 3.6,-7.22l-2.94 -0.9c1.12,-3.38 -1.77,-0.56 5.93,-5.52 3.2,-2.06 3.45,-3.15 7.55,-3.25 -1.51,-5.92 15.66,-9.26 15.33,-22 -0.38,-14.72 -1.23,-22.64 5.68,-32.86 0.51,-8.26 10.25,-13.34 11.48,-22.9l8.29 -21.19c2.63,-5.4 2.59,-6.56 1.41,-12.03 -1.4,-6.47 0.45,-4.76 0.78,-10.75 -1.97,-2.93 -1.46,-0.96 -3.25,-3.58 -4.17,-6.06 2.79,-3.22 -16.72,-18.47 -18.21,-14.22 -41.84,-1.69 -53.99,1.55z"/>
   <path class="fil2" d="M122.94 212.73c-1.59,-0.95 -3.94,-2.67 -5.47,-4.1 -2.27,-2.1 -1.21,-3.03 -5.02,-3.69 -3.36,5.71 2.38,12.34 2.8,29.75 0.28,11.46 -1.37,42.13 -7.3,50.73 -12.15,17.65 -22.18,17.89 -17.86,35.94l1.29 3.56c1,-2.36 1.14,-5.57 2.14,-8.64 1.8,-5.51 1.79,-3.94 0.61,-7.07 1.48,-2.31 11.38,-9.47 13.81,-11.76 1.01,-0.95 5.07,-4.56 6.06,-5.88 3.14,-4.17 0.73,-6.3 2.12,-10.72 2.52,0.88 2.25,-0.81 2.79,8.92 0.25,4.56 0.19,4.13 -2.33,7.28 -15.04,18.79 -17.24,2.02 -19.18,50.12 -0.57,14.3 -0.35,30.57 7.85,38.34 5.2,4.93 21.75,15.04 29.05,16.8 3.15,-1.61 -12.07,-7.87 -10.81,-13.97 2.41,-4.85 3.25,-2.66 6.79,-5.91 -5.93,-4.81 -14.27,-11.49 -17.21,-18.78l-0.99 -3.16c-1.48,-4.78 -2.21,-3.47 -0.14,-5.79 -1.28,-6.13 -4.59,-16.47 -2.06,-23.09 5.13,0.3 3.09,4.15 3.89,10.1 0.43,3.16 1.52,9.39 2.55,12.19 1.48,0.58 3.79,1.46 4.68,1.95 4.1,2.25 -0.82,2.42 3.69,1.7 -1.15,-5.4 -4.03,-7.61 -0.19,-11.33 3.25,1.49 2.51,3.06 3.36,6.76 0.5,2.22 1.43,5.7 2.27,8.19 3.26,0.37 8.7,1.1 9.84,-1.56 -1.22,-6.86 -4.91,-5.68 -0.41,-9.69 2.27,1.4 0.25,-0.91 2.23,2.09l2.84 8.23c3.71,1.25 3.5,0.23 8.07,0.39 5.64,0.2 5.41,1.76 5.94,-1.48 0.34,-3.91 -1.95,-1.54 0.99,-5.82 5.57,1.91 2.28,3.48 6.09,7.91 0.29,0.3 0.77,0.28 0.93,0.8l2.02 1.43c7.47,-0.99 5.65,-8.91 4.05,-11.26 -2.58,-3.78 -7.41,-2.78 -7.67,-8.84 9.48,-3.83 11.16,1.67 19.68,2.02 6.31,-2.28 1.2,-15.01 11.41,-18.91 7.31,-2.8 5.01,-2.21 5.33,-4.17 -2.06,-1.95 -5.37,-2.18 -8.92,-2.17 -15.47,0.86 -51.3,0.43 -52.81,-21.11 -6.62,1.28 -7.68,1.29 -9.74,-2.04 2.92,-2.17 3.31,-2.41 9.79,-1.71l-1.31 -6.8c-5.71,-3.93 -9.32,-10.85 -12.45,-18.16 -1.99,-4.62 -8.92,-18.37 -6.05,-24.52 1.96,-3.12 11.9,-4.51 14.82,-10.44l0.1 -12.89c-2.36,0.3 -3.85,0.91 -5.28,0.69 -3.36,-0.51 -2.77,-1.42 -3.13,-1.7 -1.86,-4.82 14.37,-13.1 18.5,-16.82 -0.23,-0.17 -0.63,-0.65 -0.77,-0.42l-2.39 -0.99c-20.19,-6.03 -10.31,-5.68 -20.34,-14.58 -3.79,5.39 4.14,19.5 4.25,25.42 -2.8,-0.54 -1.3,0.43 -2.8,-1.34z"/>
   <path class="fil3" d="M176.1 238.11c-9.27,2.14 -14.05,13.95 -17.74,15.72 -2.47,-5.94 6.21,-38.48 8.08,-45.37 6.33,-23.35 12.42,-26.5 14.63,-38.97 -1.35,-5.09 0.56,-3.84 -1.57,-8.3l-3.67 1.13c0.07,-5.92 10.47,-16.84 14.92,-20.6 3.58,2.7 6.28,6.26 10.04,8.63 10.73,-7.14 20.86,-16.18 39.18,-14.89 5.74,0.4 13.34,5.17 19.05,8.01 6.52,3.25 9.53,7.58 13.65,12.12 3.76,-0.97 4.13,-0.88 5.35,-4.35 0.3,-0.85 1.75,-7.41 1.79,-7.96 2.41,-29 -47.46,-14.19 -55.36,-13.18 -12.69,1.63 -13.64,-7.77 -33.13,0.87 -10.76,4.78 -6.06,6.69 -10.61,9.38 -4.18,-6.27 -2.22,-24.84 0.78,-32.1 1.95,-4.7 0.36,-2.19 3.24,-3.89l-0.39 4.4c-1.8,-6.41 1.68,-17.12 -1.84,-27.47 -19.58,1 -27.73,17.76 -37.58,30.33 -2.66,3.39 -4.25,3.38 -7.78,6.35 -5.18,4.37 -9.92,9.75 -12.42,15.57 9.26,-0.8 20.74,-5.58 32.93,11.86 2,2.87 3.34,7.79 6.84,8.9 0.86,-6.8 -0.89,-9.5 -1.79,-15.26 -4.33,3.97 0.3,2.54 -4.07,4.32 -2.15,-3.42 1.24,-8.54 2.5,-12.01 5.43,2.57 8.55,8.12 9.86,15.94 1.78,10.72 -4.15,16.37 -8.2,27.49 -1.35,3.69 -1.76,6.69 -2.84,10.04l-22.03 79.34c-3.99,16.67 0.32,16.82 2.57,20.82l18.07 -15.05c0.17,-0.12 0.41,-0.3 0.58,-0.43 0.8,-0.61 0.96,-0.8 1.68,-1.4l12.23 -8.84c2.12,-1.52 1.63,-1.33 3.39,-2.66 11.04,-8.39 11.58,-3.81 13.36,-8.79 -2.71,-2.13 -5.87,-1.44 -10.05,-1.07 -0.94,-3.24 -2.02,-6.36 -3.65,-8.63z"/>
   <path class="fil4" d="M274.75 444.91l3.02 0.02c-2.51,3.68 -9.62,9.1 -13.32,12.06 -5.09,4.08 -8.4,8.95 -12.21,13.52 5.31,-1.07 8.72,-5.91 14.65,-6.88 9.41,-1.53 10.99,-9.96 19.01,-12.93 2.83,-1.05 4.18,-2.71 6.64,-4.74 4.08,-3.36 9.32,-7.38 13.15,-9.94l-0.51 -1.4c-0.04,-0.11 -0.19,-0.45 -0.23,-0.56l21.32 -14.65c0.1,-0.04 0.37,-0.14 0.46,-0.18l0.8 -0.5c2.75,-2.46 -1.41,-4.72 7.32,-5.75 -4.19,1.37 -0.81,-5.95 0.02,-6.97 3.83,-4.71 3.03,0.89 6.11,-4.93 2.02,-3.81 4.51,-10.98 8.7,-14.22 1.89,-8.08 11.62,-14.04 16.85,-24.38 3.49,-6.89 4.05,-2.13 8.48,-12.77 2.21,-5.29 6.88,-7.46 7.82,-13.56 -5.98,0.05 -5.36,0.22 -8.97,3.39 -2.68,2.36 -4.17,2.44 -7.08,5l-12.13 12.96c-4.41,4.82 -6.56,8.42 -8.99,15.16 -2.17,6.06 -4.25,12.46 -5.63,19.48 -2.32,-2.68 -3.43,-1 -0.65,-9.78 2.71,-8.56 1.85,-13.27 6.82,-24.35 5.04,-11.24 2.23,-4.43 2.76,-11.21l5.89 -3.7c-0.64,-0.32 -2.52,0.31 0.15,-5.07 3.33,-6.74 6.59,-7.8 12.17,-12.18 6.35,-4.97 11.77,-8.75 18.95,-13.22 7.79,-4.84 11.32,-8.96 16.71,-15.34 2.38,-2.8 13.02,-16.29 13.42,-16.16l1.06 -1.27c6.35,-8.86 4.97,-11.93 4.58,-20.07l-0.94 -7.19c-5.31,-0.87 -1.26,-6.07 -6.57,-12.64l-5.59 -4.29c-0.8,10.31 -8.76,19.82 -13.82,28.72 -6.31,11.14 -25.13,46.95 -36.41,53.77 -3.82,2.31 -6.23,5.72 -8.99,9.1 -10.25,12.53 -16.09,36.53 -20.11,52.2 -1.58,6.12 -0.18,11.41 -8.35,24.82 -9.18,15.04 -9.1,12.35 -22.24,20.87 -5.85,3.8 -5.93,0.27 -14.12,6.96 -5.68,4.64 -8.13,6.06 -10,12.8z"/>
   <path class="fil5" d="M300.65 208.44c1.56,-4.19 0.29,-11.53 0.85,-16.43 0.27,-2.31 0.51,-5.39 0.92,-8.12 0.74,-4.9 -0.32,-3.88 2.9,-6.39 1.17,-2.7 2.79,-5.32 4.34,-8.53 6.89,-14.28 13.59,-14 21.16,-19.92l-1.13 4.49c-1.78,5.13 -3.97,8.69 -5.63,13.75 -1.48,4.5 -3.46,13.46 -0.41,17.77 1.81,-5.27 12.87,-20.43 17.08,-27.17l6.28 -8.46 1.34 -1 1 -1 1.01 -2.01 1 -1 1.01 -1.01 1 -1 1 -1.01c0.69,-2.86 -0.15,-1.51 2.01,-3.01 0.2,-0.86 0.82,-3.4 1.19,-4.07 1.41,-2.54 0.88,-2.95 1.82,0.29 3.89,-1.06 9.19,-4.69 13.65,-6.66 12.23,-5.43 39.39,-13.84 49.32,-7.89l-5.45 0.33 -13.73 12.54c-6.41,6.52 -9.99,19.78 -10.89,28.47 4.57,-1.67 19.09,-13.06 23.32,-16.95 2.88,-2.66 0.34,-0.02 2.37,-2.66l10.5 -11.61c4.47,-5.39 4.67,-7.87 10.51,-12.21 0.52,-3.22 1.68,-4.25 3.35,-7.1 1.83,-3.1 2.07,-4.67 3.44,-7.55 2.81,-5.91 5.44,-9.59 6.69,-16.12 -0.94,0.36 -2.02,0.42 -2.73,1.01 0.11,5.54 1.54,5.08 -2.87,6.21 -1.47,0.37 -5.44,0.8 -7.2,0.97 -19.54,1.85 -19.22,0.83 -42.62,5.4 -16.25,3.17 -23.87,2.94 -39.83,8.45 -4.73,1.63 -7.48,2.77 -11.9,4.07 -6.74,2 -16.21,6.56 -22.24,9.88 -5.23,2.88 -3.69,4.97 -5,10.88 -4.53,20.3 -12.57,26.4 -20.53,43.79 -1.6,3.52 -4.76,6.02 -6.32,9.95 6.51,8.21 5.7,11.89 8.38,18.59 1.18,2.97 -0.75,-0.07 1.04,2.04z"/>
   <path class="fil6" d="M262.16 400.32c1.17,-3.54 1.16,-3.35 4.21,-5.65 2.36,-1.78 2.86,-3 6.74,-3.33 0,6.39 -6.28,10.22 -10.95,8.98zm-23.37 1.72c3.18,-0.65 9.74,-4.69 12.98,-6.93 4,-2.76 6.42,-7.5 12.2,-7.67 -0.77,4.91 -18.85,25.31 -24.73,29.57 -0.81,-3.59 -0.5,-10.99 -0.45,-14.97zm12.7 -26.77c9.22,-2.44 4.57,-5.28 7.2,-2.79 0.66,0.63 3.13,-0.92 -1.58,4.83 -9.32,11.39 -7.11,6.81 -16.25,12.34 2.96,-10.28 6.35,-19.58 10.28,-29.29 1.83,-4.53 3.71,-10.28 5.5,-14.57 1.84,-4.42 5.87,-9.84 5.25,-14.32 -8.56,1.49 -12.14,23.6 -18.82,29.89 -2.54,2.4 -5.56,5.88 -8.8,8.25 -7.71,5.64 -7.91,4.2 -19.9,13.22 -3.44,2.6 -6.52,4.11 -9.7,6.38 -2.37,1.69 -6.81,4.92 -10.33,5.71 3.19,8.26 3.74,5.44 4.96,9.04 1.05,3.09 -0.03,8.09 -0.77,10.07 -12.2,-1.37 1.61,-9.21 -31.88,-8.52 1.79,8.22 2.06,9.1 10.34,11.7 6.62,2.08 9.91,1.91 17.92,2.48 -7.5,7.35 -12.21,0.8 -15.55,4.79 1.52,2.94 5.54,4.13 9.59,4.54 7.64,0.78 7.05,-1.19 12.17,-2.28 6.56,-1.4 16.36,5.64 21.16,7.73 4.93,-10.68 4.85,-19.89 7.62,-22.76 6.35,8.83 0.8,21.4 -1.48,29.28l4.17 3.11c11.66,-5.78 -3.01,-8.72 17.75,-28.43 2.5,-2.37 2.73,-1.56 2.74,-1.56l1.22 0.15c0.9,2.88 -0.72,5.17 -1.83,9.45 3.46,-1.93 12.54,-12.58 17.62,-16.23 2.37,-1.7 4.72,-1.85 6.31,-5.02 2.34,-6.58 3.71,-75.31 2.09,-82.5 -4.4,2.6 -4.98,11.69 -8.8,21.94 -3.81,10.24 -15.18,24.71 -18.2,33.37z"/>
   <path class="fil7" d="M312.74 91.21l-4.59 -0.18c2.15,11.93 7.98,15.6 2.77,35.98 -1.22,4.79 -1.36,9.15 -2.53,13.45 -2.19,8.05 -7.04,13.32 -10.6,20.62 -2.93,6.01 -3.49,9.16 -7.88,15.28l-3.44 3.58c-0.14,0.15 -0.37,0.35 -0.5,0.51 -5.48,6.53 3.53,15.58 5.29,22.02 4.33,15.82 3.71,39.2 -0.54,54.01 -2.24,7.82 -5.17,17.7 -4.27,26.34 4.49,-2.71 23.69,-11.44 29.72,-10.63l3.36 -2.35c-17.02,-9.56 -19.32,-43.21 -18.88,-61.4 -1.79,-2.11 0.14,0.93 -1.04,-2.04 -2.68,-6.7 -1.87,-10.38 -8.38,-18.59 1.56,-3.93 4.72,-6.43 6.32,-9.95 7.96,-17.39 16,-23.49 20.53,-43.79 1.31,-5.91 -0.23,-8 5,-10.88 6.03,-3.32 15.5,-7.88 22.24,-9.88 4.42,-1.3 7.17,-2.44 11.9,-4.07 15.96,-5.51 23.58,-5.28 39.83,-8.45 23.4,-4.57 23.08,-3.55 42.62,-5.4 1.76,-0.17 5.73,-0.6 7.2,-0.97 4.41,-1.13 2.98,-0.67 2.87,-6.21 0.71,-0.59 1.79,-0.65 2.73,-1.01l-0.22 -0.16 1 -2.48c-4.74,-1.06 -0.89,-0.71 -4.12,-1.64 -6.28,-1.83 -14.06,-1.21 -19.9,-1.43 -3.3,-0.13 -5.86,-0.25 -9.2,-0.03l-73.43 5.3c-4.58,0.47 -12.85,1.26 -17.43,2.28 -5.63,1.24 -10.02,4.43 -16.43,2.17z"/>
   <path class="fil8" d="M74.85 379.86c-5.23,-8.07 -11.54,-15.25 -17.42,-21.81 -9.24,-10.31 -7.07,-16.2 -13.76,-23.92 -2.32,-2.68 -9.52,-21.9 -11.41,-26.35 -2.3,1.79 -1.93,1.24 -3.45,4.02 -1.78,3.26 -0.17,11.25 0.27,14.38 1.38,9.99 3.26,13.46 6.99,20.1l9.13 18.02c2.84,5.2 1.18,7.23 10.72,16.27 2.86,2.71 8.12,11.92 11.04,16.15 6.16,8.94 9.53,11.92 15.13,18.98 7.32,9.24 16.49,17.22 20.34,26.79 -3.63,-1.51 -2.71,-1.71 -5.59,-4.42 -6.52,-6.13 -3.32,1.18 -13.66,-13.41 -2.68,-3.79 -5.51,-6.12 -10.15,-8.97 -4.31,-2.66 -6.79,-5.07 -10.19,-7.83 -1.87,-1.52 -3.92,-3.29 -5.81,-4.04 -7.37,-2.93 -2.25,-0.74 -9.76,-6.51 -2.21,-1.69 -3.55,-2.04 -5.48,-3.65 -2.72,-2.27 -0.9,-0.67 -2.09,-3.57 -0.05,-0.11 -0.12,-0.41 -0.18,-0.52 -1.21,-2.41 -2.57,-2.07 -4.94,-4.67 -1.41,-1.56 -2.03,-4.78 -7.79,-4.26l-2.04 0.44c-0.1,-0.22 -0.48,0.1 -0.68,0.23 3.27,6.22 7.58,9.38 11.47,14.68 3.81,5.2 7.04,10.33 10.88,15.23 15.54,19.85 24.62,20.54 34.01,31.24 3.5,3.98 3.3,3.4 6.82,6.24 10.62,8.57 36.71,26.76 49.88,26.87l-15.22 -9.32c-3.45,-2.12 -10.87,-8.37 -11.6,-12.66 3.81,1.71 6.07,4.07 9.86,6.34 7.42,4.45 26.15,10.97 34.48,13.45l1.08 -7.06c-8.26,-2.03 -16.58,-7.07 -23.8,-11.07 -6.53,-3.61 -20.05,-19.74 -29.77,-27.55 -11.72,-9.43 -17.32,-12.46 -23.56,-22.57 -2.59,-4.19 -5.83,-10.11 -9.13,-13.93 -3.24,-3.76 -8.35,-7.5 -9.52,-13.71 3.35,1.05 1.86,0.27 3.85,3.24 1.27,1.91 1.37,2.43 2.85,4.24 3.14,3.85 16.86,19.21 21.5,20.32 -5.32,-7.45 -7.93,-17.16 -13.3,-25.43z"/>
   <path class="fil8" d="M400.83 328.82l17.87 -8.51c-3.06,8.68 -12.42,13.66 -20.05,18.96 -4.3,2.99 -6.35,5.08 -10.62,8.48 -3.25,2.59 -7.75,5.54 -7.28,11.28 10.27,1.36 28.45,-4.97 37.85,-7.85 6.11,-1.87 12.44,-2.64 18.42,-4.58 11.36,-3.68 5.64,-2.46 16.69,-4.46 -0.56,-6.75 -6.83,-16.06 -6.46,-24.42 0.46,-10.16 -3.11,-16.71 -3.58,-19.79 -0.44,-2.86 0.05,-5.09 -0.57,-8.39 -5.14,-27.13 -12.58,-32.55 -18.37,-47.7 -1.07,1.47 -0.45,-0.38 -0.73,1.91 -1,8.13 11.21,25.85 -0.01,46.49 -3,5.51 -3.61,10.54 -10.64,19.56 -2.34,2.99 -3.72,5.28 -6.11,9.01l-6.41 10.01z"/>
   <path class="fil9" d="M312.74 91.21c6.41,2.26 10.8,-0.93 16.43,-2.17 4.58,-1.02 12.85,-1.81 17.43,-2.28l73.43 -5.3c3.34,-0.22 5.9,-0.1 9.2,0.03 5.84,0.22 13.62,-0.4 19.9,1.43 3.23,0.93 -0.62,0.58 4.12,1.64l-1 2.48c2.57,-1.91 4.69,-7.84 4.98,-11.56 -6.52,-5.7 -20.5,-8.69 -29.42,-10.45 -8.8,-1.74 -2.56,0.78 -8.19,-3.5 -5.32,-0.46 -3.93,0.85 -9.2,0.13 -11.81,-1.63 -11.75,-0.08 -19.91,-0.32 -4.78,-0.15 -5.03,-1.08 -9.4,-0.87 -16.94,3.11 -36.44,7.07 -51.46,11.88 -6.87,2.2 -3.55,1.53 -7.97,5.34 -5.03,4.33 -14.17,0.97 -17.73,8.69 5.6,0.73 22.34,-2.18 31.39,-2.24l-4.61 2.36c-6.8,1.96 -9.92,1.35 -17.2,4.36 -0.19,0.08 -0.53,0.22 -0.79,0.35z"/>
   <path class="fil0" d="M179.43 300.66c3.32,0.09 4.77,0.88 7.32,1.52 8.67,2.15 13.99,0.51 17.85,4.85l-2.07 1.79c-5.64,3.68 -6.97,2.52 -9.9,2.41 -7.23,-0.25 -35.33,4.13 -43.01,-6.45 -4.22,-2.2 -2.81,-2.92 -5.42,-5.21 5.12,-1.04 13.83,-3.19 18.39,-2.69 6.14,0.68 10.34,3.1 16.84,3.78zm-8.39 -7.68c3.41,-3.13 6.22,-3.15 6.82,1.99 -3.46,-0.51 -4.5,0.06 -6.82,-1.99zm27.34 -2.48c-2.73,0.56 -5.44,2.19 -7.26,4.38l-1.37 3.31c-3.86,-1.45 -5.15,-3.86 -7.98,-9.23 4.17,-4.11 24.04,-8.86 25.42,-4.35 4.82,0.15 7.28,2.58 10.15,5.86 9.9,11.28 -3.19,36 -3.42,36.97 -0.41,-0.63 -0.63,-0.69 -1.12,-2.09 -0.78,-2.22 -0.22,-0.1 -0.41,-2.1 -0.09,-0.96 0.03,-3.06 -0.08,-4.59 -1.99,-27.88 -3.74,-19.36 -7.26,-26.49 -0.89,-0.75 -2.42,-2.07 -3.52,-2.98l-3.15 1.31zm3.01 -18.6c3.54,-1.01 7.45,-2.85 11.77,-0.27 6.75,3.04 12.96,13.72 15.03,20.9 -3.84,-2.55 -3.38,-2.74 -5.92,-5.02 -9.71,-8.74 -21.85,-12.93 -34.78,-6.83l-6.07 2.93c-2.8,1.5 -3.67,2.53 -7.45,2.99 2.32,-4.12 4.67,-4.01 13.26,-8.29 5.03,-2.5 10.08,-4.3 14.16,-6.41zm-54.5 21.32c-1.27,1.45 0.74,0.15 -1.8,1.14 -1.44,0.56 0.81,-0.13 -1.56,0.43 -0.55,0.13 -2.58,0.25 -3.74,0.49 -6.48,-0.7 -6.87,-0.46 -9.79,1.71 2.06,3.33 3.12,3.32 9.74,2.04 1.51,21.54 37.34,21.97 52.81,21.11 1.06,-0.78 -0.25,-0.2 2.27,-1.24 2.65,-1.08 5.65,-1.11 11.69,-3.64 1.14,4.47 2.39,12.31 0.07,15.77 -0.76,7.12 -5.45,9.41 4.67,5.71 1.58,-2.59 3.57,-3.85 5.27,-5.97 1.42,-1.76 3.54,-4.81 4.62,-6.4 2.46,-3.62 6.28,-9.87 6.64,-14.39 7.27,0.58 8.37,-0.46 11.43,5.16l3.29 -1.17c-0.11,-7.76 -14.94,-37.21 -20.08,-43.58 -9.2,-11.37 -17.43,-4.26 -22.47,-2.29 -11.44,4.45 -26.8,11.65 -37.22,17.93 -3.39,2.05 -11.1,6.47 -15.84,7.19z"/>
   <path class="fil10" d="M354.12 225.19c1.13,2.76 -0.02,1.14 2.11,3.72 0.23,0.28 1.83,1.65 2.18,1.85 2.93,1.68 28.22,6.74 24.58,19.38 -0.76,2.68 -6.79,12.03 0.41,9.81 16.19,-10.5 7.42,-30.27 -14.84,-34.48 9.78,-9.16 16.34,-1.76 30.58,5.65 6.55,3.41 13.58,4.41 -1.5,25.82 -6.51,9.22 -7.41,16.45 -12.47,17.65 -0.01,2.16 1.84,1.84 -1.71,5.16 -2.44,2.28 -3.5,3.32 -5.94,6.24 -10.28,12.28 -6.19,10.75 -22.28,25.94 -7.98,7.53 -4.82,4.24 -11.32,13.15 2.16,1.72 1.08,-0.01 -2.73,6.95 -1.61,2.93 -2.52,4.94 -4.35,8.67l-5.83 13.14c-1.91,3.23 -1.68,1.82 -3.06,4.1 -3.54,5.86 -4.13,12.89 -6.01,19.89 -3.64,13.62 -5.75,10.32 -8.48,17.95 -0.13,-0.29 -0.48,-0.94 -0.58,-0.73 -0.1,0.22 -0.56,-0.62 -0.67,-0.73 -0.12,-0.13 -0.53,-0.47 -0.76,-0.73 1.35,7.34 3.75,5.33 4.88,8.14 -9.4,8.18 -1.48,5.66 -6.57,10.31 -3.89,3.56 0.1,-4.41 -9.61,3.4 -6.62,5.32 -10.86,6.62 -15.24,9.83 -2.47,1.81 -2.41,3.1 -4.73,4.19 -6.28,2.99 -4.07,-2.9 -12.46,4.62 -3.88,3.48 -5.86,2.88 -9.21,7.96 -6.53,9.91 -5.5,3.69 -18.03,16.01 -2.76,2.71 -3.96,2.82 -2.27,13.41 9.59,-4.09 31.77,-20.51 36.54,-26.55 1.87,-6.74 4.32,-8.16 10,-12.8 8.19,-6.69 8.27,-3.16 14.12,-6.96 13.14,-8.52 13.06,-5.83 22.24,-20.87 8.17,-13.41 6.77,-18.7 8.35,-24.82 4.02,-15.67 9.86,-39.67 20.11,-52.2 2.76,-3.38 5.17,-6.79 8.99,-9.1 11.28,-6.82 30.1,-42.63 36.41,-53.77 5.06,-8.9 13.02,-18.41 13.82,-28.72 -0.91,-2.05 0.29,-0.9 -4.31,-3.91 -9.81,-6.42 -13.17,-10.04 -27.47,-12.67 -3.43,-0.63 -9.01,-0.6 -11.96,-2.29 -2.53,1.23 -9.34,6.56 -10.93,8.39z"/>
   <path class="fil8" d="M467.47 272.62c-0.18,1.53 2.44,12.32 2.78,15.57l2.29 28.24c0.2,2.55 -0.57,5.35 -0.62,8.67l-0.89 18.29c-2.36,22.63 -1.81,22 -17.44,43.8 -3.15,4.39 -6.44,6.77 -9.12,12.16 2.3,-1.32 3,-2.92 5.08,-5.16l5.42 -5.68c0.14,-0.15 0.36,-0.36 0.5,-0.51l4.18 -4.81c2.3,-2.44 3.22,-3.07 5.28,-5.77 2.01,-2.62 2.97,-3.22 4.51,-5.51 1.76,-2.62 2.96,-4.74 4.37,-6.67 1.61,-2.2 3.22,-4.09 4.82,-6.25 4.47,-6.04 13.11,-20.31 15.68,-27.41l5.21 -15.91c0.93,-3.23 0.78,-5.87 1.84,-9.29 1.06,-3.4 1.91,-4.86 2.71,-8.36 0.89,-3.92 -0.07,-4.34 -0.35,-9.06l-34.16 -16.62c-0.19,-0.02 -0.53,0.01 -0.7,0.01l-1.39 0.27z"/>
   <path class="fil9" d="M296.49 75.67l25.63 -15.69c0.98,-0.47 3.57,-1.74 4.9,-2.18l19.28 -5.86c2.29,-0.59 7.37,-1.89 9.06,-2.86 2.04,-1.18 4.61,-4.5 5.68,-6.84 -2.11,-3.47 -1.4,-2.77 -4.43,-5.46 -4.47,-3.99 -7.28,-4.84 -13.27,-7.17 -0.32,-0.12 -1.24,-0.47 -1.54,-0.58 -0.25,-0.1 -0.53,-0.18 -0.76,-0.27 -0.23,-0.1 -0.51,-0.18 -0.72,-0.27 -0.2,-0.09 -0.49,-0.19 -0.67,-0.28 -2.16,-1.17 -1.69,-0.41 -2.35,-2.92 -4.25,-0.01 -5.62,1.41 -10.65,2.81 -10.4,2.88 -3.78,6.2 -19.23,10.99 -4.42,1.38 -10.71,5.29 -14.15,8.05l-11.96 10.15c-2.14,2.07 -14.33,13.11 -15.57,15.74 9.17,-1.26 6.02,-2.23 15.73,-0.22 4.25,0.89 12.48,2.85 15.02,2.86z"/>
   <path class="fil6" d="M254.15 277.7c0.2,-5.54 0.16,-9.75 1.79,-14.93 1.26,-3.99 5.77,-7.2 10.29,-8.04l0.21 4.63c0.66,2.48 0.92,30.56 -1.42,34.63 -3.61,6.26 -7.13,3.59 -9.04,12.03 -3.35,14.75 -1.96,5.94 -5.6,15.43 -6.11,1.2 -5.99,0.38 -12.45,1.13 -2.11,4.44 1.93,1.45 -6.97,15.64 -8.06,12.88 -1.32,6.29 -11.54,22.56 -1.64,2.62 -2.71,5.13 -4.4,7.77 -0.98,1.53 -8.11,8.5 -10.57,12.83 9.85,-5 25.41,-14.69 31.5,-24.12 3.44,-5.31 3.76,-29.22 30.75,-43.56 6.94,-3.69 6.9,-2.39 14.4,-4.45l0.86 -3.24c0.09,-1.06 -0.07,-2.38 -0.14,-3.44 -0.19,-2.83 -0.37,-5.79 -0.56,-8.63 -0.39,-5.6 0.23,-10.86 0.4,-17.02 0.3,-10.84 2.19,-22.47 4.47,-32.05 -4.43,-0.26 -21.87,4.72 -25.93,7.15 -8.4,5.02 -6.29,4.77 -6.96,17.91 -0.12,2.42 -0.47,5.66 0.91,7.77z"/>
   <path class="fil5" d="M115.51 126.72l2.15 -0.35c0.28,-5.84 9.83,-18.36 8.94,-24.11 -2.84,-6.59 -16.26,-18.6 -23.05,-22.33l-30.41 -14.11c-2.28,8.07 -4.69,13.22 -3.16,20.24 1.54,7.1 10.82,23.43 15.69,26.9 20.45,14.54 22.35,9.84 27.43,11.82 2.8,1.08 0.97,-0.32 2.41,1.94z"/>
   <path class="fil4" d="M153.61 458.56c-2.87,-6.19 -7.49,-9.16 -11.04,-14.96 -3,-4.89 -5.11,-11.98 -8.54,-16.56l1.2 0.44c-2.85,-5.92 -6.44,-4.95 -10.4,-13.97 3.87,0.44 17.59,10.31 21.28,13.43 3.4,2.87 9.27,6.16 15,7.17 0.26,-5.16 1.31,-7.09 0.86,-11.47 -0.5,-4.78 -2.2,-8.37 -2.59,-13.31l-11.12 3.79c-8.77,3.29 -7.29,0 -13.22,-2.21 -11.24,-4.19 -37.58,-16.86 -44.56,-25.7 -12.43,-15.72 -4.88,-7.54 -2.54,-23.98 -4.45,-1.89 -5.29,-4.69 -9.06,-8.57 -1.87,-1.93 -2.09,-1.89 -3.99,-3.99 -3.42,-3.79 -0.41,-2.52 -5.12,-3.61 0.7,5.1 9.55,21.83 13.12,35.67 4.19,16.24 14.26,36.08 27.97,45.27l25.43 20.8c4.63,5.12 9.56,8.8 17.32,11.76z"/>
   <path class="fil8" d="M355.21 411.43c1.66,3.82 0.15,4.43 2.04,9.13 2.46,6.07 5.31,3.36 2.31,7.46l6.73 0.26c1.01,-1.87 2.27,-4.18 3.52,-6.42 4.87,-8.71 4.29,-3.62 7.08,-7.95 1.01,-1.57 -0.29,-0.76 1.58,-3.45 1.35,-1.95 3.52,-2.64 5.91,-3.84l-1.32 9.8c5.49,0.02 4.59,0.95 7.63,-1.84 1.58,-1.46 2.76,-3.44 3.68,-5.3 2.63,-5.31 3.57,-7.5 6.61,-12.47 3.89,-6.35 11.71,-18.9 16.66,-21.21 -1.35,6.69 -6.72,19.39 -6.36,24.09 11.54,2.07 7.33,-4.11 14.29,-20.52 4.15,-9.81 7.26,-14.75 8.8,-26.65 -2.96,0.55 -8.43,3.53 -11.47,4.99l-15.97 9.16 -13.74 13.29c-3.15,4.07 -20.76,21.01 -26.33,24.88 -3.99,2.77 -7.32,6.28 -11.65,6.59z"/>
   <path class="fil1" d="M176.1 238.11c-0.64,-2.83 -0.88,-3.94 -1.59,-6.42 -1.67,-5.88 -0.49,-4.91 0.65,-5.97 1.89,6.31 4.39,8.43 6.58,13.85 3.6,0.09 7.41,-0.27 10.69,-0.27 6.55,0 1.13,2.36 5.34,6.21l0 -5.71c8.74,-1.66 16.46,1.83 24.08,3.86l-0.4 -7.79c-4.99,-0.62 -6.42,-2.86 -11.18,-6.59 -2.57,-2 -2.18,-1.29 -5.16,-2.74 -2.27,-1.12 -3.01,-2.04 -4.86,-3.32 -4.2,-2.91 -11.92,-5.01 -14.34,-17.17 -4.43,-2.22 -3.66,-3.51 -4.22,-8.38 -0.56,-4.92 -2.57,-5.5 -0.96,-9.02 1.82,-3.99 2.74,-2.2 2.94,-9.08 0.17,-5.8 0.73,-7.05 -2.6,-10.08 -2.21,12.47 -8.3,15.62 -14.63,38.97 -1.87,6.89 -10.55,39.43 -8.08,45.37 3.69,-1.77 8.47,-13.58 17.74,-15.72z"/>
   <path class="fil11" d="M416.91 120.39c-2.67,0.07 -23.06,3.01 -24.68,3.68l-18.62 10.57c0.71,6.87 4.04,3.06 5.14,22.67 0.55,9.77 -0.72,15.15 -0.89,23.01 12.01,-4.3 10.01,-4.05 19.12,-8.4 6.97,-3.32 21.01,-16.71 26.66,-22.28 0.04,-10.13 4.44,-6.23 8.58,-14.77 1.77,-3.65 6.03,-13.11 6.77,-16.9 -5.84,4.34 -6.04,6.82 -10.51,12.21l-10.5 11.61c-2.03,2.64 0.51,0 -2.37,2.66 -4.23,3.89 -18.75,15.28 -23.32,16.95 0.9,-8.69 4.48,-21.95 10.89,-28.47l13.73 -12.54z"/>
   <path class="fil6" d="M287.13 312.85c0.2,8.55 -0.16,15.58 1.41,23.84 1.82,9.54 3.63,10.77 1.15,21.05 -1.21,5 -1.69,4.54 -3.31,8.75 -2.26,5.86 -6.11,26.41 -6.53,32.04 0.2,-0.17 0.47,-0.73 0.55,-0.56 0.08,0.17 0.43,-0.44 0.54,-0.57 0.11,-0.12 0.38,-0.41 0.51,-0.57l2.44 -3.69c6.3,-11.61 13.06,-14.24 19.58,-38.64 1.05,-3.91 1.2,-4.52 1.85,-8.25 2.33,-13.33 4.18,-6.43 0.32,-22.59 -2.82,-11.8 -2.78,-25.93 -1.71,-39.55 -3.45,0.19 -5.66,1.56 -7.72,2.88 -4.07,2.61 -3.6,2.56 -3.82,7.93 -0.34,8.29 0.67,14.17 -5.26,17.93z"/>
   <path class="fil2" d="M228.22 204.25c2.32,-0.08 0.89,-0.22 1.71,0.39 -3.8,1.96 -7.57,4.51 -11.1,5.96 -5.17,2.12 -7.91,0.35 -11.36,3.08 1.56,2.21 9.61,9.35 7.5,12.48l4.03 4.42c1.98,2.31 1.86,1.99 2.45,5.29l0.4 7.79c-7.62,-2.03 -15.34,-5.52 -24.08,-3.86l0 5.71c3.41,1.73 23.6,10.59 26.06,10.82 4.79,-0.44 2.42,-0.69 5.63,1.45 -0.58,-11.12 0.35,-20.47 0.68,-31.09 0.31,-9.95 1.45,-11.34 13.42,-18.39 -1.1,3.88 -0.46,0.88 -1.59,4.47 -1.5,4.78 -3.13,4.46 -2.38,7.64 1,4.29 0.34,2.63 3.57,3.04 1.75,-2.54 0.96,-1.86 2.06,-4.48 0.93,-2.21 0.96,-1.9 2.5,-4.61 4.68,-8.21 7.68,-24.66 12.27,-27.17 1.08,-1.8 1.35,-4.03 1.67,-6 0.78,-4.81 1.61,-4.49 -0.88,-6.53l-3.93 3.7c-8.1,6.36 -4.96,6.19 -10.79,12.34 -10.11,10.67 -15.24,9.94 -17.84,13.55z"/>
   <path class="fil12" d="M230.92 188.73c-0.79,-4.51 -0.98,-2.92 1.56,-6.3 3.62,-3.12 7.18,-1.62 14.62,-1.67 -1.15,4.91 -9.99,12.27 -13.18,13.87l-3 -5.9zm0.89 5.82c-5.55,10.32 -28.3,5.33 -36.92,2.92 3.79,-9.94 25.53,-16.09 32.55,-16.3 -4.36,11.08 1.01,10.95 4.37,13.38zm-36.09 -10.98c-2.92,8.05 -8.77,13.76 -9.81,22.48 2.42,12.16 10.14,14.26 14.34,17.17 1.85,1.28 2.59,2.2 4.86,3.32 2.98,1.45 2.59,0.74 5.16,2.74 4.76,3.73 6.19,5.97 11.18,6.59 -0.59,-3.3 -0.47,-2.98 -2.45,-5.29l-4.03 -4.42c-5.32,-1.67 -17.52,-15.09 -21.44,-20.33l-2.37 -3.79c9.63,0.18 9.15,5.9 37.06,2.21 2.6,-3.61 7.73,-2.88 17.84,-13.55 5.83,-6.15 2.69,-5.98 10.79,-12.34l3.93 -3.7c2.28,-2.36 5.04,-4.34 5.7,-8.29 -5.85,0.24 -6.01,1.71 -9.48,5.32 -5,0.39 -11.93,-0.76 -18.07,-0.42 -5.71,0.32 -12.12,0.8 -17.59,1.66 -4.05,0.63 -9.96,2.93 -13.85,4.28 -11.1,3.86 -7.57,5.96 -11.77,6.36z"/>
   <path class="fil13" d="M381.11 60.47c4.37,-0.21 4.62,0.72 9.4,0.87 8.16,0.24 8.1,-1.31 19.91,0.32 5.27,0.72 3.88,-0.59 9.2,-0.13 5.63,4.28 -0.61,1.76 8.19,3.5 8.92,1.76 22.9,4.75 29.42,10.45 -0.29,3.72 -2.41,9.65 -4.98,11.56l0.22 0.16c-1.25,6.53 -3.88,10.21 -6.69,16.12 -1.37,2.88 -1.61,4.45 -3.44,7.55 -1.67,2.85 -2.83,3.88 -3.35,7.1 -0.74,3.79 -5,13.25 -6.77,16.9 -4.14,8.54 -8.54,4.64 -8.58,14.77l13.96 -18.36c9.17,-11.97 17.5,-25.77 25.66,-38.58 2.15,-3.38 10.71,-20.01 10.77,-22.57l-2.34 -4.04c-2.92,-4.02 -6.93,-3.81 -15.1,-6.02 -7.23,-1.95 -16.49,-2.85 -23.87,-3.14 -11.89,-0.46 -41.81,-0.02 -51.61,3.54z"/>
   <path class="fil0" d="M192.86 167.67c6.16,-15.13 45.87,-38.9 55.95,-23.25 -11.55,4.76 -31.55,5.98 -50.16,18.93 -3.45,2.4 -2.13,2.92 -5.79,4.32zm-13.36 -6.48l4.91 -5.05c1.95,-2.11 2.98,-3.51 5.62,-5.21 5.11,5.36 0.55,2.28 6.29,4.53 -3.23,2.57 -4.43,4.12 -6.96,7.64 -1.87,2.59 -3.42,5.93 -2.93,9.32 1.45,10.06 8.29,-1.61 18.49,-6.76 5.93,-3 14.65,-5.95 21.43,-7.79 6.3,-1.7 17.49,-5.57 22.73,-5.24 3.8,0.23 9.36,-0.54 12.91,0.89l8.55 6.81c2.02,2.11 3.52,-1.5 2.13,-4.74 -4.12,-4.54 -7.13,-8.87 -13.65,-12.12 -5.71,-2.84 -13.31,-7.61 -19.05,-8.01 -18.32,-1.29 -28.45,7.75 -39.18,14.89 -3.76,-2.37 -6.46,-5.93 -10.04,-8.63 -4.45,3.76 -14.85,14.68 -14.92,20.6l3.67 -1.13z"/>
   <path class="fil6" d="M224.05 98.82c12.15,-3.24 35.78,-15.77 53.99,-1.55 19.51,15.25 12.55,12.41 16.72,18.47 1.79,2.62 1.28,0.65 3.25,3.58 -0.33,5.99 -2.18,4.28 -0.78,10.75 1.18,5.47 1.22,6.63 -1.41,12.03l-8.29 21.19c4.44,-3.78 10.31,-19.1 12.95,-24.63 1.85,-3.87 2.77,-5.02 3.14,-8.5 2.35,-22.32 4.85,-22.74 -6.82,-37.58 -4.75,-6.03 -6.9,-8.15 -14.97,-10.01 -5.4,-1.24 -17.93,-2.1 -23.61,-1.06 -5.9,1.08 -8.73,3.82 -12.16,5.81 -0.85,0.49 0.18,0.21 -2.06,1.01 -7.12,2.54 -0.68,-0.93 -12.1,4.84l-7.25 5.09c-0.14,0.12 -0.42,0.35 -0.6,0.56z"/>
   <path class="fil14" d="M349.68 386.86c-4.19,3.24 -6.68,10.41 -8.7,14.22 -3.08,5.82 -2.28,0.22 -6.11,4.93 -0.83,1.02 -4.21,8.34 -0.02,6.97 -0.83,7.17 -7.58,7.77 -9.85,12.09 -2.62,4.95 1.27,2.5 -4.61,6.59 -2.11,1.46 -4.12,2.53 -6.6,4.44 -4.42,3.39 -8.12,6.33 -12.4,9.74 -4.89,3.91 -9.19,5.47 -13.04,8.75 2.48,1.47 6.07,0.19 8.07,-0.64 2.4,-1 5.05,-2.05 7.1,-3.01 8.52,-4 11.02,-9.3 23.87,-16.27 1.9,-1.03 4.99,-3.07 6.46,-3.57 3.47,-1.18 10.34,-0.2 16.94,-14.24 1.59,-3.39 1.54,-4.3 2.49,-7.52 1.61,-5.42 0.49,-2.12 4.58,-5.46 2.74,-2.25 6.24,-7.58 8.39,-11.74 3.46,-6.7 4.41,-8.42 2.15,-15.72 -6.06,1.38 -4.41,-0.5 -6.99,3.9 -2.54,4.34 -9.27,18.05 -13.06,19.16 -1.04,-1.59 -0.74,-0.4 -0.87,-3.11 -0.08,-1.7 0.23,-2.21 0.49,-3.4 0.66,-2.99 1.08,-3.43 1.71,-6.11z"/>
   <path class="fil15" d="M241.94 53.22l-14.38 10.53c-6.52,4.75 -16.32,16.99 -23.92,24.31 -3.66,3.52 -2.98,1.18 -4.99,7.1 -1.18,3.47 -3,6.34 -3.16,9.63 1.88,0.67 11.18,-8.29 13.16,-9.72l30.87 -19.31c4.53,-3.68 8.65,-9.1 13.89,-11.7 1.67,-2.94 1.43,-2.33 3.92,-4.58 2.92,-2.62 2.02,-2.36 4.23,-4.89 4.22,-4.82 13.15,-13.41 18.33,-16.76l9.67 -7.79c-8.72,3.21 -8.07,3.38 -14.38,7.11l-25.07 15.04c-1.91,1.5 -11.4,11 -8.17,1.03z"/>
   <path class="fil10" d="M85.28 270.09c3.5,13.33 -4.55,27.96 -8.46,37.47 -5.11,12.45 -10.39,22.75 -7.05,37.5 4.71,1.09 1.7,-0.18 5.12,3.61 1.9,2.1 2.12,2.06 3.99,3.99 3.77,3.88 4.61,6.68 9.06,8.57 4.73,-11.63 -3.02,-20.66 -5.48,-31.08 -1.26,-5.37 -0.94,-9.47 -0.55,-16.11 0.45,-7.45 0.87,-7.26 6.04,-13.02 -3.45,-3.88 1.61,-6.82 3.7,-14.9 2.3,-8.96 1.54,-9.74 1.71,-19.73l1.93 0.32c-3.99,-7.65 -5.1,-6.14 0.94,-13.01 3.52,-4 6.09,-7.4 8.34,-11.82 -7.08,3.04 -9.83,6.08 -13.76,11.4 -0.62,0.85 -4.32,6.42 -4.56,7.19 -1.09,3.48 1.45,5.89 -0.97,9.62z"/>
   <path class="fil16" d="M337.3 25.29c0.66,2.51 0.19,1.75 2.35,2.92 0.18,0.09 0.47,0.19 0.67,0.28 0.21,0.09 0.49,0.17 0.72,0.27 0.23,0.09 0.51,0.17 0.76,0.27 0.3,0.11 1.22,0.46 1.54,0.58 5.99,2.33 8.8,3.18 13.27,7.17 3.03,2.69 2.32,1.99 4.43,5.46 -1.07,2.34 -3.64,5.66 -5.68,6.84 -1.69,0.97 -6.77,2.27 -9.06,2.86l-19.28 5.86c-1.33,0.44 -3.92,1.71 -4.9,2.18l-25.63 15.69c1.17,0.97 0.48,0.7 2.79,1.14 11.15,2.12 17.15,-5.69 21.1,-7.59 4.3,-2.06 8.25,-2.84 12.66,-4.32 0.76,-0.26 4.57,-1.79 5.71,-2.43 6.54,-3.68 -0.83,-1.29 4.58,-4.63 10.39,-4.21 49.2,-3.77 33.75,-15.39 -4.43,-3.34 -8.18,-11.71 -16.05,-15.08 -5.36,-2.3 -18.57,-4.75 -23.73,-2.08z"/>
   <path class="fil17" d="M205.12 473.66c-4.03,2.34 -0.44,-1.4 -6.05,4.3 -6.32,6.43 -17.98,1.81 -13.5,-9.38 4.16,-10.41 21.62,-14.41 19.55,5.08zm-28.58 2.16c1.15,11.44 4.93,15.71 16,17.1 4.69,0.58 8.97,1.03 13.3,-1.1 4.11,-2.01 6.31,-5.4 10.57,-6.61l-0.73 -2.97c0.09,-1.53 2.69,-13.06 0.89,-18.25 -1.67,-4.86 -10.52,-9.3 -17.44,-9.35 -9.96,-0.24 -18.44,7.19 -20.04,12.37 -0.96,3.12 -0.09,3.41 -1.76,7.44l-0.79 1.37z"/>
   <path class="fil18" d="M68.24 63.42c-2.32,4.67 -6.2,41.31 4.46,54.51 1.96,2.43 1.29,0.86 2.98,2.97 4.6,5.75 3.25,10.73 11.34,13.34 5.27,1.19 11.76,3.09 17.25,1.03 9.78,-3.67 5.84,-3.68 11.24,-8.55 -1.44,-2.26 0.39,-0.86 -2.41,-1.94 -5.08,-1.98 -6.98,2.72 -27.43,-11.82 -4.87,-3.47 -14.15,-19.8 -15.69,-26.9 -1.53,-7.02 0.88,-12.17 3.16,-20.24 -0.18,-1.44 0.37,-0.62 -0.59,-1.84 -2.24,-1.31 -2.03,-1.54 -4.31,-0.56z"/>
   <path class="fil4" d="M383.4 259.95c-7.2,2.22 -1.17,-7.13 -0.41,-9.81 3.64,-12.64 -21.65,-17.7 -24.58,-19.38 -0.35,-0.2 -1.95,-1.57 -2.18,-1.85 -2.13,-2.58 -0.98,-0.96 -2.11,-3.72 -0.74,0.74 -0.66,0.66 -1.52,1.75 -3.49,4.49 -3.3,5.47 -3.19,10.69 -4.88,0.4 -10.8,7.82 -10.99,12.19 1.05,0.82 0.94,0.68 2.81,1.26 3.7,1.13 5.12,0.61 10.57,3.33 5.4,2.68 5.81,5.74 12.48,6.62l0.06 -7.2c-4.53,-3.97 -9.74,-4.67 -8.68,-11.91 5.6,-0.33 8.23,2.96 11.89,5.8 6.87,5.35 4.01,4.15 0.75,25.13 -0.53,3.39 0.07,0.82 -0.85,3.19 -0.07,0.19 -0.23,0.44 -0.31,0.62 -2.58,6.2 0.25,1.78 -2.21,7.94 2.86,-2.18 5.56,-9.57 7.7,-12.53 2.98,-4.11 5.51,-2.75 10.77,-12.12z"/>
   <path class="fil19" d="M255.04 241.05l-0.13 2.72c-3.01,1.12 -9.11,4.52 -10.41,6.95 -1.49,6.18 -1.84,0.66 -3.6,7.22 -0.7,2.59 -0.64,6.72 -0.24,9.05 0.89,5.26 4.49,12.9 8.93,14.19 -1.68,-9.12 -3.15,-26.39 3.34,-31.43 2.7,-2.1 7.75,-4.64 11.21,-6.87 2.51,-1.62 8.99,-4.2 11.16,-6.08 0.16,-0.26 0.43,-0.53 0.57,-0.7 7.65,-9.28 4.42,-23.03 5.9,-32.73l1.52 -5.06c-2.19,-5.4 -5.92,-10.48 -7.24,-12.12 -6.91,10.22 -6.06,18.14 -5.68,32.86 0.33,12.74 -16.84,16.08 -15.33,22z"/>
   <path class="fil20" d="M179.5 161.19c2.13,4.46 0.22,3.21 1.57,8.3 3.33,3.03 2.77,4.28 2.6,10.08 -0.2,6.88 -1.12,5.09 -2.94,9.08 -1.61,3.52 0.4,4.1 0.96,9.02 0.56,4.87 -0.21,6.16 4.22,8.38 1.04,-8.72 6.89,-14.43 9.81,-22.48l-3.6 0.21c0.88,-4.46 14.44,-12.29 19.13,-14.84 2.92,-1.58 1.71,-0.79 5.04,-2.04 3.11,-1.17 6.59,-2.26 10.14,-3.81 7.25,-3.17 25.39,-8.13 33.5,-4.48 7.31,3.28 3.05,2.49 10.61,1.72l-8.55 -6.81c-3.55,-1.43 -9.11,-0.66 -12.91,-0.89 -5.24,-0.33 -16.43,3.54 -22.73,5.24 -6.78,1.84 -15.5,4.79 -21.43,7.79 -10.2,5.15 -17.04,16.82 -18.49,6.76 -0.49,-3.39 1.06,-6.73 2.93,-9.32 2.53,-3.52 3.73,-5.07 6.96,-7.64 -5.74,-2.25 -1.18,0.83 -6.29,-4.53 -2.64,1.7 -3.67,3.1 -5.62,5.21l-4.91 5.05z"/>
   <path class="fil19" d="M227.35 118.66c11.46,3.48 65.38,-9.54 47.13,-19.81 -7.45,-4.2 -23.82,-3.18 -31.81,0.1 -6.92,2.83 -19.63,10.81 -15.32,19.71z"/>
   <path class="fil8" d="M463.26 333.21c2.23,-10.59 0.07,-23.59 -0.48,-34.29 -0.14,-2.6 -0.08,-4.48 -0.4,-6.55l-4.28 -27.72c-6.01,-20.91 -7.76,-21.68 -18.03,-21.79 1.33,2.76 2.72,6.85 3.94,9.72 2.31,5.47 6.62,27.85 7.58,33.52 1.51,8.93 2.68,16.27 4.69,24.38 1.36,5.52 -0.37,12.5 1.83,19.27 1.4,4.31 0.47,3.25 5.15,3.46z"/>
   <path class="fil21" d="M189.69 106.46l6.1 -14.23c4.05,-11.45 14.31,-21.47 16.78,-25.36 3.14,-4.96 5.29,-7.37 9.03,-12.06 9.15,-11.51 20.51,-22.04 32.48,-30.65 1.69,-1.22 4.02,-2.64 5.86,-4.28 2.95,-2.63 2.08,-3.42 5.8,-4.47 -9.09,0.58 -20.09,8.42 -27.61,13.74 -5.46,3.87 -7.09,5.66 -11.4,9.74 -10.71,10.13 -20.89,10.78 -26,26.1 -0.92,2.75 -0.97,6.25 -2.51,8.53 -1.79,2.64 -3.01,0.87 -4.17,5.87 -0.6,2.62 0.18,4.06 -0.91,8.21 -1.9,7.17 -2.74,10.21 -3.45,18.86z"/>
   <path class="fil22" d="M72.55 63.98c0.96,1.22 0.41,0.4 0.59,1.84l30.41 14.11c6.79,3.73 20.21,15.74 23.05,22.33 0.89,5.75 -8.66,18.27 -8.94,24.11l-1.18 2.74c4.88,-2.52 3.88,-3.8 5.66,-7.01 1.1,-1.99 0.22,-0.84 1.8,-2.33 3.63,-3.43 5.14,-5.16 8.31,-8.34 -1.51,-6.19 -1.95,-3.43 -4.26,-8.17l1.47 -13.36c-2.15,-1.98 -3.06,-2.18 -4.2,-5.71 2.07,-3.69 0.84,-0.48 3.39,-3.65l3.22 -7.69c-6.35,0 -52.35,-3.26 -58.55,-10.71 -1.47,0.99 -2.01,-1.56 -0.77,1.84z"/>
   <path class="fil6" d="M353.21 207.12c-3.38,-1.16 -1.32,-0.07 -3.54,-1.76l0.67 -5.2 -2.43 3.09c-5.88,8.94 -3.11,7.89 -12.32,15.74 -2.8,2.38 -3.38,3.56 -6.48,5.01 0.48,-9.63 2.39,-14.69 4.35,-22.66l-5.2 4.28c-3.8,4.05 -11.71,11.06 -12.77,16.46 -3.03,15.31 10.83,21.22 18.6,16.81l10.68 -14.79c4.19,-8.59 3.66,-5.49 8.44,-16.98z"/>
   <path class="fil11" d="M298.61 17.86c2.69,0.51 3.87,0.9 6.64,2.08 -1.05,3.65 1.74,0.52 -2.77,3.32l-12.92 6.78 -9.67 7.79c-5.18,3.35 -14.11,11.94 -18.33,16.76 -2.21,2.53 -1.31,2.27 -4.23,4.89 -2.49,2.25 -2.25,1.64 -3.92,4.58l-2.12 3.37c-1.06,1.67 -1.27,2.42 -2.38,3.68 -4.55,5.16 -1.92,-2.25 -4.41,6.8 5.06,-1.91 8.94,-6.74 14.63,-10.69 7.41,-5.14 10.69,-12.43 17.38,-16.72 2.62,-1.68 8.96,-9.18 24.36,-18.86 4.49,-2.83 6.02,-3.45 11.03,-5.92 1.97,-0.98 3.3,-1.86 5.33,-2.71 2.81,-1.17 4.25,-1.28 6.04,-3.53 -2.62,-3.51 -7.2,-4.14 -11.74,-5 -1.99,-0.38 -3.74,-0.68 -6.56,0.13l-4.28 1.85c-1.35,0.78 -1.28,0.76 -2.08,1.4z"/>
   <path class="fil10" d="M30.67 278.27c0.28,2.72 0.7,5.48 1.57,7.63 1.45,3.58 1.57,3.69 4.89,4.54 0.91,-4.92 2.63,-6.79 4.16,-10.57 13.15,3.26 18.43,30.98 26.13,29.33 1.33,-5.15 2.25,-7.8 0.92,-13.45l-15.66 -25.36c-2.58,-4.11 -6.85,-7.39 -12.83,-3.85 -2.41,1.43 -3.86,3.34 -4.8,5.27 -3.33,6.81 0.6,3.07 -4.38,6.46z"/>
   <path class="fil4" d="M37.13 290.44c3.97,0.77 4.74,3.77 6.63,8 3.29,7.39 10.9,26.2 14.92,31.48 2.29,-4.33 7.77,-15.75 8.74,-20.72 -7.7,1.65 -12.98,-26.07 -26.13,-29.33 -1.53,3.78 -3.25,5.65 -4.16,10.57z"/>
   <path class="fil23" d="M199.13 454.64c6.92,0.05 15.77,4.49 17.44,9.35 1.8,5.19 -0.8,16.72 -0.89,18.25l0.73 2.97c-4.26,1.21 -6.46,4.6 -10.57,6.61 -4.33,2.13 -8.61,1.68 -13.3,1.1 -11.07,-1.39 -14.85,-5.66 -16,-17.1 -1.45,-0.99 -0.55,-3.74 -1.42,1.74 -0.13,0.83 -0.03,3.14 0.01,4.07 0.22,4.4 1.94,7.39 -1.44,7.55l6.53 4.71c12.47,4.86 18.02,9.73 34.1,-1.71 11.32,-8.06 11.75,-25.01 6.62,-32.7 -1.31,-1.97 0.3,1.03 -1.38,-1.96 -1.76,-2.8 -6.91,-7.24 -11.11,-8.13l-7.89 -1 1.71 2.19c-3.8,2.36 -1.54,-1.73 -3.14,4.06z"/>
   <path class="fil24" d="M311.45 393.59c0.23,0.26 0.64,0.6 0.76,0.73 0.11,0.11 0.57,0.95 0.67,0.73 0.1,-0.21 0.45,0.44 0.58,0.73 2.73,-7.63 4.84,-4.33 8.48,-17.95 1.88,-7 2.47,-14.03 6.01,-19.89 1.38,-2.28 1.15,-0.87 3.06,-4.1l5.83 -13.14c1.83,-3.73 2.74,-5.74 4.35,-8.67 3.81,-6.96 4.89,-5.23 2.73,-6.95l-12.7 15.03c-5.68,9 -4.44,9.47 -10.75,18.32 -1.85,2.6 -14.98,23.41 -14.36,26.17 0.79,3.55 4.24,6.39 5.34,8.99z"/>
   <path class="fil11" d="M300.65 208.44c-0.44,18.19 1.86,51.84 18.88,61.4l-3.36 2.35c6.35,0.02 8.77,-1.83 12.85,-5.31 -4.25,-4.78 -15.38,-12.28 -19.91,-25.99 -1.9,-5.73 -1.31,-13.31 -3.11,-20.3 -2.95,-11.4 0.82,-2.54 -0.75,-10.79 -3.23,-16.98 -1.59,-11.48 0.07,-32.3 -3.22,2.51 -2.16,1.49 -2.9,6.39 -0.41,2.73 -0.65,5.81 -0.92,8.12 -0.56,4.9 0.71,12.24 -0.85,16.43z"/>
   <path class="fil25" d="M358.6 159.62c3.65,10.96 0.2,8.53 0.35,15.88 0.07,3.47 1.36,-0.15 0.05,5.6 -1.47,6.47 -7.45,13.3 -8.66,19.06l-0.67 5.2c2.22,1.69 0.16,0.6 3.54,1.76 2.32,-1.46 24.54,-44.29 16.68,-56.26l-2.88 -2.8c-4.17,1.08 -3.41,1.66 -5.09,4.93 -1.2,2.35 -2.21,3.63 -3.32,6.63z"/>
   <path class="fil26" d="M88.1 153.27c-1.39,3.97 -0.72,6.79 0.71,10.67 3.82,10.35 -1.64,20 -0.15,29.44 4.34,27.42 2.09,15 11.22,27.86 3.57,5.03 1.25,5.58 8.55,4.61 -0.26,-2.09 -4.03,-15.29 -5.89,-17.21 -3.23,-3.32 -7.12,-1.35 -8.32,-8.76 -0.35,-2.13 -1.04,-8.51 -0.97,-11.3 2.49,-3.38 3.34,-3.02 5.21,-7.02 -1.76,-4.93 -2.88,-1.74 -4.06,-6.22 -0.99,-3.72 0.73,-5.61 0.78,-9.83 0.03,-2.09 -0.66,-6.65 -1.44,-8.42 -0.98,-2.25 -3.14,-4.64 -5.64,-3.82z"/>
   <path class="fil20" d="M138.48 288.48l1.31 6.8c1.16,-0.24 3.19,-0.36 3.74,-0.49 2.37,-0.56 0.12,0.13 1.56,-0.43 2.54,-0.99 0.53,0.31 1.8,-1.14 0.72,-1.3 -0.15,-0.26 1.22,-1.72l26.44 -21.83c18.56,-13.98 24.51,-13.59 52.54,-5.23 -4.12,-4.48 -26.24,-13.19 -31.32,-14.1l-0.42 1.45c-0.41,1.22 0.61,1.54 -2.34,3.29 -8.56,5.07 -14.37,6.69 -24.95,14.19l-20.86 15.29c-2.74,2.33 -4.54,4.42 -8.72,3.92z"/>
   <path class="fil6" d="M340.32 169.97c6.35,7.8 5.81,11.23 -1.26,20.38 -1.84,2.38 -0.18,0.81 -2.53,2.73 6.65,3.1 -0.06,10.58 2.79,15.32l13.69 -25.2c1.89,-3.65 2.37,-8.3 3.25,-13.98 1.21,-7.83 -3.06,-9.08 -6.85,-12.55 -2.46,3.51 -7.79,9.62 -9.09,13.3z"/>
   <path class="fil7" d="M241.94 53.22c-3.23,9.97 6.26,0.47 8.17,-1.03l25.07 -15.04c6.31,-3.73 5.66,-3.9 14.38,-7.11l12.92 -6.78c4.51,-2.8 1.72,0.33 2.77,-3.32 -2.77,-1.18 -3.95,-1.57 -6.64,-2.08 -6.03,1.48 -23.53,12.04 -30.09,15.61 -7.41,4.03 -22.6,14.39 -26.58,19.75z"/>
   <path class="fil27" d="M231.81 194.55c-3.36,-2.43 -8.73,-2.3 -4.37,-13.38 -7.02,0.21 -28.76,6.36 -32.55,16.3 8.62,2.41 31.37,7.4 36.92,-2.92z"/>
   <path class="fil28" d="M219.56 457.52c1.68,2.99 0.07,-0.01 1.38,1.96 5.13,7.69 4.7,24.64 -6.62,32.7 -16.08,11.44 -21.63,6.57 -34.1,1.71l-1.42 5.55c1.27,1.59 1.35,2.16 4.36,2.97 2.06,0.55 3.21,0.41 5.52,0.42 11.92,0.04 22.23,0.32 30.87,-8.39l7.87 -10.16c0.13,-0.18 0.32,-0.4 0.45,-0.57 0.14,-0.18 0.33,-0.41 0.45,-0.59 3.18,-4.73 2.51,-17.45 1.83,-21.4l-2.33 -4.57c-1.98,1.82 0.07,-0.1 -3.06,-0.36 -2.39,-0.2 -3.48,0.24 -5.2,0.73z"/>
   <path class="fil29" d="M149.62 304.78c7.68,10.58 35.78,6.2 43.01,6.45 2.93,0.11 4.26,1.27 9.9,-2.41l2.07 -1.79c-3.86,-4.34 -9.18,-2.7 -17.85,-4.85 -2.55,-0.64 -4,-1.43 -7.32,-1.52 -0.26,3.07 2.65,1.6 -1.81,3.3l-12.73 -2.02c-12.43,-1.72 -7.62,2.86 -15.27,2.84z"/>
   <path class="fil24" d="M365.05 216.8c2.95,1.69 8.53,1.66 11.96,2.29 14.3,2.63 17.66,6.25 27.47,12.67 4.6,3.01 3.4,1.86 4.31,3.91l5.59 4.29c5.31,6.57 1.26,11.77 6.57,12.64 -1.24,-22.39 -4.34,-19.51 -10.01,-24.23 -1.15,-0.96 -2.46,-2.13 -3.29,-2.72 -13.32,-9.42 -11.62,-5.17 -19.97,-9.06 -6.22,-2.89 -0.53,-6.18 -19.25,-4.7 -2.28,3.51 0.16,1.85 -3.38,4.91z"/>
   <path class="fil30" d="M162.4 81.31c1.7,-4.55 1.07,-9.22 2.55,-13.84 1.13,-3.56 2.44,-1.6 1.32,-5.78 -0.28,-1.03 -1.78,-3.5 -3.15,-4.2 -2.83,1.26 -0.16,-0.32 -1.87,1.29 -5.98,5.66 -6.91,9.26 -11.1,15.95 -6.1,9.74 -8.87,7.57 -5.47,22.3l17.72 -15.72z"/>
   <path class="fil30" d="M192.57 54.29c-0.04,-4.96 0.79,-8.84 1.89,-11.61 2.07,-5.18 1.91,-4.06 5.47,-7.68 -0.83,-0.67 0.91,-1.03 -3.35,-1.16 -9.81,7.66 -14.6,12.27 -18.51,27.61 -1.86,7.33 -4.23,2.86 -4.93,11.8 21.3,-4.46 15.56,-9.5 19.43,-18.96z"/>
   <path class="fil31" d="M68.24 63.42c2.28,-0.98 2.07,-0.75 4.31,0.56 -1.24,-3.4 -0.7,-0.85 0.77,-1.84 6.2,7.45 52.2,10.71 58.55,10.71 -0.48,-2.41 -0.72,-2.12 -0.8,-4.79 -2.42,0.02 -2.06,0.2 -4.55,-0.12l-3.22 -0.83c-13.03,-0.16 -26.5,-5.49 -35.66,-7.23 -15.24,-2.91 -17.91,-3.39 -19.4,3.54z"/>
   <path class="fil32" d="M192.86 167.67c3.66,-1.4 2.34,-1.92 5.79,-4.32 18.61,-12.95 38.61,-14.17 50.16,-18.93 -10.08,-15.65 -49.79,8.12 -55.95,23.25z"/>
   <path class="fil24" d="M354.85 343.1c10.7,-10.02 26.37,-14.11 49.4,-43.41 3.66,-4.65 9.89,-13.12 12,-18.56 -0.4,-0.13 -11.04,13.36 -13.42,16.16 -5.39,6.38 -8.92,10.5 -16.71,15.34 -7.18,4.47 -12.6,8.25 -18.95,13.22 -5.58,4.38 -8.84,5.44 -12.17,12.18 -2.67,5.38 -0.79,4.75 -0.15,5.07z"/>
   <path class="fil19" d="M143.21 171.52c0.77,-0.84 2.36,0.97 -0.41,-6.27l-8.48 -19.28c-7.13,-4.8 -7.89,-2.2 -13.91,-0.81 0.36,8.59 3.88,7.49 3.96,14.3l-0.05 5.42c3.71,0.98 5.73,0.67 10.49,2.41 4.73,1.72 4.61,3.16 8.4,4.23z"/>
   <path class="fil33" d="M205.05 292.17c3.52,7.13 5.27,-1.39 7.26,26.49 0.11,1.53 -0.01,3.63 0.08,4.59 0.19,2 -0.37,-0.12 0.41,2.1 0.49,1.4 0.71,1.46 1.12,2.09 0.23,-0.97 13.32,-25.69 3.42,-36.97 -2.87,-3.28 -5.33,-5.71 -10.15,-5.86l-1.93 0.34 -0.21 7.22z"/>
   <path class="fil24" d="M30.67 278.27c4.98,-3.39 1.05,0.35 4.38,-6.46 0.94,-1.93 2.39,-3.84 4.8,-5.27 5.98,-3.54 10.25,-0.26 12.83,3.85l15.66 25.36c-0.7,-4.44 -0.02,-5.81 -1,-9.86 -2.09,-8.64 -13.11,-23.65 -18.19,-29.93 -12.01,1.03 -18.84,11.06 -18.48,22.31z"/>
   <path class="fil34" d="M172.72 463.88c-3.13,8.02 -1.12,17.5 0.97,25.3 3.38,-0.16 1.66,-3.15 1.44,-7.55 -0.04,-0.93 -0.14,-3.24 -0.01,-4.07 0.87,-5.48 -0.03,-2.73 1.42,-1.74l0.79 -1.37c1.67,-4.03 0.8,-4.32 1.76,-7.44 1.6,-5.18 10.08,-12.61 20.04,-12.37 1.6,-5.79 -0.66,-1.7 3.14,-4.06l-1.71 -2.19 -3.61 -0.97 -2.24 0.16c-10.03,0.42 -19.69,8.29 -21.99,16.3z"/>
   <path class="fil35" d="M195.49 104.79c-2.14,1.78 -1.84,3.08 -2.91,8.75 2.82,-1.72 3.38,-2.74 5.7,-4.77l19.63 -13.46c3.77,-2.35 3.19,-2.62 6.36,-4.69 5.28,-3.43 15.52,-6.66 20.23,-12.71 2.49,-9.05 -0.14,-1.64 4.41,-6.8 1.11,-1.26 1.32,-2.01 2.38,-3.68l2.12 -3.37c-5.24,2.6 -9.36,8.02 -13.89,11.7l-30.87 19.31c-1.98,1.43 -11.28,10.39 -13.16,9.72z"/>
   <path class="fil36" d="M205.12 473.66c2.07,-19.49 -15.39,-15.49 -19.55,-5.08 -4.48,11.19 7.18,15.81 13.5,9.38 5.61,-5.7 2.02,-1.96 6.05,-4.3z"/>
   <path class="fil33" d="M142.53 198.62c-1.6,-3.45 -3.58,-4.84 -3.46,-8.65 0.2,-6.4 2.44,-5.16 3.42,-10.72 -5.9,-5.62 -13.13,-5.66 -23.83,-4.33 1,3.53 1.74,0.6 4.81,6.74 2.45,4.9 5.61,11.12 10.23,13.79 2.22,1.28 5.63,2.9 8.83,3.17z"/>
   <path class="fil7" d="M281.75 19.12c-2.58,-1.95 -7.63,-2.15 -11.04,-1.91 -4.1,1.06 -21.43,14.67 -25.27,18.31 -5.71,5.43 -18.18,16.42 -21.47,22.95 4.02,-2.11 13.53,-13.06 27.05,-21.43l30.73 -17.92z"/>
   <path class="fil37" d="M59.05 253.83c2.41,7.11 10.8,14.8 13.64,28.89 1.81,-6.58 1.89,0.16 2.08,-4.76 0.06,-1.4 -1.65,-5.19 -2.15,-6.51 -1.93,-5.07 -2.09,-9.62 -2.64,-15.03 6.61,-3.77 10.38,-17.23 3.74,-16.18 -2.57,0.4 -11.63,8.73 -14.67,13.59z"/>
   <path class="fil20" d="M211.25 336.74l3.45 -1.09 -0.18 8.6c3.41,-0.43 2.14,0.21 5.44,-2.99 6.75,-6.54 10.22,-15.22 11.34,-24.86l7.91 -1.26c-3.06,-5.62 -4.16,-4.58 -11.43,-5.16 -0.36,4.52 -4.18,10.77 -6.64,14.39 -1.08,1.59 -3.2,4.64 -4.62,6.4 -1.7,2.12 -3.69,3.38 -5.27,5.97z"/>
   <path class="fil38" d="M214.97 226.16c2.11,-3.13 -5.94,-10.27 -7.5,-12.48 3.45,-2.73 6.19,-0.96 11.36,-3.08 3.53,-1.45 7.3,-4 11.1,-5.96 -0.82,-0.61 0.61,-0.47 -1.71,-0.39 -27.91,3.69 -27.43,-2.03 -37.06,-2.21l2.37 3.79c3.92,5.24 16.12,18.66 21.44,20.33z"/>
   <path class="fil11" d="M323.65 185.06c-3.05,-4.31 -1.07,-13.27 0.41,-17.77 1.66,-5.06 3.85,-8.62 5.63,-13.75 -4.01,2.42 -3.33,2.26 -5.8,5.48 -0.13,0.16 -0.31,0.4 -0.44,0.56 -4.21,5.24 -5.36,5.37 -8.05,14.18 -1.98,6.53 -2.97,23.82 -0.18,28.65 1.55,-2 4.7,-7.64 4.99,-8.99 0.5,-2.37 -1.1,0.78 0.34,-3.45l3.1 -4.91z"/>
   <path class="fil39" d="M194.71 447.58l2.24 -0.16c4.14,-2.72 3.71,-6.19 11.08,-4.19 0.16,0.22 0.45,0.25 0.51,0.64 0.13,0.87 1.07,0.16 1.17,2.81 0.15,3.71 0.83,0.34 -1.26,2.71 4.2,0.89 9.35,5.33 11.11,8.13 1.72,-0.49 2.81,-0.93 5.2,-0.73 3.13,0.26 1.08,2.18 3.06,0.36 -0.22,-4.22 -5.5,-10.93 -7.85,-13.65 -2.9,-3.33 -8.43,-6.41 -14.77,-6.19 -5.71,3.09 -9.51,2.24 -10.49,10.27z"/>
   <path class="fil6" d="M275.3 236.8c4.7,-0.83 3.05,-1.01 7.2,-2.7 3.24,-1.33 5.16,-0.74 7.61,-2.35 1.64,-12.84 -2.42,-24.17 -6.82,-33.44l-1.52 5.06c-1.48,9.7 1.75,23.45 -5.9,32.73 -0.14,0.17 -0.41,0.44 -0.57,0.7z"/>
   <path class="fil40" d="M87.02 134.24c4.29,7.9 9.25,12.59 16.84,17.78 3.06,2.1 4.87,2.09 7.56,4.51 -0.55,-4.32 -4.38,-13.3 -6.07,-17.13 1.99,-2.28 10.21,-7.64 11.13,-10.29l1.18 -2.74 -2.15 0.35c-5.4,4.87 -1.46,4.88 -11.24,8.55 -5.49,2.06 -11.98,0.16 -17.25,-1.03z"/>
   <path class="fil33" d="M170.61 456.97c-0.48,2.05 -1.17,4.05 2.11,6.91 2.3,-8.01 11.96,-15.88 21.99,-16.3 0.98,-8.03 4.78,-7.18 10.49,-10.27 -6.62,-2.66 -16.78,1.56 -21.73,4.97 -5.76,3.97 -10.11,7.55 -12.86,14.69z"/>
   <path class="fil41" d="M85.28 270.09c2.42,-3.73 -0.12,-6.14 0.97,-9.62 0.24,-0.77 3.94,-6.34 4.56,-7.19 3.93,-5.32 6.68,-8.36 13.76,-11.4 1.53,-2.12 2.88,-2.85 1.95,-6.12 -3.32,-1.63 -2.49,-0.78 -5.91,0.16 -0.82,0.23 -2.99,0.75 -3.26,0.83 -2.2,0.62 -1.17,-0.09 -2.86,1.1 -0.51,0.35 -12.62,14.61 -13.07,19.12 -0.5,5 2.65,8.56 3.86,13.12z"/>
   <path class="fil39" d="M178.8 499.44l1.42 -5.55 -6.53 -4.71c-2.09,-7.8 -4.1,-17.28 -0.97,-25.3 -3.28,-2.86 -2.59,-4.86 -2.11,-6.91 -4.63,4.55 -6.97,18.13 -5.86,25.47 0.92,6.1 8.46,15.9 14.05,17z"/>
   <path class="fil0" d="M243.16 223.45l-1.21 4.98c4.71,-0.55 4.81,-3.93 7.57,-8.24 3.04,-4.72 3.26,-6.44 6.46,-10.56 6.68,-8.59 11.23,-12.21 4.01,-22.44 -4.59,2.51 -7.59,18.96 -12.27,27.17 -1.54,2.71 -1.57,2.4 -2.5,4.61 -1.1,2.62 -0.31,1.94 -2.06,4.48z"/>
   <path class="fil42" d="M196.58 33.84c4.26,0.13 2.52,0.49 3.35,1.16 -3.56,3.62 -3.4,2.5 -5.47,7.68 -1.1,2.77 -1.93,6.65 -1.89,11.61 5.24,-6.17 5.58,-12.41 23.33,-26.29 2.73,-2.14 6.38,-4.65 9.63,-6.65 -13.22,-1.29 -19.14,5.68 -25.5,9.86 -1.13,0.75 -2.46,1.89 -3.45,2.63z"/>
   <path class="fil12" d="M238.79 402.04c-0.05,3.98 -0.36,11.38 0.45,14.97 5.88,-4.26 23.96,-24.66 24.73,-29.57 -5.78,0.17 -8.2,4.91 -12.2,7.67 -3.24,2.24 -9.8,6.28 -12.98,6.93z"/>
   <path class="fil43" d="M201.39 271.9c-4.08,2.11 -9.13,3.91 -14.16,6.41 -8.59,4.28 -10.94,4.17 -13.26,8.29 3.78,-0.46 4.65,-1.49 7.45,-2.99l6.07 -2.93c12.93,-6.1 25.07,-1.91 34.78,6.83 2.54,2.28 2.08,2.47 5.92,5.02 -2.07,-7.18 -8.28,-17.86 -15.03,-20.9 -0.03,2.79 -0.59,1.03 -0.99,2.97l-9.37 0.86c-1.73,-1.62 -1.27,2.15 -1.41,-3.56z"/>
   <path class="fil43" d="M153.61 458.56c0.75,0.91 -0.12,0.5 2.02,0.72 1.78,0.19 0.88,0.05 2.51,-0.19l0.48 -3.27c-0.31,-9.7 -6.29,-9.11 -9.2,-18.41 -3.02,-1.87 -5.31,-3.01 -8.06,-4.66 -3.48,-2.09 -3.63,-3.11 -6.13,-5.27l-1.2 -0.44c3.43,4.58 5.54,11.67 8.54,16.56 3.55,5.8 8.17,8.77 11.04,14.96z"/>
   <path class="fil32" d="M129.78 138.39c2.86,2.29 10.2,3.21 16.21,12.65 2.5,3.93 8.26,17.23 10.63,19.62 0.2,-0.27 2.08,-1.06 1.54,-5.91 -0.22,-1.97 -1.15,-4.02 -1.97,-5.71 -3.88,-7.98 -13.21,-28.54 -26.41,-20.65z"/>
   <path class="fil19" d="M254.15 277.7c0.54,0.62 0.76,0.57 1.36,2.27 0.68,1.92 0.46,0.86 0.4,2.8 5.22,-2.76 2.97,-3.8 7.96,-6.86 0.02,-2.58 -0.2,-6.41 0.26,-8.84 0.42,-2.17 1.68,-4.78 2.31,-7.71l-0.21 -4.63c-4.52,0.84 -9.03,4.05 -10.29,8.04 -1.63,5.18 -1.59,9.39 -1.79,14.93z"/>
   <path class="fil36" d="M123.86 249.03c0.4,4.21 7.23,17.48 9.24,18.55l4.24 -27.48 -13.48 8.93z"/>
   <path class="fil24" d="M87.95 301.02l9.72 -15.74c3.97,-6.84 3.05,-15.23 -2.38,-18.57l-1.93 -0.32c-0.17,9.99 0.59,10.77 -1.71,19.73 -2.09,8.08 -7.15,11.02 -3.7,14.9z"/>
   <path class="fil6" d="M143.21 171.52l5.11 3.35c1.59,1.33 2.66,2.99 3.83,4.95 0.59,-0.57 4.82,0.87 -0.51,-8.23 -4.46,-7.62 -4.71,-10.93 -9.94,-18.24 -2.48,-3.47 -2.99,-5.87 -7.38,-7.38l8.48 19.28c2.77,7.24 1.18,5.43 0.41,6.27z"/>
   <path class="fil44" d="M149.62 304.78c7.65,0.02 2.84,-4.56 15.27,-2.84l12.73 2.02c4.46,-1.7 1.55,-0.23 1.81,-3.3 -6.5,-0.68 -10.7,-3.1 -16.84,-3.78 -4.56,-0.5 -13.27,1.65 -18.39,2.69 2.61,2.29 1.2,3.01 5.42,5.21z"/>
   <path class="fil45" d="M191.12 294.88c-1.54,-1.18 -0.55,1.07 -1.88,-1.9 1.38,-5.6 2.38,-5.54 8.87,-6.29l0.27 3.81 3.15 -1.31c1.1,0.91 2.63,2.23 3.52,2.98l0.21 -7.22 1.93 -0.34c-1.38,-4.51 -21.25,0.24 -25.42,4.35 2.83,5.37 4.12,7.78 7.98,9.23l1.37 -3.31z"/>
   <path class="fil23" d="M111.94 354.7c3.31,5.16 3.87,12.41 9.21,16.38 -0.24,-3.08 -1.45,-4.88 -2.46,-8.16 -0.87,-2.83 -1.69,-5.51 -2.37,-9.02 -1.03,-2.8 -2.12,-9.03 -2.55,-12.19 -0.8,-5.95 1.24,-9.8 -3.89,-10.1 -2.53,6.62 0.78,16.96 2.06,23.09z"/>
   <path class="fil20" d="M126.49 221.46c0.36,0.28 -0.23,1.19 3.13,1.7 1.43,0.22 2.92,-0.39 5.28,-0.69l-0.1 12.89 3.55 -0.97 5.71 -22.46c-4.29,1.05 -9.79,8.57 -17.57,9.53z"/>
   <path class="fil42" d="M163.12 57.49c1.37,0.7 2.87,3.17 3.15,4.2 1.12,4.18 -0.19,2.22 -1.32,5.78 -1.48,4.62 -0.85,9.29 -2.55,13.84 3.68,-1.3 3.56,-0.83 4.89,-4.47 1.51,-4.15 3.65,-15.81 6.69,-21.76 -4.48,-1.98 -7.3,-2.4 -10.86,2.41z"/>
   <path class="fil1" d="M103.52 174.57l13.71 -8.07 -1.87 -5.37c-7.87,1.86 -7.85,0.97 -14.56,-0.82 0.51,5.26 1.1,10.75 2.72,14.26z"/>
   <path class="fil46" d="M132.25 111.43l2.25 -2.22c4.75,-5.11 4.02,-9.52 0.56,-15.55 -1.24,-2.16 -2.6,-2.87 -5.6,-3.76l-1.47 13.36c2.31,4.74 2.75,1.98 4.26,8.17z"/>
   <path class="fil24" d="M268.27 426.23l28.35 -23.36c2.22,-1.88 2.97,-2.26 5.15,-3.91 2.53,-1.91 0.25,0.83 2.26,-1.89 0,0 1.36,-0.15 0.53,-3.08 -2.81,-1.13 -2.23,-1.42 -10.78,5.02 -4.83,3.63 -4.2,7.4 -7.82,10.2 -5.66,4.37 -1.69,-0.76 -9.3,7.81 -2.7,3.05 -6.86,6.1 -8.39,9.21z"/>
   <path class="fil47" d="M106.88 199.31c2.03,-0.99 9.32,-8.21 7.53,-16.92l-9.38 -1.84c-0.1,3.95 0.76,6.8 0.85,9.64 0.11,3.34 0.3,5.11 1,9.12z"/>
   <path class="fil42" d="M131.87 72.85l-3.22 7.69c4.38,-1.15 6.98,-1.06 9.26,-3.99 1.42,-1.82 3.95,-6.66 4.38,-9.59 -2.86,-0.24 -16.47,-0.17 -18.99,0.15l3.22 0.83c2.49,0.32 2.13,0.14 4.55,0.12 0.08,2.67 0.32,2.38 0.8,4.79z"/>
   <path class="fil48" d="M232.48 182.43l3.18 0.41c-0.31,1.39 -0.26,1.97 -1.09,3.28 -2.17,3.4 0.83,2.34 -3.65,2.61l3 5.9c3.19,-1.6 12.03,-8.96 13.18,-13.87 -7.44,0.05 -11,-1.45 -14.62,1.67z"/>
   <path class="fil20" d="M358.6 159.62c1.11,-3 2.12,-4.28 3.32,-6.63 1.68,-3.27 0.92,-3.85 5.09,-4.93 -1.12,-4.06 -2.79,-4.56 -6.05,-5.81l-8.36 11.2 6 6.17z"/>
   <path class="fil49" d="M270.71 17.21c3.41,-0.24 8.46,-0.04 11.04,1.91 3.83,-1.7 13.37,-5.04 16.45,-6.98 -9.65,-0.7 -20.29,-1.63 -27.49,5.07z"/>
   <path class="fil4" d="M158.62 455.82l3.03 -6.26c0.91,-1.8 2.06,-3.31 3.04,-5.01l-11.6 -5.43c-2.99,-1.56 0.31,-0.4 -3.67,-1.71 2.91,9.3 8.89,8.71 9.2,18.41z"/>
   <path class="fil23" d="M124.69 357.55c0.59,3.8 2.57,9.21 6.41,9.39l-0.97 -5.77c-0.84,-2.49 -1.77,-5.97 -2.27,-8.19 -0.85,-3.7 -0.11,-5.27 -3.36,-6.76 -3.84,3.72 -0.96,5.93 0.19,11.33z"/>
   <path class="fil6" d="M192.55 320.14c3.55,-0.01 6.86,0.22 8.92,2.17 4.65,2.09 5.16,2.67 5.11,8.72 2.32,-3.46 1.07,-11.3 -0.07,-15.77 -6.04,2.53 -9.04,2.56 -11.69,3.64 -2.52,1.04 -1.21,0.46 -2.27,1.24z"/>
   <path class="fil12" d="M234.82 236.76c-0.19,4.66 -1.62,9.26 -0.52,13.55 3.68,-0.26 4.07,-5.1 5.79,-8.42 3.44,-6.65 1.02,-6.83 -5.27,-5.13z"/>
   <path class="fil50" d="M147.59 199.45c3.6,-2.19 2.78,-0.91 4.68,-4.84 -8.85,-9.08 -0.41,-7.32 -8.34,-9.51 -1.04,2.72 -1.91,5.66 0.15,8.91 1.64,2.57 1.83,0.52 3.11,4.12l0.24 0.92c0.02,0.06 0.09,0.28 0.16,0.4z"/>
   <path class="fil51" d="M139.97 359.61c4,2.35 2.74,1.18 4.81,5.47 0.52,1.1 0.92,2.09 1.64,3.37 2.35,4.18 0.12,1.81 3.1,3.08l-4.89 -11.29 -2.84 -8.23c-1.98,-3 0.04,-0.69 -2.23,-2.09 -4.5,4.01 -0.81,2.83 0.41,9.69z"/>
   <path class="fil52" d="M196.95 447.42l3.61 0.97 7.89 1c2.09,-2.37 1.41,1 1.26,-2.71 -0.1,-2.65 -1.04,-1.94 -1.17,-2.81 -0.06,-0.39 -0.35,-0.42 -0.51,-0.64 -7.37,-2 -6.94,1.47 -11.08,4.19z"/>
   <path class="fil6" d="M112.45 204.94c3.81,0.66 2.75,1.59 5.02,3.69 1.53,1.43 3.88,3.15 5.47,4.1l-5.41 -14.2c-3.35,1.39 -3.89,3.51 -5.08,6.41z"/>
   <path class="fil12" d="M262.16 400.32c4.67,1.24 10.95,-2.59 10.95,-8.98 -3.88,0.33 -4.38,1.55 -6.74,3.33 -3.05,2.3 -3.04,2.11 -4.21,5.65z"/>
   <path class="fil23" d="M158.64 359.15c2.77,2.55 0.36,-0.19 2.67,3.39 2.19,3.39 -0.35,1.79 3.34,2.8l1.07 -4.1c-3.81,-4.43 -0.52,-6 -6.09,-7.91 -2.94,4.28 -0.65,1.91 -0.99,5.82z"/>
   <path class="fil44" d="M201.39 271.9c0.14,5.71 -0.32,1.94 1.41,3.56l9.37 -0.86c0.4,-1.94 0.96,-0.18 0.99,-2.97 -4.32,-2.58 -8.23,-0.74 -11.77,0.27z"/>
   <path class="fil53" d="M244.5 250.72c1.3,-2.43 7.4,-5.83 10.41,-6.95l0.13 -2.72c-4.1,0.1 -4.35,1.19 -7.55,3.25 -7.7,4.96 -4.81,2.14 -5.93,5.52l2.94 0.9z"/>
   <path class="fil54" d="M191.12 294.88c1.82,-2.19 4.53,-3.82 7.26,-4.38l-0.27 -3.81c-6.49,0.75 -7.49,0.69 -8.87,6.29 1.33,2.97 0.34,0.72 1.88,1.9z"/>
   <path class="fil55" d="M169.23 429.37c4.3,1.79 1.94,1.97 5.48,3.82l3 -0.77c-1.22,-2.66 -5.96,-7.65 -8.11,-9.76l-0.37 6.71z"/>
   <path class="fil56" d="M174.71 433.19c-3.54,-1.85 -1.18,-2.03 -5.48,-3.82l-0.47 6.14 3.6 2.95c2.78,-3.97 1.77,0.2 2.35,-5.27z"/>
   <path class="fil33" d="M230.92 188.73c4.48,-0.27 1.48,0.79 3.65,-2.61 0.83,-1.31 0.78,-1.89 1.09,-3.28l-3.18 -0.41c-2.54,3.38 -2.35,1.79 -1.56,6.3z"/>
   <path class="fil45" d="M171.04 292.98c2.32,2.05 3.36,1.48 6.82,1.99 -0.6,-5.14 -3.41,-5.12 -6.82,-1.99z"/>
   <path class="fil0" d="M78.33 178.55l0.3 -0.3c-0.02,0.02 -0.4,0.2 -0.3,0.3z"/>
  </g>
 </g>
</svg>
