<?xml version="1.0" encoding="UTF-8" standalone="no"?>
<!-- Generator: Adobe Illustrator 24.2.0, SVG Export Plug-In . SVG Version: 6.00 Build 0)  -->

<svg
   xmlns:dc="http://purl.org/dc/elements/1.1/"
   xmlns:cc="http://creativecommons.org/ns#"
   xmlns:rdf="http://www.w3.org/1999/02/22-rdf-syntax-ns#"
   xmlns:svg="http://www.w3.org/2000/svg"
   xmlns="http://www.w3.org/2000/svg"
   xmlns:xlink="http://www.w3.org/1999/xlink"
   xmlns:sodipodi="http://sodipodi.sourceforge.net/DTD/sodipodi-0.dtd"
   xmlns:inkscape="http://www.inkscape.org/namespaces/inkscape"
   version="1.1"
   id="Layer_1"
   x="0px"
   y="0px"
   viewBox="0 0 100 150"
   xml:space="preserve"
   sodipodi:docname="DMG Grass Pattern.svg"
   inkscape:version="0.92.3 (2405546, 2018-03-11)"
   width="100"
   height="150"><metadata
   id="metadata10519"><rdf:RDF><cc:Work
       rdf:about=""><dc:format>image/svg+xml</dc:format><dc:type
         rdf:resource="http://purl.org/dc/dcmitype/StillImage" /><dc:title></dc:title></cc:Work></rdf:RDF></metadata><defs
   id="defs10517" /><sodipodi:namedview
   pagecolor="#ffffff"
   bordercolor="#666666"
   borderopacity="1"
   objecttolerance="10"
   gridtolerance="10"
   guidetolerance="10"
   inkscape:pageopacity="0"
   inkscape:pageshadow="2"
   inkscape:window-width="713"
   inkscape:window-height="480"
   id="namedview10515"
   showgrid="false"
   inkscape:zoom="1.5733333"
   inkscape:cx="50"
   inkscape:cy="75"
   inkscape:window-x="664"
   inkscape:window-y="57"
   inkscape:window-maximized="0"
   inkscape:current-layer="Layer_1" />
<style
   type="text/css"
   id="style10458">
	.st0{clip-path:url(#SVGID_2_);fill:none;}
	.st1{clip-path:url(#SVGID_2_);}
</style>
<g
   id="g10512">
	<defs
   id="defs10461">
		<rect
   id="SVGID_1_"
   width="100"
   height="150"
   x="0"
   y="0" />
	</defs>
	<clipPath
   id="SVGID_2_">
		<use
   xlink:href="#SVGID_1_"
   style="overflow:visible"
   id="use10463"
   x="0"
   y="0"
   width="100%"
   height="100%" />
	</clipPath>
	<rect
   class="st0"
   width="100"
   height="150"
   clip-path="url(#SVGID_2_)"
   id="rect10466"
   x="0"
   y="0"
   style="fill:none" />
	<path
   class="st1"
   d="m -3.88,1.34 c -0.82,-2.46 -1.52,-4.13 -3.09,-6.26 2.51,0.83 3.7,2.59 4.89,4.77 0.63,-1.27 -0.23,-3.16 -0.17,-4.58 2.15,0.72 2.81,3.81 3.09,5.87 0.57,-1.17 1.33,-4.62 3.21,-4.23 -0.21,1.27 -0.7,2.6 -0.6,3.97 C 4.23,-0.36 5.66,-1.11 7.13,-1.27 7.04,0.43 4.63,3.34 3.72,4.8 4,4.34 2.44,3.75 2.13,3.78 1.52,3.83 0.93,4.55 0.53,4.92 -0.12,4.13 -0.5,2.89 -1.73,2.96 -2.74,3.02 -3.68,4.3 -4.4,4.87 -4.94,4.25 -5.11,3.42 -5.42,2.67 -5.87,1.58 -6.6,0.66 -7.13,-0.36 c 1.46,-0.18 2.49,0.56 3.25,1.7 z"
   clip-path="url(#SVGID_2_)"
   id="path10468"
   inkscape:connector-curvature="0" />
	<path
   class="st1"
   d="M 96.12,1.34 C 95.3,-1.12 94.6,-2.8 93.03,-4.93 c 2.51,0.83 3.7,2.59 4.89,4.77 0.63,-1.27 -0.23,-3.16 -0.17,-4.58 2.15,0.72 2.81,3.81 3.09,5.87 0.57,-1.17 1.33,-4.62 3.21,-4.23 -0.21,1.27 -0.7,2.6 -0.6,3.97 0.78,-1.24 2.21,-1.99 3.68,-2.15 -0.09,1.7 -2.5,4.61 -3.41,6.07 0.28,-0.45 -1.28,-1.04 -1.59,-1.02 -0.61,0.05 -1.2,0.77 -1.6,1.14 C 99.88,4.12 99.5,2.87 98.26,2.94 97.25,3 96.32,4.29 95.6,4.85 95.06,4.23 94.89,3.4 94.58,2.65 94.13,1.57 93.4,0.64 92.87,-0.37 c 1.46,-0.17 2.49,0.57 3.25,1.71 z"
   clip-path="url(#SVGID_2_)"
   id="path10470"
   inkscape:connector-curvature="0" />
	<path
   class="st1"
   d="m -3.88,151.34 c -0.82,-2.46 -1.52,-4.14 -3.09,-6.27 2.51,0.83 3.7,2.59 4.89,4.77 0.63,-1.27 -0.23,-3.16 -0.17,-4.58 2.15,0.72 2.81,3.81 3.09,5.87 0.57,-1.17 1.33,-4.62 3.21,-4.23 -0.21,1.27 -0.7,2.6 -0.6,3.97 0.78,-1.24 2.21,-1.99 3.68,-2.15 -0.09,1.7 -2.5,4.61 -3.41,6.07 0.28,-0.45 -1.28,-1.04 -1.59,-1.02 -0.61,0.05 -1.2,0.77 -1.6,1.14 -0.65,-0.79 -1.03,-2.04 -2.27,-1.97 -1.01,0.06 -1.94,1.35 -2.66,1.91 -0.54,-0.62 -0.71,-1.45 -1.02,-2.2 -0.45,-1.08 -1.18,-2.01 -1.71,-3.02 1.46,-0.17 2.49,0.57 3.25,1.71 z"
   clip-path="url(#SVGID_2_)"
   id="path10472"
   inkscape:connector-curvature="0" />
	<path
   class="st1"
   d="m 96.12,151.34 c -0.82,-2.46 -1.52,-4.14 -3.09,-6.27 2.51,0.83 3.7,2.59 4.89,4.77 0.63,-1.27 -0.23,-3.16 -0.17,-4.58 2.15,0.72 2.81,3.81 3.09,5.87 0.57,-1.17 1.33,-4.62 3.21,-4.23 -0.21,1.27 -0.7,2.6 -0.6,3.97 0.78,-1.24 2.21,-1.99 3.68,-2.15 -0.09,1.7 -2.5,4.61 -3.41,6.07 0.28,-0.45 -1.28,-1.04 -1.59,-1.02 -0.61,0.05 -1.2,0.77 -1.6,1.14 -0.65,-0.79 -1.03,-2.04 -2.27,-1.97 -1.01,0.06 -1.94,1.35 -2.66,1.91 -0.54,-0.62 -0.71,-1.45 -1.02,-2.2 -0.45,-1.08 -1.18,-2.01 -1.71,-3.02 1.46,-0.17 2.49,0.57 3.25,1.71 z"
   clip-path="url(#SVGID_2_)"
   id="path10474"
   inkscape:connector-curvature="0" />
	<path
   class="st1"
   d="m -8.07,120.68 c 0.09,-0.21 -0.84,-1.79 -1.08,-2.02 -0.52,0.23 -0.84,0.82 -1.14,1.3 0.04,-2.35 -0.68,-4.26 -1.99,-6.26 1.77,0.06 2.57,1.49 3.89,2.34 -0.13,-0.08 0.21,-2.81 0.18,-3.18 -0.08,-1.09 -0.35,-2.15 -0.48,-3.22 1.38,0.3 2.35,1.74 2.88,2.96 0.37,0.86 1.3,3.28 0.78,4.14 0.9,-1.47 1.98,-4.66 4.19,-4.45 -0.1,1.38 -0.7,2.7 -0.55,4.18 1.33,-1.13 2.53,-2.12 4.31,-2.49 -0.36,1.66 -1.8,3.75 -2.58,5.34 -1.86,-0.88 -2.57,-1.33 -3.91,0.75 -2.71,-1.37 -2.92,-2.94 -4.5,0.61 z"
   clip-path="url(#SVGID_2_)"
   id="path10476"
   inkscape:connector-curvature="0" />
	<path
   class="st1"
   d="m 91.93,120.68 c 0.09,-0.21 -0.84,-1.79 -1.08,-2.02 -0.52,0.23 -0.84,0.82 -1.14,1.3 0.04,-2.35 -0.68,-4.26 -1.99,-6.26 1.77,0.06 2.57,1.49 3.89,2.34 -0.13,-0.08 0.21,-2.81 0.18,-3.18 -0.08,-1.09 -0.35,-2.15 -0.48,-3.22 1.38,0.3 2.35,1.74 2.88,2.96 0.37,0.86 1.3,3.28 0.78,4.14 0.9,-1.47 1.98,-4.66 4.19,-4.45 -0.1,1.38 -0.7,2.7 -0.55,4.18 1.33,-1.13 2.53,-2.12 4.31,-2.49 -0.36,1.66 -1.8,3.75 -2.58,5.34 -1.86,-0.88 -2.57,-1.33 -3.91,0.75 -2.71,-1.37 -2.92,-2.94 -4.5,0.61 z"
   clip-path="url(#SVGID_2_)"
   id="path10478"
   inkscape:connector-curvature="0" />
	<path
   class="st1"
   d="m 44.62,56.43 c 0.04,-0.58 -0.02,-1.15 -0.31,-1.65 -0.13,-0.22 -1.54,-2.37 -1.59,-2.38 0.66,0.11 1.36,0.14 2,0.43 0.54,0.25 1,0.73 1.52,0.96 0.13,-1.7 -0.58,-3.08 -0.8,-4.69 2.6,-0.03 3.62,3.37 3.74,5.39 0.77,-1.32 1.47,-3.3 3.33,-3.34 -0.04,1.02 -0.41,2.14 -0.47,3.2 0.69,-0.8 1.88,-1.12 2.86,-1.26 -0.29,0.73 -0.76,1.45 -0.92,2.22 0.89,-0.56 2.27,-0.58 3.31,-0.5 -0.92,0.88 -1.77,2.19 -2.79,2.91 -0.22,-0.33 -0.39,-0.91 -0.88,-0.94 -0.76,-0.05 -1.33,1.33 -2.05,1.22 -0.58,-0.09 -1.07,-1.56 -1.77,-1.45 -0.43,0.07 -0.93,1.53 -1.1,1.98 -0.64,-0.43 -1.86,-1.68 -2.7,-1.57 -0.45,0.06 -1.3,0.83 -1.61,1.14 0.07,-0.53 0.19,-1.11 0.23,-1.67 z"
   clip-path="url(#SVGID_2_)"
   id="path10480"
   inkscape:connector-curvature="0" />
	<g
   class="st1"
   clip-path="url(#SVGID_2_)"
   id="g10486">
		<path
   d="m 5.18,73.19 c -0.75,-1.8 -1.92,-4.1 -2.22,-4.46 1.3,0.52 2.41,1.48 3.63,2.11 -0.13,-2.05 -0.13,-4.15 -1.31,-5.95 1.49,0.39 2.88,1.38 3.77,2.63 0.37,0.52 1.93,3.28 1.71,3.87 0.36,-0.99 1.57,-2.13 2.48,-2.68 0.88,-0.53 1.88,-0.71 2.86,-0.85 0.05,0.05 0.09,0.1 0.14,0.15 -1.12,2.27 -2.18,4.48 -3.05,6.88 0.1,-0.29 -1.52,-1.24 -1.8,-1.26 C 10.52,73.55 9.65,74.37 9.17,75 8.58,74.51 8.46,73.3 7.53,73.51 6.91,73.65 6.4,75.07 5.76,75.41 5.97,75.3 5.66,74.34 5.18,73.19 Z"
   id="path10482"
   inkscape:connector-curvature="0" />
		<path
   d="M 3.52,75.65 C 3.83,75.36 3.65,74.22 3.46,73.76 3.19,73.11 2.52,72.44 1.8,72.41 c 0.34,0.54 0.25,1.27 0.51,1.84 0.23,0.49 0.74,0.8 1.21,1.4 z"
   id="path10484"
   inkscape:connector-curvature="0" />
	</g>
	<g
   class="st1"
   clip-path="url(#SVGID_2_)"
   id="g10492">
		<path
   d="m 17.51,28.56 c -0.87,-1.65 -1.71,-3.2 -3.02,-4.83 1.6,0.28 3.03,1.11 4.47,1.79 0.2,-1.97 -0.83,-3.76 -1.04,-5.68 0.02,0.18 2.45,1.72 2.77,2.1 0.94,1.11 1.81,2.96 2.33,4.32 1.01,-1.75 2.53,-3.93 4.89,-3.79 -0.29,1.4 -2,2.65 -1.59,4.13 0.31,-0.09 3.85,-1.11 3.78,-1.02 -1.12,1.41 -1.8,3.4 -3.28,4.5 -1.97,-1.26 -2.41,-0.39 -4.28,0.52 -0.65,-0.74 -1.15,-1.6 -2.28,-1.3 -0.36,0.1 -1.61,1.44 -1.42,1.78 -0.47,-0.87 -0.9,-1.71 -1.33,-2.52 z"
   id="path10488"
   inkscape:connector-curvature="0" />
		<path
   d="M 17.24,30.93 C 17.12,29.8 15.8,28.2 14.57,28 c -0.02,0.62 0.14,1.29 0.2,1.91 -0.51,0.18 -1.07,-0.09 -1.6,0.2 0.43,0.44 1.57,0.76 2.23,0.9 0.61,0.14 1.49,-0.08 1.84,-0.08 z"
   id="path10490"
   inkscape:connector-curvature="0" />
	</g>
	<g
   class="st1"
   clip-path="url(#SVGID_2_)"
   id="g10498">
		<path
   d="M 86.32,36.73 C 86.17,36.34 86,35.95 85.78,35.56 85.26,34.64 84.21,33.72 83.89,32.8 c 1.18,-0.14 2.99,0.25 3.8,1.18 0.03,-2.24 -2.04,-3.42 -3.48,-4.82 3.2,-1.05 5.63,3 6.79,5.29 0.39,-1.09 -0.14,-2.86 -0.81,-3.83 2.34,0.09 3.82,4.38 3.05,6.29 -1.87,-0.42 -1.47,-0.76 -2.47,0.93 0.08,-0.14 -2.97,-1.71 -3.38,-1.74 -0.02,0.62 -0.34,1.34 -0.6,1.83 -0.17,-0.41 -0.31,-0.8 -0.47,-1.2 z"
   id="path10494"
   inkscape:connector-curvature="0" />
		<path
   d="m 94.24,36.59 c -0.08,0.04 -0.17,0.1 -0.25,0.17 0.12,-0.72 0.36,-1.62 0.65,-2.28 0.06,-0.12 0.88,-1.3 0.93,-1.24 0.42,0.49 0.12,1.34 0.37,1.92 0.01,0.02 2.49,-0.37 2.81,-0.23 -0.25,0.2 -3.07,2.33 -2.82,2.64 -0.42,-0.56 -0.95,-1.35 -1.69,-0.98 z"
   id="path10496"
   inkscape:connector-curvature="0" />
	</g>
	<path
   class="st1"
   d="m 59.19,9.9 c -0.23,0.2 -0.45,0.41 -0.65,0.6 -0.08,-0.9 0,-1.54 -0.34,-2.44 -0.4,-1.03 -0.85,-1.95 -1.72,-2.65 1.6,-0.1 2.97,0.77 3.98,1.91 C 60.74,6.61 60.53,5.57 60.28,4.88 60.14,4.49 58.95,2.12 58.81,2.13 60,2.02 61.28,3.25 62,4.07 c 0.76,0.86 0.95,1.8 1.41,2.72 0.24,-0.94 0.89,-1.86 1.61,-2.49 0.73,-0.65 2.21,-1.42 3.2,-1.24 -0.13,0.73 -0.84,1.47 -1.13,2.19 -0.26,0.63 -0.5,1.26 -0.74,1.89 0.66,-0.75 2.11,-1.24 3.16,-0.96 -0.56,1.17 -1.64,1.83 -1.51,3.24 0.03,0.34 0.08,0.7 0.13,1 C 67.72,10.26 67,9.76 66.59,9.74 c -0.53,-0.02 -0.85,0.52 -1.15,0.93 -0.73,-0.28 -0.8,-1.5 -1.78,-1.28 -0.44,0.1 -0.75,0.76 -1.18,0.78 -0.45,0.02 -0.91,-0.89 -1.39,-1.01 -0.58,-0.15 -1.48,0.39 -1.9,0.74 z"
   clip-path="url(#SVGID_2_)"
   id="path10500"
   inkscape:connector-curvature="0" />
	<path
   class="st1"
   d="m 26.01,104.29 c -0.02,-0.93 -0.37,-1.55 -0.97,-2.27 -0.17,-0.2 -1.84,-2.04 -1.94,-1.99 0.94,-0.45 2.29,-0.52 3.17,0.09 -0.09,-0.47 -1.15,-4.14 -1.61,-4.16 0.75,0.03 1.43,0.37 2.1,0.74 1.77,0.99 2.92,2.76 3.34,4.75 1.01,-0.91 0.39,-3.66 -0.01,-5.2 0.03,0.08 1.33,0.47 2.05,1.72 0.51,0.89 0.98,2.17 1.24,3.16 0.68,-0.73 1.03,-1.42 1.99,-1.9 0.95,-0.48 2.23,-0.95 3.24,-0.49 -0.49,1 -1.29,2.08 -1.9,3.06 0.91,-0.19 1.87,-0.25 2.68,0.24 -1.39,0.45 -2.65,2 -3.27,3.28 0.31,-0.63 -2.22,-1.41 -2.57,-1.39 -0.34,0.03 -1.94,0.96 -1.6,1.41 -1.1,-1.48 -2.56,-1.19 -3.65,0.27 -0.33,-0.91 -1.32,-1.72 -2.29,-1.32 z"
   clip-path="url(#SVGID_2_)"
   id="path10502"
   inkscape:connector-curvature="0" />
	<g
   class="st1"
   clip-path="url(#SVGID_2_)"
   id="g10508">
		<path
   d="m 40.05,140.22 c 0.05,-1.87 -2.05,-4.07 -3.12,-5.53 1.61,-0.01 2.94,1.25 4.39,1.6 -0.19,-1.18 -0.97,-3.21 -1.79,-4.05 2.81,-0.23 4.84,4.16 5.66,6.43 0.8,-1.28 1.76,-3.55 3.55,-3.38 -0.37,1.81 -0.69,4 -1.29,5.82 -1.3,-0.87 -2.19,-0.16 -3.37,0.56 -0.46,-0.68 -0.82,-1.5 -1.56,-1.88 -0.42,0.41 -0.72,0.91 -1,1.43 -0.45,-0.21 -0.9,-0.51 -1.47,-1 z"
   id="path10504"
   inkscape:connector-curvature="0" />
		<path
   d="m 48.57,140.9 c 0.12,-0.53 0.3,-1.02 0.67,-1.43 0.26,-0.28 0.57,-0.52 0.93,-0.64 0.05,-0.02 0.96,-0.16 0.91,-0.06 -0.33,0.67 -0.45,1.57 -0.96,2.09 -0.46,0.47 -1.21,0.54 -1.71,0.97 0.05,-0.31 0.09,-0.63 0.16,-0.93 z"
   id="path10506"
   inkscape:connector-curvature="0" />
	</g>
	<path
   class="st1"
   d="m 67.59,85.29 c -0.29,-1.14 -1.41,-2.97 -2.61,-3.93 1.35,-0.5 2.79,0.51 4,1.08 -0.2,-1.51 -1.43,-2.64 -2.12,-3.87 2.73,-0.15 4.53,1.8 4.97,4.66 0.78,-1.73 1.44,-5.28 4.01,-4.88 -0.12,0.85 -0.55,1.69 -0.67,2.57 -0.14,0.98 -0.06,1.99 -0.17,2.98 1.09,-1.6 3.45,-2.82 5.3,-2.3 -0.13,-0.04 -2.12,2.23 -2.41,2.55 -0.75,0.82 -1.16,2.01 -1.16,3.15 -0.75,-0.09 -1.36,-0.85 -2.12,-0.8 -0.44,0.03 -1.49,0.94 -1.51,1.43 0.03,-0.73 -0.45,-2.14 -1.16,-2.32 -1.01,-0.26 -1.68,1.36 -2.02,2.1 -0.52,-2 -0.77,-1.37 -1.99,-0.31 0,-0.81 -0.12,-1.5 -0.34,-2.11 z"
   clip-path="url(#SVGID_2_)"
   id="path10510"
   inkscape:connector-curvature="0" />
</g>
</svg>