<?xml version="1.0" encoding="UTF-8" standalone="no"?>
<!-- Created with Inkscape (http://www.inkscape.org/) -->

<svg
   xmlns:dc="http://purl.org/dc/elements/1.1/"
   xmlns:cc="http://creativecommons.org/ns#"
   xmlns:rdf="http://www.w3.org/1999/02/22-rdf-syntax-ns#"
   xmlns:svg="http://www.w3.org/2000/svg"
   xmlns="http://www.w3.org/2000/svg"
   xmlns:sodipodi="http://sodipodi.sourceforge.net/DTD/sodipodi-0.dtd"
   xmlns:inkscape="http://www.inkscape.org/namespaces/inkscape"
   width="507.74722"
   height="501.16394"
   version="1.1"
   viewBox="0 0 507.74721 501.16392"
   xml:space="preserve"
   id="svg902"
   sodipodi:docname="dots.svg"
   inkscape:version="0.92.3 (2405546, 2018-03-11)"><defs
     id="defs906" /><sodipodi:namedview
     pagecolor="#ffffff"
     bordercolor="#666666"
     borderopacity="1"
     objecttolerance="10"
     gridtolerance="10"
     guidetolerance="10"
     inkscape:pageopacity="0"
     inkscape:pageshadow="2"
     inkscape:window-width="1366"
     inkscape:window-height="703"
     id="namedview904"
     showgrid="false"
     inkscape:zoom="0.32719835"
     inkscape:cx="236.55396"
     inkscape:cy="470.15656"
     inkscape:window-x="0"
     inkscape:window-y="0"
     inkscape:window-maximized="1"
     inkscape:current-layer="svg902" /><metadata
     id="metadata2"><rdf:RDF><cc:Work
         rdf:about=""><dc:format>image/svg+xml</dc:format><dc:type
           rdf:resource="http://purl.org/dc/dcmitype/StillImage" /><dc:title /></cc:Work></rdf:RDF></metadata><g
     transform="matrix(0.2316093,0,0,-0.2316093,12.01288,494.01701)"
     id="g900"><g
       transform="scale(0.1)"
       id="g898"><g
         transform="scale(1.2883)"
         id="g6"><path
           d="M 16300,0 H 0 V 16300 H 16300 V 0"
           id="path4"
           inkscape:connector-curvature="0"
           style="fill:#ffffff" /></g><g
         transform="scale(1.2601)"
         id="g10"><path
           d="m 14877,16290 c -125.3,-10 -241.3,-206.8 -174.9,-295.6 66.3,-88.9 327.5,-92.1 422.7,-58.2 62.8,22.4 176.2,190.2 140.3,262.1 -35.7,71.8 -262.7,101.7 -388.1,91.7"
           id="path8"
           inkscape:connector-curvature="0" /></g><g
         transform="scale(1.2883)"
         id="g14"><path
           d="m 15330,16274 c 28,-92.2 254.3,-137.5 326,-72.4 131.7,119.5 -187.5,367.7 -290.5,354.4 -102.9,-13.3 -63.4,-189.8 -35.5,-282"
           id="path12"
           inkscape:connector-curvature="0" /></g><g
         transform="scale(1.1806)"
         id="g18"><path
           d="m 15885,5559.5 c -133.8,-10.67 -280.9,-262.23 -210.1,-357.1 70.8,-94.78 355.9,-26.43 457.4,9.74 67.1,23.97 167.4,130.19 129.1,206.93 -38.2,76.65 -242.7,151.19 -376.4,140.43"
           id="path16"
           inkscape:connector-curvature="0" /></g><g
         transform="scale(1.2492)"
         id="g22"><path
           d="m 15695,6693.8 c -78.8,-118.95 96.9,-190.36 203.8,-251.6 106.9,-61.16 387.2,94.94 392.2,232.39 9.3,252.08 -517.3,138.25 -596,19.21"
           id="path20"
           inkscape:connector-curvature="0" /></g><g
         transform="scale(1.2535)"
         id="g26"><path
           d="m 16028,4792.4 c 69.4,-44.75 250.3,86.64 257.9,174.48 13.8,161.14 -334.6,138.41 -390.7,66.21 -56.1,-72.2 63.4,-195.93 132.8,-240.69"
           id="path24"
           inkscape:connector-curvature="0" /></g><g
         transform="scale(1.2784)"
         id="g30"><path
           d="m 15890,5842.9 c -77.9,-104.12 -86.7,-156.61 -59,-251.5 27.8,-94.8 210.6,-142.68 340,-130.32 129.4,12.36 114.6,240.15 86.8,402.94 -27.7,162.86 -283.2,91.99 -367.8,-21.12"
           id="path28"
           inkscape:connector-curvature="0" /></g><g
         transform="scale(1.1281)"
         id="g34"><path
           d="m 15898,10188 c 67.6,-18 305.4,-32.2 352.9,28.3 49.6,63 -31,211 -89.6,269.6 -58.5,58.5 -439.4,-4.3 -439.4,-121.5 0,-97.4 108.5,-158.3 176.1,-176.4"
           id="path32"
           inkscape:connector-curvature="0" /></g><g
         transform="scale(1.1935)"
         id="g38"><path
           d="m 16218,7714.3 c 82,95.52 -33.8,226.57 -115.8,316.14 -82.1,89.57 -340,-23.55 -362.3,-157.44 -41.1,-245.67 396,-254.3 478.1,-158.7"
           id="path36"
           inkscape:connector-curvature="0" /></g><g
         transform="scale(1.149)"
         id="g42"><path
           d="m 15775,7556.1 c 0,-95.74 89.2,-160.84 155.5,-178.51 66.3,-17.67 274,-4.96 320.6,54.49 48.7,61.88 -40.6,148.39 -98,205.84 -57.5,57.52 -378.1,33.24 -378.1,-81.82"
           id="path40"
           inkscape:connector-curvature="0" /></g><g
         transform="scale(1.2556)"
         id="g46"><path
           d="m 15916,8250.2 c -91.2,-158.33 223.8,-291.09 303.7,-235.9 79.9,55.19 17.7,236.46 -18.6,298.26 -36.3,61.8 -197.1,90.63 -285.1,-62.36"
           id="path44"
           inkscape:connector-curvature="0" /></g><g
         transform="scale(1.1749)"
         id="g50"><path
           d="m 16206,8805.8 c 94.5,67.75 36.7,296.71 -6.3,372.63 -43,75.84 -218.5,62.73 -322.8,-125.03 -107.9,-194.23 234.6,-315.35 329.1,-247.6"
           id="path48"
           inkscape:connector-curvature="0" /></g><g
         transform="scale(1.2424)"
         id="g54"><path
           d="m 16213,10019 c -36.6,58.7 -204.2,77 -293.3,-68.35 -92,-150.4 219.2,-259.79 299.9,-207.34 80.7,52.44 30.2,217 -6.6,275.69"
           id="path52"
           inkscape:connector-curvature="0" /></g><g
         transform="scale(1.1094)"
         id="g58"><path
           d="m 15699,9165.8 c -44.1,-169.47 424.9,-186.23 513.2,-120.34 88.2,65.9 -54.8,158.56 -143.1,220.3 -88.3,61.84 -346.1,-7.57 -370.1,-99.96"
           id="path56"
           inkscape:connector-curvature="0" /></g><g
         transform="scale(1.2194)"
         id="g62"><path
           d="m 15936,9592.4 c -65.9,-70.84 -49,-197.11 -11.6,-256.28 37.3,-59.16 220.5,-222.84 296.3,-211.28 78.9,12.04 59.1,175.01 55.8,257.49 -3.4,82.49 -261.3,295.25 -340.5,210.07"
           id="path60"
           inkscape:connector-curvature="0" /></g><g
         transform="scale(1.191)"
         id="g66"><path
           d="m 16212,6095.9 c 87.6,92.44 -21.6,229.06 -109.1,315.71 -87.6,86.65 -369.2,-43.16 -393.1,-172.72 -43.8,-237.71 414.6,-235.44 502.2,-142.99"
           id="path64"
           inkscape:connector-curvature="0" /></g><g
         transform="scale(1.147)"
         id="g70"><path
           d="m 15893,15948 c -95.2,-200 240.6,-391.1 323.9,-321.4 83.4,69.7 36.7,356.4 -1.3,434.5 -37.8,78.1 -230.7,80.2 -322.6,-113.1"
           id="path68"
           inkscape:connector-curvature="0" /></g><g
         transform="scale(1.1369)"
         id="g74"><path
           d="m 15596,13009 c 43.2,-77.8 283.7,-47.3 422,-30 138.3,17.2 281.6,200.1 203.8,295.1 -77.8,95.1 -380.9,61.1 -484.6,18.8 -68.4,-27.9 -184.3,-206.1 -141.2,-283.9"
           id="path72"
           inkscape:connector-curvature="0" /></g><g
         transform="scale(1.2056)"
         id="g78"><path
           d="m 16211,13076 c -36.1,64.8 -201.1,81.5 -288.6,-79 -90.5,-166.1 218.9,-299.9 298.2,-242 79.3,57.9 26.5,256.1 -9.6,321"
           id="path76"
           inkscape:connector-curvature="0" /></g><g
         transform="scale(1.2418)"
         id="g82"><path
           d="m 15988,14657 c -77.5,-69.6 -118,-130.6 -105.3,-206.4 12.8,-75.8 195.6,-129.7 306.2,-136.5 110.6,-6.7 93.4,170 88.3,297.5 -5.1,127.6 -205,121.1 -289.2,45.4"
           id="path80"
           inkscape:connector-curvature="0" /></g><g
         transform="scale(1.1343)"
         id="g86"><path
           d="m 15708,14164 c -43.2,-219.1 419.9,-259.7 506.2,-174.5 86.3,85.2 -63.2,231.5 -149.5,311.4 -86.4,79.9 -333.1,-17.4 -356.7,-136.9"
           id="path84"
           inkscape:connector-curvature="0" /></g><g
         transform="scale(1.1466)"
         id="g90"><path
           d="m 15983,12251 c -56.9,-2 -171.7,-124.4 -166.5,-197.5 5.1,-73.1 154,-149.4 256.3,-175.9 102.3,-26.4 227.3,90.1 203.4,186.7 -23.8,96.5 -207,189.7 -293.2,186.7"
           id="path88"
           inkscape:connector-curvature="0" /></g><g
         transform="scale(1.2243)"
         id="g94"><path
           d="m 15848,10867 c 39,-101.5 75.9,-148.3 154.7,-165.8 78.9,-17.6 200.9,118.2 249.1,221.5 48.2,103.2 -126.5,181.7 -253.1,226.8 -126.6,45.2 -193,-172.2 -150.7,-282.5"
           id="path92"
           inkscape:connector-curvature="0" /></g><g
         transform="scale(1.1916)"
         id="g98"><path
           d="m 15866,14140 c 145.4,-163.8 433.9,134.1 401.8,244.8 -32.3,110.7 -298.4,141.3 -382.7,125.1 -84.4,-16.1 -159.5,-211.5 -19.1,-369.9"
           id="path96"
           inkscape:connector-curvature="0" /></g><g
         transform="scale(1.2225)"
         id="g102"><path
           d="m 15875,11632 c 191,-128.7 425,128 367.9,217 -57,88.9 -315.8,111.5 -404.7,95.8 -88.8,-15.6 -147.8,-188.4 36.8,-312.8"
           id="path100"
           inkscape:connector-curvature="0" /></g><g
         transform="scale(1.2862)"
         id="g106"><path
           d="m 15975,10227 c -58,-58 -69.2,-115.5 -48.5,-168.4 20.6,-52.8 180.9,-75 277.3,-68.11 96.3,6.89 69,134.91 48.3,225.71 -20.7,90.7 -214.1,73.8 -277.1,10.8"
           id="path104"
           inkscape:connector-curvature="0" /></g><g
         transform="scale(1.211)"
         id="g110"><path
           d="m 16262,15845 c -31.3,101.1 -168.8,147.6 -233.6,140.6 -64.9,-7 -288,-111.2 -310.2,-192.1 -23.1,-84.2 145.6,-115.9 215.6,-154.4 70,-38.4 365.8,84.4 328.2,205.9"
           id="path108"
           inkscape:connector-curvature="0" /></g><g
         transform="scale(1.1516)"
         id="g114"><path
           d="m 16192,10810 c 107.7,7.7 97.3,163.8 74.2,265.2 -23.1,101.3 -237,54.9 -307.4,-15.5 -64.8,-64.8 -97.5,-105.1 -74.5,-164.2 23.1,-59 200.1,-93.2 307.7,-85.5"
           id="path112"
           inkscape:connector-curvature="0" /></g><g
         transform="scale(1.2509)"
         id="g118"><path
           d="m 15890,13206 c -94.5,-162.9 244.5,-318.4 327.2,-261.6 82.7,56.8 36.7,274.9 -0.8,338.5 -37.6,63.6 -235.2,80.4 -326.4,-76.9"
           id="path116"
           inkscape:connector-curvature="0" /></g><g
         transform="scale(1.2829)"
         id="g122"><path
           d="m 15801,11694 c -12.4,-69.4 95.6,-134.4 165.2,-155.8 69.6,-21.3 334,170.5 285.7,261.5 -40.2,75.7 -149.5,84.9 -209.3,71.1 -60,-13.9 -229.6,-110.2 -241.6,-176.8"
           id="path120"
           inkscape:connector-curvature="0" /></g><g
         transform="scale(1.2109)"
         id="g126"><path
           d="m 14288,16042 c -164.9,-204.1 337,-302.6 481.6,-231.4 144.5,71.2 107.5,330 41.8,409.7 -65.6,79.7 -364,19.1 -523.4,-178.3"
           id="path124"
           inkscape:connector-curvature="0" /></g><g
         transform="scale(1.1416)"
         id="g130"><path
           d="m 16092,3537.8 c 208,-25.76 200.7,347.77 106.8,407.51 -93.9,59.74 -252.2,-91.72 -301.4,-157.59 -49.2,-65.88 -6.3,-225.05 194.6,-249.92"
           id="path128"
           inkscape:connector-curvature="0" /></g><g
         transform="scale(1.1136)"
         id="g134"><path
           d="m 15758,770.69 c 37.8,-70.853 215,-108.57 335.8,-92.855 120.7,15.716 206.2,196.49 138.2,283.06 -67.9,86.571 -298.5,86.211 -389,47.771 -59.8,-25.408 -122.7,-167.12 -85,-237.97"
           id="path132"
           inkscape:connector-curvature="0" /></g><g
         transform="scale(1.2188)"
         id="g138"><path
           d="m 15824,1405.4 c -73,-46.27 -53.7,-245.82 129.9,-353.05 189.9,-111.02 346.2,271.58 279.2,370.2 -67.2,98.62 -336.3,29.13 -409.1,-17.15"
           id="path136"
           inkscape:connector-curvature="0" /></g><g
         transform="scale(1.252)"
         id="g142"><path
           d="m 16187,3416.3 c -77.8,75.63 -122,85.14 -202.7,70.84 -80.6,-14.37 -175.4,-160.38 -177.8,-270.68 -2.6,-110.38 220.4,-107.34 356.9,-99.51 136.5,7.9 108.3,217.16 23.6,299.35"
           id="path140"
           inkscape:connector-curvature="0" /></g><g
         transform="scale(1.1362)"
         id="g146"><path
           d="m 15706,1828.3 c -43.1,-267.21 421.2,-302.59 507.3,-198.64 86.2,103.94 -66,237.19 -152.1,334.54 -86.3,97.43 -331.8,9.77 -355.2,-135.9"
           id="path144"
           inkscape:connector-curvature="0" /></g><g
         transform="scale(1.18)"
         id="g150"><path
           d="m 16182,2550 c 118,66.61 51.2,338.83 -2.3,413.49 -53.7,74.58 -323.9,75.6 -454,-108.98 C 15591,2663.48 16064.1,2483.3 16182,2550"
           id="path148"
           inkscape:connector-curvature="0" /></g><g
         transform="scale(1.1706)"
         id="g154"><path
           d="m 15878,329.5 c -104.2,-146.51 238.9,-240.91 330.2,-189.82 91.3,51.086 38.1,206.99 -3.4,264.23 -41.6,57.15 -226.1,67.147 -326.8,-74.405"
           id="path152"
           inkscape:connector-curvature="0" /></g><g
         transform="scale(1.2086)"
         id="g158"><path
           d="m 16262,4303.3 c -31.3,85.47 -136.5,136.52 -201.4,130.57 -65.1,-5.96 -267.9,-100.54 -290.1,-168.8 -23.2,-71.16 110,-123.86 180.2,-156.38 70.1,-32.44 349,92.01 311.3,194.61"
           id="path156"
           inkscape:connector-curvature="0" /></g><g
         transform="scale(1.2361)"
         id="g162"><path
           d="m 15921,2240.7 c -93.8,-129.12 214.7,-212.36 296.9,-167.38 82.3,44.98 26.2,176.11 -11.1,226.51 -37.4,50.4 -195,65.61 -285.8,-59.13"
           id="path160"
           inkscape:connector-curvature="0" /></g><g
         transform="scale(1.275)"
         id="g166"><path
           d="m 15838,644.16 c -12.5,-69.805 69.1,-106.98 139.2,-128.39 70,-21.492 322.8,145.96 274.2,237.49 -40.4,76.156 -142.5,82.354 -202.7,68.469 -60.2,-13.959 -198.6,-110.59 -210.7,-177.57"
           id="path164"
           inkscape:connector-curvature="0" /></g><g
         transform="scale(1.112)"
         id="g170"><path
           d="m 15853,4680.1 c 190.8,-194.6 446.6,139.03 400.9,268.26 -45.6,129.22 -318.2,196.67 -423.9,180.84 -105.6,-15.83 -161.3,-261.15 23,-449.1"
           id="path168"
           inkscape:connector-curvature="0" /></g><g
         transform="scale(1.2883)"
         id="g174"><path
           d="m 11190,16253 c -38.1,-189 333,-162.8 409,-89.3 76,73.5 -14.2,151.1 -90.2,220 -76,68.8 -298.1,-27.7 -318.8,-130.7"
           id="path172"
           inkscape:connector-curvature="0" /></g><g
         transform="scale(1.2687)"
         id="g178"><path
           d="m 10643,16033 c 21.4,84 -62.2,187.4 -116.4,217.7 -54.2,30.4 -251.4,49.1 -305.7,7.4 -56.5,-43.5 -11.4,-150.7 26.2,-214 37.6,-63.3 370.2,-112.1 395.9,-11.1"
           id="path176"
           inkscape:connector-curvature="0" /></g><g
         transform="scale(1.2769)"
         id="g182"><path
           d="m 13485,16294 c -171.3,6 -72.5,-327.2 16.2,-373.1 88.5,-45.8 202.2,84 225.9,147.1 23.8,63 -76.4,220.2 -242.1,226"
           id="path180"
           inkscape:connector-curvature="0" /></g><g
         transform="scale(1.2577)"
         id="g186"><path
           d="m 12432,16168 c 0,-98.4 121.7,-203.3 182.3,-221.5 60.6,-18.2 276.1,18.2 318.7,79.3 44.4,63.6 -63.5,156.4 -115.9,215.4 -52.6,59.1 -385.1,45 -385.1,-73.2"
           id="path184"
           inkscape:connector-curvature="0" /></g><g
         transform="scale(1.2883)"
         id="g190"><path
           d="m 9546,16174 c 74.2,36.1 39.28,176.4 5.59,216.9 -33.77,40.5 -202.9,36.3 -284.79,-63.9 -84.68,-103.6 205,-189.2 279.2,-153"
           id="path188"
           inkscape:connector-curvature="0" /></g><g
         transform="scale(1.2402)"
         id="g194"><path
           d="m 9125.5,16147 c -147.16,-158 378.57,-321.3 507.5,-266.2 128.93,55 22.5,253.3 -36.13,315 -58.62,61.6 -329.14,103.8 -471.37,-48.8"
           id="path192"
           inkscape:connector-curvature="0" /></g><g
         transform="scale(1.2795)"
         id="g198"><path
           d="m 522.36,16126 c 56.795,-46 100.51,-27.7 130.38,-12.2 29.862,15.4 99.736,75.9 78.106,121.3 -22.541,47.2 -96.338,51 -147.24,57.9 -50.9,6.9 -129.53,-111.7 -61.247,-167"
           id="path196"
           inkscape:connector-curvature="0" /></g><g
         transform="scale(1.2883)"
         id="g202"><path
           d="m 1474.3,16277 c -84.73,-103.7 182.05,-161.5 256.27,-125.3 74.21,36.1 29.06,146.9 -4.66,187.3 -33.74,40.5 -169.73,38.2 -251.61,-62"
           id="path200"
           inkscape:connector-curvature="0" /></g><g
         transform="scale(1.2366)"
         id="g206"><path
           d="m 555.06,16101 c -2.944,-96.9 181.09,-163.9 304.04,-201.8 122.94,-37.9 336.6,90.1 319.54,218.7 -17.05,128.5 -294.25,182.2 -401.02,180.7 -70.471,-1 -219.62,-100.7 -222.56,-197.6"
           id="path204"
           inkscape:connector-curvature="0" /></g><g
         transform="scale(1.2666)"
         id="g210"><path
           d="m 4987.6,16246 c -101.64,-54.4 -14.02,-155.9 35.01,-230 49.03,-74.1 267.09,-33 325.47,56.7 107.05,164.5 -258.83,227.6 -360.48,173.3"
           id="path208"
           inkscape:connector-curvature="0" /></g><g
         transform="scale(1.2842)"
         id="g214"><path
           d="m 2480.2,16188 c -58.11,-73.6 -79.79,-142.8 -59.07,-209.9 20.71,-67 186.35,-87.7 282.89,-79 96.54,8.8 85.45,171.1 64.73,286.2 -20.71,115.1 -225.4,82.7 -288.55,2.7"
           id="path212"
           inkscape:connector-curvature="0" /></g><g
         transform="scale(1.274)"
         id="g218"><path
           d="m 6061.7,16297 c -29.69,-1.7 -90.78,-65.9 -88.06,-128.8 2.73,-62.9 78.77,-140.8 132.21,-163.5 53.44,-22.8 136.78,96.3 124.33,179.4 -12.46,83 -123.48,115.5 -168.48,112.9"
           id="path216"
           inkscape:connector-curvature="0" /></g><g
         transform="scale(1.2478)"
         id="g222"><path
           d="m 15828,-27.326 c 28.9,-95.286 262.5,-142.01 336.6,-74.77 135.9,123.33 -193.6,379.7 -300,365.91 -106.2,-13.701 -65.4,-195.94 -36.6,-291.14"
           id="path220"
           inkscape:connector-curvature="0" /></g><g
         id="g232"><path
           d="m 14416,-60.801 c -49,-243.5 429.1,-209.8 527,-115.1 97.9,94.699 -18.3,194.7 -116.2,283.4 -97.9,88.801 -384.1,-35.602 -410.8,-168.3"
           id="path224"
           inkscape:connector-curvature="0" /><path
           d="m 12298,-162.5 c 95.6,46.602 50.6,227.3 7.2,279.5 -43.5,52.102 -261.4,46.801 -366.9,-82.301 -109.1,-133.6 264.1,-243.8 359.7,-197.2"
           id="path226"
           inkscape:connector-curvature="0" /><path
           d="m 218.93,-123 c 0,-110 103.35,-143.7 179.57,-164.1 76.195,-20.3 301.41,-44.8 355.06,23.496 55.875,71.102 -51.785,161 -117.83,227 -66.043,66.098 -416.79,45.699 -416.79,-86.402"
           id="path228"
           inkscape:connector-curvature="0" /><path
           d="m 1899.4,-29.398 c -109.17,-133.6 234.53,-208 330.15,-161.4 95.61,46.504 37.45,189.2 -6,241.4 -43.47,52.097 -218.67,49.098 -324.15,-80"
           id="path230"
           inkscape:connector-curvature="0" /></g><g
         transform="scale(1.2671)"
         id="g236"><path
           d="m 7007,15875 c 52.45,-51.7 197.38,4.4 278.64,59.7 81.25,55.2 -25.68,173.6 -102.53,269.6 -76.84,96 -220.41,-16 -235.85,-120.7 -14.2,-96.3 7.29,-156.8 59.74,-208.6"
           id="path234"
           inkscape:connector-curvature="0" /></g><g
         transform="scale(1.2806)"
         id="g240"><path
           d="m 3961,16300 c -142.61,-0.5 -261.23,-233.1 -287.3,-329.2 -17.21,-63.5 39.38,-196.6 142.85,-210.4 103.46,-13.8 286.97,104.9 359.65,211.1 72.69,106.1 -72.6,329 -215.2,328.5"
           id="path238"
           inkscape:connector-curvature="0" /></g><g
         transform="scale(1.2843)"
         id="g244"><path
           d="m 7993.2,16153 c -66.58,-109.3 -58.32,-213 -34.57,-312.6 23.74,-99.7 189.13,-122.4 299.78,-109.4 110.64,13 89,227.3 65.25,398.3 -23.75,171 -258.05,142.5 -330.46,23.7"
           id="path242"
           inkscape:connector-curvature="0" /></g><g
         id="g252"><path
           d="m 14236,6807 c -49,-188 506.3,-203.7 604.2,-130.6 97.9,73.1 -38.5,176.9 -136.4,245.4 -97.9,68.6 -441.1,-12.3 -467.8,-114.8"
           id="path246"
           inkscape:connector-curvature="0" /><path
           d="m 12084,8045.7 c 49.2,-88.4 320.6,-139.4 477.9,-119.8 157.2,19.7 288.1,288.5 199.7,396.6 -88.5,108.1 -409,82.8 -526.9,34.8 -77.8,-31.8 -199.8,-223.1 -150.7,-311.6"
           id="path248"
           inkscape:connector-curvature="0" /><path
           d="m 14532,8210.5 c -54.6,-128.3 7.6,-301.2 72.1,-370 64.4,-68.9 317.2,-173.6 403.6,-125.7 89.9,49.8 44.7,226.2 12.9,342.4 -31.7,116.2 -423,307.4 -488.6,153.3"
           id="path250"
           inkscape:connector-curvature="0" /></g><g
         transform="scale(1.0073)"
         id="g256"><path
           d="m 15892,7514.8 c -93.7,-66.22 -61.8,-343.09 49.9,-388.16 204.9,-82.8 358.2,376.74 291.5,474.73 -66.7,97.88 -247.7,-20.35 -341.4,-86.57"
           id="path254"
           inkscape:connector-curvature="0" /></g><path
         d="m 13477,6347.2 c 27.2,106.6 -63.1,213.4 -131.9,251.9 -68.8,38.5 -333.9,112.4 -402.7,59.5 -71.7,-55.1 53.5,-197.8 101.2,-278.1 47.7,-80.3 400.8,-161.3 433.4,-33.3"
         id="path258"
         inkscape:connector-curvature="0" /><g
         transform="scale(1.0786)"
         id="g262"><path
           d="m 15874,6201 c -101.2,-123.87 248.4,-232.44 337.1,-189.23 88.6,43.11 31.4,206.2 -8.8,254.59 -40.4,48.31 -230.4,54.34 -328.3,-65.36"
           id="path260"
           inkscape:connector-curvature="0" /></g><path
         d="m 13902,11851 c -109.2,-133.6 251.6,-222.3 347.2,-175.7 95.6,46.6 56.6,205.9 13.1,258 -43.4,52.2 -254.9,46.8 -360.3,-82.3"
         id="path264"
         inkscape:connector-curvature="0" /><g
         transform="scale(1.011)"
         id="g268"><path
           d="m 15649,6370 c 0,-108.7 131.7,-214.34 207.1,-234.52 75.4,-20.08 335.2,13.95 388.2,81.5 55.3,70.33 -75.4,166.86 -140.7,232.14 -65.3,65.38 -454.6,51.63 -454.6,-79.12"
           id="path266"
           inkscape:connector-curvature="0" /></g><g
         transform="scale(1.0124)"
         id="g272"><path
           d="m 15697,10220 c -136.4,-223.28 364.6,-467.34 484,-389.41 119.4,77.83 14.2,376.21 -40,463.41 -54.3,87.1 -312.2,141.9 -444,-74"
           id="path270"
           inkscape:connector-curvature="0" /></g><g
         transform="scale(1.0705)"
         id="g276"><path
           d="m 16072,10480 c -91.4,64 -342.4,4.4 -367.5,-91.3 -45.7,-175.6 412.2,-161.9 503.6,-93.6 91.5,68.3 -44.6,120.8 -136.1,184.9"
           id="path274"
           inkscape:connector-curvature="0" /></g><g
         transform="scale(1.0589)"
         id="g280"><path
           d="m 16026,11327 c 148.5,18.6 273.7,285 190.2,387.1 -83.6,102.1 -378.9,50.7 -490.2,5.3 -73.6,-29.9 -169.3,-169.1 -123,-252.6 46.5,-83.5 274.5,-158.3 423,-139.8"
           id="path278"
           inkscape:connector-curvature="0" /></g><g
         transform="scale(1.0598)"
         id="g284"><path
           d="m 15926,8848.1 c -70.5,-70.38 -76.6,-107.37 -51.5,-171.53 25.1,-64.16 191.8,-119.07 308.8,-110.77 117,8.4 109.5,186.72 84.4,296.83 -25.1,110.11 -265.2,61.99 -341.7,-14.53"
           id="path282"
           inkscape:connector-curvature="0" /></g><path
         d="m 14451,10936 c -109.2,-133.6 246.5,-231.1 342.1,-184.5 95.7,46.6 52.9,233 9.5,285.2 -43.5,52.1 -246.1,28.4 -351.6,-100.7"
         id="path286"
         inkscape:connector-curvature="0" /><path
         d="m 14794,9553.3 c 153.5,-117.9 289.3,242.4 239,341 -50.4,98.6 -233.4,52 -298.2,12 -64.7,-39.9 -89.2,-239.1 59.2,-353"
         id="path288"
         inkscape:connector-curvature="0" /><g
         transform="scale(1.1045)"
         id="g292"><path
           d="m 16188,6708.6 c 112.2,7.97 81.1,182.8 57.1,288.46 -24.1,105.67 -249.6,83.21 -323,9.78 -67.5,-67.63 -73,-128.38 -48.9,-189.95 24,-61.57 202.5,-116.35 314.8,-108.29"
           id="path290"
           inkscape:connector-curvature="0" /></g><g
         id="g326"><path
           d="m 13386,7611.1 c -74.6,-74.6 -103.8,-148.5 -77.2,-216.5 26.6,-68 244.1,-103.6 368.1,-94.7 123.9,8.9 138.8,196.3 112.2,313 -26.6,116.7 -322,79.3 -403.1,-1.8"
           id="path294"
           inkscape:connector-curvature="0" /><path
           d="m 12017,6857 c 51.6,-93 214.9,-69.6 264.7,-23.4 49.7,46.2 5.7,260.8 -128.8,359.2 -139.2,101.9 -187.5,-242.8 -135.9,-335.8"
           id="path296"
           inkscape:connector-curvature="0" /><path
           d="m 13748,8899.7 c 26.6,-68 215,-79.6 339,-70.7 124,8.9 127.4,158.7 100.8,275.5 -26.6,116.7 -309.8,84.2 -391,3.1 -74.6,-74.7 -75.4,-139.9 -48.8,-207.9"
           id="path298"
           inkscape:connector-curvature="0" /><path
           d="m 13503,10444 c -97.9,68.6 -403.5,4.1 -430.2,-98.4 -49,-188 507.9,-229.7 605.9,-156.6 97.9,73.1 -77.8,186.5 -175.7,255"
           id="path300"
           inkscape:connector-curvature="0" /><path
           d="m 11096,6233.4 c -182.5,-195.9 477.1,-418.2 637,-349.9 159.9,68.3 43.4,358.4 -29.3,434.9 -72.7,76.5 -431.3,104.3 -607.7,-85"
           id="path302"
           inkscape:connector-curvature="0" /><path
           d="m 12856,9188.7 c 124,8.9 106.7,181.6 80.1,298.3 -26.6,116.7 -268.7,66.1 -349.8,-15 -74.7,-74.6 -109.1,-121.9 -82.5,-189.9 26.6,-68 228.2,-102.2 352.2,-93.4"
           id="path304"
           inkscape:connector-curvature="0" /><path
           d="m 15696,11475 c 117.5,-21.9 343.6,197.1 325.5,301.4 -33.2,191.4 -519.9,2.1 -578.8,-105 -58.9,-107 135.8,-174.5 253.3,-196.4"
           id="path306"
           inkscape:connector-curvature="0" /><path
           d="m 14847,12516 c -109.2,-133.6 261.9,-226.9 357.5,-180.3 95.6,46.6 50.8,192.2 7.3,244.3 -43.4,52.2 -259.3,65 -364.8,-64"
           id="path308"
           inkscape:connector-curvature="0" /><path
           d="m 15988,8763.4 c 98,107.4 -34.2,226.2 -132.1,326.9 -97.9,100.7 -398.6,-19 -425.3,-169.6 -49,-276.1 459.5,-264.7 557.4,-157.3"
           id="path310"
           inkscape:connector-curvature="0" /><path
           d="M 113.85,8183.3 C 4.7,8049.8 365.75,7954.4 461.37,8001 c 95.606,46.6 37.16,204.7 -6.304,256.8 -43.465,52.2 -235.72,54.6 -341.21,-74.5"
           id="path312"
           inkscape:connector-curvature="0" /><path
           d="m 387.52,6572.7 c 122.7,-50.4 278.87,46.9 328.18,102.4 49.309,55.5 127.88,285.4 70.434,362.3 -59.852,80.1 -223.8,12.8 -320.59,-13.1 -96.789,-25.9 -225.55,-391 -78.027,-451.6"
           id="path314"
           inkscape:connector-curvature="0" /><path
           d="m 340.34,10367 c -17.68,-152.5 65.726,-327.4 137.66,-372.9 71.937,-45.4 344.33,-63.5 408.25,19.1 66.594,86 -21.484,294.7 -76.051,401.3 -54.562,106.6 -448.6,135.9 -469.86,-47.5"
           id="path316"
           inkscape:connector-curvature="0" /><path
           d="m 1713.4,8070.5 c -43.45,52.2 -270.65,50.2 -376.12,-78.8 -109.17,-133.6 257.14,-221.3 352.75,-174.7 95.62,46.6 66.83,201.4 23.37,253.5"
           id="path318"
           inkscape:connector-curvature="0" /><path
           d="m 641.95,9020.9 c 0,-109.9 91.688,-190 167.9,-210.3 76.195,-20.4 343.03,-21.5 396.67,46.8 55.87,71.1 -42.99,222 -109.03,288 -66.05,66.1 -455.54,7.7 -455.54,-124.5"
           id="path320"
           inkscape:connector-curvature="0" /><path
           d="m 2068.2,6616.8 c 206.31,42.1 43.8,367.6 -67.21,395.2 -111,27.6 -205.46,-137.8 -227.57,-217.4 -22.11,-79.7 95.44,-218.4 294.78,-177.8"
           id="path322"
           inkscape:connector-curvature="0" /><path
           d="m 798.2,5828.2 c 49.141,-88.4 310.23,-78.1 467.47,-58.5 157.22,19.7 286.4,218 197.94,326.1 -88.44,108.1 -400.97,94.5 -518.89,46.5 -77.828,-31.7 -195.66,-225.6 -146.52,-314.1"
           id="path324"
           inkscape:connector-curvature="0" /></g><g
         transform="scale(1.0715)"
         id="g330"><path
           d="m 16025,12639 c -108.5,25.8 -300.6,-147.3 -288.5,-245.4 22,-179.9 443.7,-19.1 503.6,77.9 59.8,97.1 -106.6,141.6 -215.1,167.5"
           id="path328"
           inkscape:connector-curvature="0" /></g><path
         d="m 13952,13116 c 26.6,-68 187.1,-63.8 311.1,-54.9 124,8.9 144.4,136.2 117.8,252.9 -26.6,116.7 -307.1,62.9 -388.2,-18.2 -74.6,-74.7 -67.3,-111.8 -40.7,-179.8"
         id="path332"
         inkscape:connector-curvature="0" /><g
         transform="scale(1.2255)"
         id="g336"><path
           d="m 11340,16126 c -2.6,-82.5 122,-232.4 240.5,-284.3 118.4,-52 338.4,85.9 321.6,198.7 -16.8,112.7 -265.9,234.1 -368.7,249.7 -67.7,10.3 -190.9,-81.6 -193.4,-164.1"
           id="path334"
           inkscape:connector-curvature="0" /></g><g
         transform="scale(1.1126)"
         id="g340"><path
           d="m 11177,15896 c 68.5,-21 276.9,-3.1 325.1,67.5 50.2,73.5 -11.2,200.3 -70.5,268.6 -59.3,68.3 -449.1,10.3 -449.1,-126.3 0,-113.7 126,-188.7 194.5,-209.8"
           id="path338"
           inkscape:connector-curvature="0" /></g><g
         transform="scale(1.1633)"
         id="g344"><path
           d="m 9984,16163 c 0,-94.5 124.77,-205.8 190.27,-223.3 65.5,-17.4 268.2,53.8 314.3,112.5 48.1,61.1 -25.4,134.6 -82.2,191.3 -56.8,56.8 -422.37,33.1 -422.37,-80.5"
           id="path342"
           inkscape:connector-curvature="0" /></g><g
         transform="scale(1.2036)"
         id="g348"><path
           d="m 10453,16193 c -90.7,-111 230.9,-217.9 310.4,-179.2 79.4,38.7 18.4,183.1 -17.7,226.4 -36.2,43.3 -205.1,60 -292.7,-47.2"
           id="path346"
           inkscape:connector-curvature="0" /></g><g
         transform="scale(1.264)"
         id="g352"><path
           d="m 15933,15823 c 5.1,-136.4 302.2,-10.3 334.5,67.4 32.4,77.6 -102.1,142.4 -155.2,150.6 -53.1,8.2 -184.2,-86.2 -179.3,-218"
           id="path350"
           inkscape:connector-curvature="0" /></g><g
         transform="scale(1.0319)"
         id="g356"><path
           d="m 15701,14056 c 0,-106.5 98.2,-197.6 172,-217.3 73.9,-19.7 320.7,4.7 372.7,70.8 54.1,69 -56.5,173.1 -120.4,237.1 -64.1,64 -424.3,37.5 -424.3,-90.6"
           id="path354"
           inkscape:connector-curvature="0" /></g><g
         transform="scale(1.13)"
         id="g360"><path
           d="m 15166,15858 c 78.8,-1.5 153.8,142.2 179.3,249.4 25.4,107.2 -140.4,155.2 -270.3,173.7 -129.9,18.6 -145.7,-210 -83.3,-306.5 57.4,-88.8 95.5,-115.2 174.3,-116.6"
           id="path358"
           inkscape:connector-curvature="0" /></g><g
         transform="scale(1.087)"
         id="g364"><path
           d="m 15618,15755 c -29.2,-120.5 70.7,-256.6 146.6,-299.6 75.8,-43.1 382.1,-120.4 457.4,-60.2 78.4,62.7 -36.9,251.5 -89.8,341.9 -52.8,90.3 -479.3,162.8 -514.2,17.9"
           id="path362"
           inkscape:connector-curvature="0" /></g><g
         transform="scale(1.0242)"
         id="g368"><path
           d="m 13538,16111 c -160.6,-195.4 389.5,-356.3 530.2,-288.1 140.6,68.1 58.2,316.8 -5.8,393.1 -64,76.3 -369.2,83.8 -524.4,-105"
           id="path366"
           inkscape:connector-curvature="0" /></g><g
         transform="scale(1.0432)"
         id="g372"><path
           d="m 14917,16230 c -78.8,-16.7 -224.8,-99.5 -193.6,-191.3 31.4,-91.8 261.2,-206.9 413,-215.1 151.6,-8.2 330,242.8 264.9,359.9 -64.9,117 -364.9,71.8 -484.3,46.5"
           id="path370"
           inkscape:connector-curvature="0" /></g><path
         d="m 15267,13481 c 31.3,-136.1 346.3,-264.3 473.3,-273.6 83.8,-6.1 239.3,122.1 234.5,223.1 -4.8,101.1 -195.2,242.1 -344.8,294.2 -149.6,52.2 -394.3,-107.6 -363,-243.7"
         id="path374"
         inkscape:connector-curvature="0" /><g
         transform="scale(1.1444)"
         id="g378"><path
           d="m 11964,16075 c 116.1,96.1 -176.7,224.6 -266.5,200.8 -89.8,-23.9 -86.7,-158.2 -58.2,-210.2 28.5,-52.1 212.6,-83.5 324.7,9.4"
           id="path376"
           inkscape:connector-curvature="0" /></g><g
         transform="scale(1.1639)"
         id="g382"><path
           d="m 12378,16143 c 0,-113.5 89.3,-182.7 154.8,-203.7 65.5,-20.9 285.2,-29.4 331.2,41.1 48,73.4 -63.7,182.9 -120.4,251.1 -56.7,68.2 -365.6,47.9 -365.6,-88.5"
           id="path380"
           inkscape:connector-curvature="0" /></g><path
         d="m 14692,14637 c 0,-109.9 91.7,-202.1 167.9,-222.4 76.2,-20.3 352.1,-14 405.8,54.3 55.8,71.1 -64.1,211.4 -130.1,277.4 -66.1,66.1 -443.6,22.9 -443.6,-109.3"
         id="path384"
         inkscape:connector-curvature="0" /><g
         transform="scale(1.0357)"
         id="g388"><path
           d="m 11877,15870 c 178.1,-182 498.1,174.6 470,302.5 -28.1,127.9 -266.2,123.5 -391.6,106.1 -125.2,-17.4 -175.5,-309.3 -78.4,-408.6"
           id="path386"
           inkscape:connector-curvature="0" /></g><g
         transform="scale(1.1188)"
         id="g392"><path
           d="m 13597,16072 c 26.5,-115.1 158.1,-208.9 229.3,-214.8 71.3,-6 294.1,87.9 324.3,170.1 31.5,85.7 -110.5,160.7 -183.9,216.6 -73.5,55.8 -401.6,-33.6 -369.7,-171.9"
           id="path390"
           inkscape:connector-curvature="0" /></g><path
         d="m 13754,15259 c 67.9,173.3 -31.7,279.5 -90.1,339.3 -58.4,59.8 -272.6,236.2 -364.7,148.2 -95.9,-91.7 -57.9,-351.4 -37.2,-479.6 20.7,-128.2 410.4,-216.2 492,-7.9"
         id="path394"
         inkscape:connector-curvature="0" /><path
         d="m 13544,14370 c -69,-112.3 158.6,-406.3 293.3,-408.6 247.1,-4.1 209.6,545.2 99.1,624.4 -110.4,79.1 -323.3,-103.4 -392.4,-215.8"
         id="path396"
         inkscape:connector-curvature="0" /><g
         transform="scale(1.0887)"
         id="g400"><path
           d="m 12502,16145 c 0,-101 110,-168.2 180,-186.8 70,-18.7 282.7,-2 332,60.7 51.4,65.4 -29.2,159.4 -89.9,220 -60.6,60.7 -422.1,27.5 -422.1,-93.9"
           id="path398"
           inkscape:connector-curvature="0" /></g><path
         d="m 15332,15844 c -120.4,113.1 -454.5,-38.8 -487.3,-208 -60.2,-310.3 549.7,-324.9 670.1,-204.3 120.3,120.8 -62.5,299.2 -182.8,412.3"
         id="path402"
         inkscape:connector-curvature="0" /><g
         transform="scale(1.1951)"
         id="g406"><path
           d="m 13537,16239 c -93.5,61 -287.3,-184.8 -287.9,-336.9 -1.2,-279.1 400.3,-129.9 464.7,6.4 64.4,136.4 -83.3,269.6 -176.8,330.5"
           id="path404"
           inkscape:connector-curvature="0" /></g><g
         transform="scale(1.0415)"
         id="g410"><path
           d="m 15699,15186 c -147.6,-249.1 342,-435.7 471.4,-348.8 129.3,86.9 58.3,408.3 -0.4,505.6 -58.8,97.2 -328.3,83.9 -471,-156.8"
           id="path408"
           inkscape:connector-curvature="0" /></g><g
         id="g422"><path
           d="m 8257.7,13525 c -157.96,-14.8 -330.59,-313.1 -247.05,-443.8 83.54,-130.7 418.07,-46.5 538.01,3.4 79.17,32.9 199.25,188.1 154.11,293.9 -45.14,105.7 -287.12,161.2 -445.07,146.5"
           id="path412"
           inkscape:connector-curvature="0" /><path
           d="m 13144,11434 c -88.5,108.1 -406.3,14 -524.3,-34.1 -77.8,-31.7 -178.9,-146.2 -129.8,-234.6 49.1,-88.5 272.6,-119.5 429.9,-99.8 157.2,19.6 312.6,260.4 224.2,368.5"
           id="path414"
           inkscape:connector-curvature="0" /><path
           d="m 6679.7,6581 c -116.25,27.7 -379.64,-201.9 -366.76,-307 23.62,-192.8 535.46,-21.7 599.62,82.3 64.15,104 -116.61,197 -232.86,224.7"
           id="path416"
           inkscape:connector-curvature="0" /><path
           d="m 9961.8,12311 c 0,-110 103.14,-194.9 179.34,-215.2 76.2,-20.4 331.8,-6.8 385.4,61.5 55.9,71.1 -48.3,194.3 -114.3,260.4 -66.1,66 -450.44,25.5 -450.44,-106.7"
           id="path418"
           inkscape:connector-curvature="0" /><path
           d="m 11850,10311 c -139.6,-177.8 310.9,-305.1 433.1,-243.1 122.3,62 51,298.8 -4.6,368.2 -55.6,69.4 -293.6,46.7 -428.5,-125.1"
           id="path420"
           inkscape:connector-curvature="0" /></g><g
         transform="scale(1.1979)"
         id="g426"><path
           d="m 8966.7,15966 c 150.93,37.9 -26.8,298.8 -116.2,316.5 -89.41,17.7 -155.44,-116.4 -159.37,-177.5 -3.92,-61 129.73,-175.7 275.57,-139"
           id="path424"
           inkscape:connector-curvature="0" /></g><path
         d="m 10902,15328 c -236.8,155.7 -430.3,-273.5 -353.6,-399.2 76.7,-125.6 373.3,-101.2 474.5,-55.3 101.3,46 107.9,303.9 -120.9,454.5"
         id="path428"
         inkscape:connector-curvature="0" /><g
         transform="scale(1.234)"
         id="g432"><path
           d="m 3175.9,16172 c -92.13,128 -294.18,-115 -278.12,-203.4 16.08,-88.4 193.88,-101.8 253.87,-86.3 59.99,15.5 113.29,166 24.25,289.7"
           id="path430"
           inkscape:connector-curvature="0" /></g><g
         id="g442"><path
           d="m 3829.8,13761 c -48.96,-212.5 420.88,-215 518.79,-132.3 97.9,82.6 -44.95,214.9 -142.86,292.4 -97.91,77.5 -349.24,-44.2 -375.93,-160.1"
           id="path434"
           inkscape:connector-curvature="0" /><path
           d="m 10669,13886 c 0,-109.9 137,-205.2 213.2,-225.5 76.2,-20.3 303.8,27.7 357.5,95.9 55.8,71.2 -17.8,170.1 -83.8,236.2 -66,66 -486.9,25.6 -486.9,-106.6"
           id="path436"
           inkscape:connector-curvature="0" /><path
           d="m 13086,12706 c -97.9,102.6 -403.6,-0.2 -430.3,-153.6 -48.9,-281.3 491.4,-314.5 589.3,-205.1 97.9,109.4 -61.1,256.2 -159,358.7"
           id="path438"
           inkscape:connector-curvature="0" /><path
           d="m 11179,11522 c -41.6,53.6 -248.3,33.5 -358.2,-91.8 -113.7,-129.8 237.8,-238.8 335,-195.6 97.2,43.3 64.8,233.8 23.2,287.4"
           id="path440"
           inkscape:connector-curvature="0" /></g><g
         transform="scale(1.28)"
         id="g446"><path
           d="m 16014,7437.6 c -75.7,21.48 -159.8,-119.22 -87.5,-293.12 74.7,-179.92 363.6,-64.3 368.7,31.09 5.1,95.31 -205.5,240.54 -281.2,262.03"
           id="path444"
           inkscape:connector-curvature="0" /></g><g
         transform="scale(1.0769)"
         id="g450"><path
           d="m 10151,16179 c -16.5,-100.8 88.8,-203.8 155.6,-233.8 66.8,-30 324.8,-71.1 384.2,-16.6 61.8,56.9 -45.2,198.5 -96,268.9 -50.7,70.4 -424.1,102.6 -443.8,-18.5"
           id="path448"
           inkscape:connector-curvature="0" /></g><g
         id="g486"><path
           d="m 12428,15184 c -46.8,97.1 -294.3,68.2 -407.9,-172.1 -117.6,-248.6 265,-385.1 368,-298.4 103,86.7 86.7,373.4 39.9,470.5"
           id="path452"
           inkscape:connector-curvature="0" /><path
           d="m 3440.1,6111.2 c 26.6,-68 202.29,-104.4 326.27,-95.5 123.98,8.8 119.13,176.4 92.53,293.2 -26.6,116.7 -300.13,82.9 -381.24,1.8 -74.62,-74.6 -64.16,-131.5 -37.56,-199.5"
           id="path454"
           inkscape:connector-curvature="0" /><path
           d="m 8830.3,15565 c -98.39,-111.3 114.31,-234.3 247.87,-291.5 133.55,-57.3 424.67,137.6 430.98,266.2 11.59,235.9 -580.49,136.6 -678.85,25.3"
           id="path456"
           inkscape:connector-curvature="0" /><path
           d="m 9705.6,13224 c 106.8,-53.6 368.95,58.1 380.55,163.4 21.3,193.1 -506.87,152.3 -593.16,65.8 -86.3,-86.5 105.81,-175.5 212.61,-229.2"
           id="path458"
           inkscape:connector-curvature="0" /><path
           d="m 11378,15960 c 0,-100.8 102.3,-174.2 166.2,-192.9 63.8,-18.6 244.1,17.6 289,80.2 46.8,65.1 -2.9,155.1 -58.2,215.7 -55.4,60.5 -397,18.1 -397,-103"
           id="path460"
           inkscape:connector-curvature="0" /><path
           d="m 12363,13976 c -109.2,-166.9 265.7,-284.1 361.4,-225.9 95.6,58.1 47.1,228.7 3.7,293.8 -43.5,65.2 -259.6,93.4 -365.1,-67.9"
           id="path462"
           inkscape:connector-curvature="0" /><path
           d="m 7726.2,11373 c -109.15,-133.6 260.41,-226.2 356.03,-179.6 95.6,46.6 55.15,196.9 11.69,249.1 -43.47,52.1 -262.24,59.6 -367.72,-69.5"
           id="path464"
           inkscape:connector-curvature="0" /><path
           d="m 7258.6,7805.5 c 49.13,-88.4 300.68,-106.1 457.92,-86.4 157.25,19.6 301.03,253.2 212.59,361.3 -88.45,108.1 -404.06,45.6 -522,-2.4 -77.82,-31.7 -197.65,-184 -148.51,-272.5"
           id="path466"
           inkscape:connector-curvature="0" /><path
           d="m 4002.6,12819 c -3.11,-101.2 192.09,-257.5 337.21,-321.1 145.12,-63.7 452.4,84.5 431.82,222.7 -20.6,138.1 -377.33,270.3 -503.23,289.4 -83.08,12.7 -262.7,-89.9 -265.8,-191"
           id="path468"
           inkscape:connector-curvature="0" /><path
           d="m 1711.2,15070 c 49.14,-88.4 310.14,-95.4 467.37,-75.7 157.24,19.6 276.72,227.7 188.29,335.8 -88.45,108.1 -363.4,27.4 -481.32,-20.6 -77.84,-31.7 -223.48,-151 -174.34,-239.5"
           id="path470"
           inkscape:connector-curvature="0" /><path
           d="m 4031.2,15090 c -49.79,-98.1 18.57,-214.7 77.32,-267.4 58.74,-52.6 288.59,-174.1 367.32,-137.5 82.03,38.1 37.27,202.7 8.3,291.4 -28.98,88.8 -393.09,231.3 -452.94,113.5"
           id="path472"
           inkscape:connector-curvature="0" /><path
           d="m 8683.8,8730.8 c -109.16,-133.6 264.61,-226.6 360.23,-180.1 95.61,46.6 62.7,196.4 19.24,248.5 -43.47,52.2 -273.99,60.7 -379.47,-68.4"
           id="path474"
           inkscape:connector-curvature="0" /><path
           d="m 5679.8,14780 c -97.91,94.7 -396.21,-41.4 -422.89,-183.2 -48.95,-259.9 460.67,-269.3 558.58,-168.2 97.91,101.1 -37.79,256.6 -135.69,351.4"
           id="path476"
           inkscape:connector-curvature="0" /><path
           d="m 9462.6,14572 c -74.62,-74.6 -71.76,-154.9 -45.16,-222.9 26.6,-68 224.14,-88.9 348.11,-80.1 123.99,8.9 107.3,167 80.69,283.7 -26.59,116.7 -302.54,100.5 -383.64,19.3"
           id="path478"
           inkscape:connector-curvature="0" /><path
           d="m 1804,10515 c 71.85,-20.3 308.69,44.5 359.24,112.7 52.69,71.2 -15.81,199.2 -78.08,265.3 -62.27,66 -418.67,8.9 -418.67,-123.3 0,-109.9 65.68,-234.4 137.51,-254.7"
           id="path480"
           inkscape:connector-curvature="0" /><path
           d="m 1172.6,11456 c 130.21,-11 269.3,103.1 299.77,177 30.46,73.9 -11.68,320.4 -88.02,380.6 -79.54,62.8 -225.12,0.5 -308.88,-58.8 -83.768,-59.2 -59.41,-485.6 97.13,-498.8"
           id="path482"
           inkscape:connector-curvature="0" /><path
           d="m 3200.4,13182 c 29.51,124.4 -40.72,252 -115.57,297 -74.84,45 -327.01,65 -401.85,3.2 -77.99,-64.4 -38.27,-209.4 13.6,-303.2 51.87,-93.7 468.34,-146.5 503.82,3"
           id="path484"
           inkscape:connector-curvature="0" /></g><g
         transform="scale(1.1582)"
         id="g490"><path
           d="m 6599.5,16299 c -57.83,-1 -242.06,-64.1 -240.22,-153.3 1.9,-92.9 159.29,-201.5 234.36,-252.6 75.06,-51 322.27,114 254.19,255.7 -56.64,117.8 -190.51,151.2 -248.33,150.2"
           id="path488"
           inkscape:connector-curvature="0" /></g><path
         d="m 2202,12429 c -109.15,-204.3 259.06,-354 354.67,-282.8 95.63,71.3 47.31,314.1 3.84,393.9 -43.47,79.7 -253.03,86.3 -358.51,-111.1"
         id="path492"
         inkscape:connector-curvature="0" /><g
         transform="scale(1.0307)"
         id="g496"><path
           d="m 7986.4,15960 c -53.68,-277.9 454.51,-255.4 561.84,-147.3 107.32,108 -16.23,284.9 -123.55,386.2 -107.34,101.3 -409.04,-87.4 -438.29,-238.9"
           id="path494"
           inkscape:connector-curvature="0" /></g><g
         id="g508"><path
           d="m 9190.4,11288 c -59.14,-100.8 -58.35,-161.2 -37.28,-253 21.09,-91.8 157.74,-115.7 256.01,-103.7 98.28,12 55.83,196.6 34.75,354.2 -21.09,157.6 -189.19,112 -253.48,2.5"
           id="path498"
           inkscape:connector-curvature="0" /><path
           d="m 10228,10552 c -77.8,-31.8 -191.4,-251.1 -142.2,-339.5 49.1,-88.5 321.4,-125.5 478.7,-105.9 157.2,19.7 321.1,301.6 232.7,409.7 -88.5,108.1 -451.2,83.7 -569.2,35.7"
           id="path500"
           inkscape:connector-curvature="0" /><path
           d="m 7335.8,9107.1 c -48.96,-188 426.79,-177.6 524.7,-104.4 97.91,73.1 -32.95,170.8 -130.85,239.4 -97.91,68.5 -367.17,-32.6 -393.85,-135"
           id="path502"
           inkscape:connector-curvature="0" /><path
           d="m 7480.5,15534 c 0,-140.1 81.22,-200.3 157.43,-226.2 76.2,-25.9 308.4,-43.4 362.04,43.6 55.87,90.7 -34.78,234.8 -100.82,318.9 -66.04,84.3 -418.65,32.3 -418.65,-136.3"
           id="path504"
           inkscape:connector-curvature="0" /><path
           d="m 6211.9,7319.7 c 45.13,100.2 -56.37,215.8 -117.52,265.6 -61.14,49.8 -265.16,119.7 -342.08,79.4 -80.14,-41.9 -48.8,-154.4 -15.69,-241.7 33.12,-87.4 421.04,-223.9 475.29,-103.3"
           id="path506"
           inkscape:connector-curvature="0" /></g><g
         transform="scale(1.0204)"
         id="g512"><path
           d="m 9679.9,16120 c 0,-107.8 122.93,-230.7 197.61,-250.6 74.68,-19.9 327.18,39.7 379.78,106.6 54.8,69.7 -27.6,194.9 -92.4,259.7 -64.7,64.7 -484.99,13.8 -484.99,-115.7"
           id="path510"
           inkscape:connector-curvature="0" /></g><g
         transform="scale(1.1453)"
         id="g516"><path
           d="m 9260.7,16260 c -118.49,40.3 -377.73,-202.9 -371.35,-324.2 11.52,-222.5 530.44,-71.7 603.78,42.7 73.35,114.3 -113.95,241.2 -232.43,281.5"
           id="path514"
           inkscape:connector-curvature="0" /></g><path
         d="m 7827.4,7004.4 c -65.19,-2.3 -225.64,-102.3 -219.65,-186.2 5.99,-83.8 186.95,-235 304.27,-265.3 117.31,-30.4 316.61,178.6 289.27,289.3 -27.35,110.8 -275.1,165.6 -373.89,162.2"
         id="path518"
         inkscape:connector-curvature="0" /><g
         transform="scale(1.0782)"
         id="g522"><path
           d="m 8939.7,16105 c -118.13,-173.7 270.11,-293.2 373.6,-232.6 103.5,60.5 71.13,292.3 24.11,360.1 -47.02,67.8 -283.57,40.2 -397.71,-127.5"
           id="path520"
           inkscape:connector-curvature="0" /></g><path
         d="m 6723.7,13511 c -109.17,-215.1 261.18,-375.5 356.8,-300.4 95.62,75 49.75,333.7 6.3,417.7 -43.46,84 -257.63,90.6 -363.1,-117.3"
         id="path524"
         inkscape:connector-curvature="0" /><path
         d="m 9355.7,6600.5 c -86.7,39.5 -147.18,58.6 -206.77,20.7 -59.58,-37.8 -18.55,-202.3 15.38,-296.8 33.93,-94.6 160.86,-32 267.04,18.2 106.19,50.1 18.58,215 -75.65,257.9"
         id="path526"
         inkscape:connector-curvature="0" /><g
         transform="scale(1.2823)"
         id="g530"><path
           d="m 16158,1764.9 c -67.6,30.73 -114.8,45.62 -161.3,16.15 -46.4,-29.56 -14.4,-157.85 12.1,-231.55 26.4,-73.69 125.4,-24.87 208.3,14.2 82.7,39.07 14.4,167.75 -59.1,201.2"
           id="path528"
           inkscape:connector-curvature="0" /></g><g
         transform="scale(1.0801)"
         id="g534"><path
           d="m 7817,16130 c -90.82,-149 198.31,-227.3 277.86,-175.4 79.56,51.9 64.28,229.1 28.11,287.2 -36.17,58.2 -218.21,32.1 -305.97,-111.8"
           id="path532"
           inkscape:connector-curvature="0" /></g><g
         transform="scale(1.1655)"
         id="g538"><path
           d="m 3232,16237 c -37.29,62.6 -219.91,48.9 -310.4,-106.1 -93.65,-160.4 225.32,-298.4 307.35,-242.5 82.04,56 40.34,286 3.05,348.6"
           id="path536"
           inkscape:connector-curvature="0" /></g><path
         d="m 5552,13289 c 89.07,-100.8 182.19,-85.2 255.77,-53.4 73.57,31.8 309.96,164.1 294.84,262.2 -15.76,102.2 -222.65,148.1 -325.65,164.9 -102.99,16.8 -332.06,-252.5 -224.96,-373.7"
         id="path540"
         inkscape:connector-curvature="0" /><path
         d="m 6525.5,11133 c -39.51,-61.4 88.07,-244 167.9,-339.2 79.84,-95.3 175.99,20.7 254.97,110.7 78.99,89.9 -89.07,228.7 -202.32,246.9 -104.2,16.7 -181.04,43 -220.55,-18.4"
         id="path542"
         inkscape:connector-curvature="0" /><g
         transform="scale(1.0525)"
         id="g546"><path
           d="m 15823,8046.7 c -37.6,-58.33 83.6,-231.73 159.6,-322.27 75.8,-90.45 167.1,19.76 242.1,105.17 75.1,85.51 -84.5,217.29 -192.2,234.59 -99,15.96 -171.9,40.85 -209.5,-17.49"
           id="path544"
           inkscape:connector-curvature="0" /></g><path
         d="m 8081.5,10341 c -69.54,-96.1 62.4,-317.5 127.84,-379 65.44,-61.5 265.64,-10.3 306.51,207.2 42.28,225.1 -364.81,267.9 -434.35,171.8"
         id="path548"
         inkscape:connector-curvature="0" /><path
         d="m 6365.5,10031 c -26.54,-106.7 69.72,-177.9 138.76,-216 69.03,-38.1 322.03,-149.4 390.56,-96.1 71.4,55.6 -25.4,225.1 -73.55,305.1 -48.15,80 -423.87,135.3 -455.77,7"
         id="path550"
         inkscape:connector-curvature="0" /><g
         transform="scale(1.0778)"
         id="g554"><path
           d="m 5125.3,15922 c 120.49,-131 315.95,182.4 285.68,280.1 -30.3,97.8 -224.61,91.4 -289.18,64.6 -64.6,-26.8 -112.92,-218.2 3.5,-344.7"
           id="path552"
           inkscape:connector-curvature="0" /></g><path
         d="m 11797,12012 c -109.2,-167.3 280.5,-309.7 376.2,-251.4 95.6,58.3 50.5,255.6 7,320.8 -43.4,65.3 -277.7,92.2 -383.2,-69.4"
         id="path556"
         inkscape:connector-curvature="0" /><path
         d="m 3153.8,9771.4 c -109.16,-133.6 280.11,-251.4 375.73,-204.8 95.62,46.6 54.71,217.9 11.24,270 -43.47,52.2 -281.49,63.9 -386.97,-65.2"
         id="path558"
         inkscape:connector-curvature="0" /><g
         transform="scale(1.1236)"
         id="g562"><path
           d="m 5919.5,16197 c -74.47,102.6 -258.95,-3.9 -279.26,-157.4 -37.23,-281.4 327.36,-280.9 401.82,-171.4 74.47,109.5 -48.1,226.1 -122.56,328.8"
           id="path560"
           inkscape:connector-curvature="0" /></g><g
         transform="scale(1.2068)"
         id="g566"><path
           d="m 5008.5,16156 c -12.07,-97.2 128.48,-234.5 246.66,-281.5 118.18,-47.1 374.21,123.7 369.47,254.1 -4.76,130.3 -289.94,161 -395.83,167.2 -69.89,4.1 -208.22,-42.7 -220.3,-139.8"
           id="path564"
           inkscape:connector-curvature="0" /></g><g
         transform="scale(1.014)"
         id="g570"><path
           d="m 6259.9,16147 c -73.61,-112.5 -39.46,-212.6 -13.24,-315.1 26.22,-102.6 189.82,-179.2 312.09,-165.8 122.25,13.3 117.28,281.8 91.06,457.8 -26.25,176 -309.93,145.4 -389.91,23.1"
           id="path568"
           inkscape:connector-curvature="0" /></g><g
         id="g578"><path
           d="m 11079,8401.8 c -109.2,-133.6 244.5,-229.4 340.1,-182.8 95.6,46.5 45,226.4 1.6,278.5 -43.5,52.2 -236.2,33.4 -341.7,-95.7"
           id="path572"
           inkscape:connector-curvature="0" /><path
           d="m 8801.9,7528.8 c -142.6,-175.3 330.23,-305.7 455.14,-244.5 124.89,61.1 54.01,283.1 -2.77,351.5 -56.78,68.5 -314.58,62.5 -452.37,-107"
           id="path574"
           inkscape:connector-curvature="0" /><path
           d="m 5055.2,9960.1 c -82.22,-17.4 -219.26,-130 -186.6,-225.7 32.66,-95.8 265.45,-181.3 423.68,-189.8 158.23,-8.6 374.91,233.8 307.05,355.8 -67.85,122.1 -419.54,86 -544.13,59.7"
           id="path576"
           inkscape:connector-curvature="0" /></g><g
         transform="scale(1.1101)"
         id="g582"><path
           d="m 3531.5,16165 c -98.34,-140.1 243.9,-254.1 330.05,-205.3 86.11,48.8 41.56,217.7 2.43,272.4 -39.16,54.6 -237.47,68.2 -332.48,-67.1"
           id="path580"
           inkscape:connector-curvature="0" /></g><g
         transform="scale(1.1966)"
         id="g586"><path
           d="m 8044.7,16128 c 29.82,56.2 -72.24,171.7 -228.83,166.5 -162.03,-5.5 -107.45,-279 -28.59,-313.3 78.86,-34.2 227.6,90.6 257.42,146.8"
           id="path584"
           inkscape:connector-curvature="0" /></g><path
         d="m 4776.7,6483.7 c 31.3,-136.1 337.32,-253.1 464.31,-262.4 83.82,-6.1 235.55,108.4 230.75,209.5 -4.79,101.1 -190.57,247.5 -340.21,299.7 -149.63,52.1 -386.14,-110.7 -354.85,-246.8"
         id="path588"
         inkscape:connector-curvature="0" /><g
         transform="scale(1.0532)"
         id="g592"><path
           d="m 4263,15780 c 90.78,76.7 29.64,306 -11.63,391.9 -41.27,85.9 -230.16,128.3 -330.31,-84.4 -103.65,-220 251.15,-384.3 341.94,-307.5"
           id="path590"
           inkscape:connector-curvature="0" /></g><g
         id="g604"><path
           d="m 6476.2,15038 c -74.63,-74.6 -89.94,-119.8 -63.34,-187.8 26.59,-68 213.38,-113.8 337.38,-105 123.96,8.9 103.83,186.7 77.23,303.4 -26.6,116.7 -270.16,70.5 -351.27,-10.6"
           id="path594"
           inkscape:connector-curvature="0" /><path
           d="m 2948.3,14628 c -85.56,-99.9 -97.24,-164.6 -66.75,-255.6 30.49,-91 241.69,-131.1 383.82,-119.2 142.14,11.9 120.82,227.9 90.32,384 -30.48,156.2 -314.41,99.3 -407.39,-9.2"
           id="path596"
           inkscape:connector-curvature="0" /><path
           d="m 3040.9,11087 c 56.23,44.3 51.95,242.4 -96.33,331.9 -153.44,92.6 -254.47,-262.8 -198.5,-348.9 55.97,-86.1 238.62,-27.3 294.83,17"
           id="path598"
           inkscape:connector-curvature="0" /><path
           d="m 1791.2,13667 c 95.62,75.8 67.27,357.6 23.81,442.4 -43.45,84.8 -252.46,39.3 -357.93,-170.5 -109.17,-217.2 238.51,-347.6 334.12,-271.9"
           id="path600"
           inkscape:connector-curvature="0" /><path
           d="m 3571.7,11891 c 0,-110 105.81,-237.7 182.02,-258 76.19,-20.3 355.54,26.3 409.16,94.6 55.89,71.1 -69.36,195.3 -135.4,261.3 -66.04,66.1 -455.78,34.2 -455.78,-97.9"
           id="path602"
           inkscape:connector-curvature="0" /></g><g
         transform="scale(1.0078)"
         id="g608"><path
           d="m 3250,15775 c 48.13,-89.5 229.29,-85.8 346.12,-45.2 116.84,40.5 47.89,255 -16.3,412.8 -64.19,157.8 -263.59,18.5 -315.18,-113.8 -47.46,-121.7 -62.77,-164.4 -14.64,-253.8"
           id="path606"
           inkscape:connector-curvature="0" /></g><g
         transform="scale(1.0672)"
         id="g612"><path
           d="m 6643.9,16055 c -45.87,-207.5 433.86,-222 525.6,-141.3 91.74,80.7 -26.9,235.4 -118.65,311.1 -91.74,75.6 -381.94,-56.7 -406.95,-169.8"
           id="path610"
           inkscape:connector-curvature="0" /></g><path
         d="m 4034,7784.6 c 0,-110 82.35,-201.2 158.55,-221.5 76.21,-20.3 341.65,-6.9 395.28,61.3 55.88,71.1 -36.8,220.5 -102.84,286.5 -66.04,66.1 -450.99,5.8 -450.99,-126.3"
         id="path614"
         inkscape:connector-curvature="0" /><g
         transform="scale(1.0758)"
         id="g618"><path
           d="m 2791.5,16203 c -91.01,97.2 -302.28,-22.9 -327.09,-168.2 -45.51,-266.7 390.09,-277.7 481.1,-174 91,103.7 -63,245 -154.01,342.2"
           id="path616"
           inkscape:connector-curvature="0" /></g><g
         transform="scale(1.1466)"
         id="g622"><path
           d="m 7414,16074 c 0,-126.5 135.4,-243.6 207.35,-267 71.94,-23.4 332.98,-3.3 383.63,75.3 52.74,81.8 -39.03,265.5 -101.38,341.5 -62.34,76 -489.6,2.4 -489.6,-149.8"
           id="path620"
           inkscape:connector-curvature="0" /></g><g
         id="g634"><path
           d="m 10065,6137.4 c -74.58,-74.6 -110.58,-132.6 -83.98,-200.6 26.58,-68 234.48,-63.4 358.48,-54.5 124,8.8 96.5,143.2 70,259.9 -26.7,116.8 -263.3,76.3 -344.5,-4.8"
           id="path624"
           inkscape:connector-curvature="0" /><path
           d="m 11323,12842 c 49.1,-88.5 293.8,-160.2 451.1,-140.5 157.2,19.6 283.5,290.6 195,398.7 -88.4,108.1 -407.2,91.5 -525.1,43.5 -77.8,-31.7 -170.1,-213.3 -121,-301.7"
           id="path626"
           inkscape:connector-curvature="0" /><path
           d="m 7753.8,14243 c 48.4,-136.6 342.71,-133.1 477.14,-93.7 134.42,39.4 136.87,424 17.13,517.9 -219.64,172.3 -542.68,-287.6 -494.27,-424.2"
           id="path628"
           inkscape:connector-curvature="0" /><path
           d="m 680.67,13108 c -182.52,-232.4 384.05,-335.6 543.94,-254.5 159.89,81 58.1,307 -14.59,397.8 -72.69,90.7 -352.96,81.3 -529.35,-143.3"
           id="path630"
           inkscape:connector-curvature="0" /><path
           d="m 8556.4,12156 c -27.97,-86 124.55,-176.7 209.31,-216 84.75,-39.2 432.91,136.7 387.38,260.8 -37.88,103.2 -160.55,127.2 -239.09,120.1 -78.53,-7.2 -330.77,-82.3 -357.6,-164.9"
           id="path632"
           inkscape:connector-curvature="0" /></g><g
         transform="scale(1.0156)"
         id="g638"><path
           d="m 2148.7,15768 c 126.6,11.5 96.01,230.8 68.86,381.6 -27.17,150.9 -284.37,118.2 -367.18,13.4 -76.21,-96.5 -55.43,-170.2 -28.27,-258.1 27.16,-87.9 199.98,-148.3 326.59,-136.9"
           id="path636"
           inkscape:connector-curvature="0" /></g><g
         transform="scale(1.1638)"
         id="g642"><path
           d="m 4255.9,16038 c -50.62,-92 108.75,-138.7 209.7,-157.5 100.95,-18.8 307.61,165.4 292.07,255.1 -28.51,164.4 -451.17,-5.6 -501.77,-97.6"
           id="path640"
           inkscape:connector-curvature="0" /></g><path
         d="m 11056,9503.9 c -66,66 -462.2,22.3 -462.2,-109.8 0,-110 106.9,-213.1 183.1,-233.4 76.2,-20.3 320.1,24.4 373.7,92.7 55.9,71.1 -28.6,184.5 -94.6,250.5"
         id="path644"
         inkscape:connector-curvature="0" /><g
         transform="scale(1.2055)"
         id="g648"><path
           d="m 3893.4,16004 c 67.11,-151.3 307.43,42.5 309.97,135.4 2.53,92.8 -172.45,160.4 -237.45,159.5 -65.01,-0.9 -137.37,-148.7 -72.52,-294.9"
           id="path646"
           inkscape:connector-curvature="0" /></g><g
         id="g676"><path
           d="m 9230.6,9574.6 c -109.15,-208 259.94,-364.6 355.55,-292.1 95.62,72.5 52.72,334.2 9.26,415.3 -43.46,81.2 -259.33,77.7 -364.81,-123.2"
           id="path650"
           inkscape:connector-curvature="0" /><path
           d="m 10470,7215.2 c -117.6,-153.8 264.5,-249.3 367.6,-195.6 103.1,53.6 48.9,224.3 2.1,284.3 -46.9,60.1 -256,60 -369.7,-88.7"
           id="path652"
           inkscape:connector-curvature="0" /><path
           d="m 1708.9,9580.4 c -48.94,-278 481.25,-284.4 579.16,-176.3 97.91,108.1 -28.92,263.6 -126.82,364.9 -97.9,101.4 -425.63,-37.1 -452.34,-188.6"
           id="path654"
           inkscape:connector-curvature="0" /><path
           d="m 4772.6,11134 c 0,-128.5 130.23,-280.9 206.42,-304.7 76.2,-23.7 344.27,44.9 397.9,124.7 55.88,83.1 -49.84,226.1 -115.88,303.3 -66.04,77.2 -488.44,31.2 -488.44,-123.3"
           id="path656"
           inkscape:connector-curvature="0" /><path
           d="m 2443,8600.8 c 0,-109.9 97.44,-176.8 173.63,-197.1 76.2,-20.4 323.42,-22.1 377.06,46.2 55.88,71.1 -21.24,215.1 -87.29,281.1 -66.04,66 -463.4,2 -463.4,-130.2"
           id="path658"
           inkscape:connector-curvature="0" /><path
           d="m 3237.8,7363.9 c -97.9,68.5 -415.46,-4.4 -442.15,-106.9 -48.95,-188 501.27,-215.2 599.17,-142.1 97.91,73.1 -59.11,180.5 -157.02,249"
           id="path660"
           inkscape:connector-curvature="0" /><path
           d="m 3371.2,10617 c 0,-109.9 144.6,-188.9 220.8,-209.2 76.21,-20.3 328,-11 381.64,57.2 55.88,71.1 -25.91,212.8 -91.97,278.9 -66.02,66 -510.47,5.3 -510.47,-126.9"
           id="path662"
           inkscape:connector-curvature="0" /><path
           d="m 5501.9,15773 c 97.91,103.6 -51.73,237.4 -149.63,334.5 -97.91,97 -364.58,-22.5 -391.26,-167.6 -48.96,-266.3 442.99,-270.4 540.89,-166.9"
           id="path664"
           inkscape:connector-curvature="0" /><path
           d="m 4612.1,8995 c -97.91,68.5 -387.6,-45.8 -414.28,-148.3 -48.96,-188 466.28,-220.3 564.18,-147.1 97.92,73.1 -51.99,226.9 -149.9,295.4"
           id="path666"
           inkscape:connector-curvature="0" /><path
           d="m 9739.5,8007.7 c -16.03,-89 166.87,-136.9 256.17,-164.3 89.29,-27.3 423.59,181.7 361.69,298.4 -51.6,97.1 -192.8,75.7 -269.6,58 -76.8,-17.8 -332.9,-106.6 -348.26,-192.1"
           id="path668"
           inkscape:connector-curvature="0" /><path
           d="m 5884.4,12352 c -104.42,52.5 -372.7,-179 -373.39,-310 -1.28,-240.3 517,-137.9 588.95,-20.6 71.95,117.4 -111.14,278.1 -215.56,330.6"
           id="path670"
           inkscape:connector-curvature="0" /><path
           d="m 5833.8,8725.5 c -109.16,-195 256.48,-336.4 352.11,-268.4 95.61,68 59.69,318.6 16.24,394.7 -43.47,76.2 -262.87,62 -368.35,-126.3"
           id="path672"
           inkscape:connector-curvature="0" /><path
           d="m 7493.3,12201 c 91.73,176.2 -300.36,289.3 -389.59,222 -89.25,-67.3 -18.66,-308.6 31.17,-368.6 49.83,-60.1 269.79,-23.8 358.42,146.6"
           id="path674"
           inkscape:connector-curvature="0" /></g><g
         transform="scale(1.1314)"
         id="g680"><path
           d="m 2404.9,16024 c 2.1,137.1 -307.37,242.3 -421.27,262.3 -75.16,13.2 -227.41,-57.5 -245.82,-157.7 -18.42,-100.2 92.72,-299.7 217.6,-364.1 124.9,-64.3 447.37,122.4 449.49,259.5"
           id="path678"
           inkscape:connector-curvature="0" /></g><g
         transform="scale(1.1983)"
         id="g684"><path
           d="m -313.8,16113 c 0,-139.7 84.838,-243.9 148.43,-269.7 63.591,-25.8 283.37,-21 328.12,65.8 46.634,90.4 -68.598,223.3 -123.71,307.3 -55.113,83.9 -352.83,64.6 -352.83,-103.4"
           id="path682"
           inkscape:connector-curvature="0" /></g><g
         transform="scale(1.0749)"
         id="g688"><path
           d="m 1430.5,16080 c -6.9,220.2 -405.91,90.4 -455.92,-23.6 -50.031,-114.1 118.36,-295.3 199.44,-325.5 81.09,-30.3 263.15,136.3 256.48,349.1"
           id="path686"
           inkscape:connector-curvature="0" /></g><g
         transform="scale(1.2306)"
         id="g692"><path
           d="m 2066.2,16228 c -79.56,72.1 -335.82,-51 -357.51,-158.8 -39.78,-197.8 399.24,-244.1 478.8,-167.2 79.55,76.9 -41.73,253.9 -121.29,326"
           id="path690"
           inkscape:connector-curvature="0" /></g><g
         transform="scale(1.1412)"
         id="g696"><path
           d="m 438.54,16298 c -63.814,2.1 -182.26,-148.2 -141.62,-298.6 42.048,-155.7 341.46,30.2 358.48,123.8 17.036,93.5 -153.04,172.7 -216.86,174.8"
           id="path694"
           inkscape:connector-curvature="0" /></g><g
         transform="scale(1.0793)"
         id="g700"><path
           d="m -228.79,16204 c -72.121,-29.4 -186.99,-167 -141.47,-249 45.527,-81.9 283.38,-119.4 429.05,-101.2 145.69,18.2 262.32,245.6 180.38,345.7 -81.951,100.2 -358.71,49 -467.96,4.5"
           id="path698"
           inkscape:connector-curvature="0" /></g><g
         transform="scale(1.1733)"
         id="g704"><path
           d="m 1506.4,16089 c 104.88,112.7 -233.98,210.7 -323.84,173.2 -89.83,-37.6 -37.99,-170.8 0.73,-217.4 38.74,-46.6 221.78,-64.7 323.11,44.2"
           id="path702"
           inkscape:connector-curvature="0" /></g><path
         d="m 621.46,15230 c -109.16,-155.9 260.55,-285.6 356.16,-231.3 95.623,54.4 33.403,259 -10.066,319.9 -43.449,60.9 -240.61,62.1 -346.09,-88.6"
         id="path706"
         inkscape:connector-curvature="0" /><g
         transform="scale(1.0065)"
         id="g710"><path
           d="m 514.12,16197 c -65.611,102.9 -447.91,99.4 -447.91,-106.5 0,-171.3 151.87,-239.5 227.58,-271.1 75.713,-31.7 321.76,-78.5 375.03,27.9 55.521,110.8 -89.072,246.8 -154.7,349.7"
           id="path708"
           inkscape:connector-curvature="0" /></g><path
         d="m -12.863,14214 c -109.16,-170.1 268.08,-313.7 363.71,-254.4 95.609,59.4 43.16,279.4 -0.301,345.9 -43.465,66.4 -257.93,72.9 -363.41,-91.5"
         id="path712"
         inkscape:connector-curvature="0" /><g
         transform="scale(1.2231)"
         id="g716"><path
           d="m 6358.6,16078 c -53.87,-86.2 51.6,-153.6 146.5,-196.4 94.88,-42.9 203.54,149.5 185.87,244.9 -16.25,87.7 -56.41,138.4 -117.07,156 -60.68,17.7 -161.43,-118.3 -215.3,-204.5"
           id="path714"
           inkscape:connector-curvature="0" /></g><g
         id="g726"><path
           d="m 15255,5718.4 c -20.6,138.2 -370.4,207.9 -496.3,227 -83,12.6 -293.5,-23.7 -296.6,-124.8 -3.1,-101.1 223.9,-278.9 369,-342.6 145.2,-63.7 444.5,102.3 423.9,240.4"
           id="path718"
           inkscape:connector-curvature="0" /><path
           d="m 12490,3470.3 c 76.2,-28.9 305,-60.4 358.6,36.6 55.9,101.2 -23.2,275.8 -89.3,369.7 -66,93.9 -492.8,20.9 -492.8,-167 0,-156.4 147.3,-210.4 223.5,-239.3"
           id="path720"
           inkscape:connector-curvature="0" /><path
           d="m 11448,4792.3 c 0,-109.9 102.4,-202.4 178.6,-222.7 76.2,-20.3 345,-8.1 398.7,60.2 55.9,71.1 -63.4,199.3 -129.4,265.4 -66.1,66 -447.9,29.3 -447.9,-102.9"
           id="path722"
           inkscape:connector-curvature="0" /><path
           d="m 12587,5486.1 c -109.2,-133.5 256.3,-224.3 351.9,-177.7 95.6,46.6 69.7,212.7 26.3,264.9 -43.5,52.1 -272.7,41.9 -378.2,-87.2"
           id="path724"
           inkscape:connector-curvature="0" /></g><g
         transform="scale(1.0241)"
         id="g730"><path
           d="m 15623,618.9 c 0,-133.58 130.6,-230.35 205.1,-255.06 74.4,-24.706 364.9,-56.053 417.2,26.948 54.6,86.424 -96.9,268.25 -161.3,348.51 -64.6,80.267 -461,40.23 -461,-120.4"
           id="path728"
           inkscape:connector-curvature="0" /></g><g
         transform="scale(1.0554)"
         id="g734"><path
           d="m 15925,3967.8 c -70.7,-70.68 -129.9,-123.08 -104.7,-187.51 25.2,-64.43 241.9,-103.47 359.4,-95.13 117.5,8.43 120.3,193.01 95.1,303.59 -25.2,110.57 -273,55.99 -349.8,-20.95"
           id="path732"
           inkscape:connector-curvature="0" /></g><g
         transform="scale(1.0704)"
         id="g738"><path
           d="m 15703,2845 c -24.9,-99.69 84.3,-242.73 148.7,-278.32 64.6,-35.6 317.4,-52.98 381.5,-3.18 66.7,51.85 -46.2,162.28 -91.1,237.03 -45,74.74 -409.3,164.24 -439.1,44.47"
           id="path736"
           inkscape:connector-curvature="0" /></g><g
         id="g762"><path
           d="m 13557,2553.7 c -109.2,-133.6 234.3,-211.1 329.9,-164.5 95.6,46.5 37.5,196.9 -6,249.1 -43.5,52.1 -218.4,44.5 -323.9,-84.6"
           id="path740"
           inkscape:connector-curvature="0" /><path
           d="m 15546,3001.7 c -82.2,-17.4 -187.9,-163.9 -155.2,-259.6 32.7,-95.8 242.5,-196.7 400.7,-205.3 158.2,-8.6 373,240.3 305.2,362.4 -67.9,122 -426.1,128.8 -550.7,102.5"
           id="path742"
           inkscape:connector-curvature="0" /><path
           d="m 13537,4461 c -40.9,54.2 -273.2,41.4 -384.9,-82.4 -115.5,-128 246.3,-249.8 344.1,-208 97.8,41.8 81.6,236.2 40.8,290.4"
           id="path744"
           inkscape:connector-curvature="0" /><path
           d="m 13993,4916.1 c 0,-110 107.3,-218.8 183.5,-239.2 76.2,-20.3 356.6,2.7 410.2,71 55.9,71.1 -51.6,223.9 -117.7,290 -66,66 -476,10.3 -476,-121.8"
           id="path746"
           inkscape:connector-curvature="0" /><path
           d="m 14445,792.3 c 74.3,-81 182.4,-49.399 244.1,-20.403 61.7,29.102 223.8,155.4 211.4,236.6 -12.9,84.7 -152.8,73.4 -239,83.9 -86.2,10.5 -305.9,-202.7 -216.5,-300.1"
           id="path748"
           inkscape:connector-curvature="0" /><path
           d="m 12357,2668.1 c -30.6,-187.9 295.9,-180.5 357.1,-107.4 61.3,73.1 -20.4,148.4 -81.6,217 -61.3,68.5 -258.7,-7.1 -275.5,-109.6"
           id="path750"
           inkscape:connector-curvature="0" /><path
           d="m 15039,4184.9 c 0,-110 136.1,-239.9 212.3,-260.3 76.2,-20.3 366.9,20.2 420.5,88.4 55.9,71.2 -66,217.9 -132.1,283.9 -66,66 -500.7,20.1 -500.7,-112"
           id="path752"
           inkscape:connector-curvature="0" /><path
           d="m 12911,1600.8 c 0,-109.9 123.4,-200.2 199.5,-220.6 76.2,-20.3 343.4,-9.4 397.1,58.9 55.9,71.1 -76.8,184 -142.9,250.1 -66,66 -453.7,43.8 -453.7,-88.4"
           id="path754"
           inkscape:connector-curvature="0" /><path
           d="m 13510,665 c -74.6,68.5 -285,-42.199 -305.4,-144.7 -37.2,-188 355.3,-230.4 429.8,-157.3 74.6,73.102 -49.9,233.5 -124.4,302"
           id="path756"
           inkscape:connector-curvature="0" /><path
           d="m 13924,3548 c 0,-110 103.4,-183.9 179.6,-204.2 76.2,-20.3 373.1,-52.6 426.7,15.7 55.9,71.1 -101,220.6 -167.1,286.7 -66,66 -439.2,33.9 -439.2,-98.2"
           id="path758"
           inkscape:connector-curvature="0" /><path
           d="m 15099,1969.5 c -97.9,86.4 -386,-29.5 -412.7,-158.7 -49,-237 460.1,-251 558,-158.9 97.9,92.2 -47.4,231.2 -145.3,317.6"
           id="path760"
           inkscape:connector-curvature="0" /></g><g
         transform="scale(1.0247)"
         id="g766"><path
           d="m 15927,5227.4 c -118.6,-24.78 -160.9,-363.7 -81,-468.51 146.6,-192.24 453.8,197.81 441.2,337.16 -12.7,139.45 -241.6,156.14 -360.2,131.35"
           id="path764"
           inkscape:connector-curvature="0" /></g><g
         transform="scale(1.0307)"
         id="g770"><path
           d="m 15816,1698.4 c -106,-174.25 298.7,-386.53 391.4,-325.69 92.8,60.73 19.5,314.24 -22.7,382.15 -42.2,68.02 -266.4,111.87 -368.7,-56.46"
           id="path768"
           inkscape:connector-curvature="0" /></g><g
         id="g868"><path
           d="m 10432,5343.2 c -109.1,-133.6 262.3,-242.9 357.9,-196.3 95.6,46.6 30.8,212.2 -12.7,264.4 -43.5,52.1 -239.7,61 -345.2,-68.1"
           id="path772"
           inkscape:connector-curvature="0" /><path
           d="m 10523,1248.9 c -126.2,-207.5 307.5,-389.8 418,-317.5 110.4,72.298 48.1,361.7 -2.2,442.7 -50.2,81 -293.9,75.2 -415.8,-125.2"
           id="path774"
           inkscape:connector-curvature="0" /><path
           d="m 10966,3417.1 c -17.7,-108.5 58.5,-220.4 130.5,-252.7 71.9,-32.3 318.6,-33 382.5,25.8 66.6,61.2 -4.5,184 -59.1,259.8 -54.5,75.8 -432.7,97.6 -453.9,-32.9"
           id="path776"
           inkscape:connector-curvature="0" /><path
           d="m 12173,721.2 c 87.7,19.801 118.9,197.3 -59.1,329.7 -184.2,137.1 -406.8,-141.1 -353.2,-237.9 53.7,-96.801 324.6,-111.6 412.3,-91.801"
           id="path778"
           inkscape:connector-curvature="0" /><path
           d="m 8739.7,1605.3 c -98.38,-111.3 145.49,-218 279.05,-275.3 133.56,-57.2 416.98,105.7 423.29,234.3 11.59,235.9 -603.97,152.4 -702.34,41"
           id="path780"
           inkscape:connector-curvature="0" /><path
           d="m 11343,1944.1 c 29.2,-132.7 171.4,-185.1 251.2,-193.3 79.8,-8.2 278.7,68.4 313,162.3 35.7,97.8 -49.4,198.8 -131.4,264.4 -82,65.6 -467.8,-73.8 -432.8,-233.4"
           id="path782"
           inkscape:connector-curvature="0" /><path
           d="m 1723,1221.9 c 49.13,-88.4 271.65,-140.4 428.88,-120.7 157.24,19.6 303.69,274.1 215.25,382.2 -88.44,108.1 -397.8,14.6 -515.72,-33.5 -77.84,-31.7 -177.55,-139.5 -128.41,-228"
           id="path784"
           inkscape:connector-curvature="0" /><path
           d="m 4038.1,1105.8 c -45.95,-104.1 22.3,-295.3 76.52,-351.2 54.22,-55.903 305.91,-153.4 378.58,-114.5 75.71,40.398 9.31,220.4 -17.43,314.7 -26.75,94.199 -382.43,276.2 -437.67,151"
           id="path786"
           inkscape:connector-curvature="0" /><path
           d="m 9606.6,677.9 c -80.71,-99.203 -76.58,-143.2 -47.81,-233.6 28.77,-90.403 205.45,-144.7 339.54,-132.9 134.1,11.704 96.98,225.2 68.21,380.4 -28.77,155.2 -272.22,94 -359.94,-13.899"
           id="path788"
           inkscape:connector-curvature="0" /><path
           d="m 7428.4,4472.9 c 76.21,-20.3 369.05,-31.3 422.68,37 55.88,71.1 -85.27,222 -151.32,288.1 -66.04,66 -481.27,26.2 -481.27,-105.9 0,-110 133.71,-198.9 209.91,-219.2"
           id="path790"
           inkscape:connector-curvature="0" /><path
           d="m 8116.8,2269.6 c 16.64,-150.5 303.46,-197.3 448.85,-177.7 145.41,19.6 218.85,416 119.86,533.3 -181.52,215.1 -585.36,-205.1 -568.71,-355.6"
           id="path792"
           inkscape:connector-curvature="0" /><path
           d="m 6958.9,1456.2 c 0,-175.2 117.89,-329.5 194.1,-361.9 76.2,-32.4 306.4,43.9 360.05,152.7 55.86,113.4 -44.32,234.9 -110.36,340.1 -66.04,105.3 -443.79,79.8 -443.79,-130.9"
           id="path794"
           inkscape:connector-curvature="0" /><path
           d="m 9884.3,2447.7 c 0,-109.9 132.17,-182.3 208.37,-202.6 76.2,-20.3 356.6,-41.5 410.2,26.8 55.9,71.1 -99.7,193.2 -165.7,259.2 -66.1,66.1 -452.87,48.8 -452.87,-83.4"
           id="path796"
           inkscape:connector-curvature="0" /><path
           d="m 10842,4401.2 c 70.7,99.7 -87.4,151.9 -201.7,187 -114.2,35.2 -372.7,-143.1 -366.6,-248.8 11.1,-193.9 497.6,-37.9 568.3,61.8"
           id="path798"
           inkscape:connector-curvature="0" /><path
           d="m 9706.7,3470.4 c -109.16,-223.5 227.43,-327.2 323.06,-249.3 95.6,78 42.9,298.2 -0.6,385.4 -43.42,87.3 -216.98,79.9 -322.46,-136.1"
           id="path800"
           inkscape:connector-curvature="0" /><path
           d="m 8315.2,3527.6 c -109.15,-133.6 244.68,-222.9 340.28,-176.3 95.63,46.6 69.21,231 25.74,283.1 -43.47,52.2 -260.54,22.3 -366.02,-106.8"
           id="path802"
           inkscape:connector-curvature="0" /><path
           d="m 1303.5,597.4 c -149.99,-15.699 -94.2,-256.4 -20.85,-281.9 73.33,-25.598 215.59,91.602 242.68,144.2 27.09,52.5 -76.9,152.9 -221.83,137.7"
           id="path804"
           inkscape:connector-curvature="0" /><path
           d="m 3479.3,4641.6 c 82.05,-151.8 320.35,149.2 313.63,255.3 -6.73,106.2 -185.7,120.8 -250.47,100.4 -64.76,-20.3 -142.44,-209.1 -63.16,-355.7"
           id="path806"
           inkscape:connector-curvature="0" /><path
           d="m 5387.7,3355.6 c -109.17,-207.9 288.68,-426.3 384.3,-353.8 95.61,72.5 26.61,359 -16.84,440.2 -43.47,81.2 -261.98,114.5 -367.46,-86.4"
           id="path808"
           inkscape:connector-curvature="0" /><path
           d="m 6729.4,4246.5 c -97.91,88.2 -378.87,-42.7 -405.58,-174.6 -48.95,-241.9 463.99,-279.4 561.9,-185.3 97.91,94.1 -58.42,271.7 -156.32,359.9"
           id="path810"
           inkscape:connector-curvature="0" /><path
           d="m 6468.1,5014.1 c 157.24,19.6 307.18,294.5 218.74,402.6 -88.45,108.1 -431.58,79.5 -549.51,31.5 -77.83,-31.7 -141.36,-204.7 -92.22,-293.1 49.13,-88.5 265.75,-160.7 422.99,-141"
           id="path812"
           inkscape:connector-curvature="0" /><path
           d="m 6337.9,2407.5 c -60.04,-74 -54.39,-147.9 -33,-215.3 21.39,-67.4 173.56,-73.6 273.3,-64.8 99.73,8.8 70.09,143.3 48.7,259 -21.4,115.6 -223.75,101.4 -289,21.1"
           id="path814"
           inkscape:connector-curvature="0" /><path
           d="m 3935.5,3949 c -109.16,-133 255.23,-228.3 350.86,-181.9 95.6,46.4 22.77,186.3 -20.68,238.2 -43.46,51.9 -224.7,72.1 -330.18,-56.3"
           id="path816"
           inkscape:connector-curvature="0" /><path
           d="m 9511.8,5438.9 c -43.46,66.4 -224.1,93.9 -329.58,-70.3 -109.15,-169.9 249.7,-276.4 345.31,-217.2 95.63,59.3 27.74,221.2 -15.73,287.5"
           id="path818"
           inkscape:connector-curvature="0" /><path
           d="m 4145.5,2754 c -109.16,-171.3 247.46,-279.1 343.09,-219.4 95.61,59.7 47.25,250.4 3.8,317.3 -43.47,66.8 -241.41,67.6 -346.89,-97.9"
           id="path820"
           inkscape:connector-curvature="0" /><path
           d="m 5902.1,243.3 c 81.77,-174 293.27,-55 433.8,44.199 140.53,99.301 -54.12,429 -207.98,503.6 -141.57,68.597 -210.58,58.8 -286.19,-15 -75.62,-73.801 -21.41,-358.7 60.37,-532.8"
           id="path822"
           inkscape:connector-curvature="0" /><path
           d="m 2646.7,662.7 c -89.36,-91.297 -95.99,-150.9 -64.14,-234.1 31.84,-83.2 248.65,-120 397.09,-109.2 148.45,10.903 143.01,211 111.16,353.8 -31.83,142.7 -347,88.801 -444.11,-10.5"
           id="path824"
           inkscape:connector-curvature="0" /><path
           d="m 3214.2,1998 c -35.47,-83.2 98.75,-233.8 200.73,-305.2 101.98,-71.4 242.72,85.4 318.14,215.9 75.43,130.5 -173.18,234 -301.67,207.5 -118.23,-24.3 -181.74,-35 -217.2,-118.2"
           id="path826"
           inkscape:connector-curvature="0" /><path
           d="m 7319.4,2905.2 c 241.59,-44.6 264.52,431.7 170.01,523.7 -94.53,92 -255.83,-54.6 -343.12,-147.9 -87.3,-93.3 41.38,-351.5 173.11,-375.8"
           id="path828"
           inkscape:connector-curvature="0" /><path
           d="m 3016.4,3463 c -97.9,68.6 -401.22,-18.5 -427.9,-121 -48.96,-188 485.4,-216.1 583.31,-142.9 97.9,73.1 -57.5,195.4 -155.41,263.9"
           id="path830"
           inkscape:connector-curvature="0" /><path
           d="m 8707.1,4453.4 c 0,-119 132.7,-209.1 215.2,-231.1 82.49,-22 326.46,16.2 384.53,90.1 60.48,77 -32.33,172.8 -103.81,244.3 -71.49,71.5 -495.92,39.8 -495.92,-103.3"
           id="path832"
           inkscape:connector-curvature="0" /><path
           d="m 8392.4,287.4 c 97.91,73.098 -17.24,216.3 -115.15,284.8 -97.91,68.5 -433.72,-55.699 -460.4,-158.2 -48.96,-188 477.64,-199.7 575.55,-126.6"
           id="path834"
           inkscape:connector-curvature="0" /><path
           d="m 2289.5,2106.8 c 123.97,8.9 103.5,184.6 76.9,301.3 -26.6,116.7 -286.51,87.5 -367.61,6.4 -74.63,-74.7 -52.24,-128.5 -25.65,-196.5 26.6,-68 192.38,-120.1 316.36,-111.2"
           id="path836"
           inkscape:connector-curvature="0" /><path
           d="m 4931.9,4677.2 c -58.9,-107.1 151.49,-153.2 268.97,-175.1 117.5,-21.9 377.8,176.7 359.72,281 -33.19,191.4 -569.79,1.1 -628.69,-105.9"
           id="path838"
           inkscape:connector-curvature="0" /><path
           d="m 4358.6,5507 c -109.16,-133.6 254.38,-225.6 349.99,-179 95.61,46.5 44.9,198.6 1.44,250.8 -43.46,52.1 -245.95,57.3 -351.43,-71.8"
           id="path840"
           inkscape:connector-curvature="0" /><path
           d="m 5531.8,1622.6 c 97.91,95.1 -6.75,284.1 -104.66,373.2 -97.91,89.2 -404.59,-95.2 -431.28,-228.5 -48.95,-244.5 438.04,-239.8 535.94,-144.7"
           id="path842"
           inkscape:connector-curvature="0" /><path
           d="m 2636.6,4427.9 c -88.46,108.1 -409.8,46.5 -527.73,-1.5 -77.83,-31.7 -172.09,-175 -122.95,-263.4 49.13,-88.5 280.52,-148.9 437.75,-129.2 157.25,19.6 301.37,286 212.93,394.1"
           id="path844"
           inkscape:connector-curvature="0" /><path
           d="m -518.67,5441.6 c 0,-174.3 155.41,-310.3 231.61,-342.5 76.207,-32.2 313.16,14.1 366.79,122.3 55.886,112.7 -71.957,217.2 -138,321.9 -66.043,104.7 -460.39,107.8 -460.39,-101.7"
           id="path846"
           inkscape:connector-curvature="0" /><path
           d="m 1340.3,3252.4 c -129.83,-171.4 324.66,-310.5 438.36,-250.7 113.72,59.8 43.42,249.3 -8.27,316.2 -51.67,66.9 -304.65,100.1 -430.09,-65.5"
           id="path848"
           inkscape:connector-curvature="0" /><path
           d="m 2127.1,5472.6 c -48.95,-187.9 521.99,-220.1 619.91,-147 97.9,73.1 -22.46,231.6 -120.37,300.2 -97.91,68.5 -472.85,-50.7 -499.54,-153.2"
           id="path850"
           inkscape:connector-curvature="0" /><path
           d="m 901.76,4414.8 c -41.633,66.9 -278.17,83.2 -388.06,-73.3 -113.73,-162 273.54,-340.3 370.72,-286.3 97.18,54 58.965,292.6 17.344,359.6"
           id="path852"
           inkscape:connector-curvature="0" /><path
           d="m -45.492,3627.1 c -81.828,14.3 -286.94,-49.6 -321.26,-165.6 -34.332,-116 174.26,-226.8 304.34,-299.4 130.1,-72.6 439.14,28.6 460.43,187 21.281,158.4 -319.55,256.4 -443.51,278"
           id="path854"
           inkscape:connector-curvature="0" /><path
           d="m 1337.4,5003.6 c -109.16,-133.6 245.47,-224.7 341.09,-178.2 95.61,46.6 43.13,212.1 -0.32,264.2 -43.47,52.2 -235.28,43.1 -340.77,-86"
           id="path856"
           inkscape:connector-curvature="0" /><path
           d="m 476.5,1237.9 c -125.73,-194.6 279.12,-307 389.25,-239.1 110.14,67.799 62.442,283.6 12.371,359.6 -50.039,75.9 -280.12,67.6 -401.62,-120.5"
           id="path858"
           inkscape:connector-curvature="0" /><path
           d="m 533.59,2481.8 c -66.039,66 -460.86,44.4 -460.86,-87.7 0,-110 138.66,-171.9 214.86,-192.2 76.207,-20.3 337.84,-39.4 391.46,28.9 55.886,71.1 -79.418,185 -145.47,251"
           id="path860"
           inkscape:connector-curvature="0" /><path
           d="m -32.832,259.2 c -109.16,-133.6 274.57,-235 370.2,-188.4 95.613,46.601 64.086,197.9 20.629,250.1 -43.469,52.098 -285.35,67.399 -390.83,-61.703"
           id="path862"
           inkscape:connector-curvature="0" /><path
           d="m 8145,5467.3 c 123.98,9 84.43,159.1 57.83,278.3 -26.59,119.2 -282.44,111.3 -363.54,28.5 -74.63,-76.3 -81.73,-166.9 -55.14,-236.4 26.6,-69.4 236.88,-79.5 360.85,-70.4"
           id="path864"
           inkscape:connector-curvature="0" /><path
           d="m -336.83,11491 c 11.16,-193.9 587.55,-68.6 658.26,31.1 70.714,99.6 -117.29,240.4 -231.52,275.5 -114.23,35.2 -432.84,-200.8 -426.74,-306.6"
           id="path866"
           inkscape:connector-curvature="0" /></g><g
         transform="scale(1.2883)"
         id="g872"><path
           d="m 16008,14987 c 0,-130 78.8,-226.8 138,-250.9 59.1,-24 263.6,-19.4 305.2,61.2 43.3,84.1 -63.8,207.8 -115.1,285.9 -51.3,78 -328.1,60 -328.1,-96.2"
           id="path870"
           inkscape:connector-curvature="0" /></g><g
         transform="scale(1.2883)"
         id="g876"><path
           d="m 16108,13575 c -60.5,-24.6 -156.8,-139.9 -118.6,-208.6 38.1,-68.7 237.4,-100 359.4,-84.8 122.1,15.3 219.8,205.7 151.1,289.6 -68.6,83.9 -300.4,41.1 -391.9,3.8"
           id="path874"
           inkscape:connector-curvature="0" /></g><g
         transform="scale(1.2883)"
         id="g880"><path
           d="m 16290,11033 c -84.7,-132 208.1,-243.5 282.3,-197.4 74.3,46 33.5,216.8 -0.2,268.4 -33.7,51.5 -200.2,56.6 -282.1,-71"
           id="path878"
           inkscape:connector-curvature="0" /></g><g
         transform="scale(1.2883)"
         id="g884"><path
           d="m 15897,4223.7 c 0,-135.29 120.6,-240.85 179.8,-265.85 59.1,-24.99 243.1,10.95 284.7,94.93 43.4,87.48 -55.8,168.59 -107.2,249.86 -51.2,81.26 -357.3,83.67 -357.3,-78.94"
           id="path882"
           inkscape:connector-curvature="0" /></g><g
         transform="scale(1.2883)"
         id="g888"><path
           d="m 16265,2815.3 c -63.5,11.1 -222.7,-38.5 -249.4,-128.54 -26.6,-90.03 135.3,-176.04 236.3,-232.39 100.9,-56.35 340.8,22.2 357.3,145.15 16.6,122.95 -248,199.01 -344.2,215.78"
           id="path886"
           inkscape:connector-curvature="0" /></g><g
         transform="scale(1.2883)"
         id="g892"><path
           d="m 16274,201.19 c -84.7,-103.7 213.1,-182.4 287.4,-146.23 74.2,36.172 49.7,153.61 16,194.13 -33.8,40.438 -221.5,52.314 -303.4,-47.893"
           id="path890"
           inkscape:connector-curvature="0" /></g><g
         transform="scale(1.2883)"
         id="g896"><path
           d="m 16039,8919.5 c 8.6,-150.52 456,-53.25 510.9,24.1 54.8,77.36 -91.1,186.62 -179.7,213.9 -88.7,27.27 -336,-155.94 -331.2,-238"
           id="path894"
           inkscape:connector-curvature="0" /></g></g></g></svg>