<?xml version="1.0" encoding="UTF-8" standalone="no"?>
<!-- Created with Inkscape (http://www.inkscape.org/) -->

<svg
   xmlns:dc="http://purl.org/dc/elements/1.1/"
   xmlns:cc="http://creativecommons.org/ns#"
   xmlns:rdf="http://www.w3.org/1999/02/22-rdf-syntax-ns#"
   xmlns:svg="http://www.w3.org/2000/svg"
   xmlns="http://www.w3.org/2000/svg"
   xmlns:sodipodi="http://sodipodi.sourceforge.net/DTD/sodipodi-0.dtd"
   xmlns:inkscape="http://www.inkscape.org/namespaces/inkscape"
   width="33.866665mm"
   height="33.866665mm"
   viewBox="0 0 33.866665 33.866665"
   version="1.1"
   id="svg15509"
   inkscape:version="0.92.3 (2405546, 2018-03-11)"
   sodipodi:docname="pillar.svg">
  <defs
     id="defs15503" />
  <sodipodi:namedview
     id="base"
     pagecolor="#ffffff"
     bordercolor="#666666"
     borderopacity="1.0"
     inkscape:pageopacity="0.0"
     inkscape:pageshadow="2"
     inkscape:zoom="0.35"
     inkscape:cx="-777.42857"
     inkscape:cy="-424.57143"
     inkscape:document-units="mm"
     inkscape:current-layer="layer1"
     showgrid="false"
     inkscape:window-width="1366"
     inkscape:window-height="703"
     inkscape:window-x="0"
     inkscape:window-y="0"
     inkscape:window-maximized="1" />
  <metadata
     id="metadata15506">
    <rdf:RDF>
      <cc:Work
         rdf:about="">
        <dc:format>image/svg+xml</dc:format>
        <dc:type
           rdf:resource="http://purl.org/dc/dcmitype/StillImage" />
        <dc:title></dc:title>
      </cc:Work>
    </rdf:RDF>
  </metadata>
  <g
     inkscape:label="Layer 1"
     inkscape:groupmode="layer"
     id="layer1"
     transform="translate(-200.78095,-2.6321437)">
    <g
       transform="matrix(0.26458333,0,0,0.26458333,-36.289944,-234.43452)"
       id="g1070">
      <circle
         cx="960.01599"
         cy="960"
         r="60.125"
         id="circle1064"
         style="fill:#4f5560" />
      <path
         d="m 1016.469,958.148 h -4.078 l -3.938,1.164 -2.633,-1.164 -0.313,-3.824 -0.766,-8.942 -4.271,-10.345 -5.147,-4.279 -1.607,-1.838 4.135,-5.92 3.377,-1.592 2.772,3.192 5.42,5.752 4.729,9.453 1.177,8.711 z m -25.311,11.514 1.389,-5.412 0.313,-8.469 -2.402,-7.469 6.783,-2.812 4.397,2.401 1.326,6.21 0.402,5.887 -1.021,9.334 -1.987,4.76 -2.547,0.641 -5.068,-2.101 z m 8.565,7.707 -2.082,5.943 -5.75,5.188 -1.494,2.381 -4.131,4.744 -4.655,2.844 -3.47,0.219 -2.121,-2.274 -2.743,-6.625 7.325,-4.51 7.353,-7.341 2.563,-3.625 3.731,0.789 z m -35.707,-72.828 4.947,-0.316 12.797,3.645 8.631,3.341 6.234,5.81 0.643,3.109 -6.172,6.173 -3.744,-3.106 -6.93,-4.256 -4.844,-0.625 -8.713,-3.646 -3.978,-0.42 -1.021,-2.956 0.356,-4.208 z m -7.168,-0.936 1.316,1.354 -0.023,7.708 -2.498,1.698 -6.938,0.26 -8.271,3.334 -8.541,7.291 -2.956,1.051 -1.169,-2.801 -4.909,-3.278 -0.529,-2.301 3.564,-3.421 6.526,-3.773 5.849,-1.31 10.096,-3.733 z m -38.043,17.803 7.023,4.967 0.486,2.544 h 0.002 l -3.609,4.433 -4.063,6.873 -3.441,8.275 -0.992,9.648 h -10.648 l 0.261,-3.894 4.271,-16.498 4.984,-10.069 z m -15.242,40.444 2.767,-0.914 4.25,0.914 h 3.633 l 0.289,3.642 3.049,11.809 3.177,7.615 2.581,2.55 1.931,3.417 -0.875,2.15 -3.219,3.22 -3.38,1.745 -4.813,-4.5 -2.969,-7.297 -3.164,-7.2 -1.056,-8.628 z m 54.601,54.601 -12.928,-1.932 -8.428,-3.025 -5.074,-2.613 -5.81,-3.869 -2.348,-3.201 0.246,-3.003 3.219,-3.219 4.348,-0.841 8.921,6.653 8.577,3.078 7.388,1.208 1.889,1.811 z m -13.037,-18.282 0.777,-1.879 -0.076,-1.479 -0.813,-0.041 -3.323,4.503 -3.677,-1.337 -5.25,-5.5 -5,-1.375 -1.918,-4.426 0.855,-2.074 -3.375,-1.875 -3.021,-5.317 5.767,-2.388 0.315,-0.92 -2.305,-0.103 -4.43,1.835 -2.39,-8.598 -0.599,-7.197 0.852,-9.688 2.063,-4.125 2.881,-0.822 6.207,2.572 -1.15,5.75 0.188,6.313 1.188,6.063 0.924,0.273 -0.659,-6.336 -0.019,-5.813 1.875,-5.875 3.052,-4.985 -0.802,-0.515 -1.563,1.688 -2.375,1.313 -4.162,-1.17 -3.213,-1.33 -0.353,-3.055 2.164,-6.07 5.701,-4.903 5.814,-4.855 5.899,-2.803 2.087,0.173 1.938,4.68 1.277,-1.371 -2.265,-5.466 8.232,-2.952 4.492,0.069 6.819,-0.444 7.563,1.844 3.762,3.221 -1.543,3.729 0.219,1.311 0.929,0.373 1.428,-3.446 2.229,-1.759 7.916,2.791 6.08,6.79 5.357,5.396 2.02,6.067 -3.094,1.28 -6.051,1.059 -4.068,-3.972 -3.787,-4.389 -3.016,-1.359 -0.594,0.537 2.803,2.504 6.555,9.773 2.409,11.934 -1.279,8.799 -2.766,8.326 -7.043,6.55 -10.062,6.075 -8.625,1.667 -4.301,0.021 -0.36,0.908 3.577,0.263 7.5,-0.441 3.166,-0.875 2.945,3.797 1.275,3.082 -0.287,2.638 -7.101,2.631 -7.875,-0.089 -10.514,-1.393 z m 16.74,18.282 -1.103,-3.766 1.103,-4.271 v -2.612 l 12.272,-2.616 12.063,-4.125 4.893,-5.363 4.129,5.217 3.384,2.295 -2.968,3.227 -2.188,3.563 -21.875,8.5 z m 39.36,-17.861 -7.512,-7.512 5.82,-7.832 5.055,-9.01 -0.285,-4.829 1.517,-7.559 7.758,-1.852 2.891,1.852 0.047,7.337 -2.125,4.688 -3.836,13.576 -4.289,4.941 z M 960.016,896 c -35.348,0 -64,28.654 -64,64 0,35.346 28.652,64 64,64 35.347,0 64,-28.654 64,-64 0,-35.346 -28.655,-64 -64,-64 z"
         id="path1066"
         inkscape:connector-curvature="0" />
      <path
         d="m 939.559,958.221 c 0.144,-0.597 0.881,-0.932 1.646,-0.748 0.765,0.185 1.27,0.817 1.127,1.414 -0.145,0.599 -0.881,0.933 -1.646,0.748 -0.765,-0.184 -1.272,-0.817 -1.127,-1.414 z m 9.754,30.383 c -0.629,0.369 -1.735,-0.484 -2.475,-1.907 -0.736,-1.418 -0.822,-2.869 -0.193,-3.238 0.63,-0.364 1.738,0.49 2.476,1.912 0.736,1.418 0.824,2.869 0.192,3.233 z m 16.519,-13.065 c -0.389,-0.679 0.752,-2.389 1.902,-3.345 1.141,-0.958 1.858,-0.798 2.252,-0.117 0.387,0.681 0.026,1.773 -1.117,2.73 -1.146,0.957 -2.65,1.41 -3.037,0.732 z m -33.016,-0.062 c 0,-0.496 0.399,-0.897 0.895,-0.897 0.496,0 0.895,0.401 0.895,0.897 0,0.492 -0.399,0.894 -0.895,0.894 -0.496,0 -0.895,-0.402 -0.895,-0.894 z m 41.809,-36.028 c 0,-0.701 0.572,-1.271 1.271,-1.271 0.7,0 1.271,0.57 1.271,1.271 0,0.699 -0.57,1.268 -1.271,1.268 -0.699,0 -1.271,-0.569 -1.271,-1.268 z m -14.035,5.403 c 1.078,0.92 1.377,2.339 0.67,3.168 -0.707,0.828 -2.156,0.759 -3.233,-0.161 -1.082,-0.923 -1.38,-2.343 -0.673,-3.173 0.709,-0.83 2.156,-0.756 3.236,0.166 z m -7.834,26.299 c -0.168,0.72 -0.598,1.221 -1.352,1.149 -1.019,-0.095 -1.107,0.104 -2.494,0.102 -1.435,-0.004 -3.432,-2.18 -3.412,-3.822 0.012,-1.174 0.645,-2.629 1.932,-3.113 0.814,-0.307 1.594,-0.41 2.211,-0.35 0.66,0.063 1.813,0.615 2.017,1.75 0.365,2.051 1.287,3.465 1.098,4.284 z m -8.414,-35.884 c -0.701,0 -1.271,-0.567 -1.271,-1.27 0,-0.703 0.569,-1.273 1.271,-1.273 0.702,0 1.273,0.57 1.273,1.273 0,0.701 -0.572,1.27 -1.273,1.27 z m 22.888,-6.483 c -0.519,0 -0.938,-0.415 -0.938,-0.936 0,-0.515 0.42,-0.936 0.938,-0.936 0.518,0 0.936,0.421 0.936,0.936 0,0.521 -0.418,0.936 -0.936,0.936 z m 9.03,29.144 c -1.041,0.271 -2.051,-0.137 -2.254,-0.922 -0.205,-0.781 0.471,-1.633 1.512,-1.906 1.035,-0.274 2.039,0.14 2.246,0.918 0.205,0.785 -0.469,1.636 -1.504,1.91 z m 5.605,18.965 c -0.664,0 -1.199,-0.532 -1.199,-1.192 0,-0.656 0.535,-1.195 1.199,-1.195 0.66,0 1.19,0.539 1.19,1.195 0.002,0.658 -0.53,1.192 -1.19,1.192 z m -44.72,-35.138 c -0.016,-0.845 0.5,-1.54 1.164,-1.552 0.656,-0.013 1.207,0.662 1.226,1.508 0.016,0.84 -0.513,1.533 -1.168,1.546 -0.666,0.013 -1.207,-0.661 -1.222,-1.502 z"
         id="path1068"
         inkscape:connector-curvature="0" />
    </g>
  </g>
</svg>
