<?xml version="1.0" encoding="UTF-8" standalone="no"?>
<!-- Created with Inkscape (http://www.inkscape.org/) -->

<svg
   xmlns:dc="http://purl.org/dc/elements/1.1/"
   xmlns:cc="http://creativecommons.org/ns#"
   xmlns:rdf="http://www.w3.org/1999/02/22-rdf-syntax-ns#"
   xmlns:svg="http://www.w3.org/2000/svg"
   xmlns="http://www.w3.org/2000/svg"
   xmlns:sodipodi="http://sodipodi.sourceforge.net/DTD/sodipodi-0.dtd"
   xmlns:inkscape="http://www.inkscape.org/namespaces/inkscape"
   width="29.805321mm"
   height="29.805321mm"
   viewBox="0 0 29.805321 29.80532"
   version="1.1"
   id="svg3597"
   inkscape:version="0.92.3 (2405546, 2018-03-11)"
   sodipodi:docname="barrel_side.svg">
  <defs
     id="defs3591" />
  <sodipodi:namedview
     id="base"
     pagecolor="#ffffff"
     bordercolor="#666666"
     borderopacity="1.0"
     inkscape:pageopacity="0.0"
     inkscape:pageshadow="2"
     inkscape:zoom="1.979899"
     inkscape:cx="-22.686317"
     inkscape:cy="23.307949"
     inkscape:document-units="mm"
     inkscape:current-layer="layer1"
     showgrid="false"
     inkscape:window-width="1366"
     inkscape:window-height="703"
     inkscape:window-x="0"
     inkscape:window-y="0"
     inkscape:window-maximized="1" />
  <metadata
     id="metadata3594">
    <rdf:RDF>
      <cc:Work
         rdf:about="">
        <dc:format>image/svg+xml</dc:format>
        <dc:type
           rdf:resource="http://purl.org/dc/dcmitype/StillImage" />
        <dc:title></dc:title>
      </cc:Work>
    </rdf:RDF>
  </metadata>
  <g
     inkscape:label="Layer 1"
     inkscape:groupmode="layer"
     id="layer1"
     transform="translate(11.878853,-90.348713)">
    <g
       transform="matrix(0.25272051,0,0,0.25272051,-142.54361,89.267252)"
       id="Barrel-Side">
      <path
         d="m 573.671,113.339 c -5.262,0 -10.749,-1.228 -16.052,-2.415 -1.095,-0.245 -2.187,-0.49 -3.275,-0.724 -0.362,-0.079 -0.722,-0.162 -1.077,-0.245 -1.339,-0.312 -2.724,-0.634 -4.155,-0.634 -2.414,0 -4.427,0.926 -6.158,2.833 -0.384,0.422 -0.799,0.611 -1.348,0.611 -0.598,0 -1.337,-0.224 -2.137,-0.645 -0.938,-0.497 -1.893,-0.96 -2.849,-1.424 -1.336,-0.65 -2.601,-1.263 -3.815,-1.962 -0.452,-0.26 -0.848,-0.564 -1.078,-0.777 0.083,-6.022 -4.548,-7.883 -6.948,-8.628 -0.096,-0.249 -0.176,-0.571 -0.173,-0.734 0.465,-7.969 -0.451,-15.868 -1.338,-23.505 -0.389,-3.349 -0.79,-6.811 -1.063,-10.208 -0.502,-6.21 -0.183,-12.669 0.127,-18.915 0.11,-2.238 0.221,-4.475 0.298,-6.709 0.069,-2.013 0.85,-3.222 2.534,-3.918 l 0.957,-0.386 c 3.34,-1.332 5.592,-2.336 6.417,-4.093 0.527,-1.127 0.567,-2.376 0.604,-3.477 0.014,-0.438 0.034,-1.097 0.103,-1.306 0.217,-0.654 0.741,-1.527 2.889,-2.464 0.845,-0.369 1.79,-0.827 2.777,-1.306 2.443,-1.186 5.485,-2.663 7.199,-2.724 l 0.264,-0.004 c 0.813,0 0.948,0.1 1.346,0.396 0.441,0.329 1.108,0.827 2.199,1.083 0.382,0.09 0.771,0.135 1.16,0.135 1.426,0 2.55,-0.6 3.454,-1.083 0.389,-0.208 0.756,-0.404 1.086,-0.521 7.408,-2.612 14.6,-4.118 22.63,-4.737 1.695,-0.13 3.152,-0.193 4.45,-0.193 1.891,0 3.069,0.133 4.212,0.264 0.821,0.094 1.579,0.177 2.45,0.206 1.815,0.057 4.264,0.291 6.629,0.518 2.655,0.253 5.164,0.493 6.823,0.493 1.241,0 2.173,-0.117 2.9,-0.671 0.137,-0.043 0.469,-0.112 0.968,-0.112 0.983,0 1.773,0.263 2.09,0.507 0.696,0.538 1.731,1.165 2.933,1.89 1.962,1.184 4.403,2.659 6.084,4.185 0.204,0.184 0.226,0.204 0.218,0.94 -0.009,1.025 -0.03,3.154 2.486,4.402 3.179,1.576 5.981,4.191 6.25,5.829 1.73,10.679 3.413,22.008 3.32,32.778 -0.088,10.043 -0.246,18.3 -0.498,25.983 -0.145,4.373 -2.197,6.757 -6.872,7.976 -3.896,1.015 -4.604,3.676 -4.514,5.73 0.054,1.192 -0.008,1.731 -1.991,2.023 -2.567,0.378 -5.258,1.143 -7.771,2.215 -2.124,0.905 -4.926,1.587 -6.519,1.587 -0.175,0 -0.294,-0.009 -0.366,-0.018 -1.192,-0.794 -2.347,-1.182 -3.52,-1.182 -0.223,0 -0.439,0.014 -0.657,0.042 -2.643,0.338 -5.402,0.811 -8.073,1.268 -5.232,0.896 -10.645,1.822 -15.601,1.825 z"
         id="path113"
         inkscape:connector-curvature="0"
         style="fill:#6e533b" />
      <path
         d="m 605.998,16.263 c 0,0 -10.881,17.962 -10.095,42.871 0.787,24.909 6.293,51.13 6.293,51.13 l 15.077,-4.196 c 0,0 -9.782,-19.086 -9.439,-43.919 0.342,-24.833 5.77,-37.234 8.129,-39.463 z"
         id="path115"
         inkscape:connector-curvature="0"
         style="fill:#656668" />
      <path
         d="m 535.727,25.375 c 0,0 8.26,17.306 6.884,37.069 -1.376,19.764 -10.127,44.051 -10.127,44.051 l 10.47,5.659 c 0,0 8.802,-31.027 10.965,-49.119 2.164,-18.092 -4.511,-38.726 -7.669,-41.888 z"
         id="path117"
         inkscape:connector-curvature="0"
         style="fill:#656668" />
      <path
         d="m 530.485,29.898 c 0.593,-1.263 0.22,-3.361 0.604,-4.529 0.538,-1.627 1.856,-2.836 4.133,-3.831 3.202,-1.396 7.857,-4.111 10.803,-4.219 2.944,-0.106 2.735,1.142 4.407,1.535 1.673,0.394 2.882,-0.854 4.429,-1.399 8.513,-3.002 16.145,-4.314 23.21,-4.859 7.064,-0.544 8.585,0.181 11.357,0.27 4.97,0.159 14.069,1.546 14.931,0.784 0.86,-0.762 4.144,-0.85 5.793,0.422 1.647,1.274 6.273,3.577 9.152,6.19 2.037,1.85 -0.206,3.804 2.188,4.99 2.919,1.447 6.994,4.514 7.479,7.495 1.748,10.781 3.445,22.211 3.352,33.163 -0.075,8.68 -0.214,17.362 -0.498,26.038 -0.181,5.442 -2.986,8.639 -8.565,10.093 -1.887,0.492 -2.911,1.453 -2.822,3.437 0.123,2.752 -1.197,3.965 -3.924,4.367 -2.458,0.361 -4.926,1.083 -7.213,2.059 -3.313,1.412 -7.785,2.242 -8.874,1.477 -1.09,-0.767 -1.979,-0.988 -2.787,-0.885 -7.741,0.99 -16.217,3.107 -23.959,3.111 -6.609,0.001 -13.267,-1.782 -19.813,-3.189 -3.377,-0.727 -6.364,-1.904 -9.237,1.261 -1.678,1.85 -4.019,1.608 -6.219,0.447 -2.229,-1.177 -4.555,-2.171 -6.735,-3.425 -0.92,-0.528 -2.276,-1.563 -2.233,-2.292 0.271,-4.373 -2.246,-6.014 -5.896,-7.083 -0.646,-0.187 -1.257,-1.891 -1.202,-2.854 0.654,-11.254 -1.5,-22.276 -2.399,-33.405 -0.691,-8.562 0.126,-17.253 0.419,-25.883 0.091,-2.63 1.188,-4.798 3.932,-5.933 2.056,-0.854 5.594,-2.089 6.187,-3.353 z m 12.174,76.254 c -0.447,0.819 -4.582,-1.708 -5.466,-2.003 -0.886,-0.295 -0.09,-3.011 1.091,-3.454 1.18,-0.442 0.851,-1.78 2.753,-1.387 1.902,0.393 2.069,6.023 1.622,6.844 z m 77.4,-19.747 c 3.704,-0.427 8.261,-3.409 5.967,-4.753 -2.294,-1.343 -6.478,2.34 -8.157,2.656 -0.965,0.183 -4.004,0.359 -4.724,1.178 -0.722,0.819 -0.264,2.95 0.982,2.852 1.245,-0.099 2.227,-1.508 5.932,-1.933 z m -40.141,19.713 c -2.797,0.14 -5.583,0.695 -8.218,-0.984 4.004,-1.328 8.104,-0.867 12.066,-2.792 3.492,-1.696 11.378,-1.042 12.446,-1.836 1.067,-0.794 0.17,-6.631 -0.578,-7.416 -0.748,-0.785 -6.354,-1.379 -7.55,2.412 -0.696,2.211 -2.485,1.861 -4.074,1.908 -7.178,0.217 -14.318,-1.04 -21.556,-0.172 -1.992,0.238 -4.137,0.977 -6.242,0.871 -1.306,-0.066 -2.306,-0.326 -3.824,-1.492 -1.518,-1.168 -4.998,0.677 -3.976,2.406 1.021,1.727 10.032,2.601 10.587,4.292 0.555,1.693 1.653,2.972 2.638,3.603 1.966,1.257 4.792,0.736 7.166,0.913 4.724,0.349 9.482,0.279 14.228,0.236 1.865,-0.017 4.646,-0.425 5.695,-1.409 1.049,-0.983 -6.032,-0.679 -8.808,-0.54 z m 27.458,-22.402 c 0.59,-0.983 -1.154,-8.194 -1.607,-13.208 -0.126,-1.386 -0.354,-2.79 -0.255,-4.165 0.344,-4.733 0.736,-9.465 1.25,-14.182 0.317,-2.902 0.1,-4.551 -1.519,-5.546 -1.618,-0.996 -2.154,-4.105 -0.733,-5.025 1.421,-0.92 2.656,-2.034 3.32,-3.443 1.536,-3.265 1.567,-8.198 3.484,-10.804 1.917,-2.606 -1.035,-5.729 -3.467,-6.293 -2.586,-0.601 -3.353,1.287 -4.01,3.223 -2.024,5.977 -4.781,16.164 -4.004,21.924 0.479,3.546 3.323,11.271 1.445,12.597 -1.877,1.323 -2.418,0.785 -1.627,8.702 0.194,1.95 -0.021,3.936 0.125,5.892 0.454,6.125 0.776,12.274 1.568,18.358 0.535,4.088 3.074,3.25 3.582,4.557 0.507,1.307 0.049,4.454 -1.163,6.078 -1.213,1.625 -1.854,3.807 -0.521,4.247 2.287,0.754 9.668,-1.18 10.29,-2.328 0.623,-1.146 -1.336,-4.271 -2.252,-4.938 -1.338,-0.973 -1.937,-2.131 -2.221,-3.357 -0.438,-1.89 0.242,-4.789 -0.114,-5.339 -0.358,-0.55 -1.805,-0.527 -2.305,-0.556 -0.966,-0.057 -2.563,0.223 -2.589,-1.08 -0.023,-1.303 1.219,-0.773 1.237,-2.518 0.02,-1.745 1.496,-1.813 2.086,-2.796 z M 557.502,58.667 c -0.146,3.146 0.647,3.532 3.79,4.221 3.144,0.688 13.82,0.167 16.913,-0.197 3.092,-0.364 3.902,-2.189 5.904,-2.956 0.96,-0.369 2.164,-0.106 3.258,-0.117 5.759,-0.057 7.522,-1.751 7.234,-7.284 -0.142,-2.698 -0.271,-5.824 -0.973,-8.058 -0.702,-2.234 -15.679,-4.514 -23.493,-3.451 -4.11,0.559 -11.626,2.274 -12.09,4.953 -0.462,2.68 -0.396,9.743 -0.543,12.889 z m -3.856,26.572 c 3.221,0.805 16.475,0.8 24.512,1.146 0.496,0.021 1.222,-0.215 1.481,-0.585 1.835,-2.601 3.835,-1.114 5.951,-0.487 2.642,0.783 5.883,1.946 7.229,1.648 1.348,-0.298 1.363,-4.185 1.372,-6.915 0.011,-4.234 -0.37,-8.698 -1.112,-10.303 -0.415,-0.898 -1.188,-1.75 -2.573,-2.182 -1.384,-0.433 -9.521,-0.702 -13.606,0.966 -3.082,1.257 -6.184,2.165 -9.332,3.061 -4.18,1.191 -10.203,1.034 -12.271,3.394 -2.068,2.36 -4.87,9.452 -1.651,10.257 z m -0.504,-59.298 c -1.239,2.483 0.902,6.238 1.479,7.729 0.576,1.492 1.587,3.12 3.723,2.742 2.137,-0.378 11.561,-2.568 13.941,-3.116 2.382,-0.547 -0.47,-2.218 2.578,-2.907 3.048,-0.688 20.246,-0.639 21.774,-1.647 1.528,-1.008 2.519,-5.187 1.581,-7.498 -0.938,-2.311 -8.169,-2.43 -11.937,-2.344 -4.995,0.114 -9.962,0.473 -14.896,1.304 -6.134,1.036 -17.003,3.254 -18.243,5.737 z m -8.041,10.049 c 1.133,1.403 -2.183,4.8 -0.668,7.568 0.92,1.682 0.444,3.245 2.031,5.15 1.587,1.903 2.197,2.746 -0.051,5.892 -2.248,3.148 0.458,9.2 -1.583,15.045 -0.575,1.647 -0.167,4.675 0.495,5.686 0.662,1.009 2.391,0.662 3.121,0.596 0.729,-0.066 1.394,-5.359 2.024,-7.771 3.286,-12.542 2.69,-24.872 -2.104,-36.931 -0.588,-1.481 -1.481,-5.153 -2.756,-5.801 -1.218,-0.618 -5.151,0.614 -5.408,2.04 -0.257,1.426 1.518,4.588 2.04,5.703 0.992,2.12 2.116,1.903 2.859,2.823 z m 67.248,6.513 c -1.215,2.054 -2.736,20.501 -0.054,20.91 2.686,0.409 3.64,0.327 5.273,0.281 5.316,-0.151 6.646,-1.424 6.042,-6.528 -0.522,-4.406 -1.232,-11.403 -1.896,-13.083 -0.663,-1.682 -8.15,-3.634 -9.365,-1.58 z m -73.541,22.622 c 1.149,-0.648 1.372,-4.743 1.369,-7.08 -0.003,-3.05 0.198,-9.619 -1.628,-9.233 -1.827,0.385 -3.461,1.306 -5.158,1.937 -2.013,0.749 -4.605,1.478 -5.527,2.715 -0.922,1.237 -1.233,3.807 -0.946,5.697 0.336,2.22 0.722,5.357 2.321,6.186 1.598,0.825 8.419,0.424 9.569,-0.222 z m 73.814,16.54 c 1.206,0.141 4.31,0.177 7.437,-0.997 2.344,-0.879 5.093,-2.833 4.902,-3.747 -0.444,-2.136 -2.927,-4.479 -5.104,-5.846 -3.725,-2.335 -8.022,-3.008 -8.708,-2.197 -1.086,1.286 -0.637,12.538 1.473,12.787 z M 538.894,69.683 c -0.084,-0.847 -6.851,0.124 -8.181,0.579 -1.033,0.353 -1.384,1.201 -0.221,2.065 1.163,0.863 4.256,0.376 5.205,1.327 0.95,0.951 -1.671,1.993 -2.238,2.544 -1.086,1.054 -5.874,-0.138 -5.499,2.323 0.189,1.246 0.374,2.936 2.853,4.032 2.479,1.095 4.852,1.682 6.187,1.406 1.335,-0.275 1.897,-6.109 1.899,-8.208 -10e-4,-2.023 0.08,-5.222 -0.005,-6.068 z m -2.73,-33.971 c -1.32,-0.243 -7.972,2.016 -8.5,5.101 -0.193,1.142 -1.008,4.965 0.836,5.556 1.844,0.59 5.848,-0.16 8.541,-1.112 2.693,-0.953 2.2,-1.975 1.268,-5.033 -0.934,-3.06 -0.826,-4.27 -2.145,-4.512 z m 45.363,58.102 c 3.362,-0.543 -4.727,-2.951 -8.145,-3.005 -3.587,-0.055 -18.089,1.825 -16.564,2.707 1.523,0.882 10.66,0.298 14.65,0.298 3.397,0 6.697,0.544 10.059,0 z m 31.256,-57.859 c 0.623,1.417 3.454,2.198 4.963,2.678 1.658,0.527 3.562,0.327 3.829,-1.876 0.135,-1.127 -0.299,-2.722 -1.082,-3.467 -1.152,-1.099 -2.275,-2.475 -4.534,-2.515 -2.258,-0.041 -3.798,3.764 -3.176,5.18 z m 2.556,58.84 c 1.018,2.163 6.076,1.996 7.342,1.671 1.422,-0.366 3.509,-3.999 3.572,-5.67 0.064,-1.672 -3.584,-1.976 -6.521,-0.229 -2.938,1.746 -5.411,2.065 -4.393,4.228 z m -75.235,1.426 c 0.122,0.782 2.212,1.082 3.44,1.524 1.229,0.442 1.461,-3.985 2.101,-6.296 0.64,-2.311 0.345,-2.839 -1.277,-2.692 -1.623,0.147 -2.248,0.63 -3.428,3.334 -1.182,2.704 -1.022,2.948 -0.836,4.13 z m 4.669,-9.735 c 1.523,0.442 1.313,-0.966 1.378,-2.212 0.064,-1.246 0.977,-2.715 1.048,-4.164 0.07,-1.449 -2.841,-0.847 -3.263,0.042 -0.421,0.888 -0.982,2.647 -1.229,4.171 -0.245,1.524 0.542,1.72 2.066,2.163 z m -15.471,5.795 c -1.772,0.112 -3.421,3.104 -1.244,4.136 2.178,1.032 4.18,2.434 5.557,2.016 1.376,-0.418 2.304,-2.813 1.864,-4.259 -0.44,-1.444 -4.404,-2.005 -6.177,-1.893 z m 4.265,-0.977 c 2.177,0.313 3.086,-0.163 3.101,-1.062 0.014,-0.899 0.089,-2.24 -1.311,-3.097 -1.4,-0.856 -4.576,-2.236 -5.924,-2.282 -1.347,-0.046 -1.258,2.535 -0.885,3.392 0.373,0.857 2.842,2.736 5.019,3.049 z"
         id="path119"
         inkscape:connector-curvature="0" />
      <path
         d="m 569.394,78.786 c 2.323,-1.461 6.646,-1.258 9.468,-1.69 3.279,-0.504 7.016,-0.762 9.162,-1.167 2.146,-0.406 0.897,1.647 -1.084,2.506 -1.981,0.857 -7.047,1.678 -10.702,1.716 -2.214,0.022 -9.168,0.095 -6.844,-1.365 z"
         id="path121"
         inkscape:connector-curvature="0" />
      <path
         d="m 578.729,101.218 c 1.184,1.132 -1.506,1.52 -2.426,1.395 -1.751,-0.236 -3.492,-0.55 -5.215,-1.001 -1.419,-0.372 -2.965,-0.659 -4.217,-1.427 -1.252,-0.769 3.469,-0.834 5.204,-0.873 2.352,-0.052 5.471,0.775 6.654,1.906 z"
         id="path123"
         inkscape:connector-curvature="0" />
    </g>
  </g>
</svg>
