<?xml version="1.0" encoding="UTF-8" standalone="no"?>
<!-- Created with Inkscape (http://www.inkscape.org/) -->

<svg
   xmlns:dc="http://purl.org/dc/elements/1.1/"
   xmlns:cc="http://creativecommons.org/ns#"
   xmlns:rdf="http://www.w3.org/1999/02/22-rdf-syntax-ns#"
   xmlns:svg="http://www.w3.org/2000/svg"
   xmlns="http://www.w3.org/2000/svg"
   xmlns:sodipodi="http://sodipodi.sourceforge.net/DTD/sodipodi-0.dtd"
   xmlns:inkscape="http://www.inkscape.org/namespaces/inkscape"
   width="26.124929mm"
   height="25.506382mm"
   viewBox="0 0 26.124929 25.506382"
   version="1.1"
   id="svg2992"
   inkscape:version="0.92.3 (2405546, 2018-03-11)"
   sodipodi:docname="barrel_top.svg">
  <defs
     id="defs2986" />
  <sodipodi:namedview
     id="base"
     pagecolor="#ffffff"
     bordercolor="#666666"
     borderopacity="1.0"
     inkscape:pageopacity="0.0"
     inkscape:pageshadow="2"
     inkscape:zoom="1.979899"
     inkscape:cx="-2.0737059"
     inkscape:cy="6.053417"
     inkscape:document-units="mm"
     inkscape:current-layer="layer1"
     showgrid="false"
     inkscape:window-width="1366"
     inkscape:window-height="703"
     inkscape:window-x="0"
     inkscape:window-y="0"
     inkscape:window-maximized="1" />
  <metadata
     id="metadata2989">
    <rdf:RDF>
      <cc:Work
         rdf:about="">
        <dc:format>image/svg+xml</dc:format>
        <dc:type
           rdf:resource="http://purl.org/dc/dcmitype/StillImage" />
        <dc:title></dc:title>
      </cc:Work>
    </rdf:RDF>
  </metadata>
  <g
     inkscape:label="Layer 1"
     inkscape:groupmode="layer"
     id="layer1"
     transform="translate(-57.997059,-72.580142)">
    <g
       transform="matrix(0.25104931,0,0,0.25104931,-41.410411,69.266419)"
       id="Barrel-Top">
      <path
         d="m 448.162,107.051 c -7.016,-0.001 -13.048,-1.026 -17.934,-3.051 -7.883,-3.267 -10.768,-5.259 -14.627,-8.767 -4,-3.635 -5.857,-6.32 -8.647,-12.489 l -0.405,-0.889 c -1.512,-3.327 -3.077,-6.767 -3.775,-10.535 -1.604,-8.662 0.557,-17.529 6.422,-26.356 6.629,-9.975 16.613,-17.771 30.527,-23.832 3.797,-1.654 7.946,-2.493 12.325,-2.493 6.313,0 12.825,1.814 18.337,5.11 7.762,4.639 14.667,12.124 17.478,17.12 3.098,5.508 5.707,10.804 6.267,19.852 0.604,9.748 -2.226,20.124 -7.564,27.758 -5.356,7.661 -13.047,11.861 -19.146,14.665 -6.22,2.859 -7.883,3.31 -13.687,3.707 -1.958,0.134 -3.781,0.2 -5.571,0.2 z"
         id="path82"
         inkscape:connector-curvature="0"
         style="fill:#656668" />
      <path
         d="m 450.995,95.103 c -1.277,0 -2.589,-0.052 -3.899,-0.155 -6.989,-0.549 -10.957,-1.109 -15.98,-2.976 -6.829,-2.535 -18.228,-9.276 -17.852,-25.954 0.133,-10.411 2.979,-17.077 9.52,-22.306 1.484,-1.187 2.958,-2.393 4.433,-3.6 2.744,-2.245 5.581,-4.567 8.455,-6.729 4.632,-3.483 9.224,-5.177 14.035,-5.177 2.801,0 5.656,0.555 8.728,1.697 9.884,3.676 16.519,9.434 20.283,17.604 3.486,7.562 5.031,14.916 4.466,21.266 -0.733,8.301 -4.622,15.253 -11.242,20.107 -5.635,4.13 -12.682,6.223 -20.947,6.223 z"
         id="path84"
         inkscape:connector-curvature="0"
         style="fill:#6e533b" />
      <path
         d="m 456.885,61.725 c -1.156,0 -2.291,-0.388 -3.277,-1.121 -1.711,-1.268 -2.659,-3.572 -2.951,-5.159 -0.541,-2.938 0.871,-5.671 3.682,-7.132 0.984,-0.51 2.074,-0.698 3.035,-0.864 0.32,-0.055 0.64,-0.11 0.953,-0.177 0.699,-0.151 1.371,-0.228 1.998,-0.228 1.768,0 3.219,0.625 4.087,1.759 0.63,0.823 1.25,2.292 0.622,4.614 -0.838,3.101 -1.596,4.024 -2.862,5.388 -0.17,0.183 -0.351,0.378 -0.545,0.595 -1.335,1.499 -3.019,2.325 -4.742,2.325 z"
         id="path86"
         inkscape:connector-curvature="0"
         style="fill:#877b6b" />
      <path
         d="m 452.257,112.105 c -10.548,0.566 -20.453,-1.4 -29.512,-5.766 -11.399,-5.492 -18.459,-14.627 -21.476,-26.894 -0.359,-1.47 -0.411,-3.032 -0.896,-4.451 -3.502,-10.288 -1.327,-20.155 2.967,-29.481 2.063,-4.48 5.489,-8.6 9.097,-12.051 8.157,-7.809 20.141,-13.777 27.432,-15.644 7.291,-1.867 10.775,-2.208 15.755,-1.939 3.415,0.186 10.741,2.117 17.499,6.384 6.756,4.268 11.259,10.485 15.054,15.423 3.795,4.938 8.833,15.327 9.16,24.582 0.321,9.07 -1.766,17.617 -5.495,25.729 -3.371,7.337 -8.981,12.767 -16.097,16.612 -1.115,0.603 -2.199,1.26 -3.295,1.896 -6.481,3.74 -9.644,5.035 -20.193,5.6 z m 38.292,-51.162 c -0.533,-8.625 -3.115,-13.521 -5.812,-18.316 -2.697,-4.796 -9.298,-11.68 -16.192,-15.799 -8.169,-4.884 -18.7,-6.194 -27.39,-2.408 -11.506,5.013 -21.907,11.895 -28.976,22.529 -4.675,7.036 -7.487,15.046 -5.882,23.718 0.679,3.654 2.37,7.168 3.922,10.601 2.622,5.795 4.255,8.096 7.794,11.313 3.541,3.218 6.077,4.996 13.588,8.108 7.511,3.112 16.568,2.951 21.887,2.586 5.318,-0.364 6.523,-0.671 12.433,-3.387 5.909,-2.716 12.925,-6.626 17.707,-13.463 5.005,-7.158 7.455,-16.857 6.921,-25.482 z"
         id="path88"
         inkscape:connector-curvature="0" />
      <path
         d="m 411.824,65.986 c 0.116,-9.183 2.281,-17.18 10.059,-23.398 4.299,-3.438 8.501,-7.03 12.921,-10.355 7.418,-5.579 15.095,-7.038 24.13,-3.678 9.533,3.545 16.875,9.208 21.09,18.351 3.182,6.901 5.248,14.62 4.593,21.996 -0.73,8.254 -4.545,15.803 -11.826,21.141 -8.36,6.128 -18.34,6.927 -25.808,6.341 -7.469,-0.586 -11.359,-1.2 -16.37,-3.062 -10.896,-4.044 -19.111,-13.058 -18.789,-27.336 z m 63.655,7.271 c -2.756,2.045 -3.669,2.729 -4.046,2.268 -0.377,-0.462 7.225,-6.78 8.537,-8.803 1.312,-2.023 0.978,-5.068 -0.268,-7.469 -1.246,-2.401 -3.069,-1.215 -5.424,-0.178 -4.143,1.825 -7.298,4.802 -11.114,6.491 -3.475,1.539 -8.423,6.242 -10.806,7.985 -1.777,1.301 -7.222,3.983 -5.131,2.036 2.091,-1.948 10.425,-9.132 10.201,-10.288 -0.222,-1.155 -3.729,-1.216 -5.442,-2.14 -4.18,-2.256 -6.033,-7.025 -4.583,-10.959 2.327,-6.323 10.805,-10.043 16.941,-7.22 1.179,0.542 2.873,3.118 3.507,6.199 0.635,3.081 -0.999,6.473 0.203,7.007 1.2,0.534 8.931,-6.413 8.442,-7.902 -0.487,-1.488 -0.437,-3.614 -1.375,-5.352 -4.693,-8.678 -14.146,-10.198 -21.239,-3.516 -4.018,3.785 -7.948,7.672 -12.127,11.269 -7.092,6.106 -14.383,11.977 -21.515,18.036 -2.651,2.251 -2.763,3.647 -0.987,6.553 0.526,0.86 1.249,1.599 1.802,2.446 1.8,2.765 4.223,4.863 7.88,3.984 2.912,-0.7 4.321,-0.314 7.333,-0.444 2.366,-0.103 4.904,-3.409 6.564,-3.646 1.66,-0.237 -3.703,6.817 -4.09,8.299 -0.388,1.481 10.633,3.035 12.284,3.016 1.938,-0.022 3.428,-1.441 6.674,-4.526 0.718,-0.681 1.921,-0.652 2.795,-1.054 0.543,-0.249 4.4,-4.268 4.757,-3.646 0.357,0.622 -4.898,6.467 -6.117,8.184 6.239,-0.909 11.363,-2.894 14.722,-6.8 1.989,-2.311 3.91,-6.585 4.421,-7.763 0.512,-1.179 3.067,-5.936 1.444,-4.491 -1.62,1.447 -1.487,0.379 -4.243,2.424 z M 455.224,35.572 c 0.294,-1.481 -4.597,-2.846 -6.829,-2.947 -2.87,-0.129 -5.677,0.922 -8.452,2.091 -8.446,3.563 -13.97,10.692 -19.833,17.201 -1.524,1.691 -2.668,4.002 -3.152,6.561 -0.409,2.169 -0.828,4.109 0.905,4.376 1.733,0.267 13.979,-4.95 20.584,-9.956 5.971,-4.524 16.485,-15.844 16.777,-17.326 z m 8.419,17.469 c 0.916,-3.386 -1.237,-5.176 -5.015,-4.362 -1.221,0.262 -2.549,0.353 -3.626,0.911 -2.193,1.14 -3.369,3.209 -2.93,5.594 0.283,1.545 1.181,3.365 2.394,4.264 2.06,1.528 4.454,0.829 6.086,-1.004 1.422,-1.599 2.175,-2.016 3.091,-5.403 z"
         id="path90"
         inkscape:connector-curvature="0" />
      <path
         d="m 429.555,69.967 c 0.326,0.247 -1.037,2.5 -3.267,4.335 -1.588,1.305 -4.676,2.683 -5.517,2.598 -0.841,-0.086 2.15,-4.498 4.661,-4.897 2.513,-0.401 3.568,-2.458 4.123,-2.036 z"
         id="path92"
         inkscape:connector-curvature="0" />
      <path
         d="m 426.023,52.268 c 1.675,-0.854 4.379,-2.551 5.016,-1.793 0.637,0.756 -5.848,3.722 -7.987,4.816 -2.14,1.095 1.295,-2.167 2.971,-3.023 z"
         id="path94"
         inkscape:connector-curvature="0" />
    </g>
  </g>
</svg>
