<?xml version="1.0" encoding="UTF-8" standalone="no"?>
<!-- Created with Inkscape (http://www.inkscape.org/) -->

<svg
   xmlns:dc="http://purl.org/dc/elements/1.1/"
   xmlns:cc="http://creativecommons.org/ns#"
   xmlns:rdf="http://www.w3.org/1999/02/22-rdf-syntax-ns#"
   xmlns:svg="http://www.w3.org/2000/svg"
   xmlns="http://www.w3.org/2000/svg"
   xmlns:sodipodi="http://sodipodi.sourceforge.net/DTD/sodipodi-0.dtd"
   xmlns:inkscape="http://www.inkscape.org/namespaces/inkscape"
   width="32.814682mm"
   height="26.261164mm"
   viewBox="0 0 32.814682 26.261164"
   version="1.1"
   id="svg10344"
   inkscape:version="0.92.3 (2405546, 2018-03-11)"
   sodipodi:docname="chest.svg">
  <defs
     id="defs10338" />
  <sodipodi:namedview
     id="base"
     pagecolor="#ffffff"
     bordercolor="#666666"
     borderopacity="1.0"
     inkscape:pageopacity="0.0"
     inkscape:pageshadow="2"
     inkscape:zoom="0.35"
     inkscape:cx="62.011995"
     inkscape:cy="49.627414"
     inkscape:document-units="mm"
     inkscape:current-layer="layer1"
     showgrid="false"
     inkscape:window-width="1366"
     inkscape:window-height="703"
     inkscape:window-x="0"
     inkscape:window-y="0"
     inkscape:window-maximized="1" />
  <metadata
     id="metadata10341">
    <rdf:RDF>
      <cc:Work
         rdf:about="">
        <dc:format>image/svg+xml</dc:format>
        <dc:type
           rdf:resource="http://purl.org/dc/dcmitype/StillImage" />
        <dc:title></dc:title>
      </cc:Work>
    </rdf:RDF>
  </metadata>
  <g
     inkscape:label="Layer 1"
     inkscape:groupmode="layer"
     id="layer1"
     transform="translate(21.321031,-135.70276)">
    <g
       transform="matrix(0.26458333,0,0,0.26458333,-191.18255,-206.76622)"
       id="Chest">
      <path
         d="m 686.62,1390.354 c -0.803,0 -1.186,-0.086 -1.33,-0.131 -0.142,-0.242 -0.504,-1.099 -0.769,-3.771 -0.057,-0.578 -0.014,-1.331 0.031,-2.128 0.056,-0.946 0.117,-2.012 0.036,-3.137 l 0.004,-0.063 c 0.368,-5.593 -4.224,-6.629 -5.146,-6.779 -0.595,-0.098 -1.251,-0.145 -2.009,-0.145 -2.713,0 -6.146,0.626 -7.791,1.047 -1.483,0.379 -2.551,1.326 -3.491,2.163 -0.084,0.074 -0.186,0.163 -0.284,0.251 -1.1,0.109 -1.87,0.152 -2.677,0.198 -1.14,0.065 -2.316,0.133 -4.3,0.375 -4.021,0.485 -8.006,1.08 -11.854,1.768 l -0.074,-2.033 c -0.178,-4.825 -0.354,-9.648 -0.565,-14.47 -0.079,-1.833 -0.197,-3.665 -0.314,-5.497 -0.219,-3.395 -0.426,-6.6 -0.396,-9.841 0.039,-3.716 0.346,-7.517 0.616,-10.87 0.109,-1.366 0.215,-2.653 0.292,-3.831 l 0.019,-0.271 -0.508,-8.828 c -0.404,-6.98 -0.786,-13.572 -1.11,-20.106 -0.076,-1.524 0.162,-2.47 0.879,-3.49 1.357,-1.933 3.001,-2.802 3.736,-2.802 0.618,0.055 1.313,0.08 2.165,0.08 1.69,0 3.847,-0.104 5.931,-0.201 1.965,-0.095 3.996,-0.189 5.517,-0.195 1.322,3.01 4.057,3.582 5.725,3.632 2.693,0.079 7.119,0.159 12.243,0.251 10.402,0.188 23.351,0.422 31.908,0.813 8.179,0.372 16.39,0.761 20.601,0.969 4.225,0.209 5.861,0.442 6.648,0.557 0.563,0.081 1.237,0.164 1.967,0.164 2.812,0 5.021,-1.27 6.393,-3.618 2.121,0.159 4.283,0.382 6.385,0.6 1.396,0.145 2.795,0.289 4.194,0.416 2.067,0.191 3.168,0.464 3.724,0.656 0.078,1.504 -0.032,4.154 -0.307,6.967 -0.666,6.901 -1.105,12.939 -1.344,18.461 -0.312,7.197 -0.483,14.572 -0.528,22.547 -0.013,2.253 0.136,4.447 0.279,6.569 0.117,1.736 0.229,3.377 0.255,5.02 0.035,2.363 -0.006,4.815 -0.046,7.188 -0.036,2.123 -0.073,4.317 -0.058,6.497 0.006,0.896 0.09,1.837 0.252,2.812 -0.796,-0.036 -1.591,-0.069 -2.387,-0.069 -0.697,0 -1.335,0.022 -1.947,0.072 -5.156,0.42 -9.443,0.905 -13.464,1.527 -0.741,-1.123 -2.203,-2.813 -4.484,-3.269 -2.328,-0.464 -4.611,-0.598 -6.82,-0.728 -1.432,-0.085 -2.783,-0.164 -4.078,-0.329 -0.468,-0.059 -0.884,-0.087 -1.276,-0.087 -3.232,0 -5.604,2.067 -6.188,5.396 l -0.051,0.287 c -0.238,1.365 -0.484,2.778 -0.591,4.28 -0.354,4.972 -1.984,4.972 -3.563,4.972 -0.257,0 -0.521,-0.013 -0.799,-0.034 -1.419,-0.117 -2.88,-0.331 -4.294,-0.537 -2.217,-0.324 -4.547,-0.482 -7.119,-0.482 -3.855,0 -7.688,0.358 -11.396,0.705 -1.78,0.167 -3.561,0.335 -5.337,0.46 -0.395,0.026 -0.761,0.042 -1.105,0.042 z"
         id="path79"
         inkscape:connector-curvature="0"
         style="fill:#6e533b" />
      <path
         d="m 721.386,1377.63 c -2.313,-1.75 -34.688,-3.438 -36.5,-1.188 -1.812,2.25 -2.375,11.063 0.813,13.188 3.188,2.125 31.352,1.125 32.77,-0.313 1.418,-1.438 5.229,-9.937 2.917,-11.687 z"
         id="path81"
         inkscape:connector-curvature="0"
         style="fill:#656668" />
      <path
         d="m 647.386,1301.255 c -2.389,2.999 -2,71.191 1.5,75.533 3.5,4.342 15.375,4.147 16.625,-1.067 1.25,-5.214 2.125,-71.966 1.25,-75.591 -0.875,-3.625 -16.987,-1.874 -19.375,1.125 z"
         id="path83"
         inkscape:connector-curvature="0"
         style="fill:#656668" />
      <path
         d="m 748.261,1301.63 c -2.563,2.563 -7,26.229 -7.75,37.428 -0.75,11.197 -1.625,37.197 2.25,39.697 3.875,2.5 19.375,1.5 19.25,-2.25 -0.125,-3.75 -0.375,-63.625 0.5,-69.75 0.875,-6.125 -12.125,-7.25 -14.25,-5.125 z"
         id="path85"
         inkscape:connector-curvature="0"
         style="fill:#656668" />
      <path
         d="m 699.692,1361.141 c -3.601,0.167 -4.729,0.241 -6.25,0.245 -0.289,10e-4 -2.666,0 -3.761,0.058 -2.957,0.144 -5.92,0.337 -8.879,0.519 -0.723,0.045 -5.119,0.315 -5.985,0.582 -0.867,0.268 -2.658,1.592 -2.601,2.063 0.059,0.472 1.24,0.021 3.148,0.23 1.909,0.211 7.164,-0.686 10.713,-0.993 0.484,-0.042 7.438,-0.302 8.734,-0.563 1.295,-0.261 2.604,-0.775 4.172,-0.716 2.114,0.081 4.272,-0.026 6.364,0.143 0.57,0.046 10.269,0.371 12.176,0.495 1.906,0.125 4.857,0.248 4.908,-0.176 0.05,-0.426 -4.36,-0.97 -6.797,-1.251 -2.434,-0.282 -3.033,-0.438 -5.678,-0.479 -2.639,-0.038 -6.666,-0.324 -10.264,-0.157 z"
         id="path87"
         inkscape:connector-curvature="0" />
      <path
         d="m 765.847,1301.439 c -0.418,-2.312 -3.967,-3.035 -7.414,-3.354 -3.854,-0.354 -7.696,-0.834 -11.565,-1.079 -0.789,-0.049 -2.23,0.521 -2.42,1.106 -0.861,2.688 -2.486,2.643 -4.308,2.381 -1.016,-0.146 -2.776,-0.378 -6.896,-0.581 -4.12,-0.203 -12.152,-0.584 -20.15,-0.948 -12.662,-0.58 -35.434,-0.813 -43.227,-1.043 -2.748,-0.08 -1.438,-2.395 -2.75,-3.241 -1.313,-0.846 -12.246,0.349 -15.844,0.021 -2.512,-0.229 -5.523,1.572 -7.617,4.555 -1.416,2.016 -1.746,3.98 -1.642,6.109 0.443,8.918 0.988,17.819 1.568,28.047 -0.266,4.004 -0.842,9.334 -0.896,14.616 -0.048,5.099 0.479,10.145 0.698,15.221 0.244,5.543 0.439,11.091 0.644,16.64 0.114,3.129 1.487,4.204 4.227,3.702 4.053,-0.741 8.117,-1.35 12.182,-1.842 3.498,-0.426 4.173,-0.25 7.673,-0.651 0.889,-0.101 2.477,-2.139 3.383,-2.371 1.94,-0.496 5.897,-1.116 7.813,-0.804 1.914,0.313 1.341,1.836 1.406,2.606 0.15,1.762 -0.221,3.633 -0.047,5.386 0.621,6.3 2.123,8.053 7.729,7.658 7.468,-0.528 14.994,-1.784 22.384,-0.702 1.485,0.217 2.969,0.432 4.467,0.556 5.621,0.464 8.469,-2.389 8.928,-8.829 0.094,-1.339 0.338,-2.684 0.57,-4.02 0.289,-1.646 1.164,-1.819 2.5,-1.65 3.422,0.434 6.979,0.313 10.354,0.983 0.713,0.142 1.438,0.935 1.82,1.67 0.877,1.679 2.049,1.872 3.772,1.602 4.373,-0.687 8.761,-1.146 13.138,-1.501 2.219,-0.178 4.43,0.115 6.649,0.1 1.99,-0.016 2.543,-1.079 1.943,-3.183 -0.361,-1.27 -0.621,-2.646 -0.629,-4.006 -0.031,-4.465 0.166,-8.955 0.1,-13.414 -0.059,-3.759 -0.543,-7.473 -0.521,-11.232 0.041,-7.281 0.196,-14.577 0.512,-21.876 0.256,-5.932 0.726,-11.877 1.299,-17.813 0.137,-1.427 0.583,-6.508 0.167,-8.819 z m -115.563,1.085 c 1.166,-0.714 8.541,-1.652 9.082,-0.357 0.542,1.295 -10.625,19.295 -10.875,18.313 -0.25,-0.982 -0.448,-5.319 -0.203,-6.264 0.679,-2.626 0.408,-5.693 -0.005,-7.047 -0.413,-1.352 0.834,-3.931 2.001,-4.645 z m 9.477,25.546 c 1.199,-1.223 3.247,-3.395 3.72,-3.024 0.471,0.369 0.021,3.611 0.071,5.396 0.201,7.122 0.711,14.047 0.332,21.029 -0.145,2.645 -0.17,9.048 0.357,11.188 0.526,2.139 -2,8.631 -3.5,10.239 -1.5,1.607 -4.201,2.326 -5.74,2.204 -2.114,-0.169 -4.221,-1.536 -4.662,-3.771 -0.764,-3.86 0.008,-7.256 -0.412,-10.845 -0.418,-3.589 -0.303,-7.311 -0.428,-10.973 -0.188,-5.623 -0.342,-11.254 -0.592,-16.866 -0.101,-2.227 -0.504,-4.405 -0.597,-6.634 -0.026,-0.678 0.427,-1.521 0.832,-2.153 2.777,-4.32 7.625,-11.942 8.408,-12.901 0.783,-0.959 1.633,-2.313 2.699,-2.99 1.066,-0.677 4.213,-3.621 5.074,-3.746 0.86,-0.126 0.545,4.749 0.565,5.899 0.021,1.15 -1.379,5.035 -2.364,7.407 -0.957,2.3 -2.621,5.327 -4.246,8.139 -2.353,4.071 -4.83,7.175 -4.527,7.973 0.303,0.797 2.336,-2.85 5.01,-5.571 z m 59.522,56.284 c -1.198,1.865 -2.144,2.438 -5.487,3.007 -3.346,0.566 -5.847,-0.115 -9.471,-0.042 -3.625,0.072 -7.357,0.699 -7.529,0.728 -0.849,0.137 -7.921,0.601 -8.68,0.104 -1.066,-0.696 -1.295,-1.202 -1.541,-2.366 -0.246,-1.168 -0.377,-3.051 -0.584,-4.914 -0.205,-1.862 0.936,-2.295 2.178,-2.758 3.535,-1.315 8.197,-1.042 10.603,-0.973 2.405,0.07 2.771,-0.108 5.591,0.187 2.818,0.294 4.38,1.042 7.63,1.087 3.25,0.045 5.102,0.243 6.459,0.225 1.356,-0.018 1.325,1.246 1.375,1.652 0.125,1.032 -0.02,3.25 -0.544,4.063 z m 19.375,-62.891 c -3.841,0.421 -21.333,1.503 -21.25,2.486 0.083,0.981 11.023,1.294 13.94,1.444 2.917,0.152 6.935,2.544 7.893,4.197 0.959,1.653 -0.578,8.702 -0.666,9.827 -0.06,0.765 -0.377,8.906 -0.551,10.253 -0.084,0.645 0.052,1.638 -3.033,1.722 -3.084,0.084 -7.958,-0.625 -7.75,0.209 0.209,0.832 6.084,1 6.834,1.791 0.75,0.791 2.469,1.051 2.666,1.875 0.459,1.918 0.366,8.905 0.875,10.709 0.51,1.803 0.875,6.005 0.417,7.211 -0.458,1.206 -3.121,0.78 -5.229,0.646 -2.106,-0.133 -3.408,-0.199 -5.854,-0.2 -2.446,-10e-4 -6.535,0.32 -10.584,0.313 -4.048,-0.01 -11.08,-0.445 -14.689,-0.381 -3.607,0.063 -9.129,-0.648 -11.227,-0.689 -2.099,-0.042 -5.423,-0.259 -6.934,-0.202 -1.337,0.051 -8.06,0.14 -10.064,0.033 -2.005,-0.105 -3.566,-1.104 -3.996,-2.105 -1.098,-2.549 -0.633,-13.595 -0.738,-15.639 -0.108,-2.151 0.933,-2.86 2.476,-2.869 1.828,-0.012 3.629,0.319 5.455,0.361 7.383,0.17 17.695,0.586 22.159,0.413 4.466,-0.173 7.977,-0.084 7.894,-0.932 -0.083,-0.849 -11.949,-0.743 -14.521,-1.025 -7.057,-0.779 -14.328,-0.219 -21.147,-2.505 -1.834,-0.615 -2.254,-1.233 -2.228,-3.46 0.021,-1.518 -0.188,-12.595 -0.369,-14.089 -0.172,-1.446 -0.03,-8.615 1.318,-9.213 1.316,-0.583 2.855,-0.831 5.336,-1.31 2.481,-0.479 6.688,-1.363 7.756,-1.383 2.781,-0.048 9.032,-0.237 11.813,-0.358 0.68,-0.031 2.269,-0.349 2.382,-0.882 0.113,-0.532 -8.143,-0.09 -9.539,-0.418 -1.396,-0.327 -7.838,-0.673 -10.346,-0.5 -2.508,0.173 -4.066,0.624 -6.072,0.569 -0.646,-0.016 -1.998,-1.078 -2.119,-3.155 -0.119,-2.077 -0.766,-8.792 -0.18,-9.586 0.584,-0.793 6.238,-0.049 10.231,-0.44 0.227,-0.127 4.002,-0.785 5.65,-0.739 0.195,-0.1 7.729,0.146 11.736,0.352 -0.021,0.064 7.6,0.563 8.721,0.677 2.09,0.211 11.284,-0.502 11.844,-0.315 0.733,-0.151 11.24,0.58 12.006,0.585 0.91,0.01 9.824,0.159 12.685,0.686 2.791,0.513 2.688,1.798 2.377,3.22 -0.313,1.422 -1.129,3.752 -1.375,5.27 -0.248,1.515 -0.162,7.125 -4.003,7.546 z m 21.156,-11.623 c -0.075,1.313 -0.795,12.038 -0.78,13.813 0.012,1.772 -0.492,12.688 -0.677,21.323 -0.106,5.013 0.414,11.123 0.773,14.955 0.359,3.832 0.258,10.09 0.422,11.714 0.164,1.626 0.863,4.721 -0.688,4.938 -1.551,0.217 -11.419,-0.371 -13.166,-0.27 -0.872,0.053 0.639,-2.472 1.791,-5.896 1.158,-3.436 3.5,-10.186 3.084,-11.257 -0.416,-1.072 -5.744,11.208 -7.334,10.095 -1.588,-1.114 -0.859,-18.923 -0.586,-25.475 0.096,-2.229 0.695,-4.679 1.253,-6.953 0.353,-1.449 0.962,-8.163 1.04,-10.135 0.021,-0.521 0.127,-3.623 0.752,-8.27 0.625,-4.647 1.697,-8.584 1.947,-10.013 0.25,-1.429 0.719,-4.188 1.594,-4.367 0.875,-0.179 8.584,0.708 9.813,0.846 1.232,0.14 0.838,3.638 0.762,4.952 z"
         id="path89"
         inkscape:connector-curvature="0" />
      <path
         d="m 730.167,1337.453 c -2.307,0.178 -8.928,-0.049 -13.375,0.01 -11.854,0.154 -34.35,0.492 -35.553,0.505 -1.203,0.015 -3.607,-0.249 -3.726,-0.629 -0.115,-0.381 2.832,-0.976 5.08,-1.022 2.248,-0.048 15.241,-0.209 23.85,-0.364 4.236,-0.076 8.442,-0.45 12.669,-0.379 3.765,0.063 9.509,0.666 12.416,0.914 2.907,0.245 0.942,0.786 -1.361,0.966 z"
         id="path91"
         inkscape:connector-curvature="0" />
      <path
         d="m 727.565,1311.261 c -6.326,-0.251 -6.173,0.923 -11.41,0.999 -6.912,0.101 -19.836,-0.621 -28.831,-0.621 -8.995,0 -10.651,-0.682 -10.919,-1.453 -0.263,-0.771 12.986,-0.524 14.455,-0.526 12.261,-0.02 32.534,-0.123 36.799,0.14 4.267,0.263 6.233,1.712 -0.094,1.461 z"
         id="path93"
         inkscape:connector-curvature="0" />
      <path
         d="m 702.528,1369.313 c -0.041,-0.875 5.275,-1.237 9.047,-1.418 2.922,-0.141 6.644,-0.661 10.334,0.25 3.688,0.912 12.244,-0.627 12.494,0.248 0.25,0.875 -16.209,2.11 -19.416,1.401 -3.209,-0.709 -12.416,0.394 -12.459,-0.481 z"
         id="path95"
         inkscape:connector-curvature="0" />
    </g>
  </g>
</svg>
