<?xml version="1.0" encoding="UTF-8" standalone="no"?>
<!-- Created with Inkscape (http://www.inkscape.org/) -->

<svg
   xmlns:dc="http://purl.org/dc/elements/1.1/"
   xmlns:cc="http://creativecommons.org/ns#"
   xmlns:rdf="http://www.w3.org/1999/02/22-rdf-syntax-ns#"
   xmlns:svg="http://www.w3.org/2000/svg"
   xmlns="http://www.w3.org/2000/svg"
   xmlns:sodipodi="http://sodipodi.sourceforge.net/DTD/sodipodi-0.dtd"
   xmlns:inkscape="http://www.inkscape.org/namespaces/inkscape"
   width="29.988089mm"
   height="54.774048mm"
   viewBox="0 0 29.988089 54.774049"
   version="1.1"
   id="svg3751"
   inkscape:version="0.92.3 (2405546, 2018-03-11)"
   sodipodi:docname="desk_cluttered.svg">
  <defs
     id="defs3745" />
  <sodipodi:namedview
     id="base"
     pagecolor="#ffffff"
     bordercolor="#666666"
     borderopacity="1.0"
     inkscape:pageopacity="0.0"
     inkscape:pageshadow="2"
     inkscape:zoom="1.4"
     inkscape:cx="-12.232412"
     inkscape:cy="92.969591"
     inkscape:document-units="mm"
     inkscape:current-layer="layer1"
     showgrid="false"
     inkscape:window-width="1366"
     inkscape:window-height="703"
     inkscape:window-x="0"
     inkscape:window-y="0"
     inkscape:window-maximized="1" />
  <metadata
     id="metadata3748">
    <rdf:RDF>
      <cc:Work
         rdf:about="">
        <dc:format>image/svg+xml</dc:format>
        <dc:type
           rdf:resource="http://purl.org/dc/dcmitype/StillImage" />
        <dc:title></dc:title>
      </cc:Work>
    </rdf:RDF>
  </metadata>
  <g
     inkscape:label="Layer 1"
     inkscape:groupmode="layer"
     id="layer1"
     transform="translate(-102.17857,-144.12489)">
    <g
       transform="matrix(0,0.24434932,-0.24434932,0,445.57949,46.404088)"
       id="Table_Cluttered">
      <path
         d="m 413.698,1401.015 c 0.004,-0.315 0.005,-0.606 -0.004,-0.858 -0.135,-3.594 -0.093,-6.776 0.129,-9.728 0.149,-2.011 0.296,-9.424 0.213,-10.864 -0.289,-5.011 -0.145,-10.194 -0.004,-15.207 0.146,-5.213 0.297,-10.603 -0.019,-15.995 -0.144,-2.462 0.067,-5.001 0.291,-7.689 0.2,-2.412 0.408,-4.907 0.36,-7.47 -0.119,-6.608 -4.387,-7.596 -6.921,-7.596 -0.521,0 -1.087,0.037 -1.729,0.112 -0.111,-0.266 -0.225,-0.53 -0.339,-0.798 -0.711,-1.665 -1.445,-3.386 -1.432,-4.533 0.044,-3.493 0.546,-7.004 1.077,-10.72 0.172,-1.204 0.344,-2.407 0.5,-3.609 0.623,-4.805 1.356,-10.068 2.246,-16.095 0.35,-2.371 0.579,-2.991 3.929,-2.991 l 0.201,10e-4 c 0.175,0.01 1.525,0.078 3.581,0.187 6.919,0.363 21.315,1.118 29.271,1.394 11.467,0.395 20.835,0.578 29.482,0.578 h 0.354 c 4.912,0 9.875,-0.123 14.674,-0.238 4.826,-0.116 9.816,-0.236 14.702,-0.236 1.556,0 3.109,0.013 4.665,0.04 6.615,0.117 13.405,0.573 19.974,1.015 3.619,0.242 7.363,0.494 11.06,0.688 3.602,0.188 12.031,0.206 17.609,0.218 2.141,0 3.832,0.01 4.594,0.021 l 3.595,0.06 c 7.332,0.122 14.257,0.237 21.454,0.237 1.876,0 3.761,-0.01 5.662,-0.026 4.974,-0.047 10.384,-0.181 16.242,-0.836 0.696,-0.078 1.304,-0.115 1.852,-0.115 2.229,0 2.51,0.595 2.63,0.848 0.865,1.819 0.535,4.313 0.187,6.955 -0.104,0.774 -0.204,1.543 -0.28,2.298 -0.722,7.16 -1.353,14.438 -1.96,21.479 -0.281,3.247 -0.563,6.495 -0.854,9.742 -0.28,3.144 -0.578,6.285 -0.876,9.428 l -0.32,3.405 c -0.05,0.215 -0.088,0.417 -0.113,0.619 -0.728,5.921 2.689,9.741 10.157,11.367 0.118,0.898 0.174,2.392 0.217,3.558 0.103,2.766 -0.48,7.094 -1.045,11.28 -0.328,2.436 -0.639,4.735 -0.835,6.841 -0.091,0.976 -0.188,1.954 -0.285,2.935 -0.604,6.108 -1.229,12.427 -0.616,18.897 0.01,0.104 0.016,0.196 0.018,0.276 -0.019,0 -0.035,0 -0.055,0 -0.186,0 -0.395,-0.016 -0.62,-0.046 -2.636,-0.346 -5.227,-0.411 -7.732,-0.476 -1.484,-0.038 -2.887,-0.073 -4.284,-0.164 -1.927,-0.127 -27.482,-0.515 -30.629,-0.525 -1.736,-0.01 -4.468,-0.067 -7.361,-0.136 -3.804,-0.088 -8.115,-0.188 -11.438,-0.188 -1.452,0 -2.604,0.019 -3.52,0.057 -1.126,0.047 -2.297,0.07 -3.579,0.07 -1.986,0 -3.992,-0.058 -5.934,-0.11 -1.996,-0.057 -4.059,-0.114 -6.157,-0.114 -1.567,0 -3,0.032 -4.381,0.099 -2.732,0.129 -5.562,0.166 -8.297,0.202 -2.194,0.028 -4.387,0.058 -6.576,0.131 -2.525,0.085 -5.047,0.206 -7.567,0.328 -3.64,0.176 -7.402,0.357 -11.077,0.415 -1.155,0.018 -2.313,0.023 -3.469,0.023 -2.25,0 -4.505,-0.025 -6.758,-0.053 -2.287,-0.027 -4.574,-0.054 -6.858,-0.054 -1.458,0 -2.915,0.011 -4.371,0.039 -3.132,0.062 -6.251,0.273 -9.269,0.479 -2.447,0.167 -4.979,0.34 -7.439,0.424 -0.688,0.023 -1.376,0.033 -2.066,0.033 -1.986,0 -3.964,-0.079 -6.059,-0.163 l -2.09,-0.081 c -0.854,-0.03 -1.705,-0.044 -2.554,-0.044 -3.09,0 -6.125,0.184 -9.059,0.359 -2.938,0.177 -5.711,0.344 -8.543,0.344 -0.714,0 -1.431,-0.011 -2.151,-0.035 -0.385,-0.014 -0.858,-0.02 -1.4,-0.02 -2.801,0 -7.371,0.162 -11.999,0.345 -0.002,-0.01 -0.002,-0.011 -0.002,-0.014 z"
         id="path98"
         inkscape:connector-curvature="0"
         style="fill:#6e533b" />
      <path
         d="m 576.134,1290.265 c 1.477,1.048 0.011,8.753 -4.534,15.063 -4.08,5.665 -11.295,9.946 -10.119,11.632 2.49,3.558 2.181,8.217 0.81,10.151 -2.921,4.12 -9.368,6.523 -15.825,1.378 -6.457,-5.147 -7.21,-10.125 -4.291,-14.245 1.824,-2.573 9.08,-6.048 11.936,-4.284 1.323,0.818 3.374,-7.484 7.917,-12.383 5.253,-5.665 13.042,-8.066 14.106,-7.312 z m -106.782,58.512 27.032,16.076 6.423,-11.545 25.799,-1.511 c 0,0 1.25,-40.538 -1.875,-43.313 -3.125,-2.775 -22.188,0.909 -22.188,0.909 0,0 -9.007,-6.663 -12.813,-4.784 -3.806,1.88 -22.378,44.168 -22.378,44.168 z"
         id="path100"
         inkscape:connector-curvature="0"
         style="fill:#f2f2f2" />
      <path
         d="m 490.175,1365.298 c -1.979,-1.257 -3.936,-2.545 -5.942,-3.763 -5.154,-3.124 -10.445,-6.067 -15.455,-9.38 -3.098,-2.048 -3.225,-3.961 -1.696,-7.095 3.411,-6.99 6.611,-14.077 10.142,-21.012 2.228,-4.372 4.935,-8.521 7.352,-12.809 0.834,-1.478 1.853,-3.003 2.07,-4.618 0.431,-3.187 2.661,-4.897 5.366,-6.139 0.889,-0.407 2.84,-0.105 3.609,0.555 5.798,4.969 12.594,5.95 19.855,5.369 2.533,-0.202 5.049,-0.521 7.582,-0.695 3.545,-0.241 7.677,3.163 7.73,6.366 0.123,7.432 0.094,14.861 0.337,22.296 0.182,5.535 0.652,11.077 1.08,16.616 0.2,2.59 -1.354,3.947 -4.257,3.624 -7.859,-0.873 -15.338,0.628 -22.787,2.207 -0.645,0.136 -1.321,0.785 -1.604,1.364 -0.943,1.93 -1.747,3.923 -2.539,5.916 -0.41,1.031 -0.543,1.953 1.314,1.855 5.81,-0.306 11.628,-0.54 17.441,-0.816 2.041,-0.098 4.074,-0.329 6.12,-0.298 0.505,0.01 1.583,0.687 1.554,1.232 -0.03,0.549 -1.063,0.646 -1.623,0.669 -8.861,0.378 -17.719,0.786 -26.592,1.024 -11.916,0.32 -23.836,0.676 -35.772,0.667 -5.751,-0.01 -11.543,-0.863 -17.318,-1.215 -1.939,-0.119 -3.913,0.367 -5.821,0.117 -1.079,-0.143 -2.198,-1.143 -3.081,-1.884 -0.882,-0.742 2.028,-1.097 3.025,-1.029 10.468,0.71 20.931,1.796 31.396,2.253 6.005,0.263 12.011,-0.441 18.016,-0.712 0.167,-0.218 0.334,-0.442 0.498,-0.665 z m -17.303,-18.206 c 0.745,0.729 1.374,1.652 2.27,2.176 5.91,3.445 11.955,6.695 17.788,10.25 2.251,1.37 3.147,0.734 3.948,-1.039 5.661,-12.537 12.659,-24.396 20.646,-35.733 0.972,-1.38 1.021,-2.159 -0.626,-2.967 -2.611,-1.28 -5.302,-2.443 -7.811,-3.882 -4.916,-2.819 -9.748,-5.77 -14.573,-8.722 -1.585,-0.969 -2.371,-0.669 -3.127,0.824 -4.885,9.652 -9.946,19.226 -14.739,28.918 -1.538,3.104 -2.436,6.497 -3.776,10.175 z m 43.855,3.844 c 1.536,-0.136 4.695,-0.271 7.037,-0.308 2.129,-0.035 2.955,-0.968 2.98,-2.771 0.04,-2.683 0.226,-5.359 0.121,-8.041 -0.345,-8.78 -0.916,-17.565 -1.146,-26.344 -0.097,-3.677 0.194,-3.659 -3.636,-3.353 -0.97,0.077 -8.288,0.628 -7.341,1.247 0.948,0.621 2.283,1.596 3.533,2.188 4.252,2.013 5.964,6.45 3.782,10.156 -3.863,6.566 -7.795,13.097 -11.607,19.688 -1.072,1.854 -1.981,3.819 -2.688,5.826 -0.574,1.636 0.208,2.605 2.301,2.368 2.217,-0.249 5.13,-0.523 6.664,-0.656 z"
         id="path102"
         inkscape:connector-curvature="0" />
      <path
         d="m 527.391,1370.1 c 1.44,-0.19 5.793,0.01 8.689,0 5.467,-0.017 10.933,-0.078 16.402,-0.055 5.138,0.021 10.301,0.342 15.414,0.138 3.968,-0.157 7.868,-0.956 11.814,-1.384 0.843,-0.092 2.297,0.015 2.63,0.296 0.332,0.281 -1.299,1.437 -2.064,1.521 -3.272,0.366 -6.579,0.605 -9.89,0.682 -8.78,0.197 -17.568,0.313 -26.358,0.406 -5.521,0.057 -15.991,0.01 -17.786,-0.04 -1.795,-0.051 -0.29,-1.372 1.149,-1.562 z"
         id="path104"
         inkscape:connector-curvature="0" />
      <path
         d="m 470.583,1385.757 c -0.405,0.314 -16.072,1.297 -24.164,1.217 -3.788,-0.038 -10.108,-0.073 -14.923,-0.179 -5.229,-0.114 -8.708,-0.143 -8.834,-0.747 -0.127,-0.604 2.556,-0.523 5.453,-0.523 2.897,0 13.283,-0.027 18.293,-0.176 8.031,-0.235 21.539,-1.053 23.922,-1.053 2.383,0 0.658,1.146 0.253,1.461 z"
         id="path106"
         inkscape:connector-curvature="0" />
      <path
         d="m 492.957,1390.457 c -1.044,0.178 -4.04,-0.049 -6.052,0.01 -5.364,0.154 -15.542,0.492 -16.086,0.505 -0.544,0.015 -1.634,-0.249 -1.687,-0.629 -0.052,-0.381 1.282,-0.976 2.299,-1.022 1.019,-0.047 6.896,-0.209 10.791,-0.364 1.917,-0.076 3.82,-0.45 5.732,-0.379 1.703,0.063 4.302,0.666 5.618,0.914 1.316,0.245 0.427,0.786 -0.615,0.966 z"
         id="path108"
         inkscape:connector-curvature="0" />
      <path
         d="m 603.393,1376.554 c -0.973,0.48 -5.141,0.415 -7.729,0.491 -3.416,0.1 -6.85,0.142 -10.272,0.042 -0.844,-0.025 -3.071,-0.528 -3.203,-1.3 -0.131,-0.772 2.088,-0.74 2.813,-0.742 6.06,-0.02 16.078,-0.123 18.187,0.14 2.106,0.264 1.175,0.888 0.204,1.369 z"
         id="path110"
         inkscape:connector-curvature="0" />
      <path
         d="m 447.985,1316.334 c 0.885,-0.762 3.79,-1.197 7.56,-1.377 2.922,-0.141 6.282,-0.099 9.343,0.16 2.707,0.228 7.489,0.59 7.353,1.398 -0.138,0.81 -10.74,0.695 -16.09,0.695 -2.639,0 -9.051,-0.113 -8.166,-0.876 z"
         id="path112"
         inkscape:connector-curvature="0" />
      <path
         d="m 595.813,1309.064 c 1.633,0 4.37,0.262 4.344,0.819 -0.026,0.56 -2.951,0.921 -3.829,1.035 -1.563,0.2 -3.814,0.382 -5.382,0.278 -1.235,-0.082 -4.454,-0.428 -4.564,-1.06 -0.111,-0.63 3.471,-0.672 4.524,-0.905 0.784,-0.172 3.276,-0.167 4.907,-0.167 z"
         id="path114"
         inkscape:connector-curvature="0" />
      <path
         d="m 572.857,1359.67 c -0.667,0.293 -7.702,-0.082 -8.646,-0.139 -0.942,-0.058 -1.64,-0.707 -0.378,-0.74 1.261,-0.034 8.161,-0.748 8.664,-0.35 0.503,0.398 1.027,0.936 0.36,1.229 z"
         id="path116"
         inkscape:connector-curvature="0" />
      <path
         d="m 560.966,1339.048 c -6.184,0.053 -22.672,0.01 -24.213,-0.447 -1.541,-0.459 -1.599,-1.579 2.019,-1.976 3.62,-0.396 17.125,0.082 19.75,0.65 2.624,0.57 8.628,1.719 2.444,1.773 z"
         id="path118"
         inkscape:connector-curvature="0" />
      <path
         d="m 624.071,1359.479 c -0.181,-4.823 -0.291,-6.947 -2.973,-7.486 -2.683,-0.539 -8.08,-1.478 -7.433,-6.745 0.021,-0.177 0.089,-0.347 0.106,-0.524 0.408,-4.357 0.829,-8.716 1.22,-13.076 0.93,-10.393 1.762,-20.796 2.809,-31.173 0.379,-3.769 1.44,-7.874 -0.302,-11.54 -1.553,-3.266 -5.179,-3.582 -8.864,-3.17 -5.39,0.604 -10.354,0.758 -15.803,0.811 -10.348,0.098 -20.235,-0.104 -30.6,-0.271 -2.729,-0.044 -17.175,0.022 -22.047,-0.231 -10.396,-0.546 -20.802,-1.523 -31.183,-1.708 -11.384,-0.203 -22.739,0.426 -34.121,0.435 -9.885,0.01 -19.789,-0.235 -29.685,-0.576 -10.492,-0.362 -32.46,-1.575 -32.951,-1.581 -5.321,-0.062 -7.735,1.812 -8.453,6.682 -0.793,5.383 -1.556,10.771 -2.256,16.168 -0.64,4.934 -1.549,9.862 -1.612,14.835 -0.03,2.558 1.389,5.239 2.411,7.79 0.664,1.66 2.201,2.121 4.137,1.888 3.071,-0.372 3.821,0.37 3.873,3.267 0.096,5.109 -0.942,10.221 -0.645,15.33 0.605,10.398 -0.579,20.797 0.021,31.197 0.067,1.17 -0.061,8.316 -0.208,10.297 -0.253,3.385 -0.265,6.805 -0.138,10.212 0.06,1.581 -0.563,5.224 3.723,5.053 4.287,-0.171 11.274,-0.441 13.851,-0.354 7.542,0.259 14.758,-0.896 22.3,-0.624 3.507,0.125 7.026,0.329 10.516,0.211 5.559,-0.189 11.083,-0.792 16.646,-0.901 7.135,-0.14 14.301,0.153 21.438,0.043 6.25,-0.097 12.477,-0.534 18.722,-0.745 4.973,-0.164 9.971,-0.101 14.936,-0.334 6.912,-0.329 13.109,0.346 20.024,0.058 4.952,-0.206 17.152,0.255 22.125,0.271 3.866,0.014 28.722,0.408 30.366,0.518 3.91,0.252 7.854,0.103 11.73,0.61 3.849,0.507 5.857,-1.362 5.521,-4.921 -0.667,-7.058 0.253,-14.085 0.901,-21.024 0.54,-5.775 2.077,-13.871 1.898,-18.692 z m -34.329,-67.425 c 5.721,0.171 11.448,0.238 17.149,0.099 2.572,-0.063 3.467,0.448 3.36,2.791 -0.313,6.971 -0.6,13.942 -0.852,20.919 -0.063,1.721 -0.529,2.756 -2.753,2.964 -9.083,0.851 -18.133,1.911 -27.204,2.836 -4.834,0.492 -13.567,1.255 -14.15,0.505 -0.583,-0.75 -0.898,-2.757 -1.884,-4.305 -0.898,-1.407 -0.784,-2.566 0.479,-3.697 0.727,-0.647 1.602,-1.126 2.374,-1.728 0.496,-0.385 1.708,-1.254 3.513,-1.311 1.804,-0.057 8.692,-0.426 9.897,-0.488 1.206,-0.063 4.147,-1.283 -0.971,-1.465 -2.386,-0.084 -6.965,-0.03 -7.368,-0.55 -0.402,-0.521 0.807,-1.556 1.548,-2.396 1.282,-1.454 2.392,-2.927 3.126,-4.276 1.104,-2.021 1.957,-4.35 2.414,-6.44 0.313,-1.438 0.084,-3.798 0.791,-3.798 0.71,-10e-4 6.416,0.216 10.531,0.34 z m -41.825,31.04 c 0.97,0.857 2.136,1.653 3.354,2.026 1.238,0.383 2.645,0.181 3.41,-1.224 0.362,-0.664 0.756,-1.33 0.984,-2.046 0.67,-2.099 1.542,-2.816 3.001,-2.342 1.466,0.476 2.05,1.999 1.209,4.478 -0.649,2.229 -2.146,4.588 -5.193,5.781 -1.383,0.541 -2.723,0.588 -3.801,-0.168 -2.445,-1.712 -4.957,-3.437 -7.019,-5.563 -2.902,-2.997 -1.337,-9.641 2.444,-11.445 0.816,-0.39 1.646,-0.791 2.518,-1.021 1.117,-0.297 3.146,0.969 3.476,2.047 0.412,1.34 -0.583,2.889 -2.05,2.996 -1.395,0.103 -2.748,0.24 -3.213,1.801 -0.497,1.675 -0.545,3.422 0.88,4.68 z m 10.296,-9.553 c -1.163,-0.73 -1.827,-1.648 -1.234,-2.963 1.778,-3.953 3.521,-7.932 5.545,-11.757 0.601,-1.138 2.068,-1.823 3.16,-2.688 2.039,-1.617 4.262,-2.938 6.792,-3.591 0.721,-0.184 1.755,-0.13 2.287,0.278 0.399,0.308 0.341,1.37 0.273,2.077 -0.069,0.754 -0.388,1.481 -0.599,2.223 -0.777,2.301 -1.884,4.408 -3.049,6.558 -2.192,4.047 -6.201,5.692 -9.291,8.514 -0.357,0.326 -0.887,0.498 -1.174,0.866 -0.787,1.008 -1.59,1.185 -2.71,0.483 z m 57.143,47.931 c -0.419,1.908 -1.416,9.396 -1.579,15.339 -0.165,5.94 -1.247,14.656 -2.06,16.995 -0.811,2.339 -6.052,2.222 -10.358,2.474 -4.311,0.251 -17.011,-0.181 -20.543,-0.181 -3.533,0 -6.493,-0.297 -8.732,-1.942 -2.584,-1.9 -6.31,-3.229 -9.563,-3.421 -4.693,-0.277 -9.45,0.503 -14.107,1.167 -9.104,1.295 -19.813,3.604 -24.98,4.377 -5.168,0.772 -9.577,0.693 -13.264,0.689 -16.168,-0.016 -32.812,0.416 -48.98,0.389 -8.146,-0.014 -33.654,0.988 -36.764,0.913 -3.108,-0.075 -8.017,-0.01 -8.107,-2.749 -0.107,-3.232 -0.036,-6.429 1.207,-9.758 0.726,-1.939 -0.667,-4.563 -0.812,-6.882 -0.296,-4.749 1.578,-5.512 1.57,-10.254 -0.004,-2.353 2.248,-4.08 5.141,-4.306 2.894,-0.227 1.868,-2.853 4.656,-3.386 3.123,-0.595 12.387,-1.746 15.733,-1.898 3.346,-0.152 11.446,0.07 11.467,-0.573 0.021,-0.645 -2.014,-1.503 -3.479,-2.041 -1.072,-0.396 -10.868,-0.787 -12.002,-0.858 -5.888,-0.366 -13.679,-0.721 -19.564,-0.891 -1.774,-0.052 -2.992,-1.76 -3.353,-3.09 -0.331,-1.22 0.308,-6.482 0.322,-7.713 0.053,-4.113 0.241,-8.22 0.408,-12.324 0.113,-2.806 2.148,-3.822 4.83,-3.963 5.661,-0.297 12.289,-0.57 17.967,-0.67 6.354,-0.111 12.725,0 19.085,-0.033 0.927,0 3.856,-0.126 3.831,-0.586 -0.027,-0.461 -6.139,-2.459 -9.271,-2.439 -4.984,0.029 -11.316,1.25 -14.012,-0.083 -2.694,-1.333 -7.183,-0.531 -9.929,-0.674 -2.746,-0.142 -12.618,-0.739 -19.268,-1.13 -2.085,-0.122 -3.153,-0.55 -3.206,-2.58 -0.05,-2.031 -0.063,-3.168 0.315,-4.408 2.067,-6.704 2.711,-13.612 2.909,-20.62 0.123,-4.426 0.38,-4.505 5.251,-4.69 3.072,-0.118 5.771,-0.179 7.953,2.928 1.766,2.517 8.042,1.79 14.081,1.653 6.038,-0.137 20.237,0.863 20.377,-0.215 0.14,-1.08 -12.553,-1.396 -13.308,-2.406 -0.753,-1.012 3.887,-0.843 9.096,-0.843 5.21,0 24.678,0.293 28.468,0.252 7.33,-0.077 14.675,0 21.981,-0.286 4.378,-0.174 8.718,-0.428 13.095,-0.51 7.021,-0.132 14.077,0.186 21.12,0.396 4.022,0.12 8.057,0.563 12.071,0.585 5.653,0.031 13.748,0.471 15.328,0.399 1.58,-0.072 0.647,0.644 0.331,0.852 -1.088,0.713 -2.396,1.094 -3.466,1.827 -0.994,0.679 -1.961,1.511 -2.66,2.479 -0.89,1.233 -1.504,2.67 -2.223,4.023 -0.785,1.48 -1.651,2.927 -2.312,4.463 -0.833,1.938 -1.258,2.868 -2.04,3.08 -0.683,0.186 -2.239,-0.656 -2.908,-0.768 -0.67,-0.112 -1.816,-0.016 -2.173,0 -0.007,0 -3.672,0.313 -4.682,0.313 -2.576,0 -4.322,0.59 -4.025,1.331 0.298,0.742 0.797,0.992 1.955,1.01 1.159,0.017 0.984,0.586 0.641,0.883 -4.807,4.139 -5.275,12.962 0.264,16.722 1.612,1.092 3.176,2.256 4.766,3.381 3.696,2.613 7.645,2.269 11.35,0.376 1.897,-0.97 3.844,-2.656 4.781,-4.518 0.467,-0.927 0.736,-2.293 1.611,-2.668 0.875,-0.375 10.494,-0.417 16.103,-0.516 3.726,-0.063 7.458,-0.043 11.179,-0.157 3.813,-0.118 7.607,-0.524 11.424,-0.482 3.479,0.039 5.215,2.967 4.101,4.503 -1.116,1.536 -4.208,2.543 -5.659,3.676 -1.732,1.354 -3.31,2.897 -4.778,4.495 -1.582,1.719 -0.868,2.942 1.46,3.701 2.198,0.718 5.201,1.087 4.472,4.462 -0.094,0.434 0.474,1.354 0.93,1.512 3.433,1.176 3.083,3.832 2.563,5.931 -0.564,2.283 -2.11,4.382 -5.197,4.608 -7.107,0.521 -12.587,0.981 -19.697,1.474 -0.584,0.041 -3.357,-0.062 -3.863,0.118 -0.62,0.221 -1.521,0.744 -1.354,1.224 0.164,0.479 1.525,0.518 2.166,0.486 7.106,-0.337 15.583,-0.851 21.088,-0.806 5.507,0.046 10.177,0.339 12.489,0.404 2.036,0.06 2.735,0.63 2.342,2.424 z"
         id="path120"
         inkscape:connector-curvature="0" />
    </g>
  </g>
</svg>
