<?xml version="1.0" encoding="UTF-8" standalone="no"?>
<!-- Created with Inkscape (http://www.inkscape.org/) -->

<svg
   xmlns:dc="http://purl.org/dc/elements/1.1/"
   xmlns:cc="http://creativecommons.org/ns#"
   xmlns:rdf="http://www.w3.org/1999/02/22-rdf-syntax-ns#"
   xmlns:svg="http://www.w3.org/2000/svg"
   xmlns="http://www.w3.org/2000/svg"
   xmlns:sodipodi="http://sodipodi.sourceforge.net/DTD/sodipodi-0.dtd"
   xmlns:inkscape="http://www.inkscape.org/namespaces/inkscape"
   width="56.335926mm"
   height="57.306854mm"
   viewBox="0 0 56.335926 57.306854"
   version="1.1"
   id="svg4895"
   inkscape:version="0.92.3 (2405546, 2018-03-11)"
   sodipodi:docname="throne.svg">
  <defs
     id="defs4889" />
  <sodipodi:namedview
     id="base"
     pagecolor="#ffffff"
     bordercolor="#666666"
     borderopacity="1.0"
     inkscape:pageopacity="0.0"
     inkscape:pageshadow="2"
     inkscape:zoom="0.35"
     inkscape:cx="-223.53841"
     inkscape:cy="128.29641"
     inkscape:document-units="mm"
     inkscape:current-layer="layer1"
     showgrid="false"
     inkscape:window-width="1366"
     inkscape:window-height="703"
     inkscape:window-x="0"
     inkscape:window-y="0"
     inkscape:window-maximized="1" />
  <metadata
     id="metadata4892">
    <rdf:RDF>
      <cc:Work
         rdf:about="">
        <dc:format>image/svg+xml</dc:format>
        <dc:type
           rdf:resource="http://purl.org/dc/dcmitype/StillImage" />
        <dc:title></dc:title>
      </cc:Work>
    </rdf:RDF>
  </metadata>
  <g
     inkscape:label="Layer 1"
     inkscape:groupmode="layer"
     id="layer1"
     transform="translate(-54.230846,-125.47157)">
    <g
       transform="matrix(0.26458333,0,0,0.26458333,-188.34182,120.07478)"
       id="Throne">
      <polygon
         points="942.461,29.36 922.282,29.36 922.282,142.198 960.248,180.28 992.507,181.824 994.199,207.511 1022.773,233.199 1048.859,213.784 1049.755,182.82 1082.646,180.28 1126.188,131.578 1125.896,27.96 1106.54,29.36 1103.089,24.05 944.85,24.05 "
         id="polygon227"
         style="fill:#adadaa" />
      <path
         d="m 942.526,133.635 c 0.776,6.917 26.482,24.493 26.482,24.493 l 54.163,0.796 55.954,-2.389 26.085,-26.683 1.328,-100.492 -3.451,-5.311 H 944.85 l -3.727,10.286 2.001,61.465 c 0,0.001 -1.376,30.919 -0.598,37.835 z"
         id="path229"
         inkscape:connector-curvature="0"
         style="fill:#e3e3ea" />
      <path
         d="m 1052.378,102.24 c 0,0 13.574,1.925 15.531,-1.759 1.958,-3.684 -4.912,-30.234 -4.912,-30.234 l -5.575,-2.921 8.23,-12.479 c 0,0 -14.406,-12.147 -40.091,-11.815 -25.685,0.333 -39.691,9.293 -39.691,9.293 l 5.707,12.346 c 0,0 -5.574,0.365 -7.699,3.053 -2.124,2.688 -5.348,30.684 -3.02,33.752 2.325,3.068 13.664,1.528 13.664,1.528 l 3.161,-11.518 51.905,3.054 z"
         id="path231"
         inkscape:connector-curvature="0"
         style="fill:#656668" />
      <polygon
         points="1047.2,170.076 1048.859,213.784 1022.509,232.203 993.967,208.574 993.967,170.076 996.622,92.814 1049.59,96.134 "
         id="polygon233"
         style="fill:#c6a724" />
      <path
         d="m 1040.631,97.859 -36.575,-2.058 c 0,0 -2.521,106.134 0.398,111.313 2.921,5.177 27.082,8.18 31.994,4.994 4.91,-3.186 2.92,-24.109 3.717,-40.172 0.797,-16.063 0.466,-74.077 0.466,-74.077 z"
         id="path235"
         inkscape:connector-curvature="0"
         style="fill:#c12552" />
      <path
         d="m 1129.668,33.291 c 0.313,4.624 -0.624,46.207 -0.204,72.51 0.144,8.952 -0.86,17.916 -0.63,26.867 0.037,1.495 -8.47,12.08 -11.166,15 -7.889,8.55 -14.054,15.403 -22.003,23.896 -3.656,3.903 -7.326,6.92 -11.749,9.688 -3.824,2.393 -7.914,2.826 -12.833,2.667 -5.903,-0.188 -17.082,0.102 -17.583,2.833 -0.501,2.731 -0.28,6.979 -0.229,14.397 0.05,7.417 1.281,13.588 -5.729,18.187 -6.842,4.488 -12.075,9.548 -18.461,14.73 -5.268,4.272 -6.468,3.759 -12.45,-0.858 -6.677,-5.155 -12.003,-9.84 -15.001,-12.146 -3,-2.307 -5.91,-4.357 -7.103,-5.907 -4.428,-5.756 -5.182,-13.082 -4.847,-19.913 0.149,-3.046 0.331,-7.193 -1.925,-8.745 -2.256,-1.552 -6.859,-0.683 -11.967,-0.341 -5.107,0.341 -7.084,0.499 -9.588,0.889 -3.141,0.487 -7.018,-2.641 -9.577,-5.292 -3.528,-3.654 -8.877,-9.506 -13.125,-12.726 -4.249,-3.221 -11.375,-13.024 -16.875,-17.774 -5.5,-4.75 -7.269,-7.039 -7.493,-9.694 -0.792,-9.298 -1.089,-18.64 -1.555,-27.968 -0.07,-1.416 0.088,-2.912 0.088,-10.976 0,-8.065 0.565,-24.386 0.09,-39.946 -0.339,-11.063 -0.578,-19.443 -0.934,-30.505 -0.125,-3.841 1.046,-5.23 4.722,-4.98 4.224,0.286 8.437,0.094 12.661,0.231 1.221,0.04 3.158,-0.539 3.592,-1.416 1.767,-3.57 4.878,-5.367 8.002,-5.54 6.203,-0.345 41.854,0.876 46.938,0.742 13.037,-0.347 49.727,0.195 54.804,0.261 12.477,0.16 24.596,-0.395 37.061,-0.792 5.894,-0.187 12.215,0.042 18.056,0.042 5.84,0 4.832,1.443 5.44,3.318 0.609,1.875 1.694,2.004 3.706,1.973 3.34,-0.05 4.171,-0.536 11.296,-0.512 7.125,0.022 6.258,3.176 6.571,7.8 z m -124.089,145.313 c 1.469,1.419 11.278,2.103 18.6,2.187 6.963,0.081 10.746,0.075 12.693,-1.41 2.311,-1.764 1.745,-7.523 1.554,-11.16 -0.191,-3.637 2.19,-6.611 -0.887,-6.368 -3.077,0.244 -30.325,-0.55 -31.65,0.493 -1.324,1.043 -1.068,6.49 -1.281,9.267 -0.128,1.639 -0.498,5.572 0.971,6.991 z m -4.711,-2.846 c -0.116,-2.505 -0.011,-7.514 -0.224,-10.558 -0.057,-0.795 -1.321,-2.049 -2.082,-2.089 -0.705,-0.038 -2.086,1.236 -2.123,1.981 -0.157,3.367 -0.235,6.789 0.232,10.112 0.191,1.365 -0.199,3.11 1.639,3.025 1.838,-0.084 2.675,0.035 2.558,-2.471 z m 52.203,-69.362 c -1.793,1.892 -1.578,10.967 -1.968,15.427 -0.788,9.028 -0.803,19.626 -1.119,28.68 -0.18,5.114 0.335,4.772 5.144,4.693 7.071,-0.117 14.151,-0.557 21.188,-1.263 1.727,-0.173 3.543,-1.657 4.899,-2.972 6.127,-5.933 12.067,-12.06 18.152,-18.038 2.562,-2.517 3.938,-5.308 3.944,-9.029 0.016,-9.658 0.423,-19.315 0.492,-28.975 0.096,-13.365 0.021,-26.731 0.027,-40.096 10e-4,-3.698 0.283,-7.415 -0.016,-11.084 -0.282,-3.435 -0.055,-8.438 -0.635,-11.849 -0.849,-5.001 -3.18,-4.519 -8.384,-4.62 -7.287,-0.142 -11.263,0.238 -22.414,0.238 -11.149,0 -18.469,-0.857 -27.974,-0.111 -7.914,0.624 -16.671,0.421 -24.596,0.443 -9.821,0.026 -18.817,0.363 -28.641,-0.059 -9.041,-0.386 -18.08,-1.115 -27.123,-1.164 -5.521,-0.028 -18.236,-1.149 -19.679,3.132 -1.443,4.281 1.396,34.432 1.125,49.125 -0.194,10.478 0.501,15.122 0.042,25.595 -0.313,7.091 -1.004,13.944 -0.964,21.037 0.021,3.909 0.107,8.047 3.427,11.036 5.907,5.316 11.74,10.719 17.794,15.862 1.612,1.371 3.897,2.687 5.896,2.719 6.142,0.101 16.656,-0.163 18.438,-0.764 1.782,-0.601 2.869,-2.396 2.813,-6.18 -0.057,-3.784 -0.524,-35.373 -0.565,-38.628 -0.043,-3.255 -5.375,-3.654 -7.353,-3.782 -6.354,-0.409 -8.145,-2.298 -7.576,-8.451 0.543,-5.904 1.298,-11.787 1.978,-17.679 0.355,-3.089 0.74,-6.176 1.131,-9.262 0.287,-2.259 0.591,-4.395 2.886,-5.812 1.352,-0.831 3.305,-1.12 3.11,-3.325 -0.192,-2.204 -4.358,-6.784 -3.836,-9.373 0.524,-2.588 18.885,-10.473 28.9,-10.964 9.873,-0.483 19.739,-0.893 29.564,0.566 2.781,0.412 5.516,1.15 8.3,1.526 7.396,1.003 12.035,7.031 18.367,9.99 2.156,1.008 2.166,3.004 0.437,4.992 -2.306,2.651 -7.771,6.004 -6.947,8.244 0.822,2.239 4.846,0.74 5.426,4.166 0.898,5.292 2.497,13.6 3.447,18.884 0.752,4.172 1.973,12.145 -1.611,14.335 -3.584,2.19 -13.735,0.898 -15.526,2.79 z M 926.284,32.898 c -2.737,1.183 -2.269,5.342 -2.254,7.575 0.159,23.285 0.832,46.571 1.15,69.855 0.108,7.923 -0.682,15.422 -0.432,21.672 0.25,6.25 1.442,8.371 4.546,11.515 7.375,7.472 15.141,17.475 22.829,24.61 3.91,3.628 8.496,9.255 13.125,10.5 4.63,1.245 24.488,1.575 25.5,-1.5 1.011,-3.075 1.079,-11.54 0.198,-13.747 -0.881,-2.207 -5.017,-1.382 -7.17,-1.15 -7.722,0.828 -15.776,-0.309 -19.403,-3.304 -3.627,-2.995 -12.628,-11.794 -18,-16.549 -5.372,-4.755 -7.866,-8.946 -7.116,-16.114 0.854,-8.161 1.164,-16.383 1.579,-24.584 0.229,-4.532 0.154,-7.471 -0.405,-15.823 -0.561,-8.353 -1.306,-20.164 -2.174,-31.357 -0.371,-4.812 -0.333,-9.655 -0.652,-14.471 -0.088,-1.327 0.142,-4.098 -1.981,-5.957 -2.124,-1.859 -6.603,-2.354 -9.34,-1.171 z m 193.791,-2.053 c -4.751,0.132 -8.978,-0.197 -9.656,4.363 -1.669,11.188 -1.647,23.599 -1.624,35.016 0.04,18.752 -0.314,37.504 -0.383,56.258 -0.014,3.354 -1.104,5.938 -3.349,8.401 -3.238,3.555 -7.818,7.449 -14.063,14.368 -6.245,6.919 -7.946,9.427 -16.917,10.333 -8.974,0.907 -21.74,1.144 -23.119,2.104 -1.378,0.961 -1.776,3.083 -1.776,8.727 0,5.644 0.021,7.965 2.708,8.961 2.689,0.996 15.207,-1.393 22.858,-1.317 2.722,0.026 4.984,-0.818 6.95,-2.657 5.38,-5.028 11.073,-9.757 16.102,-15.113 7.355,-7.837 14.146,-16.203 21.378,-24.16 2.247,-2.472 3.428,-4.941 3.472,-8.315 0.277,-21.285 -0.221,-41.054 -0.089,-62.338 0.053,-8.74 -0.566,-18.985 1.125,-27.75 0.36,-1.873 1.134,-7.013 -3.617,-6.881 z m -81.105,69.532 c -0.567,-2.046 -10.248,-1.435 -15.684,-1.534 -5.494,-0.098 -16.19,-2.727 -16.933,0.272 -0.741,2.999 0.077,15.685 0,19.298 -0.078,3.613 13.16,-4.986 14.98,-4.485 1.82,0.501 0.424,2.492 -3.453,4.509 -3.877,2.017 -8.818,1.501 -11.904,5.111 0,4.864 -0.266,10.264 0.074,15.625 0.335,5.229 -1.438,14.217 1.151,15.958 2.591,1.742 18.198,1.262 27.181,1.786 2.256,0.132 4.428,-2.656 3.268,-4.431 -1.16,-1.774 -5.531,-3.534 -8.924,-3.594 -4.789,-0.085 -10.078,1.417 -11.755,0.814 -2.864,-1.031 7.016,-3.994 10.325,-4.319 3.504,-0.346 10.461,2.852 10.535,-0.163 0.074,-3.015 0.361,-13.272 0.568,-21.67 0.19,-7.674 1.141,-21.13 0.571,-23.177 z m -11.77,84.735 c -3.003,0.337 1.926,1.979 2.821,2.826 0.896,0.846 -0.635,1.56 -3.204,1.228 -2.57,-0.332 -7.984,-2.462 -11.996,-3.626 -1.332,-0.387 -2.75,-0.582 -4.141,-0.636 -4.081,-0.162 -5.927,1.397 -5.706,5.367 0.283,5.028 -0.299,12.021 1.521,14.925 1.82,2.903 11.332,4.271 16.512,4.847 4.916,0.547 13.466,0.479 14.224,-1.156 0.756,-1.634 0.688,-20.604 0,-22.396 -0.688,-1.789 -7.029,-1.716 -10.031,-1.379 z M 989.482,53.86 c -0.065,3.053 3.219,6.502 8.423,5.255 6.571,-1.578 13.198,-3.447 19.889,-3.894 8.123,-0.542 16.244,-0.583 23.979,1.407 4.43,1.14 11.048,4.96 12.832,5.709 1.784,0.749 7.788,-4.427 5.98,-6.817 -1.808,-2.39 -12.073,-7.385 -16.63,-7.573 -12.685,-0.521 -25.276,-3.229 -38.12,-0.414 -5.965,1.308 -16.287,3.274 -16.353,6.327 z m 11.286,33.519 c 0.633,1.344 11.508,1.833 23.627,2.121 8.244,0.195 23.096,2.408 23.629,0.509 0.533,-1.899 0.266,-6.37 -0.203,-9.464 -0.447,-2.928 0.088,-8.307 -2.144,-8.801 -2.229,-0.494 -16.782,1.222 -24.93,2.562 -6.578,1.081 -18.703,2.149 -19.383,4.777 -0.68,2.628 -1.658,6.039 -0.596,8.296 z m 42.147,99.065 c -2.539,0.069 -0.438,23.081 -1.991,25.14 -1.553,2.059 -8.861,4.514 -13.849,4.041 -3.666,-0.347 -7.411,-0.115 -11.027,-0.707 -3.31,-0.54 -6.673,-1.464 -9.688,-2.901 -3.414,-1.628 -5.677,-4.105 -5.203,-8.718 0.545,-5.319 0.078,-10.748 -0.113,-16.125 -0.024,-0.77 -0.835,-3.296 -2.182,-3.258 -1.349,0.038 -0.818,13.919 -0.604,20.16 0.077,2.292 1.431,4.994 3.055,6.688 3.704,3.863 14.122,12.352 17.439,15.206 3.318,2.854 7.524,2.1 11.028,-0.768 4.596,-3.76 9.506,-7.261 13.83,-11.329 0.84,-0.791 2.621,-3.479 2.621,-13.59 10e-4,-10.111 -0.777,-13.908 -3.316,-13.839 z M 986.563,69.325 c -2.323,1.925 -6.438,29.217 -3.188,31.053 3.248,1.835 7.928,1.111 9.211,0.042 1.283,-1.07 1.404,-10.332 2.013,-15.046 0.634,-4.908 3.003,-13.509 2.13,-14.846 -0.874,-1.337 -7.842,-3.127 -10.166,-1.203 z m 16.917,3.259 c 1.469,-0.671 3.258,-3.641 4.925,-4.777 3.243,-2.208 6.377,-2.904 8.174,-3.342 2.721,-0.664 6.063,-1.739 7.074,-0.961 1.01,0.777 0.644,1.444 -1.349,2.042 -1.99,0.598 -7.533,1.988 -10.322,3.913 -2.786,1.925 -3.164,3.371 1.154,2.726 4.318,-0.645 37.348,-3.699 35.753,-5.369 -1.595,-1.671 -8.41,-3.878 -13.321,-4.898 -7.518,-1.561 -15.745,-1.699 -22.891,-0.449 -5.207,0.91 -13.422,3.32 -13.197,4.926 0.225,1.603 2.532,6.859 4,6.189 z m 52.711,28.159 c 1.856,0.674 10.375,0.12 10.319,-3.208 -0.055,-3.329 -3.698,-15.385 -5.384,-23.863 -0.406,-2.037 -1.713,-2.74 -3.662,-2.508 -3.695,0.437 -5.086,1.929 -4.787,5.529 0.515,6.171 1.301,9.791 1.301,13.861 10e-4,4.07 0.356,9.515 2.213,10.189 z m -55.341,-2.461 c -0.548,-2.008 -2.246,-0.423 -2.537,2.106 -0.294,2.53 -0.101,7.505 -0.255,12.281 -0.153,4.776 -0.104,1.751 0.035,4.629 0.144,2.879 3.194,4.865 3.205,1.194 0.011,-3.67 0.098,-18.201 -0.448,-20.21 z m 45.184,2.505 c -1.859,-1.991 -2.201,8.492 -2.777,14.583 -0.513,5.424 -1.851,27.166 -0.59,32.046 1.26,4.88 -1.494,8.214 0.746,7.866 2.24,-0.349 1.692,-17.125 2.091,-25.588 0.399,-8.463 2.391,-26.916 0.53,-28.907 z m -3.22,61.065 c -0.793,0.52 -1.005,4.798 -1.148,9.261 -0.104,3.234 -0.396,6.913 -0.407,8.633 -0.012,1.72 3.962,0.728 3.772,-1.143 -0.19,-1.871 0.518,-7.995 0.099,-10.827 -0.242,-1.646 -0.944,-6.82 -2.316,-5.924 z m -41.666,-37.386 c -0.656,-0.829 -2.078,-1.718 -2.904,0.547 -0.826,2.266 -0.596,22.17 -0.53,25.223 0.064,3.053 1.519,4.686 2.64,3.85 1.118,-0.836 0.711,-3.886 0.795,-7.816 0.085,-3.93 0.657,-20.976 -10e-4,-21.804 z"
         id="path237"
         inkscape:connector-curvature="0" />
      <path
         d="m 1029.563,85.72 c -2.113,-0.464 7.153,-4.788 5.389,-5.841 -1.766,-1.053 -16.115,3.282 -21.572,2.323 -5.457,-0.959 12.033,-4.472 16.596,-5.25 4.494,-0.767 14.76,-1.444 15.197,0.471 0.437,1.914 -13.499,8.761 -15.61,8.297 z"
         id="path239"
         inkscape:connector-curvature="0" />
      <path
         d="m 1007.525,171.733 c 1.14,-1.916 7.973,-2.958 11.978,-2.658 4.974,0.374 14.145,2.906 15.642,4.462 1.498,1.557 -8.824,1.744 -12.095,0.451 -3.746,-1.481 -6.944,-1.372 -10.525,0.207 -2.164,0.954 -6.14,-0.546 -5,-2.462 z"
         id="path241"
         inkscape:connector-curvature="0" />
    </g>
  </g>
</svg>
