<?xml version="1.0" encoding="UTF-8" standalone="no"?>
<!-- Created with Inkscape (http://www.inkscape.org/) -->

<svg
   xmlns:dc="http://purl.org/dc/elements/1.1/"
   xmlns:cc="http://creativecommons.org/ns#"
   xmlns:rdf="http://www.w3.org/1999/02/22-rdf-syntax-ns#"
   xmlns:svg="http://www.w3.org/2000/svg"
   xmlns="http://www.w3.org/2000/svg"
   xmlns:sodipodi="http://sodipodi.sourceforge.net/DTD/sodipodi-0.dtd"
   xmlns:inkscape="http://www.inkscape.org/namespaces/inkscape"
   width="28.710981mm"
   height="28.281082mm"
   viewBox="0 0 28.710981 28.281082"
   version="1.1"
   id="svg5496"
   inkscape:version="0.92.3 (2405546, 2018-03-11)"
   sodipodi:docname="crack1.svg">
  <defs
     id="defs5490" />
  <sodipodi:namedview
     id="base"
     pagecolor="#ffffff"
     bordercolor="#666666"
     borderopacity="1.0"
     inkscape:pageopacity="0.0"
     inkscape:pageshadow="2"
     inkscape:zoom="0.35"
     inkscape:cx="-84.314457"
     inkscape:cy="-32.269864"
     inkscape:document-units="mm"
     inkscape:current-layer="layer1"
     showgrid="false"
     inkscape:window-width="1366"
     inkscape:window-height="703"
     inkscape:window-x="0"
     inkscape:window-y="0"
     inkscape:window-maximized="1" />
  <metadata
     id="metadata5493">
    <rdf:RDF>
      <cc:Work
         rdf:about="">
        <dc:format>image/svg+xml</dc:format>
        <dc:type
           rdf:resource="http://purl.org/dc/dcmitype/StillImage" />
        <dc:title></dc:title>
      </cc:Work>
    </rdf:RDF>
  </metadata>
  <g
     inkscape:label="Layer 1"
     inkscape:groupmode="layer"
     id="layer1"
     transform="translate(-17.394509,-112.01418)">
    <path
       inkscape:connector-curvature="0"
       id="Crack2"
       d="m 36.363935,125.37965 c 0.253207,-0.19685 1.169459,0.18971 2.100263,0.51276 1.781175,0.6186 3.500967,0.42043 4.646877,0.38047 1.146176,-0.04 3.290889,0.19844 2.960159,0.44662 -0.330729,0.24818 -2.966509,0.0442 -3.15304,0.25347 -0.186532,0.20929 -0.275696,2.27092 -0.286544,2.70087 -0.01085,0.42995 -0.730515,-1.84706 -1.576388,-2.34818 -0.845872,-0.50112 -3.814497,-0.1434 -4.905904,-0.0773 -1.091406,0.0661 -1.79705,1.53247 -1.400175,2.70087 0.396875,1.1684 0.611452,1.6383 1.094317,1.68592 0.482865,0.0476 6.34709,0.66226 7.195873,0.57415 0.848784,-0.0881 -0.241036,1.24566 -1.996281,1.03426 -1.755246,-0.21141 -4.932363,-0.0145 -5.213615,-0.49398 -0.281252,-0.47943 -2.348706,-1.0668 -3.219185,-0.39132 -1.007798,0.78131 -1.631421,2.48602 -1.455209,3.71845 0.116682,0.81968 0.463021,4.48919 0.03307,4.20265 -0.429948,-0.28655 -0.614891,-5.40094 -1.844939,-4.93792 -1.230048,0.46302 -2.65139,1.65788 -4.116917,2.16323 -1.346729,0.46461 -4.631796,0.29475 -4.699,-0.0254 -0.0672,-0.32014 2.17038,-0.75671 2.521482,-1.30916 0.438415,-0.68977 0.489215,-1.87166 0.235744,-2.79109 -0.110861,-0.40216 -0.989277,-1.04695 -1.8161,-1.6383 -1.064154,-0.76067 -3.030008,-0.50694 -3.178969,-0.70538 -0.14896,-0.19843 3.505729,-0.67812 3.836458,-0.33072 0.330729,0.34739 1.858698,1.2274 3.9497,0.93953 2.091003,-0.28787 3.982244,-1.60285 4.619361,-2.21271 0.827617,-0.79216 0.01773,-2.93396 -0.754856,-3.96769 -0.819415,-1.09511 -3.119967,-1.30598 -4.341548,-1.62163 -2.289175,-0.59161 -5.060157,-0.92604 -5.622396,-0.7112 -0.56224,0.21484 -2.341563,0.87497 -2.563284,0.69453 -0.22172,-0.18045 1.630892,-1.1819 1.881982,-1.31022 0.251089,-0.12832 4.779962,-0.55933 5.443537,-0.72363 0.663575,-0.16431 -0.411162,-1.9992 -0.79375,-2.54662 -0.382587,-0.54742 -1.084262,-0.88344 -1.795198,-1.17554 -0.550598,-0.22622 -1.726935,-2.24737 -1.627716,-2.52863 0.09922,-0.28125 1.642797,1.27503 2.216943,1.38933 1.591734,0.31618 3.127375,0.27173 4.739746,-0.10345 2.091796,-0.48683 4.261644,-0.63447 6.392863,-0.96229 0.535781,-0.0823 1.285081,-0.32385 1.831181,-0.73713 0.545835,-0.41354 2.920206,-0.82127 3.423179,-1.2237 0.502709,-0.40269 1.521354,-2.16641 1.554427,-1.85208 0.03307,0.31432 -1.290902,3.12473 -1.968764,3.39646 -0.677863,0.27172 -2.278857,0.61859 -2.479411,1.06838 -0.200289,0.4498 -1.18745,3.53351 -0.496093,4.00183 0.69162,0.46804 3.708664,-1.08903 4.11771,-0.99219 0.40931,0.0968 -2.331508,1.93252 -3.015192,2.24023 -0.683683,0.30771 -2.661179,0.94138 -3.080279,1.5367 -0.4191,0.59531 -0.413014,2.5019 0.01402,3.44487 0.427302,0.94298 2.338123,-1.17157 2.591858,-1.36816 z m -2.38707,-7.85574 c -0.109009,-0.50536 -2.357967,0.10477 -3.548063,0.22013 -0.82841,0.0802 -2.948252,0.42889 -3.457575,0.55774 -0.509323,0.12885 -0.647436,0.38153 -0.709613,1.40891 -0.05212,0.8636 -0.166952,1.61713 0.792163,1.68328 0.959115,0.0661 1.124744,1.40652 2.083594,1.35599 0.95885,-0.0505 4.638146,-1.09538 4.812241,-1.35599 0.174096,-0.26062 0.136525,-3.36444 0.02725,-3.87006 z m -3.726392,14.73782 c -0.815711,-0.52917 -1.602581,-0.5551 -3.219186,0.0661 -1.616604,0.62124 -2.061898,-0.127 -2.65721,0.99748 -0.595313,1.12448 0.06615,3.53933 1.058598,3.0816 0.916252,-0.42281 2.793206,-1.61237 3.704167,-2.05052 1.166018,-0.56118 1.929606,-1.56554 1.113631,-2.09471 z m 2.81305,-4.58523 c -0.323321,-0.34634 -0.980546,1.134 -1.100138,1.40361 -0.194733,0.43789 -0.581818,0.86731 -0.531548,1.36261 0.05027,0.49027 0.378619,0.78951 0.948267,0.80962 1.0287,0.0357 1.661319,-0.64823 1.380331,-1.63618 -0.137318,-0.48525 -0.373327,-1.59279 -0.696912,-1.93966 z m -0.635265,-4.81039 c -0.472281,-0.24897 -2.034116,0.23151 -2.2987,0.61198 -0.264583,0.38047 0.634471,1.80446 1.108075,2.00104 0.47334,0.19685 1.230577,-0.37491 1.256771,-1.15755 0.02593,-0.78316 0.405871,-1.20703 -0.06615,-1.45547 z"
       style="stroke-width:0.26458332" />
  </g>
</svg>
