<?xml version="1.0" encoding="UTF-8" standalone="no"?>
<svg
   xmlns:dc="http://purl.org/dc/elements/1.1/"
   xmlns:cc="http://creativecommons.org/ns#"
   xmlns:rdf="http://www.w3.org/1999/02/22-rdf-syntax-ns#"
   xmlns:svg="http://www.w3.org/2000/svg"
   xmlns="http://www.w3.org/2000/svg"
   xmlns:sodipodi="http://sodipodi.sourceforge.net/DTD/sodipodi-0.dtd"
   xmlns:inkscape="http://www.inkscape.org/namespaces/inkscape"
   sodipodi:docname="quicksand.svg"
   inkscape:version="1.0 (4035a4fb49, 2020-05-01)"
   id="svg2912"
   version="1.1"
   viewBox="0 0 32.374951 32.37495"
   height="32.37495mm"
   width="32.37495mm">
  <defs
     id="defs2906" />
  <sodipodi:namedview
     inkscape:window-maximized="1"
     inkscape:window-y="-8"
     inkscape:window-x="-8"
     inkscape:window-height="1356"
     inkscape:window-width="3440"
     showgrid="false"
     inkscape:document-rotation="0"
     inkscape:current-layer="layer1"
     inkscape:document-units="mm"
     inkscape:cy="77.596779"
     inkscape:cx="-187.65901"
     inkscape:zoom="1.979899"
     inkscape:pageshadow="2"
     inkscape:pageopacity="0.0"
     borderopacity="1.0"
     bordercolor="#666666"
     pagecolor="#ffffff"
     id="base" />
  <metadata
     id="metadata2909">
    <rdf:RDF>
      <cc:Work
         rdf:about="">
        <dc:format>image/svg+xml</dc:format>
        <dc:type
           rdf:resource="http://purl.org/dc/dcmitype/StillImage" />
        <dc:title></dc:title>
      </cc:Work>
    </rdf:RDF>
  </metadata>
  <g
     transform="translate(-519.78276,-27.956208)"
     id="layer1"
     inkscape:groupmode="layer"
     inkscape:label="Layer 1">
    <g
       transform="matrix(0.26458333,0,0,0.26458333,417.47564,26.666861)"
       id="g70">
      <g
         id="g40">
        <path
           style="clip-rule:evenodd;fill:#fff2bc;fill-rule:evenodd"
           d="m 508.85,45.101 c -0.435,-1.395 -1.534,-2.305 -2.792,-2.572 -0.33,-0.378 -0.759,-0.668 -1.227,-0.796 -1.394,-0.384 -2.609,0.467 -3.075,1.746 -0.495,1.358 -0.697,2.882 -0.436,4.308 0.404,2.206 2.613,3.29 4.674,2.663 2.224,-0.676 3.549,-3.122 2.856,-5.349 z"
           id="path28" />
        <path
           style="clip-rule:evenodd;fill:#fff2bc;fill-rule:evenodd"
           d="m 439.031,118.849 c -0.333,-0.993 -1.277,-1.562 -2.364,-1.706 -2.163,-0.286 -4.268,0.34 -5.492,2.238 -0.775,1.201 -0.191,2.684 0.897,3.42 2.438,1.65 6.715,2.063 7.839,-1.328 0.32,-0.965 -0.123,-2.008 -0.88,-2.624 z"
           id="path30" />
        <path
           style="clip-rule:evenodd;fill:#fff2bc;fill-rule:evenodd"
           d="m 452.156,116.483 c -1.333,-1.241 -3.206,-0.71 -4.403,0.413 -0.795,0.745 -0.752,2.076 0,2.828 0.206,0.206 0.442,0.352 0.694,0.447 0.333,0.534 0.94,0.886 1.522,1.068 0.624,0.195 1.517,0.008 1.946,-0.515 0.559,-0.679 0.983,-1.371 1.031,-2.271 0.038,-0.723 -0.26,-1.476 -0.79,-1.97 z"
           id="path32" />
        <path
           style="clip-rule:evenodd;fill:#fff2bc;fill-rule:evenodd"
           d="m 505.976,68.72 c 0.02,-0.333 0,-0.672 -0.064,-1.037 -0.103,-0.585 -0.456,-0.945 -0.802,-1.39 -0.668,-0.857 -2.042,-1.036 -3.045,-1.024 -0.885,0.011 -1.68,0.161 -2.482,0.524 -1.239,0.562 -1.758,2.202 -1.426,3.436 0.001,0.003 0.003,0.007 0.004,0.011 0.018,0.226 0.05,0.45 0.09,0.67 0.093,0.502 0.414,1.125 0.61,1.555 0.377,0.823 1.23,1.365 2.05,1.639 1.118,0.374 2.213,-0.048 3.041,-0.782 0.92,-0.272 1.716,-1.133 1.941,-2.048 0.117,-0.475 0.158,-1.028 0.083,-1.554 z"
           id="path34" />
        <g
           id="g38">
          <path
             style="clip-rule:evenodd;fill:#fff2bc;fill-rule:evenodd"
             d="m 458.667,9.81 c -4.333,2.833 -14,3.167 -26.333,-1.333 -12.333,-4.5 -19.667,-2.667 -29,-0.333 -11.667,3.333 0,14.066 -3.833,22.733 -3.833,8.667 -7.333,6.934 -6.667,18.934 0.666,12 4.493,11.18 4.135,30.263 -0.358,19.083 -7.65,16.404 -7.483,30.571 0.167,14.167 10.15,14.673 21.832,8.503 11.682,-6.17 41.682,-9.67 46.682,-2.67 5,7 18,11.046 29,6.712 7.667,-3.333 16.343,-10.865 18.009,-19.532 1.667,-9 -7.154,-17.031 -8.82,-25.364 -2,-8.667 -2.689,-27.984 0.311,-35.65 2.333,-6.333 11.5,-14.333 7.167,-26.667 C 499.334,3.643 490.5,4.811 480.5,4.977 c -10,0.166 -17.5,2 -21.833,4.833 z"
             id="path36" />
        </g>
      </g>
      <g
         id="g66">
        <path
           style="clip-rule:evenodd;fill-rule:evenodd"
           d="m 506.235,64.047 c -0.529,2.284 -3.308,4.188 -4.692,1.398 -1.397,-2.815 -3.92,-3.92 -6.656,-5.175 -2.853,-1.309 -5.388,-1.605 -8.516,-1.074 -3.457,0.587 -5.407,2.76 -8.238,4.579 -5.782,3.714 -12.285,6.415 -18.966,7.904 -1.653,0.369 -3.399,0.924 -5.111,0.827 -1.613,-0.091 -3.091,-0.802 -4.631,-1.219 -2.695,-0.731 -5.593,-1.983 -6.665,-4.868 -1.563,-4.204 4.211,-2.044 5.874,-0.987 2.757,1.753 6.005,2.193 9.208,1.851 3.316,-0.354 5.929,-2.037 8.811,-3.546 2.897,-1.518 5.648,-2.779 8.232,-4.818 4.865,-3.84 11.657,-6.054 17.917,-5.113 3.039,0.457 5.318,1.696 7.712,3.561 1.596,1.242 6.305,4.032 5.721,6.68 -0.34,1.468 0.031,-0.141 0,0 z"
           id="path42" />
        <path
           style="clip-rule:evenodd;fill-rule:evenodd"
           d="m 439.72,43.705 c -2.598,-0.48 -4.771,-1.28 -7.192,-2.335 -2.553,-1.112 -4.517,-2.901 -7.156,-3.904 -2.996,-1.138 -5.5,-3.333 -8.526,-4.332 -3.253,-1.075 -6.666,-0.587 -9.965,-0.018 -3.032,0.523 -5.961,1.157 -8.536,2.904 -1.497,1.016 -6.457,5.335 -7.507,1.778 -0.696,-2.359 3.948,-5.589 5.607,-6.644 2.576,-1.637 6.049,-2.541 8.999,-3.209 2.812,-0.637 5.699,-0.902 8.581,-0.808 3.454,0.111 6.365,1.677 9.449,3.077 3.121,1.418 6.057,2.82 8.882,4.762 2.542,1.749 5.735,3.197 8.828,3.549 1.362,0.155 2.854,-0.075 4.076,-0.715 1.13,-0.592 1.767,-1.644 3.094,-1.886 1.519,-0.277 6.86,-0.538 5.263,2.599 -1.588,3.118 -3.939,3.179 -6.942,4.41 -2.662,1.09 -4.075,1.095 -6.955,0.772 -0.792,-0.147 1.105,0.124 0,0 z"
           id="path44" />
        <path
           style="clip-rule:evenodd;fill-rule:evenodd"
           d="m 416.321,80.125 c 5.728,-0.526 10.94,3.898 15.702,6.354 2.544,1.313 5.243,2.316 8.022,3.002 3.422,0.846 6.046,-0.25 9.407,-0.578 2.973,-0.29 3.894,2.383 1.403,4.137 -2.317,1.631 -6.106,2.198 -8.868,2.318 -2.709,0.118 -5.786,-1.119 -8.357,-1.896 -2.861,-0.867 -6.103,-2.446 -8.663,-3.996 -4.907,-2.971 -11.661,-5.15 -17.302,-2.688 -2.847,1.245 -5.691,2.499 -8.506,3.815 -1.51,0.706 -3.043,1.388 -4.464,2.266 -0.972,0.601 -2.668,2.334 -3.854,2.063 -2.641,-0.605 -0.794,-4.027 0.297,-5.105 1.859,-1.837 5.42,-4.664 7.98,-5.279 5.85,-1.406 11.041,-4.274 17.203,-4.413 1.595,-0.146 -2.916,0.066 0,0 z"
           id="path46" />
        <path
           style="clip-rule:evenodd;fill-rule:evenodd"
           d="m 409.837,59.043 c -0.543,-1.74 -1.241,-3.921 0.887,-4.937 1.55,-0.742 3.596,1.267 4.418,2.374 1.178,1.585 1.719,3.575 1.325,5.525 -0.443,2.188 -2.945,3.667 -4.522,5.049 -3.933,3.445 -8.291,-1.649 -10.685,-4.698 -3.377,-4.302 -3.765,-8.735 -1.381,-13.681 2.167,-4.496 6.097,-5.529 10.811,-4.382 0.88,0.214 5.681,1.72 3.202,3.308 -1.839,1.178 -4.988,0.269 -7.069,0.76 -2.01,0.475 -3.255,2.224 -3.821,4.114 -0.839,2.798 -0.258,4.778 1.3,7.164 0.784,1.2 2.498,4.387 4.444,3.778 2.237,-0.699 1.679,-2.792 1.091,-4.374 -0.182,-0.582 0.227,0.613 0,0 z"
           id="path48" />
        <path
           style="clip-rule:evenodd;fill-rule:evenodd"
           d="m 486.262,28.213 c -0.404,3.295 -1.224,6.704 -5.347,6.572 -2.817,-0.09 -6.061,-2.35 -5.739,-5.503 0.175,-1.717 1.286,-2.448 2.916,-2.363 1.609,0.083 4.136,0.007 2.775,-2.357 -2.196,-3.817 -8.031,-1.931 -10.122,0.782 -1.02,1.324 -1.806,2.82 -2.269,4.429 -0.66,2.294 -2.782,0.284 -3.188,-0.946 -1.099,-3.331 1.234,-8.178 4.329,-9.785 3.523,-1.831 8.333,-2.545 11.992,-0.683 3.619,1.843 4.499,6.167 4.653,9.854 -0.113,0.925 -0.041,-0.984 0,0 z"
           id="path50" />
        <path
           style="clip-rule:evenodd;fill-rule:evenodd"
           d="m 482.79,92.683 c -1.444,2.054 -5.156,2.85 -6.558,1.3 -1.401,-1.55 -1.23,-3.256 1.127,-3.831 2.356,-0.575 1.629,-3.982 -2.837,-3.202 -4.465,0.782 -3.567,5.633 -2.639,6.981 1.324,1.922 -0.491,4.316 -1.949,2.306 -1.458,-2.01 -2.901,-3.763 -2.54,-7.081 0.409,-3.778 3.204,-4.808 6.333,-6.389 3.094,-1.564 6.902,0.739 8.193,2.263 1.293,1.524 2.982,4.647 0.87,7.653 z"
           id="path52" />
        <path
           style="clip-rule:evenodd;fill-rule:evenodd"
           d="m 418.188,100.581 c 0.917,0.542 0.807,6.135 -2.945,8.256 -3.573,2.02 -7.024,-0.63 -9.035,-3.581 -4.643,-6.812 3.26,-13.142 9.896,-12.568 2.845,0.246 8.762,2.288 7.653,6.497 -0.507,1.924 -3.351,1.015 -4.662,-0.078 -1.311,-1.093 -3.929,-1.72 -6.055,-1.144 -1.535,0.417 -3.747,1.574 -3.968,3.347 -0.161,1.288 0.778,3.318 2.123,3.693 2.31,0.645 2.17,-1.63 2.982,-3.034 1.023,-1.771 3.094,-1.93 4.011,-1.388 z"
           id="path54" />
        <path
           style="clip-rule:evenodd;fill-rule:evenodd"
           d="m 415.733,17.015 c -0.682,2.629 -7.805,3.667 -6.819,0.658 0.871,-2.66 7.878,-3.549 6.819,-0.658 -0.154,0.595 0.262,-0.715 0,0 z"
           id="path56" />
        <path
           style="clip-rule:evenodd;fill-rule:evenodd"
           d="m 492.059,73.381 c 2.941,0.143 3.676,4.48 0.224,4.113 -0.857,-0.091 -3.251,-0.594 -3.345,-1.745 -0.108,-1.322 2.034,-2.399 3.121,-2.368 1.27,0.062 -0.631,-0.018 0,0 z"
           id="path58" />
        <path
           style="clip-rule:evenodd;fill-rule:evenodd"
           d="m 469.482,105.117 c -0.214,2.46 -5.609,4.119 -5.472,1.065 0.104,-2.288 5.755,-3.778 5.472,-1.065 -0.053,0.606 0.066,-0.636 0,0 z"
           id="path60" />
        <path
           style="clip-rule:evenodd;fill-rule:evenodd"
           d="m 466.185,46.172 c 1.187,-0.284 2.251,1.002 2.054,2.106 -0.226,1.266 -2.105,2.004 -3.189,2.263 -1.106,0.264 -2.653,0.024 -2.66,-1.446 -0.007,-1.62 2.631,-2.492 3.795,-2.923 0.83,-0.198 -0.592,0.219 0,0 z"
           id="path62" />
        <path
           style="clip-rule:evenodd;fill-rule:evenodd"
           d="m 425.904,65.675 c 2.826,-0.581 1.604,3.544 -0.25,4.154 -1.102,0.362 -2.222,-0.874 -2.124,-1.921 0.123,-1.287 1.306,-1.898 2.374,-2.233 0.703,-0.144 -0.296,0.093 0,0 z"
           id="path64" />
      </g>
      <path
         style="clip-rule:evenodd;fill:#fff2bc;fill-rule:evenodd"
         d="m 393.06,76.846 c -0.263,-1.616 -2.243,-2.494 -3.69,-2.096 -0.643,0.177 -1.136,0.518 -1.487,0.96 -0.351,0.357 -0.621,0.801 -0.775,1.302 -0.082,0.266 -0.132,0.539 -0.185,0.811 -0.256,0.599 -0.334,1.277 -0.148,1.951 0.007,0.025 0.021,0.047 0.028,0.071 0.041,0.595 0.128,1.187 0.305,1.762 0.733,2.385 4.211,3.09 5.483,0.717 0.942,-1.76 0.777,-3.585 0.469,-5.478 z"
         id="path68" />
    </g>
  </g>
</svg>
