<?xml version="1.0" encoding="UTF-8" standalone="no"?>
<svg
   xmlns:dc="http://purl.org/dc/elements/1.1/"
   xmlns:cc="http://creativecommons.org/ns#"
   xmlns:rdf="http://www.w3.org/1999/02/22-rdf-syntax-ns#"
   xmlns:svg="http://www.w3.org/2000/svg"
   xmlns="http://www.w3.org/2000/svg"
   xmlns:sodipodi="http://sodipodi.sourceforge.net/DTD/sodipodi-0.dtd"
   xmlns:inkscape="http://www.inkscape.org/namespaces/inkscape"
   sodipodi:docname="slime.svg"
   inkscape:version="1.0 (4035a4fb49, 2020-05-01)"
   id="svg4177"
   version="1.1"
   viewBox="0 0 31.16879 31.168791"
   height="31.168791mm"
   width="31.168791mm">
  <defs
     id="defs4171" />
  <sodipodi:namedview
     inkscape:window-maximized="1"
     inkscape:window-y="-8"
     inkscape:window-x="-8"
     inkscape:window-height="1356"
     inkscape:window-width="3440"
     showgrid="false"
     inkscape:document-rotation="0"
     inkscape:current-layer="layer1"
     inkscape:document-units="mm"
     inkscape:cy="68.404408"
     inkscape:cx="24.223219"
     inkscape:zoom="1.979899"
     inkscape:pageshadow="2"
     inkscape:pageopacity="0.0"
     borderopacity="1.0"
     bordercolor="#666666"
     pagecolor="#ffffff"
     id="base" />
  <metadata
     id="metadata4174">
    <rdf:RDF>
      <cc:Work
         rdf:about="">
        <dc:format>image/svg+xml</dc:format>
        <dc:type
           rdf:resource="http://purl.org/dc/dcmitype/StillImage" />
        <dc:title></dc:title>
      </cc:Work>
    </rdf:RDF>
  </metadata>
  <g
     transform="translate(-111.27156,-79.665605)"
     id="layer1"
     inkscape:groupmode="layer"
     inkscape:label="Layer 1">
    <g
       transform="matrix(0.26458333,0,0,0.26458333,77.397345,44.954659)"
       id="g174">
      <g
         id="g150">
        <path
           style="clip-rule:evenodd;fill:#b6f2b6;fill-rule:evenodd"
           d="m 197.501,245.394 c -2.708,0 -5.98,-3.986 -6.241,-6.793 -0.39,-4.193 1.866,-8.446 5.364,-10.113 0.48,-0.229 1.179,-0.458 1.92,-0.701 2.401,-0.787 5.69,-1.866 7.328,-4.976 0.562,-1.064 1.062,-2.127 1.545,-3.154 0.841,-1.785 1.635,-3.472 2.652,-4.973 2.325,-3.437 5.934,-5.347 10.176,-5.394 3.271,0.354 5.334,3.62 6.279,5.555 2.699,5.525 2.968,13.574 0.577,17.226 -2.682,4.094 -5.925,4.631 -11.297,5.521 -0.537,0.09 -1.083,0.18 -1.638,0.276 -3.962,0.687 -6.825,2.901 -9.197,4.924 -1.291,1.101 -3.122,1.565 -5.241,2.104 -0.522,0.133 -1.046,0.267 -1.567,0.41 -0.215,0.059 -0.432,0.088 -0.66,0.088 z m -19.117,-13.519 c -0.717,0 -1.973,-1.165 -2.324,-2.403 -0.419,-1.478 -0.435,-2.718 -0.042,-3.402 0.241,-0.42 0.748,-0.745 1.507,-0.968 1.167,0.259 3.65,2.865 3.971,4.021 l 0.041,0.154 c 0.005,0.022 -0.229,0.991 -2.822,2.493 -0.16,0.094 -0.261,0.105 -0.331,0.105 z m -20.179,-24.091 c -2.357,0 -4.402,-0.412 -5.759,-1.16 -4.595,-2.529 -6.911,-4.407 -6.815,-7.647 0.065,-2.245 0.791,-4.557 1.558,-7.004 0.983,-3.135 1.999,-6.377 1.865,-10.03 -0.094,-2.563 -0.5,-4.979 -0.892,-7.316 -0.552,-3.29 -1.074,-6.397 -0.641,-9.497 0.713,-5.107 3.742,-9.519 6.157,-12.321 3.217,-3.732 7.363,-7.328 11.377,-9.866 2.899,-1.833 6.044,-2.857 9.373,-3.942 2.078,-0.677 4.227,-1.377 6.424,-2.306 1.417,-0.598 3.469,-0.631 5.455,-0.662 l 0.78,-0.014 c 1.529,-0.031 2.951,-0.405 4.205,-0.735 0.963,-0.253 1.873,-0.493 2.524,-0.493 0.08,0 0.16,0.003 0.239,0.014 l 1.36,0.177 c 4.859,0.626 9.055,1.167 13.113,3.254 3.595,1.847 7.248,6.725 9.297,10.771 0.623,1.639 2.83,10.843 3.121,13.237 -0.082,0.479 -0.074,0.993 0.024,1.538 0.754,9.606 -6.988,16.843 -15.043,19.766 -2.104,0.764 -4.281,1.553 -6.188,1.554 l -0.165,-0.002 c -0.537,-0.012 -1.059,-0.035 -1.573,-0.058 -0.827,-0.036 -1.638,-0.069 -2.445,-0.069 -2.079,0 -3.741,0.225 -5.389,0.729 -5.883,1.802 -8.857,5.666 -11.734,9.402 -0.929,1.207 -1.89,2.455 -2.938,3.604 -0.66,0.723 -1.553,1.363 -2.499,2.041 -0.999,0.717 -2.131,1.528 -3.172,2.571 l -0.138,0.139 c -1.626,1.631 -2.443,2.449 -4.116,3.07 -2.117,0.786 -4.87,1.255 -7.365,1.255 z"
           id="path142" />
        <g
           id="g146">
          <path
             style="clip-rule:evenodd;fill:#e4f9e4;fill-rule:evenodd"
             d="m 169.799,147.451 c -6.564,3.85 -10.082,7.261 -11.608,11.992 -1.744,5.384 -2.899,13.801 0.061,15.799 2.959,1.999 4.063,-2.912 9.61,-13.274 5.546,-10.362 10.678,-8.593 15.841,-13.886 5.162,-5.292 -7.339,-4.482 -13.904,-0.631 z"
             id="path144" />
        </g>
        <path
           style="clip-rule:evenodd;fill:#e4f9e4;fill-rule:evenodd"
           d="m 213.403,220.273 c -1.226,2.005 -3.94,5.973 -2.986,6.556 0.955,0.584 4.925,-2.059 6.149,-4.064 1.227,-2.005 1.837,-6.026 0.882,-6.61 -0.954,-0.583 -2.819,2.112 -4.045,4.118 z"
           id="path148" />
      </g>
      <path
         style="clip-rule:evenodd;fill-rule:evenodd"
         d="m 224.496,162.847 c 1.255,11.315 -7.249,20.422 -17.342,24.085 -2.416,0.876 -5.059,1.831 -7.669,1.766 -2.871,-0.067 -5.453,-0.415 -8.265,0.446 -6.541,2.003 -8.781,7.296 -13.067,11.991 -1.72,1.884 -4.007,2.949 -5.781,4.728 -1.803,1.807 -3.074,3.122 -5.549,4.041 -4.535,1.684 -11.727,2.291 -16.114,-0.127 -4.331,-2.385 -8.842,-5.256 -8.676,-10.906 0.169,-5.782 3.636,-11.026 3.423,-16.796 -0.218,-5.925 -2.339,-11.43 -1.5,-17.443 0.733,-5.254 3.571,-10.201 6.996,-14.174 3.384,-3.926 7.802,-7.79 12.179,-10.558 5.192,-3.283 10.735,-4.161 16.32,-6.521 2.296,-0.97 5.112,-0.908 7.562,-0.959 2.481,-0.05 5.115,-1.497 7.508,-1.185 5.576,0.734 10.625,1.213 15.653,3.799 4.551,2.338 8.649,7.939 10.91,12.44 0.659,1.315 4.046,15.303 3.412,15.373 0.106,0.951 -0.017,0.002 0,0 z m -54.652,32.135 c 0.688,-1.938 2.193,-7.286 3.438,-8.672 1.499,-1.668 2.63,1.065 4.717,0.401 2.725,-0.87 4.533,-2.651 4.189,-5.026 -0.344,-2.375 -1.31,-5.243 -0.156,-5.688 1.154,-0.445 4.035,2.973 4.844,4.594 0.809,1.621 2.973,1.166 3.531,-0.688 0.558,-1.854 1.781,-8.25 3.313,-6.219 1.532,2.031 0.581,8.439 3.438,8.403 2.62,-0.032 1.863,-6.426 2.593,-8.028 1.144,-2.509 2.339,0.684 4.917,0.542 0.976,-0.054 3.576,-1.254 4.455,-0.688 0.822,0.529 1.295,1.896 4.295,1.813 3,-0.083 -0.731,-4.487 -0.77,-5.729 -0.095,-3.12 1.284,-5.528 2.009,-8.45 0.607,-2.442 0.779,-4.751 1.343,-7.195 0.559,-2.418 0.313,-4.04 -0.601,-6.385 -2.032,-5.2 -7.762,-9.144 -13.169,-10.084 -10.97,-1.91 -24.443,0.443 -34.233,5.697 -8.764,4.703 -19.038,14.691 -18.562,25.488 0.11,2.493 1.147,4.667 1.587,7.084 0.496,2.725 0.456,5.551 0.328,8.307 -0.063,1.358 -1.218,6.018 0.376,6.931 0.864,0.494 1.507,-0.744 2.215,-0.928 2.025,-0.527 1.102,3.007 0.917,3.854 -0.483,2.212 0.404,3.701 2.891,3.269 2.494,-0.435 2.315,-4.164 4.407,-4.558 2.092,-0.394 2.11,-5.718 1.623,-7.583 -0.487,-1.865 -0.142,-1.589 -1.352,-2.594 -1.026,-0.854 -3.188,0.018 -3.313,-0.938 -0.155,-1.201 1.305,-1.485 1.563,-2.625 0.282,-1.251 -0.438,-2.364 -0.704,-3.568 -0.272,-1.233 -2.806,-8.203 -0.89,-5.453 1.916,2.75 3.259,2.705 3.625,3.927 0.313,1.044 0.691,3.028 1.477,3.885 0.574,0.626 3.157,-0.285 3.18,0.709 0.021,0.935 -2.128,1.683 -2.156,2.563 -0.061,1.938 0.725,2.248 1.417,4.271 0.834,2.438 -0.14,4.881 0.063,7.469 0.128,1.637 -1.075,2.404 0.007,4.451 1.282,2.429 2.429,-0.535 3.148,-2.559 z m 50.296,-27.623 c -0.24,-2.834 -3.881,-3.343 -3.863,-0.161 0.016,2.913 3.776,3.248 3.863,0.161 -0.106,-1.24 -0.037,1.316 0,0 z m -58.098,33.743 c -2.125,-0.125 -2.925,0.939 -1.983,2.72 0.942,1.781 2.983,0.78 3.483,-0.345 0.5,-1.125 0.625,-2.25 -1.5,-2.375 z m 55.833,-39.135 c 0.506,1.126 2.458,-0.148 2.364,-1.149 -0.094,-1 -0.773,-1.648 -1.76,-1.605 -0.986,0.043 -1.11,1.628 -0.604,2.754 z"
         id="path152" />
      <path
         style="clip-rule:evenodd;fill-rule:evenodd"
         d="m 220.404,205.69 c 10.868,0.895 14.875,20.465 9.708,28.354 -3.883,5.927 -9.017,6.277 -15.332,7.371 -2.976,0.516 -5.224,2.196 -7.476,4.116 -2.33,1.986 -5.301,2.451 -8.188,3.246 -5.406,1.485 -10.987,-4.953 -11.441,-9.843 -0.508,-5.463 2.36,-11.295 7.399,-13.696 2.375,-1.132 6.261,-1.541 7.611,-4.104 1.497,-2.838 2.595,-5.802 4.402,-8.469 3.098,-4.576 7.994,-6.975 13.317,-6.975 -0.463,-0.038 -2.054,0 0,0 z m 5.353,16.663 c 0,-4.111 -0.747,-8.357 -4.983,-10.113 -3.902,-1.618 -8.342,2.661 -9.836,5.912 -1.987,4.324 -3.531,7.714 -7.428,10.749 -3.106,2.418 -8.739,1.198 -9.365,6.779 -0.175,1.56 1.076,4.612 2.855,4.442 1.525,-0.146 1.913,-3.058 3.438,-3.031 0.881,0.016 3.147,2.809 3.813,1.844 0.743,-1.077 0.727,-3.576 1.863,-4.288 1.136,-0.712 2.543,1.788 4.543,1.976 2,0.188 0.532,-2.021 2.461,-2.774 2.378,-0.931 3.856,1.964 5.914,-0.478 3.077,-3.654 6.119,-6.133 6.725,-11.018 0,-0.612 -0.12,0.969 0,0 z"
         id="path154" />
      <path
         style="clip-rule:evenodd;fill-rule:evenodd"
         d="m 184.998,228.289 c 0.856,2.998 -2.288,5.328 -4.479,6.598 -3.351,1.939 -7.024,-1.263 -7.923,-4.432 -1.137,-4.007 -0.33,-7.711 4.201,-8.886 2.954,-0.763 7.587,4.117 8.201,6.72 0.191,0.669 -0.286,-1.213 0,0 z m -4.524,1.351 c 0.608,-2.109 -2.575,-4.578 -3.986,-2.271 -1.559,2.558 2.433,5.153 3.986,2.271 0.299,-1.039 -0.45,0.834 0,0 z"
         id="path156" />
      <path
         style="clip-rule:evenodd;fill-rule:evenodd"
         d="m 185.421,159.939 c -0.263,-1.004 -2.998,-1.805 -0.947,-3.589 2.051,-1.784 3.578,1.126 5.635,0.06 2.057,-1.065 5.365,-2.455 6.738,-3.064 1.371,-0.609 -0.092,-2.954 2.459,-2.45 2.551,0.505 0.158,2.357 1.134,4.66 0.977,2.302 -2.609,0.194 -3.53,0.723 -1.959,1.124 -6.047,2.996 -6.629,3.289 -1.869,0.942 -1.473,3.505 -3.295,3.485 -1.823,-0.021 -1.303,-2.11 -1.565,-3.114 z"
         id="path158" />
      <path
         style="clip-rule:evenodd;fill-rule:evenodd"
         d="m 204.486,157.176 c 0.243,-0.958 1.054,-1.993 2.711,-1.821 2.66,0.28 0.523,3.541 -1.048,3.66 -1.571,0.119 -1.906,-0.881 -1.663,-1.839 z"
         id="path160" />
      <path
         style="clip-rule:evenodd;fill-rule:evenodd"
         d="m 161.268,168.584 c -0.863,-1.274 -0.832,-4.017 0.118,-6.208 0.95,-2.19 1.112,1.886 1.425,4.645 0.313,2.757 -0.681,2.837 -1.543,1.563 z"
         id="path162" />
      <path
         style="clip-rule:evenodd;fill-rule:evenodd"
         d="m 216.809,226.433 c 0.316,-1.311 1.283,-1.688 2.768,-1.796 1.485,-0.108 0.423,3.798 -1.327,4.829 -1.75,1.031 -1.757,-1.722 -1.441,-3.033 z"
         id="path164" />
      <path
         style="clip-rule:evenodd;fill-rule:evenodd"
         d="m 157.134,162.403 c -0.152,-1.798 -2.463,-2.122 -2.452,-0.102 0.011,1.849 2.398,2.061 2.452,0.102 -0.066,-0.787 -0.023,0.835 0,0 z"
         id="path166" />
      <path
         style="clip-rule:evenodd;fill-rule:evenodd"
         d="m 199.213,163.506 c 1.804,0.78 2.892,-1.725 0.946,-2.755 -1.779,-0.942 -2.799,1.693 -0.946,2.755 0.789,0.342 -0.79,-0.453 0,0 z"
         id="path168" />
      <path
         style="clip-rule:evenodd;fill-rule:evenodd"
         d="m 158.747,187.662 c -1.443,-0.085 -1.987,0.638 -1.347,1.847 0.64,1.209 2.026,0.53 2.366,-0.234 0.339,-0.765 0.424,-1.529 -1.019,-1.613 z"
         id="path170" />
      <path
         style="clip-rule:evenodd;fill-rule:evenodd"
         d="m 204.264,164.94 c -2.154,-0.087 -2.964,0.658 -2.01,1.905 0.955,1.248 3.024,0.547 3.531,-0.241 0.507,-0.788 0.633,-1.576 -1.521,-1.664 z"
         id="path172" />
    </g>
  </g>
</svg>
