<?xml version="1.0" encoding="UTF-8" standalone="no"?>
<svg
   xmlns:dc="http://purl.org/dc/elements/1.1/"
   xmlns:cc="http://creativecommons.org/ns#"
   xmlns:rdf="http://www.w3.org/1999/02/22-rdf-syntax-ns#"
   xmlns:svg="http://www.w3.org/2000/svg"
   xmlns="http://www.w3.org/2000/svg"
   xmlns:sodipodi="http://sodipodi.sourceforge.net/DTD/sodipodi-0.dtd"
   xmlns:inkscape="http://www.inkscape.org/namespaces/inkscape"
   sodipodi:docname="spikes.svg"
   inkscape:version="1.0 (4035a4fb49, 2020-05-01)"
   id="svg3551"
   version="1.1"
   viewBox="0 0 29.700001 29.700001"
   height="29.700001mm"
   width="29.700001mm">
  <defs
     id="defs3545" />
  <sodipodi:namedview
     inkscape:window-maximized="1"
     inkscape:window-y="-8"
     inkscape:window-x="-8"
     inkscape:window-height="1356"
     inkscape:window-width="3440"
     showgrid="false"
     inkscape:document-rotation="0"
     inkscape:current-layer="layer1"
     inkscape:document-units="mm"
     inkscape:cy="77.4215"
     inkscape:cx="29.837389"
     inkscape:zoom="2.8"
     inkscape:pageshadow="2"
     inkscape:pageopacity="0.0"
     borderopacity="1.0"
     bordercolor="#666666"
     pagecolor="#ffffff"
     id="base" />
  <metadata
     id="metadata3548">
    <rdf:RDF>
      <cc:Work
         rdf:about="">
        <dc:format>image/svg+xml</dc:format>
        <dc:type
           rdf:resource="http://purl.org/dc/dcmitype/StillImage" />
        <dc:title></dc:title>
      </cc:Work>
    </rdf:RDF>
  </metadata>
  <g
     transform="translate(-48.313789,-115.17771)"
     id="layer1"
     inkscape:groupmode="layer"
     inkscape:label="Layer 1">
    <g
       transform="matrix(0.26458333,0,0,0.26458333,47.807226,77.817879)"
       id="g26">
      <g
         id="g14">
        <path
           style="clip-rule:evenodd;fill:#6d523a;fill-rule:evenodd"
           d="m 21.25,149.685 c -2.688,1.688 4.261,26.25 4.261,26.25 0,0 7.677,11.814 12.114,14.157 4.437,2.343 7.25,-5.407 10.938,-7.595 3.688,-2.188 -5.063,-20.062 -5.063,-20.062 0,0 -19.562,-14.437 -22.25,-12.75 z"
           id="path4" />
        <path
           style="clip-rule:evenodd;fill:#6d523a;fill-rule:evenodd"
           d="m 33.688,202.871 c -2.973,-1.054 -5.313,-4.871 -9,-5.498 -3.687,-0.627 -12.438,2.313 -12.438,2.313 l 10.5,9.499 12.813,2.198 v 21.427 l 14.313,-6.875 c 0,0 6.375,-13.625 6.75,-16.875 0.375,-3.25 -1.31,-9 -5.186,-7.5 -3.876,1.5 -13.44,11.75 -13.877,8.75 -0.437,-3 -0.902,-6.386 -3.875,-7.439 z"
           id="path6" />
        <path
           style="clip-rule:evenodd;fill:#6d523a;fill-rule:evenodd"
           d="m 64,182.185 c 2.683,-4.19 13.125,-20.5 13.125,-20.5 l 17.75,-7 -8.75,21.375 c 0,0 -14.563,11.813 -17.563,14 -3,2.187 -7.245,-3.685 -4.562,-7.875 z"
           id="path8" />
        <path
           style="clip-rule:evenodd;fill:#6d523a;fill-rule:evenodd"
           d="M 73.375,203.06 C 77.813,203.123 86,206.336 86,206.336 l 5.125,-15.526 12.75,-10.375 v 15.375 l -10.625,10.526 4.98,16.724 -10.355,0.625 c 0,0 -11.188,-8.375 -14.5,-11.125 -3.312,-2.75 -4.437,-9.562 0,-9.5 z"
           id="path10" />
        <path
           style="clip-rule:evenodd;fill:#6d523a;fill-rule:evenodd"
           d="m 70,220.435 c 2.764,3.99 9.438,13.625 9.438,13.625 l -4.719,16 -9.969,-7.375 c 0,0 -5.313,-17.188 -5.125,-21.625 0.188,-4.437 7.611,-4.615 10.375,-0.625 z"
           id="path12" />
      </g>
      <g
         id="g24">
        <path
           style="clip-rule:evenodd;fill-rule:evenodd"
           d="m 74.188,217.915 c -1.266,1.749 -0.92,3.481 0.15,5.222 2.735,4.447 8.079,9.091 7.496,12.591 -0.583,3.5 -4.167,17.166 -5.917,17.666 -1.75,0.5 -8.34,-5.188 -10.445,-7.09 -3.492,-3.154 -2.295,-6.585 -4.002,-10.648 -1.837,-4.383 -2.764,-9.202 -3.981,-13.776 -1.142,-4.297 4.218,-3.977 5.319,-0.347 1.053,3.47 2.264,7.221 2.968,10.762 0.919,4.626 -0.439,8.478 5.095,10.334 3.308,1.109 5.14,-4.068 5.993,-6.255 1.736,-4.44 -5.073,-0.722 -6.076,-2.159 -1.151,-1.646 0.407,-3.025 0.213,-5.07 -0.162,-1.708 -3.457,-6.896 -3.9,-8.509 -0.48,-1.753 1.662,-2.902 2.142,-4.354 0.618,-1.87 0.775,-6.989 4.024,-7.037 0.612,-0.01 5.051,1.764 6.099,2.918 1.048,1.154 2.988,3.541 4.629,0.702 2.467,-4.257 -4.955,-5.271 -7.682,-6.353 -0.858,-0.342 -7.452,-3.52 -3.587,-5.226 3.794,-1.671 8.102,3.538 11.339,0.978 2.611,-2.064 2.423,-8.167 4.103,-10.953 1.543,-2.56 3.453,-3.941 5.458,-6.167 2.613,-2.899 10.25,-10.042 11.792,-9.75 1.542,0.292 4.199,17.515 -0.544,22.681 -1.958,2.133 -3.414,4.545 -5.75,6.328 -3.944,3.014 -1.171,6.545 0.038,10.213 0.833,2.526 4.088,8.11 3.255,9.527 -0.833,1.417 -10.028,1.604 -13.097,1.581 -3.924,-0.031 -6.068,-3.076 -9.249,-4.875 -1.874,-1.06 -4.618,-4.683 -5.883,-2.934 z m 15.074,-5.602 c -0.972,-0.081 -2.244,3.592 -2.034,5.261 0.27,2.146 1.876,3.907 5.088,3.866 4.451,-0.056 0.809,-9.263 -3.054,-9.127 z m 13.488,-27.878 c -0.417,-0.54 -3.836,3.067 -6.327,5.417 -3.99,3.772 -3.05,3.371 -4.964,8.541 -1.797,4.836 1.693,4.356 4.185,2.661 1.669,-1.136 3.482,-2.536 4.523,-4.494 1.041,-1.958 1.175,-4.104 1.639,-6.244 0.081,-0.933 1.361,-5.341 0.944,-5.881 z"
           id="path16" />
        <path
           style="clip-rule:evenodd;fill-rule:evenodd"
           d="m 23.694,206.816 c 2.583,0.886 5.729,-0.096 9.101,1.094 7.078,2.497 10.706,-3.658 16.304,-7.434 1.546,-1.042 5.669,-1.144 4.082,1.907 -1.358,2.6 -10.973,8.718 -13.557,11.427 -2.584,2.709 -2.935,14.422 -2.333,15.167 0.602,0.745 8.984,-0.288 9.824,-4.577 0.632,-3.229 -5.282,-4.632 -4.657,-6.007 0.625,-1.375 2.5,0.042 4.75,-1.25 2.25,-1.292 3.721,-2.472 5.042,-4.375 1.321,-1.903 2.277,-5.66 5.08,-5.208 2.803,0.452 -2.67,12.945 -3.589,15.077 -1.209,2.806 -4.651,6.979 -8.324,9.256 -5.346,3.315 -10.667,4 -12.75,3 -2.083,-1 3.174,-19.501 -1.138,-21.446 -3.201,-1.444 -7.178,-0.928 -10.144,-2.493 C 18.254,209.297 9.75,200.81 9.917,198.893 c 0.167,-1.917 12.927,-4.04 15.615,-3.812 2.688,0.228 5.98,2.49 8.695,7.803 1.071,2.085 -2.133,0.113 -4.258,-1.48 -2.125,-1.593 -2.591,-2.899 -6.219,-2.875 -3.628,0.024 -9.979,0.594 -7.896,2.282 2.083,1.688 5.258,5.119 7.84,6.005 z"
           id="path18" />
        <path
           style="clip-rule:evenodd;fill-rule:evenodd"
           d="m 33.966,176.025 c 0.784,-0.215 2.233,-1.908 3.075,-1.03 0.842,0.878 -0.131,4.104 -0.808,6.112 -1.432,4.238 5.061,-1.278 4.689,2.029 -0.336,2.989 -1.192,13.663 -6.248,7.144 -3.117,-4.002 -9.569,-8.189 -11.007,-13.128 -1.643,-5.641 -3.999,-10.254 -4.786,-16.166 -0.544,-4.082 -2.215,-18.593 -0.715,-19.676 1.5,-1.083 9.793,6.335 11.896,8.05 4.009,3.269 9.078,4.256 11.717,9.179 0.729,1.359 2.149,1.749 3.322,2.592 1.673,1.2 1.676,3.323 2.066,5.147 0.587,2.744 5.938,15.217 3.747,16.577 -4.702,2.919 -7.312,-8.415 -7.832,-10.757 -1.383,-6.234 -1.952,-9.609 -7.359,-13.219 -1.817,-1.213 -12.712,-8.863 -12.068,-2.528 0.21,2.079 1.83,16.717 4.741,14.694 2.503,-1.741 3.6,-4.436 7.043,-4.271 2.175,0.106 2.025,2.919 0.804,4 -1.471,1.302 -3.182,2.035 -3.26,3.128 -0.078,1.093 0.199,2.338 0.983,2.123 z"
           id="path20" />
        <path
           style="clip-rule:evenodd;fill-rule:evenodd"
           d="m 73.956,171.535 c -3.143,3.792 -4.816,8.933 -8.656,12.088 -1.548,1.271 -4.555,-0.418 -3.25,-2.375 2.586,-3.875 5.003,-7.86 7.675,-11.679 1.613,-2.306 2.26,-5.175 3.927,-7.322 2.666,-3.435 6.401,-4.608 10.208,-6.239 3.819,-1.638 13.558,-6.115 14.308,-4.615 0.75,1.5 -5.328,16.207 -7.765,22.336 -2.688,6.761 -12.126,11.002 -17.546,15.547 -1.563,1.311 -4.853,5.003 -7.302,3.369 -3.555,-2.372 1.496,-6.657 3.493,-7.892 4.309,-2.663 9.609,-5.819 9.984,-8.351 0.375,-2.532 -1.614,-6.239 -0.719,-7.031 0.895,-0.792 2.326,0.271 3.349,3.08 2.371,6.449 6.536,-6.733 6.838,-7.32 2.167,-4.219 2.695,-7.738 -3.027,-5.794 -3.042,1.034 -6.208,2.629 -7.273,5.498 -0.36,0.969 -0.088,2.267 -0.491,2.954 -0.403,0.687 -0.61,-0.047 -3.753,3.746 z"
           id="path22" />
      </g>
    </g>
    <path
       style="clip-rule:evenodd;fill-rule:evenodd;stroke-width:0.264583"
       d="m 73.653842,129.15075 c -0.105304,-0.05 -0.20955,-0.10028 -0.325437,-0.13018 -0.218281,-0.0571 -0.456142,-0.002 -0.559594,0.19606 -0.08811,0.1688 -0.01032,0.42148 0.207963,0.47784 0.115887,0.0299 0.220398,0.0804 0.325173,0.13017 0.198966,0.095 0.471222,-0.0267 0.559593,-0.19605 0.103717,-0.19765 -0.0095,-0.38339 -0.207698,-0.47784 z"
       id="path194" />
    <path
       style="clip-rule:evenodd;fill-rule:evenodd;stroke-width:0.264583"
       d="m 54.834824,131.02691 c -0.200819,-0.11562 -0.423334,0.0275 -0.538692,0.2839 -0.05662,0.1262 -0.122502,0.24579 -0.179388,0.372 -0.115093,0.25665 -0.01852,0.58314 0.16219,0.68765 0.201083,0.11563 0.423598,-0.0275 0.538692,-0.28363 0.05689,-0.12621 0.122502,-0.24606 0.179387,-0.37227 0.115623,-0.25664 0.01879,-0.58314 -0.162189,-0.68765 z"
       id="path196" />
  </g>
</svg>
