<?xml version="1.0" encoding="UTF-8" standalone="no"?>
<svg
   xmlns:dc="http://purl.org/dc/elements/1.1/"
   xmlns:cc="http://creativecommons.org/ns#"
   xmlns:rdf="http://www.w3.org/1999/02/22-rdf-syntax-ns#"
   xmlns:svg="http://www.w3.org/2000/svg"
   xmlns="http://www.w3.org/2000/svg"
   xmlns:sodipodi="http://sodipodi.sourceforge.net/DTD/sodipodi-0.dtd"
   xmlns:inkscape="http://www.inkscape.org/namespaces/inkscape"
   sodipodi:docname="web4.svg"
   inkscape:version="1.0 (4035a4fb49, 2020-05-01)"
   id="svg6563"
   version="1.1"
   viewBox="0 0 32.196949 32.196949"
   height="32.196949mm"
   width="32.196949mm">
  <defs
     id="defs6557" />
  <sodipodi:namedview
     inkscape:window-maximized="1"
     inkscape:window-y="-8"
     inkscape:window-x="-8"
     inkscape:window-height="1356"
     inkscape:window-width="3440"
     showgrid="false"
     inkscape:document-rotation="0"
     inkscape:current-layer="layer1"
     inkscape:document-units="mm"
     inkscape:cy="37.605074"
     inkscape:cx="-19.158206"
     inkscape:zoom="1.979899"
     inkscape:pageshadow="2"
     inkscape:pageopacity="0.0"
     borderopacity="1.0"
     bordercolor="#666666"
     pagecolor="#ffffff"
     id="base" />
  <metadata
     id="metadata6560">
    <rdf:RDF>
      <cc:Work
         rdf:about="">
        <dc:format>image/svg+xml</dc:format>
        <dc:type
           rdf:resource="http://purl.org/dc/dcmitype/StillImage" />
        <dc:title></dc:title>
      </cc:Work>
    </rdf:RDF>
  </metadata>
  <g
     transform="translate(-89.734857,-134.66773)"
     id="layer1"
     inkscape:groupmode="layer"
     inkscape:label="Layer 1">
    <path
       style="fill:#e2e2e9;stroke-width:0.264583"
       d="m 118.93048,145.09953 c 0.29025,0.88476 0.712,1.78488 1.34488,2.47518 0.92048,1.00462 2.35532,1.70312 1.26391,2.39765 -1.0914,0.69453 -1.92484,1.47399 -2.28758,2.31854 -0.26829,0.62468 -0.68104,1.19989 -0.97579,1.8161 -0.61965,1.29487 -1.29778,3.56659 -1.02526,4.98237 0.14923,0.77497 0.948,0.97023 0.70565,1.66476 -0.24236,0.69453 0.88635,2.45057 0.63817,2.94667 -0.24818,0.49609 -2.32463,-1.42055 -3.06335,-1.77245 -1.04748,-0.4998 -2.02935,-1.02685 -3.15145,-1.34779 -4.05606,-1.16072 -8.00788,-0.73263 -12.16607,-0.69929 -0.893761,0.007 -1.887536,0.17727 -2.76119,0.36936 -0.765704,0.16854 -2.706159,0.78237 -3.301471,0.84852 -0.595313,0.0661 0.01931,-1.36737 0.230452,-2.07989 0.258233,-0.86837 -0.07752,-2.21192 -0.475192,-3.00249 -0.397668,-0.79058 -1.050396,-1.42399 -1.753923,-1.94522 -0.521493,-0.38629 -2.163762,-1.01071 -2.385218,-1.61872 -0.221457,-0.60828 0.768085,-0.78899 0.884502,-1.34647 0.177006,-0.84269 1.30466,-1.45732 1.927489,-1.94654 1.573477,-1.23613 2.641071,-3.42688 3.655219,-5.13185 0.475456,-0.79825 0.938742,-1.37346 1.493044,-3.25359 0.554302,-1.88013 -0.100013,-2.82389 0.991394,-3.73327 1.091406,-0.90937 1.300954,0.83635 3.527694,1.52638 2.22699,0.68951 4.67915,0.8943 6.85905,0.91229 1.91082,0.0159 3.65072,-0.26459 5.51948,-0.61833 0.83026,-0.15717 1.64068,-0.40164 2.4421,-0.66622 1.06574,-0.35084 2.46327,-0.72814 1.90871,0.79718 -0.55457,1.52533 -0.67284,4.19286 -0.0452,6.10712 z m -10.6471,0.2966 c 3.0615,0.24421 6.14098,-2.24949 7.77584,-4.59185 1.37769,-1.97458 -1.72111,-0.83873 -2.60323,-0.635 -1.65206,0.381 -3.33904,0.30798 -4.99825,0.46382 -1.38086,0.12964 -2.9419,-0.0307 -4.28519,-0.43127 -0.88291,-0.263 -1.75366,-0.41963 -2.6834,-0.35904 -0.7747,0.05 -0.26803,1.40573 -0.12356,1.74836 0.29368,0.69824 0.64955,1.37213 1.08876,1.98993 0.37703,0.53155 0.93609,0.46064 1.42637,0.80063 1.40097,0.97129 2.8067,0.66834 4.40266,1.01442 0.33708,0.027 -0.1643,-0.0357 0,0 z m 5.57133,5.8248 c 1.00304,-0.11377 6.70164,-0.96705 5.50228,-2.52254 -0.72866,-0.94509 -1.26603,-1.81001 -1.64624,-2.95169 -0.29765,-0.89456 -0.28654,-2.41909 -0.83714,-3.17236 -0.48207,-0.65934 -1.86531,0.98134 -2.20213,1.27027 -0.47889,0.41063 -1.08982,0.74136 -1.515,1.20518 -0.36909,0.40296 -0.45958,0.95382 -0.80751,1.37239 -0.63632,0.76544 -1.39885,1.60549 -0.85143,2.69214 0.72522,1.44118 0.44873,2.34447 2.35717,2.10661 0.33523,-0.0381 -0.33364,0.0415 0,0 z m -19.077777,-0.0762 c 1.093788,-0.0286 2.554817,0.10001 3.493294,-0.5797 0.987425,-0.71517 1.775353,-2.20531 2.201333,-3.32238 0.28654,-0.75141 0.90593,-2.51804 0.5543,-3.28136 -0.21272,-0.46302 -1.160195,-3.83328 -1.623217,-3.70099 -0.46302,0.13229 -0.69797,1.63327 -0.902229,2.08756 -0.220927,0.49133 -0.63156,0.91361 -0.801423,1.42319 -0.427037,1.27715 -1.507066,2.23229 -2.088356,3.43483 -0.57441,1.1885 -1.513417,2.05607 -2.497402,2.903 -1.434571,1.23455 0.834231,1.06469 1.6637,1.03585 0.3937,-0.0103 -0.697442,0.0243 0,0 z m 10.003367,7.52395 c 1.19248,-0.0619 2.35744,0.0511 3.54568,0.0781 0.36036,0.008 3.63167,0.32703 2.90618,-0.56753 -1.51632,-1.87431 -5.24298,-3.26972 -7.57925,-2.47676 -0.50165,0.1696 -0.85513,0.45746 -1.41764,0.46302 -0.46143,0.005 -0.97022,-5.3e-4 -1.39726,0.1995 -0.875772,0.4101 -2.956192,1.36895 -3.492502,2.16323 -0.406665,0.60245 0.348985,0.46514 0.658548,0.40402 0.826558,-0.16325 1.67349,-0.11563 2.511424,-0.14394 1.42187,-0.0482 2.84216,-0.11774 4.26482,-0.11959 0.77602,-0.0402 -1.40944,0.002 0,0 z m 12.63518,-7.03103 c -1.093,0.0741 -2.17567,0.5199 -3.25623,0.72919 -0.94509,0.18283 -2.40877,0.11483 -3.17183,0.81227 -1.38482,1.26577 0.76068,3.57637 1.73355,4.25265 0.7284,0.50641 2.23679,1.67957 2.76596,1.69068 0.52917,0.0111 0.41434,-2.20636 0.77179,-3.02074 0.35745,-0.81439 0.69083,-1.72853 1.06468,-2.53339 0.2712,-0.5842 1.1766,-1.72217 0.0921,-1.93066 -0.16748,0.0114 0.0807,0.0156 0,0 z m -21.622812,0.48498 c -0.753797,0.0193 -1.595172,-0.063 -2.309812,0.22463 -1.243806,0.50059 0.253471,1.3036 0.722048,1.78012 0.614627,0.62547 1.130035,1.43457 1.367367,2.28414 0.271462,0.97208 0.3683,1.89786 1.56845,1.23376 0.740304,-0.40958 4.455049,-2.56408 3.071019,-3.56791 -0.64479,-0.46778 -1.427163,-0.6604 -2.089944,-1.07712 -0.930275,-0.58552 -1.17184,-0.8464 -2.329128,-0.87762 -0.651139,0.0167 0.190765,0.005 0,0 z m 11.817352,-5.6777 c -0.95356,-0.0611 -1.90871,-0.17383 -2.862,-0.22092 -1.18163,-0.0601 0.28496,2.71647 0.51303,3.05514 0.84111,1.24619 2.77389,-1.09458 3.37502,-1.63301 1.27477,-1.14141 0.12065,-1.14459 -1.02605,-1.20121 -0.93716,-0.0603 0.0683,0.003 0,0 z m -5.51392,4.33653 c 1.02235,0 2.26007,0.24182 1.65973,-1.13454 -0.20505,-0.4699 -0.81571,-2.79744 -1.42081,-2.7051 -0.71226,0.10848 -1.39462,2.12937 -1.72614,2.70193 -0.698236,1.20544 0.65881,1.12024 1.48722,1.13771 0.53102,0 -0.38603,-0.008 0,0 z m 7.1329,0.90593 c 0.47678,0.0198 1.80631,-0.45429 1.44833,-1.17422 -0.60907,-1.22396 -0.77496,-2.30743 -2.16482,-1.33377 -0.41539,0.29131 -1.63089,1.03982 -1.57109,1.65338 0.0754,0.77894 1.75736,0.84059 2.28758,0.85461 0.33894,0.014 -0.5961,-0.0159 0,0 z m -5.94095,2.48417 c 0.54107,0.37545 1.94786,0.0386 2.65589,0.17145 0.38523,0.072 1.53564,0.16828 1.08426,-0.63738 -0.37465,-0.66649 -0.87868,-1.23243 -1.6719,-1.27979 -0.75274,-0.0455 -2.17779,0.92763 -2.06825,1.74572 0.0667,0.0463 -0.0109,-0.081 0,0 z m -1.72297,-2.13069 c -0.29792,0.018 -1.5232,-0.0288 -1.622422,0.19156 -0.09922,0.2204 1.293552,1.18851 1.631682,1.26762 0.41328,0.0958 0.92605,-0.46884 1.20174,-0.83767 0.55986,-0.74851 -0.73686,-0.56833 -1.211,-0.62151 -0.27411,0.0167 0.22702,0.0254 0,0 z"
       id="path184" />
  </g>
</svg>
