<?xml version="1.0" encoding="UTF-8"?>
<!DOCTYPE svg PUBLIC "-//W3C//DTD SVG 1.1//EN" "http://www.w3.org/Graphics/SVG/1.1/DTD/svg11.dtd">
<!-- Creator: CorelDRAW 2020 (64-Bit) -->
<svg xmlns="http://www.w3.org/2000/svg" xml:space="preserve" width="510px" height="512px" version="1.1" style="shape-rendering:geometricPrecision; text-rendering:geometricPrecision; image-rendering:optimizeQuality; fill-rule:evenodd; clip-rule:evenodd"
viewBox="0 0 508.5 510"
 xmlns:xlink="http://www.w3.org/1999/xlink"
 xmlns:xodm="http://www.corel.com/coreldraw/odm/2003">
 <defs>
  <style type="text/css">
   <![CDATA[
    .fil11 {fill:#010101}
    .fil63 {fill:#020202}
    .fil0 {fill:#040304}
    .fil45 {fill:#050506}
    .fil73 {fill:#0B0B0C}
    .fil24 {fill:#20304B}
    .fil52 {fill:#21324D}
    .fil35 {fill:#22334F}
    .fil62 {fill:#314A7A}
    .fil14 {fill:#323336}
    .fil61 {fill:#334B6D}
    .fil43 {fill:#343B41}
    .fil23 {fill:#364A91}
    .fil44 {fill:#384EA6}
    .fil18 {fill:#3C4043}
    .fil33 {fill:#3F4346}
    .fil65 {fill:#4055AA}
    .fil49 {fill:#455BAB}
    .fil70 {fill:#4F6DAE}
    .fil55 {fill:#526E92}
    .fil29 {fill:#5C8AAA}
    .fil54 {fill:#5D6267}
    .fil48 {fill:#5E517D}
    .fil3 {fill:#615482}
    .fil67 {fill:#625482}
    .fil60 {fill:#6296AE}
    .fil50 {fill:#686B73}
    .fil39 {fill:#74767C}
    .fil71 {fill:#797B83}
    .fil66 {fill:#799FC2}
    .fil64 {fill:#7B8087}
    .fil53 {fill:#7E3C60}
    .fil47 {fill:#887998}
    .fil21 {fill:#93969D}
    .fil32 {fill:#959BA3}
    .fil36 {fill:#9686A5}
    .fil57 {fill:#9B8BAA}
    .fil51 {fill:#9CA3AB}
    .fil6 {fill:#9E8DAD}
    .fil17 {fill:#9F8EAE}
    .fil25 {fill:#A4ABB3}
    .fil22 {fill:#A5A5AC}
    .fil41 {fill:#A696B3}
    .fil69 {fill:#A7CADD}
    .fil27 {fill:#A8B0B9}
    .fil46 {fill:#AACEE0}
    .fil20 {fill:#AD3A52}
    .fil19 {fill:#B5A7BB}
    .fil4 {fill:#BCADC2}
    .fil1 {fill:#C1B1C4}
    .fil7 {fill:#C2B3C6}
    .fil26 {fill:#C7AD60}
    .fil30 {fill:#C7AD61}
    .fil15 {fill:#CCC5D2}
    .fil2 {fill:#D0CAD5}
    .fil12 {fill:#D3CED9}
    .fil59 {fill:#D43087}
    .fil16 {fill:#D5DEE8}
    .fil31 {fill:#D6C992}
    .fil72 {fill:#DE79CB}
    .fil5 {fill:#DEE7F1}
    .fil58 {fill:#E1D8AC}
    .fil10 {fill:#E1EBF4}
    .fil37 {fill:#E3D7B5}
    .fil42 {fill:#E4DCB6}
    .fil13 {fill:#E4EEF7}
    .fil8 {fill:#E6EFF9}
    .fil9 {fill:#E6F0FA}
    .fil34 {fill:#E7E4BB}
    .fil68 {fill:#E8C711}
    .fil38 {fill:#E9E9BD}
    .fil56 {fill:#E9F3FD}
    .fil28 {fill:#EEEDD8}
    .fil40 {fill:#FB94F3}
   ]]>
  </style>
 </defs>
 <g id="Layer_x0020_1">
  <metadata id="CorelCorpID_0Corel-Layer"/>
  <g id="_2955301402880">
   <path class="fil0" d="M259.95 500.88l4.03 -20.92c9.26,1.33 1.53,6.12 13.05,14.08 2.05,1.42 3.94,3.56 5.13,4.97 -5.15,0.44 -6.92,-0.21 -11.5,1.61 -5.76,2.28 -4.47,2.22 -10.71,0.26zm43.17 -500.88l14.51 0c9.44,0.83 17.82,4.11 27.83,14.33l1.53 1.47c3.68,3.18 5.66,6.74 7.5,11.46l0.92 2.07c0.65,1.29 0.49,0.98 1.08,1.92 5.3,8.42 12.75,25.46 16.56,34.34l14.69 36.21c5.78,-2.77 11.47,-4.27 17.4,-7.55 3.24,-1.8 5.15,-3.09 8.4,-4.57l25.95 -10.99c4.15,-2.26 4.79,-1.28 8.14,-4.83l5.81 -6.23c6.4,-6.4 6.49,0.12 4.52,5.55 -2.13,5.86 -7.04,12.18 -10.48,18.5 -10.72,19.7 -9.98,15.38 -19.82,30.08 7.95,5.32 9.98,7.41 9.98,17.97 -9.13,2.12 -6.85,0.82 -18.96,-2 -4.19,8.73 4.45,10.52 10.98,13.97 0,4.4 -0.12,6.19 -2.36,8.63 -6.53,7.1 -15.88,0.19 -21.6,-3.64 1.08,4.02 4.54,5.8 6.56,9.42 3.25,5.84 2.43,5.27 2.43,13.54 -3.27,2.18 -1.39,2.61 -5.99,2.99 0.42,5.09 1.61,2.76 1.75,8.39l0.19 4.66c1.56,17.71 6.98,55.32 12.03,73.14l12.97 48.55c7.7,-4.08 1.62,0 10.98,0 3.8,-7.91 -0.31,-9.12 14.72,-12.39 4.84,-1.05 9.19,-10.69 12.11,-14.68 3.82,-5.19 6.98,-13.2 8.26,-19.69 1.03,-5.28 3.28,-7.92 4.37,-12.75 0.25,-1.12 -0.71,-2.57 3.46,-5.37 4.51,4.28 3.39,4.97 4.44,12.53 0.89,6.46 1.88,12.92 1.23,18.39 -0.54,4.59 -1.18,0.7 -1.37,5.64l2.4 7.38c0.05,6.22 -2.47,12.34 -2.98,20.12 -0.19,2.94 -1.86,5.77 -2.58,7.93 -2.39,7.15 -7.66,25.16 -8.13,30.81 -4.05,0 -3.21,-0.33 -5.99,1 2.21,9.48 2.98,5.61 -0.36,15.6 -1,2.98 -1.36,4.8 -2.81,7.18 -1.96,3.22 -2.88,2.68 -3.81,6.16 0,2.75 13.11,22.3 15.55,26.37 6.95,11.65 11.17,24.24 17.97,35.93 2.41,4.14 2.45,5.11 1.41,9.56 -1.77,-1.86 -3.81,-3.53 -5.99,-4.99 2.19,9.41 9.98,15.49 9.98,25.95 -6.71,-0.56 -6.04,-5.78 -12.96,-5.83 -5.61,-0.05 -8.32,-5.54 -12.28,-8.85 -6.75,-5.62 -13.03,-12.41 -18.65,-19.27l-15.99 -17.95c-0.11,0.24 -2.36,5.37 -2.37,5.39 -0.28,1.32 0.07,3.82 0.89,6.01l4.88 11.15c3.18,5.73 4.3,5.85 4.3,9.51 0.01,4.16 4.67,11.31 7.13,14.99 1.19,1.79 1.98,3.28 3.12,4.86l8.99 12.97c0.13,0.17 0.32,0.39 0.45,0.55 3.34,4.09 9.07,8.75 9.54,14.42 -5.01,-0.12 -7.4,-2.12 -10.81,-4.17 -6.88,-4.14 -9.68,-9.42 -14.44,-15.5l-23.73 -37.15c-0.15,-0.25 -0.62,-0.96 -0.78,-1.22 -1.72,-2.86 -1.65,-4.01 -4.14,-5.84 0.81,3.82 0.18,2.9 1.6,7.31l4.66 15.38c2.04,5.63 2.33,10.76 4.13,16.85 3.11,10.51 3.53,9.8 8.58,19.35 -4.27,-0.36 -7.05,-2.11 -9.86,-4.12 -9.44,-6.78 -10.85,-9.55 -15.88,-19.05 -1.73,-3.28 -0.25,-1.8 -3.21,-3.78 0.35,4.21 2.81,9.63 3.22,13.91 1.15,12.01 2.01,5.5 3.77,13.04 -4.51,-0.1 -9.71,-3.36 -11.99,-6.98 -1.16,-1.85 -1.73,-3.93 -3.07,-5.91 -1.67,-2.47 -4.58,-3.39 -6.34,-5.64 -2.26,-2.86 1.23,2.44 -0.74,-1.25l-4.74 -9.24c-2.24,-3.76 -5.87,-6.48 -7.05,-10.91 -3.92,0 -5.66,0.21 -8.69,1.3 -4.62,1.66 -3.9,2.71 -6.31,3.64 -2.26,0.87 -3.78,-2.45 -5.11,0.24 -0.93,1.89 -0.24,0.04 0.22,1.94l6.02 19.72c1.14,2.89 2.2,6.21 4.53,8.45 0.15,0.14 0.37,0.35 0.52,0.47 1.97,1.53 0.07,0.53 2.83,1.17l0 3c-6.76,0 -5.97,-1.39 -9.55,-5.43 -0.78,-0.88 -0.81,-0.78 -1.94,-2.05 -1.39,-1.56 -0.38,-0.32 -1.36,-1.63l-8.55 -13.41c-2.08,-3.15 -4.59,-4.82 -5.55,-8.42l-8.98 2.99c0,3.76 0.52,6.01 0.67,7.85 0.81,9.79 4.13,19.83 4.32,22.09 -2.02,1.35 -5.3,2.85 -7.77,1.29 -3.96,-2.5 -10.13,-17.69 -11.19,-22.25 -2.46,3.54 -3.14,3.34 -10.98,3.99 0,8.03 1.99,10.95 1.99,18.97 -5.21,-0.44 -4.87,-1.48 -6.87,-5.11 -1.76,-3.18 -3.26,-3.7 -4.11,-6.87 -6.64,0.15 -10.31,5.35 -17.96,5.99l0 8.98c-9.29,0 -1.54,-1.56 -8.96,-4.13 -3.67,-1.27 -5.12,0.14 -8.19,1.92 -7.92,4.58 -11.54,2.13 -21.54,3.52 -6.67,0.93 -12.95,-1.78 -20.28,-3.22 -10,-1.97 -12.41,-4.57 -18.88,-6.07 -0.83,3.59 -0.58,3.12 -2.94,5.05 -11.67,9.49 -8.71,-3.94 -27.5,-0.57 -7.37,1.32 -4.67,2.27 -9.48,5.5 -2.42,-3.62 -3.86,-5.96 -5.99,-9.98 -4.6,0.38 -7.9,1.75 -11.19,2.78 -17.01,5.3 -13.37,-0.82 -20.15,3.79 -8.62,5.86 -8.21,-1.11 -9.58,-7.57 -3.85,-1.85 -10.12,-2.14 -13.97,-3.99 -3.43,3.25 -2.23,3.65 -7.98,4.99 -4.25,-8.85 3.43,-5.46 -15.97,-9.98 -1.64,7.02 -5.7,13.74 -8.98,19.96 -4.11,-2.75 -4.56,-5.36 -5.59,-11.39l-2.4 -13.56c-2.74,-0.64 -5.24,-1.36 -7.98,-2 -2.96,5.59 -10.45,9.24 -11.98,14.97 -9.86,0 -5.18,-3.14 -7.98,-8.98 -4.5,1.2 -1.95,0.63 -4.09,4.89 -2.62,5.22 -6.08,10.86 -10.88,14.07 -1.38,-5.9 0.75,-10.45 2.52,-16.44 1.06,-3.59 0.81,-1.48 1.44,-5.55 1.4,-9.14 2.4,-14.19 1.89,-23.92l-0.06 -4.29c-2.12,2.88 -2.92,4.73 -4.83,8.3l-12.96 22.94c-5.23,3.54 -9.77,11.49 -17.95,16.97 -3.14,-4.7 1.07,-5.93 4.2,-12.77 1.44,-3.13 1.82,-3.58 3.02,-7.96 3.33,-12.18 6.48,-32.76 6.76,-45.14l-15.56 20.36c-2.47,3.71 -1.8,5.22 -3.41,8.58 -3.7,-2.71 -3.08,-4.76 -3.02,-10.95 0.08,-6.86 -1.41,-12.48 0.54,-18.49 2.07,-6.36 1.67,-12.43 5.19,-17.75l15.72 -26.21c1.22,-1.5 1.62,-2.09 2.53,-3.45 -16.79,-31.74 -5.33,-24 -12.7,-36.2 -4.33,-7.15 -1.07,-26.97 0.73,-34.66 4.11,-0.35 1.77,-0.08 2.99,-1 7.16,4.79 9.83,14.4 14.35,21.58 3.51,5.55 14.22,12.51 19.58,15.35 3.14,-5.94 -0.39,-9.35 -5.66,-20.28l-8.21 -21.74c-0.95,-2.36 -0.78,-1.51 -1.54,-3.44 -2.69,-6.79 -3.41,-12.77 -5.19,-19.77 -0.71,-2.81 -1.67,-5.46 -2.15,-7.91 -1.37,-6.9 -2.29,-25.96 -1.61,-33.05 0.33,-3.57 0.42,-5.88 0.36,-9.63 -0.13,-8.03 1.92,-12.07 6.53,-4.48l24.19 42.73c0.03,-0.14 0.13,0.5 0.27,0.72 1.94,4.8 -0.57,-0.32 3.36,2.62 3.59,2.69 12.09,15.83 19.6,21.33 0.6,-1.15 0.97,-1.98 1.74,-3.24 0.44,-0.72 1.52,-2.38 1.55,-2.44 0.98,-1.87 1.78,-4.47 2.67,-6.32l11.8 -22.08c4.5,-8.44 8.1,-15.69 11.19,-24.8 0.98,-2.89 1.54,-3.61 1.92,-7.07 0.23,-2.09 0.01,-2.42 0.48,-4.62 0.91,-4.31 0.19,-5.29 -1.22,-8l-2.74 -4.84c-1.16,-2.66 -0.87,-1.76 -0.75,-3.28 0.01,-0.15 0.1,-0.43 0.12,-0.58l0.84 -8.81c1.26,-9.38 1.86,-6.39 -0.78,-14.57l-6.27 -24.84c-0.59,-2.14 0.2,0.03 -0.67,-2.26 -1.5,-3.93 -3.31,-8.61 -5.05,-12.82 -6.02,-14.63 -13.99,-29.96 -18.86,-45.3 -0.08,-0.25 -0.35,-1 -0.42,-1.28 -0.49,-1.93 -0.49,-0.94 -0.54,-3.45 -4.02,1.92 -10.41,1.83 -15.74,2.51 -3.3,0.43 -3.27,0.48 -6.27,-1.39 -6.93,-4.33 -7.49,-14.75 -2.3,-20.44 2.65,-2.92 10.47,-4.53 15.32,-4.64 -1.93,-8.29 -1.5,-15.66 -1.05,-21.98 0.54,-7.67 -5.62,-19.7 5.04,-19.93 1.96,3.69 2.59,9.99 4.55,12.42l45.86 51.94c3.37,3.5 6.22,7.27 11.47,8.49 1.23,-2.31 2.15,-3.9 3.7,-6.32l2.54 -4.57c1.21,-5.4 2.52,-5.48 6.64,-9.16l10.01 -9.96c3.66,-2.73 4.85,-7.48 10.05,-7.91 0,-11.71 3.87,-10.6 8.48,-17.47l1.14 -1.86c3.23,-4.75 7.83,-7.42 11.67,-11.28l22.64 -16.29c5.87,-3.74 13.1,-9.64 19.66,-11.43 1.73,-0.47 1.12,-0.21 3.57,-1.2 3.24,-1.3 6.57,-2.41 9.69,-3.34 10.29,-3.07 7.93,-3.72 12.94,-5.93l14.11 -2.56c6.25,-0.13 -2.42,1.28 4.16,0.68 5.84,-0.54 4.38,-1.81 14.69,-1.73 6,0.04 11.32,-0.23 16.19,-0.45zm-106.01 494.37c-1.84,-1.29 -3.57,0.32 1,-8.93 3.17,2.63 1.94,6.99 -1,8.93zm-43.55 -24.75c1.47,-1.88 2.31,-1.62 4.41,-4.14 1.82,7.35 1.31,0.78 5.59,10.03l1.6 3.73c2.37,9.5 -4.03,8.01 -5.64,14.86 -9.18,-0.84 -4.63,2.08 -12.41,2.06 0.63,-3.31 -0.2,-1.77 2.07,-4.19 2.81,-6.28 6,-8.7 4.23,-12.45 -3.49,3.02 -5.18,8.82 -8.18,12.62 -1.52,-6.72 0.56,-13.54 0.36,-21.68l7.97 -0.84zm77.49 12.22c-1.23,-1.37 -1.94,-2.15 -2.41,-4.78l6.22 -1.25c-0.64,4.54 -1.03,4.26 -3.81,6.03zm64.24 -12.35c2.59,2.72 5.5,3.86 8.1,7.08 1.54,1.92 1.72,2.44 3.52,4.45l3.89 4.95c-3.75,1.57 -7.8,3.26 -12.4,4.43 -0.9,-6.48 -3.67,-14.21 -3.11,-20.91zm-109.09 8.29c-0.06,-4.97 0.42,-4.69 3.35,-7.26 3.54,-3.12 2.5,-2.74 7.56,-4.1l2.17 2.46c3.89,-1.46 -0.37,0.9 2.82,-3.38 3.69,0.11 5.42,0.93 7.75,2.81 0.51,0.42 3.06,2.76 3.16,2.86 1.64,1.72 1.18,0.15 2.25,3.53l1.62 3.64c1.19,3.22 0.26,3.97 -1.52,8.09l-4.46 12.35c-3.84,-3.73 -6.43,-2.78 -6.8,-9.69 -0.34,-6.42 0.69,-12.02 -4.99,-13.12 -0.36,2.27 -7.79,9.62 -8.87,15.25 -0.89,4.68 1.21,3.35 -2.11,6.74 -1.45,-2.86 -0.69,-1.49 -0.45,-4.58 0.11,-1.47 0.39,-0.43 0.25,-2.31 -0.17,-2.15 -0.12,-0.7 -0.58,-2.03 -0.36,-1.05 -0.17,0.63 -0.92,-2.18 -0.26,-1.01 -0.33,-1.67 -0.39,-2.72 -0.12,-1.88 0.11,-4.41 0.16,-6.36zm61.66 18.28l-5 -2.78 1.51 -4.53 -3.34 -0.77 -1 -0.84 -1 0c-0.86,1.28 -0.21,1.21 -1,-0.13l-0.99 0c-3.36,0.06 -1.23,0.34 -2,-1.12 0,0 -2.52,-0.12 2.57,-4.17l10.04 -9.01c3.02,-3.4 1.58,-3.58 5.68,-4.6 3.16,6.7 8.65,18 -1.07,22.2 1.75,4.4 2.25,0.96 0.63,7.95l-5.03 -2.2zm-135.58 -8.52c-6.32,-3.43 3.06,-0.84 -10.05,-5.57 0.38,-5.17 2.1,-6.13 5.54,-8.42 2.29,-1.53 5.78,-4.9 8.1,-5.16 -1.79,5.12 -0.13,14.91 -3.59,19.15zm210.16 -27.91c6.07,3.17 8.51,8.06 11.2,14.22 -2.17,2.22 -3.29,2.23 -7.64,3.2 -1.95,-15.83 -5.02,-6.07 -3.56,-17.42zm-58.6 3.43c0.49,-4.97 3.76,-13.7 6.7,-16.46 3.75,1.76 3.8,4.64 8.64,8.26 7.18,5.37 3.69,9.47 9.18,26.68 1.86,5.84 5.28,6.49 4.5,13.09 -5.39,-0.59 -10.02,-12.79 -16.93,-20.5 2.24,10.23 3.2,9.69 8.1,17.01l-13.28 -11.87c-1.84,-2.5 -3.33,-4.15 -4.76,-7.26 -2.11,-4.62 -2.47,-4.46 -2.15,-8.95zm110.92 -0.97l0.3 0.3c-0.02,-0.02 -0.39,-0.2 -0.3,-0.3zm-159.13 3.05c8.41,0.04 14.75,0.79 21.96,-5.51 2.39,-2.08 1.7,-3.03 5.92,-3.08 1.14,10.59 -3.75,10.35 -11.26,13.61 -8.41,3.66 -4.53,3.82 -12.4,-1.75 -1.27,-0.9 -2.74,-1.59 -4.22,-3.27zm-92.37 4.86c0.02,-5.55 -2,-8.48 -3.68,-12.76 4.87,-0.53 3.14,0.23 6.81,-2.07 2.68,-1.69 4.02,-2.77 5.57,-4.1 1.12,-4.04 2.7,-3.81 5.27,-5.27 0.17,0.21 0.41,0.27 0.48,0.64l1.73 2.54c1.28,2.21 1.21,2.15 1.78,4.18 0.84,3 0.52,4.74 0.99,7.82 -3.92,-0.1 -8.28,0.82 -10.6,2.32 1.96,2.23 2.98,2.35 5.26,4.09 -2.16,1.76 -1.75,2.06 -3.31,3.96 -1.05,1.27 -2.45,2.84 -3.75,4.38 -2.53,3.03 -4.53,5.81 -7.41,9.01 -0.73,-4.9 -1.05,-10.53 0.86,-14.74zm35.93 -20.88c5.71,0.85 2.91,-0.59 6.46,3.61 4.01,4.77 11.79,5.69 10.04,14.95 -6.86,0.17 -6.02,-4.79 -11.43,-8.68 -3.3,-2.38 -4.67,-2.93 -5.07,-9.88zm-57.89 -8.09l1 -0.89c1.21,-4.53 3.45,-4.94 7.98,-5.99 0.87,1.8 1.21,3.37 1.75,4.99 4.12,16.7 -0.16,12.14 -7.89,22.82 -3.43,4.73 -11.28,20.12 -12.09,24.45 1.68,-10.58 7.48,-20.67 4.06,-24.23l-7.78 23.04c-3.8,-9.07 3.32,-34.05 12.97,-44.19zm178.75 5.85c-1.22,-0.94 -1.79,-1.51 -2.96,-2.75 1.72,-2.62 6.61,-7.42 9.06,-9.6l0.62 2.71 1.84 2c0,4.79 0.11,12.25 -2.67,15.72l-5.89 -8.08zm-23.36 12.5c-4.01,-1.05 -6.04,-2.86 -7.76,-6.27l16.62 -13.44c0.11,-0.11 0.35,-0.36 0.53,-0.52 -2.15,7.87 -0.27,-5.67 -3.59,11.42 -1.09,5.58 -3.34,5.3 -5.8,8.81zm173.96 -19.24l0.3 0.29c-0.02,-0.02 -0.39,-0.2 -0.3,-0.29zm-241.02 0.34c2.71,-0.34 3.49,-3.17 4.63,7.65 0.9,8.47 1.67,11.27 -3.6,11.78 -13.03,1.26 -10.31,-10.9 -10.67,-20.72l12.06 4.97c-0.92,-2.97 0.51,-0.79 -2.42,-3.68zm184.29 -14.76l1.78 4.44c0.1,0.21 0.23,0.46 0.33,0.67l7.88 14.14c1.48,2.39 2.49,3.72 3.76,5.9 -2.17,2.27 -10.92,5.08 -14.45,5.65 -1.12,-6.34 -2.13,-10.39 -4.01,-16.76 -2.67,-9.01 -1.02,-9.06 2.8,-12.44 1.64,-1.45 0.31,-0.37 1.91,-1.6zm-72.71 36.07c-2.74,-1.3 -5.67,-5.01 -7.94,-7.68l0.94 -2c0.51,-5.02 2.54,-9.98 3.05,-15.87 0.15,-1.75 0.12,-5.53 0.61,-6.49l5.19 -3.96c2.29,3.57 3.37,4.58 7.23,6.14 -0.56,10.31 5.96,29.01 7.85,42 -4.65,-3.84 -4.51,-11.36 -9.41,-13.71 -0.53,5.32 3.21,9.89 5.35,13.6 2.37,4.1 4.78,8.96 6.71,13.14 -2.26,-0.91 -10.66,-11.09 -10.67,-11.09 -2.42,-3.88 0.16,-3.69 -3.52,-7.48 -3.32,-3.42 -3.04,-1.26 -5.39,-6.6zm-134.06 -24.66c8.21,5.65 8.53,1.32 8.4,12.89 -0.04,3.27 0.57,3.64 -2.39,5.31 -4.67,-1.15 -2.34,-0.62 -4.22,-3.94 -2.16,-3.82 -7.39,-6.66 -12.29,-15.3 -2.08,-4.27 -4.45,-6.25 -2.68,-10.93 4.05,1.04 3.69,2.77 6.51,5.71 2.82,2.92 4.37,2.84 6.67,6.26zm175.37 24.57c2.24,1.82 1.4,7.22 3.98,13.65 0.88,2.18 1.92,3.87 2.31,6.22l-0.9 7.24c-0.99,-1.91 -1.98,-4.15 -3.32,-6.45 -2.27,-3.87 -2.31,-2.36 -4.2,-5.86 -2.87,-5.33 -9.96,-24.73 -15.67,-30.15 -2.58,-2.45 -4.92,-1.94 -5.95,-10.62 0.18,-10.16 0.88,-13.16 2.29,-22.57 8.72,2.62 12.85,0.99 14.12,10.85 0.68,5.27 -2.52,17.59 1.66,20.84 2.08,-2.86 -0.1,-4.36 1.13,-9 1.77,3.3 3.45,20.19 4.55,25.85zm40.5 -39.12l16.2 17.06c5.64,4.56 1.74,2.8 6.43,7.51 2.62,2.64 1.76,0.4 2.77,5.47 -5.54,-0.4 -12.97,-7.08 -16.27,-11.84 -6.19,-8.93 -7.12,-15.65 -9.13,-18.2zm-188.25 6.55l-1 -3.2c3,1.06 1.73,1.04 3.18,1.43 3.29,0.9 1.93,-1.12 10.42,-3.33 1.16,-0.81 18.73,-9.62 20.85,-10.1 0.18,13.39 1.28,8.97 2.16,14.23 -5.17,5.28 -10.95,5.56 -19.63,7.62 -4.54,1.08 -4.52,0.14 -10.1,-0.15 -4.84,-0.26 -1.82,1.57 -3.85,-1.12 -0.82,-1.09 -1.67,-4.2 -2.03,-5.38zm-132.46 52.24c0.9,-8.11 4.24,-18.86 6.7,-26.7 2.99,-9.54 4.06,-17 10.44,-22.77 1.67,-8.14 11.7,-11.48 20.23,-13.32 -1.99,4.96 -4.67,9.42 -0.8,14.06 0.13,0.16 0.39,0.38 0.52,0.52l1.09 0.99c-4.31,3.89 -3.52,4.64 -11.21,5.94 1.01,7.7 3.71,2.42 -0.15,10.82 -3.11,6.75 -1.27,6.72 -8.78,7 1.16,8.06 3.3,3 -8.01,15.11 -4.19,4.47 -6.4,10.52 -10.82,14.86l0.79 -6.51zm196.41 -45.18c-2.75,2.81 -0.33,1.53 -4.54,4.12 -2.3,1.41 -4.7,2.5 -7.06,3.07 -1.49,1.81 -0.36,1.2 -3.1,1.69 -3.2,-5.04 -0.78,-7.72 -5.99,-9.77 -3.41,6.44 7.96,10.1 -1.09,17.82 -4.78,4.09 -12.23,7.96 -19.32,6.39 -4.31,-0.49 -13.62,-0.58 -16.05,0.07l-2.89 -20.27c3.03,5.68 5.43,3.52 12.4,2.99 0.88,-1.07 1.5,0.18 4.62,-1.13l5.22 -0.52c3.99,-3.2 6.73,-2.92 11.19,-5.4 3.83,-2.12 7.32,-5.03 10.09,-7.01 2.03,-2.03 3.81,-2.79 6.74,-4.06l0.85 -1.24 18.63 -11.3c5.32,-3.05 3.5,-3.07 6.75,-4.38 0.03,1.56 -0.06,4.27 0.28,5.7 0.84,3.48 1.37,2.24 1.93,3.77 2.82,7.68 -17.11,18.95 -18.66,19.46zm45.19 -23l6.11 -4.07c2.35,-1.35 1.58,-2.26 2.95,-0.92 2.19,4.15 -0.12,12.58 -2.08,16.5 -5.78,-4 -6.75,-2.44 -6.98,-11.51zm-137.9 -0.15c8.01,4.39 11.74,20.79 2.38,18.01 -2.56,-0.75 -0.66,0.06 -1.9,-1.24l-4.17 -7.93c-1.77,2.07 -0.41,-0.64 -1.4,2.11 -0.26,0.71 -0.13,1.15 -0.14,1.61 -1.33,-4.14 -2.14,-2.34 -3.93,-6.57 -2.24,-2.84 -2.29,-11.97 -0.76,-15.57 1.57,-1.14 -1.8,-1.72 3.16,-0.42 4.92,1.28 4.6,5.22 6.76,10zm6.44 -0.52c10.27,7.06 14,11.83 18.54,24.55 -16.22,-3.98 -8.49,-10.28 -14.4,-18.34 -2.04,-2.79 -2.49,-3.93 -4.14,-6.21zm-22.5 29.95l9.24 15.63c-1.63,2 -4.83,4.84 -8.52,5.3 -7.42,0.94 -6.67,-12.48 -8.66,-19.09l-3.56 -8.97c-7.23,2.03 -2.48,4.94 -9.2,5.98 -2.06,-3.38 -1.07,-4.44 -2.05,-8.08 -0.7,-2.58 -8.17,-17.14 -3.97,-27.51 -0.26,-10.85 11.21,-19.25 16,-20.81 2.06,3.54 2.42,6.69 2.92,11.32 2.35,21.92 0.73,13.69 -0.12,35.29 1.84,0.64 5.41,-1 7.92,10.94zm73.45 -34.35c-3.48,3.87 -14.09,11.74 -19.25,12.37 -7.97,0.97 -1.27,-0.83 -7.04,4.48l-7.89 -5.95c2.01,-2.07 2.28,-2.51 4.97,-4.18 6.26,-5.52 10.7,-8.05 15.28,-15.26 3.68,-5.8 2.63,-5.32 14.01,-10.14l5.03 -1.74c0.77,3.15 0.88,10.15 0.95,13.13 0.07,3.26 -0.88,4.85 -6.06,7.29zm102.31 -30.83l6.51 33c-3.02,-1.2 -6.68,-3.81 -9.82,-5.64 -2.64,-1.55 -5.77,-2.31 -5.97,-6.56 -0.09,-1.99 7.91,-19.06 9.28,-20.8zm-199.98 67.99c-7.03,-2.32 -5.18,2.75 -6.83,-6.92 -0.4,-2.3 -0.26,-1.31 -0.72,-2.96l-1.25 -4.97c-0.09,-0.21 -0.21,-0.49 -0.31,-0.7 -0.11,-0.2 -0.29,-0.49 -0.39,-0.67l-13.67 -0.59 6.79 -19.24c2.45,-6.88 3.92,-15.69 9.75,-17.76 0.42,3.49 -4.29,16.73 -2.76,29.59 0.57,4.79 4.88,18.27 7.72,22.34l1.07 1.27c0.13,0.16 0.39,0.42 0.6,0.61zm69.05 -63.15c2.73,1.53 2.99,1.47 5.21,3.73 3.82,2.47 5.89,4.54 7.37,9.11 -1.34,0.97 -13.54,15.98 -19.22,19.91 -0.55,2.39 0.47,0.91 -2.34,1.61 -4.24,-7.18 -14.94,-11.58 -20.08,-21.23 -1.62,-3.06 -1.45,-3.91 -0.11,-7.51 1.78,-4.78 1.59,-3.82 6.08,-6 8.32,-4.06 4.37,-5.43 17.44,-4.99l2.19 3.21c1.55,1.26 1.48,0.09 3.46,2.16zm43.5 22.62l2.75 -1.93 5.15 -3.46c11.12,-6.67 27.24,-24.66 29.01,-25.46 1.34,17.71 3.77,17.43 -10.05,31.45 -5.3,5.38 -19.58,13.83 -26.96,17.57 -1.56,-3.86 -4.04,-10.58 -3.49,-16.11l3.59 -2.06zm-93.4 -21.64c7.39,-0.55 11.37,6.48 10.06,11.92 -1.13,4.71 -2.24,13 -5.6,15.94 -1.15,-3.51 -0.78,-10.96 -1.34,-13.74 -0.83,-4.12 -2.76,-8.15 -3.12,-14.12zm-103.46 -6.85l0.3 0.3c-0.02,-0.02 -0.4,-0.2 -0.3,-0.3zm385.08 -9.22c1.56,1.17 0.46,0.04 1.72,1.65l8.45 16.5c3.34,7.19 6.21,11.7 9.79,18.18l16.96 24.96c2.21,2.66 4.78,4.52 5.32,8.95 -4.26,-2.91 -15.53,-16.96 -19.3,-22.99 -11.56,-18.49 -18.28,-22.6 -22.94,-47.25zm-193.91 33.11l-0.58 -14.1c7.78,-2.32 16.33,-8.75 21.47,-11.1l13.23 -6.91c4.36,-2.01 4.56,-1.96 7.28,-5.47 -1.51,4.88 -12.08,16.61 -16.97,21.72 -6.57,6.86 -15.73,12.81 -24.43,15.86zm72.16 -5.59c-2.71,3.06 -2.37,1 -5.19,5.23 -2.17,3.25 -7.68,10.65 -10.83,12.58 -4.37,2.66 -4.52,-0.12 -4.89,-5.5 0.16,-8.1 -3.65,-7.6 2.38,-14.19 1.65,-4.22 4.94,-6.48 6,-11.59 6.85,-7.93 6.94,-18.11 7.56,-20.15 0.67,-2.23 2.37,-4.43 3.39,-6.75 1.7,4.26 0.6,3.6 1.2,8.61 1.59,13.36 3.93,-4.48 1.88,19.95 -0.2,2.36 -0.14,3.26 -0.18,5.5 -0.01,0.69 0,2.35 -0.1,2.95 -0.05,0.35 -0.1,0.59 -0.18,0.91l-0.64 1.67c-0.07,0.21 -0.22,0.55 -0.4,0.78zm-271.39 -35.53c2.6,2.52 5.97,6.72 7.1,10.24 -2.4,3.77 -5.85,9.93 -10.02,11.87 -6.32,-6.09 -1.49,-6.11 -0.06,-10.87l-6.52 -1.23 -1.76 -9.66c-1.26,-5.49 -3.76,-18.71 -3.43,-23.63 1.23,1.13 6.46,9.41 7.73,11.6 2.11,3.63 6.16,8.15 6.96,11.68zm258.22 9.14c-2.19,4.37 -4.95,8.45 -7.64,13.38l-3.44 -5.23c-5.57,-12.15 1.11,-10.4 3.71,-17.07 4.57,-9.17 6.78,-2.52 12.86,-20.91l4.83 -1.55c0.71,-7.87 2.19,-10.63 4.01,-16.52 -1.76,8.61 -0.41,18.72 -1.98,26.96 -0.64,3.37 -3.79,7.31 -5.59,10.48l-6.28 9.85c-0.1,0.13 -0.3,0.42 -0.48,0.61zm168.4 -35.96l-6.72 27.49c-2.85,-6.78 -14.14,-19.68 -13.42,-33.34l4.24 -2.19c3.52,-1.19 5.7,-2.74 8.58,-5.75 11.87,-12.4 8.64,8.54 7.32,13.79zm-393.38 92.96c-0.75,8.53 -3.19,11.75 -4.67,18.95 1.04,1.29 2.5,-2.46 -0.33,7.29 -1.11,3.82 -0.62,5.44 -1.08,8.43 -0.89,5.77 -5.91,8.58 -5.95,14.3 -1.19,-1.7 -0.15,0.23 -1.06,-2.04 -2.17,-5.43 -0.64,-14.04 0.2,-19.79 1.3,-9.03 -0.74,-6.01 -0.86,-11.29 -0.06,-2.53 2.84,-6.2 3.74,-9.87 -2.52,-1.81 0.58,-0.81 -3.62,-0.97 -2.75,4.56 -6.69,14.45 -9.7,17.27 -0.96,4.29 -11.24,23.67 -15.27,28.28 -1.26,1.45 -0.52,0.68 -1.56,1.72 1.19,-3.12 1.05,-3.72 1.54,-6.81l4.43 -22.61c1.39,-9.3 1.19,-25.44 7.21,-30.87 2.53,-5.28 9.88,-10.19 6.23,-16.37l23.47 -32.62c7.94,-10.18 29.88,-52.24 32.69,-63.2 1.32,1.99 0.84,0.31 0.64,2.94l-7.89 26.75c-2.92,10.73 -5.94,19.46 -9.19,30.82 -2.95,10.28 -15.6,56.8 -18.97,59.69zm239.31 -104.9c0.51,-5.46 0.86,-0.94 3.02,-7.87 0.5,-1.62 0.24,-1.41 0.89,-3.12 8.14,-21.53 -0.17,-12.44 1.26,-24.72 0.49,-4.19 3.11,-7.11 6.45,-8.74 0.03,8.78 1.16,18.96 0.29,27.59 -0.74,7.28 -1.66,15.22 -2.51,23.52l-1.2 40.39c-0.16,5.51 1.21,7.61 1.23,12.93 -1.41,2.22 -5.58,6.78 -5.73,8.29 -0.82,-5.97 1.35,-13.57 0.42,-18.09 -0.75,-3.61 -5.06,-11.9 -2.13,-23.27 1.95,-7.6 0.41,-2.48 -0.21,-7.05 -0.33,-2.44 1.15,-14.25 1.1,-18.76 -1.87,-1.73 -0.23,-0.62 -2.88,-1.1zm-241.75 -10.07l2.63 2.78c0.37,0.47 1.11,1.59 1.66,2.28 1.11,1.38 2.32,2.55 3.52,4.11 -2.68,3.76 -1.85,2.77 -3.65,6.95l-12.86 19.87c-1.8,-5.39 -5.17,-13.53 -6.17,-19.85 -5.65,-12.1 -5.46,-38.36 -6.73,-52.95l21.6 36.81zm421.49 -17.8c0.29,5.31 3.46,4.06 1.2,15.3 -2.81,14.04 -2.52,14.24 -7.12,27.96 -1.54,4.59 -2.6,9.62 -4.31,14.65l-5.9 1.78c-1.77,11.02 4.3,4.55 -2.15,19.97l-2.29 3.82c-1.26,1.46 -0.5,0.6 -1.79,1.76l-0.22 -5.12 -5.07 -0.63c3.21,-5.99 6.69,-34.48 7.38,-43.62 0,-0.01 -0.12,-15.07 -0.07,-16.04 0.16,-3.14 4.88,-6.75 7.24,-9.86 5.25,-6.94 8.77,-12.67 13.59,-21.92 1.67,-1.65 0.63,-1.37 1.4,0.36 1.99,3.36 0.09,8.17 -1.89,11.59zm-351.4 -19.94c0,44.32 -3.72,23.97 -9.5,38.31 -3.66,9.07 -1.17,32.86 3.43,43.57 4.38,10.2 5.74,13.23 11.92,21.92 -0.16,0.17 -0.41,0.2 -0.49,0.5 -0.07,0.3 -0.38,0.4 -0.49,0.49 -2.3,2 -12.59,6.8 -14.39,6.04 -3.54,-1.48 -2.42,-1.46 -5.53,-0.36 -3.13,1.11 -4.24,2.9 -6.47,3.98l5.8 -26.08c0.47,-4.08 -1.1,-4.14 -1.73,-8.24 -0.74,4.64 -2.36,10.16 -3.67,14.53 -0.64,2.1 -1.25,4.68 -2.1,6.88l-14.32 34.65 -5.89 1.69c0.18,-9.05 9.28,-27.23 12.96,-48.79 0.77,-4.55 4.5,-12.92 1.54,-17.4 -1.88,6.29 -3.91,15.96 -5.57,22.57 -5.21,20.7 -18.2,42.28 -20.2,51.21 -0.7,3.13 -2.3,7.41 -4.97,8.84 -1.46,-3.45 1.91,-10.65 3.31,-15.24 0.72,-2.35 0.73,-4.03 1.37,-6.65l19.09 -64.71c1.53,-4.24 2.29,-7.84 3.4,-11.34l16.4 -58.45c2.34,-8.2 3.01,-16.62 5.66,-24.39 1.45,4.5 6.99,7.75 8.66,15.5l0.78 0.99 0 1c1.73,2.76 1.61,6.02 1,8.98zm-95.59 130.61c0.91,3.66 -0.5,1.66 1.76,1.52 1.72,-2.89 2.36,-3.03 5.43,-3.8 -0.55,3.35 -7.69,12.48 -7.99,12.76 -3.03,2.84 -2.82,-0.06 -5.89,4.25 -2.88,4.05 -8.07,6.71 -18.48,21.43 -1.8,2.55 -1.7,3.16 -4.01,5.44 -1.86,-4.73 2.55,-10.94 5.05,-14.51 3.12,-4.45 5.59,-10.58 10.09,-13.4l30.18 -50.04c13.68,-24.02 42.77,-74.31 50.91,-96.87 3.56,-9.89 6.09,-15.13 10.28,-22.16 -2.52,22.42 -28.58,82.41 -41.97,103.35 -3.8,5.93 -7.38,13.29 -11.08,17.78l-18.96 25.05c-2.45,3.47 -1.03,3.18 -5.32,9.2zm0.53 -98.69c-5.52,-10.78 -7.36,-51.77 -8.26,-53.57 2.8,1.05 2.29,1.89 3.71,4.46 5.48,9.97 3.13,10.4 2.84,20.16 -0.31,10.26 1.9,19 1.71,28.95zm370.83 -39.71c0.33,3.38 1.62,4.76 2.46,9.74 0.8,4.74 1.92,6.5 2.45,11.78l12.4 40.44c9.46,22.17 24.81,50.08 36.13,72.68l6.86 13.08c6.78,10.67 1.22,-6.83 9.43,11.53 1.48,3.31 2.7,6.04 4.48,9.08l-12.76 -17.72c-2.55,-3.75 -4.53,-5.68 -6.9,-8.98 -3.14,-4.33 -2.9,-6.68 -9.48,-7.46 1.12,6.82 3.82,8.22 5.99,10.84 2.4,2.89 9.82,13.65 10.82,18.7 -5.05,-0.29 -5.39,-1.91 -8.47,-6.02 -2.27,-3.02 -3.65,-4.49 -6.07,-7.94 -6.75,-9.62 -29.04,-48.46 -29.22,-56.18 -3.13,-2.51 -5.5,-9.17 -6.48,-12.98 -1.3,-5.03 -0.38,-4.31 -3.37,-8.39l-0.85 -1.14c-0.13,-0.18 -0.3,-0.43 -0.41,-0.61 -0.7,-1.08 -1.13,-1.97 -1.54,-2.68 -2.82,1.23 -0.83,-0.51 -1.95,2.88 1.58,6.65 11.67,29.14 10.07,38.99 -0.77,4.73 1.68,4.54 2.65,8.37 1.1,4.34 -0.28,5.76 1.99,10.99 2.29,5.27 6.92,14.29 4.59,19.54 -2.69,-1.36 -4.27,-3.98 -6.25,-8.08 -3.46,-7.17 -2.85,-3.11 -5.01,-3.92 -1.29,-2.94 -1.84,-6.27 -3.02,-8.91 -0.24,-0.53 -8.12,-10.56 -10.45,-21.79 -4.08,-3.96 -9.02,-17.86 -11.49,-23.02 -1.96,-4.1 -3.53,-7.95 -5.11,-11.88 -2.28,-5.64 -2.5,-9.45 -7.32,-11.88 2.24,7.11 2.44,11.42 5.51,19.55 2.09,5.55 5.19,11.94 7.15,17.36 2.02,2.22 1.88,2.05 3.24,5.42l18.78 40.02c0.63,1.95 2.85,11.13 3.06,12.83 0.85,6.97 -3.1,0.65 1.42,13.3l5.31 27.5c-1.51,-1.53 -0.56,-0.13 -1.99,-2.61 -0.7,-1.21 -0.64,-1.55 -1.26,-2.7 -1.46,-2.77 -2.13,-2.48 -3.64,-5.49 -2.02,-4.06 -2.74,-8.52 -5.29,-12.98 -1.47,-5.4 -8.6,-16.85 -12.13,-25.35l-3.68 -8.47c-0.5,-1.3 -0.51,-2.11 -0.91,-3.03 -1.54,-3.55 -0.5,-2.77 -4.89,-2.59 -0.23,6.24 8.15,21.42 9.39,26.2 -8.51,-19.26 -7.92,-10.08 -17.15,-35.7 -1.59,-4.41 -3.41,-8.6 -4.91,-13.19 -3.16,-9.64 -5.07,-17.39 -7.09,-28 -0.84,-4.4 -4.56,-26.51 -5.23,-27.48 -0.33,-3.53 0.33,-8.91 -3.19,-8.62l-1.85 1.53 9.04 50.9c1.14,4.52 1.91,3.1 3.99,8.9 2.2,6.14 4.9,14.37 6.26,19.62 -0.39,-1.51 -2.62,-3.24 -4.12,-4.42 1.35,5.29 5.69,14.07 8.02,18.83 9.03,18.45 -1.02,9.59 3.82,21.22 -3.64,-1.21 -8.97,-9.3 -10.82,-12.37 -2,-3.31 -2.89,-3.26 -4.62,-6.35 -3.65,-6.53 2.32,-2.48 -5.4,-15.65 -1.8,-3.07 -3.14,-3.6 -4.8,-7.13 -5.25,-11.15 -12.6,-38.03 -17.91,-50.94 -4.33,-10.51 -6.39,-27.88 -5.17,-41.26l-1.15 -3.18c-0.5,-3.17 0.57,-5.29 -0.41,-9.86 -0.96,-6.36 -1.43,-40.55 0.94,-44.59 1.6,6.82 -1.34,12.55 3.81,20.14 2.29,3.37 2.86,7.31 5.14,5.14 2.95,-2.81 -0.05,-9.07 -0.5,-15.9 -0.34,-5.22 -1.85,-10.4 0.52,-14.83l5.5 19.05c2.01,8.18 2.39,14.49 7.8,14.98 2.08,-3.56 -2.02,-14.85 -2.75,-20.29 -0.55,-4.05 -0.83,-8.49 -0.99,-12.68 -0.32,-8.38 0.8,-7.12 1.76,-10.88l6.58 0.29c2.33,4.17 13.64,46.62 15.13,53.04l8.02 25.34c2.49,5.56 3.06,14.8 8.18,18.7 1.4,-2.26 1.49,-3.14 0.98,-6.49 -0.24,-1.57 -1.1,-3.74 -1.69,-5.45 -1.31,-3.77 -2.48,-6.76 -3.75,-10.2 -1.83,-4.99 -4.64,-17.72 -6.42,-20.43 -0.12,1.5 0.19,3.43 0.2,4.47l-0.29 2.32c-1.61,-5.17 -2.63,-10.93 -4.04,-16.55 -3.69,-14.74 -1.47,-5.71 -1.59,-15.84 0.92,11.48 0.97,8.76 2.92,10.18 2.12,1.54 2.43,-2.05 3.92,5.08 1.41,6.74 4.15,12.59 5.72,19 4.15,0.34 -1.81,0.44 1.85,0.1 0.14,-0.01 0.56,-0.04 0.67,-0.3 0.11,-0.26 0.34,-0.34 0.7,-0.54l-2.89 -12.67c-1.93,-2.32 -13.82,-51.64 -13.89,-56.72 0.79,5.39 1.95,10.41 3.42,15.05l3.59 1.16c4.41,1.63 -1.08,1.56 4.61,1.29 3.3,-4.71 -3.01,-22.45 -3.78,-33.93 -0.52,-7.91 -0.79,-6.94 -3.68,-7.95 2.03,-4.68 4.06,-10.65 7.46,-14.52 0.97,0.61 2.65,1.19 3.42,3.96l7.75 64.24c1.19,6.24 3.46,15.72 4.12,22.36zm-275.78 -101.99c6.51,0.79 27.45,20.7 21.45,24.13 -3.45,1.97 -14.32,-4.86 -16.84,-6.78 -5.1,-3.9 -8.53,-9.09 -4.61,-17.35zm241.89 38.69c-0.93,3.68 -1.98,7 -3.89,9.72 -4.93,7.05 -5.22,-2.13 -12.89,6.01l-7.68 7.14 -4.81 -3.69c-4.57,-3.85 -7.1,-12.52 -5.66,-18.95 2.79,-1.69 2.12,0.66 4.46,-1.97 1.57,-1.77 0.51,-2.16 2.22,-4.05l7.54 -4.73c-0.35,1.38 1.71,10.44 2.38,11.65 10.75,0.05 7.18,-8.66 14.13,-15.07 0.93,-4.87 9.91,-22.95 13.81,-26.67 2.75,2.52 5.25,7.21 4.45,10.71l-14.06 29.9zm22.59 -42.62c4.24,1.89 8.82,7.31 8.79,12.96l-4.8 0.16c-4.02,-1.77 -0.31,0.14 -3.23,-2.99 -3.38,-3.61 -6.56,-3.65 -6.67,-10.06l5.91 -0.07zm15.53 -10.58c2.81,2.75 4.46,3.61 4.37,7.52 -7.45,2.22 -14.5,-3.22 -13.46,-10.52 5.98,-0.32 6.06,0.04 9.09,3zm-305.91 -0.46c1.36,-4.18 -0.29,0.54 1.6,-2.34 4.47,-6.82 -1.36,-4.04 3.87,-6.79 2.25,-1.18 9.16,-0.75 11.18,0.15 1.3,3.86 2.31,12.07 0.78,15.31 -1.75,-0.37 -3.45,-0.98 -5.17,-2.67 -3.38,-3.31 0.03,-2.6 -4.29,-3.62 -0.98,3.17 4.61,20.29 4.56,26.36 -3.49,-1.97 -2.31,1.64 -7.28,-11.83 -2.05,-5.55 -3.34,-9.64 -5.25,-14.57zm49.48 16.8c-7.86,-4.58 -12.67,-9.83 -25.2,-10.28 -1.33,-4.41 -1.2,-3.84 -0.18,-7.69 -1.3,-2.4 -1.02,-4.97 -0.86,-8.45 5.18,1.35 4.61,1.23 9.13,3.17 3.16,1.36 6.42,1.9 9.51,3.45 3.05,1.53 6.19,2.62 8.92,4.04 3.73,1.94 3.25,3.07 7.16,4.6 0.19,3.71 -0.07,7.31 0.38,11.02 0.47,3.87 1.04,3.15 0.2,7.05l-9.06 -6.91zm232.87 -10.89c1.69,-4.92 5.45,-8.83 8.74,-12.78 -0.22,17.25 0.88,4.97 2.84,11.86 -3.27,2.51 -5.57,0.72 -11.58,0.92zm-34.77 262.63l4.45 14.45c1.14,4.98 2.4,10.24 3.27,14.43l-2.47 2.73c-0.17,0.2 -0.46,0.51 -0.67,0.78l2.13 6.23c-14.7,-20.4 -11.83,-25.5 -18.6,-41.6 -0.8,-7.27 -6.86,-23.86 -8.9,-32.34 -6.34,-26.39 -5.02,-44.7 -7.86,-68.93 -0.73,-6.18 -0.42,-13.42 -2.42,-18.62 -4.22,-10.99 -0.82,-33.56 -3.41,-48.03 -0.41,-2.26 -1.2,-5.23 -1.59,-8.79 -2.33,-21.36 -4.38,-34.44 -3.81,-55.91 0.07,-2.65 -0.14,-8.9 0.11,-10.81 0.87,-6.7 3.05,-1.82 6.17,-9.75 2.72,-6.87 1.74,-1.59 4.47,-11.46 1.57,-5.73 2.07,-12.82 3.71,-18.02 1.07,5.65 -2.41,30.52 -2.9,38.03 -1.4,21.47 -3.13,52.85 -1.5,73.87 1.99,25.64 5.86,48.77 8.92,73.73 3.62,29.48 7.29,45.65 15.28,74.44 1.65,5.97 -0.3,7.97 5.62,25.57zm54.84 -289.53c0.84,9.51 3.88,7.18 0.71,11.62 -4.12,-1.71 -5.39,-5.03 -9.3,-1.15l8.59 -10.47zm-130.79 -3.36c5.35,0.66 5.42,1.35 7.89,4.45 4.18,5.26 10.9,15.11 12.33,21.41 -5.76,-3.59 -3.82,-7.88 -15.26,-13.42l-6.31 -2.41c-0.15,-0.38 -0.51,-0.33 -0.73,-0.55 -10.67,2.47 -34.24,-4.65 -60.49,8.38 3.35,-5.74 55.41,-17.07 62.57,-17.86zm135.95 1.63c7.21,-0.52 12.9,2.12 12.7,10.42 -5.59,-0.82 -12.3,-4.21 -12.7,-10.42zm-289.67 -8.3l3.63 1.08c6.48,4.95 10.83,3.49 12.86,12.57 -6.4,-0.83 -8.54,-3.41 -15.76,-1.83 -4.49,0.99 -9.52,3.38 -14.18,2.72 1.13,-5.54 7.66,-13.72 13.45,-14.54zm240.69 41.96c2.39,-1.32 4.32,-5.13 6.07,-7.6 9.42,-13.27 25.74,-31.52 37.99,-41.95 6.37,-5.42 3.42,-4.25 8.27,-5.87 -4.96,18.62 -8.14,14.43 -18.5,27.64l-24.35 35.46c-2.21,2.41 -4.54,5.58 -6.6,7.39 1.45,-5.43 0.17,-11.14 -2.88,-15.07zm-34.82 -46.25c2.73,-5.55 5.45,-2.04 4.52,-11.27l6.91 1.92c0,3.31 -0.43,4.93 -1.72,7.93 -4.85,0.28 -5.95,-0.31 -9.71,1.42zm-215.98 69.35c1.2,4.36 -1.69,5.1 -5.3,6.39 -4.19,-10.52 -9.05,-31.21 -12.82,-43.12 -2.39,-7.55 -13.53,-36.57 -14.19,-42.06 5.26,2.95 6.01,10.43 8.81,16.51 0.75,1.62 1.94,3.81 2.72,5.47l12.63 33.91c1.33,3.84 2.45,6.78 3.85,11.21 0.61,1.92 1.04,3.95 1.85,6.06 1.07,2.79 1.63,2.63 2.45,5.63zm254.57 -36.03c-1.98,3.97 -2.84,4.13 -5.16,6.79 -1.72,1.97 -3.25,4.46 -4.64,6.33 -2.97,4.02 -5.56,7.94 -8.88,12.37 -2.07,4.21 -9.42,16.22 -11.16,17.45 -0.17,-9.25 0.48,-18.56 0.74,-28 0.23,-8.6 1.95,-14.59 9.58,-18.79 1.44,-2.14 7.26,-6.32 9.73,-8.04 2.06,-1.44 3.46,-1.99 5.5,-3.44 2.68,-1.91 2.05,-2.27 5.35,-3.94 1.74,-2.75 0.93,-1.17 3.47,-3.23 1.82,-1.47 1.63,-1.64 3.66,-3.3l23.14 -15.92c8.68,-5.14 25.04,-15.67 35.28,-15.73 -0.28,3.6 -5.67,13.86 -7.47,17.69 -5.55,11.77 -5.61,14.68 -10.63,13.3 -1.13,-2.41 -0.44,-3.63 -0.33,-4.09l4.06 -8.08c1.68,-3.56 4.84,-8.12 5.14,-12.4 -4.17,0.04 -6.68,2.04 -10.49,4.13 -12.71,6.98 -9.08,9.35 -12.96,11.91 -11.5,7.62 -1.6,-0.71 -12.12,10.84 -2.61,2.87 0.2,0.83 -3.58,3.43 -1.57,1.08 -2.8,1.5 -4.17,2.77 -2.81,2.6 -0.6,0.6 -2.6,3.39 -4.33,6.05 -7.28,9.84 -11.46,14.56zm-317.22 -53.97c3.2,-2.36 6,-2.95 10.09,-4.72 3.89,-1.67 6.58,-4.47 9.04,-1.2 -3.97,2.47 -3.81,-0.53 -8.62,4.63 -2.37,2.55 -4.14,2.46 -5.31,6.07 4.93,2.31 9.74,-0.43 15.64,0.31 -5.17,4.37 -11.56,4.93 -19.81,2.79 -1.04,-4.22 -1.38,-2.73 -1.03,-7.88zm268.95 -19.89c1.88,-3.04 3.96,-2.77 6.8,-6.01l2.3 4.86c-1.86,0.92 -4.3,2.38 -6.63,2.21 -2.29,-0.16 -1.17,-0.26 -2.47,-1.06zm24.54 1.02c-4.06,0.34 -2.58,0.84 -6.02,0.76 -1.47,-2.3 -2.21,-2.88 -3.14,-6.8 -1.14,-4.81 2.01,-5.18 2.01,-5.18 7.36,6.19 6.84,6.49 7.15,11.22zm0 0c2.01,3.22 -0.4,2.29 3.81,2.9 1.1,-8.87 -2.38,-9.54 -2.69,-16.65 9.56,-0.46 1.78,10.21 11.53,12.84 -2.43,-6.42 -4.43,-7.76 -2.2,-15.4 3.75,2.05 3.18,4.89 4.98,9.49 0.57,1.44 8.01,14.04 6.4,19.22l-2.3 9.34c-3.69,-10.88 -3.08,-17.91 -4.72,-20.16l-1.3 0.94c-5.15,5.39 2.89,9.35 2.15,30.15 -1.87,-5.14 -4.12,-25.04 -8.83,-27.87 -1.94,3.82 2.89,17.57 3.84,22.19 3.09,15.13 5.05,17.83 -0.85,20.17 -1.44,-2.81 -2.08,-11.58 -2.84,-15.45 -1,-5.08 -2.14,-8.79 -3.24,-13.77 -3.31,-1.49 2.43,-1.02 -0.87,0.53 -1.09,0.51 -0.02,3.25 -2.01,-1.27 -1.83,-4.17 0.17,-4.07 -3.02,-6.69 -4.68,3.45 -1.5,3.32 -2.04,12.42 2.74,1.86 2.21,0.76 4.94,1.98 1.32,5.22 3.72,15.14 2.71,20.65 -6.31,-1.95 -4.79,-14.6 -6.6,-19.94 -7.38,-2.43 -8.27,-2.55 -10.66,-1.2 -5.14,2.9 -8.67,-1.15 -3.09,-5.31 0.17,-0.12 0.42,-0.29 0.58,-0.41 0.17,-0.12 0.4,-0.31 0.56,-0.43 0.16,-0.12 0.37,-0.33 0.53,-0.45 1.02,-0.77 0.5,-0.51 1.69,-1.23 1.26,-0.76 0.7,-0.13 1.96,-0.97 2.58,-1.69 1.45,0.21 2.33,-2.72 -5.02,-2.5 -8.44,2.24 -13.42,-1.62 6.88,-6.55 20.17,-3.85 22.67,-11.28zm-238.46 53.2c-2.42,7.36 -0.72,8.02 -1.45,14.88 -2.08,-2.04 -15.95,-35.78 -18.49,-41.49 -1.77,-3.97 -2.93,-6.5 -4.57,-10.4 -2.94,-7 -4.25,-3.94 -7.14,-7.8 -2.21,-2.93 -5.84,-19.59 -5.98,-24.96 8.83,4.65 22.84,29.67 28.7,38.2 18.46,26.91 12.44,20.89 8.93,31.57zm236.18 -72.05c0.58,-2.82 1.04,-1.81 3.45,-2.23 0.73,2.58 1.02,2.73 -0.33,5.54 -2.4,-0.58 -3.87,0.36 -3.12,-3.31zm-62.29 15.56c3.22,-3.8 12.08,-8.63 17.68,-9.98 -3.78,6.52 -9.62,4.42 -8.61,11.78 6.42,0.95 11.64,-3.02 18.21,-2.38 -3.07,4.68 -9.01,2.68 -7.32,10l11.97 -1.58c-1.83,0.26 -8.59,4.2 -7.8,8.4l3.21 0.88c0.31,0 2.79,-0.64 3.04,-0.73 2.5,-0.87 2.13,-1.26 4.94,-1.67l0.4 3.59 -5.42 2.58 0.24 4.03 8.15 1.3 -1.64 5.66c-0.07,0.15 -0.32,0.81 -0.37,0.67 -0.06,-0.15 -0.3,0.42 -0.38,0.66 3.19,2.28 3.32,0.57 5.27,3.99 -2.03,2.81 -0.47,0.26 -2.1,1.88 -1.12,1.1 -0.98,0.17 -1.77,2.11 1.72,3.93 1.08,1.38 4.45,3 -0.76,2.32 -2.19,1.93 -3.03,4.99 4.1,4.77 4.1,1.36 3.44,10.99 -0.58,8.58 -5.84,25.34 -9.48,31.24 -3.51,-1.34 -3.74,-2.42 -5.72,-5.23 -4.48,-6.4 -6.3,-12.13 -8.7,-19.72 -1.8,-4.3 -3.61,-7.12 -5.61,-10.82 -2.81,-5.22 -3.39,-6.26 -7.8,-9.14 -3.25,-1.24 -3.68,-1.98 -7.45,-2.03 -6.49,-0.36 -24.97,5.42 -30.43,8.44 -4.99,2.76 -22.2,9.71 -28.38,8.96 -0.9,1.01 -0.6,0.69 -1.85,1.7l-4.26 2.8c-7.21,4.25 -9.45,4.43 -12.02,17.73 1.22,1.68 3.73,-0.11 6.09,-1.69 2.19,-1.47 3.4,-2.5 6.05,-3.93 4.06,-2.2 9.87,-5.16 15,-5.49l1.67 -0.77c0.27,-0.1 0.55,-0.22 0.84,-0.32l10.13 -1.71c29.69,-3.31 32.08,-5.42 54.15,12.62 4.05,3.32 3.76,5.71 10.55,10.38l4.21 3.11c-3.26,3.01 -3.21,1.65 -5.97,3.78 3.98,12.39 6.43,40.83 6.41,53.4 -0.01,8.94 3.28,15.16 -0.72,24.32 -5.39,12.36 -5.91,20.86 -8.24,30.29 -1.93,7.79 -3.4,-0.53 -2.1,19.93 0.57,9.04 -11.34,37.74 -20.75,48.37 -2.03,2.29 -2.13,1.63 -4.55,3.42 -3.03,2.25 -4.67,4.78 -8.98,6.35 -4.67,3.31 -9.3,6.08 -14.61,8.99l-16.59 8.42c-14.61,5.77 -17.52,16.17 -29.77,-1.24 -3.66,-1.21 -7.69,-5.31 -11.13,-7.54l-3.92 -1.95c-4.99,-1.8 -11.14,0.18 -15.84,2.01l-11.3 5.93c-2.37,1.72 -7.1,5.2 -9.95,6.5 -7.33,-11.51 -20.87,-5.45 -22.61,-54.72 1.54,3.46 1.41,7.07 2.11,11.92 0.81,5.49 12.05,23.15 14.32,23.9 -4.7,-9.55 -12.61,-35.22 -9.49,-45.46 3.33,-10.9 8.95,-7.21 10.04,-7.14 13.42,0.79 13.04,-10.06 29.55,-5.61 5.84,1.58 24.59,5.77 28.23,8.68 3.66,0.92 4.24,1.04 7.61,2.54 3.23,1.44 1.64,2.57 5.02,0.41 -1.11,-2.16 -6.74,-6.23 -9.66,-8.05 -9.5,-5.9 -1.87,-5.12 -20.93,-12.93 -4.68,-1.92 -7.48,-3.94 -10.83,-5.59 -4.59,2.51 -2.05,4.36 -8.15,4.62 -4.81,0.21 -7.61,-3.07 -7.87,-4.34 -0.08,-0.36 -0.28,-0.46 -0.46,-0.65l-9.2 6.54c-2.58,2.46 -1.14,3.52 -2.75,5.18 -1.39,1.44 -3.94,1.48 -5.88,1.68 0,-11.59 1.47,-14.61 5.06,-24.53 1.65,-4.53 3.49,-5.86 4.16,-10.96 0.57,-4.33 -0.62,-2.15 1.09,-5.86l2.88 -3.64c1.97,5.26 4.47,7.89 6.7,12.87 3.62,8.1 0.44,7.11 0.58,14.5 5.88,1.17 5.42,1.31 10.61,-0.36l-6.98 -2.19 0.81 -4.73c0.78,-7.14 -2.32,-4.78 -3.96,-12.18 -0.65,-0.98 -3.79,-10.14 -4.61,-12.39 -6.34,-17.29 3.19,-37.14 3.42,-44.24 -6.61,0.56 -2.44,1.43 -5.75,1.76 -5.34,0.53 -23.4,-17.59 -29.46,-18.05 1,2.74 3.03,4.68 5.67,6.77 6.29,5 16.11,12.25 23.33,14.92l-0.8 2.05c-4.02,18.23 -1.72,27.51 -4.34,35.1 -3.86,-0.47 -8.16,-2.75 -10.18,-7.16 1.57,-6.32 7.97,-7.14 5.8,-10.64 -1.71,-1.35 2.33,-1.36 -2.47,-0.74 -1.88,0.24 -8.5,5.82 -8.66,13.84l12.79 9.84c0.85,8.61 -1.88,15.91 -5.14,22.51 -2.15,-5.28 -3.32,-11.64 -5.49,-17.92 -1.61,-4.66 -2.42,-3.98 -4.23,-7.44 -1.32,-2.53 -2.16,-6.21 -2.75,-8.99 -2.83,-2.47 -13.01,-20.25 -13.15,-25.33 -0.25,-9.08 2.5,-26.76 6.33,-32.49l28.04 16.3c3.9,2.56 5.19,5.02 9.78,3 -1.55,-3.59 -1.39,-3.17 -4.54,-5.09 8.82,-3.32 1.91,2.54 5.64,-7.51 3,1.06 1.27,3.15 2.99,5.94 2.45,-1.06 1.99,0.17 3.5,-3.7 3.89,-9.94 1.52,-30.23 0.53,-39.41 2.24,-2.74 1.47,-0.71 3.32,-3.99l-5.26 -4.12c-1.9,-1.75 -2.06,-2.49 -3.77,-4.16 -5.52,-5.36 -19.97,-19.63 -25.43,-22.41 0.59,-3.45 4.05,-12.55 6.16,-15.21 2.19,-2.75 7.59,-6.45 10.62,-9.35 3.36,-3.23 7.35,-6.64 10.6,-9.34l8.47 -6.52c1.95,-1.68 1.09,-0.73 2.5,-2.52 7.28,9.05 6.63,-2.81 14.68,-5.56 -1.6,3.32 -5.25,6.94 -4.95,11.44 5.23,-1.51 8.05,-1.66 10.73,-6.11 2.86,14.28 0.53,4.72 -1.79,15.97l2.26 1.38c3.34,1.68 -1.16,-1.02 1.67,0.62 0.8,5.64 -0.15,16.93 0.6,19.33 0.01,0 -0.74,2.2 3.91,0.11 3.23,-1.46 1.13,-3.88 6.9,-7.17 5.11,-2.91 46.4,-39.05 53.44,-38.27 2.81,0.31 1.48,2.89 5.64,0.72l15.12 -11.21c-2.37,4.79 -7.41,9.57 -7.35,14.36l4.14 -0.1zm51.58 -18.19c2.89,2.3 5.42,3.24 3.08,8.68 -2.65,-1.17 -2.96,-0.73 -3.75,-3.94 -1,-4.1 0.67,-4.74 0.67,-4.74zm-37.64 -2.13c1.41,-5.86 3.99,-3.86 4.56,-3.83 1.81,3.46 -1.18,5.12 -4.6,5.22l0.04 -1.39zm10.62 0.71c1.34,-4.19 8.28,-8.15 12.55,-9.31l1.35 4.98c2.82,-1.66 5.57,-1.87 8.56,0.26 -1.2,2.23 1.08,0.62 -2.66,2.89l-8.89 3.02 -3 -3.58c-4.37,1.99 -1.94,4.74 -7.91,1.74zm-21.16 -1.09c0.7,-4.44 3.77,-7.11 7.96,-8.77 2.46,5.62 -2.36,8.86 -7.96,8.77zm29.09 -26.29c-6.33,3.26 0.11,-4.84 -19.15,8.2 -11.72,7.93 -7.11,10.46 -16.51,8.86 -6.88,-1.17 -1.46,4.71 -14.51,3.86 0.05,7.19 -0.18,5.97 -5.79,9.35 -3,1.81 -5.65,3.94 -8.93,5.12 -0.85,1.26 -0.23,1.24 -0.85,-0.1l5.42 -6.41c3.06,-3.47 4.07,-3.02 6,-7.05 -14.49,3.95 -44.62,47.37 -53.2,53.18 -0.17,-10.09 31.18,-37.94 37.02,-49.05 -3.95,2.19 -8.25,6.92 -10.52,10.17l-15.78 15.2 19.52 -31.7c-5.4,3.93 -13.22,14.08 -16.98,20.26 -2.28,3.75 -4.65,7.4 -7.15,11.76 -2.19,3.8 -3.85,7.66 -6.26,11.38 0.8,-21.37 12.68,-23.79 17.09,-37.82 -7.82,4.91 -13.96,21.38 -19.06,21.67l2.83 -8.9c-0.85,1.85 -0.33,1.41 -1.99,2.06l-1.63 -0.76c6.14,-13.34 1.97,-5.36 9.41,-16 -3.26,1.33 -6.26,4.69 -9.77,8.01 -6.78,6.41 -5.65,7.69 -10.5,6.54 -0.97,-5.42 -1.41,-1.98 1.11,-4.86 0.85,-0.97 2.21,-1.71 3.38,-2.69 3.24,-2.73 3.3,-4.13 5.86,-6.82 -1.67,1.13 -2.09,1.13 -3.56,2.08 -11.56,7.45 -10.24,10.05 -24.97,14.13 2.52,-6.01 16.71,-14.59 22.55,-18.51 2.68,-1.79 5.99,-7.68 14.15,-8.45 6.35,-0.59 14.26,-6.26 19.63,-9.65 5.23,-3.31 15.65,-9.03 21.38,-9.2 1.13,-1.13 0.25,-0.44 1.8,-1.48l25.01 -5.64c6.13,1.21 -4.49,2.55 4.43,1.12 2.38,-0.38 3.79,-1.27 6.57,-1.52 2.78,-0.25 13.98,-0.15 16.82,0.17 17,1.93 15.92,3.71 26.77,7.22 -1.88,3.54 -1.95,2.29 -1.78,7.59 -3.71,0.74 -5.52,1.41 -7.99,2.91 -4.59,2.79 -1.65,2.91 -7.36,3.32 1.13,-5.38 2.63,-2.75 2.01,-7.87l-4.52 0.32z"/>
   <path class="fil1" d="M206.1 308.44c0.86,2.71 2.93,4.29 3.34,5.15 -6.34,0.75 -31.03,-11.89 -41.7,-5.56 -7.84,4.65 -15.09,9.3 -19.14,17.65 -1.86,3.84 -0.8,6.14 -1.11,10.96 -0.65,-1.67 -1.53,-4.9 -2.04,-6.07 -1.85,-4.3 -3,-2.14 -3.34,-3.05 -0.13,-0.36 -0.58,-0.16 -0.88,-0.16 -1.33,3.2 -1.4,5.76 -0.09,8.68l3.74 4.5c0.2,0.2 1.1,1.1 1.44,1.53l2.24 4c1.01,2.28 1.53,3.35 3.03,4.9 8.23,8.53 17.65,7.03 12.31,19.4l11.3 -5.93 -0.47 -7.93c-2.52,-0.49 -12.02,-4.44 -13.33,-5.43 -7.35,-5.63 -5.33,-1.45 -7.96,-5.91 -0.41,-0.69 -1.16,-2.43 -1.73,-3.55 -0.81,-4.58 -5.6,-7.31 -0.51,-10.14 3.32,2.02 1.35,0.5 3.43,4.35 1.8,3.32 2.14,2.84 3.54,5.68l0.59 -4.39c-0.15,-2.96 -0.12,-2.98 1.43,-4.9 2.41,1.03 1.91,0.41 3.97,3.13 0.94,1.25 0.55,0.94 1.17,1.82l1.79 2.25c1.15,1.32 1.99,2.26 3.32,3.69 1.79,1.93 1.08,0.44 2.73,3.21l2.06 2.03c8.47,6.15 3.58,-1.19 5.57,6.07l2.46 -3.1c1.48,-2.46 2.67,-6.83 8.59,-6.4l1.58 0.76 0.08 -3.25c-2.77,0.53 -3.77,0.77 -7.66,-0.79 -3.84,-1.56 -4.77,-3.69 -3.7,-7.29 7.48,-1.47 1.94,4.86 17.96,1.99l1.99 5.1c7.35,-2.74 0.16,-0.06 6.71,-0.34 0.05,-6.07 -0.68,0.49 1.41,-2 1.59,-1.81 2.1,-2.04 3.68,-3.44 0.2,-4.6 0.45,-3.42 2.13,-6.32 2.36,0.57 1.55,-0.02 3.46,1.55 1.46,1.2 0.57,0.59 1.37,1.59l1.33 1.82c1.47,-1.58 0.92,-0.72 2.22,-3.22 0.23,-0.45 0.77,-1.68 1.01,-2.12 0.17,-0.29 0.33,-0.55 0.49,-0.82l1.15 -1.78c6.69,1.27 1.79,1.48 6.23,3.02 1.12,0.39 4.24,-0.51 6.73,3.96 -13.27,4.98 -6.33,-6.24 -13.1,5.98 -2.42,4.36 -6.63,8.74 -9.96,11.72 -5.14,-1.53 0.1,-4.74 -6.73,-0.83 -5.14,2.95 -1.03,3.76 -11.63,8.61l-0.99 0.52c-0.79,0.45 -1.25,1.54 -3.29,1.42 -1.59,-0.09 -0.57,0.15 -2.2,-0.73 -1.62,1.33 -0.57,-0.31 -1.08,2.4l3.92 1.95c3.44,2.23 7.47,6.33 11.13,7.54 5.6,-0.1 18.52,-8.36 24.15,-10.48 3.49,-1.32 2,-0.33 4.93,-2.01 5.78,-3.32 19.47,-14.97 23.94,-19.98 1.35,-1.51 2.19,-2.26 3.54,-3.42l9.13 -12.95c3.14,-7.8 -3.92,-13.55 -11.69,-20.79 -8.75,-8.16 -8.01,-15.31 -16.01,-19.87l-17.31 -11.66c-3.89,-2.76 -7.51,-4.7 -10.29,-2.33l0.89 18.95c1.55,3.95 8.28,7.74 10.1,12.59 1.68,4.48 -0.51,6.94 8.59,12.56 0.16,0.09 0.59,0.63 0.71,0.43 0.12,-0.21 0.5,0.27 0.74,0.42 -2.43,1.29 -5.04,2.03 -8.05,-1.44 -4.52,-5.22 0.47,-5.78 -14.1,-21.58 -6.58,-1.47 -5.07,-5.56 -7.08,-12.12 -1.38,-4.47 -2.67,-9.51 -4.02,-14.06 -11.58,4.42 -21.1,3.95 -27.82,13.65 -5.18,-1.55 -4.52,-3.46 -8.53,-4.88l-0.81 4.73 6.98 2.19c-5.19,1.67 -4.73,1.53 -10.61,0.36 -0.14,-7.39 3.04,-6.4 -0.58,-14.5 -2.23,-4.98 -4.73,-7.61 -6.7,-12.87l-2.88 3.64c-1.71,3.71 -0.52,1.53 -1.09,5.86 -0.67,5.1 -2.51,6.43 -4.16,10.96 -3.59,9.92 -5.06,12.94 -5.06,24.53 1.94,-0.2 4.49,-0.24 5.88,-1.68 1.61,-1.66 0.17,-2.72 2.75,-5.18l9.2 -6.54c0.18,0.19 0.38,0.29 0.46,0.65 0.26,1.27 3.06,4.55 7.87,4.34 6.1,-0.26 3.56,-2.11 8.15,-4.62 3.35,1.65 6.15,3.67 10.83,5.59 19.06,7.81 11.43,7.03 20.93,12.93 2.92,1.82 8.55,5.89 9.66,8.05 -3.38,2.16 -1.79,1.03 -5.02,-0.41 -3.37,-1.5 -3.95,-1.62 -7.61,-2.54z"/>
   <path class="fil2" d="M174.82 248.51c2.29,-8.33 9.12,-2.15 9.94,0.51 1.69,5.45 -7.01,4.43 -9.94,-0.51zm-43.74 -8.52c5.24,-1.38 1.6,-7.77 2.61,-16.7 0.87,-7.71 0.06,-14.6 3.54,-19.67 3.04,0.72 6.48,2.93 9.53,4.46 6.32,3.17 4.55,4.76 8.99,3.51l0.8 -2.05c-7.22,-2.67 -17.04,-9.92 -23.33,-14.92 -2.64,-2.09 -4.67,-4.03 -5.67,-6.77 6.06,0.46 24.12,18.58 29.46,18.05 3.31,-0.33 -0.86,-1.2 5.75,-1.76 -0.23,7.1 -9.76,26.95 -3.42,44.24 0.82,2.25 3.96,11.41 4.61,12.39 1.13,-1.17 0.05,-0.18 0.3,-1.8l0.93 -3.77c4.25,1.44 8.93,1.81 13.13,0.44 0.81,-0.27 1.68,-0.56 2.33,-0.77 9.13,-2.95 7.63,-1.91 17.85,-2.69 3.47,-2.71 9.38,-12.61 4.09,-18.23 -2.05,-1.9 -6.57,-0.2 -10.33,0.14 -1.89,-1.91 -0.33,-0.37 -1.39,-1.92l-1.73 -2.57 -8.2 2.54c3.05,-9.26 6.19,-32.31 6.59,-43.59 0.32,-9.03 1.21,-1.97 3.75,-13.29 -1.34,-0.32 -4.82,-0.1 -7.13,-1.48 0.06,-7.12 0.37,-5.44 1.66,-11.1 -2.43,-2.63 -5.33,-4.82 -8.15,-6.68 0.05,-10.64 6.73,-21.98 7.86,-29.44 0.55,-3.23 0.01,-2.45 -0.17,-3.13 -2.89,-1.08 -2.44,-0.23 -6.29,0.31 -3.98,9.91 -0.42,8.14 -1.8,16.02l-5.06 0.12c-2.08,-7.14 1.48,-10.37 2.44,-15.54 -0.81,-1.69 0.55,-2.85 -6.51,-4.76 0.5,-4.11 1.45,-15.17 3.58,-18.32l3.29 -3.67c3.8,-4.49 0.82,-2.64 7.98,-9.93l5.32 -4.99 -1.15 -2.71c-0.3,-4.5 3.35,-8.12 4.95,-11.44 -8.05,2.75 -7.4,14.61 -14.68,5.56 -1.41,1.79 -0.55,0.84 -2.5,2.52l-8.47 6.52c-3.25,2.7 -7.24,6.11 -10.6,9.34 -3.03,2.9 -8.43,6.6 -10.62,9.35 -2.11,2.66 -5.57,11.76 -6.16,15.21 5.46,2.78 19.91,17.05 25.43,22.41 1.71,1.67 1.87,2.41 3.77,4.16l5.26 4.12c-1.85,3.28 -1.08,1.25 -3.32,3.99 0.99,9.18 3.36,29.47 -0.53,39.41 -1.51,3.87 -1.05,2.64 -3.5,3.7 -1.72,-2.79 0.01,-4.88 -2.99,-5.94 -3.73,10.05 3.18,4.19 -5.64,7.51 3.15,1.92 2.99,1.5 4.54,5.09 -4.59,2.02 -5.88,-0.44 -9.78,-3l-28.04 -16.3c-3.83,5.73 -6.58,23.41 -6.33,32.49 0.14,5.08 10.32,22.86 13.15,25.33z"/>
   <path class="fil3" d="M230.41 142.58c5.74,0.08 2.97,0.52 5.34,1.27 6.94,2.22 9.93,0.59 15.84,0.33 15.84,-0.67 15.5,-3 17.13,2.7 1.05,7.04 -2.87,2.55 -2.08,11.84 0.45,5.22 -0.54,10.64 -0.94,14.69 2.7,-0.85 12.94,-7.76 17.53,-8.2 1.36,-0.12 1.48,0.04 2,0.22 0.97,2.13 0.8,1.38 -0.33,3.64 5.76,1.6 4.99,4.83 7.44,10.11 2.54,5.48 2.42,8.75 7.33,11.42 -2.48,-10.39 -6.09,-18.55 5.2,-23.2 -0.11,6.39 -2.03,5.41 -2.77,9.5 -0.55,3.11 4.13,16.76 3.97,30.69 -0.1,8.98 -0.31,13.75 -4.98,19.17l-18.93 16.01c-7.37,4.95 -11.72,11.02 -14.23,20.68 -4.73,18.17 -1.06,26.78 1.55,39.89l2.43 -0.79c-1.2,-11.07 -4.49,-38.26 12.91,-40.25l0.43 41.97c0.43,4.77 2.32,7.56 1.99,13.09 -0.87,14.94 -16.38,27.75 -20.18,38.39 4.31,-1.57 5.95,-4.1 8.98,-6.35 2.42,-1.79 2.52,-1.13 4.55,-3.42 9.41,-10.63 21.32,-39.33 20.75,-48.37 -1.3,-20.46 0.17,-12.14 2.1,-19.93 2.33,-9.43 2.85,-17.93 8.24,-30.29 4,-9.16 0.71,-15.38 0.72,-24.32 0.02,-12.57 -2.43,-41.01 -6.41,-53.4 2.76,-2.13 2.71,-0.77 5.97,-3.78l-4.21 -3.11c-6.79,-4.67 -6.5,-7.06 -10.55,-10.38 -22.07,-18.04 -24.46,-15.93 -54.15,-12.62l-10.13 1.71c-0.29,0.1 -0.57,0.22 -0.84,0.32l-1.67 0.77z"/>
   <path class="fil4" d="M203.1 140.43l-3.89 -4.92c4.16,-3.76 13.47,-13.28 18.7,-14.77 -0.31,3.34 -6.57,8.8 -10.82,15 -2.08,3.05 -1.3,2.73 -3.99,4.69zm-15.96 -60.47l1.15 2.71 -5.32 4.99c-7.16,7.29 -4.18,5.44 -7.98,9.93l-3.29 3.67c-2.13,3.15 -3.08,14.21 -3.58,18.32 7.06,1.91 5.7,3.07 6.51,4.76l1.4 -1.66c1.97,-1.97 -0.58,-0.37 2.37,-1.95l0.65 3.01c3.85,-0.54 3.4,-1.39 6.29,-0.31 0.18,0.68 0.72,-0.1 0.17,3.13 1.9,-1.08 1.97,-1.29 4.83,-1.67 1.35,5.47 -5.87,22.12 -7.83,25.81l8.69 3.67 -0.35 8.09c2.27,4.34 0.37,3.83 3.38,1.56l9.04 -10.33c2.57,-13.3 4.81,-13.48 12.02,-17.73l4.26 -2.8c1.25,-1.01 0.95,-0.69 1.85,-1.7l1.02 -3.38c0.93,-0.69 1.07,-0.74 1.75,-1.27l5.8 -4.19c6.54,-4.28 5.74,-3.45 13.81,-5.85 -2.69,-1.57 -4.55,-0.96 -5.77,-5.19 -2.52,-8.72 4.67,-13.63 12.34,-21.38 5.7,-5.75 31.54,-19.81 35.16,-3.62l0.43 2.56c0.41,7.35 -7.73,14.13 -10.06,16.53l-2.98 3.14c-1.11,1.03 -1.71,1.15 -2.26,2.12 3.53,-1.04 6.63,-2.32 11.62,-2.36 -0.23,4.43 0.18,2.91 -2.05,5.49 3.77,0.05 4.2,0.79 7.45,2.03l4.31 -4.36c3.98,-6.23 4.55,-14.33 4.04,-21.3 -0.32,-4.49 -7.56,-17.15 -13.6,-20.84l-4.14 0.1c-0.06,-4.79 4.98,-9.57 7.35,-14.36l-15.12 11.21c-4.16,2.17 -2.83,-0.41 -5.64,-0.72 -7.04,-0.78 -48.33,35.36 -53.44,38.27 -5.77,3.29 -3.67,5.71 -6.9,7.17 -4.65,2.09 -3.9,-0.11 -3.91,-0.11 -0.75,-2.4 0.2,-13.69 -0.6,-19.33 -2.83,-1.64 1.67,1.06 -1.67,-0.62l-2.26 -1.38c2.32,-11.25 4.65,-1.69 1.79,-15.97 -2.68,4.45 -5.5,4.6 -10.73,6.11z"/>
   <path class="fil5" d="M126.25 301.41l0.3 0.3c-0.02,-0.02 -0.4,-0.2 -0.3,-0.3zm8 -28.95l-1.26 -4.82c-0.32,-3.12 -0.68,-1.91 0.26,-4.16l0 -1c-1.35,0 -1.08,0.33 -0.78,-0.99 -1.67,-7.75 -7.21,-11 -8.66,-15.5 -2.65,7.77 -3.32,16.19 -5.66,24.39l-16.4 58.45c-1.11,3.5 -1.87,7.1 -3.4,11.34l-19.09 64.71c-0.64,2.62 -0.65,4.3 -1.37,6.65 -1.4,4.59 -4.77,11.79 -3.31,15.24 2.67,-1.43 4.27,-5.71 4.97,-8.84 2,-8.93 14.99,-30.51 20.2,-51.21 1.66,-6.61 3.69,-16.28 5.57,-22.57 2.96,4.48 -0.77,12.85 -1.54,17.4 -3.68,21.56 -12.78,39.74 -12.96,48.79l5.89 -1.69 14.32 -34.65c0.85,-2.2 1.46,-4.78 2.1,-6.88 1.31,-4.37 2.93,-9.89 3.67,-14.53 0.63,4.1 2.2,4.16 1.73,8.24l-5.8 26.08c2.23,-1.08 3.34,-2.87 6.47,-3.98 3.11,-1.1 1.99,-1.12 5.53,0.36 1.8,0.76 12.09,-4.04 14.39,-6.04 0.11,-0.09 0.42,-0.19 0.49,-0.49 0.08,-0.3 0.33,-0.33 0.49,-0.5 -6.18,-8.69 -7.54,-11.72 -11.92,-21.92 -4.6,-10.71 -7.09,-34.5 -3.43,-43.57 5.78,-14.34 9.5,6.01 9.5,-38.31z"/>
   <path class="fil6" d="M197.12 228.37c15.55,-0.91 9.94,4.62 13.88,16.4 1.94,5.82 4.89,17.69 5.48,23.66 2.78,-2.37 6.4,-0.43 10.29,2.33l17.31 11.66c8,4.56 7.26,11.71 16.01,19.87 7.77,7.24 14.83,12.99 11.69,20.79l-9.13 12.95c-1.35,1.16 -2.19,1.91 -3.54,3.42 -4.47,5.01 -18.16,16.66 -23.94,19.98 -2.93,1.68 -1.44,0.69 -4.93,2.01 -5.63,2.12 -18.55,10.38 -24.15,10.48 12.25,17.41 15.16,7.01 29.77,1.24l16.59 -8.42c5.31,-2.91 9.94,-5.68 14.61,-8.99 3.8,-10.64 19.31,-23.45 20.18,-38.39 0.33,-5.53 -1.56,-8.32 -1.99,-13.09l-0.43 -41.97c-17.4,1.99 -14.11,29.18 -12.91,40.25l-2.43 0.79c-3.09,-1.13 -3.05,-2.2 -4.57,-5.86 -1.1,-2.64 -2.06,-5.13 -3.34,-7.68 -2.8,-5.58 -1.49,-13.09 -1.22,-19.74 -8.03,0.1 -13.73,-6.21 -19.32,-11.27 -3.27,-1.22 -4.49,-1.07 -5.97,-4.44 1.79,-1.64 0.38,-0.69 3.66,-0.98 -4.81,-6.95 -15.01,-3.85 -15.86,-12.33l4.33 -0.37c-1.19,-2.66 -3.73,-4.97 -5.73,-6.51 -3.72,-2.89 -2.97,-2.79 -6.06,-5.95 -3.64,-3.72 -14.13,-2.72 -18.28,0.16z"/>
   <path class="fil7" d="M191.27 175.26c-2.54,11.32 -3.43,4.26 -3.75,13.29 -0.4,11.28 -3.54,34.33 -6.59,43.59l8.2 -2.54 1.73 2.57c1.06,1.55 -0.5,0.01 1.39,1.92l0.05 -4.04 4.82 -1.68c4.15,-2.88 14.64,-3.88 18.28,-0.16 3.09,3.16 2.34,3.06 6.06,5.95 2,1.54 4.54,3.85 5.73,6.51 10.6,-1.06 24.5,13.42 34.78,-0.09l13.09 -18.87c5.77,-8.39 13.48,-43.65 -6.23,-34.16l-5.9 2.03c-2.22,0.6 0.91,-1.47 -2.93,0.94 12.61,0.97 -6.93,7.2 -14.1,9.97 -19.72,7.63 -19.34,5.48 -21.84,11.43 -3,-0.85 -7.3,-2.94 -11.88,-4.5 -0.6,3.48 -0.85,2.7 -1.69,5.6 -0.57,1.96 -0.81,3.73 -1.68,5.26 -1.27,2.24 -4.98,5.37 -6.71,6.03 -4.78,-4.12 -4.11,-6.54 -2.92,-13.78 2.38,-14.37 -2.04,-4.15 -1.86,-11.98 0.17,-7.06 -0.63,-1.28 1.64,-3.93 0.67,-5.82 1.37,-7.47 3.62,-12.44 1.16,-2.57 1.42,-3.72 2.94,-6.12 1.29,-2.04 2.23,-2.68 3.04,-4.2 1.29,-4.33 2.16,-5.1 2.95,-8.57 -4.7,1.26 -7.51,3.78 -10.79,5.98 -3.99,2.66 -6.65,5.22 -9.45,5.99z"/>
   <path class="fil8" d="M253.14 16.46c-5.73,0.17 -16.15,5.89 -21.38,9.2 -5.37,3.39 -13.28,9.06 -19.63,9.65 -8.16,0.77 -11.47,6.66 -14.15,8.45 -5.84,3.92 -20.03,12.5 -22.55,18.51 14.73,-4.08 13.41,-6.68 24.97,-14.13 1.47,-0.95 1.89,-0.95 3.56,-2.08 -2.56,2.69 -2.62,4.09 -5.86,6.82 -1.17,0.98 -2.53,1.72 -3.38,2.69 -2.52,2.88 -2.08,-0.56 -1.11,4.86 4.85,1.15 3.72,-0.13 10.5,-6.54 3.51,-3.32 6.51,-6.68 9.77,-8.01 -7.44,10.64 -3.27,2.66 -9.41,16l1.63 0.76c0.64,-3.04 -1.24,-0.91 1.99,-2.06l-2.83 8.9c5.1,-0.29 11.24,-16.76 19.06,-21.67 -4.41,14.03 -16.29,16.45 -17.09,37.82 2.41,-3.72 4.07,-7.58 6.26,-11.38 2.5,-4.36 4.87,-8.01 7.15,-11.76 3.76,-6.18 11.58,-16.33 16.98,-20.26l-19.52 31.7 15.78 -15.2c2.27,-3.25 6.57,-7.98 10.52,-10.17 -5.84,11.11 -37.19,38.96 -37.02,49.05 8.58,-5.81 38.71,-49.23 53.2,-53.18 -1.93,4.03 -2.94,3.58 -6,7.05l-5.42 6.41 0.85 0.1c3.28,-1.18 5.93,-3.31 8.93,-5.12 5.61,-3.38 5.84,-2.16 5.79,-9.35 13.05,0.85 7.63,-5.03 14.51,-3.86 9.4,1.6 4.79,-0.93 16.51,-8.86 19.26,-13.04 12.82,-4.94 19.15,-8.2 -1.9,-4.41 -1.62,-2.8 -7.94,-0.49l-4.05 1.4c-2.63,-2.34 0.14,-0.63 -3.46,-1.77 1.8,-1.25 4.92,-3.26 5.63,-5.24 2.16,-5.97 -8.02,2.63 -12.23,0.47 3.12,-2.85 2.58,-0.45 3.97,-4 -3.35,-2.21 -3.42,-0.53 -6.78,1.19 -6.75,3.46 -0.85,-1.87 -12.76,5.06 -2.21,1.29 -4.79,2.27 -5.92,3.06 0.22,-0.31 8.12,-7.54 8.21,-7.61 -1.79,-0.83 -5.23,-0.72 -7.27,-0.26 -4.26,0.95 -5.17,0.39 -6.94,3.89 -6.38,-3.26 0.81,-2.92 -6.29,-2.5 -2.13,0.13 -4.21,0.92 -5.93,0.66z"/>
   <path class="fil9" d="M344.03 413.27c0.31,-0.2 0.77,-0.86 0.95,-0.6 0.16,0.25 0.68,-0.42 0.89,-0.55 0.18,-0.11 0.58,-0.35 0.78,-0.47l1.28 -0.74c0.9,2.7 3.36,10.81 5.51,11.84 1.77,-2.33 1.66,-3 2.48,-6.5 -5.92,-17.6 -3.97,-19.6 -5.62,-25.57 -7.99,-28.79 -11.66,-44.96 -15.28,-74.44 -3.06,-24.96 -6.93,-48.09 -8.92,-73.73 -1.63,-21.02 0.1,-52.4 1.5,-73.87 0.49,-7.51 3.97,-32.38 2.9,-38.03 -1.64,5.2 -2.14,12.29 -3.71,18.02 -2.73,9.87 -1.75,4.59 -4.47,11.46 -3.12,7.93 -5.3,3.05 -6.17,9.75 -0.25,1.91 -0.04,8.16 -0.11,10.81 -0.57,21.47 1.48,34.55 3.81,55.91 0.39,3.56 1.18,6.53 1.59,8.79 2.59,14.47 -0.81,37.04 3.41,48.03 2,5.2 1.69,12.44 2.42,18.62 2.84,24.23 1.52,42.54 7.86,68.93 2.04,8.48 8.1,25.07 8.9,32.34z"/>
   <path class="fil10" d="M343.13 292.58c-1.22,13.38 0.84,30.75 5.17,41.26 5.31,12.91 12.66,39.79 17.91,50.94 1.66,3.53 3,4.06 4.8,7.13 7.72,13.17 1.75,9.12 5.4,15.65 1.73,3.09 2.62,3.04 4.62,6.35 1.85,3.07 7.18,11.16 10.82,12.37 -4.84,-11.63 5.21,-2.77 -3.82,-21.22 -2.33,-4.76 -6.67,-13.54 -8.02,-18.83 1.5,1.18 3.73,2.91 4.12,4.42 -1.36,-5.25 -4.06,-13.48 -6.26,-19.62 -2.08,-5.8 -2.85,-4.38 -3.99,-8.9l-9.04 -50.9 1.85 -1.53 -11.33 -23.79c-0.75,-1.56 -0.7,-3.25 -1.42,-4.41 -1.5,-2.42 -0.25,-1.53 -3.22,-2.13 -1.42,2.86 1.02,19.75 1.43,24.36 1.03,11.75 2.76,16.77 3.26,22.17 -1.18,-9.35 -9.03,-27.82 -12.45,-37.9l0.17 4.58z"/>
   <path class="fil11" d="M214.42 185.64c2.89,-2.64 5.53,-4.08 8.35,-6.29 7.61,-5.95 15.13,-13.74 32.15,-12.59 0.97,6.03 -1.01,9.36 -4.08,12.72 -9.61,10.53 -24.92,13.18 -36.42,6.16zm-5.86 -13.78c-0.81,1.52 -1.75,2.16 -3.04,4.2 -1.52,2.4 -1.78,3.55 -2.94,6.12 -2.25,4.97 -2.95,6.62 -3.62,12.44l-0.49 6.4c8.24,-0.59 2.5,0.03 5.63,-5.09 2.57,2.74 0.62,3.31 0.56,4.86 3.89,3.87 4.59,1.87 7.52,6.63 4.58,1.56 8.88,3.65 11.88,4.5 2.5,-5.95 2.12,-3.8 21.84,-11.43 7.17,-2.77 26.71,-9 14.1,-9.97 -2.8,2.86 -18.22,8.16 -23.1,9.99 -3.31,1.25 -18.52,4.36 -21.4,3.57 -0.28,-0.08 -2.34,-1.18 -2.52,-1.35 -1.74,-1.6 -1.32,-0.66 -1.75,-3.12 4.19,-2.64 4.8,0.7 9.69,0.63 3.01,-0.04 7.43,-1.48 10.18,-1.83 5.52,-0.72 11.22,-2.05 16.29,-4.42 3.33,-1.56 8.69,-7.47 20.36,-14.51 3.96,-2.39 14.64,-7.72 17.15,-10.41 1.13,-2.26 1.3,-1.51 0.33,-3.64 -0.52,-0.18 -0.64,-0.34 -2,-0.22 -4.59,0.44 -14.83,7.35 -17.53,8.2 0.4,-4.05 1.39,-9.47 0.94,-14.69 -0.79,-9.29 3.13,-4.8 2.08,-11.84 -2.52,0.62 -4.14,1.92 -7.37,3.17 -3.47,1.36 -5.04,2.22 -7.95,3.07 -6.59,1.93 -9.93,2.23 -16.16,4.79 -5.23,2.15 -9.07,3.58 -14.71,6.1 -10.75,4.79 -8.61,5.41 -13.97,7.85z"/>
   <path class="fil12" d="M260 190.52c3.84,-2.41 0.71,-0.34 2.93,-0.94l5.9 -2.03c19.71,-9.49 12,25.77 6.23,34.16l-13.09 18.87c-10.28,13.51 -24.18,-0.97 -34.78,0.09l-4.33 0.37c0.85,8.48 11.05,5.38 15.86,12.33 6.43,5.73 20.78,-1.02 27.68,-8.47l22.94 -18.9c18.88,-15 11.59,-16.8 10.33,-35.4 -4.91,-2.67 -4.79,-5.94 -7.33,-11.42 -2.45,-5.28 -1.68,-8.51 -7.44,-10.11 -2.51,2.69 -13.19,8.02 -17.15,10.41 -11.67,7.04 -17.03,12.95 -20.36,14.51 -5.07,2.37 -10.77,3.7 -16.29,4.42 -2.75,0.35 -7.17,1.79 -10.18,1.83 -4.89,0.07 -5.5,-3.27 -9.69,-0.63 0.43,2.46 0.01,1.52 1.75,3.12 0.18,0.17 2.24,1.27 2.52,1.35 2.88,0.79 18.09,-2.32 21.4,-3.57 4.88,-1.83 20.3,-7.13 23.1,-9.99z"/>
   <path class="fil5" d="M369.88 318.32c0.67,0.97 4.39,23.08 5.23,27.48 2.02,10.61 3.93,18.36 7.09,28 1.5,4.59 3.32,8.78 4.91,13.19 9.23,25.62 8.64,16.44 17.15,35.7 -1.24,-4.78 -9.62,-19.96 -9.39,-26.2 4.39,-0.18 3.35,-0.96 4.89,2.59 0.4,0.92 0.41,1.73 0.91,3.03l3.68 8.47c3.53,8.5 10.66,19.95 12.13,25.35 1.51,0.76 2.64,1.17 4.78,1.77 -0.3,-4.14 -1.82,-6.16 -3.52,-9.71 -5.15,-10.73 -0.41,-11.67 -6.89,-29.88l-14 -37.47c-1.96,-5.42 -5.06,-11.81 -7.15,-17.36 -3.07,-8.13 -3.27,-12.44 -5.51,-19.55 1.77,-4.27 -1.1,-13.48 -3.2,-16.13 -1.51,-1.41 -0.76,-0.22 -1.84,-2.64l-5.55 -19.51c-1.58,1.97 -0.4,-1.48 -0.58,1.91l8.25 34.62 -11.99 -17.52c0.01,4.31 4.58,12.22 0.6,13.86z"/>
   <path class="fil13" d="M392.53 298.35c-5.24,-0.32 1.13,-0.04 -2.83,1.71 -0.18,0.08 -3.96,1.25 -4.64,1.74 -0.89,10.57 21.4,57.51 23.05,68.71 2.33,11.23 10.21,21.26 10.45,21.79 1.18,2.64 1.73,5.97 3.02,8.91 2.16,0.81 1.55,-3.25 5.01,3.92 1.98,4.1 3.56,6.72 6.25,8.08 2.33,-5.25 -2.3,-14.27 -4.59,-19.54 -2.27,-5.23 -0.89,-6.65 -1.99,-10.99 -0.97,-3.83 -3.42,-3.64 -2.65,-8.37 1.6,-9.85 -8.49,-32.34 -10.07,-38.99l-12.92 -38.71c-1.21,-4.28 -2.83,-8.28 -3.95,-13.47 -1.57,-6.41 -4.31,-12.26 -5.72,-19 -1.49,-7.13 -1.8,-3.54 -3.92,-5.08 -1.95,-1.42 -2,1.3 -2.92,-10.18 0.12,10.13 -2.1,1.1 1.59,15.84 1.41,5.62 2.43,11.38 4.04,16.55l0.29 -2.32c-0.01,-1.04 -0.32,-2.97 -0.2,-4.47 1.78,2.71 4.59,15.44 6.42,20.43 1.27,3.44 2.44,6.43 3.75,10.2 0.59,1.71 1.45,3.88 1.69,5.45 0.51,3.35 0.42,4.23 -0.98,6.49 -5.12,-3.9 -5.69,-13.14 -8.18,-18.7z"/>
   <path class="fil13" d="M428.14 358.24c0.18,7.72 22.47,46.56 29.22,56.18 2.42,3.45 3.8,4.92 6.07,7.94 3.08,4.11 3.42,5.73 8.47,6.02 -1,-5.05 -8.42,-15.81 -10.82,-18.7 -2.17,-2.62 -4.87,-4.02 -5.99,-10.84 6.58,0.78 6.34,3.13 9.48,7.46 2.37,3.3 4.35,5.23 6.9,8.98l12.76 17.72c-1.78,-3.04 -3,-5.77 -4.48,-9.08 -8.21,-18.36 -2.65,-0.86 -9.43,-11.53l-6.86 -13.08c-11.32,-22.6 -26.67,-50.51 -36.13,-72.68l-12.4 -40.44 -4.39 -0.13c-3.71,0.41 -3.07,-1.61 -3.54,3.22 -0.67,6.89 11.94,41.03 14.37,49.14 2.13,7.07 4.25,13.14 6.77,19.82z"/>
   <path class="fil12" d="M221.4 131.46c6.18,0.75 23.39,-6.2 28.38,-8.96 5.46,-3.02 23.94,-8.8 30.43,-8.44 2.23,-2.58 1.82,-1.06 2.05,-5.49 -4.99,0.04 -8.09,1.32 -11.62,2.36 0.55,-0.97 1.15,-1.09 2.26,-2.12l2.98 -3.14c2.33,-2.4 10.47,-9.18 10.06,-16.53l-0.43 -2.56c-3.62,-16.19 -29.46,-2.13 -35.16,3.62 -7.67,7.75 -14.86,12.66 -12.34,21.38 1.22,4.23 3.08,3.62 5.77,5.19 -8.07,2.4 -7.27,1.57 -13.81,5.85l-5.8 4.19c-0.68,0.53 -0.82,0.58 -1.75,1.27l-1.02 3.38z"/>
   <path class="fil14" d="M341.57 279.54c0.16,0.18 0.35,0.27 0.42,0.6 0.05,0.23 1.75,2.6 3.96,3.4l2.81 -17.99 6.88 11.04c1.72,4.87 -0.57,2.83 3.16,3.8 3.56,-2.86 2.47,-10.14 1.47,-14.4 1.76,0.75 -0.38,-1.15 1.23,1.72 0.08,0.15 0.21,0.44 0.3,0.61l0.67 1.31c0.9,1.53 2.53,3.41 3.5,4.59 3.48,-0.82 1.37,-0.91 3.95,-1.6l3.68 12.83 5.55 19.51c1.08,2.42 0.33,1.23 1.84,2.64 6.84,1.37 1.65,0.37 3.72,-1.2 -1.95,-9.19 -6.51,-19.28 -8.92,-33.6 2.32,1.51 2.66,2.28 4.96,3.73 1.01,-1.22 1.09,-1.8 1.67,-2.35 1.83,-1.72 -0.69,-0.98 2.09,-1.17 -1.49,-6.42 -12.8,-48.87 -15.13,-53.04l-6.58 -0.29c-0.96,3.76 -2.08,2.5 -1.76,10.88 0.16,4.19 0.44,8.63 0.99,12.68 0.73,5.44 4.83,16.73 2.75,20.29 -5.41,-0.49 -5.79,-6.8 -7.8,-14.98l-5.5 -19.05c-2.37,4.43 -0.86,9.61 -0.52,14.83 0.45,6.83 3.45,13.09 0.5,15.9 -2.28,2.17 -2.85,-1.77 -5.14,-5.14 -5.15,-7.59 -2.21,-13.32 -3.81,-20.14 -2.37,4.04 -1.9,38.23 -0.94,44.59z"/>
   <path class="fil15" d="M163.9 370.37c5.34,-12.37 -4.08,-10.87 -12.31,-19.4 -1.5,-1.55 -2.02,-2.62 -3.03,-4.9l-2.24 -4c-0.34,-0.43 -1.24,-1.33 -1.44,-1.53l-3.74 -4.5c-1.31,-2.92 -1.24,-5.48 0.09,-8.68 0.3,0 0.75,-0.2 0.88,0.16 0.34,0.91 1.49,-1.25 3.34,3.05 0.51,1.17 1.39,4.4 2.04,6.07 0.31,-4.82 -0.75,-7.12 1.11,-10.96 4.05,-8.35 11.3,-13 19.14,-17.65 10.67,-6.33 35.36,6.31 41.7,5.56 -0.41,-0.86 -2.48,-2.44 -3.34,-5.15 -3.64,-2.91 -22.39,-7.1 -28.23,-8.68 -16.51,-4.45 -16.13,6.4 -29.55,5.61 -1.09,-0.07 -6.71,-3.76 -10.04,7.14 -3.12,10.24 4.79,35.91 9.49,45.46 -2.27,-0.75 -13.51,-18.41 -14.32,-23.9 -0.7,-4.85 -0.57,-8.46 -2.11,-11.92 1.74,49.27 15.28,43.21 22.61,54.72 2.85,-1.3 7.58,-4.78 9.95,-6.5z"/>
   <path class="fil16" d="M45.85 400.79c3.65,6.18 -3.7,11.09 -6.23,16.37 0.31,2.72 -1.05,1.45 1.65,1.84 1.3,-1.93 6.53,-10.46 7.43,-13.06 3.56,-14.3 5.36,-6.47 10.38,-16.29 -5.29,10.57 4.47,-6.28 -2.01,10.36 -2.18,5.6 -2.76,11.56 -3.71,17.74 4.17,-3.03 6.32,-12.82 9.72,-18.02 1.26,-1.93 3.2,-3.85 2.41,-5.78 -0.52,4.61 -5.63,7.47 0.11,8.21 1.53,0.2 1.3,-0.96 3.23,-3.18 0.06,-0.06 -0.73,-1.43 2.04,-0.76 -5.74,20.6 -2.35,9.75 -4.16,20.76l-1.47 4.49c-0.07,0.16 -0.22,0.45 -0.28,0.59 -1.02,2.15 -1.71,2.37 1.64,1.11 3.37,-2.89 16.02,-49.41 18.97,-59.69 3.25,-11.36 6.27,-20.09 9.19,-30.82l7.89 -26.75c0.2,-2.63 0.68,-0.95 -0.64,-2.94 -2.81,10.96 -24.75,53.02 -32.69,63.2l-23.47 32.62z"/>
   <path class="fil5" d="M24.62 416.76c2.11,1.94 2.47,1.8 4.92,-1.31 0.13,-0.17 0.3,-0.41 0.43,-0.59l8.69 -11.79c4.29,-6.02 2.87,-5.73 5.32,-9.2l18.96 -25.05c3.7,-4.49 7.28,-11.85 11.08,-17.78 13.39,-20.94 39.45,-80.93 41.97,-103.35 -4.19,7.03 -6.72,12.27 -10.28,22.16 -8.14,22.56 -37.23,72.85 -50.91,96.87l-30.18 50.04z"/>
   <path class="fil6" d="M282.41 69.59c6.04,3.69 13.28,16.35 13.6,20.84 0.51,6.97 -0.06,15.07 -4.04,21.3l-4.31 4.36c4.41,2.88 4.99,3.92 7.8,9.14 2,3.7 3.81,6.52 5.61,10.82 2.71,-2.15 7.97,-13.56 9.35,-17.84 2.36,-7.32 3.9,-15.73 2.53,-23.7l-0.24 -4.03 5.42 -2.58 -0.4 -3.59c-2.81,0.41 -2.44,0.8 -4.94,1.67 -0.25,0.09 -2.73,0.73 -3.04,0.73l-3.21 -0.88c-0.79,-4.2 5.97,-8.14 7.8,-8.4l-11.97 1.58c-1.69,-7.32 4.25,-5.32 7.32,-10 -6.57,-0.64 -11.79,3.33 -18.21,2.38 -1.01,-7.36 4.83,-5.26 8.61,-11.78 -5.6,1.35 -14.46,6.18 -17.68,9.98z"/>
   <path class="fil11" d="M299.67 190.6c1.26,18.6 8.55,20.4 -10.33,35.4l-22.94 18.9c-6.9,7.45 -21.25,14.2 -27.68,8.47 -3.28,0.29 -1.87,-0.66 -3.66,0.98 1.48,3.37 2.7,3.22 5.97,4.44 11.39,2 12.58,0.21 21.78,-1.44 -0.67,4.59 -1.58,8.27 -2.46,12.71 -0.27,6.65 -1.58,14.16 1.22,19.74 1.28,2.55 2.24,5.04 3.34,7.68 1.52,3.66 1.48,4.73 4.57,5.86 -2.61,-13.11 -6.28,-21.72 -1.55,-39.89 2.51,-9.66 6.86,-15.73 14.23,-20.68l18.93 -16.01c4.67,-5.42 4.88,-10.19 4.98,-19.17 0.16,-13.93 -4.52,-27.58 -3.97,-30.69 0.74,-4.09 2.66,-3.11 2.77,-9.5 -11.29,4.65 -7.68,12.81 -5.2,23.2z"/>
   <path class="fil17" d="M213.9 335.66c2.76,0.13 0.72,-1.15 2.17,0.72l-3.38 8.67 -3.93 -0.2 1.46 -5.75c-2.09,2.49 -1.36,-4.07 -1.41,2 -6.55,0.28 0.64,-2.4 -6.71,0.34l-1.99 -5.1c-16.02,2.87 -10.48,-3.46 -17.96,-1.99 -1.07,3.6 -0.14,5.73 3.7,7.29 3.89,1.56 4.89,1.32 7.66,0.79l-0.08 3.25c0.51,4.76 -0.94,7.7 -5.21,9.03l3.63 -9.79c-5.92,-0.43 -7.11,3.94 -8.59,6.4l-2.46 3.1c-1.99,-7.26 2.9,0.08 -5.57,-6.07l-2.06 -2.03c-1.2,2.24 0.97,2.09 -2.43,0.57l-7.7 -7.35c-1.59,4.17 1.18,0.72 -2.55,4.8l1.7 4.89c-6.17,-2.64 -5.07,-4.66 -10.48,-7.61 0.57,1.12 1.32,2.86 1.73,3.55 2.63,4.46 0.61,0.28 7.96,5.91 1.31,0.99 10.81,4.94 13.33,5.43l0.47 7.93c4.7,-1.83 10.85,-3.81 15.84,-2.01 0.51,-2.71 -0.54,-1.07 1.08,-2.4 1.63,0.88 0.61,0.64 2.2,0.73 2.04,0.12 2.5,-0.97 3.29,-1.42l0.99 -0.52c10.6,-4.85 6.49,-5.66 11.63,-8.61 6.83,-3.91 1.59,-0.7 6.73,0.83 3.33,-2.98 7.54,-7.36 9.96,-11.72 6.77,-12.22 -0.17,-1 13.1,-5.98 -2.49,-4.47 -5.61,-3.57 -6.73,-3.96 -4.44,-1.54 0.46,-1.75 -6.23,-3.02l-1.15 1.78c-0.16,0.27 -0.32,0.53 -0.49,0.82 -0.24,0.44 -0.78,1.67 -1.01,2.12 -1.3,2.5 -0.75,1.64 -2.22,3.22l-1.33 -1.82c-0.8,-1 0.09,-0.39 -1.37,-1.59 -1.91,-1.57 -1.1,-0.98 -3.46,-1.55 -1.68,2.9 -1.93,1.72 -2.13,6.32z"/>
   <path class="fil6" d="M203.27 153.69l-9.04 10.33c-3.01,2.27 -1.11,2.78 -3.38,-1.56 -0.48,1.21 -1.85,4.33 -2.27,5.67 -1.74,5.57 0.53,4.34 -4.44,5.65 2.31,1.38 5.79,1.16 7.13,1.48 2.8,-0.77 5.46,-3.33 9.45,-5.99 3.28,-2.2 6.09,-4.72 10.79,-5.98 -0.79,3.47 -1.66,4.24 -2.95,8.57 5.36,-2.44 3.22,-3.06 13.97,-7.85 5.64,-2.52 9.48,-3.95 14.71,-6.1 6.23,-2.56 9.57,-2.86 16.16,-4.79 2.91,-0.85 4.48,-1.71 7.95,-3.07 3.23,-1.25 4.85,-2.55 7.37,-3.17 -1.63,-5.7 -1.29,-3.37 -17.13,-2.7 -5.91,0.26 -8.9,1.89 -15.84,-0.33 -2.37,-0.75 0.4,-1.19 -5.34,-1.27 -5.13,0.33 -10.94,3.29 -15,5.49 -2.65,1.43 -3.86,2.46 -6.05,3.93 -2.36,1.58 -4.87,3.37 -6.09,1.69z"/>
   <path class="fil18" d="M397 269.73l2.72 -17.65c3.14,3.06 2.18,7.51 10.3,12.59 -0.66,-6.64 -2.93,-16.12 -4.12,-22.36l-7.75 -64.24c-0.77,-2.77 -2.45,-3.35 -3.42,-3.96 -3.4,3.87 -5.43,9.84 -7.46,14.52 2.89,1.01 3.16,0.04 3.68,7.95 0.77,11.48 7.08,29.22 3.78,33.93 -5.69,0.27 -0.2,0.34 -4.61,-1.29l-3.59 -1.16c-1.47,-4.64 -2.63,-9.66 -3.42,-15.05 0.07,5.08 11.96,54.4 13.89,56.72z"/>
   <path class="fil13" d="M346.98 72.88c-2.5,7.43 -15.79,4.73 -22.67,11.28 4.98,3.86 8.4,-0.88 13.42,1.62 -0.88,2.93 0.25,1.03 -2.33,2.72 -1.26,0.84 -0.7,0.21 -1.96,0.97 -1.19,0.72 -0.67,0.46 -1.69,1.23 -0.16,0.12 -0.37,0.33 -0.53,0.45 -0.16,0.12 -0.39,0.31 -0.56,0.43 -0.16,0.12 -0.41,0.29 -0.58,0.41 -5.58,4.16 -2.05,8.21 3.09,5.31 2.39,-1.35 3.28,-1.23 10.66,1.2 1.81,5.34 0.29,17.99 6.6,19.94 1.01,-5.51 -1.39,-15.43 -2.71,-20.65 -2.73,-1.22 -2.2,-0.12 -4.94,-1.98 0.54,-9.1 -2.64,-8.97 2.04,-12.42 3.19,2.62 1.19,2.52 3.02,6.69 1.99,4.52 0.92,1.78 2.01,1.27 3.3,-1.55 -2.44,-2.02 0.87,-0.53 1.1,4.98 2.24,8.69 3.24,13.77 0.76,3.87 1.4,12.64 2.84,15.45 5.9,-2.34 3.94,-5.04 0.85,-20.17 -0.95,-4.62 -5.78,-18.37 -3.84,-22.19 4.71,2.83 6.96,22.73 8.83,27.87 0.74,-20.8 -7.3,-24.76 -2.15,-30.15l1.3 -0.94c1.64,2.25 1.03,9.28 4.72,20.16l2.3 -9.34c1.61,-5.18 -5.83,-17.78 -6.4,-19.22 -1.8,-4.6 -1.23,-7.44 -4.98,-9.49 -2.23,7.64 -0.23,8.98 2.2,15.4 -9.75,-2.63 -1.97,-13.3 -11.53,-12.84 0.31,7.11 3.79,7.78 2.69,16.65 -4.21,-0.61 -1.8,0.32 -3.81,-2.9z"/>
   <path class="fil19" d="M107.07 140.96c0.73,-6.86 -0.97,-7.52 1.45,-14.88 3.51,-10.68 9.53,-4.66 -8.93,-31.57 -5.86,-8.53 -19.87,-33.55 -28.7,-38.2 0.14,5.37 3.77,22.03 5.98,24.96 2.89,3.86 4.2,0.8 7.14,7.8 1.64,3.9 2.8,6.43 4.57,10.4 2.54,5.71 16.41,39.45 18.49,41.49z"/>
   <path class="fil1" d="M131.08 239.99c0.59,2.78 1.43,6.46 2.75,8.99 1.81,3.46 2.62,2.78 4.23,7.44 2.17,6.28 3.34,12.64 5.49,17.92 3.26,-6.6 5.99,-13.9 5.14,-22.51l-12.79 -9.84c0.16,-8.02 6.78,-13.6 8.66,-13.84 4.8,-0.62 0.76,-0.61 2.47,0.74 2.17,3.5 -4.23,4.32 -5.8,10.64 2.02,4.41 6.32,6.69 10.18,7.16 2.62,-7.59 0.32,-16.87 4.34,-35.1 -4.44,1.25 -2.67,-0.34 -8.99,-3.51 -3.05,-1.53 -6.49,-3.74 -9.53,-4.46 -3.48,5.07 -2.67,11.96 -3.54,19.67 -1.01,8.93 2.63,15.32 -2.61,16.7z"/>
   <path class="fil3" d="M301.07 136.05c2.4,7.59 4.22,13.32 8.7,19.72 1.98,2.81 2.21,3.89 5.72,5.23 3.64,-5.9 8.9,-22.66 9.48,-31.24 0.66,-9.63 0.66,-6.22 -3.44,-10.99 0.84,-3.06 2.27,-2.67 3.03,-4.99 -3.37,-1.62 -2.73,0.93 -4.45,-3 0.79,-1.94 0.65,-1.01 1.77,-2.11 1.63,-1.62 0.07,0.93 2.1,-1.88 -1.95,-3.42 -2.08,-1.71 -5.27,-3.99 0.08,-0.24 0.32,-0.81 0.38,-0.66 0.05,0.14 0.3,-0.52 0.37,-0.67l1.64 -5.66 -8.15 -1.3c1.37,7.97 -0.17,16.38 -2.53,23.7 -1.38,4.28 -6.64,15.69 -9.35,17.84z"/>
   <path class="fil17" d="M163.95 260.77c1.64,7.4 4.74,5.04 3.96,12.18 4.01,1.42 3.35,3.33 8.53,4.88 6.72,-9.7 16.24,-9.23 27.82,-13.65 1.35,4.55 2.64,9.59 4.02,14.06 2.01,6.56 0.5,10.65 7.08,12.12 -2.78,-4.12 -1.91,-5.54 2.01,-2.98l-0.89 -18.95c-4.06,-0.73 -2.08,0.84 -3.72,-3.73l-5.67 -11.85c-4.51,0.94 -7.6,8.39 -13.5,4.64 0.78,-6.04 1.55,0.11 4.9,-5.31 -10.22,0.78 -8.72,-0.26 -17.85,2.69 -0.65,0.21 -1.52,0.5 -2.33,0.77 -4.2,1.37 -8.88,1 -13.13,-0.44l-0.93 3.77c-0.25,1.62 0.83,0.63 -0.3,1.8z"/>
   <path class="fil20" d="M123.23 405.73c-4.2,10.37 3.27,24.93 3.97,27.51 0.98,3.64 -0.01,4.7 2.05,8.08 6.72,-1.04 1.97,-3.95 9.2,-5.98l3.56 8.97c1.99,6.61 1.24,20.03 8.66,19.09 3.69,-0.46 6.89,-3.3 8.52,-5.3l-9.24 -15.63 -1.9 0.78c-1.62,-5.52 -1.47,-1.74 -4.68,-8.35 -12.96,-26.78 -2.96,-16.39 -6.02,-27.76 -1.85,-6.9 -0.05,-8.28 -3.11,-12.85 -3.18,1.25 -4.81,3.32 -6.61,6.39 -1.61,2.73 -2.35,8.22 -4.4,5.05z"/>
   <path class="fil21" d="M341.57 279.54c0.98,4.57 -0.09,6.69 0.41,9.86l1.15 3.18 -0.17 -4.58c3.42,10.08 11.27,28.55 12.45,37.9 -0.5,-5.4 -2.23,-10.42 -3.26,-22.17 -0.41,-4.61 -2.85,-21.5 -1.43,-24.36 2.97,0.6 1.72,-0.29 3.22,2.13 0.72,1.16 0.67,2.85 1.42,4.41l11.33 23.79c3.52,-0.29 2.86,5.09 3.19,8.62 3.98,-1.64 -0.59,-9.55 -0.6,-13.86l11.99 17.52 -8.25 -34.62c0.18,-3.39 -1,0.06 0.58,-1.91l-3.68 -12.83c-2.58,0.69 -0.47,0.78 -3.95,1.6 -0.97,-1.18 -2.6,-3.06 -3.5,-4.59l-0.67 -1.31c-0.09,-0.17 -0.22,-0.46 -0.3,-0.61 -1.61,-2.87 0.53,-0.97 -1.23,-1.72 1,4.26 2.09,11.54 -1.47,14.4 -3.73,-0.97 -1.44,1.07 -3.16,-3.8l-6.88 -11.04 -2.81 17.99c-2.21,-0.8 -3.91,-3.17 -3.96,-3.4 -0.07,-0.33 -0.26,-0.42 -0.42,-0.6z"/>
   <path class="fil22" d="M397 269.73l2.89 12.67c-0.36,0.2 -0.59,0.28 -0.7,0.54 -0.11,0.26 -0.53,0.29 -0.67,0.3 -3.66,0.34 2.3,0.24 -1.85,-0.1 1.12,5.19 2.74,9.19 3.95,13.47l12.92 38.71c1.12,-3.39 -0.87,-1.65 1.95,-2.88 0.41,0.71 0.84,1.6 1.54,2.68 0.11,0.18 0.28,0.43 0.41,0.61l0.85 1.14c2.99,4.08 2.07,3.36 3.37,8.39 0.98,3.81 3.35,10.47 6.48,12.98 -2.52,-6.68 -4.64,-12.75 -6.77,-19.82 -2.43,-8.11 -15.04,-42.25 -14.37,-49.14 0.47,-4.83 -0.17,-2.81 3.54,-3.22l4.39 0.13c-0.53,-5.28 -1.65,-7.04 -2.45,-11.78 -0.84,-4.98 -2.13,-6.36 -2.46,-9.74 -8.12,-5.08 -7.16,-9.53 -10.3,-12.59l-2.72 17.65z"/>
   <path class="fil7" d="M371.77 126.45c-2.04,7.51 -3.06,10.53 -3.4,19.26 1.12,0.64 -0.08,0.55 2.34,0.01 4.18,-4.72 7.13,-8.51 11.46,-14.56 2,-2.79 -0.21,-0.79 2.6,-3.39 1.37,-1.27 2.6,-1.69 4.17,-2.77 3.78,-2.6 0.97,-0.56 3.58,-3.43 10.52,-11.55 0.62,-3.22 12.12,-10.84 3.88,-2.56 0.25,-4.93 12.96,-11.91 3.81,-2.09 6.32,-4.09 10.49,-4.13 -0.3,4.28 -3.46,8.84 -5.14,12.4l-4.06 8.08c-0.11,0.46 -0.8,1.68 0.33,4.09 5.02,1.38 5.08,-1.53 10.63,-13.3 1.8,-3.83 7.19,-14.09 7.47,-17.69 -10.24,0.06 -26.6,10.59 -35.28,15.73l-23.14 15.92c-2.03,1.66 -1.84,1.83 -3.66,3.3 -2.54,2.06 -1.73,0.48 -3.47,3.23z"/>
   <path class="fil3" d="M366.94 158.65c3.05,3.93 4.33,9.64 2.88,15.07 2.06,-1.81 4.39,-4.98 6.6,-7.39l24.35 -35.46c10.36,-13.21 13.54,-9.02 18.5,-27.64 -4.85,1.62 -1.9,0.45 -8.27,5.87 -12.25,10.43 -28.57,28.68 -37.99,41.95 -1.75,2.47 -3.68,6.28 -6.07,7.6z"/>
   <path class="fil23" d="M241.03 402.82c3.31,0.49 2.59,0.34 5.37,1.08 1.76,4.34 -0.17,11.19 -2.73,14.84 -2.31,-2.31 -2.11,1.48 -2.42,-7.97 -0.08,-2.48 -1.64,-3.64 -2.97,-6.02l-3.59 2.06c-0.55,5.53 1.93,12.25 3.49,16.11 7.38,-3.74 21.66,-12.19 26.96,-17.57 13.82,-14.02 11.39,-13.74 10.05,-31.45 -1.77,0.8 -17.89,18.79 -29.01,25.46l-5.15 3.46z"/>
   <path class="fil24" d="M305.91 320.27c2.65,0.48 1.01,-0.63 2.88,1.1 0.05,4.51 -1.43,16.32 -1.1,18.76 0.62,4.57 2.16,-0.55 0.21,7.05 -2.93,11.37 1.38,19.66 2.13,23.27 0.93,4.52 -1.24,12.12 -0.42,18.09 0.15,-1.51 4.32,-6.07 5.73,-8.29 -0.02,-5.32 -1.39,-7.42 -1.23,-12.93l1.2 -40.39c0.85,-8.3 1.77,-16.24 2.51,-23.52 0.87,-8.63 -0.26,-18.81 -0.29,-27.59 -3.34,1.63 -5.96,4.55 -6.45,8.74 -1.43,12.28 6.88,3.19 -1.26,24.72 -0.65,1.71 -0.39,1.5 -0.89,3.12 -2.16,6.93 -2.51,2.41 -3.02,7.87z"/>
   <path class="fil3" d="M376.13 201.37l-4.17 -2.01 -0.03 -11.93c-6.95,6.41 -3.38,15.12 -14.13,15.07 -0.67,-1.21 -2.73,-10.27 -2.38,-11.65l-7.54 4.73c-1.71,1.89 -0.65,2.28 -2.22,4.05 -2.34,2.63 -1.67,0.28 -4.46,1.97 -1.44,6.43 1.09,15.1 5.66,18.95l4.81 3.69 7.68 -7.14c7.67,-8.14 7.96,1.04 12.89,-6.01 1.91,-2.72 2.96,-6.04 3.89,-9.72z"/>
   <path class="fil25" d="M48.7 405.94l1.15 -0.14c-5.09,12.59 -2.12,10.1 -5.47,18.47l-2.46 7.88c0.23,0.1 0.63,-0.09 0.72,0.19 1.19,3.59 -0.26,-1.37 2.54,0.81l-3.31 11.6c-0.34,4.28 -0.43,2.44 1.4,2.7 3.01,-2.82 6.95,-12.71 9.7,-17.27 1.62,-3.78 7.65,-13.91 9.68,-15.78 1.16,9.41 -2.87,20.4 -3.12,31.5l2.4 -1.78c1.48,-7.2 3.92,-10.42 4.67,-18.95 -3.35,1.26 -2.66,1.04 -1.64,-1.11 0.06,-0.14 0.21,-0.43 0.28,-0.59l1.47 -4.49c1.81,-11.01 -1.58,-0.16 4.16,-20.76 -2.77,-0.67 -1.98,0.7 -2.04,0.76 -1.93,2.22 -1.7,3.38 -3.23,3.18 -5.74,-0.74 -0.63,-3.6 -0.11,-8.21 0.79,1.93 -1.15,3.85 -2.41,5.78 -3.4,5.2 -5.55,14.99 -9.72,18.02 0.95,-6.18 1.53,-12.14 3.71,-17.74 6.48,-16.64 -3.28,0.21 2.01,-10.36 -5.02,9.82 -6.82,1.99 -10.38,16.29z"/>
   <path class="fil26" d="M467.66 340.68c1.69,0.79 2.6,1.7 2.81,3.79 0.4,3.88 -1.29,3.48 -3,4.09 -1.3,-3.1 -1.79,-4.81 0.19,-7.88zm11.99 -33.19c3.54,12.32 -0.96,12.21 -2.24,15.71 -1.57,4.32 -1.97,13.16 -7.49,12.56l-0.32 -3.57c-3.24,-3.54 -0.25,-2.48 -4.22,-3.92 -0.69,9.14 -4.17,37.63 -7.38,43.62l5.07 0.63 0.22 5.12c1.29,-1.16 0.53,-0.3 1.79,-1.76l2.29 -3.82c6.45,-15.42 0.38,-8.95 2.15,-19.97l5.9 -1.78c1.71,-5.03 2.77,-10.06 4.31,-14.65 4.6,-13.72 4.31,-13.92 7.12,-27.96 2.26,-11.24 -0.91,-9.99 -1.2,-15.3 -2.54,4.61 -3.41,10.8 -6,15.09z"/>
   <path class="fil27" d="M253.14 16.46c1.72,0.26 3.8,-0.53 5.93,-0.66 7.1,-0.42 -0.09,-0.76 6.29,2.5 1.77,-3.5 2.68,-2.94 6.94,-3.89 2.04,-0.46 5.48,-0.57 7.27,0.26 -0.09,0.07 -7.99,7.3 -8.21,7.61 1.13,-0.79 3.71,-1.77 5.92,-3.06 11.91,-6.93 6.01,-1.6 12.76,-5.06 3.36,-1.72 3.43,-3.4 6.78,-1.19 -1.39,3.55 -0.85,1.15 -3.97,4 4.21,2.16 14.39,-6.44 12.23,-0.47 -0.71,1.98 -3.83,3.99 -5.63,5.24 3.6,1.14 0.83,-0.57 3.46,1.77l4.05 -1.4c6.32,-2.31 6.04,-3.92 7.94,0.49l4.52 -0.32c0.62,5.12 -0.88,2.49 -2.01,7.87 5.71,-0.41 2.77,-0.53 7.36,-3.32 2.47,-1.5 4.28,-2.17 7.99,-2.91 -0.17,-5.3 -0.1,-4.05 1.78,-7.59 -10.85,-3.51 -9.77,-5.29 -26.77,-7.22 -2.84,-0.32 -14.04,-0.42 -16.82,-0.17 -2.78,0.25 -4.19,1.14 -6.57,1.52 -8.92,1.43 1.7,0.09 -4.43,-1.12l-25.01 5.64c-1.55,1.04 -0.67,0.35 -1.8,1.48z"/>
   <path class="fil28" d="M214.42 185.64c11.5,7.02 26.81,4.37 36.42,-6.16 3.07,-3.36 5.05,-6.69 4.08,-12.72 -17.02,-1.15 -24.54,6.64 -32.15,12.59 -2.82,2.21 -5.46,3.65 -8.35,6.29z"/>
   <path class="fil26" d="M294.21 452.11c5.67,-3.6 3.48,-8.33 9.69,-12.8l3.38 15.12c-4.29,-2.04 -3.14,-3.15 -6.46,-5.11 -0.05,4.01 2.17,4.83 4.17,6.6l-1.93 1.31c-1.98,2.07 -0.97,2.41 -1.85,4.56 2.35,5.34 2.07,3.18 5.39,6.6 3.68,3.79 1.1,3.6 3.52,7.48 0.01,0 8.41,10.18 10.67,11.09 -1.93,-4.18 -4.34,-9.04 -6.71,-13.14 -2.14,-3.71 -5.88,-8.28 -5.35,-13.6 4.9,2.35 4.76,9.87 9.41,13.71 -1.89,-12.99 -8.41,-31.69 -7.85,-42 -3.86,-1.56 -4.94,-2.57 -7.23,-6.14l-5.19 3.96c-0.49,0.96 -0.46,4.74 -0.61,6.49 -0.51,5.89 -2.54,10.85 -3.05,15.87z"/>
   <path class="fil29" d="M165.72 395.26c5.14,9.65 15.84,14.05 20.08,21.23 2.81,-0.7 1.79,0.78 2.34,-1.61 0.43,-2.84 1.29,-6.12 2.34,-8.16 0.71,-1.4 2.67,-4.27 3.67,-6.28 2.33,-4.66 4.03,-10.43 5.84,-14.58 -2.22,-2.26 -2.48,-2.2 -5.21,-3.73 -0.49,2.16 -1.69,3.6 -6.35,5.39 -3.41,1.31 -3.36,-0.94 -7.14,1.7 -8.32,5.82 3.51,4.35 -15.57,6.04z"/>
   <path class="fil30" d="M79.45 431.9l5.19 -0.94c-2.76,5.4 -7.48,9.38 -7.02,17.67 4.63,-5.8 4.88,-8.93 10.3,-14.19 1.89,8.84 -9.7,25.29 -14.36,30.85 -4.53,5.4 -1.86,-0.13 -7.51,10.46 -1.74,3.26 -1.57,3.3 -3.74,5.62l-0.79 6.51c4.42,-4.34 6.63,-10.39 10.82,-14.86 11.31,-12.11 9.17,-7.05 8.01,-15.11 7.51,-0.28 5.67,-0.25 8.78,-7 3.86,-8.4 1.16,-3.12 0.15,-10.82 7.69,-1.3 6.9,-2.05 11.21,-5.94l-1.09 -0.99c-0.13,-0.14 -0.39,-0.36 -0.52,-0.52 -3.87,-4.64 -1.19,-9.1 0.8,-14.06 -8.53,1.84 -18.56,5.18 -20.23,13.32z"/>
   <path class="fil31" d="M102.3 440.14l-1 0.89c-9.65,10.14 -16.77,35.12 -12.97,44.19l7.78 -23.04c3.42,3.56 -2.38,13.65 -4.06,24.23 0.81,-4.33 8.66,-19.72 12.09,-24.45 7.73,-10.68 12.01,-6.12 7.89,-22.82 -4.5,2.22 -3,-3.51 -9.73,1z"/>
   <path class="fil26" d="M318.77 435.73c0.89,-0.88 1.65,-1.88 2.59,-3.06 2.28,-2.81 0.99,-1.94 3.5,-3.69 4.51,4.25 3.64,6.37 4.71,10.46 1.03,3.96 1.29,2.48 1.79,5 0.78,3.98 -1.42,3.01 4.67,16.38 0.57,1.27 1.62,3.09 2.53,4.51 1.82,2.84 1.52,2.78 4.37,4.13l-3.18 -7.25c1.22,-0.63 0.43,-0.82 2.77,-0.51 -1.1,-5.66 -2.78,-22.55 -4.55,-25.85 -1.23,4.64 0.95,6.14 -1.13,9 -4.18,-3.25 -0.98,-15.57 -1.66,-20.84 -1.27,-9.86 -5.4,-8.23 -14.12,-10.85 -1.41,9.41 -2.11,12.41 -2.29,22.57z"/>
   <path class="fil32" d="M380.99 307.6c2.1,2.65 4.97,11.86 3.2,16.13 4.82,2.43 5.04,6.24 7.32,11.88 1.58,3.93 3.15,7.78 5.11,11.88 2.47,5.16 7.41,19.06 11.49,23.02 -1.65,-11.2 -23.94,-58.14 -23.05,-68.71 0.68,-0.49 4.46,-1.66 4.64,-1.74 3.96,-1.75 -2.41,-2.03 2.83,-1.71l-8.02 -25.34c-2.78,0.19 -0.26,-0.55 -2.09,1.17 -0.58,0.55 -0.66,1.13 -1.67,2.35 -2.3,-1.45 -2.64,-2.22 -4.96,-3.73 2.41,14.32 6.97,24.41 8.92,33.6 -2.07,1.57 3.12,2.57 -3.72,1.2z"/>
   <path class="fil17" d="M351.19 141.87c-1.01,5.57 -2.58,25.82 0.84,29.34 3.32,-4.43 5.91,-8.35 8.88,-12.37 1.39,-1.87 2.92,-4.36 4.64,-6.33 2.32,-2.66 3.18,-2.82 5.16,-6.79 -2.42,0.54 -1.22,0.63 -2.34,-0.01 0.34,-8.73 1.36,-11.75 3.4,-19.26 -3.3,1.67 -2.67,2.03 -5.35,3.94 -2.04,1.45 -3.44,2 -5.5,3.44 -2.47,1.72 -8.29,5.9 -9.73,8.04z"/>
   <path class="fil33" d="M39.62 417.16c-6.02,5.43 -5.82,21.57 -7.21,30.87l-4.43 22.61c-0.49,3.09 -0.35,3.69 -1.54,6.81 1.04,-1.04 0.3,-0.27 1.56,-1.72 4.03,-4.61 14.31,-23.99 15.27,-28.28 -1.83,-0.26 -1.74,1.58 -1.4,-2.7l3.31 -11.6c-2.8,-2.18 -1.35,2.78 -2.54,-0.81 -0.09,-0.28 -0.49,-0.09 -0.72,-0.19l2.46 -7.88c3.35,-8.37 0.38,-5.88 5.47,-18.47l-1.15 0.14c-0.9,2.6 -6.13,11.13 -7.43,13.06 -2.7,-0.39 -1.34,0.88 -1.65,-1.84z"/>
   <path class="fil34" d="M49.29 326.34c2.07,-1.47 0.54,1.67 2.14,-2.83 0.27,-0.77 0.54,-3.75 0.75,-4.92l0.42 -4.21c-0.22,-0.14 -0.55,-0.28 -0.69,-0.37l-1.33 -0.76c-3.58,-2.5 -3.1,-7.91 -2.55,-11.93 0.21,-1.53 0.2,-1.18 0.63,-2.48l0.74 -1.16c1.97,3.3 1.12,8.67 1.27,12.71 4,2.66 3.75,-0.59 4.63,5.28 5.99,2.31 8.24,0.56 8.86,-5.47l-21.6 -36.81c1.27,14.59 1.08,40.85 6.73,52.95z"/>
   <path class="fil35" d="M232.59 400.15c8.7,-3.05 17.86,-9 24.43,-15.86 4.89,-5.11 15.46,-16.84 16.97,-21.72 -2.72,3.51 -2.92,3.46 -7.28,5.47l-13.23 6.91c-5.14,2.35 -13.69,8.78 -21.47,11.1l0.58 14.1z"/>
   <path class="fil36" d="M110.84 188.14c3.61,-1.29 6.5,-2.03 5.3,-6.39 -0.82,-3 -1.38,-2.84 -2.45,-5.63 -0.81,-2.11 -1.24,-4.14 -1.85,-6.06 -1.4,-4.43 -2.52,-7.37 -3.85,-11.21l-12.63 -33.91c-0.78,-1.66 -1.97,-3.85 -2.72,-5.47 -2.8,-6.08 -3.55,-13.56 -8.81,-16.51 0.66,5.49 11.8,34.51 14.19,42.06 3.77,11.91 8.63,32.6 12.82,43.12z"/>
   <path class="fil30" d="M263.84 463.06l3.14 5.64c3.11,-3.2 0.48,-6.42 7.07,-10.78 2.71,5.27 8.1,11.61 8.76,19.16l-8.56 -10.49c-1.7,2.86 0.95,2.52 1.68,7.54 6.91,7.71 11.54,19.91 16.93,20.5 0.78,-6.6 -2.64,-7.25 -4.5,-13.09 -5.49,-17.21 -2,-21.31 -9.18,-26.68 -4.84,-3.62 -4.89,-6.5 -8.64,-8.26 -2.94,2.76 -6.21,11.49 -6.7,16.46z"/>
   <path class="fil37" d="M62.31 481.37c2.17,-2.32 2,-2.36 3.74,-5.62 5.65,-10.59 2.98,-5.06 7.51,-10.46 4.66,-5.56 16.25,-22.01 14.36,-30.85 -5.42,5.26 -5.67,8.39 -10.3,14.19 -0.46,-8.29 4.26,-12.27 7.02,-17.67l-5.19 0.94c-6.38,5.77 -7.45,13.23 -10.44,22.77 -2.46,7.84 -5.8,18.59 -6.7,26.7z"/>
   <path class="fil26" d="M459.98 332.21c-4.95,-3.67 -1.66,-0.91 -4.37,-6.02 -3.49,-0.34 -4.29,-0.35 -6.69,-0.23 -3.73,0.18 -4.5,1.93 -4.84,-1.79l-4.24 2.19c-0.72,13.66 10.57,26.56 13.42,33.34l6.72 -27.49z"/>
   <path class="fil29" d="M217.62 459.51l6.32 -0.65c1.9,-2.4 3.89,-5.39 4.24,-10.06 0.58,-7.54 -1.8,-1.65 -3.72,-9.26l-3.54 1.11 -5.22 0.52 4.24 4.22c4.81,9.22 -11.09,5.62 -8.86,-3.09 -6.97,0.53 -9.37,2.69 -12.4,-2.99l2.89 20.27c2.43,-0.65 11.74,-0.56 16.05,-0.07z"/>
   <path class="fil38" d="M465.38 328.27c3.97,1.44 0.98,0.38 4.22,3.92 2.12,-0.14 1.54,0.25 2.86,-0.66l1.35 -14.14 2.96 -0.69c0.15,-0.03 0.51,-0.12 0.63,-0.15 0.13,-0.02 0.45,-0.07 0.66,-0.17 -1.32,-5.5 -2.45,-4.5 -2.44,-10.85 2.39,0.57 2.29,0.83 4.03,1.96 2.59,-4.29 3.46,-10.48 6,-15.09 1.98,-3.42 3.88,-8.23 1.89,-11.59l-1.4 -0.36c-4.82,9.25 -8.34,14.98 -13.59,21.92 -2.36,3.11 -7.08,6.72 -7.24,9.86 -0.05,0.97 0.07,16.03 0.07,16.04z"/>
   <path class="fil39" d="M416.48 435.93c2.55,4.46 3.27,8.92 5.29,12.98 1.51,3.01 2.18,2.72 3.64,5.49 0.62,1.15 0.56,1.49 1.26,2.7 1.43,2.48 0.48,1.08 1.99,2.61l-5.31 -27.5c-4.52,-12.65 -0.57,-6.33 -1.42,-13.3 -0.21,-1.7 -2.43,-10.88 -3.06,-12.83l-18.78 -40.02c-1.36,-3.37 -1.22,-3.2 -3.24,-5.42l14 37.47c6.48,18.21 1.74,19.15 6.89,29.88 1.7,3.55 3.22,5.57 3.52,9.71 -2.14,-0.6 -3.27,-1.01 -4.78,-1.77z"/>
   <path class="fil40" d="M123.23 405.73c2.05,3.17 2.79,-2.32 4.4,-5.05 1.8,-3.07 3.43,-5.14 6.61,-6.39 3.06,4.57 1.26,5.95 3.11,12.85 3.06,11.37 -6.94,0.98 6.02,27.76 3.21,6.61 3.06,2.83 4.68,8.35l1.9 -0.78c-2.51,-11.94 -6.08,-10.3 -7.92,-10.94 0.85,-21.6 2.47,-13.37 0.12,-35.29 -0.5,-4.63 -0.86,-7.78 -2.92,-11.32 -4.79,1.56 -16.26,9.96 -16,20.81z"/>
   <path class="fil41" d="M371.93 187.43l0.03 11.93 4.17 2.01 14.06 -29.9c0.8,-3.5 -1.7,-8.19 -4.45,-10.71 -3.9,3.72 -12.88,21.8 -13.81,26.67z"/>
   <path class="fil33" d="M52.97 430.18c4.2,0.16 1.1,-0.84 3.62,0.97 -0.9,3.67 -3.8,7.34 -3.74,9.87 0.12,5.28 2.16,2.26 0.86,11.29 -0.84,5.75 -2.37,14.36 -0.2,19.79 0.91,2.27 -0.13,0.34 1.06,2.04 0.04,-5.72 5.06,-8.53 5.95,-14.3 0.46,-2.99 -0.03,-4.61 1.08,-8.43 2.83,-9.75 1.37,-6 0.33,-7.29l-2.4 1.78c0.25,-11.1 4.28,-22.09 3.12,-31.5 -2.03,1.87 -8.06,12 -9.68,15.78z"/>
   <path class="fil29" d="M207.37 424.03c2.89,2.79 3.28,1.9 3.85,6.41 -2.64,1.64 -5.17,2.51 -8.66,2.28 -8.31,-0.54 -1.92,-0.48 -7.79,-3.59 0.36,1.18 1.21,4.29 2.03,5.38 2.03,2.69 -0.99,0.86 3.85,1.12 5.58,0.29 5.56,1.23 10.1,0.15 8.68,-2.06 14.46,-2.34 19.63,-7.62 -0.88,-5.26 -1.98,-0.84 -2.16,-14.23 -2.12,0.48 -19.69,9.29 -20.85,10.1z"/>
   <path class="fil23" d="M220.92 440.65l3.54 -1.11c1.92,7.61 4.3,1.72 3.72,9.26 -0.35,4.67 -2.34,7.66 -4.24,10.06l-6.32 0.65c7.09,1.57 14.54,-2.3 19.32,-6.39 9.05,-7.72 -2.32,-11.38 1.09,-17.82 5.21,2.05 2.79,4.73 5.99,9.77 2.74,-0.49 1.61,0.12 3.1,-1.69l-1.86 -9.64c-1.45,-1.56 -0.7,-0.58 -1.96,-2.85 -0.94,-1.71 -0.66,-0.68 -1.1,-2.65 -2.77,1.98 -6.26,4.89 -10.09,7.01 -4.46,2.48 -7.2,2.2 -11.19,5.4z"/>
   <path class="fil42" d="M318.77 435.73c1.03,8.68 3.37,8.17 5.95,10.62 5.71,5.42 12.8,24.82 15.67,30.15 1.89,3.5 1.93,1.99 4.2,5.86 1.34,2.3 2.33,4.54 3.32,6.45l0.9 -7.24c-0.39,-2.35 -1.43,-4.04 -2.31,-6.22 -2.58,-6.43 -1.74,-11.83 -3.98,-13.65 -2.34,-0.31 -1.55,-0.12 -2.77,0.51l3.18 7.25c-2.85,-1.35 -2.55,-1.29 -4.37,-4.13 -0.91,-1.42 -1.96,-3.24 -2.53,-4.51 -6.09,-13.37 -3.89,-12.4 -4.67,-16.38 -0.5,-2.52 -0.76,-1.04 -1.79,-5 -1.07,-4.09 -0.2,-6.21 -4.71,-10.46 -2.51,1.75 -1.22,0.88 -3.5,3.69 -0.94,1.18 -1.7,2.18 -2.59,3.06z"/>
   <path class="fil43" d="M125.73 445.28c-0.21,-0.19 -0.47,-0.45 -0.6,-0.61l-1.07 -1.27c-2.84,-4.07 -7.15,-17.55 -7.72,-22.34 -1.53,-12.86 3.18,-26.1 2.76,-29.59 -5.83,2.07 -7.3,10.88 -9.75,17.76l-6.79 19.24 13.67 0.59c0.1,0.18 0.28,0.47 0.39,0.67 0.1,0.21 0.22,0.49 0.31,0.7l1.25 4.97c0.46,1.65 0.32,0.66 0.72,2.96 1.65,9.67 -0.2,4.6 6.83,6.92z"/>
   <path class="fil44" d="M249.79 422.94c3.99,-0.37 5.25,0.55 8.94,1.47 0.5,5.51 2.46,8.3 -0.01,11.78 1.55,-0.51 21.48,-11.78 18.66,-19.46 -0.56,-1.53 -1.09,-0.29 -1.93,-3.77 -0.34,-1.43 -0.25,-4.14 -0.28,-5.7 -3.25,1.31 -1.43,1.33 -6.75,4.38l-18.63 11.3z"/>
   <path class="fil45" d="M192.25 234.09c3.76,-0.34 8.28,-2.04 10.33,-0.14 5.29,5.62 -0.62,15.52 -4.09,18.23 -3.35,5.42 -4.12,-0.73 -4.9,5.31 5.9,3.75 8.99,-3.7 13.5,-4.64l5.67 11.85c1.64,4.57 -0.34,3 3.72,3.73 -0.59,-5.97 -3.54,-17.84 -5.48,-23.66 -3.94,-11.78 1.67,-17.31 -13.88,-16.4l-4.82 1.68 -0.05 4.04z"/>
   <path class="fil46" d="M165.72 395.26c19.08,-1.69 7.25,-0.22 15.57,-6.04 3.78,-2.64 3.73,-0.39 7.14,-1.7 4.66,-1.79 5.86,-3.23 6.35,-5.39 -1.98,-2.07 -1.91,-0.9 -3.46,-2.16l-2.19 -3.21c-13.07,-0.44 -9.12,0.93 -17.44,4.99 -4.49,2.18 -4.3,1.22 -6.08,6 -1.34,3.6 -1.51,4.45 0.11,7.51z"/>
   <path class="fil35" d="M194.19 414.84c3,-0.01 3.58,-0.86 6.01,-1.87 2.55,-1.07 4.05,-1.06 5.83,-1.83 3.14,-1.36 6.31,-5.86 7.99,-9.18 5.27,2.68 1.81,1.73 7.05,0.44 1.25,2.77 0.36,2.9 2.33,5.72 5.18,-2.44 6.13,-4.03 6.06,-7.29 -0.07,-2.98 -0.18,-9.98 -0.95,-13.13l-5.03 1.74c-11.38,4.82 -10.33,4.34 -14.01,10.14 -4.58,7.21 -9.02,9.74 -15.28,15.26z"/>
   <path class="fil47" d="M108.34 147.71c1.91,4.93 3.2,9.02 5.25,14.57 4.97,13.47 3.79,9.86 7.28,11.83 0.05,-6.07 -5.54,-23.19 -4.56,-26.36 4.32,1.02 0.91,0.31 4.29,3.62 1.72,1.69 3.42,2.3 5.17,2.67 1.53,-3.24 0.52,-11.45 -0.78,-15.31 -2.02,-0.9 -8.93,-1.33 -11.18,-0.15 -5.23,2.75 0.6,-0.03 -3.87,6.79 -1.89,2.88 -0.24,-1.84 -1.6,2.34z"/>
   <path class="fil48" d="M132.44 146.54l0.65 -2.45c1.4,0.5 3.35,0.82 4.55,1.32l12.63 5.2c3.82,1.37 3.09,0.28 5.45,6.57 3.75,10 3.67,5.37 2.1,7.33l9.06 6.91c0.84,-3.9 0.27,-3.18 -0.2,-7.05 -0.45,-3.71 -0.19,-7.31 -0.38,-11.02 -3.91,-1.53 -3.43,-2.66 -7.16,-4.6 -2.73,-1.42 -5.87,-2.51 -8.92,-4.04 -3.09,-1.55 -6.35,-2.09 -9.51,-3.45 -4.52,-1.94 -3.95,-1.82 -9.13,-3.17 -0.16,3.48 -0.44,6.05 0.86,8.45z"/>
   <path class="fil3" d="M352.03 171.21c-3.42,-3.52 -1.85,-23.77 -0.84,-29.34 -7.63,4.2 -9.35,10.19 -9.58,18.79 -0.26,9.44 -0.91,18.75 -0.74,28 1.74,-1.23 9.09,-13.24 11.16,-17.45z"/>
   <path class="fil43" d="M369.21 439.76c1.88,6.37 2.89,10.42 4.01,16.76 3.53,-0.57 12.28,-3.38 14.45,-5.65 -1.27,-2.18 -2.28,-3.51 -3.76,-5.9l-7.88 -14.14c-0.1,-0.21 -0.23,-0.46 -0.33,-0.67l-1.78 -4.44c-1.6,1.23 -0.27,0.15 -1.91,1.6 -3.82,3.38 -5.47,3.43 -2.8,12.44z"/>
   <path class="fil49" d="M286.22 392.68c3.9,0.14 6.02,1.5 6.18,6.55 0.16,4.92 -2.49,6.77 -5.46,9.12 -0.73,-0.36 -2.5,-1.12 -3.1,-1.48 0.37,5.38 0.52,8.16 4.89,5.5 3.15,-1.93 8.66,-9.33 10.83,-12.58 2.82,-4.23 2.48,-2.17 5.19,-5.23 -1.19,-5.38 -2.44,-6.14 -3.26,-12.89l-9.27 -0.58c-1.06,5.11 -4.35,7.37 -6,11.59z"/>
   <path class="fil50" d="M344.03 413.27c6.77,16.1 3.9,21.2 18.6,41.6l-2.13 -6.23c0.21,-0.27 0.5,-0.58 0.67,-0.78l2.47 -2.73c-0.87,-4.19 -2.13,-9.45 -3.27,-14.43l-4.45 -14.45c-0.82,3.5 -0.71,4.17 -2.48,6.5 -2.15,-1.03 -4.61,-9.14 -5.51,-11.84l-1.28 0.74c-0.2,0.12 -0.6,0.36 -0.78,0.47 -0.21,0.13 -0.73,0.8 -0.89,0.55 -0.18,-0.26 -0.64,0.4 -0.95,0.6z"/>
   <path class="fil26" d="M55.3 315.67c2.25,9.81 3.79,6.11 10.04,10.69 -1.11,1.73 0.2,0.4 -1.88,2.25l-3.08 3.87c-7.78,-1.06 -4.84,-8.38 -8.2,-13.89 -0.21,1.17 -0.48,4.15 -0.75,4.92 -1.6,4.5 -0.07,1.36 -2.14,2.83 1,6.32 4.37,14.46 6.17,19.85l12.86 -19.87c1.8,-4.18 0.97,-3.19 3.65,-6.95 -1.2,-1.56 -2.41,-2.73 -3.52,-4.11 -0.55,-0.69 -1.29,-1.81 -1.66,-2.28l-2.63 -2.78c-0.62,6.03 -2.87,7.78 -8.86,5.47z"/>
   <path class="fil28" d="M134.24 162.68c-3.92,8.26 -0.49,13.45 4.61,17.35 2.52,1.92 13.39,8.75 16.84,6.78 6,-3.43 -14.94,-23.34 -21.45,-24.13z"/>
   <path class="fil11" d="M185.51 126.56c-1.13,7.46 -7.81,18.8 -7.86,29.44 2.82,1.86 5.72,4.05 8.15,6.68 -1.29,5.66 -1.6,3.98 -1.66,11.1 4.97,-1.31 2.7,-0.08 4.44,-5.65 0.42,-1.34 1.79,-4.46 2.27,-5.67l0.35 -8.09 -8.69 -3.67c1.96,-3.69 9.18,-20.34 7.83,-25.81 -2.86,0.38 -2.93,0.59 -4.83,1.67z"/>
   <path class="fil29" d="M194.19 414.84c-2.69,1.67 -2.96,2.11 -4.97,4.18l7.89 5.95c5.77,-5.31 -0.93,-3.51 7.04,-4.48 5.16,-0.63 15.77,-8.5 19.25,-12.37 -1.97,-2.82 -1.08,-2.95 -2.33,-5.72 -5.24,1.29 -1.78,2.24 -7.05,-0.44 -1.68,3.32 -4.85,7.82 -7.99,9.18 -1.78,0.77 -3.28,0.76 -5.83,1.83 -2.43,1.01 -3.01,1.86 -6.01,1.87z"/>
   <path class="fil10" d="M277.89 132.84c3.57,0.77 7.67,1.38 6.98,-2.79 -0.4,-2.38 -3.13,-3.12 -4.9,-6.69 -7.16,0.79 -59.22,12.12 -62.57,17.86 26.25,-13.03 49.82,-5.91 60.49,-8.38z"/>
   <path class="fil51" d="M428.22 368.69c-1.26,-1.61 -0.16,-0.48 -1.72,-1.65 4.66,24.65 11.38,28.76 22.94,47.25 3.77,6.03 15.04,20.08 19.3,22.99 -0.54,-4.43 -3.11,-6.29 -5.32,-8.95l-16.96 -24.96c-3.58,-6.48 -6.45,-10.99 -9.79,-18.18l-8.45 -16.5z"/>
   <path class="fil52" d="M284.21 359.25c3.24,-2.09 5.18,-2.66 9.32,-2.82 -1.14,1.44 -2.21,3.99 -2.71,5.76 -1.21,4.25 0,1.16 0.76,5.98 0.18,-0.19 0.38,-0.48 0.48,-0.61l6.28 -9.85c1.8,-3.17 4.95,-7.11 5.59,-10.48 1.57,-8.24 0.22,-18.35 1.98,-26.96 -1.82,5.89 -3.3,8.65 -4.01,16.52l-4.83 1.55c-6.08,18.39 -8.29,11.74 -12.86,20.91z"/>
   <path class="fil53" d="M199.11 475.97c5.68,1.1 4.65,6.7 4.99,13.12 0.37,6.91 2.96,5.96 6.8,9.69l4.46 -12.35c1.78,-4.12 2.71,-4.87 1.52,-8.09l-1.62 -3.64 -1.18 4.46c-5.72,-0.58 -3.14,-2.05 -5.35,-5.78 -1.3,-2.17 -0.72,-1.66 -6.52,-2.97 -1.12,1.2 -0.56,0.77 -1.49,2.46 -0.37,0.67 -0.72,1.66 -1.61,3.1z"/>
   <path class="fil53" d="M325.71 377.29c-1.37,1.74 -9.37,18.81 -9.28,20.8 0.2,4.25 3.33,5.01 5.97,6.56 3.14,1.83 6.8,4.44 9.82,5.64l-6.51 -33z"/>
   <path class="fil54" d="M38.66 403.07l-8.69 11.79c-0.13,0.18 -0.3,0.42 -0.43,0.59 -2.45,3.11 -2.81,3.25 -4.92,1.31 -4.5,2.82 -6.97,8.95 -10.09,13.4 -2.5,3.57 -6.91,9.78 -5.05,14.51 2.31,-2.28 2.21,-2.89 4.01,-5.44 10.41,-14.72 15.6,-17.38 18.48,-21.43 3.07,-4.31 2.86,-1.41 5.89,-4.25 0.3,-0.28 7.44,-9.41 7.99,-12.76 -3.07,0.77 -3.71,0.91 -5.43,3.8 -2.26,0.14 -0.85,2.14 -1.76,-1.52z"/>
   <path class="fil30" d="M235.04 485.89l2 -0.21c2.97,-2.31 7.01,-5.81 11.97,-6.48 -0.07,3.02 0.51,6.22 0.45,8.67 -0.12,4.61 -1.5,4.04 -1.6,8.19l5.03 2.2c1.62,-6.99 1.12,-3.55 -0.63,-7.95 9.72,-4.2 4.23,-15.5 1.07,-22.2 -4.1,1.02 -2.66,1.2 -5.68,4.6l-10.04 9.01c-5.09,4.05 -2.57,4.17 -2.57,4.17z"/>
   <path class="fil55" d="M189.63 440.48c2.93,2.89 1.5,0.71 2.42,3.68l-12.06 -4.97c0.36,9.82 -2.36,21.98 10.67,20.72 5.27,-0.51 4.5,-3.31 3.6,-11.78 -1.14,-10.82 -1.92,-7.99 -4.63,-7.65z"/>
   <path class="fil26" d="M131.96 451.07l1.77 8.67c-5.73,2.55 -4.39,6.51 -6.24,10.39l-3.42 5.01 -0.81 -5.14c-1.91,4.21 -1.59,9.84 -0.86,14.74 2.88,-3.2 4.88,-5.98 7.41,-9.01 1.3,-1.54 2.7,-3.11 3.75,-4.38 1.56,-1.9 1.15,-2.2 3.31,-3.96 -2.28,-1.74 -3.3,-1.86 -5.26,-4.09 2.32,-1.5 6.68,-2.42 10.6,-2.32 -0.47,-3.08 -0.15,-4.82 -0.99,-7.82 -0.57,-2.03 -0.5,-1.97 -1.78,-4.18l-1.73 -2.54c-0.07,-0.37 -0.31,-0.43 -0.48,-0.64 -2.57,1.46 -4.15,1.23 -5.27,5.27z"/>
   <path class="fil56" d="M129.88 117.77c-4.5,0 -2.56,-0.01 -3.63,-1.08 -5.79,0.82 -12.32,9 -13.45,14.54 4.66,0.66 9.69,-1.73 14.18,-2.72 7.22,-1.58 9.36,1 15.76,1.83 -2.03,-9.08 -6.38,-7.62 -12.86,-12.57z"/>
   <path class="fil43" d="M259.95 500.88c6.24,1.96 4.95,2.02 10.71,-0.26 4.58,-1.82 6.35,-1.17 11.5,-1.61 -1.19,-1.41 -3.08,-3.55 -5.13,-4.97 -11.52,-7.96 -3.79,-12.75 -13.05,-14.08l-4.03 20.92z"/>
   <path class="fil57" d="M212.18 207.42c-2.93,-4.76 -3.63,-2.76 -7.52,-6.63 0.06,-1.55 2.01,-2.12 -0.56,-4.86 -3.13,5.12 2.61,4.5 -5.63,5.09l0.49 -6.4c-2.27,2.65 -1.47,-3.13 -1.64,3.93 -0.18,7.83 4.24,-2.39 1.86,11.98 -1.19,7.24 -1.86,9.66 2.92,13.78 1.73,-0.66 5.44,-3.79 6.71,-6.03 0.87,-1.53 1.11,-3.3 1.68,-5.26 0.84,-2.9 1.09,-2.12 1.69,-5.6z"/>
   <path class="fil52" d="M292.22 381.09l9.27 0.58c0.82,6.75 2.07,7.51 3.26,12.89 0.18,-0.23 0.33,-0.57 0.4,-0.78l0.64 -1.67c0.08,-0.32 0.13,-0.56 0.18,-0.91 0.1,-0.6 0.09,-2.26 0.1,-2.95 0.04,-2.24 -0.02,-3.14 0.18,-5.5 2.05,-24.43 -0.29,-6.59 -1.88,-19.95 -0.6,-5.01 0.5,-4.35 -1.2,-8.61 -1.02,2.32 -2.72,4.52 -3.39,6.75 -0.62,2.04 -0.71,12.22 -7.56,20.15z"/>
   <path class="fil26" d="M153.56 469.62c0.63,10.58 5.82,8.2 1.78,15.6 -3.03,5.57 0.83,0.63 -4.67,8.97 -2.01,-1.22 -2.02,1.95 -1.49,-2.22 -2.27,2.42 -1.44,0.88 -2.07,4.19 7.78,0.02 3.23,-2.9 12.41,-2.06 1.61,-6.85 8.01,-5.36 5.64,-14.86l-1.6 -3.73c-4.28,-9.25 -3.77,-2.68 -5.59,-10.03 -2.1,2.52 -2.94,2.26 -4.41,4.14z"/>
   <path class="fil58" d="M263.84 463.06c-0.32,4.49 0.04,4.33 2.15,8.95 1.43,3.11 2.92,4.76 4.76,7.26l13.28 11.87c-4.9,-7.32 -5.86,-6.78 -8.1,-17.01 -0.73,-5.02 -3.38,-4.68 -1.68,-7.54l8.56 10.49c-0.66,-7.55 -6.05,-13.89 -8.76,-19.16 -6.59,4.36 -3.96,7.58 -7.07,10.78l-3.14 -5.64z"/>
   <path class="fil57" d="M132.44 146.54c-1.02,3.85 -1.15,3.28 0.18,7.69 12.53,0.45 17.34,5.7 25.2,10.28 1.57,-1.96 1.65,2.67 -2.1,-7.33 -2.36,-6.29 -1.63,-5.2 -5.45,-6.57l-12.63 -5.2c-1.2,-0.5 -3.15,-0.82 -4.55,-1.32l-0.65 2.45z"/>
   <path class="fil26" d="M33.36 359.03c-1.29,2.29 -2.08,4.47 -5.2,3.51 -0.05,-0.01 -2.7,-1.58 -3.1,-1.81 -1.06,-0.58 -1.85,-0.91 -2.96,-1.35l1.76 9.66 6.52 1.23c-1.43,4.76 -6.26,4.78 0.06,10.87 4.17,-1.94 7.62,-8.1 10.02,-11.87 -1.13,-3.52 -4.5,-7.72 -7.1,-10.24z"/>
   <path class="fil59" d="M199.28 468.88c0.74,3.56 -0.81,5.58 -3.65,7.78 -3.68,2.85 -5.14,1.99 -9.43,1.12 -0.05,1.95 -0.28,4.48 -0.16,6.36 0.06,1.05 0.13,1.71 0.39,2.72 0.75,2.81 0.56,1.13 0.92,2.18 0.46,1.33 0.41,-0.12 0.58,2.03 0.14,1.88 -0.14,0.84 -0.25,2.31 -0.24,3.09 -1,1.72 0.45,4.58 3.32,-3.39 1.22,-2.06 2.11,-6.74 1.08,-5.63 8.51,-12.98 8.87,-15.25 0.89,-1.44 1.24,-2.43 1.61,-3.1 0.93,-1.69 0.37,-1.26 1.49,-2.46 5.8,1.31 5.22,0.8 6.52,2.97 2.21,3.73 -0.37,5.2 5.35,5.78l1.18 -4.46c-1.07,-3.38 -0.61,-1.81 -2.25,-3.53 -0.1,-0.1 -2.65,-2.44 -3.16,-2.86 -2.33,-1.88 -4.06,-2.7 -7.75,-2.81 -3.19,4.28 1.07,1.92 -2.82,3.38z"/>
   <path class="fil23" d="M284.21 359.25c-2.6,6.67 -9.28,4.92 -3.71,17.07l3.44 5.23c2.69,-4.93 5.45,-9.01 7.64,-13.38 -0.76,-4.82 -1.97,-1.73 -0.76,-5.98 0.5,-1.77 1.57,-4.32 2.71,-5.76 -4.14,0.16 -6.08,0.73 -9.32,2.82z"/>
   <path class="fil60" d="M245.26 433.74l1.86 9.64c2.36,-0.57 4.76,-1.66 7.06,-3.07 4.21,-2.59 1.79,-1.31 4.54,-4.12 2.47,-3.48 0.51,-6.27 0.01,-11.78 -3.69,-0.92 -4.95,-1.84 -8.94,-1.47l-0.85 1.24 1.88 4.98c-1.1,2.2 -1.9,4.17 -5.56,4.58z"/>
   <path class="fil61" d="M188.14 414.88c5.68,-3.93 17.88,-18.94 19.22,-19.91 -1.48,-4.57 -3.55,-6.64 -7.37,-9.11 -1.81,4.15 -3.51,9.92 -5.84,14.58 -1,2.01 -2.96,4.88 -3.67,6.28 -1.05,2.04 -1.91,5.32 -2.34,8.16z"/>
   <path class="fil34" d="M39.19 304.38c0.19,-9.95 -2.02,-18.69 -1.71,-28.95 0.29,-9.76 2.64,-10.19 -2.84,-20.16 -1.42,-2.57 -0.91,-3.41 -3.71,-4.46 0.9,1.8 2.74,42.79 8.26,53.57z"/>
   <path class="fil34" d="M149.18 491.97c-0.53,4.17 -0.52,1 1.49,2.22 5.5,-8.34 1.64,-3.4 4.67,-8.97 4.04,-7.4 -1.15,-5.02 -1.78,-15.6l-7.97 0.84c0.2,8.14 -1.88,14.96 -0.36,21.68 3,-3.8 4.69,-9.6 8.18,-12.62 1.77,3.75 -1.42,6.17 -4.23,12.45z"/>
   <path class="fil62" d="M215.63 465.14c1.48,1.68 2.95,2.37 4.22,3.27 7.87,5.57 3.99,5.41 12.4,1.75 7.51,-3.26 12.4,-3.02 11.26,-13.61 -4.22,0.05 -3.53,1 -5.92,3.08 -7.21,6.3 -13.55,5.55 -21.96,5.51z"/>
   <path class="fil34" d="M22.1 359.38c1.11,0.44 1.9,0.77 2.96,1.35 0.4,0.23 3.05,1.8 3.1,1.81 3.12,0.96 3.91,-1.22 5.2,-3.51 -0.8,-3.53 -4.85,-8.05 -6.96,-11.68 -1.27,-2.19 -6.5,-10.47 -7.73,-11.6 -0.33,4.92 2.17,18.14 3.43,23.63z"/>
   <path class="fil63" d="M151.71 341.62c5.41,2.95 4.31,4.97 10.48,7.61l-1.7 -4.89c3.73,-4.08 0.96,-0.63 2.55,-4.8l7.7 7.35c3.4,1.52 1.23,1.67 2.43,-0.57 -1.65,-2.77 -0.94,-1.28 -2.73,-3.21 -1.33,-1.43 -2.17,-2.37 -3.32,-3.69l-1.79 -2.25c-0.62,-0.88 -0.23,-0.57 -1.17,-1.82 -2.06,-2.72 -1.56,-2.1 -3.97,-3.13 -1.55,1.92 -1.58,1.94 -1.43,4.9l-0.59 4.39c-1.4,-2.84 -1.74,-2.36 -3.54,-5.68 -2.08,-3.85 -0.11,-2.33 -3.43,-4.35 -5.09,2.83 -0.3,5.56 0.51,10.14z"/>
   <path class="fil64" d="M383.02 422.58c2.01,2.55 2.94,9.27 9.13,18.2 3.3,4.76 10.73,11.44 16.27,11.84 -1.01,-5.07 -0.15,-2.83 -2.77,-5.47 -4.69,-4.71 -0.79,-2.95 -6.43,-7.51l-16.2 -17.06z"/>
   <path class="fil65" d="M167.15 437.13c-0.04,2.13 0.2,1.41 -0.54,2.49 -4.81,1.19 -6.19,-1.78 -9.96,-3.53 4.9,8.64 10.13,11.48 12.29,15.3 1.88,3.32 -0.45,2.79 4.22,3.94 2.96,-1.67 2.35,-2.04 2.39,-5.31 0.13,-11.57 -0.19,-7.24 -8.4,-12.89z"/>
   <path class="fil66" d="M149.34 410.97c3.36,-2.94 4.47,-11.23 5.6,-15.94 1.31,-5.44 -2.67,-12.47 -10.06,-11.92 0.36,5.97 2.29,10 3.12,14.12 0.56,2.78 0.19,10.23 1.34,13.74z"/>
   <path class="fil65" d="M156.85 419.03c1.79,4.23 2.6,2.43 3.93,6.57 0.01,-0.46 -0.12,-0.9 0.14,-1.61 0.99,-2.75 -0.37,-0.04 1.4,-2.11l4.17 7.93c1.24,1.3 -0.66,0.49 1.9,1.24 9.36,2.78 5.63,-13.62 -2.38,-18.01 -0.21,6.35 -4,3.52 -9.16,5.99z"/>
   <path class="fil43" d="M306.91 481.02c-1.8,-2.01 -1.98,-2.53 -3.52,-4.45 -2.6,-3.22 -5.51,-4.36 -8.1,-7.08 -0.56,6.7 2.21,14.43 3.11,20.91 4.6,-1.17 8.65,-2.86 12.4,-4.43l-3.89 -4.95z"/>
   <path class="fil67" d="M241.03 258.79c5.59,5.06 11.29,11.37 19.32,11.27 0.88,-4.44 1.79,-8.12 2.46,-12.71 -9.2,1.65 -10.39,3.44 -21.78,1.44z"/>
   <path class="fil0" d="M52.18 318.59c3.36,5.51 0.42,12.83 8.2,13.89l3.08 -3.87c2.08,-1.85 0.77,-0.52 1.88,-2.25 -6.25,-4.58 -7.79,-0.88 -10.04,-10.69 -0.88,-5.87 -0.63,-2.62 -4.63,-5.28 -0.15,-4.04 0.7,-9.41 -1.27,-12.71l-0.74 1.16c-0.43,1.3 -0.42,0.95 -0.63,2.48 -0.55,4.02 -1.03,9.43 2.55,11.93l1.33 0.76c0.14,0.09 0.47,0.23 0.69,0.37l-0.42 4.21z"/>
   <path class="fil38" d="M123.26 470l0.81 5.14 3.42 -5.01c1.85,-3.88 0.51,-7.84 6.24,-10.39l-1.77 -8.67c-1.55,1.33 -2.89,2.41 -5.57,4.1 -3.67,2.3 -1.94,1.54 -6.81,2.07 1.68,4.28 3.7,7.21 3.68,12.76z"/>
   <path class="fil34" d="M444.08 324.17c0.34,3.72 1.11,1.97 4.84,1.79 2.4,-0.12 3.2,-0.11 6.69,0.23 2.71,5.11 -0.58,2.35 4.37,6.02 1.32,-5.25 4.55,-26.19 -7.32,-13.79 -2.88,3.01 -5.06,4.56 -8.58,5.75z"/>
   <path class="fil43" d="M112.28 487.54c3.46,-4.24 1.8,-14.03 3.59,-19.15 -2.32,0.26 -5.81,3.63 -8.1,5.16 -3.44,2.29 -5.16,3.25 -5.54,8.42 13.11,4.73 3.73,2.14 10.05,5.57z"/>
   <path class="fil34" d="M294.21 452.11l-0.94 2c2.27,2.67 5.2,6.38 7.94,7.68 0.88,-2.15 -0.13,-2.49 1.85,-4.56l1.93 -1.31c-2,-1.77 -4.22,-2.59 -4.17,-6.6 3.32,1.96 2.17,3.07 6.46,5.11l-3.38 -15.12c-6.21,4.47 -4.02,9.2 -9.69,12.8z"/>
   <path class="fil68" d="M53.49 91.75c-0.35,5.15 -0.01,3.66 1.03,7.88 8.25,2.14 14.64,1.58 19.81,-2.79 -5.9,-0.74 -10.71,2 -15.64,-0.31 1.17,-3.61 2.94,-3.52 5.31,-6.07 4.81,-5.16 4.65,-2.16 8.62,-4.63 -2.46,-3.27 -5.15,-0.47 -9.04,1.2 -4.09,1.77 -6.89,2.36 -10.09,4.72z"/>
   <path class="fil69" d="M156.85 419.03c5.16,-2.47 8.95,0.36 9.16,-5.99 -2.16,-4.78 -1.84,-8.72 -6.76,-10 -4.96,-1.3 -1.59,-0.72 -3.16,0.42 -1.53,3.6 -1.48,12.73 0.76,15.57z"/>
   <path class="fil62" d="M256.69 459.38c2.46,-3.51 4.71,-3.23 5.8,-8.81 3.32,-17.09 1.44,-3.55 3.59,-11.42 -0.18,0.16 -0.42,0.41 -0.53,0.52l-16.62 13.44c1.72,3.41 3.75,5.22 7.76,6.27z"/>
   <path class="fil70" d="M165.65 452.73c-3.55,-4.2 -0.75,-2.76 -6.46,-3.61 0.4,6.95 1.77,7.5 5.07,9.88 5.41,3.89 4.57,8.85 11.43,8.68 1.75,-9.26 -6.03,-10.18 -10.04,-14.95z"/>
   <path class="fil71" d="M306.97 49.98c5.97,3 3.54,0.25 7.91,-1.74l3 3.58 8.89 -3.02c3.74,-2.27 1.46,-0.66 2.66,-2.89 -2.99,-2.13 -5.74,-1.92 -8.56,-0.26l-1.35 -4.98c-4.27,1.16 -11.21,5.12 -12.55,9.31z"/>
   <path class="fil39" d="M277.89 132.84c0.22,0.22 0.58,0.17 0.73,0.55l6.31 2.41c11.44,5.54 9.5,9.83 15.26,13.42 -1.43,-6.3 -8.15,-16.15 -12.33,-21.41 -2.47,-3.1 -2.54,-3.79 -7.89,-4.45 1.77,3.57 4.5,4.31 4.9,6.69 0.69,4.17 -3.41,3.56 -6.98,2.79z"/>
   <path class="fil56" d="M26.43 489.04l6.01 0c2.91,-4.35 4.41,-4.69 5.85,-13.11 0.74,-4.32 3.51,-10.63 5.99,-13.84l-0.06 -4.29c-2.12,2.88 -2.92,4.73 -4.83,8.3l-12.96 22.94z"/>
   <path class="fil55" d="M172.45 412.52c1.65,2.28 2.1,3.42 4.14,6.21 5.91,8.06 -1.82,14.36 14.4,18.34 -4.54,-12.72 -8.27,-17.49 -18.54,-24.55z"/>
   <path class="fil63" d="M469.6 332.19l0.32 3.57c5.52,0.6 5.92,-8.24 7.49,-12.56 1.28,-3.5 5.78,-3.39 2.24,-15.71 -1.74,-1.13 -1.64,-1.39 -4.03,-1.96 -0.01,6.35 1.12,5.35 2.44,10.85 -0.21,0.1 -0.53,0.15 -0.66,0.17 -0.12,0.03 -0.48,0.12 -0.63,0.15l-2.96 0.69 -1.35 14.14c-1.32,0.91 -0.74,0.52 -2.86,0.66z"/>
   <path class="fil53" d="M303.91 413.19c0.23,9.07 1.2,7.51 6.98,11.51 1.96,-3.92 4.27,-12.35 2.08,-16.5 -1.37,-1.34 -0.6,-0.43 -2.95,0.92l-6.11 4.07z"/>
   <path class="fil68" d="M402.71 171.87l4.8 -0.16c0.03,-5.65 -4.55,-11.07 -8.79,-12.96l-5.91 0.07c0.11,6.41 3.29,6.45 6.67,10.06 2.92,3.13 -0.79,1.22 3.23,2.99z"/>
   <path class="fil69" d="M283.84 406.87c0.6,0.36 2.37,1.12 3.1,1.48 2.97,-2.35 5.62,-4.2 5.46,-9.12 -0.16,-5.05 -2.28,-6.41 -6.18,-6.55 -6.03,6.59 -2.22,6.09 -2.38,14.19z"/>
   <path class="fil63" d="M215.36 290.36c14.57,15.8 9.58,16.36 14.1,21.58 3.01,3.47 5.62,2.73 8.05,1.44 -0.24,-0.15 -0.62,-0.63 -0.74,-0.42 -0.12,0.2 -0.55,-0.34 -0.71,-0.43 -9.1,-5.62 -6.91,-8.08 -8.59,-12.56 -1.82,-4.85 -8.55,-8.64 -10.1,-12.59 -3.92,-2.56 -4.79,-1.14 -2.01,2.98z"/>
   <path class="fil42" d="M237.04 485.68l0 1.33 0.99 0 1 0.13 1 0 1 0.84 3.34 0.77 -1.51 4.53 5 2.78c0.1,-4.15 1.48,-3.58 1.6,-8.19 0.06,-2.45 -0.52,-5.65 -0.45,-8.67 -4.96,0.67 -9,4.17 -11.97,6.48z"/>
   <path class="fil40" d="M186.2 477.78c4.29,0.87 5.75,1.73 9.43,-1.12 2.84,-2.2 4.39,-4.22 3.65,-7.78l-2.17 -2.46c-5.06,1.36 -4.02,0.98 -7.56,4.1 -2.93,2.57 -3.41,2.29 -3.35,7.26z"/>
   <path class="fil11" d="M203.1 140.43c2.69,-1.96 1.91,-1.64 3.99,-4.69 4.25,-6.2 10.51,-11.66 10.82,-15 -5.23,1.49 -14.54,11.01 -18.7,14.77l3.89 4.92z"/>
   <path class="fil43" d="M326 477.05c4.35,-0.97 5.47,-0.98 7.64,-3.2 -2.69,-6.16 -5.13,-11.05 -11.2,-14.22 -1.46,11.35 1.61,1.59 3.56,17.42z"/>
   <path class="fil68" d="M418.62 155.69c0.09,-3.91 -1.56,-4.77 -4.37,-7.52 -3.03,-2.96 -3.11,-3.32 -9.09,-3 -1.04,7.3 6.01,12.74 13.46,10.52z"/>
   <path class="fil69" d="M194.77 429.13c5.87,3.11 -0.52,3.05 7.79,3.59 3.49,0.23 6.02,-0.64 8.66,-2.28 -0.57,-4.51 -0.96,-3.62 -3.85,-6.41 -8.49,2.21 -7.13,4.23 -10.42,3.33 -1.45,-0.39 -0.18,-0.37 -3.18,-1.43l1 3.2z"/>
   <path class="fil69" d="M156.65 436.09c3.77,1.75 5.15,4.72 9.96,3.53 0.74,-1.08 0.5,-0.36 0.54,-2.49 -2.3,-3.42 -3.85,-3.34 -6.67,-6.26 -2.82,-2.94 -2.46,-4.67 -6.51,-5.71 -1.77,4.68 0.6,6.66 2.68,10.93z"/>
   <path class="fil11" d="M174.63 124.34c-0.96,5.17 -4.52,8.4 -2.44,15.54l5.06 -0.12c1.38,-7.88 -2.18,-6.11 1.8,-16.02l-0.65 -3.01c-2.95,1.58 -0.4,-0.02 -2.37,1.95l-1.4 1.66z"/>
   <path class="fil69" d="M238.28 404.75c1.33,2.38 2.89,3.54 2.97,6.02 0.31,9.45 0.11,5.66 2.42,7.97 2.56,-3.65 4.49,-10.5 2.73,-14.84 -2.78,-0.74 -2.06,-0.59 -5.37,-1.08l-2.75 1.93z"/>
   <path class="fil68" d="M428.62 135.41c0.2,-8.3 -5.49,-10.94 -12.7,-10.42 0.4,6.21 7.11,9.6 12.7,10.42z"/>
   <path class="fil56" d="M346.98 72.88c-0.31,-4.73 0.21,-5.03 -7.15,-11.22 0,0 -3.15,0.37 -2.01,5.18 0.93,3.92 1.67,4.5 3.14,6.8 3.44,0.08 1.96,-0.42 6.02,-0.76z"/>
   <path class="fil57" d="M390.69 153.62c6.01,-0.2 8.31,1.59 11.58,-0.92 -1.96,-6.89 -3.06,5.39 -2.84,-11.86 -3.29,3.95 -7.05,7.86 -8.74,12.78z"/>
   <path class="fil20" d="M280.05 446.88l5.89 8.08c2.78,-3.47 2.67,-10.93 2.67,-15.72l-1.84 -2 0.03 4.11c-2.34,1.52 -4.42,3.22 -6.75,5.53z"/>
   <path class="fil69" d="M211.08 442.3c-2.23,8.71 13.67,12.31 8.86,3.09l-4.24 -4.22c-3.12,1.31 -3.74,0.06 -4.62,1.13z"/>
   <path class="fil9" d="M332.12 112.4c3.76,-1.73 4.86,-1.14 9.71,-1.42 1.29,-3 1.72,-4.62 1.72,-7.93l-6.91 -1.92c0.93,9.23 -1.79,5.72 -4.52,11.27z"/>
   <path class="fil45" d="M174.82 248.51c2.93,4.94 11.63,5.96 9.94,0.51 -0.82,-2.66 -7.65,-8.84 -9.94,-0.51z"/>
   <path class="fil40" d="M280.05 446.88c2.33,-2.31 4.41,-4.01 6.75,-5.53l-0.03 -4.11 -0.62 -2.71c-2.45,2.18 -7.34,6.98 -9.06,9.6 1.17,1.24 1.74,1.81 2.96,2.75z"/>
   <path class="fil69" d="M242.2 428.24c0.44,1.97 0.16,0.94 1.1,2.65 1.26,2.27 0.51,1.29 1.96,2.85 3.66,-0.41 4.46,-2.38 5.56,-4.58l-1.88 -4.98c-2.93,1.27 -4.71,2.03 -6.74,4.06z"/>
   <path class="fil36" d="M402.17 137.19c3.91,-3.88 5.18,-0.56 9.3,1.15 3.17,-4.44 0.13,-2.11 -0.71,-11.62l-8.59 10.47z"/>
   <path class="fil64" d="M285.81 48.89c5.6,0.09 10.42,-3.15 7.96,-8.77 -4.19,1.66 -7.26,4.33 -7.96,8.77z"/>
   <path class="fil45" d="M210.22 339.1l-1.46 5.75 3.93 0.2 3.38 -8.67c-1.45,-1.87 0.59,-0.59 -2.17,-0.72 -1.58,1.4 -2.09,1.63 -3.68,3.44z"/>
   <path class="fil9" d="M322.44 71.86c1.3,0.8 0.18,0.9 2.47,1.06 2.33,0.17 4.77,-1.29 6.63,-2.21l-2.3 -4.86c-2.84,3.24 -4.92,2.97 -6.8,6.01z"/>
   <path class="fil9" d="M337.07 60.08c2.34,-5.44 -0.19,-6.38 -3.08,-8.68 0,0 -1.67,0.64 -0.67,4.74 0.79,3.21 1.1,2.77 3.75,3.94z"/>
   <path class="fil72" d="M197.11 494.37c2.94,-1.94 4.17,-6.3 1,-8.93 -4.57,9.25 -2.84,7.64 -1,8.93z"/>
   <path class="fil63" d="M467.47 348.56c1.71,-0.61 3.4,-0.21 3,-4.09 -0.21,-2.09 -1.12,-3 -2.81,-3.79 -1.98,3.07 -1.49,4.78 -0.19,7.88z"/>
   <path class="fil73" d="M193.43 345.68l-1.58 -0.76 -3.63 9.79c4.27,-1.33 5.72,-4.27 5.21,-9.03z"/>
   <path class="fil72" d="M231.05 481.84c2.78,-1.77 3.17,-1.49 3.81,-6.03l-6.22 1.25c0.47,2.63 1.18,3.41 2.41,4.78z"/>
   <path class="fil39" d="M296.31 50.66c3.42,-0.1 6.41,-1.76 4.6,-5.22 -0.57,-0.03 -3.15,-2.03 -4.56,3.83l-0.04 1.39z"/>
   <path class="fil9" d="M347.82 57.34c1.35,-2.81 1.06,-2.96 0.33,-5.54 -2.41,0.42 -2.87,-0.59 -3.45,2.23 -0.75,3.67 0.72,2.73 3.12,3.31z"/>
  </g>
 </g>
</svg>
