<?xml version="1.0" encoding="UTF-8"?>
<!DOCTYPE svg PUBLIC "-//W3C//DTD SVG 1.1//EN" "http://www.w3.org/Graphics/SVG/1.1/DTD/svg11.dtd">
<!-- Creator: CorelDRAW 2020 (64-Bit) -->
<svg xmlns="http://www.w3.org/2000/svg" xml:space="preserve" width="491px" height="512px" version="1.1" style="shape-rendering:geometricPrecision; text-rendering:geometricPrecision; image-rendering:optimizeQuality; fill-rule:evenodd; clip-rule:evenodd"
viewBox="0 0 491 512.16"
 xmlns:xlink="http://www.w3.org/1999/xlink"
 xmlns:xodm="http://www.corel.com/coreldraw/odm/2003">
 <defs>
  <style type="text/css">
   <![CDATA[
    .fil0 {fill:#010101}
    .fil39 {fill:#020203}
    .fil17 {fill:#030404}
    .fil62 {fill:#050506}
    .fil26 {fill:#0C6CD1}
    .fil48 {fill:#118CFE}
    .fil10 {fill:#1590FB}
    .fil16 {fill:#21445E}
    .fil53 {fill:#234963}
    .fil21 {fill:#2C5974}
    .fil23 {fill:#3B7CA6}
    .fil40 {fill:#587226}
    .fil9 {fill:#5AC1FF}
    .fil19 {fill:#617E27}
    .fil52 {fill:#638228}
    .fil36 {fill:#645680}
    .fil49 {fill:#655682}
    .fil6 {fill:#695985}
    .fil15 {fill:#6D5C8A}
    .fil24 {fill:#6D8836}
    .fil4 {fill:#725F90}
    .fil30 {fill:#735D84}
    .fil41 {fill:#758B54}
    .fil46 {fill:#798596}
    .fil27 {fill:#7F90AC}
    .fil14 {fill:#869B67}
    .fil7 {fill:#886F9E}
    .fil50 {fill:#8895A9}
    .fil61 {fill:#896F9F}
    .fil60 {fill:#8A71A0}
    .fil47 {fill:#8BA266}
    .fil45 {fill:#8CA26C}
    .fil56 {fill:#90A3BB}
    .fil32 {fill:#9378AA}
    .fil55 {fill:#94B587}
    .fil28 {fill:#957DBD}
    .fil5 {fill:#9BABCC}
    .fil22 {fill:#9BEAFE}
    .fil51 {fill:#A29AB2}
    .fil34 {fill:#A3BC85}
    .fil25 {fill:#A689C9}
    .fil12 {fill:#A7ABC8}
    .fil54 {fill:#A7B4CA}
    .fil44 {fill:#ADBACE}
    .fil11 {fill:#ADBBD1}
    .fil18 {fill:#AE89C1}
    .fil37 {fill:#AF8FCA}
    .fil59 {fill:#AFD4A7}
    .fil3 {fill:#B1BDD3}
    .fil29 {fill:#B4C3DB}
    .fil38 {fill:#B5D590}
    .fil43 {fill:#C8EA9C}
    .fil63 {fill:#C9A3E7}
    .fil2 {fill:#CBDEFA}
    .fil57 {fill:#CBEEA1}
    .fil35 {fill:#CDA5EA}
    .fil33 {fill:#CEE1FD}
    .fil1 {fill:#D0E2FD}
    .fil42 {fill:#D2ED8E}
    .fil31 {fill:#D3DF65}
    .fil20 {fill:#D4E6FE}
    .fil8 {fill:#D4FDD4}
    .fil58 {fill:#E3EA5E}
    .fil13 {fill:#E7EBFC}
    .fil64 {fill:#EAF263}
   ]]>
  </style>
 </defs>
 <g id="Layer_x0020_1">
  <metadata id="CorelCorpID_0Corel-Layer"/>
  <g id="_1759002005872">
   <path class="fil0" d="M193.34 487.42c6.41,-2.14 11.53,-5.65 18.09,-9.07l-9.46 12.94c-0.93,1.02 -0.76,0.77 -1.69,1.59 -2.96,-1.37 -5.04,-2.6 -6.94,-5.46zm34.92 -13.03c8.54,-6.5 32.49,-14.81 38.12,-13.02 2.27,0.72 5.96,3.42 8.76,4.63 13.55,5.86 9.17,5.03 27.77,11.71 -1.96,2.13 2.51,2.34 -5.56,3.2 -1.64,0.17 -6.15,-0.6 -14.03,0.53 -13.3,1.9 -11.49,-0.41 -17.8,4.9 -0.18,0.15 -0.64,0.8 -0.78,0.58 -0.14,-0.22 -0.52,0.46 -0.83,0.6l-18.98 -6.66c-12.12,-6.06 -14.42,-5.41 -16.67,-6.47zm-126.41 -1.76c2.65,-3.46 2.74,-2.47 6.57,-4.07 2.87,-1.2 3.25,-1.86 5.63,-3.1 4.06,-3.21 2.85,-1.91 6.18,-5.55l13.33 1.12c1.28,1.71 9,13.54 9.6,15.56 -11.14,0.49 -4.33,1.25 -11.52,1.48 -2.35,2.05 -4.79,1.92 -7.37,3.35 -4.2,2.3 -2.64,3.9 -3.64,7.27 -3.2,1.33 -6.52,2.64 -10.76,3.03 2.52,-5.69 9.06,-7.78 9.87,-13.24l-6.61 0.11c-4.73,1.28 -32.16,-0.73 -44.6,-0.22 1.71,-3.49 4.88,-4.9 9.18,-7.65 18.73,-11.99 16.14,-12.85 36.49,-10.63 -1.38,2.58 -2.43,2.33 -5.16,3.9 -4.1,2.35 -14.65,7.98 -15.81,10.19 2.6,0.85 4.21,-1.22 8.62,-1.55zm169.79 -13.59c7.23,-0.92 14.3,-2.18 22.07,-2.59 11.21,-0.58 10.52,-0.8 17.76,5.08l31.33 17.67c0.17,-0.24 0.58,0.39 0.84,0.62 -10.56,1.09 -22.13,0.6 -33.54,0.4l-1.3 -1.36c-4.82,-4.73 -26.34,-12.76 -37.16,-19.82zm-232.28 24.31c2.9,-2.56 1.35,-2.14 4.42,-5.53 0.51,-0.56 0.51,-0.44 1.53,-1.54 3.76,-4.02 2.78,-4.59 5,-8.38 2.87,-4.89 6.89,-2.35 13.27,-6.13l2.82 -2.83c0.09,-0.42 0.28,-0.54 0.45,-0.29l21.03 -0.15c-1.9,2.61 -8.39,6.51 -11.02,8.25 -12.69,8.41 -12.9,10.8 -23.66,13.22 -4.91,1.1 -9.54,2.83 -13.84,3.38zm-17.19 -29.06c0.68,-3.59 1.9,-4.36 6.25,-4.42 7.43,-0.1 3.51,-0.06 9.06,-2.07 5.21,-1.89 38.2,-4.44 41.87,-2.52 4.21,2.19 11.23,6.59 14.15,9.68 -12.73,-1.56 -25.21,0.52 -37.82,1.23 -13.82,0.77 -30.68,-2.47 -33.51,-1.9zm256.3 -11.92c3.69,-1.68 1.73,-2.13 5.1,-6.02 8.29,-9.58 11.79,-3.41 21.15,-9.07 1.69,10.45 -0.44,10.34 10.85,12.57 16.28,3.22 41.85,7.66 50.89,17.91 -0.9,0.72 0.51,0.08 -1.96,1.06 -4.19,1.66 -1.63,-0.33 -5.38,1.54 -2.84,9.44 10.01,15.03 14.68,20.13l-21.62 -0.19c-2.64,-4.52 1.41,-1.86 -4.43,-3.94 -6.68,-2.38 -8.48,-1.68 -16.71,-6.68 -7.82,-4.76 -13.22,-8.55 -17.85,-12.65 8.81,0.42 14.33,2.73 22.6,3.99 9.65,1.46 11.58,5.02 17.93,6.46 -1.18,-2.32 -15.33,-9.67 -16.92,-10 -16.6,-4.83 -40.59,-6.62 -58.14,-3.8 -7.97,1.28 -12.27,3.43 -16.34,-1.05 6.07,-4.35 7.31,-6.9 16.15,-10.26zm-161.04 4.6l8.27 8.83 -26.01 -0.68c-2.66,-2.85 0.43,-0.84 -2.96,-3.57 -1.93,-1.56 -1.8,-0.58 -4.1,-3.27 -3.56,-1.03 -5.9,-2.37 -9.06,-4.89 3.34,-5.02 8.38,-0.28 2.19,-13.88 -1.91,-4.21 -5.24,-9.22 -6.43,-13.87 3.15,1.45 1.89,1.48 4.99,4.11 1.33,1.13 3.75,2.86 5.25,3.98l14.97 11.7c6.43,7.71 6.55,2.17 10.23,6.18 1.78,1.94 2.04,3.3 2.66,5.36zm154.7 -10.01c1.06,-5.63 6.95,-9.47 13.32,-16.12 5.92,-6.17 21.06,-11.4 26.3,-10.76 1.62,0.2 1.46,0.52 2.33,0.39 2.9,-0.44 -0.5,-1.34 6.47,-2.74 8.84,-1.77 24.4,-1.69 30.86,0.76 -0.73,0.6 -0.3,1.51 -5.43,2.07 -10.05,1.08 -19.12,1.38 -29.29,4.52 -6.9,2.12 -3.49,1.8 -8.38,4.97 -2.97,1.93 -5.1,0.2 -10.52,1.5 -3.55,0.86 -6.09,2 -10.34,3.07 -12.6,3.19 -6.24,7.1 -15.32,12.34zm-0.77 -25.37c16.75,-9.63 40.77,-13.53 62.83,-8.53 -2.61,2 -4.58,1.67 -4.59,1.67 -3.85,0.56 -14.44,0.43 -21.18,1.94 -11.41,2.54 -26.45,6.5 -34.87,11.99l-2.19 -7.07zm-5.16 -28.75l0.93 -5.14c0.8,-11.01 1.66,-8.28 3.48,-9.95 4.85,13.17 9.63,2.99 10.52,19.77l0.65 7.66 -0.05 4.08 -11.66 5.31c-2.96,-5.37 -4.46,-15.2 -3.87,-21.73zm20.54 14.08c-0.75,-2.97 -1.72,-9.32 -1.32,-13.09 0.54,-5.13 0.42,-1.83 2.37,-4.81 3.49,-5.33 -3.39,-2.39 5.67,-12.81l3.27 -3.88c3.03,-2.8 0.75,-1.64 4.13,-1.78 2.26,4.24 -2.49,6.69 -5.21,16.89 -0.57,2.16 -0.61,3.01 -1.2,4.99 -0.69,2.29 -1,2.56 -1.46,4.82 -0.67,3.32 -0.31,6.71 -0.91,9.34 -0.87,0.21 -1.73,0.48 -2.63,0.56 -3.22,0.28 -2.34,-0.16 -2.71,-0.23zm-132.52 -28.71c-2.54,-10.93 4.14,-16.88 5.24,-18.67l8.78 8.66 -14.02 10.01zm17.44 -16.1c-3.36,-2.22 -6.15,-7.13 -7.19,-11.59 -1.16,-4.99 -0.42,-4.17 0.76,-7.85 1.84,-5.74 -0.81,-3.72 3.23,-7.02 3.17,2.65 1.69,1.71 2.66,6.18 2.24,10.28 4.26,9.32 0.54,20.28zm5.13 -72.06c10.51,15.34 2.28,3.72 3.54,17.13 2.04,21.54 -2.53,9.06 -1.49,21.99 0.34,4.29 1.06,6.42 1.55,10.84 -1.64,-1.44 -2.18,-1.47 -3.83,-5.98 -0.7,-1.9 -1.17,-3.8 -1.41,-5.38 -1.12,-7.43 -1.92,-5.6 -0.28,-13.32 1.58,-7.39 -1.77,-20.16 -0.59,-28.42 1.93,1.85 1.08,1.06 2.51,3.14zm214.37 -71.1c-11.91,-2.51 -16.11,-0.72 -28.59,-7.51 14.69,-2.38 25.84,0.89 30.63,0.83 4.66,-0.06 5,-1.31 10.47,0.01l-0.85 9.22 -11.66 -2.55zm26.67 5.46c2.28,-9.5 1.77,-3.47 -2.94,-16.49 -2.51,-6.95 -5.78,-4.65 -10.46,-15.64 10.62,2.1 11.01,2.78 15.08,12.06 2.83,6.44 4.91,12.99 6.98,20.5l-8.66 -0.43zm-114.86 -18.67c-0.44,-5.68 9.66,-27.62 13.93,-33.98 1.54,-2.27 1.8,-3.51 3.53,-5.66 7.49,-9.34 5.96,-10.34 13.54,-8.25 -3.67,6.06 -26.21,43.4 -31,47.89zm-162.85 -42.02c1.55,2.02 1,1.72 2.25,3.76 1.54,2.53 1.07,0.61 2.08,3.44l-1.33 3.79c-0.04,-0.14 -0.2,0.5 -0.32,0.74 -6.52,-2.08 -17.82,-8.55 -20.76,-14.87 -3.46,-3.14 -2.74,-4.88 -5.44,-8.41 -2.69,-3.52 -5.55,-3.12 -7.88,-7.13 13.92,0.82 23.93,8.38 31.4,18.68zm297.23 -1.46c-9.68,-3.92 -27.9,3.49 -40.11,2.62 -2.19,-2.85 -1.21,-8.95 -12.06,-4 -13.62,6.21 -11.75,1.67 -27.74,13.46 -2.42,1.78 -4.1,3.04 -5.73,4.54 -1.47,1.35 -1.15,1.16 -2.49,2.64l-6.61 7.74c-7.81,7.82 -15.96,19.87 -22.02,29.38 -3.18,5.01 -4.84,7.7 -7.08,12.4 -1.68,-2.73 0.88,-5.97 3.61,-10.83 1.06,-1.9 2.14,-3.34 3.13,-5.03 4.3,-7.38 24.1,-38.54 29.57,-41.14 3.44,-1.64 16.24,-7.55 16.8,-12.14 -1.48,0.02 -2.42,0.79 -2.47,0.8 -5.15,1.39 0.89,-4.05 -7.03,0.96 -4.19,2.65 -4.27,4.23 -11.21,5.63 -2.06,1.2 -0.78,-0.03 -1.49,1.97 -1.27,3.53 0.57,-1.26 -0.24,1.92 -0.7,2.74 0.14,1.6 -2.41,3.33l-34.75 53.12c-1.58,-0.46 -1.95,-0.52 -4.44,-0.81 -2.21,-1.66 -5.03,-1.46 -5.24,-1.99 -0.14,-0.32 -0.56,-0.13 -0.8,-0.27 1.25,-2.7 0.94,-3.3 1.96,-5.45l29.9 -47.03c2.85,-4.52 8.92,-12.79 10.31,-17.76 4.86,0.55 8.96,0.85 13.56,-1.49 20.83,-10.58 24.49,-1.86 36.34,-1.41 4.04,0.15 10.42,-1.73 14.12,-2.57 1.74,-0.4 5.04,-1.39 5.66,-1.29 2.35,0.35 -0.53,1.27 5.33,1.95 4.08,0.47 11.57,-0.19 15.53,-0.61 6.98,-0.72 9.44,0.7 9.87,-6.19 -5.39,-1.11 -11.89,1.8 -25.36,0.53 -2.51,-3.26 -0.61,-2.49 -4.11,-4.51 -5.9,1.79 1.32,1.99 -6.77,4.01 -2.91,0.73 -7.04,1.63 -9.85,2.05 0.19,-0.21 0.47,-0.46 0.62,-0.58 3.59,-2.84 23.39,-11.37 26.94,-12.32 4.11,-1.11 6.84,-1.3 10.26,-2.5l4.05 10.05c0.1,0.03 0.46,0.14 0.59,0.16l2.68 0.36c11.15,2.22 15.99,23.24 14.42,27.13 -3.33,3.95 -6.57,5.02 -9.12,10.3 -4.04,8.39 -0.32,8.28 0.14,15.42 -3.93,0.26 -6.92,-0.66 -10.05,-2.43 -3.44,-1.95 -5.12,-2.94 -8.36,-3.86 -8.09,-2.3 -8.66,1.66 -17.08,1.53 -1.31,-5.52 3.18,-6.77 -6.79,-7.82 -13.19,-1.38 -18.37,6.45 -26.57,6.45 -9.06,0 -4.49,-3.4 -12.54,1.02l4.33 6c-8.19,1.7 -9.17,1.42 -17.69,1.92 0.99,-3.74 1.49,-2.92 3.27,-5.85 3.6,-5.9 3.47,-3.84 9.21,-9.5 3.68,-3.62 11.94,-9.52 16.8,-10.96 3.67,-1.08 8.17,-5.08 12.03,-3.27 2.55,1.2 2.6,2.64 5.47,3.15 4.69,0.82 36.46,-2.57 39.51,-3.3 11.26,-2.72 8.04,1.72 13.53,-1.88 -1.03,-3.39 -0.82,-3.23 -4.54,-3.61 -1.4,-0.14 -4.5,-0.26 -6.79,-0.14zm-404.42 -35.25c1.07,-2.78 0.65,-1.68 2.42,-3.76 4.3,4.06 2.21,7.57 11.95,8.94 13.49,1.91 21.7,2.73 35.56,0.31 7.92,-1.39 8.08,0.77 16.35,1.21 -1.76,9.3 -2.5,9.55 3.45,13.93 3.45,2.55 9.27,7.01 10.97,9.55 4.28,6.39 2.48,7.57 8.76,12.81 7.02,5.86 10.2,5.65 12.2,7.35 8.46,0.46 12.63,1.77 15.19,7.31l4.7 9.27c4.38,13.11 5.45,10.24 8.04,18.29 5.65,17.59 4.98,3.48 5.78,15.37l-3.88 0.98c-1.3,0.16 -2.24,-0.03 -3.15,-0.03 -2.13,-5.22 -1.42,-9.3 -3,-13.55l-9.49 -21.05c-2.4,-4.01 -3.95,-2.93 -6.66,-5.79 -1.02,-1.08 -0.61,-0.72 -1.35,-2.08 -3.7,-0.75 -19.17,-13.63 -23.18,-17.33 -35.62,-32.75 -67.83,-24.99 -84.61,-36.38l-1.03 -1.25 -2.05 0c0.33,-3.98 -0.64,-3.1 3.03,-4.1zm257.86 -37.27c9.32,3.14 18.3,0.3 27.39,1.51 10.29,1.37 9.78,6.4 22.6,2.7 7.55,-2.19 17.2,0.36 22.95,3.06 6.48,3.03 9.06,1.44 14.98,11.59 6.61,0.01 9.93,0 15.37,2.17 2.54,1.02 10.73,2.67 12.47,4.66 -3.95,-1.25 -4.59,-1.17 -8.52,-0.15 -10.01,2.58 -0.94,3.87 -13.09,6.74 -35.47,8.37 -27.67,0.75 -37.98,-3.94l-1.94 2.09c0.01,4.95 1.87,5.32 0.4,9.22 -6.52,1.56 -11.89,1.1 -16.91,-1.13 -3.98,-0.62 -13.87,-5.02 -9.17,2.08 6.04,0.95 8.78,5.18 13.46,5.56 9.27,0.73 15.43,-5.18 20.04,-5.14 9.55,0.07 21.42,-1.17 30.12,-4.85 6.37,-2.7 15.96,-2.92 22.43,-4.17 9.79,-1.87 1.57,-7.97 17.79,0.97 3.94,2.17 2.13,-0.08 4.49,3.27 -0.1,0.05 -5.05,1.07 -6.94,1.77l-21.95 8.93c-3.94,1.52 -22.3,14.05 -32.29,5.44 -8.95,1.52 -10.83,4.84 -19.08,6.65 -15.9,3.48 -18.93,-1.43 -20.69,-1.85 -1.12,0.75 -0.85,0.66 -1.58,1.77 -1.12,1.11 -0.38,0.58 -2.08,1.78 -0.34,0.24 -1.09,0.5 -1.64,0.72 -9.63,8.29 -21.49,31.98 -24.82,44.22l-8.93 31.05 -6.78 1.28c-3.1,2.51 -5.25,1.34 -8.57,2.08 -3.33,0.74 -4.12,1.74 -4.06,4.95l3.23 3.66c1.75,-3.01 2.34,-2.88 6.42,-4.02 2.71,-0.76 7.14,-1.1 10.66,-1.01 7.18,0.74 0.57,0.32 5.02,-1.78 4.42,-2.08 9.82,0.23 13.88,2.7 2.39,1.46 5.48,4.45 7.22,6.12l5.39 6.27c1.71,-2.48 2,-2.96 5.41,-3.94 1.54,1.38 1.84,1.85 3.19,2.92 -1.3,3.63 -2.74,4.03 -5.02,6.95 -1.17,11.53 3.38,8.49 -21.39,18.36 -4.36,1.74 -6.56,1.58 -10.44,2.97 -6.07,2.18 -4.18,4.1 -8.28,4.33 -3.08,0.17 -0.47,-1.14 -5.61,0.13l-26.37 7.03c-13.86,4.25 -8.54,5.18 -13.69,8.94 -0.32,2.61 -4.54,9.15 -6.38,11.62 -3.71,5.03 -4.27,6.07 -3.76,12.55 -3.59,1.9 -5.38,3.07 -7.52,6.73 7.62,-0.25 8.36,-3.01 12.51,-6.56 -0.05,-6.25 -3.53,-1.37 -0.36,-7.71 3.04,-6.09 10.47,-15.69 17.57,-16.21 4.08,-4.27 9.36,-3.19 11.44,-3.07 5.05,0.3 1.85,-1.15 6.66,-1.28l9.81 1.78c-2.23,5.98 -0.33,10.95 -4.69,17.77 -1.37,6.98 -13.51,8.25 -18.55,10.94 -6.79,3.63 -11.79,9.24 -17.9,12.24 -3.22,5.81 -6.01,2.82 -5.6,10.42l2.88 -0.86 1.69 -1.71c3.44,-3.36 10.35,-10.79 14.2,-11.27 3.11,-4.11 5.46,-3.77 9.69,-6.97 4.14,-3.12 4.72,-4.35 10.39,-6.11l-0.85 5.2c11.79,-0.81 6.55,6.26 2.89,10.56 -5.29,9.9 -8.31,10.46 -11,25.59 -5.65,31.71 1.63,58.83 0.28,66.04 -2.24,11.99 6.84,23.29 -3.6,26.89l-3.56 -0.05c-2.7,2.13 -7.63,0.9 -11.76,1.31 -7.43,7.51 -13.18,13.35 -21.82,19.34l-12.19 8.52c-8.04,4.91 -9.33,6.51 -14.45,6.31 0.82,-2.53 25.56,-27.98 29.84,-33.15 1.5,-1.81 1.84,-2.39 3.11,-4.08 2.65,-3.55 3.58,-2.64 6.73,-6.61 7.98,-10.09 -2.06,-8.48 3.52,-20.14 1.38,-6.83 4.13,-24.81 -0.9,-28.98 -3.67,3.07 -1.63,13.2 -1.87,18.88 -1.11,25.9 -2.31,17.59 -7.92,23.04 -2.18,2.13 -2.06,2.87 -4.38,4.83l0.12 -7.27c-3,0.87 -2.42,0.01 -4.08,7.11 -1.76,6.59 2.42,6 -0.6,11.95 -1.76,3.45 -0.79,1.09 -3.48,3.83 -3.64,3.71 -3.29,7.56 -13.14,10.36 -7.19,2.04 -4.69,0.86 -7.63,6.78 -4.38,8.84 -5.81,11.16 -15.51,14.17 -5.63,1.75 -6.22,3.29 -14.39,8.29 -2.74,1.68 -1.24,1.25 -3.91,2.99 -3.17,-7.59 -6.4,-8.28 -3.75,-15.78 -5.78,0.16 -3.83,1.49 -6.82,-3.51 -3.66,-6.12 -7.21,-11.24 -9.62,-18.55 3.06,-2 -0.46,0.93 1.66,-3.07 -2.72,-4.67 -2.37,-21.71 -3.22,-28.64 -0.32,-2.58 -1.06,-3.42 0.46,-5.76 0.11,-0.17 3.75,-3.55 4.26,-4.06 2.97,-2.99 5.06,-5.9 7.36,-8.79 -8.86,1.18 -4.11,2.04 -10.02,5.61 -0.16,-0.26 -0.29,-0.64 -0.36,-0.84l-0.4 -4.02c-3.95,-0.44 -3.21,-0.55 -4.76,-1.74 -0.09,-10.77 3.98,-9.11 7.98,-15.4 -1.27,-5.73 -1.53,-3.66 -3.16,-7.18 2.69,-6.77 3.81,-11.28 8.47,-13.76l-3.73 15.81 7.25 3.84c2.86,-2.16 1.06,-0.95 2.98,-3.81 7.83,-11.65 6.31,-7.17 9.17,-5.31 1.98,-3.62 0.77,-2.04 3.34,-2.68 2.62,-1.96 1.93,-0.27 4.1,-4.24 2.7,-4.93 9.22,-8.18 12.14,-6.28 -3.27,5.09 -9.48,11.61 -10.21,19.11 2.75,-1.66 0.95,-0.32 3.07,-2.72 0.97,-1.1 0.83,-1.14 1.63,-2.29 2.18,-4.24 2.46,-5 5.36,-8.12 6.95,-7.49 4.17,-6.97 13.61,-6.25 14.65,1.11 14.56,5.79 20.5,-1.18 4.43,1.93 0.67,1.55 3.7,1.5 4.82,-0.09 -2.38,-1.61 4.4,-0.75 3.43,3.35 0.06,2.64 4.94,4.06 15.44,4.5 4.03,-4.41 10.36,12.21 1.31,3.44 2.68,6.27 2.89,10.05l5.21 5.57c-0.47,-7.84 0.72,-6.58 -1.37,-14.41 -4.79,-17.9 -0.96,-11.53 -12.47,-20.28 -2.16,-1.64 -0.89,-1.77 -3.52,-1.65 -9.68,0.42 -4.09,-1.75 1.29,-7.13 1.81,-1.81 2.11,-2.95 3.7,-4.49 3.5,-3.41 1.93,-2.15 4.94,-2.23 4.53,-5.19 4.45,2.34 7.31,-5.26l-7.77 0.49 -2.58 1.63c-6.6,2.42 -6.54,7.03 -11.92,9.57 0.12,-5.5 2.16,-3.06 -0.12,-7.79 -4.14,-0.32 -8.24,4.64 -11,8.09 -3.84,4.79 -3.59,7.92 -9.58,8.47 -0.11,-4.64 5.41,-15.92 7.9,-22.88 -1.44,-1.79 3.06,-1.95 -3.49,-1.09 -0.24,1.81 -4.48,9.89 -5.65,12.91 -2.23,5.75 -1.43,11.12 -7.31,10.49 1.07,-4.15 1.73,-10.32 2.69,-14.27 0.92,-3.75 3.53,-7.91 1.24,-10.76 -3.62,1.97 -1.17,-0.39 -3,3.26l-3.88 12.57c-0.24,-3.74 0.1,-5.32 -1.55,-8.06 -4.99,1.02 -3.44,4.62 -3.89,9.76 -1.48,16.84 -8.06,-3.51 -7.68,-6.13 0.44,-3.07 4.2,-6.53 5,-10.06 1.02,-4.47 -0.7,-10.79 0.01,-15.04 1.04,-6.24 1.24,-0.31 2.13,-6.02 0.22,-1.41 -1.08,-19.2 0.18,-26.54 -0.4,-10.89 -19.74,-19.85 -23.94,-23.4 -4.6,-3.88 -8.56,-8.09 -12.25,-11.37 -6.97,-6.2 -7.16,-5.05 -8.78,-15.8 -0.23,-7.12 4.86,-1.37 13.99,-10.27 -2.73,-9.95 -10.45,-25.73 -19.49,-32.52 -8.61,-6.46 -5.08,-4.89 -17.08,-8.76 -16.98,-5.46 -21.52,-7.48 -40.16,-11.89l-12.48 -3.96c-7.44,-2.7 -9.22,-4.15 -15.06,-7.62 -14.11,-8.37 -9.82,-14.97 -13.04,-24.24 14.33,4.59 38.3,6.09 49.66,14.38 8.65,6.31 22.27,14.51 30.8,22.6 5.68,5.4 3.3,-0.23 5.94,4.68l-16.44 -9.63c-9.15,-6.79 -47.19,-20.55 -59.83,-18.66 2.17,9.76 42.36,10.35 73.55,31.53 17.72,12.04 6.88,1.51 15.07,6.49 9.9,6.03 19.88,23.81 20.02,37.33 8.9,-0.11 7.36,0.81 15.4,-0.72 5.63,-1.07 11.97,-0.71 14.56,3.24l8.48 -0.6c-1.1,-11.95 -17.91,-7.79 -26.22,-5.1 -1.35,-2.79 1.49,-3.54 1.12,-12.97 -0.74,-1.07 -6.56,-15.96 -7.49,-18.24 -1.99,-4.85 -1.26,-7.08 -2.52,-10.86 -0.98,-2.93 -3.01,-4.11 -4.15,-7.85l-0.45 -2.06c-3.59,-18.08 -16.63,-30.31 -32.7,-36.95 -6.28,-2.6 -12.02,-1.8 -18.82,0.34 1.19,-4.86 1.56,-6.66 0.24,-10.94 7.73,0.36 26.28,8.13 32.88,10.7 0.95,0.38 1.53,0.53 2.28,0.81 0.23,0.09 0.51,0.18 0.75,0.28l1.42 0.6c0.57,0.27 2.54,1.39 3.28,1.77 2.91,1.48 4.17,1.47 6.35,4 1.38,1.6 2.15,3.62 4.3,5.95 3.35,3.6 2.24,1.42 6.02,3.94l0.33 8.34c7.47,3.54 7.23,3.5 12.29,21.34 4.95,17.43 0.1,16.2 5.85,27.41 5.36,-0.04 0.35,-0.09 4.98,-1.05 15.31,-3.16 5.22,-3.24 12.42,-3.98 -1.05,-4 -2.42,-1.16 -2.81,-7.85 -0.62,-10.68 2.62,-18.48 1.83,-29.58 -0.62,-8.69 -2.42,-33.78 0.14,-40.29 -2.03,-3.59 0.29,-0.1 -3.5,-2.93 4.46,-3.58 5.46,1.14 5.8,-7.23 -9.58,-3.63 -13.59,-1.69 -23.56,-1.1 2.2,-2.53 3.92,-5.6 7.18,-9.26l-1.95 -3.88c-5.63,-2.13 -1.92,1.35 -3.86,-4.82 -0.71,-2.28 -1.02,-3.68 -1.68,-5.8 9.4,0.54 7.9,0.85 15.48,-1.85 3.93,-2.98 7.65,-1.18 6.82,-6.66 -4.13,0.11 -4.26,1.87 -9.82,2.44 -12.18,1.24 -21.21,-5.11 -32.01,-6.08 -0.8,9.82 3.65,5.32 11.18,9.11 5.86,2.96 1.99,-0.96 4.17,4.19 -7.31,-0.34 -22.43,-8.49 -25.45,-11.07l7.24 -7.71c8.09,0.29 9.73,-0.18 17.77,0.96 8.19,1.15 13.85,-2.44 33.55,-0.38 3.33,0.34 29.3,-1.05 36.62,0.13l48.76 8.52zm-146.82 1.48c9.23,5.2 15.26,8.07 26.69,12.2 3,20.91 -3.98,16.41 1.9,27.62 2.43,-0.17 4.74,-0.31 7.24,-0.16 3.58,0.22 3.93,0.01 6.46,1.26 4.36,3.8 4.99,52.35 4.71,62.61 -0.36,13 1.38,15.93 -5.84,16.66 0.63,-5.21 -7.02,-31.81 -9.48,-39.45l-1.63 -6.02c-0.83,-1.88 -1.54,-1.65 -2.15,-2.17 -4.05,-3.45 -1.92,-3.14 -3.68,-11.11 -7.47,-4.03 -2.37,2.35 -7.68,-6.44 -4.24,-7.01 -2.75,-1.65 -2.87,-10.18 -0.13,-9.46 -16.11,-18.7 -19.57,-21.71 -4.52,-3.96 -1.37,-5.27 -5.66,-8.78 -3.78,-3.09 -14.87,-7.08 -20.46,-6.97l11.91 8.42c5.19,3.97 4.38,9.21 8.29,12.19 2.75,2.1 19.45,11.48 20.33,20.13 -6.4,3.61 -14.57,-3.24 -26.98,-7.25 -9.43,-3.05 -18.87,-5.44 -28.06,-8.06 -10.13,-2.9 -18.54,3.92 -29.53,4.33 -9.69,0.37 -23.74,-3.77 -25.47,-10.57 4.61,-5.74 3.63,-2.44 11.09,-1.71 2.64,0.25 10.21,1.28 11.93,0.68 -1.63,-2.37 -3.1,-4.18 -3.22,-7.6l-3.16 -2.19c-2.92,3.42 -1.23,4.19 0.84,7.78l-10.99 -2.74c1.1,-0.45 3.14,-2.5 4.36,-3.63 2,-1.84 2.33,-2.59 3.99,-4.24 11.74,-11.72 33.55,-12.85 48.52,-15 2.37,-0.34 4.26,-0.62 6.85,-1.45 11.71,-3.72 9.7,0.45 21.41,-3.22 4.87,-1.53 7.89,-2.63 14.35,-3.36 -2.17,3.43 -4.38,3.95 -6.77,5.55 0.76,2.77 0.97,2.73 2.33,4.58zm-46.9 -9.44c-3.52,2 -8.19,2.24 -12.46,3.45 -4.99,1.42 -7.09,2.77 -11.55,3.77 -10.83,2.42 -9.68,0.58 -21.13,10.79l-17.06 14.76c-4.55,3.46 -9.84,7.26 -10.51,13.5 -0.26,2.47 0.44,3.36 -0.77,5.45 -1.06,-1.38 -13.23,-8.21 -5.65,-24.6 3.58,-7.76 7.56,-12.28 15.99,-15.94 6.42,-2.78 2.47,-2.98 8.14,-8.21 4.07,-3.76 4.11,-4.34 8.85,-6.59 8.2,-3.89 12.73,-6.67 22.41,-9.44 12.62,-3.61 16.64,-2.43 29.46,-3.3 9.23,-0.64 18.08,-3.67 27.7,-4.48 18.92,-1.6 38.48,0.81 55.67,-2.4 10.29,0.66 9.46,-0.97 22.85,1.23 6.88,1.13 12.58,1.89 21.05,2.03 6.98,0.12 25.22,3.19 31.81,2.91 4.87,-0.2 6.48,-1.21 11.25,-1.65 16.41,-1.51 13.7,0.45 21.76,2.26 7.55,1.71 13.38,1.26 20.23,2.23 7.01,0.99 12.39,3.17 19.84,4.9 17.87,4.15 4.57,0.62 18.28,6.09 1.02,0.29 13.54,5.64 14.52,6.36 5.6,0.32 5.98,1.6 11.11,2.1 3.89,0.38 6.64,-0.02 10.67,0.7 6.62,1.18 24.68,14.06 49.97,20.3 11.53,3.27 22.93,13.63 28.81,20.9 14.61,18.04 3.13,19.63 0.32,23.14 -2.1,2.6 -0.16,3.37 -4.12,7.96 -1.84,-1.59 -0.42,-0.05 -1.8,-1.94 -1.02,-1.39 -0.4,-0.51 -1.19,-2.06 -2.91,-5.74 -1.87,-5.38 -7.34,-10.9l-13.65 -11.07c-5.92,-4 -0.98,-8.15 -11.69,-12.9l-15.26 -9.82c-7.71,-1.01 -19.88,-6.26 -28.3,-8.31 -2.29,-0.56 -20.98,-11.17 -22.69,-13.44 -3.54,0.05 -9.07,-1.69 -14.32,-1.94 -15.35,-0.72 -13,1.53 -29.55,-2.86 -5.85,-1.56 -23.87,-2.83 -30.22,-3.07 -9.04,-0.34 -33.64,-4.02 -38.68,-9.54 -7.21,-0.09 -12.49,-1.29 -19.58,0.35 -14.13,3.27 -54.07,-0.55 -79.21,1.01 -6.12,0.38 -12.19,1.98 -18.45,2.29 -27.45,1.38 -20.31,3.78 -35.51,5.98zm191.72 -37.94c5.71,-2.42 17.66,1.31 22.89,3.51 8.12,3.43 14.07,14.53 2.08,11.06l-10.35 -0.43c-1.35,-0.07 -19.34,-3.39 -20.16,-3.72l-10.73 0.07c-12.66,2.31 -18.4,1.61 -29.15,-0.34 -12.11,0.88 -44.56,-4.47 -51.1,-3.99 -3.06,0.23 -10.55,1.65 -15.87,1.41 -15.53,0.9 -25.83,2.81 -42.84,1.47 -4.38,-0.35 -37.03,3.76 -39.76,4.92 1.11,-1.64 16.65,-4.76 20.88,-6.17 8.11,-2.68 12.49,-4.2 22.85,-3.44 20.86,1.52 40.75,-2.31 59.94,-6.94 4.31,-1.04 6.52,-2.03 10.83,-2.9 8.14,-1.65 11.77,-4.73 18.54,-7.97 11.16,-5.33 31.98,-8.33 45.29,-5.75 11.23,0.13 10.73,-2.54 19.6,-3.22 6.54,-0.51 14.77,-0.13 21.48,-0.12 10.49,0 27.53,9.83 28.71,12.49 5.62,2.28 8.89,6.22 14.08,9.41 3.38,2.08 3.03,2.22 6.41,4.83 3.49,2.7 3.57,1.36 4.99,5.93 5.41,3.59 21.24,20.57 34.72,28.31 8.1,4.64 14.82,10.16 22.51,13.95 -1.35,1.07 2.33,1.03 -2.46,0.63l-18.71 -8.87c-5.52,-3.1 -13.45,-8.3 -20.65,-10.14 -6.25,-1.59 -6.8,0.6 -13.34,-2.94 -3.12,-1.69 -6.85,-3.41 -10.63,-4.77 -6.59,-2.37 -13.45,-4.19 -18.71,-9.07 -2.42,-2.24 -0.12,-0.09 -1.59,-1.68 -5.85,-3.03 -7.16,-3.69 -11.34,-7.97 -5.23,-5.36 -4.48,-5.5 -10.27,-8.71 -9.6,-0.98 -15.45,-5.34 -27.38,-3.02 -3.81,0.43 -6.49,1.76 -7.59,5.23 3.88,2.34 6.82,-1.05 6.83,-1.06zm-115.75 -3.72c1.39,-4.19 -0.24,-1.42 2.12,-4.01 4.92,-5.4 16.18,-6.38 24.05,-4.42 -2.86,2.05 -8.66,3.12 -12.31,4.83 -4.32,2.03 -8.12,4.11 -13.86,3.6zm36.47 -12.67c-2.27,0 -3.71,-4.11 -19.5,-4.11 -18.37,0 -21.5,16.42 -25.66,16.42 -14.32,0 -18.95,-1.46 -26.73,-1.75l-8.66 0.95c-6.5,0.77 -8.5,-0.64 -23.2,2.2 -0.27,0.05 -0.93,0.19 -1.18,0.26l-3.98 1.23c-1.48,0.43 -0.91,0.05 -2.46,0.72 -4.34,1.86 -2.24,2.4 -6.61,2.9 -2.41,0.27 -3.47,0.72 -5.43,1.43l-3.72 1.43c-0.24,0.09 -0.51,0.2 -0.74,0.3 -0.3,0.12 -1.18,0.45 -1.48,0.57 -6.63,2.71 -12.91,6.96 -18.87,10.9 -2.15,1.42 -2.12,1.65 -4.26,2.92 -10.93,6.5 -8.53,-0.15 -25.59,18.54 -3.96,4.33 -14.65,6.63 -20.22,9.55 -2.2,1.15 -3.43,1.64 -5.02,3.19 -13.26,13 -1.53,24.24 1.1,28.85 1.04,1.82 1.3,3.47 1.86,5.32 0.68,2.21 0.43,1.46 1.07,3.04 0.14,0.34 0.95,2.16 1.27,2.83 3.38,7.3 9.83,9.58 13.64,16.13 2.38,4.09 2.15,6.43 4.04,10.33 4.53,9.37 16.32,15.76 25.23,19.93 6.97,3.25 10.38,9.66 16.84,12.92 14.88,7.48 33.55,8.79 48.87,15.82l8.46 3.82c9,4.45 11.6,4.03 16.5,13.27 1.01,1.92 1.9,3.57 2.85,5.36l-6.63 2.61c-1.66,0.86 -1.59,0.86 -3.34,1.79l-1.35 0.7c-1.43,0.75 1.1,-0.07 -2.02,1.06 0,20.79 4.8,19.17 15.58,30.61 0.2,0.22 0.75,0.87 0.96,1.09l4.78 4.45c7.18,7.5 9.47,17.99 9.47,28.51 0,4.9 -9.66,4.61 -4.92,16.19 2.06,5.04 2.45,2.25 0.8,9.4 -2.1,9.12 -12.09,27.19 -18.43,34.04 -2.08,2.24 -1.86,3.69 -4.14,7.08 -3.18,-0.74 -2.97,-1.31 -6.15,-2.05 -7.07,10.55 -10.29,2.42 -12.33,21.55 -0.45,4.25 -0.36,10.59 -1.9,14.6 -1.04,2.69 -1.87,2.07 -1.42,5.41l0.25 6.68c0,3.47 1.66,1.55 2.75,5.46 1.73,6.17 2.38,16.47 2.38,23.28 -9.14,-6.13 -8.92,-17.7 -27.89,-26.51l-18.09 -9.62c-6.88,-6.16 -6.28,-11.22 -10.47,-17.24 -1.75,21 -0.64,4.99 1.04,21.54 1.18,11.58 5.48,19.82 10.25,29.78 -8.06,3.86 -27.71,2.25 -40.84,6.38 -5.2,1.64 -8.55,0.56 -14.31,3.11 -5.1,2.26 -13,6.85 -17.72,7.95 1.6,6 11.85,9.65 17.12,11.62 0.24,0.09 0.5,0.2 0.74,0.29 0.23,0.09 0.49,0.21 0.73,0.29 3.06,1.13 -1.1,0 3.1,1.01 6.62,1.59 12.68,1.63 18.34,1.16 -2.08,7.8 -19.09,15.52 -20.53,32.85 5.02,-0.42 9.77,-3.44 14.37,-5.14 6.15,-2.28 8.59,-2.28 16.29,-3.21 3.49,-0.42 4.35,-1.52 7,-2.25 3.51,-0.96 3.51,0.29 8.56,0.36 3.78,0.05 5.33,-0.39 7.22,-0.48 6.16,-0.32 10.66,0.58 16.44,1.35 3.35,0.44 8.67,0.13 12.23,0.13 -2.34,4.41 -3.98,3.42 -4.11,9.24 5.92,1.25 18.78,-2.46 25.21,-4.56 4.3,-1.41 6.95,-2.85 10.44,-4.96l5.46 -4.8c1.5,-1.47 2.18,-1.04 3.03,-3.13 0.14,0.21 0.3,0.32 0.36,0.66 0.56,3.24 13.77,10.07 14.01,20.89 0.88,-0.07 2.57,-0.2 3.27,-0.24 4.51,-0.3 10.63,-5.03 14.99,-7.15 3.11,-1.51 2.81,-2.49 7.4,-2.87 0.97,1.83 1.25,2.88 2.24,4.94 0.84,1.77 1.36,2.44 2.55,4.63 1.88,3.44 3.31,6.2 3.42,10.96 2.48,-0.67 6.49,-6.43 10.52,-11.03l8.96 -10.55c2.64,-2.78 6.14,-5.22 7.2,-9.22 8.86,4.26 18.76,4.58 24.64,13.35 5.71,-2.74 6.98,-0.84 13.47,0.9 3.75,1.01 8.09,1.03 14,2.42 13.83,3.23 22.37,11.69 26.92,4.89 -2.67,-3.99 -8.7,-4.96 -12.67,-7.85l-3.75 -5.49 41.91 -0.29c1.92,0.02 4.96,0.29 7.31,0.31 5.63,0.04 11.63,0.85 17.23,0.1l26.21 -0.4c3.75,-0.15 2.71,-0.75 6.9,-0.75 3.07,0 1.6,1.48 5.73,1.4 2.93,-0.05 4.76,-0.52 6.58,-1.4 -0.6,-7.29 -7.18,-10.56 -11.68,-15l-6.79 -6.55c4.96,-3.33 11.47,-1.03 18.47,-1.03l0 -4.11c-9.7,-2.26 -19.58,-10.21 -27.69,-15.41l-10.97 -5.56c-7.89,-3.66 -17.6,-5.31 -25.71,-6.15 -5.02,-0.53 0.15,0.34 -4.26,-1.66l-12.45 -3.03c2.95,-6.14 6.51,-7.68 15.99,-9.38l8.75 -1.26c6.28,-0.81 12.28,-0.16 17.74,-1.21 10.04,-1.94 49.96,-7.67 52.97,-18.94 -4.83,-4.04 -8.14,5.1 -30.47,5.4l-10.93 -1.87c-4.75,-0.31 -0.89,0.57 -5.81,0.57 0,0 -3.53,-2.41 -6.18,-3.05 -8.85,-2.14 -22.15,-2.64 -25.41,-3.36l-13.69 -3c-12.54,1.61 -6.43,-0.54 -15.27,-2.91l1.83 -9.37c0.28,-1.67 0.25,-2.99 0.5,-4.71 1.61,-11.08 7.17,-24.39 11.26,-35.07 1.92,-5.02 2.29,-2.48 -0.25,-6.27l-5.05 4.19c-0.14,0.16 -0.34,0.38 -0.49,0.54 -0.2,0.22 -0.75,0.87 -0.96,1.09 -4.14,4.36 -9.76,4.14 -16.98,12.78l-11.42 14.24c-2.72,-1.82 -3.54,-2.76 -5.56,-5.72 -1.79,-2.63 -3.27,-4.45 -4.52,-6.78 -4.46,-8.37 -2.37,-12.33 2.28,-24.04l4.99 -8.34c3.81,-4.78 7.43,-8.05 8.97,-14.64l-3.88 -4.34 12.41 -21c5.52,-16.5 -4.57,-5.16 18.85,-16.06 10.39,-4.83 12.44,-7.73 16.89,-16.97 1.96,-4.06 3.74,-7.35 4.66,-12.01l0.49 -2.25c0.12,-0.69 0.61,0.32 0.14,-2.62 -0.62,-3.82 -1.32,-3.99 -4.4,-4.81l7.6 -5.75c9.7,-5.61 39.92,-3.71 49.94,-1.42 3.04,0.7 1.42,0.5 4.52,0.7l1.4 0.05c17.16,0.98 1.8,-3.78 24.06,-0.02 3.28,0.55 7.2,1.25 9.98,1.31 5.38,-8.03 6.1,-5.39 3.1,-16.43 -1.58,-5.78 -5.01,-12.37 -5.15,-18.47 13.19,3.07 11.77,2.95 22.58,2.05l-0.62 -7.45c0.37,-3.98 0.65,-6.84 3.04,-10.65 2.91,-4.65 6.81,-6.77 11.91,-8.63 18.37,-6.68 2.79,3.46 20.16,-13.7l2.48 -2.66c7.17,-9.57 4.61,-22.44 -1.39,-32.51 -3.48,-5.83 -7.95,-11.18 -13.48,-15.26l-19.15 -11.64c-1.52,-0.77 -2.63,-1.35 -4.09,-2.07 -6.54,-3.19 -14.1,-5.24 -20.65,-9.12 -5.57,-3.3 -7.33,-1.68 -13.27,-6.22l-44.52 -37.6c-4.48,-4 -13.31,-14.37 -16.54,-16.3l-26.59 -13.44c-16.24,-3.18 -15.53,-3.65 -34.32,-3.65 -4.77,0 -7.09,0.34 -11.18,1.14 -18.01,3.54 -19.82,1.1 -35.2,2.78 -18.31,2 -32.22,13.53 -36.76,13.53z"/>
   <path class="fil1" d="M182.02 98.76l1.95 3.88c-3.26,3.66 -4.98,6.73 -7.18,9.26 9.97,-0.59 13.98,-2.53 23.56,1.1 -0.34,8.37 -1.34,3.65 -5.8,7.23 3.79,2.83 1.47,-0.66 3.5,2.93 -2.56,6.51 -0.76,31.6 -0.14,40.29 0.79,11.1 -2.45,18.9 -1.83,29.58 0.39,6.69 1.76,3.85 2.81,7.85 4.31,1.25 1.39,0.3 3.86,1.92 0.05,0.04 2.76,2.08 2.95,2.23 3.36,2.83 2.38,3.75 4.79,5.69 2.3,-1 2,-1.23 4.15,-3.35 7.55,-7.44 2.6,-6.94 10.18,-16.34 -0.21,-0.14 -0.59,-0.54 -0.69,-0.34 -0.11,0.21 -0.55,-0.26 -0.7,-0.34 -0.91,-0.45 -1.17,-0.53 -2.1,-1.03 -1.26,-0.68 -1.81,-1.13 -3.07,-1.98 1.18,-5.1 7.94,-18.21 11.78,-21.17 0.82,1.3 0.52,-0.42 0.7,2.21 0.1,1.51 0.13,0.79 -0.17,2.34l-5.47 14.96c5.58,0.92 1.32,-0.16 6.79,-0.89l0.19 2.8 0.88 10.95c0.43,4.01 -0.59,1.53 1.54,3.88 2.67,-6.32 6.13,-7.24 10.67,-10.72 2.57,-1.97 6.79,-5.85 11.05,-4.53 5.43,1.69 2.48,4.83 9.99,9.68 5.72,3.7 7.86,2.12 9.36,9.03 2.48,-4.32 2.87,-13.33 5.63,-19.12 2.74,-5.74 4.41,-11.18 8.12,-16.56 1.76,-2.55 3.25,-4.95 5.24,-7.12 1.35,-1.47 1.69,-1.51 2.85,-3.44 3.46,-5.71 10.33,-14.54 13.73,-14.42 -4.12,-0.77 -7.12,0.94 -11.9,1.5l0.59 0.18c-5.29,12.29 2.62,1.39 -7.24,12.12 -1.36,1.47 -7.61,12.2 -12.08,15.65 -13.78,10.61 -7.1,12.74 -14.45,14.09 -0.14,-2.73 0.03,-4.97 0.39,-7.42 0.68,-4.66 1.31,-4.91 2.74,-6.51 1.54,-1.83 2.86,-4.85 4.76,-7.76 1.76,-2.69 2.83,-6 3.39,-9.68 -2.28,-9.77 2.13,-12.15 7.29,-15.47 1.75,-1.13 0.41,-0.15 1.79,-1.32 0.17,-0.14 0.36,-0.38 0.52,-0.52 3.25,-2.85 4.9,-4.04 10.46,-4.29 3.76,-3 3.76,-0.23 7.4,-4.17 -2.35,-4.42 -5.05,-9.02 -12.75,-10.73 -5.47,-1.21 -7.4,-0.25 -15.7,3.4 -5.46,2.4 -3.5,9.8 -6.86,17.86 -1.39,3.34 -1.79,4.13 -2.74,7.55 -0.56,2.03 -0.6,2.2 -1.15,3.7 -0.2,0.56 -0.82,2.1 -0.88,2.26 -0.73,2.1 -0.15,0.04 -0.79,2.52 -1.05,4.06 -0.66,4.2 -2.28,7.97 -6.81,15.77 -4.35,15.32 -12.31,21.02 -0.23,0.17 -0.59,0.4 -0.84,0.65l-1.57 -1.16c-3.26,1.31 -2.38,1.78 -5.11,1.89 -1.23,-7.47 0.17,-13.59 1.68,-20.13l9.72 -44.55c0.99,-4.3 2.08,-4.93 2.91,-9.32l-24.79 -1.65c2.95,7.77 5.49,3.54 5.51,8.08 0.02,2.75 -1.06,2.72 -1.89,3.95 -4.75,7.06 -4.18,13.82 -5.55,17.22 -1.2,2.99 0.05,1.7 -2.45,3 -3.45,-2.64 -0.98,-3.74 -0.37,-9.48 -2.92,0.42 -3.57,2.67 -3.68,-7.1 -0.04,-3.37 -0.01,-6.61 0.23,-10.18 -6.79,-4.26 -1.31,-2.9 -6.12,-5.68 -2.07,-0.34 -4.42,-0.88 -6.68,-1.74 -4.67,-1.8 -2.48,0.04 -3.86,-3.2 2.9,-1.77 1.21,-1.15 4.88,-1.01 1,-1.75 0.65,-0.5 0.91,-3.28 0.59,-6.2 -1.55,-5.12 -3.38,-5.57 -7.85,-1.93 -16.03,0.53 -18.37,0.46 -2.58,-0.09 -6.73,-0.78 -8.5,0.39z"/>
   <path class="fil2" d="M160.96 425.55c2.47,2.83 1.89,10.72 2.77,19.85 0.82,8.54 -0.58,6.48 -1.43,7.5 -0.52,-0.59 -0.9,-0.68 -1.43,-1.82l-3.04 -18.43c1.09,-3.07 1.81,0.54 3.13,-7.1zm45.17 -27.38l3.86 1.57 0.82 10.58c-6.14,1.46 -8.04,-0.15 -11.81,-1.65l0.12 -5.5c-3.2,-3.49 -2.44,-5.03 -1.44,-9.61 5.92,0.21 2.01,1.76 3.62,5.44 4.41,-1.12 0.84,1.06 2.8,-3.32 1.93,1.53 0.69,0.09 2.03,2.49zm-32.54 12.67c-2.72,-3.32 -2.24,-6.63 -1.58,-12.23 0.62,-5.28 0.24,-8.42 5.57,-8.62 -0.15,2.58 -2.46,18.8 -3.99,20.85zm-32.71 36.66l6.88 8.13c6.77,1.4 10.94,-0.91 17.04,-0.42 1.58,4.47 0.56,9.94 -0.25,14.01 6.11,0.07 5.42,-2.95 7.36,-7.97 1.96,-5.05 4.92,-8.47 2.41,-11.59l-3.72 -1.15c0.87,-4.44 4.45,-15.61 6.09,-20.47 0.52,-1.54 0.8,-2.43 1.45,-4.6l3.79 -9.73 5.35 -3.66c-1.09,4.08 -3.41,9.58 -2.94,13.83 1.18,5.17 2.97,9.6 4.23,13.9l3.27 -0.54c1.83,-1.15 3.2,-3.49 4.37,-6.25 0.73,-1.71 0.54,-2.27 1.7,-4.29 2.68,-4.69 -0.02,-1.9 3.91,-3.54 3.06,-0.89 2.92,-2.43 5.7,-1.3 3.88,1.59 0.89,3.33 6.1,5.25 4.68,-4.56 1.79,-7.06 7.25,-9.46 -2.17,-2.31 -1,-2.97 -3.5,-3.38 -1.37,-7.58 -0.47,-0.71 1.05,-3.72l0.12 -1.92c1.6,-5.4 0.37,-27.34 -2.66,-34.13 -2.07,-4.66 -1.39,-4.86 -2.61,-9.72 -10.23,0.74 -6.8,8.93 -14.51,4.09 -0.01,-0.01 -1.62,-1.16 -2.48,-1.59 -2.01,-0.99 -5.28,-1.89 -8.32,-1.3 -4.05,0.79 -7.43,5.99 -10.73,8.37 -0.8,1.15 -0.66,1.19 -1.63,2.29 -2.12,2.4 -0.32,1.06 -3.07,2.72 -0.25,-0.21 -0.57,-0.46 -0.74,-0.63 -2.55,-2.74 -2.15,-2.52 -2.91,-7.56l-2.38 -0.4c-2.57,0.64 -1.36,-0.94 -3.34,2.68 -2.86,-1.86 -1.34,-6.34 -9.17,5.31 -1.92,2.86 -0.12,1.65 -2.98,3.81l-7.25 -3.84 3.73 -15.81c-4.66,2.48 -5.78,6.99 -8.47,13.76 1.63,3.52 1.89,1.45 3.16,7.18 -4,6.29 -8.07,4.63 -7.98,15.4 1.55,1.19 0.81,1.3 4.76,1.74l0.4 4.02c0.07,0.2 0.2,0.58 0.36,0.84 5.91,-3.57 1.16,-4.43 10.02,-5.61 -2.3,2.89 -4.39,5.8 -7.36,8.79 -0.51,0.51 -4.15,3.89 -4.26,4.06 -1.52,2.34 -0.78,3.18 -0.46,5.76 0.85,6.93 0.5,23.97 3.22,28.64z"/>
   <path class="fil3" d="M178.12 241.09c1.57,1.16 2.07,0.97 1.99,4.26 0.18,-0.11 0.34,-0.4 0.42,-0.48 2.74,-2.76 0.11,-1.91 3,-2.24 5.78,7.45 -5.96,15.47 -17.1,7.82 -3.15,-2.17 -14.51,-6.73 -10.91,-18.08 0.72,-2.27 0.46,-1.37 1.79,-2.61 3.2,-2.04 21.81,5.39 20.81,11.33zm3.37 -35.18c-1.75,1.3 -1.69,-0.53 -5.14,3.15 -0.53,0.56 -1.88,2.39 -2.17,2.94 -1.02,1.86 -0.69,1.36 -0.61,2 -0.04,-1.78 0.1,-1.98 -0.41,-3.7 -0.65,-2.17 -0.71,-1.85 -1.53,-2.97 0.37,9.43 -2.47,10.18 -1.12,12.97 8.31,-2.69 25.12,-6.85 26.22,5.1l-8.48 0.6c3.45,2.89 6.06,1.34 8.59,1.85 -3.09,5.43 -6.15,3.09 -10.78,0.79 -5.83,-2.9 -9.33,-1 -15.59,-0.86 -7.03,0.16 -9.05,-3.09 -14.85,-0.74 -1.49,0.6 -3.62,2.11 -4.96,3.72 -1.34,1.61 -1.35,2.65 -2.77,5.02l-5.05 -1.76c1.62,10.75 1.81,9.6 8.78,15.8 3.69,3.28 7.65,7.49 12.25,11.37 4.2,3.55 23.54,12.51 23.94,23.4l1.15 -2.26c1.74,-1.75 -0.73,-0.34 2.36,-1.55 2.59,4.78 1.24,2.23 1.64,8.66 0.2,3.2 1.33,6.66 2.29,9.05 5.55,-0.87 0.05,-2.07 7.38,-2.44 4.98,-17.3 9.36,-4.31 11.86,-18.7 1.23,-7.1 -1.48,-11.8 2.53,-16.34 0.11,-0.13 0.36,-0.32 0.48,-0.45l4.33 -6.13c0.96,1.07 0.56,-0.84 0.63,2.28 2.75,-1.55 2.96,-1.51 7.12,-0.76 0.67,5.62 -1.92,19.03 -3.01,25.33l10.95 2.31c2.7,-7.11 -0.18,-3.74 0.5,-8.14 0.43,-2.82 3.96,-9.97 9.18,-12.94 2.01,-1.14 5.39,-3.08 7.47,-3.94 2.74,1.54 4.63,4.53 7.19,4.63l27.71 -8.79 -0.93 -1.92c-12.5,1.53 -21.64,10.13 -31.07,1.26 -0.16,-0.15 -0.39,-0.36 -0.54,-0.5 -2.15,-1.99 -2.38,-0.69 -2.93,-2.82 -0.96,-3.75 2.96,-6.71 5.77,-8.07 1.69,-0.83 3.28,-1.18 5.26,-1.69 12.11,-3.17 12.02,-7.77 28.4,-5.43 -1.73,-4.73 -1.91,-2.01 -5.33,-5.35l0.37 -6.49c-3.52,-0.09 -7.95,0.25 -10.66,1.01 -4.08,1.14 -4.67,1.01 -6.42,4.02l-3.23 -3.66c-3.15,-3.06 -0.88,-3.12 -6.25,-2.78 -4.05,4.93 -0.42,4.71 -7.48,4.99 -5.11,0.2 -6.62,1.41 -9.09,4.81l-4.11 -4c-4.12,2.03 -0.14,1.25 -5.79,2.73 1.43,-3.21 0.47,-2.12 3.02,-4.17 -1.5,-4.96 0.56,-0.35 -2.32,-4.38 -2.33,0.2 -1.25,0.09 -2.6,0.56 -0.22,0.07 -1.24,0.84 -1.51,1.05l-1.08 1.77 -6.77 -2.51c0.5,4.03 -0.41,17.14 -1.77,20.11 -1.86,4.05 -6.24,10.86 -10.56,12.9 0.72,10.76 -1.09,19.16 -6.04,25.93 -5.98,-0.35 -4.23,-1.42 -6.85,-5.54 -3.02,-4.77 -4.63,-2.27 -1.35,-10.24l-5.68 2.68c1.52,-2.89 3.31,-3.91 4.89,-7.33 3.07,-6.67 1.24,-2.4 4.91,-6.81 0.06,-5.19 -0.91,-6.62 0.81,-11.96 6.14,-1.53 6.66,1.99 10.34,4.72l1.6 -6.1c-2.4,-2.25 -6.99,-4.25 -5.56,-9.9 0.8,-3.2 5.28,-5.81 1.99,-12.2l3.45 0.09 -1.29 -0.91c-0.17,-0.12 -0.45,-0.32 -0.64,-0.45l-3.14 -2.31 1.1 -4.8c-2.41,-1.94 -1.43,-2.86 -4.79,-5.69 -0.19,-0.15 -2.9,-2.19 -2.95,-2.23 -2.47,-1.62 0.45,-0.67 -3.86,-1.92 -7.2,0.74 2.89,0.82 -12.42,3.98 -4.63,0.96 0.38,1.01 -4.98,1.05z"/>
   <path class="fil1" d="M108.9 108.49c-5.34,-2.42 -3.61,-4.62 -11.04,-5.42 -5.56,-0.59 -9.8,1.09 -14.86,-0.3 -0.51,-6.5 1.56,-5.81 2.69,-11.66 -1.64,-4.36 0.73,-1.18 -2.62,-2.75 -6.07,-2.87 -17.71,5.56 -21.4,7.08l0.57 3.7c0.12,3.42 1.59,5.23 3.22,7.6 -1.72,0.6 -9.29,-0.43 -11.93,-0.68 -7.46,-0.73 -6.48,-4.03 -11.09,1.71 1.73,6.8 15.78,10.94 25.47,10.57 10.99,-0.41 19.4,-7.23 29.53,-4.33 9.19,2.62 18.63,5.01 28.06,8.06 12.41,4.01 20.58,10.86 26.98,7.25 -0.88,-8.65 -17.58,-18.03 -20.33,-20.13 -3.91,-2.98 -3.1,-8.22 -8.29,-12.19l-11.91 -8.42c5.59,-0.11 16.68,3.88 20.46,6.97 4.29,3.51 1.14,4.82 5.66,8.78 3.46,3.01 19.44,12.25 19.57,21.71 0.12,8.53 -1.37,3.17 2.87,10.18 5.31,8.79 0.21,2.41 7.68,6.44 1.76,7.97 -0.37,7.66 3.68,11.11 0.61,0.52 1.32,0.29 2.15,2.17l1.63 6.02c2.46,7.64 10.11,34.24 9.48,39.45 7.22,-0.73 5.48,-3.66 5.84,-16.66 0.28,-10.26 -0.35,-58.81 -4.71,-62.61 -2.53,-1.25 -2.88,-1.04 -6.46,-1.26 -2.5,-0.15 -4.81,-0.01 -7.24,0.16 -5.88,-11.21 1.1,-6.71 -1.9,-27.62 -11.43,-4.13 -17.46,-7 -26.69,-12.2l-14 0.8c-6.93,0.67 -20.11,4.51 -26.38,4.59 -2.92,0.04 -10.23,1.69 -12.54,2.26 4.21,9.75 4.16,4.4 11.95,8.36 2.69,1.37 7.54,6.08 8.82,9.85l-2.92 1.41z"/>
   <path class="fil4" d="M302.58 218.82c0.43,-5.33 10.06,-18.89 13.23,-24.94 0.11,-0.21 0.25,-0.48 0.36,-0.69l6.95 -11.5c9.5,-20.94 0.31,-15.33 17.77,-17.68 1.83,1.47 0.61,-0.49 0.88,2.5 2.55,-1.73 1.71,-0.59 2.41,-3.33 0.81,-3.18 -1.03,1.61 0.24,-1.92 0.71,-2 -0.57,-0.77 1.49,-1.97 -3.43,0.13 -3.92,0.52 -7.07,-0.21 3.54,-10.47 7.12,1.98 16.42,-12.15 7.19,0.17 7,3.47 21.34,0.7 8.78,-1.71 11.27,-0.12 20.67,0.83 11.84,1.19 23.23,-0.53 32,-0.87 4.11,-0.15 5.78,1.26 10.17,1.11 -1.95,2.91 -0.71,-0.77 -2.09,3.56 2.29,-0.12 5.39,0 6.79,0.14 3.72,0.38 3.51,0.22 4.54,3.61 -5.49,3.6 -2.27,-0.84 -13.53,1.88 -3.05,0.73 -34.82,4.12 -39.51,3.3 -2.87,-0.51 -2.92,-1.95 -5.47,-3.15 -3.86,-1.81 -8.36,2.19 -12.03,3.27 -4.86,1.44 -13.12,7.34 -16.8,10.96 -5.74,5.66 -5.61,3.6 -9.21,9.5 -1.78,2.93 -2.28,2.11 -3.27,5.85 8.52,-0.5 9.5,-0.22 17.69,-1.92l-4.33 -6c8.05,-4.42 3.48,-1.02 12.54,-1.02 8.2,0 13.38,-7.83 26.57,-6.45 9.97,1.05 5.48,2.3 6.79,7.82 8.42,0.13 8.99,-3.83 17.08,-1.53 3.24,0.92 4.92,1.91 8.36,3.86 3.13,1.77 6.12,2.69 10.05,2.43 -0.46,-7.14 -4.18,-7.03 -0.14,-15.42 2.55,-5.28 5.79,-6.35 9.12,-10.3 1.57,-3.89 -3.27,-24.91 -14.42,-27.13l-2.68 -0.36c-0.13,-0.02 -0.49,-0.13 -0.59,-0.16l-4.05 -10.05c-3.42,1.2 -6.15,1.39 -10.26,2.5 -3.55,0.95 -23.35,9.48 -26.94,12.32 -0.15,0.12 -0.43,0.37 -0.62,0.58 2.81,-0.42 6.94,-1.32 9.85,-2.05 8.09,-2.02 0.87,-2.22 6.77,-4.01 3.5,2.02 1.6,1.25 4.11,4.51 13.47,1.27 19.97,-1.64 25.36,-0.53 -0.43,6.89 -2.89,5.47 -9.87,6.19 -3.96,0.42 -11.45,1.08 -15.53,0.61 -5.86,-0.68 -2.98,-1.6 -5.33,-1.95 -0.62,-0.1 -3.92,0.89 -5.66,1.29 -3.7,0.84 -10.08,2.72 -14.12,2.57 -11.85,-0.45 -15.51,-9.17 -36.34,1.41 -4.6,2.34 -8.7,2.04 -13.56,1.49 -1.39,4.97 -7.46,13.24 -10.31,17.76l-29.9 47.03c-1.02,2.15 -0.71,2.75 -1.96,5.45 0.24,0.14 0.66,-0.05 0.8,0.27 0.21,0.53 3.03,0.33 5.24,1.99z"/>
   <path class="fil5" d="M177.23 374.35c3.3,-2.38 6.68,-7.58 10.73,-8.37 3.04,-0.59 6.31,0.31 8.32,1.3 0.86,0.43 2.47,1.58 2.48,1.59 7.71,4.84 4.28,-3.35 14.51,-4.09 1.22,4.86 0.54,5.06 2.61,9.72 3.03,6.79 4.26,28.73 2.66,34.13 2.89,-3.55 0.11,-5.21 2.07,-13.72 7.23,3.15 1.42,16.05 0.19,17.95 -4.96,0.43 -1.06,0.72 -2.38,-2.31 -1.52,3.01 -2.42,-3.86 -1.05,3.72 2.5,0.41 1.33,1.07 3.5,3.38 -5.46,2.4 -2.57,4.9 -7.25,9.46 -5.21,-1.92 -2.22,-3.66 -6.1,-5.25 -2.78,-1.13 -2.64,0.41 -5.7,1.3 2.79,6.66 -0.78,6.61 -3.25,13.39 -1.56,4.27 -3.08,10.24 -7.53,11.95 -4.07,-4.86 -1.4,-4.91 0.8,-11.26l-3.27 0.54c-1.26,-4.3 -3.05,-8.73 -4.23,-13.9 -0.72,0.96 -0.51,0.41 -1.3,2.02 -1.69,3.46 -4.58,19.21 -8.72,23.76 2.51,3.12 -0.45,6.54 -2.41,11.59 -1.94,5.02 -1.25,8.04 -7.36,7.97 0.81,-4.07 1.83,-9.54 0.25,-14.01 -6.1,-0.49 -10.27,1.82 -17.04,0.42 1.81,2.4 4.05,6.54 5,7.6 3.82,4.29 4.71,0.77 8.93,3.77 0,7.15 -4.3,13.76 13.07,5.25 17.45,-8.54 19.19,-16.71 30.74,-26.71 9.91,-8.58 7.9,-12.71 12.57,-15.5 1.66,-7.1 1.08,-6.24 4.08,-7.11l-0.12 7.27c2.32,-1.96 2.2,-2.7 4.38,-4.83 5.61,-5.45 6.81,2.86 7.92,-23.04 0.24,-5.68 -1.8,-15.81 1.87,-18.88 5.03,4.17 2.28,22.15 0.9,28.98 0.44,4.04 -0.12,1.71 1.86,3.95 2.04,-8.56 3.59,0.2 1.86,-13.57 -0.62,-4.93 2.58,-8.55 2.17,-16.94 -0.21,-3.78 -1.58,-6.61 -2.89,-10.05 -6.33,-16.62 5.08,-7.71 -10.36,-12.21 -4.88,-1.42 -1.51,-0.71 -4.94,-4.06 -6.78,-0.86 0.42,0.66 -4.4,0.75 -3.03,0.05 0.73,0.43 -3.7,-1.5 -5.94,6.97 -5.85,2.29 -20.5,1.18 -9.44,-0.72 -6.66,-1.24 -13.61,6.25 -2.9,3.12 -3.18,3.88 -5.36,8.12z"/>
   <path class="fil6" d="M268.07 95.21c0.55,-4.32 -1.64,-1.91 2,-3.2 4.38,2.44 2.53,2.83 6.62,5.49 2.45,-3.76 -2.99,-1.68 4.67,-2.91 6.6,-1.06 6.54,5.06 19.41,5.14 0.11,0 3.69,0.24 3.92,0.27l2.25 0.58c0.03,1.55 4.38,6.43 -12.49,4.09 4.14,2.56 9.04,2.13 14.25,0.9 -2,-9.78 5.86,-7.62 14.11,-6.27 6.62,1.09 17.89,-1.2 21.16,0.26 -3.43,6.86 -19.62,2.96 -27.33,3.49 5.12,5.08 -3.81,8.19 -6.25,11.22 3.86,0.21 0.02,0.16 3.24,-0.68 4.22,-1.09 3.91,1.07 8.35,-0.91 6.69,-2.99 1.87,-3.43 11.72,-3.98 2.55,-0.51 3.48,-0.71 6.23,-0.47 7.61,0.66 2.75,-0.46 5.09,1.94l1.94 -2.09c10.31,4.69 2.51,12.31 37.98,3.94 12.15,-2.87 3.08,-4.16 13.09,-6.74 3.93,-1.02 4.57,-1.1 8.52,0.15 -1.74,-1.99 -9.93,-3.64 -12.47,-4.66 -5.44,-2.17 -8.76,-2.16 -15.37,-2.17 -5.92,-10.15 -8.5,-8.56 -14.98,-11.59 -5.75,-2.7 -15.4,-5.25 -22.95,-3.06 -12.82,3.7 -12.31,-1.33 -22.6,-2.7 -9.09,-1.21 -18.07,1.63 -27.39,-1.51 -8.51,6.69 -23.31,1.75 -29.26,6.16 -1.95,3.2 4.54,7.49 6.54,9.31z"/>
   <path class="fil7" d="M191.96 86.29l4.54 -0.43c2.24,9.51 21.14,13.7 31.91,11.66l0.31 -2.98c6.01,0.18 14.98,11.88 42.37,3.99 -1.56,-4.01 1.39,-3.12 -3.02,-3.32 -2,-1.82 -8.49,-6.11 -6.54,-9.31 5.95,-4.41 20.75,0.53 29.26,-6.16l-48.76 -8.52c-7.32,-1.18 -33.29,0.21 -36.62,-0.13 -19.7,-2.06 -25.36,1.53 -33.55,0.38 -8.04,-1.14 -9.68,-0.67 -17.77,-0.96l-7.24 7.71c3.02,2.58 18.14,10.73 25.45,11.07 -2.18,-5.15 1.69,-1.23 -4.17,-4.19 -7.53,-3.79 -11.98,0.71 -11.18,-9.11 10.8,0.97 19.83,7.32 32.01,6.08 5.56,-0.57 5.69,-2.33 9.82,-2.44 0.83,5.48 -2.89,3.68 -6.82,6.66z"/>
   <path class="fil8" d="M97.07 71.78l2.25 -2.4c2.37,-2.07 17.85,-6.67 19.84,-7.15l36.95 -8.34c4.33,-0.25 9.55,-0.84 13.01,-0.44 10.56,1.19 18.37,-4.74 23.47,-3.57 -2.81,0.05 -4.08,0.07 -6.43,-1.34 -17.19,3.21 -36.75,0.8 -55.67,2.4 -9.62,0.81 -18.47,3.84 -27.7,4.48 -12.82,0.87 -16.84,-0.31 -29.46,3.3 -9.68,2.77 -14.21,5.55 -22.41,9.44 -4.74,2.25 -4.78,2.83 -8.85,6.59 -5.67,5.23 -1.72,5.43 -8.14,8.21 -8.43,3.66 -12.41,8.18 -15.99,15.94 -7.58,16.39 4.59,23.22 5.65,24.6 1.21,-2.09 0.51,-2.98 0.77,-5.45 0.67,-6.24 5.96,-10.04 10.51,-13.5l17.06 -14.76c11.45,-10.21 10.3,-8.37 21.13,-10.79 4.46,-1 6.56,-2.35 11.55,-3.77 4.27,-1.21 8.94,-1.45 12.46,-3.45z"/>
   <path class="fil6" d="M249.88 319.78c8.94,-0.99 9.46,6.35 5.48,12.47 -4.69,7.22 -10.57,-0.7 -15.05,4.23l7.77 -0.49c-2.86,7.6 -2.78,0.07 -7.31,5.26 3.69,-0.91 1.6,-0.39 2.78,0.53 -1.92,2.7 -3.42,5.86 -5.15,9.89 11.08,-0.26 13.92,-2.91 16.72,16.91 0.75,5.32 1.43,11.57 -0.45,16.53 -1.12,2.96 -0.03,-0.54 -1.27,2.77 -3.14,8.32 0.36,6.62 -5.32,7.24l0.12 -3.68 -5.21 -5.57c0.41,8.39 -2.79,12.01 -2.17,16.94 1.73,13.77 0.18,5.01 -1.86,13.57 -1.98,-2.24 -1.42,0.09 -1.86,-3.95 -5.58,11.66 4.46,10.05 -3.52,20.14 -3.15,3.97 -4.08,3.06 -6.73,6.61 -1.27,1.69 -1.61,2.27 -3.11,4.08 -4.28,5.17 -29.02,30.62 -29.84,33.15 5.12,0.2 6.41,-1.4 14.45,-6.31l12.19 -8.52c8.64,-5.99 14.39,-11.83 21.82,-19.34 4.13,-0.41 9.06,0.82 11.76,-1.31l-11.39 0.03c-1.1,-7.72 -1.67,-9.88 3.28,-15.46 1.16,-1.31 3.31,-3.83 4.51,-4.79 2.06,-1.65 4.48,-1.96 6.66,-0.93 -0.16,0.23 -0.43,0.48 -0.56,0.62 -0.13,0.13 -0.4,0.44 -0.56,0.6 -8.19,8.41 0.32,9.65 1.62,19.98 10.44,-3.6 1.36,-14.9 3.6,-26.89 1.35,-7.21 -5.93,-34.33 -0.28,-66.04 2.69,-15.13 5.71,-15.69 11,-25.59 -3.64,0.73 -3.16,0.91 -6.46,2.16 5.61,-14.99 -0.27,-5.2 2.06,-14.27 -0.77,3.3 0.01,0.7 1.51,1.55l0.85 -5.2c-5.67,1.76 -6.25,2.99 -10.39,6.11 -4.23,3.2 -6.58,2.86 -9.69,6.97z"/>
   <path class="fil9" d="M97.07 71.78c15.2,-2.2 8.06,-4.6 35.51,-5.98 6.26,-0.31 12.33,-1.91 18.45,-2.29 25.14,-1.56 65.08,2.26 79.21,-1.01 7.09,-1.64 12.37,-0.44 19.58,-0.35 4.54,0.65 9.12,0.06 13.8,1.06 2.33,0.49 1.36,0.4 2.25,0.65l10.14 1.96c4.05,0.8 23.81,0.59 27.25,-0.04 32.8,-6.04 51.71,10.45 49.97,2.76 -13.71,-5.47 -0.41,-1.94 -18.28,-6.09 -7.45,-1.73 -12.83,-3.91 -19.84,-4.9 -6.85,-0.97 -12.68,-0.52 -20.23,-2.23 -8.06,-1.81 -5.35,-3.77 -21.76,-2.26 -4.77,0.44 -6.38,1.45 -11.25,1.65 -6.59,0.28 -24.83,-2.79 -31.81,-2.91 -8.47,-0.14 -14.17,-0.9 -21.05,-2.03 -13.39,-2.2 -12.56,-0.57 -22.85,-1.23 2.35,1.41 3.62,1.39 6.43,1.34 -5.1,-1.17 -12.91,4.76 -23.47,3.57 -3.46,-0.4 -8.68,0.19 -13.01,0.44l-36.95 8.34c-1.99,0.48 -17.47,5.08 -19.84,7.15l-2.25 2.4z"/>
   <path class="fil2" d="M205.2 311.76c4.61,-2.03 3.12,-3.92 8.19,-3.66 0.38,4.41 -0.85,4.3 -7.76,11.34 -2.81,2.86 -0.26,2.27 -5.36,1.81 0.22,-3.85 1.14,-4.16 2.71,-6.16 -5.06,-4.95 0.78,-9.3 1.89,-13.83 1.1,-4.5 -1.48,-10.28 5.51,-12.44 -0.21,4.37 -0.55,1.98 -1.43,5.39 -1.3,5.05 0.33,3.08 -0.03,6.28 -0.32,2.84 -3.1,5.25 -3.72,11.27zm-17.39 -27.17c-1.26,7.34 0.04,25.13 -0.18,26.54 -0.89,5.71 -1.09,-0.22 -2.13,6.02 -0.71,4.25 1.01,10.57 -0.01,15.04 -0.8,3.53 -4.56,6.99 -5,10.06 -0.38,2.62 6.2,22.97 7.68,6.13 0.45,-5.14 -1.1,-8.74 3.89,-9.76 1.65,2.74 1.31,4.32 1.55,8.06l3.88 -12.57c1.83,-3.65 -0.62,-1.29 3,-3.26 2.29,2.85 -0.32,7.01 -1.24,10.76 -0.96,3.95 -1.62,10.12 -2.69,14.27 5.88,0.63 5.08,-4.74 7.31,-10.49 1.17,-3.02 5.41,-11.1 5.65,-12.91l0.87 -1.79c0.1,-0.19 0.28,-0.58 0.4,-0.81 1.21,-2.22 0.41,-1.37 1.54,-2.47l-2.81 -5.47c1.92,-1.77 9.31,-6.27 10.7,-6.64 2.14,-3.66 3.93,-4.83 7.52,-6.73 -0.51,-6.48 0.05,-7.52 3.76,-12.55 1.84,-2.47 6.06,-9.01 6.38,-11.62l-0.36 -0.81 -10.95 -2.31c-0.72,4.61 -0.36,4.06 -3.02,6.66 -5.25,-1.41 -6.31,-9.57 -6.55,-15.01 -0.45,-10.19 4.4,-7.26 5.46,-16.22 -0.07,-3.12 0.33,-1.21 -0.63,-2.28l-4.33 6.13c-0.12,0.13 -0.37,0.32 -0.48,0.45 -4.01,4.54 -1.3,9.24 -2.53,16.34 -2.5,14.39 -6.88,1.4 -11.86,18.7 -7.33,0.37 -1.83,1.57 -7.38,2.44 -0.96,-2.39 -2.09,-5.85 -2.29,-9.05 -0.4,-6.43 0.95,-3.88 -1.64,-8.66 -3.09,1.21 -0.62,-0.2 -2.36,1.55l-1.15 2.26z"/>
   <path class="fil10" d="M272.13 14.63c1.96,2.55 -1.51,0.33 2.21,2.68 -10.09,-1.43 -31.66,1.82 -39.62,7.91 -13.77,10.53 -19.27,6.56 -34.67,11.28 -3.19,0.97 -20.2,1.72 -23.65,4.91 5.32,0.24 12.81,-1.18 15.87,-1.41 6.54,-0.48 38.99,4.87 51.1,3.99 -6.03,-5.43 -5.12,-8.08 3.02,-12.35 7.44,-3.9 12.64,-5.86 17.75,-1.7 7.26,0.11 6.51,-1.7 13.94,-2.6 4.55,-0.55 9.83,-2.48 11.47,2.33 11.93,-2.32 17.78,2.04 27.38,3.02 -0.42,-4.42 1.95,-6.44 4.46,-8.32 5.21,-0.14 7.35,2.24 10.56,5.41l0.58 -3.04c2.27,-0.46 3.79,-0.55 5.56,-1.22 0.97,-0.37 1.77,-1.44 3.83,-1.74 -1.18,-2.66 -18.22,-12.49 -28.71,-12.49 -6.71,-0.01 -14.94,-0.39 -21.48,0.12 -8.87,0.68 -8.37,3.35 -19.6,3.22z"/>
   <path class="fil11" d="M311.14 145.22c-3.4,-0.12 -10.27,8.71 -13.73,14.42 -1.16,1.93 -1.5,1.97 -2.85,3.44 -1.99,2.17 -3.48,4.57 -5.24,7.12 -3.71,5.38 -5.38,10.82 -8.12,16.56 -2.76,5.79 -3.15,14.8 -5.63,19.12 -1.5,-6.91 -3.64,-5.33 -9.36,-9.03 -7.51,-4.85 -4.56,-7.99 -9.99,-9.68 -4.26,-1.32 -8.48,2.56 -11.05,4.53 -4.54,3.48 -8,4.4 -10.67,10.72 -2.13,-2.35 -1.11,0.13 -1.54,-3.88l-5.67 11.39c7.74,0.43 18.41,6.72 22.36,11.28l0.88 -0.03c2.4,-6.23 7.69,-6.17 15.43,-6.68 1.39,-5.64 -1.56,-5.7 -1.63,-12.02 7,-0.74 7.85,1.84 10.35,7.63 0.44,-0.22 4.5,-7.38 3.43,6.71l2.78 0.92 6.78 -1.28 8.93 -31.05c3.33,-12.24 15.19,-35.93 24.82,-44.22 -0.35,-0.38 0.06,-2.37 -5.08,0.21l-5.2 3.82z"/>
   <path class="fil12" d="M231.34 112.9l24.79 1.65c-0.83,4.39 -1.92,5.02 -2.91,9.32l-9.72 44.55c-1.51,6.54 -2.91,12.66 -1.68,20.13 2.73,-0.11 1.85,-0.58 5.11,-1.89 -2.68,-5.69 5.62,-35.84 8.7,-44.09 2.12,-5.68 1.82,-7.26 8.8,-8.58 1.22,5.36 -2.19,8.68 -3.92,12.34 -9.25,19.65 -7.7,26.5 -12.01,41.49 0.25,-0.25 0.61,-0.48 0.84,-0.65 7.96,-5.7 5.5,-5.25 12.31,-21.02 1.62,-3.77 1.23,-3.91 2.28,-7.97 0.64,-2.48 0.06,-0.42 0.79,-2.52 0.06,-0.16 0.68,-1.7 0.88,-2.26 0.55,-1.5 0.59,-1.67 1.15,-3.7 0.95,-3.42 1.35,-4.21 2.74,-7.55 3.36,-8.06 1.4,-15.46 6.86,-17.86 8.3,-3.65 10.23,-4.61 15.7,-3.4 7.7,1.71 10.4,6.31 12.75,10.73 6.34,-1.52 6.98,-3.71 15.03,-4.34 1.56,-1.45 1.12,-0.64 1.55,-2.37 0.67,-2.65 0.6,1.42 0.11,-1.6 -0.44,-2.75 0.56,-0.63 -2.15,-2.97 -4.7,-7.1 5.19,-2.7 9.17,-2.08 -1.69,-3.61 0.11,-1.05 -2.23,-2.99 -1.85,-1.52 -1.03,-0.65 -2.91,-1.16 3.14,-1.58 8.42,-2.73 10.33,-5.41 -9.85,0.55 -5.03,0.99 -11.72,3.98 -4.44,1.98 -4.13,-0.18 -8.35,0.91 -3.22,0.84 0.62,0.89 -3.24,0.68 -0.77,0.75 -0.32,0.38 -1.92,1.12 -1.15,0.53 -1.14,0.34 -2.23,0.82l-3.33 1.9c-3.7,1.85 -22.11,-1.35 -26.47,-1.85l-6.02 0.89c-0.67,4.62 -2.1,8.02 -5.58,10.1 -2.63,-10.16 4.87,-15.55 5.5,-17.51 1.37,-4.58 2.63,-2.33 -1.47,-2.12 -3.9,1.56 -11.47,1.22 -16.28,0.98 -4.61,-0.23 -8.62,-2.34 -12.29,-4.03 -2.33,1.86 -8.61,6.35 -9.87,7.47l0.91 0.86z"/>
   <path class="fil13" d="M142.84 234.02l5.05 1.76c1.42,-2.37 1.43,-3.41 2.77,-5.02 1.34,-1.61 3.47,-3.12 4.96,-3.72 5.8,-2.35 7.82,0.9 14.85,0.74 6.26,-0.14 9.76,-2.04 15.59,0.86 4.63,2.3 7.69,4.64 10.78,-0.79 -2.53,-0.51 -5.14,1.04 -8.59,-1.85 -2.59,-3.95 -8.93,-4.31 -14.56,-3.24 -8.04,1.53 -6.5,0.61 -15.4,0.72 -0.14,-13.52 -10.12,-31.3 -20.02,-37.33 -8.19,-4.98 2.65,5.55 -15.07,-6.49 -31.19,-21.18 -71.38,-21.77 -73.55,-31.53 12.64,-1.89 50.68,11.87 59.83,18.66l16.44 9.63c-2.64,-4.91 -0.26,0.72 -5.94,-4.68 -8.53,-8.09 -22.15,-16.29 -30.8,-22.6 -11.36,-8.29 -35.33,-9.79 -49.66,-14.38 3.22,9.27 -1.07,15.87 13.04,24.24 5.84,3.47 7.62,4.92 15.06,7.62l12.48 3.96c18.64,4.41 23.18,6.43 40.16,11.89 12,3.87 8.47,2.3 17.08,8.76 9.04,6.79 16.76,22.57 19.49,32.52 -9.13,8.9 -14.22,3.15 -13.99,10.27z"/>
   <path class="fil14" d="M278.47 442.37c5.38,7.23 28.5,0.85 45.72,7.71 5.32,2.12 10.65,3.71 12.61,7.4 1.59,0.33 15.74,7.68 16.92,10 -6.35,-1.44 -8.28,-5 -17.93,-6.46 -8.27,-1.26 -13.79,-3.57 -22.6,-3.99 4.63,4.1 10.03,7.89 17.85,12.65 8.23,5 10.03,4.3 16.71,6.68 5.84,2.08 1.79,-0.58 4.43,3.94l21.62 0.19c-4.67,-5.1 -17.52,-10.69 -14.68,-20.13 3.75,-1.87 1.19,0.12 5.38,-1.54 2.47,-0.98 1.06,-0.34 1.96,-1.06 -9.04,-10.25 -34.61,-14.69 -50.89,-17.91 -11.29,-2.23 -9.16,-2.12 -10.85,-12.57 -9.36,5.66 -12.86,-0.51 -21.15,9.07 -3.37,3.89 -1.41,4.34 -5.1,6.02z"/>
   <path class="fil1" d="M157.02 168.32c1.04,0.98 1.96,-0.26 0.45,2.06 1.14,3.74 3.17,4.92 4.15,7.85 1.26,3.78 0.53,6.01 2.52,10.86 0.93,2.28 6.75,17.17 7.49,18.24 0.82,1.12 0.88,0.8 1.53,2.97 0.51,1.72 0.37,1.92 0.41,3.7 -0.08,-0.64 -0.41,-0.14 0.61,-2 0.29,-0.55 1.64,-2.38 2.17,-2.94 3.45,-3.68 3.39,-1.85 5.14,-3.15 -5.75,-11.21 -0.9,-9.98 -5.85,-27.41 -5.06,-17.84 -4.82,-17.8 -12.29,-21.34l-0.33 -8.34c-3.78,-2.52 -2.67,-0.34 -6.02,-3.94 -2.15,-2.33 -2.92,-4.35 -4.3,-5.95 -2.18,-2.53 -3.44,-2.52 -6.35,-4 -0.74,-0.38 -2.71,-1.5 -3.28,-1.77l-1.42 -0.6c-0.24,-0.1 -0.52,-0.19 -0.75,-0.28 -0.75,-0.28 -1.33,-0.43 -2.28,-0.81 -6.6,-2.57 -25.15,-10.34 -32.88,-10.7 1.32,4.28 0.95,6.08 -0.24,10.94 6.8,-2.14 12.54,-2.94 18.82,-0.34 16.07,6.64 29.11,18.87 32.7,36.95z"/>
   <path class="fil15" d="M319.34 120.34c2.71,2.34 1.71,0.22 2.15,2.97 0.49,3.02 0.56,-1.05 -0.11,1.6 -0.43,1.73 0.01,0.92 -1.55,2.37l4.5 0.33c-1.33,3.13 -8.59,5.67 -12.51,8.57 -4.43,3.27 -9.2,6.5 -12.58,10.54 4.78,-0.56 7.78,-2.27 11.9,-1.5l5.2 -3.82c5.14,-2.58 4.73,-0.59 5.08,-0.21 0.55,-0.22 1.3,-0.48 1.64,-0.72 1.7,-1.2 0.96,-0.67 2.08,-1.78 -2.53,-1.97 -1.99,1.7 -0.8,-1.79 0.53,-1.53 -0.4,-0.61 1.27,-1.25 3.43,-1.32 3.03,0.28 6.01,0.07 4.61,-0.33 3.48,-4.06 6.19,-7.29 5.72,-4.54 24.24,4.42 42.91,-4.5 4.15,-1.97 8.22,-4.53 12.68,-3.02l-11.81 8.07c-0.4,0.32 -2.69,2.16 -2.95,2.31 -1.95,1.13 -1.15,0.86 -3.42,1.09 -1.65,0.17 -6.4,0.01 -8.73,-0.26 9.99,8.61 28.35,-3.92 32.29,-5.44l21.95 -8.93c1.89,-0.7 6.84,-1.72 6.94,-1.77 -2.36,-3.35 -0.55,-1.1 -4.49,-3.27 -16.22,-8.94 -8,-2.84 -17.79,-0.97 -6.47,1.25 -16.06,1.47 -22.43,4.17 -8.7,3.68 -20.57,4.92 -30.12,4.85 -4.61,-0.04 -10.77,5.87 -20.04,5.14 -4.68,-0.38 -7.42,-4.61 -13.46,-5.56z"/>
   <path class="fil16" d="M413.58 101.31l15.26 9.82c10.71,4.75 5.77,8.9 11.69,12.9l13.65 11.07c5.47,5.52 4.43,5.16 7.34,10.9 0.79,1.55 0.17,0.67 1.19,2.06 1.38,1.89 -0.04,0.35 1.8,1.94 3.96,-4.59 2.02,-5.36 4.12,-7.96 2.81,-3.51 14.29,-5.1 -0.32,-23.14 -5.88,-7.27 -17.28,-17.63 -28.81,-20.9 1.29,3.53 1.97,3.96 3.67,6.47 -13.5,3.01 -17.59,-2.64 -29.59,-3.16z"/>
   <path class="fil17" d="M268.07 95.21c4.41,0.2 1.46,-0.69 3.02,3.32 -27.39,7.89 -36.36,-3.81 -42.37,-3.99l-0.31 2.98c2.83,2.32 5.24,2.27 7.53,5.12 -4.52,6.81 -18.08,9.11 -24.58,4.12 -3.67,-0.14 -1.98,-0.76 -4.88,1.01 1.38,3.24 -0.81,1.4 3.86,3.2 2.26,0.86 4.61,1.4 6.68,1.74l10.06 0.29c1.18,3.92 1.5,5.49 5.31,7.96 -1.4,2.79 -2.43,4.73 -3.34,7.35 -0.95,2.75 -2.01,6.65 -2.46,7.36 -0.61,5.74 -3.08,6.84 0.37,9.48 2.5,-1.3 1.25,-0.01 2.45,-3 1.37,-3.4 0.8,-10.16 5.55,-17.22 0.83,-1.23 1.91,-1.2 1.89,-3.95 -0.02,-4.54 -2.56,-0.31 -5.51,-8.08l-0.91 -0.86c1.26,-1.12 7.54,-5.61 9.87,-7.47 3.67,1.69 7.68,3.8 12.29,4.03 4.81,0.24 12.38,0.58 16.28,-0.98 4.94,-4.25 2.33,1.38 6.46,-5.82 7.63,6.83 24.52,9.93 35.06,12.47 2.44,-3.03 11.37,-6.14 6.25,-11.22 7.71,-0.53 23.9,3.37 27.33,-3.49 -3.27,-1.46 -14.54,0.83 -21.16,-0.26 -8.25,-1.35 -16.11,-3.51 -14.11,6.27 -5.21,1.23 -10.11,1.66 -14.25,-0.9 -7.11,-1.32 -12.2,-4.91 -17.76,-7.17 -4.09,-2.66 -2.24,-3.05 -6.62,-5.49 -3.64,1.29 -1.45,-1.12 -2,3.2z"/>
   <path class="fil18" d="M288.57 223.4l-0.37 6.49c3.42,3.34 3.6,0.62 5.33,5.35l8.29 1.85c-0.56,4.35 -2.7,4.23 -4.73,9.67 -2.07,5.59 -2.03,5.19 -8.45,5.73l0.93 1.92 -27.71 8.79c-2.56,-0.1 -4.45,-3.09 -7.19,-4.63 -2.08,0.86 -5.46,2.8 -7.47,3.94 -5.22,2.97 -8.75,10.12 -9.18,12.94 -0.68,4.4 2.2,1.03 -0.5,8.14l0.36 0.81c5.15,-3.76 -0.17,-4.69 13.69,-8.94 0.61,-3.1 -0.16,-3.12 6.17,-6.49l17.57 -7.2c4.64,-2.09 6.7,-1.6 10.46,-2.85l17.6 -8.1c9.4,-5.12 1.95,-7.54 16.99,-7.69l2.22 4.69 1.08 -5.18c2.28,-2.92 3.72,-3.32 5.02,-6.95 -1.35,-1.07 -1.65,-1.54 -3.19,-2.92 -3.41,0.98 -3.7,1.46 -5.41,3.94l-5.39 -6.27c-1.74,-1.67 -4.83,-4.66 -7.22,-6.12 -4.06,-2.47 -9.46,-4.78 -13.88,-2.7 -4.45,2.1 2.16,2.52 -5.02,1.78z"/>
   <path class="fil19" d="M228.26 474.39c2.25,1.06 4.55,0.41 16.67,6.47l18.98 6.66c0.31,-0.14 0.69,-0.82 0.83,-0.6 0.14,0.22 0.6,-0.43 0.78,-0.58 6.31,-5.31 4.5,-3 17.8,-4.9 7.88,-1.13 12.39,-0.36 14.03,-0.53 8.07,-0.86 3.6,-1.07 5.56,-3.2 -18.6,-6.68 -14.22,-5.85 -27.77,-11.71 -2.8,-1.21 -6.49,-3.91 -8.76,-4.63 -5.63,-1.79 -29.58,6.52 -38.12,13.02z"/>
   <path class="fil20" d="M32.93 117.01c-0.77,1.64 -0.76,1.53 -0.98,4.1 1.46,0 1.03,-0.33 1.03,1.25 16.78,11.39 48.99,3.63 84.61,36.38 4.01,3.7 19.48,16.58 23.18,17.33l1.12 -1.41c-3.52,-2.13 -5.29,-4.15 -7.3,-7.31 -2,-1.7 -5.18,-1.49 -12.2,-7.35 -6.28,-5.24 -4.48,-6.42 -8.76,-12.81 -1.7,-2.54 -7.52,-7 -10.97,-9.55 -5.95,-4.38 -5.21,-4.63 -3.45,-13.93 -8.27,-0.44 -8.43,-2.6 -16.35,-1.21 -13.86,2.42 -22.07,1.6 -35.56,-0.31 -9.74,-1.37 -7.65,-4.88 -11.95,-8.94 -1.77,2.08 -1.35,0.98 -2.42,3.76z"/>
   <path class="fil21" d="M362.59 79.56c1.71,2.27 20.4,12.88 22.69,13.44 8.42,2.05 20.59,7.3 28.3,8.31 12,0.52 16.09,6.17 29.59,3.16 -1.7,-2.51 -2.38,-2.94 -3.67,-6.47 -25.29,-6.24 -43.35,-19.12 -49.97,-20.3 -4.03,-0.72 -6.78,-0.32 -10.67,-0.7 -5.13,-0.5 -5.51,-1.78 -11.11,-2.1 0.47,0.86 0.68,1.87 1.35,2.76 -2.5,1.74 -3.17,2.22 -6.51,1.9z"/>
   <path class="fil22" d="M176.4 41.41c3.45,-3.19 20.46,-3.94 23.65,-4.91 15.4,-4.72 20.9,-0.75 34.67,-11.28 7.96,-6.09 29.53,-9.34 39.62,-7.91 -3.72,-2.35 -0.25,-0.13 -2.21,-2.68 -13.31,-2.58 -34.13,0.42 -45.29,5.75 -6.77,3.24 -10.4,6.32 -18.54,7.97 -4.31,0.87 -6.52,1.86 -10.83,2.9 -19.19,4.63 -39.08,8.46 -59.94,6.94 -10.36,-0.76 -14.74,0.76 -22.85,3.44 -4.23,1.41 -19.77,4.53 -20.88,6.17 2.73,-1.16 35.38,-5.27 39.76,-4.92 17.01,1.34 27.31,-0.57 42.84,-1.47z"/>
   <path class="fil23" d="M362.59 79.56c3.34,0.32 4.01,-0.16 6.51,-1.9 -0.67,-0.89 -0.88,-1.9 -1.35,-2.76 -0.98,-0.72 -13.5,-6.07 -14.52,-6.36 1.74,7.69 -17.17,-8.8 -49.97,-2.76 -3.44,0.63 -23.2,0.84 -27.25,0.04l-10.14 -1.96c-0.89,-0.25 0.08,-0.16 -2.25,-0.65 -4.68,-1 -9.26,-0.41 -13.8,-1.06 5.04,5.52 29.64,9.2 38.68,9.54 6.35,0.24 24.37,1.51 30.22,3.07 16.55,4.39 14.2,2.14 29.55,2.86 5.25,0.25 10.78,1.99 14.32,1.94z"/>
   <path class="fil24" d="M271.64 459.04c10.82,7.06 32.34,15.09 37.16,19.82l1.3 1.36c11.41,0.2 22.98,0.69 33.54,-0.4 -0.26,-0.23 -0.67,-0.86 -0.84,-0.62l-31.33 -17.67c-7.24,-5.88 -6.55,-5.66 -17.76,-5.08 -7.77,0.41 -14.84,1.67 -22.07,2.59z"/>
   <path class="fil25" d="M345.91 159.29c6.94,-1.4 7.02,-2.98 11.21,-5.63 7.92,-5.01 1.88,0.43 7.03,-0.96 0.05,-0.01 0.99,-0.78 2.47,-0.8 -0.56,4.59 -13.36,10.5 -16.8,12.14 -5.47,2.6 -25.27,33.76 -29.57,41.14 -0.99,1.69 -2.07,3.13 -3.13,5.03 -2.73,4.86 -5.29,8.1 -3.61,10.83 2.24,-4.7 3.9,-7.39 7.08,-12.4 6.06,-9.51 14.21,-21.56 22.02,-29.38l6.61 -7.74c1.34,-1.48 1.02,-1.29 2.49,-2.64 1.63,-1.5 3.31,-2.76 5.73,-4.54 15.99,-11.79 14.12,-7.25 27.74,-13.46 10.85,-4.95 9.87,1.15 12.06,4 12.21,0.87 30.43,-6.54 40.11,-2.62 1.38,-4.33 0.14,-0.65 2.09,-3.56 -4.39,0.15 -6.06,-1.26 -10.17,-1.11 -8.77,0.34 -20.16,2.06 -32,0.87 -9.4,-0.95 -11.89,-2.54 -20.67,-0.83 -14.34,2.77 -14.15,-0.53 -21.34,-0.7 -9.3,14.13 -12.88,1.68 -16.42,12.15 3.15,0.73 3.64,0.34 7.07,0.21z"/>
   <path class="fil7" d="M62.24 99.14l-0.57 -3.7c3.69,-1.52 15.33,-9.95 21.4,-7.08 3.35,1.57 0.98,-1.61 2.62,2.75 1.82,-2.08 0.61,-0.73 2.73,-1.68 1.2,3.44 -1.06,4.54 -0.93,9.89 10,-0.64 18.93,-0.37 21.41,9.17l2.92 -1.41c-1.28,-3.77 -6.13,-8.48 -8.82,-9.85 -7.79,-3.96 -7.74,1.39 -11.95,-8.36 2.31,-0.57 9.62,-2.22 12.54,-2.26 6.27,-0.08 19.45,-3.92 26.38,-4.59l14 -0.8c-1.36,-1.85 -1.57,-1.81 -2.33,-4.58 2.39,-1.6 4.6,-2.12 6.77,-5.55 -6.46,0.73 -9.48,1.83 -14.35,3.36 -11.71,3.67 -9.7,-0.5 -21.41,3.22 -2.59,0.83 -4.48,1.11 -6.85,1.45 -14.97,2.15 -36.78,3.28 -48.52,15 -1.66,1.65 -1.99,2.4 -3.99,4.24 -1.22,1.13 -3.26,3.18 -4.36,3.63l10.99 2.74c-2.07,-3.59 -3.76,-4.36 -0.84,-7.78l3.16 2.19z"/>
   <path class="fil26" d="M338.54 49.37c1.47,1.59 -0.83,-0.56 1.59,1.68 5.26,4.88 12.12,6.7 18.71,9.07 3.78,1.36 7.51,3.08 10.63,4.77 6.54,3.54 7.09,1.35 13.34,2.94 7.2,1.84 15.13,7.04 20.65,10.14l18.71 8.87c4.79,0.4 1.11,0.44 2.46,-0.63 -7.69,-3.79 -14.41,-9.31 -22.51,-13.95 -13.48,-7.74 -29.31,-24.72 -34.72,-28.31 -5.82,-0.45 -2.34,2.03 -5.44,5.72 -1.53,1.83 -1.04,-0.26 -5.77,5.65 -7.62,-6.57 -5.95,-1.55 -12.8,-4.4 -0.69,-3.63 -0.72,-1.49 0.21,-5.36 0.78,-3.21 0.09,-0.43 0.87,-2.46l1.18 -2.75c-3.59,-1.72 -5.85,-6.3 -8.39,-5.78 0.87,9.39 5.55,1.85 1.28,14.8z"/>
   <path class="fil27" d="M147.76 455.63l-6.88 -8.13c-2.12,4 1.4,1.07 -1.66,3.07 2.41,7.31 5.96,12.43 9.62,18.55 2.99,5 1.04,3.67 6.82,3.51 -2.65,7.5 0.58,8.19 3.75,15.78 2.67,-1.74 1.17,-1.31 3.91,-2.99 8.17,-5 8.76,-6.54 14.39,-8.29 9.7,-3.01 11.13,-5.33 15.51,-14.17 2.94,-5.92 0.44,-4.74 7.63,-6.78 9.85,-2.8 9.5,-6.65 13.14,-10.36 2.69,-2.74 1.72,-0.38 3.48,-3.83 3.02,-5.95 -1.16,-5.36 0.6,-11.95 -4.67,2.79 -2.66,6.92 -12.57,15.5 -11.55,10 -13.29,18.17 -30.74,26.71 -17.37,8.51 -13.07,1.9 -13.07,-5.25 -4.22,-3 -5.11,0.52 -8.93,-3.77 -0.95,-1.06 -3.19,-5.2 -5,-7.6z"/>
   <path class="fil28" d="M220.22 315.3c-1.39,0.37 -8.78,4.87 -10.7,6.64 1.36,4.6 -0.66,2.71 4.35,3.83 6.16,1.39 12.39,-5.81 15.19,-7.75l4.6 -4.45c1.05,-1.49 1.35,-2.17 2.65,-3.59 2.51,-2.74 1.26,-2.26 3.67,-2.08l-3.27 15.3c6.11,-3 11.11,-8.61 17.9,-12.24 5.04,-2.69 17.18,-3.96 18.55,-10.94 -4.21,-3.22 -17.02,6.42 -21.14,7.72 6.89,-18.44 -2.95,-5.42 -7.89,-5.8 -1.98,1.52 -2.18,2.65 -4.85,3.89 -2.57,-5.79 9.64,-8.88 11.62,-19.89 0.53,-1.95 1.14,-1.03 -0.96,-1.12 -7.1,0.52 -14.53,10.12 -17.57,16.21 -3.17,6.34 0.31,1.46 0.36,7.71 -4.15,3.55 -4.89,6.31 -12.51,6.56z"/>
   <path class="fil0" d="M278.52 244.06c3.03,1.58 2.93,0.96 2.39,5.12l-8.6 -0.23c-2.11,-2.63 -3.7,-3.19 -1.22,-6.84 3.33,-0.17 5.1,0.74 7.43,1.95zm10.12 8.43c6.42,-0.54 6.38,-0.14 8.45,-5.73 2.03,-5.44 4.17,-5.32 4.73,-9.67l-8.29 -1.85c-16.38,-2.34 -16.29,2.26 -28.4,5.43 -1.98,0.51 -3.57,0.86 -5.26,1.69 -2.81,1.36 -6.73,4.32 -5.77,8.07 0.55,2.13 0.78,0.83 2.93,2.82 0.15,0.14 0.38,0.35 0.54,0.5 9.43,8.87 18.57,0.27 31.07,-1.26z"/>
   <path class="fil29" d="M209.52 321.94l2.81 5.47c-1.13,1.1 -0.33,0.25 -1.54,2.47 -0.12,0.23 -0.3,0.62 -0.4,0.81l-0.87 1.79c6.55,-0.86 2.05,-0.7 3.49,1.09 -2.49,6.96 -8.01,18.24 -7.9,22.88 5.99,-0.55 5.74,-3.68 9.58,-8.47 2.76,-3.45 6.86,-8.41 11,-8.09 2.28,4.73 0.24,2.29 0.12,7.79 5.38,-2.54 5.32,-7.15 11.92,-9.57 -0.17,-0.28 -0.37,-0.62 -0.49,-0.83 -0.13,-0.2 -0.34,-0.56 -0.49,-0.8l-2.3 -3.2c-0.07,-0.31 -0.3,-0.36 -0.46,-0.52l-2.88 0.86c-0.41,-7.6 2.38,-4.61 5.6,-10.42l3.27 -15.3c-2.41,-0.18 -1.16,-0.66 -3.67,2.08 -1.3,1.42 -1.6,2.1 -2.65,3.59l-4.6 4.45c-2.8,1.94 -9.03,9.14 -15.19,7.75 -5.01,-1.12 -2.99,0.77 -4.35,-3.83z"/>
   <path class="fil30" d="M251.57 275.46l26.37 -7.03c5.14,-1.27 2.53,0.04 5.61,-0.13 4.1,-0.23 2.21,-2.15 8.28,-4.33 3.88,-1.39 6.08,-1.23 10.44,-2.97 24.77,-9.87 20.22,-6.83 21.39,-18.36l-1.08 5.18 -2.22 -4.69c-15.04,0.15 -7.59,2.57 -16.99,7.69l-17.6 8.1c-3.76,1.25 -5.82,0.76 -10.46,2.85l-17.57 7.2c-6.33,3.37 -5.56,3.39 -6.17,6.49z"/>
   <path class="fil31" d="M22.17 454.29c2.83,-0.57 19.69,2.67 33.51,1.9 12.61,-0.71 25.09,-2.79 37.82,-1.23 -2.92,-3.09 -9.94,-7.49 -14.15,-9.68 -3.67,-1.92 -36.66,0.63 -41.87,2.52 -5.55,2.01 -1.63,1.97 -9.06,2.07 -4.35,0.06 -5.57,0.83 -6.25,4.42z"/>
   <path class="fil32" d="M248.2 391.44l-0.12 3.68c5.68,-0.62 2.18,1.08 5.32,-7.24 1.24,-3.31 0.15,0.19 1.27,-2.77 1.88,-4.96 1.2,-11.21 0.45,-16.53 -2.8,-19.82 -5.64,-17.17 -16.72,-16.91 1.73,-4.03 3.23,-7.19 5.15,-9.89 -1.18,-0.92 0.91,-1.44 -2.78,-0.53 -3.01,0.08 -1.44,-1.18 -4.94,2.23 -1.59,1.54 -1.89,2.68 -3.7,4.49 -5.38,5.38 -10.97,7.55 -1.29,7.13 2.63,-0.12 1.36,0.01 3.52,1.65 11.51,8.75 7.68,2.38 12.47,20.28 2.09,7.83 0.9,6.57 1.37,14.41z"/>
   <path class="fil33" d="M197.71 266c5.18,-9.45 -0.21,-3.28 8.03,-7.88l2.44 -9.84c2.3,1.25 3.16,6.13 3.77,7.57 4.32,-2.04 8.7,-8.85 10.56,-12.9 1.36,-2.97 2.27,-16.08 1.77,-20.11 -1.73,-3.17 -4.51,-5.16 -9.82,-3.65l-3.45 -0.09c3.29,6.39 -1.19,9 -1.99,12.2 -1.43,5.65 3.16,7.65 5.56,9.9l-1.6 6.1c-3.68,-2.73 -4.2,-6.25 -10.34,-4.72 -1.72,5.34 -0.75,6.77 -0.81,11.96 -3.67,4.41 -1.84,0.14 -4.91,6.81 -1.58,3.42 -3.37,4.44 -4.89,7.33l5.68 -2.68z"/>
   <path class="fil23" d="M331.95 29.78c2.63,4.06 0.02,3.4 5.31,4.79 2.54,-0.52 4.8,4.06 8.39,5.78l-1.18 2.75c-0.78,2.03 -0.09,-0.75 -0.87,2.46 -0.93,3.87 -0.9,1.73 -0.21,5.36 6.85,2.85 5.18,-2.17 12.8,4.4 4.73,-5.91 4.24,-3.82 5.77,-5.65 3.1,-3.69 -0.38,-6.17 5.44,-5.72 -1.42,-4.57 -1.5,-3.23 -4.99,-5.93 -3.38,-2.61 -3.03,-2.75 -6.41,-4.83 -5.19,-3.19 -8.46,-7.13 -14.08,-9.41 -2.06,0.3 -2.86,1.37 -3.83,1.74 -1.77,0.67 -3.29,0.76 -5.56,1.22l-0.58 3.04z"/>
   <path class="fil34" d="M113.13 478.59c-0.76,-2.62 -0.29,-3.01 -3.76,-4.94 -2.72,-1.52 -4.53,-1.32 -7.52,-1.02 -4.41,0.33 -6.02,2.4 -8.62,1.55 1.16,-2.21 11.71,-7.84 15.81,-10.19 2.73,-1.57 3.78,-1.32 5.16,-3.9 -20.35,-2.22 -17.76,-1.36 -36.49,10.63 -4.3,2.75 -7.47,4.16 -9.18,7.65 12.44,-0.51 39.87,1.5 44.6,0.22z"/>
   <path class="fil0" d="M304.8 131.62c-3.64,3.94 -3.64,1.17 -7.4,4.17 -9.07,6.82 -13.11,12.84 -20.06,21.6 -0.56,3.68 -1.63,6.99 -3.39,9.68 -1.9,2.91 -3.22,5.93 -4.76,7.76 -1.02,7.63 -0.51,2.12 0.88,4.23 5.77,-2.54 1.73,-6.02 12.82,-17.41 1.47,-1.52 1.81,-1.97 3.52,-3.69l13.42 -11.06 -0.59 -0.18c3.38,-4.04 8.15,-7.27 12.58,-10.54 3.92,-2.9 11.18,-5.44 12.51,-8.57l-4.5 -0.33c-8.05,0.63 -8.69,2.82 -15.03,4.34z"/>
   <path class="fil35" d="M182.02 98.76c1.77,-1.17 5.92,-0.48 8.5,-0.39 2.34,0.07 10.52,-2.39 18.37,-0.46 1.83,0.45 3.97,-0.63 3.38,5.57 -0.26,2.78 0.09,1.53 -0.91,3.28 6.5,4.99 20.06,2.69 24.58,-4.12 -2.29,-2.85 -4.7,-2.8 -7.53,-5.12 -10.77,2.04 -29.67,-2.15 -31.91,-11.66l-4.54 0.43c-7.58,2.7 -6.08,2.39 -15.48,1.85 0.66,2.12 0.97,3.52 1.68,5.8 1.94,6.17 -1.77,2.69 3.86,4.82z"/>
   <path class="fil36" d="M249.94 284.82c2.1,0.09 1.49,-0.83 0.96,1.12 2.67,-1.22 4.2,-1.7 6.91,-0.85 -1.64,5.9 -9.55,10.36 -13.68,16.85 4.94,0.38 14.78,-12.64 7.89,5.8 4.12,-1.3 16.93,-10.94 21.14,-7.72 4.36,-6.82 2.46,-11.79 4.69,-17.77l-9.81 -1.78c-4.81,0.13 -1.61,1.58 -6.66,1.28 -2.08,-0.12 -7.36,-1.2 -11.44,3.07z"/>
   <path class="fil37" d="M302.58 218.82c2.49,0.29 2.86,0.35 4.44,0.81l34.75 -53.12c-0.27,-2.99 0.95,-1.03 -0.88,-2.5 -17.46,2.35 -8.27,-3.26 -17.77,17.68l-6.95 11.5c-0.11,0.21 -0.25,0.48 -0.36,0.69 -3.17,6.05 -12.8,19.61 -13.23,24.94z"/>
   <path class="fil38" d="M39.36 483.35c4.3,-0.55 8.93,-2.28 13.84,-3.38 10.76,-2.42 10.97,-4.81 23.66,-13.22 2.63,-1.74 9.12,-5.64 11.02,-8.25l-21.03 0.15c-0.17,-0.25 -0.36,-0.13 -0.45,0.29l-2.82 2.83c-6.38,3.78 -10.4,1.24 -13.27,6.13 -2.22,3.79 -1.24,4.36 -5,8.38 -1.02,1.1 -1.02,0.98 -1.53,1.54 -3.07,3.39 -1.52,2.97 -4.42,5.53z"/>
   <path class="fil8" d="M243.37 43.99c10.75,1.95 16.49,2.65 29.15,0.34 1.31,-2.34 1.65,-5.22 1.76,-8.41 -4.05,-2.74 -2,-0.71 -5.54,-1.89 -4.6,-1.53 -2.28,-0.62 -4.6,-4.09 -5.11,-4.16 -10.31,-2.2 -17.75,1.7 -8.14,4.27 -9.05,6.92 -3.02,12.35z"/>
   <path class="fil39" d="M210.49 210.72l-1.1 4.8 3.14 2.31c0.19,0.13 0.47,0.33 0.64,0.45l1.29 0.91c5.31,-1.51 8.09,0.48 9.82,3.65l6.77 2.51 1.08 -1.77c0.18,-5.69 0.88,-0.23 -4.79,-8.37 -1.54,-2.22 -3.74,-4.2 -6.52,-5.93 1.84,-3.51 1.34,-0.47 2.99,-4.83 4.73,-12.54 -0.06,-2.91 7.42,-15.56l0.85 -1.3 -0.19 -2.8c-5.47,0.73 -1.21,1.81 -6.79,0.89l5.47 -14.96c0.3,-1.55 0.27,-0.83 0.17,-2.34 -0.18,-2.63 0.12,-0.91 -0.7,-2.21 -3.84,2.96 -10.6,16.07 -11.78,21.17 1.26,0.85 1.81,1.3 3.07,1.98 0.93,0.5 1.19,0.58 2.1,1.03 0.15,0.08 0.59,0.55 0.7,0.34 0.1,-0.2 0.48,0.2 0.69,0.34 -7.58,9.4 -2.63,8.9 -10.18,16.34 -2.15,2.12 -1.85,2.35 -4.15,3.35z"/>
   <path class="fil40" d="M336.8 457.48c-1.96,-3.69 -7.29,-5.28 -12.61,-7.4 -17.22,-6.86 -40.34,-0.48 -45.72,-7.71 -8.84,3.36 -10.08,5.91 -16.15,10.26 4.07,4.48 8.37,2.33 16.34,1.05 17.55,-2.82 41.54,-1.03 58.14,3.8z"/>
   <path class="fil35" d="M325.14 138.69c0.73,-1.11 0.46,-1.02 1.58,-1.77 1.76,0.42 4.79,5.33 20.69,1.85 8.25,-1.81 10.13,-5.13 19.08,-6.65 2.33,0.27 7.08,0.43 8.73,0.26 2.27,-0.23 1.47,0.04 3.42,-1.09 0.26,-0.15 2.55,-1.99 2.95,-2.31l11.81 -8.07c-4.46,-1.51 -8.53,1.05 -12.68,3.02 -18.67,8.92 -37.19,-0.04 -42.91,4.5 -2.71,3.23 -1.58,6.96 -6.19,7.29 -2.98,0.21 -2.58,-1.39 -6.01,-0.07 -1.67,0.64 -0.74,-0.28 -1.27,1.25 -1.19,3.49 -1.73,-0.18 0.8,1.79z"/>
   <path class="fil41" d="M272.13 436.96c9.08,-5.24 2.72,-9.15 15.32,-12.34 4.25,-1.07 6.79,-2.21 10.34,-3.07 5.42,-1.3 7.55,0.43 10.52,-1.5 4.89,-3.17 1.48,-2.85 8.38,-4.97 10.17,-3.14 19.24,-3.44 29.29,-4.52 5.13,-0.56 4.7,-1.47 5.43,-2.07 -6.46,-2.45 -22.02,-2.53 -30.86,-0.76 -6.97,1.4 -3.57,2.3 -6.47,2.74 -0.87,0.13 -0.71,-0.19 -2.33,-0.39 -5.24,-0.64 -20.38,4.59 -26.3,10.76 -6.37,6.65 -12.26,10.49 -13.32,16.12z"/>
   <path class="fil42" d="M92.63 448.28c6.28,0.02 9.22,-3.31 7.4,-9.63 3.71,3.09 17.68,5.56 17.4,8.32 -0.62,-2.06 -0.88,-3.42 -2.66,-5.36 -3.68,-4.01 -3.8,1.53 -10.23,-6.18l-14.97 -11.7c-1.5,-1.12 -3.92,-2.85 -5.25,-3.98 -3.1,-2.63 -1.84,-2.66 -4.99,-4.11 1.19,4.65 4.52,9.66 6.43,13.87 6.19,13.6 1.15,8.86 -2.19,13.88 3.16,2.52 5.5,3.86 9.06,4.89z"/>
   <path class="fil0" d="M180.11 245.35c-3.64,0.52 -5.02,2.51 -9.03,1.44 -3.86,-1.02 -5.42,-1.52 -6.48,-4.57 3.39,-2.99 8.69,-2.13 13.52,-1.13 1,-5.94 -17.61,-13.37 -20.81,-11.33 -1.33,1.24 -1.07,0.34 -1.79,2.61 -3.6,11.35 7.76,15.91 10.91,18.08 11.14,7.65 22.88,-0.37 17.1,-7.82 -2.89,0.33 -0.26,-0.52 -3,2.24 -0.08,0.08 -0.24,0.37 -0.42,0.48z"/>
   <path class="fil43" d="M271.36 411.59l2.19 7.07c8.42,-5.49 23.46,-9.45 34.87,-11.99 6.74,-1.51 17.33,-1.38 21.18,-1.94 0.01,0 1.98,0.33 4.59,-1.67 -22.06,-5 -46.08,-1.1 -62.83,8.53z"/>
   <path class="fil44" d="M140.77 176.07c0.74,1.36 0.33,1 1.35,2.08 2.71,2.86 4.26,1.78 6.66,5.79l9.49 21.05c1.58,4.25 0.87,8.33 3,13.55 0.91,0 1.85,0.19 3.15,0.03l3.88 -0.98c-0.8,-11.89 -0.13,2.22 -5.78,-15.37 -2.59,-8.05 -3.66,-5.18 -8.04,-18.29l-4.7 -9.27c-2.56,-5.54 -6.73,-6.85 -15.19,-7.31 2.01,3.16 3.78,5.18 7.3,7.31l-1.12 1.41z"/>
   <path class="fil45" d="M101.85 472.63c2.99,-0.3 4.8,-0.5 7.52,1.02 3.47,1.93 3,2.32 3.76,4.94l6.61 -0.11c-0.81,5.46 -7.35,7.55 -9.87,13.24 4.24,-0.39 7.56,-1.7 10.76,-3.03 1,-3.37 -0.56,-4.97 3.64,-7.27 2.58,-1.43 5.02,-1.3 7.37,-3.35 0.43,-2.28 2.64,-0.7 -5.44,-7.8 -2.07,-1.82 -5.42,-3.46 -7.38,-5.79l-4.77 0.98c-2.38,1.24 -2.76,1.9 -5.63,3.1 -3.83,1.6 -3.92,0.61 -6.57,4.07z"/>
   <path class="fil36" d="M302.97 195.74c4.79,-4.49 27.33,-41.83 31,-47.89 -7.58,-2.09 -6.05,-1.09 -13.54,8.25 -1.73,2.15 -1.99,3.39 -3.53,5.66 -4.27,6.36 -14.37,28.3 -13.93,33.98z"/>
   <path class="fil46" d="M232.13 223.58c0.27,-0.21 1.29,-0.98 1.51,-1.05 1.35,-0.47 0.27,-0.36 2.6,-0.56 2.88,4.03 0.82,-0.58 2.32,4.38 4.26,-3.75 4.2,0.88 8.15,-2.29l2.94 -2.85c-3.95,-4.56 -14.62,-10.85 -22.36,-11.28l5.67 -11.39 -0.88 -10.95 -0.85 1.3c-7.48,12.65 -2.69,3.02 -7.42,15.56 -1.65,4.36 -1.15,1.32 -2.99,4.83 2.78,1.73 4.98,3.71 6.52,5.93 5.67,8.14 4.97,2.68 4.79,8.37z"/>
   <path class="fil0" d="M197.71 266c-3.28,7.97 -1.67,5.47 1.35,10.24 2.62,4.12 0.87,5.19 6.85,5.54 4.95,-6.77 6.76,-15.17 6.04,-25.93 -0.61,-1.44 -1.47,-6.32 -3.77,-7.57l-2.44 9.84c-8.24,4.6 -2.85,-1.57 -8.03,7.88z"/>
   <path class="fil22" d="M264.14 29.94c2.32,3.47 0,2.56 4.6,4.09 3.54,1.18 1.49,-0.85 5.54,1.89 -0.11,3.19 -0.45,6.07 -1.76,8.41l10.73 -0.07c0.24,-0.13 0.59,-0.24 0.77,-0.31 0.19,-0.07 0.56,-0.22 0.79,-0.3 6.18,-2.26 7.05,-1.78 9.4,-9.92l-5.42 0.11c-0.01,0.01 -2.95,3.4 -6.83,1.06 1.1,-3.47 3.78,-4.8 7.59,-5.23 -1.64,-4.81 -6.92,-2.88 -11.47,-2.33 -7.43,0.9 -6.68,2.71 -13.94,2.6z"/>
   <path class="fil8" d="M316.93 32.69c5.79,3.21 5.04,3.35 10.27,8.71 4.18,4.28 5.49,4.94 11.34,7.97 4.27,-12.95 -0.41,-5.41 -1.28,-14.8 -5.29,-1.39 -2.68,-0.73 -5.31,-4.79 -3.21,-3.17 -5.35,-5.55 -10.56,-5.41 -2.51,1.88 -4.88,3.9 -4.46,8.32z"/>
   <path class="fil47" d="M92.63 448.28c2.3,2.69 2.17,1.71 4.1,3.27 3.39,2.73 0.3,0.72 2.96,3.57l26.01 0.68 -8.27 -8.83c0.28,-2.76 -13.69,-5.23 -17.4,-8.32 1.82,6.32 -1.12,9.65 -7.4,9.63z"/>
   <path class="fil0" d="M222.46 256.71c-1.06,8.96 -5.91,6.03 -5.46,16.22 0.24,5.44 1.3,13.6 6.55,15.01 2.66,-2.6 2.3,-2.05 3.02,-6.66 1.09,-6.3 3.68,-19.71 3.01,-25.33 -4.16,-0.75 -4.37,-0.79 -7.12,0.76z"/>
   <path class="fil48" d="M283.25 44.26c0.82,0.33 18.81,3.65 20.16,3.72l0.5 -7.58c4.07,-0.73 3.2,-0.32 5.59,1.2 2,1.28 2.23,1.18 4.72,2.53l-0.46 4.28c11.99,3.47 6.04,-7.63 -2.08,-11.06 -5.23,-2.2 -17.18,-5.93 -22.89,-3.51l5.42 -0.11c-2.35,8.14 -3.22,7.66 -9.4,9.92 -0.23,0.08 -0.6,0.23 -0.79,0.3 -0.18,0.07 -0.53,0.18 -0.77,0.31z"/>
   <path class="fil27" d="M250.53 221.18c2.93,-0.94 11.1,-3.48 11.48,0.81 5.37,-0.34 3.1,-0.28 6.25,2.78 -0.06,-3.21 0.73,-4.21 4.06,-4.95 3.32,-0.74 5.47,0.43 8.57,-2.08l-2.78 -0.92c1.07,-14.09 -2.99,-6.93 -3.43,-6.71 -2.5,-5.79 -3.35,-8.37 -10.35,-7.63 0.07,6.32 3.02,6.38 1.63,12.02 -7.74,0.51 -13.03,0.45 -15.43,6.68z"/>
   <path class="fil49" d="M268.87 107.62c4.1,-0.21 2.84,-2.46 1.47,2.12 4.87,-1.95 8.24,-3.38 10.44,2.13 -2.09,4.79 -0.62,0.86 -4.34,4.39 4.36,0.5 22.77,3.7 26.47,1.85l3.33 -1.9c1.09,-0.48 1.08,-0.29 2.23,-0.82 1.6,-0.74 1.15,-0.37 1.92,-1.12 -10.54,-2.54 -27.43,-5.64 -35.06,-12.47 -4.13,7.2 -1.52,1.57 -6.46,5.82z"/>
   <path class="fil50" d="M269.19 174.83c-1.43,1.6 -2.06,1.85 -2.74,6.51 -0.36,2.45 -0.53,4.69 -0.39,7.42 7.35,-1.35 0.67,-3.48 14.45,-14.09 4.47,-3.45 10.72,-14.18 12.08,-15.65 9.86,-10.73 1.95,0.17 7.24,-12.12l-13.42 11.06c-1.71,1.72 -2.05,2.17 -3.52,3.69 -11.09,11.39 -7.05,14.87 -12.82,17.41 -1.39,-2.11 -1.9,3.4 -0.88,-4.23z"/>
   <path class="fil31" d="M286.74 396.92c0.37,0.07 -0.51,0.51 2.71,0.23 0.9,-0.08 1.76,-0.35 2.63,-0.56 0.6,-2.63 0.24,-6.02 0.91,-9.34 0.46,-2.26 0.77,-2.53 1.46,-4.82 0.59,-1.98 0.63,-2.83 1.2,-4.99 2.72,-10.2 7.47,-12.65 5.21,-16.89 -3.38,0.14 -1.1,-1.02 -4.13,1.78l-3.27 3.88c-9.06,10.42 -2.18,7.48 -5.67,12.81 -1.95,2.98 -1.83,-0.32 -2.37,4.81 -0.4,3.77 0.57,10.12 1.32,13.09z"/>
   <path class="fil7" d="M233.99 332.76c0.16,0.16 0.39,0.21 0.46,0.52l2.3 3.2c0.15,0.24 0.36,0.6 0.49,0.8 0.12,0.21 0.32,0.55 0.49,0.83l2.58 -1.63c4.48,-4.93 10.36,2.99 15.05,-4.23 3.98,-6.12 3.46,-13.46 -5.48,-12.47 -3.85,0.48 -10.76,7.91 -14.2,11.27l-1.69 1.71z"/>
   <path class="fil17" d="M246.93 186.66l1.57 1.16c4.31,-14.99 2.76,-21.84 12.01,-41.49 1.73,-3.66 5.14,-6.98 3.92,-12.34 -6.98,1.32 -6.68,2.9 -8.8,8.58 -3.08,8.25 -11.38,38.4 -8.7,44.09z"/>
   <path class="fil15" d="M402.82 211.5l0.85 -9.22c-5.47,-1.32 -5.81,-0.07 -10.47,-0.01 -4.79,0.06 -15.94,-3.21 -30.63,-0.83 12.48,6.79 16.68,5 28.59,7.51l11.66 2.55z"/>
   <path class="fil51" d="M180.39 330.01c-0.49,-4.42 -1.21,-6.55 -1.55,-10.84 -1.04,-12.93 3.53,-0.45 1.49,-21.99 -1.26,-13.41 6.97,-1.79 -3.54,-17.13 -1.43,-2.08 -0.58,-1.29 -2.51,-3.14 -1.18,8.26 2.17,21.03 0.59,28.42 -1.64,7.72 -0.84,5.89 0.28,13.32 0.24,1.58 0.71,3.48 1.41,5.38 1.65,4.51 2.19,4.54 3.83,5.98z"/>
   <path class="fil52" d="M114.05 465.46l4.77 -0.98c1.96,2.33 5.31,3.97 7.38,5.79 8.08,7.1 5.87,5.52 5.44,7.8 7.19,-0.23 0.38,-0.99 11.52,-1.48 -0.6,-2.02 -8.32,-13.85 -9.6,-15.56l-13.33 -1.12c-3.33,3.64 -2.12,2.34 -6.18,5.55z"/>
   <path class="fil35" d="M254.12 440.93l3.56 0.05c-1.3,-10.33 -9.81,-11.57 -1.62,-19.98 0.16,-0.16 0.43,-0.47 0.56,-0.6 0.13,-0.14 0.4,-0.39 0.56,-0.62 -2.18,-1.03 -4.6,-0.72 -6.66,0.93 -1.2,0.96 -3.35,3.48 -4.51,4.79 -4.95,5.58 -4.38,7.74 -3.28,15.46l11.39 -0.03z"/>
   <path class="fil13" d="M122.04 150.58c6.74,0.31 3.46,0.2 8.46,2.35 2.9,1.25 5.75,1.04 9.62,0.79 -7.47,-10.3 -17.48,-17.86 -31.4,-18.68 2.33,4.01 5.19,3.61 7.88,7.13 2.7,3.53 1.98,5.27 5.44,8.41z"/>
   <path class="fil53" d="M417.83 214.41l8.66 0.43c-2.07,-7.51 -4.15,-14.06 -6.98,-20.5 -4.07,-9.28 -4.46,-9.96 -15.08,-12.06 4.68,10.99 7.95,8.69 10.46,15.64 4.71,13.02 5.22,6.99 2.94,16.49z"/>
   <path class="fil39" d="M174.32 449.66c4.14,-4.55 7.03,-20.3 8.72,-23.76 0.79,-1.61 0.58,-1.06 1.3,-2.02 -0.47,-4.25 1.85,-9.75 2.94,-13.83l-5.35 3.66 -3.79 9.73c-0.65,2.17 -0.93,3.06 -1.45,4.6 -1.64,4.86 -5.22,16.03 -6.09,20.47l3.72 1.15z"/>
   <path class="fil35" d="M328.51 118.26c5.02,2.23 10.39,2.69 16.91,1.13 1.47,-3.9 -0.39,-4.27 -0.4,-9.22 -2.34,-2.4 2.52,-1.28 -5.09,-1.94 -2.75,-0.24 -3.68,-0.04 -6.23,0.47 -1.91,2.68 -7.19,3.83 -10.33,5.41 1.88,0.51 1.06,-0.36 2.91,1.16 2.34,1.94 0.54,-0.62 2.23,2.99z"/>
   <path class="fil17" d="M205.2 311.76c0.62,-6.02 3.4,-8.43 3.72,-11.27 0.36,-3.2 -1.27,-1.23 0.03,-6.28 0.88,-3.41 1.22,-1.02 1.43,-5.39 -6.99,2.16 -4.41,7.94 -5.51,12.44 -1.11,4.53 -6.95,8.88 -1.89,13.83 -1.57,2 -2.49,2.31 -2.71,6.16 5.1,0.46 2.55,1.05 5.36,-1.81 6.91,-7.04 8.14,-6.93 7.76,-11.34 -5.07,-0.26 -3.58,1.63 -8.19,3.66z"/>
   <path class="fil35" d="M294.45 104.67c16.87,2.34 12.52,-2.54 12.49,-4.09l-2.25 -0.58c-0.23,-0.03 -3.81,-0.27 -3.92,-0.27 -12.87,-0.08 -12.81,-6.2 -19.41,-5.14 -7.66,1.23 -2.22,-0.85 -4.67,2.91 5.56,2.26 10.65,5.85 17.76,7.17z"/>
   <path class="fil54" d="M171.66 352.11c3.72,-10.96 1.7,-10 -0.54,-20.28 -0.97,-4.47 0.51,-3.53 -2.66,-6.18 -4.04,3.3 -1.39,1.28 -3.23,7.02 -1.18,3.68 -1.92,2.86 -0.76,7.85 1.04,4.46 3.83,9.37 7.19,11.59z"/>
   <path class="fil44" d="M226.59 135.67c0.45,-0.71 1.51,-4.61 2.46,-7.36 0.91,-2.62 1.94,-4.56 3.34,-7.35 -3.81,-2.47 -4.13,-4.04 -5.31,-7.96l-10.06 -0.29c4.81,2.78 -0.67,1.42 6.12,5.68 -0.24,3.57 -0.27,6.81 -0.23,10.18 0.11,9.77 0.76,7.52 3.68,7.1z"/>
   <path class="fil55" d="M281.78 395.18c-3.31,-1.26 -10.99,-3.19 -13.67,-7.21 -1.5,-2.25 0.27,1.08 -1.04,-2.23 -0.11,-0.3 -0.52,-1.36 -0.59,-1.89 -0.06,-0.54 -0.15,-0.68 -0.28,-1.01 -0.59,6.53 0.91,16.36 3.87,21.73l11.66 -5.31 0.05 -4.08z"/>
   <path class="fil50" d="M140.12 153.72c-3.87,0.25 -6.72,0.46 -9.62,-0.79 -5,-2.15 -1.72,-2.04 -8.46,-2.35 2.94,6.32 14.24,12.79 20.76,14.87 0.12,-0.24 0.28,-0.88 0.32,-0.74l1.33 -3.79c-1.01,-2.83 -0.54,-0.91 -2.08,-3.44 -1.25,-2.04 -0.7,-1.74 -2.25,-3.76z"/>
   <path class="fil17" d="M250.53 221.18l-0.88 0.03 -2.94 2.85c-3.95,3.17 -3.89,-1.46 -8.15,2.29 -2.55,2.05 -1.59,0.96 -3.02,4.17 5.65,-1.48 1.67,-0.7 5.79,-2.73l4.11 4c2.47,-3.4 3.98,-4.61 9.09,-4.81 7.06,-0.28 3.43,-0.06 7.48,-4.99 -0.38,-4.29 -8.55,-1.75 -11.48,-0.81z"/>
   <path class="fil56" d="M154.22 368.21l14.02 -10.01 -8.78 -8.66c-1.1,1.79 -7.78,7.74 -5.24,18.67z"/>
   <path class="fil17" d="M270.34 109.74c-0.63,1.96 -8.13,7.35 -5.5,17.51 3.48,-2.08 4.91,-5.48 5.58,-10.1l6.02 -0.89c3.72,-3.53 2.25,0.4 4.34,-4.39 -2.2,-5.51 -5.57,-4.08 -10.44,-2.13z"/>
   <path class="fil39" d="M191.84 437.24c-2.2,6.35 -4.87,6.4 -0.8,11.26 4.45,-1.71 5.97,-7.68 7.53,-11.95 2.47,-6.78 6.04,-6.73 3.25,-13.39 -3.93,1.64 -1.23,-1.15 -3.91,3.54 -1.16,2.02 -0.97,2.58 -1.7,4.29 -1.17,2.76 -2.54,5.1 -4.37,6.25z"/>
   <path class="fil57" d="M266.2 382.84c0.13,0.33 0.22,0.47 0.28,1.01 0.07,0.53 0.48,1.59 0.59,1.89 1.31,3.31 -0.46,-0.02 1.04,2.23 2.68,4.02 10.36,5.95 13.67,7.21l-0.65 -7.66c-4.76,-1.54 -1.25,-0.03 -4.27,-2.3 -1.62,-1.22 -1.62,-1.21 -3.54,-2.53 -3.28,-2.24 -2.82,-3.46 -6.19,-4.99l-0.93 5.14z"/>
   <path class="fil17" d="M85.69 91.11c-1.13,5.85 -3.2,5.16 -2.69,11.66 5.06,1.39 9.3,-0.29 14.86,0.3 7.43,0.8 5.7,3 11.04,5.42 -2.48,-9.54 -11.41,-9.81 -21.41,-9.17 -0.13,-5.35 2.13,-6.45 0.93,-9.89 -2.12,0.95 -0.91,-0.4 -2.73,1.68z"/>
   <path class="fil58" d="M267.13 377.7c3.37,1.53 2.91,2.75 6.19,4.99 1.92,1.32 1.92,1.31 3.54,2.53 3.02,2.27 -0.49,0.76 4.27,2.3 -0.89,-16.78 -5.67,-6.6 -10.52,-19.77 -1.82,1.67 -2.68,-1.06 -3.48,9.95z"/>
   <path class="fil59" d="M173.04 30.12c5.74,0.51 9.54,-1.57 13.86,-3.6 3.65,-1.71 9.45,-2.78 12.31,-4.83 -7.87,-1.96 -19.13,-0.98 -24.05,4.42 -2.36,2.59 -0.73,-0.18 -2.12,4.01z"/>
   <path class="fil27" d="M166.5 370.77l2.38 0.4c0.76,5.04 0.36,4.82 2.91,7.56 0.17,0.17 0.49,0.42 0.74,0.63 0.73,-7.5 6.94,-14.02 10.21,-19.11 -2.92,-1.9 -9.44,1.35 -12.14,6.28 -2.17,3.97 -1.48,2.28 -4.1,4.24z"/>
   <path class="fil60" d="M277.34 157.39c6.95,-8.76 10.99,-14.78 20.06,-21.6 -5.56,0.25 -7.21,1.44 -10.46,4.29 -0.16,0.14 -0.35,0.38 -0.52,0.52 -1.38,1.17 -0.04,0.19 -1.79,1.32 -5.16,3.32 -9.57,5.7 -7.29,15.47z"/>
   <path class="fil61" d="M199.12 403.17l-0.12 5.5c3.77,1.5 5.67,3.11 11.81,1.65l-0.82 -10.58 -3.86 -1.57c-0.41,4.46 -1.46,6.44 -7.01,5z"/>
   <path class="fil62" d="M160.87 451.08c0.53,1.14 0.91,1.23 1.43,1.82 0.85,-1.02 2.25,1.04 1.43,-7.5 -0.88,-9.13 -0.3,-17.02 -2.77,-19.85 -1.32,7.64 -2.04,4.03 -3.13,7.1l3.04 18.43z"/>
   <path class="fil17" d="M250.9 285.94c-1.98,11.01 -14.19,14.1 -11.62,19.89 2.67,-1.24 2.87,-2.37 4.85,-3.89 4.13,-6.49 12.04,-10.95 13.68,-16.85 -2.71,-0.85 -4.24,-0.37 -6.91,0.85z"/>
   <path class="fil63" d="M272 322.46c3.66,-4.3 8.9,-11.37 -2.89,-10.56 -1.5,-0.85 -2.28,1.75 -1.51,-1.55 -2.33,9.07 3.55,-0.72 -2.06,14.27 3.3,-1.25 2.82,-1.43 6.46,-2.16z"/>
   <path class="fil19" d="M193.34 487.42c1.9,2.86 3.98,4.09 6.94,5.46 0.93,-0.82 0.76,-0.57 1.69,-1.59l9.46 -12.94c-6.56,3.42 -11.68,6.93 -18.09,9.07z"/>
   <path class="fil64" d="M180.11 245.35c0.08,-3.29 -0.42,-3.1 -1.99,-4.26 -4.83,-1 -10.13,-1.86 -13.52,1.13 1.06,3.05 2.62,3.55 6.48,4.57 4.01,1.07 5.39,-0.92 9.03,-1.44z"/>
   <path class="fil62" d="M173.59 410.84c1.53,-2.05 3.84,-18.27 3.99,-20.85 -5.33,0.2 -4.95,3.34 -5.57,8.62 -0.66,5.6 -1.14,8.91 1.58,12.23z"/>
   <path class="fil22" d="M303.41 47.98l10.35 0.43 0.46 -4.28c-2.49,-1.35 -2.72,-1.25 -4.72,-2.53 -2.39,-1.52 -1.52,-1.93 -5.59,-1.2l-0.5 7.58z"/>
   <path class="fil17" d="M218.54 408.63l-0.12 1.92c1.32,3.03 -2.58,2.74 2.38,2.31 1.23,-1.9 7.04,-14.8 -0.19,-17.95 -1.96,8.51 0.82,10.17 -2.07,13.72z"/>
   <path class="fil64" d="M272.31 248.95l8.6 0.23c0.54,-4.16 0.64,-3.54 -2.39,-5.12 -2.33,-1.21 -4.1,-2.12 -7.43,-1.95 -2.48,3.65 -0.89,4.21 1.22,6.84z"/>
   <path class="fil17" d="M199.12 403.17c5.55,1.44 6.6,-0.54 7.01,-5 -1.34,-2.4 -0.1,-0.96 -2.03,-2.49 -1.96,4.38 1.61,2.2 -2.8,3.32 -1.61,-3.68 2.3,-5.23 -3.62,-5.44 -1,4.58 -1.76,6.12 1.44,9.61z"/>
  </g>
 </g>
</svg>
