<?xml version="1.0" encoding="UTF-8"?>
<!DOCTYPE svg PUBLIC "-//W3C//DTD SVG 1.1//EN" "http://www.w3.org/Graphics/SVG/1.1/DTD/svg11.dtd">
<!-- Creator: CorelDRAW 2020 (64-Bit) -->
<svg xmlns="http://www.w3.org/2000/svg" xml:space="preserve" width="152.996mm" height="175.792mm" version="1.1" style="shape-rendering:geometricPrecision; text-rendering:geometricPrecision; image-rendering:optimizeQuality; fill-rule:evenodd; clip-rule:evenodd"
viewBox="0 0 15299.6 17579.22"
 xmlns:xlink="http://www.w3.org/1999/xlink"
 xmlns:xodm="http://www.corel.com/coreldraw/odm/2003">
 <defs>
  <style type="text/css">
   <![CDATA[
    .fil2 {fill:#020101}
    .fil1 {fill:#020300}
    .fil43 {fill:#020500}
    .fil41 {fill:#040A01}
    .fil10 {fill:#050101}
    .fil3 {fill:#050501}
    .fil4 {fill:#050505}
    .fil16 {fill:#060900}
    .fil26 {fill:#0A0C01}
    .fil27 {fill:#0D1200}
    .fil44 {fill:#121401}
    .fil38 {fill:#3D2A46}
    .fil45 {fill:#454919}
    .fil48 {fill:#555A27}
    .fil32 {fill:#5C6327}
    .fil30 {fill:#5D6518}
    .fil11 {fill:#62661B}
    .fil6 {fill:#636613}
    .fil8 {fill:#646B13}
    .fil14 {fill:#656A12}
    .fil28 {fill:#656B1B}
    .fil5 {fill:#666A15}
    .fil20 {fill:#685174}
    .fil46 {fill:#768246}
    .fil23 {fill:#76843B}
    .fil36 {fill:#79863E}
    .fil22 {fill:#79893C}
    .fil0 {fill:#7C8A3D}
    .fil33 {fill:#8D7544}
    .fil47 {fill:#8F8D6F}
    .fil24 {fill:#965218}
    .fil29 {fill:#9DAE4E}
    .fil7 {fill:#A3B353}
    .fil37 {fill:#A7B858}
    .fil40 {fill:#A9B768}
    .fil42 {fill:#ACBC63}
    .fil9 {fill:#ACBD5B}
    .fil35 {fill:#B68F2E}
    .fil18 {fill:#C6E6E8}
    .fil19 {fill:#C86919}
    .fil34 {fill:#C86C25}
    .fil31 {fill:#C99121}
    .fil12 {fill:#CDF0F3}
    .fil15 {fill:#EDCB15}
    .fil39 {fill:#EDEDE9}
    .fil13 {fill:#F2EEE9}
    .fil21 {fill:#F4E391}
    .fil17 {fill:#F4EDDC}
    .fil25 {fill:#FBF9F6}
   ]]>
  </style>
 </defs>
 <g id="Layer_x0020_1">
  <metadata id="CorelCorpID_0Corel-Layer"/>
  <g id="_1842368046400">
   <path class="fil0" d="M8782.38 7516.05c26.15,-152.38 61.27,-199.26 218.69,-210.21 -4.2,206.05 -39.24,244.66 -218.69,210.21zm-1586.56 -1655.39l8.48 208.62c-157.8,57.2 -569.29,122.29 -600.17,-86.96 -37.1,-251.21 456.22,-190.36 591.69,-121.66zm1272.9 128.67c-135.39,45.66 -984.17,15.44 -1144.19,-24.55 58.08,-165.52 150.37,-111.84 545.03,-104.46 373.55,7.01 534.28,-47.38 599.16,129.01zm974.56 -676.8c128.79,-61.99 169.71,-23.67 255.91,63.03 -41.84,35.51 28.37,75.08 -134.88,23.09 -78.06,-24.85 -87.5,-50.66 -121.03,-86.12zm-4476.02 -534.79c-5.38,-285.67 395.28,-153.22 284.36,264.44 -43.01,12.92 -82.63,36.01 -142.98,19.18l-118.13 -120.83c6.37,139.46 14.85,191.79 -29,302 -166.32,-82.17 -155.66,-322.43 -133,-517.04 66.23,6.97 86.87,24.6 138.75,52.25zm2126.38 164.6c242.11,165.35 4.74,-154.73 27.61,48.05 0.26,2.1 73.19,-3.57 -55.94,118.14 -98.66,92.95 -96.56,60.26 -165.05,181.8 349.29,2.73 612.04,-203.46 763.29,162.16l47.63 109.57c1.72,161.79 -726.44,96.78 -894.69,120.58 -156.41,22.11 -263.26,70.04 -398.56,137.52 -187.3,93.38 -213.7,111.47 -173.83,-119.23 -206.22,29.93 -399.99,82.13 -350.34,-202.11l93.67 -28.75c-69.71,-86.91 -66.52,-97.07 -28.07,-207.61 -102.11,20.4 -125.28,54.48 -173.83,-54.81 78.81,-89.89 893.56,-398.56 993.52,-419.96 171.44,-36.64 195.95,11.08 339.22,-13.93 31.77,-5.54 606.13,-261.92 815.63,-170.18 -20.69,98.71 -4.87,87.88 -143.82,135.47 -128.88,44.19 -515.23,99.42 -696.44,203.29zm2867.65 -392.18c159.18,42.38 246.17,63.7 270.47,182.76 -51.2,-5.79 -71.59,-8.77 -144.07,-36.97 -210.76,-81.96 -84.27,-70.04 -126.4,-145.79zm-640.34 7.21l153.85 15.41c60.9,96.77 129.26,235.05 171.06,350.59 -227.12,427.14 -399.61,419.25 -887.01,606.51 -158.85,61.02 -202.74,75.75 -349.8,23.79 -5.62,-147.26 -18.88,-194.31 70.26,-298.93 148.77,21.03 103.23,-28.7 138.95,-82.46 -186.13,99.58 -41.76,34.37 -98.12,-0.17 56.11,-167.32 109.37,-182.35 163.38,-390.84 -293.6,-282.77 -416.44,-62.49 -412.79,-343.88l342.58 4.95 -49.44 -24.21c-289.82,-88.22 -421.64,56.7 -517.92,-180.5 147.1,-81.42 398.15,-0.59 670.47,28.83 400.41,43.27 453.49,206.48 604.53,290.91zm248.83 -772.9c192.54,65.13 170.3,258.94 4.86,337.16l-4.86 -337.16zm-3945.77 575.62c183.48,-323.06 510.53,-369.1 837.91,-457.61 351.35,-94.93 302.83,-16.7 692.92,-103.24 245.5,-56.49 301.28,-170.72 805.09,-173.78 119.31,-0.72 177.27,-8.1 237.83,89.85 -77.51,74.07 -537.26,68.78 -730.23,136.47 -289.48,101.56 -408.5,353.66 -492.98,377.54 -165.1,46.62 -337,-77.26 -718.6,70.92 -114.78,44.57 -214.87,57.75 -339.01,90.15 -141.26,36.89 -218.15,110.25 -343.67,89.43 -8.98,-113.1 -45.66,-51.12 50.74,-119.73zm3576.17 -809.46c106.77,33.66 90.44,41.92 122.97,164.68 -45.66,85.74 -31.9,132.53 -153.02,116.16l30.05 -280.84zm-371.49 -132.24c-13.18,135.3 -19.72,238.71 -173.53,247.06l50.65 -258.68c-131.82,-49.27 -138.95,-48.06 -108.48,-170.85 141.97,11.2 147.05,82.04 231.36,182.47zm-668.07 -190.99c127.16,42.6 329.44,131.65 241.48,318.11 -106.1,-32.32 -19.56,14.73 -90.02,-63.54 -199.56,-221.75 -183.31,-59.8 -151.46,-254.57zm-2082.32 -438.43l108.32 73.57c-48.77,232.08 -332.97,262.92 -352.32,560.3 160.15,-50.7 504.95,-281.81 643.32,-133.92 -52.59,97.41 -228.6,121.5 -520.94,253.53 -102.61,46.33 -163.55,76.79 -253.73,137.73 -166.95,112.85 -77.56,39.41 -122.71,276.86 190.11,-59.09 330.78,-186.97 481.23,-273.67 182.43,-105.09 370.49,-106.26 611.96,-110.25 110.29,-295.65 1111.92,-594.12 1257.04,-58.79l-82.59 13.93c-169.5,87.17 -127.41,20.23 -263.85,31.06 -128.33,10.19 -85.9,48.13 -212.35,75.49 -154.56,-58.46 -149.02,-183.52 -365.03,-36 -91.4,62.44 -230.56,270.39 -299.56,77.43 -284.33,14.52 -424.87,17.92 -648.81,149.69 -147.64,86.92 -318.82,249.16 -461.64,202.91 -62.19,149.49 -91.53,112.39 -229.89,83.1l-1.13 -316.18c-95.77,100.97 2.56,288.44 -90.32,431.08 -118.85,-59.63 -51.62,33.58 -96.94,-177.01 -108.78,-505.83 170.97,-590.94 360.5,-782.39 77.43,-78.23 101.05,-187.09 170.26,-289.83 200.3,-297.42 940.31,-757.34 1054.08,-721.16 72.98,142.98 -391.55,184.87 -684.9,532.52zm-1193.67 1212.3l123.05 104.88c-22.33,168.7 -15.57,89.3 -62.24,138.65 96.99,278.75 -207.15,15.7 -280.59,-22.83 -120.57,-63.2 -102.06,-12.8 -255.33,-64.71 -109.82,-37.18 -79.98,-90.31 -254.44,-37.56l-701.65 633.2c100.68,92.66 59.09,16.03 85.49,134.97 -271.57,15.94 -60.9,2.18 -146.63,65l503.64 15.53 26.27 -186.96c186.88,-66.98 364.7,25.51 547.88,92.95 234.01,86.12 306.36,190.45 217.69,415.52l-163.89 11.33c26.11,69.41 33.37,78.23 21.87,176.72 -118.68,14.36 -226.16,-86.66 -330.41,-136.94 -172.98,-83.43 -645.07,-175.67 -860.11,-197.62 -530.25,-54.18 -235.39,-371.32 -644.66,99.76 51.46,104.37 134.21,234.13 211.35,315l99.8 -84.94c206.48,-150.12 709.91,-174.41 828.89,-151.46 148.27,28.62 36.93,-0.54 106.09,60.6l133.71 106.35c62.95,34.41 109.03,-19.31 260.19,72.64 111.01,67.53 154.61,121.62 251.01,171.77l-34.54 129.13c94.42,-61.9 103.24,-102.44 202.36,-166.9 19.9,-12.97 111.26,-58.88 125.19,-61.44 126.83,-23.29 102.11,-14.56 170.51,49.1 -48.3,-162.53 -149.61,-293.81 -46.16,-422.9 90.56,48.22 619.56,801.45 -151.25,1057.4 33.74,133.37 53.63,119.9 80.53,258.56 379.43,-72.98 254.91,8.94 515.53,87.59 118.47,-140.47 631.01,-331.54 860.49,-373.8 390.12,-71.89 480.56,-95.27 825.2,-45.33 13.8,2.02 120.48,20.02 120.78,20.1 189.94,57.04 62.7,-3.73 124.18,68.37 126.23,-22.71 100.3,-14.65 246.89,27.15 253.02,72.14 519.8,116.08 635.21,262.38 158.89,-38.48 459.79,-39.91 557.83,-91.62 92.49,-48.8 532.14,-467.89 476.7,-156.66 -13.72,77.14 8.1,30.47 -71.93,97.28 -274.17,228.97 -557.91,318.28 -661.49,406.12 26.78,78.85 237.62,392.51 52.88,355.75 -107.43,-21.36 -134.71,-120.23 -192.88,-190.82l-37.52 40.96c-3.94,4.4 -13.51,14.81 -18.25,20.22 -483.04,548.09 -255.83,492.82 -1083.72,877.2 -229.51,106.55 -382.19,66.31 -647.25,56.91 78.1,120.27 178.82,136.09 366.87,149.82l364.7 -20.44c122.79,10.49 25.13,-37.9 103.07,39.45 461.3,-191.41 455.05,-432.18 657.24,-503.35 68.62,139.87 37.39,143.57 -36.93,262.84 -75.75,121.57 -107.1,136.22 -168.58,212.56l16.7 171.9c-96.06,61.77 -340.18,228.21 -346.85,314.54l306.94 23.16c110.33,-144.28 228.3,-328.14 301.16,-508.64l158.63 -477.83c57.75,-149.91 -11.2,-59.22 99.34,-118.94 26.19,37.56 79.48,5.88 -15.11,237.96 -33.62,82.38 -55.4,170.55 -93.54,264.93 -70.76,174.96 -124.94,303.51 -223.1,450.9 5.08,8.94 20.77,4.99 25.77,16.87 53.55,126.74 -12.59,13.81 54.22,23.71 14.56,2.18 122.67,-10.53 130.85,-11.42 45.12,-118.13 155.45,-277.44 269.64,-582.04 58.33,-155.57 -1.47,-128.79 137.69,-182.17l1.3 147.97 49.02 146.8c13.43,84.4 -4.49,107.31 -26.31,189.31 -39.95,149.95 -55.52,302.59 -60.06,442.97 272.03,-11.12 735.98,-261.75 854.75,-448.59 -75.8,-124.64 -142.4,-309.42 -157.25,-476.83 -8.86,-99.67 -11.13,-228.21 -1.01,-326.21 16.03,-154.94 7.3,-158.3 138.03,-174.08 130.3,-141.89 -18.26,-48.76 267.08,-363.64 75.49,-87.12 19.01,-32.19 138.4,-52.5 152.47,324.95 233.38,814.49 249.16,1220.78 78.94,74.91 210.51,490.47 386.64,732.2 107.35,147.34 426.35,437.04 515.48,445.68 101.02,9.78 36.05,37.9 101.77,-36.34 -249.49,-564.45 -62.61,-594.84 21.32,-709.91l252.01 -384.17c88.43,-128.96 102.19,-103.74 165.52,-232.29 93.04,-188.76 381.86,-703.74 389.46,-846.43 -423.41,181.93 -623.26,191.33 -829.57,799.35 -55.94,164.8 -26.73,341.94 -183.9,399.02 -79.65,-102.23 -27.9,-182.77 -88.88,-350.42 -122.38,-336.5 -264.81,-264.61 -25.27,-625.94 80.83,-121.96 86.58,-188.1 130.69,-334.48 136.1,-451.48 357.6,-826.62 568.06,-1235.05 98.96,-192.04 261.42,-311.6 445.19,-448.75l1037.05 -777.48c102.56,-86.96 171.6,-123.68 262.58,-199.39 98.54,-82 132.62,-161.36 275.01,-136.09 63.33,151.12 -194.85,1212.38 -205.26,1231.52 -92.53,169.67 1.18,63.49 -136.68,106.72 -11.46,-297.29 67.4,-374.6 80.07,-644.28 -49.27,-70.38 -91.15,20.36 -161.99,109.2 -70.46,88.38 -106.14,135.64 -111.68,272.07 -48.97,792.3 -361.75,1557.1 -822.47,2170.54 -362.09,482.15 -291.25,241.68 -648.47,843.28 -41.17,69.37 -91.99,133.12 -144.24,212.6 -96.9,147.39 -61.4,92.29 -177.98,212.78 -211.18,218.31 -55.73,320.63 -23.55,580.9 73.07,35.17 228.98,-82.92 304.56,-157.46 450.64,-444.43 192.75,-222.67 456.43,-608.06 123.8,-180.96 57.66,-182.68 261.12,-320.92 82.59,-128.04 180.71,-409.47 243.37,-564.2 92.2,-227.63 172.61,-350.43 281.51,-573.4 91.99,-188.26 149.82,-397.55 237.95,-615.9 89.6,-221.93 157.76,-388.07 250.88,-596.44l696.15 -1864.97c52.8,-164.09 159.56,-547.96 128.55,-707.77 -105.13,-67.61 -24.3,-11.08 -56.32,16.28l52.54 127.03c-498.44,19.06 -778.74,265.28 -1167.48,445.78l-1064.45 573.73c-129.55,97.03 -714.91,741.93 -772.03,860.74 -121.45,252.73 18.6,376.61 -228.59,588.17 -273.67,234.22 -291.46,301.7 -560.39,253.23 -149.02,102.73 -182.51,301.57 -410.1,368.34 -139.66,45.7 -174.12,42.81 -211.89,-110.37 -31.35,-127.12 -27.78,-261.79 1.39,-386.98 25.01,-14.73 97.11,-38.73 99.12,-39.87 61.02,-34.45 33.24,16.41 74.03,-75.54 -167.28,-149.86 -265.31,-95.18 -392.39,-168.83 60.6,-48.94 -100.43,-27.62 100.05,-44.36 72.06,-6 93.25,5.75 160.69,13.47 -8.81,-63.71 -19.55,-71.3 -6.88,-134.25 14.69,-73.07 30.34,-83.56 54.72,-118.94 83.56,5.12 172.53,24.64 258.06,46l-40.54 -337.46c-114.91,-8.85 -259.69,-57.07 -306.74,-136.77 110.25,-61.4 242.03,32.49 299.19,107.14 69.24,-31.26 92.7,-52.24 193.17,-66.72l44.15 96.94 86.16 52.96c65.13,-89.43 40.37,-23.37 70.38,-166.4 20.31,-96.98 5.66,-115.83 43.89,-196.74l22.37 -105.46c-87.71,-366.12 -154.14,-191.16 -139.75,-641.97 -49.44,-77.51 4.95,-42.72 -100.8,-85.23l-81.88 -157.3c-159.01,-249.03 -527.95,-511.07 -482.41,-709.2 -73.57,-85.53 -112.35,-82.34 -211.52,-119.02 -32.06,-11.83 -110.54,-38.02 -125.81,-53.25 -74.83,-74.58 -54.52,-22.96 17.2,-58.97 -10.74,-4.65 -24.34,-7.89 -33.49,-10.53 -8.98,-2.64 -21.99,-7.13 -32.9,-10.2l-93.33 -23.79c-680.96,-172.95 -216.93,-614.02 59.09,-417.62 100.76,71.73 123.17,144.12 187.38,208.58 59.89,60.1 163.92,100.43 227.63,148.56 13.85,155.11 29.54,79.36 -29.25,192.46 340.22,172.74 395.91,270.52 634.79,487.11 9.57,-13.59 54.39,34 8.56,-170.72 -97.19,-434.15 -252.81,-327.72 -107.6,-548.13 -207.91,-255.45 -541.25,-446.99 -811.56,-613.05 -950.72,-521.74 -2821.94,-363.27 -3549.4,212.44 -216.51,171.3 -1229.38,1102.59 -1283.43,1299.55 192.67,90.81 179.07,-176.1 467.89,319.78 -51.08,62.91 99.12,69.25 -121.04,37.27z"/>
   <path class="fil1" d="M2711.36 9660.27c427.73,208.2 429.91,97.24 276.48,785.96 -60.43,271.19 23,351.01 -178.57,494.49 -15.19,-137.15 53.76,-398.47 33.11,-648.64 -18.34,-221.84 -94.34,-422.98 -131.02,-631.81zm-1837.31 -5930.22l-213.99 -88.64c3.06,-169 50.02,-330.86 240.8,-302.87l-26.81 391.51zm147.72 -50.11l45.16 -262.55c88.97,-19.55 171.01,-12.04 296.87,-23.79 166.82,-15.57 208.83,-56.62 337.88,-77.47 93.71,-61.99 84.81,-64.8 221.79,-90.11 -40.83,218.11 -11.96,390.67 -219.57,471.67 -160.98,62.83 -464.28,100.09 -656.91,77.89l-25.22 -95.64zm1013.55 -923.86c-28.54,198.25 -27.83,183.31 -199.47,256.75 -1225.65,524.59 -1127.66,-478.38 -495.47,-453.75 220.37,8.61 556.11,57.21 694.94,197zm-1683.93 506.62c-140.21,-246.85 -15.07,-869.26 473.47,-1118.59 203.79,-103.99 533.23,-123.46 774.08,-76 433.27,85.41 410.57,153.69 613.35,264.02l-49.98 148.27 -49.36 85.86c-238.83,-56.53 -788.09,-361.21 -1176.62,-62.78 -153.65,118.01 -274.76,235.39 -252.6,478.34 15.94,174.45 -71.98,416.35 -221.67,523.96l-110.67 -243.08zm3436.13 11303.22l268.72 232.03 58.5 10.7c-6.63,-77.89 59.84,16.83 -47.38,-149.36 161.91,-0.04 90.39,9.53 152.67,-44.78 -188.18,-35.12 -252.43,-127.03 -357.85,-247.94 -97.4,-111.71 -175.8,-186.75 -288.48,-316.22l-919.33 -1176.88c-45.32,-72.22 -70.97,-149.4 -100.34,-218.44 -118.98,-279.46 -228.97,-580.07 -290.5,-909.51 46.17,-45.61 70,-64.08 134.72,-117 146,-171.73 148.14,-199.05 389.62,-278.24 111.59,-21.28 115.11,26.35 211.13,60.31 135.14,-44.07 133.54,-18.6 180.08,83.51 17.71,-28.45 7.89,15.86 52.42,-100.89 -134.59,-292.01 -133.54,-35.96 -88.55,-466.92 21.03,-201.28 -2.77,-412.75 44.86,-592.75 58.21,-219.99 292.93,-724.89 452.99,-851.67l924.37 1019c238.2,165.39 307.37,72.77 508.51,30.42 17.17,-102.56 109.92,-182.22 168.88,-274.75 85.15,-133.67 108.4,-186.38 184.7,-261.84 161.99,-339.8 222.17,-92.62 490.21,-270.6 143.28,-95.18 259.36,-306.53 311.27,-469.82l11.96 -146.97c-230.61,-6.25 -472.55,143.19 -564.54,260.66 -53.25,90.31 -126.82,151.54 -195.9,237.36 -55.52,69.04 -125.9,173.08 -178.28,248.28 -118.76,170.43 -223.3,313.03 -340.26,514.73l-109.16 74.74c-299.31,-202.53 -560.6,-465.79 -712.6,-763.21 -102.32,-200.19 -454.29,-781.35 -428.27,-993.99l-247.02 -42.64 -65.64 175.8c17.04,202.78 136.82,316.85 153.81,457.31 -196.78,-107.73 -480.77,-318.82 -617.33,-479.97l-110.38 -35.93c-32.81,43.15 -57.49,61.44 -111.46,106.81 60.35,135.39 321.26,290.12 463.23,394.49 38.49,28.29 33.2,29.46 73.91,58.75 -22.58,56.87 -30.01,81.8 -58.42,128.09 -4.16,6.84 -9.61,15.57 -14.1,22.07l-70.47 78.73c-78.94,-46.46 -291.96,-180.71 -348.7,-262.88l-749.99 -464.11c-55.82,-32.7 -17.96,25.76 -53.8,-49.99 -24.55,-51.83 -13.94,-21.06 -16.58,-72.6 -7.26,-140.92 69.04,-403.39 134.38,-526.14l-6.21 -117.42c32.44,-149.99 -73.53,-11 117.25,-77.31 6.17,-246.97 24.39,-182.47 79.78,-231.49l178.36 -303.08 148.48 92.66c70.67,50.45 74.49,60.94 107.65,123.47l50.31 -15.53 97.03 -10.7 -3.65 -87c-106.09,-94.89 -125.02,-42.64 -192.92,-237.32 -13.26,-70 -44.36,-260.66 -106.68,-273.92 -49.31,-62.41 -146.26,159.47 -8.1,-161.95l-71.22 69.92c-5.5,3.65 -15.65,10.66 -21.53,13.89 -5.03,2.77 -15.06,6.46 -20.1,8.6l-37.85 7.72c-116.09,26.4 -93.17,70.46 -143.66,-21.99l-99.29 -139.24c-114.15,-136.86 -236.78,-400.92 -257.85,-578.9l137.4 78.19c35.05,-158.55 1.64,-132.16 92.79,-132.58l-224.48 -155.06c-130.31,-84.95 -185.03,-886.77 -76.88,-1026.69 -30.22,-250.2 143.69,-617.75 218.94,-868.5 85.95,-286.34 141.47,-605.5 239.92,-894.32 44.87,-131.69 523.79,-1489.32 695.82,-1563.14 106.01,-288.53 566.09,-810.18 745.46,-917.82 4.91,8.69 9.4,20.77 11.96,27.57 2.56,6.76 8.43,19.35 11.37,27.74 0.13,0.34 146.59,587.37 132.15,724.98 80.58,70.63 92.96,414.38 99.34,546.2l5.67 133.16c4.91,4.79 10.91,7.72 11.87,16.83 12.47,117.38 69.96,212.23 74.91,631.52 3.95,335.48 3.36,480.1 -45.19,804.68 -78.4,524.41 -173.2,340.18 -566.6,708.65l-217.64 182.18c13.68,270.77 -59.55,141.39 -1.85,338.88 111.42,-84.9 81.84,-115.53 225.53,-143.65l701.65 -633.2c174.46,-52.75 144.62,0.38 254.44,37.56 153.27,51.91 134.76,1.51 255.33,64.71 73.44,38.53 377.58,301.58 280.59,22.83 -120.02,-38.77 -185.79,-103.44 -238.16,-188.01l-47.8 -1.68c-132.95,36.56 -210.13,4.24 -339.89,-61.39l-52 -29.72c62.83,-133.16 3.49,-66.93 121.12,-149.78 210.63,-15.02 254.74,-130.22 390.12,27.87 71.94,43.18 93.21,75.62 105.8,159.18 220.16,31.98 69.96,25.64 121.04,-37.27 -288.82,-495.88 -275.22,-228.97 -467.89,-319.78 54.05,-196.96 1066.92,-1128.25 1283.43,-1299.55 727.46,-575.71 2598.68,-734.18 3549.4,-212.44l200.81 -41.84c180.21,-78.77 32.61,82.76 74.03,-33.66 3.91,-11 18.13,-5.54 25.18,-11.46l-307.62 -164.42c-9.48,-3.66 -18.92,-7.1 -28.03,-11.04l-91.19 -52c-219.24,-116.58 -126.53,20.1 -201.95,-177.52 176.77,41.84 61.48,-7.18 94.85,-49.48 -252.98,-26.48 -490.77,-111.88 -771.73,-141.89 -872.29,-93.08 -1257.34,-152.21 -2193.54,284.24 -204.79,95.48 -438,215.59 -568.23,318.83 -378.79,300.23 -557.15,515.1 -838.71,904.26l-377.49 479.01c-97.49,-222.3 -51.54,-616.79 -60.81,-893.98 -12,-359.61 -74.33,-528.03 -138.33,-821.59 -62.32,-286 -69.74,-565.29 -102.9,-857.93 -55.31,-488.91 74.03,-671.85 -53.25,-846.68l-109.03 35.88c-9.91,5.54 -56.24,43.39 -62.16,48.6 -59.68,52.46 -73.36,75.83 -122.08,125.48l-708.4 747.93c-385.22,429.54 -667.95,1099.87 -739.42,1192.92 -128.54,-44.74 -17.37,-4.08 -141.51,-84.95 -45.37,-29.54 -79.95,-50.78 -137.86,-77.51 -641.85,-295.99 -709.16,-149.69 -1021.44,-122.21 -314.33,27.7 -574.78,217.98 -782.64,460.97 -56.15,65.64 -87.63,140.55 -128.92,259.73 -169.72,489.93 -63,836.53 317.85,1162.24 256.76,219.61 1010.86,287.97 1352.85,109.07 59.6,210.09 -148.01,712.98 -167.45,1010.31 -9.73,149.7 -17.87,342.45 -6.63,537.31 34.42,594.54 34.63,328.26 -66.81,505.45 121.5,116.33 110.59,57.2 157.97,258.64 27.99,119.06 57.03,241.31 88.92,339.43 281.52,865.15 460.72,772.19 222.6,1214.1 -602.9,1118.76 -445.23,991.31 -48.1,1311.85 102.02,82.34 58,113.9 208.45,217.81 341.07,235.52 200.65,115.41 362.77,487.07 122.58,281.01 113.73,335.86 91.02,675.67 -43.69,654.43 -212.81,785.87 -541.41,1181.66 -211.94,255.33 -279.21,200.9 106.17,800.35 379.8,590.86 144.37,471.42 829.56,1302.99 309.64,375.78 336.7,484.51 614.06,663.92 87.25,56.45 119.78,117.51 187.47,186.13z"/>
   <path class="fil2" d="M12029.65 1759.87l-67.98 -64.84c110.28,-133.46 939.68,301.44 1086.56,374.26 -307.66,138.7 -769.76,-89.14 -1018.58,-309.42zm1191.02 -15.87c132.08,35.17 454.26,221.59 512.8,326.63l-462.27 -16.91c-344.34,-167.95 -531.72,-297.97 -971.91,-435.16 30.59,-22.49 19.51,-22.74 77.51,-43.81 112.85,-41 320.25,-11.92 433.73,5.12 173.07,25.93 261.71,101.6 410.14,164.13zm-3684.11 -42.97c124.39,-288.86 359.41,-317.27 644.15,-153.18 -32.61,78.77 5.25,10.57 -53.97,89.3 -38.1,50.57 -20.73,17.21 -66.14,77.01 -30.17,39.79 -60.68,100.51 -96.27,149.62l-427.77 -162.75zm4799.34 -581.75c154.56,37.9 524.88,331.79 599.66,465.16l-684.61 -239.96 -1408.49 -222.22c-529.33,-60.89 -1176.76,320.46 -1344.08,212.4l308 -148.95c310.51,-112.84 608.98,-329.52 1044.77,-336.65l767.91 66.89c138.15,30.17 156.95,74.16 354.16,105.34 157.16,24.8 241.98,12.46 362.68,97.99zm-831.29 -616.62c-91.15,97.91 -655.02,51.16 -823.85,32.27 117.09,-110.16 380.68,-172.78 538.02,-198.63 139.49,-88.67 263.84,-73.69 465.16,-50.57 132.74,15.28 324.7,41.34 429.24,86.62 -43.52,107.48 25.55,64.46 -104.88,103.37l-503.69 26.94zm-4367.95 1088.16c-33.37,42.3 81.92,91.32 -94.85,49.48 75.42,197.62 -17.29,60.94 201.95,177.52l91.19 52c9.11,3.94 18.55,7.38 28.03,11.04l307.62 164.42c-7.05,5.92 -21.27,0.46 -25.18,11.46 -41.42,116.42 106.18,-45.11 -74.03,33.66l-200.81 41.84c270.31,166.06 603.65,357.6 811.56,613.05 380.3,224.32 793.22,895.16 800.39,899.14l88.05 139.84c99.46,-27.99 191.96,-42.35 209.58,-175.76 378.25,-6.25 258.18,6.88 284.79,57.58 -15.82,-102.19 -110.25,-263.97 -163.8,-393.1 -25.64,-61.78 -59.42,-122.21 -104.41,-176.31 -98.5,-118.47 -88.13,-34.37 -143.11,-195.65 -18.84,-27.32 -34.03,-54.93 -68.36,-92.79 -6.42,-7.09 -26.99,-28.45 -33.53,-34.33 -35.72,-31.81 -32.02,-23.41 -52.25,-35.42l-145.5 9.32 -0.09 -145.96c-157.37,-8.81 -96.18,-33.83 -213.15,82.84l58.51 -219.15c-29.59,-100.97 -191.58,-222.76 -282.61,-289.07 -8.65,6.34 -22.91,3.53 -27.66,16.45 -4.44,12.21 -20.22,12.55 -26.35,15.11 -48.31,19.89 -129.81,58.46 -208.58,-23.84 -72.94,-76.21 -64.16,-89.26 -62.32,-175.46 15.32,-156.75 40.71,-212.73 135.56,-306.61 140.67,-139.21 109.44,-54.85 234.21,-47.51 249.03,0 200.73,-68.53 214.45,142.14 -52.83,-112.47 -23.5,-99.96 57.88,-155.11l-229.19 -170.93c-104.2,-57.79 -159.89,-50.53 -241.89,-136.05 73.65,-127.33 276.48,-321.43 506.29,-236.15 121.49,45.07 304.38,260.78 399.35,370.52 195.7,175.72 422.65,644.41 525.77,875.73 42.17,94.51 -4.2,39.95 51.32,91.57 125.02,64.5 6.21,-14.1 78.31,60.56 15.41,15.99 59.26,78.56 64.97,84.73l140.17 87.04c8.39,3.86 22.83,7.3 32.73,13.77 95.69,125.56 987.4,394.23 1216.58,378.16 109.37,33.62 59.26,45.66 159.44,48.51 250.96,7.05 -20.53,-57.32 303.25,-56.61 189.94,0.42 10.45,3.99 168.58,-15.99 16.37,-23.29 44.57,-11.2 -23.29,-92.58 -52.71,-184.44 16.79,23.71 -251.76,-268.75 -96.73,-105.43 -181.3,-138.79 -256.25,-270.65 390.25,77.35 1106.63,422.15 1502.29,209.29 -18.97,-136.27 -0.71,-61.82 -128.38,-203.75 -352.77,-392.22 -501.08,-403.09 -686.24,-592.74 -40.12,-41.13 -19.22,-15.24 -53.59,-61.61 304.59,13.98 629.92,7.47 958.86,186.12 146.21,79.41 67.53,103.87 317.02,71.73 70.88,-283.87 -204,-543.31 -397.43,-736.23 -427.26,-426.18 -605.33,-330.95 -779.83,-477.63 132.36,-25.05 277.74,-39.57 402.38,-69.62 151.12,-36.51 241.06,-51.7 290.37,-189.1 -66.43,-44.36 -204,-111.51 -274.59,-136.06 -274.88,-95.77 -509.56,-330.28 -914.92,-375.61 -291.8,-32.6 -553.3,13.85 -741.06,128.09 -295.7,179.95 -197.7,88.76 -636.22,245.21 228.85,-357.14 244.88,-116.16 326.26,-359.61 -150.25,-94.3 -345.1,-13.1 -466.09,49.89 -291.67,151.88 -493.95,292.98 -666.27,610.5 -39.87,73.44 -67.35,130.77 -106.43,214.16l-120.52 210.21c-269.06,-419.67 -1021.44,-393.11 -1262.16,118.47 -2.81,6 -6.84,18.21 -11.71,26.61 -622.5,9.44 -283.11,-29.29 -609.87,199.93 -83.05,58.25 -124.72,44.57 -183.43,118.05z"/>
   <path class="fil0" d="M7162.08 12771.61c5.58,-101.23 139.45,-390.13 209.58,-476.24 93.38,64.83 57.24,113.47 -22.37,246.43 -68.7,114.69 -93.37,181.42 -187.21,229.81zm425.96 -322.18c12.38,-158.43 81.67,-327.6 204.17,-378.67 3.49,167.11 -112.26,321.59 -204.17,378.67zm-594.38 -2695.96c159.69,39.53 163.97,181.63 226.96,325.53 49.23,112.39 117.09,259.86 182.18,389.42 320.59,637.81 -45.87,619.89 152.17,889.57 54.14,15.78 130.23,24.93 183.82,52.29 134.84,68.83 66.1,5.96 108.27,122.04 -104.87,60.73 -225.02,33.58 -334.77,39.49 -245.63,13.26 -67.06,48.31 -253.23,57.08l54.43 73.36c14.15,26.9 22.37,24.97 30.81,83.47 39.91,276.27 -258.14,289.61 -293.23,-124.39l-87.12 5.92c-4.7,82.84 10.58,53.17 -22.16,104.54 -510.53,54.51 -850.29,185.91 -1192.36,447.11 -192.42,146.93 -358.4,169.17 -531.89,287.56 -128.09,87.33 -52.04,102.32 -252.56,114.91 -186.71,11.7 -126.99,35.84 -268.63,28.16 -770.98,-41.89 -1168.99,-297.01 -1661.85,-761.5 -204.93,-193.13 -319.33,-263.76 -343.38,-426.8l73.78 -79.07c4.32,-18.17 15.11,-21.4 22.96,-31.89 -241.48,79.19 -243.62,106.51 -389.62,278.24 159.43,243.58 349.33,530 607.64,690.44 26.81,-78.85 -9.07,-48.6 66.43,-85.82 58.46,107.35 47.8,342.28 392.22,548.63 -47.17,-122.92 -88.8,-156.87 -36.93,-254.4 127.41,54.01 -14.77,-39.91 172.65,217.05 145.55,199.51 402.76,478.01 703.62,436.08 -66.89,-125.1 -227.67,-131.9 -206.73,-263.47 3.36,-2.14 -7.17,-125.6 141.56,37.65 166.15,182.3 86.16,105.08 361.46,278.91 173.91,-91.66 -49.44,-42.39 142.14,-100.26 199.18,305.23 245.97,332 657.46,292.97l17.62 -298.72c122.92,73.91 67.95,100.76 122.25,280.34l326.3 6.84c33.4,-175.92 82.97,-383.41 191.03,-434.11 79.7,133.17 -10.2,151.42 -37.85,376.78l105.67 -79.15 271.36 -101.09c70.46,-64.47 97.53,-168.5 116.5,-284.33l-488.5 49.77c-294.69,-32.06 -150.03,-205.51 3.4,-338.13 225.03,-194.55 587.33,-667.1 1070.45,-508.68 13.06,43.52 33.41,86.79 29.13,146.01 -12.09,167.74 8.48,52.16 -43.1,116.5 19.81,110.2 -5.96,209.37 -13.35,287.55l-45.66 94.51 156.96 154.19c-90.23,299.73 -303.17,516.87 -573.44,609.4 -238.71,81.75 -860.03,471.75 -1404.34,434.91 -47.46,46.87 -37.18,-86.79 -40.25,89.51 16.46,202.96 169.22,414.43 135.52,655.36l58.33 65.13c4.78,6.55 11.33,16.75 15.57,23 12.51,18.59 26.44,53.13 36.43,72.56 250.92,-88.3 1598.81,-1061.3 1875.54,-1337.66 173.2,-172.94 309.39,-410.89 494.71,-677.13 70.63,-101.56 94.55,-179.45 148.1,-276.65 554.35,-1005.95 234.56,-705.09 269.89,-1197.65 -87.04,-75.25 -81.37,-27.24 -166.35,-107.31 2.47,-196.7 41.21,-190.78 -13.43,-401.46 -85.2,-328.39 -222.81,-718.01 -246.85,-1053.37 -129.22,-86.54 -116.08,-139.5 -197.96,-303.04 -72.65,-145.13 -120.53,-172.45 -156.12,-316.94l-47.88 -15.57c-88.6,157 28.16,-62.66 41.46,173.45 12.38,219.28 -256.54,282.73 -417.24,422.36z"/>
   <path class="fil3" d="M3143.54 6413.41c44.78,238.2 -124.73,615.78 252.72,1040.61 -272.19,-17.42 -610.83,-497.22 -622.2,-737.44 -83.14,-31.81 -42.26,-308.04 -44.36,-407.46 160.61,-102.9 343.04,-205.85 551.32,-203.96l-76 237.37c-58.5,86.78 33.03,-11.63 -61.48,70.88zm-416.61 -3624.31c-2.43,132.36 -212.69,1271.09 -247.18,1720.64 -175.93,-90.27 -50.24,-115.7 -216.85,-111.25 1.18,208.45 46.5,106.68 178.7,253.44 54.89,41.38 113.1,133.58 223.39,152.25 5.41,-302.58 -107.4,222.68 6.29,-631.85 29.46,-221.34 58.25,-430.84 95.86,-655.4 48.85,-291.71 132.7,-920 251.38,-1208.73l26.98 -52.59c-15.69,559.3 147.89,1071.04 36.01,1921.88 -37.18,282.82 -97.24,296.79 -24.3,480.73l23.88 52.25c-159.73,45.07 -206.73,103.2 -332.88,172.95 -173.2,95.81 -145.92,137.86 -279.96,236.65l-208.7 -302.58c-65.81,-66.69 -96.7,-111.64 -201.82,-154.44l-33.2 93.92c126.4,62.03 81.63,67.02 164.85,188.39 253.02,265.48 323.06,419.75 305.73,956.85 -257.26,-501.21 -107.19,-648.64 -320.38,-735.81 -163.67,393.57 339.34,1004.61 354.16,1031.46l-415.77 -18.17c-91.15,0.42 -57.74,-25.97 -92.79,132.58 130.73,260.86 159.69,154.35 340.02,316.64 -19.6,124.26 -52.92,240.38 -120.28,323.31 50.49,92.45 27.57,48.39 143.66,21.99l37.85 -7.72c5.04,-2.14 15.07,-5.83 20.1,-8.6 5.88,-3.23 16.03,-10.24 21.53,-13.89l71.22 -69.92c-138.16,321.42 -41.21,99.54 8.1,161.95 7.68,-122.63 5.62,-142.65 63.16,-228.59 51.37,116.66 89.05,245.92 174.2,340.6l112.22 122.54c262.38,361.97 579.4,503.52 1025.76,312.03l-31.18 5.83 -48.35 -142.22 -187.04 60.09 -174.59 -216.51c-205.8,-247.56 -47.71,-782.3 85.24,-862.12 44.36,-131.23 71.13,-138.75 185.45,-245.38 351.56,235.05 369.27,279.2 555.69,605.75 29.29,51.36 63.24,64.33 43.22,150.36 -21.15,90.78 -13.43,42.56 -81.75,111.34 -4.99,5.04 -16.2,12.22 -23.08,19.6 263.47,44.19 374.76,62.49 376.15,-154.35 -28.16,-258.31 -194.06,-505.37 -357.43,-657.12 -102.82,-95.48 -174.13,-151.88 -300.36,-234.22 -92.25,-60.14 -236.82,-123.22 -283.66,-182.39 -290.2,5.04 -390.54,42.64 -639.41,90.44 -8.81,-80.62 6.34,-55.73 -30.51,-153.22 -30.3,-80.24 -59.8,-157.59 -84.35,-220.33 -77.14,-80.87 -159.89,-210.63 -211.35,-315 409.27,-471.08 114.41,-153.94 644.66,-99.76 215.04,21.95 687.13,114.19 860.11,197.62 104.25,50.28 211.73,151.3 330.41,136.94 11.5,-98.49 4.24,-107.31 -21.87,-176.72 -230.31,-215.04 -279.29,-211.6 -627.95,-332.84l-503.64 -15.53 -142.31 13.81c-42.81,-42.6 -61.95,51.28 -22.08,-70.13 -57.7,-197.49 15.53,-68.11 1.85,-338.88 -85.7,-52.38 -33.7,12.55 -44.49,-89.31l41.34 -291.88c7.68,-88.21 13.85,-274.17 47.26,-368.26l-14.23 -874.46c-6.04,-192.17 -35.04,-406.71 -59.55,-594.17 -27.87,-213.41 7.38,-427.9 -127.75,-553.72 -156.41,121.71 -273.58,774.93 -345.39,1003.23z"/>
   <path class="fil3" d="M3464.63 11493.63c71.34,-308.59 206.94,-537.47 259.52,-759.86l70.04 114.28c0.93,1.97 32.61,93.8 36.6,104.71l177.1 579.02 236.82 499.78c-162.37,-81.29 -340.23,-130.18 -449.93,-189.69 -188.18,-102.06 -223.77,-142.56 -358.35,-274.04l28.2 -74.2zm2563.93 -308.5c-12.05,-183.9 91.78,-634.42 141.97,-788.9 152.64,116 132.62,192.17 245.51,350.13 82.21,114.99 155.36,224.02 200.1,380.31 84.48,74.28 158,216.55 194.85,344.63 -259.65,13.93 -351.85,82.09 -544.44,161.83 -10.24,4.24 -41.5,14.77 -51.87,19.01 -147.47,60.26 -160.9,104.66 -290.28,129.93 5.12,-102.78 70.96,-545.83 104.16,-596.94zm682.63 -2229.83l110.55 61.98c-9.24,538.77 -478.39,484.8 -542.89,596.31 72.73,206.81 206.02,43.35 351.26,13.09l47.85 90.15 507.63 1625.3c-177.73,-14.4 -203.16,-107.02 -254.24,-250.67 -50.32,-141.72 -115.45,-241.44 -138.57,-360.04 -97.87,-63.83 -69.71,-66.09 -128.92,-162.53 -35.76,-58.21 -50.49,-72.27 -102.49,-146.05 -110.12,-156.12 -73.19,-185.7 -260.32,-271.02 -59.76,-60.31 -51.2,-70.93 -172.99,-76.26 -107.47,105.09 -117.09,298.98 -175.34,431.47 -41.12,331.87 -125.64,854.19 -197.45,1172.13 -30.8,273.29 0.76,178.78 -228.72,317.32 -720.2,434.82 -389.37,449 -1063.11,175.42l-41.8 -261.67 -244.37 -807.9c-143.57,-463.07 -301.7,-1118.25 -567.39,-453.5 -45.46,113.69 -93.68,192.51 -148.19,292.93 -37.56,90.69 -64,148.15 -92.87,244.84 -27.7,92.83 -0.59,62.44 -48.69,131.65 -44.56,64.17 -24.97,35.46 -88.63,74.95 -44.53,116.75 -34.71,72.44 -52.42,100.89 -46.54,-102.11 -44.94,-127.58 -180.08,-83.51 119.32,293.97 234.01,328.47 381.69,376.86 163.25,53.47 288.53,192.21 483.76,269.01 320.67,126.15 243.45,126.74 503.77,242.86 177.39,79.11 276.23,204.88 526.35,220.83 173.83,11.12 728.21,-404.39 965.79,-508.05 184.73,-80.58 339.93,-161.2 501.96,-244.84 332.42,-171.6 329.91,-67.02 601.64,-100l87.12 -5.92 207.99 -32.44c186.17,-8.77 7.6,-43.82 253.23,-57.08 109.75,-5.91 229.9,21.24 334.77,-39.49 -42.17,-116.08 26.57,-53.21 -108.27,-122.04 -53.59,-27.36 -129.68,-36.51 -183.82,-52.29l-266.07 -60.18c-94.72,-462.22 -334.31,-1076.37 -295.24,-1544.34 -83.97,-107.98 -92.91,-205.05 -62.99,-353.07 356.26,-221.76 212.98,-296.5 40.75,-490.6 -97.36,-38.69 -145.41,-90.64 -241.85,-145.66 -95.02,-54.22 -137.74,-57.62 -245.89,-101.52l-260.45 -39.95c-119.94,-476.58 -191.49,-292.6 -443.67,-530.93 -150.7,15.28 -52.38,-21.28 -131.57,44.74 77.47,170.01 272.2,102.4 438.26,403.39 -94.3,86.7 -26.9,-23.76 -117.76,45.32 -82.84,62.91 -38.06,-9.02 -47.63,104.58 217.77,149.19 480.57,43.23 790.32,265.53z"/>
   <path class="fil2" d="M4679.31 13664.04c-77.39,65.97 -32.31,27.99 -77.76,106.34 -59.09,101.81 0.46,53.21 -91.58,132.45 -9.69,162.28 -212.22,443.67 -276.77,636.47l-13.18 75.2c-62.28,54.31 9.24,44.74 -152.67,44.78 107.22,166.19 40.75,71.47 47.38,149.36 -178.32,450.31 -248.32,544.69 -238.42,1145.2 65.81,86.87 144.33,430.37 208.54,570.62 57.83,126.32 77.8,144.79 144.95,246.01 49.19,74.12 104.42,180.08 142.52,233.76l408.13 574.99c-63.37,-191.66 -203.54,-373.59 -190.11,-574.99l68.99 -1034.32c9.91,-148.6 10.03,-205.01 97.16,-309.09l8.31 128.26c131.69,-6.59 58.5,23.37 118.47,-67.28 62.57,-94.59 6.42,-42.72 0.96,-67.94 91.74,-22.71 -24.76,54.18 99.55,63.96l89.1 -141.94 -10.5 -455c-81.12,-95.23 -82.8,-105.34 -103.19,-248.57 271.1,-102.4 300.06,12.42 323.56,35.71l16.71 -224.27c33.7,-240.93 -119.06,-452.4 -135.52,-655.36 -37.6,-80.53 -86.53,-222.04 -137.14,-328.81l42.17 -191.28c-11.79,0.71 -66.85,12.46 -67.56,12.59 -8.73,1.84 -20.69,4.4 -29.63,6.37l-102.36 23.42c-4.32,0.8 -14.65,2.23 -19.05,3.02 -4.66,0.89 -15.61,2.14 -20.31,3.07l-42.35 8.14c-4.28,1.09 -16.74,5.58 -20.19,6.55 -3.35,0.92 -16.91,13.59 -19.3,7.42 -2.35,-6 -13.26,3.61 -18.84,7.39 30.97,157.8 9.44,16.24 -50.07,77.77z"/>
   <path class="fil3" d="M11216.59 9249.2l67.02 13.3c-32.18,-260.27 -187.63,-362.59 23.55,-580.9 116.58,-120.49 81.08,-65.39 177.98,-212.78 52.25,-79.48 103.07,-143.23 144.24,-212.6 357.22,-601.6 286.38,-361.13 648.47,-843.28 460.72,-613.44 773.5,-1378.24 822.47,-2170.54 -177.52,-28.03 -217.47,298.47 -245.84,500.04 -32.9,233.63 -100.85,451.98 -175.97,612.09 -82.63,176.18 -157.92,407.75 -254.74,567.56 -70.08,115.7 -298.17,346.23 -265.14,459.33 -5.17,-167.83 105.21,-287.22 58.46,-444.52l-374.98 44.7c-95.81,31.77 -220.7,85.82 -301.87,133.54 0.51,-276.98 147.47,-431.8 -120.65,-624.89 50.86,-196.87 168.79,-335.95 242.23,-511.87 58.92,-141.22 145.08,-322.23 328.98,-419.67 329.4,289.11 -176.93,927.55 -60.47,1127.69 222.13,-80.91 298.17,-634.2 347.31,-729.13 0.55,-320.04 -20.85,-259.36 -122.04,-500.92 68.91,-98.08 120.41,-159.81 226.63,-193.59l9.48 786.58c272.74,-87.58 86.03,-857.76 84.98,-877.23 131.53,-139.96 565.34,-405.11 750.54,-539.53 125.82,-91.28 86.96,-133.83 247.44,-139.5l-100.68 368.05c-12.67,269.68 -91.53,346.99 -80.07,644.28 137.86,-43.23 44.15,62.95 136.68,-106.72 10.41,-19.14 268.59,-1080.4 205.26,-1231.52 -142.39,-25.27 -176.47,54.09 -275.01,136.09 -90.98,75.71 -160.02,112.43 -262.58,199.39l-1037.05 777.48c-183.77,137.15 -346.23,256.71 -445.19,448.75 -210.46,408.43 -431.96,783.57 -568.06,1235.05 -44.11,146.38 -49.86,212.52 -130.69,334.48 -239.54,361.33 -97.11,289.44 25.27,625.94 60.98,167.65 9.23,248.19 88.88,350.42 157.17,-57.08 127.96,-234.22 183.9,-399.02 206.31,-608.02 406.16,-617.42 829.57,-799.35 -7.6,142.69 -296.42,657.67 -389.46,846.43 -63.33,128.55 -77.09,103.33 -165.52,232.29l-252.01 384.17c-83.93,115.07 -270.81,145.46 -21.32,709.91z"/>
   <path class="fil0" d="M5488.1 7309.15l-248.19 -39.15 -45.58 109.95c-139,16.66 -264.27,-23.08 -442.04,14.44 60.18,42.17 -33.32,5.79 70.84,27.95 237.83,50.52 335.02,-80.5 479.18,94.88 -63.58,192.09 -221.42,54.69 -373.38,159.56l199.13 17.67 14.78 139.5 274.54 -17.92c62.58,88.93 82.09,104.54 42.14,206.94l-67.06 110.92c-3.91,6.75 -10.5,19.51 -13.64,25.18l-27.49 52.83 -413.13 -54.97c-78.43,85.48 -10.78,31.6 -154.52,54.93 -318.4,51.75 -279.92,62.87 -335.19,264.9 -20.48,5.24 -99.54,21.32 -101.94,22.03 -111,32.86 -64.25,22.62 -101.51,42.34 187.76,-1.42 367.96,-68.91 444.26,113.11 -66.65,53.96 100.68,64.08 -160.02,42.8l420.47 46c18.5,-206.48 31.81,-191.79 246.76,-152.3 118.73,21.82 218.52,18 216.63,145.88 76.55,-47.13 15.57,-30.77 91.53,-24.34 25.98,183.6 -60.6,243.82 -198.33,292.21 -99.76,35 -302.92,116.71 -386.27,119.1 -190.06,5.42 -553.12,-151.96 -863.59,-157.25 18.04,201.74 92.2,367.84 196.03,531.98l95.3 104.79c162.04,53.13 211.64,91.7 349.25,165.89 432.05,232.84 733.75,-336.82 979.09,-401.03 91.99,-117.47 333.93,-266.91 564.54,-260.66l-11.96 146.97c154.19,66.52 152.51,33.28 273.29,-47.13 133.96,-89.14 178.78,-75.88 209.16,-251.84 -309.75,-222.3 -572.55,-116.34 -790.32,-265.53 9.57,-113.6 -35.21,-41.67 47.63,-104.58 90.86,-69.08 23.46,41.38 117.76,-45.32 -166.06,-300.99 -360.79,-233.38 -438.26,-403.39 79.19,-66.02 -19.13,-29.46 131.57,-44.74 -59.26,-133.5 -33.11,-89.39 -62.15,-243.41 -19.48,-190.32 -154.15,-366.87 -135.18,-632.57 -89.64,167.79 5.41,23.34 -94.13,93.38z"/>
   <path class="fil3" d="M3519.65 8348.25c0.96,-113.89 168.49,-178.61 274.42,-217.01 -17,156.2 41.67,129.22 -109.79,175.84 -68.15,20.99 -81.08,-3.94 -164.63,41.17zm1545.47 -2665.24c10.62,153.35 -78.81,178.99 -204.96,248.62 -124.44,68.65 -168.46,119.85 -248.7,193.76 -34.04,141.97 0.88,213.02 -44.82,290.33 1.34,1.13 51.41,42.97 60.93,51.03 3.91,3.31 16.75,23.41 19.73,17.2 2.94,-6.12 12.93,11.46 19.47,17.13l67.11 66.68c4.11,6.72 8.6,16.54 12.29,23.97l128.04 359.53 -115.4 -34.5 -141.18 -1.76c-1.39,216.84 -112.68,198.54 -376.15,154.35 -53.13,-3.99 -20.9,-18.93 -90.65,8.27 -3.95,104.25 9.61,54.09 -39.03,129.13 -6.5,9.99 -67.82,72.44 -86.2,90.82 -91.87,91.91 -83.43,67.94 -187.26,148.65l48.35 142.22 31.18 -5.83c-12.34,131.94 66.43,16.95 -75.92,137.69 -410.94,348.45 -787.34,-84.06 -999.82,-173.03l3.65 87 -97.03 10.7c78.99,99.97 304.85,257.43 422.86,301.87 240.6,90.61 424.54,113.44 606.8,3.31 -86.95,199.56 -396.79,309.97 -653.38,321.26 -67.19,14.48 -153.26,0.17 -229.89,-40.79 -52.17,-27.82 -64.3,-42.97 -97.96,-81.29 -72.22,-82.21 -31.6,-24.72 -78.14,-122.08 -80.28,-60.9 -84.23,-101.77 -133.79,-200.86 -76.8,-153.47 -52.96,-148.48 -200.14,-168.91 13.09,214.91 202.78,307.82 251.42,526.77 117.89,52.62 70.64,46.75 180.38,120.69 88.26,59.47 99.29,45.66 208.7,92 -243.49,136.89 -378.46,174.16 -529.75,-100.73 -69.08,-72.39 -42.13,-71.88 -98.37,-138.36 -80.41,-95.1 -55.52,-45.74 -133.08,-107.65l-0.46 -302.75c-55.39,49.02 -73.61,-15.48 -79.78,231.49 -190.78,66.31 -84.81,-72.68 -117.25,77.31 136.73,-33.03 59.3,-29.51 113.43,108.65l98.21 204.97c151.41,51.91 145.2,85.23 269.89,168.75 185.24,124.09 136.72,67.65 165.22,328.64 53.97,-45.37 78.65,-63.66 111.46,-106.81l110.38 35.93c-13.14,-165.44 79.23,-117.76 222.38,-199.14 525.6,-298.76 815.59,183.27 838.96,-440.44l99.17 -38.78c88.09,-59.34 284.03,3.57 419.67,-8.73 128.13,-11.66 291.59,0.55 422.52,47.64l413.13 54.97c-8.27,-168.66 -2.35,-154.94 -152.43,-197.16 -40.58,-11.41 -75.79,-17.46 -114.27,-27.49l-130.77 -43.85c-191.12,-10.24 -356.6,-57.33 -527.49,-143.03l27.16 -141.05c136.94,-56.02 326.12,-4.44 475.4,17.46 151.96,-104.87 309.8,32.53 373.38,-159.56 -144.16,-175.38 -241.35,-44.36 -479.18,-94.88 -104.16,-22.16 -10.66,14.22 -70.84,-27.95l-258.89 14.18 -147.73 -26.61 -6.46 -184.74 225.24 -25.47c211.85,-87.84 466.04,36.09 675.46,98.25l248.19 39.15 9.99 -128.63c-647.81,-264.47 -257.43,-302.83 -549.86,-604.45 -26.9,-138.66 -46.79,-125.19 -80.53,-258.56 770.81,-255.95 241.81,-1009.18 151.25,-1057.4 -103.45,129.09 -2.14,260.37 46.16,422.9z"/>
   <path class="fil4" d="M5463.76 6663.66c-46.8,93.62 -60.39,73.61 -72.61,178.44 126.62,140.84 51.04,109.49 275.9,112.05 -80.5,133.33 -104.84,72.19 -84.82,261.62 -18.97,265.7 115.7,442.25 135.18,632.57 113.81,57.58 142.98,141.89 211.17,152.89 403.26,65.09 -484.04,-435.41 -154.27,-1046.24 76.09,-140.88 -16.91,-58.75 120.11,-127.2 -102.19,503.18 13.6,722.5 347.41,1004.02l63.7 57.41c114.36,110.41 183.4,122.37 345.35,148.65 265.06,9.4 417.74,49.64 647.25,-56.91 827.89,-384.38 600.68,-329.11 1083.72,-877.2 4.74,-5.41 14.31,-15.82 18.25,-20.22l37.52 -40.96c58.17,70.59 85.45,169.46 192.88,190.82 184.74,36.76 -26.1,-276.9 -52.88,-355.75 103.58,-87.84 387.32,-177.15 661.49,-406.12 80.03,-66.81 58.21,-20.14 71.93,-97.28 55.44,-311.23 -384.21,107.86 -476.7,156.66 -98.04,51.71 -398.94,53.14 -557.83,91.62 12.17,83.77 0.97,82.46 18.97,95.98 -129.01,-23.88 -123.59,4.11 -178.11,-128.51l-168.29 21.2 356.3 213.32c-9.19,135.8 8.02,92.28 -105.42,245.59l-35.33 47.84c-66.39,122.92 -355.46,408.76 -508.81,508.3 -206.69,134.21 -485.22,267 -746.09,263.72 -6.25,-11.12 -19.47,2.19 19.39,-59.51l-110.42 -106c-126.28,44.86 -73.48,43.05 -193.21,94 -262.63,-103.74 -577.85,-295.11 -504.11,-692.29 23.96,-113.35 49.65,-297.92 99.13,-365.61 53.08,-72.69 74.7,-81.96 277.57,-151.92 217.64,-75.04 509.52,-139.04 683.39,-27.99 -10.37,-70.34 -28.75,-118.73 -58.34,-193.56 174.33,0.42 61.19,-24.46 271.28,-54.09 -61.48,-72.1 65.76,-11.33 -124.18,-68.37 -0.3,-0.08 -106.98,-18.08 -120.78,-20.1 -344.64,-49.94 -435.08,-26.56 -825.2,45.33 -229.48,42.26 -742.02,233.33 -860.49,373.8z"/>
   <path class="fil0" d="M3461.69 10941.77c54.51,-100.42 102.73,-179.24 148.19,-292.93 265.69,-664.75 423.82,-9.57 567.39,453.5l244.37 807.9c367.8,253.28 430.46,276.69 699.3,141.06 421.6,-212.69 365.74,-356.18 634.33,-372.13 71.81,-317.94 156.33,-840.26 197.45,-1172.13l-24.8 -85.07c-80.07,126.53 -341.74,236.06 -503.01,337.33 -150.2,94.34 -342.96,201.73 -555.14,212.06 -19.43,97.24 -8.56,162.08 -61.95,196.32l8.73 80.58c201.7,97.44 247.52,322.64 342.96,375.56 91.82,40.37 55.64,-2.98 79.4,93.92 -245.09,177.27 -249.83,239.42 -470.75,148.65 -113.43,-46.63 -9.44,-42.22 -211.93,-41.09 0.97,-301.74 48.89,-485.55 55.06,-907.57 -90.73,-86.25 -154.19,-93.3 -239.38,-186.38 -77.34,-84.56 -25.81,-47.47 -121.37,-129.17 -93.88,-80.29 -41,-10.83 -106.09,-106.94 -101.69,-150.07 -245.51,-415.68 -397.05,-495.08 -129.34,62.19 -217.81,148.39 -307.62,267.66 -113.1,150.08 -102.31,189.9 -192.37,340.65 6.04,6.38 15.86,13.64 19.76,17.33 187.68,177.9 89.85,215.17 194.52,315.97z"/>
   <path class="fil5" d="M4220.02 14614.5l13.18 -75.2c-125.02,-63.29 -8.39,35.96 -124.05,-99.8l-222.51 -309.51c-94.43,-137.31 -191.58,-282.01 -244.08,-465.24 156.37,20.86 276.01,90.31 421.01,146.84 130.43,50.82 395.87,65.09 446.4,91.24 92.04,-79.24 32.49,-30.64 91.58,-132.45 45.45,-78.35 0.37,-40.37 77.76,-106.34 16.28,-251.26 -19.81,-91.53 -527.69,-258.73 -215.67,-71.01 -388.11,-134.8 -496.09,-285.46 -151.46,-211.35 -576.13,-374.68 -649.65,-800.9 -258.31,-160.44 -448.21,-446.86 -607.64,-690.44 -64.72,52.92 -88.55,71.39 -134.72,117 61.53,329.44 171.52,630.05 290.5,909.51 29.37,69.04 55.02,146.22 100.34,218.44l919.33 1176.88c112.68,129.47 191.08,204.51 288.48,316.22 105.42,120.91 169.67,212.82 357.85,247.94z"/>
   <path class="fil6" d="M12391.7 6049.34l-88.21 45.75 -25.86 -137.82c-49.14,94.93 -125.18,648.22 -347.31,729.13 -116.46,-200.14 389.87,-838.58 60.47,-1127.69 -183.9,97.44 -270.06,278.45 -328.98,419.67 -73.44,175.92 -191.37,315 -242.23,511.87 268.12,193.09 121.16,347.91 120.65,624.89 81.17,-47.72 206.06,-101.77 301.87,-133.54l374.98 -44.7c46.75,157.3 -63.63,276.69 -58.46,444.52 -33.03,-113.1 195.06,-343.63 265.14,-459.33 96.82,-159.81 172.11,-391.38 254.74,-567.56 75.12,-160.11 143.07,-378.46 175.97,-612.09 28.37,-201.57 68.32,-528.07 245.84,-500.04 5.54,-136.43 41.22,-183.69 111.68,-272.07 70.84,-88.84 112.72,-179.58 161.99,-109.2l100.68 -368.05c-160.48,5.67 -121.62,48.22 -247.44,139.5 -185.2,134.42 -619.01,399.57 -750.54,539.53 1.05,19.47 187.76,789.65 -84.98,877.23z"/>
   <path class="fil5" d="M5409.79 14844.44l55.73 158.34c303.34,87.04 1254.27,-695.22 1462.72,-892.05l716.12 -672.1c303.42,-273.29 591.61,-686.58 804.64,-1075.7 65.51,-119.65 311.94,-487.7 284.66,-593.87 -38.78,-151.17 -346.4,-359.83 -535.63,-413.71 -35.33,492.56 284.46,191.7 -269.89,1197.65 -53.55,97.2 -77.47,175.09 -148.1,276.65 -185.32,266.24 -321.51,504.19 -494.71,677.13 -276.73,276.36 -1624.62,1249.36 -1875.54,1337.66z"/>
   <path class="fil7" d="M10347.41 6118.34c268.93,48.47 286.72,-19.01 560.39,-253.23 247.19,-211.56 107.14,-335.44 228.59,-588.17 57.12,-118.81 642.48,-763.71 772.03,-860.74l1064.45 -573.73c388.74,-180.5 669.04,-426.72 1167.48,-445.78l-52.54 -127.03c-177.44,-71.22 -311.52,9.65 -643.57,84.4 -208.4,46.91 -422.81,139.62 -629.71,223.85 -322.69,131.4 -818.53,363.77 -1070.29,600.5 -87.75,82.51 -122.08,109.2 -216.34,175.17l-463.31 390.25c-347.07,461.6 -176.01,559.68 -315.64,923.36 -89.13,232.16 -278.74,292.3 -401.54,451.15z"/>
   <path class="fil6" d="M9558.06 7303.02c59.46,200.73 7.38,294.07 38.69,503.65 27.57,185.03 110.54,316.39 104.16,480.56l-122.62 -7.09c-118.77,186.84 -582.72,437.47 -854.75,448.59 4.54,-140.38 20.11,-293.02 60.06,-442.97 21.82,-82 39.74,-104.91 26.31,-189.31l-49.02 -146.8c-92.28,121.12 -117.97,346.94 -190.48,515.4 -73.7,171.14 -159.94,304.47 -249.33,463.06 -128.5,228.05 -368.93,456.73 -651.71,391.34 -165.81,-38.35 -132.49,-80.66 -252.05,-146.21 35.59,144.49 83.47,171.81 156.12,316.94 81.88,163.54 68.74,216.5 197.96,303.04 16.99,-142.52 22.91,-131.36 116.87,-195.73l565.97 -393.32c126.24,-82.46 277.74,-135.22 422.9,-216.88 395.88,-222.68 615.83,-273.76 809.04,-437.13 206.4,-174.5 184.99,-118.22 193.89,-443.09 10.83,-396.84 -86.7,-825.16 -54.93,-1167.69 -285.34,314.88 -136.78,221.75 -267.08,363.64z"/>
   <path class="fil8" d="M12305.71 8176.06c-203.46,138.24 -137.32,139.96 -261.12,320.92 -263.68,385.39 -5.79,163.63 -456.43,608.06 -75.58,74.54 -231.49,192.63 -304.56,157.46l-67.02 -13.3c-65.72,74.24 -0.75,46.12 -101.77,36.34 -89.13,-8.64 -408.13,-298.34 -515.48,-445.68 -176.13,-241.73 -307.7,-657.29 -386.64,-732.2 -4.53,400.03 4.32,932 239.88,1267.82 127.46,181.68 596.48,526.14 969.74,487.53 255.15,-199.51 732.91,-1261.61 883.4,-1686.95z"/>
   <path class="fil8" d="M10281.19 3464.14c219.11,191.79 235.06,243.46 174.5,574.7 123.09,77.39 271.61,180.08 274.25,338.09 -167.99,-84.52 -162.11,-226.58 -383.45,-304.39 -14.39,450.81 52.04,275.85 139.75,641.97 105.25,67.94 125.69,105.84 184.24,219.28l73.35 -83.9c235.82,-311.35 50.32,-110.96 323.07,-352.6 7.76,-6.88 29.08,-27.83 36.51,-35.09l245.38 -207.77c-57.08,-178.66 -278.2,-377.71 -366.25,-610 -7.17,-3.98 -420.09,-674.82 -800.39,-899.14 -145.21,220.41 10.41,113.98 107.6,548.13 45.83,204.72 1.01,157.13 -8.56,170.72z"/>
   <path class="fil0" d="M3226.55 1441.42c122.54,522.66 138.83,1126.77 81.96,1700.29l-48.89 -207.94 14.23 874.46c-24.05,242.87 -17.13,66.6 47.17,124.27 170.47,-190.58 416.22,-434.45 512.79,-734.09 44.32,-137.4 -1.13,-874.38 138.58,-984.59l-5.67 -133.16c-264.31,-49.65 -87.75,187.76 -520.47,-35.38 -30.51,-149.4 -44.53,-91.99 1.55,-213.19l193.47 -16.95c12.88,-3.36 24.71,-9.66 35.29,-12.97l70.67 -35.34c-424.91,48.98 -287.22,-187.93 -232.49,-473.22 -108.36,26.36 -253.27,82.55 -288.19,147.81z"/>
   <path class="fil9" d="M6963.95 11667.25c-271.73,32.98 -269.22,-71.6 -601.64,100 -162.03,83.64 -317.23,164.26 -501.96,244.84 -237.58,103.66 -791.96,519.17 -965.79,508.05 -250.12,-15.95 -348.96,-141.72 -526.35,-220.83 -260.32,-116.12 -183.1,-116.71 -503.77,-242.86 -195.23,-76.8 -320.51,-215.54 -483.76,-269.01 -147.68,-48.39 -262.37,-82.89 -381.69,-376.86 -96.02,-33.96 -99.54,-81.59 -211.13,-60.31 -7.85,10.49 -18.64,13.72 -22.96,31.89l-73.78 79.07c24.05,163.04 138.45,233.67 343.38,426.8 492.86,464.49 890.87,719.61 1661.85,761.5 141.64,7.68 81.92,-16.46 268.63,-28.16 200.52,-12.59 124.47,-27.58 252.56,-114.91 173.49,-118.39 339.47,-140.63 531.89,-287.56 342.07,-261.2 681.83,-392.6 1192.36,-447.11 32.74,-51.37 17.46,-21.7 22.16,-104.54z"/>
   <path class="fil10" d="M10461.52 1654.61c84.4,142.27 7.51,42.39 128.63,133.54 -99.29,119.23 -176.39,145.75 -260.57,296.54 -179.62,-38.78 -45.24,-48.6 -237.83,-75.96 -1.84,86.2 -10.62,99.25 62.32,175.46 78.77,82.3 160.27,43.73 208.58,23.84 6.13,-2.56 21.91,-2.9 26.35,-15.11 4.75,-12.92 19.01,-10.11 27.66,-16.45 40.04,-104.96 144.53,-210.59 259.48,-269.8 91.74,43.73 328.18,333.09 396,422.9l-253.9 182.72 -118.97 -46.75 -58.51 219.15c116.97,-116.67 55.78,-91.65 213.15,-82.84l0.09 145.96 145.5 -9.32c-30.68,-79.23 19.34,-36.93 -70.59,-116.87 76.38,-96.57 122.54,-136.57 284.83,-153.48l51.12 142.14 490 923.32 17.8 -236.86c176.42,123.51 133.37,129.63 202.7,237.36 149.06,-158.46 1.84,-607.68 27.65,-747.97 23,-125.07 -44.27,-31.02 58.67,-103.7 -9.9,-6.47 -24.34,-9.91 -32.73,-13.77l-140.17 -87.04c-5.71,-6.17 -49.56,-68.74 -64.97,-84.73 -72.1,-74.66 46.71,3.94 -78.31,-60.56 20.06,142.6 82.93,251.97 59.01,388.32 -13.81,78.82 -6.63,46.17 -37.56,91.57 -107.94,-299.18 -259.53,-572.43 -479.06,-809.08 -71.76,-77.39 -140.54,-122.58 -180.33,-220.58 -91.32,-27.15 5.79,13.77 -65.97,-32.19 -126.24,-80.82 -102.11,-137.4 -307.74,-212.73 -81.38,55.15 -110.71,42.64 -57.88,155.11 -13.72,-210.67 34.58,-142.14 -214.45,-142.14z"/>
   <path class="fil9" d="M2966.44 1671.99c-172.03,73.82 -650.95,1431.45 -695.82,1563.14 -98.45,288.82 -153.97,607.98 -239.92,894.32 -75.25,250.75 -249.16,618.3 -218.94,868.5l13.05 170.22c127.87,-3.61 146.21,-25.85 187.3,-134.29 42.34,-111.72 45.11,-161.83 12.42,-276.9l33.2 -93.92c35.79,-61.9 256.71,-1069.41 557.86,-1690.01l111.34 -183.94c71.81,-228.3 188.98,-881.52 345.39,-1003.23 135.13,125.82 99.88,340.31 127.75,553.72 24.51,187.46 53.51,402 59.55,594.17l48.89 207.94c56.87,-573.52 40.58,-1177.63 -81.96,-1700.29l-164.43 141.72c-5.29,5.67 -11.62,13.98 -16.66,19.31l-79.02 69.54z"/>
   <path class="fil8" d="M3231.5 11393.21c63.66,-39.49 44.07,-10.78 88.63,-74.95 48.1,-69.21 20.99,-38.82 48.69,-131.65 28.87,-96.69 55.31,-154.15 92.87,-244.84 -104.67,-100.8 -6.84,-138.07 -194.52,-315.97 -3.9,-3.69 -13.72,-10.95 -19.76,-17.33 90.06,-150.75 79.27,-190.57 192.37,-340.65 89.81,-119.27 178.28,-205.47 307.62,-267.66 151.54,79.4 295.36,345.01 397.05,495.08 65.09,96.11 12.21,26.65 106.09,106.94 95.56,81.7 44.03,44.61 121.37,129.17 85.19,93.08 148.65,100.13 239.38,186.38l44.07 -34.21c195.06,-121.07 -92.12,40.04 49.39,-31.52l130.86 -47.17 -27.79 362.85c53.39,-34.24 42.52,-99.08 61.95,-196.32 -12.85,-84.1 -4.87,-51.28 -56.24,-149.7 10.11,-6.12 51.75,-37.77 61.78,-44.52 9.9,-6.72 18.42,-13.18 28.87,-19.94 47.97,-30.8 67.73,-73.69 157.75,-42.3l11.75 -183.61c-201.14,42.35 -270.31,134.97 -508.51,-30.42l-924.37 -1019c-160.06,126.78 -394.78,631.68 -452.99,851.67 -47.63,180 -23.83,391.47 -44.86,592.75 -44.99,430.96 -46.04,174.91 88.55,466.92z"/>
   <path class="fil4" d="M3005.89 12318.95c73.52,426.22 498.19,589.55 649.65,800.9 107.98,150.66 280.42,214.45 496.09,285.46 507.88,167.2 543.97,7.47 527.69,258.73 59.51,-61.53 81.04,80.03 50.07,-77.77 5.58,-3.78 16.49,-13.39 18.84,-7.39 2.39,6.17 15.95,-6.5 19.3,-7.42 3.45,-0.97 15.91,-5.46 20.19,-6.55l42.35 -8.14c4.7,-0.93 15.65,-2.18 20.31,-3.07 4.4,-0.79 14.73,-2.22 19.05,-3.02l102.36 -23.42c8.94,-1.97 20.9,-4.53 29.63,-6.37 0.71,-0.13 55.77,-11.88 67.56,-12.59l-42.17 191.28c57.83,-126.4 -88.76,-78.56 307.11,11.84 153.64,35.12 767.91,-89.31 906.78,-402.51 -48.26,-32.65 16.79,-29.92 -115.91,-30.64l-105.67 79.15c27.65,-225.36 117.55,-243.61 37.85,-376.78 -108.06,50.7 -157.63,258.19 -191.03,434.11l-326.3 -6.84c-54.3,-179.58 0.67,-206.43 -122.25,-280.34l-17.62 298.72c-411.49,39.03 -458.28,12.26 -657.46,-292.97 -191.58,57.87 31.77,8.6 -142.14,100.26 -275.3,-173.83 -195.31,-96.61 -361.46,-278.91 -148.73,-163.25 -138.2,-39.79 -141.56,-37.65 -20.94,131.57 139.84,138.37 206.73,263.47 -300.86,41.93 -558.07,-236.57 -703.62,-436.08 -187.42,-256.96 -45.24,-163.04 -172.65,-217.05 -51.87,97.53 -10.24,131.48 36.93,254.4 -344.42,-206.35 -333.76,-441.28 -392.22,-548.63 -75.5,37.22 -39.62,6.97 -66.43,85.82z"/>
   <path class="fil9" d="M3711.69 8685.88c-26.02,212.64 325.95,793.8 428.27,993.99 152,297.42 413.29,560.68 712.6,763.21l109.16 -74.74c-161.91,-106.31 -513.93,-555.48 -613.9,-765.23l-95.3 -104.79c-103.83,-164.14 -177.99,-330.24 -196.03,-531.98 310.47,5.29 673.53,162.67 863.59,157.25 83.35,-2.39 286.51,-84.1 386.27,-119.1 137.73,-48.39 224.31,-108.61 198.33,-292.21 -75.96,-6.43 -14.98,-22.79 -91.53,24.34 -130.81,52.46 -336.86,15.06 -463.39,6.42l-420.47 -46c-148.61,-34.2 -170.98,-6.71 -290.83,15.4 -141.01,26.02 -261.37,53.93 -301.33,-78.47l-13.8 -58.67 -274.93 54.26c112.18,-22.66 11.08,-9.91 63.29,56.32z"/>
   <path class="fil6" d="M2441.6 4651.93l-182.05 165.56 208.7 302.58c134.04,-98.79 106.76,-140.84 279.96,-236.65 126.15,-69.75 173.15,-127.88 332.88,-172.95l-23.88 -52.25c-72.94,-183.94 -12.88,-197.91 24.3,-480.73 111.88,-850.84 -51.7,-1362.58 -36.01,-1921.88l-26.98 52.59c-118.68,288.73 -202.53,917.02 -251.38,1208.73 -37.61,224.56 -66.4,434.06 -95.86,655.4 -113.69,854.53 -0.88,329.27 -6.29,631.85 -110.29,-18.67 -168.5,-110.87 -223.39,-152.25z"/>
   <path class="fil11" d="M5717.41 7848.34c29.04,154.02 2.89,109.91 62.15,243.41 252.18,238.33 323.73,54.35 443.67,530.93l260.45 39.95c-4.99,-104.12 -16.74,-110.54 35.21,-196.32l92.71 116.67c35.5,-82.76 -123.47,-158.39 364.65,-31.1 130.56,34.07 174.29,72.35 281.55,142.77 211.52,138.91 541.25,98.29 656.24,-6.3l-306.94 -23.16c6.67,-86.33 250.79,-252.77 346.85,-314.54l-16.7 -171.9c-241.86,157.08 -327.55,128.04 -559.21,232.79 -101.52,45.95 -139.88,96.19 -270.6,87.29 -191,-13.05 -228.51,-35.42 -164.26,-173.36 -131.9,77.72 -14.02,106.97 -198.17,72.47 -62.49,-11.66 -141.93,-76.34 -191.33,-109.15 -60.43,76.33 55.69,31.09 -84.27,71.59 -38.06,11 -71.72,-0.12 -101.68,-13.89 -88.18,-40.41 -95.6,-68.99 -78.15,-175.21 85.03,-90.86 13.98,-19.14 99.21,-48.85l-120.9 -115.41c-83.9,-212.1 -23.21,-78.35 37.64,-117.8l-63.7 -57.41c-333.81,-281.52 -449.6,-500.84 -347.41,-1004.02 -137.02,68.45 -44.02,-13.68 -120.11,127.2 -329.77,610.83 557.53,1111.33 154.27,1046.24 -68.19,-11 -97.36,-95.31 -211.17,-152.89z"/>
   <path class="fil2" d="M7181.47 6580.65c29.21,88.34 60.68,218.48 65.51,341.9 -8.9,194.52 -60.81,362.81 -135.56,513.72 -34.62,69.96 -63.79,125.44 -137.31,181.55 -44.87,34.24 -46.29,26.56 -88.76,54.09 -5.21,3.32 -15.24,9.57 -19.69,12.59 -4.11,2.77 -14.18,10.71 -17.33,12.97 -3.02,2.1 -13.34,18.63 -15.4,13.39 -1.97,-5.12 -10.45,8.27 -14.23,13.6l110.42 106c98.24,-2.43 195.61,-90.52 286.3,-149.99 142.52,-93.5 132.7,-99.58 230.86,-230.02 165.05,-219.36 217.89,-320.16 351.43,-547.5 12.34,-215.67 -48.89,-253.35 151.37,-291.75l168.29 -21.2c54.52,132.62 49.1,104.63 178.11,128.51 -18,-13.52 -6.8,-12.21 -18.97,-95.98 -115.41,-146.3 -382.19,-190.24 -635.21,-262.38 -146.59,-41.8 -120.66,-49.86 -246.89,-27.15 -210.09,29.63 -96.95,54.51 -271.28,54.09 29.59,74.83 47.97,123.22 58.34,193.56z"/>
   <path class="fil6" d="M3273.85 3808.23c-33.41,94.09 -39.58,280.05 -47.26,368.26l-41.34 291.88c10.79,101.86 -41.21,36.93 44.49,89.31l217.64 -182.18c393.4,-368.47 488.2,-184.24 566.6,-708.65 48.55,-324.58 49.14,-469.2 45.19,-804.68 -4.95,-419.29 -62.44,-514.14 -74.91,-631.52 -0.96,-9.11 -6.96,-12.04 -11.87,-16.83 -139.71,110.21 -94.26,847.19 -138.58,984.59 -96.57,299.64 -342.32,543.51 -512.79,734.09 -64.3,-57.67 -71.22,118.6 -47.17,-124.27z"/>
   <path class="fil12" d="M14250.96 1344.48l34.12 -185.62 50.83 -39.58c-120.7,-85.53 -205.52,-73.19 -362.68,-97.99 -197.21,-31.18 -216.01,-75.17 -354.16,-105.34l-767.91 -66.89c-435.79,7.13 -734.26,223.81 -1044.77,336.65l-308 148.95c167.32,108.06 814.75,-273.29 1344.08,-212.4l1408.49 222.22z"/>
   <path class="fil5" d="M6785.55 12924.37c-223.85,-5.79 -88.72,55.86 -126.82,-86.54 -45.5,77.47 -61.7,164.22 -96.44,268.38 -47.6,142.77 -32.11,162.87 -156.21,199.3l-9.94 -128.33 -271.36 101.09c132.7,0.72 67.65,-2.01 115.91,30.64 -138.87,313.2 -753.14,437.63 -906.78,402.51 -395.87,-90.4 -249.28,-138.24 -307.11,-11.84 50.61,106.77 99.54,248.28 137.14,328.81 3.07,-176.3 -7.21,-42.64 40.25,-89.51 544.31,36.84 1165.63,-353.16 1404.34,-434.91 270.27,-92.53 483.21,-309.67 573.44,-609.4l-156.96 -154.19 45.66 -94.51c-147.93,134.68 -154.18,414.18 -362.76,462.69l77.64 -184.19z"/>
   <path class="fil9" d="M6512.64 12892.85c80.78,-138.28 -46.12,-115.66 112.85,-178.15l33.24 123.13c38.1,142.4 -97.03,80.75 126.82,86.54 55.02,-99.63 96.78,-182.85 141.81,-309.09 60.18,-168.79 1.09,-229.06 88.97,-335.11 102.14,28.33 35.84,-51.28 67.69,78.15 51.58,-64.34 31.01,51.24 43.1,-116.5 4.28,-59.22 -16.07,-102.49 -29.13,-146.01 -483.12,-158.42 -845.42,314.13 -1070.45,508.68 -153.43,132.62 -298.09,306.07 -3.4,338.13l488.5 -49.77z"/>
   <path class="fil13" d="M6552.8 7161.72l-62.32 -167.49 -369.1 131.94c-73.74,397.18 241.48,588.55 504.11,692.29 119.73,-50.95 66.93,-49.14 193.21,-94 3.78,-5.33 12.26,-18.72 14.23,-13.6 2.06,5.24 12.38,-11.29 15.4,-13.39 3.15,-2.26 13.22,-10.2 17.33,-12.97 4.45,-3.02 14.48,-9.27 19.69,-12.59 42.47,-27.53 43.89,-19.85 88.76,-54.09 73.52,-56.11 102.69,-111.59 137.31,-181.55 74.75,-150.91 126.66,-319.2 135.56,-513.72 -112.73,-26.4 -304.01,-74.66 -429.54,-7.76 -13.34,201.06 65.35,327.63 -156.41,386.3 -97.99,-46.71 -81.83,-26.69 -108.23,-139.37z"/>
   <path class="fil13" d="M11975.35 3534.1l-5.8 158.35c254.2,-18.3 408.72,-196.45 623.72,-301.54 180.46,-88.21 472.42,-226.24 660.85,-227.21l24.13 -103.11c-229.18,16.07 -1120.89,-252.6 -1216.58,-378.16 -102.94,72.68 -35.67,-21.37 -58.67,103.7 -25.81,140.29 121.41,589.51 -27.65,747.97z"/>
   <path class="fil14" d="M5427.25 9994.7c-76.3,75.46 -99.55,128.17 -184.7,261.84 -58.96,92.53 -151.71,172.19 -168.88,274.75l-11.75 183.61c-90.02,-31.39 -109.78,11.5 -157.75,42.3 -10.45,6.76 -18.97,13.22 -28.87,19.94 -10.03,6.75 -51.67,38.4 -61.78,44.52 51.37,98.42 43.39,65.6 56.24,149.7 212.18,-10.33 404.94,-117.72 555.14,-212.06 161.27,-101.27 422.94,-210.8 503.01,-337.33 -22.83,-187.8 14.98,-88.01 52.71,-250.38l8.14 -97.4c0.51,-17.8 -0.12,-23.04 -3.02,-34.04 -126.44,-1.42 -221.96,111.01 -273.5,214.62 -2.64,5.29 -8.18,22.54 -10.57,34.12 -164.09,-61.48 164.42,124.31 -71.26,-71.43 171.22,-11.12 114.32,40.84 161.57,-108.56 33.83,-107.02 -1.59,-145.21 -54.81,-210.89 -176.22,28.33 -140.84,-86.41 -142.1,146.34 -9.52,-53.13 -69.08,-83.3 -106.43,-110.79 -0.25,88.17 15.49,32.52 -61.39,61.14z"/>
   <path class="fil6" d="M6228.73 9254.28c-51.91,163.29 -167.99,374.64 -311.27,469.82 -268.04,177.98 -328.22,-69.2 -490.21,270.6 76.88,-28.62 61.14,27.03 61.39,-61.14 37.35,27.49 96.91,57.66 106.43,110.79 1.26,-232.75 -34.12,-118.01 142.1,-146.34 53.22,65.68 88.64,103.87 54.81,210.89 -47.25,149.4 9.65,97.44 -161.57,108.56 235.68,195.74 -92.83,9.95 71.26,71.43 2.39,-11.58 7.93,-28.83 10.57,-34.12 51.54,-103.61 147.06,-216.04 273.5,-214.62 2.9,11 3.53,16.24 3.02,34.04l-8.14 97.4c-37.73,162.37 -75.54,62.58 -52.71,250.38l24.8 85.07c58.25,-132.49 67.87,-326.38 175.34,-431.47 121.79,5.33 113.23,15.95 172.99,76.26 48.35,-73.78 -16.45,-5.08 50.74,-65.43 52,-46.67 22.41,-18.84 63.66,-44.86 131.78,-83.14 60.48,24.26 135.18,-112.64 10.78,-172.02 -21.91,-152.72 127.33,-212.06l-47.85 -90.15c-145.24,30.26 -278.53,193.72 -351.26,-13.09 64.5,-111.51 533.65,-57.54 542.89,-596.31l-110.55 -61.98c-30.38,175.96 -75.2,162.7 -209.16,251.84 -120.78,80.41 -119.1,113.65 -273.29,47.13z"/>
   <path class="fil13" d="M2035.32 2756.08c-138.83,-139.79 -474.57,-188.39 -694.94,-197 -632.19,-24.63 -730.18,978.34 495.47,453.75 171.64,-73.44 170.93,-58.5 199.47,-256.75z"/>
   <path class="fil13" d="M3838.33 7446.22c103.83,-80.71 95.39,-56.74 187.26,-148.65 18.38,-18.38 79.7,-80.83 86.2,-90.82 48.64,-75.04 35.08,-24.88 39.03,-129.13 16.49,-120.78 -20.52,-125.94 -99.08,-183.27 -47.47,116.84 -32.07,139.5 -162.21,183.1 -214.45,-150.95 -29.54,-313.62 0.17,-415.81 4.28,-91.82 38.32,-10.45 -33.53,-105.71 -34.92,-46.29 -30.97,-37.1 -78.06,-62.91 -52.63,-28.83 -150.41,-47.89 -216.17,-65.34 -132.95,79.82 -291.04,614.56 -85.24,862.12l174.59 216.51 187.04 -60.09z"/>
   <path class="fil4" d="M5987.42 5470.07c429.66,-264.68 708.49,-348.99 1106.21,-527.73 181.21,-103.87 567.56,-159.1 696.44,-203.29 138.95,-47.59 123.13,-36.76 143.82,-135.47 -209.5,-91.74 -783.86,164.64 -815.63,170.18 -143.27,25.01 -167.78,-22.71 -339.22,13.93 -99.96,21.4 -914.71,330.07 -993.52,419.96 48.55,109.29 71.72,75.21 173.83,54.81 -38.45,110.54 -41.64,120.7 28.07,207.61z"/>
   <path class="fil3" d="M8613.3 4442.34c200.6,-2.89 333.3,26.65 450.05,137.15 11.5,176.56 -46.21,288.65 -138.74,404.14 -61.78,77.14 -175.09,196.12 -306.36,188.65 -35.72,53.76 9.82,103.49 -138.95,82.46 -104,242.49 -0.76,162.24 192.41,143.91 180.76,-17.21 490.89,-303.47 596.69,-426.81 117.68,-137.15 123.59,-251.72 52.54,-414.47 -151.04,-84.43 -204.12,-247.64 -604.53,-290.91 -272.32,-29.42 -523.37,-110.25 -670.47,-28.83 96.28,237.2 228.1,92.28 517.92,180.5l49.44 24.21z"/>
   <path class="fil15" d="M351.39 3262.7l110.67 243.08c149.69,-107.61 237.61,-349.51 221.67,-523.96 -22.16,-242.95 98.95,-360.33 252.6,-478.34 388.53,-298.43 937.79,6.25 1176.62,62.78l49.36 -85.86 -47.3 -37.23c-337.04,-266.24 -792.29,-285.04 -1157.66,-134.59 -346.44,142.65 -441.07,334.65 -510.65,664.17l-61.02 235.1c-3.28,7.3 -13.94,33.03 -16.5,27.57 -2.6,-5.58 -10.57,19.18 -17.79,27.28z"/>
   <path class="fil11" d="M1888.64 6024.63l224.48 155.06 415.77 18.17c-14.82,-26.85 -517.83,-637.89 -354.16,-1031.46 213.19,87.17 63.12,234.6 320.38,735.81 17.33,-537.1 -52.71,-691.37 -305.73,-956.85 -148.32,296.66 -337.63,326.84 -292.47,797.08 17.37,180.88 47.09,206.06 -8.27,282.19z"/>
   <path class="fil0" d="M2057.73 4663.05c105.12,42.8 136.01,87.75 201.82,154.44l182.05 -165.56c-132.2,-146.76 -177.52,-44.99 -178.7,-253.44 166.61,-4.45 40.92,20.98 216.85,111.25 34.49,-449.55 244.75,-1588.28 247.18,-1720.64l-111.34 183.94c-301.15,620.6 -522.07,1628.11 -557.86,1690.01z"/>
   <path class="fil8" d="M7554.97 11358c-198.04,-269.68 168.42,-251.76 -152.17,-889.57 -65.09,-129.56 -132.95,-277.03 -182.18,-389.42 -62.99,-143.9 -67.27,-286 -226.96,-325.53 -39.07,467.97 200.52,1082.12 295.24,1544.34l266.07 60.18z"/>
   <path class="fil16" d="M7154.82 3799.25l-245.09 281.68c-366.75,-43.31 -1004.52,127.84 -1285.74,279.17 -96.4,68.61 -59.72,6.63 -50.74,119.73 125.52,20.82 202.41,-52.54 343.67,-89.43 124.14,-32.4 224.23,-45.58 339.01,-90.15 381.6,-148.18 553.5,-24.3 718.6,-70.92 84.48,-23.88 203.5,-275.98 492.98,-377.54 192.97,-67.69 652.72,-62.4 730.23,-136.47 -60.56,-97.95 -118.52,-90.57 -237.83,-89.85 -503.81,3.06 -559.59,117.29 -805.09,173.78z"/>
   <path class="fil17" d="M351.39 3262.7c7.22,-8.1 15.19,-32.86 17.79,-27.28 2.56,5.46 13.22,-20.27 16.5,-27.57l61.02 -235.1c69.58,-329.52 164.21,-521.52 510.65,-664.17 365.37,-150.45 820.62,-131.65 1157.66,134.59l47.3 37.23 49.98 -148.27c-202.78,-110.33 -180.08,-178.61 -613.35,-264.02 -240.85,-47.46 -570.29,-27.99 -774.08,76 -488.54,249.33 -613.68,871.74 -473.47,1118.59z"/>
   <path class="fil7" d="M2966.44 1671.99l79.02 -69.54c5.04,-5.33 11.37,-13.64 16.66,-19.31l164.43 -141.72c34.92,-65.26 179.83,-121.45 288.19,-147.81 -54.73,285.29 -192.42,522.2 232.49,473.22 91.07,-109.36 95.44,-58.96 120.15,-232.37 14.44,-137.61 -132.02,-724.64 -132.15,-724.98 -2.94,-8.39 -8.81,-20.98 -11.37,-27.74 -2.56,-6.8 -7.05,-18.88 -11.96,-27.57 -179.37,107.64 -639.45,629.29 -745.46,917.82z"/>
   <path class="fil3" d="M8352.26 8565.89c-121.91,138.87 -126.32,231.28 -221.08,351.6 -346.35,439.9 -512.08,148.44 -741.85,34.42 -309.84,-153.81 -360.96,-222.26 -408.76,-104.79l40.79 53.04c171.86,85.95 260.07,101.23 348.08,257.51l47.88 15.57c119.56,65.55 86.24,107.86 252.05,146.21 282.78,65.39 523.21,-163.29 651.71,-391.34 89.39,-158.59 175.63,-291.92 249.33,-463.06 72.51,-168.46 98.2,-394.28 190.48,-515.4l-1.3 -147.97c-139.16,53.38 -79.36,26.6 -137.69,182.17 -114.19,304.6 -224.52,463.91 -269.64,582.04z"/>
   <path class="fil18" d="M6121.38 7126.17l369.1 -131.94 62.32 167.49c13.39,-161.03 41.88,-146.76 102.02,-251.68l162.62 4.75c125.53,-66.9 316.81,-18.64 429.54,7.76 -4.83,-123.42 -36.3,-253.56 -65.51,-341.9 -173.87,-111.05 -465.75,-47.05 -683.39,27.99 -202.87,69.96 -224.49,79.23 -277.57,151.92 -49.48,67.69 -75.17,252.26 -99.13,365.61z"/>
   <path class="fil3" d="M5365.6 3795.77c4.32,-78.35 -1.81,-93.63 127.62,-215.08 108.4,-101.77 107.98,-52.59 223.14,-137.07 77.13,-235.68 -33.37,-128.21 140.21,-390.67 78.31,-118.43 92.16,-185.03 221.71,-263.97 293.35,-347.65 757.88,-389.54 684.9,-532.52 -113.77,-36.18 -853.78,423.74 -1054.08,721.16 -69.21,102.74 -92.83,211.6 -170.26,289.83 -189.53,191.45 -469.28,276.56 -360.5,782.39 45.32,210.59 -21.91,117.38 96.94,177.01 92.88,-142.64 -5.45,-330.11 90.32,-431.08z"/>
   <path class="fil19" d="M10733.85 1641.64c205.63,75.33 181.5,131.91 307.74,212.73 71.76,45.96 -25.35,5.04 65.97,32.19l60.85 -417.53c-94.97,-109.74 -277.86,-325.45 -399.35,-370.52 -229.81,-85.28 -432.64,108.82 -506.29,236.15 82,85.52 137.69,78.26 241.89,136.05l229.19 170.93z"/>
   <path class="fil9" d="M5365.6 3795.77l1.13 316.18c138.36,29.29 167.7,66.39 229.89,-83.1l-16.4 -71.8c45.15,-237.45 -44.24,-164.01 122.71,-276.86 90.18,-60.94 151.12,-91.4 253.73,-137.73 292.34,-132.03 468.35,-156.12 520.94,-253.53 -138.37,-147.89 -483.17,83.22 -643.32,133.92 19.35,-297.38 303.55,-328.22 352.32,-560.3l-108.32 -73.57c-129.55,78.94 -143.4,145.54 -221.71,263.97 -173.58,262.46 -63.08,154.99 -140.21,390.67 -115.16,84.48 -114.74,35.3 -223.14,137.07 -129.43,121.45 -123.3,136.73 -127.62,215.08z"/>
   <path class="fil20" d="M6929.12 7830.46c-38.86,61.7 -25.64,48.39 -19.39,59.51 260.87,3.28 539.4,-129.51 746.09,-263.72 153.35,-99.54 442.42,-385.38 508.81,-508.3 -51.96,-74.79 -10.28,-33.66 -92.08,-88.55 -3.65,-2.44 -84.86,-40.21 -99.29,-47.8 -106.01,-55.78 -60.31,-66.35 -175.55,-78.65 -133.54,227.34 -186.38,328.14 -351.43,547.5 -98.16,130.44 -88.34,136.52 -230.86,230.02 -90.69,59.47 -188.06,147.56 -286.3,149.99z"/>
   <path class="fil9" d="M5987.42 5470.07l-93.67 28.75c-49.65,284.24 144.12,232.04 350.34,202.11 94.68,-17.5 58.17,-8.73 150.87,-65.51l505.29 -345.09c68.49,-121.54 66.39,-88.85 165.05,-181.8 129.13,-121.71 56.2,-116.04 55.94,-118.14 -22.87,-202.78 214.5,117.3 -27.61,-48.05 -397.72,178.74 -676.55,263.05 -1106.21,527.73z"/>
   <path class="fil21" d="M6028.55 11185.14l-5.75 190.36c161.15,12.17 231.66,21.11 360.2,-49.18 58.97,-32.19 208.03,-151.88 233.13,-199.64 -44.74,-156.29 -117.89,-265.32 -200.1,-380.31 -112.89,-157.96 -92.87,-234.13 -245.51,-350.13 -50.19,154.48 -154.02,605 -141.97,788.9z"/>
   <path class="fil22" d="M4233.2 14539.3c64.55,-192.8 267.08,-474.19 276.77,-636.47 -50.53,-26.15 -315.97,-40.42 -446.4,-91.24 -145,-56.53 -264.64,-125.98 -421.01,-146.84 52.5,183.23 149.65,327.93 244.08,465.24l222.51 309.51c115.66,135.76 -0.97,36.51 124.05,99.8z"/>
   <path class="fil8" d="M8479.3 5254.74c-89.14,104.62 -75.88,151.67 -70.26,298.93 147.06,51.96 190.95,37.23 349.8,-23.79 487.4,-187.26 659.89,-179.37 887.01,-606.51 -41.8,-115.54 -110.16,-253.82 -171.06,-350.59l-153.85 -15.41c71.05,162.75 65.14,277.32 -52.54,414.47 -105.8,123.34 -415.93,409.6 -596.69,426.81 -193.17,18.33 -296.41,98.58 -192.41,-143.91z"/>
   <path class="fil8" d="M4347.81 9603.11c99.97,209.75 451.99,658.92 613.9,765.23 116.96,-201.7 221.5,-344.3 340.26,-514.73 52.38,-75.2 122.76,-179.24 178.28,-248.28 69.08,-85.82 142.65,-147.05 195.9,-237.36 -245.34,64.21 -547.04,633.87 -979.09,401.03 -137.61,-74.19 -187.21,-112.76 -349.25,-165.89z"/>
   <path class="fil5" d="M9768.31 5674.2c4.79,4.53 12.93,4.83 15.03,12.8 2.22,8.31 12.96,10.7 16.2,12.72 182.38,112.22 335.27,143.73 391.76,323.23l-291.34 -149.03c-40.79,91.95 -13.01,41.09 -74.03,75.54 -2.01,1.14 -74.11,25.14 -99.12,39.87 -29.17,125.19 -32.74,259.86 -1.39,386.98 37.77,153.18 72.23,156.07 211.89,110.37 3.19,-165.6 92.37,-282.06 187.85,-372.08 89.43,-84.31 70.21,-48.43 149.44,-138.32 61.23,-69.46 81.25,-88.3 109.16,-167.11 -106.77,-91.58 -90.82,-115.83 -253.82,-198.34 -156.03,-78.9 -232.5,-68.7 -313.79,-189.82 -24.38,35.38 -40.03,45.87 -54.72,118.94 -12.67,62.95 -1.93,70.54 6.88,134.25z"/>
   <path class="fil23" d="M3341.29 5803.04l334.89 38.23c46.84,59.17 191.41,122.25 283.66,182.39 126.23,82.34 197.54,138.74 300.36,234.22 163.37,151.75 329.27,398.81 357.43,657.12l141.18 1.76 -74.75 -186.59c-26.39,-64.79 -50.11,-134 -67.56,-207.86l50.27 -21.23c-6.54,-5.67 -16.53,-23.25 -19.47,-17.13 -2.98,6.21 -15.82,-13.89 -19.73,-17.2 -9.52,-8.06 -59.59,-49.9 -60.93,-51.03 45.7,-77.31 10.78,-148.36 44.82,-290.33 -60.18,52.16 -25.01,6.46 -68.53,80.57 -2.65,4.54 -22.62,84.82 -23.92,90.9 -96.78,-257.84 -89.98,-261.99 -327.72,-396.12 -399.57,-225.41 -383.75,-48.6 -433.77,-239.8 -140.85,10.32 -317.19,45.32 -416.23,142.1z"/>
   <path class="fil5" d="M2212.88 8558.93c205.38,176.3 291.12,296.29 384.71,475.78 72.06,138.15 183.1,177.52 161.53,251.8 56.74,82.17 269.76,216.42 348.7,262.88l70.47 -78.73c4.49,-6.5 9.94,-15.23 14.1,-22.07 28.41,-46.29 35.84,-71.22 58.42,-128.09 -40.71,-29.29 -35.42,-30.46 -73.91,-58.75 -141.97,-104.37 -402.88,-259.1 -463.23,-394.49 -28.5,-260.99 20.02,-204.55 -165.22,-328.64 -124.69,-83.52 -118.48,-116.84 -269.89,-168.75l-65.68 189.06z"/>
   <path class="fil9" d="M8618.25 5172.28c131.27,7.47 244.58,-111.51 306.36,-188.65 92.53,-115.49 150.24,-227.58 138.74,-404.14 -116.75,-110.5 -249.45,-140.04 -450.05,-137.15l-342.58 -4.95c-3.65,281.39 119.19,61.11 412.79,343.88 -54.01,208.49 -107.27,223.52 -163.38,390.84 56.36,34.54 -88.01,99.75 98.12,0.17z"/>
   <path class="fil9" d="M4611.45 6125.39c80.24,-73.91 124.26,-125.11 248.7,-193.76 126.15,-69.63 215.58,-95.27 204.96,-248.62 -68.4,-63.66 -43.68,-72.39 -170.51,-49.1 -13.93,2.56 -105.29,48.47 -125.19,61.44 -99.12,64.46 -107.94,105 -202.36,166.9 -206.48,-33.15 -170.98,-110.49 -362.05,-185.45 -119.9,-47.04 -360.04,-69.03 -447.49,-15.86 50.02,191.2 34.2,14.39 433.77,239.8 237.74,134.13 230.94,138.28 327.72,396.12 1.3,-6.08 21.27,-86.36 23.92,-90.9 43.52,-74.11 8.35,-28.41 68.53,-80.57z"/>
   <path class="fil24" d="M11107.56 1886.56c39.79,98 108.57,143.19 180.33,220.58 219.53,236.65 371.12,509.9 479.06,809.08 30.93,-45.4 23.75,-12.75 37.56,-91.57 23.92,-136.35 -38.95,-245.72 -59.01,-388.32 -55.52,-51.62 -9.15,2.94 -51.32,-91.57 -103.12,-231.32 -330.07,-700.01 -525.77,-875.73l-60.85 417.53z"/>
   <path class="fil25" d="M5062.38 15120.88l10.5 455c-27.58,296.33 -131.11,628.88 11.2,857.22 239.51,-78.27 259.82,-508.26 206.06,-724.47 -33.91,-136.61 -35.63,-243.33 -64.08,-398.82 -21.83,-119.44 -44.45,-268.67 -128.46,-345.47 -33.45,42.39 -54.94,-53.8 -35.22,156.54z"/>
   <path class="fil26" d="M5580.22 3957.04l16.4 71.8c142.82,46.25 314,-115.99 461.64,-202.91 223.94,-131.77 364.48,-135.17 648.81,-149.69 166.78,-187.05 263.13,-235.69 535.79,-311.23 304.05,-84.27 439.99,-67.74 605,163.25l82.59 -13.93c-145.12,-535.33 -1146.75,-236.86 -1257.04,58.79 -241.47,3.99 -429.53,5.16 -611.96,110.25 -150.45,86.7 -291.12,214.58 -481.23,273.67z"/>
   <path class="fil20" d="M2774.06 6716.58c11.37,240.22 350.01,720.02 622.2,737.44 -377.45,-424.83 -207.94,-802.41 -252.72,-1040.61 -61.02,-54.01 -268.13,55.14 -370.07,81.5l0.59 221.67z"/>
   <path class="fil27" d="M7914.04 8688.35c-114.99,104.59 -444.72,145.21 -656.24,6.3 -107.26,-70.42 -150.99,-108.7 -281.55,-142.77 -488.12,-127.29 -329.15,-51.66 -364.65,31.1l323.94 61.94c340.48,135.47 356.34,268.29 648.89,236.02 122.09,-13.51 267.38,-10.62 360.92,-81.71 110.67,-84.14 110.37,-179.58 196.07,-262.5 98.16,-147.39 152.34,-275.94 223.1,-450.9 38.14,-94.38 59.92,-182.55 93.54,-264.93 94.59,-232.08 41.3,-200.4 15.11,-237.96 -110.54,59.72 -41.59,-30.97 -99.34,118.94l-158.63 477.83c-72.86,180.5 -190.83,364.36 -301.16,508.64z"/>
   <path class="fil3" d="M4611.28 10917.73c-6.17,422.02 -54.09,605.83 -55.06,907.57 202.49,-1.13 98.5,-5.54 211.93,41.09 220.92,90.77 225.66,28.62 470.75,-148.65 -23.76,-96.9 12.42,-53.55 -79.4,-93.92l-243.58 188.14c-64.13,-84.78 -85.03,-136.52 -146.13,-205.77l46.75 -357.93 -8.73 -80.58 27.79 -362.85 -130.86 47.17c-141.51,71.56 145.67,-89.55 -49.39,31.52l-44.07 34.21z"/>
   <path class="fil9" d="M6550.62 9928.9c116.21,172.44 196.19,562.36 242.15,802.53 23.12,118.6 88.25,218.32 138.57,360.04 51.08,143.65 76.51,236.27 254.24,250.67l-507.63 -1625.3c-149.24,59.34 -116.55,40.04 -127.33,212.06z"/>
   <path class="fil28" d="M4421.63 11910.23l41.8 261.67c673.74,273.58 342.91,259.4 1063.11,-175.42 229.48,-138.54 197.92,-44.03 228.72,-317.32 -268.59,15.95 -212.73,159.44 -634.33,372.13 -268.84,135.63 -331.5,112.22 -699.3,-141.06z"/>
   <path class="fil29" d="M9361.27 2889.57l285.13 87.46c58.79,-113.1 43.1,-37.35 29.25,-192.46 -63.71,-48.13 -167.74,-88.46 -227.63,-148.56 -64.21,-64.46 -86.62,-136.85 -187.38,-208.58 -276.02,-196.4 -740.05,244.67 -59.09,417.62l93.33 23.79c10.91,3.07 23.92,7.56 32.9,10.2 9.15,2.64 22.75,5.88 33.49,10.53z"/>
   <path class="fil30" d="M2921.91 5558.16c24.55,62.74 54.05,140.09 84.35,220.33 36.85,97.49 21.7,72.6 30.51,153.22 248.87,-47.8 349.21,-85.4 639.41,-90.44l-334.89 -38.23 -254.74 66.81c56.78,-175.38 188.64,-238.12 361.84,-317.23 178.15,-81.41 418.95,-85.69 642.01,-63.91l-133.71 -106.35c-69.16,-61.14 42.18,-31.98 -106.09,-60.6 -118.98,-22.95 -622.41,1.34 -828.89,151.46l-99.8 84.94z"/>
   <path class="fil11" d="M6935.54 8644.92c0.63,7.93 4.07,113.73 4.36,115.16 16.54,77.09 3.53,36.34 40.67,87.04 47.8,-117.47 98.92,-49.02 408.76,104.79 229.77,114.02 395.5,405.48 741.85,-34.42 94.76,-120.32 99.17,-212.73 221.08,-351.6 -8.18,0.89 -116.29,13.6 -130.85,11.42 -66.81,-9.9 -0.67,103.03 -54.22,-23.71 -5,-11.88 -20.69,-7.93 -25.77,-16.87 -85.7,82.92 -85.4,178.36 -196.07,262.5 -93.54,71.09 -238.83,68.2 -360.92,81.71 -292.55,32.27 -308.41,-100.55 -648.89,-236.02z"/>
   <path class="fil3" d="M7485.52 8206.7c-153.69,40.41 -378.92,138.62 -542.34,118.77 -64.25,137.94 -26.74,160.31 164.26,173.36 130.72,8.9 169.08,-41.34 270.6,-87.29 231.66,-104.75 317.35,-75.71 559.21,-232.79 61.48,-76.34 92.83,-90.99 168.58,-212.56 74.32,-119.27 105.55,-122.97 36.93,-262.84 -202.19,71.17 -195.94,311.94 -657.24,503.35z"/>
   <path class="fil5" d="M5623.99 4360.09c281.22,-151.33 918.99,-322.48 1285.74,-279.17l245.09 -281.68c-390.09,86.54 -341.57,8.31 -692.92,103.24 -327.38,88.51 -654.43,134.55 -837.91,457.61z"/>
   <path class="fil21" d="M3464.63 11493.63c183.44,40.71 84.23,94.05 245.17,103.32 69.41,4.03 204.8,-48.85 298.09,-65.17l-177.1 -579.02c-3.99,-10.91 -35.67,-102.74 -36.6,-104.71l-70.04 -114.28c-52.58,222.39 -188.18,451.27 -259.52,759.86z"/>
   <path class="fil3" d="M3341.29 5803.04c99.04,-96.78 275.38,-131.78 416.23,-142.1 87.45,-53.17 327.59,-31.18 447.49,15.86 191.07,74.96 155.57,152.3 362.05,185.45l34.54 -129.13c-96.4,-50.15 -140,-104.24 -251.01,-171.77 -151.16,-91.95 -197.24,-38.23 -260.19,-72.64 -223.06,-21.78 -463.86,-17.5 -642.01,63.91 -173.2,79.11 -305.06,141.85 -361.84,317.23l254.74 -66.81z"/>
   <path class="fil31" d="M6028.55 11185.14c-33.2,51.11 -99.04,494.16 -104.16,596.94 129.38,-25.27 142.81,-69.67 290.28,-129.93 10.37,-4.24 41.63,-14.77 51.87,-19.01 192.59,-79.74 284.79,-147.9 544.44,-161.83 -36.85,-128.08 -110.37,-270.35 -194.85,-344.63 -25.1,47.76 -174.16,167.45 -233.13,199.64 -128.54,70.29 -199.05,61.35 -360.2,49.18l5.75 -190.36z"/>
   <path class="fil9" d="M3895.91 4968.4c348.66,121.24 397.64,117.8 627.95,332.84l163.89 -11.33c88.67,-225.07 16.32,-329.4 -217.69,-415.52 -183.18,-67.44 -361,-159.93 -547.88,-92.95l-26.27 186.96z"/>
   <path class="fil11" d="M2649.21 7309.95c67.9,194.68 86.83,142.43 192.92,237.32 212.48,88.97 588.88,521.48 999.82,173.03 142.35,-120.74 63.58,-5.75 75.92,-137.69 -446.36,191.49 -763.38,49.94 -1025.76,-312.03l-112.22 -122.54 -7.26 155.19 -123.42 6.72z"/>
   <path class="fil9" d="M2263.95 7747.45l0.46 302.75c77.56,61.91 52.67,12.55 133.08,107.65 56.24,66.48 29.29,65.97 98.37,138.36l102.82 0.42 37.85 -112.38c-48.64,-218.95 -238.33,-311.86 -251.42,-526.77 147.18,20.43 123.34,15.44 200.14,168.91 49.56,99.09 53.51,139.96 133.79,200.86l86.16 1.8 19.35 -96.19 -126.11 -272.36c-33.16,-62.53 -36.98,-73.02 -107.65,-123.47l-148.48 -92.66 -178.36 303.08z"/>
   <path class="fil6" d="M6900.25 5290.33l-505.29 345.09c444.35,-114.69 832.96,-196.07 1316.21,-73.36l-47.63 -109.57c-151.25,-365.62 -414,-159.43 -763.29,-162.16z"/>
   <path class="fil24" d="M11153.64 2901.03c54.98,161.28 44.61,77.18 143.11,195.65 44.99,54.1 78.77,114.53 104.41,176.31 53.55,129.13 147.98,290.91 163.8,393.1l106.05 238.33c165.14,-116.92 49.23,-154.52 83.85,-370.82l-490 -923.32c-2.82,11.5 -13.69,68.83 -16.92,78.69 -22.32,67.95 -16.87,41.55 -31.77,72.77 -33.11,69.54 -26.18,14.57 -62.53,139.29z"/>
   <path class="fil18" d="M3561.95 6427.68c65.76,17.45 163.54,36.51 216.17,65.34 47.09,25.81 43.14,16.62 78.06,62.91 71.85,95.26 37.81,13.89 33.53,105.71 184.24,22.2 183.98,22.41 162.04,232.71 78.56,57.33 115.57,62.49 99.08,183.27 69.75,-27.2 37.52,-12.26 90.65,-8.27 6.88,-7.38 18.09,-14.56 23.08,-19.6 68.32,-68.78 60.6,-20.56 81.75,-111.34 20.02,-86.03 -13.93,-99 -43.22,-150.36 -186.42,-326.55 -204.13,-370.7 -555.69,-605.75 -114.32,106.63 -141.09,114.15 -185.45,245.38z"/>
   <path class="fil9" d="M4096.01 8118.02l-41.21 55.36c-3.53,8.05 -11.75,19.26 -15.4,29.5l-15.99 165.6c24.84,211.81 33.4,112.39 66.52,160.9 5.41,7.94 14.77,18.93 19.47,25.35 4.82,6.59 14.23,16.66 20.69,25.52l114.95 -39.12c37.26,-19.72 -9.49,-9.48 101.51,-42.34 2.4,-0.71 81.46,-16.79 101.94,-22.03 55.27,-202.03 16.79,-213.15 335.19,-264.9 143.74,-23.33 76.09,30.55 154.52,-54.93 -130.93,-47.09 -294.39,-59.3 -422.52,-47.64 -135.64,12.3 -331.58,-50.61 -419.67,8.73z"/>
   <path class="fil26" d="M6394.96 5635.42c-92.7,56.78 -56.19,48.01 -150.87,65.51 -39.87,230.7 -13.47,212.61 173.83,119.23 135.3,-67.48 242.15,-115.41 398.56,-137.52 168.25,-23.8 896.41,41.21 894.69,-120.58 -483.25,-122.71 -871.86,-41.33 -1316.21,73.36z"/>
   <path class="fil30" d="M2987.84 10446.23c153.43,-688.72 151.25,-577.76 -276.48,-785.96 36.68,208.83 112.68,409.97 131.02,631.81 20.65,250.17 -48.3,511.49 -33.11,648.64 201.57,-143.48 118.14,-223.3 178.57,-494.49z"/>
   <path class="fil8" d="M6993.66 9753.48c160.7,-139.63 429.62,-203.08 417.24,-422.36 -13.3,-236.11 -130.06,-16.45 -41.46,-173.45 -88.01,-156.28 -176.22,-171.56 -348.08,-257.51l-49.94 9.65c172.23,194.1 315.51,268.84 -40.75,490.6 -29.92,148.02 -20.98,245.09 62.99,353.07z"/>
   <path class="fil11" d="M5488.1 7309.15c99.54,-70.04 4.49,74.41 94.13,-93.38 -20.02,-189.43 4.32,-128.29 84.82,-261.62 -224.86,-2.56 -149.28,28.79 -275.9,-112.05 12.22,-104.83 25.81,-84.82 72.61,-178.44 -260.62,-78.65 -136.1,-160.57 -515.53,-87.59 292.43,301.62 -97.95,339.98 549.86,604.45l-9.99 128.63z"/>
   <path class="fil23" d="M2935.51 8796.38c163.71,13.8 310.51,54.55 463.52,22.66l65.64 -175.8 247.02 42.64c-52.21,-66.23 48.89,-78.98 -63.29,-56.32l274.93 -54.26 13.8 58.67 56.41 -56.11 136.56 2.39c-6.46,-8.86 -15.87,-18.93 -20.69,-25.52 -4.7,-6.42 -14.06,-17.41 -19.47,-25.35 -33.12,-48.51 -41.68,50.91 -66.52,-160.9l15.99 -165.6c3.65,-10.24 11.87,-21.45 15.4,-29.5l41.21 -55.36 -99.17 38.78c-23.37,623.71 -313.36,141.68 -838.96,440.44 -143.15,81.38 -235.52,33.7 -222.38,199.14z"/>
   <path class="fil9" d="M6707.07 3676.25c69,192.96 208.16,-14.99 299.56,-77.43 216.01,-147.52 210.47,-22.46 365.03,36 126.45,-27.36 84.02,-65.3 212.35,-75.49 136.44,-10.83 94.35,56.11 263.85,-31.06 -165.01,-230.99 -300.95,-247.52 -605,-163.25 -272.66,75.54 -369.01,124.18 -535.79,311.23z"/>
   <path class="fil32" d="M9479.12 9714.53c-36.68,-43.1 -69.58,67.57 -29.8,-148.06l148.23 -403.93c-234.35,95.77 -209.21,288.4 -224.57,365.45 -27.7,138.87 -102.73,299.14 -139.58,459.28 10.2,-6.12 22.12,-14.1 29.97,-19.43l55.18 -37.35c217.43,-152.25 196.16,-90.56 312.49,-187.97 148.52,-124.3 226.28,-546.45 227.84,-741.09 -191.79,96.23 -152.22,164.3 -215.5,362.63 -60.77,190.49 -104,220.88 -164.26,350.47z"/>
   <path class="fil9" d="M6388.79 8122.43l164.89 166.36c49.4,32.81 128.84,97.49 191.33,109.15 184.15,34.5 66.27,5.25 198.17,-72.47 163.42,19.85 388.65,-78.36 542.34,-118.77 -77.94,-77.35 19.72,-28.96 -103.07,-39.45l-364.7 20.44c-188.05,-13.73 -288.77,-29.55 -366.87,-149.82 -161.95,-26.28 -230.99,-38.24 -345.35,-148.65 -60.85,39.45 -121.54,-94.3 -37.64,117.8l120.9 115.41z"/>
   <path class="fil11" d="M2824.55 7932.86l100.05 86.54c171.89,196.41 159.05,86.24 200.43,252.01 256.59,-11.29 566.43,-121.7 653.38,-321.26 -182.26,110.13 -366.2,87.3 -606.8,-3.31 -118.01,-44.44 -343.87,-201.9 -422.86,-301.87l-50.31 15.53 126.11 272.36z"/>
   <path class="fil5" d="M10245.69 3987.3l-8.27 -107.36c170.76,28.25 91.28,51.87 185.91,-22.53 -19.55,-269.98 -508.47,-662.03 -741.93,-736.61 -45.54,198.13 323.4,460.17 482.41,709.2l81.88 157.3z"/>
   <path class="fil33" d="M4590.34 17004.23c-0.97,22.87 -0.57,45.53 1.07,68.11 16.45,174.86 132.89,337.04 189.04,506.88 27.15,-191.75 110.21,-382.19 92.75,-574.99l-94.47 -1042.04 -12.78 -173.16 -1.15 0.05 -8.31 -128.26c-33.7,40.25 -54.37,73.38 -67.65,107.46 -8.35,23.78 -14.46,49.23 -18.91,76.02 -4.97,34.82 -7.22,74.83 -10.6,125.61l-68.99 1034.32z"/>
   <path class="fil1" d="M8442.41 9911.31c18.59,253.74 42.76,856.3 -215.25,1024.13 -33.11,-723.89 -183.36,-884.88 215.25,-1024.13zm172.44 525.98c-1.47,-573.99 -84.65,-724.94 247.35,-794.06 -104.03,400.91 5.46,665.22 -247.35,794.06zm510.82 -381.23c-94.55,92.28 -34.37,58.75 -166.48,102.15 26.69,-176.31 41.25,-299.77 46.96,-473.52 6.21,-190.02 39.83,-231.86 225.03,-293.39 -83.98,463.82 -191.29,377.37 -113.06,631.81 1,3.4 3.9,14.11 4.66,16.67 0.71,2.43 3.56,10.82 2.89,16.28zm710.88 -453.16c49.4,-127.71 157.29,-674.07 200.02,-747.14 5.16,7.97 12.17,10.95 14.14,24.72l148.44 555.47c-146.26,89.44 -229.61,107.4 -362.6,166.95zm-357.43 111.63c60.26,-129.59 103.49,-159.98 164.26,-350.47 63.28,-198.33 23.71,-266.4 215.5,-362.63 -1.56,194.64 -79.32,616.79 -227.84,741.09 -116.33,97.41 -95.06,35.72 -312.49,187.97l-55.18 37.35c-7.85,5.33 -19.77,13.31 -29.97,19.43 36.85,-160.14 111.88,-320.41 139.58,-459.28 15.36,-77.05 -9.78,-269.68 224.57,-365.45l-148.23 403.93c-39.78,215.63 -6.88,104.96 29.8,148.06zm3799.14 -6653.94l-24.13 103.11c-188.43,0.97 -480.39,139 -660.85,227.21 -215,105.09 -369.52,283.24 -623.72,301.54l5.8 -158.35c-69.33,-107.73 -26.28,-113.85 -202.7,-237.36l-17.8 236.86c-34.62,216.3 81.29,253.9 -83.85,370.82l-106.05 -238.33c-26.61,-50.7 93.46,-63.83 -284.79,-57.58 -17.62,133.41 -110.12,147.77 -209.58,175.76l-88.05 -139.84c88.05,232.29 309.17,431.34 366.25,610l-245.38 207.77c-7.43,7.26 -28.75,28.21 -36.51,35.09 -272.75,241.64 -87.25,41.25 -323.07,352.6l-73.35 83.9c-58.55,-113.44 -78.99,-151.34 -184.24,-219.28l-22.37 105.46c62.62,48.89 156.75,145.12 153.98,239.38 -2.35,80.29 -79.44,223.22 -102.53,308.63 -29.16,-77.73 -28.95,-49.19 -79.36,-93.76l-86.36 -91.11 -86.16 -52.96c-157.76,-46.54 -84.52,-11.16 -117.3,6.42 89.22,193.18 463.36,150.12 306.91,568.02 -126.24,-30.3 -92.04,-47.21 -188.69,-119.1l-153.09 -92.16c-3.82,-2.35 -16.24,-3.65 -18.93,-13.01 -2.64,-9.15 -12.38,-8.52 -18.13,-13.3 -85.53,-21.36 -174.5,-40.88 -258.06,-46 81.29,121.12 157.76,110.92 313.79,189.82 163,82.51 147.05,106.76 253.82,198.34 -27.91,78.81 -47.93,97.65 -109.16,167.11 -79.23,89.89 -60.01,54.01 -149.44,138.32 -95.48,90.02 -184.66,206.48 -187.85,372.08 227.59,-66.77 261.08,-265.61 410.1,-368.34 122.8,-158.85 312.41,-218.99 401.54,-451.15 139.63,-363.68 -31.43,-461.76 315.64,-923.36l463.31 -390.25c94.26,-65.97 128.59,-92.66 216.34,-175.17 251.76,-236.73 747.6,-469.1 1070.29,-600.5 206.9,-84.23 421.31,-176.94 629.71,-223.85 332.05,-74.75 466.13,-155.62 643.57,-84.4 32.02,-27.36 -48.81,-83.89 56.32,-16.28 31.01,159.81 -75.75,543.68 -128.55,707.77l-696.15 1864.97c-93.12,208.37 -161.28,374.51 -250.88,596.44 -88.13,218.35 -145.96,427.64 -237.95,615.9 -108.9,222.97 -189.31,345.77 -281.51,573.4 -62.66,154.73 -160.78,436.16 -243.37,564.2 -150.49,425.34 -628.25,1487.44 -883.4,1686.95 -373.26,38.61 -842.28,-305.85 -969.74,-487.53 -235.56,-335.82 -244.41,-867.79 -239.88,-1267.82 -15.78,-406.29 -96.69,-895.83 -249.16,-1220.78 -119.39,20.31 -62.91,-34.62 -138.4,52.5 -31.77,342.53 65.76,770.85 54.93,1167.69 -8.9,324.87 12.51,268.59 -193.89,443.09 -193.21,163.37 -413.16,214.45 -809.04,437.13 -145.16,81.66 -296.66,134.42 -422.9,216.88l-565.97 393.32c-93.96,64.37 -99.88,53.21 -116.87,195.73 24.04,335.36 161.65,724.98 246.85,1053.37 54.64,210.68 15.9,204.76 13.43,401.46 84.98,80.07 79.31,32.06 166.35,107.31 189.23,53.88 496.85,262.54 535.63,413.71 27.28,106.17 -219.15,474.22 -284.66,593.87 -213.03,389.12 -501.22,802.41 -804.64,1075.7l-716.12 672.1c-208.45,196.83 -1159.38,979.09 -1462.72,892.05l-55.73 -158.34c-9.99,-19.43 -23.92,-53.97 -36.43,-72.56 -4.24,-6.25 -10.79,-16.45 -15.57,-23l-58.33 -65.13 -16.71 224.27c-23.5,-23.29 -52.46,-138.11 -323.56,-35.71 20.39,143.23 22.07,153.34 103.19,248.57 -19.72,-210.34 1.77,-114.15 35.22,-156.54 84.01,76.8 106.63,226.03 128.46,345.47 28.45,155.49 30.17,262.21 64.08,398.82 53.76,216.21 33.45,646.2 -206.06,724.47 -142.31,-228.34 -38.78,-560.89 -11.2,-857.22l-89.1 141.94c-124.31,-9.78 -7.81,-86.67 -99.55,-63.96 5.46,25.22 61.61,-26.65 -0.96,67.94 -59.97,90.65 13.22,60.69 -118.47,67.28l1.15 -0.05 12.78 173.16 94.47 1042.04c1.49,10.53 2.1,21.53 2.01,32.94 6.13,181.57 -69.16,361.24 -94.76,542.05 148.52,-191.66 334.73,-359.36 445.52,-574.99 199.26,-387.77 307.83,-795.69 338.42,-1291.03l-8.39 -485.56c178.82,-96.27 129.59,4.7 478.68,-199.34l279.45 -182.43c57.29,-36.98 93.21,-44.07 141.73,-71.64l790.32 -524c615.15,-373.63 686.29,-510.02 1127.11,-1112.5 230.48,-315.01 254.07,-294.99 555.14,-760.23 53.34,-82.43 121.45,-184.87 175.84,-285.04 150.95,-278.04 304.38,-296.88 -188.69,-610.67 -260.65,-165.93 -375.43,-187.92 -443.54,-233.75 40.83,-239.42 599.49,-756.04 814.53,-891.21 201.44,-126.66 956.85,-581.83 1105.29,-606.64 86.91,70 123.55,115.58 237.7,192.88 321.72,217.85 767.91,277.28 904.51,209.92 110.38,-72.39 59.47,-77.59 64.21,-83.68 191.29,-247.77 277.61,-241.6 545.87,-767.16l460.92 -1204.28c52.25,-161.7 138.91,-221 202.95,-435.49 98.16,-328.81 156.25,-625.9 363.98,-917.99 519.3,-730.14 691.12,-1346.47 999.41,-2198.44 67.86,-187.42 85.36,-346.31 145.2,-499.28 100.09,-255.75 248.24,-767.33 184.91,-1075.49l-275.35 -32.94c-131.69,-14.36 -208.36,-1.77 -339.93,5.66 67.86,81.38 39.66,69.29 23.29,92.58 -158.13,19.98 21.36,16.41 -168.58,15.99 -323.78,-0.71 -52.29,63.66 -303.25,56.61 -100.18,-2.85 -50.07,-14.89 -159.44,-48.51z"/>
   <path class="fil34" d="M10416.66 2176.47c91.03,66.31 253.02,188.1 282.61,289.07l118.97 46.75 253.9 -182.72c-67.82,-89.81 -304.26,-379.17 -396,-422.9 -114.95,59.21 -219.44,164.84 -259.48,269.8z"/>
   <path class="fil11" d="M8442.41 9911.31c-398.61,139.25 -248.36,300.24 -215.25,1024.13 258.01,-167.83 233.84,-770.39 215.25,-1024.13z"/>
   <path class="fil18" d="M13271.2 2053.72c68.95,-213.61 66.9,-113.27 -50.53,-309.72 -148.43,-62.53 -237.07,-138.2 -410.14,-164.13 -113.48,-17.04 -320.88,-46.12 -433.73,-5.12 -58,21.07 -46.92,21.32 -77.51,43.81 440.19,137.19 627.57,267.21 971.91,435.16z"/>
   <path class="fil26" d="M9681.4 3120.81c233.46,74.58 722.38,466.63 741.93,736.61 -94.63,74.4 -15.15,50.78 -185.91,22.53l8.27 107.36c105.75,42.51 51.36,7.72 100.8,85.23 221.34,77.81 215.46,219.87 383.45,304.39 -2.64,-158.01 -151.16,-260.7 -274.25,-338.09 60.56,-331.24 44.61,-382.91 -174.5,-574.7 -238.88,-216.59 -294.57,-314.37 -634.79,-487.11l-285.13 -87.46c-71.72,36.01 -92.03,-15.61 -17.2,58.97 15.27,15.23 93.75,41.42 125.81,53.25 99.17,36.68 137.95,33.49 211.52,119.02z"/>
   <path class="fil18" d="M11961.67 1695.03l67.98 64.84c248.82,220.28 710.92,448.12 1018.58,309.42 -146.88,-72.82 -976.28,-507.72 -1086.56,-374.26z"/>
   <path class="fil23" d="M3747.23 1766.83l-70.67 35.34c-10.58,3.31 -22.41,9.61 -35.29,12.97l-193.47 16.95c-46.08,121.2 -32.06,63.79 -1.55,213.19 432.72,223.14 256.16,-14.27 520.47,35.38 -6.38,-131.82 -18.76,-475.57 -99.34,-546.2 -24.71,173.41 -29.08,123.01 -120.15,232.37z"/>
   <path class="fil35" d="M4007.88 11531.78c-93.29,16.32 -228.68,69.2 -298.09,65.17 -160.94,-9.27 -61.73,-62.61 -245.17,-103.32l-28.2 74.2c134.58,131.48 170.17,171.98 358.35,274.04 109.7,59.51 287.56,108.4 449.93,189.69l-236.82 -499.78z"/>
   <path class="fil36" d="M1811.76 4997.94c-108.15,139.92 -53.43,941.74 76.88,1026.69 55.36,-76.13 25.64,-101.31 8.27,-282.19 -45.16,-470.24 144.15,-500.42 292.47,-797.08 -83.22,-121.37 -38.45,-126.36 -164.85,-188.39 32.69,115.07 29.92,165.18 -12.42,276.9 -41.09,108.44 -59.43,130.68 -187.3,134.29l-13.05 -170.22z"/>
   <path class="fil9" d="M4953.86 7943.4c153.85,-27.11 114.11,-9.32 188.98,-109.45l-14.78 -139.5 -199.13 -17.67c-149.28,-21.9 -338.46,-73.48 -475.4,-17.46l-27.16 141.05c170.89,85.7 336.37,132.79 527.49,143.03z"/>
   <path class="fil37" d="M7195.82 5860.66c-135.47,-68.7 -628.79,-129.55 -591.69,121.66 30.88,209.25 442.37,144.16 600.17,86.96l-8.48 -208.62z"/>
   <path class="fil34" d="M9536.57 1701.03l427.77 162.75c35.59,-49.11 66.1,-109.83 96.27,-149.62 45.41,-59.8 28.04,-26.44 66.14,-77.01 59.22,-78.73 21.36,-10.53 53.97,-89.3 -284.74,-164.09 -519.76,-135.68 -644.15,153.18z"/>
   <path class="fil16" d="M9578.29 8280.14l122.62 7.09c6.38,-164.17 -76.59,-295.53 -104.16,-480.56 -31.31,-209.58 20.77,-302.92 -38.69,-503.65 -130.73,15.78 -122,19.14 -138.03,174.08 -10.12,98 -7.85,226.54 1.01,326.21 14.85,167.41 81.45,352.19 157.25,476.83z"/>
   <path class="fil15" d="M1021.77 3679.94c113.86,71.89 32.52,41.84 38.27,-51.16 419.04,23.59 384.97,-35.8 619.14,-131.86 169.84,-69.71 115.5,-7.34 174,-136.94 -75.42,-59.21 73.9,-48.01 -151.5,-43.85 -129.05,20.85 -171.06,61.9 -337.88,77.47 -125.86,11.75 -207.9,4.24 -296.87,23.79l-45.16 262.55z"/>
   <path class="fil0" d="M2009.13 8822.4l749.99 464.11c21.57,-74.28 -89.47,-113.65 -161.53,-251.8 -93.59,-179.49 -179.33,-299.48 -384.71,-475.78 -31.23,70.46 -88.89,195.52 -108.11,258.64l-95.64 4.83z"/>
   <path class="fil28" d="M10026.12 5099.92l7.55 29.63 40.54 337.46c5.75,4.78 15.49,4.15 18.13,13.3 2.69,9.36 15.11,10.66 18.93,13.01l153.09 92.16c96.65,71.89 62.45,88.8 188.69,119.1 156.45,-417.9 -217.69,-374.84 -306.91,-568.02 32.78,-17.58 -40.46,-52.96 117.3,-6.42l-44.15 -96.94c-100.47,14.48 -123.93,35.46 -193.17,66.72z"/>
   <path class="fil31" d="M1701.68 3316.13c225.4,-4.16 76.08,-15.36 151.5,43.85 -58.5,129.6 -4.16,67.23 -174,136.94 -234.17,96.06 -200.1,155.45 -619.14,131.86 -5.75,93 75.59,123.05 -38.27,51.16l25.22 95.64c192.63,22.2 495.93,-15.06 656.91,-77.89 207.61,-81 178.74,-253.56 219.57,-471.67 -136.98,25.31 -128.08,28.12 -221.79,90.11z"/>
   <path class="fil26" d="M7324.53 5964.78c160.02,39.99 1008.8,70.21 1144.19,24.55 -64.88,-176.39 -225.61,-122 -599.16,-129.01 -394.66,-7.38 -486.95,-61.06 -545.03,104.46z"/>
   <path class="fil37" d="M4564.45 7171.75l-124.6 134.63 53.55 102.19 258.89 -14.18c177.77,-37.52 303.04,2.22 442.04,-14.44l45.58 -109.95c-209.42,-62.16 -463.61,-186.09 -675.46,-98.25z"/>
   <path class="fil38" d="M7797.71 6902.95c115.24,12.3 69.54,22.87 175.55,78.65 14.43,7.59 95.64,45.36 99.29,47.8 81.8,54.89 40.12,13.76 92.08,88.55l35.33 -47.84c113.44,-153.31 96.23,-109.79 105.42,-245.59l-356.3 -213.32c-200.26,38.4 -139.03,76.08 -151.37,291.75z"/>
   <path class="fil9" d="M2009.13 8822.4l95.64 -4.83c19.22,-63.12 76.88,-188.18 108.11,-258.64l65.68 -189.06 -98.21 -204.97 -107.22 8.77c-65.34,122.75 -141.64,385.22 -134.38,526.14 2.64,51.54 -7.97,20.77 16.58,72.6 35.84,75.75 -2.02,17.29 53.8,49.99z"/>
   <path class="fil25" d="M13218.79 336.3c137.1,36.14 85.53,9.4 167.07,95.56 75.87,80.2 -52.71,36.3 118.76,70.8l503.69 -26.94c130.43,-38.91 61.36,4.11 104.88,-103.37 -104.54,-45.28 -296.5,-71.34 -429.24,-86.62 -201.32,-23.12 -325.67,-38.1 -465.16,50.57z"/>
   <path class="fil38" d="M2774.06 6716.58l-0.59 -221.67c101.94,-26.36 309.05,-135.51 370.07,-81.5 94.51,-82.51 2.98,15.9 61.48,-70.88l76 -237.37c-208.28,-1.89 -390.71,101.06 -551.32,203.96 2.1,99.42 -38.78,375.65 44.36,407.46z"/>
   <path class="fil34" d="M10091.75 2008.73c192.59,27.36 58.21,37.18 237.83,75.96 84.18,-150.79 161.28,-177.31 260.57,-296.54 -121.12,-91.15 -44.23,8.73 -128.63,-133.54 -124.77,-7.34 -93.54,-91.7 -234.21,47.51 -94.85,93.88 -120.24,149.86 -135.56,306.61z"/>
   <path class="fil22" d="M6301.04 10151.83c187.13,85.32 150.2,114.9 260.32,271.02 52,73.78 66.73,87.84 102.49,146.05 59.21,96.44 31.05,98.7 128.92,162.53 -45.96,-240.17 -125.94,-630.09 -242.15,-802.53 -74.7,136.9 -3.4,29.5 -135.18,112.64 -41.25,26.02 -11.66,-1.81 -63.66,44.86 -67.19,60.35 -2.39,-8.35 -50.74,65.43z"/>
   <path class="fil23" d="M2240.07 6952.22c67.36,-82.93 100.68,-199.05 120.28,-323.31 -180.33,-162.29 -209.29,-55.78 -340.02,-316.64l-137.4 -78.19c21.07,177.98 143.7,442.04 257.85,578.9l99.29 139.24z"/>
   <path class="fil30" d="M8614.85 10437.29c252.81,-128.84 143.32,-393.15 247.35,-794.06 -332,69.12 -248.82,220.07 -247.35,794.06z"/>
   <path class="fil30" d="M9836.55 9602.9c132.99,-59.55 216.34,-77.51 362.6,-166.95l-148.44 -555.47c-1.97,-13.77 -8.98,-16.75 -14.14,-24.72 -42.73,73.07 -150.62,619.43 -200.02,747.14z"/>
   <path class="fil39" d="M14250.96 1344.48l684.61 239.96c-74.78,-133.37 -445.1,-427.26 -599.66,-465.16l-50.83 39.58 -34.12 185.62z"/>
   <path class="fil28" d="M5159.5 11623.81c-95.44,-52.92 -141.26,-278.12 -342.96,-375.56l-46.75 357.93c61.1,69.25 82,120.99 146.13,205.77l243.58 -188.14z"/>
   <path class="fil18" d="M13504.62 502.66c-171.47,-34.5 -42.89,9.4 -118.76,-70.8 -81.54,-86.16 -29.97,-59.42 -167.07,-95.56 -157.34,25.85 -420.93,88.47 -538.02,198.63 168.83,18.89 732.7,65.64 823.85,-32.27z"/>
   <path class="fil11" d="M3399.03 8819.04c-153.01,31.89 -299.81,-8.86 -463.52,-22.66 136.56,161.15 420.55,372.24 617.33,479.97 -16.99,-140.46 -136.77,-254.53 -153.81,-457.31z"/>
   <path class="fil23" d="M12277.63 5957.27l25.86 137.82 88.21 -45.75 -9.48 -786.58c-106.22,33.78 -157.72,95.51 -226.63,193.59 101.19,241.56 122.59,180.88 122.04,500.92z"/>
   <path class="fil16" d="M4130.09 8580.25l-136.56 -2.39 -56.41 56.11c39.96,132.4 160.32,104.49 301.33,78.47 119.85,-22.11 142.22,-49.6 290.83,-15.4 260.7,21.28 93.37,11.16 160.02,-42.8 -76.3,-182.02 -256.5,-114.53 -444.26,-113.11l-114.95 39.12z"/>
   <path class="fil9" d="M4967.25 4777.74l23.25 162.79 118.13 120.83c60.35,16.83 99.97,-6.26 142.98,-19.18 110.92,-417.66 -289.74,-550.11 -284.36,-264.44z"/>
   <path class="fil32" d="M9125.67 10056.06c0.67,-5.46 -2.18,-13.85 -2.89,-16.28 -0.76,-2.56 -3.66,-13.27 -4.66,-16.67 -78.23,-254.44 29.08,-167.99 113.06,-631.81 -185.2,61.53 -218.82,103.37 -225.03,293.39 -5.71,173.75 -20.27,297.21 -46.96,473.52 132.11,-43.4 71.93,-9.87 166.48,-102.15z"/>
   <path class="fil26" d="M6785.55 12924.37l-77.64 184.19c208.58,-48.51 214.83,-328.01 362.76,-462.69 7.39,-78.18 33.16,-177.35 13.35,-287.55 -31.85,-129.43 34.45,-49.82 -67.69,-78.15 -87.88,106.05 -28.79,166.32 -88.97,335.11 -45.03,126.24 -86.79,209.46 -141.81,309.09z"/>
   <path class="fil8" d="M4953.86 7943.4l130.77 43.85c38.48,10.03 73.69,16.08 114.27,27.49 150.08,42.22 144.16,28.5 152.43,197.16l27.49 -52.83c3.14,-5.67 9.73,-18.43 13.64,-25.18l67.06 -110.92c39.95,-102.4 20.44,-118.01 -42.14,-206.94l-274.54 17.92c-74.87,100.13 -35.13,82.34 -188.98,109.45z"/>
   <path class="fil36" d="M6483.68 8662.63c108.15,43.9 150.87,47.3 245.89,101.52 96.44,55.02 144.49,106.97 241.85,145.66l49.94 -9.65 -40.79 -53.04c-37.14,-50.7 -24.13,-9.95 -40.67,-87.04 -0.29,-1.43 -3.73,-107.23 -4.36,-115.16l-323.94 -61.94 -92.71 -116.67c-51.95,85.78 -40.2,92.2 -35.21,196.32z"/>
   <path class="fil3" d="M6552.8 7161.72c26.4,112.68 10.24,92.66 108.23,139.37 221.76,-58.67 143.07,-185.24 156.41,-386.3l-162.62 -4.75c-60.14,104.92 -88.63,90.65 -102.02,251.68z"/>
   <path class="fil4" d="M4051.74 6894.35c21.94,-210.3 22.2,-210.51 -162.04,-232.71 -29.71,102.19 -214.62,264.86 -0.17,415.81 130.14,-43.6 114.74,-66.26 162.21,-183.1z"/>
   <path class="fil34" d="M10999.5 2738.49c20.23,12.01 16.53,3.61 52.25,35.42 6.54,5.88 27.11,27.24 33.53,34.33 34.33,37.86 49.52,65.47 68.36,92.79 36.35,-124.72 29.42,-69.75 62.53,-139.29 14.9,-31.22 9.45,-4.82 31.77,-72.77 3.23,-9.86 14.1,-67.19 16.92,-78.69l-51.12 -142.14c-162.29,16.91 -208.45,56.91 -284.83,153.48 89.93,79.94 39.91,37.64 70.59,116.87z"/>
   <path class="fil36" d="M2495.86 8296.21c151.29,274.89 286.26,237.62 529.75,100.73 -109.41,-46.34 -120.44,-32.53 -208.7,-92 -109.74,-73.94 -62.49,-68.07 -180.38,-120.69l-37.85 112.38 -102.82 -0.42z"/>
   <path class="fil30" d="M10349.6 5183.1l86.36 91.11c50.41,44.57 50.2,16.03 79.36,93.76 23.09,-85.41 100.18,-228.34 102.53,-308.63 2.77,-94.26 -91.36,-190.49 -153.98,-239.38 -38.23,80.91 -23.58,99.76 -43.89,196.74 -30.01,143.03 -5.25,76.97 -70.38,166.4z"/>
   <path class="fil9" d="M7051.07 11661.33c35.09,414 333.14,400.66 293.23,124.39 -8.44,-58.5 -16.66,-56.57 -30.81,-83.47l-54.43 -73.36 -207.99 32.44z"/>
   <path class="fil39" d="M13271.2 2053.72l462.27 16.91c-58.54,-105.04 -380.72,-291.46 -512.8,-326.63 117.43,196.45 119.48,96.11 50.53,309.72z"/>
   <path class="fil3" d="M4949.75 8743.04c126.53,8.64 332.58,46.04 463.39,-6.42 1.89,-127.88 -97.9,-124.06 -216.63,-145.88 -214.95,-39.49 -228.26,-54.18 -246.76,152.3z"/>
   <path class="fil16" d="M4990.5 4940.53l-23.25 -162.79c-51.88,-27.65 -72.52,-45.28 -138.75,-52.25 -22.66,194.61 -33.32,434.87 133,517.04 43.85,-110.21 35.37,-162.54 29,-302z"/>
   <path class="fil9" d="M4707.26 4056.79c52.37,84.57 118.14,149.24 238.16,188.01 46.67,-49.35 39.91,30.05 62.24,-138.65l-123.05 -104.88c-12.59,-83.56 -33.86,-116 -105.8,-159.18 -96.35,-9.28 -13.76,-52.29 -65.8,15.36l-5.75 199.34z"/>
   <path class="fil35" d="M900.86 3338.54c-190.78,-27.99 -237.74,133.87 -240.8,302.87l213.99 88.64 26.81 -391.51z"/>
   <path class="fil22" d="M2719.04 8027.25c46.54,97.36 5.92,39.87 78.14,122.08 33.66,38.32 45.79,53.47 97.96,81.29 76.63,40.96 162.7,55.27 229.89,40.79 -41.38,-165.77 -28.54,-55.6 -200.43,-252.01l-100.05 -86.54 -19.35 96.19 -86.16 -1.8z"/>
   <path class="fil16" d="M9899.96 5873.92l291.34 149.03c-56.49,-179.5 -209.38,-211.01 -391.76,-323.23 -3.24,-2.02 -13.98,-4.41 -16.2,-12.72 -2.1,-7.97 -10.24,-8.27 -15.03,-12.8 -67.44,-7.72 -88.63,-19.47 -160.69,-13.47 -200.48,16.74 -39.45,-4.58 -100.05,44.36 127.08,73.65 225.11,18.97 392.39,168.83z"/>
   <path class="fil26" d="M6512.64 12892.85c-18.97,115.83 -46.04,219.86 -116.5,284.33l9.94 128.33c124.1,-36.43 108.61,-56.53 156.21,-199.3 34.74,-104.16 50.94,-190.91 96.44,-268.38l-33.24 -123.13c-158.97,62.49 -32.07,39.87 -112.85,178.15z"/>
   <path class="fil36" d="M4388.69 3814.23l-15.82 83.18c105.21,8.44 140.46,22.92 233.21,101.44 43.9,37.18 20.6,11.83 53.38,56.27l47.8 1.68 5.75 -199.34c52.04,-67.65 -30.55,-24.64 65.8,-15.36 -135.38,-158.09 -179.49,-42.89 -390.12,-27.87z"/>
   <path class="fil40" d="M2542.53 7036.03c62.32,13.26 93.42,203.92 106.68,273.92l123.42 -6.72 7.26 -155.19c-85.15,-94.68 -122.83,-223.94 -174.2,-340.6 -57.54,85.94 -55.48,105.96 -63.16,228.59z"/>
   <path class="fil26" d="M8705.79 3406.78l-50.65 258.68c153.81,-8.35 160.35,-111.76 173.53,-247.06 -84.31,-100.43 -89.39,-171.27 -231.36,-182.47 -30.47,122.79 -23.34,121.58 108.48,170.85z"/>
   <path class="fil9" d="M4758.8 6916.76l115.4 34.5 -128.04 -359.53c-3.69,-7.43 -8.18,-17.25 -12.29,-23.97l-67.11 -66.68 -50.27 21.23c17.45,73.86 41.17,143.07 67.56,207.86l74.75 186.59z"/>
   <path class="fil11" d="M4659.46 4055.11c-32.78,-44.44 -9.48,-19.09 -53.38,-56.27 -92.75,-78.52 -128,-93 -233.21,-101.44l15.82 -83.18c-117.63,82.85 -58.29,16.62 -121.12,149.78l52 29.72c129.76,65.63 206.94,97.95 339.89,61.39z"/>
   <path class="fil41" d="M8402.08 3545.52c87.96,-186.46 -114.32,-275.51 -241.48,-318.11 -31.85,194.77 -48.1,32.82 151.46,254.57 70.46,78.27 -16.08,31.22 90.02,63.54z"/>
   <path class="fil4" d="M6553.68 8288.79l-164.89 -166.36c-85.23,29.71 -14.18,-42.01 -99.21,48.85 -17.45,106.22 -10.03,134.8 78.15,175.21 29.96,13.77 63.62,24.89 101.68,13.89 139.96,-40.5 23.84,4.74 84.27,-71.59z"/>
   <path class="fil26" d="M7162.08 12771.61c93.84,-48.39 118.51,-115.12 187.21,-229.81 79.61,-132.96 115.75,-181.6 22.37,-246.43 -70.13,86.11 -204,375.01 -209.58,476.24z"/>
   <path class="fil42" d="M3227.89 4896.55c-39.87,121.41 -20.73,27.53 22.08,70.13l142.31 -13.81c85.73,-62.82 -124.94,-49.06 146.63,-65 -26.4,-118.94 15.19,-42.31 -85.49,-134.97 -143.69,28.12 -114.11,58.75 -225.53,143.65z"/>
   <path class="fil43" d="M8782.38 7516.05c179.45,34.45 214.49,-4.16 218.69,-210.21 -157.42,10.95 -192.54,57.83 -218.69,210.21z"/>
   <path class="fil26" d="M9574.63 4121.63c165.44,-78.22 187.68,-272.03 -4.86,-337.16l4.86 337.16z"/>
   <path class="fil16" d="M7588.04 12449.43c91.91,-57.08 207.66,-211.56 204.17,-378.67 -122.5,51.07 -191.79,220.24 -204.17,378.67z"/>
   <path class="fil44" d="M9170.11 3831.47c121.12,16.37 107.36,-30.42 153.02,-116.16 -32.53,-122.76 -16.2,-131.02 -122.97,-164.68l-30.05 280.84z"/>
   <path class="fil45" d="M3519.65 8348.25c83.55,-45.11 96.48,-20.18 164.63,-41.17 151.46,-46.62 92.79,-19.64 109.79,-175.84 -105.93,38.4 -273.46,103.12 -274.42,217.01z"/>
   <polygon class="fil46" points="4493.4,7408.57 4439.85,7306.38 4564.45,7171.75 4339.21,7197.22 4345.67,7381.96 "/>
   <path class="fil41" d="M9961.28 4550.16c42.13,75.75 -84.36,63.83 126.4,145.79 72.48,28.2 92.87,31.18 144.07,36.97 -24.3,-119.06 -111.29,-140.38 -270.47,-182.76z"/>
   <path class="fil26" d="M10033.67 5129.55l-7.55 -29.63c-57.16,-74.65 -188.94,-168.54 -299.19,-107.14 47.05,79.7 191.83,127.92 306.74,136.77z"/>
   <path class="fil41" d="M9699.19 5375.56c-86.2,-86.7 -127.12,-125.02 -255.91,-63.03 33.53,35.46 42.97,61.27 121.03,86.12 163.25,51.99 93.04,12.42 134.88,-23.09z"/>
   <path class="fil47" d="M4056.23 14797.94l-268.72 -232.03c50.03,155.53 104.08,187.67 268.72,232.03z"/>
   <path class="fil48" d="M2073.13 8173.67l107.22 -8.77c-54.13,-138.16 23.3,-141.68 -113.43,-108.65l6.21 117.42z"/>
  </g>
 </g>
</svg>
