<?xml version="1.0" encoding="UTF-8"?>
<!DOCTYPE svg PUBLIC "-//W3C//DTD SVG 1.1//EN" "http://www.w3.org/Graphics/SVG/1.1/DTD/svg11.dtd">
<!-- Creator: CorelDRAW 2020 (64-Bit) -->
<svg xmlns="http://www.w3.org/2000/svg" xml:space="preserve" width="407px" height="512px" version="1.1" style="shape-rendering:geometricPrecision; text-rendering:geometricPrecision; image-rendering:optimizeQuality; fill-rule:evenodd; clip-rule:evenodd"
viewBox="0 0 425.01 534.97"
 xmlns:xlink="http://www.w3.org/1999/xlink"
 xmlns:xodm="http://www.corel.com/coreldraw/odm/2003">
 <defs>
  <style type="text/css">
   <![CDATA[
    .fil0 {fill:#010100}
    .fil49 {fill:#020200}
    .fil60 {fill:#020202}
    .fil51 {fill:#060501}
    .fil11 {fill:#462E32}
    .fil4 {fill:#594E0F}
    .fil28 {fill:#5B500F}
    .fil3 {fill:#5D520F}
    .fil31 {fill:#655812}
    .fil56 {fill:#684445}
    .fil38 {fill:#6A6413}
    .fil16 {fill:#754A4C}
    .fil47 {fill:#776913}
    .fil34 {fill:#7C6C12}
    .fil17 {fill:#7EA529}
    .fil15 {fill:#849B24}
    .fil41 {fill:#875649}
    .fil7 {fill:#885858}
    .fil29 {fill:#8B8A33}
    .fil39 {fill:#8C6755}
    .fil9 {fill:#925D5E}
    .fil8 {fill:#926254}
    .fil19 {fill:#926350}
    .fil10 {fill:#926D3D}
    .fil23 {fill:#926E3B}
    .fil40 {fill:#928015}
    .fil20 {fill:#928216}
    .fil1 {fill:#938416}
    .fil36 {fill:#956748}
    .fil2 {fill:#958916}
    .fil22 {fill:#966494}
    .fil42 {fill:#9A5343}
    .fil30 {fill:#9C5D43}
    .fil44 {fill:#A5A312}
    .fil35 {fill:#A8A615}
    .fil27 {fill:#AC7355}
    .fil26 {fill:#AD8563}
    .fil25 {fill:#AFBAC6}
    .fil32 {fill:#B17E6D}
    .fil21 {fill:#B1B612}
    .fil43 {fill:#B5886C}
    .fil46 {fill:#B5C1CE}
    .fil33 {fill:#BBC8D4}
    .fil14 {fill:#C38C5C}
    .fil6 {fill:#C39574}
    .fil24 {fill:#D19965}
    .fil58 {fill:#D2695C}
    .fil5 {fill:#D9B571}
    .fil55 {fill:#DAADE0}
    .fil12 {fill:#DBEAF8}
    .fil18 {fill:#DDB672}
    .fil45 {fill:#E0F0FE}
    .fil13 {fill:#E5F1FC}
    .fil37 {fill:#EBF3FB}
    .fil54 {fill:#ECC475}
    .fil50 {fill:#EFD96E}
    .fil59 {fill:#F1E26B}
    .fil52 {fill:#F5E1A5}
    .fil48 {fill:#FBF3D1}
    .fil57 {fill:#FCF390}
    .fil53 {fill:#FEF8F3}
   ]]>
  </style>
 </defs>
 <g id="Layer_x0020_1">
  <metadata id="CorelCorpID_0Corel-Layer"/>
  <g id="_2955301352672">
   <path class="fil0" d="M195.59 519.77c-10.98,0.68 -30.42,-2.43 -42.88,-4.37 1.54,-4.23 17.61,-9.95 22.49,-9.07 13.9,2.52 18.63,11.57 20.39,13.44zm10.07 -89.88c1.71,-7.72 -2.03,-5.91 5.93,-5.86 -1.7,5.82 -1.03,3.87 -5.93,5.86zm-61.29 -24.15c3.72,0 8.43,-0.45 11.72,1.55l-0.82 16.04c-4.39,-2.76 -6.42,-8.38 -8.85,-13.29l-2.05 -4.3zm64.46 12.92c-1.45,-2.72 -2.49,-7.43 -2.02,-11.53 0.11,-0.2 7.6,-6.54 12.28,-3.7l-6.5 11.91c-2.63,3.27 -0.1,1.66 -3.76,3.32zm-34.1 0.34c-8.19,-2.81 -8.55,-19.44 -6.81,-16.41 0.14,0.24 0.58,-0.26 0.78,-0.3 6.01,-1.26 7.78,0.62 14.26,0.98 -3.22,6.9 -3.61,12.58 -8.23,15.73zm-38.83 -9.88l0.9 15.99 2.94 2.16c3.5,2.26 1.68,-0.77 2.94,3.46l-4.25 2.1c-1.27,-2.76 -0.07,-1.84 -3.12,-3.24l-4.72 2.06c-2.4,-5.7 -8.73,-14.76 -4.39,-22.77 2.05,-3.79 2.49,-2.05 6.52,-4.27 0.32,-4.04 -2.44,-3.22 0.46,-5.42l0.92 4.95c2.86,0.46 5.23,-0.69 8.01,9.95 -3.34,-0.42 -2.08,-0.97 -1.96,-5.17l-4.25 0.2zm53.47 -17.87c5.28,0.47 8.34,2.24 13.77,1.26l-2.76 4.98 -8.02 0.38 -2.99 -6.62zm-99.57 0.87c-0.29,-4.46 -0.08,-12.3 1.83,-15.77 2.97,2.69 6.1,9.13 7.6,13.28 -4.38,0.76 -4.96,1.98 -9.43,2.49zm-56.78 -26.28c4.2,0.16 5.05,1.36 8.11,3.51l7.62 5.31c4.94,2.9 1.92,2.57 6.68,4.91 4.97,2.45 4.43,1.08 8.24,4.39 -1.44,7.83 -0.93,17.84 0.24,25.36 -6.45,-3.53 -10.87,-13.19 -16.45,-20.72l-5.53 -7.28c-3.96,-4.82 -8.24,-8.76 -8.91,-15.48zm331.57 16.2c-1.38,1.81 -2.29,3.39 -5.53,4.64 -6.18,-3.84 -9.46,-11.55 -12.77,-20.24 4.33,-1.59 7.45,-4.27 11.76,-5.18l11.06 -9.4c4.22,-1.71 1.94,0.88 15.44,-5.59 -0.52,5.35 -2.94,5.79 -5.31,9.78 -1.83,3.09 -3,6.62 -4.72,10.22l-9.31 -0.25c-1.5,8.22 0.75,10.86 0.76,12.99 0.02,4.19 1.72,1.57 -1.38,3.03zm-89.85 63.36c1.22,1.03 1.85,1.48 3.34,2.13 1.77,-4.24 -0.16,-8.02 -0.26,-12.57 -0.22,-9.59 2.1,-5.03 4.15,-10.93 0.98,-5.9 -0.29,-12.92 -0.42,-16.56 -0.22,-6.13 0.26,-11.71 -0.07,-17.14l4.2 1.87c2.46,-0.27 3.29,0.4 2.89,-3.79 -0.23,-2.4 -1.22,-2 -2.27,-5.95 3.19,-3.02 6.89,-10.48 10.48,-13.12 6.18,-4.55 -2.1,2.34 6.58,1.42 2.59,-0.28 5.17,-3.56 7.84,-4.83 1.94,-4.8 4.69,-5 8.2,-7.87 2.82,-2.31 5.57,-4.55 8.36,-7.39 2.4,2.39 0.83,-0.94 2.11,4.12 1.29,5.08 -0.92,17.55 3.84,22.64 3.09,3.3 4.06,1.46 6.75,0.43 6.44,17.61 5.9,7.04 7.04,14.52 -1.37,1.14 0.15,0.12 -2.06,1.32l-20.79 9.55c-1.65,-4.5 -2.76,-2.97 -3.7,-8.88 -0.77,-4.89 -0.33,-8.17 -2.96,-10.98l-1.48 0.15c0.25,5.55 1.09,9 0.97,15.28 -0.14,6.89 0.38,7.33 4.31,11.67l-15.35 27.3c-4.52,8.31 -2.7,2.77 -8.05,7.8 -0.75,2.62 -2.85,6.5 -4.42,9.57 -2.02,3.96 -2.91,5.93 -4.45,10.48 -3.19,9.41 -2.94,14.47 -1.45,24.89l0.78 5.46c-13.41,6.04 -27.65,22.93 -51.25,22.55 -5.86,-0.1 -12.03,-1.19 -17.63,0.08 -5.46,1.25 -9.87,7.37 -20.32,0.19l-9.91 -12.48c-0.14,-0.16 -0.32,-0.43 -0.46,-0.58 -1.3,-1.41 0.64,-0.58 -2.88,-2.14 -0.21,-0.19 -0.55,-0.76 -0.65,-0.56 -0.09,0.2 -0.5,-0.43 -0.63,-0.54 -1,-0.82 -1.15,-0.91 -1.81,-1.44 -6.43,-1 -16.89,-4.07 -22.15,0.25 -3.29,2.7 0.84,1.66 -6.94,5.79 -4.39,2.32 -5.45,2.55 -4.08,7.81 -10.72,0.12 -23.63,0.99 -34.6,-0.03 -11.9,-1.1 -11.48,-0.18 -19.07,-6.99 -4.66,-4.17 -1.82,-1.28 -5.7,-2.27 -4.45,-1.14 -6.79,-5.9 -8.35,-10.3 -3.31,-9.33 -4.83,-22.56 -2.79,-31.74 2.02,-9.12 2.11,-7.69 6.67,-13.78l3.9 7.81c1.36,3.25 2.28,4.88 3.59,7.83l4.77 2.41c0.21,-1.65 0.21,-0.72 0.16,-2.63 -0.33,-12.06 2.09,-6.48 -0.98,-12.83 -1.47,-2.44 -3.94,-6.87 -4.86,-9.95 -1.84,-3.7 -6.88,-15.02 -6.94,-20.18 -0.09,-6.84 0.27,-23.81 5.5,-25.85 1.93,-0.76 -0.14,-0.08 2.47,-0.69 19.06,-4.43 4.49,-15.03 -2.07,-26.97 -2.44,-4.44 2.57,-17.85 4.14,-22.19 2.78,-7.67 2.73,-14.37 10.83,-18.29l-0.27 15.14c-0.01,8.25 3.58,5.68 2.57,13.14 -2.46,18.15 -3.83,30.26 -2,49.29 0.45,4.63 0.19,3.13 -0.56,6.9 -1.55,7.88 -0.25,0.62 1.03,6.46 0.75,3.46 1.08,29.4 0.8,30.7 0.96,3.3 1.06,2.47 5.47,2.38 2.4,-5.98 0.52,-15.49 2.98,-20.14l5.02 6.33 -1.48 -9.2c-2.41,-1.37 -2.37,-0.75 -4.6,-2.39 2.01,-2.37 0.52,-8.35 1.03,-12.67 0.78,0.68 -0.47,0.69 3.28,0.73 -2.48,7.99 6.9,19.46 11.43,25.98 3.86,-1.04 3.74,-3.11 7.98,0.46 -0.14,0.2 -0.4,0.25 -0.48,0.57 -0.07,0.33 -0.38,0.46 -0.48,0.57 -2.76,2.92 -5.03,5.12 -8.43,6.1 -1.75,2.66 -16.47,11.87 -21.18,14.22 -5.49,2.74 -5.18,0.34 -6.21,6.24l2.36 0.84c7.29,-2.08 8.49,-4 14.24,-7.33 1.29,-0.75 1.21,-0.61 2.7,-1.57l15.05 -10.49c5.74,-4.43 5.32,-2.36 8.4,-8.61 1.36,7.33 -0.89,5.79 2.9,10.89 3.03,-1.63 2.3,-2.59 4,-5 6.77,1.02 12.17,2.73 19.79,3.66 7.85,0.95 12.15,1.46 19.8,1.24 4.46,0.7 9.62,0.44 12.33,-1.9 -1.04,-5.71 -26.11,-0.2 -32.66,-5.79 -6.33,-5.41 -11.23,-4.39 -20.32,-5.94 -0.91,-5.18 -2.02,-5.89 0.02,-10.58l3.46 2.13 5.96 -0.96c0.17,-4.28 -0.78,-2.59 0.81,-5.16 1.52,3.92 1.44,2.76 0.87,7.68 11,2.73 1.93,4.97 9.12,5.8l0.13 -7.63 -1.07 -6.93c3,1.44 3.9,0.71 7.12,-0.51 2.42,-2.83 1.38,-2.81 5.55,-3.35 -0.53,6.05 -2.37,5.82 -0.93,12.1 1.28,5.58 -1.5,6.6 1.98,10.44 3.59,-1.85 3.87,-1.74 4.33,-7.12 1.28,-3.88 2.38,-6.48 4,-10.81 1.71,-4.54 2.61,-8.28 7.22,-9.04l1.61 15.4c-0.62,8.12 -6.78,5.37 -8.96,12.02 5.16,1.78 8.06,-0.95 12.12,-4.05 3.72,1.39 0.98,1.43 5.25,2.74 2.65,-1.44 3.12,-1.02 5.14,-3.34 1.39,-1.79 1.59,-2.5 2.82,-4.11 10.46,2.08 18.02,10.89 28.12,19.51l3.65 3.71c2.22,2.19 2.02,2.63 5.82,1.92 -0.87,-4.29 -1.89,-4 -4.29,-7.09 -5.55,-2.7 -3.6,-3.51 -7.4,-7.03 -1.03,-0.95 -2.88,-2.46 -4.05,-3.42 -2.63,-2.16 -2.04,-0.91 -4.53,-3.98 -1.2,-1.48 -0.41,-0.74 -1.29,-1.86 -2.94,-3.72 -5.54,-3.39 -12.69,-6.46l-4.43 -1.37c-0.11,-0.03 -0.43,-0.09 -0.62,-0.2l7.6 -11.12c4.81,0.46 5.3,2.74 6.45,5.91 4.83,-0.72 4.29,-5.99 11.65,5.2 2.63,3.99 6.05,9.56 8.28,14.08l-13.75 -13.99c-3.08,-2.8 -1.07,-3.01 -6.44,-1.22 0.92,2.45 2.88,4.78 4.56,6.4 1.49,1.44 1.06,0.83 2.75,2.56l13.79 15.59 2.36 2.36c1.09,1.13 1.4,1.49 2.55,2.68 4.4,4.57 11.6,14.1 16.73,15.51 -0.66,-1.99 -9.99,-17.19 -14.07,-19.3 2.76,-2.64 2.6,-0.36 3.8,-4.43 -2.44,-9.8 -9.52,-12.36 -12.89,-23.87 -1.98,-6.76 -1.02,-7.88 -2.1,-13.54 -0.52,-2.78 0.18,-0.95 -1.02,-3.35 -0.15,-0.31 -0.71,-1.06 -0.89,-1.33 -5.16,-8.06 -9.8,-56.44 -12.94,-73.07 4.86,5.57 18.9,42.96 23.3,54.25 3.02,7.73 4.57,17.61 7.31,19.17 0.18,-0.26 1.51,-0.18 0.74,-4.6 -1.6,-9.12 -17.42,-48.6 -21.32,-58.67 -1.69,-4.38 -8.52,-16.26 -8.85,-19.01 1.96,5.45 7.83,9.19 10.61,13.82l10.36 15.28c3.48,5.05 4.36,4.13 6.74,11.31l7.5 27.75c2.92,12.97 -7.47,14.98 -1.09,17.76 2.15,0.94 2.73,-1.14 4.37,-3.14 0.14,2.78 1.2,8.35 0.96,10.42 -1.07,9.41 -4.81,-2.28 -2.03,8.81 0.83,3.3 2.49,5.79 3.02,9.7 0.47,3.43 -0.42,6.68 0.56,9.94zm-76.98 -100.55l-10.95 9.58c-4.78,3.28 -8.18,4.96 -9.25,10.97 0.99,1.12 -0.62,0.56 3.25,0.32 6.06,-0.39 7.97,1.31 15.23,-4.3 5.51,-4.24 10.13,-8.6 14.38,-12.22 0.19,0.29 20.54,44.81 -8.58,35.28 6.6,-7.29 7.14,-6.13 5.03,-10.5 -6.15,-1.01 -9.97,7.33 -11.89,10.6l-10.65 1.62 3.88 -14.9c-5.61,1.94 -7.71,10.87 -10.4,15.51 -10.96,-2.89 -6.83,0.48 -16.47,0.8 -9.02,0.3 -6.23,-7.69 -12.87,-7.61 -1.56,6.86 1.84,3.71 4.28,9.57 -1.58,-2.54 -8.78,-2.06 -13.24,-1 -2.17,-6.15 -6.69,-15.64 -13.87,-15.56 1.09,5.91 9.01,11.39 3.32,18.35l-8.6 10.72c-1.52,2.21 1.75,1.28 -3.16,2.77 -1.93,-2.78 0.9,-40.9 0.48,-48.29 4.96,-0.07 31.16,12.5 36.72,10.44 -0.58,-4.21 -2.41,-4.67 -5.32,-6.48 -2.64,-1.65 -4.59,-2.9 -7.21,-4.55 -4.87,-3.06 -9.9,-6.36 -16.02,-8.59 -4.79,-1.75 -9.39,0.46 -5.62,-13.99 2,-7.66 -0.3,-3.87 -0.42,-7.88 -0.12,-4.15 2.11,-4.31 4.36,-8.29 6.29,-0.57 3.5,0.47 9.71,-0.48 4.85,-0.46 11.27,-2.16 16.62,-2.77 10.59,-1.22 36.5,-1.56 46.21,1.26 1.79,0.52 4.46,2.55 7.41,3.74 -2.59,8.01 1.56,12.08 3.27,19.07l-4.41 3.8c-1.97,1.22 -3.42,2.17 -5.22,3.01zm37.35 -55.8c0.1,-5.77 1.66,-8.57 7.75,-7.27 1.54,3 1.43,2.18 1.11,6.18 -4.63,1.99 -4.29,1.59 -8.86,1.09zm103.94 10.87l-1.73 6.86c-3.16,-3.3 -5.16,-8.06 -4.46,-14.55 5.04,-2.6 14.84,-5.35 21.87,-5.15 -9.45,12.03 -6.91,11.87 -15.68,12.84zm-223.23 -16.6c2.73,-1.21 0.56,-0.99 4.56,-0.71 1.98,0.14 2.65,0.56 3.5,0.84 0.16,3.51 -1.49,-1.13 -1.94,7.89l-7 -0.05c-0.12,-5.65 -0.67,-4.78 0.88,-7.97zm66.46 -31.58c-2,16.69 -4.93,14.24 -19.4,19.24 -10.86,3.75 -6.39,0.64 -14.61,0.15 -5.02,-0.3 -8.39,-1.11 -14.02,-2.25 -3.46,-5.83 -4.91,-12.14 -6.89,-17.14l27.13 -3.01c10.37,-0.43 20.51,-0.95 27.79,3.01zm81.4 -13.93c15.91,2.11 23.54,5.45 35.86,13.78 8.16,5.51 8.73,3.66 10.51,15.18 0.77,5 1.27,5.94 -0.83,9.65 -1.8,3.16 -3.48,5.51 -5.57,7.37 -0.96,-1.13 -1.22,-1.44 -1.86,-3.05l-10.47 -7.11c-2.98,-2.64 -5.39,-5.16 -8.42,-8.13l2.19 -10.4 -1.21 -3.03c-0.06,-0.44 -0.32,-0.53 -0.47,-0.8 -4.17,1.58 -3.87,3.47 -6.56,7.23 0.07,1.87 -3.22,6.03 6.21,13.91 2.07,1.73 7.57,9.43 8.28,12.66 3.65,1.84 3.67,3.43 5.83,7.19 3.32,5.76 1.21,4.44 2.69,11.22l3.36 -0.02c1.26,-2.18 2.14,-3.1 4.1,-5.43 7.71,1.58 19.57,13.53 21.16,22.96 -4.31,1.06 -3.22,-1.45 -8.01,2.96l-41.21 49.99c-2.84,-4.66 -19.65,-26.82 -17.12,-29.44 1.02,-1.07 19.26,-0.75 28.77,-16.03 0.95,-1.53 1.73,-3.21 2.27,-5.34 1.49,-5.86 1.56,-2.91 -0.79,-4.4 -1.67,2.39 -2.52,5.2 -4.87,8.47 -9.13,12.65 -25.1,16.06 -32.48,10.84 3.33,-2.4 11.23,1.53 27.07,-14.11 4.31,-4.26 10.73,-9.06 12.59,-12.17 -10.57,-0.9 -17.52,21.52 -37.96,21.07 -7.1,-0.16 -8.63,-3.83 -11.24,-8.46 7.45,2.95 18.37,3.42 27.18,-0.27 5.31,-2.23 7.32,-6.62 9.62,-8.42l11.06 -7.17c2.73,-7.1 9.85,-10.45 -2.49,-11.11 -2.4,3.5 -4.98,6.45 -9.59,9.8l-5.14 4.37c-2.53,2.37 -3.84,3.12 -8.25,3.68 -2.41,2.31 -15.52,2.54 -19.69,1.66 -11.39,-2.42 -8.55,-1.25 -15.93,-8.5 -3.3,1.17 0.45,-0.43 -1.88,1.15 -2.28,1.55 1.49,-0.07 -2.59,1.85 -9.35,0.49 -7.87,-8.52 -13.22,-10.21 2.76,13.29 10.97,2.78 16.82,35.64l7.25 48.07c-3.72,-2.39 -1.39,0.78 -4.44,-4.55 -4.96,-8.69 -1.38,-51.66 -17.53,-61.79 -7.3,-4.58 -2.02,-3.84 -7.84,-9.3 -2.83,-2.67 -6.31,-5.13 -10.36,-5.87 -5.3,-0.97 -4.11,0.07 -8.27,1.1 -5.98,1.48 -13.17,-0.51 -19.72,-0.55 -4.32,-0.02 -15.66,2.66 -18.89,0l15.01 -6.01c7.32,-2.15 11.55,1.43 18.2,2.25 -2.9,-7.06 -15.32,-8.16 -18.93,-7.19l-27.4 10.96c-5.3,3.01 -19.5,9.47 -21.78,17.69l-8.26 -0.82c-1.85,2.43 -1.74,2.67 -4.96,4.49 1.88,-3.87 4.33,-4.04 8.5,-7.37 3.53,-2.82 6.66,-4.13 8.42,-8.06 -5.23,0.01 -17.06,1.33 -21.58,3.24 -9.14,3.86 -6.03,5.69 -19.79,5.54 1.43,-13.67 5.3,-14.96 1.09,-18.22l-2.12 1.45c-2.69,2.5 -8.82,14.3 -8.76,19.07 0.11,9.26 4.78,5.04 25.86,1.85 -1.01,1.23 -0.44,0.81 -1.85,1.94 -0.83,0.66 -1.08,0.84 -2.07,1.37 -4.92,2.62 -13.44,3.2 -15.29,6.75 1.95,1.68 -2.1,1.54 3.91,1.1l14.23 -5.42c-0.47,4.31 -9.77,21.67 -11.99,24.16l-18.19 -23.12c-4.12,-4.54 -4.85,-11.48 -2.21,-15.09 1.81,-2.48 3.78,-3.16 5.84,-4.94 3.12,-2.71 2.19,-2.27 6,-4.48 0.48,-12.73 1.6,-4.88 7.04,-12.37 1.09,1.13 0.85,1.16 1.76,3.14 3.24,1.57 1.2,0.48 2.92,-0.42 9.92,-5.17 -3.29,-0.22 3.3,-2.24 1.93,4.39 1.18,0.35 -0.44,4.97 -9.63,27.51 14.19,10.4 16.87,9.61 1.54,-0.46 3.6,-0.68 5.31,-0.99 0.17,-0.03 2.6,-0.53 2.71,-0.57 1.61,-0.55 1.24,-0.45 2.29,-1.15 4.27,-2.82 0.52,-1.49 6.23,-1.01 6.07,-6.92 4.08,-2.64 10.18,-5.81 12.26,-6.38 13.14,-1.44 23.18,-6.8 4.78,-2.55 1.99,-4.3 10.15,-5.73 7.06,-1.24 19.42,0.17 25.23,2.7 7.49,3.27 12.4,9.23 22.32,8.08 -2.51,-4.08 -30.84,-17.32 -34.97,-18.14 -2.45,-0.49 -11.2,-0.72 -13.79,2.84 -0.74,-3.2 2.04,-2.68 -1.41,-4.33 5.47,-1.81 5.14,-2.93 9.9,-1.29 4.29,1.48 6.49,3.66 9.93,0.14 1.36,1.98 2.46,4.2 3.75,6.01 15.2,0.5 11.06,-4.84 24.08,5.1 2.54,1.95 2.86,1.57 4.72,4.17l16.59 8.59c19.59,11 13.44,8.61 39.59,4.29 8.57,-1.26 5.21,-12.65 12.42,-16.19 4.35,-8.86 -7.01,-5.42 -15.49,-15.06 -10.61,-12.07 -6.6,-6.7 -18.97,-8.78 7.53,-13.08 19.02,-0.48 23.97,-7.61l-13.16 -4.18 3.4 -4.88c-4.61,-2.11 -5.66,-4 -9.63,-8.06l10.22 -1.31zm51.83 -19.1c2.39,-3.95 5.77,-8.12 8.75,-12.42 7.76,-11.21 2.73,-11.48 10.84,-9.44 0.72,3.79 2.06,20.43 1.51,23.97 -0.53,3.41 -1.58,3.83 -4.38,8.31 -1.53,2.46 -0.76,2.12 -3.49,3.03 -2.56,0.85 -2.23,0.51 -4.84,0.49 -1.66,-0.64 -7.83,-11.63 -8.39,-13.94zm-191.15 41.21c0.9,4.08 3.37,7.25 4.73,10.09 -4.65,0.64 -6.28,2.73 -10.55,0.63 -3.27,-1.61 -3.92,-3.46 -8.72,-2.01l-11.26 4.98c-0.21,0.11 -0.47,0.26 -0.68,0.37l-5.12 3.64c-3.95,3.28 -6.25,6.76 -11.79,6.1 -1.62,-2.73 -2.18,-4.99 -4.1,-7.64 -1.48,-2.05 -3.48,-3.56 -4.44,-6.18 -2.84,-7.74 9.36,-9.83 9.42,-9.86 3.19,-1.61 21.83,-21.81 21.83,-21.81 2.9,-2.16 4.23,-2.39 7.46,-4.26 3.65,-2.12 3.06,-3 5.19,-4.43 3.64,-2.46 18.15,-8.15 26.17,-6.25 3.51,0.83 3.05,2.12 7.44,0.5 4.26,-1.56 9.66,-6.01 15.02,-4.34 -16.44,6.61 -36.28,16.33 -51.41,25.51l-3.53 2.61c-5.26,4.8 -8.76,-0.72 -11.2,5.23 4.47,4.67 16.98,0.16 21.74,-2.32 -1.97,4.2 -1.86,0.96 -3.41,5.55l5.99 -0.88 1.22 4.77zm168.23 -26.96c-4.02,-2.66 -4.57,-4.18 -8.21,-6.77l-20.3 -10.61 1.21 -5.2c9.21,2.71 3.81,5 10.51,5.64 3.1,0.29 1.02,-2.32 5.57,1.49 1.59,1.33 2.38,2.76 4.37,4.22 10.58,7.74 14.71,5.85 17.31,17.55 -5.14,-1.34 -6.19,-3.5 -10.46,-6.32zm-110.21 -9.9c2.53,5.18 0.46,-0.19 8.27,5.11 -6.9,2.05 -11.52,3.59 -13.93,8.63 5.5,2 13.66,-3.93 27.94,-7.39l1.72 -3.24c-3.16,-3.13 -5.83,-4.63 -10.15,-6.75 5.07,-1.91 10.53,-1.36 16.16,-4.56 2.78,-1.59 2.81,-4.5 15.62,-5.31 0.16,-0.26 0.22,-0.67 0.31,-0.89 1.24,-3.12 -0.05,-2.05 1.96,-3.86 3.24,-2.92 5.67,0.52 6.95,1.42 7.28,5.17 10.86,4.78 11.43,8.17 0.57,3.4 -3.59,3.93 4.52,6.73 8.23,2.84 17.79,8.28 25.17,12.27 -2.17,1.42 -24,1.12 -25.21,0.6 -2.54,-1.11 -6.05,-6 -8.77,-8.31 -9.14,-7.77 -0.77,-4.55 -6.78,-6.81 -3.92,3.02 -1.1,0.25 -2.39,4.1 1.06,3.63 0.48,3.69 2.66,7.11 1.81,2.82 2.67,3.02 3.81,5.76 0.16,0.19 1.93,2.23 2.06,2.37l2.04 2.26c2.02,2.47 2.44,3.3 2.25,5.72 -0.8,10.22 -7.65,12.99 -16.6,15.37 -8.61,2.29 -6.42,1.51 -5.81,8.29 -4.63,1.9 -12.36,6.42 -15.4,10.15 -2.94,-1.51 -5.05,-3.28 -7.71,-5.97 -3.95,-3.98 -2.15,-0.61 -8.31,-2.21 -0.81,-5.82 -1.58,-9.16 -8.4,-12.05 0.87,-4.09 6.12,-15.28 4.92,-18.5 -6.88,-4.66 -11.96,1.99 -17.28,-1.26 -4.97,-0.21 -6.81,-1.23 -10.56,-0.1 -9,2.7 -17.77,0.38 -30.61,0.76l25.02 -13.75c6.16,-3.08 12.36,-4.66 17.36,-8.34 8.18,-6.01 6.8,-3.29 6.88,-9.11 -6.27,2.01 -2.66,2.85 -9.47,2.39 3.26,-1.04 1.7,-1.1 4.58,-3.01 2.5,-1.65 2.82,-1.29 5.69,-2.82 6.2,-3.3 2.74,-3.45 10.99,-1.66l10.7 1.1c5.65,1 2.24,1.99 8.55,-0.02 1.4,-0.45 3.28,-1.37 4.98,-0.59 -1.28,3.2 0.29,0.51 -2.38,2.12l-15.68 6.67c-5.98,1.47 -17.75,1.78 -17.1,9.41zm-107.8 -29.08c7.38,-0.26 8.7,2.81 12.75,6.7l5.28 6.38c1.84,2.29 1.75,1.47 3.18,3.27l4.4 7.32c-3.44,2.29 -12.82,6.38 -17.09,6.58 -2.21,-1 -1.51,1.08 -5.32,-6.58 -1.29,-2.6 -1.91,-4.33 -3.63,-7.16 -1.94,-3.19 -3.65,-3.82 -1.28,-12.5l1.71 -4.01zm131.38 4.19c-0.27,-2.79 6.56,-28.72 10.22,-33.13 0.22,7.86 2.68,27.1 0.39,32.69 -3.76,1.54 -6.02,1.41 -10.61,0.44zm88.03 -5.08c-0.13,-0.6 -0.55,-11.82 -0.45,-12.31 1.4,-6.8 -1.36,0.85 6.66,-8.14l1.03 -1.08c11.07,-12.03 6.92,-9.53 15.06,-21.18 1.4,5.89 4.53,9.51 6.35,13.99 -2.73,5.2 -8.15,13.33 -11.85,16.74 -0.82,0.76 -3.11,2.45 -4.25,3.32l-2.6 1.81c-12.57,6.91 -2.79,4.96 -9.95,6.85zm-203.88 1.57l-4.51 -2.88c-0.21,-0.12 -0.48,-0.28 -0.69,-0.4 -15.66,-8.95 -15.13,2.01 -17.79,7.16l-6.3 -11.86c-3.37,-6.13 -5.06,-7.25 -5.83,-11.78 -1.51,-1.45 -0.8,-0.32 -1.91,-2.78 -1.58,-3.49 -3.25,-15.43 -3.02,-18.41 1.12,-14.49 0.27,-16.39 6.56,-28.56 0.11,-0.22 0.25,-0.49 0.37,-0.7 0.11,-0.22 0.27,-0.49 0.39,-0.7l8.22 -13.17c1.51,-2.54 1.13,-3.1 1.44,-3.75 1.79,-3.84 2.5,-0.03 3.97,-7.02 -0.73,6.56 -1.3,11.29 -0.18,16.95 1.43,7.18 16.51,46.78 19.86,52.78 1.73,3.08 2.52,3.78 3.94,6.96 1.28,2.88 1.98,4.83 3.1,7.37 5.85,13.3 3.61,6.97 9.53,10.6 3.53,2.16 10.22,15.93 11.19,20.35l-13.2 3.11 -1.06 -8.71c-6.4,-2.4 -3.83,-2.37 -7.42,-7.42 -1.97,-2.76 -4.3,-4.17 -6.66,-7.14zm148.84 -13.24c3.75,-12.42 8.32,-22.65 13.99,-33.69l6.79 -23.95c2.54,-9.36 4.55,-14.89 5.22,-24.3 0.19,-2.67 1.27,-9.81 2.32,-12.19 1.3,14.43 -3.9,30.58 -4.64,45.2 -0.6,11.76 0.49,7.77 3.22,11.75 -2.84,0.62 -3.74,1.15 -5.67,2.61l1.92 5.64c2.38,-0.81 4.89,-2.02 7.07,-2.86 1.39,3.16 2.18,4.08 2.31,7.35 0.22,6 -5.51,3.22 -8.32,9.52 2.76,2.92 3.45,2.34 6.87,4.88 4.46,3.29 2.21,3.18 4.85,6.36 1.84,-2.44 0.51,-5.16 -1.69,-7.36 -1.55,-1.54 -1.46,-1.06 -3.01,-2.28l-2.85 -2.66c1.28,-0.92 2.63,-2.21 4.47,-2.46 2.66,-0.35 1.24,1.04 3.31,0.33 -1.88,-17.51 -9.92,-24.5 -9.93,-24.51l3.7 -35.81c1.73,-7.2 0.07,-1.66 1.74,-3.79 1.61,3.55 3.2,17.4 3.45,20.31 1.45,16.94 5.87,10.51 6.85,15.1 -1.22,7.8 -4.35,2.5 -4.12,13.73 0.19,9.29 1.69,44.71 0.69,50.66 -4.6,-1.42 -10.27,-6.24 -15.68,-9.76 -7.82,-5.09 -14.03,-8.23 -15.86,-1.15 5.25,4.71 1.33,-1.19 9.69,7.35 -4.18,-0.93 -7.94,-1.79 -11.17,-3.92 0.1,-0.17 0.18,-0.46 0.19,-0.55l-0.98 -5.84c-2.98,-5.47 0.39,-0.82 -4.73,-3.71zm88.79 -28.13c-2.76,-16.31 -5.64,-14.72 -2.59,-32.22 0.83,-4.77 0.83,-15.26 2.04,-18.47 1.6,-4.23 4.72,-3.61 8.04,-10.47 0.57,4.74 -1.09,11.44 -1.9,16.75 -0.88,5.78 -0.52,10.85 -1.07,15.41 -2.13,17.74 4.74,10.92 -4.52,29zm-181.94 38.23c-1.81,2.89 -2.64,2.49 -3.51,4.82 2.57,1.16 12.11,-4.92 16.43,-6.45 10.65,-3.77 9.04,-0.08 13.19,1.77 3.27,1.46 0.83,-0.15 3.78,0.59 -10.42,3.49 -12.14,-0.05 -25.62,7.12l-10.74 6.38c-4.38,1.25 -9.62,1.52 -13.18,-0.89 0.65,-7.78 4.36,-2.81 7.33,-9.37 2.11,-4.68 2.03,-31.41 6.81,-42.76l-0.9 -11.8 2.35 -0.99c0.88,-0.3 1.57,-0.38 2.52,-0.72 4.06,-1.5 2.14,0.96 6.02,-9.98 3.09,-8.7 2.79,-3.13 3.01,-11.92l5.5 -21.1c1.65,-5.42 1.45,-12.57 4.22,-17.09 2.43,4.29 -3.4,22.37 -4.33,29.87 -0.79,6.3 -0.67,11.54 -0.73,18.1 -0.1,10.3 0.78,7.71 2.72,14.75 -6.15,4.22 -9.93,7.9 -9.01,18.26 2.12,1.14 6.2,2.35 10.72,2.27 -1.41,-8.28 -3.5,-5.57 -8.02,-7.6 1.44,-8.58 4.53,-7.14 8.61,-11.72 -0.06,-5.7 -2.62,-6.52 -2.53,-13.86 0.15,-11.93 1.29,-32.27 5.47,-42.62 1.61,24.42 1.45,73.73 10.42,94.84 -4.45,2.9 -12.38,2 -17.07,3.55 -4.58,1.51 -9.16,5.73 -13.46,6.55zm-28.6 -125.17l0.32 0.32c-0.02,-0.02 -0.43,-0.21 -0.32,-0.32zm198.37 142.4l-6.59 10.99 -12.44 -6.65c0.36,-20.75 21.16,-24.24 31.24,-41.96 1.64,1.93 3.06,3.99 5.03,5.73 1.91,-1.45 2.02,2.19 0.63,-3.68 -0.31,-1.28 -1.34,-3.41 -1.65,-5.11 -1.38,-7.47 10.21,-17.38 9.33,-23.57 -0.02,-0.14 -2.46,-5.16 -1.74,-19.4 0.37,-7.33 0.81,-12.34 2.46,-18.48 1.57,-10.56 5.24,-19.2 7.14,-27.34 1.09,-4.7 1.97,-7.34 5.36,-11.24 2.54,-2.92 4.84,-6.85 8.76,-8.28 0.14,16.6 3.85,14.98 -1.72,20.43l-2.98 18.47c-3.02,5.31 -7.94,9.55 -8.17,17.02 2.14,-0.87 3.91,-2.03 6.26,-2.32 -2.46,16.5 -12.08,22.54 -7.29,41.65 3.77,-1.58 4.45,-4.61 7.82,-10.88 -0.18,-0.11 -0.52,-0.09 -0.62,-0.1 -0.09,-0.01 -0.48,-0.07 -0.6,-0.07l-1.19 0.01c-3.21,0.09 0.82,1.68 -2.22,0.16 0.74,-15.3 5.62,-20.35 8.93,-31.98 2.99,-10.51 -4.09,0.18 2.14,-13.64 5.93,-13.15 3.95,-5.58 7.68,-11.91 -0.89,-2.47 0.01,-3.52 -2.8,-3.49 5.82,-5.54 1.42,-16.29 0.86,-26.95 2.3,6.74 5.41,8.27 5.53,18.67 0.31,26.27 -4.62,39.53 -10.85,64.6 -7.04,28.29 -9.18,16.75 -12.96,54.79 -0.69,6.99 -4.45,19.51 -5.22,17.61 -0.06,-0.16 -0.32,0.38 -0.5,0.56 -2.51,-7.48 0.21,-20.86 -4.51,-29.77 -9.03,0.46 -18.88,19.08 -25.12,26.13zm-204.11 -72.85c6.08,4.25 -5.12,3.16 3.14,14.01 2.92,3.85 10.12,15.38 9.27,20.11 -2.2,12.38 -2.26,9.94 -3.17,25.8 -2.95,-2.43 -1.4,-1.95 -4.19,-4.2 -3.46,-2.8 -1.28,1.33 -3.73,-3.78 -3.29,-6.89 0.67,-2.11 -5.44,-8.26 -4.1,-4.12 -6.18,-12.85 -8.96,-19.42 -1.69,-4.61 -4.42,-6.85 -5.25,-12.23 -7.21,-6.48 -0.81,-12.12 -3.25,-20.16 -2.73,-9.02 -7.05,0.11 -5.19,-19.2 0.89,-9.33 0.77,-35.86 7.45,-42.74l4.01 13.1c1.45,3.08 0.14,-0.83 2.01,3.28 0.85,4.07 0.31,5.17 2.91,7.45 0.55,-8.46 -1.26,-43.91 -5.18,-48.5 -7.65,7.34 -14.7,27.66 -19.73,37.34 -2,3.86 -5.22,7.73 -7.76,11.48 -2.68,3.94 -4.09,7.89 -7.58,11.64 -8.49,9.13 -15.59,26.86 -17.79,39.73 -1.57,9.26 1.32,32.08 3.95,41.64l0.44 1.83c0.04,0.16 0.1,0.47 0.14,0.63l18.81 42.62c6.58,13.13 2.87,6.57 5.43,13.67 1.55,4.31 8.47,5.99 5.98,11.22 -1.68,0.91 -0.59,2.31 -4.2,-0.09l-8.22 -10.03c-10.99,-11.64 -17.09,-45.87 -20.36,-50.65 -5.37,5.72 2.13,19.32 3.75,25.46 -4.26,4.29 -8.85,4.18 -10.75,9.58 2.99,2.99 7.74,1.36 12.31,0.37l2.74 4.87c-3.3,2.49 -9.31,6.17 -8.64,10.59l9.43 -1.37c-0.12,-2.42 -1.39,-1.37 -1.71,-3.32 -0.25,-1.56 -2.39,-0.29 1.42,-2.21 2.29,2.64 3.76,4.64 5.02,8.38 -1.01,0.63 -3.48,1.94 -4.32,2.79 -3.25,3.28 -1.67,0.84 -2.38,4.76 4.85,0.06 5.94,-1.05 9.86,-2.55 1.69,2.9 4.23,5.73 6.61,8.29 -0.74,3.25 -2.3,3.61 -2.99,6.11 -0.67,2.42 0.01,3.58 0.43,5.71l-19.72 -8.6c-0.31,-4.14 -0.11,-5.11 -2.38,-8.24 -2.4,-3.33 -3.46,-2.49 -4.91,-6.34l-2.66 -3.31c-6.6,-1.75 -0.46,0.33 -4.63,-2.66 -6.07,-4.35 -6.19,-2.61 -7.31,-8.86 -1.42,-8.02 1.42,-11.55 0.74,-16.17l-1.97 -7.99c-0.51,-3.35 -0.43,-6.65 -0.45,-10.06 -0.15,-21.44 0.82,-17.87 -2.6,-39.28 -0.96,-5.98 -2.84,-10.39 -2.62,-16.7 0.64,-18.76 22.43,-52.92 29.25,-66.9l11.95 -20.06c3.94,-7.74 18.41,-34.86 25,-38.96 5.35,-3.32 8.52,-1.79 14.07,2.73 4,1.38 3.29,4.19 6.53,13.47 6.66,19.04 6.09,26.28 6.57,45.52 0.59,23.32 -0.8,34.44 0.82,58.66zm230.98 -72.6l-1.26 1.12c-0.21,0.19 -0.98,0.83 -1.22,1.04l-4.78 4.71c-2.23,2.34 -4.91,4.64 -6.61,6.42l-1.19 -21.73c0.29,-16.69 1.94,-14.06 6.95,-17.5 3.92,-2.7 10.06,-9.34 15.24,-10.94 1.21,-2.58 3.99,-4.48 6.13,-7.1 2.69,-3.3 2.29,-4.94 4.42,-8.15 9.25,0.52 16.77,16.82 21.38,23.16 2.21,3.04 4.87,5.8 6.23,8.29 9.2,13.02 12.48,18.94 13.36,37.9 0.64,9.4 0.11,18.32 1.45,27.5 1.26,8.57 1.56,17.63 2.29,25.76l4.33 25.26c2.84,24.22 -0.21,24.19 -10.28,42.89l-11.09 26.2c-0.65,1.42 -1.58,3.98 -2.14,5.4 -3.37,8.59 -5.77,26.79 -5.71,36.32 -5.46,4.01 -12.42,8.35 -17.79,10.42 -2.05,2.72 -0.05,1.35 -3.39,2.36 -5.52,-6.75 -1.54,-7.39 -13.24,-22.27 4.56,-4.27 -4.74,3.42 1.92,-1.18 1.15,-0.79 0.33,0.11 1.9,-1.43 3.35,-3.27 2.21,-6.18 5.49,2.72l3.52 -0.61c3.23,-4.1 -0.1,-9.83 -1.1,-14.21 6.86,0.17 4.89,5.4 11.16,5.92 0.7,-5.45 -2.25,-7.57 -3.48,-10.99 7.49,-7.7 5.91,-1.27 10.27,-14.28 1.96,-5.85 5.01,-11.06 7.03,-16.97 -4.52,0.41 -4.3,3.8 -7.16,7.26 -3.12,18.09 -10.29,18.09 -12.37,19.68 -1.62,1.24 -2.64,2.92 -4.77,4.73 -7.94,6.76 -20.99,11.3 -18.02,20.33 1.67,4.83 7,16.42 7.22,19.18 -4.09,3.09 -10.25,4.27 -14.07,5.76 -7.31,2.87 -5.33,5.93 -7.83,10.98 -2.03,-3.12 -0.98,-2.17 -4.16,-5.02 0.71,-7.3 4.06,-8.23 6.71,-31.34 0.06,3.53 2.32,4.58 6.76,4.81 2.07,-5.57 -6.64,-16.52 -9.26,-22.37 12.99,-1.02 11.57,-1.12 21.26,-7.28 10.67,-6.79 11.55,-2.81 15.66,-10.37 2.57,-4.75 1.35,-1.92 3.02,-9.12l3.52 -15.96c2.61,-7.84 1.24,-6.8 2.03,-16.45l0.38 -3.74c4.57,0.5 6.73,0.96 10.25,-0.78 1.36,-5.97 -3.46,-5.57 -9.56,-5.65 -4.13,5.85 -2.96,0.45 -4.87,12.25 -0.03,0.2 -0.5,2.81 -0.7,3.53l-8.28 36.05c-2.62,-0.98 -1.58,1.76 -1.69,-3.3 -0.25,-12.14 4.97,-43.6 8.38,-53.65 6.24,-18.42 14.6,-47.56 17.64,-65.46l2.31 -19.08c6.9,14.6 -2.1,38.95 6.68,36.58 0.53,-1.37 1.18,-41.79 0.73,-44.96 -3.75,-10.86 -10.87,-15.55 -13.66,-23.85 -2.72,-2.28 -3.53,-4.2 -5.58,-6.92 -4.13,-5.46 -11.88,-15.04 -17.71,-16.65l-3.22 1.83c0.33,7.8 3.75,11.42 4.35,21.59 -6.24,2.28 -4.03,1.6 -7.04,4.55l-6.74 6.81zm-24.94 64.85l-3.23 2.17c-0.15,0.15 -0.35,0.42 -0.49,0.58l-25.04 29.21c-3.58,-4.28 2.94,-7.83 0.64,-18.72 -2.2,-10.41 -12.2,-44.38 -12.36,-51.6l5.32 0c-0.16,-7.44 -4.33,-20.16 -7.11,-28.05 -0.46,-1.29 -0.38,-1.17 -0.92,-2.27 -1.88,-3.82 -5.97,-8 -10.08,-9.1l-6.29 30.88c-0.08,0.3 -0.28,1.05 -0.34,1.33 -0.04,0.17 -0.08,0.47 -0.11,0.64 -0.64,3.51 -2.85,8.45 -2.85,11.9 0,5.04 0.9,-0.37 0.5,3.13 -0.27,2.37 -0.31,0.99 -1.42,3.32 -3.18,6.69 -5.93,20.48 -8.54,28.91 -0.07,0.23 -0.18,0.53 -0.25,0.75l-0.64 2.72c-0.04,0.14 -0.09,0.45 -0.13,0.59 -1.41,4.64 -6.14,10.9 -6.57,15.98l-3.19 0c-0.34,4.11 -1.07,3.44 -1.07,8.53 -3.75,-2.75 -2.01,-4.62 -3.61,-10.24 -1.31,-4.64 -2.89,-5.91 -3.85,-10.01 -8.54,0 -3.2,1.97 -10.65,2.13 -0.55,5.02 -3.74,4.11 -8.09,15.36l-2.15 6.37c-0.08,0.26 -0.19,0.53 -0.27,0.79 -0.09,0.25 -0.2,0.53 -0.29,0.78l-4.7 15.55c-0.61,2.44 -1.21,4.97 -1.57,6.83l-0.4 2.76c-1.24,4.39 -2.26,3 -8.1,1.64l-14.7 -111.15c-0.36,-6.29 -0.16,-23.59 -1.63,-28.25 -0.75,-2.35 -0.28,-2.31 -3.91,-2.31 -3.55,0 -2.99,2.22 -3.46,2.95l-0.74 1.41c-5.37,9.51 -9.29,19.79 -13.61,30.05 -1.09,2.6 -1.88,4.19 -2.97,6.61l-9.34 25.91c-2.2,6.45 -5.16,11.5 -6.4,18.77 -0.71,4.16 -3.58,8.74 -3.97,13.39 -7.9,-5.79 -5.38,-40.07 -5.65,-49.1l0.17 -11.47c-0.46,-4.05 -0.56,-9.92 -1.18,-14.81 -0.51,-4.02 -1.79,-9.56 -2.73,-13.25 -1.62,-6.29 -6.81,-37.89 -8.99,-41.08l-7.47 -8.51c-3.54,-4.69 -7.23,-6.68 -13.57,-6.68 -3.41,0 -1.03,0.41 -4.16,1.33 -4.03,1.18 -0.67,-0.14 -3.93,2.22 -3.24,2.35 -5.84,2.55 -9.02,4.91 -7.5,5.56 -11.54,18.26 -16.82,25.81 -2.16,3.1 -3.98,5.28 -6.11,8.8 -1.04,1.73 -1.36,2.52 -2.36,4.03l-3.33 4.13c-4.89,6.4 -13.21,22.28 -16.49,26.12 -4.71,5.51 -9.99,21.6 -11.69,24.65l-5.8 12.2c-0.12,0.2 -0.27,0.47 -0.39,0.68 -1.87,3.24 -9.4,18.39 -9.4,21.5 0,3.12 12.84,28.38 13.82,46.91 0.43,8.07 3.01,21.11 1.76,28.32l-3.86 27.05c3.37,2.26 5.25,4.63 7.91,8.07l14.91 18.12c2.37,3.02 6.05,6.44 7.01,10.04 10.59,0 10.77,-0.98 18.51,2.8 1.28,0.62 2.45,1.1 3.58,1.75l9.88 6.1c-2.54,3.46 -0.47,2.2 -5.33,1.07l-0.69 3.57c-0.1,0.21 -0.25,0.49 -0.37,0.69 -0.12,0.19 -0.33,0.43 -0.46,0.61 -2.13,2.72 -9.58,8.08 -14.47,14.29l-1.8 2.48c-4.98,7.33 -2.09,8.55 2.17,16.35 5.71,10.45 12.62,20.7 17.59,31.42 2.25,4.84 4.86,5.31 7.62,9.43 -1.97,2.07 -5.4,3.93 -6.4,6.39l-31.15 -15.72c-3.39,-2.82 -7.86,-5 -10.87,-8.32 -2.96,-3.28 -2.06,-2.51 -6.99,-3.66 -4.73,5.46 -3.12,7.49 -1.48,14.85 0.86,3.86 0.62,2.03 1.95,4.87 1.15,2.45 1.15,2.92 2.51,5l2.75 3.65c0.12,0.2 0.28,0.46 0.39,0.67 1.08,2.01 1.15,3.29 2.1,5.36 4.18,9.07 11.41,19.06 18.51,26.24l19.09 13.94c-0.35,4.24 -2.47,7.29 1.66,9.98 3.77,2.44 8.26,3.49 8.56,8.1 0.47,7.33 -11.22,11.1 -7.18,47.07 2.45,21.79 -8.89,24.54 7.71,31.71 10.32,4.46 20.5,4.57 31.6,6.75l47.49 9.12c4.86,0.36 5.35,-2.29 10.28,-2.07l19.39 0.91c17.19,0.37 46.18,1.9 61.43,-5.21l14.45 -6.86c0.33,-0.11 1.24,-0.45 1.56,-0.57 0.04,-0.01 1.6,-0.62 2.32,-0.88 9.79,-3.56 10.01,-4.82 18.75,-8.94 10.94,-5.16 16.71,0.29 16.13,-13.88l1.16 -12.52c3.27,-30.04 -2.68,-25.85 18.82,-53.63l3.15 -4.31c1.1,-1.45 0.94,-1.18 1.89,-2.37 1.84,-2.34 2.49,-1.61 2.93,-5.6 9.49,0.79 1.78,0.53 10.07,-3.77 14.65,-7.59 16.57,-8.42 26.97,-19.91l19.05 -25.7c1.76,-2.61 2.89,-3.2 4.22,-6.43l3.22 -8.51c2.57,-5.85 4.52,-22.05 3.72,-29.54 -0.69,-6.48 0.94,-2.86 -2.26,-4.16l0 -2.13c-3.74,0 -5.51,0.1 -7.75,1.84 -2.51,1.97 -2.27,3.84 -4.48,6.18l-11.88 12.62c-1.9,2.34 -5.23,5.8 -8.14,6.61 -1.81,0.51 -4.74,0.88 -7.41,2.33 -0.21,0.12 -0.46,0.29 -0.66,0.41l-6.56 3.04c1.71,-7.34 -1.07,-3.39 -1.07,-9.59 0,-8.64 11.24,-22.78 11.74,-28.75 1.33,-15.91 -3.04,-12.06 11.11,-24.05 3.84,-3.24 7.07,-5.66 11.8,-7.38 5.11,-1.86 7.99,-3.74 13.3,-3.74 0,-11.73 -0.65,-30.71 2.22,-40.41 0.5,-1.69 1.45,-4.9 1.92,-6.59l4.38 -12.67c1.45,-2.98 2.34,-3.36 3.7,-5.89l2.68 -5.84c0.12,-0.21 0.28,-0.47 0.39,-0.68 0.11,-0.21 0.27,-0.47 0.38,-0.68 0.16,-0.29 0.58,-1.12 0.72,-1.42 0.63,-1.26 0.74,-1.67 1.39,-2.87 12.4,-23.18 13.02,-9.17 9.76,-39.99 -0.56,-5.31 -0.66,-9.55 -0.87,-16.18 -0.17,-5.29 -1.61,-7.12 -0.54,-11.11 1.93,-7.18 1.93,-29.76 3.21,-39.27 1.41,-10.51 -1.1,-15.65 -5.87,-25.27l-9.66 -18.03c-6.51,-11.32 -26.75,-37.25 -35.72,-44.19 -2.17,-1.68 -2.65,-2.45 -4.58,-3.97 -3.82,-3.02 -6.61,-4.64 -11.82,-1.96 -1.42,0.74 -3.12,2.25 -4.93,3.64l-7.3 6.55c-4.01,3.48 -9.88,4.97 -14.14,8.24l-7.15 5.63c-1.53,1.27 -0.81,0.72 -1.95,2.31l-2.2 3.13c-0.14,0.17 -0.34,0.41 -0.48,0.59 -3.28,4.22 -5.77,8.76 -6.91,14.28 -1.22,5.85 2.34,40.18 2.44,49.35 0.13,11.72 0.91,23.45 3.15,33.07z"/>
   <path class="fil1" d="M218.7 452.36c4.56,-0.03 7.58,4.17 7.61,7.43 -1.64,0.74 2.49,2.46 -2.88,0.25 -0.27,-0.11 -1.94,-1.6 -2.44,-2.07 -2.12,-1.98 -2.75,-1.95 -2.29,-5.61zm58.17 4.23c2.87,-3.92 4.58,-1.51 6.16,-6.2 0.98,-2.91 -0.17,-6.96 0.25,-10.9 0.65,0.25 1.96,0.62 2.35,0.77 5.54,2.21 6.52,20.13 -8.76,16.33zm-2.13 -11.19l-4.33 -0.63c-3.14,-9.96 0.06,-10.67 -7.23,-14.81l3.57 21.37c-3.9,-1.04 -2.09,0.86 -4.35,-3.56 -1.2,4.07 -1.04,1.79 -3.8,4.43 4.08,2.11 13.41,17.31 14.07,19.3 -5.13,-1.41 -12.33,-10.94 -16.73,-15.51 -1.15,-1.19 -1.46,-1.55 -2.55,-2.68l-2.36 -2.36 0.12 0.91c2.4,3.09 3.42,2.8 4.29,7.09 -3.8,0.71 -3.6,0.27 -5.82,-1.92l-3.65 -3.71c-10.1,-8.62 -17.66,-17.43 -28.12,-19.51 -1.23,1.61 -1.43,2.32 -2.82,4.11 2.96,0.7 1.35,0.22 3.22,1.45 2.59,1.72 0.29,0.03 2.22,2.07 1.77,1.87 2.42,2.38 3.55,4.33l-13.04 7.42 -6.7 -2.37c-2.71,2.34 -7.87,2.6 -12.33,1.9l-49.96 8.54c-5.39,0.45 -0.39,-1.31 -5.47,2.59 -2.81,2.16 -3.91,2.03 -5.38,5.33 -1.83,-1.22 -3.99,-2.03 -6.23,-2.92 -3.97,7.11 -2.38,6 -5.09,6.22l4.39 0.6c0.76,-2 4.6,-2.39 6.2,-1.92 2.02,0.59 3.21,2.61 4.27,3.74 0.15,0.16 0.4,0.41 0.54,0.56l1.16 1.12c6.49,-6.03 5.59,-3.57 10,-7.02 4.78,-3.74 7.79,-3.13 14.87,-3.63 0.89,2.2 1.51,4.82 3.15,7.1 2.44,3.39 4.57,2.68 5.77,5.29 0.97,2.12 -0.49,3 2.17,8.04l3.75 6.19 1.36 1.09c23.74,-0.23 16.51,-4.43 28.5,-5.36 3.37,5.35 6.22,10.91 16.1,7.01 4.99,2.23 -2.6,1.64 4.8,2.8 2.5,0.4 6.32,-0.07 9.53,0.24 3.34,0.32 7.6,0.5 11.28,-4.11 1.76,4.03 1,1.09 0.36,2.76 -0.04,0.12 -0.21,0.4 -0.28,0.52l-1.79 2.33c-4.35,5.58 -3.31,2.95 -4.45,6.69 6.67,0.17 8.75,-0.33 13.32,-0.64 8.81,-0.59 7.04,0.84 12.96,-3.35 6.14,-4.35 13.63,-8.63 20.29,-12 -1.49,-10.42 -1.74,-15.48 1.45,-24.89 1.54,-4.55 2.43,-6.52 4.45,-10.48 1.57,-3.07 3.67,-6.95 4.42,-9.57 -3.12,-10.4 1.86,-1.67 -4.9,-11.95 -4.97,-7.57 -8.08,-1.87 -10.13,-9.61l-1.39 0c-2.05,5.9 -4.37,1.34 -4.15,10.93 0.1,4.55 2.03,8.33 0.26,12.57 -1.49,-0.65 -2.12,-1.1 -3.34,-2.13z"/>
   <path class="fil2" d="M378.13 154.78c-1.55,-4.26 1.92,-4.4 6.5,-4.21 0.74,1.63 0.51,1.47 0.97,2.57 0.79,1.92 0.05,-0.88 1.33,3.28 -4.39,-0.22 -5.59,0.55 -8.8,-1.64zm-7.36 29.37c1.54,2.26 1.47,4.72 1.74,7.43 0.39,3.89 1.12,2.33 2.24,7.26 1.74,7.68 0.38,10.71 0.32,17.75 2.86,-3.46 2.64,-6.85 7.16,-7.26 -2.02,5.91 -5.07,11.12 -7.03,16.97 -4.36,13.01 -2.78,6.58 -10.27,14.28 1.23,3.42 4.18,5.54 3.48,10.99 -6.27,-0.52 -4.3,-5.75 -11.16,-5.92 1,4.38 4.33,10.11 1.1,14.21 0.44,5.21 1.25,5.64 0.93,10.25 -0.12,1.63 -0.29,3.54 0.06,5.34 0.78,4.1 0.73,3.44 2.81,4.82 5.37,-2.07 12.33,-6.41 17.79,-10.42 -0.06,-9.53 2.34,-27.73 5.71,-36.32 0.56,-1.42 1.49,-3.98 2.14,-5.4l11.09 -26.2c10.07,-18.7 13.12,-18.67 10.28,-42.89l-4.33 -25.26c-0.73,-8.13 -1.03,-17.19 -2.29,-25.76 -1.34,-9.18 -0.81,-18.1 -1.45,-27.5l-9.05 -4.58c0.45,3.17 -0.2,43.59 -0.73,44.96 -8.78,2.37 0.22,-21.98 -6.68,-36.58l-2.31 19.08c-3.04,17.9 -11.4,47.04 -17.64,65.46 -3.41,10.05 -8.63,41.51 -8.38,53.65 0.11,5.06 -0.93,2.32 1.69,3.3l8.28 -36.05c0.2,-0.72 0.67,-3.33 0.7,-3.53 1.91,-11.8 0.74,-6.4 4.87,-12.25 6.1,0.08 10.92,-0.32 9.56,5.65 -3.52,1.74 -5.68,1.28 -10.25,0.78l-0.38 3.74z"/>
   <path class="fil2" d="M32.35 168.57c1.59,-3.87 0.94,-3.44 5.08,-4.65 0.77,3.37 0.11,10.15 -3.21,12.93l-3.14 2.09c6.13,8.78 -0.94,46.68 2.2,56.52 1.56,4.91 -0.08,3.48 2.83,7.7l2.66 3.31c1.14,-17.3 -2.62,-9.49 -2.94,-26.69 -0.13,-7.02 -0.91,-23.53 1.31,-27.61l7.86 0.02c3.27,4.78 9.37,39.01 20.36,50.65l8.22 10.03c3.61,2.4 2.52,1 4.2,0.09 2.49,-5.23 -4.43,-6.91 -5.98,-11.22 -2.56,-7.1 1.15,-0.54 -5.43,-13.67l-18.81 -42.62c-0.04,-0.16 -0.1,-0.47 -0.14,-0.63l-0.44 -1.83c-2.63,-9.56 -5.52,-32.38 -3.95,-41.64 2.2,-12.87 9.3,-30.6 17.79,-39.73 3.49,-3.75 4.9,-7.7 7.58,-11.64 2.54,-3.75 5.76,-7.62 7.76,-11.48 5.03,-9.68 12.08,-30 19.73,-37.34 3.92,4.59 5.73,40.04 5.18,48.5 -2.6,-2.28 -2.06,-3.38 -2.91,-7.45 -4.47,6.17 -0.78,22.36 -4.36,34.31 -4.26,14.24 4.98,21.71 -0.67,31.41 0.83,5.38 3.56,7.62 5.25,12.23 3.28,-2.56 4.4,-7.66 6.27,-12.51 1.09,-2.84 1.11,-3.94 2.61,-7.15 1.09,-2.34 0.42,-1.32 1.53,-2.62l2.67 -1.98c-1.62,-24.22 -0.23,-35.34 -0.82,-58.66 -0.48,-19.24 0.09,-26.48 -6.57,-45.52 -3.24,-9.28 -2.53,-12.09 -6.53,-13.47 -8.08,0.33 -2.83,1.11 -12.89,12.34 -1.23,1.37 -1.3,1.68 -2.33,3.03 -1.37,1.79 -1.21,1.44 -2.87,3.46 -2.41,2.95 -3.9,5.05 -5.53,7.31 -1.72,2.4 -3.41,4.15 -5.33,6.42 -3.68,4.34 -7.23,11.87 -9.86,15.68 -8.68,12.61 -14.42,29.17 -18.18,44.63 -0.88,3.62 -1.38,5.98 -2.1,9.64 -0.86,4.4 -1.95,5.85 -3.03,9.76 -0.98,3.56 -0.69,4.67 -1.84,8.61 -0.11,0.37 -0.73,2.42 -0.75,2.5 -0.07,0.3 -0.14,0.57 -0.2,0.88l-1.73 6.97 5.84 1.38c0,5.68 -0.72,5.27 -3.71,8.32 -4.05,4.13 -1.26,3.89 -3.05,7.97 1.42,3.03 -0.76,0.59 2.37,1.42z"/>
   <path class="fil3" d="M105.07 469.93c-3.02,6.86 -8.58,1.45 -7.5,12.83l7.56 1.24c0.67,5.53 1.76,3.02 0.07,8.18 -1.49,-0.07 -5.18,-0.89 -5.79,-1.18 -3.89,-1.81 -0.65,0.82 -3.23,-3.18 -1.21,2.75 0.3,1.85 -2.42,2.58 -4.75,-3.68 -4.92,-5.31 -8.21,-9.99 -3.09,-4.4 -4.7,-10.19 -0.31,-13.97 2.58,1.19 2.9,0.4 2.78,6.28 1.75,-1.07 1.48,-0.7 3.41,-1.38l-1.1 -4.69 3.46 -1.2c-1.31,-2.95 -2.23,-4.58 -3.59,-7.83l-3.9 -7.81c-4.56,6.09 -4.65,4.66 -6.67,13.78 -2.04,9.18 -0.52,22.41 2.79,31.74 1.56,4.4 3.9,9.16 8.35,10.3 3.88,0.99 1.04,-1.9 5.7,2.27 7.59,6.81 7.17,5.89 19.07,6.99 10.97,1.02 23.88,0.15 34.6,0.03 -1.37,-5.26 -0.31,-5.49 4.08,-7.81 7.78,-4.13 3.65,-3.09 6.94,-5.79 5.26,-4.32 15.72,-1.25 22.15,-0.25 -1.58,-2.62 0.1,-0.39 -2.44,-1.69l-3.49 -1.52 0.07 -4.22 -1.36 -1.09c-24.53,-3.3 -26.03,10.32 -30.12,11.56 -0.67,0.2 -15.55,-2.95 -19.17,-9.82l-3.21 -0.69c1.19,0.55 -1.51,2.7 2.18,-0.81 2.53,-2.4 1.07,0.14 2.06,-3.68 3.92,-15.04 -16,-12.17 -7.77,-1.16 -1.98,0.76 -3.27,-0.13 -5.88,-1.77 0.15,-7.82 1.39,-13.5 10.56,-11.75l-0.53 -1.35 -4.39 -0.6c2.71,-0.22 1.12,0.89 5.09,-6.22 2.24,0.89 4.4,1.7 6.23,2.92 1.47,-3.3 2.57,-3.17 5.38,-5.33 5.08,-3.9 0.08,-2.14 5.47,-2.59l49.96 -8.54c-7.65,0.22 -11.95,-0.29 -19.8,-1.24 -7.62,-0.93 -13.02,-2.64 -19.79,-3.66 -1.7,2.41 -0.97,3.37 -4,5 -3.79,-5.1 -1.54,-3.56 -2.9,-10.89 -3.08,6.25 -2.66,4.18 -8.4,8.61l-15.05 10.49c-1.49,0.96 -1.41,0.82 -2.7,1.57 -5.75,3.33 -6.95,5.25 -14.24,7.33z"/>
   <path class="fil4" d="M36.11 243.16c-2.91,-4.22 -1.27,-2.79 -2.83,-7.7 -3.14,-9.84 3.93,-47.74 -2.2,-56.52l3.14 -2.09 -4.24 -1.02c-0.42,-3.97 -0.94,-2.25 2.37,-7.26 -3.13,-0.83 -0.95,1.61 -2.37,-1.42 1.79,-4.08 -1,-3.84 3.05,-7.97 2.99,-3.05 3.71,-2.64 3.71,-8.32l-5.84 -1.38 1.73 -6.97c0.06,-0.31 0.13,-0.58 0.2,-0.88 0.02,-0.08 0.64,-2.13 0.75,-2.5 1.15,-3.94 0.86,-5.05 1.84,-8.61 1.08,-3.91 2.17,-5.36 3.03,-9.76 0.72,-3.66 1.22,-6.02 2.1,-9.64 3.76,-15.46 9.5,-32.02 18.18,-44.63 2.63,-3.81 6.18,-11.34 9.86,-15.68 1.92,-2.27 3.61,-4.02 5.33,-6.42 1.63,-2.26 3.12,-4.36 5.53,-7.31 1.66,-2.02 1.5,-1.67 2.87,-3.46 1.03,-1.35 1.1,-1.66 2.33,-3.03 10.06,-11.23 4.81,-12.01 12.89,-12.34 -5.55,-4.52 -8.72,-6.05 -14.07,-2.73 -6.59,4.1 -21.06,31.22 -25,38.96l-11.95 20.06c-6.82,13.98 -28.61,48.14 -29.25,66.9 -0.22,6.31 1.66,10.72 2.62,16.7 3.42,21.41 2.45,17.84 2.6,39.28 0.02,3.41 -0.06,6.71 0.45,10.06l1.97 7.99c0.68,4.62 -2.16,8.15 -0.74,16.17 1.12,6.25 1.24,4.51 7.31,8.86 4.17,2.99 -1.97,0.91 4.63,2.66z"/>
   <path class="fil5" d="M361.38 80.19l-0.27 -2.06c-6.27,7.88 -9.81,8.04 -15.86,20.34 -1.21,2.47 -2.26,6.05 -3.41,8.15 -1.65,6.14 -2.09,11.15 -2.46,18.48 -0.72,14.24 1.72,19.26 1.74,19.4 0.88,6.19 -10.71,16.1 -9.33,23.57 0.31,1.7 1.34,3.83 1.65,5.11 1.39,5.87 1.28,2.23 -0.63,3.68 -1.76,6.51 1,4.24 -8.49,15.62 -3.77,4.51 -8.8,6.27 -13.11,11.31 1.76,5.63 1.95,4.81 4.36,4.96 6.24,-7.05 16.09,-25.67 25.12,-26.13 4.72,8.91 2,22.29 4.51,29.77 0.18,-0.18 0.44,-0.72 0.5,-0.56 0.77,1.9 4.53,-10.62 5.22,-17.61 3.78,-38.04 5.92,-26.5 12.96,-54.79 6.23,-25.07 11.16,-38.33 10.85,-64.6 -0.12,-10.4 -3.23,-11.93 -5.53,-18.67 0.56,10.66 4.96,21.41 -0.86,26.95 2.81,-0.03 1.91,1.02 2.8,3.49 -3.73,6.33 -1.75,-1.24 -7.68,11.91 -6.23,13.82 0.85,3.13 -2.14,13.64 -3.31,11.63 -8.19,16.68 -8.93,31.98 3.04,1.52 -0.99,-0.07 2.22,-0.16l1.19 -0.01c0.12,0 0.51,0.06 0.6,0.07 0.1,0.01 0.44,-0.01 0.62,0.1 -3.37,6.27 -4.05,9.3 -7.82,10.88 -4.79,-19.11 4.83,-25.15 7.29,-41.65 -2.35,0.29 -4.12,1.45 -6.26,2.32 0.23,-7.47 5.15,-11.71 8.17,-17.02l2.98 -18.47z"/>
   <path class="fil6" d="M145.38 371.46c4.2,-0.14 5.11,0.9 4.13,5.29 -3.81,0 -4.81,-1.12 -4.13,-5.29zm32.18 -6.06c-4.28,-1.96 -3.57,-1.33 -9.22,-0.55 -3.13,-3.17 -9.13,-10.32 -15.22,-10.7 -2.11,8.24 5.69,6.05 1.28,12.85 -5.56,2.06 -31.76,-10.51 -36.72,-10.44 0.42,7.39 -2.41,45.51 -0.48,48.29 4.91,-1.49 1.64,-0.56 3.16,-2.77l8.6 -10.72c5.69,-6.96 -2.23,-12.44 -3.32,-18.35 7.18,-0.08 11.7,9.41 13.87,15.56 4.46,-1.06 11.66,-1.54 13.24,1 -2.44,-5.86 -5.84,-2.71 -4.28,-9.57 6.64,-0.08 3.85,7.91 12.87,7.61 9.64,-0.32 5.51,-3.69 16.47,-0.8 2.69,-4.64 4.79,-13.57 10.4,-15.51l-3.88 14.9 10.65 -1.62c1.92,-3.27 5.74,-11.61 11.89,-10.6 2.11,4.37 1.57,3.21 -5.03,10.5 29.12,9.53 8.77,-34.99 8.58,-35.28 -4.25,3.62 -8.87,7.98 -14.38,12.22 -7.26,5.61 -9.17,3.91 -15.23,4.3 -3.87,0.24 -2.26,0.8 -3.25,-0.32z"/>
   <path class="fil7" d="M303.22 303.46c-0.46,5.37 -0.67,2.7 -3.83,6.42 -3.7,-0.68 -0.42,0.03 -3.48,-0.67 -1.23,-0.28 -1.38,-0.35 -2.55,-0.7l-11.06 7.17c-2.3,1.8 -4.31,6.19 -9.62,8.42 -8.81,3.69 -19.73,3.22 -27.18,0.27 2.61,4.63 4.14,8.3 11.24,8.46 20.44,0.45 27.39,-21.97 37.96,-21.07 -1.86,3.11 -8.28,7.91 -12.59,12.17 -15.84,15.64 -23.74,11.71 -27.07,14.11 7.38,5.22 23.35,1.81 32.48,-10.84 2.35,-3.27 3.2,-6.08 4.87,-8.47 2.35,1.49 2.28,-1.46 0.79,4.4 -0.54,2.13 -1.32,3.81 -2.27,5.34 -9.51,15.28 -27.75,14.96 -28.77,16.03 -2.53,2.62 14.28,24.78 17.12,29.44l41.21 -49.99c4.79,-4.41 3.7,-1.9 8.01,-2.96 -1.59,-9.43 -13.45,-21.38 -21.16,-22.96 -1.96,2.33 -2.84,3.25 -4.1,5.43z"/>
   <path class="fil8" d="M82.28 295.86c-3.44,1.08 -1.46,-0.6 -2.79,4.56l0.63 0.03c4.21,3.26 0.34,4.55 -1.09,18.22 13.76,0.15 10.65,-1.68 19.79,-5.54 4.52,-1.91 16.35,-3.23 21.58,-3.24 -1.76,3.93 -4.89,5.24 -8.42,8.06 -4.17,3.33 -6.62,3.5 -8.5,7.37 3.22,-1.82 3.11,-2.06 4.96,-4.49l8.26 0.82c2.28,-8.22 16.48,-14.68 21.78,-17.69l27.4 -10.96c3.61,-0.97 16.03,0.13 18.93,7.19 -6.65,-0.82 -10.88,-4.4 -18.2,-2.25l-15.01 6.01c3.23,2.66 14.57,-0.02 18.89,0 6.55,0.04 13.74,2.03 19.72,0.55 4.16,-1.03 2.97,-2.07 8.27,-1.1 4.05,0.74 7.53,3.2 10.36,5.87 5.82,5.46 0.54,4.72 7.84,9.3 16.15,10.13 12.57,53.1 17.53,61.79 3.05,5.33 0.72,2.16 4.44,4.55l-7.25 -48.07c-5.85,-32.86 -14.06,-22.35 -16.82,-35.64 5.35,1.69 3.87,10.7 13.22,10.21 -0.23,-7.25 -6.77,-3.85 -10.76,-13.78 -0.03,-0.08 -1.01,-3.04 -1.05,-3.18 -0.58,-1.66 -0.32,0.23 -1.25,-3.45 -1.86,-2.6 -2.18,-2.22 -4.72,-4.17 -13.02,-9.94 -8.88,-4.6 -24.08,-5.1 -1.29,-1.81 -2.39,-4.03 -3.75,-6.01 -3.44,3.52 -5.64,1.34 -9.93,-0.14 -4.76,-1.64 -4.43,-0.52 -9.9,1.29 3.45,1.65 0.67,1.13 1.41,4.33 2.59,-3.56 11.34,-3.33 13.79,-2.84 4.13,0.82 32.46,14.06 34.97,18.14 -9.92,1.15 -14.83,-4.81 -22.32,-8.08 -5.81,-2.53 -18.17,-3.94 -25.23,-2.7 -8.16,1.43 -5.37,3.18 -10.15,5.73 -10.04,5.36 -10.92,0.42 -23.18,6.8 -6.1,3.17 -4.11,-1.11 -10.18,5.81 -5.71,-0.48 -1.96,-1.81 -6.23,1.01 -1.05,0.7 -0.68,0.6 -2.29,1.15 -0.11,0.04 -2.54,0.54 -2.71,0.57 -1.71,0.31 -3.77,0.53 -5.31,0.99 -2.68,0.79 -26.5,17.9 -16.87,-9.61 1.62,-4.62 2.37,-0.58 0.44,-4.97 -6.59,2.02 6.62,-2.93 -3.3,2.24 -1.72,0.9 0.32,1.99 -2.92,0.42z"/>
   <path class="fil9" d="M262.4 447.77c2.26,4.42 0.45,2.52 4.35,3.56l-3.57 -21.37c7.29,4.14 4.09,4.85 7.23,14.81l4.33 0.63c-0.98,-3.26 -0.09,-6.51 -0.56,-9.94 -0.53,-3.91 -2.19,-6.4 -3.02,-9.7 -2.78,-11.09 0.96,0.6 2.03,-8.81 0.24,-2.07 -0.82,-7.64 -0.96,-10.42 -1.64,2 -2.22,4.08 -4.37,3.14 -6.38,-2.78 4.01,-4.79 1.09,-17.76l-7.5 -27.75c-2.38,-7.18 -3.26,-6.26 -6.74,-11.31l-10.36 -15.28c-2.78,-4.63 -8.65,-8.37 -10.61,-13.82 0.33,2.75 7.16,14.63 8.85,19.01 3.9,10.07 19.72,49.55 21.32,58.67 0.77,4.42 -0.56,4.34 -0.74,4.6 -2.74,-1.56 -4.29,-11.44 -7.31,-19.17 -4.4,-11.29 -18.44,-48.68 -23.3,-54.25 3.14,16.63 7.78,65.01 12.94,73.07 0.18,0.27 0.74,1.02 0.89,1.33 1.2,2.4 0.5,0.57 1.02,3.35 1.08,5.66 0.12,6.78 2.1,13.54 3.37,11.51 10.45,14.07 12.89,23.87z"/>
   <path class="fil10" d="M173.43 240.01c5.32,3.25 10.4,-3.4 17.28,1.26 1.2,3.22 -4.05,14.41 -4.92,18.5 6.82,2.89 7.59,6.23 8.4,12.05 6.16,1.6 4.36,-1.77 8.31,2.21 2.66,2.69 4.77,4.46 7.71,5.97 3.04,-3.73 10.77,-8.25 15.4,-10.15 -0.61,-6.78 -2.8,-6 5.81,-8.29 8.95,-2.38 15.8,-5.15 16.6,-15.37 0.19,-2.42 -0.23,-3.25 -2.25,-5.72l-2.04 -2.26c-0.13,-0.14 -1.9,-2.18 -2.06,-2.37 -0.83,1.38 -1.05,1.87 -2.09,2.99 -2.86,3.06 0.41,0.97 -3.21,2.38 1.73,2.43 0.39,0.17 1.38,2.94 -3.14,0.6 -16.32,1.64 -18.52,1.64 -5.62,-0.01 -13.57,-1.07 -17.61,-2.8l0.17 -2.97c2.26,-1.33 5.44,-0.51 9.51,-0.16l0.09 -0.39c-3.32,-1.47 -0.84,0.2 -2.77,-2.33 -0.58,-0.76 -0.96,-1.97 -1.37,-2.98 -1.13,-2.77 -0.97,-2.93 -2.59,-4.75 -14.28,3.46 -22.44,9.39 -27.94,7.39 2.41,-5.04 7.03,-6.58 13.93,-8.63 -7.81,-5.3 -5.74,0.07 -8.27,-5.11 -6.96,2.17 -28.33,14.52 -31.63,15.35 2.68,0.13 10.01,-2.02 13.69,-2.43 16.38,-1.85 9.37,3.36 8.99,4.03z"/>
   <path class="fil11" d="M125.69 346.71c-1.62,-14.7 10.67,-31.77 16.23,-14.14 2.53,8.03 9.5,19.23 9.78,22.47 -6.53,-0.85 -8.57,-7.56 -13.19,-12.72 -7.93,-0.27 -4.37,3.72 -12.82,4.39zm28.71 20.29c4.41,-6.8 -3.39,-4.61 -1.28,-12.85 6.09,0.38 12.09,7.53 15.22,10.7 5.65,-0.78 4.94,-1.41 9.22,0.55 1.07,-6.01 4.47,-7.69 9.25,-10.97l10.95 -9.58 -1.32 -0.42c-0.18,-5.83 1.8,-5.56 3.09,-9.29 0.99,-2.88 -0.62,-4.94 -1.51,-9.34 -2.67,-2.54 -1.78,-4.14 -5.57,-4.6l-0.95 2.26 2.69 0.43c1.49,11.37 3.36,11.06 -3.97,14.7 -2.85,1.41 -3.62,0.86 -5.96,2.49 -5.31,3.71 -1.75,7.96 -6.33,10.92 -2.66,-1.54 -2.45,-1.26 -3.21,-4.6 -2.84,-1.73 -2.96,-2.44 -0.14,-11.74 1.31,-4.32 2.79,-8.2 3.4,-12.7 -4.23,3.12 -5.17,4.48 -8.57,8.37l-1.83 -4.29c-0.05,-0.41 -0.2,-0.54 -0.37,-0.77 -4.38,6.47 -10.38,0.97 -10.4,0.95 -4.46,-3.09 3.19,0.55 -2.32,-1.98 -3.26,2.46 -1.87,3.43 -5.26,4.35l-0.24 -8.6c-2.74,-0.96 -4.59,-1.14 -7.42,-1.34 -1.85,-0.14 -6.65,-0.47 -7.69,-2.91 -6.21,0.95 -3.42,-0.09 -9.71,0.48 -2.25,3.98 -4.48,4.14 -4.36,8.29 0.12,4.01 2.42,0.22 0.42,7.88 -3.77,14.45 0.83,12.24 5.62,13.99 6.12,2.23 11.15,5.53 16.02,8.59 2.62,1.65 4.57,2.9 7.21,4.55 2.91,1.81 4.74,2.27 5.32,6.48z"/>
   <path class="fil12" d="M261.14 179.22c-5.65,-3.16 -5.43,-2.05 -6.63,-6.04l13.73 0.95 1.37 6.13c-5.58,0.67 -3.8,1.57 -8.47,-1.04zm-22.19 2.2c5.12,2.89 1.75,-1.76 4.73,3.71l0.98 5.84c-0.01,0.09 -0.09,0.38 -0.19,0.55 3.23,2.13 6.99,2.99 11.17,3.92 -8.36,-8.54 -4.44,-2.64 -9.69,-7.35 1.83,-7.08 8.04,-3.94 15.86,1.15 5.41,3.52 11.08,8.34 15.68,9.76 1,-5.95 -0.5,-41.37 -0.69,-50.66 -0.23,-11.23 2.9,-5.93 4.12,-13.73 -0.98,-4.59 -5.4,1.84 -6.85,-15.1 -0.25,-2.91 -1.84,-16.76 -3.45,-20.31 -1.67,2.13 -0.01,-3.41 -1.74,3.79l-3.7 35.81c0.01,0.01 8.05,7 9.93,24.51 -2.07,0.71 -0.65,-0.68 -3.31,-0.33 -1.84,0.25 -3.19,1.54 -4.47,2.46l2.85 2.66c1.55,1.22 1.46,0.74 3.01,2.28 2.2,2.2 3.53,4.92 1.69,7.36 -2.64,-3.18 -0.39,-3.07 -4.85,-6.36 -3.42,-2.54 -4.11,-1.96 -6.87,-4.88 2.81,-6.3 8.54,-3.52 8.32,-9.52 -0.13,-3.27 -0.92,-4.19 -2.31,-7.35 -2.18,0.84 -4.69,2.05 -7.07,2.86l-1.92 -5.64c1.93,-1.46 2.83,-1.99 5.67,-2.61 -2.73,-3.98 -3.82,0.01 -3.22,-11.75 0.74,-14.62 5.94,-30.77 4.64,-45.2 -1.05,2.38 -2.13,9.52 -2.32,12.19 -0.67,9.41 -2.68,14.94 -5.22,24.3l-6.79 23.95c-5.67,11.04 -10.24,21.27 -13.99,33.69z"/>
   <path class="fil13" d="M140.29 152.73c4.53,2.17 1.3,8.12 2.08,13.26 1.75,11.62 -6.12,8.03 2.52,10.92 -4.26,-0.89 3.98,-7.22 9.59,-2.95 -3.74,9.21 -6.02,0.52 -10.36,7.8 -0.77,1.28 -2.07,5.03 -2.02,6.16 0.19,4.3 0.21,3.17 3.7,3.6 4.3,-0.82 8.88,-5.04 13.46,-6.55 4.69,-1.55 12.62,-0.65 17.07,-3.55 -8.97,-21.11 -8.81,-70.42 -10.42,-94.84 -4.18,10.35 -5.32,30.69 -5.47,42.62 -0.09,7.34 2.47,8.16 2.53,13.86 -4.08,4.58 -7.17,3.14 -8.61,11.72 4.52,2.03 6.61,-0.68 8.02,7.6 -4.52,0.08 -8.6,-1.13 -10.72,-2.27 -0.92,-10.36 2.86,-14.04 9.01,-18.26 -1.94,-7.04 -2.82,-4.45 -2.72,-14.75 0.06,-6.56 -0.06,-11.8 0.73,-18.1 0.93,-7.5 6.76,-25.58 4.33,-29.87 -2.77,4.52 -2.57,11.67 -4.22,17.09l-5.5 21.1c-0.22,8.79 0.08,3.22 -3.01,11.92 -3.88,10.94 -1.96,8.48 -6.02,9.98 -0.95,0.34 -1.64,0.42 -2.52,0.72l-2.35 0.99 0.9 11.8z"/>
   <path class="fil14" d="M54.99 174.9c3.38,-25.66 -3.9,-0.93 3.16,-33.56 0.69,-3.16 -0.07,-3.2 1.23,-5.79l3.65 -2.89c0.19,-0.08 0.58,-0.22 0.89,-0.25 2.68,3.13 0.7,0.35 1.76,4.03 1.41,4.87 0.95,6.56 3.52,13.42 1.04,2.78 1.76,4.99 2.75,7.97l11.42 22.32c1.63,2.98 2.71,4.92 4.49,7.1 1.24,1.52 4.63,4.72 2.25,7.41 2.36,2.97 4.69,4.38 6.66,7.14 3.59,5.05 1.02,5.02 7.42,7.42l1.06 8.71 13.2 -3.11c-0.97,-4.42 -7.66,-18.19 -11.19,-20.35 -5.92,-3.63 -3.68,2.7 -9.53,-10.6 -1.12,-2.54 -1.82,-4.49 -3.1,-7.37 -1.42,-3.18 -2.21,-3.88 -3.94,-6.96 -3.35,-6 -18.43,-45.6 -19.86,-52.78 -1.12,-5.66 -0.55,-10.39 0.18,-16.95 -1.47,6.99 -2.18,3.18 -3.97,7.02 -0.31,0.65 0.07,1.21 -1.44,3.75l-8.22 13.17c-0.12,0.21 -0.28,0.48 -0.39,0.7 -0.12,0.21 -0.26,0.48 -0.37,0.7 -6.29,12.17 -5.44,14.07 -6.56,28.56 -0.23,2.98 1.44,14.92 3.02,18.41 1.11,2.46 0.4,1.33 1.91,2.78z"/>
   <path class="fil15" d="M285.68 392.2c1.12,4.11 0.24,1.71 2.49,3.95 2.1,2.08 1.65,2.25 4.83,2.72 0.08,-5.26 0.12,-6.65 3.41,-9.48 13.47,-11.64 15.2,4.55 13.25,9.92 -3.26,9.01 -7.49,6.34 -14.4,4.54 0.27,5.03 -1.65,6.65 -1.44,10.83 0.27,5.57 2.46,3.53 0.24,8.93 -3.06,-0.88 -1.88,-2.41 -6.39,-3.64 -1.62,1.07 -0.88,0.42 -2.39,1.87l-1.92 2.19c2.05,7.74 5.16,2.04 10.13,9.61 6.76,10.28 1.78,1.55 4.9,11.95 5.35,-5.03 3.53,0.51 8.05,-7.8l15.35 -27.3c-3.93,-4.34 -4.45,-4.78 -4.31,-11.67 0.12,-6.28 -0.72,-9.73 -0.97,-15.28l1.48 -0.15c-2.73,-4.3 -2.27,-3.02 -3.37,-8.8 -0.63,-3.32 -1.34,-6.61 -3.42,-8.66 -2.67,1.27 -5.25,4.55 -7.84,4.83 -8.68,0.92 -0.4,-5.97 -6.58,-1.42 -3.59,2.64 -7.29,10.1 -10.48,13.12 1.05,3.95 2.04,3.55 2.27,5.95 0.4,4.19 -0.43,3.52 -2.89,3.79z"/>
   <path class="fil16" d="M92.88 442.45c-0.68,-14.81 4.08,8.96 4.08,-14.91 2.65,-1.97 0.12,-8.22 1.02,-10.79 1.66,-4.73 -0.75,-2.43 4.3,-4.12 0.77,4.99 0.74,15.38 1,21.45 0.21,4.99 1.25,12.54 5.1,15.83 0.28,-1.3 -0.05,-27.24 -0.8,-30.7 -1.28,-5.84 -2.58,1.42 -1.03,-6.46 0.75,-3.77 1.01,-2.27 0.56,-6.9 -1.83,-19.03 -0.46,-31.14 2,-49.29 1.01,-7.46 -2.58,-4.89 -2.57,-13.14l0.27 -15.14c-8.1,3.92 -8.05,10.62 -10.83,18.29 -1.57,4.34 -6.58,17.75 -4.14,22.19 6.56,11.94 21.13,22.54 2.07,26.97 -2.61,0.61 -0.54,-0.07 -2.47,0.69 -5.23,2.04 -5.59,19.01 -5.5,25.85 0.06,5.16 5.1,16.48 6.94,20.18z"/>
   <path class="fil4" d="M92.76 277.62c-3.71,-0.65 -2.78,1 -2.19,-4.11 0.48,-4.19 5.13,-5.68 8.36,-8.14l5.34 -3.35c3.56,-1.65 6.1,-4.71 9.26,-2.82 -1.67,6.99 -0.15,-1.4 -6.45,7.71 3.2,-0.66 2.44,-0.45 5.45,-1.68 7.88,-3.23 4.53,-7.37 11.83,-5.31l-1.22 -4.77 -5.99 0.88c1.55,-4.59 1.44,-1.35 3.41,-5.55 -4.76,2.48 -17.27,6.99 -21.74,2.32 2.44,-5.95 5.94,-0.43 11.2,-5.23l3.53 -2.61c15.13,-9.18 34.97,-18.9 51.41,-25.51 -5.36,-1.67 -10.76,2.78 -15.02,4.34 -4.39,1.62 -3.93,0.33 -7.44,-0.5 -8.02,-1.9 -22.53,3.79 -26.17,6.25 -2.13,1.43 -1.54,2.31 -5.19,4.43 -3.23,1.87 -4.56,2.1 -7.46,4.26 0,0 -18.64,20.2 -21.83,21.81 -0.06,0.03 -12.26,2.12 -9.42,9.86 0.96,2.62 2.96,4.13 4.44,6.18 1.92,2.65 2.48,4.91 4.1,7.64 5.54,0.66 7.84,-2.82 11.79,-6.1z"/>
   <path class="fil17" d="M124.21 473.08l0.53 1.35c5.58,1.86 7.88,2.63 7.6,9.57 -0.2,5.25 -1.66,8.07 -5.54,10.29 3.62,6.87 18.5,10.02 19.17,9.82 4.09,-1.24 5.59,-14.86 30.12,-11.56l-3.75 -6.19c-2.66,-5.04 -1.2,-5.92 -2.17,-8.04 -1.2,-2.61 -3.33,-1.9 -5.77,-5.29 -1.64,-2.28 -2.26,-4.9 -3.15,-7.1 -7.08,0.5 -10.09,-0.11 -14.87,3.63 -4.41,3.45 -3.51,0.99 -10,7.02l-1.16 -1.12c-0.14,-0.15 -0.39,-0.4 -0.54,-0.56 -1.06,-1.13 -2.25,-3.15 -4.27,-3.74 -1.6,-0.47 -5.44,-0.08 -6.2,1.92z"/>
   <path class="fil2" d="M204.66 229.41c1.62,1.82 1.46,1.98 2.59,4.75 0.41,1.01 0.79,2.22 1.37,2.98 1.93,2.53 -0.55,0.86 2.77,2.33 0.17,-6.93 7.98,-4.32 14,-7.35 8.22,-4.14 -0.1,-9.58 5.81,-11.79 2.15,1.05 0.09,-0.04 1.67,1.01l2.33 1.63c1.29,-3.85 -1.53,-1.08 2.39,-4.1 6.01,2.26 -2.36,-0.96 6.78,6.81 2.72,2.31 6.23,7.2 8.77,8.31 1.21,0.52 23.04,0.82 25.21,-0.6 -7.38,-3.99 -16.94,-9.43 -25.17,-12.27 -8.11,-2.8 -3.95,-3.33 -4.52,-6.73 -0.57,-3.39 -4.15,-3 -11.43,-8.17 -1.28,-0.9 -3.71,-4.34 -6.95,-1.42 -2.01,1.81 -0.72,0.74 -1.96,3.86 -0.09,0.22 -0.15,0.63 -0.31,0.89 -12.81,0.81 -12.84,3.72 -15.62,5.31 -5.63,3.2 -11.09,2.65 -16.16,4.56 4.32,2.12 6.99,3.62 10.15,6.75l-1.72 3.24z"/>
   <path class="fil18" d="M54.99 174.9c0.77,4.53 2.46,5.65 5.83,11.78l6.3 11.86c2.66,-5.15 2.13,-16.11 17.79,-7.16 0.21,0.12 0.48,0.28 0.69,0.4l4.51 2.88c2.38,-2.69 -1.01,-5.89 -2.25,-7.41 -1.78,-2.18 -2.86,-4.12 -4.49,-7.1l-11.42 -22.32c-0.99,-2.98 -1.71,-5.19 -2.75,-7.97 -2.57,-6.86 -2.11,-8.55 -3.52,-13.42 -1.06,-3.68 0.92,-0.9 -1.76,-4.03 -0.31,0.03 -0.7,0.17 -0.89,0.25l-3.65 2.89c-1.3,2.59 -0.54,2.63 -1.23,5.79 -7.06,32.63 0.22,7.9 -3.16,33.56z"/>
   <path class="fil19" d="M127.36 251.74c1.98,5 3.43,11.31 6.89,17.14 5.63,1.14 9,1.95 14.02,2.25 8.22,0.49 3.75,3.6 14.61,-0.15 14.47,-5 17.4,-2.55 19.4,-19.24 -7.28,-3.96 -17.42,-3.44 -27.79,-3.01l-27.13 3.01z"/>
   <path class="fil20" d="M349.57 26.42c-2.04,8.51 -11.92,15.46 -9.36,32.04l2.23 4.84 6.74 -6.81c3.01,-2.95 0.8,-2.27 7.04,-4.55 -0.6,-10.17 -4.02,-13.79 -4.35,-21.59l3.22 -1.83c5.83,1.61 13.58,11.19 17.71,16.65 2.05,2.72 2.86,4.64 5.58,6.92l-1.14 -7.04 10.49 -2.43c-1.36,-2.49 -4.02,-5.25 -6.23,-8.29 -4.61,-6.34 -12.13,-22.64 -21.38,-23.16 -2.13,3.21 -1.73,4.85 -4.42,8.15 -2.14,2.62 -4.92,4.52 -6.13,7.1z"/>
   <path class="fil21" d="M241.5 506.52c-4.17,0.66 -2.85,1.3 -6.04,3.27 -7.62,-2.77 6.32,3.68 -2.65,-1.84 -3.49,-2.15 -5.29,-1.67 -10.71,-0.8 -2.1,0.34 -4.9,0.72 -6.95,1.5 -2.5,0.96 -3.58,2.43 -5.6,2.98 -5.35,1.45 -7.9,-2.36 -11.61,-4.97 -1.28,-0.89 -3.73,-2.61 -5.34,-3.43 -7.08,-3.63 -6.08,0.11 -6.2,0.38 3.52,1.56 1.58,0.73 2.88,2.14 0.14,0.15 0.32,0.42 0.46,0.58l9.91 12.48c10.45,7.18 14.86,1.06 20.32,-0.19 5.6,-1.27 11.77,-0.18 17.63,-0.08 23.6,0.38 37.84,-16.51 51.25,-22.55l-0.78 -5.46c-6.66,3.37 -14.15,7.65 -20.29,12 -5.92,4.19 -4.15,2.76 -12.96,3.35 -4.57,0.31 -6.65,0.81 -13.32,0.64z"/>
   <path class="fil2" d="M311.2 365.93c2.08,2.05 2.79,5.34 3.42,8.66 1.1,5.78 0.64,4.5 3.37,8.8 2.63,2.81 2.19,6.09 2.96,10.98 0.94,5.91 2.05,4.38 3.7,8.88l20.79 -9.55c2.21,-1.2 0.69,-0.18 2.06,-1.32 -1.14,-7.48 -0.6,3.09 -7.04,-14.52 -2.69,1.03 -3.66,2.87 -6.75,-0.43 -4.76,-5.09 -2.55,-17.56 -3.84,-22.64 -1.28,-5.06 0.29,-1.73 -2.11,-4.12 -2.79,2.84 -5.54,5.08 -8.36,7.39 -3.51,2.87 -6.26,3.07 -8.2,7.87z"/>
   <path class="fil4" d="M38.77 246.47c1.45,3.85 2.51,3.01 4.91,6.34 2.27,3.13 2.07,4.1 2.38,8.24l19.72 8.6c-0.42,-2.13 -1.1,-3.29 -0.43,-5.71 0.69,-2.5 2.25,-2.86 2.99,-6.11 -2.38,-2.56 -4.92,-5.39 -6.61,-8.29 -3.92,1.5 -5.01,2.61 -9.86,2.55 0.71,-3.92 -0.87,-1.48 2.38,-4.76 0.84,-0.85 3.31,-2.16 4.32,-2.79 -1.26,-3.74 -2.73,-5.74 -5.02,-8.38 -3.81,1.92 -1.67,0.65 -1.42,2.21 0.32,1.95 1.59,0.9 1.71,3.32l-9.43 1.37c-0.67,-4.42 5.34,-8.1 8.64,-10.59l-2.74 -4.87c-4.57,0.99 -9.32,2.62 -12.31,-0.37 1.9,-5.4 6.49,-5.29 10.75,-9.58 -1.62,-6.14 -9.12,-19.74 -3.75,-25.46l-7.86 -0.02c-2.22,4.08 -1.44,20.59 -1.31,27.61 0.32,17.2 4.08,9.39 2.94,26.69z"/>
   <path class="fil22" d="M133.88 316.74c1.04,2.44 5.84,2.77 7.69,2.91 2.83,0.2 4.68,0.38 7.42,1.34l0.24 8.6c3.39,-0.92 2,-1.89 5.26,-4.35 5.51,2.53 -2.14,-1.11 2.32,1.98 0.02,0.02 6.02,5.52 10.4,-0.95 0.17,0.23 0.32,0.36 0.37,0.77l1.83 4.29c3.4,-3.89 4.34,-5.25 8.57,-8.37 -0.61,4.5 -2.09,8.38 -3.4,12.7 -2.82,9.3 -2.7,10.01 0.14,11.74 4.48,-14.25 3.11,-17.95 16.78,-23.94l0.95 -2.26c-4.28,0.03 -3.63,0.28 -6.77,-0.74l0.07 -3.73c2.87,-1.8 3.12,-1.43 6.18,-1.12 7.08,0.72 8.97,3.58 8.83,9.64 -1.63,1.15 1.82,1.76 -2.74,0.55 0.89,4.4 2.5,6.46 1.51,9.34 -1.29,3.73 -3.27,3.46 -3.09,9.29l1.32 0.42c1.8,-0.84 3.25,-1.79 5.22,-3.01l4.41 -3.8c-1.71,-6.99 -5.86,-11.06 -3.27,-19.07 -2.95,-1.19 -5.62,-3.22 -7.41,-3.74 -9.71,-2.82 -35.62,-2.48 -46.21,-1.26 -5.35,0.61 -11.77,2.31 -16.62,2.77z"/>
   <path class="fil23" d="M334.54 265.7c0.28,-4.26 1.74,-2.54 5.37,-4.37 -2.97,-9.03 10.08,-13.57 18.02,-20.33 2.13,-1.81 3.15,-3.49 4.77,-4.73 2.08,-1.59 9.25,-1.59 12.37,-19.68 0.06,-7.04 1.42,-10.07 -0.32,-17.75 -1.12,-4.93 -1.85,-3.37 -2.24,-7.26 -0.27,-2.71 -0.2,-5.17 -1.74,-7.43 -0.79,9.65 0.58,8.61 -2.03,16.45l-3.52 15.96c-1.67,7.2 -0.45,4.37 -3.02,9.12 -4.11,7.56 -4.99,3.58 -15.66,10.37 -9.69,6.16 -8.27,6.26 -21.26,7.28 2.62,5.85 11.33,16.8 9.26,22.37z"/>
   <path class="fil15" d="M177.45 493.64l-0.07 4.22 3.49 1.52c2.54,1.3 0.86,-0.93 2.44,1.69 0.66,0.53 0.81,0.62 1.81,1.44 0.13,0.11 0.54,0.74 0.63,0.54 0.1,-0.2 0.44,0.37 0.65,0.56 0.12,-0.27 -0.88,-4.01 6.2,-0.38 1.61,0.82 4.06,2.54 5.34,3.43 3.71,2.61 6.26,6.42 11.61,4.97 2.02,-0.55 3.1,-2.02 5.6,-2.98 2.05,-0.78 4.85,-1.16 6.95,-1.5 5.42,-0.87 7.22,-1.35 10.71,0.8 8.97,5.52 -4.97,-0.93 2.65,1.84 3.19,-1.97 1.87,-2.61 6.04,-3.27 1.14,-3.74 0.1,-1.11 4.45,-6.69l1.79 -2.33c0.07,-0.12 0.24,-0.4 0.28,-0.52 0.64,-1.67 1.4,1.27 -0.36,-2.76 -3.68,4.61 -7.94,4.43 -11.28,4.11 -3.21,-0.31 -7.03,0.16 -9.53,-0.24 -7.4,-1.16 0.19,-0.57 -4.8,-2.8 -9.88,3.9 -12.73,-1.66 -16.1,-7.01 -11.99,0.93 -4.76,5.13 -28.5,5.36z"/>
   <path class="fil4" d="M98.38 160.16c2.78,6.57 4.86,15.3 8.96,19.42 6.11,6.15 2.15,1.37 5.44,8.26 2.45,5.11 0.27,0.98 3.73,3.78 2.79,2.25 1.24,1.77 4.19,4.2 0.91,-15.86 0.97,-13.42 3.17,-25.8 0.85,-4.73 -6.35,-16.26 -9.27,-20.11 -8.26,-10.85 2.94,-9.76 -3.14,-14.01l-2.67 1.98c-1.11,1.3 -0.44,0.28 -1.53,2.62 -1.5,3.21 -1.52,4.31 -2.61,7.15 -1.87,4.85 -2.99,9.95 -6.27,12.51z"/>
   <path class="fil4" d="M173.43 240.01c0.38,-0.67 7.39,-5.88 -8.99,-4.03 -3.68,0.41 -11.01,2.56 -13.69,2.43 3.3,-0.83 24.67,-13.18 31.63,-15.35 -0.65,-7.63 11.12,-7.94 17.1,-9.41l15.68 -6.67c2.67,-1.61 1.1,1.08 2.38,-2.12 -1.7,-0.78 -3.58,0.14 -4.98,0.59 -6.31,2.01 -2.9,1.02 -8.55,0.02l-10.7 -1.1c-8.25,-1.79 -4.79,-1.64 -10.99,1.66 -2.87,1.53 -3.19,1.17 -5.69,2.82 -2.88,1.91 -1.32,1.97 -4.58,3.01 6.81,0.46 3.2,-0.38 9.47,-2.39 -0.08,5.82 1.3,3.1 -6.88,9.11 -5,3.68 -11.2,5.26 -17.36,8.34l-25.02 13.75c12.84,-0.38 21.61,1.94 30.61,-0.76 3.75,-1.13 5.59,-0.11 10.56,0.1z"/>
   <path class="fil24" d="M177.72 422.93l0.37 8.8c-0.62,4.27 -0.15,0.87 -0.99,2.51 -3.41,1.06 -3.23,0.29 -4.79,-2.22l-0.64 -1.65 -0.13 7.63c-7.19,-0.83 1.88,-3.07 -9.12,-5.8l0.75 2.8c-1.25,1.01 0.24,0.08 -2.06,1.53 -2.97,1.88 -2.69,1.91 -4.8,1.07 -1.56,-0.63 -2.29,-1.21 -2.77,-2.93 -1.47,-5.35 0.58,-3.4 1.24,-4.03l-3.46 -2.13c-2.04,4.69 -0.93,5.4 -0.02,10.58 9.09,1.55 13.99,0.53 20.32,5.94 6.55,5.59 31.62,0.08 32.66,5.79l6.7 2.37 13.04 -7.42c-1.13,-1.95 -1.78,-2.46 -3.55,-4.33 -1.93,-2.04 0.37,-0.35 -2.22,-2.07 -1.87,-1.23 -0.26,-0.75 -3.22,-1.45 -2.02,2.32 -2.49,1.9 -5.14,3.34 -4.27,-1.31 -1.53,-1.35 -5.25,-2.74 -4.06,3.1 -6.96,5.83 -12.12,4.05 2.18,-6.65 8.34,-3.9 8.96,-12.02l-1.19 1.1c-2.26,1.91 -2.92,3.47 -11.64,3.35 -0.46,5.38 -0.74,5.27 -4.33,7.12 -3.48,-3.84 -0.7,-4.86 -1.98,-10.44 -1.44,-6.28 0.4,-6.05 0.93,-12.1 -4.17,0.54 -3.13,0.52 -5.55,3.35z"/>
   <path class="fil4" d="M80.12 300.45l-0.63 -0.03c1.33,-5.16 -0.65,-3.48 2.79,-4.56 -0.91,-1.98 -0.67,-2.01 -1.76,-3.14 -5.44,7.49 -6.56,-0.36 -7.04,12.37 -3.81,2.21 -2.88,1.77 -6,4.48 -2.06,1.78 -4.03,2.46 -5.84,4.94 -2.64,3.61 -1.91,10.55 2.21,15.09l18.19 23.12c2.22,-2.49 11.52,-19.85 11.99,-24.16l-14.23 5.42c-6.01,0.44 -1.96,0.58 -3.91,-1.1 1.85,-3.55 10.37,-4.13 15.29,-6.75 0.99,-0.53 1.24,-0.71 2.07,-1.37 1.41,-1.13 0.84,-0.71 1.85,-1.94 -21.08,3.19 -25.75,7.41 -25.86,-1.85 -0.06,-4.77 6.07,-16.57 8.76,-19.07l2.12 -1.45z"/>
   <path class="fil25" d="M145.8 191.52c-3.49,-0.43 -3.51,0.7 -3.7,-3.6 -0.05,-1.13 1.25,-4.88 2.02,-6.16 4.34,-7.28 6.62,1.41 10.36,-7.8 -5.61,-4.27 -13.85,2.06 -9.59,2.95 -8.64,-2.89 -0.77,0.7 -2.52,-10.92 -0.78,-5.14 2.45,-11.09 -2.08,-13.26 -4.78,11.35 -4.7,38.08 -6.81,42.76 -2.97,6.56 -6.68,1.59 -7.33,9.37 3.56,2.41 8.8,2.14 13.18,0.89l10.74 -6.38c13.48,-7.17 15.2,-3.63 25.62,-7.12 -2.95,-0.74 -0.51,0.87 -3.78,-0.59 -4.15,-1.85 -2.54,-5.54 -13.19,-1.77 -4.32,1.53 -13.86,7.61 -16.43,6.45 0.87,-2.33 1.7,-1.93 3.51,-4.82z"/>
   <path class="fil26" d="M92.88 442.45c0.92,3.08 3.39,7.51 4.86,9.95 0.75,-0.94 2.38,-8.08 3.12,-10.65 0.07,3.43 3.48,9.56 5.68,12.6 4.51,-0.43 0.49,-1.01 6.12,-2.01 3.8,-0.68 3.3,0.67 6.92,-1.02 8.11,-3.81 -0.61,-3.44 10.52,-2.69 3.4,-0.98 5.67,-3.18 8.43,-6.1 0.1,-0.11 0.41,-0.24 0.48,-0.57 0.08,-0.32 0.34,-0.37 0.48,-0.57 -4.24,-3.57 -4.12,-1.5 -7.98,-0.46 -4.53,-6.52 -13.91,-17.99 -11.43,-25.98 -3.75,-0.04 -2.5,-0.05 -3.28,-0.73 -0.51,4.32 0.98,10.3 -1.03,12.67 2.23,1.64 2.19,1.02 4.6,2.39l1.48 9.2 -5.02 -6.33c-2.46,4.65 -0.58,14.16 -2.98,20.14 -4.41,0.09 -4.51,0.92 -5.47,-2.38 -3.85,-3.29 -4.89,-10.84 -5.1,-15.83 -0.26,-6.07 -0.23,-16.46 -1,-21.45 -5.05,1.69 -2.64,-0.61 -4.3,4.12 -0.9,2.57 1.63,8.82 -1.02,10.79 0,23.87 -4.76,0.1 -4.08,14.91z"/>
   <path class="fil27" d="M315.57 208.75c-2.41,-0.15 -2.6,0.67 -4.36,-4.96 4.31,-5.04 9.34,-6.8 13.11,-11.31 9.49,-11.38 6.73,-9.11 8.49,-15.62 -1.97,-1.74 -3.39,-3.8 -5.03,-5.73 -10.08,17.72 -30.88,21.21 -31.24,41.96l12.44 6.65 6.59 -10.99z"/>
   <path class="fil28" d="M93.13 147.93c5.65,-9.7 -3.59,-17.17 0.67,-31.41 3.58,-11.95 -0.11,-28.14 4.36,-34.31 -1.87,-4.11 -0.56,-0.2 -2.01,-3.28l-4.01 -13.1c-6.68,6.88 -6.56,33.41 -7.45,42.74 -1.86,19.31 2.46,10.18 5.19,19.2 2.44,8.04 -3.96,13.68 3.25,20.16z"/>
   <path class="fil4" d="M227.8 311.41c4.08,-1.92 0.31,-0.3 2.59,-1.85 2.33,-1.58 -1.42,0.02 1.88,-1.15 7.38,7.25 4.54,6.08 15.93,8.5 4.17,0.88 17.28,0.65 19.69,-1.66 0.97,-4.85 1.54,-8.25 3.03,-11.37 -26.15,4.32 -20,6.71 -39.59,-4.29l-16.59 -8.59c0.93,3.68 0.67,1.79 1.25,3.45 0.04,0.14 1.02,3.1 1.05,3.18 3.99,9.93 10.53,6.53 10.76,13.78z"/>
   <path class="fil29" d="M97.74 452.4c3.07,6.35 0.65,0.77 0.98,12.83 0.05,1.91 0.05,0.98 -0.16,2.63l-4.77 -2.41 -3.46 1.2 1.1 4.69c0.57,7.73 -0.41,12.54 4.75,16.48 2.58,4 -0.66,1.37 3.23,3.18 0.61,0.29 4.3,1.11 5.79,1.18 1.69,-5.16 0.6,-2.65 -0.07,-8.18l-7.56 -1.24c-1.08,-11.38 4.48,-5.97 7.5,-12.83l-2.36 -0.84c1.03,-5.9 0.72,-3.5 6.21,-6.24 4.71,-2.35 19.43,-11.56 21.18,-14.22 -11.13,-0.75 -2.41,-1.12 -10.52,2.69 -3.62,1.69 -3.12,0.34 -6.92,1.02 -5.63,1 -1.61,1.58 -6.12,2.01 -2.2,-3.04 -5.61,-9.17 -5.68,-12.6 -0.74,2.57 -2.37,9.71 -3.12,10.65z"/>
   <path class="fil30" d="M83.1 224.23c4.27,-0.2 13.65,-4.29 17.09,-6.58l-4.4 -7.32c-1.43,-1.8 -1.34,-0.98 -3.18,-3.27l-5.28 -6.38c-4.05,-3.89 -5.37,-6.96 -12.75,-6.7l-1.71 4.01c-2.37,8.68 -0.66,9.31 1.28,12.5 1.72,2.83 2.34,4.56 3.63,7.16 3.81,7.66 3.11,5.58 5.32,6.58z"/>
   <path class="fil30" d="M315.51 218.71c0.56,2.31 6.73,13.3 8.39,13.94 2.61,0.02 2.28,0.36 4.84,-0.49 2.73,-0.91 1.96,-0.57 3.49,-3.03 2.8,-4.48 3.85,-4.9 4.38,-8.31 0.55,-3.54 -0.79,-20.18 -1.51,-23.97 -8.11,-2.04 -3.08,-1.77 -10.84,9.44 -2.98,4.3 -6.36,8.47 -8.75,12.42z"/>
   <path class="fil31" d="M293.99 193.09c7.16,-1.89 -2.62,0.06 9.95,-6.85l2.6 -1.81c1.14,-0.87 3.43,-2.56 4.25,-3.32 3.7,-3.41 9.12,-11.54 11.85,-16.74 -1.82,-4.48 -4.95,-8.1 -6.35,-13.99 -8.14,11.65 -3.99,9.15 -15.06,21.18l-1.03 1.08c-8.02,8.99 -5.26,1.34 -6.66,8.14 -0.1,0.49 0.32,11.71 0.45,12.31z"/>
   <path class="fil4" d="M342.44 63.3l-2.23 -4.84c-2.56,-16.58 7.32,-23.53 9.36,-32.04 -5.18,1.6 -11.32,8.24 -15.24,10.94 -5.01,3.44 -6.66,0.81 -6.95,17.5l1.19 21.73c1.7,-1.78 4.38,-4.08 6.61,-6.42l4.78 -4.71c0.24,-0.21 1.01,-0.85 1.22,-1.04l1.26 -1.12z"/>
   <path class="fil32" d="M283.34 287.69l1.87 4.72c6.58,-0.98 4.3,-2.55 6.13,-7.34 -0.71,-3.23 -6.21,-10.93 -8.28,-12.66 -9.43,-7.88 -6.14,-12.04 -6.21,-13.91l-4 -2.26c-4.95,7.13 -16.44,-5.47 -23.97,7.61 12.37,2.08 8.36,-3.29 18.97,8.78 8.48,9.64 19.84,6.2 15.49,15.06z"/>
   <path class="fil33" d="M41.13 369.35c-3.06,-2.15 -3.91,-3.35 -8.11,-3.51 0.67,6.72 4.95,10.66 8.91,15.48l5.53 7.28c5.58,7.53 10,17.19 16.45,20.72 -1.17,-7.52 -1.68,-17.53 -0.24,-25.36 -3.81,-3.31 -3.27,-1.94 -8.24,-4.39 -4.76,-2.34 -1.74,-2.01 -6.68,-4.91l-7.62 -5.31z"/>
   <path class="fil34" d="M339.91 261.33c-3.63,1.83 -5.09,0.11 -5.37,4.37 -4.44,-0.23 -6.7,-1.28 -6.76,-4.81 -2.65,23.11 -6,24.04 -6.71,31.34 3.18,2.85 2.13,1.9 4.16,5.02 2.5,-5.05 0.52,-8.11 7.83,-10.98 3.82,-1.49 9.98,-2.67 14.07,-5.76 -0.22,-2.76 -5.55,-14.35 -7.22,-19.18z"/>
   <path class="fil15" d="M378.38 52.09c2.79,8.3 9.91,12.99 13.66,23.85l9.05 4.58c-0.88,-18.96 -4.16,-24.88 -13.36,-37.9l-10.49 2.43 1.14 7.04z"/>
   <path class="fil35" d="M290.46 253.83c1.63,1.74 2.66,2.28 4.54,4.41 0.98,1.1 3.55,4.19 4.31,5.29 2.66,3.86 2.49,11.4 2.48,17.21 0.64,1.61 0.9,1.92 1.86,3.05 2.09,-1.86 3.77,-4.21 5.57,-7.37 2.1,-3.71 1.6,-4.65 0.83,-9.65 -1.78,-11.52 -2.35,-9.67 -10.51,-15.18 -12.32,-8.33 -19.95,-11.67 -35.86,-13.78 -0.44,0.81 -0.89,2.2 -1.09,2.59 12.63,2.16 20.05,3.79 27.87,13.43z"/>
   <path class="fil36" d="M283.34 287.69c-7.21,3.54 -3.85,14.93 -12.42,16.19 -1.49,3.12 -2.06,6.52 -3.03,11.37 4.41,-0.56 5.72,-1.31 8.25,-3.68l5.14 -4.37c4.61,-3.35 7.19,-6.3 9.59,-9.8 12.34,0.66 5.22,4.01 2.49,11.11 1.17,0.35 1.32,0.42 2.55,0.7 3.06,0.7 -0.22,-0.01 3.48,0.67 3.16,-3.72 3.37,-1.05 3.83,-6.42l-3.36 0.02c-1.48,-6.78 0.63,-5.46 -2.69,-11.22 -2.16,-3.76 -2.18,-5.35 -5.83,-7.19 -1.83,4.79 0.45,6.36 -6.13,7.34l-1.87 -4.72z"/>
   <path class="fil4" d="M327.74 153.29c9.26,-18.08 2.39,-11.26 4.52,-29 0.55,-4.56 0.19,-9.63 1.07,-15.41 0.81,-5.31 2.47,-12.01 1.9,-16.75 -3.32,6.86 -6.44,6.24 -8.04,10.47 -1.21,3.21 -1.21,13.7 -2.04,18.47 -3.05,17.5 -0.17,15.91 2.59,32.22z"/>
   <path class="fil37" d="M358.05 361.26c-1.66,5.35 -1.06,10.95 2.29,15.85 3.02,4.4 1.6,-0.01 4.25,4.93 3.1,-1.46 1.4,1.16 1.38,-3.03 -0.01,-2.13 -2.26,-4.77 -0.76,-12.99l9.31 0.25c1.72,-3.6 2.89,-7.13 4.72,-10.22 2.37,-3.99 4.79,-4.43 5.31,-9.78 -13.5,6.47 -11.22,3.88 -15.44,5.59l-11.06 9.4z"/>
   <path class="fil38" d="M195.59 519.77c-1.76,-1.87 -6.49,-10.92 -20.39,-13.44 -4.88,-0.88 -20.95,4.84 -22.49,9.07 12.46,1.94 31.9,5.05 42.88,4.37z"/>
   <path class="fil0" d="M125.69 346.71c8.45,-0.67 4.89,-4.66 12.82,-4.39 4.62,5.16 6.66,11.87 13.19,12.72 -0.28,-3.24 -7.25,-14.44 -9.78,-22.47 -5.56,-17.63 -17.85,-0.56 -16.23,14.14z"/>
   <path class="fil39" d="M281.97 424.03l1.39 0 1.92 -2.19c1.51,-1.45 0.77,-0.8 2.39,-1.87 4.51,1.23 3.33,2.76 6.39,3.64 2.22,-5.4 0.03,-3.36 -0.24,-8.93 -0.21,-4.18 1.71,-5.8 1.44,-10.83l-2.26 -4.98c-3.18,-0.47 -2.73,-0.64 -4.83,-2.72 -2.25,-2.24 -1.37,0.16 -2.49,-3.95l-4.2 -1.87c0.33,5.43 -0.15,11.01 0.07,17.14 0.13,3.64 1.4,10.66 0.42,16.56z"/>
   <path class="fil40" d="M272.85 256.24l4 2.26c2.69,-3.76 2.39,-5.65 6.56,-7.23 0.15,0.27 0.41,0.36 0.47,0.8l1.21 3.03 5.37 -1.27c-7.82,-9.64 -15.24,-11.27 -27.87,-13.43 0.2,-0.39 0.65,-1.78 1.09,-2.59l-10.22 1.31c3.97,4.06 5.02,5.95 9.63,8.06l-3.4 4.88 13.16 4.18z"/>
   <path class="fil41" d="M92.76 277.62l5.12 -3.64c0.21,-0.11 0.47,-0.26 0.68,-0.37l11.26 -4.98c4.8,-1.45 5.45,0.4 8.72,2.01 4.27,2.1 5.9,0.01 10.55,-0.63 -1.36,-2.84 -3.83,-6.01 -4.73,-10.09 -7.3,-2.06 -3.95,2.08 -11.83,5.31 -3.01,1.23 -2.25,1.02 -5.45,1.68 6.3,-9.11 4.78,-0.72 6.45,-7.71 -3.16,-1.89 -5.7,1.17 -9.26,2.82l-5.34 3.35c-3.23,2.46 -7.88,3.95 -8.36,8.14 -0.59,5.11 -1.52,3.46 2.19,4.11z"/>
   <path class="fil42" d="M341.84 106.62c1.15,-2.1 2.2,-5.68 3.41,-8.15 6.05,-12.3 9.59,-12.46 15.86,-20.34l0.27 2.06c5.57,-5.45 1.86,-3.83 1.72,-20.43 -3.92,1.43 -6.22,5.36 -8.76,8.28 -3.39,3.9 -4.27,6.54 -5.36,11.24 -1.9,8.14 -5.57,16.78 -7.14,27.34z"/>
   <path class="fil21" d="M211.39 239.47l-0.09 0.39 25.07 1.35c3.62,-1.41 0.35,0.68 3.21,-2.38 1.04,-1.12 1.26,-1.61 2.09,-2.99 -1.14,-2.74 -2,-2.94 -3.81,-5.76 -2.18,-3.42 -1.6,-3.48 -2.66,-7.11l-2.33 -1.63c-1.58,-1.05 0.48,0.04 -1.67,-1.01 -5.91,2.21 2.41,7.65 -5.81,11.79 -6.02,3.03 -13.83,0.42 -14,7.35z"/>
   <path class="fil43" d="M251.15 451.86l-0.12 -0.91 -13.79 -15.59c-1.69,-1.73 -1.26,-1.12 -2.75,-2.56 -1.68,-1.62 -3.64,-3.95 -4.56,-6.4 5.37,-1.79 3.36,-1.58 6.44,1.22l13.75 13.99c-2.23,-4.52 -5.65,-10.09 -8.28,-14.08 -7.36,-11.19 -6.82,-5.92 -11.65,-5.2 -1.15,-3.17 -1.64,-5.45 -6.45,-5.91l-7.6 11.12c0.19,0.11 0.51,0.17 0.62,0.2l4.43 1.37c7.15,3.07 9.75,2.74 12.69,6.46 0.88,1.12 0.09,0.38 1.29,1.86 2.49,3.07 1.9,1.82 4.53,3.98 1.17,0.96 3.02,2.47 4.05,3.42 3.8,3.52 1.85,4.33 7.4,7.03z"/>
   <path class="fil19" d="M285.09 255.1l-2.19 10.4c3.03,2.97 5.44,5.49 8.42,8.13l10.47 7.11c0.01,-5.81 0.18,-13.35 -2.48,-17.21 -0.76,-1.1 -3.33,-4.19 -4.31,-5.29 -1.88,-2.13 -2.91,-2.67 -4.54,-4.41l-5.37 1.27z"/>
   <path class="fil0" d="M293 398.87l2.26 4.98c6.91,1.8 11.14,4.47 14.4,-4.54 1.95,-5.37 0.22,-21.56 -13.25,-9.92 -3.29,2.83 -3.33,4.22 -3.41,9.48z"/>
   <path class="fil0" d="M174.72 347.4c0.76,3.34 0.55,3.06 3.21,4.6 4.58,-2.96 1.02,-7.21 6.33,-10.92 2.34,-1.63 3.11,-1.08 5.96,-2.49 7.33,-3.64 5.46,-3.33 3.97,-14.7l-2.69 -0.43c-13.67,5.99 -12.3,9.69 -16.78,23.94z"/>
   <path class="fil44" d="M264.08 215.58l20.3 10.61c3.64,2.59 4.19,4.11 8.21,6.77 4.27,2.82 5.32,4.98 10.46,6.32 -2.6,-11.7 -6.73,-9.81 -17.31,-17.55 -1.99,-1.46 -2.78,-2.89 -4.37,-4.22 -4.55,-3.81 -2.47,-1.2 -5.57,-1.49 -6.7,-0.64 -1.3,-2.93 -10.51,-5.64l-1.21 5.2z"/>
   <path class="fil45" d="M205.96 198.17c4.59,0.97 6.85,1.1 10.61,-0.44 2.29,-5.59 -0.17,-24.83 -0.39,-32.69 -3.66,4.41 -10.49,30.34 -10.22,33.13z"/>
   <path class="fil46" d="M364.59 382.04c-2.65,-4.94 -1.23,-0.53 -4.25,-4.93 -3.35,-4.9 -3.95,-10.5 -2.29,-15.85 -4.31,0.91 -7.43,3.59 -11.76,5.18 3.31,8.69 6.59,16.4 12.77,20.24 3.24,-1.25 4.15,-2.83 5.53,-4.64z"/>
   <path class="fil47" d="M339.05 299.92c8.77,-0.97 6.23,-0.81 15.68,-12.84 -7.03,-0.2 -16.83,2.55 -21.87,5.15 -0.7,6.49 1.3,11.25 4.46,14.55l1.73 -6.86z"/>
   <path class="fil48" d="M174.73 419c4.62,-3.15 5.01,-8.83 8.23,-15.73 -6.48,-0.36 -8.25,-2.24 -14.26,-0.98 -0.2,0.04 -0.64,0.54 -0.78,0.3 -1.74,-3.03 -1.38,13.6 6.81,16.41z"/>
   <path class="fil4" d="M362.15 280.27c-2.08,-1.38 -2.03,-0.72 -2.81,-4.82 -0.35,-1.8 -0.18,-3.71 -0.06,-5.34 0.32,-4.61 -0.49,-5.04 -0.93,-10.25l-3.52 0.61c-3.28,-8.9 -2.14,-5.99 -5.49,-2.72 -1.57,1.54 -0.75,0.64 -1.9,1.43 -6.66,4.6 2.64,-3.09 -1.92,1.18 11.7,14.88 7.72,15.52 13.24,22.27 3.34,-1.01 1.34,0.36 3.39,-2.36z"/>
   <path class="fil49" d="M236.37 241.21l-25.07 -1.35c-4.07,-0.35 -7.25,-1.17 -9.51,0.16l-0.17 2.97c4.04,1.73 11.99,2.79 17.61,2.8 2.2,0 15.38,-1.04 18.52,-1.64 -0.99,-2.77 0.35,-0.51 -1.38,-2.94z"/>
   <path class="fil50" d="M136.8 425.11c-4.86,1.97 -4.04,-0.34 -10.31,-5.03 2.25,-6.83 -0.59,-9.26 6.69,-13.06l2.72 2.1 4.25 -0.2c-0.12,4.2 -1.38,4.75 1.96,5.17 -2.78,-10.64 -5.15,-9.49 -8.01,-9.95l-0.92 -4.95c-2.9,2.2 -0.14,1.38 -0.46,5.42 -4.03,2.22 -4.47,0.48 -6.52,4.27 -4.34,8.01 1.99,17.07 4.39,22.77l4.72 -2.06c3.05,1.4 1.85,0.48 3.12,3.24l4.25 -2.1c-1.26,-4.23 0.56,-1.2 -2.94,-3.46l-2.94 -2.16z"/>
   <path class="fil51" d="M126.8 494.29c3.88,-2.22 5.34,-5.04 5.54,-10.29 0.28,-6.94 -2.02,-7.71 -7.6,-9.57 -9.17,-1.75 -10.41,3.93 -10.56,11.75 2.61,1.64 3.9,2.53 5.88,1.77 -8.23,-11.01 11.69,-13.88 7.77,1.16 -0.99,3.82 0.47,1.28 -2.06,3.68 -3.69,3.51 -0.99,1.36 -2.18,0.81l3.21 0.69z"/>
   <path class="fil52" d="M188.65 435c8.72,0.12 9.38,-1.44 11.64,-3.35l1.19 -1.1 -1.61 -15.4c-4.61,0.76 -5.51,4.5 -7.22,9.04 -1.62,4.33 -2.72,6.93 -4,10.81z"/>
   <path class="fil51" d="M96.18 487.82c-5.16,-3.94 -4.18,-8.75 -4.75,-16.48 -1.93,0.68 -1.66,0.31 -3.41,1.38 0.12,-5.88 -0.2,-5.09 -2.78,-6.28 -4.39,3.78 -2.78,9.57 0.31,13.97 3.29,4.68 3.46,6.31 8.21,9.99 2.72,-0.73 1.21,0.17 2.42,-2.58z"/>
   <path class="fil53" d="M136.8 425.11l-0.9 -15.99 -2.72 -2.1c-7.28,3.8 -4.44,6.23 -6.69,13.06 6.27,4.69 5.45,7 10.31,5.03z"/>
   <path class="fil53" d="M146.42 410.04c2.43,4.91 4.46,10.53 8.85,13.29l0.82 -16.04c-3.29,-2 -8,-1.55 -11.72,-1.55l2.05 4.3z"/>
   <path class="fil54" d="M208.83 418.66c3.66,-1.66 1.13,-0.05 3.76,-3.32l6.5 -11.91c-4.68,-2.84 -12.17,3.5 -12.28,3.7 -0.47,4.1 0.57,8.81 2.02,11.53z"/>
   <path class="fil49" d="M276.87 456.59c15.28,3.8 14.3,-14.12 8.76,-16.33 -0.39,-0.15 -1.7,-0.52 -2.35,-0.77 -0.42,3.94 0.73,7.99 -0.25,10.9 -1.58,4.69 -3.29,2.28 -6.16,6.2z"/>
   <path class="fil55" d="M192.45 321.2c3.79,0.46 2.9,2.06 5.57,4.6 4.56,1.21 1.11,0.6 2.74,-0.55 0.14,-6.06 -1.75,-8.92 -8.83,-9.64 -3.06,-0.31 -3.31,-0.68 -6.18,1.12l-0.07 3.73c3.14,1.02 2.49,0.77 6.77,0.74z"/>
   <path class="fil56" d="M89.8 392.12c4.47,-0.51 5.05,-1.73 9.43,-2.49 -1.5,-4.15 -4.63,-10.59 -7.6,-13.28 -1.91,3.47 -2.12,11.31 -1.83,15.77z"/>
   <path class="fil0" d="M254.51 173.18c1.2,3.99 0.98,2.88 6.63,6.04 4.67,2.61 2.89,1.71 8.47,1.04l-1.37 -6.13 -13.73 -0.95z"/>
   <path class="fil53" d="M154.78 430.64c-0.66,0.63 -2.71,-1.32 -1.24,4.03 0.48,1.72 1.21,2.3 2.77,2.93 2.11,0.84 1.83,0.81 4.8,-1.07 2.3,-1.45 0.81,-0.52 2.06,-1.53l-0.75 -2.8c0.57,-4.92 0.65,-3.76 -0.87,-7.68 -1.59,2.57 -0.64,0.88 -0.81,5.16l-5.96 0.96z"/>
   <path class="fil0" d="M32.35 168.57c-3.31,5.01 -2.79,3.29 -2.37,7.26l4.24 1.02c3.32,-2.78 3.98,-9.56 3.21,-12.93 -4.14,1.21 -3.49,0.78 -5.08,4.65z"/>
   <path class="fil57" d="M115.82 283.32c-1.55,3.19 -1,2.32 -0.88,7.97l7 0.05c0.45,-9.02 2.1,-4.38 1.94,-7.89 -0.85,-0.28 -1.52,-0.7 -3.5,-0.84 -4,-0.28 -1.83,-0.5 -4.56,0.71z"/>
   <path class="fil53" d="M171.67 430.37l0.64 1.65c1.56,2.51 1.38,3.28 4.79,2.22 0.84,-1.64 0.37,1.76 0.99,-2.51l-0.37 -8.8c-3.22,1.22 -4.12,1.95 -7.12,0.51l1.07 6.93z"/>
   <path class="fil57" d="M235.11 289.05c4.57,0.5 4.23,0.9 8.86,-1.09 0.32,-4 0.43,-3.18 -1.11,-6.18 -6.09,-1.3 -7.65,1.5 -7.75,7.27z"/>
   <path class="fil58" d="M189.37 391.25l2.99 6.62 8.02 -0.38 2.76 -4.98c-5.43,0.98 -8.49,-0.79 -13.77,-1.26z"/>
   <path class="fil49" d="M378.13 154.78c3.21,2.19 4.41,1.42 8.8,1.64 -1.28,-4.16 -0.54,-1.36 -1.33,-3.28 -0.46,-1.1 -0.23,-0.94 -0.97,-2.57 -4.58,-0.19 -8.05,-0.05 -6.5,4.21z"/>
   <path class="fil0" d="M226.31 459.79c-0.03,-3.26 -3.05,-7.46 -7.61,-7.43 -0.46,3.66 0.17,3.63 2.29,5.61 0.5,0.47 2.17,1.96 2.44,2.07 5.37,2.21 1.24,0.49 2.88,-0.25z"/>
   <path class="fil59" d="M205.66 429.89c4.9,-1.99 4.23,-0.04 5.93,-5.86 -7.96,-0.05 -4.22,-1.86 -5.93,5.86z"/>
   <path class="fil60" d="M149.51 376.75c0.98,-4.39 0.07,-5.43 -4.13,-5.29 -0.68,4.17 0.32,5.29 4.13,5.29z"/>
  </g>
 </g>
</svg>
