<?xml version="1.0" encoding="UTF-8"?>
<!DOCTYPE svg PUBLIC "-//W3C//DTD SVG 1.1//EN" "http://www.w3.org/Graphics/SVG/1.1/DTD/svg11.dtd">
<!-- Creator: CorelDRAW 2020 (64-Bit) -->
<svg xmlns="http://www.w3.org/2000/svg" xml:space="preserve" width="496px" height="512px" version="1.1" style="shape-rendering:geometricPrecision; text-rendering:geometricPrecision; image-rendering:optimizeQuality; fill-rule:evenodd; clip-rule:evenodd"
viewBox="0 0 492.02 507.69"
 xmlns:xlink="http://www.w3.org/1999/xlink"
 xmlns:xodm="http://www.corel.com/coreldraw/odm/2003">
 <defs>
  <style type="text/css">
   <![CDATA[
    .fil0 {fill:#030304}
    .fil6 {fill:#3258A6}
    .fil11 {fill:#4E72B6}
    .fil19 {fill:#502C37}
    .fil25 {fill:#574A35}
    .fil15 {fill:#575D95}
    .fil18 {fill:#69778F}
    .fil23 {fill:#7192CA}
    .fil7 {fill:#846B4B}
    .fil21 {fill:#882233}
    .fil9 {fill:#998159}
    .fil3 {fill:#A62B40}
    .fil17 {fill:#AAD3EF}
    .fil14 {fill:#AD946F}
    .fil13 {fill:#B6A889}
    .fil26 {fill:#BBF2FD}
    .fil22 {fill:#C5894F}
    .fil24 {fill:#C6C88B}
    .fil8 {fill:#CCA273}
    .fil5 {fill:#D3C6A5}
    .fil4 {fill:#D54666}
    .fil12 {fill:#D8D6D9}
    .fil2 {fill:#E4DAC2}
    .fil1 {fill:#EAE4D8}
    .fil27 {fill:#EFC68B}
    .fil20 {fill:#F0EDF6}
    .fil10 {fill:#FAB2CD}
    .fil16 {fill:#FEF3D7}
   ]]>
  </style>
 </defs>
 <g id="Layer_x0020_1">
  <metadata id="CorelCorpID_0Corel-Layer"/>
  <g id="_1809302978992">
   <path class="fil0" d="M422.3 84.31c3.84,-5.74 4.22,-10.39 5.97,-17.93 -9.98,-5.29 -16.15,-13.07 -24.69,-20.13 -0.23,-0.18 -0.88,-0.7 -1.1,-0.89 -0.15,-0.14 -0.37,-0.34 -0.51,-0.48l-10.11 -12.8c-6.44,-8.53 -11.51,-18.02 -18.81,-26.01l-2.75 -2.24c-0.18,-0.13 -0.42,-0.29 -0.6,-0.41 -1.05,-0.73 -4.72,-4.23 -7.16,-1.78 -1.52,1.52 2.49,12.59 3.13,15.87 1.29,6.6 -2.14,11.17 -2.14,17 2.26,0.81 0.81,0.2 2.37,1.61 5.67,5.13 11.86,13.97 13.57,21.3 -5.84,-0.13 -7.95,-3.34 -12.02,-5.92 -10.32,-6.52 -17.7,-20.66 -24.66,-31.11 -3.04,-4.55 -5.75,-11.77 -7.14,-17.75 -2.93,-0.69 -13.78,-3.53 -16.93,-2 -2.95,1.07 -1,-1.44 -2.96,3.02 -0.67,1.54 -0.9,3.54 -1.29,5.68 -0.2,1.05 -0.72,3.99 -1.24,5.74 -1.08,3.71 -1.13,1.24 -1.49,5.48 7.8,5.22 14.68,10.11 19.92,17.93 -4.38,-0.1 -3.08,-0.24 -6.32,-1.64 -5.77,-2.49 -14.54,-2.9 -20.57,-4.34 -14.41,-3.44 -28.81,0.96 -35.01,-13.79 -1.05,-2.51 -5.02,-10.49 -7.13,-11.79l-7.77 -4.18c-5.53,-3.97 -8.55,-2.63 -14.83,-2.11l2.63 13.86c1.09,6.84 1.66,7.97 4.34,13.04 -5.99,4.01 -12.41,2.98 -19.92,2.98 -0.39,4.69 -0.08,1.54 -0.97,3.01l-6 8.95c-8.67,-5.81 -13.65,-16.44 -21.28,-23.54l-2.01 -1.97c-4.31,-4.61 -7.44,-10.56 -12.7,-14.26 -10.03,-7.06 -6.58,8.17 -8.08,15.57l-0.75 13.24c7.05,0.16 15.54,5.15 19.7,10.19 4.5,5.45 3.24,10.06 -1.03,15.45l-7.09 7.84c-4.04,4.05 -3.47,3.46 -5.89,9.07l-1.34 2.71c-1.41,3.09 -0.46,0.47 -0.95,2.68 -1.67,7.42 0.02,5.49 0.33,9.84 0.17,2.53 -2.9,8.38 -3.73,11.94 -7.7,-5.16 -12.66,-14.64 -17.91,-21.93 -1.38,-1.92 -2.05,-2.32 -3.55,-4.42l-2.86 -4.11c-0.13,-0.16 -0.32,-0.39 -0.45,-0.54 -3.65,-4.41 -9.04,-7.69 -13.5,-11.4 -1.6,-1.33 -0.6,-0.44 -2.14,-1.84l-6.85 -6.11c-4.2,-3.58 -13.77,-13 -18.47,-13.39 0,11.78 7.86,14.44 6.94,21.93 -0.53,4.35 -0.18,0.98 4.69,9.26 2.21,3.75 4.2,6.37 6.13,9.81l7.66 27.12c2.03,12.86 1.83,12.37 8.44,15.54 -6.83,12.9 -14.22,2.36 -18.82,1.73l-35.36 -10.3c-4.85,-1.67 -2.23,-0.98 -4.61,-3.42 -3.3,-3.39 0.15,-1.09 -5.38,-1.63 -11.5,-1.13 -13.3,-4.31 -26.46,-4.31 0,8.72 7.69,9 15.24,14.63 7.8,5.82 14.01,12.18 20.86,18.99 2.42,2.4 3.83,2.84 4.73,6.22l-18.81 10.07c-13.75,6.3 -18.55,10.84 -30.78,19.02 -9.69,6.49 -13.52,10.43 -19.93,19.91 -5.26,7.79 -11.35,19.29 -9.16,28.69l2.99 0c0.21,-9.58 8.84,-23.04 17.01,-26.81 7.75,-3.58 22.3,-10.33 30.8,-11.04l-5.9 5.05c-0.16,0.14 -0.39,0.33 -0.54,0.46l-4.77 4.2c-12.64,12.38 -8.13,7.43 -20.39,22.44l-13.75 23.1c-11.35,23.02 -6.54,17.22 -13.39,34.42 -1.42,3.56 -1.76,4.07 -3.82,7.13 -1.76,2.63 -2.86,3.97 -3.18,7.78l7.97 0 10.55 -14.35c0.41,-0.43 2.12,-1.86 2.67,-2.31 0.15,-0.14 0.39,-0.31 0.55,-0.45l5.15 -4.8c-1.41,6.04 -4.95,12.27 -5.83,18.07l-2.84 20.02c-2.65,16.84 0.04,11.95 -4.5,30.41 -2.25,9.14 -4.25,22.42 -3.79,32.05l0.03 70.75 16.93 -37.84c0,7.24 -1.69,8.49 -0.72,15.63 0.68,5.06 0.62,3.58 -0.02,8.56l0.85 18.52c0.94,8.4 5.39,16.68 6.86,23.02l11.96 -36.85c0,4.98 -0.44,7.67 -1.06,11.9l-1.99 22.98c-0.26,5.73 0.63,5.82 1.05,10.94l2 0c0.95,-4.09 2.44,-5.24 4.11,-8.84 4.34,-9.35 7.86,-19.45 13.81,-28.02 0.28,12.24 -0.52,23.55 3.6,35.15 0.06,0.16 0.18,0.42 0.23,0.58l0.42 1.71c1.11,5.99 3.77,16.49 10.69,18.34l8.97 -22.91c5.15,3.78 4.5,12.28 9.96,15.94 1.68,-3.51 0,-23.55 0,-30.88 3.27,2.4 3.64,6.12 5.62,10.31 2.21,4.66 3.42,6 6.03,9.91 4.24,6.33 7.04,15.87 16.23,16.63 0.03,-1.27 0.2,-2.4 0.26,-3.42 0.08,-1.51 0.01,-1.43 0.11,-2.73 0.96,-12.29 1.86,-22.6 5.24,-35.05 1.36,-5 3.23,-7.75 4.35,-12.58 2.65,1.94 2.95,4.2 4.9,7.1l1.31 1.7c2.33,3.38 0.3,6.29 2.01,10.85 1.32,3.5 6.3,9.9 8.65,13.28 4.99,7.19 7.1,10.2 15.74,13.15 5.75,1.95 11.71,4.58 15.89,9.01 3.75,3.98 7.82,5 12.98,6.94 6.65,2.51 10.65,6.31 18.02,6.89 7.68,0.61 13.99,0.49 23.52,-1.77 9.81,-2.34 8.48,0.65 15.66,-0.17 5.2,-0.59 4.18,-0.35 7.82,-2.24 2.28,-1.19 3.79,-2.38 7.69,-1.84 2.62,0.36 4.88,1.48 6.93,3.15 4.54,3.71 0.74,2.03 7.94,3.02 8.08,1.11 10.64,1.13 17.59,-1.04 0.32,-0.1 1.26,-0.35 1.57,-0.45 2.79,-0.9 2.08,-1.65 5.72,-1.45 2.79,0.16 5.66,1.56 8.41,1.6 5.05,0.08 4.38,-0.62 7.81,-2.07 5.55,-2.35 3.07,-6.5 11.48,-14.42l1.04 -0.95c0.56,-0.54 1.47,-1.46 1.5,-1.49 9.51,6.38 21.4,2.36 30.13,-0.74 3.73,-1.32 1,0.05 4.16,-1.82 9.12,-5.4 4.41,-3.6 9.83,-10.17l1.96 -3.09c1.9,-5.51 0.25,-1.76 6.54,-5.26 5.09,-2.84 6.49,-7 5.15,-12.78 16.37,-8.66 6.35,-8.76 8.63,-17.32 1,-3.76 3.55,-4.7 5.57,-7.39 2.78,-3.71 -1.38,-18.82 5.5,-29.29 2.04,-3.12 3.02,-4.98 5.18,-7.77 3.94,-5.08 11.28,-16.94 16.55,-21.29 4.47,-3.68 8.92,-7.98 14.02,-10.88l14.04 -8.82c2.89,-1.83 5.33,-2.9 8.52,-4.48 1.75,-0.88 2.26,-1.12 4.1,-1.95 3.77,-1.69 4.63,-0.97 8.08,-2.74 1.35,-0.69 2.96,-1.83 4.43,-2.61 0,-12.47 -1.49,-13.42 -7.44,-22.44 -1.77,-2.68 -2.56,-3.05 -5.07,-4.89 -2.23,-1.64 -3.61,-2.65 -5.64,-4.32 -2.58,-2.13 -3.32,-2.28 -5.89,-4.07 -4.1,-2.85 -8.61,-5.59 -14.81,-6.11 0.22,-9.75 10.75,-7.79 8.86,-23.78 -0.91,-7.81 -4.97,-18.86 -6.87,-27.01 3.09,-2.07 4.51,-4.95 7.24,-7.71 3.68,-3.69 3.78,-4.19 3.77,-11.18 -0.02,-6.2 -0.42,-19.92 -8.02,-21.95 0.21,-9.36 4.15,-1.1 7.06,-9.87 6.07,-18.28 -22.02,-33.31 -15.18,-59.02 1.43,-5.39 2.11,-2.67 2.73,-5.98 0.87,-4.65 -3.32,-15.32 -5.78,-19.53 -0.15,-0.26 -0.6,-0.99 -0.76,-1.23l-0.82 -1.17c-2.17,-2.3 1.99,-1.24 -3.18,-1.8l0 -1.99c2.4,-0.97 3.31,-3.55 4.65,-5.31 1.65,-2.13 0.27,-0.77 2.49,-2.49 4.53,-3.52 12.28,-8.85 17.76,-10.13 -0.16,-6.89 -1.14,-6.84 -7.95,-7 -8.07,-0.19 -5.05,-2.69 -12.83,-0.83l-3.45 0.98c-0.16,0.03 -0.44,0.08 -0.6,0.1 -6.67,1.13 -13.06,4.6 -19.99,4.76z"/>
   <path class="fil1" d="M47.9 452.82l0.9 0.67c3.47,-6.67 13.41,-35.9 19.96,-48.4l8.12 -17.89c0.66,-1.72 1.68,-4.29 2.54,-6.33 10.09,-24.11 15.77,-22.54 12.92,-16.11 -1.13,2.55 -5.44,7.47 -6.16,12.33 -1.02,6.84 -5.01,27.29 -4.85,33.92 0.14,5.61 2.04,5.97 2.92,10.15 1.46,6.87 0.92,10.52 4.04,22.4 0.78,-6.68 2.09,-9.84 1.83,-17.29 -0.4,-11.71 4.26,-30.02 8.77,-40.84 1.58,-3.78 1.78,-5.28 4.69,-5.85 1.14,3.48 -3.61,16.5 -2.58,24.44 4.73,1.98 2.43,-1.42 5.37,3.2 0.8,1.24 2.6,5.54 2.95,6.44 -1.23,-9.91 -0.87,-16.81 0.36,-26.38 2.14,3.69 2.8,8.27 4.75,12.88 4.85,11.47 2.23,0.63 4.2,14.76 0.74,5.37 1.68,9.56 2.14,15.86 0.16,2.24 0.73,5.83 0.63,8.04 -0.12,2.68 -0.16,2.34 -0.92,4.09 -0.13,0.29 -0.58,1.06 -0.72,1.31l-1.24 1.8c-2.49,-2.09 -0.71,-0.18 -2.66,-3.58 -1.22,-2.11 -1.22,-2.34 -2.38,-3.43 -4.96,-4.67 -1.61,0.82 -4.36,-8.85 -0.89,-3.1 -5.5,-13.04 -7.53,-16.72 -2.25,4.59 -2.24,30.2 0.12,36.2 4.74,12.02 8.79,12.37 12.5,20.3 1.17,2.5 2.31,4.58 4.31,6.75 2.52,-3.2 4.87,-19.66 5.9,-23.96 1,-4.16 0.91,-2.45 1.25,-6.84 0.82,-10.53 2.66,-12.09 2.19,-24.94l-9.91 -40.86c-1.4,-4.43 -3.35,-7.9 -5.54,-12.69l-11.53 -23.09 -3.66 -14.35c-0.52,-3.06 0.19,-3.39 0.03,-6.98 -0.03,-0.71 -0.14,-3.17 -0.22,-3.63 -1.17,-6.89 2.03,5.39 -0.39,-1.9 -1.08,-3.26 1.25,-0.01 -1.46,-2.66l-3.06 18.1c-0.37,1.41 -1.27,3.53 -1.49,5.49 -1.23,-2.1 -2.63,-11.37 -3.35,-14.79l5.38 -46.51c-9.53,0.39 3.87,-18.76 0.03,-26.36 -2.52,-5.01 -6.65,-8.35 -7.72,-11.38l-1.91 -7.21c-0.99,-3.02 -1.1,-5.44 -1.63,-8.44 5.08,-0.42 8.06,-2.08 12.95,-3.05 19.49,-3.85 10.92,-8.85 22.83,-25.08 5.47,-7.46 12.55,-22.45 15.96,-25.94l10.53 -11.33 -1.68 -2.53c-2.76,-5.85 2.16,2.67 -0.61,-1.56 -5.68,0.28 -9.76,6.71 -10.99,7.71 -4.47,3.61 -6.09,0.36 -11.7,7.25l-6.7 7.24c-1.05,0.97 -1.57,1.21 -2.68,2.32 -2.47,2.46 -2.24,2.83 -4.91,5.03 -2.25,1.84 -3.09,2.98 -5.88,4.27 1.87,3.59 2.83,1.64 1.08,4.79 -1.75,3.17 -14.36,13.22 -21.18,21.74 -2.98,3.72 -4.8,4.47 -7.74,9.22l-19.3 40.23c-1.16,5.22 0.06,2.46 -2.27,6.23 1.79,-0.81 2.51,-2.77 3.88,-4.17 -0.12,4.5 -2.66,17.16 -3.57,22.15 -1.26,6.92 -0.98,16.2 -2.36,22.46 -5.56,25.18 -5.26,62.7 -6.31,66.51 -5.53,20.07 -3.8,25.78 -5.24,44.29 -0.56,7.19 0.86,14.26 0.43,22.35l20.63 -75.71c4.2,-12.03 8.9,-23.85 11.95,-36.97 1.52,-6.56 3.54,-13.25 5.01,-18.92 1.65,-6.36 4.16,-12.49 5.54,-18.42 3.23,8.42 2.58,10.24 -0.34,18.78 -9.46,27.61 -14.69,49.34 -19.75,77.54 -0.38,2.08 -1.99,5.3 -2.7,8.46 -5.29,23.86 -4.9,37.83 -8.41,54.24z"/>
   <path class="fil2" d="M303.28 148.21c-3.43,3.62 -0.04,1.65 -1.97,4.44 -1.8,2.61 0.95,0.65 -3.14,2.07 -2.4,0.84 -5.58,1.52 -8.48,2.33 -12.34,3.44 -9.33,4.93 -14.37,6.32 -4.39,1.22 -5.31,-0.89 -8.49,2.62 -2.52,2.77 -0.49,2.72 -4.22,5.67 -3.68,2.92 -8.59,4.77 -12.62,7.68 -3.11,-3.73 -3.86,-2.05 -7.64,-1.32 -4.11,0.78 -5.71,0.54 -8.88,2.52 -2.78,19.9 1.74,14.18 1.49,22.26 -0.11,3.47 -0.49,20.22 -0.9,21.8 -7.17,-0.27 -1.35,-0.99 -6.63,-11.24 -2.23,-4.32 -3.55,-8.78 -5.31,-12.61 -1.09,1.81 -0.82,2.64 -0.05,5 3.1,9.49 1.48,10.37 -5.27,15.71 -3.45,2.72 -5.27,3.09 -8.82,6.13 -4.31,3.69 -4.38,5.37 -11.32,5.44 -2.19,-2.51 -5.66,-8.1 -8.89,-4.49l1.13 6.51c7.29,9.45 9.37,3.73 17.26,0.53 5.32,-2.16 6.06,-0.74 11.96,0.22 1.01,2.27 0.33,0.21 0.99,3.97 7.2,0.65 15.57,4.73 17.77,10.57 -7.24,3.94 -21.65,-7.76 -29.27,1.29 5.99,4.78 13.6,-1.21 19.87,1.66 1.89,0.86 0.58,1.84 8.05,3.52 4.06,0.92 7.74,1.82 11.24,2.4 -1.58,6.05 -1.14,1.21 -2.32,4.87 13.42,4.48 9.11,2.89 17.9,9.85 -0.66,-3.72 -6.45,-7.37 -2.4,-10.8 5.68,-2.07 5.11,0.46 7.17,3.45 5.03,0.95 7.06,1.04 9.27,4.37 1.06,-4.48 -0.87,-2.3 2.49,-3.37 3.92,2.22 2.48,0.38 4.83,4.19 1.34,2.16 1.33,3.55 3.13,4.77 15.02,14.93 10.41,-2.3 10.93,22.96 0.14,6.31 0.63,7.98 3.02,10.45l2.89 -0.97c2.58,-7.45 -3.12,-7.62 -0.06,-23.93 1.63,-8.7 2.55,-12.63 -5.04,-20.25 -4.97,-4.98 -12.18,-6.77 -18.63,-9.37 -11.29,-4.54 -18.17,-2.86 -19.97,-7.79 3.42,-1.23 8.47,-1.28 12.93,-1.01 -1.9,-3.43 -5.88,-3.45 -9.44,-3.2 -6.47,-0.97 -11.58,0.97 -13.95,-6.44 -1.05,-3.28 -0.22,-2.18 -0.4,-4.36 -0.97,-11.98 -3.16,-3.17 2.01,-10.88l-1.57 -1.49c-0.12,-0.17 -0.32,-0.41 -0.43,-0.59 -1.28,-1.97 -0.56,0.43 -1.11,-2.94 -0.03,-3 0.01,-16.15 0.38,-17.37 1.43,-4.77 2.37,-11.59 5.82,-14.23 6.37,-4.87 19.96,-9.05 29.07,-7.21l13.65 -5.28c-3.7,-0.68 -3.16,-1.51 -6.6,-2.22 4.05,-0.29 4.88,0.48 8.48,0.7 1.92,0.11 14.51,-1.39 16.18,-2.71 2.76,-2.17 -0.55,-1.72 6.7,-2.55 8.14,-0.93 2.33,-1.7 7.19,-2.55 2.63,-0.47 4.9,1.06 7.71,0.79 8.12,-0.78 -2.11,-2.59 7.92,-2.6 3.16,-0.01 5.11,0.89 9.52,0.8l1.53 -4.5c11.09,3.37 13.28,3.43 18.79,13.87l-5.7 0.13c1.36,0.65 1.32,0.43 2.01,0.75 1.86,0.88 1.38,0.68 2.29,1.39 0.61,6.86 0.48,3.7 -0.39,10.7 3.17,-0.98 7.38,-1.09 10.96,-0.99 5.17,0.13 6.25,-0.11 7.12,4.24l-2.34 1.01c-6.83,2.51 -6.93,0.98 -12.16,1.66 -1.23,17.07 -1.35,19.98 -7.62,33.29 3.32,-0.65 6.29,-1.94 9.34,-1.33 2.24,0.44 6.23,1.77 7.43,3.12 -3.94,1.95 -2.19,0.14 -5.71,1.02 -2.68,0.66 -8.77,5.34 -14.25,6.4l-2.45 12.93c-4.86,2.7 -7.35,1.12 -13,1.81 -4.53,0.56 -7.94,2.16 -12.16,2.98 -11.9,2.31 -12.34,4.37 -17.2,2.1 -2.21,-1.03 0.65,-0.15 -2.8,-1.13 -0.14,-0.04 -2.28,-0.4 -2.69,-0.48 -6.3,-0.38 -4.37,2.32 -8.12,2.23 -1.63,-0.04 -2.35,-0.84 -3.38,-0.94 -2.97,-0.28 -1.93,-2.16 -3.71,1.07 6.87,7.24 2.09,0.72 10.92,9.46 14.47,-0.95 40.14,-8.99 52.75,-2.98 6.66,6.12 1.16,1.18 8,5.47l-6.56 7.96 2.14 5.88c-7.43,4.27 -2.54,0.4 -6.53,6.45 -8.1,1.25 -0.68,-1.96 -9.22,-1.95 -4.16,0.01 -4.8,0.71 -9.72,0.99 -9.8,0.55 -10.98,4.13 -17.67,8.55 -0.55,19.46 -5.3,10.91 -11.16,18 -3.51,4.25 -2.65,9.34 -8,12l-13.37 29.45c-2.94,5.86 -2.28,7.48 -4.76,10.27 -0.95,0.41 -9.18,5.34 -10.03,6.2 -0.97,3.81 -1.46,9.96 -1.19,13.59 0.26,3.5 2.2,11.12 4.44,13.58 7,-0.86 1.55,0.2 5.97,-2.94 14.24,-5.04 21.61,1.29 18.31,-9.97 -10.65,-2.57 -14.49,3.4 -17.68,3.85 -4.56,0.63 -1.25,0.36 -2.87,-0.4 -1.29,-4.5 7.31,-17.57 9.72,-21.57 2.27,-3.75 2.81,-7.28 4.89,-11.89 2.12,-4.7 3.54,-7.31 5.81,-11.26 4.13,-7.21 11.6,-19.07 17.33,-24.36l9.9 -7.05c4.05,-2.63 1.35,0.13 3.4,-4.81 5.9,-0.94 3.73,0.66 8.08,0.49 7.87,-0.3 0.51,-1.24 6.5,-3.85 4.68,-2.03 4.79,0.11 6.23,1.69 1.87,2.06 -2.29,0.59 2.75,2.42 1.13,0.41 2.94,0.32 4.2,0.35l3.35 -0.56 -0.5 -8.13c0.36,-6.18 2.48,-10.73 6.13,-14.17l11.01 -8.87c2.02,-1.53 3.47,-2.04 6.24,-3.63 3.04,-1.74 3.17,-2.98 5.4,-4.66l6.94 -3.61c5.23,-1.68 4.22,-0.31 5.15,4.11 4.64,-1.31 9.08,-8.47 8.8,10.86 -0.11,7.55 -5.35,11.34 -5.94,17.22 15.48,-11.4 7.95,-17.88 10.66,-26.67 -0.91,-1.62 -5.51,-3.97 -9.83,-16.22 -0.84,-2.38 -1.52,-3.82 -2.6,-5.91 1.85,-5.56 -1.01,-0.75 3.55,-3.35 -0.4,-18.21 -23.76,-16.75 -21.32,-4.98 5.12,1.73 7.38,-0.15 6.97,6.61 -0.18,3.07 -1.52,9.14 -2.88,11.58 -2.24,4.01 -3.81,3.63 -7.25,6.59 -3.15,2.71 -3.63,5.92 -8.77,6.14 0.77,-4.31 1.09,-5.5 4.26,-8.72 1.43,-1.45 2.05,-2.02 3.93,-2.95 1.78,-0.87 0.68,-0.27 1.71,-0.65 2.19,-0.83 -0.69,1.09 1.77,-0.67 -1.3,-2.98 -1.89,-4.46 -3.01,-7.86 -3.87,-11.74 -9.43,-2.31 0.63,-19.65 0.9,-1.55 1.23,-3 1.92,-3.89 1.9,-2.41 3.94,-2.13 5.93,-6.11 2.3,-4.61 -0.82,-3.51 1.13,-9.71 2.15,-6.85 6.86,-2.06 8.35,-15.66 0.58,-5.27 -0.95,-5.94 -0.68,-10.66 0.22,-3.85 0.55,-5.58 -1.08,-9.79 -4.79,1.64 -8.46,1.57 -12.88,-0.39 -6.89,-3.05 -9.04,-2.28 -11.66,-7.82 1.86,-3.14 3.69,-5.66 4.19,-10.77 -4.96,-1.09 -10.62,-2.8 -16.21,-3.5 -14.76,-1.86 -4.57,-4.43 -17.23,-3.3 -2.75,3.37 0.36,6.05 -11.92,6.74 -16.61,0.93 -7.95,0.66 -12.98,4.88 -3.46,-0.31 -12.1,-4.26 -13.2,-7.09 4.5,-4.35 6.02,-0.12 10.22,1.78 4.09,-1.74 -1.83,-3.27 14.01,-2.68 2.21,-4.73 4.16,-5.23 8.56,-7.84 -2.32,-2.72 -6.3,-2.14 -10.92,-2.24 -3.13,3.05 -8.62,4.69 -13.15,5.85 -5.31,1.36 -8.38,2.67 -15.93,1.31z"/>
   <path class="fil3" d="M187.24 332.46c-0.3,4.42 1.02,6.9 2.84,9.65 11.69,4.16 10.58,9.23 17.91,13.1 0.88,5.85 -0.1,4 -1.25,7.86 0.17,3.14 -1.41,4.94 -3.56,7.82 -6.33,-0.45 -7.84,-3.4 -13.19,-4.44l-4.34 0.35 -0.16 10.3c6.22,1.61 4.98,3.55 12.29,3.36 9.74,-0.27 6.2,0.79 9.98,5.07 3.55,4.03 3.88,-0.05 9.26,3.63 0.18,0.13 0.38,0.34 0.55,0.47l6.5 4.33c4.87,2.09 3.33,-0.9 5,3.4 -3.2,0.73 -20,0.7 -25.28,0.7 -4.82,-6.9 -4.1,-5.8 -13.46,-6.46 -6.04,-0.42 -9.49,-3.22 -13.18,-6.29 1.02,4.63 4.52,19.62 7.29,22.44 2.27,2.31 0.3,0.45 2.93,2.36 4.52,3.26 6.62,2.51 13.87,3.19 6.13,0.57 8.81,1.78 13.33,2.23l-1.67 8.09c-5.66,1.64 -6.85,2.34 -13.57,1.38 -3.96,-8.52 -4.41,-6.47 -21.58,-6.51 -12.49,-14.69 -4.76,-27.39 -17.4,-47.91l2.61 23.99c1.16,6.89 3.15,21.04 4.9,26.66 1.69,5.4 2.14,2.7 5.5,5.6 3.99,3.46 5.92,14.28 20.32,23.58 1.08,0.7 1.34,0.7 2.45,1.52l2.02 1.85 28.37 7.79c5.83,2.04 14.84,2 21.37,0.84 8.14,-1.44 2.55,-2.74 10.36,-8.2 3.85,-2.69 8.64,-4.8 8.2,-11.35l-10.88 -6.65c-9.27,-6.47 -10.77,-12.03 -28.91,1.24 -1.21,0.89 -1.14,0.92 -2.3,1.68l-3.25 1.82 -5.99 -3.31c10.33,-16.41 28.1,-23.71 37.36,-31.09 3.28,-2.62 2.77,-5.09 5.42,-8.56 8.97,-11.71 3.11,-7.07 2.85,-13.96 -0.13,-3.28 0.73,-3.51 2.47,-4.91 -4.89,-3.91 -3.4,-4.73 -3.01,-7.49 0.48,-3.4 0.81,-7.06 1.09,-10.89l-3.13 2.62c-0.18,0.15 -0.41,0.32 -0.59,0.46 -8.81,6.84 -10.35,13.17 -17.32,12 -3.46,-13.62 11.09,-24.56 18,-31.56 -0.54,-6.37 -5.21,-12.19 -9.8,-18.41 -2.29,-3.11 -1.97,-3.15 -5.87,-4.08 -1.09,-7.11 0.84,-3.52 -2.69,-7.23l-20.03 -21.83c-2,-2.03 -3.62,-3.26 -5.69,-5.25 -5.43,-5.24 -2.93,-5 -11.28,-10.36 -5.6,-0.15 -3.37,1.66 -7.66,-0.59l-7.03 -3.93c-3.14,-2.21 -10.83,-7.4 -12.5,-7.74l0.14 -0.03c6.81,10.3 16.55,7.34 14.64,19.18 -4.97,1.81 -18.02,-0.52 -22.43,-2.17l-19.66 -7.73c-5.39,5.49 -1.55,8.9 -1.51,8.97 2.03,3.26 0.88,-0.54 2.36,4.48 3.27,11.09 8.87,4.45 20.26,6.64 9.89,1.9 8.19,1.76 12.27,9.72 2.83,5.53 8.93,2.82 10.23,11.25 1.34,8.74 3.84,5.78 9.79,9.19l-0.05 2.99c-2.14,1.47 -6.99,1.08 -10.66,0.79l-3.85 4.34z"/>
   <path class="fil4" d="M146.67 324.34l15.24 31.33c1.46,2.9 2.66,4.43 3.92,6.95l11.32 22.69c3.69,3.07 7.14,5.87 13.18,6.29 9.36,0.66 8.64,-0.44 13.46,6.46 5.28,0 22.08,0.03 25.28,-0.7 -1.67,-4.3 -0.13,-1.31 -5,-3.4l-6.5 -4.33c-0.17,-0.13 -0.37,-0.34 -0.55,-0.47 -5.38,-3.68 -5.71,0.4 -9.26,-3.63 -3.78,-4.28 -0.24,-5.34 -9.98,-5.07 -7.31,0.19 -6.07,-1.75 -12.29,-3.36l0.16 -10.3 4.34 -0.35c-6.2,-3.74 -5.94,-7.67 -2.82,-14.11 7.86,1.29 5.1,0.92 9.36,5.59 4.46,4.88 7,3.95 10.21,5.14 1.15,-3.86 2.13,-2.01 1.25,-7.86 -7.33,-3.87 -6.22,-8.94 -17.91,-13.1 -2.56,10.03 -8.07,4.95 -12.76,0.14 -3.55,-3.65 -7.98,-4.53 -4.02,-13.85 2.74,-0.01 5.82,0.32 8.68,0.58 4.3,0.4 5.16,-0.88 5.26,3.48l3.85 -4.34c3.67,0.29 8.52,0.68 10.66,-0.79l0.05 -2.99c-5.95,-3.41 -8.45,-0.45 -9.79,-9.19 -1.3,-8.43 -7.4,-5.72 -10.23,-11.25 -4.08,-7.96 -2.38,-7.82 -12.27,-9.72 -11.39,-2.19 -16.99,4.45 -20.26,-6.64 -1.48,-5.02 -0.33,-1.22 -2.36,-4.48 -0.04,-0.07 -3.88,-3.48 1.51,-8.97l19.66 7.73c4.41,1.65 17.46,3.98 22.43,2.17 1.91,-11.84 -7.83,-8.88 -14.64,-19.18l-0.14 0.03 -3.91 -2.84c-1.36,-0.85 -1.77,-1.08 -3.05,-1.94l-13.64 -8.24c-12.7,-7.74 -7.22,-2.28 -20.82,-10.91 -6.55,-4.15 -7.41,-6.08 -9.13,-12.05 -4.92,0.83 -11.59,2.54 -14.98,5.84l10.59 18.47c1.42,3.52 2.13,6.81 3.47,10.52l8.74 20.13c3.47,8.21 2,2.57 2.82,9.81 0.52,4.65 3.03,4.81 5.64,7.77 2.17,2.46 2.91,5.95 3.98,9.76 2.64,-0.97 4.15,-1.86 5.97,-3.09 5.43,3.18 7.78,2.21 10.61,8.57 1.75,3.93 3.53,8.65 3.68,13.67 -5.14,0.91 -2.63,1.35 -5.9,2.43 -1.46,-1.65 -3.43,-4.04 -4.79,-5.89 -3.04,-4.14 -2.19,-4.56 -5.98,-5.65 -2.79,1.81 -2.83,-1.08 -2.34,3.14z"/>
   <path class="fil2" d="M92.66 277.08l-5.38 46.51c0.72,3.42 2.12,12.69 3.35,14.79 0.22,-1.96 1.12,-4.08 1.49,-5.49l3.06 -18.1c2.71,2.65 0.38,-0.6 1.46,2.66 2.42,7.29 -0.78,-4.99 0.39,1.9 0.08,0.46 0.19,2.92 0.22,3.63 0.16,3.59 -0.55,3.92 -0.03,6.98l3.66 14.35 11.53 23.09c2.19,4.79 4.14,8.26 5.54,12.69l9.91 40.86 0.05 -26.79c8.98,10.94 7.34,32.81 17.5,42.46 4.63,-5.26 10.62,-27.72 9.27,-34.87 -0.7,-3.74 -2.54,-15.12 -3.42,-17.61 -0.47,-1.34 -0.93,-2.08 -1.54,-4.46l-3.16 -14.66c-5.93,-33.28 -7.94,-22.67 -21.1,-57.43 -1.37,-3.64 -2.63,-5.5 -3.89,-8.32 -0.19,0.22 -0.39,0.32 -0.45,0.74l-1.07 2.26c-0.06,0.18 -0.67,2.69 -0.77,3.06 -1.55,5.55 -4.5,9.09 -5.54,21.09 -0.75,8.65 -2.1,7.73 -1.9,15.81 0.13,5.6 0.37,12.85 -0.2,18.1 -7.67,-10.59 -4.95,-54.5 0.93,-67.87 2.43,-5.52 2.43,-5.91 -4.78,-16.16l-10.04 -14.82c-1.32,2.02 -2.22,5.55 -2.87,8.32 -1.23,5.22 1.14,3.26 -2.22,7.28z"/>
   <path class="fil0" d="M248.02 216.73l4.76 6.12c5.08,-2.72 -0.67,-1.98 5.19,-3.06 1.44,-0.27 5.39,-0.21 7.31,-0.38 5.19,-2.11 4.72,-3.28 8.75,-6.46l6.84 -7.66c7.79,-0.39 5.85,-0.09 12,-2.53 4.13,-1.64 5.34,0.55 10.79,-0.13 2.97,-0.37 6.33,-2.5 9.79,-2.08 3.19,0.39 5.43,2.94 7.96,4.52 3.26,2.04 6.5,2.13 9.29,3.63 5.36,2.87 0.08,3.38 8.43,4.91 7.86,1.44 14.41,-5.22 20.12,-0.82 -1.87,5.83 -1.45,4.77 -7.08,7.45 -4.92,2.34 -14.33,11.93 -25.69,1.78 -9.31,-8.34 -4.94,-0.1 -21.03,-3.84 -6.86,-1.6 -4.7,-3.5 -9.06,-7.77 -3.94,1.55 -6.51,1.54 -10.63,2.38 -5.84,1.19 -6.41,2.19 -8.21,5.42l14.61 -0.25 1.79 5.79c11.71,1.36 16.84,2.43 27.29,5.5 0.61,5.47 -0.3,9.76 4.45,11.54 4.86,-2.22 1.79,-4.24 3.98,-8.83 7.04,0.65 7.53,3.74 7.5,10.53 -2.85,1.15 -2.56,0.6 -5.64,2.21 -1.45,0.76 -0.74,0.8 -2.94,1.25 -2.24,0.46 -12.5,-0.59 -13.55,5.32 0.41,0.08 2.55,0.44 2.69,0.48 3.45,0.98 0.59,0.1 2.8,1.13 4.86,2.27 5.3,0.21 17.2,-2.1 4.22,-0.82 7.63,-2.42 12.16,-2.98 5.65,-0.69 8.14,0.89 13,-1.81l2.45 -12.93c5.48,-1.06 11.57,-5.74 14.25,-6.4 3.52,-0.88 1.77,0.93 5.71,-1.02 -1.2,-1.35 -5.19,-2.68 -7.43,-3.12 -3.05,-0.61 -6.02,0.68 -9.34,1.33 6.27,-13.31 6.39,-16.22 7.62,-33.29 5.23,-0.68 5.33,0.85 12.16,-1.66l2.34 -1.01c-0.87,-4.35 -1.95,-4.11 -7.12,-4.24 -3.58,-0.1 -7.79,0.01 -10.96,0.99 -7.87,8.33 -15.43,0.97 -25.16,0.7 -7.76,-0.21 -1.93,4.75 -10.61,0.62 -8.57,-4.07 -8.89,-1.3 -11.47,-0.77 -6.84,1.42 -12.85,1.27 -13.28,1.35 -3.88,0.72 -2.82,3.04 -11.2,3.79 -7.19,0.64 -6.8,3 -12.07,3.32 -8.53,0.51 -3.6,-2.74 -12.45,-2.92 2.18,3.47 1.28,0.8 2.08,4.03 0.73,2.9 -1.74,-1.05 0.47,2.91 5.95,1.6 5.87,-0.7 11.77,-0.53 -11.19,5.18 -4.29,4.46 -14.75,4.94 -10.34,0.47 -6.87,1.04 -13.96,-3.36 -2.57,0.96 -4.27,2.32 -6.92,3.02 -0.6,-9.12 0.87,-6.48 7.93,-5.76 12.67,1.3 6.41,4.95 12.08,1.87 0.47,-5 -0.52,-4.5 -5.95,-5.27 -3.63,-0.52 -5.68,-0.3 -8.19,-1.7 3.18,-5.43 2.12,-3.61 7.41,-5.58l3.33 -1.64c2.15,-1.12 3.9,-1.97 6.18,-2.81 3.55,-1.3 5.76,-0.4 5.48,-2.93 -9.11,-1.84 -22.7,2.34 -29.07,7.21 -3.45,2.64 -4.39,9.46 -5.82,14.23 -0.37,1.22 -0.41,14.37 -0.38,17.37z"/>
   <path class="fil5" d="M303.85 405.41l-2.07 -6.97c-4.69,2.45 -0.23,0.49 -3.65,2.9 -4.45,3.15 -9.29,1.56 -12.94,3.04 -0.08,0.27 -0.13,0.64 -0.13,0.84l0.08 2.37c1.68,6.44 7.68,5.73 5.47,17.9 -0.57,3.11 0.05,3.78 -1.44,6.73 -2.26,4.44 -9.48,7.78 -11.01,10.96 1.26,2.84 4.35,6.64 6.08,9.23 3.19,4.78 2.33,5.87 9.38,5.97 6.02,-3.66 5.59,-1.1 18.36,-4.14 12.92,-3.07 15.63,1.77 21.29,3.14 7.14,1.73 0.46,-2.26 8.57,2.22l2.93 1.06c0.18,0.05 0.55,0.13 0.83,0.12 2.28,-6.82 6.19,-15.55 14.05,-10.97 0.21,0.12 0.47,0.26 0.67,0.38 3.45,2.12 2.11,1.59 4.04,4.38 6.49,-6.53 9.16,-14.24 12.19,-23.64 0.98,-3.04 1.63,-7.29 -1.95,-8.51 1.16,2.62 -0.13,9.79 -2.1,12.7 -3.39,-3.78 -1.93,-9.79 -7.09,-17.03 -0.8,-1.12 -1.97,-2.13 -3.04,-2.97 -3.82,-3.01 -5.9,-5.58 -10.96,-6.92 -7.13,-1.9 -12.73,-5.36 -17.83,-6.12 -18.44,-2.74 -10.23,-6.38 -17.2,-5.54 -0.68,3.44 0.14,6.4 -1.65,9.07 -7.93,-5.45 4.41,-11.43 -4.28,-15.76 -4.8,13.91 -2.59,13.75 -0.12,17.63 1.94,3.04 2.54,4.09 0.42,6.77 -3.7,-1.41 -3.1,-2.81 -6.9,-8.84z"/>
   <path class="fil6" d="M240.77 87.15c-4.29,2.03 -0.84,0.38 -3.37,2.73 -3.04,-5.19 -7.84,-9.39 -10.82,-13.97 -2.34,-3.59 -7.47,-10.9 -10.45,-13.56 -1.84,3.26 0.69,4.28 -3.17,13.91l10.34 2.03 1.41 15.78 4.5 2.11c1.98,0.73 3.36,1.02 4.82,2.12 2.83,2.14 3.84,6.08 4.87,9.01 2.06,5.81 10.79,24.41 8.03,29.72 -0.12,0.22 -2.95,3.82 -3.09,3.98 -4.48,5.2 -4.29,6.76 -9.04,10.81l-3.45 6.06c0.44,4.23 -18.69,13.43 -19.67,15.72 22.09,3.01 30.12,-23.35 44.72,-29.21 3.57,-1.43 5.21,-3.32 7.66,-4.46 9.49,-4.42 -0.58,2.9 8.84,-0.45 1.22,-4.13 -3.5,-2.35 5.09,-6.38 3.55,-1.66 6.82,-3.24 9.94,-4.99 7.85,-4.37 11.6,-7.38 22.15,-7.63 4.05,-4.65 -2.71,-4.83 5.09,-4.81 -3.78,-4.97 -9.29,-22.07 -11.82,-30.08l-23.45 -39.14c-10.26,-16.11 -8.4,-16.63 -22.41,-30.3 -4.04,-3.93 -2.08,-3.46 -9.49,-3.52 2.71,9.78 2.34,5.1 9.49,15.24 3.71,5.26 6.1,9.89 9.15,14.84l18.05 29.77c4.66,8.39 9.3,27.7 5.37,38.24 -0.75,2.02 -3.43,4.69 -5.16,6.54 -6.72,7.23 -22.23,9.95 -25.94,8.6 -4.26,-1.55 -2.61,-0.64 -5.73,-9.15 -1.02,-2.78 -2.38,-7.19 -3.78,-10.11 -1.76,-3.68 -2.69,-5.44 -4.2,-9.76l-4.01 -9.06c-0.1,-0.15 -0.3,-0.43 -0.47,-0.63z"/>
   <path class="fil7" d="M280.48 143.77c4.59,-0.36 6.75,0.15 11.28,0.91l8.54 1.78c3.38,1.36 1.57,0.64 2.98,1.75 7.55,1.36 10.62,0.05 15.93,-1.31 4.53,-1.16 10.02,-2.8 13.15,-5.85 4.62,0.1 8.6,-0.48 10.92,2.24 6.64,-2.72 5.98,-0.42 13.02,-2.35 7.27,-2 19.07,5.2 24.63,7.88 4.45,2.15 7.15,3.94 8.97,8.22 -2.38,4.07 -2.29,1.2 -4.11,5.95 1.34,1.09 -0.07,0.49 2.57,1.38l8.68 -0.05c0.26,-0.08 0.99,-0.39 1.26,-0.49 1.33,-0.47 0.31,-0.42 3,-0.98 2.2,-0.46 4.3,-0.4 6.47,-0.09 5.09,8.15 1.37,11.95 2.63,16.72 1.36,5.17 3.47,3.08 4.43,6.75 0.53,2.04 -0.73,6.32 -0.65,10.04 14.11,-0.73 10.44,-1.06 14.02,-6.49 8.97,-13.6 13.79,-4.97 5.22,-22.93 -1.77,-3.71 -2.59,-8.92 -4.11,-12.1 -5.72,-2.47 -13.22,-2.01 -19.7,-3.95 -10.32,-3.1 -8.19,-5.06 -10.22,-14.91 -2.26,-11 -4.27,-9.08 -14.35,-10.13 -19.99,-2.08 -48.29,0.01 -66.15,6.25 -6.79,2.38 -11.69,4.59 -18.59,6.41 -4.98,1.31 -16.79,1.26 -19.82,5.35z"/>
   <path class="fil3" d="M477.63 334.24c-3.21,-1.51 -2.62,-2.02 -5.23,-4.24l-15.52 -11.33c-3.55,-2.46 -6.63,-4.33 -11.66,-6.21 -3.03,-1.13 -9.02,-3.9 -9.48,-6.88 -6.3,2.57 -13.94,16.08 -16.96,22.25 -4.09,8.34 1.84,5.61 -4.24,13.64 -3.25,4.28 -2.67,7.48 -7.2,12.63 -11.24,12.77 -3.45,12.49 -6.93,19.96 -1.24,2.68 -0.67,0.02 -1.51,3.33 -1.29,5.08 -3.77,17.13 -3.31,21.58 0.38,3.65 1.14,4.04 3.01,6.78l3.72 6.17c0.47,-7.7 -3.61,-2.65 3.32,-16.62 1.75,-3.5 5.28,-10.62 7.69,-14.35l6.27 -0.48c6.95,-11.17 9.28,-12.53 18.89,-20.03 5.25,-4.1 1.03,-2.97 6.29,-6.66l3.51 -2.38c2.26,-1.56 1.94,-1.23 4.41,-2.53 6.84,-3.59 13.1,-8.87 20.19,-11.71l4.74 -2.92z"/>
   <path class="fil8" d="M265.28 219.41l-1.19 2.65c-1.44,7.13 4.17,1.4 6.11,20.04 -4.1,0.22 -3.57,-0.5 -6.73,1.33 3.56,-0.25 7.54,-0.23 9.44,3.2 5.34,3.17 19.51,5.32 26.92,7 1.78,-3.23 0.74,-1.35 3.71,-1.07 1.03,0.1 1.75,0.9 3.38,0.94 3.75,0.09 1.82,-2.61 8.12,-2.23 1.05,-5.91 11.31,-4.86 13.55,-5.32 2.2,-0.45 1.49,-0.49 2.94,-1.25 3.08,-1.61 2.79,-1.06 5.64,-2.21 0.03,-6.79 -0.46,-9.88 -7.5,-10.53 -2.19,4.59 0.88,6.61 -3.98,8.83 -4.75,-1.78 -3.84,-6.07 -4.45,-11.54 -10.45,-3.07 -15.58,-4.14 -27.29,-5.5l-1.79 -5.79 -14.61 0.25c1.8,-3.23 2.37,-4.23 8.21,-5.42 4.12,-0.84 6.69,-0.83 10.63,-2.38 4.36,4.27 2.2,6.17 9.06,7.77 16.09,3.74 11.72,-4.5 21.03,3.84 11.36,10.15 20.77,0.56 25.69,-1.78 5.63,-2.68 5.21,-1.62 7.08,-7.45 -5.71,-4.4 -12.26,2.26 -20.12,0.82 -8.35,-1.53 -3.07,-2.04 -8.43,-4.91 -2.79,-1.5 -6.03,-1.59 -9.29,-3.63 -2.53,-1.58 -4.77,-4.13 -7.96,-4.52 -3.46,-0.42 -6.82,1.71 -9.79,2.08 -5.45,0.68 -6.66,-1.51 -10.79,0.13 -6.15,2.44 -4.21,2.14 -12,2.53l-6.84 7.66c-4.03,3.18 -3.56,4.35 -8.75,6.46z"/>
   <path class="fil9" d="M278.93 348.89c2.09,-1.84 1.06,-2.5 -0.16,-4.17 -1.08,-1.48 -1.49,2.63 -2.56,-4.46 -0.67,-4.47 0.13,-7.5 -1.21,-11.82 -0.87,-2.84 -3,-5.59 -2.29,-9.42l4.06 -9.86c0.44,-0.7 1.99,-2.93 2.38,-3.3l9.35 -10.85c0.24,-0.53 1.96,-7.81 1.98,-8.45 0.24,-7.59 -2.94,-4.33 -3.64,-10.02 -1.8,-1.22 -1.79,-2.61 -3.13,-4.77 -2.35,-3.81 -0.91,-1.97 -4.83,-4.19 -3.36,1.07 -1.43,-1.11 -2.49,3.37 -2.21,-3.33 -4.24,-3.42 -9.27,-4.37 1.2,4.69 4.29,11.26 1.3,15.38 -1.1,0.79 -4.15,0.48 -6.68,-1.22 -1.68,-1.12 -2.91,-2.23 -5.09,-3.91 -3.46,-2.66 -5.49,-6.27 -11.08,-7.83 -6.06,-1.69 -13.89,0.3 -23.76,-4.08 -3.36,-1.49 -2.91,-2.6 -6.68,-4.32l-5.31 5.42c-4.5,3.91 -3.32,4.1 2.14,6.77 9.84,4.82 0.12,9.32 18.42,6.82 4.84,-0.67 10.23,0.67 14.18,2.3 1.89,0.77 4.42,1.63 6.51,2.61 2.99,1.4 3.55,1.65 4.14,5.27 -19.79,1.99 -19.03,-0.79 -22.44,-0.45 -3.11,0.3 -1.72,0.09 -3.06,1.14 4.7,5.96 6.39,2.06 11.75,6.58 4.82,4.06 -0.86,8.13 5.13,12.77 5.29,4.09 1.97,0.2 6.21,8.6 2.28,4.5 3.85,3.43 7.32,7.76 3.68,4.61 2.5,5.34 3.76,11.95l9.96 0.17c-0.67,9.26 -12.29,4.01 -20.65,20.59 5.36,-1.76 9.26,-3.95 12.6,-6.83 2.54,-2.18 8.14,-5.27 12.09,-6.59 1.44,1.33 0.9,-1.33 1.05,3.41z"/>
   <path class="fil10" d="M146.67 324.34c-0.49,-4.22 -0.45,-1.33 2.34,-3.14 3.79,1.09 2.94,1.51 5.98,5.65 1.36,1.85 3.33,4.24 4.79,5.89 3.27,-1.08 0.76,-1.52 5.9,-2.43 -0.15,-5.02 -1.93,-9.74 -3.68,-13.67 -2.83,-6.36 -5.18,-5.39 -10.61,-8.57 -1.82,1.23 -3.33,2.12 -5.97,3.09 -1.07,-3.81 -1.81,-7.3 -3.98,-9.76 -2.61,-2.96 -5.12,-3.12 -5.64,-7.77 -0.82,-7.24 0.65,-1.6 -2.82,-9.81l-8.74 -20.13c-1.34,-3.71 -2.05,-7 -3.47,-10.52l-10.59 -18.47c3.39,-3.3 10.06,-5.01 14.98,-5.84 1.72,5.97 2.58,7.9 9.13,12.05 13.6,8.63 8.12,3.17 20.82,10.91l13.64 8.24c1.28,0.86 1.69,1.09 3.05,1.94l3.91 2.84c1.67,0.34 9.36,5.53 12.5,7.74l7.03 3.93c4.29,2.25 2.06,0.44 7.66,0.59 -2.05,-3.1 -3.95,-3.61 -6.87,-6.41 -2.82,-2.72 -4.94,-3.57 -7.84,-6.06 -1.62,-1.4 -5.59,-5.81 -7.09,-6.82 -3.55,-2.36 -4.92,-0.94 -14.5,-7.44l-8.71 -5.2c-14.14,-9.23 -22.24,-7.31 -20.22,-16 6.2,-1.42 6.24,-0.55 10.2,1.02 4.07,1.6 5.2,1.58 8.45,4.13l-0.25 -14.16c-14.27,-0.55 -19.13,-1.9 -32.28,1.98 -7.55,2.22 -14,2.07 -25.45,5.2l-2.5 0.72c-0.26,0.09 -0.62,0.25 -0.83,0.32 -0.21,0.08 -0.57,0.19 -0.82,0.34 4.48,9.25 -1.33,4.8 13.77,23.49 5.52,6.83 9.82,13.38 14.95,21.94l18.83 36.97c2.26,4.61 2.23,10.39 4.93,13.22z"/>
   <path class="fil7" d="M374.6 422.42c3.58,1.22 2.93,5.47 1.95,8.51 -3.03,9.4 -5.7,17.11 -12.19,23.64 -1.93,-2.79 -0.59,-2.26 -4.04,-4.38 -0.2,-0.12 -0.46,-0.26 -0.67,-0.38 -7.86,-4.58 -11.77,4.15 -14.05,10.97 -0.28,0.01 -0.65,-0.07 -0.83,-0.12l-2.93 -1.06c-8.11,-4.48 -1.43,-0.49 -8.57,-2.22 -5.66,-1.37 -8.37,-6.21 -21.29,-3.14 -12.77,3.04 -12.34,0.48 -18.36,4.14 0.71,1.95 2.15,5.35 3.18,7.57 4.17,0.57 12.17,0.12 17.11,0.58 6.31,0.6 10.17,2.23 15.82,2.89 6.48,0.76 10.19,0.05 14.18,4.02 4.25,4.24 7.24,4.2 15.57,2.95 6.89,-16.6 9.67,-7.3 16.14,-27.52 1.1,-3.41 1.85,-7.98 3.85,-11.22 5.72,5.5 -0.14,12.52 1.99,19.03 6.1,0.35 4.39,-0.28 7.51,-4.34 4.39,-5.71 1.56,-0.99 3.21,-8.32 3.65,-16.16 4.68,-7.17 -1.32,-22.68 -2.95,-7.63 0.65,-3.8 -7.5,-10.27 -5.67,-4.51 -3.63,-0.89 -9.08,-3.08 -3.68,-1.48 1.68,-0.77 -3.86,-1.79 -1.6,-0.29 -5.31,-0.13 -7.01,0 1.02,6.69 4.48,-0.24 11.19,16.22z"/>
   <path class="fil11" d="M141.69 112.29c3.74,3.5 9.36,4.42 13.62,7.04 9.43,5.8 8.35,0.45 9.7,12.08l8.28 -0.31c2.05,4.23 5.9,9.87 8.02,14.82 7.27,16.91 3.78,6.07 4.51,16.15 2.43,1.2 7.45,4.66 13.49,4.86 3.65,0.12 4.37,-0.69 7.01,-2.09 2.45,-1.3 3.8,-2.41 5.33,-3.84 -7.44,-13.92 -4.21,-5.07 -12.85,-8.54 1.15,-3.65 0.17,-0.67 2.19,-2.72 1.88,-1.9 0.84,1.01 1.91,-1.69 -3.78,-6.83 -13.1,-17.23 -18.22,-23.39 -7.74,-9.3 -17.26,-18.33 -24.06,-27.68 -2.06,-2.83 -3.12,-2.91 -5.39,-5.55 -5.73,-6.64 -5.46,-7.46 -12.43,-13.56l-1.06 -0.93c-0.16,-0.13 -0.4,-0.31 -0.55,-0.44 -7.85,-6.67 -8.83,-15.93 -18.43,-17.52 0.74,16.52 23.59,20.16 18.93,53.31z"/>
   <path class="fil12" d="M14.73 411.1c2.83,-6.27 6.09,-15.1 8.23,-21.09 1.88,-5.27 2.99,-3.92 4.17,-9.53 1.02,-4.88 2.57,-7.87 4.01,-11.26 2.63,-6.17 2.4,-17.77 2.98,-25.88 0.34,-4.74 1.24,-8.17 2.08,-12.55 0.9,-4.68 0.13,-9.19 0.93,-14.01 0.67,-4.03 1.78,-8.09 2.17,-11.61 0.75,-6.65 -1.25,-7.88 -0.96,-13.71 0.66,-13 12.53,-46.3 18.41,-57.87 0.56,-1.11 0.74,-1.7 1.23,-2.69 1.77,-3.55 1.8,-1.9 2.55,-4.94 -7.68,8.99 -20.62,24.99 -23.94,35.39l-6.28 23.59c-0.75,3.51 -1.66,3.13 -2.39,7.2 -3.52,19.74 -4.68,16.55 -5.83,42.21 -0.42,9.35 -6.86,38.02 -7.2,50.7 -0.14,5.08 -1.02,23.71 -0.16,26.05z"/>
   <path class="fil13" d="M296.94 172.64l-13.65 5.28c0.28,2.53 -1.93,1.63 -5.48,2.93 -2.28,0.84 -4.03,1.69 -6.18,2.81l-3.33 1.64c-5.29,1.97 -4.23,0.15 -7.41,5.58 2.51,1.4 4.56,1.18 8.19,1.7 5.43,0.77 6.42,0.27 5.95,5.27 -5.67,3.08 0.59,-0.57 -12.08,-1.87 -7.06,-0.72 -8.53,-3.36 -7.93,5.76 2.65,-0.7 4.35,-2.06 6.92,-3.02 7.09,4.4 3.62,3.83 13.96,3.36 10.46,-0.48 3.56,0.24 14.75,-4.94 -5.9,-0.17 -5.82,2.13 -11.77,0.53 -2.21,-3.96 0.26,-0.01 -0.47,-2.91 -0.8,-3.23 0.1,-0.56 -2.08,-4.03 8.85,0.18 3.92,3.43 12.45,2.92 5.27,-0.32 4.88,-2.68 12.07,-3.32 8.38,-0.75 7.32,-3.07 11.2,-3.79 0.43,-0.08 6.44,0.07 13.28,-1.35 2.58,-0.53 2.9,-3.3 11.47,0.77 8.68,4.13 2.85,-0.83 10.61,-0.62 9.73,0.27 17.29,7.63 25.16,-0.7 0.87,-7 1,-3.84 0.39,-10.7 -0.91,-0.71 -0.43,-0.51 -2.29,-1.39 -0.69,-0.32 -0.65,-0.1 -2.01,-0.75 -8,1.44 -3.5,-3.53 -13.04,-3.41 -2.73,0.04 -4.42,1.11 -7.99,1.06 -10.57,-0.12 -3.89,-1.04 -10.79,1.44l-3.41 0.19c-19.56,-2.31 -13.87,3.91 -18.7,5.71 -9.9,1.16 -10.64,-3.3 -17.79,-4.15z"/>
   <path class="fil3" d="M175.24 477.97l8.35 5.55c5.01,2.95 4.95,1.84 9.1,5.67l20.34 9.46c4.67,1.12 7.46,0.98 12.4,0.12 7.12,-1.23 11.5,4.38 18.3,-7.38 2.3,-3.96 4.82,-5.29 4.23,-11.04 -12.61,7.4 -21.41,18.33 -32.84,12.35 -4.09,-2.13 -7.89,-2.24 -9.17,-8.01 5.88,-4.15 5.91,-0.35 10.82,1.28 11.22,3.73 30.33,-6.89 32.73,-16.51 -4.08,-1.07 -9.79,1.64 -15.3,2.5 -19.02,2.98 -5.46,1.79 -21.51,-2.75 -2.68,-0.76 -4.66,-1.27 -7.71,-2.17 -6.71,-2 -7.94,-2.52 -6.83,-13.26 -5.06,0.89 -14.1,1.51 -18.14,-0.63 -1.2,-0.64 -4.5,-3.73 -5.16,-4.84 -2.78,-4.67 1.31,-3.4 -4.77,-5.39 -0.59,7.03 2.24,11.82 3.19,18.02 2.31,0.53 5.64,2.07 6.46,2.23l1.61 0.14c0.36,0.02 1.5,-0.03 1.88,-0.02 9.04,0.39 3.88,3.02 10.99,6.47 -5.53,0 -17.94,2.05 -18.97,8.21z"/>
   <path class="fil2" d="M260.49 104.34c2.44,-5.26 7.65,-7.05 10.9,-10.58 1.91,-2.06 1.78,-3.04 4.27,-5.71 2.37,-2.54 3.07,-2.24 5.03,-5.82 -0.36,-7.37 -10.1,-21.01 -14.92,-26.65 -3.71,-4.35 -2.82,-4.31 -5.82,-9.32 -7.99,-1.2 -18.94,-2.71 -26.03,0.92 -4.73,2.42 -5.26,0.66 -8.65,2.27 0.98,4.04 1.46,2.52 4.11,6.45l23.25 33.75c2.81,5.14 5.69,9.64 7.86,14.69z"/>
   <path class="fil14" d="M303.68 308.98l-2.89 0.97c0.77,1.41 -0.89,7.93 0.87,13.76l3.12 -0.25c5.35,-2.66 4.49,-7.75 8,-12 5.86,-7.09 10.61,1.46 11.16,-18 6.69,-4.42 7.87,-8 17.67,-8.55 4.92,-0.28 5.56,-0.98 9.72,-0.99 8.54,-0.01 1.12,3.2 9.22,1.95 3.99,-6.05 -0.9,-2.18 6.53,-6.45l-2.14 -5.88 6.56 -7.96c-6.84,-4.29 -1.34,0.65 -8,-5.47 -0.2,5.85 -2.49,6.16 -4.11,11.6l-1.35 -5.63c-11.17,-0.88 1.08,-4.03 -9.74,-2.66 -10.45,1.32 -22.97,1.18 -35.13,4.73 -0.13,3.16 1.91,8.7 1.74,11.42 0,0.06 -2.08,9.43 -2.55,11.61 -2.09,9.63 -1.06,15.12 -8.07,20.94l-0.61 -3.14z"/>
   <path class="fil5" d="M278.93 348.89c-1.81,1.49 -4.05,3.17 -5.74,4.63l0.21 9.08c4.45,-0.21 8.13,-4.43 13.57,-4.45l-0.32 5.03c2.48,-2.79 1.82,-4.41 4.76,-10.27l13.37 -29.45 -3.12 0.25c-1.76,-5.83 -0.1,-12.35 -0.87,-13.76 -2.39,-2.47 -2.88,-4.14 -3.02,-10.45 -0.52,-25.26 4.09,-8.03 -10.93,-22.96 0.7,5.69 3.88,2.43 3.64,10.02 -0.02,0.64 -1.74,7.92 -1.98,8.45l-9.35 10.85c-0.39,0.37 -1.94,2.6 -2.38,3.3l-4.06 9.86c-0.71,3.83 1.42,6.58 2.29,9.42 1.34,4.32 0.54,7.35 1.21,11.82 1.07,7.09 1.48,2.98 2.56,4.46 1.22,1.67 2.25,2.33 0.16,4.17z"/>
   <path class="fil12" d="M15.79 268.69c3.88,-2.54 20.39,-19.28 22.04,-22.21 5.81,-10.34 5.54,-9.42 12.64,-18.16l5.48 -7.41c8.17,-12.38 17.38,-18.83 26.7,-28.07l36.72 -34.06c5.46,-6.26 5.27,-0.06 11.19,-5.63 0.24,-0.23 1.02,-1.04 1.25,-1.27l1.35 -1.47c-4.75,0.78 -9.86,-0.07 -13.53,1.81 -3,1.54 -4.1,4.49 -7.82,7.05 -9.9,6.82 -27.17,15.59 -33.91,23.88 -0.83,1.02 -20.93,17.17 -23.33,20.42l-9.49 12.45c-1.48,2.1 -2,2.9 -3.18,4.83l-7.47 12.54c-0.14,0.26 -0.53,1.02 -0.67,1.28l-5.26 8.64c-4.26,7.01 -10.61,16.28 -12.71,25.38z"/>
   <path class="fil15" d="M364.53 101.85c4.27,-0.76 7.95,-2.13 11.84,-3 5.08,-1.14 9.19,-1.2 14.01,-1.51 0.45,-5.21 -1.71,-12.04 -2.72,-15.71 -1.32,-4.8 -0.54,-4 -3.38,-6.28 -1.07,-0.86 -4.5,-3.09 -5.81,-4.01 -38.95,-26.96 -26,-28.49 -42.45,-52 -5.33,-7.62 -3.52,-9.9 -9.34,-10.72 -1.6,2.71 -1.44,8 -0.68,10.99 1.18,4.65 5.52,8.74 8.48,12.97 2.12,3.03 4.41,5.94 6.69,9.28 1.46,2.13 1.6,2.64 3.16,4.74 9.22,12.4 14.88,41.16 20.2,55.25z"/>
   <path class="fil9" d="M278.16 443.18c1.53,-3.18 8.75,-6.52 11.01,-10.96 1.49,-2.95 0.87,-3.62 1.44,-6.73 2.21,-12.17 -3.79,-11.46 -5.47,-17.9l-0.08 -2.37c0,-0.2 0.05,-0.57 0.13,-0.84 3.65,-1.48 8.49,0.11 12.94,-3.04 3.42,-2.41 -1.04,-0.45 3.65,-2.9l2.07 6.97c-0.65,-6.16 1.31,-8.13 -5.29,-10.42 -4.06,-1.4 -3.92,-0.89 -7.87,-0.42 -4.31,0.51 -4.94,2.31 -4.85,-0.96 -4.42,3.14 1.03,2.08 -5.97,2.94 -2.24,-2.46 -4.18,-10.08 -4.44,-13.58 -0.27,-3.63 0.22,-9.78 1.19,-13.59l-9.07 4.43c1.43,5.31 2.25,4.45 1.62,11.64 -0.6,6.85 2.99,4.09 4.16,10.6l-16.78 14.56c-6.14,3.62 -15.87,5.21 -19.5,14.32 9.02,-1.36 10.85,-7.55 24.01,-13.81 11.31,-5.38 9.34,-8.37 13.57,-6.11l-10.62 9.96c2.61,1.11 -3.27,1.75 3.47,0.52 3.89,-0.71 2.32,-3.54 8.2,-5.59 -4.15,12.28 -11.96,6.18 -11.07,17 7.31,-0.52 8.75,-8.05 15.2,-10.09 -0.87,3.29 -2.23,5.73 -4.49,7.51 -3.31,2.62 -6.32,2.57 -6.14,6.59 0.14,2.98 2.8,2.97 6.62,9.08 2.47,3.95 -0.81,-1.02 0.83,1.31 1.39,1.98 0.12,0.54 1.53,1.88z"/>
   <path class="fil16" d="M166.45 208.81c3.74,2.57 6.04,3.52 10.25,1.44 0.05,-0.03 2.69,-1.99 3.4,-2.54 2.03,-1.59 1.57,-0.95 3.25,-2.89l-0.48 -4.34c-8.28,-3.88 -4.56,-4.97 -7.58,-9.13 -5.92,-0.32 -6.41,2.12 -11.18,2.55 -2.24,-2.05 -3.22,-3.41 -4.56,-6.01 5.82,-14.15 19.53,-7.31 30.66,-6.4 6.76,0.56 18.29,5.12 22.59,8.66 3.75,3.1 1.04,2.51 6.51,4.86 -0.36,-8.11 -9.02,-11.03 -15.06,-15.17 -9.44,-6.46 -31.09,-12.77 -43.04,-5.14 -3.92,2.5 -3.99,1.53 -9.29,5.76 -3.87,3.08 -9.74,5.68 -9.01,14.4 4.46,2.51 2.62,-0.98 12.17,6.27l11.37 7.68z"/>
   <path class="fil0" d="M303.68 308.98l0.61 3.14c7.01,-5.82 5.98,-11.31 8.07,-20.94 0.47,-2.18 2.55,-11.55 2.55,-11.61 0.17,-2.72 -1.87,-8.26 -1.74,-11.42 12.16,-3.55 24.68,-3.41 35.13,-4.73 10.82,-1.37 -1.43,1.78 9.74,2.66l1.35 5.63c1.62,-5.44 3.91,-5.75 4.11,-11.6 -12.61,-6.01 -38.28,2.03 -52.75,2.98 -8.83,-8.74 -4.05,-2.22 -10.92,-9.46 -7.41,-1.68 -21.58,-3.83 -26.92,-7 -4.46,-0.27 -9.51,-0.22 -12.93,1.01 1.8,4.93 8.68,3.25 19.97,7.79 6.45,2.6 13.66,4.39 18.63,9.37 7.59,7.62 6.67,11.55 5.04,20.25 -3.06,16.31 2.64,16.48 0.06,23.93z"/>
   <path class="fil1" d="M213.97 109.47c-2.92,7.11 -3.62,3.08 -20.58,8.4 0.88,2.13 3.23,4.57 4.58,6.28 7.08,0.27 22.68,-4.32 28.9,0.27 -4.62,4.8 -14.93,3.99 -23.25,6.13 3.16,2.46 2.37,-0.22 5.02,3.11 4.45,5.58 -1.77,-0.51 0.52,4.4 0.23,0 17.98,-2.25 11.12,4.98l-4.76 2.63c-0.2,0.1 -0.56,0.22 -0.81,0.39 9.76,16.9 21.21,-8.83 22.33,-9.88 -0.03,-0.39 -0.32,-2.51 -0.32,-2.58 -0.04,-1 -0.03,-0.95 0.12,-1.49l0.64 -2.98 0.48 -1c-1.26,-6.96 0.09,-6.56 -3.59,-12.25 -1.52,-2.33 -1.92,-2.72 -3.41,-4.6 -2.55,-3.21 -1.5,-3.39 -2.8,-5.11 -2.2,1.88 0.21,0.09 -1.38,2.72 -2.55,4.24 -4.2,2.63 -5.07,6.68 0.18,-2.36 0.23,-5.1 -1.3,-6.79 -0.88,-0.96 2.61,-1.76 -3.09,-1.32 -5.19,0.4 -1.75,0.12 -3.35,2.01z"/>
   <path class="fil8" d="M233.47 180.54c3.17,-1.98 4.77,-1.74 8.88,-2.52 3.78,-0.73 4.53,-2.41 7.64,1.32 4.03,-2.91 8.94,-4.76 12.62,-7.68 3.73,-2.95 1.7,-2.9 4.22,-5.67 3.18,-3.51 4.1,-1.4 8.49,-2.62 5.04,-1.39 2.03,-2.88 14.37,-6.32 2.9,-0.81 6.08,-1.49 8.48,-2.33 4.09,-1.42 1.34,0.54 3.14,-2.07 1.93,-2.79 -1.46,-0.82 1.97,-4.44 -1.41,-1.11 0.4,-0.39 -2.98,-1.75l-8.54 -1.78c-4.53,-0.76 -6.69,-1.27 -11.28,-0.91 -7.85,-0.27 -0.55,1.63 -13.11,1.59 -2.14,6.51 -1.46,4.78 -6.77,8.31 -4.09,2.72 -5.01,3.31 -5.96,9.88 -14.34,2.37 -5.33,3.28 -12.22,6.63 -2.55,1.24 -3.72,-0.44 -8.95,10.36z"/>
   <path class="fil17" d="M410.8 133.11c2.16,3.31 -1.05,0.56 4.21,2.48 0.22,0.08 0.51,0.17 0.72,0.23 2.53,0.74 4.93,-0.57 6.17,-2.07l4.04 -8.65c0.33,-3.79 -0.89,-1.57 -0.37,-5.63 0.41,-3.23 2.98,-6.41 4.41,-8.51 3.11,-4.55 7.97,-10.69 11.41,-13.53 5.61,-4.61 13.06,-6.77 14.75,-11.13 -7.16,-4.72 -31.38,10.34 -36.49,13.18 -9.74,5.41 -14.31,11.79 -10.39,22.77 2.2,6.15 1.66,3.48 1.54,10.86z"/>
   <path class="fil8" d="M166.45 208.81c0.36,5.77 1.35,10.67 1.95,16 0.85,7.51 -0.36,8.45 5.26,12.54l21.55 13.09c4.3,-1.63 3.9,-3.89 9.65,-4.22l0.98 -4.82c0.06,-0.16 0.19,-0.47 0.33,-0.68l12.94 -0.95c-0.66,-3.76 0.02,-1.7 -0.99,-3.97 -5.9,-0.96 -6.64,-2.38 -11.96,-0.22 -7.89,3.2 -9.97,8.92 -17.26,-0.53l-1.13 -6.51c-5.77,3.9 -8.26,0.87 -10.46,-3.86 -0.62,-1.34 -4.4,-10.71 -4.48,-12.21 6.84,-0.65 5.73,9.03 10.43,13.69 1.57,-0.47 5.87,-2.53 7.26,-3.41 -4.67,-5.4 -5.1,-8.59 -5.62,-15.41 -0.34,-4.42 -0.28,-4.73 -2.03,-6.86l0.48 4.34c-1.68,1.94 -1.22,1.3 -3.25,2.89 -0.71,0.55 -3.35,2.51 -3.4,2.54 -4.21,2.08 -6.51,1.13 -10.25,-1.44z"/>
   <path class="fil18" d="M296.06 374.88c8.88,-3.11 7.06,-1.2 14.81,-1.45 2.07,-0.06 8.86,-3.83 12.13,-5 8.1,-2.91 9.44,1.75 15.31,-0.2 2.49,-0.83 2.84,-2.24 6.41,-3l7.54 -1.05 -0.66 -10.96c-13.8,-4.94 -13.83,-4.56 -32.37,2.52 -7.97,3.05 -21.37,11.02 -23.17,19.14z"/>
   <path class="fil12" d="M31.99 188.68c5.62,-1.34 20.62,-11.73 27.37,-13.28 9.21,-2.1 32.94,-9.49 40.55,-14.1 2.13,-1.29 6.36,-3.49 8.4,-5.28 -2.02,-4.38 -3.5,-4.78 -5.54,-8.01 -3.52,0.72 -6.98,2.47 -10.07,4.04 -6.81,3.46 -35.04,11.78 -47.19,22.58 -9.51,8.46 -4.52,3.53 -13.52,14.05z"/>
   <path class="fil7" d="M362.41 307.25c0.23,0.13 0.61,-0.01 0.74,0.3l2.3 0.83c1.18,0.4 2.36,0.74 3.88,1.23 2.76,0.9 4.72,1.63 7.32,2.52 10.02,3.47 14.33,0.18 19.84,10.09l5.77 9.43c0.42,0.88 0.89,2.45 1.31,3.53 1.1,2.81 1.65,3.1 2.29,6.56l4.34 -4.34c-0.63,-1.73 -0.68,-2.57 -1.1,-4.03 -1.85,-6.28 -4.5,-6.59 -0.78,-11.04 4.21,-5.02 2.3,-0.04 2.23,-6.91 -0.05,-4.14 1.44,-5.58 0.97,-10 -2.65,-0.98 -4.72,-0.38 -7.24,-0.19 -10.92,0.85 -7.88,3.83 -12.4,0.88 -3.02,-1.98 -3.61,-2.71 -3.53,-6.62 -6.04,0.64 -3.39,0.89 -7.88,-1.21 -5.05,3.4 -3.56,4.68 -11.49,4.43l-3.72 -4.15 0.5 8.13 -3.35 0.56z"/>
   <path class="fil19" d="M353.11 349.85c0.09,3.35 3.14,1.94 4.44,6.56 1.28,4.53 -0.44,7.83 -2.31,10.95 5.99,-0.47 4.19,-0.08 7.87,-2.6 2.93,-2.01 4.01,-1.78 9.39,-1.71 5.14,6.54 2.63,15.03 3.59,19.1 1.35,5.68 -0.27,3.7 5.37,3.93 2.94,-3.59 0.67,-5.23 1.51,-11.94l3.07 -23.43c0.35,-9.25 3.06,-5.09 3.45,-11.43 -7.84,-3.25 -11.55,5.68 -15.95,8.98 -9.45,7.11 -12.09,-4.75 -20.43,1.59z"/>
   <path class="fil17" d="M212.96 76.26c3.86,-9.63 1.33,-10.65 3.17,-13.91 2.98,2.66 8.11,9.97 10.45,13.56 2.98,4.58 7.78,8.78 10.82,13.97 2.53,-2.35 -0.92,-0.7 3.37,-2.73 -3.7,-10.51 -36.65,-51.26 -46.06,-64.06 -4.15,-5.64 -1.92,-7.15 -9.95,-7.26 0.29,2.97 1.14,7.25 2.55,9.74 1.06,1.87 3.78,4.13 5.22,5.62 3.43,3.54 6.62,9 9.82,13.15 4.37,5.66 7.43,5.27 7.43,15.06 0,8.26 -6.85,16.2 3.18,16.86z"/>
   <path class="fil20" d="M113.63 215.45c3.58,-0.1 4.69,0.18 7.81,-0.72l3.61 -1.34c0.23,-0.09 0.48,-0.21 0.72,-0.31 7.33,-2.97 11.67,-1.11 19.98,-2 0.21,-5.09 -11.3,-6.8 -12.77,-8.68 -2.23,-6.94 2.35,-16.16 5.1,-22.97 2.34,-5.82 8.85,-5.01 13.59,-9.94l0.98 -1.07c2.61,-2.93 0.07,1.53 2.06,-2.44 -0.67,-4.54 -2.59,-5.77 -6.31,-7.06 -17.15,12.2 -29.08,46.73 -30.65,49.12 -1.94,2.95 -3.66,3.82 -4.12,7.41z"/>
   <path class="fil12" d="M76.69 479.6l1 0.65 1.78 -3.92c6.26,-17.18 5.6,-18.86 1.88,-32.23l-7.65 -38.11c-5.4,8.44 -4.73,25.36 -4.23,35.93 0.44,9.26 3.03,30.74 7.22,37.68z"/>
   <path class="fil21" d="M251.67 496.86c17.76,-5.33 11.24,-10.21 26.65,-4.42l5.25 -30.48c-9.47,-2.09 -4.82,-3.2 -9.63,-5.15 -4.39,3.02 -0.96,-0.32 -3.58,3.44 -2.39,3.43 -1.41,1.81 -3.64,4.33 -2.93,3.3 -2.58,6.37 -5.14,10.88l-9.91 21.4z"/>
   <path class="fil22" d="M308.56 74.99l6.43 5.1c5.85,4.36 18,4.25 22.45,-5.87 0.21,-2.31 -1.17,-5.17 -3.08,-6.6 -5.19,-3.91 -4.89,3.05 -8.39,-5.51 -0.63,-1.55 -0.95,-2.74 -1.44,-4.16 -5.13,0.84 -3.02,2.57 -8.8,0.46 -0.98,-2.55 -0.4,-0.07 -0.68,-4.24 -9.6,2.25 -2.73,0.62 -11.27,-1.32 0.34,5.19 -0.26,5.51 5.32,6.56 -2.82,3.67 -3.18,0.63 -1.61,7.89 0.57,2.62 2.25,5.84 1.07,7.69z"/>
   <path class="fil23" d="M394.37 74.62c6.58,-0.92 16.03,-6.82 11.18,4.98l-2.42 9.86c-0.33,2.37 -0.46,5.18 1.24,6.92 1.65,-1.29 0.44,0.13 1.49,-1.71l2.71 -9.21c1.49,-5.89 2.42,-6.97 4.76,-12.11 -3.89,-8.38 -16.08,-11.53 -21.94,-22.87l-11.27 -21.52c-2.69,-4.73 -1.28,-5.33 -5.63,-7.05 -1.13,2.52 -0.98,3.01 0.14,7.24 2.26,8.5 2.98,6.83 5.71,12.34 1.44,2.9 1.13,3.86 2.96,7.1 4.86,8.62 8.16,16.78 11.07,26.03z"/>
   <path class="fil17" d="M102.76 133.75c2.06,12.34 0.9,4.24 5.04,11.25l3.33 -4.45c7.14,3.65 6.39,-3.01 18.77,1.35 4.51,1.58 13.75,5.33 18.57,5.41 -3.04,-2.68 -22.57,-12.07 -28.05,-13.96 -6.92,-2.39 -5.72,-0.69 -7.65,-7.01 -18.68,0.05 -28.23,-12.35 -39.74,-10.73 8.75,8.18 7.65,3.5 11.61,8.44 8.81,11.02 15.4,9.1 18.12,9.7z"/>
   <path class="fil0" d="M296.94 172.64c7.15,0.85 7.89,5.31 17.79,4.15 4.83,-1.8 -0.86,-8.02 18.7,-5.71l3.41 -0.19c6.9,-2.48 0.22,-1.56 10.79,-1.44 3.57,0.05 5.26,-1.02 7.99,-1.06 9.54,-0.12 5.04,4.85 13.04,3.41l5.7 -0.13c-5.51,-10.44 -7.7,-10.5 -18.79,-13.87l-1.53 4.5c-4.41,0.09 -6.36,-0.81 -9.52,-0.8 -10.03,0.01 0.2,1.82 -7.92,2.6 -2.81,0.27 -5.08,-1.26 -7.71,-0.79 -4.86,0.85 0.95,1.62 -7.19,2.55 -7.25,0.83 -3.94,0.38 -6.7,2.55 -1.67,1.32 -14.26,2.82 -16.18,2.71 -3.6,-0.22 -4.43,-0.99 -8.48,-0.7 3.44,0.71 2.9,1.54 6.6,2.22z"/>
   <path class="fil4" d="M175.24 477.97c1.03,-6.16 13.44,-8.21 18.97,-8.21 -7.11,-3.45 -1.95,-6.08 -10.99,-6.47 -0.38,-0.01 -1.52,0.04 -1.88,0.02l-1.61 -0.14c-0.82,-0.16 -4.15,-1.7 -6.46,-2.23 -0.95,-6.2 -3.78,-10.99 -3.19,-18.02l-5 -7.64c-1.95,2.69 -2.11,5.64 -4.42,8.87 -7.49,10.47 -5.8,7.72 4.35,22.9l10.23 10.92z"/>
   <path class="fil22" d="M260.49 104.34l4.55 13.49c10.98,-2.58 12.55,-3.47 16.9,-12.58 2.83,-5.94 4.04,-18.71 -1.25,-23.02 -1.96,3.58 -2.66,3.28 -5.03,5.82 -2.49,2.67 -2.36,3.65 -4.27,5.71 -3.25,3.53 -8.46,5.32 -10.9,10.58z"/>
   <path class="fil2" d="M308.56 74.99c1.18,-1.85 -0.5,-5.07 -1.07,-7.69 -1.57,-7.26 -1.21,-4.22 1.61,-7.89 -5.58,-1.05 -4.98,-1.37 -5.32,-6.56 8.54,1.94 1.67,3.57 11.27,1.32l4.3 -4.35c3.79,0.26 3.32,0.92 5.78,1.23 8.24,1.05 3.95,-0.85 5,-2.59 -6.04,-1.19 -16.04,-3.36 -21.32,-6.06 -0.9,-0.45 -21.89,-6.36 -22.38,-2.03 -0.29,2.57 4.65,6.16 5.97,7.5 2.65,2.68 13.16,23.08 16.16,27.12z"/>
   <path class="fil16" d="M203.35 108.28c0.22,-3.42 -2.3,-7.19 -2.61,-12.59 6.47,-3.2 3.09,-0.97 6.45,-7.33 4.92,-0.05 2.57,0.36 5.59,1.31 7.07,2.25 2.69,-0.24 5.01,1.5 -0.78,-3.03 -3.49,-1.49 -3.94,-2.75 -0.13,-0.34 -0.55,-0.18 -0.77,-0.36 -4.34,-2.76 -8.28,-3.71 -12.57,-6.94 0.44,-6.13 3.06,-4.75 1.45,-13.49 -9.22,4.93 -9.06,15.39 -12.63,28.73 -1.52,5.71 -3.37,7.72 1.2,11.6 1.13,0.95 0.79,0.12 6.49,-0.12 3.72,-0.15 2.78,0.13 6.33,0.44z"/>
   <path class="fil10" d="M435.74 305.58c0.46,2.98 6.45,5.75 9.48,6.88 5.03,1.88 8.11,3.75 11.66,6.21l15.52 11.33c2.61,2.22 2.02,2.73 5.23,4.24l5.16 -1.51c-2.86,-6.88 -17.97,-18.27 -25.85,-24.08 -0.17,-0.13 -0.41,-0.3 -0.58,-0.42 -12.59,-9.31 -12.44,-8.16 -20.62,-2.65z"/>
   <path class="fil9" d="M263.47 243.43c3.16,-1.83 2.63,-1.11 6.73,-1.33 -1.94,-18.64 -7.55,-12.91 -6.11,-20.04l1.19 -2.65c-1.92,0.17 -5.87,0.11 -7.31,0.38 -5.86,1.08 -0.11,0.34 -5.19,3.06l-4.76 -6.12c0.55,3.37 -0.17,0.97 1.11,2.94 0.11,0.18 0.31,0.42 0.43,0.59l1.57 1.49c-5.17,7.71 -2.98,-1.1 -2.01,10.88 0.18,2.18 -0.65,1.08 0.4,4.36 2.37,7.41 7.48,5.47 13.95,6.44z"/>
   <path class="fil8" d="M270.76 71.18c-0.52,4.07 0.05,2.07 -2.5,4.52 -3.69,3.56 -8.39,6.25 -13,2.4 -7.43,-6.22 -3.22,-16.12 5.74,-11.48l-6.03 -15.19c-5.46,4.11 -5.14,2.33 -10.62,3.41 -0.01,5.34 1.49,3.87 2.3,7.13 0.93,3.72 0.88,1.17 -1.19,3.69 -1.2,1.47 -0.99,-0.09 -2.43,2.71 1.23,3.11 0.49,1.49 1.6,3.26 0.17,0.27 0.71,1.03 0.9,1.28l12.63 13.26c5.28,1.54 6.29,0.72 11.75,-0.28 1.47,-2.92 3.49,-6.92 2.91,-10.52 -1.14,-7.12 0.23,-1.95 -2.06,-4.19z"/>
   <path class="fil24" d="M203.35 108.28l9.07 -1.21 1.55 2.4c1.6,-1.89 -1.84,-1.61 3.35,-2.01 5.7,-0.44 2.21,0.36 3.09,1.32 1.53,1.69 1.48,4.43 1.3,6.79 0.87,-4.05 2.52,-2.44 5.07,-6.68 1.59,-2.63 -0.82,-0.84 1.38,-2.72 -2.45,-3.92 -3.98,-4.16 -9.32,-4.51l0.09 -13.15 -5.85 -0.45c0.22,0.18 0.64,0.02 0.77,0.36 0.45,1.26 3.16,-0.28 3.94,2.75 -2.32,-1.74 2.06,0.75 -5.01,-1.5 -3.02,-0.95 -0.67,-1.36 -5.59,-1.31 -3.36,6.36 0.02,4.13 -6.45,7.33 0.31,5.4 2.83,9.17 2.61,12.59z"/>
   <path class="fil22" d="M285.94 500.43c11.92,0.64 14.26,-5.4 19.33,-13.21 1.34,-2.05 4.23,-3.87 5.01,-6.18 -2.03,-3.83 -3.63,-3.34 -9.24,-1.94 -2.79,0.7 -2.64,1.18 -6.03,0.54 -1.92,-0.37 -1.07,-0.25 -2.41,-0.83 -0.33,-0.14 -1.32,-0.68 -1.61,-0.83l-1.68 -0.93c-1.12,6.75 -4.52,16.17 -3.37,23.38z"/>
   <path class="fil25" d="M315.05 54.17c0.28,4.17 -0.3,1.69 0.68,4.24 5.78,2.11 3.67,0.38 8.8,-0.46 0.49,1.42 0.81,2.61 1.44,4.16 3.5,8.56 3.2,1.6 8.39,5.51 1.91,1.43 3.29,4.29 3.08,6.6 3.8,-2.86 6.99,-9.08 7.61,-14.42 -2.19,-1.12 -5.42,-3.48 -7.84,-4.98 -5.38,-3.34 -3.31,-1.04 -7.08,-6.36 -1.05,1.74 3.24,3.64 -5,2.59 -2.46,-0.31 -1.99,-0.97 -5.78,-1.23l-4.3 4.35z"/>
   <path class="fil2" d="M359.97 394.54c0.12,-0.26 0.25,-0.98 0.28,-0.84l0.38 -3.46c-0.06,-0.95 -0.7,-3.72 -0.97,-5.31 -0.78,-4.75 0.06,-5.56 -5.09,-5.65l-2.15 5.69c4.3,1.94 3.16,-0.33 5.35,3.11 -4.48,3.18 -2.86,-1.74 -10.14,3.96 0.02,-9.26 3.55,-11.16 1.31,-21.22l-5.29 -0.8c-4.02,4.35 -6.18,16.51 -3.49,21.46 1.89,3.47 5.37,2.35 9.48,3.57 3.42,1.01 6.12,2.64 10.33,-0.51z"/>
   <path class="fil2" d="M330.59 345.07c1.76,-6.81 3.14,-1.75 5.7,-13.1 0.83,-3.67 2.67,-12.05 2.58,-14.8 -5.4,-1.06 -2.9,0 -4.3,1.04 -4.66,3.47 -18.48,6.86 -12.07,19.3 1.93,3.75 3.53,6.05 8.09,7.56z"/>
   <path class="fil20" d="M357.16 332.33c-2.58,-1.51 -2.42,-0.61 -5.77,0.38 1.59,-9.38 0.3,-2.83 -1.46,-9.83l-3.37 -0.04 -2.87 2.53c-0.91,1.19 -2.01,3.13 -2.72,4.31 -1.87,3.11 -3,5.14 -3.17,9.61 4.16,2.57 7.12,4.63 13.78,4.64 2.83,-3.33 5.53,-7.51 5.58,-11.6z"/>
   <path class="fil10" d="M190.08 342.11c-1.82,-2.75 -3.14,-5.23 -2.84,-9.65 -0.1,-4.36 -0.96,-3.08 -5.26,-3.48 -2.86,-0.26 -5.94,-0.59 -8.68,-0.58 -3.96,9.32 0.47,10.2 4.02,13.85 4.69,4.81 10.2,9.89 12.76,-0.14z"/>
   <path class="fil10" d="M189.99 366.45c5.35,1.04 6.86,3.99 13.19,4.44 2.15,-2.88 3.73,-4.68 3.56,-7.82 -3.21,-1.19 -5.75,-0.26 -10.21,-5.14 -4.26,-4.67 -1.5,-4.3 -9.36,-5.59 -3.12,6.44 -3.38,10.37 2.82,14.11z"/>
   <path class="fil5" d="M336.93 244.07c5.31,-0.48 5.17,-1.55 10.28,-1.93 5.46,-0.42 4.4,-0.19 9.35,-1.54 1.71,-3.62 1.63,-7.94 3.71,-11.32 1.69,-2.75 5.51,-5.37 2.74,-9.89 -1.32,2.32 -3,1.78 -5.45,5.29 -4.27,6.13 -1.28,2.39 -6.99,5.97 -3.08,1.94 -2.64,3.56 -6.57,6.45 -1.19,0.88 -1.97,1.17 -3.55,2.41 -3.46,2.72 -2.08,1.03 -3.52,4.56z"/>
   <path class="fil26" d="M321.93 197.85c1.36,2.88 -0.31,0.46 6.89,3.84 7.57,3.55 5.58,6.69 15.39,1.78 2.77,-1.38 4.92,-3.07 4.03,-7.61 -5.13,-1.4 -9.32,-1.08 -14.46,-1.47 -3.77,-0.29 -2.78,-0.92 -6.2,0.39l-2.79 1.35c-2.3,1.17 -0.51,-0.6 -2.86,1.72z"/>
   <path class="fil23" d="M334.19 109.7c6.38,0.13 7,-0.19 6.13,-5.36 -1.11,-6.66 0.71,-8.58 -0.55,-15.48l-9.2 -1.09c-2.85,5.1 -3.49,5.25 -0.6,11.2l4.22 10.73z"/>
   <path class="fil0" d="M270.76 71.18c-1.43,-0.79 -2.54,-1.7 -4.24,-2.4 -2.76,-1.14 -2.81,-0.53 -5.52,-2.16 -8.96,-4.64 -13.17,5.26 -5.74,11.48 4.61,3.85 9.31,1.16 13,-2.4 2.55,-2.45 1.98,-0.45 2.5,-4.52z"/>
   <path class="fil27" d="M346.56 322.84l3.37 0.04c1.76,7 3.05,0.45 1.46,9.83 3.35,-0.99 3.19,-1.89 5.77,-0.38l1 -1.2c3.53,-5.29 4.66,-9.92 3.39,-15.55 -4.55,-0.77 -3.45,-0.48 -6.86,0.8 -0.64,0.24 -1.25,0.46 -2.27,0.82 -5.29,1.88 -2.74,0.55 -5.86,5.64z"/>
   <path class="fil20" d="M317.4 374.8c1.46,8.07 2.25,5.36 6.75,9.86 4.83,4.83 0.43,7.4 7.47,8.64l-1.83 -20.57c-4.73,-0.34 -9.06,0.48 -12.39,2.07z"/>
   <path class="fil26" d="M449.33 226.73c-0.02,-0.85 0.16,-2.87 -2.38,-5.66 -4.58,-5.03 -13.44,-4.63 -21.08,-5.44 0.36,4.14 0.28,5.53 5.85,7.66 1.55,0.6 2.45,0.71 3.86,0.97 8.04,1.44 9.31,5.02 13.75,2.47z"/>
   <path class="fil1" d="M361.53 342.27c2.08,2.32 1.86,2.34 5.99,2.9 4.43,-4.04 15.35,-15 5.97,-19.49 -3.72,5.12 -10.82,12.99 -11.96,16.59z"/>
   <path class="fil9" d="M253.01 206.81c-0.83,5.58 -0.34,9.96 5.91,9.32 3.22,-0.33 2.23,-1.21 4.91,-1.44 3.43,-0.31 1.56,2.14 5.56,-1.9l-5.94 -1.73c2.14,-6.15 0.96,-1.23 3.93,-5.54 -4.46,-0.21 -6.37,-3.96 -14.37,1.29z"/>
   <path class="fil0" d="M301.38 430.91c1.52,0.81 -1.03,0.09 2.45,0.98 3.04,0.78 5.75,0.38 8.43,2.01 -2.28,4.79 -1.62,0.89 -6.05,2.98 0.83,4.18 -0.02,2.58 2.55,4.9 4.03,-0.46 3.9,-1.43 6.1,-3.77 1.29,-1.37 4.62,-4.32 2.68,-7.78 -1.15,-2.07 -5.87,-2.01 -7.97,-2.34 -7.75,-1.22 -7.16,0.34 -8.19,3.02z"/>
  </g>
 </g>
</svg>
