<?xml version="1.0" encoding="UTF-8"?>
<!DOCTYPE svg PUBLIC "-//W3C//DTD SVG 1.1//EN" "http://www.w3.org/Graphics/SVG/1.1/DTD/svg11.dtd">
<!-- Creator: CorelDRAW 2020 (64-Bit) -->
<svg xmlns="http://www.w3.org/2000/svg" xml:space="preserve" width="160.192mm" height="144.266mm" version="1.1" style="shape-rendering:geometricPrecision; text-rendering:geometricPrecision; image-rendering:optimizeQuality; fill-rule:evenodd; clip-rule:evenodd"
viewBox="0 0 16019.16 14426.6"
 xmlns:xlink="http://www.w3.org/1999/xlink"
 xmlns:xodm="http://www.corel.com/coreldraw/odm/2003">
 <defs>
  <style type="text/css">
   <![CDATA[
    .fil0 {fill:#010101}
    .fil1 {fill:#050201}
    .fil30 {fill:#050505}
    .fil38 {fill:#090501}
    .fil18 {fill:#9B866A}
    .fil34 {fill:#9C8A6C}
    .fil36 {fill:#9C8B73}
    .fil8 {fill:#A28965}
    .fil33 {fill:#A28C72}
    .fil12 {fill:#A38B6B}
    .fil17 {fill:#A99469}
    .fil13 {fill:#B39A71}
    .fil19 {fill:#B8A777}
    .fil22 {fill:#C3AE78}
    .fil21 {fill:#C6BA97}
    .fil26 {fill:#C8B988}
    .fil11 {fill:#CB8C89}
    .fil15 {fill:#CDBC82}
    .fil14 {fill:#D0BD83}
    .fil2 {fill:#D2BD8A}
    .fil31 {fill:#D3C593}
    .fil5 {fill:#D4C58C}
    .fil9 {fill:#D68C88}
    .fil23 {fill:#D6928B}
    .fil4 {fill:#D6C68A}
    .fil20 {fill:#DACA93}
    .fil29 {fill:#DBD2A8}
    .fil32 {fill:#DBD4B7}
    .fil35 {fill:#E8E6E2}
    .fil28 {fill:#EDE7C8}
    .fil37 {fill:#EDEBE5}
    .fil24 {fill:#F0E269}
    .fil27 {fill:#F1EDE6}
    .fil16 {fill:#F1EDE9}
    .fil7 {fill:#F3EBCC}
    .fil6 {fill:#F3EFE7}
    .fil25 {fill:#F4E9C7}
    .fil10 {fill:#F4EDDB}
    .fil3 {fill:#F4EEE4}
   ]]>
  </style>
 </defs>
 <g id="Layer_x0020_1">
  <metadata id="CorelCorpID_0Corel-Layer"/>
  <g id="_1842381834560">
   <path class="fil0" d="M4953.9 11277.06c116.48,-189.52 291.92,-241.36 467.72,-384.04l55.44 113.76c15.96,56.08 18.96,97.2 25.72,153l-548.88 117.28zm-1653.64 351.92c-232.32,16.68 -282,-154.4 -312.32,-368.92 -29.64,-209.8 1.28,-420.68 48,-623.12 46.2,-200.28 83.44,-330.04 177.08,-502.84 72.68,-134.2 50.6,-106.56 157.56,-188.64 151.72,-116.44 46.76,-89.52 127.28,-204.2l171.08 0.92c38.52,292.04 -189.52,649.6 -261.48,921.12 -217.92,822.12 -80.6,687.12 -107.2,965.68zm-2502.68 -3829.56c5.48,-332.68 -27.72,-285.6 135.12,-526.12 301.28,-445.12 465.6,-63.84 489,-31.68 95,130.48 304.12,342.44 429.8,413.56 -56.92,307.44 -513.56,556.68 -1053.92,144.24zm3831.36 240.08c-48.84,-271.44 4.12,-501.32 -62.2,-782.88 246,-5.12 122.8,51.6 308.08,-41.6 -6.6,68.56 -2.88,31.76 -23.6,81.68 -0.88,2.08 -39.68,87.32 -41.96,91.8 -157.48,313.2 -79.68,325.84 -180.32,651zm-2867.48 -550.64c-33.08,-90.16 -82.56,-224.24 -87.2,-359.44 -5.04,-146.48 22.6,-251.76 -74,-368.48 -123.36,-149.08 -299.48,-301.56 -338.12,-517.24 219.32,15.36 14.04,27.88 320.76,191.32 392.6,209.2 188.44,271.44 242.04,572 21.12,118.4 3.04,387.56 -63.48,481.84zm10031.92 -867.36c33.2,-125.32 -10.56,-49.52 82.52,-121.72 52.28,-40.6 129.64,-53.92 255.48,-183.4 143.36,-147.56 38.16,-8.08 258.4,-218.12 75.24,-71.76 24.72,-27.8 95.2,-68 -38.48,443.48 -27.96,176.48 -270.56,400.68 -127.64,117.96 -146.72,264.12 -372.88,246.36l-48.16 -55.8zm-776.96 -310.56c22.12,128.4 59.52,214.2 135.28,300.68 264.92,12.88 265.52,-73 270.16,43.92 3.16,79.92 -53.24,51.04 -145.6,97.96 -73.28,37.2 -59.6,51.36 -124.56,108.8 -116.8,-60.28 -248.08,-129.8 -387.16,-158.84 -37.96,-98.96 -49.28,-161.32 -79.44,-250.96 -90.8,-105.24 -255.28,-235.64 -265.88,-398 191.28,-43.4 337.56,25.76 525.32,77.84 21.32,97.44 31.28,95.8 71.88,178.6zm7.44 -210.2c185.04,-156.52 267.24,-91.68 370.36,-319.48 143,101.84 240.68,398.6 259.96,530.76 -188.12,59.4 -341.44,86.28 -477.52,197.28l-152.8 -408.56zm-3568.6 -132.16c-44.32,30.4 0,6.68 -68.92,32.68 -160.72,60.6 -182.88,-2.88 -266.96,146.28 306.72,166.28 535.12,-198.76 988.08,103.92 137.12,21.32 103.96,61.96 228.16,-5.48 102.28,-55.56 3.2,-38.8 209.52,-98.84 300.76,-87.52 1053.48,-420.44 1219.6,60.8l81.4 129.32c71.76,130.2 107.56,160.96 155.84,318.44 9.04,-84.92 132.64,-184.24 -109.28,-338.84 120,-0.36 54.12,-13.76 107.28,71.08l168.32 197.36c4,5.24 8.88,13.8 12.88,19.32 5.8,8.04 20.32,34.6 26.76,42.96 42.12,54.88 44.2,121.2 155.44,84.08 1.32,-0.44 7.52,-4.52 9.4,-8.24 -174.6,24.56 -74.48,0.36 -121.96,51.68l9.44 388.44c32.56,35.08 57.4,25.84 96.24,37.64 107.84,32.8 -23.4,63.84 50.32,-3.8 0,-209.64 -14.36,-17.56 75.08,-85.76l60.2 -57.16c274.16,362.48 417,287.12 634.84,278.56 116.8,73.28 87.68,61.4 209.68,35.84 -100.48,118.56 79.88,46.8 -147.2,99.64l14.04 203.04c-170.4,49.72 -94.92,50.64 -135.44,117.44l77.36 112.6c57,53.84 -21.92,40.16 91.96,40.88 -211.84,1.32 -121.24,7.88 -129.52,237.08l109.4 15.4c8.96,-0.08 18.96,-0.04 28.12,-0.76 9.08,-0.68 18.76,-2 27.68,-3.32 8.68,-1.32 18.24,-4.04 26.56,-5.84 9.88,-2.16 110.4,-106.08 289.28,50.72 55.4,48.6 52.28,68.56 64.8,166.96 -17.72,-129 -41.68,-96.16 -167.36,-95.64l71.8 85.56c46.6,233.08 5.08,56.56 -52.08,125.4l177.84 1114.4c38.4,139.96 -22.64,146.76 77.68,560.52 32.96,135.96 77.2,325.84 114.52,492.88 78.8,79.64 93.08,-119.96 53.84,135.6 -14.92,97.08 -98.08,55.44 -100.08,55.72 -273.72,40.48 -35.44,-32.8 -111.88,22.6 -12.64,9.16 -50.68,72.2 -61.84,88.52 -39.96,168.8 16.28,127.92 -80.28,233.4 -112.52,-238 -184.6,-714.24 -409.16,-874.84 -63.88,-20.6 -178.56,-52.4 -230.28,-108.92 -76.76,-83.88 -24.88,-111.44 -139.32,-229.76 85.16,97.32 80.96,48.84 -135.44,101.6 13.4,-55.12 65.16,-55.88 -61.84,-287.56 -246.52,-449.76 33.36,248.12 -243.8,-573.16 -28,-82.96 -24.36,-70.04 -38.52,-182.8l-56.64 29.88c-6.44,-118.96 -42.92,-72.56 -87.88,-220.2 -28.96,-95.04 -0.16,-96.96 -65.12,-199.72l-115.68 18.8c-111.16,89.88 28.16,-130.28 -41.88,60.44l-157.28 -87.88c-16.72,162.76 -113.52,133.6 -113.68,133.64 -173.24,-245.2 -134.28,22.72 -173.44,-348.56 -8.32,8.92 -15.28,12.36 -17.8,31.92l-36.24 245.68 53.76 363.88 170.92 177.28c97.64,141.36 62.64,261.8 65.2,274.8l11.44 44.76c67.88,161.72 120.92,86.4 197.28,180.16l39.48 -27.8c2.4,-13.68 -12.12,85.92 -44.12,140.44 -49.44,84.32 -13.4,36.92 -126.88,62.96 79.8,212.68 201.68,232.88 200.24,434.16l135.64 71.64c84.48,32.28 -53.36,-83.72 126.04,79.68l-108.16 17.6 22.64 101.96c-34.48,72.64 3.84,-2.8 -36.44,73.72 -24.68,46.8 -18.6,29.76 -42.68,76.88l190.92 74.16c12.68,119.64 25.68,122.36 10.36,314.08 -178.44,70.4 -147.56,62.68 -364.68,72.84 -237.4,11.08 -144.16,82.56 -343.84,130.88 -324.24,78.4 -549.84,-98.92 -813.08,-131.96l-15.72 108.28c94.16,130.16 86.56,91.36 27.44,154.36l-81.36 102.6 143.56 76.12c177.72,78.36 782.12,255.24 907.2,544.92 62.76,145.4 167.92,967.56 -248.44,1057.08 -116.16,25 -336.96,26.64 -461.48,24.84 -227.52,-3.36 -261.16,-30.36 -295.12,-240.2 -45.6,-57 -60.12,-109.4 -112.44,-164.16 -89.32,-93.52 -80.8,-11.96 -395.04,-283.16 -188.96,-163.08 -886.68,-336.6 -1012.44,-147.28 -84.44,127.08 3.76,132.8 -11.12,185.52 -129.72,62.2 -271.84,76.36 -345.84,198.4 -47.88,111.32 -48.36,235.04 108.8,266.92 82.84,-97.28 37.92,-165.16 104.72,-223.76 86.68,-76.04 136.4,8.04 227.56,5.84 185.08,-4.52 231.52,-115.52 524.8,-40.88 119.84,50.04 481.6,288.32 313.72,523.76l-1026.4 -142.88c-437.04,-41.08 -498.48,-162.56 -650,-212.32 -105.96,-34.8 -244.08,-12.04 -329.4,47.64 -194.72,136.32 15.84,78.16 -286.68,108l-228.72 118.44c-375.44,91.04 -371.88,-84.2 -539.12,-59.24 -238.16,35.56 1.24,69.36 -183.08,155.4 -179.32,-169.68 -122.28,-491.6 -264.2,-623.08 -109.76,75.8 -187.24,210.96 -225.32,299.88 -217.24,-71.6 -394.8,-309.52 -572.76,-441.12 150.64,-98.76 206,181.76 324.88,-180.24 29.84,-90.92 30.88,-94.16 37.24,-204.04 -84.6,-19.28 -111.16,-10 -204.52,-25.12 -67.44,128.56 -62.84,173.56 -184.4,263.48l-61.32 -199.56c-72.32,-42.72 -78.4,-89.36 -148.56,11.04 -19.32,-339.8 -163.2,-644.56 70.68,-1186.44 300.44,-696.08 37.92,-954.76 758.36,-2278.96l187.56 -393.44c71.08,-127.28 -32.4,-63.72 119.76,-91.52 69.12,110.76 -24.76,468.84 -56.68,591.76 -119.12,458.44 69.88,571.36 -181.28,767 -5.68,4.44 -14.76,9.16 -20.24,13.84 -82.56,70.36 -305.96,902.16 -306,902.48l82.56 203.56c-380.68,371.24 -324,444.48 -442.48,807.68 -49.84,152.76 -45.4,170.88 156.16,180.64 35.88,-95.68 168.56,-394.08 306.88,-320.6 5.76,87.6 -15.2,62 -82.04,141.72 -61.48,73.32 -54.44,98.56 -146.16,137.88 14.6,145.36 50.16,222.56 182.68,227.24 99,3.48 37.68,-12.32 132,-29.64 19.52,-3.6 108.84,-5.64 161.8,-11.76l241.92 -43.56c-21.2,169 -173,166.24 -13.68,281.48 164.52,119 46.28,-37.32 108.68,84.08 -35.4,66.2 -14.2,43.96 -69.32,79.52 3.68,119.96 -60.96,275 -20.88,359.76 113.84,91.4 116.12,67.48 207,-23.64 117.12,-117.4 18.6,-51.48 217.84,-131.96 18.64,-91.56 1.16,-32.48 60.12,-101.32l476.2 -440.64c137.48,-121.76 122.92,-71.28 234.4,-109 52.84,-82.36 0.28,-37 91.32,-89.72 24.16,-14 92.12,-27.52 105.56,-31.04l-78.12 -23.96c-6.52,-2.36 -17.2,-6.76 -24.2,-9.36 -6.68,-2.52 -16.28,-6.92 -23,-9.36l-125.28 -24.8c-5.12,0.44 -15.56,2.28 -20.52,3.08l-169.16 106.2c-26.52,-98.32 46,-57.84 -193.28,-107.12 -121.24,-24.96 -64.88,-81.72 -115.48,-22.56l304.28 0c0.76,-177.4 -46.44,-186 5.04,-350.64 12.08,-38.64 30.36,-19.24 10.96,-85.28 -0.4,-1.36 -18.8,-45.8 -19.08,-46.36 -1.92,-4.12 -7.16,-14.64 -9.04,-18.52l-21.2 -39.92c-90.52,24.12 -24,6.4 -76.92,51.96 -142.64,122.8 113.12,-18.48 -34.76,38.6l31.72 -151.6c20.96,-278.24 -14.6,-381 237.64,-445.12 5.44,-7.56 15.44,-27.28 18.24,-21.12l64.64 -71.4c2.76,-2.96 10.28,-10 14.28,-15.88 -41.4,-130.64 -36.04,-55.52 -120.08,-162.64 -70.04,-89.32 -55.96,-113.16 -119.08,-217.4 -64,-151.8 31.68,46.36 -16.64,-78.16 -1.72,-4.36 -4.68,-14.44 -6.92,-18.96 -2.4,-4.88 -7.28,-14.6 -10.2,-19.36l-30.88 -38.4c-3.4,-4.28 -10.96,-14.68 -18.8,-18.8 -45.32,121.68 -167.04,84.68 -276.24,37.6 -79.52,-34.28 -38.88,-8.2 -96.12,-55.64 0,-208.44 -10.2,-18.2 58.44,-87.48 70.44,-32.92 71.88,22.6 59.92,-113.88 20.16,-150.4 9,-50.72 -18.92,-91.52 -172.16,-8.44 -126.96,78.52 -249.72,127.8 -180.52,72.48 -56.72,-18.6 -177.64,23.8 -113.56,108.32 -205.88,382.12 -267,526.6 -88.92,-86.96 -64.52,-8.08 -52.2,-133.84l396.36 -1001.6c68.52,-485.44 230.64,-832.32 263.48,-1315.88l-96.16 -62.28 136.96 -174.48c-140.8,-122.32 -125,41.76 -134.44,-329.44 -6.32,-248.2 -30.48,-110.12 51.64,-178.52 -94,-193.44 -189.44,-424.92 9.2,-573.88 -11.36,-147.44 72.16,-175.12 236.8,-326.12 513.16,-470.56 1133.6,-129.8 1312.84,-102.04l-9.48 -149.6c-149.56,-84.12 -58.6,14.88 -138.8,-111.76 251.6,-181.72 305.2,-209.96 650.36,-251.56 183.24,-14.4 339.88,22.6 492.88,48.16l528.36 75.56 57.32 159.92c-333.48,62.56 -180.2,86.28 -314.6,57 -76.76,-16.72 -47.48,-31.8 -144.44,-57.12 -56.64,-14.8 -103.52,-16.84 -177.36,-10.04 -141.2,-34.6 -201.96,-16.72 -345.36,12.48zm-3079.68 1166.4c-1.68,170.52 75.24,390.6 49.64,1071.6 -5.88,156.08 -42.08,231.64 -35.8,424.52 -189,-205.64 39.16,-417.32 -161.08,-673.64l-378.32 -502.08c-141.24,-97.36 -81.52,18.76 -174.08,-130.2 -55.56,-89.36 -17.52,-101.4 -116.12,-191.32 -247.36,-225.56 -351.84,-57.6 -459.36,-412.52 -25.36,-83.72 -274.88,-484.72 -110.32,-745.36 96.6,-153.04 199.76,-127.36 244.28,-368 2.08,2.48 161.56,16.48 25.28,327.12 -42,95.8 -322.56,239.36 93.28,797.64 244.84,328.68 473.36,494.56 1022.6,402.24zm7324.56 -1658.12c112.28,110.08 104.52,113.76 183.68,244.16 276.56,455.44 -71.24,325.44 -88.84,514.36 -80.6,-44.28 -32.92,35.08 -105.68,-117.4l-164.08 -449.68 174.92 -191.44zm-2844.52 202.6c124.96,-142.24 -152.76,-114.52 -231.68,-242.44l27 -98.4c172,3.32 486.24,138.88 516.32,140.08 40.56,1.6 91.16,2.16 106.52,-44.84 4.12,-12.68 15.76,-13.12 24.4,-18.64 17.96,135.56 54.04,124 24.72,211.12 -76.84,23.4 -205.92,29.48 -322.24,62.16 -533.28,149.8 -187.16,114.16 -495.76,-7.12 -54.72,-21.52 -157.96,-38.76 -217.64,-54.04 -411.8,-105.24 -268.92,59.68 -413.32,-89.4 40.52,-31.8 -10.2,-14.12 66.32,-28.68l470.92 52.52c103.68,17.16 154.6,29.28 231.72,77.84 94.32,59.36 -3.44,44.16 110.68,64.4 195.64,34.64 36.24,16.8 102.04,-24.56zm1241.88 -486.28c62.04,326.88 -215.04,433.2 -349.6,401.16 -249.36,-59.4 -281.72,-286.36 -152.92,-491.8 238.84,-51.52 379.04,4.36 502.52,90.64zm-5148.84 223.08c-194.72,-677.96 467.76,-592.12 599.8,-183.12 -88.44,282.8 -388.88,290.36 -599.8,183.12zm2327.96 -164c155.48,-66.2 105.48,-47.6 186.8,-183.28 174.2,39.72 520.48,23.4 693.72,96.4 0.6,117.4 -42.92,117.96 -157.16,134.84 -41.88,6.2 -216.16,11.16 -269.08,11.4 -268.68,1.24 -327.08,46.4 -454.28,-59.36zm-5963.12 236.84c93.28,146.72 314.48,339 307.2,546.56 -191.2,31.52 -234.24,26.04 -324.96,-92 -129.4,-168.32 -460.08,-700.72 -434.76,-872 299.08,-10.76 302.92,182.12 452.52,417.44zm12215.92 -237.24c-186.44,0.8 -62.24,98.4 -169.12,-73.12 355.36,-209.4 747,207.68 630.28,456.44 -68.08,-100.76 -20.96,-86.56 -112.76,-215.56 -72.2,-101.4 -211.8,-168.32 -348.4,-167.76zm-7744.4 600.12c53.52,-369.12 726,-577 925.56,-694.24 128.64,-75.56 221.88,-121.44 374.68,-60.08 -4.48,204 40.04,3.36 -183.16,212.72l-43.56 35.24c-50.84,28.08 -124.04,43.8 -191.96,76.68 -75.08,36.32 -104.44,52.32 -172.2,98 -76.72,51.68 -99.24,96.32 -143.72,127.76 -88.04,62.28 -103.04,27.64 -171.4,49.48 -205.84,65.6 -9.8,150.68 -394.24,154.44zm6951.28 481.88c-50,-287.12 -19.84,-1089.76 106.08,-1236.72 238.52,-278.4 733.92,-325.28 1100.52,-268.16 39.72,152.6 -21.64,246.76 243.4,179.2 94,305.08 72.92,152.12 2.96,457.92 -59.6,-119.16 -49.12,-192.28 -131.96,-294.32 -48.56,-59.84 -188.88,-153.28 -230.76,-174.12 -244.16,-121.36 -508.36,-18.52 -670.64,106.24 -366,281.36 -118.76,721.24 -183.32,1033.36 -45.48,219.84 -34.96,197.84 -236.28,196.6zm-6100.8 -1889.76l67.96 -397.68c71.96,11.08 506.72,99.76 554.96,134.44 105.44,75.92 148.8,356.68 124.72,510.56 -55.4,129.16 -1.92,83.96 -149.6,148.44 -7.4,3.24 -16.52,6.36 -24.08,9.32 -7.6,2.96 -16.44,6.4 -24.2,9.16 -248.48,87.48 -307.64,-26.24 -598.36,-84.12l48.6 -330.12zm2671.28 -10.28c-14.24,215.8 -58.88,285 -161.96,417.84 -372.72,4.64 -348.64,90.16 -721.44,-6.16 -122.6,-31.68 -217,-16.48 -350.92,-52.92l-235.88 -65.56 -98.52 -37.96c-23.28,-271.8 82.84,-436.48 247.92,-529.28 225.52,-126.8 255.44,108.04 574.12,88.48 85.56,-82.68 562.72,-213 699.4,-203.2 64.72,197.28 32.2,180.24 47.28,388.76zm5082.12 111.8c-128.56,-61.76 -39.24,-37.24 -180.32,-72.76 -306.16,-77.08 -612.64,-35.48 -898.24,66.16 -39.68,14.12 -30.76,7.84 -77.88,26.84 -28.84,11.6 -24,10.76 -49.64,22.36 -7.88,3.6 -16.24,8 -24,11.64l-212.2 123.84c-75.92,-50.6 -177.92,-125.64 -260.28,-179.36 -170.04,-110.96 -169.52,-12.96 -265.96,-178.16 -66.08,-26.24 -4.68,12.56 -84,-47.6 -28.36,-21.52 -23.8,-16.68 -51.52,-48.16 -61.84,-70.2 -46.84,-58.2 -79.52,-129.4 351.96,-286.68 1397.12,-174.96 1642.48,-244.4 481.16,-136.16 1038.96,91.44 862.28,872.12 -58.16,-48 -85.96,-74.28 -159.44,-126.2l-57.92 -41.24c-5.56,-3.64 -14.12,-9.72 -19.52,-13.08 -36.04,-22.52 -9.24,-18.24 -84.32,-42.6zm-7841.4 -133.84l-69.4 301.68c-234.04,-82.52 -480.56,20.4 -778.92,-123.48 -38.2,-110.12 -42.76,-322.8 14.16,-406.52 -12.64,-112.48 20.76,-238.92 50.72,-339.36 315.56,-23.24 580.84,133.44 861,121.52l-77.56 446.16zm-1123.28 174.8c-49.4,-133.08 -80.32,-315.2 -71.12,-506.36 15.32,-317.2 26.36,-286.72 278.36,-262.56 21.64,38.72 31.12,-27.68 29.6,118.68 -0.12,10.24 -11.88,60.32 -17.92,86.52 -13.2,57 -30,112.48 -37.48,166.96 -18.04,131.16 -13.16,263.44 -15.48,398.4l-165.96 -1.64zm-1080.6 -98.36c2.08,147.16 38.64,203 2.04,307.88 -30,85.84 -81.12,134.8 -103.04,237.8 -161.68,758.68 767.16,921.76 1150.48,876.72 -7.08,11 -15.12,22.88 -22.44,32.2l-109.76 113.04c-399.88,283.6 -391.72,97.04 -549.72,67.28 -111.4,-20.96 -47.2,11.4 -159.16,6.72 -102.96,-4.32 -641.6,-156.8 -651.36,-555.96 -6.28,-257.16 29.08,-491.44 101.76,-685.64 -45.56,-96.08 -4.2,-7.92 -64.16,-57.84 -149.12,201.64 -251.12,626.48 -264.72,949.84 56.36,147.68 -36.72,96.68 138.04,290.24 425.6,471.28 670.48,288.24 797.36,493.12 74.6,120.48 66.12,173 -57.8,184.64 -38.64,3.6 -79.6,-14.32 -126.8,-31.12l-450.76 -194.48c-132.76,-45.6 -420.8,50.4 -416.6,-732.28 -8.44,-300.76 -65.12,-385.12 18.52,-649.56 76.8,-242.84 19.76,-261.56 176,-500.48 270.72,-414 248.4,-254.04 375.84,-403.28 279.16,-326.88 -53.56,-63.44 414,-318.84 -67.96,258.44 -130.08,47.4 -197.72,570zm920.16 -284.2l56.04 386.88c-468.68,-1.48 -406.92,-96.96 -872.76,78.36l-5.48 -244.2c9.04,-174.2 20.72,-191.84 98.08,-317.68 30.8,-50.12 46.68,-82.12 71.6,-127.8 64.28,-117.68 -24.84,-39.08 92.12,-112.24 158.4,-99.12 477.92,-58.36 614.04,-83.84l-53.64 420.52zm-3962.84 -228.8c-77.4,158.36 -130.72,42.28 -214.4,300.08 -67.28,207.2 -44.92,223.68 -64.68,445.72 -344.68,-44.36 -259.24,381.68 -286.92,628.76 -301.8,-367.4 -377.8,-464.28 -363.76,-1096.44 -64.6,-366.48 294.88,-483.92 564.48,-601.88 203.32,-89 226.4,-97.72 488.4,-129.04 715.24,-85.52 1282.76,-85 1962.84,155.44l429.44 200.6c-162.04,251.68 -16.92,343.12 -228.8,394.76 -359.64,87.6 -214.84,-342.72 -968.84,-366.96 -263.6,-8.44 -358.88,66.64 -589.76,62.72l48.84 117.6c281.28,83.12 111.84,48.16 149.4,284.08 95.92,4.96 104,-1.96 186.96,-54.64 65.32,80.76 11.56,190.8 155.44,193.28 213.6,3.68 104.12,-44.64 233.16,-99.56l91.68 39.76c-35.32,127.68 8,7.48 -65.16,115.2 -50.16,73.88 -11.24,-27.64 -61.68,92.72 20.32,14.8 137.68,55.36 228.6,6.4 101,-54.44 -55.44,-10.4 94.24,-52.04 75.68,199.52 -120.4,323.56 -184.56,536.6 -92.52,307.32 68.48,465.44 -322.4,442.28 -150.2,-176.88 -338.96,-466.92 -336.44,-764.44 98.16,39.2 172.96,64.52 274.44,129.2 101.76,64.84 114.36,106.36 231.24,132.92 -24.92,-203.88 -508.12,-665.92 -1033.24,-412.28 -8.36,4.04 -162.96,93.48 -169.6,99.68 -69.68,65 -42.28,80.44 -91.76,186.44l89.72 107.16c203.84,-1.36 150.24,18.64 192.36,190.8 54.04,221 281.48,613.56 471.8,710.48l459.6 528.68c71.12,80.28 109.36,93 138.92,190.08l-184.44 41c-269.56,-32.2 -385.88,-206.88 -522.44,-406.52 -52.76,-77.12 -78.2,-171.72 -104.52,-245.28 -49.08,-52.12 -80.16,-143.48 -138.56,-224.2 -278.72,-385.36 -161.32,11.84 -277,-474.32 -29.36,-123.48 -60.76,-100.92 -114.4,-211.08 -178.24,-118.88 -310.64,-408.64 -241.2,-697.88 56.28,-251.44 40.4,-264.44 247.28,-380.48 378.44,-212.32 320.32,-32.56 391.64,-217.6 -136.44,-66.52 -455.48,18.16 -565.92,102.2zm13854.88 1349.08c-121.28,220.52 -80.64,-6.68 -107.96,313.4 -28.6,334.8 -242.72,485.84 -368.44,752.52 -162.84,345.44 -167.52,807.2 -314.12,1176.88l-197.44 -0.8c-21.64,-505.44 370.96,-1455.88 433.96,-1763.48 26.64,-130.16 12.56,-250 68,-372.64 44.72,-98.84 105.92,-148.96 146.6,-293.28 38,-134.72 32.8,-229.68 87.88,-357.92 50.92,-182.12 40.08,-185.2 29.24,-399.2 -17.28,-342.12 -237.92,-559.2 -539.76,-662.68 -365.92,-125.48 -380.2,-46.16 -668.88,17.2 -181.04,39.68 -370.24,80.24 -608.24,41.44 333.6,-248.96 1550.76,-235.92 1832.96,-70.24 88.44,51.96 161.12,89.4 224.72,179.84l171.96 272.6c140.92,189.88 145.92,110.36 191.84,214.36 67.44,194.2 -268.16,848.84 -382.32,952zm-9570.92 -2396.36c103.32,-23.84 188.92,-72.8 258.32,-87.24l271.08 14.04c11.92,39.64 6.08,16.72 -1.44,52.24l-42.28 124.52 -736.12 82.16c-159.96,-27.88 -184.76,-7.36 -300.2,-3.28 -411.48,14.44 -459.8,219.2 -557.44,259.6 -138,57.12 -79.88,4 -97.36,-7.44 -108.08,-121.04 292.88,-491.8 412.52,-628.88l776.44 -712c327,-238.72 232.72,-162.28 375.44,-472.76 66.4,-144.44 566.08,-531.2 715.8,-605.32 872.92,-432.04 404.48,-326.08 1309.96,-383.16 158.28,-9.96 219.32,-42.64 369.84,-48.8 300.72,-12.28 1074.92,29.32 1360.96,178.2 103.48,53.88 27.8,6.44 120.12,84.32 53.4,45.08 189.44,142.84 244,194.84 71.64,68.36 127.8,156.48 204.96,235.36 605.52,619.36 864.48,1042.48 1134.56,1879.68 69.64,215.92 278.24,302.56 333.04,937.36 -168.56,-29.88 -182.64,-104.4 -277.08,-13.08 47.32,93.88 200.44,216.44 285.48,323.84 97.76,123.48 127.32,-10.84 414.68,433.48 194.36,300.52 129.96,894.72 -60.2,1142.08l-346.04 -505.24c39.6,-249.8 156.52,-480.08 -166.2,-672.84 -172.16,-102.84 -62.28,-79.64 -176.56,-130.12 -247.64,-27.24 -239,-96.6 -528.6,-69.08 -445.36,42.36 -1093.08,26.2 -1570.32,260.92 22.36,-146.76 94.08,-232.8 60.6,-405.04 4.56,-133.88 -34,-330.2 -14.76,-372.04 171.96,-101.12 433,-74.76 613.56,-123.16 -60.12,-314.56 -469.24,-87.52 -809.48,-44.92 173.6,-132.8 99.04,-113.68 261.32,-334.24 -79.44,26.84 -212.76,98.92 -286.08,61.72 120.28,-142.96 375.6,-168.24 542.24,-287.8 79.2,-56.84 343.28,-330.96 381.72,-423.4 -166.08,-101.92 -249.32,-22.8 -419.12,48.44 -283.68,119.04 -1040.28,462.84 -1196.8,626.68 17.68,122.64 9.64,99.28 122.96,161.52l-257.4 48.4c-204.96,16.96 -566.84,242.8 -630.56,452.72 -61.72,-153.68 -714.56,-418.24 -723.64,-423.36 118.2,-58.44 399.88,82.64 572.16,-0.12 405.08,-194.64 388.84,63.4 489.28,-203.08l-197.64 -40.08c-278.28,-59.88 -863.4,-334.92 -1303.84,-410.2 296.36,-116.92 724.28,49.72 921.68,53.88 49.6,-69.6 81.96,-96.76 108.32,-197.36 197.48,22.84 358.68,64.64 579.88,58.12l911.4 -85.64c143.4,-65.56 82.4,-96.72 192.16,-149.52 302.24,-145.48 489.68,66.08 499.56,-211.32 -237.4,-103 -596.48,66.84 -766.92,107.52 -402.84,96.12 -395.76,47.56 -752.08,-37.92l-1461.56 -250.92c-231,31.68 -306.84,-3 -559.04,18.88 -169.24,-5.04 -289.04,24.36 -444.32,71 -168.92,50.72 -188.76,77.28 -318.28,181.96 28.44,115.92 50.92,211 157.32,245.88zm-5407.12 818.28c-194.76,221.04 -163.52,369.28 -177.24,686.76 -6,139.04 41.64,168.48 51.36,303.24 11.56,160.4 -5.88,56.96 63.16,224.08 19.96,48.36 17.96,51.16 36.96,100.56l637.64 884.84c192.4,289.72 136.28,419.16 225.6,634.16 -107.8,71.96 -161,43.8 -269,135.92 -128.88,109.96 -442.4,603.04 -473.44,780.2 -64.12,365.64 53.12,655.6 314.16,885.76 237.52,209.36 755.56,234.52 1015.2,135.64l297.8 -107.32c158.52,-71.04 320.92,-303.6 491.2,-345.64 55.28,-13.64 255.36,47.2 344.52,64.56 458.28,89.4 445.8,-36.28 765.2,20.2 -46.48,335.48 -140.92,770.16 -250.36,1071.44 -45.28,124.68 -127.68,283.44 -224.04,417.24 -443.84,616.28 -171.48,289.88 -329,651.76 -26.36,60.6 -80.84,159.8 -114.6,227.04 -53.64,107 -99.92,256.72 -174.6,331 -169.76,169 -416.36,247.96 -610.2,372.48 -115.16,73.96 -219,106.36 -220.44,263.12 270.52,56.92 464,-180.12 700.04,-236.92 30.92,332.92 -134.36,599.96 -291.72,876.88 -63.72,112.12 -109,138.08 -110.56,282.72l130.6 66.12c93.36,-67.4 144.56,-185.52 198.2,-267.6 91.16,-139.4 137.56,-132.28 345.36,-135.52 194.76,329.16 770.76,852.48 1073.72,1166.88 145.2,150.68 253.84,194.76 426.32,318.96 154.4,111.16 286.84,192.52 478.32,262.4 566.2,206.72 1055.6,289.84 1737.44,535.44 267.2,96.24 381.68,46.64 559.76,56.12 489.52,26.12 1013.24,27 1489.48,-20.68 57.6,-5.76 128.8,-1.32 195.96,-1.96 137.44,-1.32 231.64,-13.08 342.4,-74.12l340.16 -198.56c69.12,-31.44 84.84,-37.16 142.4,-64.08 138.84,-64.88 423.88,-124.8 584.76,-164.28 485.68,-119.2 187.2,-23.36 586.72,-8.32 134.68,5.08 232.32,-17.24 336.36,-17.64 224.44,-0.88 96.16,-29.24 274.44,-86.16 75.88,89.56 27.72,81.12 135.48,126.48 150.04,-89.28 294.8,-276.4 474.12,-267.56 206.08,51.16 226.44,291.8 406.4,202.32 114.44,-113.2 -206.6,-423.12 -258.68,-506.92 138.08,-375.72 549.04,-1044.92 860.64,-1331.24 5.16,-4.68 12.76,-11.28 17.92,-15.92 166.84,-150.24 190.24,-244.16 268.04,-476.4 268.96,5.2 515.72,272.96 723.24,130.2 -37.88,-243.2 -496.72,-348.84 -687.84,-441.6l-7.92 -271.76c177.68,7.56 589.44,-82.04 702.32,-143.76l-9.24 -174.48c-123.52,-25.24 -259.64,-3.72 -388.04,13.88 -79.04,10.84 -115.96,21.76 -177.96,35.32l-172.44 8.64c-146.96,-432.52 -169.48,-948.72 -345.4,-1375.04 -42.12,-102.08 -74.36,-255.2 -117.8,-397.24 192.6,35.04 617.88,418.36 1116.08,34.04 296.84,-229 -119.28,-258.64 -257,-350.24 -56.88,-37.84 -19.56,-10.2 -59.96,-50.92l-18.44 -453.96c94.8,-278.24 807.2,-72 979.96,13 186.96,-154.6 340.68,-443.32 425.32,-658.32 98.6,-250.4 58.44,-557.8 158.8,-864.4 106.96,-326.8 97.44,-476.56 369.88,-708.56 133,-113.24 220.8,-109.36 283.4,-260.76l16.96 -53.04c57.2,-177.2 89.88,-140.2 197.8,-267 334.96,-388 260.44,-789.96 254.76,-1132.36 -4.84,-290.88 -73.64,-372.92 -248,-567.32l-35.16 -40.4c-63.28,-40.16 -105.16,-38.12 -192,-100.04 -139.32,-99.44 -35.8,-67.12 -158.8,-143.52 -260.84,-162 -1104.76,-188.24 -1408,-116.84 -127.48,30.04 -363,60.68 -480.44,88.48l-428.56 121.96c-164.16,40.84 -313.44,102.32 -444.52,164.6 -149.08,70.84 -252.44,155.28 -377.32,205.84 -67.44,-81.2 -74.24,-203.32 -107.28,-302.88l-373 -845.76c-240.48,-317.88 -129.36,-189.52 -321.76,-495.16 -154.52,-245.4 -216.2,-466.12 -275.12,-522.24 294.64,-83.16 92.64,-79.16 525,-130.36l24.56 -194.52c-147.32,-22.56 -150.88,45.68 -295.92,70.56 -176.76,30.32 -191.64,-32.4 -327.92,94.52 -5.2,-7.88 -12.16,-18.08 -15.6,-23.68l-78.52 -164.88c32.72,-36.84 85.44,-89.48 130.56,-127.92 169.56,-144.4 41.88,7.88 115.12,-164.28 27.8,-65.28 -0.56,-30.48 45.44,-84.88 0.12,-0.16 63.4,-52.72 72.76,-61.16 64.6,-58.44 84.56,-64.32 94.96,-169.8 -232.6,18.88 -438.24,298.04 -635.68,388.4 -226.68,-153.72 -127.92,-127.84 -338.64,-319.4 -38.16,-34.68 -70.08,-56.4 -111.2,-91.48 -417.08,-356.24 -1488.2,-628.4 -1905.52,-601.32 -672.64,43.68 -1449.44,115.2 -2003,466.6 -4.44,2.84 -118.56,85.32 -119.36,86 -242.16,208.28 -164.8,69.6 -356.56,226.24 -95.12,-98.4 -287.16,-315.6 -415,-362.8 -134.64,212.16 199.96,436.72 303.68,511.64 -51,103 -26.8,31.76 -98.12,139.92 -98.92,150.04 -148.16,334.56 -242.12,436.64 -37.96,41.28 -181.96,172.88 -251.52,220.64 -101.28,69.56 -154.12,113.52 -235.72,205 -624.6,700.12 -324.52,501.04 -1006,158.4 -120.12,304.4 399.32,300.24 397.56,529.68 -158.88,108 -539.64,-33 -773.72,-34.16 53.48,273.24 355.2,266.16 584.52,333.24 -49.48,106.52 -132.88,181 -186,301.36 -47.84,108.36 -9.28,196.76 -55,367.6 -170.72,-44.64 -118.4,-70.88 -227.52,-122.24 -167.8,-79 -174.04,12.56 -333.48,-71.44 -206.4,-108.76 -167.52,-54.68 -343.6,-130.52 -293.44,-126.4 -727.96,-109.88 -1055.08,-104.12 -558.76,9.84 -1257.32,33.48 -1707.32,434.72l-156.52 151.96z"/>
   <path class="fil1" d="M5849.34 11478.66c79,-82.4 -49.84,52.8 36.08,-61.4 103.72,-137.88 134.92,-64.56 369.24,-115.56 10.24,-2.24 35.8,-10.52 44.84,-12.72l435.52 -40.16c92.04,12.44 9.52,18.52 79.44,12.16 149.52,-13.56 -51.64,-43.28 510.32,-48.12l51.56 96.92c15.64,30.12 27.4,55 37.72,74.04 -142.8,69.64 -644.88,90.28 -840.44,104.76 -328,24.36 -426,108.84 -724.28,-9.92zm520.52 -442.36c18.76,-153.88 50.16,-355.04 112.08,-477.52 159.36,69.56 196.28,50.8 225.08,269.56 34.12,258.88 -100.44,193.52 -337.16,207.96zm457 -51.6c-26.36,-268.32 196.76,-401.92 396.32,-460.12 87.92,134.4 77.8,216.2 73.72,399.96l-470.04 60.16zm2802.08 -567.84l109.4 225.64c46,105.56 75.28,163.12 102.72,282.52l-316.12 8.24c-60.6,-343 -112.72,-294 104,-516.4zm-224.28 486.68l-488.16 -121.8 -14.6 -145.6c325.48,95.32 493.36,-123.24 502.76,267.4zm-1944.56 -450.6c145.64,-55.04 222.36,-31.76 373.48,-72.52l-9.48 501.92 -295.44 19.04c-69.44,-192.24 -55.16,-246 -68.56,-448.44zm940.04 332c-141.24,76.24 -255.28,78.32 -382.72,2.32l-1.24 -447.84c162.32,-34.84 241.52,-5.36 366.48,32.24l-9.36 56.72c-6.92,64.92 -10.12,36.96 -6.76,119.44 4.96,122.04 27.36,125.36 33.6,237.12zm292.64 -518.76c9.84,-54.16 25.96,-101.72 45.08,-161.36l62.32 -145.44c2.92,-5.24 9.28,-15.32 14.72,-22.44 362.6,51.4 -65.2,123.68 594,291 -247.32,78.6 28.64,249.68 -716.12,38.24zm-2049.88 -365.68c397.48,-13.72 28.24,-48.96 538.04,-80.12 86.08,-5.28 190.56,-28.52 265.56,-59.56 151.28,-62.64 65.44,-57.76 287.08,-56.24 10.2,143.32 -0.44,245.68 -22.6,387.12 -32.68,208.76 -11.8,161.64 -216.88,216.72 -96.8,-84.52 -26.16,-83 -135.44,-172.16 -234.96,62.84 -159.08,223.16 -270.96,244.68l-271 -3.52c-113.04,-141.76 -75.52,-168 -130.96,-341.4 -21.16,-66.24 -17.72,32.56 -42.84,-135.52zm1411.44 -212.96c307.76,-47.96 39.68,11 597.88,155.84 -89.6,207.6 17.8,395.84 -157.16,377.72l-338.64 -95.04c-95.56,-52.88 -130,-312.4 -102.08,-438.52zm-2082.96 -215.16c6.08,-6.08 16.64,-22.76 19.76,-16.6 3.04,6.12 15.4,-12.96 19.64,-16.24 229.56,-176.88 128.88,-122.76 265.32,-243.48 394.56,-349.08 -2.28,-412.96 1285.72,-375.4 634.08,18.48 741.24,-11.84 1392.68,372.04 109.36,64.44 316.52,142.56 309.6,250.6 -44.44,10.44 -124.72,8.32 -200.84,9.76 -253.88,4.84 -42.12,-32.72 -525.64,-250.32 -331.2,-149.04 -487.32,-172.08 -861.72,-164.08 -540.92,11.52 -817.28,65.36 -1314.64,273.24 -258.08,107.84 -30.36,145.6 -389.88,160.48zm4053.12 -1429.2c136.24,43.44 44.08,-1.04 110.12,69.52 4.76,5.08 47.8,63.92 57.44,78.16 77.68,114.28 158.4,501.24 174.96,638.24 -1.4,-2 -69.4,-88.8 -73.44,-95.16 -242.08,-382.36 -265.32,-365.6 -269.08,-690.76zm-396.8 -63.36c91.72,170.32 24.32,288 133.36,437.48 72.6,99.56 108.2,52.24 31.64,260.24 -159.4,-37 -276.6,-330.32 -286.04,-499.24 -8.56,-153.2 8.24,-127.16 121.04,-198.48zm-3568.76 -637.96l46.64 -135.12c103.64,30 175.28,108.16 264.28,169.48 37.08,25.52 77.92,56.68 113.08,88.8 69.72,63.76 9.72,30.28 103.88,91.2l25.44 116.84c8.72,133.44 -42.16,194.2 -66.32,308.4 -32.28,152.52 21.8,329.4 -67.84,444.36 -145.84,-28.48 -50.56,33.12 -110.08,-99.72 -123.84,-276.52 -32.64,-250.04 -49.56,-316.24 -61.24,-239.64 -331.88,-59.36 -309.12,-467.08l49.6 -200.92zm2770.48 228.08c115.64,-114.32 87.68,-150 282.56,-194.04 61.84,179.8 150.08,216.52 184.72,435.28l-241.72 105.32c-82,-189.68 -156.92,-195.88 -225.56,-346.56zm1172.56 -914.24c39.08,176.76 147.2,472.68 83.12,623.28 -54.32,127.72 -138.36,153.08 -229.68,168.36 -72.44,157.88 -274.84,230.24 -463.2,281.64 -48.68,-69.96 -63.84,-152.64 -129.52,-236.52 -53.04,-67.72 -125.72,-94.4 -137.64,-195.2 -18.24,-154.6 83.28,-120.08 124.04,-445.48l6.08 -41.72c167.32,31.52 147.28,26.92 159.84,190.92l43.36 261.28c130.48,-73.84 61.72,-461.24 32.12,-595.84l-240.12 -182.48c-171.88,-39.04 -800.68,221.56 -953.8,304.96 -52.04,-155.28 -34,-106.36 -34.44,-260.36l-61.56 -21.76c-70.28,59 -150,131.08 -230.8,217.76 -33.52,36 -92.48,80.56 -122.28,117.84 -71.28,89.32 -63.12,-32.92 -43.4,140.92 208.6,3.04 82.12,-121.64 329.48,-50.04 -91.28,200.64 -102.2,430.04 -125.48,668.72 531.04,139.68 338.72,6.24 735.76,6.2 46.2,79.68 55.72,51.2 71.2,136.08l172 198.2c-60.28,99.2 -70.68,85.56 -176.48,157.36 63.84,150.96 47,18.48 56.52,143.2 7.36,96.2 -68.2,306.2 13.08,543.32 -177.56,-50.48 -140.2,-99.68 -213.36,-256.2 -57.6,-123.16 -112.68,-207.32 -159.92,-322.4 -142.08,-165.56 40.32,0.24 -30.64,-157.28 -211.64,-9.48 -204.28,124.68 -506.72,62.2 -249.84,-51.6 -222.8,-110.8 -519.92,-73.16l40 -580.28 6.48 -641.12c-121.52,-56.56 -288.16,-252.72 -390.24,-85.56 219.6,137.92 198.96,280.36 209.32,577.84 9.72,278.84 -26.16,474.72 -48.12,742.12l-314.08 98.92c-79.44,76.6 -187.56,69.04 -334.88,95.8 -5.56,-145.44 -4.24,-255.56 58.84,-384.4l21.92 -213.36c54.6,120.8 2.44,20.84 95.76,84.12 27.2,18.48 100.32,129 161.84,-52.88 32.96,-97.56 63.56,-660.88 -130.72,-898.36l-186.4 -221.04c-191.8,-137.36 -299.96,-54.8 -395.56,-176.52 -190.24,29.64 -230.8,85.48 -389.8,79.84 -82.52,112.4 -190.68,116.04 -285.56,232.92 -86.36,106.4 -67.64,229.28 29.16,334.84l42.84 -84.96c12.12,-30.08 0.04,-67.2 71.72,-109.28l124.56 -42.08 82.28 180.36c57.32,82.8 96.44,58.36 92.12,218.92l-113.28 462.68c-87.92,-36.76 -214.68,-132.16 -327.84,-194.92 -212.84,-118.08 -189.08,-89.44 -272.44,-265.52 -82.12,68.4 -57.96,-69.68 -51.64,178.52 9.44,371.2 -6.36,207.12 134.44,329.44l-136.96 174.48 96.16 62.28c43,-67 -76.84,-67.8 122.6,-60.68 80.36,175 -39.04,841.56 -75.24,1041.64 -67.52,372.88 -52.72,559.04 -214.32,664.32 -110.2,71.76 -83.84,52.24 -170.6,124.72l-3.08 154.72c120.92,-42.4 -2.88,48.68 177.64,-23.8 122.76,-49.28 77.56,-136.24 249.72,-127.8 27.92,40.8 39.08,-58.88 18.92,91.52 605.28,-200.32 180.96,-54 521.52,-66.92 211.52,-8.04 340.72,-108.64 482.52,-200.24 178.2,-115.08 790.08,-272.56 1042.24,-255.2 228.32,15.72 761.04,174.6 989.48,242.04 500,147.6 343.24,339.4 981.68,157.48l409.6 432.8c-496.92,-51.72 -710.48,-192.92 -1086.04,-320.76 -190.96,-65 -476.6,-342.48 -1100.12,-271.76 -371.48,42.12 -792.4,45.44 -1142.72,178.48 -176.84,67.16 -315.68,150.56 -517.88,183.52 -183.12,29.84 -429.44,69.4 -597.2,118.88 -66.6,-38.96 -15.96,17.04 -43,-84.44 -68.64,69.28 -58.44,-120.96 -58.44,87.48 57.24,47.44 16.6,21.36 96.12,55.64 109.2,47.08 230.92,84.08 276.24,-37.6 7.84,4.12 15.4,14.52 18.8,18.8l30.88 38.4c2.92,4.76 7.8,14.48 10.2,19.36 2.24,4.52 5.2,14.6 6.92,18.96 48.32,124.52 -47.36,-73.64 16.64,78.16l554.36 -199.12 -24.08 379.8c-95.08,81.4 -168.04,-25.16 -214.4,224.72l-76.72 -25.36c-4,5.88 -11.52,12.92 -14.28,15.88l-64.64 71.4c-2.8,-6.16 -12.8,13.56 -18.24,21.12 51.48,76.52 1.8,105.56 73.32,368.08 13.6,50 17.76,-1.24 6.04,51.28l-317 25.76 -31.72 151.6c147.88,-57.08 -107.88,84.2 34.76,-38.6 52.92,-45.56 -13.6,-27.84 76.92,-51.96l21.2 39.92c1.88,3.88 7.12,14.4 9.04,18.52 0.28,0.56 18.68,45 19.08,46.36 19.4,66.04 1.12,46.64 -10.96,85.28 -51.48,164.64 -4.28,173.24 -5.04,350.64l-304.28 0c50.6,-59.16 -5.76,-2.4 115.48,22.56 239.28,49.28 166.76,8.8 193.28,107.12l169.16 -106.2c4.96,-0.8 15.4,-2.64 20.52,-3.08l125.28 24.8c6.72,2.44 16.32,6.84 23,9.36 7,2.6 17.68,7 24.2,9.36l78.12 23.96c-13.44,3.52 -81.4,17.04 -105.56,31.04 -91.04,52.72 -38.48,7.36 -91.32,89.72l1313.36 -171.76c678.76,-42.84 240.52,-12.88 708.24,24.08 193.76,15.32 499.32,100.96 655.4,168.88l225.96 128.2c-40.12,-268.68 -124.96,-252.48 -241.84,-353.48 -40.36,-34.88 -70.08,-76 -90.96,-100.52l157.92 -11.8 81.36 -102.6c59.12,-63 66.72,-24.2 -27.44,-154.36 -5.36,6.32 -13.84,7.28 -16.28,18.76l-66.68 90.28c-409.12,-89.28 -698.56,-52.16 -1182.76,-79.2l-12.6 -206.44 750 -176.52c131.68,-27.24 188.56,3.84 259.48,-16.72 30.96,-8.96 117.72,-135.96 480.72,1.04 147,55.48 356.88,143.72 450.24,210.92 154.48,-66.08 -9.24,-50.84 172.16,-82.68 716.28,-125.84 341.96,-140.92 692.68,-253.56l-190.92 -74.16 -185.76 36.52 -115.28 -375.4 357.52 86.32 108.16 -17.6c-179.4,-163.4 -41.56,-47.4 -126.04,-79.68l-135.64 -71.64c1.44,-201.28 -120.44,-221.48 -200.24,-434.16 113.48,-26.04 77.44,21.36 126.88,-62.96 32,-54.52 46.52,-154.12 44.12,-140.44l-39.48 27.8c-76.36,-93.76 -129.4,-18.44 -197.28,-180.16l-11.44 -44.76c-2.56,-13 32.44,-133.44 -65.2,-274.8l-170.92 -177.28 11 170c-137.72,-100.8 -442.56,-676.24 -259.8,-1109.84 80.16,110.48 36.84,254.64 167.56,524.84 3.72,7.68 10.4,19.36 13.52,25.56 3.16,6.28 8.76,17.36 13.96,25.56l36.24 -245.68c2.52,-19.56 9.48,-23 17.8,-31.92 39.16,371.28 0.2,103.36 173.44,348.56 0.16,-0.04 96.96,29.12 113.68,-133.64l157.28 87.88c70.04,-190.72 -69.28,29.44 41.88,-60.44l115.68 -18.8c64.96,102.76 36.16,104.68 65.12,199.72 44.96,147.64 81.44,101.24 87.88,220.2l56.64 -29.88c14.16,112.76 10.52,99.84 38.52,182.8 277.16,821.28 -2.72,123.4 243.8,573.16 127,231.68 75.24,232.44 61.84,287.56 216.4,-52.76 220.6,-4.28 135.44,-101.6 114.44,118.32 62.56,145.88 139.32,229.76 51.72,56.52 166.4,88.32 230.28,108.92l-384.44 -932.08c-85.28,-195.48 -297.88,-786.36 -317.4,-997.56 166.68,62.4 148.24,-9.2 301.76,24.92l117.56 42.24c27.08,266.44 -30.92,706.28 124.12,1005.04 170,327.52 366.12,1302.68 647.84,1498.88 11.16,-16.32 49.2,-79.36 61.84,-88.52 76.44,-55.4 -161.84,17.88 111.88,-22.6 2,-0.28 85.16,41.36 100.08,-55.72 39.24,-255.56 24.96,-55.96 -53.84,-135.6 -26.76,43.16 12.68,130.12 -84.36,-4.28 -110.16,-152.6 -536.68,-2058.28 -527.28,-2126.96 6.32,-46.16 33.36,-116.88 87.92,-138.36 166.12,-65.44 139.4,47.56 153.68,101.8 57.16,-68.84 98.68,107.68 52.08,-125.4l-71.8 -85.56c125.68,-0.52 149.64,-33.36 167.36,95.64 -12.52,-98.4 -9.4,-118.36 -64.8,-166.96 -178.88,-156.8 -279.4,-52.88 -289.28,-50.72 -8.32,1.8 -17.88,4.52 -26.56,5.84 -8.92,1.32 -18.6,2.64 -27.68,3.32 -9.16,0.72 -19.16,0.68 -28.12,0.76l-109.4 -15.4c8.28,-229.2 -82.32,-235.76 129.52,-237.08 -113.88,-0.72 -34.96,12.96 -91.96,-40.88l-77.36 -112.6c40.52,-66.8 -34.96,-67.72 135.44,-117.44l-14.04 -203.04c227.08,-52.84 46.72,18.92 147.2,-99.64 -122,25.56 -92.88,37.44 -209.68,-35.84 32.96,201.2 -35.6,243 -86.12,410.76 -54.56,181 -29,299.8 -136.08,374.28 -119.28,-10.52 -222.64,17.96 -293.12,-0.48 -155.44,-40.76 -75,-95.24 -129.4,-193.04 -86.16,-154.96 -303.64,-64.88 -392.04,-253l356.24 -395.84 -14.52 -164.08c-89.44,68.2 -75.08,-123.88 -75.08,85.76 -73.72,67.64 57.52,36.6 -50.32,3.8 -38.84,-11.8 -63.68,-2.56 -96.24,-37.64l-9.44 -388.44c47.48,-51.32 -52.64,-27.12 121.96,-51.68 -1.88,3.72 -8.08,7.8 -9.4,8.24 -111.24,37.12 -113.32,-29.2 -155.44,-84.08 -6.44,-8.36 -20.96,-34.92 -26.76,-42.96 -4,-5.52 -8.88,-14.08 -12.88,-19.32l-168.32 -197.36c-53.16,-84.84 12.72,-71.44 -107.28,-71.08 241.92,154.6 118.32,253.92 109.28,338.84z"/>
   <path class="fil2" d="M10704.26 3178.54c-109.12,-34.96 -216.68,-23.56 -308.72,-64.76 -8.96,-21.24 -12.68,9.12 -23.6,-82.48 -8.4,-70.68 0.4,-46.6 6.68,-106.12 266.04,3.2 619.28,-86.84 657.68,159.88 39.8,255.64 -58.72,207.6 -182.4,147.92 -35.08,-16.92 -114.72,-43.28 -149.64,-54.44zm-1852.12 -724.2c-184.12,119.08 -453.2,76 -641.36,206.8 356.32,85.48 349.24,134.04 752.08,37.92 170.44,-40.68 529.52,-210.52 766.92,-107.52 -9.88,277.4 -197.32,65.84 -499.56,211.32 -109.76,52.8 -48.76,83.96 -192.16,149.52l-911.4 85.64c-221.2,6.52 -382.4,-35.28 -579.88,-58.12 -26.36,100.6 -58.72,127.76 -108.32,197.36 -197.4,-4.16 -625.32,-170.8 -921.68,-53.88 440.44,75.28 1025.56,350.32 1303.84,410.2l197.64 40.08c-100.44,266.48 -84.2,8.44 -489.28,203.08 -172.28,82.76 -453.96,-58.32 -572.16,0.12 9.08,5.12 661.92,269.68 723.64,423.36 63.72,-209.92 425.6,-435.76 630.56,-452.72l257.4 -48.4c-113.32,-62.24 -105.28,-38.88 -122.96,-161.52 156.52,-163.84 913.12,-507.64 1196.8,-626.68 169.8,-71.24 253.04,-150.36 419.12,-48.44 -38.44,92.44 -302.52,366.56 -381.72,423.4 -166.64,119.56 -421.96,144.84 -542.24,287.8 73.32,37.2 206.64,-34.88 286.08,-61.72 -162.28,220.56 -87.72,201.44 -261.32,334.24 340.24,-42.6 749.36,-269.64 809.48,44.92 -180.56,48.4 -441.6,22.04 -613.56,123.16 -19.24,41.84 19.32,238.16 14.76,372.04 145,59.6 95.08,21.48 251.28,-19.4 423.44,-110.8 1579.16,-271.2 1787.04,232.6 114.28,50.48 4.4,27.28 176.56,130.12 322.72,192.76 205.8,423.04 166.2,672.84l346.04 505.24c190.16,-247.36 254.56,-841.56 60.2,-1142.08 -287.36,-444.32 -316.92,-310 -414.68,-433.48 -85.04,-107.4 -238.16,-229.96 -285.48,-323.84 -159.12,-15.4 -181.68,-62.76 -335.72,-120.44l52.52 120.08c-328.48,-54.32 -509.92,-137.96 -797.88,-235.8 -293.52,-99.76 -532.72,-137.6 -825.08,-64.28 52.16,-93.36 213.16,-223.16 313.24,-235.84 144.04,-18.24 331.8,44.6 455.96,81.96 729.88,219.56 325.32,103.64 746.68,292.08 125.8,-140.8 310.36,-363.52 254.48,-643.92 -36.84,-185 -80.32,-116.24 -181.24,-264.72 -210.12,-309.08 -386.76,-384 -598,-687.48 -152.56,-219.16 -242.24,-376.12 -454.48,-409.56l10.6 134.64c-228.52,134.28 -255.8,60.88 -541.12,65.72 -55.44,69.48 -40.64,55.92 -101.96,104.08 44,107.52 281,344.08 -99.92,346.36 -163.72,1 -319.28,-28.24 -505.96,-36.84z"/>
   <path class="fil3" d="M5334.46 3113.66c124.08,-169 171.6,-60.32 250.44,-185.72 -106.4,-34.88 -128.88,-129.96 -157.32,-245.88 129.52,-104.68 149.36,-131.24 318.28,-181.96 155.28,-46.64 275.08,-76.04 444.32,-71 80.52,-95.48 -85.16,-21.84 76.56,-74.64 -58.96,-133.72 -67.4,-156.96 11.44,-266.08 230.52,-319 274.04,-86.8 407.8,-408.56 62.76,-151 87.92,-130.56 99.6,-313.04 -10.48,-126.84 2,-144.76 145.28,-184.4 64.04,-17.76 179.32,-39.48 244.04,-43.96 313.2,-115.44 428.72,-176.08 844.8,-190.68 -64.4,165.8 -102.88,261.36 141.8,296.64 133.68,19.24 349.44,28.6 476.6,-19.12 23.72,-197.88 20.68,-176.52 -96.32,-257.16 314,16.04 557.56,140.68 796.04,255.4 389.12,187.2 319.92,178.04 560.64,516.6 224.84,15.6 69.96,-45.2 192.04,100.28 212.24,33.44 301.92,190.4 454.48,409.56 211.24,303.48 387.88,378.4 598,687.48 100.92,148.48 144.4,79.72 181.24,264.72 55.88,280.4 -128.68,503.12 -254.48,643.92l54.56 41.8c154.04,57.68 176.6,105.04 335.72,120.44 94.44,-91.32 108.52,-16.8 277.08,13.08 -54.8,-634.8 -263.4,-721.44 -333.04,-937.36 -270.08,-837.2 -529.04,-1260.32 -1134.56,-1879.68 -77.16,-78.88 -133.32,-167 -204.96,-235.36 -54.56,-52 -190.6,-149.76 -244,-194.84 -92.32,-77.88 -16.64,-30.44 -120.12,-84.32 -286.04,-148.88 -1060.24,-190.48 -1360.96,-178.2 -150.52,6.16 -211.56,38.84 -369.84,48.8 -905.48,57.08 -437.04,-48.88 -1309.96,383.16 -149.72,74.12 -649.4,460.88 -715.8,605.32 -142.72,310.48 -48.44,234.04 -375.44,472.76l-776.44 712c-119.64,137.08 -520.6,507.84 -412.52,628.88 17.48,11.44 -40.64,64.56 97.36,7.44 97.64,-40.4 145.96,-245.16 557.44,-259.6 115.44,-4.08 140.24,-24.6 300.2,3.28z"/>
   <path class="fil4" d="M8725.14 11965.18l-248.88 481c-383.76,0.44 -457.6,-139.36 -816.24,-192.24 -566.64,-83.6 -1150.76,3.2 -1612.56,302.24 -379.8,246 -595.36,133.76 -762.92,96.68 74.2,218.96 101.8,215.4 262.4,351.4 137.24,116.2 174.04,172.2 385.24,207.72 302.52,-29.84 91.96,28.32 286.68,-108 85.32,-59.68 223.44,-82.44 329.4,-47.64 151.52,49.76 212.96,171.24 650,212.32l308.44 -232.68c108,-93.36 189.24,-82.2 293.32,-104.72 100.32,-21.68 64.64,13.08 110.92,-43.48 -293.28,-74.64 -339.72,36.36 -524.8,40.88 -91.16,2.2 -140.88,-81.88 -227.56,-5.84 -66.8,58.6 -21.88,126.48 -104.72,223.76 -157.16,-31.88 -156.68,-155.6 -108.8,-266.92 74,-122.04 216.12,-136.2 345.84,-198.4 14.88,-52.72 -73.32,-58.44 11.12,-185.52 125.76,-189.32 823.48,-15.8 1012.44,147.28 314.24,271.2 305.72,189.64 395.04,283.16 52.32,54.76 66.84,107.16 112.44,164.16l44.2 45.84c138.4,109.28 588.52,-200.88 511.16,-577.68 -21.6,-105.16 -145.24,-313 -232.04,-408.32 -329.2,-361.48 -48.36,-189.6 -225.48,-446.48l-143.56 -76.12 -157.92 11.8c20.88,24.52 50.6,65.64 90.96,100.52 116.88,101 201.72,84.8 241.84,353.48l-225.96 -128.2z"/>
   <path class="fil5" d="M7174.9 1138.42l38.96 65.8c30,-49.92 -8.36,-100.68 166.4,-61.48 84.8,19.04 76.24,26.64 122.12,94.12 -64.88,154.32 -112.56,118.76 -289.2,157.04 -124.36,26.92 -229.24,67.76 -362.52,87.8l-51.52 -92.2c-2.04,-12.4 -9.12,-15.08 -13.56,-22.72 -11.68,182.48 -36.84,162.04 -99.6,313.04 -133.76,321.76 -177.28,89.56 -407.8,408.56 -78.84,109.12 -70.4,132.36 -11.44,266.08 -161.72,52.8 3.96,-20.84 -76.56,74.64 252.2,-21.88 328.04,12.8 559.04,-18.88 8.48,-5.8 22.36,-22.24 27.36,-14.16l502.64 -218.16c-117.76,-6.52 -283.6,-42.16 -381.56,-43.32 -207.36,-2.48 -231.28,58.2 -344.4,-83.08 106.2,-117.8 427.84,-90.64 621,-76.6 414.4,30.16 295.44,90.36 630.12,-85.88 2.56,-19.76 9.2,-105.08 9.88,-109.44 1.4,-9.4 3.4,-21.24 4.92,-30.28l1003.28 -107.2c-0.52,-112.08 7.04,-104.76 44.44,-179.28 322.48,-97.12 258.72,18.36 486.2,117.68 197.36,86.2 330.76,98.72 545.36,159.6 -240.72,-338.56 -171.52,-329.4 -560.64,-516.6 -238.48,-114.72 -482.04,-239.36 -796.04,-255.4 117,80.64 120.04,59.28 96.32,257.16 -127.16,47.72 -342.92,38.36 -476.6,19.12 -244.68,-35.28 -206.2,-130.84 -141.8,-296.64 -416.08,14.6 -531.6,75.24 -844.8,190.68z"/>
   <path class="fil6" d="M6048.14 11943.98c-111.48,37.72 -96.92,-12.76 -234.4,109l-476.2 440.64c-58.96,68.84 -41.48,9.76 -60.12,101.32l7.12 57.92c167.56,37.08 383.12,149.32 762.92,-96.68 461.8,-299.04 1045.92,-385.84 1612.56,-302.24 358.64,52.88 432.48,192.68 816.24,192.24l248.88 -481c-156.08,-67.92 -461.64,-153.56 -655.4,-168.88 -467.72,-36.96 -29.48,-66.92 -708.24,-24.08l-1313.36 171.76z"/>
   <path class="fil0" d="M8822.46 1642.1c106.04,75.68 219.8,135.88 306,196.12 -102.92,82 -194,56.16 -313.28,66.36 -172,14.68 -141,42.44 -315.08,22.04 -238.36,-27.88 -444.2,-58.6 -695.72,-37.6 -334.68,176.24 -215.72,116.04 -630.12,85.88 -193.16,-14.04 -514.8,-41.2 -621,76.6 113.12,141.28 137.04,80.6 344.4,83.08 97.96,1.16 263.8,36.8 381.56,43.32 135,-44.44 223.64,39.04 335.08,79.96 96.72,35.52 287.8,15.56 382.88,19.8l854.96 176.68c186.68,8.6 342.24,37.84 505.96,36.84 380.92,-2.28 143.92,-238.84 99.92,-346.36 61.32,-48.16 46.52,-34.6 101.96,-104.08 285.32,-4.84 312.6,68.56 541.12,-65.72l-10.6 -134.64c-122.08,-145.48 32.8,-84.68 -192.04,-100.28 -214.6,-60.88 -348,-73.4 -545.36,-159.6 -227.48,-99.32 -163.72,-214.8 -486.2,-117.68 -37.4,74.52 -44.96,67.2 -44.44,179.28z"/>
   <path class="fil3" d="M371.18 4253.34l41.8 -33.68c117.64,-106.04 151.12,-176.2 328.04,-253.52 181.64,-79.4 407.32,-27.04 559.92,9.08 110.44,-84.04 429.48,-168.72 565.92,-102.2 -71.32,185.04 -13.2,5.28 -391.64,217.6 -206.88,116.04 -191,129.04 -247.28,380.48 121.72,-97.64 218.72,-198.56 376.64,-257.44 132.4,-49.32 417.64,-78.28 473.2,-127.08l-48.84 -117.6c230.88,3.92 326.16,-71.16 589.76,-62.72 754,24.24 609.2,454.56 968.84,366.96 211.88,-51.64 66.76,-143.08 228.8,-394.76l-429.44 -200.6c-680.08,-240.44 -1247.6,-240.96 -1962.84,-155.44 -262,31.32 -285.08,40.04 -488.4,129.04 -269.6,117.96 -629.08,235.4 -564.48,601.88z"/>
   <path class="fil7" d="M8107.46 6251.46c-255.56,215.72 -180.4,206.56 -605.08,127.92 -127.28,-23.56 -494.88,-183.52 -545.88,-233.56l-100.12 49.72c-179.24,-27.76 -799.68,-368.52 -1312.84,102.04 -164.64,151 -248.16,178.68 -236.8,326.12l49.76 51.48c216.08,-91.72 174.4,-186.8 497.48,-210.56 159,5.64 199.56,-50.2 389.8,-79.84 159.32,68.6 346.68,50.08 456.28,63.4 213.92,26 236.4,80.36 417.24,148.64l-70.16 147.52c77.16,48.6 12.32,20.12 58.72,-11.8 102.08,-167.16 268.72,29 390.24,85.56l-6.48 641.12c96.48,-92.48 140.76,-460.72 182.76,-620.4 45.64,-173.64 35.88,-170.12 170.36,-234 119.84,-56.96 225.92,-83.76 357.84,-98.04l61.56 21.76c721.64,43.84 587.2,-290.16 1128.44,-282.16 306.04,4.48 340.68,135.52 374.16,-38.44 -166.12,-481.24 -918.84,-148.32 -1219.6,-60.8 -206.32,60.04 -107.24,43.28 -209.52,98.84 -124.2,67.44 -91.04,26.8 -228.16,5.48z"/>
   <path class="fil8" d="M1633.78 4384.58c-66.12,-151.56 98.76,-180.48 222.8,-99.72 -49.96,130.12 -102.72,165.64 -222.8,99.72zm-405.84 86.52c-69.44,289.24 62.96,579 241.2,697.88 34.64,-116.12 -51.48,-20.32 78.68,-99.64l-89.72 -107.16c49.48,-106 22.08,-121.44 91.76,-186.44 6.64,-6.2 161.24,-95.64 169.6,-99.68 525.12,-253.64 1008.32,208.4 1033.24,412.28 -116.88,-26.56 -129.48,-68.08 -231.24,-132.92 -101.48,-64.68 -176.28,-90 -274.44,-129.2 -2.52,297.52 186.24,587.56 336.44,764.44 390.88,23.16 229.88,-134.96 322.4,-442.28 64.16,-213.04 260.24,-337.08 184.56,-536.6 -149.68,41.64 6.76,-2.4 -94.24,52.04 -90.92,48.96 -208.28,8.4 -228.6,-6.4 50.44,-120.36 11.52,-18.84 61.68,-92.72 73.16,-107.72 29.84,12.48 65.16,-115.2l-91.68 -39.76c-129.04,54.92 -19.56,103.24 -233.16,99.56 -143.88,-2.48 -90.12,-112.52 -155.44,-193.28 -82.96,52.68 -91.04,59.6 -186.96,54.64 -37.56,-235.92 131.88,-200.96 -149.4,-284.08 -55.56,48.8 -340.8,77.76 -473.2,127.08 -157.92,58.88 -254.92,159.8 -376.64,257.44z"/>
   <path class="fil8" d="M3830.86 12316.78l61.32 199.56c121.56,-89.92 116.96,-134.92 184.4,-263.48 93.36,15.12 119.92,5.84 204.52,25.12 -6.36,109.88 -7.4,113.12 -37.24,204.04 -118.88,362 -174.24,81.48 -324.88,180.24 177.96,131.6 355.52,369.52 572.76,441.12 38.08,-88.92 115.56,-224.08 225.32,-299.88 141.92,131.48 84.88,453.4 264.2,623.08 184.32,-86.04 -55.08,-119.84 183.08,-155.4 167.24,-24.96 163.68,150.28 539.12,59.24l228.72 -118.44c-211.2,-35.52 -248,-91.52 -385.24,-207.72 -160.6,-136 -188.2,-132.44 -262.4,-351.4l-7.12 -57.92c-199.24,80.48 -100.72,14.56 -217.84,131.96 -90.88,91.12 -93.16,115.04 -207,23.64 -40.08,-84.76 24.56,-239.8 20.88,-359.76 -101.08,6.6 -208.04,2.96 -270.96,74.84 -90.92,103.84 -19.72,131.48 -121.2,139.44 -165.4,13.04 -45.72,-95.84 124.56,-615.8 -52.96,6.12 -142.28,8.16 -161.8,11.76 -94.32,17.32 -33,33.12 -132,29.64 -132.52,-4.68 -168.08,-81.88 -182.68,-227.24l-298.52 513.36z"/>
   <path class="fil4" d="M7489.62 7459.22l-40 580.28c297.12,-37.64 270.08,21.56 519.92,73.16 302.44,62.48 295.08,-71.68 506.72,-62.2 70.96,157.52 -111.44,-8.28 30.64,157.28 120.2,-61.6 83.64,-143.12 139.44,-260.48 86.48,-181.84 150.6,-25.64 168.72,-203 -15.48,-84.88 -25,-56.4 -71.2,-136.08 -397.04,0.04 -204.72,133.48 -735.76,-6.2 23.28,-238.68 34.2,-468.08 125.48,-668.72 -247.36,-71.6 -120.88,53.08 -329.48,50.04 -19.72,-173.84 -27.88,-51.6 43.4,-140.92 29.8,-37.28 88.76,-81.84 122.28,-117.84 80.8,-86.68 160.52,-158.76 230.8,-217.76 -131.92,14.28 -238,41.08 -357.84,98.04 -134.48,63.88 -124.72,60.36 -170.36,234 -42,159.68 -86.28,527.92 -182.76,620.4z"/>
   <path class="fil4" d="M3830.86 12316.78l298.52 -513.36c91.72,-39.32 84.68,-64.56 146.16,-137.88 66.84,-79.72 87.8,-54.12 82.04,-141.72 -138.32,-73.48 -271,224.92 -306.88,320.6 -201.56,-9.76 -206,-27.88 -156.16,-180.64 118.48,-363.2 61.8,-436.44 442.48,-807.68l-82.56 -203.56c-145.72,-140.2 -39.44,-282.28 0.36,-465 43.76,-201.04 63.04,-625.8 158.36,-923.68 65.12,-203.4 149.24,-335.8 98.16,-401.44 -720.44,1324.2 -457.92,1582.88 -758.36,2278.96 -233.88,541.88 -90,846.64 -70.68,1186.44 70.16,-100.4 76.24,-53.76 148.56,-11.04z"/>
   <path class="fil8" d="M8821.94 13090.34c33.96,209.84 67.6,236.84 295.12,240.2 124.52,1.8 345.32,0.16 461.48,-24.84 416.36,-89.52 311.2,-911.68 248.44,-1057.08 -125.08,-289.68 -729.48,-466.56 -907.2,-544.92 177.12,256.88 -103.72,85 225.48,446.48 86.8,95.32 210.44,303.16 232.04,408.32 77.36,376.8 -372.76,686.96 -511.16,577.68l-44.2 -45.84z"/>
   <path class="fil9" d="M8830.14 11370.62l15.72 -108.28c263.24,33.04 488.84,210.36 813.08,131.96 199.68,-48.32 106.44,-119.8 343.84,-130.88 217.12,-10.16 186.24,-2.44 364.68,-72.84 15.32,-191.72 2.32,-194.44 -10.36,-314.08 -350.72,112.64 23.6,127.72 -692.68,253.56 -181.4,31.84 -17.68,16.6 -172.16,82.68 -93.36,-67.2 -303.24,-155.44 -450.24,-210.92 -363,-137 -449.76,-10 -480.72,-1.04 -70.92,20.56 -127.8,-10.52 -259.48,16.72l-750 176.52 12.6 206.44c484.2,27.04 773.64,-10.08 1182.76,79.2l66.68 -90.28c2.44,-11.48 10.92,-12.44 16.28,-18.76z"/>
   <path class="fil8" d="M15155.82 5324.3c-3.44,-4.52 -5.48,-13.32 -5.92,-15.96l2.72 -142.76c7.72,-210.88 -42.52,-336.24 -248.32,-386.6 -55.08,128.24 -49.88,223.2 -87.88,357.92 -40.68,144.32 -101.88,194.44 -146.6,293.28 -55.44,122.64 -41.36,242.48 -68,372.64 -63,307.6 -455.6,1258.04 -433.96,1763.48l197.44 0.8c146.6,-369.68 151.28,-831.44 314.12,-1176.88 125.72,-266.68 339.84,-417.72 368.44,-752.52 27.32,-320.08 -13.32,-92.88 107.96,-313.4z"/>
   <path class="fil10" d="M14904.3 4778.98c205.8,50.36 256.04,175.72 248.32,386.6l-2.72 142.76c0.44,2.64 2.48,11.44 5.92,15.96 114.16,-103.16 449.76,-757.8 382.32,-952 -45.92,-104 -50.92,-24.48 -191.84,-214.36l-171.96 -272.6c-63.6,-90.44 -136.28,-127.88 -224.72,-179.84 -282.2,-165.68 -1499.36,-178.72 -1832.96,70.24 238,38.8 427.2,-1.76 608.24,-41.44 288.68,-63.36 302.96,-142.68 668.88,-17.2 301.84,103.48 522.48,320.56 539.76,662.68 10.84,214 21.68,217.08 -29.24,399.2z"/>
   <path class="fil11" d="M5445.18 9806.94c11.96,136.48 10.52,80.96 -59.92,113.88 27.04,101.48 -23.6,45.48 43,84.44 167.76,-49.48 414.08,-89.04 597.2,-118.88 202.2,-32.96 341.04,-116.36 517.88,-183.52 350.32,-133.04 771.24,-136.36 1142.72,-178.48 623.52,-70.72 909.16,206.76 1100.12,271.76 375.56,127.84 589.12,269.04 1086.04,320.76l-409.6 -432.8c-638.44,181.92 -481.68,-9.88 -981.68,-157.48 -228.44,-67.44 -761.16,-226.32 -989.48,-242.04 -252.16,-17.36 -864.04,140.12 -1042.24,255.2 -141.8,91.6 -271,192.2 -482.52,200.24 -340.56,12.92 83.76,-133.4 -521.52,66.92z"/>
   <path class="fil12" d="M4375.58 7134.98c-549.24,92.32 -777.76,-73.56 -1022.6,-402.24 -415.84,-558.28 -135.28,-701.84 -93.28,-797.64 136.28,-310.64 -23.2,-324.64 -25.28,-327.12 -44.52,240.64 -147.68,214.96 -244.28,368 -164.56,260.64 84.96,661.64 110.32,745.36 107.52,354.92 212,186.96 459.36,412.52 98.6,89.92 60.56,101.96 116.12,191.32 92.56,148.96 32.84,32.84 174.08,130.2l378.32 502.08c200.24,256.32 -27.92,468 161.08,673.64 -6.28,-192.88 29.92,-268.44 35.8,-424.52 25.6,-681 -51.32,-901.08 -49.64,-1071.6z"/>
   <path class="fil13" d="M3938.26 4830.42c59.96,49.92 18.6,-38.24 64.16,57.84 -72.68,194.2 -108.04,428.48 -101.76,685.64 9.76,399.16 548.4,551.64 651.36,555.96 111.96,4.68 47.76,-27.68 159.16,-6.72 158,29.76 149.84,216.32 549.72,-67.28l109.76 -113.04c7.32,-9.32 15.36,-21.2 22.44,-32.2 -383.32,45.04 -1312.16,-118.04 -1150.48,-876.72 21.92,-103 73.04,-151.96 103.04,-237.8 36.6,-104.88 0.04,-160.72 -2.04,-307.88l-53.92 33.08c-7.48,4.8 -16.96,10.48 -24.84,15.68l-97.68 72.68c-5.28,4.12 -12.64,10.72 -18,14.88 -5.52,4.28 -13.28,10.64 -18.96,14.92 -5.84,4.44 -13.92,10.44 -19.88,14.8l-101.32 73.12c-52.68,50.32 -22.72,13.2 -70.76,103.04z"/>
   <path class="fil7" d="M5971.38 9472.38c359.52,-14.88 131.8,-52.64 389.88,-160.48 497.36,-207.88 773.72,-261.72 1314.64,-273.24 374.4,-8 530.52,15.04 861.72,164.08 483.52,217.6 271.76,255.16 525.64,250.32 76.12,-1.44 156.4,0.68 200.84,-9.76 6.92,-108.04 -200.24,-186.16 -309.6,-250.6 -651.44,-383.88 -758.6,-353.56 -1392.68,-372.04 -1288,-37.56 -891.16,26.32 -1285.72,375.4 -136.44,120.72 -35.76,66.6 -265.32,243.48 -4.24,3.28 -16.6,22.36 -19.64,16.24 -3.12,-6.16 -13.68,10.52 -19.76,16.6z"/>
   <path class="fil10" d="M12420.38 4366.18c55.4,-56.6 364.04,-198.44 450.72,-222.96 366.48,-103.6 1339.8,-167.88 1517.8,402.4 75.08,24.36 48.28,20.08 84.32,42.6 5.4,3.36 13.96,9.44 19.52,13.08l57.92 41.24c73.48,51.92 101.28,78.2 159.44,126.2 176.68,-780.68 -381.12,-1008.28 -862.28,-872.12 -245.36,69.44 -1290.52,-42.28 -1642.48,244.4 32.68,71.2 17.68,59.2 79.52,129.4 27.72,31.48 23.16,26.64 51.52,48.16 79.32,60.16 17.92,21.36 84,47.6z"/>
   <path class="fil14" d="M8262.14 6528.54c0.44,154 -17.6,105.08 34.44,260.36 153.12,-83.4 781.92,-344 953.8,-304.96l240.12 182.48c104.28,58.6 210.24,129.04 220.16,249.96 7.8,94.8 -47.6,298.16 -47.52,456.52 99.2,42.4 40.72,65.72 192.28,74.44 91.32,-15.28 175.36,-40.64 229.68,-168.36 64.08,-150.6 -44.04,-446.52 -83.12,-623.28 -48.28,-157.48 -84.08,-188.24 -155.84,-318.44l-81.4 -129.32c-33.48,173.96 -68.12,42.92 -374.16,38.44 -541.24,-8 -406.8,326 -1128.44,282.16z"/>
   <path class="fil15" d="M12420.38 4366.18c96.44,165.2 95.92,67.2 265.96,178.16 82.36,53.72 184.36,128.76 260.28,179.36l212.2 -123.84c7.76,-3.64 16.12,-8.04 24,-11.64 25.64,-11.6 20.8,-10.76 49.64,-22.36 47.12,-19 38.2,-12.72 77.88,-26.84 285.6,-101.64 592.08,-143.24 898.24,-66.16 141.08,35.52 51.76,11 180.32,72.76 -178,-570.28 -1151.32,-506 -1517.8,-402.4 -86.68,24.52 -395.32,166.36 -450.72,222.96z"/>
   <path class="fil16" d="M797.58 7799.42c540.36,412.44 997,163.2 1053.92,-144.24 -125.68,-71.12 -334.8,-283.08 -429.8,-413.56 -23.4,-32.16 -187.72,-413.44 -489,31.68 -162.84,240.52 -129.64,193.44 -135.12,526.12z"/>
   <path class="fil4" d="M371.18 4253.34c-14.04,632.16 61.96,729.04 363.76,1096.44 27.68,-247.08 -57.76,-673.12 286.92,-628.76 19.76,-222.04 -2.6,-238.52 64.68,-445.72 83.68,-257.8 137,-141.72 214.4,-300.08 -152.6,-36.12 -378.28,-88.48 -559.92,-9.08 -176.92,77.32 -210.4,147.48 -328.04,253.52l-41.8 33.68z"/>
   <path class="fil5" d="M6676.94 7862.82c23.28,132.64 24.56,110.68 142.44,137.88 203.2,46.92 132.32,-21.68 133.6,150.72l314.08 -98.92c21.96,-267.4 57.84,-463.28 48.12,-742.12 -10.36,-297.48 10.28,-439.92 -209.32,-577.84 -46.4,31.92 18.44,60.4 -58.72,11.8l70.16 -147.52c-180.84,-68.28 -203.32,-122.64 -417.24,-148.64 -109.6,-13.32 -296.96,5.2 -456.28,-63.4 95.6,121.72 203.76,39.16 395.56,176.52l186.4 221.04c194.28,237.48 163.68,800.8 130.72,898.36 -61.52,181.88 -134.64,71.36 -161.84,52.88 -93.32,-63.28 -41.16,36.68 -95.76,-84.12l-21.92 213.36z"/>
   <path class="fil17" d="M3300.26 11628.98c26.6,-278.56 -110.72,-143.56 107.2,-965.68 71.96,-271.52 300,-629.08 261.48,-921.12l-171.08 -0.92c-80.52,114.68 24.44,87.76 -127.28,204.2 -106.96,82.08 -84.88,54.44 -157.56,188.64 -93.64,172.8 -130.88,302.56 -177.08,502.84 -46.72,202.44 -77.64,413.32 -48,623.12 30.32,214.52 80,385.6 312.32,368.92z"/>
   <path class="fil8" d="M9372.86 4386.3c33.48,172.24 -38.24,258.28 -60.6,405.04 477.24,-234.72 1124.96,-218.56 1570.32,-260.92 289.6,-27.52 280.96,41.84 528.6,69.08 -207.88,-503.8 -1363.6,-343.4 -1787.04,-232.6 -156.2,40.88 -106.28,79 -251.28,19.4z"/>
   <path class="fil18" d="M12736.3 6333.86c201.32,1.24 190.8,23.24 236.28,-196.6 64.56,-312.12 -182.68,-752 183.32,-1033.36 162.28,-124.76 426.48,-227.6 670.64,-106.24 41.88,20.84 182.2,114.28 230.76,174.12 82.84,102.04 72.36,175.16 131.96,294.32 69.96,-305.8 91.04,-152.84 -2.96,-457.92 -265.04,67.56 -203.68,-26.6 -243.4,-179.2 -366.6,-57.12 -862,-10.24 -1100.52,268.16 -125.92,146.96 -156.08,949.6 -106.08,1236.72z"/>
   <path class="fil19" d="M11216.66 10346.82c224.56,160.6 296.64,636.84 409.16,874.84 96.56,-105.48 40.32,-64.6 80.28,-233.4 -281.72,-196.2 -477.84,-1171.36 -647.84,-1498.88 -155.04,-298.76 -97.04,-738.6 -124.12,-1005.04l-117.56 -42.24c-153.52,-34.12 -135.08,37.48 -301.76,-24.92 19.52,211.2 232.12,802.08 317.4,997.56l384.44 932.08z"/>
   <path class="fil20" d="M5306.74 6623.7c-198.64,148.96 -103.2,380.44 -9.2,573.88 83.36,176.08 59.6,147.44 272.44,265.52 113.16,62.76 239.92,158.16 327.84,194.92l113.28 -462.68c4.32,-160.56 -34.8,-136.12 -92.12,-218.92l-82.28 -180.36 -124.56 42.08c-71.68,42.08 -59.6,79.2 -71.72,109.28l-42.84 84.96c-96.8,-105.56 -115.52,-228.44 -29.16,-334.84 94.88,-116.88 203.04,-120.52 285.56,-232.92 -323.08,23.76 -281.4,118.84 -497.48,210.56l-49.76 -51.48z"/>
   <path class="fil8" d="M7279.22 2177.9l-502.64 218.16c-5,-8.08 -18.88,8.36 -27.36,14.16l1461.56 250.92c188.16,-130.8 457.24,-87.72 641.36,-206.8l-854.96 -176.68c-95.08,-4.24 -286.16,15.72 -382.88,-19.8 -111.44,-40.92 -200.08,-124.4 -335.08,-79.96z"/>
   <path class="fil16" d="M6642.9 9900.5c25.12,168.08 21.68,69.28 42.84,135.52 55.44,173.4 17.92,199.64 130.96,341.4l271 3.52c111.88,-21.52 36,-181.84 270.96,-244.68 109.28,89.16 38.64,87.64 135.44,172.16 205.08,-55.08 184.2,-7.96 216.88,-216.72 22.16,-141.44 32.8,-243.8 22.6,-387.12 -221.64,-1.52 -135.8,-6.4 -287.08,56.24 -75,31.04 -179.48,54.28 -265.56,59.56 -509.8,31.16 -140.56,66.4 -538.04,80.12z"/>
   <path class="fil8" d="M4511.34 8862.42c51.08,65.64 -33.04,198.04 -98.16,401.44 -95.32,297.88 -114.6,722.64 -158.36,923.68 -39.8,182.72 -146.08,324.8 -0.36,465 0.04,-0.32 223.44,-832.12 306,-902.48 5.48,-4.68 14.56,-9.4 20.24,-13.84 251.16,-195.64 62.16,-308.56 181.28,-767 31.92,-122.92 125.8,-481 56.68,-591.76 -152.16,27.8 -48.68,-35.76 -119.76,91.52l-187.56 393.44z"/>
   <path class="fil21" d="M4998.9 9867.02l3.08 -154.72c86.76,-72.48 60.4,-52.96 170.6,-124.72 161.6,-105.28 146.8,-291.44 214.32,-664.32 36.2,-200.08 155.6,-866.64 75.24,-1041.64 -199.44,-7.12 -79.6,-6.32 -122.6,60.68 -32.84,483.56 -194.96,830.44 -263.48,1315.88l-396.36 1001.6c-12.32,125.76 -36.72,46.88 52.2,133.84 61.12,-144.48 153.44,-418.28 267,-526.6z"/>
   <path class="fil5" d="M3556.98 5790.38l116.56 -10.12c13.6,-323.36 115.6,-748.2 264.72,-949.84 48.04,-89.84 18.08,-52.72 70.76,-103.04l101.32 -73.12c5.96,-4.36 14.04,-10.36 19.88,-14.8 5.68,-4.28 13.44,-10.64 18.96,-14.92 5.36,-4.16 12.72,-10.76 18,-14.88l97.68 -72.68c7.88,-5.2 17.36,-10.88 24.84,-15.68l53.92 -33.08c67.64,-522.6 129.76,-311.56 197.72,-570 -467.56,255.4 -134.84,-8.04 -414,318.84 -127.44,149.24 -105.12,-10.72 -375.84,403.28 -156.24,238.92 -99.2,257.64 -176,500.48 -83.64,264.44 -26.96,348.8 -18.52,649.56z"/>
   <path class="fil22" d="M11926.06 10685.82c-37.32,-167.04 -81.56,-356.92 -114.52,-492.88 -100.32,-413.76 -39.28,-420.56 -77.68,-560.52l-177.84 -1114.4c-14.28,-54.24 12.44,-167.24 -153.68,-101.8 -54.56,21.48 -81.6,92.2 -87.92,138.36 -9.4,68.68 417.12,1974.36 527.28,2126.96 97.04,134.4 57.6,47.44 84.36,4.28z"/>
   <path class="fil8" d="M8262.1 4577.74c-52.8,44.88 -87.88,96.96 -181.8,99.28 -151.16,3.76 -140.88,-71.4 -243.72,50l235.88 65.56c133.92,36.44 228.32,21.24 350.92,52.92 372.8,96.32 348.72,10.8 721.44,6.16 103.08,-132.84 147.72,-202.04 161.96,-417.84 -195.96,35.4 -295.84,13.64 -495.52,75.84 -188.28,58.64 -343.8,34.16 -549.16,68.08z"/>
   <path class="fil8" d="M9855.42 7447.34c-151.56,-8.72 -93.08,-32.04 -192.28,-74.44 -0.08,-158.36 55.32,-361.72 47.52,-456.52 -9.92,-120.92 -115.88,-191.36 -220.16,-249.96 29.6,134.6 98.36,522 -32.12,595.84l-43.36 -261.28c-12.56,-164 7.48,-159.4 -159.84,-190.92l-6.08 41.72c-40.76,325.4 -142.28,290.88 -124.04,445.48 11.92,100.8 84.6,127.48 137.64,195.2 65.68,83.88 80.84,166.56 129.52,236.52 188.36,-51.4 390.76,-123.76 463.2,-281.64z"/>
   <path class="fil19" d="M6856.38 6195.54l100.12 -49.72c51,50.04 418.6,210 545.88,233.56 424.68,78.64 349.52,87.8 605.08,-127.92 -452.96,-302.68 -681.36,62.36 -988.08,-103.92 84.08,-149.16 106.24,-85.68 266.96,-146.28 68.92,-26 24.6,-2.28 68.92,-32.68 -141.96,-26.48 -120.28,-13.76 -196.8,-84.96 5.2,-153.72 -6.28,-108.24 100,-201 -345.16,41.6 -398.76,69.84 -650.36,251.56 80.2,126.64 -10.76,27.64 138.8,111.76l9.48 149.6z"/>
   <path class="fil14" d="M5713.34 4183.46l20.88 65.64c204,3.4 206.12,-12.88 407.44,63.6 166.72,63.4 282.04,145.24 405.84,99.08l77.56 -446.16c-280.16,11.92 -545.44,-144.76 -861,-121.52 -29.96,100.44 -63.36,226.88 -50.72,339.36z"/>
   <path class="fil3" d="M8560.1 4248.26c-91.32,73.84 -101.44,-11.12 -285.92,135.16l-12.08 194.32c205.36,-33.92 360.88,-9.44 549.16,-68.08 199.68,-62.2 299.56,-40.44 495.52,-75.84 -15.08,-208.52 17.44,-191.48 -47.28,-388.76 -136.68,-9.8 -613.84,120.52 -699.4,203.2z"/>
   <path class="fil4" d="M10954.74 8118.06c-69.24,-151.12 -108.76,28.68 -134.56,-175.2 -10.76,-85 12.4,-236.92 -2.48,-340.2 -43.92,-304.8 -277.8,-220.44 -321.28,-326.96l-356.24 395.84c88.4,188.12 305.88,98.04 392.04,253 54.4,97.8 -26.04,152.28 129.4,193.04 70.48,18.44 173.84,-10.04 293.12,0.48z"/>
   <path class="fil8" d="M3673.54 5780.26l-116.56 10.12c-4.2,782.68 283.84,686.68 416.6,732.28l450.76 194.48c47.2,16.8 88.16,34.72 126.8,31.12 123.92,-11.64 132.4,-64.16 57.8,-184.64 -126.88,-204.88 -371.76,-21.84 -797.36,-493.12 -174.76,-193.56 -81.68,-142.56 -138.04,-290.24z"/>
   <path class="fil4" d="M4441.58 4425.06c150.64,-45.56 227.72,-101.48 376.56,-142.92 143.56,-39.92 288.6,-46.84 445.64,-78.12l53.64 -420.52c-136.12,25.48 -455.64,-15.28 -614.04,83.84 -116.96,73.16 -27.84,-5.44 -92.12,112.24 -24.92,45.68 -40.8,77.68 -71.6,127.8 -77.36,125.84 -89.04,143.48 -98.08,317.68z"/>
   <path class="fil8" d="M7198.26 13268.66l1026.4 142.88c167.88,-235.44 -193.88,-473.72 -313.72,-523.76 -46.28,56.56 -10.6,21.8 -110.92,43.48 -104.08,22.52 -185.32,11.36 -293.32,104.72l-308.44 232.68z"/>
   <path class="fil23" d="M5849.34 11478.66c298.28,118.76 396.28,34.28 724.28,9.92 195.56,-14.48 697.64,-35.12 840.44,-104.76 -10.32,-19.04 -22.08,-43.92 -37.72,-74.04l-51.56 -96.92c-561.96,4.84 -360.8,34.56 -510.32,48.12 -69.92,6.36 12.6,0.28 -79.44,-12.16l-435.52 40.16c-9.04,2.2 -34.6,10.48 -44.84,12.72 -234.32,51 -265.52,-22.32 -369.24,115.56 -85.92,114.2 42.92,-21 -36.08,61.4z"/>
   <path class="fil8" d="M5785.02 5851.98c384.44,-3.76 188.4,-88.84 394.24,-154.44 68.36,-21.84 83.36,12.8 171.4,-49.48 44.48,-31.44 67,-76.08 143.72,-127.76 67.76,-45.68 97.12,-61.68 172.2,-98 67.92,-32.88 141.12,-48.6 191.96,-76.68l43.56 -35.24c223.2,-209.36 178.68,-8.72 183.16,-212.72 -152.8,-61.36 -246.04,-15.48 -374.68,60.08 -199.56,117.24 -872.04,325.12 -925.56,694.24z"/>
   <path class="fil15" d="M6635.5 4444.1c382,13.72 415.08,25.16 607.48,287.96l140.16 -40.64c24.08,-153.88 -19.28,-434.64 -124.72,-510.56 -48.24,-34.68 -483,-123.36 -554.96,-134.44l-67.96 397.68z"/>
   <path class="fil8" d="M6547.5 4411.78c-123.8,46.16 -239.12,-35.68 -405.84,-99.08 -201.32,-76.48 -203.44,-60.2 -407.44,-63.6l-20.88 -65.64c-56.92,83.72 -52.36,296.4 -14.16,406.52 298.36,143.88 544.88,40.96 778.92,123.48l69.4 -301.68z"/>
   <path class="fil22" d="M1620.7 6035.66c7.28,-207.56 -213.92,-399.84 -307.2,-546.56 -149.6,-235.32 -153.44,-428.2 -452.52,-417.44 -25.32,171.28 305.36,703.68 434.76,872 90.72,118.04 133.76,123.52 324.96,92z"/>
   <path class="fil1" d="M11124.3 3887.86l-54.56 -41.8c-421.36,-188.44 -16.8,-72.52 -746.68,-292.08 -124.16,-37.36 -311.92,-100.2 -455.96,-81.96 -100.08,12.68 -261.08,142.48 -313.24,235.84 292.36,-73.32 531.56,-35.48 825.08,64.28 287.96,97.84 469.4,181.48 797.88,235.8l-52.52 -120.08z"/>
   <path class="fil24" d="M4948.66 5416.26c210.92,107.24 511.36,99.68 599.8,-183.12 -132.04,-409 -794.52,-494.84 -599.8,183.12z"/>
   <path class="fil25" d="M10481.9 7111.62l14.52 164.08c43.48,106.52 277.36,22.16 321.28,326.96 14.88,103.28 -8.28,255.2 2.48,340.2 25.8,203.88 65.32,24.08 134.56,175.2 107.08,-74.48 81.52,-193.28 136.08,-374.28 50.52,-167.76 119.08,-209.56 86.12,-410.76 -217.84,8.56 -360.68,83.92 -634.84,-278.56l-60.2 57.16z"/>
   <path class="fil8" d="M1999.1 6078.58c26.32,73.56 51.76,168.16 104.52,245.28 136.56,199.64 252.88,374.32 522.44,406.52l184.44 -41c-29.56,-97.08 -67.8,-109.8 -138.92,-190.08l-459.6 -528.68c-139.4,15.12 -129,26.48 -212.88,107.96z"/>
   <path class="fil4" d="M7836.58 4727.02c102.84,-121.4 92.56,-46.24 243.72,-50 93.92,-2.32 129,-54.4 181.8,-99.28l12.08 -194.32c184.48,-146.28 194.6,-61.32 285.92,-135.16 -318.68,19.56 -348.6,-215.28 -574.12,-88.48 -165.08,92.8 -271.2,257.48 -247.92,529.28l98.52 37.96z"/>
   <path class="fil8" d="M4441.58 4425.06l5.48 244.2c465.84,-175.32 404.08,-79.84 872.76,-78.36l-56.04 -386.88c-157.04,31.28 -302.08,38.2 -445.64,78.12 -148.84,41.44 -225.92,97.36 -376.56,142.92z"/>
   <path class="fil8" d="M7804.38 1889.02c251.52,-21 457.36,9.72 695.72,37.6 174.08,20.4 143.08,-7.36 315.08,-22.04 119.28,-10.2 210.36,15.64 313.28,-66.36 -86.2,-60.24 -199.96,-120.44 -306,-196.12l-1003.28 107.2c-1.52,9.04 -3.52,20.88 -4.92,30.28 -0.68,4.36 -7.32,89.68 -9.88,109.44z"/>
   <path class="fil26" d="M11023.86 6100.74l152.8 408.56c136.08,-111 289.4,-137.88 477.52,-197.28 -19.28,-132.16 -116.96,-428.92 -259.96,-530.76 -103.12,227.8 -185.32,162.96 -370.36,319.48z"/>
   <path class="fil17" d="M6586.82 7556.22l-19.44 203.6 -311.6 -132.44c-132.68,-64.92 -202.88,-98.2 -196.84,-285.52l-49.6 200.92c-22.76,407.72 247.88,227.44 309.12,467.08 16.92,66.2 -74.28,39.72 49.56,316.24 59.52,132.84 -35.76,71.24 110.08,99.72 89.64,-114.96 35.56,-291.84 67.84,-444.36 24.16,-114.2 75.04,-174.96 66.32,-308.4l-25.44 -116.84z"/>
   <path class="fil24" d="M10097.5 5193.18c-123.48,-86.28 -263.68,-142.16 -502.52,-90.64 -128.8,205.44 -96.44,432.4 152.92,491.8 134.56,32.04 411.64,-74.28 349.6,-401.16z"/>
   <path class="fil27" d="M8495.06 10221.1c174.96,18.12 67.56,-170.12 157.16,-377.72 -558.2,-144.84 -290.12,-203.8 -597.88,-155.84 -27.92,126.12 6.52,385.64 102.08,438.52l338.64 95.04z"/>
   <path class="fil8" d="M7383.14 4691.42l-140.16 40.64c-192.4,-262.8 -225.48,-274.24 -607.48,-287.96l-48.6 330.12c290.72,57.88 349.88,171.6 598.36,84.12 7.76,-2.76 16.6,-6.2 24.2,-9.16 7.56,-2.96 16.68,-6.08 24.08,-9.32 147.68,-64.48 94.2,-19.28 149.6,-148.44z"/>
   <path class="fil18" d="M1761.46 7488.86c66.52,-94.28 84.6,-363.44 63.48,-481.84 -53.6,-300.56 150.56,-362.8 -242.04,-572 -306.72,-163.44 -101.44,-175.96 -320.76,-191.32 38.64,215.68 214.76,368.16 338.12,517.24 96.6,116.72 68.96,222 74,368.48 4.64,135.2 54.12,269.28 87.2,359.44z"/>
   <path class="fil8" d="M8506.9 8207.74c47.24,115.08 102.32,199.24 159.92,322.4 73.16,156.52 35.8,205.72 213.36,256.2 -81.28,-237.12 -5.72,-447.12 -13.08,-543.32 -9.52,-124.72 7.32,7.76 -56.52,-143.2 105.8,-71.8 116.2,-58.16 176.48,-157.36l-172 -198.2c-18.12,177.36 -82.24,21.16 -168.72,203 -55.8,117.36 -19.24,198.88 -139.44,260.48z"/>
   <path class="fil12" d="M8623.94 5437.02c78.92,127.92 356.64,100.2 231.68,242.44 -65.8,41.36 93.6,59.2 -102.04,24.56 -114.12,-20.24 -16.36,-5.04 -110.68,-64.4 -77.12,-48.56 -128.04,-60.68 -231.72,-77.84l-470.92 -52.52c-76.52,14.56 -25.8,-3.12 -66.32,28.68 144.4,149.08 1.52,-15.84 413.32,89.4 59.68,15.28 162.92,32.52 217.64,54.04 308.6,121.28 -37.52,156.92 495.76,7.12 116.32,-32.68 245.4,-38.76 322.24,-62.16 29.32,-87.12 -6.76,-75.56 -24.72,-211.12 -8.64,5.52 -20.28,5.96 -24.4,18.64 -15.36,47 -65.96,46.44 -106.52,44.84 -30.08,-1.2 -344.32,-136.76 -516.32,-140.08l-27 98.4z"/>
   <path class="fil28" d="M1469.14 5168.98c53.64,110.16 85.04,87.6 114.4,211.08 115.68,486.16 -1.72,88.96 277,474.32 58.4,80.72 89.48,172.08 138.56,224.2 83.88,-81.48 73.48,-92.84 212.88,-107.96 -190.32,-96.92 -417.76,-489.48 -471.8,-710.48 -42.12,-172.16 11.48,-192.16 -192.36,-190.8 -130.16,79.32 -44.04,-16.48 -78.68,99.64z"/>
   <path class="fil29" d="M11525.22 5668.3l164.08 449.68c72.76,152.48 25.08,73.12 105.68,117.4 17.6,-188.92 365.4,-58.92 88.84,-514.36 -79.16,-130.4 -71.4,-134.08 -183.68,-244.16l-174.92 191.44z"/>
   <path class="fil22" d="M5424.22 4586.58l165.96 1.64c2.32,-134.96 -2.56,-267.24 15.48,-398.4 7.48,-54.48 24.28,-109.96 37.48,-166.96 6.04,-26.2 17.8,-76.28 17.92,-86.52 1.52,-146.36 -7.96,-79.96 -29.6,-118.68 -252,-24.16 -263.04,-54.64 -278.36,262.56 -9.2,191.16 21.72,373.28 71.12,506.36z"/>
   <path class="fil12" d="M10685.1 6452.5c30.16,89.64 41.48,152 79.44,250.96 139.08,29.04 270.36,98.56 387.16,158.84 64.96,-57.44 51.28,-71.6 124.56,-108.8 92.36,-46.92 148.76,-18.04 145.6,-97.96 -4.64,-116.92 -5.24,-31.04 -270.16,-43.92 -75.76,-86.48 -113.16,-172.28 -135.28,-300.68 -112.24,30.44 -115.44,15.52 -196.6,83.8 -119.96,101 8.44,177.64 -134.72,57.76z"/>
   <path class="fil16" d="M5782.62 10200.02c63.12,104.24 49.04,128.08 119.08,217.4 84.04,107.12 78.68,32 120.08,162.64l76.72 25.36c46.36,-249.88 119.32,-143.32 214.4,-224.72l24.08 -379.8 -554.36 199.12z"/>
   <path class="fil27" d="M8400.14 10784.94c-6.24,-111.76 -28.64,-115.08 -33.6,-237.12 -3.36,-82.48 -0.16,-54.52 6.76,-119.44l9.36 -56.72c-124.96,-37.6 -204.16,-67.08 -366.48,-32.24l1.24 447.84c127.44,76 241.48,73.92 382.72,-2.32z"/>
   <path class="fil1" d="M10395.54 3113.78c92.04,41.2 199.6,29.8 308.72,64.76 34.92,11.16 114.56,37.52 149.64,54.44 123.68,59.68 222.2,107.72 182.4,-147.92 -38.4,-246.72 -391.64,-156.68 -657.68,-159.88 -6.28,59.52 -15.08,35.44 -6.68,106.12 10.92,91.6 14.64,61.24 23.6,82.48z"/>
   <path class="fil30" d="M6785.58 1366.78c4.44,7.64 11.52,10.32 13.56,22.72l51.52 92.2c133.28,-20.04 238.16,-60.88 362.52,-87.8 176.64,-38.28 224.32,-2.72 289.2,-157.04 -45.88,-67.48 -37.32,-75.08 -122.12,-94.12 -174.76,-39.2 -136.4,11.56 -166.4,61.48l-38.96 -65.8c-64.72,4.48 -180,26.2 -244.04,43.96 -143.28,39.64 -155.76,57.56 -145.28,184.4z"/>
   <path class="fil27" d="M7460.1 10452.94c13.4,202.44 -0.88,256.2 68.56,448.44l295.44 -19.04 9.48 -501.92c-151.12,40.76 -227.84,17.48 -373.48,72.52z"/>
   <path class="fil31" d="M4605.86 11989.26c-170.28,519.96 -289.96,628.84 -124.56,615.8 101.48,-7.96 30.28,-35.6 121.2,-139.44 62.92,-71.88 169.88,-68.24 270.96,-74.84 55.12,-35.56 33.92,-13.32 69.32,-79.52 -62.4,-121.4 55.84,34.92 -108.68,-84.08 -159.32,-115.24 -7.52,-112.48 13.68,-281.48l-241.92 43.56z"/>
   <path class="fil27" d="M8692.78 10266.18c744.76,211.44 468.8,40.36 716.12,-38.24 -659.2,-167.32 -231.4,-239.6 -594,-291 -5.44,7.12 -11.8,17.2 -14.72,22.44l-62.32 145.44c-19.12,59.64 -35.24,107.2 -45.08,161.36z"/>
   <path class="fil32" d="M7276.62 5252.26c127.2,105.76 185.6,60.6 454.28,59.36 52.92,-0.24 227.2,-5.2 269.08,-11.4 114.24,-16.88 157.76,-17.44 157.16,-134.84 -173.24,-73 -519.52,-56.68 -693.72,-96.4 -81.32,135.68 -31.32,117.08 -186.8,183.28z"/>
   <path class="fil5" d="M10685.1 6452.5c143.16,119.88 14.76,43.24 134.72,-57.76 81.16,-68.28 84.36,-53.36 196.6,-83.8 -40.6,-82.8 -50.56,-81.16 -71.88,-178.6 -187.76,-52.08 -334.04,-121.24 -525.32,-77.84 10.6,162.36 175.08,292.76 265.88,398z"/>
   <path class="fil16" d="M7296.9 10924.54c4.08,-183.76 14.2,-265.56 -73.72,-399.96 -199.56,58.2 -422.68,191.8 -396.32,460.12l470.04 -60.16z"/>
   <path class="fil18" d="M9555.58 9094.1l-53.76 -363.88c-5.2,-8.2 -10.8,-19.28 -13.96,-25.56 -3.12,-6.2 -9.8,-17.88 -13.52,-25.56 -130.72,-270.2 -87.4,-414.36 -167.56,-524.84 -182.76,433.6 122.08,1009.04 259.8,1109.84l-11 -170z"/>
   <path class="fil7" d="M6058.94 7341.86c-6.04,187.32 64.16,220.6 196.84,285.52l311.6 132.44 19.44 -203.6c-94.16,-60.92 -34.16,-27.44 -103.88,-91.2 -35.16,-32.12 -76,-63.28 -113.08,-88.8 -89,-61.32 -160.64,-139.48 -264.28,-169.48l-46.64 135.12z"/>
   <path class="fil13" d="M8829.42 7569.94c68.64,150.68 143.56,156.88 225.56,346.56l241.72 -105.32c-34.64,-218.76 -122.88,-255.48 -184.72,-435.28 -194.88,44.04 -166.92,79.72 -282.56,194.04z"/>
   <path class="fil7" d="M7455.26 5968.58c143.4,-29.2 204.16,-47.08 345.36,-12.48l50.72 -225.32c-153,-25.56 -309.64,-62.56 -492.88,-48.16 -106.28,92.76 -94.8,47.28 -100,201 76.52,71.2 54.84,58.48 196.8,84.96z"/>
   <path class="fil33" d="M11793.38 6621.5l48.16 55.8c226.16,17.76 245.24,-128.4 372.88,-246.36 242.6,-224.2 232.08,42.8 270.56,-400.68 -70.48,40.2 -19.96,-3.76 -95.2,68 -220.24,210.04 -115.04,70.56 -258.4,218.12 -125.84,129.48 -203.2,142.8 -255.48,183.4 -93.08,72.2 -49.32,-3.6 -82.52,121.72z"/>
   <path class="fil34" d="M7800.62 5956.1c73.84,-6.8 120.72,-4.76 177.36,10.04 96.96,25.32 67.68,40.4 144.44,57.12 134.4,29.28 -18.88,5.56 314.6,-57l-57.32 -159.92 -528.36 -75.56 -50.72 225.32z"/>
   <path class="fil16" d="M6369.86 11036.3c236.72,-14.44 371.28,50.92 337.16,-207.96 -28.8,-218.76 -65.72,-200 -225.08,-269.56 -61.92,122.48 -93.32,323.64 -112.08,477.52z"/>
   <path class="fil16" d="M9628.94 10416.86c-216.72,222.4 -164.6,173.4 -104,516.4l316.12 -8.24c-27.44,-119.4 -56.72,-176.96 -102.72,-282.52l-109.4 -225.64z"/>
   <path class="fil18" d="M5584.9 2927.94c-78.84,125.4 -126.36,16.72 -250.44,185.72l736.12 -82.16 42.28 -124.52c7.52,-35.52 13.36,-12.6 1.44,-52.24l-271.08 -14.04c-69.4,14.44 -155,63.4 -258.32,87.24z"/>
   <path class="fil12" d="M9506.66 8178.3c9.44,168.92 126.64,462.24 286.04,499.24 76.56,-208 40.96,-160.68 -31.64,-260.24 -109.04,-149.48 -41.64,-267.16 -133.36,-437.48 -112.8,71.32 -129.6,45.28 -121.04,198.48z"/>
   <path class="fil35" d="M5686.98 11133.58l317 -25.76c11.72,-52.52 7.56,-1.28 -6.04,-51.28 -71.52,-262.52 -21.84,-291.56 -73.32,-368.08 -252.24,64.12 -216.68,166.88 -237.64,445.12z"/>
   <path class="fil26" d="M10367.02 8829.1c-16.56,-137 -97.28,-523.96 -174.96,-638.24 -9.64,-14.24 -52.68,-73.08 -57.44,-78.16 -66.04,-70.56 26.12,-26.08 -110.12,-69.52 3.76,325.16 27,308.4 269.08,690.76 4.04,6.36 72.04,93.16 73.44,95.16z"/>
   <path class="fil31" d="M4628.94 8039.5c100.64,-325.16 22.84,-337.8 180.32,-651 2.28,-4.48 41.08,-89.72 41.96,-91.8 20.72,-49.92 17,-13.12 23.6,-81.68 -185.28,93.2 -62.08,36.48 -308.08,41.6 66.32,281.56 13.36,511.44 62.2,782.88z"/>
   <path class="fil27" d="M5502.78 11159.78c-6.76,-55.8 -9.76,-96.92 -25.72,-153l-55.44 -113.76c-175.8,142.68 -351.24,194.52 -467.72,384.04l548.88 -117.28z"/>
   <path class="fil36" d="M13360.3 5178.74c106.88,171.52 -17.32,73.92 169.12,73.12 136.6,-0.56 276.2,66.36 348.4,167.76 91.8,129 44.68,114.8 112.76,215.56 116.72,-248.76 -274.92,-665.84 -630.28,-456.44z"/>
   <path class="fil16" d="M10166.18 10802.34c24.08,-47.12 18,-30.08 42.68,-76.88 40.28,-76.52 1.96,-1.08 36.44,-73.72l-22.64 -101.96 -357.52 -86.32 115.28 375.4 185.76 -36.52z"/>
   <path class="fil37" d="M9404.66 10903.54c-9.4,-390.64 -177.28,-172.08 -502.76,-267.4l14.6 145.6 488.16 121.8z"/>
   <path class="fil8" d="M6952.98 8151.42c-1.28,-172.4 69.6,-103.8 -133.6,-150.72 -117.88,-27.2 -119.16,-5.24 -142.44,-137.88 -63.08,128.84 -64.4,238.96 -58.84,384.4 147.32,-26.76 255.44,-19.2 334.88,-95.8z"/>
   <path class="fil38" d="M1633.78 4384.58c120.08,65.92 172.84,30.4 222.8,-99.72 -124.04,-80.76 -288.92,-51.84 -222.8,99.72z"/>
  </g>
 </g>
</svg>
