<?xml version="1.0" encoding="UTF-8"?>
<!DOCTYPE svg PUBLIC "-//W3C//DTD SVG 1.1//EN" "http://www.w3.org/Graphics/SVG/1.1/DTD/svg11.dtd">
<!-- Creator: CorelDRAW 2020 (64-Bit) -->
<svg xmlns="http://www.w3.org/2000/svg" xml:space="preserve" width="161.849mm" height="170.898mm" version="1.1" style="shape-rendering:geometricPrecision; text-rendering:geometricPrecision; image-rendering:optimizeQuality; fill-rule:evenodd; clip-rule:evenodd"
viewBox="0 0 16184.96 17089.8"
 xmlns:xlink="http://www.w3.org/1999/xlink"
 xmlns:xodm="http://www.corel.com/coreldraw/odm/2003">
 <defs>
  <style type="text/css">
   <![CDATA[
    .fil0 {fill:#010101}
    .fil2 {fill:#020202}
    .fil12 {fill:#030303}
    .fil34 {fill:#6B7584}
    .fil27 {fill:#6D7C8D}
    .fil7 {fill:#717E93}
    .fil10 {fill:#718192}
    .fil28 {fill:#737D8C}
    .fil29 {fill:#74818D}
    .fil19 {fill:#748192}
    .fil8 {fill:#7B869A}
    .fil37 {fill:#858C96}
    .fil35 {fill:#8A9298}
    .fil33 {fill:#8C939D}
    .fil6 {fill:#8E96A2}
    .fil36 {fill:#979899}
    .fil26 {fill:#9A9A9A}
    .fil9 {fill:#9D9D9D}
    .fil24 {fill:#A3A29C}
    .fil21 {fill:#A4A4A3}
    .fil14 {fill:#ACAAA6}
    .fil13 {fill:#ADB9C7}
    .fil17 {fill:#B1ADA5}
    .fil22 {fill:#B3B1AD}
    .fil38 {fill:#C5C3C2}
    .fil31 {fill:#CAC9C5}
    .fil39 {fill:#CACAC9}
    .fil18 {fill:#CBC4A4}
    .fil16 {fill:#CBCAC6}
    .fil20 {fill:#CCC39C}
    .fil30 {fill:#CCC5AC}
    .fil1 {fill:#CCCBC7}
    .fil5 {fill:#CDC6A9}
    .fil25 {fill:#CEC9AB}
    .fil15 {fill:#D4D2CC}
    .fil11 {fill:#F9F6F2}
    .fil32 {fill:#F9F8F5}
    .fil23 {fill:#FBF1CB}
    .fil3 {fill:#FDFAF5}
    .fil4 {fill:#FEFAF2}
   ]]>
  </style>
 </defs>
 <g id="Layer_x0020_1">
  <metadata id="CorelCorpID_0Corel-Layer"/>
  <g id="_1842368816768">
   <path class="fil0" d="M10671.53 10540.93c84.68,68.68 76.52,52.96 110.04,182.72 58.24,225.2 118.64,241.32 -62.96,503.72l-105.36 -296.84c-71.28,-194.76 -72.04,-120.84 -82.64,-372.04 123.56,10.16 71.76,28.24 140.92,-17.56zm-1349.4 179.16c60.04,-173.68 201.12,-408.04 383.6,-443.72 58.32,324.92 81.76,480 81,835.96 -140.64,-47.08 -399,-265.12 -464.6,-392.24zm1652.28 -287.48c-12.76,-186.44 -114.96,-224.84 -192.8,-365.6 118.72,-12.16 179.44,-19.96 300.16,16.84l44.24 24.44c49.6,114.88 15.88,38.04 -51.52,149.2 -41.96,69.16 -66.92,125.92 -100.08,175.12zm-8701.81 -7336.09c18.16,207.16 30.84,15.08 -68.8,159.24 -147.12,212.84 114,-49.4 -299.36,410.44 -208.44,231.88 -229.88,290.12 -355.36,631l-144.88 325.48c-64.92,159.6 10.2,263.44 -86.88,390 -89.48,116.68 -159.68,90.8 -110.6,343.64 51.4,264.8 104.52,122.24 212.48,330.16 -219.32,95.8 -308.64,144.04 -492.32,288.92l-290.32 280.92c-136.4,201.76 -240.08,315 -144.52,701.64l178.68 1009.4c19.6,119.08 47.76,248.92 69.36,344.64l20.88 150.44c26.12,187.16 604.24,481.08 776.32,566.96 764,381.24 362.28,434.6 549.2,713.88 -60.96,34.96 -72.92,43.04 -127.96,108.52 -90,107 -255.04,362.36 -242.72,461.88 59.92,156.96 75.16,108.52 221.24,171.76 60.48,26.2 21.12,7.52 69.68,37.16l124.64 79.6c61.68,30.6 -9,3 71.04,29.24 38.4,-49.88 17.72,-20 49.72,-46.68 11.08,2.16 62.96,30.32 70.4,31.8 4.04,0.8 14.12,1.6 18.32,2.04 4.24,0.48 14.2,-0.32 18.6,-0.08l167.24 46.96c6.04,-9 19.68,14.12 29.92,20.56 -28.28,-111.28 -37.12,-134.92 -63.68,-219.28l-13.48 -97.52c-10.52,-107.8 -58.56,-162.76 13.04,-287.28 11.56,-20.12 67.52,-88.24 89.72,-112.28 79.92,-86.6 2.4,-27.96 109.84,-100.32 -9.76,-117.8 47.68,-56.04 60.84,-203.64 10.88,-122 -0.2,-69.44 -28.04,-128.56 -23.8,-50.48 -9.36,7.92 -63.36,-103.84l3.96 5c-369.8,-52.96 -156.92,0.68 -462.36,-329.32 -70.28,-75.88 -137.04,-149.56 -210.76,-191.12 -137.44,-77.44 -129.56,-34.72 -201.88,-183.8 -91.24,-20.52 -184.04,-37.68 -263.36,-97.4 -107.92,-81.24 -101.08,-138.2 -140.64,-268.84 -126.16,-416.76 -470.12,-1324.2 -516.08,-1707.88l79.84 -60.2c19.68,-93.32 19.16,-78.96 95.64,-164.92 337.68,-379.72 487.36,-247.64 796.32,-328.64 132.24,-34.68 251.64,-101.32 359.96,-89.56 305.64,-298 871.08,-128.2 1159.08,-488.2 91.56,-114.48 979.36,-783.36 501.52,-852.44l-5.36 -119.48 -157.92 -162.24c-4.76,-5.56 -10.88,-13.52 -15.36,-19.36 -70.36,-91.28 -107.96,-200.56 -335.56,-275.88 -18.84,-6.24 -399.72,-70.72 -424.8,-72.12 -152.28,-8.36 -194.72,71.44 -370.96,68.4 -46.36,103.28 -93.88,132.36 -29.88,266.48 168.44,53.64 300.68,11.2 482.6,-15.44l165 36.36c25.2,97.64 -16.12,521.36 -4.56,717 -115.56,-43.2 -368.36,-176 -433.12,-306.12 -111.88,-59.72 -119.16,-109.64 -273.4,-100.88 -15.96,128.04 -26.04,132.16 48.96,280.16l31.36 54.84c161.52,74.24 199.4,164.28 262.08,351.4 -240.32,4.92 -331.76,-129.12 -416.64,-280.72 -118.84,4.8 -55.64,-2.56 -133.2,-92.16l-135.28 0.88c3.08,74.2 4.64,209.48 15.88,254.4 77.48,82.16 124.8,190.44 128.8,313.4l-351.76 77 -89.04 -105.28 -223.6 -242.4c-104.08,-167.16 35.36,-188.2 147,-273.76 -5.68,-583.16 457.88,-1159.68 819.84,-1652.28 45.24,-61.56 20.28,-38.04 73.64,-94.28l345.72 -366.2c228.68,-260.64 161.16,-131.04 277.08,-266.84 109.4,-128.2 491.28,-391.76 650.08,-396.44 125.8,-3.72 137.84,86.68 215.4,-53.16 73.24,-132 -19.56,-116.36 158.84,-178.64l288.52 -87.56c143.08,-45.12 123.28,-51.16 223.28,-117.32 213.72,-141.44 300.08,-103.76 532.96,-172 125,-36.64 127.56,-75.84 268.4,-113.68 581.76,-156.28 730.4,-113.04 872.4,-147.2 337.8,-81.28 818.04,-208.72 1151.4,-234.04 143.84,-10.92 928.8,-197.48 1065.24,-7.36 155.6,45.28 191.92,78.6 373.96,47.92 65.92,-17.56 119.2,0.24 208.28,37.8 137.56,58 64.72,39.92 229.96,46.8 233.52,9.68 222.96,47.72 407,93.24 55.44,26.52 103.2,40.4 159.12,80.88 87.44,63.32 38.84,45.88 101.24,102.92 116.12,106.16 119.04,18.92 224.84,198.28 187.64,-3.72 337.16,226.44 418.68,310 201.4,206.48 322.92,161.76 550.88,529.88 79.72,128.76 99.88,104.32 164.2,176.96 102.76,116.12 15.28,100.56 214.8,326.36 267.24,302.36 408.44,661.48 625.76,1002.16l282 431.32c44.4,83 224.64,369.12 208.88,460 159.04,101.04 73.52,67.6 174.8,236.56 74.6,124.48 283.68,659.8 279.4,831.24 181.88,146.48 303.08,1125.24 258.6,1483.68 -77.52,624.44 -38.32,578.8 -451.08,1241.92 -150.28,7.52 -319.44,21.96 -423.28,122.12 -121.92,117.56 -89.04,299.64 -113.52,335.8l-340.2 225.56c-517.6,191.64 -367.4,190.92 -572.68,298.64 73.24,-146 10.24,-118.64 128.6,-231.36 267.48,-254.68 466.04,-747.96 621.28,-1102.16l146.92 -473.08c1.84,-14.64 8.64,-18.4 15.36,-25.8 -27.88,-129.2 142.64,-344.96 -202.48,-457.04 -332.2,240.24 -270.8,381.04 -522.72,658.2 -127.12,139.88 -503.48,478.32 -578.24,595.56l-413.88 410.16c-58.16,72.72 -36.28,86.68 -108.32,161.8 -138.36,144.24 -455.68,410.68 -632.36,456 -39.84,-127.72 -22.96,-81.44 -105.16,-194.96 -2.24,-3.08 -39.6,-53.88 -42.68,-57.04l-126.2 -78.4c-125.48,-79.68 -91.36,-153.48 -141.56,-331.8l-15.16 -45.04c-1.4,-4.04 -7.68,-9.52 -8.72,-19.36 -0.96,-9.48 -4.76,-13 -9.08,-18.28 -136.2,-28.96 28.96,-46.08 -129.32,15.64 61.8,136.28 80.08,157 36.64,328.8 -7,218.52 -131.4,392.36 -246.84,592.96l-303.76 558.48c-21.56,168.12 -121.48,285.44 -208.64,374.76 -361.04,-264.12 -281.08,-138.84 -609.6,-519.48 -255.4,-11.48 -252.68,50.76 -307.12,153.84l-37.04 69.28c-1.92,-4.96 -7.4,15.72 -13.64,21.56 40.6,213.12 -46.36,202.08 11.24,428.48 34.8,136.8 -0.04,203.28 -82.48,290.4 -8.2,4.76 -19.88,8.16 -26.64,9.92l-290.88 16.64c-183.48,-1.6 -160.2,23.8 -391.76,63.6l-95.88 31.4c-7.84,3.52 -15.64,9.24 -23.56,12.88 -139,64.04 -143,55.08 -259.44,1.44 -193.72,-89.28 -296.52,-88.48 -468.56,-211.36 -232.76,-166.28 -264.8,-144.32 -308.52,-379.96 146.8,35.2 656,202.68 793.92,206.28 1.76,-150.4 -46.92,-215.56 -126.96,-295.08 -109.8,-33.96 -268.92,-140 -305.44,-229.08 -125.08,-39.2 -112.36,-32.64 -206,-96.52 -244.44,-166.76 -397.08,-61.68 -439.12,-308.32l208.2 56.12c67.44,-85.56 65.64,-121.8 186.96,-190.32l1.76 -28.88c-167.12,-270.8 -428.76,-89.56 -576.64,-270.08l-279.56 -564.48 -144.52 24.64c-201.36,25.96 -132.28,153.84 -88.44,306.56l121.6 358.28c99.24,217.52 799.96,1984.72 778.04,2134.44l270.76 90.04c19.88,-24.2 36.72,-49.2 56.44,-70.48 32.68,-35.28 25.24,-27.84 59.68,-55.4 156.2,-104.28 139,-74.12 353.84,-102.72 154.4,-20.56 236.44,-39.8 352.64,55.84l485.08 544.04c101.04,141.36 82.88,150.56 46.8,175 100.72,128.44 103,168.72 198.6,224.6 253.96,148.52 315.52,-55.08 303.64,-54.56l-27.76 39.52c73.68,50.76 20.32,23.76 10.52,133.24 -13.88,154.92 40.52,382.68 72.16,513l18.92 64.96c-56.2,-69.48 -76.24,-37.44 -146.88,0.32 92.28,132.68 101.48,81.24 57.72,274.84 4.88,91.68 -30.24,-2.24 29.4,117.48 57.88,116.28 10.24,33.88 44.68,47.96l251.8 -0.36c61.52,-309.76 5.08,-241.36 -42.72,-513.52 -81,-461.16 -46.72,-528.6 -57.24,-611.32 -0.8,-6.4 -10.36,-59.44 -10.76,-67.56 -0.76,-15.08 2.44,-78.56 4,-87.6 5.76,-32.56 192.96,-384.76 141.16,-226.04l146.96 -31.96c260.04,-169.08 114.48,-713.12 179.08,-921.8l27.28 -50.16 37.6 -17.88c5.4,-1.32 16.28,-4.8 22.44,-5.88 6.92,-1.24 19,-2.24 25.92,-3 43.6,-4.84 52.16,1.24 92.04,4.72 42.56,241.16 169.36,410.68 105.84,669.68 -34.84,111.08 -8.76,19.08 -30.72,92.72 -21.76,72.92 -3.28,-2.24 -17.4,73.04 -26.24,107.68 -6.72,83.12 9.56,161.24 15.68,75.4 12.88,167.32 12.56,249.52 -0.92,238.32 -28.64,167.72 -59.04,341.8 -12.4,70.96 -9.2,46.92 -10.48,131.2 9.2,1.2 20.84,4.92 27.08,6.6l480.56 61.48c-25.52,-7.16 -22.8,22.04 -34.2,-42.92 -22.6,-128.8 -33.92,-12.2 18.04,-77.8 13.52,-113.4 21.24,-239.8 14.28,-356.6 -6.2,-103.84 5.32,-59.72 -31.4,-133.36 -14.16,-28.36 -13.6,-19.48 -44.76,-68.24l-32.68 -52.76c46.52,-54.56 109.68,-242.24 162.36,-334.8 60.12,-105.68 128.68,-159.76 242.04,-212.36 -5.96,387 -100.6,1012.72 -78.88,1203.44 -15.32,130.04 -9.4,42.8 19,147.72 30.16,111.48 3.48,16.2 37.48,96.68 71.16,8.84 22.8,-3 30.24,43.44 19.56,121.92 41.16,164.52 17.28,287.48 -21.16,108.88 -55.04,214.48 -149.44,220.48 -180.88,11.52 -62.72,-10.84 -67.76,-26.4 -12.72,55.92 -51.16,245.72 -50.72,254.28l-74.92 33.24c-171.88,39.72 -29.68,1.96 -64.72,1.12l-133.28 -49.48c-5.04,-4.36 -11.48,-13.2 -17.2,-17.72 -6.16,-4.88 -12.84,-13.32 -19.8,-17.88 -125.56,-82.6 -99.2,-55.36 -198.08,-17.2 -0.2,-114.36 -14.76,-135.24 -50.68,-236.88 -326.2,6.72 -61.32,101.6 -474.16,101.6 -2.52,10.76 -2.44,23.56 -3.36,32.96 -0.96,9.44 -2.32,21.4 -3.52,33.16 -50.48,500.04 -119.6,246.68 -196.12,475.4 268.32,54.56 176.56,106.2 203,169.32 588.84,-137.76 541.72,140.52 541.72,-237l163.32 49.12c4.12,2.92 12.88,8.72 16.6,11.92 112.48,95.76 15.92,210.08 -51.68,277.56 -119.2,148.88 -163.6,655.36 -194.6,903.36l-95 -124.4c-130.52,-38.48 -60.48,-52.72 -155.88,12.44 -65.08,44.44 -46,42.04 -80.96,104.4 9.48,131.6 48.36,143.2 91.24,253.96 111.24,287.24 -96.08,13.48 176.64,568.64 84.88,172.84 18,148.24 251.8,165.4 150.24,-472.6 264.24,-433.12 255.32,-654.64 -10.96,-272.48 -9.04,-610 63.4,-887.2 143.92,-550.56 122.84,-598.32 444.88,-1014.16 292.56,-377.8 420.4,326.68 257.32,-1325.92 -9.24,-93.44 -12.16,-207.84 11.52,-295.24l131.88 -318.64 895.4 -825.2 327.2 -931.4c116.08,-49.88 85.56,17.96 234.84,-66l412.28 -306c582.12,-390.72 511.28,-223.84 791.24,-325.8 78.88,-28.72 129.64,-78.08 222,-114.2 18.36,-302 -113.4,-55.12 508.12,-641.32 134.28,-126.64 153.84,-158.24 318.72,-291.24 81.08,-65.4 193.56,-271.2 222.64,-412.68 56.48,-274.52 5.32,-304.24 -41.4,-504.76 -26.28,-112.68 -32.48,-434.56 -48.6,-578.64 -36.52,-326.68 -156.2,-718.12 -202.2,-1083.44 138.8,95.72 238,256.52 361.4,425.56 67.32,92.24 258.64,328.56 267,441.88l338.08 11.48c-28.92,-203.84 -190.64,-780.4 -260.04,-962.4 -255.6,-670.32 -382.96,-365.64 -560.36,-631.28 -154.6,-231.4 -298.08,-627.16 -402.24,-784.96 -140.12,-212.2 -320.52,-509.04 -454.28,-757.72 173.8,33.92 101.16,26.72 205.4,98.56 63.2,43.56 97.28,54.36 172.56,94.2 119.8,63.4 188.96,124.32 306.52,200.52 133.04,86.16 204.4,67.68 350,160.92 456.8,292.6 775.68,480.96 1219.44,847 96.96,79.96 158.84,219.32 275.72,172.6 111.88,-95.08 -73.76,-185.68 -288.4,-463.48 -79.92,-103.48 -119.52,-122.16 -198.96,-211.08 -72.56,-81.2 -95.4,-124.36 -199.88,-205.32 -193.64,-150.12 -263.8,-215.92 -463.88,-349.36 -796.8,-531.36 -370.92,-347.52 -873.88,-719.04l-1357.52 -1002.64c105.76,-48.08 729.52,-281.68 837.84,-284.32 185.6,-4.52 622.64,257.88 787.04,344.88l866.48 450.04c184.76,107.08 475.64,236.88 582.08,332.72l391.6 351.4c122.56,114.4 236,263.88 424.12,301.44 59.16,-208.8 -169,-323.84 -355.12,-503.72 -309.4,-299.04 84.4,-40.04 -487.76,-426.68 -399.68,-270.12 -949.52,-719.96 -1382.08,-923.08 -113.04,-53.08 -197.52,-65.4 -324.24,-111.68 -297.84,-108.84 -64.24,-164.44 -776.12,-69.64 -200.56,26.72 -252.36,28 -414.6,0.44 -206.08,-35 -207.76,17.48 -371.12,53.2 -315.48,68.96 -455.84,109.28 -649,-90.72 31.4,-206.84 7.28,-97.52 92.44,-230.8 281.16,-440.08 280.32,-383.68 642.16,-741.24 96.92,-95.8 195.56,-130.88 175.96,-330.48 -204.6,-56.24 -237.4,37.04 -365.44,139.52 -86.36,69.08 -234.92,180.32 -332.96,275.88 -461.28,449.64 -157.64,185.28 -671.84,501.36 -77.12,-49.28 -66.36,-60.84 -146.8,-106.56 -88.04,-50.04 -81.64,-12.32 -147.8,-91.64 -118.76,-142.4 -65.32,-640.2 -126.76,-852.92 -43.36,-150.24 -30.2,-304.84 -69.44,-408.84 -152.56,-69.16 -184,-43.84 -232.56,143.24 -29.16,112.36 -47.76,194.56 -67.28,314.12 -40.8,250 -92.92,290.12 -27.4,562.32 -102,-73.52 -290.92,-111.48 -451,-145.56 -113.2,-24.12 -142.6,-18.08 -252.6,-33.2 -150.2,-20.64 -110.84,-49.44 -258.32,-61.64 -151.32,-12.48 -235.8,127.84 -468.84,-1.48 -154.76,-85.88 -101.32,-131.48 -459.88,-124.32 -564.84,11.28 -814.36,128.28 -1049.88,143.68 -297.76,19.52 -148.92,21.4 -345.04,68.56l-180.28 25.36c-206.56,34.96 -235.16,73.36 -488,89.76 -295.2,19.08 -307.52,104.72 -613.12,151.24 -10.76,1.64 -19.12,2.2 -29.92,3.92l-87.76 16.52c-92.88,20.4 -135.68,32.88 -207.36,66.64 -135.52,63.84 -62.64,44.48 -238.72,72.96 -539.24,87.16 -328.8,154.56 -599.24,272.24 -361.96,157.52 -423.84,-131.2 -599.48,-326.24l-83.84 -85.48c-135.24,-174.2 -361.6,-586.72 -558,-616.32 -131.16,214.08 -63.88,88.32 196.52,677.8 308.88,699.24 513.2,511.2 94,786.6 -263.16,172.92 -231.28,231.8 -457,232.88 -787.12,3.76 -1094.32,-291.44 -1445.64,-105.12 0.16,155.12 48.12,153.84 175.16,205.8 251.6,102.92 354.6,149.4 627.04,178.48 147.92,15.76 234.88,6.88 353.36,78 -58.8,145.4 -130.68,120.96 -214.6,242.2 -71.72,103.56 -6.6,101.12 -222.6,228.36z"/>
   <path class="fil1" d="M8730.89 5148.89c91.36,110.84 37.68,19.76 49.04,198 66.8,148.28 47.56,38.52 101.4,199.76 50.64,151.64 -0.48,68.44 98.16,173.68 122.04,130.2 281.68,536 286.44,706.32l125.12 36.08c66.56,371.36 127.64,254.88 37.6,500.84 -9.84,6.2 -24.88,2.2 -30.44,17.12 -5.32,14.24 -21.76,12.32 -28.8,16.6 -78.36,47.92 -164.84,107.96 -238.4,306.6 -74.72,201.8 -76.36,338.36 -39.76,573 -159,333.52 -58.4,273.04 -235.28,296.4 -53.4,-69.16 -45,-140.96 -45.16,-254.84l-157.92 -81.96c-19.52,-439.04 -310.52,-1114.44 -635.2,-1391.28 -99.68,-85 -81.24,-83.92 -153.52,-185.28 -82.56,-115.88 -104.92,-88.32 -97.36,-248.36l171.12 -19.52c-14.28,-152.52 -35.96,-44.36 -55.92,-191.4 -37.48,-276.24 245.04,-597.2 400.08,-768.96 103.76,-115.04 157.44,-182.76 364.24,-128.12 54.36,95.92 42.48,137.28 84.56,245.32zm-3402.32 350.44c78.48,117.52 112.16,102.76 222.56,227.96 72.2,81.92 159.28,154.8 107.36,302.52 -141.16,17.56 -147.36,-3.52 -223.24,-69.6 -130.8,3 -120,43.2 -302.28,47.76 -125.68,3.16 -271.92,9.08 -385.64,-19.28 -542.6,-135.36 -281.6,-137.6 -534.28,-280.84 -1.44,-150.2 -7.84,-17.64 40,-74.28l32.6 -109.08c-77.4,-34.76 -59.68,-251.96 208.04,-353.84 84.32,-32.12 141,-45.72 223.36,-79.88 261.12,-108.36 179.28,-298.44 558.44,99.96 31.8,33.44 177.28,136.08 144.4,236.24 -45.12,137.44 5.16,45.56 -91.32,72.36zm2045.72 -1842.84l18.28 -74.56c205.24,-17.32 248.64,80.44 395.16,180.4 118.48,80.8 250.64,112.52 361.24,218.32l-37.68 123.28c-5.6,6.88 -12.52,9.6 -14.8,22.08l-28.4 45.24c-50.24,77.28 -47.44,97.12 -115.64,123.4 -0.64,0.24 -916.68,25.04 -802.84,-568.2 103,-49.16 139.2,-27.08 224.68,-69.96zm1037.08 -250.08c99.76,8.08 348.84,-21 408.44,-35.2 -4.88,-145.48 -7.04,-214.48 34.84,-341.32 112.48,11.36 104.56,-14.2 161.6,74.72 4.08,6.32 8.24,15.32 11.68,22.4 69.8,143.92 14.6,450.68 -2.8,583.96 -65.68,49.28 15.68,40.2 -98.36,49.96 -22.44,1.92 -89.76,-13.24 -113.64,-19.04 4.04,91.76 -6.4,129.56 -42.16,182.76 -143.04,20.88 -164.28,-4.16 -304.76,-34 -77.64,-16.48 -292,-22.2 -352.84,-44.72 -186.96,-112.04 -105.96,-192.16 -126.52,-401.72 -16.28,-62.32 -30.96,-144.56 -32.92,-232.36l122.92 -12.36c-48.32,-127.44 -33,-178.72 -0.28,-308.72 206.36,-88.4 218.88,-9.56 343.56,138.64 130.8,155.52 106.48,236.76 -8.76,377zm1998.44 -106.12c-279.76,23.92 -285.24,-104.56 -384.84,409.36 -440.64,64.36 -470.28,-288.12 -651,62.72 -62.28,120.88 -51.32,117.8 -202.64,97.32 -95.04,-139.6 -49.28,-241.12 -5.48,-389.48 65.2,-220.84 157.88,-568.52 381.6,-703.84 299.68,-181.28 99.84,-7.48 214.12,-328.48l161.48 -7.24c90.12,107.48 79.88,253.84 156.32,348.24 78.84,97.36 243,85.32 391.92,119.16 30.32,201.36 2.04,248.88 -61.48,392.24zm-4411.09 477.16c-201.52,179.72 -558.84,397.64 -887.92,443.16 -48.08,191.4 -149.44,792.44 -418.44,779.64 -95.24,-4.56 -101.24,-38.6 -130.24,-80.2 -53.76,-77.04 13.4,20.08 -23.8,-46.84l-35.36 -64.64c-43.72,-82.52 -23.56,30.6 -45.68,-118 -20.64,-138.52 12.44,-182.68 -35.44,-344.2 -37.44,-126.24 -42.52,-119.6 -66.28,-281.96 -14.88,-101.8 -19.2,-211.72 -30.92,-328.6l-169.6 -31c-10.04,-3.76 -21.52,-10.48 -29.72,-13.88 -8.36,-3.44 -20.72,-8.68 -29.84,-15.08 51.28,-278.12 253.36,-230 631.76,-437.08l390.16 -155.96c162.88,-67.4 144.96,44.4 404,-60 168.44,-67.88 276.44,-70.28 492.16,-65.36 175.44,4.04 377.8,93.72 223.6,228.16 -137.36,119.72 -409,-47.04 -340.36,157.48 4.92,14.6 127.32,150.64 101.92,434.36zm590 -1159.52c25.76,-682.52 -90.92,-366.96 167.48,-638.56 358,-3.04 372.68,-28.04 612.88,138.6 -0.88,304.52 -175.72,362 -239.48,408.24l-36.4 29.4c-5.08,3.68 -12.12,10.64 -17.28,14.12 -128.52,85.92 -351.92,87 -487.2,48.2zm2813.32 -736.84c-28.8,141.04 65.04,73.6 -123.64,120.08l-490.2 -20.68c-124.44,-153.32 -235.16,-247 101.44,-231.92l-25.28 -131.4c133.4,-104.76 324.92,-104.36 510.56,-18.28 209.96,97.36 204.4,306.64 27.12,282.2zm-1961.64 -106.52c-22.12,-230.92 47,-168.6 233.12,-231.56 106.52,-36 272.84,-133.04 330.44,10.24 76.76,190.92 -347.84,386.32 -563.56,221.32zm-4070.69 1281.04c125.04,45.16 334.6,73.16 274.56,249.68 -6.28,18.44 -80.24,154.56 -94.48,176.48 -105.4,162.28 -72.32,23.72 -142.44,193.88 239.08,-101.04 136.64,153.84 429.96,303.44 47.04,441.44 164.92,240.64 107.36,588.2l-87.32 -10.76 5.36 119.48c477.84,69.08 -409.96,737.96 -501.52,852.44 -288,360 -853.44,190.2 -1159.08,488.2 290.96,-4.84 455.92,-123.48 802.88,-14.12 145.8,45.92 139.64,61.72 126.04,226.76l-170.24 64.52 104.12 19.76c66.68,-108.92 -23.56,-6.08 59.6,-69.76 33.48,-25.64 31.96,-24.36 69.4,-38.88 17.56,-6.8 188.6,-37.4 191.92,-37.68 254.28,-22.64 32.84,78.44 334.08,87 -12.96,-222.92 74.76,-444.16 279.24,-261.64l5.64 158.92c-22.04,1.72 -35.92,-10.08 -40.68,-0.08 -28.16,59.28 -5.64,-18.92 -85.8,12.44l-54.92 32.64c-8.04,4.6 -21.24,11.8 -26.64,22l178 -0.12c27.04,197.04 -115.76,695.48 -126.64,945.52 148.44,-69.48 83.88,-31.76 160.44,-175.92 40.96,-77.08 77.12,-132.24 115.84,-219.92 85.28,-193.2 103.6,-305.36 336.96,-311.16 145.12,154.52 431.8,685.16 511.8,777.88 98.96,-76.96 29.2,-95.92 191.2,-189.32 163.32,-214.04 429.64,-436.56 441.24,46.36 147.64,28.12 193.16,122.24 493.28,-212.8 72.84,-81.36 68.04,-116.48 165.48,-206.6 98.48,-91.04 146.48,-76.48 163.12,-253.4 -167.68,-208.48 -341.08,-23.48 -337.2,-392.84l338.2 31.56c-8,-8.32 -17.64,-33.56 -23.64,-25.36l-123.2 -53.48c343.04,0 757.72,-224.84 1034.84,14.28 207.68,179.24 345.04,582.24 451.72,870.52l354.92 966.36c47.68,158.64 219.24,958.76 212.72,1083.92 -59,49.64 3.16,23.52 -84.76,19.6 -40.24,286.04 45.04,116.92 -129.2,258.44 -34.12,49.68 -6.72,43.12 -89.48,93.52 60.04,209.92 -160.96,199 -281.32,290.48 580.76,-50.04 316.24,-1.08 612.68,-364.88 388.84,-477.2 564.52,-521.24 899.36,-1065.28 118.72,-192.88 30.12,-704 142.72,-821.56l53.08 -208.84c-33.28,-53.72 -47.12,30.4 -14.44,-104.08 276.48,-74.88 627.16,65 827.68,17.2 109.44,-140.96 242.88,-557.4 302.6,-749.48 122.56,-394.28 233.96,-403.36 487.84,-599.6 -4.76,-138.36 -18.44,-273.12 -19.32,-412.04 -0.44,-66.52 4.72,-143.68 4.16,-207.84 -1.92,-224.96 53.88,-145.04 -58.08,-176.16 -312.48,21.6 -609.8,65.36 -906.8,118.84 -156.48,28.16 -263.04,50.2 -413.56,94.32 -157.32,46.16 -272.72,102.48 -386.12,136 -185.12,29.84 -220.28,-10.48 -248.52,-163.88 -9.36,7.2 -25.72,6.64 -29.28,20l-51 18.88c-17.68,-14.52 -115.76,-1.16 -40.48,-217.28 27.36,-78.48 54.84,-142.4 85.48,-232.88 16.92,134.36 -10.96,0.6 66.84,53.24l-14.16 -156.36c94.84,-67.6 138.24,-114.96 217.92,-211.4 -165.6,26.56 -38,7.68 -83.48,-23.68 20.76,-199.76 63.04,-311.32 177.36,-406.16 164.08,-136.16 287.24,-30.8 466.88,-47.48l410.84 -153.64c158.68,-67.08 53.24,-66.92 181.56,-104.28 98.84,-28.76 160.96,5.96 224.76,34.08 -26.44,-65.72 -36.2,-121.56 -63.72,-179.88 -37.64,-79.8 -142.12,-94.16 68.04,-373.72l269.72 45.76 -36.8 -162.36c146.4,-122.6 129.56,-74.96 281.6,-8.64l-621.24 -908.88c-40.76,-64.48 -74.4,-109.76 -112.48,-163.92 -106.96,-152.08 -117.96,-72.6 -41.56,-138.84 -105.8,-179.36 -108.72,-92.12 -224.84,-198.28 -62.4,-57.04 -13.8,-39.6 -101.24,-102.92 -55.92,-40.48 -103.68,-54.36 -159.12,-80.88l-0.16 70.76c-185.56,18.16 -376.32,9.64 -540.4,-34.52 -172.6,-46.44 -256.64,-129.92 -448.16,-140.88 219.92,-12.72 102.52,-22.68 143.48,-73.2 -182.04,30.68 -218.36,-2.64 -373.96,-47.92 50.72,76.12 0.72,124.84 157.08,76.8 -229.68,22.76 -431.24,-127.68 -813.08,-28.24l-1183.36 238c-144.48,43.12 -185.28,104.92 -344.56,129.44 -242.92,37.4 -178.28,-53.24 -335.44,139.08 -216.68,265.24 -151.68,-170.92 -966.08,322.28 -133.48,80.8 -172.84,105.4 -315.72,158.36 -192,71.12 -740.56,428.16 -875.08,544.76 -171.92,148.96 -405.56,93.92 -640.8,331.64z"/>
   <path class="fil0" d="M9203.69 13277.38c30.16,124.04 -6.96,333.96 133.4,364.68 190.8,41.76 129.76,-140.08 211.68,-270.04l25.8 429.92c-117.12,55.36 -152.88,10.56 -226.92,122.84 -54.04,81.92 -22.56,114.64 -85.28,200.32 -24.96,-32 -146.48,-352.36 -189.32,-442.12 -56,-117.4 -80.4,-187.4 48.68,-326.44 104.84,-112.96 -95.72,95.56 39,-38.36l42.96 -40.8zm-5068.17 495.2l-167.88 256.52c-88.64,107.12 -140.4,61.2 -545.6,46.6l44.48 -255.48c38.72,-132.72 47.32,-86.04 76.12,-246.88 76.56,-427.8 82.4,-288 742,-107.16 -48.8,129.48 -28.76,203.44 -149.12,306.4zm-1573.24 -158l-174.84 251.48c-116.88,2.08 -209.04,-20 -307.8,-61.48 -70.08,-29.44 -166.56,-77 -211.12,-138.08 67.4,-94.36 54.08,-63.16 142.72,-138.76l124.8 -117.08 499.08 -529.48c31,-91.28 -5.76,-47.84 90.96,-119.2 104.28,51.16 106.04,102.08 214.8,173l197.96 155.76c-101.4,160.24 -397.12,414.16 -576.56,523.84zm833.84 -1743.2c1.68,18.28 0.76,51 -1.48,69.04 -0.64,5.08 -6.76,30.92 -7.4,25.84 -0.68,-5.32 -6.52,17.84 -9.64,26.8 -11.44,167.12 -31.36,282.92 -43.4,457.6 -17.84,258.08 -33.12,171.72 -229.92,114.76l-12.16 -213.04 -59.32 -6.88c-247.04,15.28 176.32,-18.52 -221.16,105 -44.36,13.8 5.68,12.08 -82.44,26.96 -53.36,9 -82.8,-0.4 -179.4,-18.8 -274.04,3.76 -460.08,-317.36 -939.48,125.44 -337.68,311.92 -364.2,92.36 -694.44,352 -102.68,80.76 -66.84,76.4 -138.12,136.24l-549.48 500.4c-85,97.72 -153.4,207.76 -228.28,307.16 337.84,398.6 451.64,368.56 580.36,582.72 131.48,218.84 702.76,656.92 836.8,1153.4 222.84,-7.48 1135.84,253.8 1420.16,341.24 585.88,180.2 1224.04,298.44 1849.44,396.52 185.08,29.04 162.12,65.04 290,144.28 243.56,150.92 363.32,-83.2 472.96,-240.12 219.92,-314.76 542.04,-829.2 907.88,-878.4 8,-370.68 64.28,-337.84 428.48,-431.92 203.48,-52.56 580.4,-143.28 774.8,-99.6 229.28,51.52 -0.48,-34.24 252.24,202.24 82.28,76.92 165.96,122.4 260.56,178.88 177.52,106 248.2,154.92 333.04,303.32l118.6 147.24c34.96,-62.36 15.88,-59.96 80.96,-104.4 95.4,-65.16 25.36,-50.92 155.88,-12.44 -43,-218.44 -251.44,-566.32 -259.24,-778.76 101.6,-50.56 334.44,-83.4 421.68,-70.08 128.92,19.68 71.96,-34.44 127.16,69.88 67.6,-67.48 164.16,-181.8 51.68,-277.56 -3.72,-3.2 -12.48,-9 -16.6,-11.92l-163.32 -49.12c0,377.52 47.12,99.24 -541.72,237 -26.44,-63.12 65.32,-114.76 -203,-169.32 76.52,-228.72 145.64,24.64 196.12,-475.4 1.2,-11.76 2.56,-23.72 3.52,-33.16 0.92,-9.4 0.84,-22.2 3.36,-32.96 412.84,0 147.96,-94.88 474.16,-101.6 35.92,101.64 50.48,122.52 50.68,236.88 98.88,-38.16 72.52,-65.4 198.08,17.2 6.96,4.56 13.64,13 19.8,17.88 5.72,4.52 12.16,13.36 17.2,17.72l133.28 49.48c35.04,0.84 -107.16,38.6 64.72,-1.12l74.92 -33.24c-0.44,-8.56 38,-198.36 50.72,-254.28 5.04,15.56 -113.12,37.92 67.76,26.4 94.4,-6 128.28,-111.6 149.44,-220.48 23.88,-122.96 2.28,-165.56 -17.28,-287.48 -7.44,-46.44 40.92,-34.6 -30.24,-43.44 -34,-80.48 -7.32,14.8 -37.48,-96.68 -28.4,-104.92 -34.32,-17.68 -19,-147.72 -138.6,19.96 -154.52,37.4 -230.96,-45.32 -51.96,65.6 -40.64,-51 -18.04,77.8 11.4,64.96 8.68,35.76 34.2,42.92l-480.56 -61.48c-6.24,-1.68 -17.88,-5.4 -27.08,-6.6 1.28,-84.28 -1.92,-60.24 10.48,-131.2 30.4,-174.08 58.12,-103.48 59.04,-341.8 0.32,-82.2 3.12,-174.12 -12.56,-249.52 -16.28,-78.12 -35.8,-53.56 -9.56,-161.24 -83.28,48.88 -11.96,-49 -74.36,66.24 -10.68,166.76 18.28,224.72 -11.88,410.04 -24.36,149.52 -128.32,812.36 -203.04,919.04 -168,-301.64 -263.08,44.88 -308.4,-577.8 -21.92,-301.44 -104.72,-460.8 163.12,-601.04l-7.52 -57.92 -146.96 31.96c51.8,-158.72 -135.4,193.48 -141.16,226.04 -1.56,9.04 -4.76,72.52 -4,87.6 0.4,8.12 9.96,61.16 10.76,67.56 10.52,82.72 -23.76,150.16 57.24,611.32 47.8,272.16 104.24,203.76 42.72,513.52l-251.8 0.36c79.2,254.04 30.52,294.36 -195.08,368.96 -360.64,119.28 -438.84,8.36 -948.16,267.6 -350.56,178.44 -233.8,-64.52 -900.88,351.76 -397.6,248.12 -891.52,341.36 -1368.88,339.4l-152.88 21.64c-13.84,21.8 -37.12,78 -51.8,106.72l111.68 65.52c308.08,122.64 921.52,73.44 1006.28,103.8 -74.56,185.64 -444.48,393.56 -601.08,490.44 -554.76,-275.6 -545.92,-64.92 -861.4,-238.96 -152.8,-84.28 -37.72,-104.16 -205.44,-164.56 -132.16,-47.56 -436.72,-99.4 -570.6,-137.4 -193.24,-54.8 -376.12,-119.48 -574.32,-181.32 -232.52,-72.56 -715.16,-158.76 -925.48,-322.44l-837.24 -836.52c-72.72,-83.24 -150.16,-152.04 -237.2,-255.88 -125,-149.08 -72.12,-166.84 -256.64,-249.88 30.12,-84.32 -4.88,-34.08 59.6,-53.12 32.24,-44.4 17.2,-24.96 52.88,-64.36 0.6,-0.64 52.92,-53.6 53.4,-54.04l340.28 -234.08c222.6,-175.84 245.92,-203.16 546.48,-234.76 -58.2,139.16 -155.24,169.56 -267.72,305.48 -122.6,148.2 -129.36,213.96 -298.04,266.08 -60.72,120.88 -79.76,26.44 -79.68,202.92 117.68,91.36 74.36,37.08 225.84,77.12 338.92,89.56 292.6,259.84 1075.84,448.96 937.6,226.36 566.92,191.4 1611.16,217.32 410,10.2 783.48,-40.92 1182.28,-15.12l-101.76 -275.24c-228.32,60.52 -123.44,149.12 -282.32,90.2l162.68 -194.36c143.76,-104.08 76,28.16 255.28,2.36l-194.6 -61.8 -74.96 -41.68 -16.72 -429.64c68.32,-154.68 80.28,5.72 247.6,-134.08 78.8,-65.88 114.64,-12.2 275.6,-44l42.08 -178.8 161.12 -1.76c-7.04,259.12 125.96,-23.6 45.24,282.16 9.32,-323 65.44,56.88 33.72,-350.04l-215.28 -47.12c-82.4,-29.4 -45,-8.52 -87.68,-44.36 -6.68,-137.12 35.52,-28.2 -82.76,-74.32l-118 -29c-5.56,-11.68 -20.4,-3.96 -35.32,-9.4l67.08 -246.24c-147.52,-26.04 7.04,-41.24 -115,10.16 -19.44,180.8 49.12,90.04 -79,271.12l350.08 237.04c-141.92,2.72 -59.84,31.72 -227.68,18.48 -128.4,-10.16 -209.16,-18.64 -348.04,-18.64l135.12 -236.72 -115.72 -203.56c-72.08,58.96 -224.76,-40.2 -277.64,-78.08l-132.92 -107.08c-5.4,-4.64 -12.64,-11.52 -18,-16.16 -110.76,-96.44 -341.48,-169.4 -370.12,-344.72 -100.4,-75.56 -51.32,-93.16 -67.96,-261.12 -7.44,-75.08 -19.88,-122.44 -19,-219.08 -226.4,66.84 -115.84,41.04 -240.32,-91.16 -45.52,237.6 47.96,71.36 -120.12,135.28z"/>
   <path class="fil0" d="M5164.37 7045.49c-30.2,189.32 -81.16,199.04 -135.8,322.72 -46.72,105.68 -77.64,219.8 -135,299.44 -46.8,-62.84 -99.32,-179.2 -112.2,-255.08 -11.24,-65.36 -82.8,-265.92 -118.2,-363.8 -46.52,-128.8 -115.36,-153.52 -277.6,-139.56 -121.88,136.44 -270,441.4 -357.92,628.04 9.92,95 -10.72,52.56 53.12,130.92 116.32,-31.56 87,-44.08 155.28,-125.36l244.28 -470.96c63.8,130.44 128.92,321.28 170.36,467.52 131.92,465.56 132,267.08 256.8,369.2l-34.92 210.24c-57.04,234.96 8.88,519.84 23.4,718.24 249.4,52.44 237.04,114.84 336.28,-48.28 99.76,169.64 124.76,240.96 288.96,392.36l307.72 299.68c5.24,4.92 12.36,12 17.48,17.04 317.08,311.68 246.12,171.92 470.16,430.76 165.36,86.08 168.96,195.96 382.56,230.96 139.72,-16.4 55.44,27.8 192.4,-15.4 -71.88,-55.76 20.12,-37.44 -91.76,-46.24 -3.72,-0.28 -105.8,43.44 -111.12,46.24 22.6,-223.44 36.48,54.56 5.32,-98.32 -12.88,-63.16 -48.32,-45.36 -77.84,-47.08l-24.44 -111.76c2.6,-12.88 -1.56,-17.28 -0.04,-40.6 1.56,-23.44 -2.92,-27.04 -4.6,-40.56l191.64 123.92c-55.36,-178.16 -55.4,-69.24 -9.72,-123.12 -13.76,-26.12 -32.64,-68.8 -54.96,-113.96l147.16 -50.04c76.2,-30.88 -30.08,-5.8 62.32,-24.52l568.88 -431.08c172.28,-130.24 102.72,-118.08 347.6,-248.72 88.36,75 38.08,77.92 98.72,159.68 56.36,75.96 96.24,84.72 183.2,94.04 174.24,-141.52 88.96,27.6 129.2,-258.44 -36.8,-55.4 -14.16,-138.56 -34.36,-239.4l-191.48 -701.04c-287.64,-794.28 -288.88,-582.56 -384.6,-796.08 -53.32,-119 14.72,-0.52 -57.96,-115.8l-55.2 -84.6c-91.96,-159.2 -223.16,-408.48 -364.72,-507.44 -220.8,-154.32 -7.12,-217.76 -296.32,-314.96 -141.64,-47.56 -287.24,-103.56 -437.96,-116.52l-338.2 -31.56c-3.88,369.36 169.52,184.36 337.2,392.84 -16.64,176.92 -64.64,162.36 -163.12,253.4 -97.44,90.12 -92.64,125.24 -165.48,206.6 -300.12,335.04 -345.64,240.92 -493.28,212.8 -11.6,-482.92 -277.92,-260.4 -441.24,-46.36z"/>
   <path class="fil2" d="M5420.85 13724.54c167.04,9.08 217.12,37.24 386.12,37.92 159.92,0.68 227.48,-8.44 378.44,-29.6l-745 315.4 -19.56 -323.72zm967.16 -767.08c262.56,-19.52 241.8,161.64 434.2,33.52 -274.04,313.32 -638.04,257.16 -990.96,181.32 28.56,-111.2 30.68,-82.6 54.12,-181.12l502.64 -33.72zm-4185.61 -2326c102.76,160.44 175.32,79.6 204.36,359.56 -59.16,44.72 -105.72,73.68 -140.92,115.36l219.96 596.64c40.72,100.36 92.36,202.2 111.36,299.44 11.44,58.68 9.24,114.88 21.6,171.68 31.88,146.56 17.64,42.08 76.88,171.56l-145.84 112.96c96.6,18.4 126.04,27.8 179.4,18.8 88.12,-14.88 38.08,-13.16 82.44,-26.96 397.48,-123.52 -25.88,-89.72 221.16,-105 -43.44,-101.16 -175.28,-670.24 -153.6,-729.48l-68.52 -368.24c184.68,24 248.4,115.48 405.08,200.64 218,118.44 166,139.88 180.36,422.96 168.08,-63.92 74.6,102.32 120.12,-135.28 124.48,132.2 13.92,158 240.32,91.16 118,32.88 321.68,197.64 493.52,277 66.08,7.56 198.28,-106.04 259.8,-143.24 74.08,-44.8 212,-94.52 272.2,-112.64l22.48 299.08c18.64,80.52 -161.56,472.4 -162.36,706.04l115.72 203.56 -135.12 236.72c138.88,0 219.64,8.48 348.04,18.64 167.84,13.24 85.76,-15.76 227.68,-18.48l-350.08 -237.04c128.12,-181.08 59.56,-90.32 79,-271.12 122.04,-51.4 -32.52,-36.2 115,-10.16 94.4,-27.2 74.96,-7.04 142.08,-106.4l149.32 -266.52c98.04,58.76 228.16,124.68 305.24,178.32 -10.8,94.44 -88.72,254.6 -125.68,352.48 -64.64,171.12 -86.08,200.12 -301.96,201.08 42.68,35.84 5.28,14.96 87.68,44.36l215.28 47.12c31.72,406.92 -24.4,27.04 -33.72,350.04 80.72,-305.76 -52.28,-23.04 -45.24,-282.16l-161.12 1.76 -42.08 178.8c-160.96,31.8 -196.8,-21.88 -275.6,44 -167.32,139.8 -179.28,-20.6 -247.6,134.08l455.44 40.68c55.08,90 41.24,274.64 20.64,373.44 -166.68,44.96 -291.96,-19.28 -384.4,57.2l194.6 61.8c-179.28,25.8 -111.52,-106.44 -255.28,-2.36l-162.68 194.36c158.88,58.92 54,-29.68 282.32,-90.2l101.76 275.24 108.76 2.48 91.08 -115.2c318.44,-35.16 544.24,-13.52 824.64,-164.24 138.32,-74.32 220.28,-339.76 483.44,-500.6 112.56,-68.8 220.08,-14.04 343.96,-128.68 135.84,-125.72 0,-73.8 493.52,-488.28 157.8,-132.48 127.16,-136.24 366.08,-137.68 32.56,263.64 -28.52,-4.44 -245.12,398.88 110.88,107.92 148.08,68.56 201.36,195.72 257.24,63.52 158.48,42.32 325,180.88 43.76,-193.6 34.56,-142.16 -57.72,-274.84 70.64,-37.76 90.68,-69.8 146.88,-0.32l-18.92 -64.96c-31.64,-130.32 -86.04,-358.08 -72.16,-513 9.8,-109.48 63.16,-82.48 -10.52,-133.24l27.76 -39.52c11.88,-0.52 -49.68,203.08 -303.64,54.56 -95.6,-55.88 -97.88,-96.16 -198.6,-224.6 -267.72,-1.52 -351.96,78.6 -575.56,65.4 -52.56,-125.6 -19.16,-199.28 -127,-324.72 -132,-67.44 -90.56,-102.16 -211.68,-141.88 -198.16,142.04 -130.6,247.36 -61.76,492.56l-412.36 -46.72 -73.56 -170.56c-21.12,-27.32 -274.52,-234.36 -393.72,-282.4 -101.04,-40.76 -243.4,-107.64 -300,-168.4 -34.96,-37.56 -146.16,-225.48 -177.52,-294.4l-32.64 -216.32 -93.68 -21.4c-203.56,-82.72 -165.4,-90.64 -369.8,12.08 -50.44,25.36 -112.8,48.36 -166.6,73.2 -62.04,28.64 -125.04,53.68 -187.24,79.6l-135.8 102.96c-317.28,-125.12 115.4,-315.72 -203.04,-496.04 -106.56,76.4 -88.32,108.68 -126.64,271.64 -209.64,-88.8 -212.36,-321.92 -252.56,-424.36l-126.2 -118.4c0.4,-7.32 23.84,-105.16 26.72,-132.88l-55.76 -36.88c-217.8,-10.08 -37.16,48.48 -215.28,136.72 -43.28,121.96 -0.08,38.96 -83.64,137.68 -307.64,3.76 -273.28,-449.28 -424.44,-582.8l-208.04 -154.52 13.48 97.52c26.56,84.36 35.4,108 63.68,219.28 -10.24,-6.44 -23.88,-29.56 -29.92,-20.56l-167.24 -46.96c-4.4,-0.24 -14.36,0.56 -18.6,0.08 -4.2,-0.44 -14.28,-1.24 -18.32,-2.04 -7.44,-1.48 -59.32,-29.64 -70.4,-31.8 -32,26.68 -11.32,-3.2 -49.72,46.68z"/>
   <path class="fil2" d="M9458.93 7115.49l-53.08 208.84c-5.12,448.6 119.52,752.88 126.4,957.36 -77.84,69.32 -124.52,121.24 -195.92,209.2 -80.2,98.8 -114.68,108.52 -199.08,207.32 -364.52,426.56 -96.52,167.32 -429.28,417.88 -273.2,205.68 -529.64,790.72 -991.64,596 -230,-34.4 -287.76,-170.56 -647.76,341.36 -81.36,-53.52 5.92,11.04 -68.76,-46.44 -27.6,-21.24 -42.12,-33.08 -72.88,-64.72 -98.72,-101.76 -18.64,-65.08 -157.96,-135.64 -45.68,53.88 -45.64,-55.04 9.72,123.12l-191.64 -123.92c1.68,13.52 6.16,17.12 4.6,40.56 -1.52,23.32 2.64,27.72 0.04,40.6l24.44 111.76c29.52,1.72 64.96,-16.08 77.84,47.08 31.16,152.88 17.28,-125.12 -5.32,98.32 5.32,-2.8 107.4,-46.52 111.12,-46.24 111.88,8.8 19.88,-9.52 91.76,46.24 -136.96,43.2 -52.68,-1 -192.4,15.4 34.4,51.68 -4.6,11.96 62.28,75.32l97.2 75.52c-98.72,52.12 -197.04,195.28 -254.6,347.12 5.08,6.4 11,9.16 13,20.8l71.48 122.16c502.52,40.2 270.12,-130.6 791.12,-624.76 83,-281.36 162.4,43.04 773.76,-127.64 303.72,-84.8 221.4,-167.68 551.64,-495.52l660.52 -633.8c14.68,58.96 39.84,142.6 53.6,191.92 25.12,90.16 22.88,138.28 47.84,240l14.36 4.68c43.44,-171.8 25.16,-192.52 -36.64,-328.8 158.28,-61.72 -6.88,-44.6 129.32,-15.64 -7.72,-204.48 -27.08,-154.76 -58.52,-288.96 179.2,-130.48 85.24,-149.6 144.32,-345.2 363.52,-84.36 357.08,371.04 653.04,209.72 0.12,-134.52 -71.76,-135.52 -163.4,-240.16 -74.52,-85.08 -87.44,-131.92 -174.56,-234.16 -123.84,-145.4 -317.2,-321.36 -251.16,-521.2l159.72 139.64c95.64,114.24 432.68,460.96 565.84,473.2 180.92,-222.16 -170.36,-393.88 -227.84,-617.88 121.24,13.8 299.2,87.16 383.76,167.08 99.36,93.96 156.28,289.08 322.4,190 46.44,-66.56 33.68,17.16 21.16,-92.36 -9.04,-79.12 -128.72,-219.24 -159.8,-348.52 144.52,12.88 165.8,94.84 334.44,248.4 4.32,3.96 13.52,11.6 20.04,17.68 163.68,-11.64 53.44,-17.64 149.72,-101.6 -33.28,-326.16 -198.12,-254.68 -315.16,-618.92 212.56,76.16 134.6,117.28 281.64,250.16l155.56 -32.64 25.64 -8.68c-18.96,-300.52 -204.48,-539.76 -212.16,-588.2 -2.76,-17.32 -9.08,-21.16 -13.88,-31.6 200.52,10.4 241.16,84.52 423.12,351.24 152.28,59.88 131.76,277.4 345.72,186.52 15.4,-46.04 20.28,53.76 6.08,-68.16 -1.04,-8.92 -7.24,-36.96 -10.28,-46.32 -45.52,-141.32 -133.2,-139.08 -163.52,-300.52 -103.12,-118.04 -189.12,-408.24 -390.76,-639.72 -40.76,-46.76 -26.4,-13.04 -55.08,-76.52 187.32,-73.4 350.12,259.56 546.6,548.08 107.52,153.64 153.48,203.48 219.2,401.08 215.64,-9.88 211,-51.48 151.68,-211.64l-227.04 -721.4c-34.64,-94.36 -133.6,-246.8 -24.96,-268.64 -18.08,-119.04 -30.4,-107.64 -117.12,-181.2l-47.64 -37c-187.88,7.4 -478.4,10.08 -658.44,115.68l-204.12 210.04c-249.44,319.52 -140.44,242.92 -279.16,497.24 -49.32,90.52 -87.56,171 -124.92,276.08 -0.04,0 -183,603.52 -206,554.84 -2.6,-5.52 -10.32,17.56 -16.64,25.56 -354.52,-235.72 -227.4,-32.8 -457.76,-139.32 -204.24,-94.44 -355.48,19.96 -564.84,2.84z"/>
   <path class="fil0" d="M3759.88 6381.05c-142.4,401.64 -95.08,568.2 -194.16,705.96l-302.28 -629.8c-43.08,-99.2 -63.64,-124.12 -198.52,-143.64l-104.12 -19.76c-46.24,60.4 -56.2,135.72 -72.32,218.72 -93,-34.12 -239.92,-149.6 -537.24,-147.8 -81.84,0.48 -533.12,3.48 -589.24,23.2 -519.32,45.6 -84.04,724.56 -67.56,1178.48 10.28,284.56 176.64,790.6 319.32,1024.28l333.16 474.72c86.84,98.84 150.92,222.8 345.12,230.72 36.68,-105.04 94.08,5.44 201.88,-167.64 67.68,-108.64 40.52,-151.76 141.24,-266.52 281.12,-320.36 201.08,-281.2 303.2,-408.56 55.2,-68.84 23.8,-34.12 77.56,-75.96 6.6,-65.64 6.84,-77.16 47.04,-165.84 142.56,-314.52 55.72,-102.92 154.76,-454.36 61.4,-217.96 176.64,-366.96 230.4,-593.32 10.88,-250.04 153.68,-748.48 126.64,-945.52l-178 0.12 -36.88 162.52z"/>
   <path class="fil3" d="M10921.65 3133.96c13.2,54.08 222.52,131.88 302.32,275.48 137.56,247.44 -48.28,132.88 27.64,509.04l-262.08 87.2c-99.04,-98.56 -246.92,-316.24 -341.92,-363.88 -63.8,-28.12 -125.92,-62.84 -224.76,-34.08 -128.32,37.36 -22.88,37.2 -181.56,104.28l-410.84 153.64c-179.64,16.68 -302.8,-88.68 -466.88,47.48 -114.32,94.84 -156.6,206.4 -177.36,406.16 45.48,31.36 -82.12,50.24 83.48,23.68l104.64 19.84c253.44,-455.76 923.6,-123.2 1310.4,-48.36 225.04,43.52 316.36,38.96 552.68,47.6l2.32 -265.04 223.24 -64.48c225.64,249.72 79.92,222.48 167.36,320.8 49.12,65.16 41.64,-18.36 70.72,133.52 92.96,-48.8 143.92,-26.6 273.16,-32.28l48.96 -206.32c169.64,-30.16 173.6,-24 216.28,98.88 20.88,60.16 46.2,221.76 57.68,299.28l275.4 -25.4c56.68,181.08 19.32,333.12 -100.6,429.56 50.28,208.6 135.48,636.72 244.64,786.52 93.76,119.88 79.8,305 70.16,480.52 7.64,9.28 16.84,11.76 20.32,29.92 3.32,17.32 14.68,21 18.88,28.96 86.52,162.64 95.8,423.44 84.2,611.84 -9.4,153.04 -64.56,546.52 47.68,679.6 327.64,-303.44 111.6,-895.64 107.24,-1384.24 -4.68,-528.92 -172.6,-696.32 -252.04,-978.84 -53.64,-190.72 49.88,-156.16 43.36,-316.84 15.76,-90.88 -164.48,-377 -208.88,-460l-282 -431.32c-217.32,-340.68 -358.52,-699.8 -625.76,-1002.16 -199.52,-225.8 -112.04,-210.24 -214.8,-326.36 -64.32,-72.64 -84.48,-48.2 -164.2,-176.96 -227.96,-368.12 -349.48,-323.4 -550.88,-529.88 -81.52,-83.56 -231.04,-313.72 -418.68,-310 -76.4,66.24 -65.4,-13.24 41.56,138.84 38.08,54.16 71.72,99.44 112.48,163.92l621.24 908.88c-152.04,-66.32 -135.2,-113.96 -281.6,8.64l36.8 162.36z"/>
   <path class="fil4" d="M1820.56 5546.65l89.28 11.64c41.72,-71.16 65.4,-94.2 116,-147.04 56.4,-58.96 85.52,-69.68 106.72,-149.72 -11.24,-44.92 -12.8,-180.2 -15.88,-254.4 54.88,-207.64 -70.36,-263.76 88.24,-565.16 80.56,-153.08 215.6,-255.92 289.08,-420.64l58.76 74c176.24,3.04 218.68,-76.76 370.96,-68.4 25.08,1.4 405.96,65.88 424.8,72.12 227.6,75.32 265.2,184.6 335.56,275.88 4.48,5.84 10.6,13.8 15.36,19.36l157.92 162.24 87.32 10.76c57.56,-347.56 -60.32,-146.76 -107.36,-588.2 -293.32,-149.6 -190.88,-404.48 -429.96,-303.44 -174.16,149.84 -614.88,118.76 -558.48,-195.24 30.08,-167.52 328.88,-419.56 520.84,-424.8 235.24,-237.72 468.88,-182.68 640.8,-331.64 134.52,-116.6 683.08,-473.64 875.08,-544.76 142.88,-52.96 182.24,-77.56 315.72,-158.36 814.4,-493.2 749.4,-57.04 966.08,-322.28 157.16,-192.32 92.52,-101.68 335.44,-139.08 159.28,-24.52 200.08,-86.32 344.56,-129.44l1183.36 -238c381.84,-99.44 583.4,51 813.08,28.24 -156.36,48.04 -106.36,-0.68 -157.08,-76.8 -136.44,-190.12 -921.4,-3.56 -1065.24,7.36 -333.36,25.32 -813.6,152.76 -1151.4,234.04 -142,34.16 -290.64,-9.08 -872.4,147.2 -140.84,37.84 -143.4,77.04 -268.4,113.68 -232.88,68.24 -319.24,30.56 -532.96,172 -100,66.16 -80.2,72.2 -223.28,117.32l-288.52 87.56c-178.4,62.28 -85.6,46.64 -158.84,178.64 -77.56,139.84 -89.6,49.44 -215.4,53.16 -158.8,4.68 -540.68,268.24 -650.08,396.44 -115.92,135.8 -48.4,6.2 -277.08,266.84l-345.72 366.2c-53.36,56.24 -28.4,32.72 -73.64,94.28 -361.96,492.6 -825.52,1069.12 -819.84,1652.28 -111.64,85.56 -251.08,106.6 -147,273.76l223.6 242.4z"/>
   <path class="fil0" d="M3496.68 8697.65l-247.8 378.68c-36.64,48.04 -120.48,125.36 -147.28,159.64 -55.28,70.76 -56.52,117.16 -92.44,192.96 -47.96,206.68 9.6,423.44 88.88,577.44 97.88,190.16 154.2,254.48 231.92,442.6 102.04,55.92 98.92,97.8 153.88,222.52 2.84,6.36 7.92,16.44 10.4,22.08l27.12 65.12c220.44,-27.8 135.96,-106.2 104.04,-281.16 22.8,-42.44 48.68,-128.04 116.68,-175.64 91.6,52.8 132.36,212.84 217.84,443.92 18.96,51.28 23,67.56 42.48,122.04 35.16,98.36 -1.44,40.28 51.6,117.44 68.68,99.84 84.36,49.16 152.84,207.92 116.2,-14.88 32,39 95.32,-71.08l73.08 -77.72c96.28,-120.08 50.12,-156.8 148.12,-298.16 26.36,-251.6 139.8,-304.84 -4.52,-534 32.2,-192.96 -126.24,-371.88 -167.32,-498.8 -174.28,-143.68 -54.24,-376.24 -61.12,-891.24 -2.2,-164 -44.88,-285.44 -40.88,-474.12 3.64,-171.52 79.6,-250.96 -53.4,-352.72 -137.84,28.6 -223.76,237.8 -303.32,369.04 -52.76,87 -101.36,151.12 -168.48,202.48 -49.48,37.84 -175.44,107.92 -227.64,130.76z"/>
   <path class="fil1" d="M5070.21 14565.22c116.68,-15.44 56.72,-8.08 119.32,28.04 -421.8,97.96 -903.12,91.4 -1309.72,193.92 -415.6,104.76 -918.88,106.76 -1350.6,18.2 184.2,172.64 664.52,224.92 946.64,278.4 342.24,64.88 617,259.12 986.52,237.04l152.88 -21.64c36.84,-28.92 -5.36,-7.64 72.32,-42.8l372.84 -100.6c795.12,-226.96 1342.44,-650.8 1938.16,-908.28 258.56,-111.76 539.72,-201.2 722.64,-375.88l-92.04 -246.48c-53.28,-127.16 -90.48,-87.8 -201.36,-195.72 216.6,-403.32 277.68,-135.24 245.12,-398.88 -238.92,1.44 -208.28,5.2 -366.08,137.68 -493.52,414.48 -357.68,362.56 -493.52,488.28 -123.88,114.64 -231.4,59.88 -343.96,128.68 -263.16,160.84 -345.12,426.28 -483.44,500.6 -280.4,150.72 -506.2,129.08 -824.64,164.24l-91.08 115.2z"/>
   <path class="fil1" d="M12135.57 5790.73c-108.64,21.84 -9.68,174.28 24.96,268.64l227.04 721.4c59.32,160.16 63.96,201.76 -151.68,211.64 -65.72,-197.6 -111.68,-247.44 -219.2,-401.08 -65.12,42.6 -16.92,-37.32 -75.2,66.96 -21.08,37.68 -18.08,59.04 -25.56,101.2 30.32,161.44 118,159.2 163.52,300.52 3.04,9.36 9.24,37.4 10.28,46.32 14.2,121.92 9.32,22.12 -6.08,68.16 -213.96,90.88 -193.44,-126.64 -345.72,-186.52l-92.72 -32.04c-20.44,63.88 -33.88,87.6 -45.64,133.48l-58.72 167.12 -25.64 8.68c-47,64.48 -93.12,112.88 -100.56,185.08 -9.32,90.16 14.8,39.88 12.76,106.76 -2.84,93.64 -7.44,64.84 -34.24,109.56 -96.28,83.96 13.96,89.96 -149.72,101.6 -128.24,41.6 -106.84,28.28 -143.2,182.12 -22.4,94.88 -46.36,200 -40.2,295.2 6.08,93.92 148.72,415.36 217.08,482.32 74.76,-117.24 451.12,-455.68 578.24,-595.56 251.92,-277.16 190.52,-417.96 522.72,-658.2 345.12,112.08 174.6,327.84 202.48,457.04l-0.72 103.52c160.64,-108.32 157.12,-279.64 375.76,-324.92l2.2 -41.8c-112.24,-133.08 -57.08,-526.56 -47.68,-679.6 11.6,-188.4 2.32,-449.2 -84.2,-611.84 -4.2,-7.96 -15.56,-11.64 -18.88,-28.96 -3.48,-18.16 -12.68,-20.64 -20.32,-29.92l-9.28 168.12 -182.28 48.32c-40.52,-148.16 -79.96,-203.24 -105.12,-401.56 -26.8,-211.24 2.36,-306.64 226.52,-295.4 -109.16,-149.8 -194.36,-577.92 -244.64,-786.52l-25.44 -14.96c-33.4,149.68 -108.52,255.32 -125.28,404.76 -26.24,234.4 20.8,252.52 -185.64,350.36z"/>
   <path class="fil5" d="M5998.73 3777.44c25.4,-283.72 -97,-419.76 -101.92,-434.36 -68.64,-204.52 203,-37.76 340.36,-157.48 154.2,-134.44 -48.16,-224.12 -223.6,-228.16 -215.72,-4.92 -323.72,-2.52 -492.16,65.36 -259.04,104.4 -241.12,-7.4 -404,60l-390.16 155.96c-378.4,207.08 -580.48,158.96 -631.76,437.08 9.12,6.4 21.48,11.64 29.84,15.08 8.2,3.4 19.68,10.12 29.72,13.88l169.6 31c11.72,116.88 16.04,226.8 30.92,328.6 23.76,162.36 28.84,155.72 66.28,281.96 47.88,161.52 14.8,205.68 35.44,344.2 22.12,148.6 1.96,35.48 45.68,118l35.36 64.64c37.2,66.92 -29.96,-30.2 23.8,46.84 29,41.6 35,75.64 130.24,80.2 269,12.8 370.36,-588.24 418.44,-779.64 329.08,-45.52 686.4,-263.44 887.92,-443.16z"/>
   <path class="fil6" d="M9674.01 9010.93c4.32,5.28 8.12,8.8 9.08,18.28 1.04,9.84 7.32,15.32 8.72,19.36l15.16 45.04c50.2,178.32 16.08,252.12 141.56,331.8l126.2 78.4c3.08,3.16 40.44,53.96 42.68,57.04 82.2,113.52 65.32,67.24 105.16,194.96 176.68,-45.32 494,-311.76 632.36,-456 72.04,-75.12 50.16,-89.08 108.32,-161.8l413.88 -410.16c-68.36,-66.96 -211,-388.4 -217.08,-482.32 -6.16,-95.2 17.8,-200.32 40.2,-295.2 36.36,-153.84 14.96,-140.52 143.2,-182.12 -6.52,-6.08 -15.72,-13.72 -20.04,-17.68 -168.64,-153.56 -189.92,-235.52 -334.44,-248.4 31.08,129.28 150.76,269.4 159.8,348.52 12.52,109.52 25.28,25.8 -21.16,92.36 -166.12,99.08 -223.04,-96.04 -322.4,-190 -84.56,-79.92 -262.52,-153.28 -383.76,-167.08 57.48,224 408.76,395.72 227.84,617.88 -133.16,-12.24 -470.2,-358.96 -565.84,-473.2l-159.72 -139.64c-66.04,199.84 127.32,375.8 251.16,521.2 87.12,102.24 100.04,149.08 174.56,234.16 91.64,104.64 163.52,105.64 163.4,240.16 -295.96,161.32 -289.52,-294.08 -653.04,-209.72 -59.08,195.6 34.88,214.72 -144.32,345.2 31.44,134.2 50.8,84.48 58.52,288.96z"/>
   <path class="fil7" d="M4462.37 15320.82c-369.52,22.08 -644.28,-172.16 -986.52,-237.04 -282.12,-53.48 -762.44,-105.76 -946.64,-278.4 -243.64,-20.04 -602.76,-171.64 -818.64,-258.48 -111.24,-44.76 -270.6,-100.72 -381.2,-159.12 -199.12,-105.16 -77.6,-113.52 -376.4,-181.68l837.24 836.52c210.32,163.68 692.96,249.88 925.48,322.44 198.2,61.84 381.08,126.52 574.32,181.32 133.88,38 438.44,89.84 570.6,137.4 167.72,60.4 52.64,80.28 205.44,164.56 315.48,174.04 306.64,-36.64 861.4,238.96 156.6,-96.88 526.52,-304.8 601.08,-490.44 -84.76,-30.36 -698.2,18.84 -1006.28,-103.8l-111.68 -65.52c14.68,-28.72 37.96,-84.92 51.8,-106.72z"/>
   <path class="fil1" d="M4410.81 7641.61l-58.32 136c-6.4,28.16 -8.72,96.6 -12.12,131.56l-144.24 86.2c133,101.76 57.04,181.2 53.4,352.72 -4,188.68 38.68,310.12 40.88,474.12 6.88,515 -113.16,747.56 61.12,891.24 -65.56,-319.76 -0.84,-579.08 -3.6,-889.88 -1.84,-210.2 -112.56,-668.32 3.76,-833.84 191.24,119.84 145.2,896.72 178.68,1165.64 22.08,177.44 17.4,450.2 99.84,574.72 104.68,158.2 142,331.36 14.6,514.24l-125.96 -32.08c144.32,229.16 30.88,282.4 4.52,534 133.72,71.08 68.08,42.68 133.04,143.64 207.96,323.48 94.04,-135.96 320.84,497.56 2.44,6.84 6.4,18.76 10.68,27.68 -0.56,-142.4 -13.76,-558.56 222.84,-411.12 92.6,57.68 54.56,119.96 71,248.12 14.96,116.44 49.96,146.16 35.72,267.64 465.76,-162.04 139.2,84.36 518.08,683.28 44.2,-94.32 23.4,-66.32 87.48,-115.64 -42.68,-86.76 -6.08,-45.48 -81.04,-113.64 21.92,-149.72 -678.8,-1916.92 -778.04,-2134.44l-121.6 -358.28c-43.84,-152.72 -112.92,-280.6 88.44,-306.56 -47.68,-125.2 -99.64,-169.12 -134.84,-337.44 -14.52,-198.4 -80.44,-483.28 -23.4,-718.24 -218.44,26.44 -218.16,0.48 -296.68,-196.44 -28.88,-72.4 -50.04,-132.8 -79,-197.12 -48.16,-106.92 -35.72,-179.72 -86.08,-83.64z"/>
   <path class="fil6" d="M12955.62 7709.73c-218.64,45.28 -215.12,216.6 -375.76,324.92l0.72 -103.52c-6.72,7.4 -13.52,11.16 -15.36,25.8l-146.92 473.08c-155.24,354.2 -353.8,847.48 -621.28,1102.16 -118.36,112.72 -55.36,85.36 -128.6,231.36 205.28,-107.72 55.08,-107 572.68,-298.64l340.2 -225.56c24.48,-36.16 -8.4,-218.24 113.52,-335.8 103.84,-100.16 273,-114.6 423.28,-122.12 412.76,-663.12 373.56,-617.48 451.08,-1241.92 44.48,-358.44 -76.72,-1337.2 -258.6,-1483.68 -74.96,64.04 -3.28,26.68 -157.08,50.88 -4.28,0.68 -19.28,10.76 -22.36,3.68 -3.08,-7 -15.24,0.96 -22.12,3.88 21.16,172.56 324.52,1498.52 112.32,1716.8 -107.76,110.88 -231.64,41.56 -265.72,-121.32z"/>
   <path class="fil0" d="M9091.25 7876.89c-72.84,-69.84 -23.24,34.08 -52.76,-103.44l-13.24 -802.36 403.4 -7.52c90.04,-245.96 28.96,-129.48 -37.6,-500.84l-125.12 -36.08c-70.88,-32.32 -169.6,-77.12 -272.4,-111 -45.68,-15.08 -108.52,-28.12 -153.64,-45.28 -138.72,-52.68 -35.36,15.96 -118.92,-69.16 -277,36.24 -163.88,-15.52 -339.16,106.8 -53.12,-38.84 -128.28,-86.44 -195.24,-133.72 -119.2,-84.12 -106.44,-52.04 -165.12,-151.68l-83.52 -30.56 -171.12 19.52c-7.56,160.04 14.8,132.48 97.36,248.36 72.28,101.36 53.84,100.28 153.52,185.28 324.68,276.84 615.68,952.24 635.2,1391.28l157.92 81.96c0.16,113.88 -8.24,185.68 45.16,254.84 176.88,-23.36 76.28,37.12 235.28,-296.4z"/>
   <path class="fil8" d="M7479.61 10175.73c42.08,106.36 115.8,144.92 77.76,254.44 -23.48,67.56 -122.92,112.64 -184.04,238.56 -87.64,180.48 -169.76,353.72 -105.24,474.92l127.48 118.12c2.68,-265.6 45.2,-284.68 151.44,-493.8 38.16,-75.12 216.56,-328.44 307.68,-161.2 6.24,-5.84 11.72,-26.52 13.64,-21.56l37.04 -69.28c54.44,-103.08 51.72,-165.32 307.12,-153.84 328.52,380.64 248.56,255.36 609.6,519.48 87.16,-89.32 187.08,-206.64 208.64,-374.76 -68.68,-77.36 -47.08,-44.12 -35.04,-181.12 60.44,-687.08 14.6,-357.76 322.64,-733.08 190.6,-232.2 51.44,-192.56 248.64,-241.92 -24.96,-101.72 -22.72,-149.84 -47.84,-240 -13.76,-49.32 -38.92,-132.96 -53.6,-191.92l-660.52 633.8c-330.24,327.84 -247.92,410.72 -551.64,495.52 -611.36,170.68 -690.76,-153.72 -773.76,127.64z"/>
   <path class="fil0" d="M9269.69 4342.97c-79.68,96.44 -123.08,143.8 -217.92,211.4l14.16 156.36c14.84,14.36 68.84,62.52 91.36,82.72 -33.88,54.2 -52.84,59.84 -80.44,122.84 -30.92,70.68 -11,91.2 -42.48,152.48 28.24,153.4 63.4,193.72 248.52,163.88 98.44,-140.56 113.68,-250.84 198.68,-422 454.96,-31.64 735.12,-147.52 1206,-89.2 164.64,20.36 242.6,47.68 417.4,2.16 569.4,-12.28 342.48,-58.76 541.04,-236.24l-15.68 -134.04c-87.44,-98.32 58.28,-71.08 -167.36,-320.8l-223.24 64.48 -2.32 265.04c-236.32,-8.64 -327.64,-4.08 -552.68,-47.6 -386.8,-74.84 -1056.96,-407.4 -1310.4,48.36l-104.64 -19.84z"/>
   <path class="fil3" d="M518.72 13647.22c-64.48,19.04 -29.48,-31.2 -59.6,53.12 184.52,83.04 131.64,100.8 256.64,249.88 87.04,103.84 164.48,172.64 237.2,255.88 298.8,68.16 177.28,76.52 376.4,181.68 110.6,58.4 269.96,114.36 381.2,159.12 215.88,86.84 575,238.44 818.64,258.48 431.72,88.56 935,86.56 1350.6,-18.2 406.6,-102.52 887.92,-95.96 1309.72,-193.92 -62.6,-36.12 -2.64,-43.48 -119.32,-28.04l-108.76 -2.48c-398.8,-25.8 -772.28,25.32 -1182.28,15.12 -1044.24,-25.92 -673.56,9.04 -1611.16,-217.32 -783.24,-189.12 -736.92,-359.4 -1075.84,-448.96 -151.48,-40.04 -108.16,14.24 -225.84,-77.12 -0.08,-176.48 18.96,-82.04 79.68,-202.92 -4.12,-85.92 78.64,-71.96 -70.08,-58.04 -151.28,14.2 -13.12,60.8 -175.84,80.64l-181.36 -6.92z"/>
   <path class="fil5" d="M11104.97 4723.61c-45.68,118.64 -6.64,101.72 -115.6,159.88 111.96,31.12 56.16,-48.8 58.08,176.16 0.56,64.16 -4.6,141.32 -4.16,207.84 0.88,138.92 14.56,273.68 19.32,412.04 102.2,-47.96 101.44,-43.72 215.64,-81.08 293.84,-96.16 53.2,-172.24 287.16,-87.36 234.8,85.16 137.12,-87.4 526.28,71.36l-120.88 -9.92 47.64 37c86.72,73.56 99.04,62.16 117.12,181.2 206.44,-97.84 159.4,-115.96 185.64,-350.36 16.76,-149.44 91.88,-255.08 125.28,-404.76 -16.72,-130.2 -83.04,-291.36 -170,-370.76 -247.4,10.44 -67.28,-34.28 -165.56,67.84 -68.48,71.16 -99.44,225.76 -313.92,-70.8 -137.36,-189.88 -130.68,-37.64 -151,-174.52 -198.56,177.48 28.36,223.96 -541.04,236.24z"/>
   <path class="fil5" d="M10409.81 3300.28c63.52,-143.36 91.8,-190.88 61.48,-392.24 -148.92,-33.84 -313.08,-21.8 -391.92,-119.16 -76.44,-94.4 -66.2,-240.76 -156.32,-348.24l-161.48 7.24c-114.28,321 85.56,147.2 -214.12,328.48 -223.72,135.32 -316.4,483 -381.6,703.84 -43.8,148.36 -89.56,249.88 5.48,389.48 151.32,20.48 140.36,23.56 202.64,-97.32 180.72,-350.84 210.36,1.64 651,-62.72 99.6,-513.92 105.08,-385.44 384.84,-409.36z"/>
   <path class="fil7" d="M4615.25 15299.18c477.36,1.96 971.28,-91.28 1368.88,-339.4 667.08,-416.28 550.32,-173.32 900.88,-351.76 509.32,-259.24 587.52,-148.32 948.16,-267.6 225.6,-74.6 274.28,-114.92 195.08,-368.96 -34.44,-14.08 13.2,68.32 -44.68,-47.96 -59.64,-119.72 -24.52,-25.8 -29.4,-117.48 -166.52,-138.56 -67.76,-117.36 -325,-180.88l92.04 246.48c-182.92,174.68 -464.08,264.12 -722.64,375.88 -595.72,257.48 -1143.04,681.32 -1938.16,908.28l-372.84 100.6c-77.68,35.16 -35.48,13.88 -72.32,42.8z"/>
   <path class="fil3" d="M6428.49 6057.77c150.72,12.96 296.32,68.96 437.96,116.52 289.2,97.2 75.52,160.64 296.32,314.96 141.56,98.96 272.76,348.24 364.72,507.44l55.2 84.6c72.68,115.28 4.64,-3.2 57.96,115.8 95.72,213.52 96.96,1.8 384.6,796.08l191.48 701.04c20.2,100.84 -2.44,184 34.36,239.4 87.92,3.92 25.76,30.04 84.76,-19.6 6.52,-125.16 -165.04,-925.28 -212.72,-1083.92l-354.92 -966.36c-106.68,-288.28 -244.04,-691.28 -451.72,-870.52 -277.12,-239.12 -691.8,-14.28 -1034.84,-14.28l123.2 53.48c6,-8.2 15.64,17.04 23.64,25.36z"/>
   <path class="fil7" d="M6604.01 10657.53l-18.84 123.88c80.04,79.52 128.72,144.68 126.96,295.08 -137.92,-3.6 -647.12,-171.08 -793.92,-206.28 43.72,235.64 75.76,213.68 308.52,379.96 172.04,122.88 274.84,122.08 468.56,211.36 116.44,53.64 120.44,62.6 259.44,-1.44 7.92,-3.64 15.72,-9.36 23.56,-12.88l95.88 -31.4c231.56,-39.8 208.28,-65.2 391.76,-63.6l290.88 -16.64c6.76,-1.76 18.44,-5.16 26.64,-9.92 -140.12,-9.84 -196.76,-21.44 -349.88,-14.76l-38 -49.12 -127.48 -118.12c-64.52,-121.2 17.6,-294.44 105.24,-474.92 61.12,-125.92 160.56,-171 184.04,-238.56 38.04,-109.52 -35.68,-148.08 -77.76,-254.44 -521,494.16 -288.6,664.96 -791.12,624.76l-71.48 -122.16c-2,-11.64 -7.92,-14.4 -13,-20.8z"/>
   <path class="fil9" d="M1389.84 6554.45c-42.8,1068.28 -31.12,1427.64 449.4,2167.52 -28.72,27.04 59.04,55 -48.8,12.12 72.32,149.08 64.44,106.36 201.88,183.8 73.72,41.56 140.48,115.24 210.76,191.12 305.44,330 92.56,276.36 462.36,329.32 -56.56,-77.92 100.52,-30.68 -93.4,-77.96 238.56,-16.28 20.16,16.24 120,-64.24 -194.2,-7.92 -258.28,-131.88 -345.12,-230.72l-333.16 -474.72c-142.68,-233.68 -309.04,-739.72 -319.32,-1024.28 -16.48,-453.92 -451.76,-1132.88 67.56,-1178.48l-50.92 -29.44c-7.4,-4.16 -16.52,-9.96 -24.72,-14.44 -271.52,-148.24 -265.36,-28.68 -296.52,210.4z"/>
   <path class="fil3" d="M2202.12 6016.65c-108.32,-11.76 -227.72,54.88 -359.96,89.56 -308.96,81 -458.64,-51.08 -796.32,328.64 -76.48,85.96 -75.96,71.6 -95.64,164.92 -43.16,150.8 -13.2,37.8 14.84,88.96 191.72,1.8 288.76,-78.16 424.8,-134.28 31.16,-239.08 25,-358.64 296.52,-210.4 8.2,4.48 17.32,10.28 24.72,14.44l50.92 29.44c56.12,-19.72 507.4,-22.72 589.24,-23.2 297.32,-1.8 444.24,113.68 537.24,147.8 16.12,-83 26.08,-158.32 72.32,-218.72l170.24 -64.52c13.6,-165.04 19.76,-180.84 -126.04,-226.76 -346.96,-109.36 -511.92,9.28 -802.88,14.12z"/>
   <path class="fil10" d="M5317.49 11519.77c-19.6,101.12 -42.2,215.48 -183.4,219.2 31.36,68.92 142.56,256.84 177.52,294.4 56.6,60.76 198.96,127.64 300,168.4 119.2,48.04 372.6,255.08 393.72,282.4l73.56 170.56 412.36 46.72c-68.84,-245.2 -136.4,-350.52 61.76,-492.56 121.12,39.72 79.68,74.44 211.68,141.88l-40.6 -102.12 -495.2 -310.72c-34.44,27.56 -27,20.12 -59.68,55.4 -19.72,21.28 -36.56,46.28 -56.44,70.48l-270.76 -90.04c74.96,68.16 38.36,26.88 81.04,113.64 -64.08,49.32 -43.28,21.32 -87.48,115.64 -378.88,-598.92 -52.32,-845.32 -518.08,-683.28z"/>
   <path class="fil3" d="M3848.12 7163.93c-53.76,226.36 -169,375.36 -230.4,593.32 -99.04,351.44 -12.2,139.84 -154.76,454.36 -40.2,88.68 -40.44,100.2 -47.04,165.84 76.88,-6.28 293.08,-368.72 342.08,-451.68l136.04 -152.36c33.52,-87.36 63.92,-167.16 133.6,-236.16 87.92,-186.64 236.04,-491.6 357.92,-628.04 162.24,-13.96 231.08,10.76 277.6,139.56 35.4,97.88 106.96,298.44 118.2,363.8l75.44 25.08c47.84,-120.16 58.04,-99.8 116.36,-202.84 -80,-92.72 -366.68,-623.36 -511.8,-777.88 -233.36,5.8 -251.68,117.96 -336.96,311.16 -38.72,87.68 -74.88,142.84 -115.84,219.92 -76.56,144.16 -12,106.44 -160.44,175.92z"/>
   <path class="fil1" d="M950.2 6599.77l-79.84 60.2c45.96,383.68 389.92,1291.12 516.08,1707.88 39.56,130.64 32.72,187.6 140.64,268.84 79.32,59.72 172.12,76.88 263.36,97.4 107.84,42.88 20.08,14.92 48.8,-12.12 -480.52,-739.88 -492.2,-1099.24 -449.4,-2167.52 -136.04,56.12 -233.08,136.08 -424.8,134.28 -28.04,-51.16 -58,61.84 -14.84,-88.96z"/>
   <path class="fil11" d="M11062.61 5679.53c-253.88,196.24 -365.28,205.32 -487.84,599.6 -59.72,192.08 -193.16,608.52 -302.6,749.48 -200.52,47.8 -551.2,-92.08 -827.68,-17.2 -32.68,134.48 -18.84,50.36 14.44,104.08 209.36,17.12 360.6,-97.28 564.84,-2.84 230.36,106.52 103.24,-96.4 457.76,139.32 6.32,-8 14.04,-31.08 16.64,-25.56 23,48.68 205.96,-554.84 206,-554.84 37.36,-105.08 75.6,-185.56 124.92,-276.08 138.72,-254.32 29.72,-177.72 279.16,-497.24l204.12 -210.04c180.04,-105.6 470.56,-108.28 658.44,-115.68l120.88 9.92c-389.16,-158.76 -291.48,13.8 -526.28,-71.36 -233.96,-84.88 6.68,-8.8 -287.16,87.36 -114.2,37.36 -113.44,33.12 -215.64,81.08z"/>
   <path class="fil12" d="M9619.69 15551.1c300.12,173.68 181.52,436.8 429.04,485.76 167.72,-170.92 24.52,-460.44 68.08,-705.92 39.72,-224.04 326.12,-313.52 153.48,-535.92 -239.24,-308.24 -249.48,-221.12 -452.12,38.92 -63.04,80.92 -33.32,34.2 -64.8,127.8 -104.68,310.96 -134.56,236.32 -133.68,589.36z"/>
   <path class="fil3" d="M7751.09 9576.05l-121.84 49 87.08 87.04c462,194.72 718.44,-390.32 991.64,-596 332.76,-250.56 64.76,8.68 429.28,-417.88 84.4,-98.8 118.88,-108.52 199.08,-207.32 71.4,-87.96 118.08,-139.88 195.92,-209.2 -6.88,-204.48 -131.52,-508.76 -126.4,-957.36 -112.6,117.56 -24,628.68 -142.72,821.56 -334.84,544.04 -510.52,588.08 -899.36,1065.28 -296.44,363.8 -31.92,314.84 -612.68,364.88z"/>
   <path class="fil0" d="M7738.37 15941.38c-295.08,161.72 -363.8,593.56 -301.32,833.28 0.16,0.56 66.48,174.56 67.72,176.68 282.88,473.52 595.8,-415.68 592.28,-462.68 -13.84,-186.12 -186.04,-476.76 -358.68,-547.28z"/>
   <path class="fil13" d="M12957.82 7667.93l-2.2 41.8c34.08,162.88 157.96,232.2 265.72,121.32 212.2,-218.28 -91.16,-1544.24 -112.32,-1716.8 6.88,-2.92 19.04,-10.88 22.12,-3.88 3.08,7.08 18.08,-3 22.36,-3.68 153.8,-24.2 82.12,13.16 157.08,-50.88 4.28,-171.44 -204.8,-706.76 -279.4,-831.24 -101.28,-168.96 -15.76,-135.52 -174.8,-236.56 6.52,160.68 -97,126.12 -43.36,316.84 79.44,282.52 247.36,449.92 252.04,978.84 4.36,488.6 220.4,1080.8 -107.24,1384.24z"/>
   <path class="fil2" d="M4285.65 5524.49l-32.6 109.08c-13.24,131.76 -13.4,39.68 30.92,72.96 245.16,-47.92 407.52,52.72 608.76,67.28 225.24,16.28 310.68,-56.56 542.52,186.4 75.88,66.08 82.08,87.16 223.24,69.6 51.92,-147.72 -35.16,-220.6 -107.36,-302.52 -110.4,-125.2 -144.08,-110.44 -222.56,-227.96 -226.2,-84.88 -249.28,-320.32 -507.96,-233.68 -146.08,48.92 -289.52,160.04 -394.4,212.76 -99.84,50.2 -60.64,35.88 -140.56,46.08z"/>
   <path class="fil14" d="M4895.97 8837.05c35.2,168.32 87.16,212.24 134.84,337.44l144.52 -24.64 279.56 564.48c147.88,180.52 409.52,-0.72 576.64,270.08 65.48,-87.76 -20.32,-39.76 84.36,-69.64 85.64,-24.4 118.32,-6.64 200.68,13.84 -224.04,-258.84 -153.08,-119.08 -470.16,-430.76 -5.12,-5.04 -12.24,-12.12 -17.48,-17.04l-307.72 -299.68c-164.2,-151.4 -189.2,-222.72 -288.96,-392.36 -99.24,163.12 -86.88,100.72 -336.28,48.28z"/>
   <path class="fil7" d="M8468.97 12491.02c-267.84,140.24 -185.04,299.6 -163.12,601.04 45.32,622.68 140.4,276.16 308.4,577.8 74.72,-106.68 178.68,-769.52 203.04,-919.04 30.16,-185.32 1.2,-243.28 11.88,-410.04 -29.32,29.52 -14.6,11.36 -53.28,57.08l-85.76 120c-39.68,62.04 -74.84,121.56 -102.6,170.4 -158.92,-148.44 -120.08,-131.92 -118.56,-197.24z"/>
   <path class="fil15" d="M3415.92 8377.45c-53.76,41.84 -22.36,7.12 -77.56,75.96 -102.12,127.36 -22.08,88.2 -303.2,408.56 -100.72,114.76 -73.56,157.88 -141.24,266.52 -107.8,173.08 -165.2,62.6 -201.88,167.64 -99.84,80.48 118.56,47.96 -120,64.24 193.92,47.28 36.84,0.04 93.4,77.96l-3.96 -5c173.68,61.12 180.4,15.92 347.68,-4.4 35.92,-75.8 37.16,-122.2 92.44,-192.96 26.8,-34.28 110.64,-111.6 147.28,-159.64l247.8 -378.68c69.92,-186.44 304.08,-331.2 397.36,-924.24l-136.04 152.36c-49,82.96 -265.2,445.4 -342.08,451.68z"/>
   <path class="fil0" d="M10647.61 3641.8c95,47.64 242.88,265.32 341.92,363.88l262.08 -87.2c-75.92,-376.16 109.92,-261.6 -27.64,-509.04 -79.8,-143.6 -289.12,-221.4 -302.32,-275.48l-269.72 -45.76c-210.16,279.56 -105.68,293.92 -68.04,373.72 27.52,58.32 37.28,114.16 63.72,179.88z"/>
   <path class="fil3" d="M4351.53 9713.45c41.08,126.92 199.52,305.84 167.32,498.8l125.96 32.08c127.4,-182.88 90.08,-356.04 -14.6,-514.24 -82.44,-124.52 -77.76,-397.28 -99.84,-574.72 -33.48,-268.92 12.56,-1045.8 -178.68,-1165.64 -116.32,165.52 -5.6,623.64 -3.76,833.84 2.76,310.8 -61.96,570.12 3.6,889.88z"/>
   <path class="fil16" d="M2116.68 5007.13l135.28 -0.88c77.56,89.6 14.36,96.96 133.2,92.16 124.12,-15.48 -2.84,-3.72 154.56,-70.68l-31.36 -54.84c-75,-148 -64.92,-152.12 -48.96,-280.16 154.24,-8.76 161.52,41.16 273.4,100.88 131.24,93.36 40.12,34.48 95.52,-38.88 9.08,-12 46.8,-114.8 59.88,-143.68 45.56,-100.92 112.2,-151.04 117.28,-264.68 -181.92,26.64 -314.16,69.08 -482.6,15.44 -64,-134.12 -16.48,-163.2 29.88,-266.48l-58.76 -74c-73.48,164.72 -208.52,267.56 -289.08,420.64 -158.6,301.4 -33.36,357.52 -88.24,565.16z"/>
   <path class="fil7" d="M2479.44 10369.25l208.04 154.52c151.16,133.52 116.8,586.56 424.44,582.8 83.56,-98.72 40.36,-15.72 83.64,-137.68 -103.88,58.72 -0.6,-35.04 -81.96,40.16 -5,-558.8 262.32,-221.72 -276.16,-907.8 -83.08,-105.88 -144.12,-99.4 -145.4,-231.88 -107.44,72.36 -29.92,13.72 -109.84,100.32 -22.2,24.04 -78.16,92.16 -89.72,112.28 -71.6,124.52 -23.56,179.48 -13.04,287.28z"/>
   <path class="fil5" d="M6588.73 2617.92c135.28,38.8 358.68,37.72 487.2,-48.2 5.16,-3.48 12.2,-10.44 17.28,-14.12l36.4 -29.4c63.76,-46.24 238.6,-103.72 239.48,-408.24 -240.2,-166.64 -254.88,-141.64 -612.88,-138.6 -258.4,271.6 -141.72,-43.96 -167.48,638.56z"/>
   <path class="fil7" d="M9282.89 5232.65c113.4,-33.52 228.8,-89.84 386.12,-136 150.52,-44.12 257.08,-66.16 413.56,-94.32 297,-53.48 594.32,-97.24 906.8,-118.84 108.96,-58.16 69.92,-41.24 115.6,-159.88 -174.8,45.52 -252.76,18.2 -417.4,-2.16 -470.88,-58.32 -751.04,57.56 -1206,89.2 -85,171.16 -100.24,281.44 -198.68,422z"/>
   <path class="fil17" d="M8381.17 5797.53c94.84,92.88 144.72,107.32 219.64,164.72 69,52.88 136.96,124.8 192.36,176.36 -37.32,92.4 10.64,42.76 -72.2,62.6 83.56,85.12 -19.8,16.48 118.92,69.16 45.12,17.16 107.96,30.2 153.64,45.28 102.8,33.88 201.52,78.68 272.4,111 -4.76,-170.32 -164.4,-576.12 -286.44,-706.32 -98.64,-105.24 -47.52,-22.04 -98.16,-173.68 -53.84,-161.24 -34.6,-51.48 -101.4,-199.76l-302.32 358.4c-89.88,71.96 -32.4,-20.76 -96.44,92.24z"/>
   <path class="fil0" d="M3407.36 3675.64c70.12,-170.16 37.04,-31.6 142.44,-193.88 14.24,-21.92 88.2,-158.04 94.48,-176.48 60.04,-176.52 -149.52,-204.52 -274.56,-249.68 -191.96,5.24 -490.76,257.28 -520.84,424.8 -56.4,314 384.32,345.08 558.48,195.24z"/>
   <path class="fil18" d="M3843.52 12307.46c28.64,175.32 259.36,248.28 370.12,344.72 5.36,4.64 12.6,11.52 18,16.16l132.92 107.08c52.88,37.88 205.56,137.04 277.64,78.08 0.8,-233.64 181,-625.52 162.36,-706.04 -262.36,-4.04 -191.36,153.2 -474.64,124.24l-504.56 -83.88 18.16 119.64z"/>
   <path class="fil5" d="M2136.04 13410.66c11.28,142.64 26.96,167.48 150.44,193.56 102.48,21.6 187.24,26.96 275.8,10.36 179.44,-109.68 475.16,-363.6 576.56,-523.84l-197.96 -155.76 -51.52 116.44c-207.48,13.64 -94.48,-14.12 -268.52,-71.24l14.28 -99 -499.08 529.48z"/>
   <path class="fil7" d="M3625.4 10477.53c90.4,41.52 119.12,45.72 123.28,174.88 14.6,452.76 33.36,275.96 -182.6,467.92 40.2,102.44 42.92,335.56 252.56,424.36 38.32,-162.96 20.08,-195.24 126.64,-271.64 318.44,180.32 -114.24,370.92 203.04,496.04l-29 -355.76c-0.96,-37.4 -8.72,-71.72 2.52,-108.84 55.4,-183.32 16,-60.56 85,-111.28 -68.48,-158.76 -84.16,-108.08 -152.84,-207.92 -53.04,-77.16 -16.44,-19.08 -51.6,-117.44 -19.48,-54.48 -23.52,-70.76 -42.48,-122.04 -85.48,-231.08 -126.24,-391.12 -217.84,-443.92 -68,47.6 -93.88,133.2 -116.68,175.64z"/>
   <path class="fil9" d="M2661.48 9433.33c54,111.76 39.56,53.36 63.36,103.84 27.84,59.12 38.92,6.56 28.04,128.56 -13.16,147.6 -70.6,85.84 -60.84,203.64 1.28,132.48 62.32,126 145.4,231.88 538.48,686.08 271.16,349 276.16,907.8 81.36,-75.2 -21.92,18.56 81.96,-40.16 178.12,-88.24 -2.52,-146.8 215.28,-136.72 -6.48,-8.56 -16.88,-31.44 -20.6,-24.72l-74.48 -77.12c-19.56,-19.72 -81.08,-91.96 -87.68,-105.6 -18.72,-38.84 -36.2,-88.36 -22.2,-135.44 41.28,-138.76 87.12,-53.28 124.08,-40.32 -77.72,-188.12 -134.04,-252.44 -231.92,-442.6 -79.28,-154 -136.84,-370.76 -88.88,-577.44 -167.28,20.32 -174,65.52 -347.68,4.4z"/>
   <path class="fil1" d="M6031.53 9984.41l-1.76 28.88c40.72,188.84 -12.12,45.2 100.12,149.36 35.52,33 59.28,39.72 84.68,81.64 53.84,88.88 39,188.6 65.16,308.04 36.52,89.08 195.64,195.12 305.44,229.08l18.84 -123.88c57.56,-151.84 155.88,-295 254.6,-347.12l-97.2 -75.52c-66.88,-63.36 -27.88,-23.64 -62.28,-75.32 -213.6,-35 -217.2,-144.88 -382.56,-230.96 -82.36,-20.48 -115.04,-38.24 -200.68,-13.84 -104.68,29.88 -18.88,-18.12 -84.36,69.64z"/>
   <path class="fil19" d="M4302.17 11122.13c73.28,45.84 43.8,-7.2 83.8,81.96 16.68,37.16 15.56,84.68 10.6,122.56 -6.8,51.56 -46.48,124.64 -64.4,176.92l-48.04 162.56c62.2,-25.92 125.2,-50.96 187.24,-79.6 53.8,-24.84 116.16,-47.84 166.6,-73.2 204.4,-102.72 166.24,-94.8 369.8,-12.08l-19.84 -86.12c-4.28,-8.92 -8.24,-20.84 -10.68,-27.68 -226.8,-633.52 -112.88,-174.08 -320.84,-497.56 -64.96,-100.96 0.68,-72.56 -133.04,-143.64 -98,141.36 -51.84,178.08 -148.12,298.16l-73.08 77.72z"/>
   <path class="fil20" d="M3032.8 12345.5l59.32 6.88 12.16 213.04c196.8,56.96 212.08,143.32 229.92,-114.76 12.04,-174.68 31.96,-290.48 43.4,-457.6 -52.2,-343.36 -201.92,-285.64 -498.4,-377.04 -21.68,59.24 110.16,628.32 153.6,729.48z"/>
   <path class="fil21" d="M8111.29 4103.93c-155.44,0.84 -120.28,5 -220.12,-70.36 -130.76,-98.72 -53.08,-42.72 -202.28,-103.68 -128.96,-52.68 -280.2,-123.56 -314.6,-273.4 -85.48,42.88 -121.68,20.8 -224.68,69.96 -113.84,593.24 802.2,568.44 802.84,568.2 68.2,-26.28 65.4,-46.12 115.64,-123.4l28.4 -45.24c2.28,-12.48 9.2,-15.2 14.8,-22.08z"/>
   <path class="fil5" d="M6724.09 12248.66l40.6 102.12c107.84,125.44 74.44,199.12 127,324.72 223.6,13.2 307.84,-66.92 575.56,-65.4 36.08,-24.44 54.24,-33.64 -46.8,-175l-485.08 -544.04c6.52,178.64 11.76,126.96 -70.48,227.68 -6.28,7.68 -55.84,61.96 -62.44,68.4 -77.4,75.68 46.36,16.92 -78.36,61.52z"/>
   <path class="fil3" d="M7937.93 5992.05l83.52 30.56c49.32,-20 51.04,-5.84 83.36,-54.16 22.12,-33.04 18.52,31.76 17.44,-57.6 -0.08,-5.8 -3.24,-17.64 -4.04,-23.16 -1.16,-8 -12.76,-40.04 -18.72,-49.6 -52.64,-143.04 -2.24,-49.68 0.04,-167.08l-1.68 -128.6c4.32,-128.16 494,-380.36 633.04,-393.52 -42.08,-108.04 -30.2,-149.4 -84.56,-245.32 -206.8,-54.64 -260.48,13.08 -364.24,128.12 -155.04,171.76 -437.56,492.72 -400.08,768.96 19.96,147.04 41.64,38.88 55.92,191.4z"/>
   <path class="fil14" d="M3894.04 7773.41c-93.28,593.04 -327.44,737.8 -397.36,924.24 52.2,-22.84 178.16,-92.92 227.64,-130.76 67.12,-51.36 115.72,-115.48 168.48,-202.48 79.56,-131.24 165.48,-340.44 303.32,-369.04l144.24 -86.2c3.4,-34.96 5.72,-103.4 12.12,-131.56l58.32 -136c-9.24,-5.08 -19.84,-12.8 -26.72,-17l-148.04 -81.8c-68.28,81.28 -38.96,93.8 -155.28,125.36 -63.84,-78.36 -43.2,-35.92 -53.12,-130.92 -69.68,69 -100.08,148.8 -133.6,236.16z"/>
   <path class="fil22" d="M6923.49 9618.13c-92.4,18.72 13.88,-6.36 -62.32,24.52l-147.16 50.04c22.32,45.16 41.2,87.84 54.96,113.96 139.32,70.56 59.24,33.88 157.96,135.64 30.76,31.64 45.28,43.48 72.88,64.72 74.68,57.48 -12.6,-7.08 68.76,46.44 360,-511.92 417.76,-375.76 647.76,-341.36l-87.08 -87.04 121.84 -49c120.36,-91.48 341.36,-80.56 281.32,-290.48 -151.4,31.12 -85.6,70.16 -255.48,119.84 -68.8,20.08 -198.68,31.64 -282.32,61.08 -200.56,70.52 -355.84,175.56 -571.12,151.64z"/>
   <path class="fil3" d="M4285.65 5524.49c79.92,-10.2 40.72,4.12 140.56,-46.08 104.88,-52.72 248.32,-163.84 394.4,-212.76 258.68,-86.64 281.76,148.8 507.96,233.68 96.48,-26.8 46.2,65.08 91.32,-72.36 32.88,-100.16 -112.6,-202.8 -144.4,-236.24 -379.16,-398.4 -297.32,-208.32 -558.44,-99.96 -82.36,34.16 -139.04,47.76 -223.36,79.88 -267.72,101.88 -285.44,319.08 -208.04,353.84z"/>
   <path class="fil9" d="M3064.92 6313.57c134.88,19.52 155.44,44.44 198.52,143.64l302.28 629.8c99.08,-137.76 51.76,-304.32 194.16,-705.96 -36.68,-40.88 -47.84,35.44 -39.96,-126.8 -301.24,-8.56 -79.8,-109.64 -334.08,-87 -3.32,0.28 -174.36,30.88 -191.92,37.68 -37.44,14.52 -35.92,13.24 -69.4,38.88 -83.16,63.68 7.08,-39.16 -59.6,69.76z"/>
   <path class="fil16" d="M9347.61 13105.66c76.44,82.72 92.36,65.28 230.96,45.32 -21.72,-190.72 72.92,-816.44 78.88,-1203.44 -113.36,52.6 -181.92,106.68 -242.04,212.36 -52.68,92.56 -115.84,280.24 -162.36,334.8l32.68 52.76c31.16,48.76 30.6,39.88 44.76,68.24 36.72,73.64 25.2,29.52 31.4,133.36 6.96,116.8 -0.76,243.2 -14.28,356.6z"/>
   <path class="fil23" d="M11630.33 4353.33l15.68 134.04c20.32,136.88 13.64,-15.36 151,174.52 214.48,296.56 245.44,141.96 313.92,70.8 98.28,-102.12 -81.84,-57.4 165.56,-67.84 86.96,79.4 153.28,240.56 170,370.76l25.44 14.96c119.92,-96.44 157.28,-248.48 100.6,-429.56l-275.4 25.4c-11.48,-77.52 -36.8,-239.12 -57.68,-299.28 -42.68,-122.88 -46.64,-129.04 -216.28,-98.88l-48.96 206.32c-129.24,5.68 -180.2,-16.52 -273.16,32.28 -29.08,-151.88 -21.6,-68.36 -70.72,-133.52z"/>
   <path class="fil24" d="M8411.37 3406.4l-125.36 -17.64c104.32,208.28 289.04,197.08 321.76,411.2 -181.84,32.28 -258,-31.8 -359.64,-124.68 -145.36,-132.76 -69.44,-137.72 -261.28,-231.08 20.56,209.56 -60.44,289.68 126.52,401.72 60.84,22.52 275.2,28.24 352.84,44.72 140.48,29.84 161.72,54.88 304.76,34 35.76,-53.2 46.2,-91 42.16,-182.76 23.88,5.8 91.2,20.96 113.64,19.04 114.04,-9.76 32.68,-0.68 98.36,-49.96l-212.2 -14.92 6.88 -324.84c-59.6,14.2 -308.68,43.28 -408.44,35.2z"/>
   <path class="fil5" d="M5042.45 12775.62l-67.08 246.24c14.92,5.44 29.76,-2.28 35.32,9.4l118 29c118.28,46.12 76.08,-62.8 82.76,74.32 215.88,-0.96 237.32,-29.96 301.96,-201.08 36.96,-97.88 114.88,-258.04 125.68,-352.48 -77.08,-53.64 -207.2,-119.56 -305.24,-178.32l-149.32 266.52c-67.12,99.36 -47.68,79.2 -142.08,106.4z"/>
   <path class="fil25" d="M3466.52 13820.22c170.68,-4 -5,10.6 117.16,-40.52 91.56,-38.28 11.24,-33.36 155.48,-37.28 101.08,-2.76 288.44,16.2 396.36,30.16 120.36,-102.96 100.32,-176.92 149.12,-306.4 -659.6,-180.84 -665.44,-320.64 -742,107.16 -28.8,160.84 -37.4,114.16 -76.12,246.88z"/>
   <path class="fil26" d="M6923.49 9618.13c215.28,23.92 370.56,-81.12 571.12,-151.64 83.64,-29.44 213.52,-41 282.32,-61.08 169.88,-49.68 104.08,-88.72 255.48,-119.84 82.76,-50.4 55.36,-43.84 89.48,-93.52 -86.96,-9.32 -126.84,-18.08 -183.2,-94.04 -60.64,-81.76 -10.36,-84.68 -98.72,-159.68 -244.88,130.64 -175.32,118.48 -347.6,248.72l-568.88 431.08z"/>
   <path class="fil27" d="M8762.17 15562.86l95 124.4c31,-248 75.4,-754.48 194.6,-903.36 -55.2,-104.32 1.76,-50.2 -127.16,-69.88 -87.24,-13.32 -320.08,19.52 -421.68,70.08 7.8,212.44 216.24,560.32 259.24,778.76z"/>
   <path class="fil1" d="M7395.57 11261.77l38 49.12c153.12,-6.68 209.76,4.92 349.88,14.76 82.44,-87.12 117.28,-153.6 82.48,-290.4 -57.6,-226.4 29.36,-215.36 -11.24,-428.48 -91.12,-167.24 -269.52,86.08 -307.68,161.2 -106.24,209.12 -148.76,228.2 -151.44,493.8z"/>
   <path class="fil2" d="M8099.49 5838.09c184.36,15.04 131.76,19.64 281.68,-40.56 64.04,-113 6.56,-20.28 96.44,-92.24l302.32 -358.4c-11.36,-178.24 42.32,-87.16 -49.04,-198 -139.04,13.16 -628.72,265.36 -633.04,393.52l1.68 128.6c-2.28,117.4 -52.68,24.04 -0.04,167.08z"/>
   <path class="fil27" d="M3843.52 12307.46l-18.16 -119.64 504.56 83.88c283.28,28.96 212.28,-128.28 474.64,-124.24l-22.48 -299.08c-60.2,18.12 -198.12,67.84 -272.2,112.64 -61.52,37.2 -193.72,150.8 -259.8,143.24 -171.84,-79.36 -375.52,-244.12 -493.52,-277 -0.88,96.64 11.56,144 19,219.08 16.64,167.96 -32.44,185.56 67.96,261.12z"/>
   <path class="fil28" d="M4236.05 7542.81l148.04 81.8c6.88,4.2 17.48,11.92 26.72,17 50.36,-96.08 37.92,-23.28 86.08,83.64 28.96,64.32 50.12,124.72 79,197.12 78.52,196.92 78.24,222.88 296.68,196.44l34.92 -210.24c-124.8,-102.12 -124.88,96.36 -256.8,-369.2 -41.44,-146.24 -106.56,-337.08 -170.36,-467.52l-244.28 470.96z"/>
   <path class="fil16" d="M9030.73 10506.81l303.76 -558.48c115.44,-200.6 239.84,-374.44 246.84,-592.96l-14.36 -4.68c-197.2,49.36 -58.04,9.72 -248.64,241.92 -308.04,375.32 -262.2,46 -322.64,733.08 -12.04,137 -33.64,103.76 35.04,181.12z"/>
   <path class="fil1" d="M9322.13 10720.09c65.6,127.12 323.96,345.16 464.6,392.24 0.76,-355.96 -22.68,-511.04 -81,-835.96 -182.48,35.68 -323.56,270.04 -383.6,443.72z"/>
   <path class="fil29" d="M5435.25 5960.21c-231.84,-242.96 -317.28,-170.12 -542.52,-186.4 -201.24,-14.56 -363.6,-115.2 -608.76,-67.28 -44.32,-33.28 -44.16,58.8 -30.92,-72.96 -47.84,56.64 -41.44,-75.92 -40,74.28 252.68,143.24 -8.32,145.48 534.28,280.84 113.72,28.36 259.96,22.44 385.64,19.28 182.28,-4.56 171.48,-44.76 302.28,-47.76z"/>
   <path class="fil15" d="M8099.49 5838.09c5.96,9.56 17.56,41.6 18.72,49.6 0.8,5.52 3.96,17.36 4.04,23.16 1.08,89.36 4.68,24.56 -17.44,57.6 -32.32,48.32 -34.04,34.16 -83.36,54.16 58.68,99.64 45.92,67.56 165.12,151.68 66.96,47.28 142.12,94.88 195.24,133.72 175.28,-122.32 62.16,-70.56 339.16,-106.8 82.84,-19.84 34.88,29.8 72.2,-62.6 -55.4,-51.56 -123.36,-123.48 -192.36,-176.36 -74.92,-57.4 -124.8,-71.84 -219.64,-164.72 -149.92,60.2 -97.32,55.6 -281.68,40.56z"/>
   <path class="fil1" d="M518.72 13647.22l181.36 6.92c162.72,-19.84 24.56,-66.44 175.84,-80.64 148.72,-13.92 65.96,-27.88 70.08,58.04 168.68,-52.12 175.44,-117.88 298.04,-266.08 112.48,-135.92 209.52,-166.32 267.72,-305.48 -300.56,31.6 -323.88,58.92 -546.48,234.76l-340.28 234.08c-0.48,0.44 -52.8,53.4 -53.4,54.04 -35.68,39.4 -20.64,19.96 -52.88,64.36z"/>
   <path class="fil1" d="M8461.45 12433.1l7.52 57.92c-1.52,65.32 -40.36,48.8 118.56,197.24 27.76,-48.84 62.92,-108.36 102.6,-170.4l85.76 -120c38.68,-45.72 23.96,-27.56 53.28,-57.08 62.4,-115.24 -8.92,-17.36 74.36,-66.24 14.12,-75.28 -4.36,-0.12 17.4,-73.04 21.96,-73.64 -4.12,18.36 30.72,-92.72 -111.16,29.96 -24.92,26.88 -103.28,8.84 -113.6,-282.72 -181.24,-292 -180.56,-656.48l-27.28 50.16c-64.6,208.68 80.96,752.72 -179.08,921.8z"/>
   <path class="fil27" d="M9262.37 14125.1c62.72,-85.68 31.24,-118.4 85.28,-200.32 74.04,-112.28 109.8,-67.48 226.92,-122.84l-25.8 -429.92c-81.92,129.96 -20.88,311.8 -211.68,270.04 -140.36,-30.72 -103.24,-240.64 -133.4,-364.68l-42.96 40.8c-134.72,133.92 65.84,-74.6 -39,38.36 -129.08,139.04 -104.68,209.04 -48.68,326.44 42.84,89.76 164.36,410.12 189.32,442.12z"/>
   <path class="fil30" d="M4800.73 14123.9c92.44,-76.48 217.72,-12.24 384.4,-57.2 20.6,-98.8 34.44,-283.44 -20.64,-373.44l-455.44 -40.68 16.72 429.64 74.96 41.68z"/>
   <path class="fil9" d="M2732.8 4793.61c64.76,130.12 317.56,262.92 433.12,306.12 -11.56,-195.64 29.76,-619.36 4.56,-717l-165 -36.36c-5.08,113.64 -71.72,163.76 -117.28,264.68 -13.08,28.88 -50.8,131.68 -59.88,143.68 -55.4,73.36 35.72,132.24 -95.52,38.88z"/>
   <path class="fil18" d="M5885.37 12991.18c-23.44,98.52 -25.56,69.92 -54.12,181.12 352.92,75.84 716.92,132 990.96,-181.32 -192.4,128.12 -171.64,-53.04 -434.2,-33.52l-502.64 33.72z"/>
   <path class="fil9" d="M3466.52 13820.22l-44.48 255.48c405.2,14.6 456.96,60.52 545.6,-46.6l167.88 -256.52c-107.92,-13.96 -295.28,-32.92 -396.36,-30.16 -144.24,3.92 -63.92,-1 -155.48,37.28 -122.16,51.12 53.52,36.52 -117.16,40.52z"/>
   <path class="fil3" d="M4987.93 11415.13l19.84 86.12 93.68 21.4 32.64 216.32c141.2,-3.72 163.8,-118.08 183.4,-219.2 14.24,-121.48 -20.76,-151.2 -35.72,-267.64 -16.44,-128.16 21.6,-190.44 -71,-248.12 -236.6,-147.44 -223.4,268.72 -222.84,411.12z"/>
   <path class="fil1" d="M6228.89 11937.93l495.2 310.72c124.72,-44.6 0.96,14.16 78.36,-61.52 6.6,-6.44 56.16,-60.72 62.44,-68.4 82.24,-100.72 77,-49.04 70.48,-227.68 -116.2,-95.64 -198.24,-76.4 -352.64,-55.84 -214.84,28.6 -197.64,-1.56 -353.84,102.72z"/>
   <path class="fil3" d="M8076.85 3199.48c49.4,87.6 138.8,155.72 209.16,189.28l125.36 17.64c115.24,-140.24 139.56,-221.48 8.76,-377 -124.68,-148.2 -137.2,-227.04 -343.56,-138.64 -32.72,130 -48.04,181.28 0.28,308.72z"/>
   <path class="fil2" d="M12786.74 6317.61c9.64,-175.52 23.6,-360.64 -70.16,-480.52 -224.16,-11.24 -253.32,84.16 -226.52,295.4 25.16,198.32 64.6,253.4 105.12,401.56l182.28 -48.32 9.28 -168.12z"/>
   <path class="fil28" d="M2879.2 11616.01c296.48,91.4 446.2,33.68 498.4,377.04 3.12,-8.96 8.96,-32.12 9.64,-26.8 0.64,5.08 6.76,-20.76 7.4,-25.84 2.24,-18.04 3.16,-50.76 1.48,-69.04 -14.36,-283.08 37.64,-304.52 -180.36,-422.96 -156.68,-85.16 -220.4,-176.64 -405.08,-200.64l68.52 368.24z"/>
   <path class="fil12" d="M7374.29 3656.48c34.4,149.84 185.64,220.72 314.6,273.4 149.2,60.96 71.52,4.96 202.28,103.68 99.84,75.36 64.68,71.2 220.12,70.36l37.68 -123.28c-110.6,-105.8 -242.76,-137.52 -361.24,-218.32 -146.52,-99.96 -189.92,-197.72 -395.16,-180.4l-18.28 74.56z"/>
   <path class="fil12" d="M7986.85 3444.2c191.84,93.36 115.92,98.32 261.28,231.08 101.64,92.88 177.8,156.96 359.64,124.68 -32.72,-214.12 -217.44,-202.92 -321.76,-411.2 -70.36,-33.56 -159.76,-101.68 -209.16,-189.28l-122.92 12.36c1.96,87.8 16.64,170.04 32.92,232.36z"/>
   <path class="fil12" d="M9402.05 1881.08c-23.88,-124.88 40.48,-35.64 -84.88,-87.48 -11.2,-4.64 -130.56,-27.56 -133.12,-27.8 -99.64,-8.84 -185.96,0.16 -294.4,-17.24 -336.6,-15.08 -225.88,78.6 -101.44,231.92l490.2 20.68c188.68,-46.48 94.84,20.96 123.64,-120.08z"/>
   <path class="fil10" d="M6279.73 10552.33c-26.16,-119.44 -11.32,-219.16 -65.16,-308.04 -25.4,-41.92 -49.16,-48.64 -84.68,-81.64 -112.24,-104.16 -59.4,39.48 -100.12,-149.36 -121.32,68.52 -119.52,104.76 -186.96,190.32l-208.2 -56.12c42.04,246.64 194.68,141.56 439.12,308.32 93.64,63.88 80.92,57.32 206,96.52z"/>
   <path class="fil3" d="M7440.41 1774.56c215.72,165 640.32,-30.4 563.56,-221.32 -57.6,-143.28 -223.92,-46.24 -330.44,-10.24 -186.12,62.96 -255.24,0.64 -233.12,231.56z"/>
   <path class="fil9" d="M2562.28 13614.58c-88.56,16.6 -173.32,11.24 -275.8,-10.36 -123.48,-26.08 -139.16,-50.92 -150.44,-193.56l-124.8 117.08c-88.64,75.6 -75.32,44.4 -142.72,138.76 44.56,61.08 141.04,108.64 211.12,138.08 98.76,41.48 190.92,63.56 307.8,61.48l174.84 -251.48z"/>
   <path class="fil12" d="M8819.81 3371.2l-6.88 324.84 212.2 14.92c17.4,-133.28 72.6,-440.04 2.8,-583.96 -3.44,-7.08 -7.6,-16.08 -11.68,-22.4 -57.04,-88.92 -49.12,-63.36 -161.6,-74.72 -41.88,126.84 -39.72,195.84 -34.84,341.32z"/>
   <path class="fil3" d="M8889.65 1748.56c108.44,17.4 194.76,8.4 294.4,17.24 2.56,0.24 121.92,23.16 133.12,27.8 125.36,51.84 61,-37.4 84.88,87.48 177.28,24.44 182.84,-184.84 -27.12,-282.2 -185.64,-86.08 -377.16,-86.48 -510.56,18.28l25.28 131.4z"/>
   <path class="fil3" d="M8951.65 12108.77c63.52,-259 -63.28,-428.52 -105.84,-669.68 -39.88,-3.48 -48.44,-9.56 -92.04,-4.72 -6.92,0.76 -19,1.76 -25.92,3 -6.16,1.08 -17.04,4.56 -22.44,5.88l-37.6 17.88c-0.68,364.48 66.96,373.76 180.56,656.48 78.36,18.04 -7.88,21.12 103.28,-8.84z"/>
   <path class="fil31" d="M10530.61 10558.49c10.6,251.2 11.36,177.28 82.64,372.04l105.36 296.84c181.6,-262.4 121.2,-278.52 62.96,-503.72 -33.52,-129.76 -25.36,-114.04 -110.04,-182.72 -69.16,45.8 -17.36,27.72 -140.92,17.56z"/>
   <path class="fil32" d="M9905.97 1369.24c-184.04,-45.52 -173.48,-83.56 -407,-93.24 -165.24,-6.88 -92.4,11.2 -229.96,-46.8 -89.08,-37.56 -142.36,-55.36 -208.28,-37.8 -40.96,50.52 76.44,60.48 -143.48,73.2 191.52,10.96 275.56,94.44 448.16,140.88 164.08,44.16 354.84,52.68 540.4,34.52l0.16 -70.76z"/>
   <path class="fil33" d="M11915.93 6759.49c7.48,-42.16 4.48,-63.52 25.56,-101.2 58.28,-104.28 10.08,-24.36 75.2,-66.96 -196.48,-288.52 -359.28,-621.48 -546.6,-548.08 28.68,63.48 14.32,29.76 55.08,76.52 201.64,231.48 287.64,521.68 390.76,639.72z"/>
   <path class="fil18" d="M5440.41 14048.26l745 -315.4c-150.96,21.16 -218.52,30.28 -378.44,29.6 -169,-0.68 -219.08,-28.84 -386.12,-37.92l19.56 323.72z"/>
   <path class="fil31" d="M3410.84 10832.17l55.76 36.88c5.76,9.36 10.48,13.88 13.12,30.24 18.48,113.28 76,124.44 93.04,134.08 3.48,-6.76 8.84,-25.32 9.36,-20.88 0.12,0.96 63.44,-44.96 -60.76,-253.8l-27.12 -65.12c-2.48,-5.64 -7.56,-15.72 -10.4,-22.08 -54.96,-124.72 -51.84,-166.6 -153.88,-222.52 -36.96,-12.96 -82.8,-98.44 -124.08,40.32 -14,47.08 3.48,96.6 22.2,135.44 6.6,13.64 68.12,85.88 87.68,105.6l74.48 77.12c3.72,-6.72 14.12,16.16 20.6,24.72z"/>
   <path class="fil34" d="M9091.25 7876.89c-36.6,-234.64 -34.96,-371.2 39.76,-573 73.56,-198.64 160.04,-258.68 238.4,-306.6 7.04,-4.28 23.48,-2.36 28.8,-16.6 5.56,-14.92 20.6,-10.92 30.44,-17.12l-403.4 7.52 13.24 802.36c29.52,137.52 -20.08,33.6 52.76,103.44z"/>
   <path class="fil9" d="M3521.36 10758.69c124.2,208.84 60.88,254.76 60.76,253.8 -0.52,-4.44 -5.88,14.12 -9.36,20.88 -17.04,-9.64 -74.56,-20.8 -93.04,-134.08 -2.64,-16.36 -7.36,-20.88 -13.12,-30.24 -2.88,27.72 -26.32,125.56 -26.72,132.88l126.2 118.4c215.96,-191.96 197.2,-15.16 182.6,-467.92 -4.16,-129.16 -32.88,-133.36 -123.28,-174.88 31.92,174.96 116.4,253.36 -104.04,281.16z"/>
   <path class="fil33" d="M11540.85 7256.53l58.72 -167.12c11.76,-45.88 25.2,-69.6 45.64,-133.48l92.72 32.04c-181.96,-266.72 -222.6,-340.84 -423.12,-351.24 4.8,10.44 11.12,14.28 13.88,31.6 7.68,48.44 193.2,287.68 212.16,588.2z"/>
   <path class="fil35" d="M1820.56 5546.65l89.04 105.28 351.76 -77c-4,-122.96 -51.32,-231.24 -128.8,-313.4 -21.2,80.04 -50.32,90.76 -106.72,149.72 -50.6,52.84 -74.28,75.88 -116,147.04l-89.28 -11.64z"/>
   <path class="fil36" d="M2385.16 5098.41c84.88,151.6 176.32,285.64 416.64,280.72 -62.68,-187.12 -100.56,-277.16 -262.08,-351.4 -157.4,66.96 -30.44,55.2 -154.56,70.68z"/>
   <path class="fil32" d="M4206.85 11193.21c-69,50.72 -29.6,-72.04 -85,111.28 -11.24,37.12 -3.48,71.44 -2.52,108.84 34.88,28.96 61.04,48.2 96.92,83.8l115.92 6.44c17.92,-52.28 57.6,-125.36 64.4,-176.92 4.96,-37.88 6.08,-85.4 -10.6,-122.56 -40,-89.16 -10.52,-36.12 -83.8,-81.96 -63.32,110.08 20.88,56.2 -95.32,71.08z"/>
   <path class="fil37" d="M4973.17 7234.81c-58.32,103.04 -68.52,82.68 -116.36,202.84l-75.44 -25.08c12.88,75.88 65.4,192.24 112.2,255.08 57.36,-79.64 88.28,-193.76 135,-299.44 54.64,-123.68 105.6,-133.4 135.8,-322.72 -162,93.4 -92.24,112.36 -191.2,189.32z"/>
   <path class="fil11" d="M3719.92 6254.25c-7.88,162.24 3.28,85.92 39.96,126.8l36.88 -162.52c5.4,-10.2 18.6,-17.4 26.64,-22l54.92 -32.64c80.16,-31.36 57.64,46.84 85.8,-12.44 4.76,-10 18.64,1.8 40.68,0.08l-5.64 -158.92c-204.48,-182.52 -292.2,38.72 -279.24,261.64z"/>
   <path class="fil33" d="M11393.17 7666.61c26.8,-44.72 31.4,-15.92 34.24,-109.56 2.04,-66.88 -22.08,-16.6 -12.76,-106.76 7.44,-72.2 53.56,-120.6 100.56,-185.08l-155.56 32.64c-147.04,-132.88 -69.08,-174 -281.64,-250.16 117.04,364.24 281.88,292.76 315.16,618.92z"/>
   <path class="fil32" d="M9034.37 5068.77c31.48,-61.28 11.56,-81.8 42.48,-152.48 27.6,-63 46.56,-68.64 80.44,-122.84 -22.52,-20.2 -76.52,-68.36 -91.36,-82.72 -77.8,-52.64 -49.92,81.12 -66.84,-53.24 -30.64,90.48 -58.12,154.4 -85.48,232.88 -75.28,216.12 22.8,202.76 40.48,217.28l51 -18.88c3.56,-13.36 19.92,-12.8 29.28,-20z"/>
   <path class="fil38" d="M10974.41 10432.61c33.16,-49.2 58.12,-105.96 100.08,-175.12 67.4,-111.16 101.12,-34.32 51.52,-149.2l-44.24 -24.44c-120.72,-36.8 -181.44,-29 -300.16,-16.84 77.84,140.76 180.04,179.16 192.8,365.6z"/>
   <path class="fil23" d="M2635.12 12881.18l-14.28 99c174.04,57.12 61.04,84.88 268.52,71.24l51.52 -116.44c-108.76,-70.92 -110.52,-121.84 -214.8,-173 -96.72,71.36 -59.96,27.92 -90.96,119.2z"/>
   <path class="fil39" d="M4148.33 11769.09l135.8 -102.96 48.04 -162.56 -115.92 -6.44c-35.88,-35.6 -62.04,-54.84 -96.92,-83.8l29 355.76z"/>
  </g>
 </g>
</svg>
