<?xml version="1.0" encoding="UTF-8" standalone="no"?>
<svg
   xmlns:dc="http://purl.org/dc/elements/1.1/"
   xmlns:cc="http://creativecommons.org/ns#"
   xmlns:rdf="http://www.w3.org/1999/02/22-rdf-syntax-ns#"
   xmlns:svg="http://www.w3.org/2000/svg"
   xmlns="http://www.w3.org/2000/svg"
   xmlns:sodipodi="http://sodipodi.sourceforge.net/DTD/sodipodi-0.dtd"
   xmlns:inkscape="http://www.inkscape.org/namespaces/inkscape"
   version="1.1"
   id="katman_1"
   x="0px"
   y="0px"
   viewBox="0 0 74.999999 75.026306"
   xml:space="preserve"
   sodipodi:docname="broccoli.svg"
   width="75"
   height="75.026306"
   inkscape:version="1.0.1 (3bc2e813f5, 2020-09-07)"><metadata
   id="metadata1883"><rdf:RDF><cc:Work
       rdf:about=""><dc:format>image/svg+xml</dc:format><dc:type
         rdf:resource="http://purl.org/dc/dcmitype/StillImage" /><dc:title></dc:title></cc:Work></rdf:RDF></metadata><defs
   id="defs1881" /><sodipodi:namedview
   pagecolor="#ffffff"
   bordercolor="#666666"
   borderopacity="1"
   objecttolerance="10"
   gridtolerance="10"
   guidetolerance="10"
   inkscape:pageopacity="0"
   inkscape:pageshadow="2"
   inkscape:window-width="1718"
   inkscape:window-height="1368"
   id="namedview1879"
   showgrid="false"
   fit-margin-top="0"
   fit-margin-left="0"
   fit-margin-right="0"
   fit-margin-bottom="0"
   inkscape:zoom="2.216"
   inkscape:cx="227.74"
   inkscape:cy="-10.175927"
   inkscape:window-x="1713"
   inkscape:window-y="0"
   inkscape:window-maximized="0"
   inkscape:current-layer="g1876" />
<style
   type="text/css"
   id="style2">
	.st0{fill:#F40303;}
	.st1{fill:#4E9B04;}
	.st2{opacity:0.1;}
	.st3{opacity:0.15;fill:#FFFFFF;}
	.st4{fill:none;}
	.st5{fill:#DF0000;}
	.st6{fill:#41A500;}
	.st7{opacity:0.1;fill:#231F20;}
	.st8{fill:#84C100;}
	.st9{fill:#F86107;}
	.st10{opacity:0.07;}
	.st11{opacity:0.2;fill:#FFFFFF;}
	.st12{fill:#E55107;}
	.st13{fill:#E61206;}
	.st14{fill:#0D5C00;}
	.st15{fill:#27AB3B;}
	.st16{fill:#09913C;}
	.st17{fill:#E6012C;}
	.st18{fill:#680756;}
	.st19{fill:#74990D;}
	.st20{fill:#B22483;}
	.st21{fill:#43BC48;}
	.st22{fill:#2EAF2E;}
	.st23{fill:#8D1E60;}
	.st24{fill:#753D24;}
	.st25{fill:#348801;}
	.st26{fill:#2C7005;}
	.st27{fill:#63AB16;}
	.st28{fill:#8EBA24;}
	.st29{fill:#3B7524;}
	.st30{fill:#B4D459;}
	.st31{opacity:0.2;fill:#B4D459;}
	.st32{fill:#FEB544;}
	.st33{opacity:0.1;fill:#CE863A;}
	.st34{fill:#CE863A;}
	.st35{fill:#57BF44;}
	.st36{fill:#BBFF96;}
	.st37{fill:#DFFFAA;}
	.st38{fill:#39AA50;}
	.st39{fill:#5DD166;}
	.st40{fill:#8FDC50;}
	.st41{fill:#29602E;}
	.st42{fill:#8CD13D;}
	.st43{fill:#24892E;}
	.st44{fill:#15441A;}
	.st45{fill:#699E25;}
	.st46{fill:#4A8912;}
	.st47{fill:#FCD30B;}
	.st48{fill:#FFE36C;}
	.st49{fill:#FCD30B;stroke:#ED5100;stroke-width:0.0803;stroke-miterlimit:10;}
	.st50{fill:#FCD30B;stroke:#ED5100;stroke-width:0.0749;stroke-miterlimit:10;}
	.st51{fill:#FCD30B;stroke:#ED5100;stroke-width:0.0709;stroke-miterlimit:10;}
	.st52{fill:#FCD30B;stroke:#ED5100;stroke-width:0.0592;stroke-miterlimit:10;}
	.st53{fill:#FCD30B;stroke:#ED5100;stroke-width:0.0529;stroke-miterlimit:10;}
	.st54{fill:#FCD30B;stroke:#ED5100;stroke-width:0.0474;stroke-miterlimit:10;}
	.st55{fill:#FCD30B;stroke:#ED5100;stroke-width:0.0447;stroke-miterlimit:10;}
	.st56{fill:#FCD30B;stroke:#ED5100;stroke-width:0.0607;stroke-miterlimit:10;}
	.st57{fill:#FCD30B;stroke:#ED5100;stroke-width:0.0574;stroke-miterlimit:10;}
	.st58{fill:#FCD30B;stroke:#ED5100;stroke-width:0.0479;stroke-miterlimit:10;}
	.st59{fill:#FCD30B;stroke:#ED5100;stroke-width:0.0402;stroke-miterlimit:10;}
	.st60{fill:#FCD30B;stroke:#ED5100;stroke-width:0.0362;stroke-miterlimit:10;}
	.st61{fill:#FCD30B;stroke:#ED5100;stroke-width:0.033;stroke-miterlimit:10;}
	.st62{fill:#FCD30B;stroke:#ED5100;stroke-width:0.0788;stroke-miterlimit:10;}
	.st63{fill:#FCD30B;stroke:#ED5100;stroke-width:0.0766;stroke-miterlimit:10;}
	.st64{fill:#FCD30B;stroke:#ED5100;stroke-width:0.0793;stroke-miterlimit:10;}
	.st65{fill:#FCD30B;stroke:#ED5100;stroke-width:0.0791;stroke-miterlimit:10;}
	.st66{fill:#FCD30B;stroke:#ED5100;stroke-width:0.0796;stroke-miterlimit:10;}
	.st67{fill:#FCD30B;stroke:#ED5100;stroke-width:0.0635;stroke-miterlimit:10;}
	.st68{fill:#FCD30B;stroke:#ED5100;stroke-width:0.0533;stroke-miterlimit:10;}
	.st69{fill:#FCD30B;stroke:#ED5100;stroke-width:0.0498;stroke-miterlimit:10;}
	.st70{fill:#FCD30B;stroke:#ED5100;stroke-width:0.0329;stroke-miterlimit:10;}
	.st71{fill:#FCD30B;stroke:#ED5100;stroke-width:0.0389;stroke-miterlimit:10;}
	.st72{fill:#FCD30B;stroke:#ED5100;stroke-width:0.023;stroke-miterlimit:10;}
	.st73{fill:#FCD30B;stroke:#ED5100;stroke-width:0.0359;stroke-miterlimit:10;}
	.st74{fill:#FCD30B;stroke:#ED5100;stroke-width:0.0251;stroke-miterlimit:10;}
	.st75{fill:#FCD30B;stroke:#ED5100;stroke-width:0.0795;stroke-miterlimit:10;}
	.st76{fill:#FCD30B;stroke:#ED5100;stroke-width:0.0675;stroke-miterlimit:10;}
	.st77{fill:#FCD30B;stroke:#ED5100;stroke-width:0.0543;stroke-miterlimit:10;}
	.st78{fill:#FCD30B;stroke:#ED5100;stroke-width:0.0466;stroke-miterlimit:10;}
	.st79{fill:#FCD30B;stroke:#ED5100;stroke-width:0.0354;stroke-miterlimit:10;}
	.st80{fill:#489B0B;}
	.st81{fill:#72B236;}
	.st82{fill:#62A428;}
	.st83{fill:#528E2A;}
	.st84{fill:#92BC4C;}
	.st85{fill:#569B30;}
	.st86{fill:#E2C3A4;stroke:#A97D60;stroke-width:0.2737;stroke-miterlimit:10;}
	.st87{fill:#EFE3D3;stroke:#A97D60;stroke-width:0.3649;stroke-linecap:round;stroke-linejoin:round;stroke-miterlimit:10;}
	.st88{fill:#9D6B50;}
	.st89{fill:#E2C19E;}
	.st90{fill:#A16038;}
	.st91{fill:#DFC298;}
	.st92{fill:#EEE4BF;}
	.st93{fill:#D3B689;}
	.st94{fill:#689D34;}
	.st95{fill:#A5BC81;}
	.st96{fill:#DED6A8;}
	.st97{fill:#F4EDDA;}
	.st98{fill:#FF7900;stroke:#DB4900;stroke-width:0.5055;stroke-linecap:round;stroke-linejoin:round;stroke-miterlimit:10;}
	.st99{fill:none;stroke:#DB4900;stroke-width:0.5055;stroke-linecap:round;stroke-linejoin:round;stroke-miterlimit:10;}
	.st100{fill:#2E4819;}
	.st101{fill:#85BB19;}
	.st102{fill:#B2DC55;stroke:#A2C63C;stroke-width:0.2575;stroke-miterlimit:10;}
	.st103{fill:#86CE2C;}
	.st104{fill:#86CE2C;stroke:#72AA1A;stroke-width:0.1884;stroke-linecap:round;stroke-linejoin:round;stroke-miterlimit:10;}
	.st105{opacity:0.6;fill:#DDE68D;}
	.st106{opacity:0.6;}
	.st107{fill:#DDE68D;}
	.st108{fill:#86CE2C;stroke:#72AA1A;stroke-width:0.208;stroke-linecap:round;stroke-linejoin:round;stroke-miterlimit:10;}
</style>
<g
   id="g1876"
   transform="translate(-22.26,-210.17591)">
	
	
	
	
	
	
	
	
	
	
	
	<g
   id="g616">
		<g
   id="g612">
			<path
   class="st41"
   d="m 35.62,248.09 c 0,0 12.34,-7.79 20.22,-4.25 7.88,3.54 11.63,-0.5 12.43,1.97 0.8,2.47 12.39,-0.59 13.58,0.76 1.19,1.35 5.7,1.55 5.58,-0.96 -0.11,-2.51 0.92,-0.83 0.92,-0.83 L 62.8,223.48 c 0,0 -19.3,0.4 -19.64,0.63 -0.34,0.23 -11.87,10.05 -11.99,11.07 -0.12,1.04 4.45,12.91 4.45,12.91 z"
   id="path572" />
			<path
   class="st42"
   d="m 67.45,278.51 c -0.21,2.68 -0.13,4.79 0.21,5.87 0,0 -12.2,1.85 -16.52,0 0,0 -0.57,-6.87 0.5,-11.39 0.56,-2.38 0.83,-4.82 0.74,-7.26 -0.07,-1.92 -0.28,-4 -0.78,-5.59 -0.43,-1.37 -1.07,-3.4 -2.04,-5.58 -0.91,-2.04 -2.11,-4.21 -3.71,-6.1 -0.09,-0.11 -0.19,-0.22 -0.28,-0.33 -1.54,-1.74 -5.34,-4.4 -7.68,-5.25 0,0 -0.57,-7.21 4.21,-5.36 4.79,1.85 7.87,6.79 8.88,6.79 0,0 3.01,0.69 2.78,-2.7 -0.23,-3.4 -2.47,-10.34 -2.47,-10.34 h 11.73 c 0,0 -3.07,7.26 -3.15,9.42 -0.09,2.16 -0.09,2.16 -0.09,2.16 0,0 6.64,-9.73 8.28,-10.55 1.65,-0.82 7,1.03 7,1.03 0,0 -9.98,14 -9.37,15.75 0.62,1.75 3.29,-0.31 6.38,-2.78 3.09,-2.47 8.54,-10.09 9.06,-9.06 0.51,1.03 3.81,8.44 3.81,8.44 0,0 -11.63,3.6 -14.3,9.67 -2.68,6.07 -4.73,12.56 -3.4,18.32 0.01,0 0.42,2.16 0.21,4.84 z"
   id="path574" />
			<path
   class="st43"
   d="m 38.73,246.51 c 0,0 -0.36,0.72 -1.18,0.78 0,0 0.74,0.84 -1.2,1.66 0,0 -0.91,0.36 -0.88,0.76 0.04,0.4 -0.89,1.29 -1.58,0.68 0,0 -0.51,1.37 -1.48,-0.06 0,0 -1.83,-0.91 -2,-0.59 -0.17,0.32 -1.6,0.51 -1.33,-0.76 0,0 -1.05,-0.11 -1.2,-1.07 0,0 -1.35,-0.46 -1.26,-1.67 0,0 -1.52,-0.42 -0.68,-1.37 0,0 -1.45,-0.27 -0.25,-2.17 0,0 -3.42,-2.61 -1.8,-4.59 0,0 0.82,-0.74 0.59,-1.35 -0.23,-0.61 -1.1,-0.78 -0.04,-1.58 0,0 -0.7,-1.5 0.95,-3.04 0,0 1.07,-0.19 0.65,-1.07 -0.42,-0.88 0.8,-1.66 0.86,-2 0.06,-0.34 0.15,-2.34 1.58,-2.21 0,0 0.55,-1.24 1.52,-1.56 0.97,-0.32 1.71,-1.37 3.98,-1.41 0,0 1.37,0.11 1.48,-0.17 0.11,-0.28 1.22,-0.84 1.88,-0.67 0,0 0.25,-1.52 1.1,-2.61 0.86,-1.08 0.48,-2.38 1.92,-2.76 0,0 1.41,-2.44 3.12,-2.72 0,0 0.99,-0.46 1.35,-0.25 0.36,0.21 1.08,-0.84 2,-0.63 0,0 1.48,-0.44 1.94,-0.03 0,0 1.2,-0.37 1.2,-0.56 0,-0.19 1.03,-0.67 1.83,-0.51 0.8,0.16 0.8,-0.17 0.8,-0.17 0,0 0.7,-1.05 1.85,-0.4 0,0 0.48,-1.33 1.98,-1.07 0,0 0.8,-0.93 1.75,-0.57 0,0 0.76,-1.17 1.98,-0.08 0,0 1.2,-1.15 2.02,-0.01 0,0 0.95,-0.27 1.27,-0.1 0,0 0.72,-0.91 1.67,0.08 0,0 1.75,-0.84 2.72,0.86 0,0 2.17,-0.32 3.6,1.6 0,0 2.02,0.91 2.38,2 0,0 1.43,-0.29 1.9,0.57 0,0 1.85,-0.15 2.11,0.3 0,0 1.31,-0.13 1.52,0.65 0,0 2.19,0.72 2.45,1.67 0,0 0.84,-0.68 1.48,0.7 0,0 1.03,0.57 1.43,1.56 0,0 1.27,1.16 1.62,2.3 0,0 0.49,1.03 0.42,1.39 0,0 0.46,0.17 0.36,1.27 0,0 1.03,0.91 1.45,0.8 0.42,-0.11 0.95,0.4 0.91,1.22 0,0 0.84,1.27 1.16,1.31 0.32,0.04 0.8,1.16 0.49,2.19 -0.3,1.03 -0.01,1.27 0.1,1.48 0.11,0.21 0.38,0.82 0,1.27 0,0 2.47,0.29 2.59,1.69 0,0 0.11,0.68 0.74,0.61 0.63,-0.08 0.19,1.67 0.34,2 0.15,0.33 1.5,0.3 1.1,1.54 -0.4,1.24 0.25,2.87 -0.08,3.44 -0.32,0.57 -0.29,1.18 -0.63,1.33 0,0 0.86,1.81 -0.4,1.73 0,0 -0.29,0.46 0.68,0.78 0,0 -0.08,0.7 -0.82,0.97 0,0 0.27,0.72 -0.67,1.01 0,0 -0.23,1.71 -1.12,0.91 0,0 -0.46,1.03 -1.24,0.82 0,0 -0.4,1.1 -1.48,0.91 0,0 -1.05,0.15 -1.12,0.38 -0.08,0.23 -0.91,0.76 -1.22,-0.1 0,0 -1.01,0.49 -1.22,-0.06 0,0 -1.99,-0.14 -1.9,-1.26 0.02,-0.25 -0.68,-1.66 -0.29,-2.85 0,0 0.97,-2.36 -1.03,-2.76 0,0 -2.85,0.23 -3.2,-1.08 -0.34,-1.31 -1.86,-0.75 -1.86,-0.75 0,0 -6.39,7.22 -7.92,6.65 -1.52,-0.57 -2.7,-4.6 1.07,-6.66 3.77,-2.06 5.02,-6.64 4.49,-7.04 -0.53,-0.4 -1.6,-1.1 -3.23,-0.08 -1.64,1.03 -1.79,-0.23 -2.7,0 -0.91,0.23 -1.64,0.04 -2.7,1.1 -1.07,1.07 -2,2.3 -2.97,2.25 -0.97,-0.06 -1.41,0.33 -2.74,0.38 -1.33,0.05 -2.18,-0.48 -2.12,-0.9 0.06,-0.43 -2.65,0.77 -2.54,-0.51 0,0 -2.83,0.37 -2.74,-1.46 0.09,-1.83 -1.8,-2.48 -2.48,-2.14 -0.68,0.34 -2.68,1.28 -3.17,0.77 0,0 -3.77,3.31 -6.14,1.46 -2.37,-1.85 -0.6,2.77 -1.28,3.22 -0.68,0.46 -1.63,3.14 -3.54,3.17 -1.89,0.08 1.05,3.24 1.05,3.24 z"
   id="path576" />
			<g
   id="g580">
				<path
   class="st44"
   d="m 29.25,233.76 c -0.31,0.2 -0.6,0.44 -0.83,0.72 -0.23,0.28 -0.35,0.61 -0.31,0.93 0.01,0.04 0,0.07 -0.02,0.1 l -0.02,0.02 c -0.32,0.45 -0.58,1.05 -0.45,1.51 0.02,0.09 0,0.18 -0.07,0.23 l -0.03,0.03 c -0.36,0.33 -0.57,0.85 -0.46,1.32 0.14,0.54 0.3,1.11 0.54,1.61 0.29,0.59 0.4,1.16 0.64,1.66 0.11,0.25 0.25,0.49 0.41,0.63 0.17,0.14 0.26,0.18 0.45,0.1 l 0.02,-0.01 c 0.17,-0.07 0.35,0.02 0.42,0.18 l 0.01,0.03 c 0.14,0.45 0.33,0.91 0.55,1.33 0.22,0.4 0.55,0.82 0.86,0.72 0.21,-0.07 0.53,-0.15 0.79,-0.14 0.27,0 0.52,0.04 0.77,0.06 0.49,0.08 0.98,-0.06 1.28,-0.5 -0.11,0.23 -0.27,0.45 -0.51,0.58 -0.24,0.13 -0.52,0.16 -0.77,0.18 -0.53,0.02 -0.97,0.02 -1.42,0.24 -0.33,0.13 -0.71,-0.02 -0.92,-0.21 -0.24,-0.19 -0.4,-0.41 -0.55,-0.63 -0.31,-0.45 -0.51,-0.93 -0.69,-1.43 l 0.45,0.2 c -0.18,0.08 -0.4,0.14 -0.63,0.1 -0.23,-0.04 -0.43,-0.15 -0.56,-0.28 -0.28,-0.26 -0.44,-0.56 -0.58,-0.84 -0.29,-0.57 -0.4,-1.19 -0.64,-1.67 -0.27,-0.58 -0.42,-1.17 -0.54,-1.79 -0.14,-0.72 0.21,-1.45 0.78,-1.85 l -0.1,0.27 c -0.06,-0.38 0.03,-0.73 0.16,-1.03 0.14,-0.3 0.31,-0.57 0.53,-0.82 l -0.04,0.12 c 0.01,-0.44 0.24,-0.82 0.52,-1.08 0.28,-0.27 0.61,-0.46 0.96,-0.59 z"
   id="path578" />
			</g>
			<g
   id="g584">
				<path
   class="st44"
   d="m 81.49,228.34 c 0.44,-0.05 0.89,-0.08 1.35,-0.07 0.45,0.03 0.91,0.02 1.38,0.27 0.28,0.21 0.3,0.38 0.47,0.5 0.15,0.14 0.33,0.26 0.51,0.38 0.36,0.24 0.79,0.47 1.1,0.91 0.21,0.27 0.61,0.51 0.96,0.79 0.18,0.14 0.37,0.28 0.55,0.49 0.09,0.1 0.19,0.27 0.22,0.46 0.01,0.05 0.03,0.11 0.08,0.18 0.17,0.28 0.64,0.68 0.68,1.31 l 0.1,1.34 c 0,0.14 0.03,0.18 -0.01,0.45 l -0.08,0.31 c -0.04,0.21 -0.09,0.36 -0.02,0.47 0.08,0.29 0.09,0.52 0.08,0.79 -0.01,0.13 -0.03,0.27 -0.09,0.44 -0.02,0.04 -0.04,0.08 -0.07,0.13 l -0.05,0.07 v 0 c 0,0 -0.01,0 -0.01,0.03 -0.02,0.05 -0.01,0.16 -0.03,0.33 -0.01,0.16 -0.15,0.4 -0.32,0.5 -0.04,0.03 -0.08,0.04 -0.12,0.06 -0.02,0.01 -0.02,0.01 -0.03,0.01 -0.01,0.01 -0.02,0.02 -0.03,0.03 -0.02,0.02 -0.05,0.08 -0.06,0.16 -0.01,0.08 -0.01,0.18 -0.02,0.29 0,0.06 0,0.12 -0.01,0.2 -0.01,0.08 -0.01,0.07 -0.01,0.14 -0.02,0.2 0.02,0.46 -0.11,0.76 -0.03,0.14 -0.27,0.34 -0.25,0.32 -0.03,0.03 -0.06,0.11 -0.09,0.2 -0.06,0.19 -0.08,0.48 -0.31,0.72 -0.29,0.14 -0.22,0.77 -0.66,1.13 -0.21,0.17 -0.47,0.24 -0.69,0.28 -0.2,0.02 -0.38,0.11 -0.5,0.27 -0.13,0.16 -0.18,0.38 -0.28,0.59 -0.1,0.24 -0.38,0.32 -0.6,0.26 0.23,0.01 0.44,-0.1 0.5,-0.31 0.07,-0.2 0.09,-0.43 0.22,-0.65 0.12,-0.22 0.36,-0.37 0.6,-0.43 0.21,-0.06 0.39,-0.14 0.51,-0.27 0.12,-0.13 0.19,-0.3 0.24,-0.51 0.03,-0.1 0.05,-0.21 0.09,-0.34 0.02,-0.06 0.06,-0.13 0.1,-0.2 0.02,-0.03 0.06,-0.07 0.09,-0.1 l 0.04,-0.04 c 0.08,-0.09 0.11,-0.28 0.15,-0.52 0.02,-0.12 0.05,-0.26 0.16,-0.41 0.17,-0.19 0.12,-0.12 0.16,-0.21 0.04,-0.12 0.03,-0.32 0.02,-0.56 -0.01,-0.05 0.01,-0.17 0.01,-0.19 v -0.13 c 0,-0.11 -0.01,-0.23 0.01,-0.38 0.02,-0.14 0.05,-0.3 0.17,-0.46 0.06,-0.08 0.13,-0.14 0.21,-0.2 l 0.14,-0.08 c 0.02,-0.02 0,0.01 0.02,-0.05 0.01,-0.06 0,-0.17 0.02,-0.34 0.01,-0.08 0.04,-0.19 0.11,-0.28 l 0.05,-0.07 v 0 c 0,0 0,-0.01 0.01,-0.02 0.02,-0.04 0.03,-0.13 0.04,-0.22 0.01,-0.17 -0.01,-0.39 -0.06,-0.53 l -0.02,-0.06 c -0.03,-0.07 -0.03,-0.11 -0.04,-0.16 -0.01,-0.09 -0.01,-0.17 0,-0.24 0.01,-0.14 0.03,-0.26 0.06,-0.38 l 0.09,-0.33 c -0.01,0.05 -0.01,-0.14 -0.01,-0.22 l -0.09,-1.33 c 0,-0.31 -0.27,-0.55 -0.57,-1.02 -0.07,-0.12 -0.13,-0.27 -0.15,-0.44 -0.01,-0.04 -0.02,-0.07 -0.07,-0.14 -0.1,-0.13 -0.26,-0.27 -0.43,-0.41 -0.34,-0.28 -0.72,-0.52 -1.04,-0.98 -0.18,-0.33 -0.54,-0.57 -0.9,-0.84 -0.18,-0.14 -0.36,-0.28 -0.53,-0.46 -0.18,-0.16 -0.3,-0.45 -0.39,-0.51 -0.3,-0.22 -0.77,-0.3 -1.19,-0.37 -0.47,-0.05 -0.91,-0.09 -1.36,-0.11 z"
   id="path582" />
			</g>
			<g
   id="g588">
				<path
   class="st44"
   d="m 75.71,215.71 c -0.52,0.36 -1.07,0.75 -1.35,1.18 -0.07,0.13 -0.15,0.57 -0.32,0.86 -0.16,0.31 -0.38,0.57 -0.56,0.82 l -0.1,0.13 c -0.02,0.04 -0.08,0.17 -0.12,0.22 l -0.22,0.4 c -0.07,0.13 -0.13,0.26 -0.19,0.39 -0.06,0.14 -0.07,0.21 -0.13,0.44 -0.13,0.35 -0.31,0.6 -0.47,0.87 -0.15,0.26 -0.37,0.53 -0.23,0.82 -0.15,-0.08 -0.19,-0.3 -0.18,-0.46 0.01,-0.17 0.05,-0.34 0.09,-0.5 0.09,-0.31 0.21,-0.62 0.25,-0.88 0.01,-0.08 0.02,-0.33 0.08,-0.48 0.05,-0.17 0.11,-0.33 0.17,-0.49 0.07,-0.15 0.15,-0.3 0.22,-0.44 l 0.1,-0.2 c 0.07,-0.13 0.12,-0.18 0.17,-0.25 0.21,-0.25 0.39,-0.47 0.54,-0.72 0.08,-0.12 0.15,-0.24 0.2,-0.36 0.03,-0.08 0.13,-0.35 0.26,-0.49 0.52,-0.57 1.16,-0.74 1.79,-0.86 z"
   id="path586" />
			</g>
			<g
   id="g592">
				<path
   class="st44"
   d="m 52.6,212.83 c 0.29,0.62 0.52,1.3 0.8,1.88 0.27,0.62 0.86,0.72 1.57,0.79 0.35,0.05 0.71,0.11 1.08,0.31 0.18,0.09 0.37,0.24 0.5,0.44 0.15,0.26 0.14,0.27 0.25,0.38 0.38,0.37 1.09,0.73 1.56,0.77 h 0.15 c 0.08,0 0.13,0.02 0.2,0.04 0.12,0.04 0.22,0.09 0.31,0.14 0.18,0.11 0.33,0.24 0.47,0.37 0.26,0.27 0.53,0.59 0.62,1.03 0.11,0.43 0.74,0.86 1.3,1.14 0.58,0.31 1.32,0.51 1.78,1.19 0.11,0.16 0.13,0.44 0.14,0.54 0.03,0.13 0.12,0.25 0.25,0.33 0.27,0.16 0.62,0.21 0.96,0.22 -0.34,0.06 -0.7,0.09 -1.05,-0.05 -0.17,-0.07 -0.35,-0.21 -0.42,-0.41 -0.06,-0.23 -0.08,-0.31 -0.17,-0.43 -0.37,-0.45 -1.07,-0.63 -1.71,-0.88 -0.34,-0.13 -0.66,-0.29 -0.97,-0.51 -0.3,-0.23 -0.61,-0.49 -0.76,-0.96 -0.11,-0.45 -0.73,-1.07 -1.1,-1.03 -0.48,-0.04 -0.79,-0.19 -1.13,-0.36 -0.33,-0.17 -0.64,-0.36 -0.93,-0.67 -0.14,-0.13 -0.28,-0.45 -0.3,-0.48 -0.05,-0.09 -0.14,-0.18 -0.26,-0.25 -0.24,-0.14 -0.55,-0.23 -0.88,-0.31 -0.31,-0.08 -0.69,-0.13 -1.04,-0.32 -0.36,-0.18 -0.63,-0.53 -0.74,-0.87 -0.2,-0.71 -0.34,-1.35 -0.48,-2.04 z"
   id="path590" />
			</g>
			<g
   id="g596">
				<path
   class="st44"
   d="m 37.34,223.07 c -0.01,0.5 0.09,0.99 0.22,1.46 0.14,0.47 0.32,0.94 0.41,1.43 0.12,0.49 0.03,1.02 -0.03,1.49 -0.05,0.49 0.24,0.89 0.43,1.37 0.19,0.52 -0.03,1.06 0.15,1.46 0.22,0.38 0.5,0.87 0.71,1.29 0.23,0.42 0.47,0.9 0.82,1.09 0.5,0.16 0.86,0.65 1.22,0.85 0.19,0.1 0.38,0.13 0.57,0.07 0.21,-0.06 0.46,-0.16 0.68,-0.24 0.46,-0.18 0.91,-0.36 1.35,-0.57 0.42,-0.21 0.92,-0.43 1.13,-0.75 0.15,-0.21 0.31,-0.42 0.52,-0.61 0.11,-0.09 0.23,-0.19 0.41,-0.24 0.19,-0.07 0.48,0.04 0.58,0.2 0.4,0.59 0.2,1.16 0.25,1.6 0.01,0.23 0.06,0.4 0.17,0.53 0.12,0.12 0.35,0.29 0.53,0.42 0.39,0.27 0.83,0.5 1.26,0.77 0.39,0.24 0.85,0.42 1.26,0.51 l -0.16,0.02 c 0.68,-0.28 1.38,-0.61 1.97,-1.02 0.15,-0.1 0.28,-0.21 0.38,-0.32 0.1,-0.12 0.09,-0.14 0.18,-0.41 0.16,-0.43 0.44,-0.78 0.84,-1.04 l -0.12,0.12 c 0.7,-1.15 1.38,-2.29 2.41,-3.28 0.25,-0.25 0.68,-0.45 0.94,-0.55 0.13,-0.06 0.29,-0.14 0.34,-0.19 0.02,-0.04 -0.02,0.06 0,-0.02 0.01,-0.08 0.04,-0.24 0.1,-0.34 0.2,-0.38 0.49,-0.66 0.9,-0.83 0.2,-0.08 0.43,-0.11 0.65,-0.08 0.28,0.05 0.29,0.07 0.36,0.05 0.15,-0.03 0.37,-0.26 0.53,-0.51 0.19,-0.26 0.3,-0.52 0.57,-0.87 0.58,-0.55 1.13,-0.8 1.13,-1.29 0.02,-0.14 0.01,-0.32 0.08,-0.55 0.06,-0.24 0.27,-0.49 0.49,-0.58 0.45,-0.2 0.71,-0.17 1,-0.29 0.28,-0.1 0.53,-0.23 0.74,-0.42 0.18,-0.16 0.41,-0.49 0.69,-0.72 0.28,-0.24 0.59,-0.47 1.03,-0.55 0.11,-0.02 0.23,-0.02 0.34,-0.01 0.09,0.01 0.11,0.01 0.17,0 0.11,-0.01 0.24,-0.06 0.41,-0.12 0.33,-0.14 0.86,-0.14 1.21,0.04 0.2,0.1 0.3,0.17 0.4,0.18 0.1,0.02 0.2,0.03 0.32,-0.01 0.24,-0.06 0.48,-0.23 0.75,-0.43 0.16,-0.08 0.22,-0.25 0.64,-0.29 0.29,0.02 0.47,0.15 0.61,0.22 0.14,0.08 0.26,0.14 0.33,0.15 0.06,0.01 0.12,-0.01 0.32,-0.1 0.19,-0.09 0.5,-0.1 0.71,-0.02 0.21,0.07 0.38,0.2 0.48,0.24 0.24,0.12 0.56,0.18 0.88,0.26 0.17,0.04 0.34,0.08 0.53,0.16 0.1,0.05 0.2,0.1 0.3,0.19 0.05,0.04 0.09,0.1 0.13,0.16 0.04,0.06 0.01,0.01 0.02,0.03 0.22,0.2 1.3,-0.02 1.84,0.79 0.15,0.26 0.26,0.3 0.58,0.35 0.15,0.02 0.32,0.02 0.52,0.06 0.19,0.03 0.45,0.14 0.61,0.35 0.09,0.13 0.1,0.15 0.14,0.2 0.04,0.05 0.08,0.09 0.13,0.13 0.1,0.08 0.23,0.16 0.37,0.24 0.14,0.08 0.29,0.16 0.45,0.27 0.15,0.11 0.35,0.29 0.41,0.56 l -0.18,-0.21 c 0.37,0.15 0.66,0.35 0.92,0.63 0.26,0.27 0.45,0.62 0.52,1 l -0.39,-0.18 c 0.24,-0.11 0.47,-0.17 0.74,-0.16 0.27,0 0.56,0.14 0.73,0.36 0.35,0.44 0.31,0.93 0.41,1.29 0.07,0.41 0.24,0.71 0.35,1.22 0.04,0.29 -0.11,0.56 -0.23,0.73 -0.1,0.14 -0.17,0.33 -0.23,0.51 -0.23,0.73 -0.39,1.64 -0.29,2.33 0.22,0.83 0.42,1.65 0.27,2.56 -0.03,0.11 -0.06,0.23 -0.13,0.34 -0.06,0.11 -0.18,0.22 -0.24,0.27 -0.15,0.13 -0.28,0.28 -0.41,0.44 -0.25,0.32 -0.48,0.66 -0.64,1.03 -0.08,0.19 -0.14,0.36 -0.17,0.57 -0.07,0.26 -0.21,0.41 -0.34,0.58 -0.27,0.33 -0.57,0.62 -0.88,0.9 -0.63,0.55 -1.28,1.09 -2.06,1.43 -0.2,0.08 -0.42,0.12 -0.62,0.11 -0.21,0.01 -0.41,0.03 -0.62,0.06 -0.41,0.06 -0.82,0.16 -1.21,0.28 0.39,-0.14 0.8,-0.25 1.21,-0.33 0.4,-0.11 0.85,-0.03 1.22,-0.2 0.74,-0.36 1.37,-0.92 1.98,-1.48 0.3,-0.29 0.58,-0.59 0.83,-0.91 0.12,-0.16 0.25,-0.34 0.28,-0.49 0.02,-0.2 0.08,-0.44 0.16,-0.63 0.16,-0.4 0.39,-0.77 0.64,-1.11 0.13,-0.17 0.27,-0.34 0.42,-0.49 0.17,-0.15 0.2,-0.25 0.25,-0.45 0.1,-0.75 -0.09,-1.6 -0.32,-2.36 -0.12,-0.5 -0.05,-0.9 -0.02,-1.33 0.05,-0.42 0.13,-0.84 0.26,-1.26 0.07,-0.21 0.14,-0.42 0.27,-0.62 0.11,-0.17 0.17,-0.3 0.14,-0.43 -0.07,-0.3 -0.29,-0.75 -0.37,-1.17 -0.1,-0.43 -0.11,-0.85 -0.32,-1.06 -0.16,-0.22 -0.53,-0.2 -0.83,-0.05 -0.14,0.07 -0.3,0.01 -0.37,-0.12 -0.01,-0.02 -0.02,-0.04 -0.02,-0.06 -0.06,-0.27 -0.2,-0.52 -0.4,-0.72 -0.19,-0.2 -0.46,-0.37 -0.71,-0.47 l -0.04,-0.01 c -0.09,-0.03 -0.14,-0.11 -0.15,-0.2 -0.03,-0.29 -1.06,-0.49 -1.41,-1.16 -0.06,-0.12 -0.35,-0.14 -0.71,-0.17 -0.18,-0.02 -0.39,-0.05 -0.59,-0.17 -0.2,-0.1 -0.37,-0.33 -0.45,-0.46 -0.1,-0.18 -0.34,-0.28 -0.63,-0.33 l -0.49,-0.07 c -0.17,-0.04 -0.38,-0.05 -0.62,-0.24 -0.05,-0.04 -0.13,-0.15 -0.13,-0.16 -0.01,-0.01 -0.01,-0.02 -0.03,-0.03 -0.02,-0.02 -0.07,-0.05 -0.12,-0.07 -0.11,-0.05 -0.26,-0.09 -0.42,-0.12 -0.31,-0.07 -0.66,-0.13 -1.02,-0.3 -0.39,-0.21 -0.47,-0.28 -0.67,-0.2 -0.1,0.04 -0.36,0.18 -0.63,0.14 -0.26,-0.03 -0.44,-0.15 -0.58,-0.23 -0.14,-0.09 -0.26,-0.14 -0.31,-0.13 0.08,-0.03 -0.11,0.07 -0.22,0.16 -0.26,0.19 -0.56,0.43 -0.97,0.55 -0.2,0.06 -0.44,0.07 -0.66,0.01 -0.11,-0.02 -0.21,-0.07 -0.31,-0.12 l -0.2,-0.1 c -0.25,-0.11 -0.43,-0.11 -0.72,-0.01 -0.15,0.05 -0.32,0.12 -0.54,0.15 -0.1,0.02 -0.25,0.01 -0.33,0 -0.05,0 -0.1,0 -0.15,0.01 -0.22,0.04 -0.47,0.2 -0.69,0.39 -0.24,0.19 -0.37,0.43 -0.68,0.72 -0.28,0.26 -0.63,0.45 -0.97,0.57 -0.33,0.13 -0.76,0.17 -0.91,0.26 -0.09,0.05 -0.1,0.07 -0.13,0.15 -0.03,0.09 -0.04,0.25 -0.06,0.43 -0.02,0.18 -0.08,0.42 -0.19,0.61 -0.11,0.19 -0.25,0.33 -0.39,0.46 -0.27,0.24 -0.58,0.44 -0.74,0.61 -0.14,0.17 -0.32,0.51 -0.52,0.79 -0.21,0.28 -0.42,0.62 -0.93,0.78 -0.26,0.08 -0.57,-0.03 -0.62,-0.03 -0.11,-0.02 -0.22,0 -0.33,0.04 -0.21,0.07 -0.43,0.28 -0.53,0.49 -0.02,0.05 -0.02,0.05 -0.04,0.14 0.01,0.08 -0.1,0.35 -0.21,0.42 -0.2,0.17 -0.36,0.23 -0.52,0.3 -0.36,0.15 -0.54,0.22 -0.77,0.43 -0.9,0.85 -1.62,2 -2.29,3.1 -0.03,0.05 -0.07,0.08 -0.11,0.11 L 53.49,233 c -0.23,0.15 -0.47,0.42 -0.57,0.71 -0.04,0.09 -0.02,0.1 -0.09,0.27 -0.05,0.16 -0.14,0.24 -0.21,0.34 -0.16,0.17 -0.32,0.3 -0.49,0.42 -0.67,0.46 -1.37,0.77 -2.1,1.07 h -0.01 c -0.05,0.02 -0.1,0.02 -0.15,0.01 -0.56,-0.11 -1.03,-0.33 -1.48,-0.61 -0.41,-0.27 -0.84,-0.5 -1.27,-0.81 -0.22,-0.16 -0.39,-0.28 -0.62,-0.52 -0.22,-0.26 -0.28,-0.59 -0.28,-0.86 0,-0.53 0.09,-1.04 -0.11,-1.3 -0.05,-0.05 -0.02,-0.04 -0.08,-0.03 -0.05,0.01 -0.14,0.07 -0.22,0.13 -0.16,0.14 -0.31,0.32 -0.45,0.51 -0.39,0.49 -0.88,0.64 -1.32,0.88 -0.46,0.21 -0.93,0.39 -1.4,0.56 -0.24,0.08 -0.46,0.17 -0.73,0.24 -0.28,0.08 -0.62,0.03 -0.86,-0.12 -0.5,-0.3 -0.73,-0.71 -1.2,-0.87 -0.52,-0.33 -0.69,-0.83 -0.93,-1.27 -0.21,-0.47 -0.42,-0.85 -0.68,-1.34 -0.19,-0.55 0.06,-1.05 -0.1,-1.49 -0.15,-0.42 -0.47,-0.91 -0.39,-1.45 0.09,-0.51 0.18,-0.97 0.08,-1.46 -0.08,-0.49 -0.24,-0.96 -0.36,-1.44 -0.08,-0.51 -0.16,-1 -0.13,-1.5 z"
   id="path594" />
			</g>
			<path
   class="st2"
   d="m 67.66,284.38 c 0,0 -12.2,1.85 -16.52,0 0,0 -0.57,-6.87 0.5,-11.39 0.56,-2.38 0.83,-4.82 0.74,-7.26 -0.07,-1.92 -0.28,-4 -0.78,-5.59 -0.43,-1.37 -1.07,-3.4 -2.04,-5.58 3.31,3.09 7.29,6.84 6.61,11.98 -1.2,9.17 11.49,17.84 11.49,17.84 z"
   id="path598" />
			<g
   id="g602">
				<path
   class="st45"
   d="m 64.52,262.86 c -0.34,-0.63 -0.7,-1.23 -1.1,-1.77 -0.4,-0.53 -0.89,-1.04 -1.42,-1.08 -0.53,-0.08 -1.05,0.37 -1.51,0.84 -0.44,0.51 -0.84,1.08 -1.28,1.65 0.1,-0.34 0.24,-0.67 0.36,-1.01 0.14,-0.33 0.34,-0.64 0.53,-0.95 0.09,-0.16 0.24,-0.29 0.36,-0.43 0.12,-0.14 0.25,-0.28 0.43,-0.39 0.31,-0.23 0.75,-0.41 1.19,-0.35 0.9,0.14 1.42,0.84 1.77,1.45 0.36,0.64 0.57,1.33 0.67,2.04 z"
   id="path600" />
			</g>
			<g
   id="g606">
				<path
   class="st45"
   d="m 57.9,255.26 c -0.34,-0.63 -0.7,-1.23 -1.1,-1.77 -0.4,-0.53 -0.89,-1.04 -1.42,-1.08 -0.53,-0.08 -1.05,0.37 -1.51,0.84 -0.44,0.51 -0.84,1.08 -1.28,1.65 0.1,-0.34 0.24,-0.67 0.36,-1.01 0.14,-0.33 0.34,-0.64 0.53,-0.95 0.09,-0.16 0.24,-0.29 0.36,-0.43 0.12,-0.14 0.25,-0.28 0.43,-0.39 0.31,-0.23 0.75,-0.41 1.19,-0.35 0.9,0.14 1.42,0.84 1.77,1.45 0.35,0.64 0.56,1.34 0.67,2.04 z"
   id="path604" />
			</g>
			<g
   id="g610">
				<path
   class="st45"
   d="m 65.25,273.19 c -0.34,-0.63 -0.7,-1.23 -1.1,-1.77 -0.4,-0.53 -0.89,-1.04 -1.42,-1.08 -0.53,-0.08 -1.05,0.37 -1.51,0.84 -0.44,0.51 -0.84,1.08 -1.28,1.65 0.1,-0.34 0.24,-0.67 0.36,-1.01 0.14,-0.33 0.34,-0.64 0.53,-0.95 0.09,-0.16 0.24,-0.29 0.36,-0.43 0.12,-0.14 0.25,-0.28 0.43,-0.39 0.31,-0.23 0.75,-0.41 1.19,-0.35 0.9,0.14 1.42,0.84 1.77,1.45 0.35,0.64 0.56,1.33 0.67,2.04 z"
   id="path608" />
			</g>
		</g>
		<rect
   x="22.26"
   y="210.2"
   class="st4"
   width="75"
   height="75"
   id="rect614" />
	</g>
	
	
	
	
	
	
	
	
</g>
</svg>
