<?xml version="1.0" encoding="UTF-8" standalone="no"?>
<svg
   xmlns:dc="http://purl.org/dc/elements/1.1/"
   xmlns:cc="http://creativecommons.org/ns#"
   xmlns:rdf="http://www.w3.org/1999/02/22-rdf-syntax-ns#"
   xmlns:svg="http://www.w3.org/2000/svg"
   xmlns="http://www.w3.org/2000/svg"
   xmlns:sodipodi="http://sodipodi.sourceforge.net/DTD/sodipodi-0.dtd"
   xmlns:inkscape="http://www.inkscape.org/namespaces/inkscape"
   version="1.1"
   id="katman_1"
   x="0px"
   y="0px"
   viewBox="0 0 75.016288 75"
   xml:space="preserve"
   sodipodi:docname="cabbage.svg"
   width="75.016289"
   height="75"
   inkscape:version="1.0.1 (3bc2e813f5, 2020-09-07)"><metadata
   id="metadata1883"><rdf:RDF><cc:Work
       rdf:about=""><dc:format>image/svg+xml</dc:format><dc:type
         rdf:resource="http://purl.org/dc/dcmitype/StillImage" /><dc:title></dc:title></cc:Work></rdf:RDF></metadata><defs
   id="defs1881" /><sodipodi:namedview
   pagecolor="#ffffff"
   bordercolor="#666666"
   borderopacity="1"
   objecttolerance="10"
   gridtolerance="10"
   guidetolerance="10"
   inkscape:pageopacity="0"
   inkscape:pageshadow="2"
   inkscape:window-width="1718"
   inkscape:window-height="1368"
   id="namedview1879"
   showgrid="false"
   fit-margin-top="0"
   fit-margin-left="0"
   fit-margin-right="0"
   fit-margin-bottom="0"
   inkscape:zoom="2.216"
   inkscape:cx="-153.33952"
   inkscape:cy="85.879989"
   inkscape:window-x="1713"
   inkscape:window-y="0"
   inkscape:window-maximized="0"
   inkscape:current-layer="g1876" />
<style
   type="text/css"
   id="style2">
	.st0{fill:#F40303;}
	.st1{fill:#4E9B04;}
	.st2{opacity:0.1;}
	.st3{opacity:0.15;fill:#FFFFFF;}
	.st4{fill:none;}
	.st5{fill:#DF0000;}
	.st6{fill:#41A500;}
	.st7{opacity:0.1;fill:#231F20;}
	.st8{fill:#84C100;}
	.st9{fill:#F86107;}
	.st10{opacity:0.07;}
	.st11{opacity:0.2;fill:#FFFFFF;}
	.st12{fill:#E55107;}
	.st13{fill:#E61206;}
	.st14{fill:#0D5C00;}
	.st15{fill:#27AB3B;}
	.st16{fill:#09913C;}
	.st17{fill:#E6012C;}
	.st18{fill:#680756;}
	.st19{fill:#74990D;}
	.st20{fill:#B22483;}
	.st21{fill:#43BC48;}
	.st22{fill:#2EAF2E;}
	.st23{fill:#8D1E60;}
	.st24{fill:#753D24;}
	.st25{fill:#348801;}
	.st26{fill:#2C7005;}
	.st27{fill:#63AB16;}
	.st28{fill:#8EBA24;}
	.st29{fill:#3B7524;}
	.st30{fill:#B4D459;}
	.st31{opacity:0.2;fill:#B4D459;}
	.st32{fill:#FEB544;}
	.st33{opacity:0.1;fill:#CE863A;}
	.st34{fill:#CE863A;}
	.st35{fill:#57BF44;}
	.st36{fill:#BBFF96;}
	.st37{fill:#DFFFAA;}
	.st38{fill:#39AA50;}
	.st39{fill:#5DD166;}
	.st40{fill:#8FDC50;}
	.st41{fill:#29602E;}
	.st42{fill:#8CD13D;}
	.st43{fill:#24892E;}
	.st44{fill:#15441A;}
	.st45{fill:#699E25;}
	.st46{fill:#4A8912;}
	.st47{fill:#FCD30B;}
	.st48{fill:#FFE36C;}
	.st49{fill:#FCD30B;stroke:#ED5100;stroke-width:0.0803;stroke-miterlimit:10;}
	.st50{fill:#FCD30B;stroke:#ED5100;stroke-width:0.0749;stroke-miterlimit:10;}
	.st51{fill:#FCD30B;stroke:#ED5100;stroke-width:0.0709;stroke-miterlimit:10;}
	.st52{fill:#FCD30B;stroke:#ED5100;stroke-width:0.0592;stroke-miterlimit:10;}
	.st53{fill:#FCD30B;stroke:#ED5100;stroke-width:0.0529;stroke-miterlimit:10;}
	.st54{fill:#FCD30B;stroke:#ED5100;stroke-width:0.0474;stroke-miterlimit:10;}
	.st55{fill:#FCD30B;stroke:#ED5100;stroke-width:0.0447;stroke-miterlimit:10;}
	.st56{fill:#FCD30B;stroke:#ED5100;stroke-width:0.0607;stroke-miterlimit:10;}
	.st57{fill:#FCD30B;stroke:#ED5100;stroke-width:0.0574;stroke-miterlimit:10;}
	.st58{fill:#FCD30B;stroke:#ED5100;stroke-width:0.0479;stroke-miterlimit:10;}
	.st59{fill:#FCD30B;stroke:#ED5100;stroke-width:0.0402;stroke-miterlimit:10;}
	.st60{fill:#FCD30B;stroke:#ED5100;stroke-width:0.0362;stroke-miterlimit:10;}
	.st61{fill:#FCD30B;stroke:#ED5100;stroke-width:0.033;stroke-miterlimit:10;}
	.st62{fill:#FCD30B;stroke:#ED5100;stroke-width:0.0788;stroke-miterlimit:10;}
	.st63{fill:#FCD30B;stroke:#ED5100;stroke-width:0.0766;stroke-miterlimit:10;}
	.st64{fill:#FCD30B;stroke:#ED5100;stroke-width:0.0793;stroke-miterlimit:10;}
	.st65{fill:#FCD30B;stroke:#ED5100;stroke-width:0.0791;stroke-miterlimit:10;}
	.st66{fill:#FCD30B;stroke:#ED5100;stroke-width:0.0796;stroke-miterlimit:10;}
	.st67{fill:#FCD30B;stroke:#ED5100;stroke-width:0.0635;stroke-miterlimit:10;}
	.st68{fill:#FCD30B;stroke:#ED5100;stroke-width:0.0533;stroke-miterlimit:10;}
	.st69{fill:#FCD30B;stroke:#ED5100;stroke-width:0.0498;stroke-miterlimit:10;}
	.st70{fill:#FCD30B;stroke:#ED5100;stroke-width:0.0329;stroke-miterlimit:10;}
	.st71{fill:#FCD30B;stroke:#ED5100;stroke-width:0.0389;stroke-miterlimit:10;}
	.st72{fill:#FCD30B;stroke:#ED5100;stroke-width:0.023;stroke-miterlimit:10;}
	.st73{fill:#FCD30B;stroke:#ED5100;stroke-width:0.0359;stroke-miterlimit:10;}
	.st74{fill:#FCD30B;stroke:#ED5100;stroke-width:0.0251;stroke-miterlimit:10;}
	.st75{fill:#FCD30B;stroke:#ED5100;stroke-width:0.0795;stroke-miterlimit:10;}
	.st76{fill:#FCD30B;stroke:#ED5100;stroke-width:0.0675;stroke-miterlimit:10;}
	.st77{fill:#FCD30B;stroke:#ED5100;stroke-width:0.0543;stroke-miterlimit:10;}
	.st78{fill:#FCD30B;stroke:#ED5100;stroke-width:0.0466;stroke-miterlimit:10;}
	.st79{fill:#FCD30B;stroke:#ED5100;stroke-width:0.0354;stroke-miterlimit:10;}
	.st80{fill:#489B0B;}
	.st81{fill:#72B236;}
	.st82{fill:#62A428;}
	.st83{fill:#528E2A;}
	.st84{fill:#92BC4C;}
	.st85{fill:#569B30;}
	.st86{fill:#E2C3A4;stroke:#A97D60;stroke-width:0.2737;stroke-miterlimit:10;}
	.st87{fill:#EFE3D3;stroke:#A97D60;stroke-width:0.3649;stroke-linecap:round;stroke-linejoin:round;stroke-miterlimit:10;}
	.st88{fill:#9D6B50;}
	.st89{fill:#E2C19E;}
	.st90{fill:#A16038;}
	.st91{fill:#DFC298;}
	.st92{fill:#EEE4BF;}
	.st93{fill:#D3B689;}
	.st94{fill:#689D34;}
	.st95{fill:#A5BC81;}
	.st96{fill:#DED6A8;}
	.st97{fill:#F4EDDA;}
	.st98{fill:#FF7900;stroke:#DB4900;stroke-width:0.5055;stroke-linecap:round;stroke-linejoin:round;stroke-miterlimit:10;}
	.st99{fill:none;stroke:#DB4900;stroke-width:0.5055;stroke-linecap:round;stroke-linejoin:round;stroke-miterlimit:10;}
	.st100{fill:#2E4819;}
	.st101{fill:#85BB19;}
	.st102{fill:#B2DC55;stroke:#A2C63C;stroke-width:0.2575;stroke-miterlimit:10;}
	.st103{fill:#86CE2C;}
	.st104{fill:#86CE2C;stroke:#72AA1A;stroke-width:0.1884;stroke-linecap:round;stroke-linejoin:round;stroke-miterlimit:10;}
	.st105{opacity:0.6;fill:#DDE68D;}
	.st106{opacity:0.6;}
	.st107{fill:#DDE68D;}
	.st108{fill:#86CE2C;stroke:#72AA1A;stroke-width:0.208;stroke-linecap:round;stroke-linejoin:round;stroke-miterlimit:10;}
</style>
<g
   id="g1876"
   transform="translate(-403.33952,-114.12)">
	
	
	
	
	
	
	
	
	
	
	<g
   id="g570">
		<g
   id="g566">
			<g
   id="g548">
				<g
   id="g482">
					<path
   class="st35"
   d="m 459.24,127.49 c -1.3,-2.93 -3.61,-6.1 -7.62,-6.79 -0.41,-0.07 -0.81,-0.22 -1.17,-0.45 -1.25,-0.8 -4.39,-2.68 -7.05,-3.16 -0.47,-0.08 -0.9,-0.28 -1.29,-0.57 -0.99,-0.74 -3.49,-1.95 -8.24,-0.63 -0.23,0.06 -0.47,0.1 -0.72,0.11 -1.51,0.05 -7.49,0.45 -12.03,3.42 -0.06,0.04 -0.13,0.08 -0.19,0.12 -0.56,0.31 -3.43,1.92 -4.86,3.1 -0.26,0.22 -0.56,0.38 -0.87,0.5 -0.94,0.35 -3.22,1.58 -5.98,5.82 -0.13,0.19 -0.28,0.37 -0.44,0.53 -0.91,0.88 -4.12,4.57 -4.25,12.75 -0.01,0.33 -0.06,0.65 -0.17,0.96 -0.47,1.37 -1.73,5.81 -0.49,11.08 0,0 3.88,16.51 14.68,25.92 2.71,2.37 6.59,-1.05 4.61,-4.05 -3.17,-4.8 -6.09,-10.57 -6.18,-15.59 -0.19,-11.05 -5.24,-12.36 -0.75,-17.6 4.49,-5.24 1.5,-11.24 10.86,-12.17 8.63,-0.86 20.91,-0.29 22.79,-0.2 0.16,0.01 0.32,0.03 0.48,0.06 l 5.41,1.14 c 2.49,0.52 4.5,-1.99 3.47,-4.3 z"
   id="path464" />
					<g
   id="g468">
						<path
   class="st36"
   d="m 434.8,121.68 c -1.94,1.04 -3.77,2.27 -5.49,3.63 -1.74,1.33 -3.37,2.8 -4.89,4.37 -3.04,3.13 -5.66,6.68 -7.6,10.59 -2.03,3.86 -3.34,8.07 -4.1,12.37 -0.74,4.31 -0.89,8.72 -0.62,13.11 -0.63,-4.36 -0.65,-8.82 -0.04,-13.22 0.31,-2.2 0.8,-4.37 1.48,-6.48 0.66,-2.12 1.49,-4.19 2.5,-6.17 2.04,-3.95 4.71,-7.58 7.9,-10.66 3.2,-3.09 6.83,-5.74 10.86,-7.54 z"
   id="path466" />
					</g>
					<g
   id="g472">
						<path
   class="st36"
   d="m 410.98,140.82 c 0.58,1.47 0.95,3.02 1.08,4.62 0.06,0.8 0.04,1.61 -0.08,2.42 -0.06,0.41 -0.18,0.81 -0.31,1.21 l -0.47,1.09 c -0.52,1.32 -0.44,2.91 -0.29,4.42 0.18,1.53 0.46,3.06 0.83,4.59 -0.68,-1.42 -1.19,-2.93 -1.49,-4.49 -0.28,-1.56 -0.45,-3.22 0.16,-4.85 l 0.48,-1.06 c 0.12,-0.34 0.22,-0.69 0.29,-1.06 0.15,-0.73 0.2,-1.49 0.22,-2.25 -0.03,-1.53 -0.17,-3.09 -0.42,-4.64 z"
   id="path470" />
					</g>
					<g
   id="g476">
						<path
   class="st36"
   d="m 421.62,132.78 c 3.43,-1.99 7.02,-3.67 10.7,-5.13 0.92,-0.36 1.86,-0.7 2.8,-1.01 0.96,-0.31 1.9,-0.57 2.81,-0.89 0.91,-0.33 1.8,-0.72 2.61,-1.24 0.8,-0.51 1.59,-1.17 1.9,-2.11 -0.04,0.5 -0.3,0.96 -0.6,1.37 -0.3,0.4 -0.66,0.77 -1.06,1.09 -0.79,0.64 -1.68,1.13 -2.61,1.53 -0.92,0.42 -1.88,0.7 -2.79,1.04 -0.92,0.33 -1.84,0.68 -2.75,1.04 -3.66,1.41 -7.29,2.94 -11.01,4.31 z"
   id="path474" />
					</g>
					<g
   id="g480">
						<path
   class="st36"
   d="m 413.88,130.91 c 0.83,0.68 1.35,1.72 1.57,2.79 0.12,0.54 0.16,1.09 0.14,1.64 -0.02,0.56 -0.11,1.1 -0.17,1.59 -0.25,2.04 -0.33,4.11 -0.44,6.22 -0.3,-1.02 -0.45,-2.08 -0.52,-3.14 -0.07,-1.06 -0.03,-2.13 0.09,-3.19 0.17,-1.08 0.31,-2 0.22,-3.02 -0.07,-0.99 -0.34,-1.98 -0.89,-2.89 z"
   id="path478" />
					</g>
				</g>
				<path
   class="st37"
   d="m 438.83,129.73 c 0,0 12.63,-5 22.92,2.14 10.3,7.14 9,17.62 7.96,20.12 -1.04,2.49 -30.88,-22.26 -30.88,-22.26 z"
   id="path484" />
				<g
   id="g516">
					<path
   class="st38"
   d="m 429.22,185.69 c 0.69,0.49 1.55,0.66 2.38,0.48 0.62,-0.14 1.39,-0.28 2.05,-0.32 1.4,-0.09 6.55,2.43 8.33,2.06 1.78,-0.37 11.72,-3.58 14.9,-5.12 3.18,-1.54 13.01,-7.15 13.66,-22.88 0.65,-15.73 -14.61,-22.85 -14.61,-22.85 0,0 -9.27,-4.78 -11.14,-4.96 -1.87,-0.19 -7.58,-5.87 -16.32,-4.06 -8.74,1.81 -10.67,10.05 -11.8,12.49 -1.12,2.43 -6.8,7.88 -3.9,22.38 2.41,12.01 12.92,20.3 16.45,22.78 z"
   id="path486" />
					<g
   id="g490">
						<path
   class="st39"
   d="m 458.5,159.19 c -0.19,1.13 -0.66,2.22 -1.4,3.11 -0.72,0.91 -1.63,1.64 -2.57,2.3 -0.95,0.65 -1.95,1.22 -2.97,1.76 -0.99,0.54 -1.93,1.19 -2.86,1.84 -3.67,2.7 -7.09,5.76 -10.43,8.86 -0.03,0.02 -0.05,0.04 -0.08,0.06 l -0.02,0.01 -1.2,0.59 c -0.39,0.22 -0.75,0.47 -1.13,0.7 -0.67,0.55 -1.36,1.12 -1.74,1.88 -0.41,0.74 -0.57,1.58 -0.46,2.41 0.1,0.82 0.48,1.66 0.96,2.32 l 0.02,0.03 c 0.13,0.18 0.09,0.43 -0.09,0.56 -0.15,0.11 -0.34,0.1 -0.48,-0.01 -3.84,-2.96 -6.83,-7.04 -8.07,-11.76 -0.31,-1.17 -0.49,-2.38 -0.56,-3.59 -0.07,-1.2 -0.08,-2.38 -0.1,-3.57 -0.02,-2.38 0.01,-4.76 0.08,-7.13 0.18,-4.75 0.45,-9.5 1.2,-14.21 0.1,-0.59 0.21,-1.18 0.37,-1.76 0.15,-0.6 0.35,-1.13 0.49,-1.71 0.3,-1.14 0.53,-2.3 0.72,-3.47 0.19,-1.17 0.34,-2.34 0.43,-3.52 0.07,-1.18 0.17,-2.37 -0.06,-3.54 0.64,4.71 -0.44,9.53 -1.48,14.08 -0.65,4.67 -0.81,9.43 -0.93,14.16 -0.06,2.37 -0.07,4.73 -0.03,7.1 0.06,2.37 0.04,4.73 0.68,6.96 1.22,4.47 4.09,8.48 7.73,11.31 l -0.55,0.58 c -0.59,-0.82 -0.98,-1.72 -1.11,-2.72 -0.13,-0.99 0.08,-2.03 0.57,-2.89 0.47,-0.89 1.23,-1.52 1.98,-2.12 0.4,-0.25 0.8,-0.52 1.21,-0.74 l 1.27,-0.61 -0.11,0.07 c 3.42,-3.06 6.91,-6.05 10.66,-8.7 0.95,-0.65 1.92,-1.28 2.96,-1.79 1.03,-0.5 2.04,-1.02 3,-1.63 0.95,-0.62 1.87,-1.31 2.61,-2.18 0.75,-0.86 1.26,-1.92 1.49,-3.04 z"
   id="path488" />
					</g>
					<g
   id="g494">
						<path
   class="st39"
   d="m 432.08,182.04 c 0.1,-0.22 -0.11,-0.41 -0.23,-0.58 -0.14,-0.18 -0.27,-0.37 -0.38,-0.56 -0.23,-0.4 -0.36,-0.85 -0.43,-1.3 -0.12,-0.92 -0.01,-1.84 0.21,-2.73 0.47,-1.77 1.3,-3.41 2.13,-5 1.71,-3.18 3.73,-6.24 6.38,-8.79 1.35,-1.23 2.91,-2.32 4.7,-2.9 1.67,-0.54 3.23,-1.4 4.7,-2.36 2.9,-1.98 5.39,-4.81 6.21,-8.35 -0.23,1.79 -0.98,3.5 -1.99,5.01 -1.05,1.49 -2.38,2.78 -3.84,3.88 -1.47,1.09 -3.1,1.96 -4.84,2.57 -1.64,0.55 -3.08,1.58 -4.36,2.78 -2.59,2.4 -4.58,5.41 -6.39,8.48 -0.9,1.55 -1.77,3.11 -2.31,4.79 -0.27,0.84 -0.44,1.71 -0.39,2.59 0.04,0.43 0.13,0.87 0.32,1.27 0.09,0.2 0.2,0.4 0.32,0.59 0.11,0.17 0.31,0.39 0.19,0.61 z"
   id="path492" />
					</g>
					<g
   id="g498">
						<path
   class="st39"
   d="m 426.41,160.69 c 1.14,-2.25 2.35,-4.46 3.55,-6.67 l 3.66,-6.6 c 1.22,-2.19 2.48,-4.38 3.57,-6.61 l 1.5,-3.46 c 0.54,-1.14 1.08,-2.28 1.7,-3.38 -0.91,2.36 -1.72,4.71 -2.59,7.1 -0.98,2.36 -2.21,4.56 -3.43,6.77 -1.24,2.19 -2.51,4.37 -3.84,6.51 -1.32,2.14 -2.67,4.27 -4.12,6.34 z"
   id="path496" />
					</g>
					<g
   id="g502">
						<path
   class="st39"
   d="m 416.24,142.96 2.01,4.83 c 0.69,1.59 1.37,3.19 2.13,4.74 1.5,3.12 3.14,6.16 5.31,8.91 -2.68,-2.29 -4.56,-5.39 -6.09,-8.54 -1.49,-3.18 -2.67,-6.5 -3.36,-9.94 z"
   id="path500" />
					</g>
					<g
   id="g506">
						<path
   class="st39"
   d="m 421.67,133.97 c 0.4,0.85 0.87,1.64 1.42,2.34 0.56,0.71 1.17,1.28 1.94,1.76 0.85,0.58 1.46,1.43 1.82,2.33 0.35,0.91 0.52,1.87 0.44,2.81 -0.28,-0.9 -0.62,-1.75 -1.05,-2.52 -0.45,-0.76 -0.99,-1.44 -1.69,-1.91 -0.8,-0.51 -1.54,-1.26 -2.01,-2.1 -0.5,-0.83 -0.81,-1.76 -0.87,-2.71 z"
   id="path504" />
					</g>
					<g
   id="g510">
						<path
   class="st39"
   d="m 445.76,137.22 c 0.64,1.89 1.26,3.82 2.26,5.51 0.13,0.21 0.26,0.4 0.41,0.58 0.17,0.2 0.33,0.42 0.46,0.65 0.27,0.47 0.4,1.06 0.3,1.61 -0.2,1.12 -0.9,1.94 -1.55,2.72 -1.35,1.53 -2.89,2.82 -4.34,4.19 -1.47,1.36 -2.91,2.73 -4.31,4.16 -2.82,2.81 -5.49,5.8 -7.75,9.06 -1.13,1.63 -2.16,3.34 -2.91,5.18 -0.73,1.81 -1.36,3.81 -0.94,5.78 -0.33,-0.95 -0.31,-2 -0.19,-2.99 0.15,-1 0.4,-1.99 0.73,-2.94 0.68,-1.91 1.67,-3.69 2.75,-5.39 2.19,-3.4 4.9,-6.41 7.69,-9.3 1.42,-1.42 2.9,-2.79 4.39,-4.13 1.49,-1.34 3.01,-2.65 4.38,-4.06 0.66,-0.71 1.32,-1.48 1.51,-2.36 0.1,-0.44 0.02,-0.88 -0.19,-1.29 -0.1,-0.21 -0.24,-0.4 -0.38,-0.59 -0.16,-0.22 -0.31,-0.43 -0.43,-0.66 -0.9,-1.84 -1.43,-3.78 -1.89,-5.73 z"
   id="path508" />
					</g>
					<g
   id="g514">
						<path
   class="st39"
   d="m 437.28,141.46 c 1.14,-0.36 2.28,-0.49 3.4,-0.62 l 1.68,-0.15 c 0.56,-0.07 1.11,-0.07 1.66,-0.3 -0.34,0.53 -0.97,0.77 -1.52,0.96 -0.57,0.19 -1.15,0.28 -1.73,0.35 -1.17,0.11 -2.34,0.09 -3.49,-0.24 z"
   id="path512" />
					</g>
				</g>
				<path
   class="st40"
   d="m 456.81,123.63 c 0.04,-0.14 1.25,-1.9 0.63,-2.65 -0.62,-0.75 -3.37,-2.12 -3.37,-2.87 0,-0.25 0.68,-0.39 1.57,-0.45 3.19,-0.23 6.36,0.62 9.03,2.37 1.23,0.81 2.45,1.82 3.35,3.02 0.7,0.94 1.52,1.8 2.39,2.59 1.01,0.92 2.28,2.67 2.96,5.89 0,0 1.44,2.82 1.58,6.64 0.08,2.05 0.51,4.08 1.26,5.99 1.46,3.69 3.24,10.61 1.28,19.58 0,0 -0.36,2.39 -1.8,4.04 -0.25,0.29 -0.42,0.64 -0.49,1.02 -0.11,0.55 -0.45,1.45 -1.46,2.43 -0.38,0.37 -0.66,0.84 -0.77,1.36 -0.11,0.51 -0.54,1.25 -1.91,2.04 -0.69,0.4 -1.29,0.93 -1.74,1.59 -1.28,1.85 -4.27,5.57 -8.12,6.5 -5.18,1.25 -6.59,1.03 -6.59,1.03 0,0 12.46,-8.09 11.62,-14.21 -0.84,-6.12 0.78,-13.11 1.03,-13.61 0.25,-0.5 -2.87,-2.25 -0.25,-5.74 2.62,-3.5 0.5,-10.61 0.5,-10.61 0,0 -12.76,-8.93 -10.7,-15.95 z"
   id="path518" />
				<g
   id="g522">
					<path
   class="st39"
   d="m 437.28,177.14 c 1.81,-0.28 3.61,-0.59 5.4,-0.91 1.79,-0.33 3.57,-0.7 5.32,-1.14 1.76,-0.42 3.49,-0.96 5.15,-1.63 1.65,-0.7 3.3,-1.49 4.57,-2.83 -1.01,1.56 -2.64,2.63 -4.29,3.45 -1.67,0.82 -3.43,1.42 -5.22,1.86 -3.59,0.86 -7.26,1.3 -10.93,1.2 z"
   id="path520" />
				</g>
				<g
   id="g526">
					<path
   class="st39"
   d="m 440.4,163.07 c 1.62,-0.21 3.2,-0.54 4.77,-0.91 1.56,-0.39 3.09,-0.87 4.57,-1.46 1.49,-0.57 2.9,-1.34 4.25,-2.18 1.35,-0.86 2.56,-1.91 3.73,-3.05 -0.91,1.35 -2,2.62 -3.34,3.61 -1.32,0.99 -2.78,1.82 -4.32,2.43 -3.08,1.18 -6.4,1.78 -9.66,1.56 z"
   id="path524" />
				</g>
				<g
   id="g530">
					<path
   class="st39"
   d="m 451.52,174.5 c 0.38,-1.2 1,-2.32 1.69,-3.37 0.69,-1.06 1.49,-2.04 2.33,-2.97 1.73,-1.83 3.7,-3.45 5.92,-4.64 -0.89,0.89 -1.81,1.72 -2.69,2.59 -0.89,0.86 -1.75,1.74 -2.59,2.64 -1.67,1.8 -3.25,3.68 -4.66,5.75 z"
   id="path528" />
				</g>
				<g
   id="g534">
					<path
   class="st39"
   d="m 416.24,163.51 c 0.87,1.38 1.77,2.73 2.65,4.08 0.9,1.34 1.8,2.68 2.77,3.96 0.96,1.29 1.95,2.55 3.05,3.72 1.1,1.16 2.25,2.28 3.61,3.19 -1.52,-0.61 -2.88,-1.6 -4.09,-2.71 -1.23,-1.11 -2.28,-2.38 -3.27,-3.69 -1.94,-2.63 -3.56,-5.49 -4.72,-8.55 z"
   id="path532" />
				</g>
				<g
   id="g538">
					<path
   class="st39"
   d="m 436.78,158.32 c 1.55,-0.7 3.07,-1.44 4.58,-2.2 1.49,-0.78 2.97,-1.58 4.32,-2.54 1.37,-0.96 2.69,-2.01 4.03,-3.05 1.33,-1.06 2.8,-2 4.36,-2.68 -1.4,0.98 -2.67,2.06 -3.93,3.2 -1.26,1.14 -2.57,2.24 -3.97,3.24 -1.42,0.99 -2.96,1.78 -4.53,2.45 -1.57,0.65 -3.2,1.19 -4.86,1.58 z"
   id="path536" />
				</g>
				<g
   id="g542">
					<path
   class="st39"
   d="m 432.71,163.07 c -0.67,-1.4 -0.88,-3.05 -0.53,-4.63 0.16,-0.79 0.5,-1.55 0.95,-2.23 0.21,-0.35 0.49,-0.65 0.75,-0.96 0.25,-0.3 0.5,-0.55 0.73,-0.85 0.93,-1.16 1.7,-2.47 2.39,-3.83 0.68,-1.36 1.29,-2.77 1.84,-4.21 -0.22,1.53 -0.63,3.05 -1.22,4.49 -0.58,1.45 -1.34,2.84 -2.33,4.09 -0.24,0.31 -0.54,0.6 -0.79,0.89 -0.24,0.27 -0.49,0.54 -0.69,0.84 -0.44,0.58 -0.75,1.24 -0.97,1.94 -0.43,1.39 -0.48,2.95 -0.13,4.46 z"
   id="path540" />
				</g>
				<g
   id="g546">
					<path
   class="st39"
   d="m 425.69,167.07 c -2.64,-1.7 -5.05,-3.8 -6.93,-6.4 -0.45,-0.66 -0.87,-1.36 -1.17,-2.13 -0.3,-0.81 -0.46,-1.49 -0.72,-2.24 -0.53,-1.44 -1.13,-2.88 -2.11,-4.1 1.23,1 2.09,2.41 2.73,3.85 0.34,0.7 0.57,1.53 0.86,2.18 0.29,0.68 0.68,1.33 1.12,1.95 0.87,1.25 1.89,2.41 2.94,3.55 1.07,1.12 2.16,2.24 3.28,3.34 z"
   id="path544" />
				</g>
			</g>
			<g
   id="g552">
				<path
   class="st36"
   d="m 470.72,172.78 c 0.52,-1.45 1.02,-2.9 1.43,-4.37 0.44,-1.46 0.82,-2.94 1.1,-4.44 0.26,-1.49 0.49,-3 0.43,-4.48 -0.05,-1.44 -0.51,-2.96 -0.74,-4.48 -0.47,-3.05 -0.86,-6.1 -1.04,-9.18 -0.13,-3.06 -0.31,-6.21 0.51,-9.2 -0.26,1.51 -0.25,3.05 -0.18,4.57 0.05,1.53 0.18,3.05 0.34,4.57 0.32,3.04 0.69,6.08 1.23,9.09 0.12,0.75 0.25,1.51 0.39,2.25 0.07,0.37 0.15,0.75 0.19,1.15 0.07,0.4 0.09,0.8 0.09,1.19 0.02,1.58 -0.2,3.14 -0.57,4.64 -0.72,3.04 -1.81,5.93 -3.18,8.69 z"
   id="path550" />
			</g>
			<g
   id="g556">
				<path
   class="st36"
   d="m 473.5,164.43 c -0.92,-0.96 -1.71,-2.04 -2.34,-3.22 -0.64,-1.17 -1.12,-2.49 -1.24,-3.86 -0.12,-1.35 -0.04,-2.69 0.11,-4 0.11,-1.31 0.41,-2.59 0.27,-3.9 0.47,1.26 0.4,2.65 0.41,3.94 -0.01,1.31 -0.05,2.61 0.08,3.87 0.1,1.25 0.49,2.46 0.99,3.65 0.49,1.19 1.07,2.37 1.72,3.52 z"
   id="path554" />
			</g>
			<g
   id="g560">
				<path
   class="st36"
   d="m 473.5,155.71 c 0.05,-1.62 0.29,-3.17 0.54,-4.73 0.28,-1.55 0.57,-3.09 1.04,-4.64 0.21,1.61 0.07,3.22 -0.19,4.79 -0.28,1.57 -0.68,3.12 -1.39,4.58 z"
   id="path558" />
			</g>
			<g
   id="g564">
				<path
   class="st36"
   d="m 471.89,142.42 c -0.47,-1.63 -0.97,-3.25 -1.48,-4.85 -0.53,-1.59 -1.08,-3.18 -1.78,-4.69 -0.35,-0.75 -0.71,-1.5 -1.17,-2.17 -0.44,-0.7 -0.95,-1.44 -1.3,-2.23 -0.73,-1.55 -1.19,-3.35 -0.8,-5.03 -0.05,1.71 0.62,3.29 1.4,4.72 0.41,0.73 0.88,1.37 1.38,2.08 0.51,0.72 0.9,1.5 1.28,2.27 0.71,1.57 1.23,3.21 1.64,4.87 0.41,1.65 0.68,3.33 0.83,5.03 z"
   id="path562" />
			</g>
		</g>
		<rect
   x="403.35001"
   y="114.12"
   class="st4"
   width="75"
   height="75"
   id="rect568" />
	</g>
	
	
	
	
	
	
	
	
	
</g>
</svg>
