<?xml version="1.0" encoding="UTF-8" standalone="no"?>
<svg
   xmlns:dc="http://purl.org/dc/elements/1.1/"
   xmlns:cc="http://creativecommons.org/ns#"
   xmlns:rdf="http://www.w3.org/1999/02/22-rdf-syntax-ns#"
   xmlns:svg="http://www.w3.org/2000/svg"
   xmlns="http://www.w3.org/2000/svg"
   xmlns:sodipodi="http://sodipodi.sourceforge.net/DTD/sodipodi-0.dtd"
   xmlns:inkscape="http://www.inkscape.org/namespaces/inkscape"
   version="1.1"
   id="katman_1"
   x="0px"
   y="0px"
   viewBox="0 0 75 75.003067"
   xml:space="preserve"
   sodipodi:docname="carrot.svg"
   width="75"
   height="75.003067"
   inkscape:version="1.0.1 (3bc2e813f5, 2020-09-07)"><metadata
   id="metadata1883"><rdf:RDF><cc:Work
       rdf:about=""><dc:format>image/svg+xml</dc:format><dc:type
         rdf:resource="http://purl.org/dc/dcmitype/StillImage" /><dc:title></dc:title></cc:Work></rdf:RDF></metadata><defs
   id="defs1881" /><sodipodi:namedview
   pagecolor="#ffffff"
   bordercolor="#666666"
   borderopacity="1"
   objecttolerance="10"
   gridtolerance="10"
   guidetolerance="10"
   inkscape:pageopacity="0"
   inkscape:pageshadow="2"
   inkscape:window-width="1718"
   inkscape:window-height="1368"
   id="namedview1879"
   showgrid="false"
   fit-margin-top="0"
   fit-margin-left="0"
   fit-margin-right="0"
   fit-margin-bottom="0"
   inkscape:zoom="2.216"
   inkscape:cx="37.200001"
   inkscape:cy="181.95293"
   inkscape:window-x="1713"
   inkscape:window-y="0"
   inkscape:window-maximized="0"
   inkscape:current-layer="g1876" />
<style
   type="text/css"
   id="style2">
	.st0{fill:#F40303;}
	.st1{fill:#4E9B04;}
	.st2{opacity:0.1;}
	.st3{opacity:0.15;fill:#FFFFFF;}
	.st4{fill:none;}
	.st5{fill:#DF0000;}
	.st6{fill:#41A500;}
	.st7{opacity:0.1;fill:#231F20;}
	.st8{fill:#84C100;}
	.st9{fill:#F86107;}
	.st10{opacity:0.07;}
	.st11{opacity:0.2;fill:#FFFFFF;}
	.st12{fill:#E55107;}
	.st13{fill:#E61206;}
	.st14{fill:#0D5C00;}
	.st15{fill:#27AB3B;}
	.st16{fill:#09913C;}
	.st17{fill:#E6012C;}
	.st18{fill:#680756;}
	.st19{fill:#74990D;}
	.st20{fill:#B22483;}
	.st21{fill:#43BC48;}
	.st22{fill:#2EAF2E;}
	.st23{fill:#8D1E60;}
	.st24{fill:#753D24;}
	.st25{fill:#348801;}
	.st26{fill:#2C7005;}
	.st27{fill:#63AB16;}
	.st28{fill:#8EBA24;}
	.st29{fill:#3B7524;}
	.st30{fill:#B4D459;}
	.st31{opacity:0.2;fill:#B4D459;}
	.st32{fill:#FEB544;}
	.st33{opacity:0.1;fill:#CE863A;}
	.st34{fill:#CE863A;}
	.st35{fill:#57BF44;}
	.st36{fill:#BBFF96;}
	.st37{fill:#DFFFAA;}
	.st38{fill:#39AA50;}
	.st39{fill:#5DD166;}
	.st40{fill:#8FDC50;}
	.st41{fill:#29602E;}
	.st42{fill:#8CD13D;}
	.st43{fill:#24892E;}
	.st44{fill:#15441A;}
	.st45{fill:#699E25;}
	.st46{fill:#4A8912;}
	.st47{fill:#FCD30B;}
	.st48{fill:#FFE36C;}
	.st49{fill:#FCD30B;stroke:#ED5100;stroke-width:0.0803;stroke-miterlimit:10;}
	.st50{fill:#FCD30B;stroke:#ED5100;stroke-width:0.0749;stroke-miterlimit:10;}
	.st51{fill:#FCD30B;stroke:#ED5100;stroke-width:0.0709;stroke-miterlimit:10;}
	.st52{fill:#FCD30B;stroke:#ED5100;stroke-width:0.0592;stroke-miterlimit:10;}
	.st53{fill:#FCD30B;stroke:#ED5100;stroke-width:0.0529;stroke-miterlimit:10;}
	.st54{fill:#FCD30B;stroke:#ED5100;stroke-width:0.0474;stroke-miterlimit:10;}
	.st55{fill:#FCD30B;stroke:#ED5100;stroke-width:0.0447;stroke-miterlimit:10;}
	.st56{fill:#FCD30B;stroke:#ED5100;stroke-width:0.0607;stroke-miterlimit:10;}
	.st57{fill:#FCD30B;stroke:#ED5100;stroke-width:0.0574;stroke-miterlimit:10;}
	.st58{fill:#FCD30B;stroke:#ED5100;stroke-width:0.0479;stroke-miterlimit:10;}
	.st59{fill:#FCD30B;stroke:#ED5100;stroke-width:0.0402;stroke-miterlimit:10;}
	.st60{fill:#FCD30B;stroke:#ED5100;stroke-width:0.0362;stroke-miterlimit:10;}
	.st61{fill:#FCD30B;stroke:#ED5100;stroke-width:0.033;stroke-miterlimit:10;}
	.st62{fill:#FCD30B;stroke:#ED5100;stroke-width:0.0788;stroke-miterlimit:10;}
	.st63{fill:#FCD30B;stroke:#ED5100;stroke-width:0.0766;stroke-miterlimit:10;}
	.st64{fill:#FCD30B;stroke:#ED5100;stroke-width:0.0793;stroke-miterlimit:10;}
	.st65{fill:#FCD30B;stroke:#ED5100;stroke-width:0.0791;stroke-miterlimit:10;}
	.st66{fill:#FCD30B;stroke:#ED5100;stroke-width:0.0796;stroke-miterlimit:10;}
	.st67{fill:#FCD30B;stroke:#ED5100;stroke-width:0.0635;stroke-miterlimit:10;}
	.st68{fill:#FCD30B;stroke:#ED5100;stroke-width:0.0533;stroke-miterlimit:10;}
	.st69{fill:#FCD30B;stroke:#ED5100;stroke-width:0.0498;stroke-miterlimit:10;}
	.st70{fill:#FCD30B;stroke:#ED5100;stroke-width:0.0329;stroke-miterlimit:10;}
	.st71{fill:#FCD30B;stroke:#ED5100;stroke-width:0.0389;stroke-miterlimit:10;}
	.st72{fill:#FCD30B;stroke:#ED5100;stroke-width:0.023;stroke-miterlimit:10;}
	.st73{fill:#FCD30B;stroke:#ED5100;stroke-width:0.0359;stroke-miterlimit:10;}
	.st74{fill:#FCD30B;stroke:#ED5100;stroke-width:0.0251;stroke-miterlimit:10;}
	.st75{fill:#FCD30B;stroke:#ED5100;stroke-width:0.0795;stroke-miterlimit:10;}
	.st76{fill:#FCD30B;stroke:#ED5100;stroke-width:0.0675;stroke-miterlimit:10;}
	.st77{fill:#FCD30B;stroke:#ED5100;stroke-width:0.0543;stroke-miterlimit:10;}
	.st78{fill:#FCD30B;stroke:#ED5100;stroke-width:0.0466;stroke-miterlimit:10;}
	.st79{fill:#FCD30B;stroke:#ED5100;stroke-width:0.0354;stroke-miterlimit:10;}
	.st80{fill:#489B0B;}
	.st81{fill:#72B236;}
	.st82{fill:#62A428;}
	.st83{fill:#528E2A;}
	.st84{fill:#92BC4C;}
	.st85{fill:#569B30;}
	.st86{fill:#E2C3A4;stroke:#A97D60;stroke-width:0.2737;stroke-miterlimit:10;}
	.st87{fill:#EFE3D3;stroke:#A97D60;stroke-width:0.3649;stroke-linecap:round;stroke-linejoin:round;stroke-miterlimit:10;}
	.st88{fill:#9D6B50;}
	.st89{fill:#E2C19E;}
	.st90{fill:#A16038;}
	.st91{fill:#DFC298;}
	.st92{fill:#EEE4BF;}
	.st93{fill:#D3B689;}
	.st94{fill:#689D34;}
	.st95{fill:#A5BC81;}
	.st96{fill:#DED6A8;}
	.st97{fill:#F4EDDA;}
	.st98{fill:#FF7900;stroke:#DB4900;stroke-width:0.5055;stroke-linecap:round;stroke-linejoin:round;stroke-miterlimit:10;}
	.st99{fill:none;stroke:#DB4900;stroke-width:0.5055;stroke-linecap:round;stroke-linejoin:round;stroke-miterlimit:10;}
	.st100{fill:#2E4819;}
	.st101{fill:#85BB19;}
	.st102{fill:#B2DC55;stroke:#A2C63C;stroke-width:0.2575;stroke-miterlimit:10;}
	.st103{fill:#86CE2C;}
	.st104{fill:#86CE2C;stroke:#72AA1A;stroke-width:0.1884;stroke-linecap:round;stroke-linejoin:round;stroke-miterlimit:10;}
	.st105{opacity:0.6;fill:#DDE68D;}
	.st106{opacity:0.6;}
	.st107{fill:#DDE68D;}
	.st108{fill:#86CE2C;stroke:#72AA1A;stroke-width:0.208;stroke-linecap:round;stroke-linejoin:round;stroke-miterlimit:10;}
</style>
<g
   id="g1876"
   transform="translate(-212.8,-18.04707)">
	
	
	<g
   id="g108">
		<g
   id="g104">
			<path
   class="st8"
   d="m 250.03,40.88 c 0,0 -0.72,0.04 -1.86,0.01 v 0 c -3.76,-0.1 -12.14,-1 -14.72,-6.83 -0.96,-2.17 0.34,-2.46 2.11,-2.11 2.08,0.41 4.8,1.72 5.19,1.91 -4.85,-2.38 -7.1,-11.18 -5.87,-13.18 1.3,-2.11 9.8,8.5 9.8,8.5 0,0 -1.72,-8.32 1.8,-10.85 3.52,-2.53 2.09,12.74 2.09,12.74 0,0 1.06,-4.26 4.44,-4.97 5.57,-1.17 -3.09,14.29 -2.98,14.78 z"
   id="path38" />
			<path
   class="st9"
   d="m 267.48,92.56 c 0,0.41 -0.48,0.64 -0.8,0.38 -5.9,-4.81 -6.93,-13.06 -9.88,-17.39 -2.99,-4.4 -7.47,-16.42 -7.7,-17.06 -0.01,-0.02 -0.01,-0.04 -0.02,-0.05 -4.34,-8.4 -4.22,-12.96 -2.93,-15.42 0,0 0,0 0,0 1.32,-2.51 3.85,-2.84 4.12,-2.87 0.02,0 0.03,-0.01 0.05,-0.01 5.49,-1.28 8.32,4.84 10.82,14.3 0.44,1.68 0.85,4.4 1.42,6.24 0.82,2.66 1.04,4.14 1.65,6.83 3.02,13.27 3.28,22.21 3.27,25.05 z"
   id="path40" />
			<path
   class="st10"
   d="m 267.48,92.56 c 0,0.41 -0.48,0.64 -0.8,0.38 -5.9,-4.81 -6.93,-13.06 -9.88,-17.39 -2.99,-4.4 -7.47,-16.42 -7.7,-17.06 -0.01,-0.02 -0.01,-0.04 -0.02,-0.05 -4.34,-8.4 -4.22,-12.96 -2.93,-15.42 0,0 0,0 0,0 0,0 9.06,29.47 21.33,49.54 z"
   id="path42" />
			<path
   class="st10"
   d="m 248.17,40.89 c -3.76,-0.1 -12.14,-1 -14.72,-6.83 -0.96,-2.17 0.34,-2.46 2.11,-2.11 0,0 6.61,8.62 12.61,8.94 z"
   id="path44" />
			
				<ellipse
   transform="matrix(0.9137,-0.4063,0.4063,0.9137,3.5568,107.8535)"
   class="st11"
   cx="255.77"
   cy="45.549999"
   rx="1.23"
   ry="2.8599999"
   id="ellipse46" />
			
				<ellipse
   transform="matrix(0.9137,-0.4063,0.4063,0.9137,1.882,109.0686)"
   class="st11"
   cx="257.79999"
   cy="50.099998"
   rx="0.69999999"
   ry="1.5700001"
   id="ellipse48" />
			<g
   id="g102">
				<g
   id="g52">
					<path
   class="st12"
   d="m 247.29,53.06 c 0.54,-1.03 1.41,-1.9 2.49,-2.43 0.54,-0.26 1.13,-0.41 1.72,-0.45 0.59,-0.06 1.19,0.05 1.74,0.22 -0.58,0.04 -1.14,0.03 -1.69,0.17 -0.54,0.12 -1.07,0.27 -1.56,0.52 -0.99,0.47 -1.85,1.18 -2.7,1.97 z"
   id="path50" />
				</g>
				<g
   id="g56">
					<path
   class="st12"
   d="m 252.88,66.08 c 0.54,-1.03 1.41,-1.9 2.49,-2.43 0.54,-0.26 1.13,-0.41 1.72,-0.45 0.59,-0.06 1.19,0.05 1.74,0.22 -0.58,0.04 -1.14,0.03 -1.69,0.17 -0.54,0.12 -1.07,0.27 -1.56,0.52 -1,0.47 -1.85,1.18 -2.7,1.97 z"
   id="path54" />
				</g>
				<g
   id="g60">
					<path
   class="st12"
   d="m 247.29,45.77 c 0.54,-1.03 1.41,-1.9 2.49,-2.43 0.54,-0.26 1.13,-0.41 1.72,-0.45 0.59,-0.06 1.19,0.05 1.74,0.22 -0.58,0.04 -1.14,0.03 -1.69,0.17 -0.54,0.12 -1.07,0.27 -1.56,0.52 -0.99,0.46 -1.85,1.18 -2.7,1.97 z"
   id="path58" />
				</g>
				<g
   id="g64">
					<path
   class="st12"
   d="m 255.38,60.91 c 0.54,-1.03 1.41,-1.9 2.49,-2.43 0.54,-0.26 1.13,-0.41 1.72,-0.45 0.59,-0.06 1.19,0.05 1.74,0.22 -0.58,0.04 -1.14,0.03 -1.69,0.17 -0.54,0.12 -1.07,0.27 -1.56,0.52 -0.99,0.47 -1.85,1.18 -2.7,1.97 z"
   id="path62" />
				</g>
				<g
   id="g68">
					<path
   class="st12"
   d="m 253.45,54.44 c 0.54,-1.03 1.41,-1.9 2.49,-2.43 0.54,-0.26 1.13,-0.41 1.72,-0.45 0.59,-0.06 1.19,0.05 1.74,0.22 -0.58,0.04 -1.14,0.03 -1.69,0.17 -0.54,0.12 -1.07,0.27 -1.56,0.52 -1,0.46 -1.85,1.18 -2.7,1.97 z"
   id="path66" />
				</g>
				<g
   id="g72">
					<path
   class="st12"
   d="m 250.84,47.96 c 0.54,-1.03 1.41,-1.9 2.49,-2.43 0.54,-0.26 1.13,-0.41 1.72,-0.45 0.59,-0.06 1.19,0.05 1.74,0.22 -0.58,0.04 -1.14,0.03 -1.69,0.17 -0.54,0.12 -1.07,0.27 -1.56,0.52 -0.99,0.46 -1.85,1.18 -2.7,1.97 z"
   id="path70" />
				</g>
				<g
   id="g76">
					<path
   class="st12"
   d="m 250.27,59.48 c 0.54,-1.03 1.41,-1.9 2.49,-2.43 0.54,-0.26 1.13,-0.41 1.72,-0.45 0.59,-0.06 1.19,0.05 1.74,0.22 -0.58,0.04 -1.14,0.03 -1.69,0.17 -0.54,0.12 -1.07,0.27 -1.56,0.52 -1,0.47 -1.85,1.18 -2.7,1.97 z"
   id="path74" />
				</g>
				<g
   id="g80">
					<path
   class="st12"
   d="m 256.95,68.13 c 0.54,-1.03 1.41,-1.9 2.49,-2.43 0.54,-0.26 1.13,-0.41 1.72,-0.45 0.59,-0.06 1.19,0.05 1.74,0.22 -0.58,0.04 -1.14,0.03 -1.69,0.17 -0.54,0.12 -1.07,0.27 -1.56,0.52 -0.99,0.46 -1.85,1.18 -2.7,1.97 z"
   id="path78" />
				</g>
				<g
   id="g84">
					<path
   class="st12"
   d="m 256.42,73.2 c 0.54,-1.03 1.41,-1.9 2.49,-2.43 0.54,-0.26 1.13,-0.41 1.72,-0.45 0.59,-0.06 1.19,0.05 1.74,0.22 -0.58,0.04 -1.14,0.03 -1.69,0.17 -0.54,0.12 -1.07,0.27 -1.56,0.52 -0.99,0.46 -1.85,1.18 -2.7,1.97 z"
   id="path82" />
				</g>
				<g
   id="g88">
					<path
   class="st12"
   d="m 259.89,80.41 c 0.42,-0.87 1.15,-1.62 2.05,-2.06 0.45,-0.22 0.95,-0.35 1.45,-0.37 0.5,-0.04 0.99,0.05 1.45,0.21 -0.49,0.05 -0.95,0.05 -1.4,0.17 -0.44,0.11 -0.88,0.23 -1.28,0.44 -0.82,0.39 -1.53,0.97 -2.27,1.61 z"
   id="path86" />
				</g>
				<g
   id="g92">
					<path
   class="st12"
   d="m 262.9,87.35 c 0.34,-0.67 0.96,-1.17 1.66,-1.48 0.36,-0.13 0.74,-0.22 1.12,-0.22 0.38,-0.01 0.76,0.06 1.1,0.2 -0.37,0.06 -0.72,0.08 -1.06,0.16 -0.34,0.07 -0.67,0.15 -0.98,0.3 -0.66,0.22 -1.22,0.62 -1.84,1.04 z"
   id="path90" />
				</g>
				<g
   id="g96">
					<path
   class="st12"
   d="m 259.32,75.47 c 0.54,-1.03 1.41,-1.9 2.49,-2.43 0.54,-0.26 1.13,-0.41 1.72,-0.45 0.59,-0.06 1.19,0.05 1.74,0.22 -0.58,0.04 -1.14,0.03 -1.69,0.17 -0.54,0.12 -1.07,0.27 -1.56,0.52 -1,0.47 -1.85,1.18 -2.7,1.97 z"
   id="path94" />
				</g>
				<g
   id="g100">
					<path
   class="st12"
   d="m 262.29,83.36 c 0.33,-0.76 0.95,-1.4 1.71,-1.77 0.77,-0.37 1.7,-0.42 2.46,-0.1 -0.41,0.06 -0.8,0.07 -1.18,0.17 -0.37,0.1 -0.73,0.2 -1.07,0.38 -0.68,0.32 -1.28,0.8 -1.92,1.32 z"
   id="path98" />
				</g>
			</g>
		</g>
		<rect
   x="212.8"
   y="18.049999"
   class="st4"
   width="75"
   height="75"
   id="rect106" />
	</g>
	
	
	
	
	
	
	
	
	
	
	
	
	
	
	
	
	
</g>
</svg>
