<?xml version="1.0" encoding="UTF-8" standalone="no"?>
<svg
   xmlns:dc="http://purl.org/dc/elements/1.1/"
   xmlns:cc="http://creativecommons.org/ns#"
   xmlns:rdf="http://www.w3.org/1999/02/22-rdf-syntax-ns#"
   xmlns:svg="http://www.w3.org/2000/svg"
   xmlns="http://www.w3.org/2000/svg"
   xmlns:sodipodi="http://sodipodi.sourceforge.net/DTD/sodipodi-0.dtd"
   xmlns:inkscape="http://www.inkscape.org/namespaces/inkscape"
   version="1.1"
   id="katman_1"
   x="0px"
   y="0px"
   viewBox="0 0 75.000693 75"
   xml:space="preserve"
   sodipodi:docname="cauliflower.svg"
   width="75.000694"
   height="75"
   inkscape:version="1.0.1 (3bc2e813f5, 2020-09-07)"><metadata
   id="metadata1883"><rdf:RDF><cc:Work
       rdf:about=""><dc:format>image/svg+xml</dc:format><dc:type
         rdf:resource="http://purl.org/dc/dcmitype/StillImage" /><dc:title></dc:title></cc:Work></rdf:RDF></metadata><defs
   id="defs1881" /><sodipodi:namedview
   pagecolor="#ffffff"
   bordercolor="#666666"
   borderopacity="1"
   objecttolerance="10"
   gridtolerance="10"
   guidetolerance="10"
   inkscape:pageopacity="0"
   inkscape:pageshadow="2"
   inkscape:window-width="1718"
   inkscape:window-height="1368"
   id="namedview1879"
   showgrid="false"
   fit-margin-top="0"
   fit-margin-left="0"
   fit-margin-right="0"
   fit-margin-bottom="0"
   inkscape:zoom="2.216"
   inkscape:cx="132.4707"
   inkscape:cy="-106.26999"
   inkscape:window-x="1713"
   inkscape:window-y="0"
   inkscape:window-maximized="0"
   inkscape:current-layer="g1876" />
<style
   type="text/css"
   id="style2">
	.st0{fill:#F40303;}
	.st1{fill:#4E9B04;}
	.st2{opacity:0.1;}
	.st3{opacity:0.15;fill:#FFFFFF;}
	.st4{fill:none;}
	.st5{fill:#DF0000;}
	.st6{fill:#41A500;}
	.st7{opacity:0.1;fill:#231F20;}
	.st8{fill:#84C100;}
	.st9{fill:#F86107;}
	.st10{opacity:0.07;}
	.st11{opacity:0.2;fill:#FFFFFF;}
	.st12{fill:#E55107;}
	.st13{fill:#E61206;}
	.st14{fill:#0D5C00;}
	.st15{fill:#27AB3B;}
	.st16{fill:#09913C;}
	.st17{fill:#E6012C;}
	.st18{fill:#680756;}
	.st19{fill:#74990D;}
	.st20{fill:#B22483;}
	.st21{fill:#43BC48;}
	.st22{fill:#2EAF2E;}
	.st23{fill:#8D1E60;}
	.st24{fill:#753D24;}
	.st25{fill:#348801;}
	.st26{fill:#2C7005;}
	.st27{fill:#63AB16;}
	.st28{fill:#8EBA24;}
	.st29{fill:#3B7524;}
	.st30{fill:#B4D459;}
	.st31{opacity:0.2;fill:#B4D459;}
	.st32{fill:#FEB544;}
	.st33{opacity:0.1;fill:#CE863A;}
	.st34{fill:#CE863A;}
	.st35{fill:#57BF44;}
	.st36{fill:#BBFF96;}
	.st37{fill:#DFFFAA;}
	.st38{fill:#39AA50;}
	.st39{fill:#5DD166;}
	.st40{fill:#8FDC50;}
	.st41{fill:#29602E;}
	.st42{fill:#8CD13D;}
	.st43{fill:#24892E;}
	.st44{fill:#15441A;}
	.st45{fill:#699E25;}
	.st46{fill:#4A8912;}
	.st47{fill:#FCD30B;}
	.st48{fill:#FFE36C;}
	.st49{fill:#FCD30B;stroke:#ED5100;stroke-width:0.0803;stroke-miterlimit:10;}
	.st50{fill:#FCD30B;stroke:#ED5100;stroke-width:0.0749;stroke-miterlimit:10;}
	.st51{fill:#FCD30B;stroke:#ED5100;stroke-width:0.0709;stroke-miterlimit:10;}
	.st52{fill:#FCD30B;stroke:#ED5100;stroke-width:0.0592;stroke-miterlimit:10;}
	.st53{fill:#FCD30B;stroke:#ED5100;stroke-width:0.0529;stroke-miterlimit:10;}
	.st54{fill:#FCD30B;stroke:#ED5100;stroke-width:0.0474;stroke-miterlimit:10;}
	.st55{fill:#FCD30B;stroke:#ED5100;stroke-width:0.0447;stroke-miterlimit:10;}
	.st56{fill:#FCD30B;stroke:#ED5100;stroke-width:0.0607;stroke-miterlimit:10;}
	.st57{fill:#FCD30B;stroke:#ED5100;stroke-width:0.0574;stroke-miterlimit:10;}
	.st58{fill:#FCD30B;stroke:#ED5100;stroke-width:0.0479;stroke-miterlimit:10;}
	.st59{fill:#FCD30B;stroke:#ED5100;stroke-width:0.0402;stroke-miterlimit:10;}
	.st60{fill:#FCD30B;stroke:#ED5100;stroke-width:0.0362;stroke-miterlimit:10;}
	.st61{fill:#FCD30B;stroke:#ED5100;stroke-width:0.033;stroke-miterlimit:10;}
	.st62{fill:#FCD30B;stroke:#ED5100;stroke-width:0.0788;stroke-miterlimit:10;}
	.st63{fill:#FCD30B;stroke:#ED5100;stroke-width:0.0766;stroke-miterlimit:10;}
	.st64{fill:#FCD30B;stroke:#ED5100;stroke-width:0.0793;stroke-miterlimit:10;}
	.st65{fill:#FCD30B;stroke:#ED5100;stroke-width:0.0791;stroke-miterlimit:10;}
	.st66{fill:#FCD30B;stroke:#ED5100;stroke-width:0.0796;stroke-miterlimit:10;}
	.st67{fill:#FCD30B;stroke:#ED5100;stroke-width:0.0635;stroke-miterlimit:10;}
	.st68{fill:#FCD30B;stroke:#ED5100;stroke-width:0.0533;stroke-miterlimit:10;}
	.st69{fill:#FCD30B;stroke:#ED5100;stroke-width:0.0498;stroke-miterlimit:10;}
	.st70{fill:#FCD30B;stroke:#ED5100;stroke-width:0.0329;stroke-miterlimit:10;}
	.st71{fill:#FCD30B;stroke:#ED5100;stroke-width:0.0389;stroke-miterlimit:10;}
	.st72{fill:#FCD30B;stroke:#ED5100;stroke-width:0.023;stroke-miterlimit:10;}
	.st73{fill:#FCD30B;stroke:#ED5100;stroke-width:0.0359;stroke-miterlimit:10;}
	.st74{fill:#FCD30B;stroke:#ED5100;stroke-width:0.0251;stroke-miterlimit:10;}
	.st75{fill:#FCD30B;stroke:#ED5100;stroke-width:0.0795;stroke-miterlimit:10;}
	.st76{fill:#FCD30B;stroke:#ED5100;stroke-width:0.0675;stroke-miterlimit:10;}
	.st77{fill:#FCD30B;stroke:#ED5100;stroke-width:0.0543;stroke-miterlimit:10;}
	.st78{fill:#FCD30B;stroke:#ED5100;stroke-width:0.0466;stroke-miterlimit:10;}
	.st79{fill:#FCD30B;stroke:#ED5100;stroke-width:0.0354;stroke-miterlimit:10;}
	.st80{fill:#489B0B;}
	.st81{fill:#72B236;}
	.st82{fill:#62A428;}
	.st83{fill:#528E2A;}
	.st84{fill:#92BC4C;}
	.st85{fill:#569B30;}
	.st86{fill:#E2C3A4;stroke:#A97D60;stroke-width:0.2737;stroke-miterlimit:10;}
	.st87{fill:#EFE3D3;stroke:#A97D60;stroke-width:0.3649;stroke-linecap:round;stroke-linejoin:round;stroke-miterlimit:10;}
	.st88{fill:#9D6B50;}
	.st89{fill:#E2C19E;}
	.st90{fill:#A16038;}
	.st91{fill:#DFC298;}
	.st92{fill:#EEE4BF;}
	.st93{fill:#D3B689;}
	.st94{fill:#689D34;}
	.st95{fill:#A5BC81;}
	.st96{fill:#DED6A8;}
	.st97{fill:#F4EDDA;}
	.st98{fill:#FF7900;stroke:#DB4900;stroke-width:0.5055;stroke-linecap:round;stroke-linejoin:round;stroke-miterlimit:10;}
	.st99{fill:none;stroke:#DB4900;stroke-width:0.5055;stroke-linecap:round;stroke-linejoin:round;stroke-miterlimit:10;}
	.st100{fill:#2E4819;}
	.st101{fill:#85BB19;}
	.st102{fill:#B2DC55;stroke:#A2C63C;stroke-width:0.2575;stroke-miterlimit:10;}
	.st103{fill:#86CE2C;}
	.st104{fill:#86CE2C;stroke:#72AA1A;stroke-width:0.1884;stroke-linecap:round;stroke-linejoin:round;stroke-miterlimit:10;}
	.st105{opacity:0.6;fill:#DDE68D;}
	.st106{opacity:0.6;}
	.st107{fill:#DDE68D;}
	.st108{fill:#86CE2C;stroke:#72AA1A;stroke-width:0.208;stroke-linecap:round;stroke-linejoin:round;stroke-miterlimit:10;}
</style>
<g
   id="g1876"
   transform="translate(-117.52931,-306.26999)">
	
	
	
	
	
	
	
	
	
	
	
	
	
	
	
	
	<g
   id="g1614">
		<g
   id="g1610">
			<g
   id="g1558">
				<path
   class="st94"
   d="m 188.23,335.14 c 0,0 6.43,-8.01 2.79,-18.75 0,0 0.54,-5.83 -2.79,-7.73 0,0 -2.84,-0.21 -5.58,0.98 0,0 -3.02,-0.42 -6.04,1.19 -3.02,1.62 -8.36,3.93 -8.64,5.2 -0.28,1.27 9.55,30.41 20.26,19.11 z"
   id="path1506" />
				<g
   id="g1530">
					<g
   id="g1528">
						<g
   id="g1510">
							<path
   class="st95"
   d="m 179.06,326.29 c 1.21,-2.51 2.55,-4.93 3.88,-7.37 l 2.05,-3.62 2.08,-3.61 c -0.52,1.29 -1.15,2.53 -1.78,3.77 -0.63,1.24 -1.31,2.45 -1.96,3.68 -1.37,2.4 -2.74,4.82 -4.27,7.15 z"
   id="path1508" />
						</g>
						<g
   id="g1514">
							<path
   class="st95"
   d="m 188.62,317.44 c -0.9,0.65 -1.89,1.12 -2.9,1.57 -1.02,0.4 -2.07,0.79 -3.18,0.88 l 3.01,-1.29 c 1.01,-0.39 2.01,-0.84 3.07,-1.16 z"
   id="path1512" />
						</g>
						<g
   id="g1518">
							<path
   class="st95"
   d="m 183.42,311.12 c 0.41,0.56 0.72,1.15 1.09,1.71 0.33,0.59 0.7,1.11 1.07,1.71 -0.63,-0.33 -1.07,-0.9 -1.45,-1.48 -0.33,-0.61 -0.63,-1.24 -0.71,-1.94 z"
   id="path1516" />
						</g>
						<g
   id="g1522">
							<path
   class="st95"
   d="m 181.31,312.83 c 0.12,1.58 0.11,3.16 0.13,4.73 -0.03,1.58 -0.02,3.15 -0.13,4.73 -0.26,-1.57 -0.29,-3.15 -0.31,-4.73 0.03,-1.58 0.07,-3.16 0.31,-4.73 z"
   id="path1520" />
						</g>
						<g
   id="g1526">
							<path
   class="st95"
   d="m 190.02,320.95 -2.35,1.1 c -0.79,0.36 -1.6,0.66 -2.4,0.98 -0.82,0.28 -1.64,0.56 -2.48,0.77 -0.84,0.21 -1.7,0.39 -2.56,0.44 0.84,-0.23 1.65,-0.49 2.47,-0.76 0.81,-0.27 1.63,-0.55 2.43,-0.86 l 2.43,-0.88 c 0.8,-0.28 1.61,-0.61 2.46,-0.79 z"
   id="path1524" />
						</g>
					</g>
				</g>
				<path
   class="st94"
   d="m 146.93,316.38 c 0,0 -2.95,-0.84 -3.69,-2.32 -0.74,-1.47 -5.69,-5.27 -14.12,-3.48 -8.43,1.79 -4.11,11.29 -4,11.7 0.11,0.41 2,2.94 1.16,5.79 -0.84,2.84 5.58,11.8 7.16,11.59 1.58,-0.21 13.49,-23.28 13.49,-23.28 z"
   id="path1532" />
				<g
   id="g1556">
					<g
   id="g1554">
						<g
   id="g1536">
							<path
   class="st95"
   d="m 124.81,316.17 c 0.6,0.18 1.22,0.27 1.84,0.4 l 1.84,0.42 c 1.22,0.3 2.42,0.69 3.61,1.12 1.17,0.46 2.33,0.98 3.41,1.65 1.07,0.67 2.09,1.47 2.8,2.52 -0.85,-0.93 -1.89,-1.63 -2.97,-2.23 -1.08,-0.6 -2.22,-1.11 -3.39,-1.53 -1.16,-0.46 -2.35,-0.84 -3.54,-1.21 -1.2,-0.38 -2.43,-0.65 -3.6,-1.14 z"
   id="path1534" />
						</g>
						<g
   id="g1540">
							<path
   class="st95"
   d="m 130.08,311.68 c 1,1.06 1.82,2.25 2.58,3.49 0.36,0.63 0.7,1.27 0.98,1.95 0.27,0.67 0.52,1.39 0.5,2.12 -0.16,-0.71 -0.47,-1.35 -0.8,-1.98 -0.34,-0.63 -0.67,-1.26 -1.06,-1.86 -0.71,-1.26 -1.5,-2.45 -2.2,-3.72 z"
   id="path1538" />
						</g>
						<g
   id="g1544">
							<path
   class="st95"
   d="m 126.18,319.89 c 0.64,-0.43 1.31,-0.75 1.96,-1.12 0.66,-0.34 1.28,-0.73 1.94,-1.12 -0.42,0.66 -1.08,1.11 -1.73,1.5 -0.69,0.34 -1.4,0.65 -2.17,0.74 z"
   id="path1542" />
						</g>
						<g
   id="g1548">
							<path
   class="st95"
   d="m 127.44,323.19 c 1.36,-0.63 2.76,-1.11 4.16,-1.62 l 4.22,-1.42 c -1.27,0.81 -2.69,1.31 -4.08,1.83 -1.41,0.47 -2.82,0.93 -4.3,1.21 z"
   id="path1546" />
						</g>
						<g
   id="g1552">
							<path
   class="st95"
   d="m 134.14,311.68 c 0.99,1.4 1.75,2.94 2.39,4.54 0.29,0.81 0.56,1.63 0.72,2.48 0.15,0.84 0.25,1.72 0.07,2.57 0,-0.86 -0.18,-1.68 -0.4,-2.49 -0.22,-0.81 -0.48,-1.61 -0.8,-2.4 -0.57,-1.6 -1.3,-3.13 -1.98,-4.7 z"
   id="path1550" />
						</g>
					</g>
				</g>
			</g>
			<g
   id="g1582">
				<path
   class="st94"
   d="m 127.23,354.1 c 0,0 -0.84,1.37 -3.9,0 -3.06,-1.37 -5.48,-2.32 -5.79,-0.74 -0.32,1.58 6.64,7.48 7.69,10.85 1.05,3.37 5.9,7.06 7.06,7.06 1.16,0 2.21,3.27 1.05,4.74 -1.16,1.47 11.69,4.85 14.85,1.37 3.16,-3.48 6.11,-1.79 11.38,-1.47 5.27,0.32 4.11,-1.9 0.84,-2.21 -3.26,-0.32 -33.18,-19.6 -33.18,-19.6 z"
   id="path1560" />
				<g
   id="g1564">
					<path
   class="st95"
   d="m 135.43,370.6 1.05,-0.88 c 0.34,-0.3 0.7,-0.57 1.02,-0.89 0.34,-0.29 0.66,-0.61 0.96,-0.93 0.3,-0.33 0.58,-0.67 0.78,-1.09 -0.03,0.47 -0.26,0.91 -0.52,1.3 -0.27,0.39 -0.6,0.72 -0.93,1.05 -0.71,0.59 -1.47,1.15 -2.36,1.44 z"
   id="path1562" />
				</g>
				<g
   id="g1568">
					<path
   class="st95"
   d="m 145.99,371.52 -8.41,-7.49 c -1.4,-1.26 -2.81,-2.49 -4.23,-3.71 -1.43,-1.21 -2.85,-2.44 -4.42,-3.48 1.66,0.89 3.15,2.06 4.63,3.22 1.47,1.17 2.89,2.41 4.31,3.64 1.39,1.26 2.79,2.52 4.14,3.82 1.35,1.3 2.7,2.61 3.98,4 z"
   id="path1566" />
				</g>
				<g
   id="g1572">
					<path
   class="st95"
   d="m 123.93,357.4 c 0.67,0.07 1.31,0.23 1.96,0.36 l 1.94,0.42 c 0.64,0.16 1.29,0.27 1.93,0.39 0.65,0.12 1.29,0.22 1.96,0.22 -0.65,0.17 -1.34,0.16 -2,0.11 -0.67,-0.05 -1.33,-0.17 -1.98,-0.3 -0.65,-0.16 -1.3,-0.32 -1.93,-0.52 -0.64,-0.2 -1.26,-0.44 -1.88,-0.68 z"
   id="path1570" />
				</g>
				<g
   id="g1576">
					<path
   class="st95"
   d="m 128.92,364.18 c 0.57,-0.17 1.14,-0.26 1.7,-0.41 0.56,-0.14 1.11,-0.29 1.65,-0.5 0.55,-0.17 1.07,-0.4 1.6,-0.64 0.53,-0.23 1.03,-0.51 1.56,-0.77 -0.84,0.83 -1.9,1.42 -3.02,1.82 -0.57,0.18 -1.14,0.34 -1.73,0.41 -0.58,0.09 -1.18,0.1 -1.76,0.09 z"
   id="path1574" />
				</g>
				<g
   id="g1580">
					<path
   class="st95"
   d="m 138.33,374.82 c 0.3,-0.61 0.76,-1.11 1.16,-1.65 0.41,-0.53 0.84,-1.03 1.22,-1.58 0.41,-0.52 0.77,-1.07 1.09,-1.64 0.31,-0.57 0.57,-1.18 0.57,-1.86 0.19,0.67 -0.01,1.38 -0.27,2.01 -0.28,0.63 -0.66,1.2 -1.05,1.75 -0.42,0.53 -0.85,1.05 -1.32,1.54 -0.44,0.49 -0.96,0.93 -1.4,1.43 z"
   id="path1578" />
				</g>
			</g>
			<path
   class="st96"
   d="m 191.07,347.67 c 0,0 3.69,-4 -1.05,-8.43 0,0 -0.5,-2.38 -1.69,-2.74 0,0 3.02,-6.15 -2.32,-10.22 0,0 0.07,-9.87 -10.75,-8.73 0,0 -1.12,1.07 -2.11,-0.96 -0.98,-2.04 -5.06,-4.92 -10.6,-2.81 0,0 -1.26,1.06 -2.67,-0.74 -1.41,-1.8 -10.43,-4.35 -14.4,4.6 0,0 -11.25,-1.54 -11.35,8.29 0,0 -0.71,3.51 -2.51,4.35 -1.8,0.84 -2.45,5.88 -0.08,7.44 0,0 -6.5,2.88 -6.29,7.94 0.21,5.06 2.39,11.52 8.22,11.73 0,0 2.11,6.25 7.73,6.25 0,0 0.77,13.91 10.96,8.71 0,0 9.62,4.99 14.82,-0.84 0,0.01 26.55,-14.11 24.09,-23.84 z"
   id="path1584" />
			<path
   class="st94"
   d="m 171.04,370.76 c 0,0 18.33,-5.92 21.49,-25.56 0,0 -7.85,10.9 -11.9,12.78 0,0 -1.79,2.21 -3.62,3.02 -1.83,0.81 -6.18,5.34 -6.92,8.18 -0.74,2.84 0.95,1.58 0.95,1.58 z"
   id="path1586" />
			<path
   class="st97"
   d="m 159.13,332.75 c 0,0 2.32,-1.55 3.02,0.42 0,0 3.3,-0.7 3.44,2.95 0,0 2.18,0 1.55,1.9 0,0 1.9,0.84 1.12,2.67 0,0 2.46,3.93 -1.69,4.28 0,0 -0.98,2.67 -3.44,1.76 0,0 -0.56,3.23 -3.51,2.11 0,0 -0.84,1.46 -3.09,0.24 0,0 -2.04,0.04 -1.83,-1.85 0,0 -2.88,0.35 -3.16,-1.05 0,0 -2.88,-0.84 -2.46,-3.37 0,0 -0.79,-1.47 -0.04,-2.53 0,0 -0.66,-3.09 1.24,-3.65 0,0 -0.21,-2.25 1.86,-1.65 0,0 0.9,-3.35 3.42,-2.09 0,-0.02 1.81,-1.64 3.57,-0.14 z"
   id="path1588" />
			<path
   class="st97"
   d="m 158.03,315.24 c 0,0 1.64,-1.09 2.13,0.3 0,0 2.33,-0.5 2.43,2.08 0,0 1.54,0 1.09,1.34 0,0 1.34,0.59 0.79,1.88 0,0 1.74,2.78 -1.19,3.02 0,0 -0.69,1.88 -2.43,1.24 0,0 -0.4,2.28 -2.48,1.49 0,0 -0.59,1.03 -2.18,0.17 0,0 -1.44,0.03 -1.29,-1.31 0,0 -2.03,0.25 -2.23,-0.74 0,0 -2.03,-0.59 -1.74,-2.38 0,0 -0.56,-1.04 -0.03,-1.78 0,0 -0.47,-2.18 0.87,-2.58 0,0 -0.15,-1.59 1.31,-1.16 0,0 0.63,-2.37 2.42,-1.47 0.01,-0.01 1.29,-1.15 2.53,-0.1 z"
   id="path1590" />
			<path
   class="st97"
   d="m 166.2,324.29 c 0,0 1.06,-0.7 1.38,0.19 0,0 1.5,-0.32 1.57,1.34 0,0 0.99,0 0.7,0.86 0,0 0.86,0.38 0.51,1.22 0,0 1.12,1.79 -0.77,1.95 0,0 -0.45,1.22 -1.57,0.8 0,0 -0.26,1.47 -1.6,0.96 0,0 -0.38,0.66 -1.41,0.11 0,0 -0.93,0.02 -0.83,-0.84 0,0 -1.31,0.16 -1.44,-0.48 0,0 -1.31,-0.38 -1.12,-1.54 0,0 -0.36,-0.67 -0.02,-1.15 0,0 -0.3,-1.41 0.56,-1.66 0,0 -0.1,-1.02 0.85,-0.75 0,0 0.41,-1.53 1.56,-0.95 0,0 0.83,-0.74 1.63,-0.06 z"
   id="path1592" />
			<path
   class="st97"
   d="m 170.79,317.8 c 0,0 0.9,-0.6 1.17,0.16 0,0 1.28,-0.27 1.34,1.15 0,0 0.85,0 0.6,0.74 0,0 0.74,0.33 0.44,1.04 0,0 0.96,1.53 -0.66,1.67 0,0 -0.38,1.04 -1.34,0.68 0,0 -0.22,1.26 -1.37,0.82 0,0 -0.33,0.57 -1.2,0.09 0,0 -0.79,0.02 -0.71,-0.72 0,0 -1.12,0.14 -1.23,-0.41 0,0 -1.12,-0.33 -0.96,-1.31 0,0 -0.31,-0.57 -0.02,-0.98 0,0 -0.26,-1.2 0.48,-1.42 0,0 -0.08,-0.87 0.72,-0.64 0,0 0.35,-1.3 1.33,-0.81 0.03,-0.01 0.73,-0.64 1.41,-0.06 z"
   id="path1594" />
			<path
   class="st97"
   d="m 180.86,351.92 c 0,0 1.44,1.76 -0.11,2.48 0,0 0.83,2.63 -2.13,3.02 0,0 0.17,1.77 -1.42,1.4 0,0 -0.54,1.61 -2.08,1.12 0,0 -3,2.3 -3.61,-1.03 0,0 -2.24,-0.59 -1.69,-2.66 0,0 -2.67,-0.2 -1.98,-2.69 0,0 -1.25,-0.57 -0.43,-2.49 0,0 -0.19,-1.65 1.36,-1.63 0,0 -0.51,-2.31 0.61,-2.65 0,0 0.46,-2.4 2.55,-2.26 0,0 1.14,-0.75 2.05,-0.23 0,0 2.46,-0.78 3.06,0.72 0,0 1.81,-0.35 1.49,1.38 0,0 2.79,0.47 1.96,2.62 -0.01,0.01 1.44,1.36 0.37,2.9 z"
   id="path1596" />
			<path
   class="st97"
   d="m 139.43,324.06 c 0,0 0.89,-2.41 2.48,-1.32 0,0 2.08,-2.31 4.16,0.33 0,0 1.62,-1.18 2.18,0.57 0,0 1.87,-0.4 2.28,1.38 0,0 3.96,1.6 1.07,4.1 0,0 0.71,2.52 -1.61,3.17 0,0 1.33,2.71 -1.47,3.47 0,0 0.16,1.54 -2.17,1.85 0,0 -1.49,1.14 -2.36,-0.39 0,0 -1.95,1.82 -2.92,0.93 0,0 -2.6,0.93 -3.66,-1.18 0,0 -1.38,-0.67 -1.4,-1.86 0,0 -2.17,-1.94 -1.06,-3.39 0,0 -1.37,-1.56 0.49,-2.24 0,0 -1.15,-2.98 1.42,-3.41 -0.02,0.01 0.45,-2.17 2.57,-2.01 z"
   id="path1598" />
			<path
   class="st97"
   d="m 181.94,345.41 c 0,0 -0.41,-1.18 0.52,-1.27 0,0 0.07,-1.52 1.67,-1.17 0,0 0.25,-0.95 1,-0.46 0,0 0.58,-0.73 1.29,-0.19 0,0 1.99,-0.63 1.67,1.22 0,0 1.05,0.73 0.38,1.7 0,0 1.34,0.61 0.52,1.77 0,0 0.54,0.53 -0.25,1.37 0,0 -0.21,0.89 -1.01,0.59 0,0 -0.17,1.29 -0.82,1.26 0,0 -0.69,1.16 -1.74,0.69 0,0 -0.73,0.18 -1.11,-0.27 0,0 -1.42,-0.06 -1.45,-0.95 0,0 -1,-0.16 -0.51,-1 0,0 -1.36,-0.77 -0.52,-1.73 0.01,0 -0.49,-0.97 0.36,-1.56 z"
   id="path1600" />
			<path
   class="st97"
   d="m 178.22,325.33 c 0,0 1.83,-1.69 2.39,0.46 0,0 2.61,-0.77 2.72,3.23 0,0 1.72,0 1.22,2.07 0,0 1.5,0.92 0.89,2.92 0,0 1.95,4.3 -1.33,4.69 0,0 -0.78,2.92 -2.72,1.92 0,0 -0.44,3.53 -2.78,2.3 0,0 -0.67,1.6 -2.45,0.26 0,0 -1.61,0.05 -1.45,-2.03 0,0 -2.28,0.38 -2.5,-1.15 0,0 -2.28,-0.92 -1.95,-3.69 0,0 -0.62,-1.61 -0.03,-2.77 0,0 -0.52,-3.38 0.98,-4 0,0 -0.17,-2.46 1.47,-1.81 0,0 0.71,-3.67 2.71,-2.29 0.01,0.02 1.44,-1.75 2.83,-0.11 z"
   id="path1602" />
			<path
   class="st97"
   d="m 145.06,343.55 c 0,0 2.51,-1.02 2.43,1.28 0,0 3.06,0.15 1.92,4.1 0,0 1.86,0.6 0.67,2.45 0,0 1.33,1.42 0.04,3.16 0,0 0.74,4.88 -2.91,4.12 0,0 -1.76,2.58 -3.54,0.93 0,0 -1.59,3.3 -3.72,1.29 0,0 -1.22,1.33 -2.72,-0.59 0,0 -1.75,-0.51 -0.92,-2.48 0,0 -2.58,-0.41 -2.33,-1.99 0,0 -2.17,-1.69 -0.94,-4.28 0,0 -0.16,-1.79 0.83,-2.72 0,0 0.5,-3.49 2.31,-3.57 0,0 0.59,-2.46 2.16,-1.25 0,0 1.92,-3.34 3.64,-1.29 0,0 2.1,-1.24 3.08,0.84 z"
   id="path1604" />
			<path
   class="st97"
   d="m 134.27,344.58 c 0,0 0.23,0.77 -0.37,0.79 0,0 -0.09,0.97 -1.1,0.69 0,0 -0.19,0.6 -0.65,0.26 0,0 -0.39,0.45 -0.83,0.08 0,0 -1.29,0.34 -1.03,-0.83 0,0 -0.65,-0.5 -0.19,-1.1 0,0 -0.84,-0.43 -0.28,-1.15 0,0 -0.33,-0.36 0.2,-0.87 0,0 0.16,-0.56 0.67,-0.34 0,0 0.15,-0.82 0.56,-0.78 0,0 0.48,-0.72 1.14,-0.39 0,0 0.47,-0.09 0.7,0.2 0,0 0.91,0.08 0.9,0.65 0,0 0.64,0.13 0.29,0.65 0,0 0.85,0.53 0.28,1.12 -0.02,0.03 0.27,0.66 -0.29,1.02 z"
   id="path1606" />
			<path
   class="st97"
   d="m 158.43,352.72 c 0,0 1.94,-1.96 3.01,-0.19 0,0 3.06,-1.34 3.92,2.18 0,0 2.11,-0.43 1.87,1.53 0,0 2.01,0.44 1.62,2.36 0,0 3.16,3.32 -0.78,4.49 0,0 -0.42,2.78 -2.99,2.38 0,0 0.1,3.24 -2.99,2.74 0,0 -0.53,1.58 -2.95,0.84 0,0 -1.97,0.45 -2.14,-1.43 0,0 -2.72,0.91 -3.27,-0.39 0,0 -2.96,-0.25 -3.05,-2.78 0,0 -1.05,-1.27 -0.54,-2.44 0,0 -1.25,-2.86 0.47,-3.79 0,0 -0.65,-2.14 1.48,-1.97 0,0 0.2,-3.43 2.9,-2.7 0.01,-0.01 1.44,-1.93 3.44,-0.83 z"
   id="path1608" />
		</g>
		<rect
   x="117.53"
   y="306.26999"
   class="st4"
   width="75"
   height="75"
   id="rect1612" />
	</g>
	
	
	
</g>
</svg>
