<?xml version="1.0" encoding="UTF-8" standalone="no"?>
<svg
   xmlns:dc="http://purl.org/dc/elements/1.1/"
   xmlns:cc="http://creativecommons.org/ns#"
   xmlns:rdf="http://www.w3.org/1999/02/22-rdf-syntax-ns#"
   xmlns:svg="http://www.w3.org/2000/svg"
   xmlns="http://www.w3.org/2000/svg"
   xmlns:sodipodi="http://sodipodi.sourceforge.net/DTD/sodipodi-0.dtd"
   xmlns:inkscape="http://www.inkscape.org/namespaces/inkscape"
   version="1.1"
   id="katman_1"
   x="0px"
   y="0px"
   viewBox="0 0 74.999999 75"
   xml:space="preserve"
   sodipodi:docname="corn.svg"
   width="75"
   height="75"
   inkscape:version="1.0.1 (3bc2e813f5, 2020-09-07)"><metadata
   id="metadata1883"><rdf:RDF><cc:Work
       rdf:about=""><dc:format>image/svg+xml</dc:format><dc:type
         rdf:resource="http://purl.org/dc/dcmitype/StillImage" /><dc:title></dc:title></cc:Work></rdf:RDF></metadata><defs
   id="defs1881" /><sodipodi:namedview
   pagecolor="#ffffff"
   bordercolor="#666666"
   borderopacity="1"
   objecttolerance="10"
   gridtolerance="10"
   guidetolerance="10"
   inkscape:pageopacity="0"
   inkscape:pageshadow="2"
   inkscape:window-width="1718"
   inkscape:window-height="1368"
   id="namedview1879"
   showgrid="false"
   fit-margin-top="0"
   fit-margin-left="0"
   fit-margin-right="0"
   fit-margin-bottom="0"
   inkscape:zoom="2.216"
   inkscape:cx="132.47"
   inkscape:cy="-10.200011"
   inkscape:window-x="1713"
   inkscape:window-y="0"
   inkscape:window-maximized="0"
   inkscape:current-layer="g1876" />
<style
   type="text/css"
   id="style2">
	.st0{fill:#F40303;}
	.st1{fill:#4E9B04;}
	.st2{opacity:0.1;}
	.st3{opacity:0.15;fill:#FFFFFF;}
	.st4{fill:none;}
	.st5{fill:#DF0000;}
	.st6{fill:#41A500;}
	.st7{opacity:0.1;fill:#231F20;}
	.st8{fill:#84C100;}
	.st9{fill:#F86107;}
	.st10{opacity:0.07;}
	.st11{opacity:0.2;fill:#FFFFFF;}
	.st12{fill:#E55107;}
	.st13{fill:#E61206;}
	.st14{fill:#0D5C00;}
	.st15{fill:#27AB3B;}
	.st16{fill:#09913C;}
	.st17{fill:#E6012C;}
	.st18{fill:#680756;}
	.st19{fill:#74990D;}
	.st20{fill:#B22483;}
	.st21{fill:#43BC48;}
	.st22{fill:#2EAF2E;}
	.st23{fill:#8D1E60;}
	.st24{fill:#753D24;}
	.st25{fill:#348801;}
	.st26{fill:#2C7005;}
	.st27{fill:#63AB16;}
	.st28{fill:#8EBA24;}
	.st29{fill:#3B7524;}
	.st30{fill:#B4D459;}
	.st31{opacity:0.2;fill:#B4D459;}
	.st32{fill:#FEB544;}
	.st33{opacity:0.1;fill:#CE863A;}
	.st34{fill:#CE863A;}
	.st35{fill:#57BF44;}
	.st36{fill:#BBFF96;}
	.st37{fill:#DFFFAA;}
	.st38{fill:#39AA50;}
	.st39{fill:#5DD166;}
	.st40{fill:#8FDC50;}
	.st41{fill:#29602E;}
	.st42{fill:#8CD13D;}
	.st43{fill:#24892E;}
	.st44{fill:#15441A;}
	.st45{fill:#699E25;}
	.st46{fill:#4A8912;}
	.st47{fill:#FCD30B;}
	.st48{fill:#FFE36C;}
	.st49{fill:#FCD30B;stroke:#ED5100;stroke-width:0.0803;stroke-miterlimit:10;}
	.st50{fill:#FCD30B;stroke:#ED5100;stroke-width:0.0749;stroke-miterlimit:10;}
	.st51{fill:#FCD30B;stroke:#ED5100;stroke-width:0.0709;stroke-miterlimit:10;}
	.st52{fill:#FCD30B;stroke:#ED5100;stroke-width:0.0592;stroke-miterlimit:10;}
	.st53{fill:#FCD30B;stroke:#ED5100;stroke-width:0.0529;stroke-miterlimit:10;}
	.st54{fill:#FCD30B;stroke:#ED5100;stroke-width:0.0474;stroke-miterlimit:10;}
	.st55{fill:#FCD30B;stroke:#ED5100;stroke-width:0.0447;stroke-miterlimit:10;}
	.st56{fill:#FCD30B;stroke:#ED5100;stroke-width:0.0607;stroke-miterlimit:10;}
	.st57{fill:#FCD30B;stroke:#ED5100;stroke-width:0.0574;stroke-miterlimit:10;}
	.st58{fill:#FCD30B;stroke:#ED5100;stroke-width:0.0479;stroke-miterlimit:10;}
	.st59{fill:#FCD30B;stroke:#ED5100;stroke-width:0.0402;stroke-miterlimit:10;}
	.st60{fill:#FCD30B;stroke:#ED5100;stroke-width:0.0362;stroke-miterlimit:10;}
	.st61{fill:#FCD30B;stroke:#ED5100;stroke-width:0.033;stroke-miterlimit:10;}
	.st62{fill:#FCD30B;stroke:#ED5100;stroke-width:0.0788;stroke-miterlimit:10;}
	.st63{fill:#FCD30B;stroke:#ED5100;stroke-width:0.0766;stroke-miterlimit:10;}
	.st64{fill:#FCD30B;stroke:#ED5100;stroke-width:0.0793;stroke-miterlimit:10;}
	.st65{fill:#FCD30B;stroke:#ED5100;stroke-width:0.0791;stroke-miterlimit:10;}
	.st66{fill:#FCD30B;stroke:#ED5100;stroke-width:0.0796;stroke-miterlimit:10;}
	.st67{fill:#FCD30B;stroke:#ED5100;stroke-width:0.0635;stroke-miterlimit:10;}
	.st68{fill:#FCD30B;stroke:#ED5100;stroke-width:0.0533;stroke-miterlimit:10;}
	.st69{fill:#FCD30B;stroke:#ED5100;stroke-width:0.0498;stroke-miterlimit:10;}
	.st70{fill:#FCD30B;stroke:#ED5100;stroke-width:0.0329;stroke-miterlimit:10;}
	.st71{fill:#FCD30B;stroke:#ED5100;stroke-width:0.0389;stroke-miterlimit:10;}
	.st72{fill:#FCD30B;stroke:#ED5100;stroke-width:0.023;stroke-miterlimit:10;}
	.st73{fill:#FCD30B;stroke:#ED5100;stroke-width:0.0359;stroke-miterlimit:10;}
	.st74{fill:#FCD30B;stroke:#ED5100;stroke-width:0.0251;stroke-miterlimit:10;}
	.st75{fill:#FCD30B;stroke:#ED5100;stroke-width:0.0795;stroke-miterlimit:10;}
	.st76{fill:#FCD30B;stroke:#ED5100;stroke-width:0.0675;stroke-miterlimit:10;}
	.st77{fill:#FCD30B;stroke:#ED5100;stroke-width:0.0543;stroke-miterlimit:10;}
	.st78{fill:#FCD30B;stroke:#ED5100;stroke-width:0.0466;stroke-miterlimit:10;}
	.st79{fill:#FCD30B;stroke:#ED5100;stroke-width:0.0354;stroke-miterlimit:10;}
	.st80{fill:#489B0B;}
	.st81{fill:#72B236;}
	.st82{fill:#62A428;}
	.st83{fill:#528E2A;}
	.st84{fill:#92BC4C;}
	.st85{fill:#569B30;}
	.st86{fill:#E2C3A4;stroke:#A97D60;stroke-width:0.2737;stroke-miterlimit:10;}
	.st87{fill:#EFE3D3;stroke:#A97D60;stroke-width:0.3649;stroke-linecap:round;stroke-linejoin:round;stroke-miterlimit:10;}
	.st88{fill:#9D6B50;}
	.st89{fill:#E2C19E;}
	.st90{fill:#A16038;}
	.st91{fill:#DFC298;}
	.st92{fill:#EEE4BF;}
	.st93{fill:#D3B689;}
	.st94{fill:#689D34;}
	.st95{fill:#A5BC81;}
	.st96{fill:#DED6A8;}
	.st97{fill:#F4EDDA;}
	.st98{fill:#FF7900;stroke:#DB4900;stroke-width:0.5055;stroke-linecap:round;stroke-linejoin:round;stroke-miterlimit:10;}
	.st99{fill:none;stroke:#DB4900;stroke-width:0.5055;stroke-linecap:round;stroke-linejoin:round;stroke-miterlimit:10;}
	.st100{fill:#2E4819;}
	.st101{fill:#85BB19;}
	.st102{fill:#B2DC55;stroke:#A2C63C;stroke-width:0.2575;stroke-miterlimit:10;}
	.st103{fill:#86CE2C;}
	.st104{fill:#86CE2C;stroke:#72AA1A;stroke-width:0.1884;stroke-linecap:round;stroke-linejoin:round;stroke-miterlimit:10;}
	.st105{opacity:0.6;fill:#DDE68D;}
	.st106{opacity:0.6;}
	.st107{fill:#DDE68D;}
	.st108{fill:#86CE2C;stroke:#72AA1A;stroke-width:0.208;stroke-linecap:round;stroke-linejoin:round;stroke-miterlimit:10;}
</style>
<g
   id="g1876"
   transform="translate(-117.53,-210.2)">
	
	
	
	
	
	
	
	
	
	
	
	
	<g
   id="g1334">
		<g
   id="g1330">
			<path
   class="st46"
   d="m 167.62,256.94 c 0,0 4.55,-17.14 1.08,-24.5 -3.46,-7.36 -2.38,-15.15 0.11,-17.32 0,0 -10.07,11.26 -7.9,19.05 2.16,7.79 6.71,22.77 6.71,22.77 z"
   id="path618" />
			<path
   class="st47"
   d="m 145.77,227.68 c 0.15,-0.31 2.48,-11.03 9.24,-11.03 6.76,0 10.76,9.5 11.22,12.48 0.46,2.99 3.68,28.05 2.98,31.49 -0.7,3.44 -5.88,20.79 -11.08,21.55 -5.2,0.75 -16.29,-14.05 -15.73,-18.91 0.56,-4.86 -0.6,-27.17 3.37,-35.58 z"
   id="path620" />
			<g
   id="g624">
				<path
   class="st48"
   d="m 165.3,239.26 v -0.59 c 0,-0.64 -0.41,-1.15 -0.92,-1.15 h -0.28 c 0.48,0 0.88,-0.49 0.88,-1.09 v -0.71 c 0,-0.6 -0.39,-1.09 -0.87,-1.09 h -0.07 c 0.2,-0.16 0.32,-0.44 0.33,-0.76 v -0.76 c 0,-0.5 -0.33,-0.91 -0.73,-0.91 h -0.01 c 0.15,-0.17 0.24,-0.41 0.24,-0.67 v -0.76 c 0,-0.5 -0.33,-0.91 -0.73,-0.91 h -0.32 c 0.11,-0.14 0.19,-0.33 0.19,-0.55 v -0.62 c 0,-0.35 -0.19,-0.65 -0.45,-0.74 0.14,-0.12 0.23,-0.33 0.23,-0.56 v -0.4 c 0,-0.38 -0.25,-0.69 -0.55,-0.69 h -0.73 c -0.05,0 -0.09,0.01 -0.14,0.02 l -0.04,-0.27 h 0.45 c 0.3,0 0.55,-0.31 0.55,-0.69 v -0.4 c 0,-0.33 -0.18,-0.6 -0.43,-0.67 0.09,-0.12 0.14,-0.28 0.14,-0.45 v -0.4 c 0,-0.33 -0.19,-0.61 -0.44,-0.67 0.07,-0.12 0.12,-0.26 0.12,-0.42 v -0.4 c 0,-0.38 -0.25,-0.69 -0.55,-0.69 h -0.73 c -0.3,0 -0.55,0.31 -0.55,0.69 v 0.4 c 0,0.33 0.19,0.61 0.44,0.67 -0.07,0.12 -0.12,0.26 -0.12,0.42 v 0.2 c -0.1,-0.37 -0.38,-0.63 -0.71,-0.63 h -0.01 c 0.24,-0.13 0.4,-0.43 0.4,-0.77 v -0.18 c 0,-0.47 -0.31,-0.85 -0.68,-0.85 h -1.02 c 0,-0.03 -0.01,-0.05 -0.01,-0.08 h 0.75 c 0.38,0 0.68,-0.38 0.68,-0.85 v -0.18 c 0,-0.47 -0.31,-0.85 -0.68,-0.85 h -1.29 c -0.29,0 -0.53,0.22 -0.63,0.54 -0.04,-0.01 -0.09,-0.01 -0.13,-0.02 0.03,-0.09 0.04,-0.19 0.04,-0.29 v -0.06 c 0,-0.16 -0.04,-0.32 -0.1,-0.45 0.09,0.1 0.2,0.17 0.33,0.18 l 0.91,0.04 c 0.28,0.01 0.51,-0.26 0.52,-0.6 l 0.01,-0.16 c 0.01,-0.35 -0.21,-0.64 -0.48,-0.65 l -0.91,-0.04 c -0.28,-0.01 -0.51,0.26 -0.52,0.6 l -0.01,0.16 c 0,0.11 0.02,0.22 0.06,0.32 -0.13,-0.17 -0.31,-0.28 -0.52,-0.28 h -0.26 c 0.26,0 0.47,-0.26 0.47,-0.58 v -0.04 c 0,-0.32 -0.21,-0.58 -0.47,-0.58 h -1.01 c -0.26,0 -0.47,0.26 -0.47,0.58 v 0.04 c 0,0.32 0.21,0.58 0.47,0.58 h -0.26 c -0.39,0 -0.71,0.4 -0.71,0.89 v 0 c -0.33,-0.04 -0.63,-0.07 -0.88,-0.1 -0.12,-0.21 -0.32,-0.35 -0.55,-0.35 h -1.29 c -0.38,0 -0.68,0.38 -0.68,0.85 v 0.18 c 0,0.47 0.31,0.85 0.68,0.85 h 0.39 l -0.03,0.08 h -0.65 c -0.31,0 -0.57,0.26 -0.65,0.61 h -0.04 c -0.05,-0.32 -0.27,-0.56 -0.54,-0.56 H 149 c -0.3,0 -0.55,0.31 -0.55,0.69 v 0.4 c 0,0.16 0.04,0.3 0.12,0.42 -0.25,0.07 -0.44,0.34 -0.44,0.67 v 0.4 c 0,0.17 0.05,0.33 0.14,0.45 -0.24,0.07 -0.43,0.34 -0.43,0.67 v 0.4 c 0,0.38 0.25,0.69 0.55,0.69 l -0.02,0.24 h -0.44 c -0.3,0 -0.55,0.31 -0.55,0.69 v 0.4 c 0,0.23 0.09,0.43 0.23,0.56 -0.26,0.09 -0.45,0.38 -0.45,0.74 v 0.62 c 0,0.21 0.07,0.41 0.19,0.55 h -0.32 c -0.4,0 -0.73,0.41 -0.73,0.91 v 0.76 c 0,0.27 0.09,0.51 0.24,0.67 h -0.01 c -0.4,0 -0.73,0.41 -0.73,0.91 v 0.76 c 0,0.32 0.13,0.59 0.33,0.76 h -0.07 c -0.48,0 -0.88,0.49 -0.87,1.09 v 0.71 c 0,0.6 0.39,1.09 0.88,1.09 h 0.62 -0.9 c -0.51,0 -0.92,0.52 -0.92,1.15 v 0.59 c 0,0.64 0.42,1.15 0.93,1.15 -0.51,0 -0.92,0.52 -0.92,1.15 v 0.59 c 0,0.64 0.42,1.15 0.93,1.15 h 1.32 c 0.05,0 0.1,-0.01 0.15,-0.02 l -0.01,0.18 c -0.04,-0.01 -0.09,-0.01 -0.14,-0.01 h -1.32 c -0.51,0 -0.92,0.52 -0.92,1.15 v 0.59 c 0,0.49 0.25,0.91 0.6,1.07 -0.35,0.17 -0.59,0.58 -0.59,1.08 v 0.59 c 0,0.64 0.42,1.15 0.93,1.15 -0.51,0 -0.92,0.52 -0.92,1.15 v 0.59 c 0,0.64 0.42,1.15 0.93,1.15 -0.51,0 -0.92,0.52 -0.92,1.15 v 0.59 c 0,0.64 0.42,1.15 0.93,1.15 -0.51,0 -0.92,0.52 -0.92,1.15 v 0.59 c 0,0.64 0.42,1.15 0.93,1.15 -0.51,0 -0.92,0.52 -0.92,1.15 v 0.59 c 0,0.64 0.42,1.15 0.93,1.15 h 0.97 v 0.15 h -0.98 c -0.51,0 -0.92,0.52 -0.92,1.15 v 0.59 c 0,0.49 0.25,0.91 0.6,1.07 -0.35,0.17 -0.59,0.58 -0.59,1.08 v 0.59 c 0,0.64 0.42,1.15 0.93,1.15 -0.51,0 -0.92,0.52 -0.92,1.15 v 0.59 c 0,0.64 0.42,1.15 0.93,1.15 -0.51,0 -0.92,0.52 -0.92,1.15 v 0.59 c 0,0.49 0.25,0.91 0.6,1.07 -0.35,0.17 -0.59,0.58 -0.59,1.08 v 0.59 c 0,0.64 0.42,1.15 0.93,1.15 -0.51,0 -0.92,0.52 -0.92,1.15 v 0.59 c 0,0.64 0.42,1.15 0.93,1.15 H 146 c -0.51,0 -0.92,0.52 -0.92,1.15 v 0.59 c 0,0.64 0.42,1.15 0.93,1.15 h 1.32 c 0.51,0 0.92,-0.52 0.92,-1.15 v -0.59 c 0,-0.64 -0.42,-1.15 -0.93,-1.15 h -0.08 c 0.51,0 0.92,-0.52 0.92,-1.15 v -0.33 h 0.37 c -0.28,0.26 -0.46,0.67 -0.46,1.14 v 0.2 c 0,0.79 0.51,1.42 1.14,1.42 h 2.3 c 0.63,0 1.14,-0.64 1.14,-1.42 v -0.2 c 0,-0.47 -0.18,-0.88 -0.46,-1.14 h 1.76 c -0.68,0 -1.22,0.68 -1.22,1.52 0,0.84 0.55,1.52 1.22,1.52 h 2.81 c 0.46,0 0.86,-0.32 1.07,-0.79 0.19,0.47 0.57,0.79 1.02,0.79 h 2.3 c 0.63,0 1.14,-0.64 1.14,-1.42 v -0.2 c 0,-0.79 -0.51,-1.42 -1.14,-1.42 h 0.12 c 0.63,0 1.14,-0.64 1.14,-1.42 v -0.13 c 0.17,0.26 0.43,0.42 0.71,0.42 -0.51,0 -0.93,0.51 -0.93,1.15 v 0.59 c 0,0.64 0.41,1.15 0.92,1.15 h 1.11 -1.19 c -0.51,0 -0.93,0.51 -0.93,1.15 v 0.59 c 0,0.64 0.41,1.15 0.92,1.15 h 1.32 c 0.51,0 0.93,-0.51 0.93,-1.15 v -0.59 c 0,-0.64 -0.41,-1.15 -0.92,-1.15 h 0.08 c 0.51,0 0.93,-0.51 0.93,-1.15 v -0.59 c 0,-0.64 -0.41,-1.15 -0.92,-1.15 0.51,0 0.93,-0.51 0.93,-1.15 v -0.59 c 0,-0.49 -0.25,-0.91 -0.59,-1.08 0.35,-0.17 0.6,-0.58 0.6,-1.07 v -0.59 c 0,-0.64 -0.41,-1.15 -0.92,-1.15 0.51,0 0.93,-0.51 0.93,-1.15 v -0.59 c 0,-0.64 -0.41,-1.15 -0.92,-1.15 0.51,0 0.93,-0.51 0.93,-1.15 v -0.59 c 0,-0.49 -0.25,-0.91 -0.59,-1.08 0.35,-0.17 0.6,-0.58 0.6,-1.07 v -0.59 c 0,-0.64 -0.41,-1.15 -0.92,-1.15 h -1.32 c -0.04,0 -0.08,0 -0.11,0.01 l 0.02,-0.17 c 0.03,0 0.06,0.01 0.09,0.01 h 1.32 c 0.51,0 0.93,-0.51 0.93,-1.15 v -0.59 c 0,-0.64 -0.41,-1.15 -0.92,-1.15 0.51,0 0.93,-0.51 0.93,-1.15 v -0.59 c 0,-0.64 -0.41,-1.15 -0.92,-1.15 0.51,0 0.93,-0.51 0.93,-1.15 v -0.59 c 0,-0.64 -0.41,-1.15 -0.92,-1.15 0.51,0 0.93,-0.51 0.93,-1.15 v -0.59 c 0,-0.64 -0.41,-1.15 -0.92,-1.15 0.51,0 0.93,-0.51 0.93,-1.15 v -0.59 c 0,-0.49 -0.25,-0.91 -0.59,-1.08 0.35,-0.17 0.6,-0.58 0.6,-1.07 v -0.59 c 0,-0.64 -0.41,-1.15 -0.92,-1.15 h -0.75 l -0.02,-0.15 h 0.77 c 0.51,0 0.93,-0.51 0.93,-1.15 v -0.59 c 0,-0.64 -0.41,-1.15 -0.92,-1.15 0.32,0 0.74,-0.51 0.74,-1.15 z m -2.66,-4.53 c -0.06,0.03 -0.11,0.07 -0.15,0.12 l -0.03,-0.24 c 0.05,0.06 0.11,0.1 0.18,0.12 z m -0.27,-2.3 h 0.01 c -0.08,0.08 -0.14,0.19 -0.18,0.31 l -0.05,-0.35 c 0.07,0.03 0.14,0.04 0.22,0.04 z m -0.47,-2.36 c -0.02,0.02 -0.03,0.03 -0.04,0.05 l -0.01,-0.05 z m -14.13,2.08 c 0.06,0 0.13,-0.01 0.19,-0.03 l -0.02,0.33 c -0.04,-0.11 -0.1,-0.21 -0.18,-0.3 z m 0.05,2.04 -0.03,0.53 c -0.08,-0.11 -0.17,-0.2 -0.28,-0.27 0.12,-0.05 0.23,-0.14 0.31,-0.26 z m -0.69,3.05 c 0.19,0 0.36,-0.07 0.5,-0.2 l -0.03,0.4 c -0.15,-0.13 -0.33,-0.2 -0.52,-0.2 z m -0.04,2.89 c 0.12,0 0.24,-0.03 0.35,-0.09 l -0.01,0.16 c -0.11,-0.04 -0.23,-0.07 -0.34,-0.07 z m 10.63,36.71 c -0.21,-0.47 -0.61,-0.79 -1.07,-0.79 h 2.09 c -0.45,0 -0.83,0.32 -1.02,0.79 z m 4.37,-3.65 v 0.42 c -0.16,-0.28 -0.4,-0.49 -0.68,-0.57 l 0.01,-0.07 c 0.46,-0.13 0.82,-0.62 0.87,-1.22 0.1,0.16 0.24,0.29 0.4,0.36 -0.35,0.17 -0.6,0.59 -0.6,1.08 z m 0.01,-2.74 v 0.11 c -0.09,-0.16 -0.2,-0.29 -0.33,-0.39 l 0.04,-0.3 c 0.27,-0.23 0.45,-0.59 0.49,-1.01 0.17,0.27 0.43,0.44 0.73,0.44 -0.52,0 -0.93,0.52 -0.93,1.15 z m 0,-2.89 v 0.12 c -0.01,-0.01 -0.02,-0.03 -0.02,-0.04 l 0.21,-1.7 c 0.17,0.28 0.44,0.47 0.74,0.47 -0.52,0 -0.93,0.52 -0.93,1.15 z m 0.6,-3.96 c -0.05,0.02 -0.09,0.05 -0.13,0.08 l 0.02,-0.15 c 0.03,0.03 0.07,0.05 0.11,0.07 z m 0.13,-26.1 c 0.06,0.01 0.12,0.02 0.18,0.02 h 0.05 c -0.08,0 -0.15,0.01 -0.22,0.03 z"
   id="path622" />
			</g>
			<g
   id="g630">
				<path
   class="st49"
   d="m 156.53,274.77 h -2.58 c -0.75,0 -1.36,-0.61 -1.36,-1.36 v -0.28 c 0,-0.75 0.61,-1.36 1.36,-1.36 h 2.58 c 0.75,0 1.36,0.61 1.36,1.36 v 0.28 c 0,0.76 -0.61,1.36 -1.36,1.36 z"
   id="path626" />
				<path
   class="st48"
   d="m 155.24,273.63 h -1.15 c -0.34,0 -0.61,-0.27 -0.61,-0.61 v -0.12 c 0,-0.34 0.27,-0.61 0.61,-0.61 h 1.15 c 0.34,0 0.61,0.27 0.61,0.61 v 0.12 c 0,0.34 -0.27,0.61 -0.61,0.61 z"
   id="path628" />
			</g>
			<g
   id="g636">
				<path
   class="st49"
   d="m 156.53,277.77 h -2.58 c -0.75,0 -1.36,-0.61 -1.36,-1.36 v -0.28 c 0,-0.75 0.61,-1.36 1.36,-1.36 h 2.58 c 0.75,0 1.36,0.61 1.36,1.36 v 0.28 c 0,0.75 -0.61,1.36 -1.36,1.36 z"
   id="path632" />
				<path
   class="st48"
   d="m 155.24,276.62 h -1.15 c -0.34,0 -0.61,-0.27 -0.61,-0.61 v -0.12 c 0,-0.34 0.27,-0.61 0.61,-0.61 h 1.15 c 0.34,0 0.61,0.27 0.61,0.61 v 0.12 c 0,0.34 -0.27,0.61 -0.61,0.61 z"
   id="path634" />
			</g>
			<g
   id="g642">
				<path
   class="st49"
   d="m 156.53,271.78 h -2.58 c -0.75,0 -1.36,-0.61 -1.36,-1.36 v -0.28 c 0,-0.75 0.61,-1.36 1.36,-1.36 h 2.58 c 0.75,0 1.36,0.61 1.36,1.36 v 0.28 c 0,0.75 -0.61,1.36 -1.36,1.36 z"
   id="path638" />
				<path
   class="st48"
   d="m 155.24,270.63 h -1.15 c -0.34,0 -0.61,-0.27 -0.61,-0.61 v -0.12 c 0,-0.34 0.27,-0.61 0.61,-0.61 h 1.15 c 0.34,0 0.61,0.27 0.61,0.61 v 0.12 c 0,0.34 -0.27,0.61 -0.61,0.61 z"
   id="path640" />
			</g>
			<g
   id="g648">
				<path
   class="st49"
   d="m 156.53,268.95 h -2.58 c -0.75,0 -1.36,-0.61 -1.36,-1.36 v -0.28 c 0,-0.75 0.61,-1.36 1.36,-1.36 h 2.58 c 0.75,0 1.36,0.61 1.36,1.36 v 0.28 c 0,0.75 -0.61,1.36 -1.36,1.36 z"
   id="path644" />
				<path
   class="st48"
   d="m 155.24,267.8 h -1.15 c -0.34,0 -0.61,-0.27 -0.61,-0.61 v -0.12 c 0,-0.34 0.27,-0.61 0.61,-0.61 h 1.15 c 0.34,0 0.61,0.27 0.61,0.61 v 0.12 c 0,0.34 -0.27,0.61 -0.61,0.61 z"
   id="path646" />
			</g>
			<g
   id="g654">
				<path
   class="st49"
   d="m 156.53,265.95 h -2.58 c -0.75,0 -1.36,-0.61 -1.36,-1.36 v -0.28 c 0,-0.75 0.61,-1.36 1.36,-1.36 h 2.58 c 0.75,0 1.36,0.61 1.36,1.36 v 0.28 c 0,0.76 -0.61,1.36 -1.36,1.36 z"
   id="path650" />
				<path
   class="st48"
   d="m 155.24,264.81 h -1.15 c -0.34,0 -0.61,-0.27 -0.61,-0.61 v -0.12 c 0,-0.34 0.27,-0.61 0.61,-0.61 h 1.15 c 0.34,0 0.61,0.27 0.61,0.61 v 0.12 c 0,0.34 -0.27,0.61 -0.61,0.61 z"
   id="path652" />
			</g>
			<g
   id="g660">
				<path
   class="st49"
   d="m 156.53,262.96 h -2.58 c -0.75,0 -1.36,-0.61 -1.36,-1.36 v -0.28 c 0,-0.75 0.61,-1.36 1.36,-1.36 h 2.58 c 0.75,0 1.36,0.61 1.36,1.36 v 0.28 c 0,0.75 -0.61,1.36 -1.36,1.36 z"
   id="path656" />
				<path
   class="st48"
   d="m 155.24,261.82 h -1.15 c -0.34,0 -0.61,-0.27 -0.61,-0.61 v -0.12 c 0,-0.34 0.27,-0.61 0.61,-0.61 h 1.15 c 0.34,0 0.61,0.27 0.61,0.61 v 0.12 c 0,0.33 -0.27,0.61 -0.61,0.61 z"
   id="path658" />
			</g>
			<g
   id="g666">
				<path
   class="st49"
   d="m 156.53,260.13 h -2.58 c -0.75,0 -1.36,-0.61 -1.36,-1.36 v -0.28 c 0,-0.75 0.61,-1.36 1.36,-1.36 h 2.58 c 0.75,0 1.36,0.61 1.36,1.36 v 0.28 c 0,0.75 -0.61,1.36 -1.36,1.36 z"
   id="path662" />
				<path
   class="st48"
   d="m 155.24,258.98 h -1.15 c -0.34,0 -0.61,-0.27 -0.61,-0.61 v -0.12 c 0,-0.34 0.27,-0.61 0.61,-0.61 h 1.15 c 0.34,0 0.61,0.27 0.61,0.61 v 0.12 c 0,0.34 -0.27,0.61 -0.61,0.61 z"
   id="path664" />
			</g>
			<g
   id="g672">
				<path
   class="st49"
   d="m 156.53,256.98 h -2.58 c -0.75,0 -1.36,-0.61 -1.36,-1.36 v -0.28 c 0,-0.75 0.61,-1.36 1.36,-1.36 h 2.58 c 0.75,0 1.36,0.61 1.36,1.36 v 0.28 c 0,0.75 -0.61,1.36 -1.36,1.36 z"
   id="path668" />
				<path
   class="st48"
   d="m 155.24,255.83 h -1.15 c -0.34,0 -0.61,-0.27 -0.61,-0.61 v -0.12 c 0,-0.34 0.27,-0.61 0.61,-0.61 h 1.15 c 0.34,0 0.61,0.27 0.61,0.61 v 0.12 c 0,0.34 -0.27,0.61 -0.61,0.61 z"
   id="path670" />
			</g>
			<g
   id="g678">
				<path
   class="st49"
   d="m 156.53,253.98 h -2.58 c -0.75,0 -1.36,-0.61 -1.36,-1.36 v -0.28 c 0,-0.75 0.61,-1.36 1.36,-1.36 h 2.58 c 0.75,0 1.36,0.61 1.36,1.36 v 0.28 c 0,0.76 -0.61,1.36 -1.36,1.36 z"
   id="path674" />
				<path
   class="st48"
   d="m 155.24,252.84 h -1.15 c -0.34,0 -0.61,-0.27 -0.61,-0.61 v -0.12 c 0,-0.34 0.27,-0.61 0.61,-0.61 h 1.15 c 0.34,0 0.61,0.27 0.61,0.61 v 0.12 c 0,0.34 -0.27,0.61 -0.61,0.61 z"
   id="path676" />
			</g>
			<g
   id="g684">
				<path
   class="st50"
   d="M 161.08,274.77 H 159 c -0.7,0 -1.27,-0.57 -1.27,-1.27 v -0.46 c 0,-0.7 0.57,-1.27 1.27,-1.27 h 2.08 c 0.7,0 1.27,0.57 1.27,1.27 v 0.46 c 0,0.71 -0.57,1.27 -1.27,1.27 z"
   id="path680" />
				<path
   class="st48"
   d="m 160,273.63 h -0.93 c -0.31,0 -0.57,-0.25 -0.57,-0.57 v -0.2 c 0,-0.31 0.25,-0.57 0.57,-0.57 H 160 c 0.31,0 0.57,0.25 0.57,0.57 v 0.2 c 0,0.31 -0.25,0.57 -0.57,0.57 z"
   id="path682" />
			</g>
			<g
   id="g690">
				<path
   class="st50"
   d="m 160.96,277.77 h -2.08 c -0.7,0 -1.27,-0.57 -1.27,-1.27 v -0.46 c 0,-0.7 0.57,-1.27 1.27,-1.27 h 2.08 c 0.7,0 1.27,0.57 1.27,1.27 v 0.46 c 0,0.7 -0.57,1.27 -1.27,1.27 z"
   id="path686" />
				<path
   class="st48"
   d="m 159.88,276.62 h -0.93 c -0.31,0 -0.57,-0.25 -0.57,-0.57 v -0.2 c 0,-0.31 0.25,-0.57 0.57,-0.57 h 0.93 c 0.31,0 0.57,0.25 0.57,0.57 v 0.2 c 0,0.32 -0.25,0.57 -0.57,0.57 z"
   id="path688" />
			</g>
			<g
   id="g696">
				<path
   class="st50"
   d="M 161.08,271.78 H 159 c -0.7,0 -1.27,-0.57 -1.27,-1.27 v -0.46 c 0,-0.7 0.57,-1.27 1.27,-1.27 h 2.08 c 0.7,0 1.27,0.57 1.27,1.27 v 0.46 c 0,0.7 -0.57,1.27 -1.27,1.27 z"
   id="path692" />
				<path
   class="st48"
   d="m 160,270.63 h -0.93 c -0.31,0 -0.57,-0.25 -0.57,-0.57 v -0.2 c 0,-0.31 0.25,-0.57 0.57,-0.57 H 160 c 0.31,0 0.57,0.25 0.57,0.57 v 0.2 c 0,0.32 -0.25,0.57 -0.57,0.57 z"
   id="path694" />
			</g>
			<g
   id="g702">
				<path
   class="st50"
   d="M 161.08,268.95 H 159 c -0.7,0 -1.27,-0.57 -1.27,-1.27 v -0.46 c 0,-0.7 0.57,-1.27 1.27,-1.27 h 2.08 c 0.7,0 1.27,0.57 1.27,1.27 v 0.46 c 0,0.7 -0.57,1.27 -1.27,1.27 z"
   id="path698" />
				<path
   class="st48"
   d="m 160,267.8 h -0.93 c -0.31,0 -0.57,-0.25 -0.57,-0.57 v -0.2 c 0,-0.31 0.25,-0.57 0.57,-0.57 H 160 c 0.31,0 0.57,0.25 0.57,0.57 v 0.2 c 0,0.32 -0.25,0.57 -0.57,0.57 z"
   id="path700" />
			</g>
			<g
   id="g708">
				<path
   class="st50"
   d="M 161.08,265.95 H 159 c -0.7,0 -1.27,-0.57 -1.27,-1.27 v -0.46 c 0,-0.7 0.57,-1.27 1.27,-1.27 h 2.08 c 0.7,0 1.27,0.57 1.27,1.27 v 0.46 c 0,0.71 -0.57,1.27 -1.27,1.27 z"
   id="path704" />
				<path
   class="st48"
   d="m 160,264.81 h -0.93 c -0.31,0 -0.57,-0.25 -0.57,-0.57 v -0.2 c 0,-0.31 0.25,-0.57 0.57,-0.57 H 160 c 0.31,0 0.57,0.25 0.57,0.57 v 0.2 c 0,0.32 -0.25,0.57 -0.57,0.57 z"
   id="path706" />
			</g>
			<g
   id="g714">
				<path
   class="st50"
   d="M 161.08,262.96 H 159 c -0.7,0 -1.27,-0.57 -1.27,-1.27 v -0.46 c 0,-0.7 0.57,-1.27 1.27,-1.27 h 2.08 c 0.7,0 1.27,0.57 1.27,1.27 v 0.46 c 0,0.7 -0.57,1.27 -1.27,1.27 z"
   id="path710" />
				<path
   class="st48"
   d="m 160,261.82 h -0.93 c -0.31,0 -0.57,-0.25 -0.57,-0.57 v -0.2 c 0,-0.31 0.25,-0.57 0.57,-0.57 H 160 c 0.31,0 0.57,0.25 0.57,0.57 v 0.2 c 0,0.31 -0.25,0.57 -0.57,0.57 z"
   id="path712" />
			</g>
			<g
   id="g720">
				<path
   class="st50"
   d="M 161.08,260.13 H 159 c -0.7,0 -1.27,-0.57 -1.27,-1.27 v -0.46 c 0,-0.7 0.57,-1.27 1.27,-1.27 h 2.08 c 0.7,0 1.27,0.57 1.27,1.27 v 0.46 c 0,0.7 -0.57,1.27 -1.27,1.27 z"
   id="path716" />
				<path
   class="st48"
   d="m 160,258.98 h -0.93 c -0.31,0 -0.57,-0.25 -0.57,-0.57 v -0.2 c 0,-0.31 0.25,-0.57 0.57,-0.57 H 160 c 0.31,0 0.57,0.25 0.57,0.57 v 0.2 c 0,0.32 -0.25,0.57 -0.57,0.57 z"
   id="path718" />
			</g>
			<g
   id="g726">
				<path
   class="st50"
   d="M 161.08,256.98 H 159 c -0.7,0 -1.27,-0.57 -1.27,-1.27 v -0.46 c 0,-0.7 0.57,-1.27 1.27,-1.27 h 2.08 c 0.7,0 1.27,0.57 1.27,1.27 v 0.46 c 0,0.7 -0.57,1.27 -1.27,1.27 z"
   id="path722" />
				<path
   class="st48"
   d="m 160,255.83 h -0.93 c -0.31,0 -0.57,-0.25 -0.57,-0.57 v -0.2 c 0,-0.31 0.25,-0.57 0.57,-0.57 H 160 c 0.31,0 0.57,0.25 0.57,0.57 v 0.2 c 0,0.32 -0.25,0.57 -0.57,0.57 z"
   id="path724" />
			</g>
			<g
   id="g732">
				<path
   class="st50"
   d="M 161.08,253.98 H 159 c -0.7,0 -1.27,-0.57 -1.27,-1.27 v -0.46 c 0,-0.7 0.57,-1.27 1.27,-1.27 h 2.08 c 0.7,0 1.27,0.57 1.27,1.27 v 0.46 c 0,0.71 -0.57,1.27 -1.27,1.27 z"
   id="path728" />
				<path
   class="st48"
   d="m 160,252.84 h -0.93 c -0.31,0 -0.57,-0.25 -0.57,-0.57 v -0.2 c 0,-0.31 0.25,-0.57 0.57,-0.57 H 160 c 0.31,0 0.57,0.25 0.57,0.57 v 0.2 c 0,0.31 -0.25,0.57 -0.57,0.57 z"
   id="path730" />
			</g>
			<g
   id="g738">
				<path
   class="st50"
   d="M 161.08,250.99 H 159 c -0.7,0 -1.27,-0.57 -1.27,-1.27 v -0.46 c 0,-0.7 0.57,-1.27 1.27,-1.27 h 2.08 c 0.7,0 1.27,0.57 1.27,1.27 v 0.46 c 0,0.7 -0.57,1.27 -1.27,1.27 z"
   id="path734" />
				<path
   class="st48"
   d="m 160,249.85 h -0.93 c -0.31,0 -0.57,-0.25 -0.57,-0.57 v -0.2 c 0,-0.31 0.25,-0.57 0.57,-0.57 H 160 c 0.31,0 0.57,0.25 0.57,0.57 v 0.2 c 0,0.31 -0.25,0.57 -0.57,0.57 z"
   id="path736" />
			</g>
			<g
   id="g744">
				<path
   class="st50"
   d="M 161.08,248 H 159 c -0.7,0 -1.27,-0.57 -1.27,-1.27 v -0.46 c 0,-0.7 0.57,-1.27 1.27,-1.27 h 2.08 c 0.7,0 1.27,0.57 1.27,1.27 v 0.46 c 0,0.7 -0.57,1.27 -1.27,1.27 z"
   id="path740" />
				<path
   class="st48"
   d="m 160,246.85 h -0.93 c -0.31,0 -0.57,-0.25 -0.57,-0.57 v -0.2 c 0,-0.31 0.25,-0.57 0.57,-0.57 H 160 c 0.31,0 0.57,0.25 0.57,0.57 v 0.2 c 0,0.32 -0.25,0.57 -0.57,0.57 z"
   id="path742" />
			</g>
			<g
   id="g750">
				<path
   class="st50"
   d="M 161.08,245.01 H 159 c -0.7,0 -1.27,-0.57 -1.27,-1.27 v -0.46 c 0,-0.7 0.57,-1.27 1.27,-1.27 h 2.08 c 0.7,0 1.27,0.57 1.27,1.27 v 0.46 c 0,0.7 -0.57,1.27 -1.27,1.27 z"
   id="path746" />
				<path
   class="st48"
   d="m 160,243.86 h -0.93 c -0.31,0 -0.57,-0.25 -0.57,-0.57 v -0.2 c 0,-0.31 0.25,-0.57 0.57,-0.57 H 160 c 0.31,0 0.57,0.25 0.57,0.57 v 0.2 c 0,0.32 -0.25,0.57 -0.57,0.57 z"
   id="path748" />
			</g>
			<g
   id="g756">
				<path
   class="st50"
   d="M 161.08,242.17 H 159 c -0.7,0 -1.27,-0.57 -1.27,-1.27 v -0.46 c 0,-0.7 0.57,-1.27 1.27,-1.27 h 2.08 c 0.7,0 1.27,0.57 1.27,1.27 v 0.46 c 0,0.71 -0.57,1.27 -1.27,1.27 z"
   id="path752" />
				<path
   class="st48"
   d="m 160,241.03 h -0.93 c -0.31,0 -0.57,-0.25 -0.57,-0.57 v -0.2 c 0,-0.31 0.25,-0.57 0.57,-0.57 H 160 c 0.31,0 0.57,0.25 0.57,0.57 v 0.2 c 0,0.31 -0.25,0.57 -0.57,0.57 z"
   id="path754" />
			</g>
			<g
   id="g762">
				<path
   class="st50"
   d="M 161.08,239.02 H 159 c -0.7,0 -1.27,-0.57 -1.27,-1.27 v -0.46 c 0,-0.7 0.57,-1.27 1.27,-1.27 h 2.08 c 0.7,0 1.27,0.57 1.27,1.27 v 0.46 c 0,0.7 -0.57,1.27 -1.27,1.27 z"
   id="path758" />
				<path
   class="st48"
   d="m 160,237.88 h -0.93 c -0.31,0 -0.57,-0.25 -0.57,-0.57 v -0.2 c 0,-0.31 0.25,-0.57 0.57,-0.57 H 160 c 0.31,0 0.57,0.25 0.57,0.57 v 0.2 c 0,0.31 -0.25,0.57 -0.57,0.57 z"
   id="path760" />
			</g>
			<g
   id="g768">
				<path
   class="st50"
   d="M 161.08,236.03 H 159 c -0.7,0 -1.27,-0.57 -1.27,-1.27 v -0.46 c 0,-0.7 0.57,-1.27 1.27,-1.27 h 2.08 c 0.7,0 1.27,0.57 1.27,1.27 v 0.46 c 0,0.7 -0.57,1.27 -1.27,1.27 z"
   id="path764" />
				<path
   class="st48"
   d="m 160,234.88 h -0.93 c -0.31,0 -0.57,-0.25 -0.57,-0.57 v -0.2 c 0,-0.31 0.25,-0.57 0.57,-0.57 H 160 c 0.31,0 0.57,0.25 0.57,0.57 v 0.2 c 0,0.32 -0.25,0.57 -0.57,0.57 z"
   id="path766" />
			</g>
			<g
   id="g774">
				<path
   class="st51"
   d="m 160.67,233.04 h -1.74 c -0.66,0 -1.2,-0.54 -1.2,-1.2 v -0.59 c 0,-0.66 0.54,-1.2 1.2,-1.2 h 1.74 c 0.66,0 1.2,0.54 1.2,1.2 v 0.59 c 0,0.66 -0.54,1.2 -1.2,1.2 z"
   id="path770" />
				<path
   class="st48"
   d="m 159.74,231.89 h -0.78 c -0.3,0 -0.54,-0.24 -0.54,-0.54 v -0.26 c 0,-0.3 0.24,-0.54 0.54,-0.54 h 0.78 c 0.3,0 0.54,0.24 0.54,0.54 v 0.26 c -0.01,0.3 -0.25,0.54 -0.54,0.54 z"
   id="path772" />
			</g>
			<g
   id="g780">
				<path
   class="st52"
   d="m 160.12,230.2 h -1.22 c -0.55,0 -1,-0.45 -1,-1 v -0.67 c 0,-0.55 0.45,-1 1,-1 h 1.22 c 0.55,0 1,0.45 1,1 v 0.67 c 0,0.55 -0.45,1 -1,1 z"
   id="path776" />
				<path
   class="st48"
   d="m 159.43,229.18 h -0.55 c -0.25,0 -0.45,-0.2 -0.45,-0.45 v -0.3 c 0,-0.25 0.2,-0.45 0.45,-0.45 h 0.55 c 0.25,0 0.45,0.2 0.45,0.45 v 0.3 c -0.01,0.25 -0.21,0.45 -0.45,0.45 z"
   id="path778" />
			</g>
			<g
   id="g786">
				<path
   class="st52"
   d="m 160.15,227.53 h -1.22 c -0.55,0 -1,-0.45 -1,-1 v -0.67 c 0,-0.55 0.45,-1 1,-1 h 1.22 c 0.55,0 1,0.45 1,1 v 0.67 c 0,0.55 -0.45,1 -1,1 z"
   id="path782" />
				<path
   class="st48"
   d="m 159.46,226.5 h -0.55 c -0.25,0 -0.45,-0.2 -0.45,-0.45 v -0.3 c 0,-0.25 0.2,-0.45 0.45,-0.45 h 0.55 c 0.25,0 0.45,0.2 0.45,0.45 v 0.3 c 0,0.25 -0.2,0.45 -0.45,0.45 z"
   id="path784" />
			</g>
			<g
   id="g792">
				<path
   class="st53"
   d="m 159.38,224.93 h -1.31 c -0.49,0 -0.9,-0.4 -0.9,-0.9 v -0.43 c 0,-0.49 0.4,-0.9 0.9,-0.9 h 1.31 c 0.49,0 0.9,0.4 0.9,0.9 v 0.43 c -0.01,0.5 -0.41,0.9 -0.9,0.9 z"
   id="path788" />
				<path
   class="st48"
   d="m 158.68,224.08 h -0.59 c -0.22,0 -0.4,-0.18 -0.4,-0.4 v -0.19 c 0,-0.22 0.18,-0.4 0.4,-0.4 h 0.59 c 0.22,0 0.4,0.18 0.4,0.4 v 0.19 c 0,0.22 -0.18,0.4 -0.4,0.4 z"
   id="path790" />
			</g>
			<g
   id="g798">
				<path
   class="st54"
   d="m 159.11,222.78 h -1.4 c -0.44,0 -0.8,-0.36 -0.8,-0.8 v -0.24 c 0,-0.44 0.36,-0.8 0.8,-0.8 h 1.4 c 0.44,0 0.8,0.36 0.8,0.8 v 0.24 c 0,0.44 -0.36,0.8 -0.8,0.8 z"
   id="path794" />
				<path
   class="st48"
   d="m 158.39,222.08 h -0.62 c -0.2,0 -0.36,-0.16 -0.36,-0.36 v -0.11 c 0,-0.2 0.16,-0.36 0.36,-0.36 h 0.62 c 0.2,0 0.36,0.16 0.36,0.36 v 0.11 c 0,0.2 -0.16,0.36 -0.36,0.36 z"
   id="path796" />
			</g>
			<g
   id="g804">
				<path
   class="st55"
   d="m 158.86,220.86 h -1.16 c -0.42,0 -0.76,-0.34 -0.76,-0.76 v -0.33 c 0,-0.42 0.34,-0.76 0.76,-0.76 h 1.16 c 0.42,0 0.76,0.34 0.76,0.76 v 0.33 c 0,0.42 -0.34,0.76 -0.76,0.76 z"
   id="path800" />
				<path
   class="st48"
   d="m 158.25,220.16 h -0.52 c -0.19,0 -0.34,-0.15 -0.34,-0.34 v -0.15 c 0,-0.19 0.15,-0.34 0.34,-0.34 h 0.52 c 0.19,0 0.34,0.15 0.34,0.34 v 0.15 c 0,0.19 -0.15,0.34 -0.34,0.34 z"
   id="path802" />
			</g>
			<g
   id="g810">
				<path
   class="st56"
   d="m 164.3,276.51 h -1.14 c -0.57,0 -1.03,-0.46 -1.02,-1.03 v -0.78 c 0,-0.57 0.46,-1.03 1.03,-1.03 h 1.14 c 0.57,0 1.03,0.46 1.02,1.03 v 0.78 c 0,0.57 -0.46,1.03 -1.03,1.03 z"
   id="path806" />
				<path
   class="st48"
   d="m 163.64,275.42 h -0.51 c -0.25,0 -0.46,-0.21 -0.46,-0.46 v -0.35 c 0,-0.25 0.21,-0.46 0.46,-0.46 h 0.51 c 0.25,0 0.46,0.21 0.46,0.46 v 0.35 c 0,0.25 -0.21,0.46 -0.46,0.46 z"
   id="path808" />
			</g>
			<g
   id="g816">
				<path
   class="st56"
   d="m 164.22,279.34 h -1.14 c -0.57,0 -1.03,-0.46 -1.02,-1.03 v -0.78 c 0,-0.57 0.46,-1.03 1.03,-1.03 h 1.14 c 0.57,0 1.03,0.46 1.02,1.03 v 0.78 c -0.01,0.57 -0.47,1.03 -1.03,1.03 z"
   id="path812" />
				<path
   class="st48"
   d="m 163.55,278.25 h -0.51 c -0.25,0 -0.46,-0.21 -0.46,-0.46 v -0.35 c 0,-0.25 0.21,-0.46 0.46,-0.46 h 0.51 c 0.25,0 0.46,0.21 0.46,0.46 v 0.35 c 0,0.26 -0.2,0.46 -0.46,0.46 z"
   id="path814" />
			</g>
			<g
   id="g822">
				<path
   class="st56"
   d="m 164.3,273.67 h -1.14 c -0.57,0 -1.03,-0.46 -1.02,-1.03 v -0.78 c 0,-0.57 0.46,-1.03 1.03,-1.03 h 1.14 c 0.57,0 1.03,0.46 1.02,1.03 v 0.78 c 0,0.57 -0.46,1.03 -1.03,1.03 z"
   id="path818" />
				<path
   class="st48"
   d="m 163.64,272.58 h -0.51 c -0.25,0 -0.46,-0.21 -0.46,-0.46 v -0.35 c 0,-0.25 0.21,-0.46 0.46,-0.46 h 0.51 c 0.25,0 0.46,0.21 0.46,0.46 v 0.35 c 0,0.26 -0.2,0.46 -0.46,0.46 z"
   id="path820" />
			</g>
			<g
   id="g828">
				<path
   class="st56"
   d="m 164.31,270.98 h -1.14 c -0.57,0 -1.03,-0.46 -1.02,-1.03 v -0.78 c 0,-0.57 0.46,-1.03 1.03,-1.03 h 1.14 c 0.57,0 1.03,0.46 1.02,1.03 v 0.78 c 0,0.58 -0.46,1.03 -1.03,1.03 z"
   id="path824" />
				<path
   class="st48"
   d="m 163.65,269.9 h -0.51 c -0.25,0 -0.46,-0.21 -0.46,-0.46 v -0.35 c 0,-0.25 0.21,-0.46 0.46,-0.46 h 0.51 c 0.25,0 0.46,0.21 0.46,0.46 v 0.35 c 0,0.25 -0.21,0.46 -0.46,0.46 z"
   id="path826" />
			</g>
			<g
   id="g834">
				<path
   class="st56"
   d="m 164.31,268.15 h -1.14 c -0.57,0 -1.03,-0.46 -1.02,-1.03 v -0.78 c 0,-0.57 0.46,-1.03 1.03,-1.03 h 1.14 c 0.57,0 1.03,0.46 1.02,1.03 v 0.78 c 0,0.57 -0.46,1.03 -1.03,1.03 z"
   id="path830" />
				<path
   class="st48"
   d="m 163.65,267.06 h -0.51 c -0.25,0 -0.46,-0.21 -0.46,-0.46 v -0.35 c 0,-0.25 0.21,-0.46 0.46,-0.46 h 0.51 c 0.25,0 0.46,0.21 0.46,0.46 v 0.35 c 0,0.26 -0.21,0.46 -0.46,0.46 z"
   id="path832" />
			</g>
			<g
   id="g840">
				<path
   class="st56"
   d="m 164.31,265.31 h -1.14 c -0.57,0 -1.03,-0.46 -1.02,-1.03 v -0.78 c 0,-0.57 0.46,-1.03 1.03,-1.03 h 1.14 c 0.57,0 1.03,0.46 1.02,1.03 v 0.78 c 0,0.57 -0.46,1.03 -1.03,1.03 z"
   id="path836" />
				<path
   class="st48"
   d="m 163.65,264.22 h -0.51 c -0.25,0 -0.46,-0.21 -0.46,-0.46 v -0.35 c 0,-0.25 0.21,-0.46 0.46,-0.46 h 0.51 c 0.25,0 0.46,0.21 0.46,0.46 v 0.35 c 0,0.26 -0.2,0.46 -0.46,0.46 z"
   id="path838" />
			</g>
			<g
   id="g846">
				<path
   class="st56"
   d="m 164.32,262.63 h -1.14 c -0.57,0 -1.03,-0.46 -1.02,-1.03 v -0.78 c 0,-0.57 0.46,-1.03 1.03,-1.03 h 1.14 c 0.57,0 1.03,0.46 1.02,1.03 v 0.78 c -0.01,0.57 -0.47,1.03 -1.03,1.03 z"
   id="path842" />
				<path
   class="st48"
   d="m 163.66,261.54 h -0.51 c -0.25,0 -0.46,-0.21 -0.46,-0.46 v -0.35 c 0,-0.25 0.21,-0.46 0.46,-0.46 h 0.51 c 0.25,0 0.46,0.21 0.46,0.46 v 0.35 c -0.01,0.25 -0.21,0.46 -0.46,0.46 z"
   id="path844" />
			</g>
			<g
   id="g852">
				<path
   class="st56"
   d="m 164.32,259.64 h -1.14 c -0.57,0 -1.03,-0.46 -1.02,-1.03 v -0.78 c 0,-0.57 0.46,-1.03 1.03,-1.03 h 1.14 c 0.57,0 1.03,0.46 1.02,1.03 v 0.78 c 0,0.57 -0.46,1.03 -1.03,1.03 z"
   id="path848" />
				<path
   class="st48"
   d="m 163.66,258.55 h -0.51 c -0.25,0 -0.46,-0.21 -0.46,-0.46 v -0.35 c 0,-0.25 0.21,-0.46 0.46,-0.46 h 0.51 c 0.25,0 0.46,0.21 0.46,0.46 v 0.35 c 0,0.26 -0.21,0.46 -0.46,0.46 z"
   id="path850" />
			</g>
			<g
   id="g858">
				<path
   class="st56"
   d="m 164.32,256.8 h -1.14 c -0.57,0 -1.03,-0.46 -1.02,-1.03 v -0.78 c 0,-0.57 0.46,-1.03 1.03,-1.03 h 1.14 c 0.57,0 1.03,0.46 1.02,1.03 v 0.78 c 0,0.57 -0.46,1.03 -1.03,1.03 z"
   id="path854" />
				<path
   class="st48"
   d="m 163.66,255.71 h -0.51 c -0.25,0 -0.46,-0.21 -0.46,-0.46 v -0.35 c 0,-0.25 0.21,-0.46 0.46,-0.46 h 0.51 c 0.25,0 0.46,0.21 0.46,0.46 v 0.35 c 0,0.26 -0.2,0.46 -0.46,0.46 z"
   id="path856" />
			</g>
			<g
   id="g864">
				<path
   class="st56"
   d="m 164.33,253.97 h -1.14 c -0.57,0 -1.03,-0.46 -1.02,-1.03 v -0.78 c 0,-0.57 0.46,-1.03 1.03,-1.03 h 1.14 c 0.57,0 1.03,0.46 1.02,1.03 v 0.78 c -0.01,0.57 -0.47,1.03 -1.03,1.03 z"
   id="path860" />
				<path
   class="st48"
   d="m 163.67,252.88 h -0.51 c -0.25,0 -0.46,-0.21 -0.46,-0.46 v -0.35 c 0,-0.25 0.21,-0.46 0.46,-0.46 h 0.51 c 0.25,0 0.46,0.21 0.46,0.46 v 0.35 c -0.01,0.25 -0.21,0.46 -0.46,0.46 z"
   id="path862" />
			</g>
			<g
   id="g870">
				<path
   class="st56"
   d="m 164.33,251.13 h -1.14 c -0.57,0 -1.03,-0.46 -1.02,-1.03 v -0.78 c 0,-0.57 0.46,-1.03 1.03,-1.03 h 1.14 c 0.57,0 1.03,0.46 1.02,1.03 v 0.78 c 0,0.57 -0.46,1.03 -1.03,1.03 z"
   id="path866" />
				<path
   class="st48"
   d="m 163.67,250.04 h -0.51 c -0.25,0 -0.46,-0.21 -0.46,-0.46 v -0.35 c 0,-0.25 0.21,-0.46 0.46,-0.46 h 0.51 c 0.25,0 0.46,0.21 0.46,0.46 v 0.35 c 0,0.26 -0.21,0.46 -0.46,0.46 z"
   id="path868" />
			</g>
			<g
   id="g876">
				<path
   class="st56"
   d="m 164.33,248.29 h -1.14 c -0.57,0 -1.03,-0.46 -1.02,-1.03 v -0.78 c 0,-0.57 0.46,-1.03 1.03,-1.03 h 1.14 c 0.57,0 1.03,0.46 1.02,1.03 v 0.78 c 0,0.57 -0.46,1.03 -1.03,1.03 z"
   id="path872" />
				<path
   class="st48"
   d="m 163.67,247.21 h -0.51 c -0.25,0 -0.46,-0.21 -0.46,-0.46 v -0.35 c 0,-0.25 0.21,-0.46 0.46,-0.46 h 0.51 c 0.25,0 0.46,0.21 0.46,0.46 v 0.35 c 0,0.25 -0.2,0.46 -0.46,0.46 z"
   id="path874" />
			</g>
			<g
   id="g882">
				<path
   class="st56"
   d="m 164.34,245.61 h -1.14 c -0.57,0 -1.03,-0.46 -1.02,-1.03 v -0.78 c 0,-0.57 0.46,-1.03 1.03,-1.03 h 1.14 c 0.57,0 1.03,0.46 1.02,1.03 v 0.78 c -0.01,0.57 -0.47,1.03 -1.03,1.03 z"
   id="path878" />
				<path
   class="st48"
   d="m 163.68,244.52 h -0.51 c -0.25,0 -0.46,-0.21 -0.46,-0.46 v -0.35 c 0,-0.25 0.21,-0.46 0.46,-0.46 h 0.51 c 0.25,0 0.46,0.21 0.46,0.46 v 0.35 c -0.01,0.26 -0.21,0.46 -0.46,0.46 z"
   id="path880" />
			</g>
			<g
   id="g888">
				<path
   class="st56"
   d="m 164.34,242.62 h -1.14 c -0.57,0 -1.03,-0.46 -1.02,-1.03 v -0.78 c 0,-0.57 0.46,-1.03 1.03,-1.03 h 1.14 c 0.57,0 1.03,0.46 1.02,1.03 v 0.78 c 0,0.57 -0.46,1.03 -1.03,1.03 z"
   id="path884" />
				<path
   class="st48"
   d="m 163.68,241.53 h -0.51 c -0.25,0 -0.46,-0.21 -0.46,-0.46 v -0.35 c 0,-0.25 0.21,-0.46 0.46,-0.46 h 0.51 c 0.25,0 0.46,0.21 0.46,0.46 v 0.35 c 0,0.26 -0.21,0.46 -0.46,0.46 z"
   id="path886" />
			</g>
			<g
   id="g894">
				<path
   class="st56"
   d="m 164.34,239.78 h -1.14 c -0.57,0 -1.03,-0.46 -1.02,-1.03 v -0.78 c 0,-0.57 0.46,-1.03 1.03,-1.03 h 1.14 c 0.57,0 1.03,0.46 1.02,1.03 v 0.78 c 0,0.58 -0.46,1.03 -1.03,1.03 z"
   id="path890" />
				<path
   class="st48"
   d="m 163.68,238.7 h -0.51 c -0.25,0 -0.46,-0.21 -0.46,-0.46 v -0.35 c 0,-0.25 0.21,-0.46 0.46,-0.46 h 0.51 c 0.25,0 0.46,0.21 0.46,0.46 v 0.35 c 0,0.25 -0.2,0.46 -0.46,0.46 z"
   id="path892" />
			</g>
			<g
   id="g900">
				<path
   class="st57"
   d="m 164.07,236.95 h -0.92 c -0.54,0 -0.97,-0.44 -0.97,-0.97 v -0.89 c 0,-0.54 0.44,-0.97 0.97,-0.97 h 0.92 c 0.54,0 0.97,0.44 0.97,0.97 v 0.89 c 0,0.53 -0.44,0.97 -0.97,0.97 z"
   id="path896" />
				<path
   class="st48"
   d="m 163.5,235.86 h -0.41 c -0.24,0 -0.43,-0.19 -0.43,-0.43 v -0.4 c 0,-0.24 0.19,-0.43 0.43,-0.43 h 0.41 c 0.24,0 0.43,0.19 0.43,0.43 v 0.4 c 0.01,0.24 -0.19,0.43 -0.43,0.43 z"
   id="path898" />
			</g>
			<g
   id="g906">
				<path
   class="st58"
   d="m 163.6,234.26 h -0.61 c -0.45,0 -0.81,-0.36 -0.81,-0.81 v -0.91 c 0,-0.45 0.36,-0.81 0.81,-0.81 h 0.61 c 0.45,0 0.81,0.36 0.81,0.81 v 0.91 c 0.01,0.45 -0.36,0.81 -0.81,0.81 z"
   id="path902" />
				<path
   class="st48"
   d="m 163.19,233.29 h -0.27 c -0.2,0 -0.36,-0.16 -0.36,-0.36 v -0.41 c 0,-0.2 0.16,-0.36 0.36,-0.36 h 0.27 c 0.2,0 0.36,0.16 0.36,0.36 v 0.41 c 0.01,0.2 -0.16,0.36 -0.36,0.36 z"
   id="path904" />
			</g>
			<g
   id="g912">
				<path
   class="st58"
   d="m 163.1,231.96 h -0.61 c -0.45,0 -0.81,-0.36 -0.81,-0.81 v -0.91 c 0,-0.45 0.36,-0.81 0.81,-0.81 h 0.61 c 0.45,0 0.81,0.36 0.81,0.81 v 0.91 c 0,0.44 -0.36,0.81 -0.81,0.81 z"
   id="path908" />
				<path
   class="st48"
   d="m 162.69,230.98 h -0.27 c -0.2,0 -0.36,-0.16 -0.36,-0.36 v -0.41 c 0,-0.2 0.16,-0.36 0.36,-0.36 h 0.27 c 0.2,0 0.36,0.16 0.36,0.36 v 0.41 c 0,0.2 -0.16,0.36 -0.36,0.36 z"
   id="path910" />
			</g>
			<g
   id="g918">
				<path
   class="st59"
   d="m 162.36,229.63 h -0.53 c -0.38,0 -0.68,-0.31 -0.68,-0.68 v -0.74 c 0,-0.38 0.31,-0.68 0.68,-0.68 h 0.53 c 0.38,0 0.68,0.31 0.68,0.68 v 0.74 c 0,0.38 -0.3,0.68 -0.68,0.68 z"
   id="path914" />
				<path
   class="st48"
   d="m 162.01,228.83 h -0.24 c -0.17,0 -0.3,-0.14 -0.3,-0.3 v -0.33 c 0,-0.17 0.14,-0.3 0.3,-0.3 h 0.24 c 0.17,0 0.3,0.14 0.3,0.3 v 0.33 c 0.01,0.16 -0.13,0.3 -0.3,0.3 z"
   id="path916" />
			</g>
			<g
   id="g924">
				<path
   class="st60"
   d="m 162.21,227.69 h -0.62 c -0.34,0 -0.61,-0.27 -0.61,-0.61 v -0.52 c 0,-0.34 0.27,-0.61 0.61,-0.61 h 0.62 c 0.34,0 0.61,0.27 0.61,0.61 v 0.52 c 0,0.33 -0.28,0.61 -0.61,0.61 z"
   id="path920" />
				<path
   class="st48"
   d="m 161.84,227.02 h -0.28 c -0.15,0 -0.27,-0.12 -0.27,-0.27 v -0.23 c 0,-0.15 0.12,-0.27 0.27,-0.27 h 0.28 c 0.15,0 0.27,0.12 0.27,0.27 v 0.23 c 0,0.14 -0.12,0.27 -0.27,0.27 z"
   id="path922" />
			</g>
			<g
   id="g930">
				<path
   class="st60"
   d="m 161.75,225.7 h -0.62 c -0.34,0 -0.61,-0.27 -0.61,-0.61 v -0.52 c 0,-0.34 0.27,-0.61 0.61,-0.61 h 0.62 c 0.34,0 0.61,0.27 0.61,0.61 v 0.52 c 0,0.34 -0.27,0.61 -0.61,0.61 z"
   id="path926" />
				<path
   class="st48"
   d="m 161.38,225.03 h -0.28 c -0.15,0 -0.27,-0.12 -0.27,-0.27 v -0.23 c 0,-0.15 0.12,-0.27 0.27,-0.27 h 0.28 c 0.15,0 0.27,0.12 0.27,0.27 v 0.23 c 0,0.15 -0.12,0.27 -0.27,0.27 z"
   id="path928" />
			</g>
			<g
   id="g936">
				<path
   class="st60"
   d="m 161.46,224.2 h -0.62 c -0.34,0 -0.61,-0.27 -0.61,-0.61 v -0.52 c 0,-0.34 0.27,-0.61 0.61,-0.61 h 0.62 c 0.34,0 0.61,0.27 0.61,0.61 v 0.52 c 0,0.34 -0.27,0.61 -0.61,0.61 z"
   id="path932" />
				<path
   class="st48"
   d="m 161.09,223.53 h -0.28 c -0.15,0 -0.27,-0.12 -0.27,-0.27 v -0.23 c 0,-0.15 0.12,-0.27 0.27,-0.27 h 0.28 c 0.15,0 0.27,0.12 0.27,0.27 v 0.23 c 0,0.15 -0.12,0.28 -0.27,0.27 z"
   id="path934" />
			</g>
			<g
   id="g942">
				<path
   class="st60"
   d="m 161.14,222.73 h -0.62 c -0.34,0 -0.61,-0.27 -0.61,-0.61 v -0.52 c 0,-0.34 0.27,-0.61 0.61,-0.61 h 0.62 c 0.34,0 0.61,0.27 0.61,0.61 v 0.52 c 0,0.34 -0.27,0.61 -0.61,0.61 z"
   id="path938" />
				<path
   class="st48"
   d="m 160.77,222.06 h -0.28 c -0.15,0 -0.27,-0.12 -0.27,-0.27 v -0.23 c 0,-0.15 0.12,-0.27 0.27,-0.27 h 0.28 c 0.15,0 0.27,0.12 0.27,0.27 v 0.23 c 0,0.15 -0.12,0.27 -0.27,0.27 z"
   id="path940" />
			</g>
			<g
   id="g948">
				<path
   class="st61"
   d="m 158.06,218.96 -0.91,-0.04 c -0.28,-0.01 -0.5,-0.3 -0.49,-0.64 l 0.01,-0.16 c 0.01,-0.34 0.25,-0.6 0.53,-0.59 l 0.91,0.04 c 0.28,0.01 0.5,0.3 0.49,0.64 l -0.01,0.16 c -0.02,0.34 -0.25,0.6 -0.53,0.59 z"
   id="path944" />
				<path
   class="st48"
   d="m 157.61,218.4 -0.41,-0.02 c -0.13,-0.01 -0.22,-0.13 -0.22,-0.29 v -0.07 c 0,-0.15 0.11,-0.27 0.24,-0.26 l 0.41,0.02 c 0.13,0.01 0.22,0.13 0.22,0.29 v 0.07 c -0.01,0.15 -0.11,0.27 -0.24,0.26 z"
   id="path946" />
			</g>
			<g
   id="g954">
				<path
   class="st62"
   d="m 149.12,274.5 h 2.44 c 0.74,0 1.33,-0.6 1.33,-1.33 v -0.32 c 0,-0.74 -0.6,-1.33 -1.33,-1.33 h -2.44 c -0.74,0 -1.33,0.6 -1.33,1.33 v 0.32 c -0.01,0.73 0.59,1.33 1.33,1.33 z"
   id="path950" />
				<path
   class="st48"
   d="m 150.35,273.35 h 1.09 c 0.33,0 0.6,-0.27 0.6,-0.6 v -0.14 c 0,-0.33 -0.27,-0.6 -0.6,-0.6 h -1.09 c -0.33,0 -0.6,0.27 -0.6,0.6 v 0.14 c 0,0.34 0.27,0.6 0.6,0.6 z"
   id="path952" />
			</g>
			<g
   id="g960">
				<path
   class="st50"
   d="m 149.17,277.49 h 2.08 c 0.7,0 1.27,-0.57 1.27,-1.27 v -0.46 c 0,-0.7 -0.57,-1.27 -1.27,-1.27 h -2.08 c -0.7,0 -1.27,0.57 -1.27,1.27 v 0.46 c 0,0.7 0.57,1.27 1.27,1.27 z"
   id="path956" />
				<path
   class="st48"
   d="m 150.25,276.35 h 0.93 c 0.31,0 0.57,-0.25 0.57,-0.57 v -0.2 c 0,-0.31 -0.25,-0.57 -0.57,-0.57 h -0.93 c -0.31,0 -0.57,0.25 -0.57,0.57 v 0.2 c 0,0.31 0.26,0.57 0.57,0.57 z"
   id="path958" />
			</g>
			<g
   id="g966">
				<path
   class="st63"
   d="m 149.08,271.51 h 2.23 c 0.72,0 1.3,-0.58 1.3,-1.3 v -0.4 c 0,-0.72 -0.58,-1.3 -1.3,-1.3 h -2.23 c -0.72,0 -1.3,0.58 -1.3,1.3 v 0.4 c 0,0.72 0.58,1.3 1.3,1.3 z"
   id="path962" />
				<path
   class="st48"
   d="m 150.22,270.36 h 1 c 0.32,0 0.58,-0.26 0.58,-0.58 v -0.18 c 0,-0.32 -0.26,-0.58 -0.58,-0.58 h -1 c -0.32,0 -0.58,0.26 -0.58,0.58 v 0.18 c 0,0.32 0.26,0.58 0.58,0.58 z"
   id="path964" />
			</g>
			<g
   id="g972">
				<path
   class="st64"
   d="m 149.12,268.67 h 2.49 c 0.74,0 1.34,-0.6 1.34,-1.34 v -0.31 c 0,-0.74 -0.6,-1.34 -1.34,-1.34 h -2.49 c -0.74,0 -1.34,0.6 -1.34,1.34 v 0.31 c 0,0.74 0.6,1.34 1.34,1.34 z"
   id="path968" />
				<path
   class="st48"
   d="m 150.38,267.53 h 1.11 c 0.33,0 0.6,-0.27 0.6,-0.6 v -0.14 c 0,-0.33 -0.27,-0.6 -0.6,-0.6 h -1.11 c -0.33,0 -0.6,0.27 -0.6,0.6 v 0.14 c 0,0.33 0.27,0.6 0.6,0.6 z"
   id="path970" />
			</g>
			<g
   id="g978">
				<path
   class="st64"
   d="m 149.12,265.68 h 2.49 c 0.74,0 1.34,-0.6 1.34,-1.34 v -0.31 c 0,-0.74 -0.6,-1.34 -1.34,-1.34 h -2.49 c -0.74,0 -1.34,0.6 -1.34,1.34 v 0.31 c 0,0.74 0.6,1.34 1.34,1.34 z"
   id="path974" />
				<path
   class="st48"
   d="m 150.38,264.53 h 1.11 c 0.33,0 0.6,-0.27 0.6,-0.6 v -0.14 c 0,-0.33 -0.27,-0.6 -0.6,-0.6 h -1.11 c -0.33,0 -0.6,0.27 -0.6,0.6 v 0.14 c 0,0.34 0.27,0.6 0.6,0.6 z"
   id="path976" />
			</g>
			<g
   id="g984">
				<path
   class="st64"
   d="m 149.12,262.69 h 2.49 c 0.74,0 1.34,-0.6 1.34,-1.34 v -0.31 c 0,-0.74 -0.6,-1.34 -1.34,-1.34 h -2.49 c -0.74,0 -1.34,0.6 -1.34,1.34 v 0.31 c 0,0.74 0.6,1.34 1.34,1.34 z"
   id="path980" />
				<path
   class="st48"
   d="m 150.38,261.54 h 1.11 c 0.33,0 0.6,-0.27 0.6,-0.6 v -0.14 c 0,-0.33 -0.27,-0.6 -0.6,-0.6 h -1.11 c -0.33,0 -0.6,0.27 -0.6,0.6 v 0.14 c 0,0.33 0.27,0.6 0.6,0.6 z"
   id="path982" />
			</g>
			<g
   id="g990">
				<path
   class="st64"
   d="m 149.12,259.85 h 2.49 c 0.74,0 1.34,-0.6 1.34,-1.34 v -0.31 c 0,-0.74 -0.6,-1.34 -1.34,-1.34 h -2.49 c -0.74,0 -1.34,0.6 -1.34,1.34 v 0.31 c 0,0.74 0.6,1.34 1.34,1.34 z"
   id="path986" />
				<path
   class="st48"
   d="m 150.38,258.71 h 1.11 c 0.33,0 0.6,-0.27 0.6,-0.6 v -0.14 c 0,-0.33 -0.27,-0.6 -0.6,-0.6 h -1.11 c -0.33,0 -0.6,0.27 -0.6,0.6 v 0.14 c 0,0.33 0.27,0.6 0.6,0.6 z"
   id="path988" />
			</g>
			<g
   id="g996">
				<path
   class="st65"
   d="m 149.12,256.7 h 2.47 c 0.74,0 1.34,-0.6 1.34,-1.34 v -0.32 c 0,-0.74 -0.6,-1.34 -1.34,-1.34 h -2.47 c -0.74,0 -1.34,0.6 -1.34,1.34 v 0.32 c 0,0.74 0.6,1.34 1.34,1.34 z"
   id="path992" />
				<path
   class="st48"
   d="m 150.36,255.56 h 1.1 c 0.33,0 0.6,-0.27 0.6,-0.6 v -0.14 c 0,-0.33 -0.27,-0.6 -0.6,-0.6 h -1.1 c -0.33,0 -0.6,0.27 -0.6,0.6 v 0.14 c 0,0.33 0.27,0.6 0.6,0.6 z"
   id="path994" />
			</g>
			<g
   id="g1002">
				<path
   class="st64"
   d="m 149.12,253.71 h 2.49 c 0.74,0 1.34,-0.6 1.34,-1.34 v -0.31 c 0,-0.74 -0.6,-1.34 -1.34,-1.34 h -2.49 c -0.74,0 -1.34,0.6 -1.34,1.34 v 0.31 c 0,0.74 0.6,1.34 1.34,1.34 z"
   id="path998" />
				<path
   class="st48"
   d="m 150.38,252.56 h 1.11 c 0.33,0 0.6,-0.27 0.6,-0.6 v -0.14 c 0,-0.33 -0.27,-0.6 -0.6,-0.6 h -1.11 c -0.33,0 -0.6,0.27 -0.6,0.6 v 0.14 c 0,0.34 0.27,0.6 0.6,0.6 z"
   id="path1000" />
			</g>
			<g
   id="g1008">
				<path
   class="st65"
   d="m 149.12,250.72 h 2.47 c 0.74,0 1.34,-0.6 1.34,-1.34 v -0.32 c 0,-0.74 -0.6,-1.34 -1.34,-1.34 h -2.47 c -0.74,0 -1.34,0.6 -1.34,1.34 v 0.32 c 0,0.74 0.6,1.34 1.34,1.34 z"
   id="path1004" />
				<path
   class="st48"
   d="m 150.36,249.57 h 1.1 c 0.33,0 0.6,-0.27 0.6,-0.6 v -0.14 c 0,-0.33 -0.27,-0.6 -0.6,-0.6 h -1.1 c -0.33,0 -0.6,0.27 -0.6,0.6 v 0.14 c 0,0.33 0.27,0.6 0.6,0.6 z"
   id="path1006" />
			</g>
			<g
   id="g1014">
				<path
   class="st64"
   d="m 149.12,247.72 h 2.49 c 0.74,0 1.34,-0.6 1.34,-1.34 v -0.31 c 0,-0.74 -0.6,-1.34 -1.34,-1.34 h -2.49 c -0.74,0 -1.34,0.6 -1.34,1.34 v 0.31 c 0,0.74 0.6,1.34 1.34,1.34 z"
   id="path1010" />
				<path
   class="st48"
   d="m 150.38,246.58 h 1.11 c 0.33,0 0.6,-0.27 0.6,-0.6 v -0.14 c 0,-0.33 -0.27,-0.6 -0.6,-0.6 h -1.11 c -0.33,0 -0.6,0.27 -0.6,0.6 v 0.14 c 0,0.33 0.27,0.6 0.6,0.6 z"
   id="path1012" />
			</g>
			<g
   id="g1020">
				<path
   class="st65"
   d="m 149.12,244.73 h 2.47 c 0.74,0 1.34,-0.6 1.34,-1.34 v -0.32 c 0,-0.74 -0.6,-1.34 -1.34,-1.34 h -2.47 c -0.74,0 -1.34,0.6 -1.34,1.34 v 0.32 c 0,0.74 0.6,1.34 1.34,1.34 z"
   id="path1016" />
				<path
   class="st48"
   d="m 150.36,243.59 h 1.1 c 0.33,0 0.6,-0.27 0.6,-0.6 v -0.14 c 0,-0.33 -0.27,-0.6 -0.6,-0.6 h -1.1 c -0.33,0 -0.6,0.27 -0.6,0.6 v 0.14 c 0,0.33 0.27,0.6 0.6,0.6 z"
   id="path1018" />
			</g>
			<g
   id="g1026">
				<path
   class="st64"
   d="m 149.12,241.9 h 2.49 c 0.74,0 1.34,-0.6 1.34,-1.34 v -0.31 c 0,-0.74 -0.6,-1.34 -1.34,-1.34 h -2.49 c -0.74,0 -1.34,0.6 -1.34,1.34 v 0.31 c 0,0.74 0.6,1.34 1.34,1.34 z"
   id="path1022" />
				<path
   class="st48"
   d="m 150.38,240.75 h 1.11 c 0.33,0 0.6,-0.27 0.6,-0.6 v -0.14 c 0,-0.33 -0.27,-0.6 -0.6,-0.6 h -1.11 c -0.33,0 -0.6,0.27 -0.6,0.6 v 0.14 c 0,0.33 0.27,0.6 0.6,0.6 z"
   id="path1024" />
			</g>
			<g
   id="g1032">
				<path
   class="st64"
   d="m 149.12,238.75 h 2.49 c 0.74,0 1.34,-0.6 1.34,-1.34 v -0.31 c 0,-0.74 -0.6,-1.34 -1.34,-1.34 h -2.49 c -0.74,0 -1.34,0.6 -1.34,1.34 v 0.31 c 0,0.74 0.6,1.34 1.34,1.34 z"
   id="path1028" />
				<path
   class="st48"
   d="m 150.38,237.6 h 1.11 c 0.33,0 0.6,-0.27 0.6,-0.6 v -0.14 c 0,-0.33 -0.27,-0.6 -0.6,-0.6 h -1.11 c -0.33,0 -0.6,0.27 -0.6,0.6 V 237 c 0,0.33 0.27,0.6 0.6,0.6 z"
   id="path1030" />
			</g>
			<g
   id="g1038">
				<path
   class="st65"
   d="m 149.12,235.75 h 2.47 c 0.74,0 1.34,-0.6 1.34,-1.34 v -0.32 c 0,-0.74 -0.6,-1.34 -1.34,-1.34 h -2.47 c -0.74,0 -1.34,0.6 -1.34,1.34 v 0.32 c 0,0.75 0.6,1.34 1.34,1.34 z"
   id="path1034" />
				<path
   class="st48"
   d="m 150.36,234.61 h 1.1 c 0.33,0 0.6,-0.27 0.6,-0.6 v -0.14 c 0,-0.33 -0.27,-0.6 -0.6,-0.6 h -1.1 c -0.33,0 -0.6,0.27 -0.6,0.6 v 0.14 c 0,0.33 0.27,0.6 0.6,0.6 z"
   id="path1036" />
			</g>
			<g
   id="g1044">
				<path
   class="st66"
   d="m 149.61,232.76 h 2.52 c 0.74,0 1.35,-0.6 1.35,-1.35 v -0.3 c 0,-0.74 -0.6,-1.35 -1.35,-1.35 h -2.52 c -0.74,0 -1.35,0.6 -1.35,1.35 v 0.3 c 0,0.75 0.61,1.35 1.35,1.35 z"
   id="path1040" />
				<path
   class="st48"
   d="M 150.88,231.62 H 152 c 0.33,0 0.6,-0.27 0.6,-0.6 v -0.13 c 0,-0.33 -0.27,-0.6 -0.6,-0.6 h -1.13 c -0.33,0 -0.6,0.27 -0.6,0.6 v 0.13 c 0,0.33 0.27,0.6 0.61,0.6 z"
   id="path1042" />
			</g>
			<g
   id="g1050">
				<path
   class="st67"
   d="m 150.1,229.93 h 1.56 c 0.59,0 1.07,-0.48 1.07,-1.07 v -0.53 c 0,-0.59 -0.48,-1.07 -1.07,-1.07 h -1.56 c -0.59,0 -1.07,0.48 -1.07,1.07 v 0.53 c -0.01,0.59 0.47,1.07 1.07,1.07 z"
   id="path1046" />
				<path
   class="st48"
   d="m 150.93,228.9 h 0.7 c 0.27,0 0.48,-0.21 0.48,-0.48 v -0.23 c 0,-0.27 -0.21,-0.48 -0.48,-0.48 h -0.7 c -0.27,0 -0.48,0.21 -0.48,0.48 v 0.23 c 0,0.27 0.22,0.48 0.48,0.48 z"
   id="path1048" />
			</g>
			<g
   id="g1056">
				<path
   class="st67"
   d="m 150.05,227.25 h 1.56 c 0.59,0 1.07,-0.48 1.07,-1.07 v -0.53 c 0,-0.59 -0.48,-1.07 -1.07,-1.07 h -1.56 c -0.59,0 -1.07,0.48 -1.07,1.07 v 0.53 c 0,0.59 0.48,1.07 1.07,1.07 z"
   id="path1052" />
				<path
   class="st48"
   d="m 150.89,226.23 h 0.7 c 0.27,0 0.48,-0.21 0.48,-0.48 v -0.23 c 0,-0.27 -0.21,-0.48 -0.48,-0.48 h -0.7 c -0.27,0 -0.48,0.21 -0.48,0.48 v 0.23 c 0,0.27 0.22,0.48 0.48,0.48 z"
   id="path1054" />
			</g>
			<g
   id="g1062">
				<path
   class="st68"
   d="m 150.89,224.65 h 1.34 c 0.5,0 0.9,-0.4 0.9,-0.9 v -0.42 c 0,-0.5 -0.4,-0.9 -0.9,-0.9 h -1.34 c -0.5,0 -0.9,0.4 -0.9,0.9 v 0.42 c 0,0.5 0.4,0.9 0.9,0.9 z"
   id="path1058" />
				<path
   class="st48"
   d="m 151.61,223.8 h 0.6 c 0.22,0 0.4,-0.18 0.4,-0.4 v -0.19 c 0,-0.22 -0.18,-0.4 -0.4,-0.4 h -0.6 c -0.22,0 -0.4,0.18 -0.4,0.4 v 0.19 c -0.01,0.22 0.17,0.4 0.4,0.4 z"
   id="path1060" />
			</g>
			<g
   id="g1068">
				<path
   class="st58"
   d="m 151.22,222.51 h 1.45 c 0.45,0 0.81,-0.36 0.81,-0.81 v -0.22 c 0,-0.45 -0.36,-0.81 -0.81,-0.81 h -1.45 c -0.45,0 -0.81,0.36 -0.81,0.81 v 0.22 c 0,0.44 0.36,0.81 0.81,0.81 z"
   id="path1064" />
				<path
   class="st48"
   d="m 151.96,221.8 h 0.65 c 0.2,0 0.36,-0.16 0.36,-0.36 v -0.1 c 0,-0.2 -0.16,-0.36 -0.36,-0.36 h -0.65 c -0.2,0 -0.36,0.16 -0.36,0.36 v 0.1 c -0.01,0.2 0.16,0.36 0.36,0.36 z"
   id="path1066" />
			</g>
			<g
   id="g1074">
				<path
   class="st69"
   d="m 151.36,220.59 h 1.63 c 0.46,0 0.84,-0.38 0.84,-0.84 v -0.16 c 0,-0.46 -0.38,-0.84 -0.84,-0.84 h -1.63 c -0.46,0 -0.84,0.38 -0.84,0.84 v 0.16 c -0.01,0.46 0.37,0.84 0.84,0.84 z"
   id="path1070" />
				<path
   class="st48"
   d="m 152.17,219.88 h 0.73 c 0.21,0 0.38,-0.17 0.38,-0.38 v -0.07 c 0,-0.21 -0.17,-0.38 -0.38,-0.38 h -0.73 c -0.21,0 -0.38,0.17 -0.38,0.38 v 0.07 c 0,0.22 0.17,0.38 0.38,0.38 z"
   id="path1072" />
			</g>
			<g
   id="g1080">
				<path
   class="st56"
   d="m 145.83,276.23 h 1.14 c 0.57,0 1.03,-0.46 1.02,-1.03 v -0.78 c 0,-0.57 -0.46,-1.03 -1.03,-1.03 h -1.14 c -0.57,0 -1.03,0.46 -1.02,1.03 v 0.78 c 0,0.57 0.46,1.03 1.03,1.03 z"
   id="path1076" />
				<path
   class="st48"
   d="M 146.49,275.14 H 147 c 0.25,0 0.46,-0.21 0.46,-0.46 v -0.35 c 0,-0.25 -0.21,-0.46 -0.46,-0.46 h -0.51 c -0.25,0 -0.46,0.21 -0.46,0.46 v 0.35 c 0,0.26 0.21,0.46 0.46,0.46 z"
   id="path1078" />
			</g>
			<g
   id="g1086">
				<path
   class="st56"
   d="m 145.92,279.07 h 1.14 c 0.57,0 1.03,-0.46 1.02,-1.03 v -0.78 c 0,-0.57 -0.46,-1.03 -1.03,-1.03 h -1.14 c -0.57,0 -1.03,0.46 -1.02,1.03 v 0.78 c 0,0.57 0.46,1.03 1.03,1.03 z"
   id="path1082" />
				<path
   class="st48"
   d="m 146.58,277.98 h 0.51 c 0.25,0 0.46,-0.21 0.46,-0.46 v -0.35 c 0,-0.25 -0.21,-0.46 -0.46,-0.46 h -0.51 c -0.25,0 -0.46,0.21 -0.46,0.46 v 0.35 c 0,0.26 0.21,0.46 0.46,0.46 z"
   id="path1084" />
			</g>
			<g
   id="g1092">
				<path
   class="st56"
   d="m 145.83,273.39 h 1.14 c 0.57,0 1.03,-0.46 1.02,-1.03 v -0.78 c 0,-0.57 -0.46,-1.03 -1.03,-1.03 h -1.14 c -0.57,0 -1.03,0.46 -1.02,1.03 v 0.78 c 0,0.58 0.46,1.04 1.03,1.03 z"
   id="path1088" />
				<path
   class="st48"
   d="M 146.49,272.31 H 147 c 0.25,0 0.46,-0.21 0.46,-0.46 v -0.35 c 0,-0.25 -0.21,-0.46 -0.46,-0.46 h -0.51 c -0.25,0 -0.46,0.21 -0.46,0.46 v 0.35 c 0,0.25 0.21,0.46 0.46,0.46 z"
   id="path1090" />
			</g>
			<g
   id="g1098">
				<path
   class="st56"
   d="m 145.83,270.71 h 1.14 c 0.57,0 1.03,-0.46 1.02,-1.03 v -0.78 c 0,-0.57 -0.46,-1.03 -1.03,-1.03 h -1.14 c -0.57,0 -1.03,0.46 -1.02,1.03 v 0.78 c 0,0.57 0.46,1.03 1.03,1.03 z"
   id="path1094" />
				<path
   class="st48"
   d="M 146.49,269.62 H 147 c 0.25,0 0.46,-0.21 0.46,-0.46 v -0.35 c 0,-0.25 -0.21,-0.46 -0.46,-0.46 h -0.51 c -0.25,0 -0.46,0.21 -0.46,0.46 v 0.35 c 0,0.26 0.2,0.46 0.46,0.46 z"
   id="path1096" />
			</g>
			<g
   id="g1104">
				<path
   class="st56"
   d="m 145.82,267.87 h 1.14 c 0.57,0 1.03,-0.46 1.02,-1.03 v -0.78 c 0,-0.57 -0.46,-1.03 -1.03,-1.03 h -1.14 c -0.57,0 -1.03,0.46 -1.02,1.03 v 0.78 c 0,0.57 0.46,1.03 1.03,1.03 z"
   id="path1100" />
				<path
   class="st48"
   d="m 146.48,266.79 h 0.51 c 0.25,0 0.46,-0.21 0.46,-0.46 v -0.35 c 0,-0.25 -0.21,-0.46 -0.46,-0.46 h -0.51 c -0.25,0 -0.46,0.21 -0.46,0.46 v 0.35 c 0,0.25 0.21,0.46 0.46,0.46 z"
   id="path1102" />
			</g>
			<g
   id="g1110">
				<path
   class="st56"
   d="m 145.82,265.04 h 1.14 c 0.57,0 1.03,-0.46 1.02,-1.03 v -0.78 c 0,-0.57 -0.46,-1.03 -1.03,-1.03 h -1.14 c -0.57,0 -1.03,0.46 -1.02,1.03 v 0.78 c 0,0.57 0.46,1.03 1.03,1.03 z"
   id="path1106" />
				<path
   class="st48"
   d="m 146.48,263.95 h 0.51 c 0.25,0 0.46,-0.21 0.46,-0.46 v -0.35 c 0,-0.25 -0.21,-0.46 -0.46,-0.46 h -0.51 c -0.25,0 -0.46,0.21 -0.46,0.46 v 0.35 c 0,0.25 0.21,0.46 0.46,0.46 z"
   id="path1108" />
			</g>
			<g
   id="g1116">
				<path
   class="st56"
   d="m 145.82,262.35 h 1.14 c 0.57,0 1.03,-0.46 1.02,-1.03 v -0.78 c 0,-0.57 -0.46,-1.03 -1.03,-1.03 h -1.14 c -0.57,0 -1.03,0.46 -1.02,1.03 v 0.78 c 0,0.57 0.46,1.03 1.03,1.03 z"
   id="path1112" />
				<path
   class="st48"
   d="m 146.48,261.26 h 0.51 c 0.25,0 0.46,-0.21 0.46,-0.46 v -0.35 c 0,-0.25 -0.21,-0.46 -0.46,-0.46 h -0.51 c -0.25,0 -0.46,0.21 -0.46,0.46 v 0.35 c 0,0.26 0.2,0.46 0.46,0.46 z"
   id="path1114" />
			</g>
			<g
   id="g1122">
				<path
   class="st56"
   d="m 145.81,259.36 h 1.14 c 0.57,0 1.03,-0.46 1.02,-1.03 v -0.78 c 0,-0.57 -0.46,-1.03 -1.03,-1.03 h -1.14 c -0.57,0 -1.03,0.46 -1.02,1.03 v 0.78 c 0,0.58 0.46,1.03 1.03,1.03 z"
   id="path1118" />
				<path
   class="st48"
   d="m 146.47,258.28 h 0.51 c 0.25,0 0.46,-0.21 0.46,-0.46 v -0.35 c 0,-0.25 -0.21,-0.46 -0.46,-0.46 h -0.51 c -0.25,0 -0.46,0.21 -0.46,0.46 v 0.35 c 0,0.25 0.21,0.46 0.46,0.46 z"
   id="path1120" />
			</g>
			<g
   id="g1128">
				<path
   class="st56"
   d="m 145.81,256.53 h 1.14 c 0.57,0 1.03,-0.46 1.02,-1.03 v -0.78 c 0,-0.57 -0.46,-1.03 -1.03,-1.03 h -1.14 c -0.57,0 -1.03,0.46 -1.02,1.03 v 0.78 c 0,0.57 0.46,1.03 1.03,1.03 z"
   id="path1124" />
				<path
   class="st48"
   d="m 146.47,255.44 h 0.51 c 0.25,0 0.46,-0.21 0.46,-0.46 v -0.35 c 0,-0.25 -0.21,-0.46 -0.46,-0.46 h -0.51 c -0.25,0 -0.46,0.21 -0.46,0.46 v 0.35 c 0,0.26 0.21,0.46 0.46,0.46 z"
   id="path1126" />
			</g>
			<g
   id="g1134">
				<path
   class="st56"
   d="m 145.81,253.69 h 1.14 c 0.57,0 1.03,-0.46 1.02,-1.03 v -0.78 c 0,-0.57 -0.46,-1.03 -1.03,-1.03 h -1.14 c -0.57,0 -1.03,0.46 -1.02,1.03 v 0.78 c 0,0.57 0.46,1.03 1.03,1.03 z"
   id="path1130" />
				<path
   class="st48"
   d="m 146.47,252.6 h 0.51 c 0.25,0 0.46,-0.21 0.46,-0.46 v -0.35 c 0,-0.25 -0.21,-0.46 -0.46,-0.46 h -0.51 c -0.25,0 -0.46,0.21 -0.46,0.46 v 0.35 c 0,0.26 0.2,0.46 0.46,0.46 z"
   id="path1132" />
			</g>
			<g
   id="g1140">
				<path
   class="st56"
   d="m 145.8,250.85 h 1.14 c 0.57,0 1.03,-0.46 1.02,-1.03 v -0.78 c 0,-0.57 -0.46,-1.03 -1.03,-1.03 h -1.14 c -0.57,0 -1.03,0.46 -1.02,1.03 v 0.78 c 0,0.58 0.47,1.04 1.03,1.03 z"
   id="path1136" />
				<path
   class="st48"
   d="m 146.46,249.77 h 0.51 c 0.25,0 0.46,-0.21 0.46,-0.46 v -0.35 c 0,-0.25 -0.21,-0.46 -0.46,-0.46 h -0.51 c -0.25,0 -0.46,0.21 -0.46,0.46 v 0.35 c 0,0.25 0.21,0.46 0.46,0.46 z"
   id="path1138" />
			</g>
			<g
   id="g1146">
				<path
   class="st56"
   d="m 145.8,248.02 h 1.14 c 0.57,0 1.03,-0.46 1.02,-1.03 v -0.78 c 0,-0.57 -0.46,-1.03 -1.03,-1.03 h -1.14 c -0.57,0 -1.03,0.46 -1.02,1.03 v 0.78 c 0,0.57 0.46,1.03 1.03,1.03 z"
   id="path1142" />
				<path
   class="st48"
   d="m 146.46,246.93 h 0.51 c 0.25,0 0.46,-0.21 0.46,-0.46 v -0.35 c 0,-0.25 -0.21,-0.46 -0.46,-0.46 h -0.51 c -0.25,0 -0.46,0.21 -0.46,0.46 v 0.35 c 0,0.26 0.21,0.46 0.46,0.46 z"
   id="path1144" />
			</g>
			<g
   id="g1152">
				<path
   class="st56"
   d="m 145.8,245.33 h 1.14 c 0.57,0 1.03,-0.46 1.02,-1.03 v -0.78 c 0,-0.57 -0.46,-1.03 -1.03,-1.03 h -1.14 c -0.57,0 -1.03,0.46 -1.02,1.03 v 0.78 c 0,0.57 0.46,1.03 1.03,1.03 z"
   id="path1148" />
				<path
   class="st48"
   d="m 146.46,244.25 h 0.51 c 0.25,0 0.46,-0.21 0.46,-0.46 v -0.35 c 0,-0.25 -0.21,-0.46 -0.46,-0.46 h -0.51 c -0.25,0 -0.46,0.21 -0.46,0.46 v 0.35 c 0,0.25 0.2,0.46 0.46,0.46 z"
   id="path1150" />
			</g>
			<g
   id="g1158">
				<path
   class="st56"
   d="m 145.79,242.35 h 1.14 c 0.57,0 1.03,-0.46 1.02,-1.03 v -0.78 c 0,-0.57 -0.46,-1.03 -1.03,-1.03 h -1.14 c -0.57,0 -1.03,0.46 -1.02,1.03 v 0.78 c 0.01,0.57 0.47,1.03 1.03,1.03 z"
   id="path1154" />
				<path
   class="st48"
   d="m 146.45,241.26 h 0.51 c 0.25,0 0.46,-0.21 0.46,-0.46 v -0.35 c 0,-0.25 -0.21,-0.46 -0.46,-0.46 h -0.51 c -0.25,0 -0.46,0.21 -0.46,0.46 v 0.35 c 0.01,0.25 0.21,0.46 0.46,0.46 z"
   id="path1156" />
			</g>
			<g
   id="g1164">
				<path
   class="st56"
   d="m 145.79,239.51 h 1.14 c 0.57,0 1.03,-0.46 1.02,-1.03 v -0.78 c 0,-0.57 -0.46,-1.03 -1.03,-1.03 h -1.14 c -0.57,0 -1.03,0.46 -1.02,1.03 v 0.78 c 0,0.57 0.46,1.03 1.03,1.03 z"
   id="path1160" />
				<path
   class="st48"
   d="m 146.45,238.42 h 0.51 c 0.25,0 0.46,-0.21 0.46,-0.46 v -0.35 c 0,-0.25 -0.21,-0.46 -0.46,-0.46 h -0.51 c -0.25,0 -0.46,0.21 -0.46,0.46 v 0.35 c 0,0.26 0.21,0.46 0.46,0.46 z"
   id="path1162" />
			</g>
			<g
   id="g1170">
				<path
   class="st57"
   d="m 146.06,236.67 h 0.92 c 0.54,0 0.97,-0.44 0.97,-0.97 v -0.89 c 0,-0.54 -0.44,-0.97 -0.97,-0.97 h -0.92 c -0.54,0 -0.97,0.44 -0.97,0.97 v 0.89 c 0,0.54 0.44,0.97 0.97,0.97 z"
   id="path1166" />
				<path
   class="st48"
   d="m 146.63,235.59 h 0.41 c 0.24,0 0.43,-0.19 0.43,-0.43 v -0.4 c 0,-0.24 -0.19,-0.43 -0.43,-0.43 h -0.41 c -0.24,0 -0.43,0.19 -0.43,0.43 v 0.4 c -0.01,0.23 0.19,0.43 0.43,0.43 z"
   id="path1168" />
			</g>
			<g
   id="g1176">
				<path
   class="st58"
   d="m 146.53,233.99 h 0.61 c 0.45,0 0.81,-0.36 0.81,-0.81 v -0.91 c 0,-0.45 -0.36,-0.81 -0.81,-0.81 h -0.61 c -0.45,0 -0.81,0.36 -0.81,0.81 v 0.91 c 0,0.44 0.36,0.81 0.81,0.81 z"
   id="path1172" />
				<path
   class="st48"
   d="m 146.94,233.02 h 0.27 c 0.2,0 0.36,-0.16 0.36,-0.36 v -0.41 c 0,-0.2 -0.16,-0.36 -0.36,-0.36 h -0.27 c -0.2,0 -0.36,0.16 -0.36,0.36 v 0.41 c 0,0.19 0.16,0.36 0.36,0.36 z"
   id="path1174" />
			</g>
			<g
   id="g1182">
				<path
   class="st58"
   d="m 147.03,231.68 h 0.61 c 0.45,0 0.81,-0.36 0.81,-0.81 v -0.91 c 0,-0.45 -0.36,-0.81 -0.81,-0.81 h -0.61 c -0.45,0 -0.81,0.36 -0.81,0.81 v 0.91 c 0,0.45 0.36,0.81 0.81,0.81 z"
   id="path1178" />
				<path
   class="st48"
   d="m 147.44,230.71 h 0.27 c 0.2,0 0.36,-0.16 0.36,-0.36 v -0.41 c 0,-0.2 -0.16,-0.36 -0.36,-0.36 h -0.27 c -0.2,0 -0.36,0.16 -0.36,0.36 v 0.41 c 0,0.2 0.16,0.36 0.36,0.36 z"
   id="path1180" />
			</g>
			<g
   id="g1188">
				<path
   class="st59"
   d="m 147.77,229.36 h 0.53 c 0.38,0 0.68,-0.31 0.68,-0.68 v -0.74 c 0,-0.38 -0.31,-0.68 -0.68,-0.68 h -0.53 c -0.38,0 -0.68,0.31 -0.68,0.68 v 0.74 c 0,0.38 0.3,0.68 0.68,0.68 z"
   id="path1184" />
				<path
   class="st48"
   d="m 148.12,228.55 h 0.24 c 0.17,0 0.3,-0.14 0.3,-0.3 v -0.33 c 0,-0.17 -0.14,-0.3 -0.3,-0.3 h -0.24 c -0.17,0 -0.3,0.14 -0.3,0.3 v 0.33 c 0,0.17 0.13,0.3 0.3,0.3 z"
   id="path1186" />
			</g>
			<g
   id="g1194">
				<path
   class="st60"
   d="m 147.93,227.41 h 0.62 c 0.34,0 0.61,-0.27 0.61,-0.61 v -0.52 c 0,-0.34 -0.27,-0.61 -0.61,-0.61 h -0.62 c -0.34,0 -0.61,0.27 -0.61,0.61 v 0.52 c -0.01,0.34 0.27,0.61 0.61,0.61 z"
   id="path1190" />
				<path
   class="st48"
   d="m 148.3,226.74 h 0.28 c 0.15,0 0.27,-0.12 0.27,-0.27 v -0.23 c 0,-0.15 -0.12,-0.27 -0.27,-0.27 h -0.28 c -0.15,0 -0.27,0.12 -0.27,0.27 v 0.23 c -0.01,0.15 0.12,0.27 0.27,0.27 z"
   id="path1192" />
			</g>
			<g
   id="g1200">
				<path
   class="st70"
   d="m 148.33,225.43 h 0.73 c 0.31,0 0.56,-0.25 0.56,-0.56 v -0.33 c 0,-0.31 -0.25,-0.56 -0.56,-0.56 h -0.73 c -0.31,0 -0.56,0.25 -0.56,0.56 v 0.33 c 0,0.31 0.25,0.56 0.56,0.56 z"
   id="path1196" />
				<path
   class="st48"
   d="m 148.73,224.87 h 0.33 c 0.14,0 0.25,-0.11 0.25,-0.25 v -0.15 c 0,-0.14 -0.11,-0.25 -0.25,-0.25 h -0.33 c -0.14,0 -0.25,0.11 -0.25,0.25 v 0.15 c 0,0.14 0.11,0.25 0.25,0.25 z"
   id="path1198" />
			</g>
			<g
   id="g1206">
				<path
   class="st70"
   d="m 148.62,223.93 h 0.73 c 0.31,0 0.56,-0.25 0.56,-0.56 v -0.33 c 0,-0.31 -0.25,-0.56 -0.56,-0.56 h -0.73 c -0.31,0 -0.56,0.25 -0.56,0.56 v 0.33 c 0,0.31 0.25,0.56 0.56,0.56 z"
   id="path1202" />
				<path
   class="st48"
   d="m 149.02,223.37 h 0.33 c 0.14,0 0.25,-0.11 0.25,-0.25 v -0.15 c 0,-0.14 -0.11,-0.25 -0.25,-0.25 h -0.33 c -0.14,0 -0.25,0.11 -0.25,0.25 v 0.15 c 0,0.14 0.11,0.25 0.25,0.25 z"
   id="path1204" />
			</g>
			<g
   id="g1212">
				<path
   class="st71"
   d="m 149.04,222.46 h 0.82 c 0.36,0 0.66,-0.3 0.66,-0.66 v -0.43 c 0,-0.36 -0.3,-0.66 -0.66,-0.66 h -0.82 c -0.36,0 -0.66,0.3 -0.66,0.66 v 0.43 c 0,0.37 0.3,0.66 0.66,0.66 z"
   id="path1208" />
				<path
   class="st48"
   d="m 149.5,221.79 h 0.37 c 0.16,0 0.29,-0.13 0.29,-0.29 v -0.19 c 0,-0.16 -0.13,-0.29 -0.29,-0.29 h -0.37 c -0.16,0 -0.29,0.13 -0.29,0.29 v 0.19 c -0.01,0.16 0.12,0.29 0.29,0.29 z"
   id="path1210" />
			</g>
			<g
   id="g1218">
				<path
   class="st72"
   d="m 149.52,220.66 h 0.71 c 0.21,0 0.39,-0.17 0.39,-0.39 v -0.09 c 0,-0.22 -0.17,-0.39 -0.39,-0.39 h -0.71 c -0.21,0 -0.39,0.17 -0.39,0.39 v 0.09 c 0,0.22 0.18,0.39 0.39,0.39 z"
   id="path1214" />
				<path
   class="st48"
   d="m 149.88,220.33 h 0.32 c 0.1,0 0.17,-0.08 0.17,-0.17 v -0.04 c 0,-0.1 -0.08,-0.17 -0.17,-0.17 h -0.32 c -0.1,0 -0.17,0.08 -0.17,0.17 v 0.04 c 0,0.09 0.08,0.17 0.17,0.17 z"
   id="path1216" />
			</g>
			<g
   id="g1224">
				<path
   class="st73"
   d="m 152.17,218.68 1.08,-0.05 c 0.33,-0.02 0.59,-0.3 0.58,-0.64 v -0.16 c -0.01,-0.34 -0.29,-0.6 -0.62,-0.59 l -1.08,0.05 c -0.33,0.02 -0.59,0.3 -0.58,0.64 v 0.16 c 0.01,0.34 0.29,0.61 0.62,0.59 z"
   id="path1220" />
				<path
   class="st48"
   d="m 152.69,218.12 0.48,-0.02 c 0.15,-0.01 0.26,-0.14 0.26,-0.29 v -0.07 c 0,-0.15 -0.13,-0.27 -0.28,-0.26 l -0.48,0.02 c -0.15,0.01 -0.26,0.14 -0.26,0.29 v 0.07 c 0.01,0.15 0.14,0.27 0.28,0.26 z"
   id="path1222" />
			</g>
			<g
   id="g1230">
				<path
   class="st74"
   d="m 160.04,220.98 0.73,-0.03 c 0.22,-0.01 0.4,-0.22 0.39,-0.47 v -0.12 c -0.01,-0.25 -0.19,-0.44 -0.42,-0.43 l -0.73,0.03 c -0.22,0.01 -0.4,0.22 -0.39,0.47 v 0.12 c 0.01,0.24 0.2,0.44 0.42,0.43 z"
   id="path1226" />
				<path
   class="st48"
   d="m 160.39,220.57 0.32,-0.02 c 0.1,0 0.18,-0.1 0.17,-0.21 v -0.05 c 0,-0.11 -0.09,-0.2 -0.19,-0.19 l -0.32,0.02 c -0.1,0 -0.18,0.1 -0.17,0.21 v 0.05 c 0.01,0.11 0.09,0.2 0.19,0.19 z"
   id="path1228" />
			</g>
			<g
   id="g1236">
				<path
   class="st74"
   d="m 159.93,220.07 0.73,-0.03 c 0.22,-0.01 0.4,-0.22 0.39,-0.47 v -0.12 c -0.01,-0.25 -0.19,-0.44 -0.42,-0.43 l -0.73,0.03 c -0.22,0.01 -0.4,0.22 -0.39,0.47 v 0.12 c 0.01,0.25 0.2,0.44 0.42,0.43 z"
   id="path1232" />
				<path
   class="st48"
   d="m 160.28,219.67 0.32,-0.02 c 0.1,0 0.18,-0.1 0.17,-0.21 v -0.05 c 0,-0.11 -0.09,-0.2 -0.19,-0.19 l -0.32,0.02 c -0.1,0 -0.18,0.1 -0.17,0.21 v 0.05 c 0.01,0.1 0.09,0.19 0.19,0.19 z"
   id="path1234" />
			</g>
			<g
   id="g1242">
				<path
   class="st74"
   d="m 159,219.14 0.73,-0.03 c 0.22,-0.01 0.4,-0.22 0.39,-0.47 v -0.12 c -0.01,-0.25 -0.19,-0.44 -0.42,-0.43 l -0.73,0.03 c -0.22,0.01 -0.4,0.22 -0.39,0.47 v 0.12 c 0.01,0.25 0.19,0.44 0.42,0.43 z"
   id="path1238" />
				<path
   class="st48"
   d="m 159.35,218.74 0.32,-0.02 c 0.1,0 0.18,-0.1 0.17,-0.21 v -0.05 c 0,-0.11 -0.09,-0.2 -0.19,-0.19 l -0.32,0.02 c -0.1,0 -0.18,0.1 -0.17,0.21 v 0.05 c 0.01,0.11 0.09,0.19 0.19,0.19 z"
   id="path1240" />
			</g>
			<g
   id="g1248">
				<path
   class="st49"
   d="m 156.53,251.15 h -2.58 c -0.75,0 -1.36,-0.61 -1.36,-1.36 v -0.28 c 0,-0.75 0.61,-1.36 1.36,-1.36 h 2.58 c 0.75,0 1.36,0.61 1.36,1.36 v 0.28 c 0,0.75 -0.61,1.36 -1.36,1.36 z"
   id="path1244" />
				<path
   class="st48"
   d="m 155.24,250.01 h -1.15 c -0.34,0 -0.61,-0.27 -0.61,-0.61 v -0.12 c 0,-0.34 0.27,-0.61 0.61,-0.61 h 1.15 c 0.34,0 0.61,0.27 0.61,0.61 v 0.12 c 0,0.33 -0.27,0.61 -0.61,0.61 z"
   id="path1246" />
			</g>
			<g
   id="g1254">
				<path
   class="st49"
   d="m 156.53,248 h -2.58 c -0.75,0 -1.36,-0.61 -1.36,-1.36 v -0.28 c 0,-0.75 0.61,-1.36 1.36,-1.36 h 2.58 c 0.75,0 1.36,0.61 1.36,1.36 v 0.28 c 0,0.75 -0.61,1.36 -1.36,1.36 z"
   id="path1250" />
				<path
   class="st48"
   d="m 155.24,246.85 h -1.15 c -0.34,0 -0.61,-0.27 -0.61,-0.61 v -0.12 c 0,-0.34 0.27,-0.61 0.61,-0.61 h 1.15 c 0.34,0 0.61,0.27 0.61,0.61 v 0.12 c 0,0.34 -0.27,0.61 -0.61,0.61 z"
   id="path1252" />
			</g>
			<g
   id="g1260">
				<path
   class="st49"
   d="m 156.53,245.01 h -2.58 c -0.75,0 -1.36,-0.61 -1.36,-1.36 v -0.28 c 0,-0.75 0.61,-1.36 1.36,-1.36 h 2.58 c 0.75,0 1.36,0.61 1.36,1.36 v 0.28 c 0,0.75 -0.61,1.36 -1.36,1.36 z"
   id="path1256" />
				<path
   class="st48"
   d="m 155.24,243.86 h -1.15 c -0.34,0 -0.61,-0.27 -0.61,-0.61 v -0.12 c 0,-0.34 0.27,-0.61 0.61,-0.61 h 1.15 c 0.34,0 0.61,0.27 0.61,0.61 v 0.12 c 0,0.34 -0.27,0.61 -0.61,0.61 z"
   id="path1258" />
			</g>
			<g
   id="g1266">
				<path
   class="st49"
   d="m 156.53,242.17 h -2.58 c -0.75,0 -1.36,-0.61 -1.36,-1.36 v -0.28 c 0,-0.75 0.61,-1.36 1.36,-1.36 h 2.58 c 0.75,0 1.36,0.61 1.36,1.36 v 0.28 c 0,0.76 -0.61,1.36 -1.36,1.36 z"
   id="path1262" />
				<path
   class="st48"
   d="m 155.24,241.03 h -1.15 c -0.34,0 -0.61,-0.27 -0.61,-0.61 v -0.12 c 0,-0.34 0.27,-0.61 0.61,-0.61 h 1.15 c 0.34,0 0.61,0.27 0.61,0.61 v 0.12 c 0,0.34 -0.27,0.61 -0.61,0.61 z"
   id="path1264" />
			</g>
			<g
   id="g1272">
				<path
   class="st49"
   d="m 156.53,239.18 h -2.58 c -0.75,0 -1.36,-0.61 -1.36,-1.36 v -0.28 c 0,-0.75 0.61,-1.36 1.36,-1.36 h 2.58 c 0.75,0 1.36,0.61 1.36,1.36 v 0.28 c 0,0.75 -0.61,1.36 -1.36,1.36 z"
   id="path1268" />
				<path
   class="st48"
   d="m 155.24,238.03 h -1.15 c -0.34,0 -0.61,-0.27 -0.61,-0.61 v -0.12 c 0,-0.34 0.27,-0.61 0.61,-0.61 h 1.15 c 0.34,0 0.61,0.27 0.61,0.61 v 0.12 c 0,0.34 -0.27,0.61 -0.61,0.61 z"
   id="path1270" />
			</g>
			<g
   id="g1278">
				<path
   class="st49"
   d="m 156.53,236.35 h -2.58 c -0.75,0 -1.36,-0.61 -1.36,-1.36 v -0.28 c 0,-0.75 0.61,-1.36 1.36,-1.36 h 2.58 c 0.75,0 1.36,0.61 1.36,1.36 v 0.28 c 0,0.75 -0.61,1.36 -1.36,1.36 z"
   id="path1274" />
				<path
   class="st48"
   d="m 155.24,235.2 h -1.15 c -0.34,0 -0.61,-0.27 -0.61,-0.61 v -0.12 c 0,-0.34 0.27,-0.61 0.61,-0.61 h 1.15 c 0.34,0 0.61,0.27 0.61,0.61 v 0.12 c 0,0.34 -0.27,0.61 -0.61,0.61 z"
   id="path1276" />
			</g>
			<g
   id="g1284">
				<path
   class="st49"
   d="m 156.53,233.35 h -2.58 c -0.75,0 -1.36,-0.61 -1.36,-1.36 v -0.28 c 0,-0.75 0.61,-1.36 1.36,-1.36 h 2.58 c 0.75,0 1.36,0.61 1.36,1.36 V 232 c 0,0.75 -0.61,1.35 -1.36,1.35 z"
   id="path1280" />
				<path
   class="st48"
   d="m 155.24,232.21 h -1.15 c -0.34,0 -0.61,-0.27 -0.61,-0.61 v -0.12 c 0,-0.34 0.27,-0.61 0.61,-0.61 h 1.15 c 0.34,0 0.61,0.27 0.61,0.61 v 0.12 c 0,0.34 -0.27,0.61 -0.61,0.61 z"
   id="path1282" />
			</g>
			<g
   id="g1290">
				<path
   class="st49"
   d="m 156.53,230.52 h -2.58 c -0.75,0 -1.36,-0.61 -1.36,-1.36 v -0.28 c 0,-0.75 0.61,-1.36 1.36,-1.36 h 2.58 c 0.75,0 1.36,0.61 1.36,1.36 v 0.28 c 0,0.75 -0.61,1.36 -1.36,1.36 z"
   id="path1286" />
				<path
   class="st48"
   d="m 155.24,229.38 h -1.15 c -0.34,0 -0.61,-0.27 -0.61,-0.61 v -0.12 c 0,-0.34 0.27,-0.61 0.61,-0.61 h 1.15 c 0.34,0 0.61,0.27 0.61,0.61 v 0.12 c 0,0.33 -0.27,0.61 -0.61,0.61 z"
   id="path1288" />
			</g>
			<g
   id="g1296">
				<path
   class="st75"
   d="m 156.55,227.53 h -2.51 c -0.74,0 -1.35,-0.6 -1.35,-1.35 v -0.3 c 0,-0.74 0.6,-1.35 1.35,-1.35 h 2.51 c 0.74,0 1.35,0.6 1.35,1.35 v 0.3 c -0.01,0.75 -0.61,1.35 -1.35,1.35 z"
   id="path1292" />
				<path
   class="st48"
   d="m 155.28,226.38 h -1.12 c -0.33,0 -0.6,-0.27 -0.6,-0.6 v -0.13 c 0,-0.33 0.27,-0.6 0.6,-0.6 h 1.12 c 0.33,0 0.6,0.27 0.6,0.6 v 0.13 c 0.01,0.33 -0.26,0.6 -0.6,0.6 z"
   id="path1294" />
			</g>
			<g
   id="g1302">
				<path
   class="st76"
   d="m 156.33,224.57 h -2.23 c -0.63,0 -1.14,-0.51 -1.14,-1.14 v -0.2 c 0,-0.63 0.51,-1.14 1.14,-1.14 h 2.23 c 0.63,0 1.14,0.51 1.14,1.14 v 0.2 c 0,0.63 -0.51,1.14 -1.14,1.14 z"
   id="path1298" />
				<path
   class="st48"
   d="m 155.22,223.62 h -1 c -0.28,0 -0.51,-0.23 -0.51,-0.51 v -0.09 c 0,-0.28 0.23,-0.51 0.51,-0.51 h 1 c 0.28,0 0.51,0.23 0.51,0.51 v 0.09 c 0,0.28 -0.23,0.51 -0.51,0.51 z"
   id="path1300" />
			</g>
			<g
   id="g1308">
				<path
   class="st77"
   d="m 156.11,222.12 h -1.9 c -0.51,0 -0.92,-0.41 -0.92,-0.92 v -0.1 c 0,-0.51 0.41,-0.92 0.92,-0.92 h 1.9 c 0.51,0 0.92,0.41 0.92,0.92 v 0.1 c -0.01,0.51 -0.42,0.92 -0.92,0.92 z"
   id="path1304" />
				<path
   class="st48"
   d="m 155.17,221.38 h -0.85 c -0.23,0 -0.41,-0.18 -0.41,-0.41 v -0.05 c 0,-0.23 0.18,-0.41 0.41,-0.41 h 0.85 c 0.23,0 0.41,0.18 0.41,0.41 v 0.05 c 0,0.23 -0.18,0.41 -0.41,0.41 z"
   id="path1306" />
			</g>
			<g
   id="g1314">
				<path
   class="st78"
   d="m 156.12,220.11 h -1.39 c -0.44,0 -0.79,-0.35 -0.79,-0.79 v -0.22 c 0,-0.44 0.35,-0.79 0.79,-0.79 h 1.39 c 0.44,0 0.79,0.35 0.79,0.79 v 0.22 c 0,0.44 -0.35,0.79 -0.79,0.79 z"
   id="path1310" />
				<path
   class="st48"
   d="m 155.41,219.42 h -0.62 c -0.19,0 -0.35,-0.16 -0.35,-0.35 v -0.1 c 0,-0.19 0.16,-0.35 0.35,-0.35 h 0.62 c 0.19,0 0.35,0.16 0.35,0.35 v 0.1 c 0,0.2 -0.15,0.35 -0.35,0.35 z"
   id="path1312" />
			</g>
			<g
   id="g1320">
				<path
   class="st79"
   d="m 155.81,218.31 h -1.41 c -0.33,0 -0.59,-0.27 -0.59,-0.59 v 0 c 0,-0.33 0.27,-0.59 0.59,-0.59 h 1.41 c 0.33,0 0.59,0.27 0.59,0.59 v 0 c 0,0.33 -0.26,0.59 -0.59,0.59 z"
   id="path1316" />
				<path
   class="st48"
   d="m 155.14,217.86 h -0.63 c -0.15,0 -0.27,-0.12 -0.27,-0.27 v 0 c 0,-0.15 0.12,-0.27 0.27,-0.27 h 0.63 c 0.15,0 0.27,0.12 0.27,0.27 v 0 c -0.01,0.15 -0.13,0.27 -0.27,0.27 z"
   id="path1318" />
			</g>
			<path
   class="st80"
   d="m 149.11,269.56 c 0,0 -5.81,-38.29 0.34,-58 0,0 -17.39,39.06 -2.91,58.06 z"
   id="path1322" />
			<path
   class="st81"
   d="m 156.62,279.21 c 0,0 -9.32,-7.41 -11.09,-23.73 -1.77,-16.32 -6.95,-19.95 -12,-23.32 0,0 8.81,14.96 7,26.59 -1.81,11.63 2.17,26.23 13.72,26.38 z"
   id="path1324" />
			<path
   class="st80"
   d="m 161.08,268.95 c 0,0 2.56,-11.78 2.66,-25.03 0.1,-14.39 -2.29,-30.48 -3.29,-33.72 0,0 13.27,27.19 4.9,50.62 -8.38,23.42 -4.27,8.13 -4.27,8.13 z"
   id="path1326" />
			<path
   class="st82"
   d="m 152.89,284.96 c 0,0 1.41,-9.32 5.95,-16.05 3,-4.44 4.96,-9.51 5.6,-14.83 0.19,-1.56 0.27,-2.94 0.17,-3.82 -0.39,-3.47 5.83,-13.83 11.92,-18.76 0,0 -8.42,16.63 -6.48,26.97 1.95,10.35 -0.51,29.03 -17.16,26.49 z"
   id="path1328" />
		</g>
		<rect
   x="117.53"
   y="210.2"
   class="st4"
   width="75"
   height="75"
   id="rect1332" />
	</g>
	
	
	
	
	
	
	
</g>
</svg>
