<?xml version="1.0" encoding="UTF-8" standalone="no"?>
<svg
   xmlns:dc="http://purl.org/dc/elements/1.1/"
   xmlns:cc="http://creativecommons.org/ns#"
   xmlns:rdf="http://www.w3.org/1999/02/22-rdf-syntax-ns#"
   xmlns:svg="http://www.w3.org/2000/svg"
   xmlns="http://www.w3.org/2000/svg"
   xmlns:sodipodi="http://sodipodi.sourceforge.net/DTD/sodipodi-0.dtd"
   xmlns:inkscape="http://www.inkscape.org/namespaces/inkscape"
   version="1.1"
   id="katman_1"
   x="0px"
   y="0px"
   viewBox="0 0 75.004913 75"
   xml:space="preserve"
   sodipodi:docname="cucumber.svg"
   width="75.004913"
   height="75"
   inkscape:version="1.0.1 (3bc2e813f5, 2020-09-07)"><metadata
   id="metadata1883"><rdf:RDF><cc:Work
       rdf:about=""><dc:format>image/svg+xml</dc:format><dc:type
         rdf:resource="http://purl.org/dc/dcmitype/StillImage" /><dc:title></dc:title></cc:Work></rdf:RDF></metadata><defs
   id="defs1881" /><sodipodi:namedview
   pagecolor="#ffffff"
   bordercolor="#666666"
   borderopacity="1"
   objecttolerance="10"
   gridtolerance="10"
   guidetolerance="10"
   inkscape:pageopacity="0"
   inkscape:pageshadow="2"
   inkscape:window-width="1718"
   inkscape:window-height="1368"
   id="namedview1879"
   showgrid="false"
   fit-margin-top="0"
   fit-margin-left="0"
   fit-margin-right="0"
   fit-margin-bottom="0"
   inkscape:zoom="2.216"
   inkscape:cx="37.2"
   inkscape:cy="85.879992"
   inkscape:window-x="1713"
   inkscape:window-y="0"
   inkscape:window-maximized="0"
   inkscape:current-layer="g1876" />
<style
   type="text/css"
   id="style2">
	.st0{fill:#F40303;}
	.st1{fill:#4E9B04;}
	.st2{opacity:0.1;}
	.st3{opacity:0.15;fill:#FFFFFF;}
	.st4{fill:none;}
	.st5{fill:#DF0000;}
	.st6{fill:#41A500;}
	.st7{opacity:0.1;fill:#231F20;}
	.st8{fill:#84C100;}
	.st9{fill:#F86107;}
	.st10{opacity:0.07;}
	.st11{opacity:0.2;fill:#FFFFFF;}
	.st12{fill:#E55107;}
	.st13{fill:#E61206;}
	.st14{fill:#0D5C00;}
	.st15{fill:#27AB3B;}
	.st16{fill:#09913C;}
	.st17{fill:#E6012C;}
	.st18{fill:#680756;}
	.st19{fill:#74990D;}
	.st20{fill:#B22483;}
	.st21{fill:#43BC48;}
	.st22{fill:#2EAF2E;}
	.st23{fill:#8D1E60;}
	.st24{fill:#753D24;}
	.st25{fill:#348801;}
	.st26{fill:#2C7005;}
	.st27{fill:#63AB16;}
	.st28{fill:#8EBA24;}
	.st29{fill:#3B7524;}
	.st30{fill:#B4D459;}
	.st31{opacity:0.2;fill:#B4D459;}
	.st32{fill:#FEB544;}
	.st33{opacity:0.1;fill:#CE863A;}
	.st34{fill:#CE863A;}
	.st35{fill:#57BF44;}
	.st36{fill:#BBFF96;}
	.st37{fill:#DFFFAA;}
	.st38{fill:#39AA50;}
	.st39{fill:#5DD166;}
	.st40{fill:#8FDC50;}
	.st41{fill:#29602E;}
	.st42{fill:#8CD13D;}
	.st43{fill:#24892E;}
	.st44{fill:#15441A;}
	.st45{fill:#699E25;}
	.st46{fill:#4A8912;}
	.st47{fill:#FCD30B;}
	.st48{fill:#FFE36C;}
	.st49{fill:#FCD30B;stroke:#ED5100;stroke-width:0.0803;stroke-miterlimit:10;}
	.st50{fill:#FCD30B;stroke:#ED5100;stroke-width:0.0749;stroke-miterlimit:10;}
	.st51{fill:#FCD30B;stroke:#ED5100;stroke-width:0.0709;stroke-miterlimit:10;}
	.st52{fill:#FCD30B;stroke:#ED5100;stroke-width:0.0592;stroke-miterlimit:10;}
	.st53{fill:#FCD30B;stroke:#ED5100;stroke-width:0.0529;stroke-miterlimit:10;}
	.st54{fill:#FCD30B;stroke:#ED5100;stroke-width:0.0474;stroke-miterlimit:10;}
	.st55{fill:#FCD30B;stroke:#ED5100;stroke-width:0.0447;stroke-miterlimit:10;}
	.st56{fill:#FCD30B;stroke:#ED5100;stroke-width:0.0607;stroke-miterlimit:10;}
	.st57{fill:#FCD30B;stroke:#ED5100;stroke-width:0.0574;stroke-miterlimit:10;}
	.st58{fill:#FCD30B;stroke:#ED5100;stroke-width:0.0479;stroke-miterlimit:10;}
	.st59{fill:#FCD30B;stroke:#ED5100;stroke-width:0.0402;stroke-miterlimit:10;}
	.st60{fill:#FCD30B;stroke:#ED5100;stroke-width:0.0362;stroke-miterlimit:10;}
	.st61{fill:#FCD30B;stroke:#ED5100;stroke-width:0.033;stroke-miterlimit:10;}
	.st62{fill:#FCD30B;stroke:#ED5100;stroke-width:0.0788;stroke-miterlimit:10;}
	.st63{fill:#FCD30B;stroke:#ED5100;stroke-width:0.0766;stroke-miterlimit:10;}
	.st64{fill:#FCD30B;stroke:#ED5100;stroke-width:0.0793;stroke-miterlimit:10;}
	.st65{fill:#FCD30B;stroke:#ED5100;stroke-width:0.0791;stroke-miterlimit:10;}
	.st66{fill:#FCD30B;stroke:#ED5100;stroke-width:0.0796;stroke-miterlimit:10;}
	.st67{fill:#FCD30B;stroke:#ED5100;stroke-width:0.0635;stroke-miterlimit:10;}
	.st68{fill:#FCD30B;stroke:#ED5100;stroke-width:0.0533;stroke-miterlimit:10;}
	.st69{fill:#FCD30B;stroke:#ED5100;stroke-width:0.0498;stroke-miterlimit:10;}
	.st70{fill:#FCD30B;stroke:#ED5100;stroke-width:0.0329;stroke-miterlimit:10;}
	.st71{fill:#FCD30B;stroke:#ED5100;stroke-width:0.0389;stroke-miterlimit:10;}
	.st72{fill:#FCD30B;stroke:#ED5100;stroke-width:0.023;stroke-miterlimit:10;}
	.st73{fill:#FCD30B;stroke:#ED5100;stroke-width:0.0359;stroke-miterlimit:10;}
	.st74{fill:#FCD30B;stroke:#ED5100;stroke-width:0.0251;stroke-miterlimit:10;}
	.st75{fill:#FCD30B;stroke:#ED5100;stroke-width:0.0795;stroke-miterlimit:10;}
	.st76{fill:#FCD30B;stroke:#ED5100;stroke-width:0.0675;stroke-miterlimit:10;}
	.st77{fill:#FCD30B;stroke:#ED5100;stroke-width:0.0543;stroke-miterlimit:10;}
	.st78{fill:#FCD30B;stroke:#ED5100;stroke-width:0.0466;stroke-miterlimit:10;}
	.st79{fill:#FCD30B;stroke:#ED5100;stroke-width:0.0354;stroke-miterlimit:10;}
	.st80{fill:#489B0B;}
	.st81{fill:#72B236;}
	.st82{fill:#62A428;}
	.st83{fill:#528E2A;}
	.st84{fill:#92BC4C;}
	.st85{fill:#569B30;}
	.st86{fill:#E2C3A4;stroke:#A97D60;stroke-width:0.2737;stroke-miterlimit:10;}
	.st87{fill:#EFE3D3;stroke:#A97D60;stroke-width:0.3649;stroke-linecap:round;stroke-linejoin:round;stroke-miterlimit:10;}
	.st88{fill:#9D6B50;}
	.st89{fill:#E2C19E;}
	.st90{fill:#A16038;}
	.st91{fill:#DFC298;}
	.st92{fill:#EEE4BF;}
	.st93{fill:#D3B689;}
	.st94{fill:#689D34;}
	.st95{fill:#A5BC81;}
	.st96{fill:#DED6A8;}
	.st97{fill:#F4EDDA;}
	.st98{fill:#FF7900;stroke:#DB4900;stroke-width:0.5055;stroke-linecap:round;stroke-linejoin:round;stroke-miterlimit:10;}
	.st99{fill:none;stroke:#DB4900;stroke-width:0.5055;stroke-linecap:round;stroke-linejoin:round;stroke-miterlimit:10;}
	.st100{fill:#2E4819;}
	.st101{fill:#85BB19;}
	.st102{fill:#B2DC55;stroke:#A2C63C;stroke-width:0.2575;stroke-miterlimit:10;}
	.st103{fill:#86CE2C;}
	.st104{fill:#86CE2C;stroke:#72AA1A;stroke-width:0.1884;stroke-linecap:round;stroke-linejoin:round;stroke-miterlimit:10;}
	.st105{opacity:0.6;fill:#DDE68D;}
	.st106{opacity:0.6;}
	.st107{fill:#DDE68D;}
	.st108{fill:#86CE2C;stroke:#72AA1A;stroke-width:0.208;stroke-linecap:round;stroke-linejoin:round;stroke-miterlimit:10;}
</style>
<g
   id="g1876"
   transform="translate(-212.8,-114.12)">
	
	
	
	
	
	
	
	<g
   id="g332">
		<g
   id="g328">
			<g
   id="g320">
				<path
   class="st25"
   d="m 286.33,170.78 c -1.63,1.89 -4.27,2.9 -6.12,2.66 -2.19,-0.29 -9.24,-2.16 -12.19,-3.5 -2.09,-0.95 -14.4,-6.37 -14.4,-6.37 l -10.46,-4.85 c 0,0 -13.1,-6.08 -16.59,-8.57 -2.05,-1.46 -5.01,-3.85 -6.77,-6.56 -1.24,-1.9 -1.89,-3.96 -1.23,-5.96 0.2,-0.6 0.4,-1.14 0.59,-1.61 0.47,-1.17 0.9,-1.97 1.26,-2.51 0.67,-1 1.1,-1.14 1.1,-1.14 0,0 2.15,-2 6.58,-1.57 1.63,0.16 3.22,0.63 4.7,1.35 2.03,1 5.9,2.93 7.04,3.75 2.04,1.47 12.31,7.32 12.31,7.32 l 18.49,9.07 c 0,0 13.78,6.12 16.5,11.91 1.25,2.68 0.6,4.95 -0.81,6.58 z"
   id="path288" />
				<path
   class="st26"
   d="m 213.41,131.64 c -1.06,-0.63 -0.51,-1.32 0.03,-1.76 0,0 0,0 0.01,-0.01 0.24,-0.19 0.71,-0.1 0.96,0.09 0.88,0.66 2.99,2.2 3.63,2.36 0.55,0.13 1.6,0.68 2.34,1.15 0.41,0.26 0.87,0.44 1.34,0.58 0.43,0.13 0.8,0.48 0.03,1.44 -0.3,0.38 -0.55,0.68 -0.76,0.92 -0.44,0.5 -1.22,0.44 -1.59,-0.11 -0.2,-0.29 -0.53,-0.66 -1.09,-1.1 -1.23,-0.95 -3.23,-2.57 -4.9,-3.56 z"
   id="path290" />
				<g
   id="g294">
					<path
   class="st27"
   d="m 284.92,171.11 c -1.37,-0.06 -2.7,-0.46 -4.03,-0.76 -1.33,-0.33 -2.65,-0.68 -3.97,-1.05 -2.63,-0.75 -5.25,-1.57 -7.85,-2.44 -2.6,-0.87 -5.17,-1.82 -7.69,-2.93 -2.5,-1.16 -4.94,-2.37 -7.4,-3.57 -4.9,-2.45 -9.79,-4.91 -14.62,-7.48 -2.41,-1.29 -4.82,-2.6 -7.2,-3.96 -1.19,-0.69 -2.36,-1.39 -3.53,-2.11 -1.16,-0.73 -2.32,-1.46 -3.36,-2.36 1.07,0.86 2.26,1.54 3.44,2.23 1.19,0.68 2.39,1.33 3.6,1.97 2.41,1.3 4.84,2.56 7.27,3.8 4.88,2.48 9.76,4.94 14.68,7.35 2.45,1.21 4.9,2.45 7.36,3.62 2.48,1.13 5.05,2.06 7.62,3 2.57,0.92 5.17,1.78 7.78,2.6 1.3,0.41 2.61,0.82 3.92,1.19 1.31,0.34 2.62,0.79 3.98,0.9 z"
   id="path292" />
				</g>
				<g
   id="g298">
					<path
   class="st27"
   d="m 228.1,135.16 c 2.44,1.32 4.93,2.53 7.41,3.78 l 7.42,3.75 14.83,7.54 c 2.47,1.28 4.93,2.51 7.4,3.82 2.42,1.39 4.77,2.86 7.1,4.37 4.65,3.02 9.27,6.1 13.77,9.34 -2.31,-1.54 -4.66,-3.01 -7,-4.49 -2.34,-1.49 -4.68,-2.97 -7.04,-4.43 -2.36,-1.45 -4.71,-2.93 -7.11,-4.28 -2.43,-1.28 -4.95,-2.5 -7.4,-3.77 -4.92,-2.55 -9.86,-5.08 -14.76,-7.68 -4.91,-2.6 -9.82,-5.18 -14.62,-7.95 z"
   id="path296" />
				</g>
				<g
   id="g302">
					<path
   class="st27"
   d="m 222.19,134.65 c 0.34,-0.07 0.69,-0.2 1.05,-0.23 0.36,-0.05 0.72,-0.06 1.08,-0.04 0.36,0.03 0.72,0.08 1.08,0.2 0.35,0.11 0.7,0.3 0.95,0.58 -0.37,-0.07 -0.7,-0.07 -1.04,-0.1 l -1.02,-0.05 c -0.34,-0.03 -0.69,-0.05 -1.04,-0.1 -0.36,-0.05 -0.73,-0.08 -1.06,-0.26 z"
   id="path300" />
				</g>
				<g
   id="g306">
					<path
   class="st27"
   d="m 222.19,133.8 c 0.39,-0.71 0.96,-1.26 1.61,-1.71 0.33,-0.22 0.68,-0.42 1.06,-0.55 0.38,-0.14 0.8,-0.21 1.2,-0.12 -0.37,0.15 -0.67,0.37 -0.99,0.56 -0.31,0.2 -0.62,0.41 -0.92,0.62 -0.62,0.42 -1.23,0.86 -1.96,1.2 z"
   id="path304" />
				</g>
				<g
   id="g310">
					<path
   class="st27"
   d="m 219.93,136.76 c -0.13,0.97 -0.25,1.88 -0.24,2.79 0,0.91 0.17,1.77 0.52,2.7 -0.36,-0.32 -0.69,-0.73 -0.86,-1.21 -0.19,-0.47 -0.28,-0.98 -0.29,-1.48 0.01,-1 0.28,-2 0.87,-2.8 z"
   id="path308" />
				</g>
				<g
   id="g314">
					<path
   class="st27"
   d="m 286.66,169.76 c -5.52,-1.27 -10.72,-3.62 -15.88,-5.93 -5.14,-2.37 -10.18,-4.95 -15.2,-7.54 -5,-2.65 -9.97,-5.35 -14.89,-8.13 l -7.36,-4.22 -7.28,-4.35 14.87,8.14 c 4.97,2.69 9.93,5.39 14.95,8 5,2.64 10.03,5.21 15.12,7.66 2.55,1.21 5.1,2.42 7.71,3.51 2.59,1.13 5.23,2.12 7.96,2.86 z"
   id="path312" />
				</g>
				<g
   id="g318">
					<path
   class="st27"
   d="m 221.26,136.1 c 0.54,0.35 0.95,0.77 1.36,1.17 l 0.6,0.62 c 0.21,0.2 0.39,0.41 0.65,0.61 -0.33,0.04 -0.66,-0.06 -0.94,-0.21 -0.29,-0.15 -0.53,-0.35 -0.76,-0.57 -0.43,-0.45 -0.78,-0.98 -0.91,-1.62 z"
   id="path316" />
				</g>
			</g>
			<path
   class="st2"
   d="m 286.33,170.78 c -1.63,1.89 -4.27,2.9 -6.12,2.66 -2.19,-0.29 -9.24,-2.16 -12.19,-3.5 -2.09,-0.95 -14.4,-6.37 -14.4,-6.37 l -10.46,-4.85 c 0,0 -13.1,-6.08 -16.59,-8.57 -2.05,-1.46 -5.01,-3.85 -6.77,-6.56 v 0 c 0,0 56.03,31.74 66.53,27.19 0,0 0,0 0,0 z"
   id="path322" />
			
				<ellipse
   transform="matrix(0.4241,-0.9056,0.9056,0.4241,12.8671,289.5329)"
   class="st11"
   cx="234.08"
   cy="134.64999"
   rx="1.15"
   ry="3.9100001"
   id="ellipse324" />
			
				<ellipse
   transform="matrix(0.4241,-0.9056,0.9056,0.4241,13.433,296.3902)"
   class="st11"
   cx="239.75"
   cy="137.63"
   rx="0.50999999"
   ry="1.74"
   id="ellipse326" />
		</g>
		<rect
   x="212.8"
   y="114.12"
   class="st4"
   width="75"
   height="75"
   id="rect330" />
	</g>
	
	
	
	
	
	
	
	
	
	
	
	
</g>
</svg>
