<?xml version="1.0" encoding="UTF-8" standalone="no"?>
<svg
   xmlns:dc="http://purl.org/dc/elements/1.1/"
   xmlns:cc="http://creativecommons.org/ns#"
   xmlns:rdf="http://www.w3.org/1999/02/22-rdf-syntax-ns#"
   xmlns:svg="http://www.w3.org/2000/svg"
   xmlns="http://www.w3.org/2000/svg"
   xmlns:sodipodi="http://sodipodi.sourceforge.net/DTD/sodipodi-0.dtd"
   xmlns:inkscape="http://www.inkscape.org/namespaces/inkscape"
   version="1.1"
   id="katman_1"
   x="0px"
   y="0px"
   viewBox="0 0 74.999999 75.318985"
   xml:space="preserve"
   sodipodi:docname="garlic.svg"
   width="75"
   height="75.318985"
   inkscape:version="1.0.1 (3bc2e813f5, 2020-09-07)"><metadata
   id="metadata1883"><rdf:RDF><cc:Work
       rdf:about=""><dc:format>image/svg+xml</dc:format><dc:type
         rdf:resource="http://purl.org/dc/dcmitype/StillImage" /><dc:title></dc:title></cc:Work></rdf:RDF></metadata><defs
   id="defs1881" /><sodipodi:namedview
   pagecolor="#ffffff"
   bordercolor="#666666"
   borderopacity="1"
   objecttolerance="10"
   gridtolerance="10"
   guidetolerance="10"
   inkscape:pageopacity="0"
   inkscape:pageshadow="2"
   inkscape:window-width="1718"
   inkscape:window-height="1368"
   id="namedview1879"
   showgrid="false"
   fit-margin-top="0"
   fit-margin-left="0"
   fit-margin-right="0"
   fit-margin-bottom="0"
   inkscape:zoom="2.216"
   inkscape:cx="-58.079987"
   inkscape:cy="-10.007558"
   inkscape:window-x="1713"
   inkscape:window-y="0"
   inkscape:window-maximized="0"
   inkscape:current-layer="g1876" />
<style
   type="text/css"
   id="style2">
	.st0{fill:#F40303;}
	.st1{fill:#4E9B04;}
	.st2{opacity:0.1;}
	.st3{opacity:0.15;fill:#FFFFFF;}
	.st4{fill:none;}
	.st5{fill:#DF0000;}
	.st6{fill:#41A500;}
	.st7{opacity:0.1;fill:#231F20;}
	.st8{fill:#84C100;}
	.st9{fill:#F86107;}
	.st10{opacity:0.07;}
	.st11{opacity:0.2;fill:#FFFFFF;}
	.st12{fill:#E55107;}
	.st13{fill:#E61206;}
	.st14{fill:#0D5C00;}
	.st15{fill:#27AB3B;}
	.st16{fill:#09913C;}
	.st17{fill:#E6012C;}
	.st18{fill:#680756;}
	.st19{fill:#74990D;}
	.st20{fill:#B22483;}
	.st21{fill:#43BC48;}
	.st22{fill:#2EAF2E;}
	.st23{fill:#8D1E60;}
	.st24{fill:#753D24;}
	.st25{fill:#348801;}
	.st26{fill:#2C7005;}
	.st27{fill:#63AB16;}
	.st28{fill:#8EBA24;}
	.st29{fill:#3B7524;}
	.st30{fill:#B4D459;}
	.st31{opacity:0.2;fill:#B4D459;}
	.st32{fill:#FEB544;}
	.st33{opacity:0.1;fill:#CE863A;}
	.st34{fill:#CE863A;}
	.st35{fill:#57BF44;}
	.st36{fill:#BBFF96;}
	.st37{fill:#DFFFAA;}
	.st38{fill:#39AA50;}
	.st39{fill:#5DD166;}
	.st40{fill:#8FDC50;}
	.st41{fill:#29602E;}
	.st42{fill:#8CD13D;}
	.st43{fill:#24892E;}
	.st44{fill:#15441A;}
	.st45{fill:#699E25;}
	.st46{fill:#4A8912;}
	.st47{fill:#FCD30B;}
	.st48{fill:#FFE36C;}
	.st49{fill:#FCD30B;stroke:#ED5100;stroke-width:0.0803;stroke-miterlimit:10;}
	.st50{fill:#FCD30B;stroke:#ED5100;stroke-width:0.0749;stroke-miterlimit:10;}
	.st51{fill:#FCD30B;stroke:#ED5100;stroke-width:0.0709;stroke-miterlimit:10;}
	.st52{fill:#FCD30B;stroke:#ED5100;stroke-width:0.0592;stroke-miterlimit:10;}
	.st53{fill:#FCD30B;stroke:#ED5100;stroke-width:0.0529;stroke-miterlimit:10;}
	.st54{fill:#FCD30B;stroke:#ED5100;stroke-width:0.0474;stroke-miterlimit:10;}
	.st55{fill:#FCD30B;stroke:#ED5100;stroke-width:0.0447;stroke-miterlimit:10;}
	.st56{fill:#FCD30B;stroke:#ED5100;stroke-width:0.0607;stroke-miterlimit:10;}
	.st57{fill:#FCD30B;stroke:#ED5100;stroke-width:0.0574;stroke-miterlimit:10;}
	.st58{fill:#FCD30B;stroke:#ED5100;stroke-width:0.0479;stroke-miterlimit:10;}
	.st59{fill:#FCD30B;stroke:#ED5100;stroke-width:0.0402;stroke-miterlimit:10;}
	.st60{fill:#FCD30B;stroke:#ED5100;stroke-width:0.0362;stroke-miterlimit:10;}
	.st61{fill:#FCD30B;stroke:#ED5100;stroke-width:0.033;stroke-miterlimit:10;}
	.st62{fill:#FCD30B;stroke:#ED5100;stroke-width:0.0788;stroke-miterlimit:10;}
	.st63{fill:#FCD30B;stroke:#ED5100;stroke-width:0.0766;stroke-miterlimit:10;}
	.st64{fill:#FCD30B;stroke:#ED5100;stroke-width:0.0793;stroke-miterlimit:10;}
	.st65{fill:#FCD30B;stroke:#ED5100;stroke-width:0.0791;stroke-miterlimit:10;}
	.st66{fill:#FCD30B;stroke:#ED5100;stroke-width:0.0796;stroke-miterlimit:10;}
	.st67{fill:#FCD30B;stroke:#ED5100;stroke-width:0.0635;stroke-miterlimit:10;}
	.st68{fill:#FCD30B;stroke:#ED5100;stroke-width:0.0533;stroke-miterlimit:10;}
	.st69{fill:#FCD30B;stroke:#ED5100;stroke-width:0.0498;stroke-miterlimit:10;}
	.st70{fill:#FCD30B;stroke:#ED5100;stroke-width:0.0329;stroke-miterlimit:10;}
	.st71{fill:#FCD30B;stroke:#ED5100;stroke-width:0.0389;stroke-miterlimit:10;}
	.st72{fill:#FCD30B;stroke:#ED5100;stroke-width:0.023;stroke-miterlimit:10;}
	.st73{fill:#FCD30B;stroke:#ED5100;stroke-width:0.0359;stroke-miterlimit:10;}
	.st74{fill:#FCD30B;stroke:#ED5100;stroke-width:0.0251;stroke-miterlimit:10;}
	.st75{fill:#FCD30B;stroke:#ED5100;stroke-width:0.0795;stroke-miterlimit:10;}
	.st76{fill:#FCD30B;stroke:#ED5100;stroke-width:0.0675;stroke-miterlimit:10;}
	.st77{fill:#FCD30B;stroke:#ED5100;stroke-width:0.0543;stroke-miterlimit:10;}
	.st78{fill:#FCD30B;stroke:#ED5100;stroke-width:0.0466;stroke-miterlimit:10;}
	.st79{fill:#FCD30B;stroke:#ED5100;stroke-width:0.0354;stroke-miterlimit:10;}
	.st80{fill:#489B0B;}
	.st81{fill:#72B236;}
	.st82{fill:#62A428;}
	.st83{fill:#528E2A;}
	.st84{fill:#92BC4C;}
	.st85{fill:#569B30;}
	.st86{fill:#E2C3A4;stroke:#A97D60;stroke-width:0.2737;stroke-miterlimit:10;}
	.st87{fill:#EFE3D3;stroke:#A97D60;stroke-width:0.3649;stroke-linecap:round;stroke-linejoin:round;stroke-miterlimit:10;}
	.st88{fill:#9D6B50;}
	.st89{fill:#E2C19E;}
	.st90{fill:#A16038;}
	.st91{fill:#DFC298;}
	.st92{fill:#EEE4BF;}
	.st93{fill:#D3B689;}
	.st94{fill:#689D34;}
	.st95{fill:#A5BC81;}
	.st96{fill:#DED6A8;}
	.st97{fill:#F4EDDA;}
	.st98{fill:#FF7900;stroke:#DB4900;stroke-width:0.5055;stroke-linecap:round;stroke-linejoin:round;stroke-miterlimit:10;}
	.st99{fill:none;stroke:#DB4900;stroke-width:0.5055;stroke-linecap:round;stroke-linejoin:round;stroke-miterlimit:10;}
	.st100{fill:#2E4819;}
	.st101{fill:#85BB19;}
	.st102{fill:#B2DC55;stroke:#A2C63C;stroke-width:0.2575;stroke-miterlimit:10;}
	.st103{fill:#86CE2C;}
	.st104{fill:#86CE2C;stroke:#72AA1A;stroke-width:0.1884;stroke-linecap:round;stroke-linejoin:round;stroke-miterlimit:10;}
	.st105{opacity:0.6;fill:#DDE68D;}
	.st106{opacity:0.6;}
	.st107{fill:#DDE68D;}
	.st108{fill:#86CE2C;stroke:#72AA1A;stroke-width:0.208;stroke-linecap:round;stroke-linejoin:round;stroke-miterlimit:10;}
</style>
<g
   id="g1876"
   transform="translate(-308.07999,-210.00755)">
	
	
	
	
	
	
	
	
	
	
	
	
	
	
	<g
   id="g1484">
		<g
   id="g1480">
			<g
   id="g1474">
				<path
   class="st86"
   d="m 354.5,280.26 c 0,0 1.75,2.23 0,2.75 -1.75,0.52 -1.75,-0.07 -3.85,-0.18 -0.61,-0.03 -1.03,0.63 -1.58,0.72 -0.61,0.1 -0.83,-1.26 -1.31,-1.01 -0.64,0.33 -1.62,0.73 -2.19,0.33 -1.08,-0.76 -2.25,1.32 -2.92,0.46 -0.67,-0.86 -0.17,1.75 -2,0.31 -1.83,-1.43 -4.2,3.71 -4.72,0.44 -0.52,-3.27 2.36,-6.6 2.36,-6.6 l 15.4,-4.44 z"
   id="path1450" />
				<g
   id="g1472">
					<path
   class="st87"
   d="m 347.43,279.37 c 0,0 12.02,4.14 18.03,-4.14 0,0 1.74,-0.36 4.07,-1.39 9.5,-4.2 13.9,-15.33 9.66,-24.82 -0.92,-2.05 -2.25,-4.04 -4.19,-5.63 -6.98,-5.72 -17.35,-8.48 -19.2,-9.95 -1.53,-1.22 -3.65,-0.95 -6.08,-9.82 0,0 -0.65,-4.53 -0.93,-7.91 -0.12,-1.42 -0.92,-2.68 -2.15,-3.39 -1.7,-0.97 -4.21,-2.13 -6.55,-2.13 -1.95,0 -3.46,1.71 -3.27,3.65 0.14,1.39 0.57,3.42 1.61,6.37 2.82,8.01 -1.97,12.35 -1.97,12.35 0,0 -7.41,5.83 -10.31,7.39 -2.13,1.14 -13.89,7.98 -15.17,13.89 -1.05,4.87 -1.44,11.8 4.06,16.68 1.64,1.46 3.61,2.51 5.71,3.14 1.03,0.31 2.47,0.88 3.44,1.85 1.68,1.68 9.75,6.8 17.05,4.88 -0.01,0.01 4.86,-0.81 6.19,-1.02 z"
   id="path1452" />
					<g
   id="g1456">
						<path
   class="st88"
   d="m 321.84,274.06 c -1.37,-2.92 -2.15,-6.12 -2.48,-9.35 -0.33,-3.24 -0.06,-6.54 0.72,-9.72 0.88,-3.15 2.33,-6.15 4.32,-8.74 2.02,-2.56 4.47,-4.75 7.2,-6.47 -2.51,2.02 -4.79,4.3 -6.64,6.88 -0.87,1.32 -1.74,2.65 -2.4,4.1 -0.67,1.44 -1.21,2.93 -1.61,4.45 -0.83,3.05 -1.08,6.25 -0.91,9.43 0.08,1.59 0.28,3.18 0.59,4.75 0.28,1.59 0.69,3.14 1.21,4.67 z"
   id="path1454" />
					</g>
					<g
   id="g1460">
						<path
   class="st88"
   d="m 365.47,275.23 c 0.5,-1.61 0.88,-3.25 1.16,-4.9 0.3,-1.65 0.5,-3.31 0.59,-4.98 0.19,-3.33 0.02,-6.69 -0.78,-9.91 -0.7,-3.24 -2.05,-6.33 -3.87,-9.11 -0.92,-1.39 -1.94,-2.71 -3.11,-3.91 -1.11,-1.25 -2.4,-2.33 -3.69,-3.42 2.83,1.83 5.39,4.15 7.37,6.93 2,2.77 3.39,5.97 4.18,9.3 0.75,3.34 0.93,6.79 0.58,10.17 -0.34,3.38 -1.1,6.73 -2.43,9.83 z"
   id="path1458" />
					</g>
					<g
   id="g1464">
						<path
   class="st88"
   d="m 347.43,279.37 c -0.66,-3.18 -1.17,-6.38 -1.61,-9.59 -0.45,-3.21 -0.76,-6.44 -1.05,-9.67 -0.22,-3.24 -0.39,-6.48 -0.37,-9.73 0.04,-3.24 0.2,-6.53 1.07,-9.67 -0.09,0.81 -0.23,1.6 -0.29,2.41 -0.04,0.81 -0.1,1.61 -0.11,2.42 l -0.03,2.42 0.06,2.42 c 0.12,3.22 0.28,6.45 0.58,9.67 0.22,3.22 0.54,6.44 0.84,9.66 z"
   id="path1462" />
					</g>
					<path
   class="st89"
   d="m 339.75,212.15 c -0.7,0 -0.93,0.93 -0.32,1.26 2.03,1.1 5.32,2.69 6.59,2.16 1.61,-0.66 -2.38,-3.42 -6.27,-3.42 z"
   id="path1466" />
					<g
   id="g1470">
						<path
   class="st88"
   d="m 335.91,244.12 c -0.62,1.44 -1.2,2.89 -1.67,4.38 -0.51,1.47 -0.95,2.97 -1.32,4.48 -0.75,3.02 -1.29,6.09 -1.46,9.18 -0.29,3.09 0,6.2 0.5,9.25 l 0.47,2.28 c 0.21,0.75 0.47,1.48 0.7,2.22 l 0.34,1.12 0.47,1.07 c 0.32,0.71 0.62,1.43 0.92,2.16 -1.59,-2.69 -2.95,-5.59 -3.58,-8.71 -0.24,-0.76 -0.31,-1.55 -0.43,-2.33 -0.1,-0.79 -0.25,-1.57 -0.26,-2.36 l -0.11,-2.37 0.08,-2.37 c 0.25,-3.15 0.79,-6.29 1.69,-9.31 0.92,-3.03 2.08,-5.98 3.66,-8.69 z"
   id="path1468" />
					</g>
				</g>
			</g>
			<g
   id="g1478">
				<path
   class="st88"
   d="m 352.14,245.51 c 1.48,2.6 2.62,5.38 3.58,8.22 0.95,2.84 1.62,5.78 2.12,8.74 0.46,2.97 0.58,5.99 0.44,8.99 -0.14,3.01 -0.78,5.97 -1.7,8.8 0.21,-1.48 0.63,-2.91 0.7,-4.4 0.07,-0.74 0.19,-1.47 0.23,-2.21 l 0.07,-2.22 c 0,-2.95 -0.12,-5.91 -0.64,-8.83 -0.42,-2.93 -1.09,-5.81 -1.89,-8.67 -0.4,-1.43 -0.84,-2.84 -1.34,-4.24 -0.46,-1.41 -1.01,-2.79 -1.57,-4.18 z"
   id="path1476" />
			</g>
		</g>
		<rect
   x="308.07999"
   y="210.2"
   class="st4"
   width="75"
   height="75"
   id="rect1482" />
	</g>
	
	
	
	
	
</g>
</svg>
