<?xml version="1.0" encoding="UTF-8" standalone="no"?>
<svg
   xmlns:dc="http://purl.org/dc/elements/1.1/"
   xmlns:cc="http://creativecommons.org/ns#"
   xmlns:rdf="http://www.w3.org/1999/02/22-rdf-syntax-ns#"
   xmlns:svg="http://www.w3.org/2000/svg"
   xmlns="http://www.w3.org/2000/svg"
   xmlns:sodipodi="http://sodipodi.sourceforge.net/DTD/sodipodi-0.dtd"
   xmlns:inkscape="http://www.inkscape.org/namespaces/inkscape"
   version="1.1"
   id="katman_1"
   x="0px"
   y="0px"
   viewBox="0 0 75 75"
   xml:space="preserve"
   sodipodi:docname="onion.svg"
   width="75"
   height="75"
   inkscape:version="1.0.1 (3bc2e813f5, 2020-09-07)"><metadata
   id="metadata1883"><rdf:RDF><cc:Work
       rdf:about=""><dc:format>image/svg+xml</dc:format><dc:type
         rdf:resource="http://purl.org/dc/dcmitype/StillImage" /><dc:title></dc:title></cc:Work></rdf:RDF></metadata><defs
   id="defs1881" /><sodipodi:namedview
   pagecolor="#ffffff"
   bordercolor="#666666"
   borderopacity="1"
   objecttolerance="10"
   gridtolerance="10"
   guidetolerance="10"
   inkscape:pageopacity="0"
   inkscape:pageshadow="2"
   inkscape:window-width="1718"
   inkscape:window-height="1368"
   id="namedview1879"
   showgrid="false"
   fit-margin-top="0"
   fit-margin-left="0"
   fit-margin-right="0"
   fit-margin-bottom="0"
   inkscape:zoom="2.216"
   inkscape:cx="132.47001"
   inkscape:cy="85.879997"
   inkscape:window-x="1713"
   inkscape:window-y="0"
   inkscape:window-maximized="0"
   inkscape:current-layer="g1876" />
<style
   type="text/css"
   id="style2">
	.st0{fill:#F40303;}
	.st1{fill:#4E9B04;}
	.st2{opacity:0.1;}
	.st3{opacity:0.15;fill:#FFFFFF;}
	.st4{fill:none;}
	.st5{fill:#DF0000;}
	.st6{fill:#41A500;}
	.st7{opacity:0.1;fill:#231F20;}
	.st8{fill:#84C100;}
	.st9{fill:#F86107;}
	.st10{opacity:0.07;}
	.st11{opacity:0.2;fill:#FFFFFF;}
	.st12{fill:#E55107;}
	.st13{fill:#E61206;}
	.st14{fill:#0D5C00;}
	.st15{fill:#27AB3B;}
	.st16{fill:#09913C;}
	.st17{fill:#E6012C;}
	.st18{fill:#680756;}
	.st19{fill:#74990D;}
	.st20{fill:#B22483;}
	.st21{fill:#43BC48;}
	.st22{fill:#2EAF2E;}
	.st23{fill:#8D1E60;}
	.st24{fill:#753D24;}
	.st25{fill:#348801;}
	.st26{fill:#2C7005;}
	.st27{fill:#63AB16;}
	.st28{fill:#8EBA24;}
	.st29{fill:#3B7524;}
	.st30{fill:#B4D459;}
	.st31{opacity:0.2;fill:#B4D459;}
	.st32{fill:#FEB544;}
	.st33{opacity:0.1;fill:#CE863A;}
	.st34{fill:#CE863A;}
	.st35{fill:#57BF44;}
	.st36{fill:#BBFF96;}
	.st37{fill:#DFFFAA;}
	.st38{fill:#39AA50;}
	.st39{fill:#5DD166;}
	.st40{fill:#8FDC50;}
	.st41{fill:#29602E;}
	.st42{fill:#8CD13D;}
	.st43{fill:#24892E;}
	.st44{fill:#15441A;}
	.st45{fill:#699E25;}
	.st46{fill:#4A8912;}
	.st47{fill:#FCD30B;}
	.st48{fill:#FFE36C;}
	.st49{fill:#FCD30B;stroke:#ED5100;stroke-width:0.0803;stroke-miterlimit:10;}
	.st50{fill:#FCD30B;stroke:#ED5100;stroke-width:0.0749;stroke-miterlimit:10;}
	.st51{fill:#FCD30B;stroke:#ED5100;stroke-width:0.0709;stroke-miterlimit:10;}
	.st52{fill:#FCD30B;stroke:#ED5100;stroke-width:0.0592;stroke-miterlimit:10;}
	.st53{fill:#FCD30B;stroke:#ED5100;stroke-width:0.0529;stroke-miterlimit:10;}
	.st54{fill:#FCD30B;stroke:#ED5100;stroke-width:0.0474;stroke-miterlimit:10;}
	.st55{fill:#FCD30B;stroke:#ED5100;stroke-width:0.0447;stroke-miterlimit:10;}
	.st56{fill:#FCD30B;stroke:#ED5100;stroke-width:0.0607;stroke-miterlimit:10;}
	.st57{fill:#FCD30B;stroke:#ED5100;stroke-width:0.0574;stroke-miterlimit:10;}
	.st58{fill:#FCD30B;stroke:#ED5100;stroke-width:0.0479;stroke-miterlimit:10;}
	.st59{fill:#FCD30B;stroke:#ED5100;stroke-width:0.0402;stroke-miterlimit:10;}
	.st60{fill:#FCD30B;stroke:#ED5100;stroke-width:0.0362;stroke-miterlimit:10;}
	.st61{fill:#FCD30B;stroke:#ED5100;stroke-width:0.033;stroke-miterlimit:10;}
	.st62{fill:#FCD30B;stroke:#ED5100;stroke-width:0.0788;stroke-miterlimit:10;}
	.st63{fill:#FCD30B;stroke:#ED5100;stroke-width:0.0766;stroke-miterlimit:10;}
	.st64{fill:#FCD30B;stroke:#ED5100;stroke-width:0.0793;stroke-miterlimit:10;}
	.st65{fill:#FCD30B;stroke:#ED5100;stroke-width:0.0791;stroke-miterlimit:10;}
	.st66{fill:#FCD30B;stroke:#ED5100;stroke-width:0.0796;stroke-miterlimit:10;}
	.st67{fill:#FCD30B;stroke:#ED5100;stroke-width:0.0635;stroke-miterlimit:10;}
	.st68{fill:#FCD30B;stroke:#ED5100;stroke-width:0.0533;stroke-miterlimit:10;}
	.st69{fill:#FCD30B;stroke:#ED5100;stroke-width:0.0498;stroke-miterlimit:10;}
	.st70{fill:#FCD30B;stroke:#ED5100;stroke-width:0.0329;stroke-miterlimit:10;}
	.st71{fill:#FCD30B;stroke:#ED5100;stroke-width:0.0389;stroke-miterlimit:10;}
	.st72{fill:#FCD30B;stroke:#ED5100;stroke-width:0.023;stroke-miterlimit:10;}
	.st73{fill:#FCD30B;stroke:#ED5100;stroke-width:0.0359;stroke-miterlimit:10;}
	.st74{fill:#FCD30B;stroke:#ED5100;stroke-width:0.0251;stroke-miterlimit:10;}
	.st75{fill:#FCD30B;stroke:#ED5100;stroke-width:0.0795;stroke-miterlimit:10;}
	.st76{fill:#FCD30B;stroke:#ED5100;stroke-width:0.0675;stroke-miterlimit:10;}
	.st77{fill:#FCD30B;stroke:#ED5100;stroke-width:0.0543;stroke-miterlimit:10;}
	.st78{fill:#FCD30B;stroke:#ED5100;stroke-width:0.0466;stroke-miterlimit:10;}
	.st79{fill:#FCD30B;stroke:#ED5100;stroke-width:0.0354;stroke-miterlimit:10;}
	.st80{fill:#489B0B;}
	.st81{fill:#72B236;}
	.st82{fill:#62A428;}
	.st83{fill:#528E2A;}
	.st84{fill:#92BC4C;}
	.st85{fill:#569B30;}
	.st86{fill:#E2C3A4;stroke:#A97D60;stroke-width:0.2737;stroke-miterlimit:10;}
	.st87{fill:#EFE3D3;stroke:#A97D60;stroke-width:0.3649;stroke-linecap:round;stroke-linejoin:round;stroke-miterlimit:10;}
	.st88{fill:#9D6B50;}
	.st89{fill:#E2C19E;}
	.st90{fill:#A16038;}
	.st91{fill:#DFC298;}
	.st92{fill:#EEE4BF;}
	.st93{fill:#D3B689;}
	.st94{fill:#689D34;}
	.st95{fill:#A5BC81;}
	.st96{fill:#DED6A8;}
	.st97{fill:#F4EDDA;}
	.st98{fill:#FF7900;stroke:#DB4900;stroke-width:0.5055;stroke-linecap:round;stroke-linejoin:round;stroke-miterlimit:10;}
	.st99{fill:none;stroke:#DB4900;stroke-width:0.5055;stroke-linecap:round;stroke-linejoin:round;stroke-miterlimit:10;}
	.st100{fill:#2E4819;}
	.st101{fill:#85BB19;}
	.st102{fill:#B2DC55;stroke:#A2C63C;stroke-width:0.2575;stroke-miterlimit:10;}
	.st103{fill:#86CE2C;}
	.st104{fill:#86CE2C;stroke:#72AA1A;stroke-width:0.1884;stroke-linecap:round;stroke-linejoin:round;stroke-miterlimit:10;}
	.st105{opacity:0.6;fill:#DDE68D;}
	.st106{opacity:0.6;}
	.st107{fill:#DDE68D;}
	.st108{fill:#86CE2C;stroke:#72AA1A;stroke-width:0.208;stroke-linecap:round;stroke-linejoin:round;stroke-miterlimit:10;}
</style>
<g
   id="g1876"
   transform="translate(-117.53,-114.12)">
	
	
	
	
	
	
	<g
   id="g286">
		<g
   id="g282">
			<path
   class="st20"
   d="m 171.79,172.52 c 0,2.37 -0.92,4.68 -2.52,6.69 -1.59,2.01 -3.86,3.71 -6.56,4.85 0,0 -4.55,2.09 -4.51,2.95 0.02,0.41 -1.48,0.5 -3.04,0.48 -1.68,-0.02 -3.43,-0.17 -3.43,-0.17 0,0 -0.67,-1.65 -4.1,-3.15 -0.16,-0.06 -0.31,-0.13 -0.46,-0.19 -0.01,0 -0.01,0 -0.01,-0.01 -0.09,-0.04 -0.17,-0.07 -0.24,-0.11 -5.15,-2.34 -8.64,-6.75 -8.64,-11.35 0,-3.13 1.61,-5.98 4.26,-8.14 0.23,-0.33 0.81,-0.74 1.79,-1.26 0,0 0,0 0,0 0.38,-0.23 0.78,-0.45 1.2,-0.66 8.37,-4.85 6.52,-11.45 6.98,-13.19 0.48,-1.81 4.21,0.33 4.21,0.33 -1.3,2.64 0.44,6.04 2.64,8.66 0,0 0,0 0,0 0,0 0,0 0,0 0.24,0.28 0.48,0.56 0.73,0.82 1.2,1.29 2.46,2.32 3.38,2.87 0.8,0.34 1.57,0.73 2.28,1.17 0,0 0,0 0,0 3.69,2.25 6.04,5.63 6.04,9.41 z"
   id="path234" />
			<path
   class="st21"
   d="m 155.82,153.65 c 0,0 4.43,-17.4 3.61,-20.05 0,0 -7.93,12.29 -5.04,19.73 0,0.01 -0.24,4.16 1.43,0.32 z"
   id="path236" />
			<path
   class="st22"
   d="m 154.31,139.09 c 0,0 -1.73,-11.22 3.55,-24.97 0,0 1.02,23.28 -1.28,27.31 -2.3,4.04 -2.27,-2.34 -2.27,-2.34 z"
   id="path238" />
			<path
   class="st22"
   d="m 156.02,143.68 c 0.65,0 -5.98,-8.04 -8.31,-9 -0.01,0 4.04,9.01 8.31,9 z"
   id="path240" />
			<path
   class="st21"
   d="m 152.45,149.78 c 0,-0.28 -0.25,-21.66 -3.84,-27.14 0,0 6.53,4.92 8.03,19.39 l -1.65,15.23 z"
   id="path242" />
			<g
   id="g272">
				<g
   id="g246">
					<path
   class="st23"
   d="m 163.5,163.83 c 1.99,1.28 3.64,3.18 4.5,5.49 0.44,1.15 0.59,2.41 0.5,3.65 -0.1,1.24 -0.48,2.44 -1,3.55 -0.56,1.1 -1.27,2.09 -2.04,3.02 -0.82,0.89 -1.66,1.75 -2.61,2.48 -1.86,1.51 -3.88,2.76 -6.01,3.8 0.94,-0.72 1.92,-1.38 2.82,-2.13 0.93,-0.71 1.83,-1.46 2.68,-2.26 1.7,-1.58 3.24,-3.34 4.25,-5.37 1.01,-2.02 1.32,-4.34 0.68,-6.52 -0.32,-1.09 -0.83,-2.13 -1.49,-3.08 -0.62,-0.96 -1.41,-1.83 -2.28,-2.63 z"
   id="path244" />
				</g>
				<g
   id="g250">
					<path
   class="st23"
   d="m 158.33,159.67 c 1.78,1.61 3.19,3.62 4.23,5.82 1.04,2.2 1.58,4.68 1.42,7.15 -0.18,2.47 -1.06,4.88 -2.49,6.86 -0.68,1.01 -1.52,1.9 -2.37,2.75 -0.44,0.41 -0.92,0.78 -1.37,1.18 -0.48,0.37 -0.97,0.71 -1.45,1.05 0.42,-0.43 0.85,-0.84 1.28,-1.25 0.4,-0.44 0.81,-0.86 1.19,-1.32 0.76,-0.9 1.5,-1.82 2.08,-2.83 0.59,-1 1.12,-2.04 1.46,-3.14 0.36,-1.09 0.62,-2.22 0.67,-3.36 0.16,-2.29 -0.3,-4.6 -1.13,-6.78 -0.41,-1.09 -0.94,-2.15 -1.53,-3.17 -0.58,-1.04 -1.25,-2.02 -1.99,-2.96 z"
   id="path248" />
				</g>
				<g
   id="g254">
					<path
   class="st23"
   d="m 154.83,158.26 c -0.14,1.09 -0.19,2.19 -0.25,3.29 -0.07,1.1 -0.14,2.19 -0.19,3.29 -0.1,2.19 -0.2,4.38 -0.24,6.56 -0.06,2.19 -0.05,4.37 0.02,6.55 0.01,1.09 0.11,2.18 0.21,3.27 0.06,0.54 0.1,1.09 0.18,1.63 0.1,0.54 0.19,1.08 0.27,1.63 -0.82,-2.06 -1.18,-4.28 -1.43,-6.47 -0.26,-2.2 -0.29,-4.42 -0.25,-6.63 0.06,-2.21 0.19,-4.42 0.47,-6.61 0.28,-2.19 0.56,-4.39 1.21,-6.51 z"
   id="path252" />
				</g>
				<g
   id="g258">
					<path
   class="st23"
   d="m 156.85,159.67 c 0.88,1.66 1.37,3.5 1.72,5.34 0.34,1.85 0.45,3.74 0.41,5.62 -0.02,0.94 -0.12,1.88 -0.21,2.82 -0.17,0.93 -0.27,1.86 -0.53,2.77 -0.4,1.84 -1.12,3.59 -1.92,5.27 0.44,-1.82 0.89,-3.6 1.15,-5.42 0.29,-1.81 0.48,-3.63 0.51,-5.46 0.06,-1.83 0,-3.66 -0.18,-5.49 -0.1,-0.91 -0.2,-1.83 -0.36,-2.73 -0.15,-0.92 -0.33,-1.83 -0.59,-2.72 z"
   id="path256" />
				</g>
				<g
   id="g262">
					<path
   class="st23"
   d="m 147.07,162.87 c -0.78,0.82 -1.5,1.69 -2.12,2.62 -0.63,0.92 -1.19,1.89 -1.6,2.9 -0.83,2.02 -1.11,4.26 -0.53,6.33 0.56,2.08 1.86,3.9 3.38,5.5 0.39,0.39 0.79,0.78 1.2,1.16 0.43,0.35 0.85,0.73 1.29,1.07 0.44,0.34 0.88,0.7 1.34,1.03 0.46,0.32 0.92,0.65 1.38,0.99 -2.06,-0.95 -4.03,-2.15 -5.75,-3.69 -1.71,-1.53 -3.17,-3.49 -3.81,-5.8 -0.63,-2.31 -0.27,-4.83 0.8,-6.9 1.05,-2.08 2.58,-3.87 4.42,-5.21 z"
   id="path260" />
				</g>
				<g
   id="g266">
					<path
   class="st23"
   d="m 150.73,161.38 c -0.72,0.82 -1.37,1.69 -1.9,2.63 -0.55,0.92 -1.02,1.89 -1.35,2.9 -0.68,2.01 -0.92,4.13 -0.66,6.22 l 0.3,1.55 c 0.06,0.53 0.32,1 0.47,1.51 0.27,1.03 0.84,1.94 1.27,2.93 0.5,0.95 1.13,1.83 1.69,2.75 0.65,0.87 1.33,1.71 1.96,2.61 -0.8,-0.74 -1.56,-1.53 -2.35,-2.31 -0.65,-0.88 -1.37,-1.73 -1.97,-2.67 -1.18,-1.88 -2.02,-4.01 -2.36,-6.25 -0.25,-2.25 0.05,-4.57 0.94,-6.63 0.87,-2.05 2.24,-3.89 3.96,-5.24 z"
   id="path264" />
				</g>
				<g
   id="g270">
					<path
   class="st23"
   d="m 152.5,161.38 c -0.79,1.63 -1.29,3.36 -1.66,5.09 -0.34,1.74 -0.53,3.5 -0.49,5.27 -0.01,0.44 0.04,0.88 0.06,1.32 0.02,0.44 0.06,0.88 0.13,1.32 l 0.17,1.32 0.27,1.3 c 0.14,0.88 0.45,1.72 0.67,2.59 0.24,0.87 0.59,1.69 0.84,2.57 -0.46,-0.78 -0.9,-1.58 -1.3,-2.4 -0.33,-0.85 -0.75,-1.68 -0.96,-2.57 -0.59,-1.75 -0.8,-3.6 -0.88,-5.44 -0.03,-1.85 0.22,-3.7 0.73,-5.47 0.51,-1.76 1.3,-3.47 2.42,-4.9 z"
   id="path268" />
				</g>
			</g>
			<circle
   class="st3"
   cx="145.75"
   cy="166.50999"
   r="2.6500001"
   id="circle274" />
			<circle
   class="st3"
   cx="143.32001"
   cy="170.64"
   r="1.13"
   id="circle276" />
			<path
   class="st2"
   d="m 171.79,172.52 c 0,2.37 -0.92,4.68 -2.52,6.69 -1.59,2.01 -3.86,3.71 -6.56,4.85 0,0 -4.55,2.09 -4.51,2.95 0.02,0.41 -1.48,0.5 -3.04,0.48 16.29,-12.38 7.65,-25.1 4.92,-28.41 1.2,1.29 2.46,2.32 3.38,2.87 0.8,0.34 1.57,0.73 2.28,1.17 0,0 0,0 0,0 3.7,2.24 6.05,5.62 6.05,9.4 z"
   id="path278" />
			<path
   class="st24"
   d="m 157.55,186.7 c 0.45,0.05 0.8,0.4 0.87,0.84 0.08,0.53 -0.05,1.18 -0.78,0.2 -0.14,-0.18 -0.44,-0.06 -0.38,0.17 0.02,0.09 0.07,0.19 0.16,0.32 0.39,0.55 -0.45,0.28 -0.7,-0.01 -0.06,-0.07 -0.16,-0.07 -0.23,-0.01 -0.05,0.05 -0.09,0.14 -0.08,0.28 0.01,0.29 -0.27,0.01 -0.31,-0.27 -0.01,-0.09 -0.12,-0.14 -0.19,-0.08 -0.06,0.05 -0.11,0.14 -0.12,0.3 -0.02,0.41 -0.6,1.05 -0.58,0.39 0.02,-0.53 0.12,-0.75 -0.06,-0.8 -0.12,-0.03 -0.24,0.03 -0.29,0.14 -0.02,0.05 -0.01,0.12 -0.02,0.19 -0.02,0.17 -0.15,0.57 -0.38,0.47 -0.1,-0.04 -0.15,-0.14 -0.14,-0.25 0.01,-0.09 0.01,-0.22 -0.01,-0.33 -0.03,-0.2 -0.31,-0.2 -0.35,-0.01 -0.02,0.12 -0.06,0.27 -0.11,0.39 -0.13,0.29 -0.56,0.13 -0.5,-0.18 0.05,-0.26 0.04,-0.53 -0.39,-0.18 0,0 -0.71,0.68 -0.76,0.24 -0.01,-0.12 0.03,-0.23 0.11,-0.32 0.17,-0.2 0.46,-0.62 -0.29,-0.43 0,0 -1.33,0.34 -0.19,-0.62 0.88,-0.7 4.26,-0.61 5.72,-0.44 z"
   id="path280" />
		</g>
		<rect
   x="117.53"
   y="114.12"
   class="st4"
   width="75"
   height="75"
   id="rect284" />
	</g>
	
	
	
	
	
	
	
	
	
	
	
	
	
</g>
</svg>
