<?xml version="1.0" encoding="UTF-8" standalone="no"?>
<svg
   xmlns:dc="http://purl.org/dc/elements/1.1/"
   xmlns:cc="http://creativecommons.org/ns#"
   xmlns:rdf="http://www.w3.org/1999/02/22-rdf-syntax-ns#"
   xmlns:svg="http://www.w3.org/2000/svg"
   xmlns="http://www.w3.org/2000/svg"
   xmlns:sodipodi="http://sodipodi.sourceforge.net/DTD/sodipodi-0.dtd"
   xmlns:inkscape="http://www.inkscape.org/namespaces/inkscape"
   version="1.1"
   id="katman_1"
   x="0px"
   y="0px"
   viewBox="0 0 75.004173 75"
   xml:space="preserve"
   sodipodi:docname="potato.svg"
   width="75.004173"
   height="75"
   inkscape:version="1.0.1 (3bc2e813f5, 2020-09-07)"><metadata
   id="metadata1883"><rdf:RDF><cc:Work
       rdf:about=""><dc:format>image/svg+xml</dc:format><dc:type
         rdf:resource="http://purl.org/dc/dcmitype/StillImage" /><dc:title></dc:title></cc:Work></rdf:RDF></metadata><defs
   id="defs1881" /><sodipodi:namedview
   pagecolor="#ffffff"
   bordercolor="#666666"
   borderopacity="1"
   objecttolerance="10"
   gridtolerance="10"
   guidetolerance="10"
   inkscape:pageopacity="0"
   inkscape:pageshadow="2"
   inkscape:window-width="1718"
   inkscape:window-height="1368"
   id="namedview1879"
   showgrid="false"
   fit-margin-top="0"
   fit-margin-left="0"
   fit-margin-right="0"
   fit-margin-bottom="0"
   inkscape:zoom="2.216"
   inkscape:cx="-58.07581"
   inkscape:cy="85.879992"
   inkscape:window-x="1713"
   inkscape:window-y="0"
   inkscape:window-maximized="0"
   inkscape:current-layer="g1876" />
<style
   type="text/css"
   id="style2">
	.st0{fill:#F40303;}
	.st1{fill:#4E9B04;}
	.st2{opacity:0.1;}
	.st3{opacity:0.15;fill:#FFFFFF;}
	.st4{fill:none;}
	.st5{fill:#DF0000;}
	.st6{fill:#41A500;}
	.st7{opacity:0.1;fill:#231F20;}
	.st8{fill:#84C100;}
	.st9{fill:#F86107;}
	.st10{opacity:0.07;}
	.st11{opacity:0.2;fill:#FFFFFF;}
	.st12{fill:#E55107;}
	.st13{fill:#E61206;}
	.st14{fill:#0D5C00;}
	.st15{fill:#27AB3B;}
	.st16{fill:#09913C;}
	.st17{fill:#E6012C;}
	.st18{fill:#680756;}
	.st19{fill:#74990D;}
	.st20{fill:#B22483;}
	.st21{fill:#43BC48;}
	.st22{fill:#2EAF2E;}
	.st23{fill:#8D1E60;}
	.st24{fill:#753D24;}
	.st25{fill:#348801;}
	.st26{fill:#2C7005;}
	.st27{fill:#63AB16;}
	.st28{fill:#8EBA24;}
	.st29{fill:#3B7524;}
	.st30{fill:#B4D459;}
	.st31{opacity:0.2;fill:#B4D459;}
	.st32{fill:#FEB544;}
	.st33{opacity:0.1;fill:#CE863A;}
	.st34{fill:#CE863A;}
	.st35{fill:#57BF44;}
	.st36{fill:#BBFF96;}
	.st37{fill:#DFFFAA;}
	.st38{fill:#39AA50;}
	.st39{fill:#5DD166;}
	.st40{fill:#8FDC50;}
	.st41{fill:#29602E;}
	.st42{fill:#8CD13D;}
	.st43{fill:#24892E;}
	.st44{fill:#15441A;}
	.st45{fill:#699E25;}
	.st46{fill:#4A8912;}
	.st47{fill:#FCD30B;}
	.st48{fill:#FFE36C;}
	.st49{fill:#FCD30B;stroke:#ED5100;stroke-width:0.0803;stroke-miterlimit:10;}
	.st50{fill:#FCD30B;stroke:#ED5100;stroke-width:0.0749;stroke-miterlimit:10;}
	.st51{fill:#FCD30B;stroke:#ED5100;stroke-width:0.0709;stroke-miterlimit:10;}
	.st52{fill:#FCD30B;stroke:#ED5100;stroke-width:0.0592;stroke-miterlimit:10;}
	.st53{fill:#FCD30B;stroke:#ED5100;stroke-width:0.0529;stroke-miterlimit:10;}
	.st54{fill:#FCD30B;stroke:#ED5100;stroke-width:0.0474;stroke-miterlimit:10;}
	.st55{fill:#FCD30B;stroke:#ED5100;stroke-width:0.0447;stroke-miterlimit:10;}
	.st56{fill:#FCD30B;stroke:#ED5100;stroke-width:0.0607;stroke-miterlimit:10;}
	.st57{fill:#FCD30B;stroke:#ED5100;stroke-width:0.0574;stroke-miterlimit:10;}
	.st58{fill:#FCD30B;stroke:#ED5100;stroke-width:0.0479;stroke-miterlimit:10;}
	.st59{fill:#FCD30B;stroke:#ED5100;stroke-width:0.0402;stroke-miterlimit:10;}
	.st60{fill:#FCD30B;stroke:#ED5100;stroke-width:0.0362;stroke-miterlimit:10;}
	.st61{fill:#FCD30B;stroke:#ED5100;stroke-width:0.033;stroke-miterlimit:10;}
	.st62{fill:#FCD30B;stroke:#ED5100;stroke-width:0.0788;stroke-miterlimit:10;}
	.st63{fill:#FCD30B;stroke:#ED5100;stroke-width:0.0766;stroke-miterlimit:10;}
	.st64{fill:#FCD30B;stroke:#ED5100;stroke-width:0.0793;stroke-miterlimit:10;}
	.st65{fill:#FCD30B;stroke:#ED5100;stroke-width:0.0791;stroke-miterlimit:10;}
	.st66{fill:#FCD30B;stroke:#ED5100;stroke-width:0.0796;stroke-miterlimit:10;}
	.st67{fill:#FCD30B;stroke:#ED5100;stroke-width:0.0635;stroke-miterlimit:10;}
	.st68{fill:#FCD30B;stroke:#ED5100;stroke-width:0.0533;stroke-miterlimit:10;}
	.st69{fill:#FCD30B;stroke:#ED5100;stroke-width:0.0498;stroke-miterlimit:10;}
	.st70{fill:#FCD30B;stroke:#ED5100;stroke-width:0.0329;stroke-miterlimit:10;}
	.st71{fill:#FCD30B;stroke:#ED5100;stroke-width:0.0389;stroke-miterlimit:10;}
	.st72{fill:#FCD30B;stroke:#ED5100;stroke-width:0.023;stroke-miterlimit:10;}
	.st73{fill:#FCD30B;stroke:#ED5100;stroke-width:0.0359;stroke-miterlimit:10;}
	.st74{fill:#FCD30B;stroke:#ED5100;stroke-width:0.0251;stroke-miterlimit:10;}
	.st75{fill:#FCD30B;stroke:#ED5100;stroke-width:0.0795;stroke-miterlimit:10;}
	.st76{fill:#FCD30B;stroke:#ED5100;stroke-width:0.0675;stroke-miterlimit:10;}
	.st77{fill:#FCD30B;stroke:#ED5100;stroke-width:0.0543;stroke-miterlimit:10;}
	.st78{fill:#FCD30B;stroke:#ED5100;stroke-width:0.0466;stroke-miterlimit:10;}
	.st79{fill:#FCD30B;stroke:#ED5100;stroke-width:0.0354;stroke-miterlimit:10;}
	.st80{fill:#489B0B;}
	.st81{fill:#72B236;}
	.st82{fill:#62A428;}
	.st83{fill:#528E2A;}
	.st84{fill:#92BC4C;}
	.st85{fill:#569B30;}
	.st86{fill:#E2C3A4;stroke:#A97D60;stroke-width:0.2737;stroke-miterlimit:10;}
	.st87{fill:#EFE3D3;stroke:#A97D60;stroke-width:0.3649;stroke-linecap:round;stroke-linejoin:round;stroke-miterlimit:10;}
	.st88{fill:#9D6B50;}
	.st89{fill:#E2C19E;}
	.st90{fill:#A16038;}
	.st91{fill:#DFC298;}
	.st92{fill:#EEE4BF;}
	.st93{fill:#D3B689;}
	.st94{fill:#689D34;}
	.st95{fill:#A5BC81;}
	.st96{fill:#DED6A8;}
	.st97{fill:#F4EDDA;}
	.st98{fill:#FF7900;stroke:#DB4900;stroke-width:0.5055;stroke-linecap:round;stroke-linejoin:round;stroke-miterlimit:10;}
	.st99{fill:none;stroke:#DB4900;stroke-width:0.5055;stroke-linecap:round;stroke-linejoin:round;stroke-miterlimit:10;}
	.st100{fill:#2E4819;}
	.st101{fill:#85BB19;}
	.st102{fill:#B2DC55;stroke:#A2C63C;stroke-width:0.2575;stroke-miterlimit:10;}
	.st103{fill:#86CE2C;}
	.st104{fill:#86CE2C;stroke:#72AA1A;stroke-width:0.1884;stroke-linecap:round;stroke-linejoin:round;stroke-miterlimit:10;}
	.st105{opacity:0.6;fill:#DDE68D;}
	.st106{opacity:0.6;}
	.st107{fill:#DDE68D;}
	.st108{fill:#86CE2C;stroke:#72AA1A;stroke-width:0.208;stroke-linecap:round;stroke-linejoin:round;stroke-miterlimit:10;}
</style>
<g
   id="g1876"
   transform="translate(-308.07581,-114.12)">
	
	
	
	
	
	
	
	
	
	<g
   id="g462">
		<g
   id="g458">
			<g
   id="g412">
				<g
   id="g408">
					<path
   class="st32"
   d="m 382.77,135.95 c -0.66,2.72 -2.27,4.7 -3.47,5.52 -0.58,0.4 -1.24,0.93 -1.91,1.52 -2.34,2.04 -4.87,4.74 -4.87,4.74 0,0 -8.5,5.89 -17.04,6.06 -8.53,0.17 -22.92,-1 -26.21,-9.91 -0.71,-1.93 -0.97,-3.85 -0.87,-5.71 0.05,-0.79 0.16,-1.57 0.33,-2.34 0.65,-2.88 2.13,-5.56 4.11,-7.91 1.96,-2.32 4.39,-4.31 6.95,-5.8 7.45,-4.34 17.06,-4.77 17.06,-4.77 0,0 14.96,-1.78 22.25,6.71 3.93,4.56 4.44,8.73 3.67,11.89 z"
   id="path366" />
					<path
   class="st33"
   d="m 372.53,147.73 c 0,0 -8.5,5.89 -17.04,6.06 -8.53,0.17 -22.92,-1 -26.21,-9.91 -0.71,-1.93 -0.97,-3.85 -0.87,-5.71 0.87,0.08 4.27,4.06 11.27,7.22 0,0 0,0 0,0 0.25,0.11 0.5,0.22 0.75,0.33 2.09,0.89 4.47,1.7 7.18,2.32 0.25,0.06 0.51,0.11 0.76,0.17 1.62,0.34 3.35,0.61 5.2,0.79 v 0 c 0.24,0.02 0.49,0.05 0.73,0.07 v 0 c 5.17,0.41 11.2,0.12 18.23,-1.34 z"
   id="path368" />
					<g
   id="g406">
						<path
   class="st34"
   d="m 340.45,142.48 c -0.05,0.58 -0.09,1.13 -0.1,1.67 -0.01,0.54 0.01,1.08 0.08,1.61 0.07,0.53 0.18,1.04 0.35,1.55 0.16,0.51 0.39,1.01 0.65,1.53 -0.24,-0.16 -0.46,-0.36 -0.66,-0.58 -0.1,-0.11 -0.19,-0.23 -0.28,-0.35 -0.04,-0.06 -0.08,-0.12 -0.12,-0.19 -0.04,-0.06 -0.08,-0.13 -0.11,-0.19 -0.29,-0.52 -0.47,-1.1 -0.55,-1.69 -0.08,-0.59 -0.05,-1.19 0.07,-1.76 0.06,-0.29 0.14,-0.57 0.25,-0.84 0.05,-0.14 0.11,-0.27 0.18,-0.4 0.08,-0.12 0.16,-0.24 0.24,-0.36 z"
   id="path370" />
						<path
   class="st34"
   d="m 333.53,135.82 c -0.05,0.58 -0.09,1.13 -0.1,1.67 -0.01,0.54 0.01,1.08 0.08,1.61 0.07,0.53 0.18,1.04 0.35,1.55 0.16,0.51 0.39,1.01 0.65,1.53 -0.24,-0.16 -0.46,-0.36 -0.66,-0.58 -0.1,-0.11 -0.19,-0.23 -0.28,-0.35 -0.04,-0.06 -0.08,-0.12 -0.12,-0.19 -0.04,-0.06 -0.08,-0.13 -0.11,-0.19 -0.29,-0.52 -0.47,-1.1 -0.55,-1.69 -0.08,-0.59 -0.05,-1.19 0.07,-1.76 0.06,-0.29 0.14,-0.57 0.25,-0.84 0.05,-0.14 0.11,-0.27 0.18,-0.4 0.08,-0.12 0.16,-0.25 0.24,-0.36 z"
   id="path372" />
						<path
   class="st34"
   d="m 337.61,126.97 c -0.05,0.58 -0.09,1.13 -0.1,1.67 -0.01,0.54 0.01,1.08 0.08,1.61 0.07,0.53 0.18,1.04 0.35,1.55 0.16,0.51 0.39,1.01 0.65,1.53 -0.24,-0.16 -0.46,-0.36 -0.66,-0.58 -0.1,-0.11 -0.19,-0.23 -0.28,-0.35 -0.04,-0.06 -0.08,-0.12 -0.12,-0.19 -0.04,-0.06 -0.08,-0.13 -0.11,-0.19 -0.29,-0.52 -0.47,-1.1 -0.55,-1.69 -0.08,-0.59 -0.05,-1.19 0.07,-1.76 0.06,-0.29 0.14,-0.57 0.25,-0.84 0.05,-0.14 0.11,-0.27 0.18,-0.4 0.08,-0.11 0.16,-0.24 0.24,-0.36 z"
   id="path374" />
						<path
   class="st34"
   d="m 343.07,122.87 c -0.05,0.58 -0.09,1.13 -0.1,1.67 -0.01,0.54 0.01,1.08 0.08,1.61 0.07,0.53 0.18,1.04 0.35,1.55 0.16,0.51 0.39,1.01 0.65,1.53 -0.24,-0.16 -0.46,-0.36 -0.66,-0.58 -0.1,-0.11 -0.19,-0.23 -0.28,-0.35 -0.04,-0.06 -0.08,-0.12 -0.12,-0.19 -0.04,-0.06 -0.08,-0.13 -0.11,-0.19 -0.29,-0.52 -0.47,-1.1 -0.55,-1.69 -0.08,-0.59 -0.05,-1.19 0.07,-1.76 0.06,-0.29 0.14,-0.57 0.25,-0.84 0.05,-0.14 0.11,-0.27 0.18,-0.4 0.08,-0.11 0.16,-0.24 0.24,-0.36 z"
   id="path376" />
						<path
   class="st34"
   d="m 342.94,133.71 c -0.05,0.58 -0.09,1.13 -0.1,1.67 -0.01,0.54 0.01,1.08 0.08,1.61 0.07,0.53 0.18,1.04 0.35,1.55 0.16,0.51 0.39,1.01 0.65,1.53 -0.24,-0.16 -0.46,-0.36 -0.66,-0.58 -0.1,-0.11 -0.19,-0.23 -0.28,-0.35 -0.04,-0.06 -0.08,-0.12 -0.12,-0.19 -0.04,-0.06 -0.08,-0.13 -0.11,-0.19 -0.29,-0.52 -0.47,-1.1 -0.55,-1.69 -0.08,-0.59 -0.05,-1.19 0.07,-1.76 0.06,-0.29 0.14,-0.57 0.25,-0.84 0.05,-0.14 0.11,-0.27 0.18,-0.4 0.08,-0.11 0.15,-0.24 0.24,-0.36 z"
   id="path378" />
						<path
   class="st34"
   d="m 348.33,144.52 c -0.05,0.58 -0.09,1.13 -0.1,1.67 -0.01,0.54 0.01,1.08 0.08,1.61 0.07,0.53 0.18,1.04 0.35,1.55 0.16,0.51 0.39,1.01 0.65,1.53 -0.24,-0.16 -0.46,-0.36 -0.66,-0.58 -0.1,-0.11 -0.19,-0.23 -0.28,-0.35 -0.04,-0.06 -0.08,-0.12 -0.12,-0.19 -0.04,-0.06 -0.08,-0.13 -0.11,-0.19 -0.29,-0.52 -0.47,-1.1 -0.55,-1.69 -0.08,-0.59 -0.05,-1.19 0.07,-1.76 0.06,-0.29 0.14,-0.57 0.25,-0.84 0.05,-0.14 0.11,-0.27 0.18,-0.4 0.08,-0.11 0.15,-0.24 0.24,-0.36 z"
   id="path380" />
						<path
   class="st34"
   d="m 350.14,135.03 c -0.05,0.58 -0.09,1.13 -0.1,1.67 -0.01,0.54 0.01,1.08 0.08,1.61 0.07,0.53 0.18,1.04 0.35,1.55 0.16,0.51 0.39,1.01 0.65,1.53 -0.24,-0.16 -0.46,-0.36 -0.66,-0.58 -0.1,-0.11 -0.19,-0.23 -0.28,-0.35 -0.04,-0.06 -0.08,-0.12 -0.12,-0.19 -0.04,-0.06 -0.08,-0.13 -0.11,-0.19 -0.29,-0.52 -0.47,-1.1 -0.55,-1.69 -0.08,-0.59 -0.05,-1.19 0.07,-1.76 0.06,-0.29 0.14,-0.57 0.25,-0.84 0.05,-0.14 0.11,-0.27 0.18,-0.4 0.08,-0.12 0.16,-0.25 0.24,-0.36 z"
   id="path382" />
						<path
   class="st34"
   d="m 351.54,124.82 c -0.05,0.58 -0.09,1.13 -0.1,1.67 -0.01,0.54 0.01,1.08 0.08,1.61 0.07,0.53 0.18,1.04 0.35,1.55 0.16,0.51 0.39,1.01 0.65,1.53 -0.24,-0.16 -0.46,-0.36 -0.66,-0.58 -0.1,-0.11 -0.19,-0.23 -0.28,-0.35 -0.04,-0.06 -0.08,-0.12 -0.12,-0.19 -0.04,-0.06 -0.08,-0.13 -0.11,-0.19 -0.29,-0.52 -0.47,-1.1 -0.55,-1.69 -0.08,-0.59 -0.05,-1.19 0.07,-1.76 0.06,-0.29 0.14,-0.57 0.25,-0.84 0.05,-0.14 0.11,-0.27 0.18,-0.4 0.08,-0.11 0.15,-0.24 0.24,-0.36 z"
   id="path384" />
						<path
   class="st34"
   d="m 356.83,119.6 c -0.05,0.58 -0.09,1.13 -0.1,1.67 -0.01,0.54 0.01,1.08 0.08,1.61 0.07,0.53 0.18,1.04 0.35,1.55 0.16,0.51 0.39,1.01 0.65,1.53 -0.24,-0.16 -0.46,-0.36 -0.66,-0.58 -0.1,-0.11 -0.19,-0.23 -0.28,-0.35 -0.04,-0.06 -0.08,-0.12 -0.12,-0.19 -0.04,-0.06 -0.08,-0.13 -0.11,-0.19 -0.29,-0.52 -0.47,-1.1 -0.55,-1.69 -0.08,-0.59 -0.05,-1.19 0.07,-1.76 0.06,-0.29 0.14,-0.57 0.25,-0.84 0.05,-0.14 0.11,-0.27 0.18,-0.4 0.08,-0.12 0.15,-0.24 0.24,-0.36 z"
   id="path386" />
						<path
   class="st34"
   d="m 363.35,123 c -0.05,0.58 -0.09,1.13 -0.1,1.67 -0.01,0.54 0.01,1.08 0.08,1.61 0.07,0.53 0.18,1.04 0.35,1.55 0.16,0.51 0.39,1.01 0.65,1.53 -0.24,-0.16 -0.46,-0.36 -0.66,-0.58 -0.1,-0.11 -0.19,-0.23 -0.28,-0.35 -0.04,-0.06 -0.08,-0.12 -0.12,-0.19 -0.04,-0.06 -0.08,-0.13 -0.11,-0.19 -0.29,-0.52 -0.47,-1.1 -0.55,-1.69 -0.08,-0.59 -0.05,-1.19 0.07,-1.76 0.06,-0.29 0.14,-0.57 0.25,-0.84 0.05,-0.14 0.11,-0.27 0.18,-0.4 0.07,-0.12 0.15,-0.24 0.24,-0.36 z"
   id="path388" />
						<path
   class="st34"
   d="m 375.59,124.37 c -0.05,0.58 -0.09,1.13 -0.1,1.67 -0.01,0.54 0.01,1.08 0.08,1.61 0.07,0.53 0.18,1.04 0.35,1.55 0.16,0.51 0.39,1.01 0.65,1.53 -0.24,-0.16 -0.46,-0.36 -0.66,-0.58 -0.1,-0.11 -0.19,-0.23 -0.28,-0.35 -0.04,-0.06 -0.08,-0.12 -0.12,-0.19 -0.04,-0.06 -0.08,-0.13 -0.11,-0.19 -0.29,-0.52 -0.47,-1.1 -0.55,-1.69 -0.08,-0.59 -0.05,-1.19 0.07,-1.76 0.06,-0.29 0.14,-0.57 0.25,-0.84 0.05,-0.14 0.11,-0.27 0.18,-0.4 0.08,-0.12 0.16,-0.24 0.24,-0.36 z"
   id="path390" />
						<path
   class="st34"
   d="m 370.73,138.37 c -0.05,0.58 -0.09,1.13 -0.1,1.67 -0.01,0.54 0.01,1.08 0.08,1.61 0.07,0.53 0.18,1.04 0.35,1.55 0.16,0.51 0.39,1.01 0.65,1.53 -0.24,-0.16 -0.46,-0.36 -0.66,-0.58 -0.1,-0.11 -0.19,-0.23 -0.28,-0.35 -0.04,-0.06 -0.08,-0.12 -0.12,-0.19 -0.04,-0.06 -0.08,-0.13 -0.11,-0.19 -0.29,-0.52 -0.47,-1.1 -0.55,-1.69 -0.08,-0.59 -0.05,-1.19 0.07,-1.76 0.06,-0.29 0.14,-0.57 0.25,-0.84 0.05,-0.14 0.11,-0.27 0.18,-0.4 0.08,-0.12 0.15,-0.24 0.24,-0.36 z"
   id="path392" />
						<path
   class="st34"
   d="m 365.51,134.14 c -0.05,0.58 -0.09,1.13 -0.1,1.67 -0.01,0.54 0.01,1.08 0.08,1.61 0.07,0.53 0.18,1.04 0.35,1.55 0.16,0.51 0.39,1.01 0.65,1.53 -0.24,-0.16 -0.46,-0.36 -0.66,-0.58 -0.1,-0.11 -0.19,-0.23 -0.28,-0.35 -0.04,-0.06 -0.08,-0.12 -0.12,-0.19 -0.04,-0.06 -0.08,-0.13 -0.11,-0.19 -0.29,-0.52 -0.47,-1.1 -0.55,-1.69 -0.08,-0.59 -0.05,-1.19 0.07,-1.76 0.06,-0.29 0.14,-0.57 0.25,-0.84 0.05,-0.14 0.11,-0.27 0.18,-0.4 0.08,-0.12 0.15,-0.24 0.24,-0.36 z"
   id="path394" />
						<path
   class="st34"
   d="m 370.76,128.59 c -0.05,0.58 -0.09,1.13 -0.1,1.67 -0.01,0.54 0.01,1.08 0.08,1.61 0.07,0.53 0.18,1.04 0.35,1.55 0.16,0.51 0.39,1.01 0.65,1.53 -0.24,-0.16 -0.46,-0.36 -0.66,-0.58 -0.1,-0.11 -0.19,-0.23 -0.28,-0.35 -0.04,-0.06 -0.08,-0.12 -0.12,-0.19 -0.04,-0.06 -0.08,-0.13 -0.11,-0.19 -0.29,-0.52 -0.47,-1.1 -0.55,-1.69 -0.08,-0.59 -0.05,-1.19 0.07,-1.76 0.06,-0.29 0.14,-0.57 0.25,-0.84 0.05,-0.14 0.11,-0.27 0.18,-0.4 0.08,-0.12 0.15,-0.25 0.24,-0.36 z"
   id="path396" />
						<path
   class="st34"
   d="m 367.51,120.39 c -0.05,0.58 -0.09,1.13 -0.1,1.67 -0.01,0.54 0.01,1.08 0.08,1.61 0.07,0.53 0.18,1.04 0.35,1.55 0.16,0.51 0.39,1.01 0.65,1.53 -0.24,-0.16 -0.46,-0.36 -0.66,-0.58 -0.1,-0.11 -0.19,-0.23 -0.28,-0.35 -0.04,-0.06 -0.08,-0.12 -0.12,-0.19 -0.04,-0.06 -0.08,-0.13 -0.11,-0.19 -0.29,-0.52 -0.47,-1.1 -0.55,-1.69 -0.08,-0.59 -0.05,-1.19 0.07,-1.76 0.06,-0.29 0.14,-0.57 0.25,-0.84 0.05,-0.14 0.11,-0.27 0.18,-0.4 0.08,-0.12 0.15,-0.24 0.24,-0.36 z"
   id="path398" />
						<path
   class="st34"
   d="m 357.64,130.61 c -0.05,0.58 -0.09,1.13 -0.1,1.67 -0.01,0.54 0.01,1.08 0.08,1.61 0.07,0.53 0.18,1.04 0.35,1.55 0.16,0.51 0.39,1.01 0.65,1.53 -0.24,-0.16 -0.46,-0.36 -0.66,-0.58 -0.1,-0.11 -0.19,-0.23 -0.28,-0.35 -0.04,-0.06 -0.08,-0.12 -0.12,-0.19 -0.04,-0.06 -0.08,-0.13 -0.11,-0.19 -0.29,-0.52 -0.47,-1.1 -0.55,-1.69 -0.08,-0.59 -0.05,-1.19 0.07,-1.76 0.06,-0.29 0.14,-0.57 0.25,-0.84 0.05,-0.14 0.11,-0.27 0.18,-0.4 0.08,-0.11 0.15,-0.24 0.24,-0.36 z"
   id="path400" />
						<path
   class="st34"
   d="m 359.38,141.9 c -0.05,0.58 -0.09,1.13 -0.1,1.67 -0.01,0.54 0.01,1.08 0.08,1.61 0.07,0.53 0.18,1.04 0.35,1.55 0.16,0.51 0.39,1.01 0.65,1.53 -0.24,-0.16 -0.46,-0.36 -0.66,-0.58 -0.1,-0.11 -0.19,-0.23 -0.28,-0.35 -0.04,-0.06 -0.08,-0.12 -0.12,-0.19 -0.04,-0.06 -0.08,-0.13 -0.11,-0.19 -0.29,-0.52 -0.47,-1.1 -0.55,-1.69 -0.08,-0.59 -0.05,-1.19 0.07,-1.76 0.06,-0.29 0.14,-0.57 0.25,-0.84 0.05,-0.14 0.11,-0.27 0.18,-0.4 0.08,-0.12 0.15,-0.24 0.24,-0.36 z"
   id="path402" />
						<path
   class="st34"
   d="m 354.35,145.94 c -0.05,0.58 -0.09,1.13 -0.1,1.67 -0.01,0.54 0.01,1.08 0.08,1.61 0.07,0.53 0.18,1.04 0.35,1.55 0.16,0.51 0.39,1.01 0.65,1.53 -0.24,-0.16 -0.46,-0.36 -0.66,-0.58 -0.1,-0.11 -0.19,-0.23 -0.28,-0.35 -0.04,-0.06 -0.08,-0.12 -0.12,-0.19 -0.04,-0.06 -0.08,-0.13 -0.11,-0.19 -0.29,-0.52 -0.47,-1.1 -0.55,-1.69 -0.08,-0.59 -0.05,-1.19 0.07,-1.76 0.06,-0.29 0.14,-0.57 0.25,-0.84 0.05,-0.14 0.11,-0.27 0.18,-0.4 0.08,-0.12 0.15,-0.25 0.24,-0.36 z"
   id="path404" />
					</g>
				</g>
				<path
   class="st2"
   d="m 377.4,142.99 c -2.34,2.04 -4.87,4.74 -4.87,4.74 0,0 -8.5,5.89 -17.04,6.06 -8.53,0.17 -22.92,-1 -26.21,-9.91 -0.71,-1.93 -0.97,-3.85 -0.87,-5.71 0.05,-0.79 0.16,-1.57 0.33,-2.34 1.85,-1.01 4.41,-1.75 7.94,-1.99 6.43,-0.43 13.7,0.02 20.51,1.29 0.24,0.05 0.48,0.09 0.72,0.14 2.35,0.46 4.64,1.01 6.82,1.67 0.25,0.07 0.49,0.15 0.73,0.22 1.73,0.54 3.38,1.14 4.92,1.8 0.09,0.04 0.19,0.08 0.28,0.12 2.61,1.14 4.9,2.44 6.74,3.91 z"
   id="path410" />
			</g>
			<g
   id="g456">
				<path
   class="st32"
   d="m 373.78,174.62 c -3.71,1.8 -10.04,6.75 -10.04,6.75 0,0 -12.2,5.93 -23.29,4.44 -11.09,-1.49 -29.51,-5.88 -31.99,-18.08 -0.54,-2.65 -0.49,-5.18 0.02,-7.57 1.84,-8.6 9.73,-15.28 17.97,-18.51 10.52,-4.13 23.06,-2.78 23.06,-2.78 0,0 19.75,0.68 27.5,13.15 7.76,12.46 0.48,20.8 -3.23,22.6 z"
   id="path414" />
				<path
   class="st33"
   d="m 363.74,181.37 c 0,0 -12.2,5.93 -23.29,4.44 -11.09,-1.49 -29.51,-5.88 -31.99,-18.08 -0.54,-2.65 -0.49,-5.18 0.02,-7.57 1.11,0.27 4.72,6.11 13.16,11.61 0.3,0.19 0.6,0.39 0.91,0.58 2.53,1.57 5.46,3.1 8.85,4.44 0.31,0.13 0.63,0.25 0.96,0.37 2.03,0.76 4.23,1.46 6.59,2.06 0.31,0.08 0.62,0.16 0.94,0.23 6.58,1.58 14.46,2.41 23.85,1.92 z"
   id="path416" />
				<g
   id="g454">
					<path
   class="st34"
   d="m 323.22,168.15 c -0.18,0.74 -0.34,1.45 -0.46,2.15 -0.12,0.7 -0.2,1.4 -0.21,2.1 -0.02,0.7 0.03,1.39 0.14,2.08 0.11,0.7 0.31,1.38 0.53,2.12 -0.28,-0.26 -0.53,-0.55 -0.74,-0.88 -0.11,-0.16 -0.2,-0.33 -0.29,-0.5 -0.05,-0.09 -0.08,-0.18 -0.12,-0.26 -0.04,-0.09 -0.08,-0.18 -0.11,-0.27 -0.27,-0.73 -0.39,-1.52 -0.37,-2.3 0.02,-0.78 0.18,-1.55 0.45,-2.27 0.14,-0.36 0.3,-0.71 0.49,-1.04 0.1,-0.16 0.2,-0.33 0.31,-0.48 0.12,-0.17 0.25,-0.31 0.38,-0.45 z"
   id="path418" />
					<path
   class="st34"
   d="m 315.59,158.13 c -0.18,0.74 -0.34,1.45 -0.46,2.15 -0.12,0.7 -0.2,1.4 -0.21,2.1 -0.02,0.7 0.03,1.39 0.14,2.08 0.11,0.7 0.31,1.38 0.53,2.12 -0.28,-0.26 -0.53,-0.55 -0.74,-0.88 -0.11,-0.16 -0.2,-0.33 -0.29,-0.5 -0.05,-0.09 -0.08,-0.18 -0.12,-0.26 -0.04,-0.09 -0.08,-0.18 -0.11,-0.27 -0.27,-0.73 -0.39,-1.52 -0.37,-2.3 0.02,-0.78 0.18,-1.55 0.45,-2.27 0.14,-0.36 0.3,-0.71 0.49,-1.04 0.1,-0.16 0.2,-0.33 0.31,-0.48 0.12,-0.17 0.24,-0.32 0.38,-0.45 z"
   id="path420" />
					<path
   class="st34"
   d="m 322.65,147.48 c -0.18,0.74 -0.34,1.45 -0.46,2.15 -0.12,0.7 -0.2,1.4 -0.21,2.1 -0.02,0.7 0.03,1.39 0.14,2.08 0.11,0.7 0.31,1.38 0.53,2.12 -0.28,-0.26 -0.53,-0.55 -0.74,-0.88 -0.11,-0.16 -0.2,-0.33 -0.29,-0.5 -0.05,-0.09 -0.08,-0.18 -0.12,-0.26 -0.04,-0.09 -0.08,-0.18 -0.11,-0.27 -0.27,-0.73 -0.39,-1.52 -0.37,-2.3 0.02,-0.78 0.18,-1.55 0.45,-2.27 0.14,-0.36 0.3,-0.71 0.49,-1.04 0.1,-0.16 0.2,-0.33 0.31,-0.48 0.12,-0.16 0.24,-0.31 0.38,-0.45 z"
   id="path422" />
					<path
   class="st34"
   d="m 330.54,143.26 c -0.18,0.74 -0.34,1.45 -0.46,2.15 -0.12,0.7 -0.2,1.4 -0.21,2.1 -0.02,0.7 0.03,1.39 0.14,2.08 0.11,0.7 0.31,1.38 0.53,2.12 -0.28,-0.26 -0.53,-0.55 -0.74,-0.88 -0.11,-0.16 -0.2,-0.33 -0.29,-0.5 -0.05,-0.09 -0.08,-0.18 -0.12,-0.26 -0.04,-0.09 -0.08,-0.18 -0.11,-0.27 -0.27,-0.73 -0.39,-1.52 -0.37,-2.3 0.02,-0.78 0.18,-1.55 0.45,-2.27 0.14,-0.36 0.3,-0.71 0.49,-1.04 0.1,-0.16 0.2,-0.33 0.31,-0.48 0.12,-0.17 0.24,-0.32 0.38,-0.45 z"
   id="path424" />
					<path
   class="st34"
   d="m 328.2,157.28 c -0.18,0.74 -0.34,1.45 -0.46,2.15 -0.12,0.7 -0.2,1.4 -0.21,2.1 -0.02,0.7 0.03,1.39 0.14,2.08 0.11,0.7 0.31,1.38 0.53,2.12 -0.28,-0.26 -0.53,-0.55 -0.74,-0.88 -0.11,-0.16 -0.2,-0.33 -0.29,-0.5 -0.05,-0.09 -0.08,-0.18 -0.12,-0.26 -0.04,-0.09 -0.08,-0.18 -0.11,-0.27 -0.27,-0.73 -0.39,-1.52 -0.37,-2.3 0.02,-0.78 0.18,-1.55 0.45,-2.27 0.14,-0.36 0.3,-0.71 0.49,-1.04 0.1,-0.16 0.2,-0.33 0.31,-0.48 0.12,-0.16 0.25,-0.31 0.38,-0.45 z"
   id="path426" />
					<path
   class="st34"
   d="m 333.03,172.37 c -0.18,0.74 -0.34,1.45 -0.46,2.15 -0.12,0.7 -0.2,1.4 -0.21,2.1 -0.02,0.7 0.03,1.39 0.14,2.08 0.11,0.7 0.31,1.38 0.53,2.12 -0.28,-0.26 -0.53,-0.55 -0.74,-0.88 -0.11,-0.16 -0.2,-0.33 -0.29,-0.5 -0.05,-0.09 -0.08,-0.18 -0.12,-0.26 -0.04,-0.09 -0.08,-0.18 -0.11,-0.27 -0.27,-0.73 -0.39,-1.52 -0.37,-2.3 0.02,-0.78 0.18,-1.55 0.45,-2.27 0.14,-0.36 0.3,-0.71 0.49,-1.04 0.1,-0.16 0.2,-0.33 0.31,-0.48 0.12,-0.16 0.24,-0.31 0.38,-0.45 z"
   id="path428" />
					<path
   class="st34"
   d="m 337.28,160.43 c -0.18,0.74 -0.34,1.45 -0.46,2.15 -0.12,0.7 -0.2,1.4 -0.21,2.1 -0.02,0.7 0.03,1.39 0.14,2.08 0.11,0.7 0.31,1.38 0.53,2.12 -0.28,-0.26 -0.53,-0.55 -0.74,-0.88 -0.11,-0.16 -0.2,-0.33 -0.29,-0.5 -0.05,-0.09 -0.08,-0.18 -0.12,-0.26 -0.04,-0.09 -0.08,-0.18 -0.11,-0.27 -0.27,-0.73 -0.39,-1.52 -0.37,-2.3 0.02,-0.78 0.18,-1.55 0.45,-2.27 0.14,-0.36 0.3,-0.71 0.49,-1.04 0.1,-0.16 0.2,-0.33 0.31,-0.48 0.12,-0.17 0.24,-0.32 0.38,-0.45 z"
   id="path430" />
					<path
   class="st34"
   d="m 341.12,147.48 c -0.18,0.74 -0.34,1.45 -0.46,2.15 -0.12,0.7 -0.2,1.4 -0.21,2.1 -0.02,0.7 0.03,1.39 0.14,2.08 0.11,0.7 0.31,1.38 0.53,2.12 -0.28,-0.26 -0.53,-0.55 -0.74,-0.88 -0.11,-0.16 -0.2,-0.33 -0.29,-0.5 -0.05,-0.09 -0.08,-0.18 -0.12,-0.26 -0.04,-0.09 -0.08,-0.18 -0.11,-0.27 -0.27,-0.73 -0.39,-1.52 -0.37,-2.3 0.02,-0.78 0.18,-1.55 0.45,-2.27 0.14,-0.36 0.3,-0.71 0.49,-1.04 0.1,-0.16 0.2,-0.33 0.31,-0.48 0.12,-0.16 0.25,-0.31 0.38,-0.45 z"
   id="path432" />
					<path
   class="st34"
   d="m 349.02,141.77 c -0.18,0.74 -0.34,1.45 -0.46,2.15 -0.12,0.7 -0.2,1.4 -0.21,2.1 -0.02,0.7 0.03,1.39 0.14,2.08 0.11,0.7 0.31,1.38 0.53,2.12 -0.28,-0.26 -0.53,-0.55 -0.74,-0.88 -0.11,-0.16 -0.2,-0.33 -0.29,-0.5 -0.05,-0.09 -0.08,-0.18 -0.12,-0.26 -0.04,-0.09 -0.08,-0.18 -0.11,-0.27 -0.27,-0.73 -0.39,-1.52 -0.37,-2.3 0.02,-0.78 0.18,-1.55 0.45,-2.27 0.14,-0.36 0.3,-0.71 0.49,-1.04 0.1,-0.16 0.2,-0.33 0.31,-0.48 0.13,-0.17 0.25,-0.32 0.38,-0.45 z"
   id="path434" />
					<path
   class="st34"
   d="m 356.79,147.48 c -0.18,0.74 -0.34,1.45 -0.46,2.15 -0.12,0.7 -0.2,1.4 -0.21,2.1 -0.02,0.7 0.03,1.39 0.14,2.08 0.11,0.7 0.31,1.38 0.53,2.12 -0.28,-0.26 -0.53,-0.55 -0.74,-0.88 -0.11,-0.16 -0.2,-0.33 -0.29,-0.5 -0.05,-0.09 -0.08,-0.18 -0.12,-0.26 -0.04,-0.09 -0.08,-0.18 -0.11,-0.27 -0.27,-0.73 -0.39,-1.52 -0.37,-2.3 0.02,-0.78 0.18,-1.55 0.45,-2.27 0.14,-0.36 0.3,-0.71 0.49,-1.04 0.1,-0.16 0.2,-0.33 0.31,-0.48 0.12,-0.16 0.25,-0.31 0.38,-0.45 z"
   id="path436" />
					<path
   class="st34"
   d="m 372.39,151.71 c -0.18,0.74 -0.34,1.45 -0.46,2.15 -0.12,0.7 -0.2,1.4 -0.21,2.1 -0.02,0.7 0.03,1.39 0.14,2.08 0.11,0.7 0.31,1.38 0.53,2.12 -0.28,-0.26 -0.53,-0.55 -0.74,-0.88 -0.11,-0.16 -0.2,-0.33 -0.29,-0.5 -0.05,-0.09 -0.08,-0.18 -0.12,-0.26 -0.04,-0.09 -0.08,-0.18 -0.11,-0.27 -0.27,-0.73 -0.39,-1.52 -0.37,-2.3 0.02,-0.78 0.18,-1.55 0.45,-2.27 0.14,-0.36 0.3,-0.71 0.49,-1.04 0.1,-0.16 0.2,-0.33 0.31,-0.48 0.12,-0.17 0.25,-0.32 0.38,-0.45 z"
   id="path438" />
					<path
   class="st34"
   d="m 363.28,168.88 c -0.18,0.74 -0.34,1.45 -0.46,2.15 -0.12,0.7 -0.2,1.4 -0.21,2.1 -0.02,0.7 0.03,1.39 0.14,2.08 0.11,0.7 0.31,1.38 0.53,2.12 -0.28,-0.26 -0.53,-0.55 -0.74,-0.88 -0.11,-0.16 -0.2,-0.33 -0.29,-0.5 -0.05,-0.09 -0.08,-0.18 -0.12,-0.26 -0.04,-0.09 -0.08,-0.18 -0.11,-0.27 -0.27,-0.73 -0.39,-1.52 -0.37,-2.3 0.02,-0.78 0.18,-1.55 0.45,-2.27 0.14,-0.36 0.3,-0.71 0.49,-1.04 0.1,-0.16 0.2,-0.33 0.31,-0.48 0.13,-0.17 0.25,-0.32 0.38,-0.45 z"
   id="path440" />
					<path
   class="st34"
   d="m 357.37,162.35 c -0.18,0.74 -0.34,1.45 -0.46,2.15 -0.12,0.7 -0.2,1.4 -0.21,2.1 -0.02,0.7 0.03,1.39 0.14,2.08 0.11,0.7 0.31,1.38 0.53,2.12 -0.28,-0.26 -0.53,-0.55 -0.74,-0.88 -0.11,-0.16 -0.2,-0.33 -0.29,-0.5 -0.05,-0.09 -0.08,-0.18 -0.12,-0.26 -0.04,-0.09 -0.08,-0.18 -0.11,-0.27 -0.27,-0.73 -0.39,-1.52 -0.37,-2.3 0.02,-0.78 0.18,-1.55 0.45,-2.27 0.14,-0.36 0.3,-0.71 0.49,-1.04 0.1,-0.16 0.2,-0.33 0.31,-0.48 0.12,-0.16 0.24,-0.31 0.38,-0.45 z"
   id="path442" />
					<path
   class="st34"
   d="m 365.29,156.21 c -0.18,0.74 -0.34,1.45 -0.46,2.15 -0.12,0.7 -0.2,1.4 -0.21,2.1 -0.02,0.7 0.03,1.39 0.14,2.08 0.11,0.7 0.31,1.38 0.53,2.12 -0.28,-0.26 -0.53,-0.55 -0.74,-0.88 -0.11,-0.16 -0.2,-0.33 -0.29,-0.5 -0.05,-0.09 -0.08,-0.18 -0.12,-0.26 -0.04,-0.09 -0.08,-0.18 -0.11,-0.27 -0.27,-0.73 -0.39,-1.52 -0.37,-2.3 0.02,-0.78 0.18,-1.55 0.45,-2.27 0.14,-0.36 0.3,-0.71 0.49,-1.04 0.1,-0.16 0.2,-0.33 0.31,-0.48 0.12,-0.17 0.24,-0.32 0.38,-0.45 z"
   id="path444" />
					<path
   class="st34"
   d="m 362.71,144.93 c -0.18,0.74 -0.34,1.45 -0.46,2.15 -0.12,0.7 -0.2,1.4 -0.21,2.1 -0.02,0.7 0.03,1.39 0.14,2.08 0.11,0.7 0.31,1.38 0.53,2.12 -0.28,-0.26 -0.53,-0.55 -0.74,-0.88 -0.11,-0.16 -0.2,-0.33 -0.29,-0.5 -0.05,-0.09 -0.08,-0.18 -0.12,-0.26 -0.04,-0.09 -0.08,-0.18 -0.11,-0.27 -0.27,-0.73 -0.39,-1.52 -0.37,-2.3 0.02,-0.78 0.18,-1.55 0.45,-2.27 0.14,-0.36 0.3,-0.71 0.49,-1.04 0.1,-0.16 0.2,-0.33 0.31,-0.48 0.12,-0.16 0.24,-0.31 0.38,-0.45 z"
   id="path446" />
					<path
   class="st34"
   d="m 347.87,156.21 c -0.18,0.74 -0.34,1.45 -0.46,2.15 -0.12,0.7 -0.2,1.4 -0.21,2.1 -0.02,0.7 0.03,1.39 0.14,2.08 0.11,0.7 0.31,1.38 0.53,2.12 -0.28,-0.26 -0.53,-0.55 -0.74,-0.88 -0.11,-0.16 -0.2,-0.33 -0.29,-0.5 -0.05,-0.09 -0.08,-0.18 -0.12,-0.26 -0.04,-0.09 -0.08,-0.18 -0.11,-0.27 -0.27,-0.73 -0.39,-1.52 -0.37,-2.3 0.02,-0.78 0.18,-1.55 0.45,-2.27 0.14,-0.36 0.3,-0.71 0.49,-1.04 0.1,-0.16 0.2,-0.33 0.31,-0.48 0.12,-0.17 0.24,-0.32 0.38,-0.45 z"
   id="path448" />
					<path
   class="st34"
   d="m 347.87,171.19 c -0.18,0.74 -0.34,1.45 -0.46,2.15 -0.12,0.7 -0.2,1.4 -0.21,2.1 -0.02,0.7 0.03,1.39 0.14,2.08 0.11,0.7 0.31,1.38 0.53,2.12 -0.28,-0.26 -0.53,-0.55 -0.74,-0.88 -0.11,-0.16 -0.2,-0.33 -0.29,-0.5 -0.05,-0.09 -0.08,-0.18 -0.12,-0.26 -0.04,-0.09 -0.08,-0.18 -0.11,-0.27 -0.27,-0.73 -0.39,-1.52 -0.37,-2.3 0.02,-0.78 0.18,-1.55 0.45,-2.27 0.14,-0.36 0.3,-0.71 0.49,-1.04 0.1,-0.16 0.2,-0.33 0.31,-0.48 0.12,-0.17 0.24,-0.32 0.38,-0.45 z"
   id="path450" />
					<path
   class="st34"
   d="m 340.54,175.41 c -0.18,0.74 -0.34,1.45 -0.46,2.15 -0.12,0.7 -0.2,1.4 -0.21,2.1 -0.02,0.7 0.03,1.39 0.14,2.08 0.11,0.7 0.31,1.38 0.53,2.12 -0.28,-0.26 -0.53,-0.55 -0.74,-0.88 -0.11,-0.16 -0.2,-0.33 -0.29,-0.5 -0.05,-0.09 -0.08,-0.18 -0.12,-0.26 -0.04,-0.09 -0.08,-0.18 -0.11,-0.27 -0.27,-0.73 -0.39,-1.52 -0.37,-2.3 0.02,-0.78 0.18,-1.55 0.45,-2.27 0.14,-0.36 0.3,-0.71 0.49,-1.04 0.1,-0.16 0.2,-0.33 0.31,-0.48 0.13,-0.17 0.25,-0.32 0.38,-0.45 z"
   id="path452" />
				</g>
			</g>
		</g>
		<rect
   x="308.07999"
   y="114.12"
   class="st4"
   width="75"
   height="75"
   id="rect460" />
	</g>
	
	
	
	
	
	
	
	
	
	
</g>
</svg>
