<?xml version="1.0" encoding="UTF-8" standalone="no"?>
<svg
   xmlns:dc="http://purl.org/dc/elements/1.1/"
   xmlns:cc="http://creativecommons.org/ns#"
   xmlns:rdf="http://www.w3.org/1999/02/22-rdf-syntax-ns#"
   xmlns:svg="http://www.w3.org/2000/svg"
   xmlns="http://www.w3.org/2000/svg"
   xmlns:sodipodi="http://sodipodi.sourceforge.net/DTD/sodipodi-0.dtd"
   xmlns:inkscape="http://www.inkscape.org/namespaces/inkscape"
   version="1.1"
   id="katman_1"
   x="0px"
   y="0px"
   viewBox="0 0 75.512175 75"
   xml:space="preserve"
   sodipodi:docname="pumpkin.svg"
   width="75.512177"
   height="75"
   inkscape:version="1.0.1 (3bc2e813f5, 2020-09-07)"><metadata
   id="metadata1883"><rdf:RDF><cc:Work
       rdf:about=""><dc:format>image/svg+xml</dc:format><dc:type
         rdf:resource="http://purl.org/dc/dcmitype/StillImage" /><dc:title></dc:title></cc:Work></rdf:RDF></metadata><defs
   id="defs1881" /><sodipodi:namedview
   pagecolor="#ffffff"
   bordercolor="#666666"
   borderopacity="1"
   objecttolerance="10"
   gridtolerance="10"
   guidetolerance="10"
   inkscape:pageopacity="0"
   inkscape:pageshadow="2"
   inkscape:window-width="1718"
   inkscape:window-height="1368"
   id="namedview1879"
   showgrid="false"
   fit-margin-top="0"
   fit-margin-left="0"
   fit-margin-right="0"
   fit-margin-bottom="0"
   inkscape:zoom="2.216"
   inkscape:cx="37.458553"
   inkscape:cy="-106.26999"
   inkscape:window-x="1713"
   inkscape:window-y="0"
   inkscape:window-maximized="0"
   inkscape:current-layer="g1876" />
<style
   type="text/css"
   id="style2">
	.st0{fill:#F40303;}
	.st1{fill:#4E9B04;}
	.st2{opacity:0.1;}
	.st3{opacity:0.15;fill:#FFFFFF;}
	.st4{fill:none;}
	.st5{fill:#DF0000;}
	.st6{fill:#41A500;}
	.st7{opacity:0.1;fill:#231F20;}
	.st8{fill:#84C100;}
	.st9{fill:#F86107;}
	.st10{opacity:0.07;}
	.st11{opacity:0.2;fill:#FFFFFF;}
	.st12{fill:#E55107;}
	.st13{fill:#E61206;}
	.st14{fill:#0D5C00;}
	.st15{fill:#27AB3B;}
	.st16{fill:#09913C;}
	.st17{fill:#E6012C;}
	.st18{fill:#680756;}
	.st19{fill:#74990D;}
	.st20{fill:#B22483;}
	.st21{fill:#43BC48;}
	.st22{fill:#2EAF2E;}
	.st23{fill:#8D1E60;}
	.st24{fill:#753D24;}
	.st25{fill:#348801;}
	.st26{fill:#2C7005;}
	.st27{fill:#63AB16;}
	.st28{fill:#8EBA24;}
	.st29{fill:#3B7524;}
	.st30{fill:#B4D459;}
	.st31{opacity:0.2;fill:#B4D459;}
	.st32{fill:#FEB544;}
	.st33{opacity:0.1;fill:#CE863A;}
	.st34{fill:#CE863A;}
	.st35{fill:#57BF44;}
	.st36{fill:#BBFF96;}
	.st37{fill:#DFFFAA;}
	.st38{fill:#39AA50;}
	.st39{fill:#5DD166;}
	.st40{fill:#8FDC50;}
	.st41{fill:#29602E;}
	.st42{fill:#8CD13D;}
	.st43{fill:#24892E;}
	.st44{fill:#15441A;}
	.st45{fill:#699E25;}
	.st46{fill:#4A8912;}
	.st47{fill:#FCD30B;}
	.st48{fill:#FFE36C;}
	.st49{fill:#FCD30B;stroke:#ED5100;stroke-width:0.0803;stroke-miterlimit:10;}
	.st50{fill:#FCD30B;stroke:#ED5100;stroke-width:0.0749;stroke-miterlimit:10;}
	.st51{fill:#FCD30B;stroke:#ED5100;stroke-width:0.0709;stroke-miterlimit:10;}
	.st52{fill:#FCD30B;stroke:#ED5100;stroke-width:0.0592;stroke-miterlimit:10;}
	.st53{fill:#FCD30B;stroke:#ED5100;stroke-width:0.0529;stroke-miterlimit:10;}
	.st54{fill:#FCD30B;stroke:#ED5100;stroke-width:0.0474;stroke-miterlimit:10;}
	.st55{fill:#FCD30B;stroke:#ED5100;stroke-width:0.0447;stroke-miterlimit:10;}
	.st56{fill:#FCD30B;stroke:#ED5100;stroke-width:0.0607;stroke-miterlimit:10;}
	.st57{fill:#FCD30B;stroke:#ED5100;stroke-width:0.0574;stroke-miterlimit:10;}
	.st58{fill:#FCD30B;stroke:#ED5100;stroke-width:0.0479;stroke-miterlimit:10;}
	.st59{fill:#FCD30B;stroke:#ED5100;stroke-width:0.0402;stroke-miterlimit:10;}
	.st60{fill:#FCD30B;stroke:#ED5100;stroke-width:0.0362;stroke-miterlimit:10;}
	.st61{fill:#FCD30B;stroke:#ED5100;stroke-width:0.033;stroke-miterlimit:10;}
	.st62{fill:#FCD30B;stroke:#ED5100;stroke-width:0.0788;stroke-miterlimit:10;}
	.st63{fill:#FCD30B;stroke:#ED5100;stroke-width:0.0766;stroke-miterlimit:10;}
	.st64{fill:#FCD30B;stroke:#ED5100;stroke-width:0.0793;stroke-miterlimit:10;}
	.st65{fill:#FCD30B;stroke:#ED5100;stroke-width:0.0791;stroke-miterlimit:10;}
	.st66{fill:#FCD30B;stroke:#ED5100;stroke-width:0.0796;stroke-miterlimit:10;}
	.st67{fill:#FCD30B;stroke:#ED5100;stroke-width:0.0635;stroke-miterlimit:10;}
	.st68{fill:#FCD30B;stroke:#ED5100;stroke-width:0.0533;stroke-miterlimit:10;}
	.st69{fill:#FCD30B;stroke:#ED5100;stroke-width:0.0498;stroke-miterlimit:10;}
	.st70{fill:#FCD30B;stroke:#ED5100;stroke-width:0.0329;stroke-miterlimit:10;}
	.st71{fill:#FCD30B;stroke:#ED5100;stroke-width:0.0389;stroke-miterlimit:10;}
	.st72{fill:#FCD30B;stroke:#ED5100;stroke-width:0.023;stroke-miterlimit:10;}
	.st73{fill:#FCD30B;stroke:#ED5100;stroke-width:0.0359;stroke-miterlimit:10;}
	.st74{fill:#FCD30B;stroke:#ED5100;stroke-width:0.0251;stroke-miterlimit:10;}
	.st75{fill:#FCD30B;stroke:#ED5100;stroke-width:0.0795;stroke-miterlimit:10;}
	.st76{fill:#FCD30B;stroke:#ED5100;stroke-width:0.0675;stroke-miterlimit:10;}
	.st77{fill:#FCD30B;stroke:#ED5100;stroke-width:0.0543;stroke-miterlimit:10;}
	.st78{fill:#FCD30B;stroke:#ED5100;stroke-width:0.0466;stroke-miterlimit:10;}
	.st79{fill:#FCD30B;stroke:#ED5100;stroke-width:0.0354;stroke-miterlimit:10;}
	.st80{fill:#489B0B;}
	.st81{fill:#72B236;}
	.st82{fill:#62A428;}
	.st83{fill:#528E2A;}
	.st84{fill:#92BC4C;}
	.st85{fill:#569B30;}
	.st86{fill:#E2C3A4;stroke:#A97D60;stroke-width:0.2737;stroke-miterlimit:10;}
	.st87{fill:#EFE3D3;stroke:#A97D60;stroke-width:0.3649;stroke-linecap:round;stroke-linejoin:round;stroke-miterlimit:10;}
	.st88{fill:#9D6B50;}
	.st89{fill:#E2C19E;}
	.st90{fill:#A16038;}
	.st91{fill:#DFC298;}
	.st92{fill:#EEE4BF;}
	.st93{fill:#D3B689;}
	.st94{fill:#689D34;}
	.st95{fill:#A5BC81;}
	.st96{fill:#DED6A8;}
	.st97{fill:#F4EDDA;}
	.st98{fill:#FF7900;stroke:#DB4900;stroke-width:0.5055;stroke-linecap:round;stroke-linejoin:round;stroke-miterlimit:10;}
	.st99{fill:none;stroke:#DB4900;stroke-width:0.5055;stroke-linecap:round;stroke-linejoin:round;stroke-miterlimit:10;}
	.st100{fill:#2E4819;}
	.st101{fill:#85BB19;}
	.st102{fill:#B2DC55;stroke:#A2C63C;stroke-width:0.2575;stroke-miterlimit:10;}
	.st103{fill:#86CE2C;}
	.st104{fill:#86CE2C;stroke:#72AA1A;stroke-width:0.1884;stroke-linecap:round;stroke-linejoin:round;stroke-miterlimit:10;}
	.st105{opacity:0.6;fill:#DDE68D;}
	.st106{opacity:0.6;}
	.st107{fill:#DDE68D;}
	.st108{fill:#86CE2C;stroke:#72AA1A;stroke-width:0.208;stroke-linecap:round;stroke-linejoin:round;stroke-miterlimit:10;}
</style>
<g
   id="g1876"
   transform="translate(-212.54145,-306.26999)">
	
	
	
	
	
	
	
	
	
	
	
	
	
	
	
	
	
	<g
   id="g1650">
		<g
   id="g1646">
			<g
   id="g1638">
				<path
   class="st98"
   d="m 286.44,359.41 c -2.51,8.36 -8.39,11.52 -10.43,12.39 -0.45,0.19 -0.71,0.27 -0.71,0.27 -5.53,5.53 -13.05,5.35 -15.74,5.08 -0.64,-0.06 -1,-0.13 -1,-0.13 -0.2,0.16 -0.46,0.29 -0.78,0.41 -3.38,1.27 -12.69,0.54 -12.69,0.54 -0.27,0.09 -0.55,0.16 -0.84,0.22 -0.29,0.06 -0.59,0.11 -0.89,0.14 -3.84,0.44 -8.46,-1.07 -8.46,-1.07 -2.09,-0.19 -5.69,-2.29 -7.56,-3.46 -0.74,-0.46 -1.21,-0.78 -1.21,-0.78 -11.57,-6.22 -13.54,-18.45 -13.32,-24.57 0.22,-6.11 2.4,-10.48 6.44,-15.61 4.04,-5.13 8.83,-4.78 8.83,-4.78 5.77,-4.22 13.2,-0.78 13.2,-0.78 1.98,-1.43 3.87,-2.19 5.59,-2.53 0.33,-0.06 0.65,-0.11 0.97,-0.14 1.66,-0.18 3.15,0.03 4.39,0.39 0.32,0.09 0.62,0.19 0.9,0.3 1.95,0.74 3.1,1.75 3.1,1.75 4.19,-3.42 8.25,-0.89 8.25,-0.89 3.93,0.39 4.8,2.28 5.97,2.3 1.17,0.02 3.18,0 3.18,0 8.92,1.47 11.63,8.67 12.46,13.19 0.23,1.25 0.49,2.49 0.77,3.72 0.18,0.79 0.37,1.57 0.56,2.35 0.52,2.16 0.76,5.9 -0.98,11.69 z"
   id="path1616" />
				<path
   class="st99"
   d="m 286.86,345.4 c 0,0 -4.27,-19.33 -22.47,-14.67 0,0 -7.2,3.96 -9.05,5.13"
   id="path1618" />
				<path
   class="st99"
   d="m 215.91,337.7 c 0,0 8.43,-6.79 24.05,-1.92"
   id="path1620" />
				<path
   class="st99"
   d="m 228.09,328.06 c 0,0 10.49,4.61 15.42,8.66"
   id="path1622" />
				<path
   class="st99"
   d="m 256.24,327.05 c 0,0 -2.34,4.33 -3.11,6.55"
   id="path1624" />
				<path
   class="st99"
   d="m 270.46,328.47 c 0,0 -3.74,0.96 -6.07,2.26"
   id="path1626" />
				<path
   class="st99"
   d="m 241.29,327.28 c 0,0 4.82,3.81 5.92,6.32"
   id="path1628" />
				<path
   class="st100"
   d="m 255.63,335.31 c 0.7,0.74 1.62,2.22 -2.33,2.1 0,0 -4.78,1.59 -5.77,1.47 -0.98,-0.12 -4.38,-1.34 -2.73,-2.82 1.65,-1.48 1.92,-1.58 1.99,-3.1 0.07,-1.53 1.12,-8.86 1.5,-11.38 0.27,-1.77 1.81,-7.6 2.7,-10.92 0.33,-1.24 1.71,-1.87 2.86,-1.32 v 0 c 0.8,0.38 1.26,1.23 1.15,2.11 l -0.75,5.81 c 0,0 -1.55,9.56 -1.26,10.92 0.28,1.32 -0.84,4.92 1.92,6.58 0.27,0.15 0.51,0.33 0.72,0.55 z"
   id="path1630" />
				<path
   class="st98"
   d="m 280.84,358.24 c 0,1.03 -0.08,2.04 -0.24,3.03 -0.61,3.86 -2.34,7.46 -4.58,10.53 -0.45,0.19 -0.71,0.27 -0.71,0.27 -5.53,5.53 -13.05,5.35 -15.74,5.08 -0.64,-0.06 -1,-0.13 -1,-0.13 -0.2,0.16 -0.46,0.29 -0.78,0.41 -0.08,-1.66 0.08,-3.72 0.29,-6.1 0.29,-3.32 0.69,-7.26 0.69,-11.62 0,-9.48 -8.1,-17.99 -3.5,-22.31 0.07,-0.07 0.15,-0.13 0.22,-0.2 0.21,-0.18 0.45,-0.35 0.71,-0.51 1.88,-1.17 5.07,-1.93 10.17,-2.18 10.22,-0.5 14.47,10.79 14.47,23.73 z"
   id="path1632" />
				<path
   class="st98"
   d="m 243.31,373.36 c 0.08,1.05 0.13,2.01 0.14,2.89 0,0 0,0 0,0 l -0.08,2.07 c -3.84,0.44 -8.46,-1.07 -8.46,-1.07 -2.09,-0.19 -5.69,-2.29 -7.56,-3.46 -3.41,-4.1 -6.04,-9.42 -6.04,-15.17 0,-12.72 4.08,-23.83 13.89,-23.33 1.83,0.09 3.4,0.26 4.75,0.48 1.43,0.24 2.6,0.55 3.56,0.94 0.32,0.13 0.62,0.26 0.89,0.41 0.69,0.36 1.23,0.77 1.64,1.22 0.04,0.04 0.08,0.09 0.12,0.14 0.06,0.07 0.12,0.15 0.17,0.22 3.28,4.39 -3.85,12.45 -3.85,21.39 0.01,5.12 0.56,9.67 0.83,13.27 z"
   id="path1634" />
				<path
   class="st98"
   d="m 262.28,361.77 c 0,3.19 -0.59,6.19 -1.4,8.92 -0.69,2.33 -1.54,4.46 -2.31,6.33 -0.2,0.16 -0.46,0.29 -0.78,0.41 -3.38,1.27 -12.69,0.54 -12.69,0.54 -0.27,0.09 -0.55,0.16 -0.84,0.22 -0.29,-0.61 -0.56,-1.26 -0.81,-1.93 0,0 0,0 0,0 -0.33,-0.89 -0.63,-1.84 -0.9,-2.84 -0.92,-3.42 -1.45,-7.4 -1.45,-11.65 0,-9.87 0.46,-19.32 5.25,-23.08 0.04,-0.04 0.09,-0.07 0.13,-0.1 0.05,-0.04 0.11,-0.08 0.17,-0.12 1.34,-0.95 2.99,-1.48 5.05,-1.48 0.25,0 0.49,0 0.72,0.01 0.01,0 0.02,0 0.03,0 0.92,0.04 1.76,0.15 2.52,0.33 0.11,0.02 0.21,0.05 0.31,0.08 8.32,2.23 7,13.05 7,24.36 z"
   id="path1636" />
			</g>
			<path
   class="st2"
   d="m 286.44,359.41 c -2.51,8.36 -8.39,11.52 -10.43,12.39 -0.45,0.19 -0.71,0.27 -0.71,0.27 -5.53,5.53 -13.05,5.35 -15.74,5.08 -0.64,-0.06 -1,-0.13 -1,-0.13 -0.2,0.16 -0.46,0.29 -0.78,0.41 -3.38,1.27 -12.69,0.54 -12.69,0.54 -0.27,0.09 -0.55,0.16 -0.84,0.22 -0.29,0.06 -0.59,0.11 -0.89,0.14 -3.84,0.44 -8.46,-1.07 -8.46,-1.07 -2.09,-0.19 -5.69,-2.29 -7.56,-3.46 5.57,0.08 10.62,-0.06 15.2,-0.38 0.25,-0.02 0.51,-0.04 0.76,-0.06 5.6,-0.42 10.5,-1.12 14.77,-2.03 0.97,-0.2 1.9,-0.42 2.8,-0.64 9.65,-2.4 15.8,-5.88 19.72,-9.42 7.4,-6.68 6.82,-13.53 6.82,-13.53 0.53,2.14 0.77,5.88 -0.97,11.67 z"
   id="path1640" />
			<circle
   class="st11"
   cx="226.41"
   cy="342.94"
   r="5.9499998"
   id="circle1642" />
			<circle
   class="st11"
   cx="221.92999"
   cy="351.95999"
   r="2.4400001"
   id="circle1644" />
		</g>
		<rect
   x="212.8"
   y="306.26999"
   class="st4"
   width="75"
   height="75"
   id="rect1648" />
	</g>
	
	
</g>
</svg>
