<?xml version="1.0" encoding="UTF-8" standalone="no"?>
<svg
   xmlns:dc="http://purl.org/dc/elements/1.1/"
   xmlns:cc="http://creativecommons.org/ns#"
   xmlns:rdf="http://www.w3.org/1999/02/22-rdf-syntax-ns#"
   xmlns:svg="http://www.w3.org/2000/svg"
   xmlns="http://www.w3.org/2000/svg"
   xmlns:sodipodi="http://sodipodi.sourceforge.net/DTD/sodipodi-0.dtd"
   xmlns:inkscape="http://www.inkscape.org/namespaces/inkscape"
   version="1.1"
   id="katman_1"
   x="0px"
   y="0px"
   viewBox="0 0 75 75.699997"
   xml:space="preserve"
   sodipodi:docname="radish.svg"
   width="75"
   height="75.699997"
   inkscape:version="1.0.1 (3bc2e813f5, 2020-09-07)"><metadata
   id="metadata1883"><rdf:RDF><cc:Work
       rdf:about=""><dc:format>image/svg+xml</dc:format><dc:type
         rdf:resource="http://purl.org/dc/dcmitype/StillImage" /><dc:title></dc:title></cc:Work></rdf:RDF></metadata><defs
   id="defs1881" /><sodipodi:namedview
   pagecolor="#ffffff"
   bordercolor="#666666"
   borderopacity="1"
   objecttolerance="10"
   gridtolerance="10"
   guidetolerance="10"
   inkscape:pageopacity="0"
   inkscape:pageshadow="2"
   inkscape:window-width="1718"
   inkscape:window-height="1368"
   id="namedview1879"
   showgrid="false"
   fit-margin-top="0"
   fit-margin-left="0"
   fit-margin-right="0"
   fit-margin-bottom="0"
   inkscape:zoom="2.216"
   inkscape:cx="-153.35"
   inkscape:cy="182.65"
   inkscape:window-x="1713"
   inkscape:window-y="0"
   inkscape:window-maximized="0"
   inkscape:current-layer="g1876" />
<style
   type="text/css"
   id="style2">
	.st0{fill:#F40303;}
	.st1{fill:#4E9B04;}
	.st2{opacity:0.1;}
	.st3{opacity:0.15;fill:#FFFFFF;}
	.st4{fill:none;}
	.st5{fill:#DF0000;}
	.st6{fill:#41A500;}
	.st7{opacity:0.1;fill:#231F20;}
	.st8{fill:#84C100;}
	.st9{fill:#F86107;}
	.st10{opacity:0.07;}
	.st11{opacity:0.2;fill:#FFFFFF;}
	.st12{fill:#E55107;}
	.st13{fill:#E61206;}
	.st14{fill:#0D5C00;}
	.st15{fill:#27AB3B;}
	.st16{fill:#09913C;}
	.st17{fill:#E6012C;}
	.st18{fill:#680756;}
	.st19{fill:#74990D;}
	.st20{fill:#B22483;}
	.st21{fill:#43BC48;}
	.st22{fill:#2EAF2E;}
	.st23{fill:#8D1E60;}
	.st24{fill:#753D24;}
	.st25{fill:#348801;}
	.st26{fill:#2C7005;}
	.st27{fill:#63AB16;}
	.st28{fill:#8EBA24;}
	.st29{fill:#3B7524;}
	.st30{fill:#B4D459;}
	.st31{opacity:0.2;fill:#B4D459;}
	.st32{fill:#FEB544;}
	.st33{opacity:0.1;fill:#CE863A;}
	.st34{fill:#CE863A;}
	.st35{fill:#57BF44;}
	.st36{fill:#BBFF96;}
	.st37{fill:#DFFFAA;}
	.st38{fill:#39AA50;}
	.st39{fill:#5DD166;}
	.st40{fill:#8FDC50;}
	.st41{fill:#29602E;}
	.st42{fill:#8CD13D;}
	.st43{fill:#24892E;}
	.st44{fill:#15441A;}
	.st45{fill:#699E25;}
	.st46{fill:#4A8912;}
	.st47{fill:#FCD30B;}
	.st48{fill:#FFE36C;}
	.st49{fill:#FCD30B;stroke:#ED5100;stroke-width:0.0803;stroke-miterlimit:10;}
	.st50{fill:#FCD30B;stroke:#ED5100;stroke-width:0.0749;stroke-miterlimit:10;}
	.st51{fill:#FCD30B;stroke:#ED5100;stroke-width:0.0709;stroke-miterlimit:10;}
	.st52{fill:#FCD30B;stroke:#ED5100;stroke-width:0.0592;stroke-miterlimit:10;}
	.st53{fill:#FCD30B;stroke:#ED5100;stroke-width:0.0529;stroke-miterlimit:10;}
	.st54{fill:#FCD30B;stroke:#ED5100;stroke-width:0.0474;stroke-miterlimit:10;}
	.st55{fill:#FCD30B;stroke:#ED5100;stroke-width:0.0447;stroke-miterlimit:10;}
	.st56{fill:#FCD30B;stroke:#ED5100;stroke-width:0.0607;stroke-miterlimit:10;}
	.st57{fill:#FCD30B;stroke:#ED5100;stroke-width:0.0574;stroke-miterlimit:10;}
	.st58{fill:#FCD30B;stroke:#ED5100;stroke-width:0.0479;stroke-miterlimit:10;}
	.st59{fill:#FCD30B;stroke:#ED5100;stroke-width:0.0402;stroke-miterlimit:10;}
	.st60{fill:#FCD30B;stroke:#ED5100;stroke-width:0.0362;stroke-miterlimit:10;}
	.st61{fill:#FCD30B;stroke:#ED5100;stroke-width:0.033;stroke-miterlimit:10;}
	.st62{fill:#FCD30B;stroke:#ED5100;stroke-width:0.0788;stroke-miterlimit:10;}
	.st63{fill:#FCD30B;stroke:#ED5100;stroke-width:0.0766;stroke-miterlimit:10;}
	.st64{fill:#FCD30B;stroke:#ED5100;stroke-width:0.0793;stroke-miterlimit:10;}
	.st65{fill:#FCD30B;stroke:#ED5100;stroke-width:0.0791;stroke-miterlimit:10;}
	.st66{fill:#FCD30B;stroke:#ED5100;stroke-width:0.0796;stroke-miterlimit:10;}
	.st67{fill:#FCD30B;stroke:#ED5100;stroke-width:0.0635;stroke-miterlimit:10;}
	.st68{fill:#FCD30B;stroke:#ED5100;stroke-width:0.0533;stroke-miterlimit:10;}
	.st69{fill:#FCD30B;stroke:#ED5100;stroke-width:0.0498;stroke-miterlimit:10;}
	.st70{fill:#FCD30B;stroke:#ED5100;stroke-width:0.0329;stroke-miterlimit:10;}
	.st71{fill:#FCD30B;stroke:#ED5100;stroke-width:0.0389;stroke-miterlimit:10;}
	.st72{fill:#FCD30B;stroke:#ED5100;stroke-width:0.023;stroke-miterlimit:10;}
	.st73{fill:#FCD30B;stroke:#ED5100;stroke-width:0.0359;stroke-miterlimit:10;}
	.st74{fill:#FCD30B;stroke:#ED5100;stroke-width:0.0251;stroke-miterlimit:10;}
	.st75{fill:#FCD30B;stroke:#ED5100;stroke-width:0.0795;stroke-miterlimit:10;}
	.st76{fill:#FCD30B;stroke:#ED5100;stroke-width:0.0675;stroke-miterlimit:10;}
	.st77{fill:#FCD30B;stroke:#ED5100;stroke-width:0.0543;stroke-miterlimit:10;}
	.st78{fill:#FCD30B;stroke:#ED5100;stroke-width:0.0466;stroke-miterlimit:10;}
	.st79{fill:#FCD30B;stroke:#ED5100;stroke-width:0.0354;stroke-miterlimit:10;}
	.st80{fill:#489B0B;}
	.st81{fill:#72B236;}
	.st82{fill:#62A428;}
	.st83{fill:#528E2A;}
	.st84{fill:#92BC4C;}
	.st85{fill:#569B30;}
	.st86{fill:#E2C3A4;stroke:#A97D60;stroke-width:0.2737;stroke-miterlimit:10;}
	.st87{fill:#EFE3D3;stroke:#A97D60;stroke-width:0.3649;stroke-linecap:round;stroke-linejoin:round;stroke-miterlimit:10;}
	.st88{fill:#9D6B50;}
	.st89{fill:#E2C19E;}
	.st90{fill:#A16038;}
	.st91{fill:#DFC298;}
	.st92{fill:#EEE4BF;}
	.st93{fill:#D3B689;}
	.st94{fill:#689D34;}
	.st95{fill:#A5BC81;}
	.st96{fill:#DED6A8;}
	.st97{fill:#F4EDDA;}
	.st98{fill:#FF7900;stroke:#DB4900;stroke-width:0.5055;stroke-linecap:round;stroke-linejoin:round;stroke-miterlimit:10;}
	.st99{fill:none;stroke:#DB4900;stroke-width:0.5055;stroke-linecap:round;stroke-linejoin:round;stroke-miterlimit:10;}
	.st100{fill:#2E4819;}
	.st101{fill:#85BB19;}
	.st102{fill:#B2DC55;stroke:#A2C63C;stroke-width:0.2575;stroke-miterlimit:10;}
	.st103{fill:#86CE2C;}
	.st104{fill:#86CE2C;stroke:#72AA1A;stroke-width:0.1884;stroke-linecap:round;stroke-linejoin:round;stroke-miterlimit:10;}
	.st105{opacity:0.6;fill:#DDE68D;}
	.st106{opacity:0.6;}
	.st107{fill:#DDE68D;}
	.st108{fill:#86CE2C;stroke:#72AA1A;stroke-width:0.208;stroke-linecap:round;stroke-linejoin:round;stroke-miterlimit:10;}
</style>
<g
   id="g1876"
   transform="translate(-403.35001,-17.35)">
	
	
	
	
	<g
   id="g216">
		<g
   id="g212">
			<g
   id="g202">
				<g
   id="g158">
					<g
   id="g142">
						<path
   class="st15"
   d="m 448.29,34.1 c 0,1.42 -1.47,2.7 -1.65,3.97 -0.2,1.45 0.81,3.14 0.35,4.3 -0.55,1.39 -2.39,1.73 -3.36,2.53 -1.01,0.83 -1.81,2.53 -3.33,2.53 -1.57,0 -2.35,-1.68 -3.3,-2.49 -0.96,-0.81 -2.75,-1.21 -3.22,-2.63 -0.39,-1.16 0.71,-2.79 0.56,-4.25 -0.13,-1.27 -1.57,-2.56 -1.57,-3.97 0,-1.53 1.47,-3.07 1.66,-4.68 0.19,-1.62 -0.89,-3.49 -0.47,-4.95 0.47,-1.68 2.34,-2.59 3.17,-3.73 1.02,-1.4 1.76,-3.38 3.41,-3.38 1.6,0 2.32,1.99 3.34,3.44 0.81,1.15 2.69,2.05 3.17,3.72 0.42,1.46 -0.63,3.33 -0.43,4.93 0.19,1.61 1.67,3.14 1.67,4.66 z"
   id="path140" />
					</g>
					<g
   id="g156">
						<g
   id="g146">
							<path
   class="st16"
   d="m 440.1,28.62 c 0.13,1.51 0.18,3.02 0.27,4.53 l 0.16,4.53 c 0.1,3.02 0.12,6.03 0.13,9.05 -0.01,3.02 -0.03,6.03 -0.13,9.05 l -0.16,4.53 c -0.09,1.51 -0.15,3.02 -0.27,4.53 -0.13,-1.51 -0.18,-3.02 -0.27,-4.53 l -0.16,-4.53 c -0.1,-3.02 -0.12,-6.03 -0.13,-9.05 0.01,-3.02 0.03,-6.03 0.13,-9.05 l 0.16,-4.53 c 0.09,-1.51 0.15,-3.02 0.27,-4.53 z"
   id="path144" />
						</g>
						<g
   id="g150">
							<path
   class="st16"
   d="m 443.8,29.02 c -0.19,0.66 -0.45,1.28 -0.68,1.92 -0.25,0.63 -0.51,1.25 -0.78,1.86 -0.54,1.23 -1.13,2.44 -1.75,3.63 l -0.56,1.1 -0.44,-1.15 c -0.46,-1.2 -0.92,-2.4 -1.31,-3.62 -0.2,-0.61 -0.39,-1.23 -0.56,-1.85 -0.15,-0.63 -0.34,-1.25 -0.46,-1.89 0.35,0.55 0.64,1.13 0.96,1.69 0.3,0.57 0.59,1.15 0.86,1.73 0.56,1.16 1.06,2.34 1.54,3.53 l -1.01,-0.05 c 0.62,-1.19 1.26,-2.37 1.95,-3.52 0.34,-0.58 0.7,-1.15 1.07,-1.71 0.39,-0.56 0.75,-1.13 1.17,-1.67 z"
   id="path148" />
						</g>
						<g
   id="g154">
							<path
   class="st16"
   d="m 443.8,35.71 c -0.19,0.66 -0.45,1.28 -0.68,1.92 -0.25,0.63 -0.51,1.25 -0.78,1.86 -0.54,1.23 -1.13,2.44 -1.75,3.63 l -0.56,1.1 -0.44,-1.15 c -0.46,-1.2 -0.92,-2.4 -1.31,-3.62 -0.2,-0.61 -0.39,-1.23 -0.56,-1.85 -0.15,-0.63 -0.34,-1.25 -0.46,-1.89 0.35,0.55 0.64,1.13 0.96,1.69 0.3,0.57 0.59,1.15 0.86,1.73 0.56,1.16 1.06,2.34 1.54,3.53 l -1.01,-0.05 c 0.62,-1.19 1.26,-2.37 1.95,-3.52 0.34,-0.58 0.7,-1.15 1.07,-1.71 0.39,-0.56 0.75,-1.13 1.17,-1.67 z"
   id="path152" />
						</g>
					</g>
				</g>
				<g
   id="g180">
					<g
   id="g162">
						<path
   class="st15"
   d="m 445.7,35.87 c -0.67,1.04 -2.32,1.5 -2.79,2.51 -0.54,1.16 0.21,2.66 0,3.73 -0.25,1.28 -1.42,2.53 -1.08,3.58 0.34,1.08 1.94,1.32 3.05,2.04 1.15,0.74 2.01,2.1 3.09,1.96 1.08,-0.14 1.67,-1.74 2.69,-2.55 0.84,-0.67 2.5,-0.67 3.3,-1.66 0.7,-0.87 0.39,-2.54 1.06,-3.58 0.71,-1.09 2.45,-1.78 3.07,-3.12 0.59,-1.28 -0.01,-3.06 0.41,-4.37 0.47,-1.46 1.99,-2.61 2.14,-3.84 0.23,-1.9 -0.9,-2.93 -1.79,-3.47 -0.7,-0.43 -2.19,-1.13 -4.05,-0.25 -1.16,0.55 -1.84,2.34 -3.11,3.22 -1.17,0.81 -3.08,0.79 -4.12,1.77 -1.11,1.04 -1.16,2.92 -1.87,4.03 z"
   id="path160" />
					</g>
					<g
   id="g178">
						<g
   id="g176">
							<g
   id="g166">
								<path
   class="st16"
   d="m 451.36,34.68 c -2.48,4.65 -5.25,9.12 -8.09,13.55 -2.86,4.41 -5.8,8.77 -9.02,12.94 2.48,-4.65 5.25,-9.12 8.09,-13.55 2.86,-4.41 5.8,-8.77 9.02,-12.94 z"
   id="path164" />
							</g>
							<g
   id="g170">
								<path
   class="st16"
   d="m 448.46,33.22 c 0.12,1.19 0.13,2.36 0.1,3.53 -0.03,1.17 -0.11,2.34 -0.22,3.5 l -0.87,-0.51 c 1.83,-1.28 3.72,-2.49 5.79,-3.43 -1.57,1.65 -3.34,3.03 -5.15,4.34 l -1,0.72 0.12,-1.23 c 0.12,-1.16 0.25,-2.32 0.45,-3.48 0.2,-1.15 0.44,-2.3 0.78,-3.44 z"
   id="path168" />
							</g>
							<g
   id="g174">
								<path
   class="st16"
   d="m 445.3,38.12 c 0.12,1.19 0.13,2.36 0.1,3.53 -0.03,1.17 -0.11,2.34 -0.22,3.5 l -0.87,-0.51 c 1.83,-1.28 3.72,-2.49 5.79,-3.43 -1.57,1.65 -3.34,3.03 -5.15,4.34 l -1,0.72 0.12,-1.23 c 0.12,-1.16 0.25,-2.32 0.45,-3.48 0.2,-1.15 0.43,-2.3 0.78,-3.44 z"
   id="path172" />
							</g>
						</g>
					</g>
				</g>
				<g
   id="g200">
					<g
   id="g184">
						<path
   class="st15"
   d="m 436.9,36.18 c 0.73,1 0.35,2.65 0.88,3.64 0.6,1.12 2.18,1.79 2.46,2.84 0.33,1.26 -0.79,2.45 -1.06,3.51 -0.28,1.1 0.03,2.71 -1.04,3.49 -1.1,0.81 -2.51,0.02 -3.6,-0.05 -1.09,-0.08 -2.55,0.56 -3.62,-0.19 -0.87,-0.62 -0.94,-2.33 -1.79,-3.27 -0.74,-0.82 -2.42,-0.99 -3.15,-1.98 -0.78,-1.07 -0.55,-2.92 -1.24,-4.14 -0.7,-1.23 -2.42,-2 -2.88,-3.24 -0.53,-1.43 0.32,-3.02 0.31,-4.26 -0.01,-1.51 -0.5,-3.28 0.66,-4.13 1.12,-0.82 2.66,0.21 4.12,0.7 1.16,0.39 2.94,0.06 4.14,0.98 1.05,0.81 1.27,2.66 2.23,3.69 0.97,1.03 2.8,1.34 3.58,2.41 z"
   id="path182" />
					</g>
					<g
   id="g198">
						<g
   id="g188">
							<path
   class="st16"
   d="m 428.33,36.54 c 3.46,3.98 6.64,8.17 9.76,12.4 3.09,4.25 6.11,8.55 8.86,13.06 -3.46,-3.98 -6.64,-8.17 -9.76,-12.4 -3.09,-4.26 -6.12,-8.56 -8.86,-13.06 z"
   id="path186" />
						</g>
						<g
   id="g192">
							<path
   class="st16"
   d="m 431.13,34.92 c 0.41,1.12 0.71,2.26 0.97,3.4 0.27,1.14 0.47,2.29 0.65,3.45 l 0.19,1.22 -1.04,-0.66 c -1.88,-1.21 -3.72,-2.48 -5.39,-4.03 2.12,0.82 4.07,1.92 5.98,3.09 l -0.84,0.56 c -0.18,-1.16 -0.33,-2.32 -0.42,-3.48 -0.09,-1.18 -0.15,-2.36 -0.1,-3.55 z"
   id="path190" />
						</g>
						<g
   id="g196">
							<path
   class="st16"
   d="m 434.57,39.63 c 0.41,1.12 0.71,2.26 0.97,3.4 0.27,1.14 0.47,2.29 0.65,3.45 l 0.19,1.22 -1.04,-0.66 c -1.88,-1.21 -3.72,-2.48 -5.39,-4.03 2.12,0.82 4.07,1.92 5.98,3.09 l -0.84,0.56 c -0.18,-1.16 -0.33,-2.32 -0.42,-3.48 -0.09,-1.19 -0.15,-2.36 -0.1,-3.55 z"
   id="path194" />
						</g>
					</g>
				</g>
			</g>
			<path
   class="st17"
   d="m 452.08,61.21 c 0,3.49 -2.12,6.54 -5.3,8.26 -2.53,1.36 -4.09,4.04 -3.89,6.91 0.01,0.14 0.02,0.29 0.04,0.43 0.19,1.8 0.17,3.62 -0.12,5.4 -0.13,0.77 -0.29,1.53 -0.52,2.14 -0.61,1.63 -1.11,3.92 -2.28,6.04 -0.31,0.56 -0.7,1.07 -1.15,1.52 -0.45,0.45 -0.96,0.83 -1.53,1.14 0,0 3.22,-5.11 3.22,-6.75 0,-1.74 1.67,-4.21 0.67,-7.15 -0.57,-1.68 -0.01,-3.19 -0.37,-4.9 v 0 c -0.05,-0.25 -0.13,-0.51 -0.23,-0.77 -0.57,-1.48 -1.83,-2.6 -3.35,-3.04 -0.03,-0.01 -0.05,-0.02 -0.08,-0.02 -4.41,-1.31 -7.58,-4.93 -7.58,-9.19 0,-3.36 1.32,-6.33 4.24,-8.08 0,0 0,0 0,0 1.74,-1.04 4.05,-1.65 7,-1.65 8.02,-0.01 11.23,4.34 11.23,9.71 z"
   id="path204" />
			<path
   class="st2"
   d="m 437.19,70.41 c -4.41,-1.31 -7.58,-4.93 -7.58,-9.19 0,-3.36 1.32,-6.33 4.24,-8.08 -0.09,0.12 -4.99,7.12 3.34,17.27 z"
   id="path206" />
			<circle
   class="st11"
   cx="446.94"
   cy="56.279999"
   r="1.75"
   id="circle208" />
			<circle
   class="st11"
   cx="448.69"
   cy="59.189999"
   r="0.88"
   id="circle210" />
		</g>
		<rect
   x="403.35001"
   y="18.049999"
   class="st4"
   width="75"
   height="75"
   id="rect214" />
	</g>
	
	
	
	
	
	
	
	
	
	
	
	
	
	
	
</g>
</svg>
