<?xml version="1.0" encoding="UTF-8" standalone="no"?>
<svg
   xmlns:dc="http://purl.org/dc/elements/1.1/"
   xmlns:cc="http://creativecommons.org/ns#"
   xmlns:rdf="http://www.w3.org/1999/02/22-rdf-syntax-ns#"
   xmlns:svg="http://www.w3.org/2000/svg"
   xmlns="http://www.w3.org/2000/svg"
   xmlns:sodipodi="http://sodipodi.sourceforge.net/DTD/sodipodi-0.dtd"
   xmlns:inkscape="http://www.inkscape.org/namespaces/inkscape"
   version="1.1"
   id="katman_1"
   x="0px"
   y="0px"
   viewBox="0 0 74.999999 75"
   xml:space="preserve"
   sodipodi:docname="spinach.svg"
   width="75"
   height="75"
   inkscape:version="1.0.1 (3bc2e813f5, 2020-09-07)"><metadata
   id="metadata1883"><rdf:RDF><cc:Work
       rdf:about=""><dc:format>image/svg+xml</dc:format><dc:type
         rdf:resource="http://purl.org/dc/dcmitype/StillImage" /><dc:title></dc:title></cc:Work></rdf:RDF></metadata><defs
   id="defs1881" /><sodipodi:namedview
   pagecolor="#ffffff"
   bordercolor="#666666"
   borderopacity="1"
   objecttolerance="10"
   gridtolerance="10"
   guidetolerance="10"
   inkscape:pageopacity="0"
   inkscape:pageshadow="2"
   inkscape:window-width="1718"
   inkscape:window-height="1368"
   id="namedview1879"
   showgrid="false"
   fit-margin-top="0"
   fit-margin-left="0"
   fit-margin-right="0"
   fit-margin-bottom="0"
   inkscape:zoom="2.216"
   inkscape:cx="37.2"
   inkscape:cy="-10.200008"
   inkscape:window-x="1713"
   inkscape:window-y="0"
   inkscape:window-maximized="0"
   inkscape:current-layer="g1876" />
<style
   type="text/css"
   id="style2">
	.st0{fill:#F40303;}
	.st1{fill:#4E9B04;}
	.st2{opacity:0.1;}
	.st3{opacity:0.15;fill:#FFFFFF;}
	.st4{fill:none;}
	.st5{fill:#DF0000;}
	.st6{fill:#41A500;}
	.st7{opacity:0.1;fill:#231F20;}
	.st8{fill:#84C100;}
	.st9{fill:#F86107;}
	.st10{opacity:0.07;}
	.st11{opacity:0.2;fill:#FFFFFF;}
	.st12{fill:#E55107;}
	.st13{fill:#E61206;}
	.st14{fill:#0D5C00;}
	.st15{fill:#27AB3B;}
	.st16{fill:#09913C;}
	.st17{fill:#E6012C;}
	.st18{fill:#680756;}
	.st19{fill:#74990D;}
	.st20{fill:#B22483;}
	.st21{fill:#43BC48;}
	.st22{fill:#2EAF2E;}
	.st23{fill:#8D1E60;}
	.st24{fill:#753D24;}
	.st25{fill:#348801;}
	.st26{fill:#2C7005;}
	.st27{fill:#63AB16;}
	.st28{fill:#8EBA24;}
	.st29{fill:#3B7524;}
	.st30{fill:#B4D459;}
	.st31{opacity:0.2;fill:#B4D459;}
	.st32{fill:#FEB544;}
	.st33{opacity:0.1;fill:#CE863A;}
	.st34{fill:#CE863A;}
	.st35{fill:#57BF44;}
	.st36{fill:#BBFF96;}
	.st37{fill:#DFFFAA;}
	.st38{fill:#39AA50;}
	.st39{fill:#5DD166;}
	.st40{fill:#8FDC50;}
	.st41{fill:#29602E;}
	.st42{fill:#8CD13D;}
	.st43{fill:#24892E;}
	.st44{fill:#15441A;}
	.st45{fill:#699E25;}
	.st46{fill:#4A8912;}
	.st47{fill:#FCD30B;}
	.st48{fill:#FFE36C;}
	.st49{fill:#FCD30B;stroke:#ED5100;stroke-width:0.0803;stroke-miterlimit:10;}
	.st50{fill:#FCD30B;stroke:#ED5100;stroke-width:0.0749;stroke-miterlimit:10;}
	.st51{fill:#FCD30B;stroke:#ED5100;stroke-width:0.0709;stroke-miterlimit:10;}
	.st52{fill:#FCD30B;stroke:#ED5100;stroke-width:0.0592;stroke-miterlimit:10;}
	.st53{fill:#FCD30B;stroke:#ED5100;stroke-width:0.0529;stroke-miterlimit:10;}
	.st54{fill:#FCD30B;stroke:#ED5100;stroke-width:0.0474;stroke-miterlimit:10;}
	.st55{fill:#FCD30B;stroke:#ED5100;stroke-width:0.0447;stroke-miterlimit:10;}
	.st56{fill:#FCD30B;stroke:#ED5100;stroke-width:0.0607;stroke-miterlimit:10;}
	.st57{fill:#FCD30B;stroke:#ED5100;stroke-width:0.0574;stroke-miterlimit:10;}
	.st58{fill:#FCD30B;stroke:#ED5100;stroke-width:0.0479;stroke-miterlimit:10;}
	.st59{fill:#FCD30B;stroke:#ED5100;stroke-width:0.0402;stroke-miterlimit:10;}
	.st60{fill:#FCD30B;stroke:#ED5100;stroke-width:0.0362;stroke-miterlimit:10;}
	.st61{fill:#FCD30B;stroke:#ED5100;stroke-width:0.033;stroke-miterlimit:10;}
	.st62{fill:#FCD30B;stroke:#ED5100;stroke-width:0.0788;stroke-miterlimit:10;}
	.st63{fill:#FCD30B;stroke:#ED5100;stroke-width:0.0766;stroke-miterlimit:10;}
	.st64{fill:#FCD30B;stroke:#ED5100;stroke-width:0.0793;stroke-miterlimit:10;}
	.st65{fill:#FCD30B;stroke:#ED5100;stroke-width:0.0791;stroke-miterlimit:10;}
	.st66{fill:#FCD30B;stroke:#ED5100;stroke-width:0.0796;stroke-miterlimit:10;}
	.st67{fill:#FCD30B;stroke:#ED5100;stroke-width:0.0635;stroke-miterlimit:10;}
	.st68{fill:#FCD30B;stroke:#ED5100;stroke-width:0.0533;stroke-miterlimit:10;}
	.st69{fill:#FCD30B;stroke:#ED5100;stroke-width:0.0498;stroke-miterlimit:10;}
	.st70{fill:#FCD30B;stroke:#ED5100;stroke-width:0.0329;stroke-miterlimit:10;}
	.st71{fill:#FCD30B;stroke:#ED5100;stroke-width:0.0389;stroke-miterlimit:10;}
	.st72{fill:#FCD30B;stroke:#ED5100;stroke-width:0.023;stroke-miterlimit:10;}
	.st73{fill:#FCD30B;stroke:#ED5100;stroke-width:0.0359;stroke-miterlimit:10;}
	.st74{fill:#FCD30B;stroke:#ED5100;stroke-width:0.0251;stroke-miterlimit:10;}
	.st75{fill:#FCD30B;stroke:#ED5100;stroke-width:0.0795;stroke-miterlimit:10;}
	.st76{fill:#FCD30B;stroke:#ED5100;stroke-width:0.0675;stroke-miterlimit:10;}
	.st77{fill:#FCD30B;stroke:#ED5100;stroke-width:0.0543;stroke-miterlimit:10;}
	.st78{fill:#FCD30B;stroke:#ED5100;stroke-width:0.0466;stroke-miterlimit:10;}
	.st79{fill:#FCD30B;stroke:#ED5100;stroke-width:0.0354;stroke-miterlimit:10;}
	.st80{fill:#489B0B;}
	.st81{fill:#72B236;}
	.st82{fill:#62A428;}
	.st83{fill:#528E2A;}
	.st84{fill:#92BC4C;}
	.st85{fill:#569B30;}
	.st86{fill:#E2C3A4;stroke:#A97D60;stroke-width:0.2737;stroke-miterlimit:10;}
	.st87{fill:#EFE3D3;stroke:#A97D60;stroke-width:0.3649;stroke-linecap:round;stroke-linejoin:round;stroke-miterlimit:10;}
	.st88{fill:#9D6B50;}
	.st89{fill:#E2C19E;}
	.st90{fill:#A16038;}
	.st91{fill:#DFC298;}
	.st92{fill:#EEE4BF;}
	.st93{fill:#D3B689;}
	.st94{fill:#689D34;}
	.st95{fill:#A5BC81;}
	.st96{fill:#DED6A8;}
	.st97{fill:#F4EDDA;}
	.st98{fill:#FF7900;stroke:#DB4900;stroke-width:0.5055;stroke-linecap:round;stroke-linejoin:round;stroke-miterlimit:10;}
	.st99{fill:none;stroke:#DB4900;stroke-width:0.5055;stroke-linecap:round;stroke-linejoin:round;stroke-miterlimit:10;}
	.st100{fill:#2E4819;}
	.st101{fill:#85BB19;}
	.st102{fill:#B2DC55;stroke:#A2C63C;stroke-width:0.2575;stroke-miterlimit:10;}
	.st103{fill:#86CE2C;}
	.st104{fill:#86CE2C;stroke:#72AA1A;stroke-width:0.1884;stroke-linecap:round;stroke-linejoin:round;stroke-miterlimit:10;}
	.st105{opacity:0.6;fill:#DDE68D;}
	.st106{opacity:0.6;}
	.st107{fill:#DDE68D;}
	.st108{fill:#86CE2C;stroke:#72AA1A;stroke-width:0.208;stroke-linecap:round;stroke-linejoin:round;stroke-miterlimit:10;}
</style>
<g
   id="g1876"
   transform="translate(-212.8,-210.2)">
	
	
	
	
	
	
	
	
	
	
	
	
	
	<g
   id="g1448">
		<g
   id="g1444">
			<g
   id="g1366">
				<path
   class="st83"
   d="m 249.26,282.22 c 0.58,0.3 1.29,0.09 1.63,-0.46 1.86,-3.08 7.63,-11.82 8.61,-13.27 1.3,-1.9 5.03,-9.49 9.32,-8.23 5.29,1.56 9.81,0.71 15.47,-10.33 5.66,-11.04 3.58,-21.32 0,-22.54 0,0 -8.9,-0.85 -15.25,4.62 -6.35,5.47 -10.7,11.41 -5.51,21.5 0,0 1,1.1 0,2.48 -0.87,1.2 -11.91,19.67 -14.78,24.48 -0.36,0.62 -0.13,1.43 0.51,1.75 z"
   id="path1336" />
				<g
   id="g1364">
					<g
   id="g1362">
						<g
   id="g1340">
							<path
   class="st84"
   d="m 282.31,230.69 c -0.44,0.44 -0.76,0.97 -1.1,1.48 l -1,1.56 c -0.65,1.05 -1.28,2.11 -1.89,3.18 -1.23,2.13 -2.44,4.28 -3.47,6.5 -0.26,0.55 -0.49,1.12 -0.71,1.68 -0.19,0.53 -0.39,1.19 -0.68,1.76 -0.56,1.15 -1.24,2.19 -1.95,3.22 -1.43,2.04 -2.97,3.98 -4.56,5.88 -0.8,0.95 -1.65,1.85 -2.4,2.8 -0.76,0.95 -1.42,1.96 -2.09,3 -1.36,2.06 -2.68,4.14 -4.06,6.19 l -4.08,6.18 c -1.36,2.06 -2.76,4.09 -4.02,6.21 2.27,-4.4 4.94,-8.56 7.51,-12.77 1.28,-2.11 2.63,-4.18 3.95,-6.26 0.66,-1.03 1.33,-2.11 2.11,-3.09 0.78,-1 1.61,-1.9 2.39,-2.85 1.6,-1.87 3.15,-3.78 4.58,-5.77 0.7,-1 1.39,-2.02 1.92,-3.08 0.28,-0.53 0.43,-1.07 0.68,-1.68 0.24,-0.58 0.51,-1.15 0.79,-1.71 1.12,-2.22 2.4,-4.34 3.72,-6.43 0.67,-1.04 1.36,-2.06 2.07,-3.08 0.72,-1.02 1.39,-2.07 2.29,-2.92 z"
   id="path1338" />
						</g>
						<g
   id="g1344">
							<path
   class="st84"
   d="m 267.38,254.71 c 2.14,-1 4.32,-1.8 6.51,-2.6 l 3.27,-1.19 c 1.08,-0.42 2.16,-0.8 3.18,-1.4 -0.79,0.9 -1.85,1.5 -2.89,2.05 -1.05,0.54 -2.14,0.98 -3.24,1.4 -2.23,0.78 -4.49,1.43 -6.83,1.74 z"
   id="path1342" />
						</g>
						<g
   id="g1348">
							<path
   class="st84"
   d="m 269.08,234.49 c -0.63,1.68 -1.14,3.38 -1.38,5.11 -0.12,0.86 -0.17,1.73 -0.12,2.59 0.01,0.43 0.07,0.86 0.11,1.28 l 0.18,1.34 c 0.2,1.79 0.22,3.63 0.05,5.41 -0.07,0.9 -0.17,1.79 -0.32,2.68 -0.08,0.44 -0.18,0.89 -0.29,1.32 -0.12,0.43 -0.25,0.89 -0.56,1.23 0.37,-0.81 0.36,-1.72 0.41,-2.6 0.04,-0.89 0.05,-1.77 0.05,-2.66 0.02,-1.78 -0.04,-3.53 -0.25,-5.28 l -0.16,-1.32 c -0.04,-0.46 -0.11,-0.92 -0.09,-1.39 0,-0.92 0.08,-1.85 0.29,-2.74 0.37,-1.77 1.14,-3.45 2.08,-4.97 z"
   id="path1346" />
						</g>
						<g
   id="g1352">
							<path
   class="st84"
   d="m 273.12,232.98 c -0.49,1.22 -0.74,2.48 -0.9,3.74 -0.12,1.26 -0.12,2.52 0.08,3.76 0.1,0.61 0.23,1.24 0.36,1.9 0.1,0.66 0.2,1.31 0.22,1.98 0.06,1.31 -0.01,2.72 -0.66,3.89 0.31,-1.27 0.12,-2.56 -0.05,-3.82 -0.18,-1.29 -0.53,-2.45 -0.78,-3.81 -0.39,-2.66 0.14,-5.52 1.73,-7.64 z"
   id="path1350" />
						</g>
						<g
   id="g1356">
							<path
   class="st84"
   d="m 285.05,240.21 c -0.63,1.1 -1.49,2.02 -2.38,2.9 -0.89,0.88 -1.87,1.68 -2.92,2.38 -1.06,0.68 -2.16,1.33 -3.37,1.74 -1.19,0.42 -2.47,0.68 -3.72,0.59 1.22,-0.29 2.35,-0.73 3.44,-1.25 1.09,-0.52 2.12,-1.17 3.13,-1.84 1.02,-0.66 1.99,-1.4 2.96,-2.16 0.97,-0.76 1.95,-1.52 2.86,-2.36 z"
   id="path1354" />
						</g>
						<g
   id="g1360">
							<path
   class="st84"
   d="m 285.36,233.55 c -0.02,0.89 -0.5,1.71 -1.07,2.39 -0.58,0.69 -1.31,1.23 -2.09,1.65 -0.8,0.39 -1.64,0.69 -2.5,0.83 -0.86,0.16 -1.73,0.18 -2.6,0.08 0.83,-0.28 1.63,-0.5 2.42,-0.77 0.78,-0.27 1.54,-0.58 2.26,-0.95 0.72,-0.37 1.39,-0.82 2.01,-1.34 0.6,-0.53 1.19,-1.13 1.57,-1.89 z"
   id="path1358" />
						</g>
					</g>
				</g>
			</g>
			<g
   id="g1406">
				<path
   class="st83"
   d="m 250.17,282.34 c 0.27,-0.47 0.27,-1.06 -0.02,-1.52 -2.39,-3.84 -13.05,-21.12 -12.14,-22.8 1.03,-1.89 6.59,-5.97 3.01,-11.19 -3.23,-4.71 -10.45,-16.75 -20.83,-17.1 -2.56,-0.09 -4.94,1.33 -6.07,3.64 -1.94,3.98 -2.94,11.83 5.97,25.11 0.61,0.91 1.19,1.84 1.72,2.79 0.86,1.53 3.22,4.27 8.44,1.86 1.94,-0.89 4.23,-0.65 5.86,0.72 1.06,0.89 2.22,2.25 3.4,4.36 2.77,4.95 6.27,10.97 8.12,14.14 0.56,0.97 1.97,0.96 2.54,-0.01 z"
   id="path1368" />
				<g
   id="g1404">
					<g
   id="g1402">
						<g
   id="g1372">
							<path
   class="st84"
   d="m 218.57,233.9 c 1.15,0.92 2.19,1.99 3.14,3.12 0.95,1.13 1.81,2.36 2.46,3.71 0.34,0.67 0.61,1.37 0.82,2.1 0.23,0.72 0.43,1.35 0.78,2.01 0.62,1.3 1.4,2.54 2.18,3.78 1.57,2.47 3.29,4.86 5.04,7.21 1.77,2.34 3.52,4.71 5.35,7 0.01,0.01 0.02,0.03 0.03,0.04 1.87,3.04 3.7,6.11 5.48,9.2 0.89,1.55 1.79,3.09 2.64,4.66 0.84,1.57 1.73,3.13 2.42,4.78 -0.83,-1.58 -1.79,-3.08 -2.72,-4.6 l -2.83,-4.54 -5.69,-9.06 0.03,0.04 c -1.85,-2.3 -3.69,-4.6 -5.42,-6.99 -1.73,-2.39 -3.43,-4.81 -4.99,-7.32 -0.78,-1.26 -1.51,-2.55 -2.11,-3.93 -0.32,-0.66 -0.54,-1.44 -0.74,-2.13 -0.18,-0.69 -0.41,-1.38 -0.71,-2.04 -1.22,-2.63 -3.06,-4.99 -5.16,-7.04 z"
   id="path1370" />
						</g>
						<g
   id="g1376">
							<path
   class="st84"
   d="m 219.98,253.87 c 1.12,0.53 2.23,1.05 3.34,1.53 1.12,0.47 2.24,0.92 3.39,1.22 1.15,0.31 2.29,0.49 3.45,0.27 1.24,-0.18 2.62,-0.15 3.7,0.52 -1.2,-0.29 -2.41,-0.1 -3.55,0.18 -0.27,0.09 -0.63,0.14 -0.95,0.19 -0.33,0.03 -0.66,0.03 -0.98,0.03 -0.65,-0.05 -1.28,-0.15 -1.9,-0.32 -1.23,-0.34 -2.38,-0.85 -3.47,-1.46 -1.08,-0.61 -2.11,-1.32 -3.03,-2.16 z"
   id="path1374" />
						</g>
						<g
   id="g1380">
							<path
   class="st84"
   d="m 215.46,242.74 c 0.96,1.48 2.1,2.8 3.3,4.04 1.22,1.22 2.5,2.38 3.91,3.37 1.4,0.99 2.86,1.92 4.42,2.67 1.54,0.79 3.17,1.41 4.82,2.04 -0.86,-0.15 -1.74,-0.31 -2.59,-0.53 -0.84,-0.26 -1.71,-0.49 -2.52,-0.86 -1.66,-0.63 -3.21,-1.56 -4.67,-2.58 -1.45,-1.04 -2.76,-2.27 -3.9,-3.63 -1.15,-1.36 -2.13,-2.88 -2.77,-4.52 z"
   id="path1378" />
						</g>
						<g
   id="g1384">
							<path
   class="st84"
   d="m 216.34,238.4 c 0.43,0.09 0.78,0.38 1.12,0.63 l 0.97,0.78 c 0.64,0.51 1.27,0.99 1.95,1.4 0.67,0.43 1.38,0.78 2.12,1.1 0.74,0.34 1.51,0.58 2.3,0.91 -1.69,0.12 -3.44,-0.31 -4.91,-1.23 -0.73,-0.46 -1.4,-1.02 -1.96,-1.66 -0.6,-0.62 -0.98,-1.37 -1.59,-1.93 z"
   id="path1382" />
						</g>
						<g
   id="g1388">
							<path
   class="st84"
   d="m 228.97,235.76 c 0.56,0.99 0.88,2.11 1,3.25 0.14,1.15 0.02,2.32 -0.27,3.45 -0.35,1.15 -0.79,2.09 -1.15,3.15 -0.36,1.04 -0.71,2.08 -0.91,3.19 -0.18,-1.13 -0.01,-2.28 0.23,-3.38 0.11,-0.56 0.28,-1.1 0.44,-1.64 0.19,-0.55 0.37,-1.05 0.51,-1.56 0.57,-2.06 0.55,-4.25 0.15,-6.46 z"
   id="path1386" />
						</g>
						<g
   id="g1392">
							<path
   class="st84"
   d="m 233.86,242.16 c 0.82,1.08 1.41,2.36 1.63,3.75 0.12,0.69 0.11,1.42 -0.03,2.13 -0.05,0.35 -0.21,0.72 -0.31,1.03 -0.12,0.3 -0.22,0.61 -0.32,0.92 -0.41,1.24 -0.67,2.52 -0.76,3.82 -0.04,0.65 -0.07,1.33 -0.07,1.99 -0.01,0.67 0,1.33 0.16,1.99 -0.63,-1.23 -0.73,-2.64 -0.8,-3.99 -0.05,-1.38 0.19,-2.77 0.61,-4.09 0.11,-0.33 0.23,-0.65 0.36,-0.97 0.12,-0.32 0.23,-0.58 0.3,-0.89 0.16,-0.6 0.2,-1.23 0.17,-1.87 -0.1,-1.27 -0.43,-2.58 -0.94,-3.82 z"
   id="path1390" />
						</g>
						<g
   id="g1396">
							<path
   class="st84"
   d="m 237.02,249.97 c 0.26,1.54 0.15,3.07 -0.12,4.58 -0.16,0.75 -0.35,1.5 -0.66,2.22 -0.31,0.7 -0.72,1.45 -1.41,1.86 0.4,-0.67 0.55,-1.37 0.73,-2.09 0.15,-0.72 0.31,-1.44 0.44,-2.17 0.29,-1.45 0.56,-2.92 1.02,-4.4 z"
   id="path1394" />
						</g>
						<g
   id="g1400">
							<path
   class="st84"
   d="m 226.46,235.07 c -0.18,1.67 -0.52,3.25 -0.8,4.84 -0.15,0.79 -0.27,1.58 -0.37,2.37 -0.09,0.79 -0.15,1.58 0.03,2.4 -0.54,-0.67 -0.71,-1.58 -0.74,-2.42 -0.04,-0.85 0.04,-1.69 0.18,-2.52 0.32,-1.63 0.83,-3.23 1.7,-4.67 z"
   id="path1398" />
						</g>
					</g>
				</g>
			</g>
			<g
   id="g1442">
				<path
   class="st85"
   d="m 248.64,283.3 c 0.59,0 1.1,-0.4 1.24,-0.98 0.9,-3.79 4.03,-17.81 3.48,-27.51 -0.01,-0.22 0.36,-4.39 5.13,-7.62 6.74,-4.56 10.71,-24.4 1.69,-31.35 -9.03,-6.94 -15.87,-2.38 -18.45,-0.79 -2.42,1.49 -7.47,6.55 -7.44,13.1 0.03,5.87 -2.08,11.81 13,22.42 0,0 4.03,2.38 2.36,16.77 -0.98,8.47 -1.76,12.5 -2.24,14.39 -0.21,0.79 0.4,1.57 1.23,1.57 z"
   id="path1408" />
				<g
   id="g1412">
					<path
   class="st84"
   d="m 251.35,253.78 c -0.39,-1.21 -0.2,-2.55 0.13,-3.77 0.34,-1.23 0.89,-2.39 1.55,-3.47 0.32,-0.55 0.71,-1.05 1.06,-1.56 0.4,-0.49 0.79,-0.98 1.21,-1.44 0.44,-0.45 0.87,-0.9 1.33,-1.32 0.48,-0.41 0.95,-0.81 1.46,-1.18 -0.35,0.52 -0.73,1.01 -1.11,1.5 l -1.1,1.48 c -0.71,1 -1.42,1.99 -2.04,3.03 -0.65,1.02 -1.2,2.1 -1.66,3.21 -0.44,1.11 -0.82,2.28 -0.83,3.52 z"
   id="path1410" />
				</g>
				<g
   id="g1416">
					<path
   class="st84"
   d="m 260.57,227.3 c -0.42,1.39 -0.96,2.74 -1.63,4.03 -0.68,1.29 -1.42,2.56 -2.53,3.64 -0.25,0.26 -0.68,0.52 -0.91,0.69 -0.27,0.18 -0.53,0.41 -0.79,0.64 -0.52,0.45 -0.99,0.98 -1.46,1.5 -0.92,1.07 -1.82,2.19 -2.71,3.34 0.57,-1.34 1.27,-2.62 2.12,-3.81 0.42,-0.6 0.9,-1.16 1.42,-1.7 0.52,-0.55 1.25,-0.97 1.67,-1.37 0.49,-0.44 0.92,-0.99 1.34,-1.56 0.43,-0.56 0.81,-1.16 1.2,-1.75 z"
   id="path1414" />
				</g>
				<g
   id="g1420">
					<path
   class="st84"
   d="m 257.65,221.19 c -0.36,0.87 -0.89,1.64 -1.41,2.39 -0.53,0.75 -1.11,1.46 -1.72,2.16 -0.62,0.68 -1.26,1.35 -1.96,1.95 -0.7,0.6 -1.45,1.2 -2.33,1.53 0.66,-0.66 1.2,-1.37 1.8,-2.06 0.58,-0.7 1.18,-1.38 1.78,-2.07 0.61,-0.67 1.22,-1.35 1.87,-2 0.61,-0.64 1.29,-1.26 1.97,-1.9 z"
   id="path1418" />
				</g>
				<g
   id="g1424">
					<path
   class="st84"
   d="m 255.31,218.22 c -0.53,1.24 -1.28,2.31 -2.12,3.3 -0.43,0.49 -0.88,0.96 -1.39,1.39 -0.51,0.41 -1.06,0.84 -1.73,1.02 0.44,-0.5 0.78,-1.03 1.18,-1.54 0.39,-0.51 0.79,-1.01 1.21,-1.5 0.43,-0.48 0.86,-0.96 1.33,-1.41 0.47,-0.45 0.95,-0.89 1.52,-1.26 z"
   id="path1422" />
				</g>
				<g
   id="g1428">
					<path
   class="st84"
   d="m 243.46,217.07 c 0.5,0.68 1.02,1.33 1.52,1.99 0.51,0.65 1,1.3 1.52,1.93 0.51,0.64 1.04,1.24 1.58,1.85 0.55,0.6 1.13,1.17 1.74,1.78 -1.64,-0.54 -2.99,-1.72 -4.07,-3.03 -0.53,-0.67 -1.01,-1.38 -1.4,-2.13 -0.39,-0.76 -0.75,-1.54 -0.89,-2.39 z"
   id="path1426" />
				</g>
				<g
   id="g1432">
					<path
   class="st84"
   d="m 240.76,223.44 c 0.5,1.52 1.01,3.02 1.58,4.48 0.3,0.72 0.59,1.44 0.97,2.09 0.36,0.65 0.86,1.15 1.45,1.66 1.16,1.02 2.45,2.04 3.49,3.29 1.06,1.24 1.84,2.73 2.19,4.29 -0.71,-1.44 -1.66,-2.68 -2.75,-3.78 -1.1,-1.09 -2.35,-2.02 -3.58,-3.08 -0.59,-0.53 -1.23,-1.18 -1.61,-1.94 -0.38,-0.75 -0.66,-1.51 -0.89,-2.29 -0.44,-1.54 -0.71,-3.12 -0.85,-4.72 z"
   id="path1430" />
				</g>
				<g
   id="g1436">
					<path
   class="st84"
   d="m 240.76,235.11 c 1.1,0.46 2.12,1.06 3.11,1.72 0.99,0.65 1.92,1.39 2.8,2.19 0.87,0.81 1.71,1.67 2.39,2.66 0.69,0.98 1.29,2.07 1.47,3.26 -0.56,-1.05 -1.29,-1.93 -2.06,-2.79 -0.77,-0.85 -1.6,-1.65 -2.46,-2.42 -1.68,-1.57 -3.49,-3.03 -5.25,-4.62 z"
   id="path1434" />
				</g>
				<g
   id="g1440">
					<path
   class="st84"
   d="m 249.16,281.43 c 0.87,-5.37 1.49,-10.76 1.75,-16.17 0.11,-2.71 0.19,-5.41 0.13,-8.11 -0.04,-2.7 -0.35,-5.39 -0.52,-8.11 -0.34,-5.42 -0.61,-10.87 -0.63,-16.3 -0.07,-5.43 -0.13,-10.86 -0.08,-16.3 0.35,5.42 0.59,10.85 0.82,16.28 0.14,2.72 0.17,5.42 0.33,8.13 0.14,2.71 0.33,5.42 0.52,8.12 0.14,2.7 0.43,5.42 0.44,8.16 0.02,2.73 -0.04,5.46 -0.27,8.17 -0.21,2.72 -0.52,5.42 -0.92,8.12 -0.43,2.69 -0.94,5.36 -1.57,8.01 z"
   id="path1438" />
				</g>
			</g>
		</g>
		<rect
   x="212.8"
   y="210.2"
   class="st4"
   width="75"
   height="75"
   id="rect1446" />
	</g>
	
	
	
	
	
	
</g>
</svg>
