<?xml version="1.0" encoding="UTF-8" standalone="no"?>
<!-- Created with Inkscape (http://www.inkscape.org/) -->

<svg
   xmlns:dc="http://purl.org/dc/elements/1.1/"
   xmlns:cc="http://creativecommons.org/ns#"
   xmlns:rdf="http://www.w3.org/1999/02/22-rdf-syntax-ns#"
   xmlns:svg="http://www.w3.org/2000/svg"
   xmlns="http://www.w3.org/2000/svg"
   xmlns:sodipodi="http://sodipodi.sourceforge.net/DTD/sodipodi-0.dtd"
   xmlns:inkscape="http://www.inkscape.org/namespaces/inkscape"
   width="30.439823mm"
   height="50.413185mm"
   viewBox="0 0 30.439823 50.413185"
   version="1.1"
   id="svg6685"
   inkscape:version="0.92.3 (2405546, 2018-03-11)"
   sodipodi:docname="bed.svg">
  <defs
     id="defs6679" />
  <sodipodi:namedview
     id="base"
     pagecolor="#ffffff"
     bordercolor="#666666"
     borderopacity="1.0"
     inkscape:pageopacity="0.0"
     inkscape:pageshadow="2"
     inkscape:zoom="1.4"
     inkscape:cx="-31.646862"
     inkscape:cy="89.111006"
     inkscape:document-units="mm"
     inkscape:current-layer="layer1"
     showgrid="false"
     inkscape:window-width="1366"
     inkscape:window-height="703"
     inkscape:window-x="0"
     inkscape:window-y="0"
     inkscape:window-maximized="1" />
  <metadata
     id="metadata6682">
    <rdf:RDF>
      <cc:Work
         rdf:about="">
        <dc:format>image/svg+xml</dc:format>
        <dc:type
           rdf:resource="http://purl.org/dc/dcmitype/StillImage" />
        <dc:title></dc:title>
      </cc:Work>
    </rdf:RDF>
  </metadata>
  <g
     inkscape:label="Layer 1"
     inkscape:groupmode="layer"
     id="layer1"
     transform="translate(-73.98247,-117.57912)">
    <g
       transform="matrix(0.25144183,0,0,0.25144183,-55.628322,78.416464)"
       id="Bed">
      <path
         d="m 537.914,265.147 c -2.198,0 -3.763,-1.514 -3.984,-3.856 -0.257,-2.699 -0.28,-7.116 -0.306,-11.792 -0.01,-1.684 -0.019,-3.406 -0.037,-5.097 l -0.109,-8.304 c -0.19,-14.264 -0.37,-27.738 0.034,-36.172 0.294,-6.079 -0.067,-11.262 -0.358,-15.426 -0.401,-5.73 -0.645,-9.19 0.969,-11.454 1.77,-2.483 7.616,-2.942 28.279,-3.334 6.139,-0.116 12.484,-0.237 17.296,-0.552 4.131,-0.27 9.563,-0.747 14.819,-1.21 8.595,-0.755 16.714,-1.469 20.755,-1.469 1.758,0 2.618,0.123 3.291,0.47 2.747,1.418 2.791,5.861 2.227,16.421 -0.063,1.138 -0.118,2.211 -0.157,3.153 -0.474,11.842 -1.712,31.343 -2.088,36.067 -0.513,6.467 -10.024,10.594 -16.344,10.594 -0.25,0 -0.501,-0.006 -0.747,-0.018 -0.457,-0.021 -0.906,-0.032 -1.354,-0.032 -8.633,0 -16.098,4.047 -22.185,12.031 -5.854,7.677 -12.239,11.391 -20.703,12.041 -2.411,0.185 -4.927,1.545 -7.594,2.986 -1.32,0.713 -2.688,1.451 -4.088,2.065 -0.445,0.195 -0.976,0.468 -1.546,0.76 -1.951,0.999 -4.165,2.128 -6.07,2.128 10e-4,0 10e-4,0 0,0 z m 4.019,72.321 c 2.954,0 6.923,-0.066 9.048,-0.383 3.307,-0.495 3.767,-2.809 3.828,-3.506 0.215,-2.39 -1.759,-4.529 -5.415,-5.869 -0.456,-0.167 -11.168,-4.078 -14.737,-4.099 -1.576,0 -3.289,1.255 -3.326,4.009 -0.04,2.932 2.215,9.669 6.077,9.791 0.915,0.028 2.608,0.057 4.525,0.057 -10e-4,0 -10e-4,0 0,0 z m 64.511,-0.735 c 1.756,0 4.649,-0.814 6.552,-2.321 2.006,-1.587 5.249,-6.612 4.417,-9.313 -0.371,-1.201 -1.37,-1.978 -2.548,-1.978 -0.644,0 -1.275,0.233 -1.937,0.711 -2.775,2.012 -7.942,6.688 -8.522,7.215 -1.66,1.509 -1.362,3.066 -1.157,3.667 0.258,0.753 1.019,2.019 3.192,2.019 0.003,0 0,0 0.003,0 z"
         id="path126"
         inkscape:connector-curvature="0"
         style="fill:#adadaa" />
      <path
         d="m 582.212,344.487 c -3.058,0 -19.242,-2.905 -20.096,-8.345 -0.155,-0.991 0.067,-1.93 0.631,-2.64 0.331,-0.421 1.088,-1.124 2.43,-1.124 0.215,0 0.438,0.018 0.667,0.051 -1.363,-1.637 -2.457,-3.019 -3.225,-4.258 0.044,1.754 -0.109,3.263 -1.077,4.365 -0.603,0.683 -1.423,1.06 -2.313,1.06 -0.424,0 -0.861,-0.085 -1.303,-0.254 -1.859,-0.708 -3.269,-1.709 -4.632,-2.676 -0.979,-0.696 -1.995,-1.417 -3.268,-2.104 -4.769,-2.576 -9.905,-3.916 -14.747,-4.98 -4.595,-1.011 -9.12,-2.47 -11.113,-6.265 -1.951,-3.723 -0.831,-8.38 0.671,-12.857 0.12,-0.359 0.239,-0.734 0.359,-1.117 0.859,-2.71 1.931,-6.083 4.633,-7.671 1.494,-0.877 3.129,-0.99 4.387,-0.99 0.614,0 1.249,0.033 1.883,0.065 0.559,0.03 1.116,0.061 1.665,0.061 0.394,0 0.778,-0.016 1.147,-0.067 3.011,-0.419 5.944,-1.356 8.919,-2.867 -2.479,1.074 -5.042,2.112 -7.778,2.428 -0.563,0.065 -1.168,0.104 -1.788,0.104 -3.743,0 -6.594,-1.438 -8.025,-4.051 -1.336,-2.438 -2.146,-5.337 -2.474,-8.862 -0.743,-7.927 3.595,-10.851 10.729,-14.964 l 1.44,-0.836 c 8.073,-4.677 15.694,-9.095 25.756,-9.313 1.27,-0.026 4.199,-1.098 9.582,-7.972 8.107,-10.35 17.339,-15.198 29.052,-15.256 2.483,-0.012 6.506,-1.957 9.736,-3.52 3.508,-1.697 5.574,-2.657 7.278,-2.657 0.238,0 0.462,0.02 0.669,0.056 0.988,0.171 1.833,0.771 2.38,1.688 1.518,2.543 0.48,7.099 -1.271,13.76 -0.196,0.749 -0.383,1.451 -0.538,2.076 -1.578,6.335 -1.026,12.721 1.797,20.704 1.939,5.494 2.901,10.518 2.854,14.934 -0.142,13.453 -3.589,19.003 -15.06,23.158 2.004,-0.38 3.616,-0.613 4.555,-0.613 0.592,0 1.06,0.078 1.473,0.247 1.319,0.542 2.355,1.748 3.001,3.486 1.021,2.749 0.857,6.347 -0.412,9.167 -1.106,2.46 -4.197,5.115 -9.154,9.197 -2.594,2.136 -5.276,4.344 -6.764,6.028 -8.325,9.422 -14.771,13.368 -22.25,13.62 z"
         id="path128"
         inkscape:connector-curvature="0"
         style="fill:#c12552" />
      <path
         d="m 548.255,230.458 c -0.328,-1.778 -0.456,-5.086 -0.533,-7.047 -0.036,-0.932 -0.071,-1.824 -0.116,-2.623 l -0.096,-1.757 c -0.243,-4.604 -0.495,-9.361 -1.599,-14.056 -0.442,-1.873 -1.027,-3.729 -1.646,-5.695 -0.483,-1.539 -0.983,-3.124 -1.421,-4.76 -0.175,-0.663 -0.276,-1.148 -0.335,-1.498 0.258,0.053 0.576,0.136 0.976,0.269 1.462,0.48 2.975,0.714 4.628,0.714 3.694,0 7.392,-1.158 11.671,-2.498 l 0.271,-0.085 c 7.169,-2.242 14.198,-5.24 21.001,-8.139 3.497,-1.491 7.116,-3.033 10.688,-4.444 0.97,-0.383 2.002,-0.929 2.997,-1.457 1.141,-0.604 2.647,-1.402 3.541,-1.6 0.002,0.865 -0.48,2.736 -0.76,3.811 -0.406,1.577 -0.792,3.066 -0.804,4.44 -0.055,5.454 1.896,10.747 3.811,15.206 0.537,1.253 1.104,2.493 1.672,3.731 1.095,2.398 2.132,4.663 2.967,7.021 l 0.193,0.547 c 1.142,3.187 1.836,5.481 2.081,6.855 -1.033,-0.18 -2.334,-0.549 -3.522,-0.886 -1.844,-0.523 -3.753,-1.064 -5.408,-1.249 -1.954,-0.22 -3.939,-0.33 -5.896,-0.33 -11.934,0 -22.459,4.165 -30.295,7.793 -2.177,1.009 -4.854,2.577 -7.443,4.094 -2.071,1.214 -4.975,2.914 -6.623,3.643 z"
         id="path130"
         inkscape:connector-curvature="0"
         style="fill:#f2f2f2" />
      <path
         d="m 526.846,327.421 c -1.331,-2.568 -5.839,-5 -7.271,-8.458 -1.654,-3.996 -1.393,-8.71 0.468,-15.429 1.743,-6.283 2.664,-12.14 1.453,-18.693 -0.69,-3.72 -1.109,-8.728 2.746,-13.188 3.854,-4.459 3.45,-14.9 3.425,-23.651 -0.068,-23.227 -0.316,-46.454 -0.168,-69.677 0.022,-3.789 -0.764,-11.519 2.919,-12.715 3.682,-1.197 23.125,-0.578 32.409,-1.197 17.984,-1.198 32.036,-1.952 50.001,-3.511 11.858,-1.029 15.151,2.441 13.945,14.794 -1.243,12.714 -4.521,41.245 -3.957,44.335 0.563,3.089 2.988,-1.862 6.142,2.083 3.153,3.945 2.894,15.261 0.034,23.358 -1.978,5.588 -1.364,10.394 0.375,16.134 3.428,11.309 7.27,23.118 0.121,34.786 -0.854,1.398 -0.815,3.883 -0.391,5.642 1.904,7.891 -0.437,14.07 -5.737,19.576 -1.414,1.47 -2.154,4.023 -2.559,6.214 -1.664,9.078 -2.459,10.603 -10.94,11.58 -8.485,0.977 -9.887,4.509 -14.271,7.273 -7.691,4.85 -15.332,6.223 -23.612,2.348 -2.408,-1.127 -4.944,-1.995 -7.229,-3.353 -8.055,-4.789 -17.077,-4.184 -25.316,-3.58 -8.235,0.603 -10.558,0.202 -10.979,-3.55 -0.253,-2.253 -0.279,-8.552 -1.608,-11.121 z M 561.626,218.9 c 0.94,-0.081 1.884,-0.162 0.615,-0.053 0.951,-0.809 0.291,-0.246 -0.368,0.316 -0.37,0.311 -0.737,0.622 -0.755,0.636 0.014,-0.026 0.26,-0.462 0.508,-0.899 z m 24.872,-33.686 c -3.076,1.808 -16.496,6.89 -25.047,9.402 -4.678,1.374 -12.075,1.75 -13.061,2.805 -0.985,1.055 -0.718,1.589 1.058,1.544 1.772,-0.045 6.506,-1.787 6.97,-0.941 0.463,0.845 -6.597,4.091 -7.33,5.927 -0.729,1.835 1.613,12.455 2.421,18.683 1.311,-4.413 1.739,-7.126 1.739,-9.16 0,-2.035 -1.617,-5.238 -0.563,-5.878 0.63,-0.383 2.294,2.002 3.169,4.107 0.877,2.105 1.503,4.025 2.782,4.22 1.277,0.197 4.229,-3.284 6.697,-3.263 0.958,0.008 2.031,0.58 3.194,1.228 1.164,0.649 12.494,-5.703 14.231,-5.766 1.735,-0.063 2.118,1.718 1.162,2.403 -0.957,0.685 -2.667,1.017 -3.563,1.611 -0.899,0.593 -1.668,1.825 -0.412,1.563 1.257,-0.262 3.471,-1.274 7.54,-1.704 4.068,-0.428 14.46,1.002 14.258,-0.537 -0.2,-1.539 -8.089,-3.928 -9.559,-5.086 -1.469,-1.159 5.646,-3.254 5.529,-4.877 -0.116,-1.623 -2.152,-10.085 -2.956,-11.986 -0.804,-1.901 -3.182,0.18 -6.533,1.715 -3.353,1.537 -2.007,-2.063 0.212,-3.504 1.429,-0.929 2.785,-1.148 4.194,-3.042 0.778,-1.043 3.765,-5.285 1.727,-4.821 -2.036,0.462 -4.78,3.549 -7.859,5.357 z m 1.125,126.827 c -4.167,1.137 -1.352,-1.35 0.551,-2.857 1.902,-1.507 13.586,-5.175 21.018,-7.553 12.092,-3.871 15.465,-7.962 15.604,-21.468 0.051,-4.666 -1.136,-9.568 -2.696,-13.982 -2.596,-7.349 -3.817,-14.487 -1.868,-22.297 1.175,-4.723 3.993,-13.83 1.389,-14.282 -2.607,-0.452 -11.849,6.126 -17.284,6.154 -11.68,0.059 -19.976,5.107 -27.196,14.326 -3.008,3.839 -7.499,8.82 -11.397,8.903 -10.059,0.217 -17.786,5.044 -26.093,9.836 -7.396,4.265 -10.021,6.433 -9.464,12.414 0.205,2.193 0.694,5.143 2.152,7.802 1.457,2.66 4.928,2.967 7.454,2.675 3.868,-0.446 7.603,-2.634 11.337,-4.012 5.872,-2.169 14.18,-10.72 18.316,-11.001 4.138,-0.281 -7.651,8.066 -11.163,11.07 -5.779,4.939 -11.886,8.557 -19.057,9.555 -2.703,0.376 -6.042,-0.649 -8.226,0.632 -2.184,1.282 -2.99,4.75 -3.873,7.383 -3.399,10.137 -1.57,13.444 8.643,15.691 5.325,1.171 10.533,2.604 15.353,5.207 3.218,1.738 4.825,3.588 7.62,4.653 2.796,1.064 0.46,-6.444 1.674,-8.651 1.213,-2.208 5.768,-5.457 8.816,-4.989 3.048,0.467 -5.528,4.541 -5.439,7.357 0.09,2.816 7.795,9.771 7.905,11.708 0.109,1.937 -7.582,-3.147 -7.183,-0.602 0.399,2.545 13.085,6.334 18.026,6.166 7.126,-0.241 13.097,-4.363 20.557,-12.807 3.855,-4.359 13.88,-10.978 15.494,-14.565 1.617,-3.588 0.736,-8.267 -1.271,-9.091 -2.004,-0.826 -25.529,5.487 -29.699,6.625 z m -43.422,-121.24 c 4.541,1.495 9.37,-0.063 15.168,-1.879 10.732,-3.358 21.008,-8.372 31.528,-12.527 3.129,-1.235 7.627,-4.748 9.245,-2.563 1.619,2.187 -0.969,7.377 -0.995,10.229 -0.046,4.75 1.592,9.439 3.59,14.091 1.563,3.642 3.377,7.18 4.702,10.917 0.97,2.733 3.528,9.566 2.095,10.753 -1.438,1.187 -7.51,-1.551 -11.279,-1.973 -12.86,-1.438 -24.088,2.224 -34.973,7.265 -5.491,2.543 -14.834,9.129 -16.376,8.203 -1.544,-0.927 -1.487,-8.049 -1.73,-12.373 -0.283,-5.063 -0.438,-10.296 -1.626,-15.333 -0.766,-3.248 -2.061,-6.684 -3.045,-10.376 -0.985,-3.692 -0.846,-5.929 3.696,-4.434 z m -8.259,9.26 c -0.479,9.924 -0.139,26.676 0.075,44.309 0.075,6.344 -0.003,13.144 0.332,16.658 0.336,3.514 5.638,-0.025 8.256,-1.175 4.146,-1.818 8.191,-4.913 12.43,-5.24 8.213,-0.631 13.923,-4.44 18.992,-11.089 6.456,-8.468 14.889,-13.458 25.531,-12.955 6.119,0.288 14.198,-3.667 14.56,-8.196 0.358,-4.528 1.601,-23.919 2.083,-35.957 0.228,-5.707 1.171,-16.153 -0.699,-17.119 -1.869,-0.965 -25.167,1.646 -37.658,2.463 -14.59,0.955 -41.827,0.114 -43.787,2.865 -1.958,2.75 0.536,11.941 -0.115,25.436 z m 1.537,134.746 c 2.393,0.075 10.137,0.15 13.166,-0.302 3.027,-0.452 1.976,-2.86 -2.041,-4.331 -4.016,-1.472 -11.573,-3.944 -13.941,-3.959 -2.369,-0.014 0.422,8.517 2.816,8.592 z m 68.502,-1.774 c -2.038,1.849 3.17,1.186 5.567,-0.713 2.397,-1.899 4.93,-7.914 2.746,-6.331 -2.184,1.584 -6.276,5.196 -8.313,7.044 z"
         id="path132"
         inkscape:connector-curvature="0" />
      <path
         d="m 600.303,280.055 c -4.743,0.747 -8.804,1.591 -12.835,3.201 -6.896,2.752 -13.146,6.973 -19.146,12.065 -2.089,1.774 -4.423,3.87 -7.124,5.073 -2.642,1.175 -11.337,3.314 -9.079,-0.166 2.257,-3.48 6.162,-5.227 11.247,-8.469 8.151,-5.197 18.464,-10.704 24.813,-12.837 3.664,-1.23 8.339,-2.455 11.42,-2.225 3.079,0.231 5.449,2.611 0.704,3.358 z"
         id="path134"
         inkscape:connector-curvature="0" />
      <path
         d="m 615,293.283 c -8.681,2.334 -16.499,7.736 -27.611,12.564 -5.507,2.394 -10.776,4.901 -17.353,5.625 -6.576,0.725 3.516,-4.61 14.973,-9.238 5.952,-2.402 9.913,-5.119 15.838,-7.596 5.425,-2.268 9.229,-3.456 15.13,-5.497 5.902,-2.04 7.706,1.806 -0.977,4.142 z"
         id="path136"
         inkscape:connector-curvature="0" />
      <path
         d="m 606.622,240.453 c 4.336,0.121 -5.391,4.882 -7.634,6.973 -3.95,3.682 -7.605,7.833 -11.775,11.199 -2.514,2.029 -9.207,8.256 -8.277,4.953 0.93,-3.304 6.822,-8.652 10.795,-12.154 4.778,-4.216 12.553,-11.092 16.891,-10.971 z"
         id="path138"
         inkscape:connector-curvature="0" />
    </g>
  </g>
</svg>
