<?xml version="1.0" encoding="UTF-8" standalone="no"?>
<!-- Created with Inkscape (http://www.inkscape.org/) -->

<svg
   xmlns:dc="http://purl.org/dc/elements/1.1/"
   xmlns:cc="http://creativecommons.org/ns#"
   xmlns:rdf="http://www.w3.org/1999/02/22-rdf-syntax-ns#"
   xmlns:svg="http://www.w3.org/2000/svg"
   xmlns="http://www.w3.org/2000/svg"
   xmlns:sodipodi="http://sodipodi.sourceforge.net/DTD/sodipodi-0.dtd"
   xmlns:inkscape="http://www.inkscape.org/namespaces/inkscape"
   width="25.037085mm"
   height="25.160866mm"
   viewBox="0 0 25.037085 25.160866"
   version="1.1"
   id="svg2390"
   inkscape:version="0.92.3 (2405546, 2018-03-11)"
   sodipodi:docname="chair.svg">
  <defs
     id="defs2384" />
  <sodipodi:namedview
     id="base"
     pagecolor="#ffffff"
     bordercolor="#666666"
     borderopacity="1.0"
     inkscape:pageopacity="0.0"
     inkscape:pageshadow="2"
     inkscape:zoom="0.98994949"
     inkscape:cx="-6.9293802"
     inkscape:cy="-35.636025"
     inkscape:document-units="mm"
     inkscape:current-layer="layer1"
     showgrid="false"
     inkscape:window-width="1366"
     inkscape:window-height="703"
     inkscape:window-x="0"
     inkscape:window-y="0"
     inkscape:window-maximized="1" />
  <metadata
     id="metadata2387">
    <rdf:RDF>
      <cc:Work
         rdf:about="">
        <dc:format>image/svg+xml</dc:format>
        <dc:type
           rdf:resource="http://purl.org/dc/dcmitype/StillImage" />
        <dc:title></dc:title>
      </cc:Work>
    </rdf:RDF>
  </metadata>
  <g
     inkscape:label="Layer 1"
     inkscape:groupmode="layer"
     id="layer1"
     transform="translate(-23.767172,-73.508853)">
    <g
       transform="matrix(0.22504155,0,0,0.22504155,-35.728095,71.686555)"
       id="Chair">
      <path
         d="m 308.579,109.622 c -2.286,0 -4.607,-0.469 -7.066,-0.965 -0.726,-0.147 -1.453,-0.294 -2.177,-0.428 -0.942,-0.174 -1.898,-0.452 -2.91,-0.745 -1.797,-0.521 -3.655,-1.06 -5.617,-1.06 l -0.478,0.005 c -5.455,0 -8.519,-3.68 -11.765,-7.575 -0.441,-0.529 -0.881,-1.059 -1.327,-1.577 -2.564,-2.986 -3.216,-6.896 -2.115,-12.679 2.374,-12.446 5.874,-23.091 10.703,-32.543 3.409,-6.677 3.175,-7.833 3.063,-8.388 -0.327,-1.619 -1.937,-2.116 -3.495,-2.597 -0.579,-0.179 -1.234,-0.381 -1.607,-0.582 -1.821,-0.979 -3.384,-2.42 -4.783,-4.403 -0.99,-1.404 -1.795,-3.257 -2.534,-5.833 -0.701,-2.446 -0.328,-4.297 1.11,-5.501 0.376,-0.315 0.739,-0.628 1.095,-0.935 1.418,-1.223 2.644,-2.279 4.131,-2.979 1.569,-0.738 2.339,-1.064 4.15,-1.064 0.602,0 1.298,0.038 2.13,0.117 1.033,0.098 2.194,0.147 3.45,0.147 3.253,0 7.235,-0.321 12.171,-0.983 3.396,-0.455 6.881,-0.676 10.656,-0.676 3.505,0 7.308,0.196 11.629,0.598 5.594,0.522 11.287,0.552 16.792,0.581 2.542,0.013 5.084,0.026 7.622,0.086 0.405,0.01 0.813,0.013 1.223,0.013 l 1.901,-0.008 c 1.665,0 3.037,0.057 4.318,0.334 2.013,0.436 5.514,1.792 6.356,5.982 0.671,3.335 -0.489,6.144 -3.264,7.907 -1.016,0.645 -2.498,1.357 -3.931,2.047 -3.449,1.659 -4.994,2.451 -5.458,3.841 -0.333,1 -0.246,1.792 4.28,18.453 1.741,6.408 3.541,13.035 4.753,18.024 2.291,9.432 -1.824,19.259 -10.481,25.035 -5.981,3.991 -13.166,6.284 -22.614,7.217 -6.82,0.673 -13.453,1.053 -19.712,1.13 z"
         id="path69"
         inkscape:connector-curvature="0"
         style="display:inline;fill:#6e533b" />
      <path
         d="m 287.002,44.049 c -0.165,-0.816 -2.752,-1.124 -4.128,-1.863 -2.215,-1.192 -3.988,-2.923 -5.444,-4.99 -1.322,-1.875 -2.171,-4.18 -2.811,-6.412 -0.778,-2.714 -0.597,-5.565 1.724,-7.509 1.938,-1.624 3.511,-3.177 5.643,-4.18 2.132,-1.003 3.312,-1.499 7.282,-1.123 3.971,0.376 9.373,-0.048 15.183,-0.827 7.615,-1.02 15.097,-0.796 22.72,-0.086 8.043,0.751 16.185,0.467 24.281,0.66 2.608,0.062 5.294,-0.161 7.805,0.382 3.988,0.864 7.022,3.434 7.837,7.485 0.797,3.964 -0.541,7.638 -4.12,9.913 -2.769,1.758 -8.217,3.743 -8.593,4.871 -0.376,1.129 6.149,23.359 9.078,35.414 2.551,10.503 -2.329,21.117 -11.284,27.092 -7.176,4.787 -15.165,6.708 -23.494,7.532 -6.603,0.651 -13.245,1.058 -19.877,1.139 -3.268,0.041 -6.563,-0.821 -9.816,-1.424 -2.806,-0.519 -5.584,-1.827 -8.354,-1.77 -7.37,0.15 -10.912,-5.23 -14.854,-9.82 -3.503,-4.081 -3.508,-9.238 -2.544,-14.294 2.188,-11.486 5.536,-22.601 10.879,-33.06 1.17,-2.3 3.052,-6.315 2.887,-7.13 z m 7.471,-1.832 c -0.554,0.536 -3.078,9.117 -4.566,13.839 -2.999,9.505 -6.131,18.963 -7.547,28.902 -1.421,9.981 4.53,17.137 14.64,17.416 4.743,0.129 9.476,0.762 14.219,0.819 7.063,0.085 17.362,0.775 20.063,-0.354 2.701,-1.129 1.362,-12.143 0.639,-12.088 -0.725,0.056 -0.466,6.816 -1.227,7.189 -0.762,0.373 -1.896,-14.271 -2.514,-20.645 -0.597,-6.143 -1.02,-12.304 -1.393,-18.465 -0.385,-6.362 0.092,-18.61 -0.913,-18.995 -1.004,-0.385 -14.212,0.493 -15.216,1.371 -1.003,0.877 -2.235,18.562 -3.008,27.771 -0.739,8.766 -1.277,17.55 -2.037,26.314 -0.111,1.286 -0.177,2.709 -1.02,3.919 -0.423,0.607 -1.931,2.223 -2.014,1.019 -0.083,-1.205 -0.837,-6.792 -0.499,-10.163 1.517,-15.12 3.322,-30.21 5.009,-45.313 0.321,-2.888 -0.828,-4.206 -3.582,-3.907 -2.81,0.309 -8.48,0.835 -9.034,1.371 z m 41.963,59.708 c 0.621,0.409 3.569,-0.557 4.868,-1.065 8.938,-3.503 14.616,-9.993 15.474,-19.53 0.479,-5.315 -0.563,-10.883 -2.813,-15.957 -2.892,-6.518 -5.324,-13.157 -6.467,-20.242 -0.562,-3.474 -2.622,-5.456 -6.023,-5.85 -3.699,-0.429 -10.682,-0.371 -11.197,0.832 -0.517,1.202 -0.362,4.83 -0.416,7.491 -0.149,7.453 0.71,14.726 1.715,21.989 0.102,0.748 0.835,2.032 1.246,2.021 3.562,-0.098 3.042,2.807 2.86,4.484 -0.673,6.221 0.289,12.368 0.576,18.777 0.108,2.403 -0.444,6.641 0.177,7.05 z m 1.754,-67.617 c 3.775,-0.207 6.675,0.61 9.994,0.557 3.9,-0.064 7.531,-0.868 10.56,-3.633 2.458,-2.245 2.394,-4.063 -0.563,-5.354 -5.613,-2.452 -11.559,-2.578 -17.555,-2.325 -8.074,0.342 -16.174,1.115 -24.219,0.746 -7.831,-0.359 -15.587,1.041 -23.42,0.247 -2.731,-0.276 -5.647,0.491 -7.882,2.744 -3.491,3.521 -2.817,7.667 1.949,8.562 5.111,0.959 10.43,1.544 15.606,1.277 11.861,-0.612 31.754,-2.614 35.53,-2.821 z"
         id="path71"
         inkscape:connector-curvature="0" />
      <path
         d="m 322.268,63.992 c 0.063,0.983 0.521,8.192 1.03,16.175 0.362,5.691 2.171,17.556 1.036,16.278 -1.135,-1.278 -2.157,-7.797 -2.831,-11.742 -0.99,-5.784 -1.422,-11.633 -1.386,-17.539 0.005,-1.04 0.427,-2.677 0.929,-3.534 0.502,-0.856 1.114,-1.321 1.222,0.362 z"
         id="path73"
         inkscape:connector-curvature="0" />
      <path
         d="m 296.524,88.658 c -0.452,0.114 -0.056,-4.378 0.246,-7.167 0.457,-4.222 1.348,-8.997 2.349,-12.679 0.462,-1.705 0.99,-3.584 1.427,-4.247 0.438,-0.663 0.592,2.262 0.539,3.433 -0.067,1.479 -0.555,3.531 -1.655,8.178 -0.413,1.742 -0.82,3.485 -1.245,5.315 -0.514,2.212 -1.209,7.053 -1.661,7.167 z"
         id="path75"
         inkscape:connector-curvature="0" />
      <path
         d="m 310.403,69.183 c -0.435,0.341 0.358,-3.543 0.747,-5.278 0.571,-2.569 1.445,-5.105 2.606,-7.704 0.405,-0.904 0.865,-2.044 1.318,-2.741 0.453,-0.697 0.575,1.631 0.576,2.332 0.006,2.326 -1.774,3.91 -2.223,5.789 -0.404,1.697 -0.567,3.52 -1.303,5.095 -0.407,0.873 -1.287,2.165 -1.721,2.507 z"
         id="path77"
         inkscape:connector-curvature="0" />
    </g>
  </g>
</svg>
