<?xml version="1.0" encoding="UTF-8" standalone="no"?>
<!-- Created with Inkscape (http://www.inkscape.org/) -->

<svg
   xmlns:dc="http://purl.org/dc/elements/1.1/"
   xmlns:cc="http://creativecommons.org/ns#"
   xmlns:rdf="http://www.w3.org/1999/02/22-rdf-syntax-ns#"
   xmlns:svg="http://www.w3.org/2000/svg"
   xmlns="http://www.w3.org/2000/svg"
   xmlns:sodipodi="http://sodipodi.sourceforge.net/DTD/sodipodi-0.dtd"
   xmlns:inkscape="http://www.inkscape.org/namespaces/inkscape"
   width="33.027168mm"
   height="32.436512mm"
   viewBox="0 0 33.027168 32.436512"
   version="1.1"
   id="svg3891"
   sodipodi:docname="crate.svg"
   inkscape:version="0.92.3 (2405546, 2018-03-11)">
  <defs
     id="defs3885" />
  <sodipodi:namedview
     id="base"
     pagecolor="#ffffff"
     bordercolor="#666666"
     borderopacity="1.0"
     inkscape:pageopacity="0.0"
     inkscape:pageshadow="2"
     inkscape:zoom="0.35"
     inkscape:cx="-599.86018"
     inkscape:cy="362.35332"
     inkscape:document-units="mm"
     inkscape:current-layer="layer1"
     showgrid="false"
     inkscape:window-width="1366"
     inkscape:window-height="703"
     inkscape:window-x="0"
     inkscape:window-y="0"
     inkscape:window-maximized="1" />
  <metadata
     id="metadata3888">
    <rdf:RDF>
      <cc:Work
         rdf:about="">
        <dc:format>image/svg+xml</dc:format>
        <dc:type
           rdf:resource="http://purl.org/dc/dcmitype/StillImage" />
        <dc:title></dc:title>
      </cc:Work>
    </rdf:RDF>
  </metadata>
  <g
     inkscape:label="Layer 1"
     inkscape:groupmode="layer"
     id="layer1"
     transform="translate(-133.92094,-308.75198)">
    <g
       transform="matrix(0.26458333,0,0,0.26458333,133.50043,-30.629828)"
       id="Crate">
      <path
         d="m 118.247,1402.311 c -1.995,0 -5.653,-0.372 -8.075,-0.619 -1.223,-0.123 -2.182,-0.219 -2.613,-0.24 -6.437,-0.327 -13.094,-0.549 -20.36,-0.682 -1.004,-0.019 -1.995,-0.025 -2.976,-0.025 -3.666,0 -7.217,0.112 -10.65,0.221 -3.33,0.104 -6.774,0.213 -10.229,0.213 -1.696,0 -3.271,-0.024 -4.817,-0.077 -6.176,-0.207 -13.428,-0.409 -18.478,-0.514 -0.677,-0.015 -1.341,-0.021 -1.996,-0.021 -3.653,0 -7.048,0.203 -10.331,0.399 -2.699,0.163 -5.489,0.331 -8.445,0.388 l -2.627,0.059 c -2.396,0.055 -5.113,0.117 -7.639,0.117 -1.201,0 -2.273,-0.016 -3.238,-0.043 -0.023,-0.286 -0.021,-0.621 0.029,-0.972 0.275,-1.903 0.293,-3.714 0.311,-5.466 l 0.014,-1.092 c 0.035,-2.173 -0.065,-6.702 -0.225,-10.096 -0.123,-2.627 -0.256,-5.25 -0.389,-7.875 -0.367,-7.244 -0.746,-14.737 -0.906,-22.077 -0.145,-6.646 0.02,-13.325 0.18,-19.784 0.117,-4.749 0.238,-9.659 0.238,-14.561 0,-2.047 -0.01,-4.152 -0.021,-6.279 -0.021,-4.279 -0.043,-8.707 0.023,-12.837 0.045,-2.766 -0.121,-5.479 -0.281,-8.104 -0.041,-0.667 -0.082,-1.332 -0.119,-1.999 -0.023,-0.412 -0.023,-0.707 -0.017,-0.913 0.227,-0.091 0.575,-0.213 1.104,-0.364 1.27,-0.363 2.34,-0.966 3.198,-1.451 0.396,-0.224 0.995,-0.562 1.217,-0.621 2.603,-0.338 5.33,-0.416 8.218,-0.498 0.82,-0.024 1.641,-0.048 2.461,-0.077 l 2.965,-0.105 c 6.316,-0.228 12.85,-0.461 19.252,-0.594 1.14,-0.024 2.276,-0.034 3.412,-0.034 2.024,0 4.047,0.03 6.069,0.059 1.333,0.021 2.665,0.038 3.997,0.051 l 6.992,0.055 c 7.566,0.057 15.391,0.115 23.076,0.225 3.058,0.043 6.111,0.126 9.166,0.209 3.527,0.097 7.176,0.195 10.788,0.229 1.823,0.017 3.643,0.028 5.464,0.028 4.314,0 7.922,-0.066 11.27,-0.207 -0.026,2.312 0.037,4.602 0.098,6.825 0.074,2.675 0.145,5.201 0.068,7.743 -0.08,2.768 -0.293,5.635 -0.496,8.408 -0.298,4.032 -0.605,8.201 -0.551,12.373 0.081,6.087 -0.013,12.305 -0.104,18.316 -0.074,4.991 -0.152,10.153 -0.133,15.26 0.02,4.687 0.168,9.42 0.313,13.999 0.235,7.501 0.479,15.26 0.141,22.802 -0.136,3.044 -0.982,6.337 -1.8,9.521 l -0.025,0.101 c -0.034,0.13 -0.065,0.222 -0.09,0.282 -0.339,0.119 -1.099,0.224 -1.62,0.296 l -0.207,0.027 c -0.002,0 -0.167,0.021 -0.606,0.021 z"
         id="path150"
         inkscape:connector-curvature="0"
         style="fill:#6e533b" />
      <path
         d="m 30.387,1335.376 c 0.586,-0.209 11.631,-0.029 14.849,0 0.425,0.01 1.313,0.117 1.258,0.385 -0.056,0.267 -0.903,0.4 -1.368,0.465 -3.229,0.431 -10.73,0.873 -13.967,1.175 -0.697,0.063 -2.069,-0.158 -2.137,-0.656 -0.067,-0.5 0.779,-1.166 1.365,-1.371 z"
         id="path152"
         inkscape:connector-curvature="0" />
      <path
         d="m 52.213,1295.77 c -0.41,0 -1.293,0.053 -1.247,-0.313 0.048,-0.365 0.634,-0.66 0.971,-0.834 2.3,-1.172 4.493,-1.344 6.64,-1.076 2.346,0.289 7.5,1.724 7.606,2.06 0.108,0.334 -0.55,0.27 -1.444,0.258 -0.894,-0.012 -3.943,-0.086 -6.087,-0.125 0,-0.042 -4.295,0.021 -6.439,0.03 z"
         id="path154"
         inkscape:connector-curvature="0" />
      <path
         d="m 108.104,1324.944 c 0.03,-0.828 0.365,-10.604 0.621,-15.738 0.031,-0.623 0.353,-1.781 0.862,-1.871 0.509,-0.088 1.362,0.736 1.492,1.279 0.396,1.651 0.872,3.426 0.67,5.104 -0.446,3.703 -1.62,9.84 -2.002,11.035 -0.382,1.197 -0.892,2.623 -1.172,2.299 -0.278,-0.326 -0.503,-1.281 -0.471,-2.108 z"
         id="path156"
         inkscape:connector-curvature="0" />
      <path
         d="m 64.65,1346.765 c -0.208,0.32 -2.396,4.396 -3.994,5.908 -4.179,3.965 -8.607,7.623 -12.98,11.308 -1.371,1.155 -4.23,3.616 -4.338,3.393 -0.109,-0.223 2.361,-2.799 3.525,-4.115 4.596,-5.197 9.139,-10.492 13.84,-15.684 0.674,-0.744 2.763,-1.082 3.197,-1.113 0.434,-0.037 0.958,-0.016 0.75,0.303 z"
         id="path158"
         inkscape:connector-curvature="0" />
      <path
         d="m 14.762,1313.942 c -0.01,0.944 -0.538,3.84 -0.856,5.87 -0.043,0.283 -0.289,0.671 -0.425,0.813 -0.137,0.143 -0.158,-0.57 -0.149,-0.859 0.081,-2.75 0.165,-5.498 0.291,-8.248 0.021,-0.471 0.126,-1.379 0.364,-1.42 0.239,-0.043 0.563,0.812 0.641,1.267 0.129,0.759 0.143,1.634 0.134,2.577 z"
         id="path160"
         inkscape:connector-curvature="0" />
      <path
         d="m 126.24,1286.704 c 0.076,-3.07 -1.207,-3.515 -3.738,-3.4 -5.641,0.261 -11.28,0.254 -16.908,0.205 -6.5,-0.063 -12.982,-0.336 -19.479,-0.428 -9.799,-0.14 -19.604,-0.193 -29.405,-0.273 -4.432,-0.036 -8.857,-0.166 -13.296,-0.071 -7.256,0.149 -14.518,0.428 -21.777,0.686 -3.638,0.133 -7.291,0.135 -10.912,0.609 -1.649,0.217 -3.188,1.662 -4.867,2.143 -3.518,1.008 -4.387,2.057 -4.188,5.643 0.178,3.183 0.438,6.363 0.385,9.562 -0.098,6.078 -0.002,12.68 -0.002,18.748 0,11.264 -0.655,22.272 -0.408,33.652 0.213,9.793 0.809,19.575 1.27,29.375 0.15,3.192 0.248,7.573 0.215,9.592 -0.033,2.016 0.006,3.936 -0.273,5.86 -0.383,2.656 0.522,5.716 2.463,5.818 4.51,0.238 10.537,0.025 15.063,-0.063 7.156,-0.138 12.975,-0.898 20.125,-0.75 5.359,0.11 12.637,0.319 18,0.5 9.756,0.326 18.322,-0.494 28.084,-0.32 6.584,0.119 13.17,0.326 19.746,0.66 1.455,0.076 9.588,1.102 11.857,0.785 2.269,-0.317 4.628,-0.549 5.461,-3.797 0.864,-3.367 1.76,-6.828 1.915,-10.283 0.54,-12.051 -0.39,-24.109 -0.438,-36.17 -0.044,-10.965 0.375,-21.898 0.23,-32.849 -0.088,-6.672 0.824,-13.411 1.021,-20.12 0.149,-5.111 -0.271,-10.204 -0.144,-15.314 z m -105.947,7.877 c -2.836,-0.213 -5.669,-0.469 -8.518,-0.562 -2.583,-0.084 -3.923,-1.606 -3.539,-3.815 0.166,-0.961 2.369,-2.414 3.605,-2.461 5.598,-0.203 15.174,-0.203 18.92,-0.203 3.746,0 10.893,0.694 16.908,0.785 11.23,0.16 22.462,0.375 33.709,0.319 5.295,-0.026 10.647,-0.969 15.936,-0.948 3.99,0.014 16.105,0.1 19.354,0.436 3.249,0.336 2.917,1.104 2.646,1.875 -0.271,0.771 -5.48,1.063 -5.521,1.729 -0.041,0.666 4.123,0.627 5.217,0.756 4.215,0.492 3.657,0.522 3.408,4.988 -0.229,4.133 -1.402,4.021 -4.678,3.803 -5.547,-0.371 -13.77,0.543 -19.381,0.592 -8.08,0.076 -16.151,-0.025 -24.211,-0.234 -8.211,-0.211 -17.158,-0.469 -25.379,-0.307 -8.324,0.164 -15.912,0.666 -24.257,1.258 -4.378,0.313 -9.792,0.396 -14.167,0.779 -2.124,0.184 -3.664,-0.755 -3.575,-2.163 0.105,-1.686 -0.753,-4.229 2.063,-5.063 1.756,-0.523 4.228,-0.813 5.262,-0.88 1.034,-0.067 4.774,-0.142 6.594,-0.201 1.82,-0.06 2.441,-0.268 -0.396,-0.483 z m 61.275,71.404 c 1.495,0.096 9.967,0.893 14.051,1.627 0.563,0.102 1.333,1.168 1.345,1.815 0.052,2.644 0.028,5.322 -0.364,7.931 -0.137,0.922 -1.404,2.379 -2.162,2.393 -10.301,0.188 -20.606,0.279 -30.904,0.113 -3.1,-0.052 -8.734,-1.136 -9.234,-1.552 -0.498,-0.418 -0.486,-1.889 -0.213,-2.729 0.645,-1.99 1.445,-3.969 2.475,-5.793 1.004,-1.777 2.289,-3.424 3.59,-5.021 6.506,-7.971 12.982,-16.069 19.631,-24.12 2.437,-2.951 5.11,-5.816 8.072,-8.197 1.55,-1.244 3.516,-1.203 6.271,-2.058 2.755,-0.854 3.392,2.146 3.35,3.271 -0.042,1.125 0.44,2.627 -0.882,2.783 -1.324,0.155 -3.357,0.125 -4.564,0.371 -1.206,0.25 -2.138,0.342 -2.244,0.653 -0.105,0.312 1.216,0.31 1.819,0.474 0.603,0.166 3.888,0.508 5.753,1.282 0.482,0.199 0.773,1.968 0.779,2.783 0.017,2.322 -0.695,16.103 -0.863,20.662 -0.061,1.646 -0.545,1.691 -2.214,1.562 -3.97,-0.312 -9.747,0.327 -13.757,0.561 -0.463,0.025 -3.378,0.107 -3.315,0.607 0.063,0.5 2.085,0.489 3.58,0.582 z m 15.65,-44.875 c -5.165,4.125 -10.692,7.77 -15.508,12.213 -4.868,4.489 -9.157,9.645 -13.511,14.619 -7.938,9.118 -22.088,25.264 -23.631,26.95 -1.543,1.726 -2.355,1.83 -3.436,2.048 -1.078,0.219 -1.996,0.813 -4.362,1.545 -2.365,0.729 -3.567,-1.236 -4.877,-2.986 -1.31,-1.744 5.63,-9.958 5.243,-10.292 -0.387,-0.326 -5.125,4.209 -6.25,5.042 -1.125,0.833 -2.131,-0.336 -1.853,-2.322 0.276,-1.987 0.925,-4.096 2.391,-5.983 1.466,-1.889 3.88,-4.115 5.884,-5.871 1.236,-1.084 3.631,-2.65 6.365,-4.156 2.732,-1.504 4.857,-3.305 6.96,-5.553 5.389,-5.771 9.703,-8.855 15.108,-14.707 4.402,-4.75 13.206,-14.332 15.758,-16.463 2.554,-2.117 7.502,-6.26 9.365,-6.631 1.865,-0.372 1.031,2.53 0.625,3.655 -0.406,1.125 -8.598,7.609 -12.587,12.328 -0.876,1.035 -2.643,2.998 -2.501,3.215 0.141,0.218 2.14,-1.385 3.082,-2.231 4.045,-3.637 6.436,-5.627 8.607,-7.146 2.172,-1.516 3.824,-2.129 4.635,-2.315 1.526,-0.349 2.822,-0.234 4.307,-0.104 0.669,0.062 1.802,1.328 1.707,2.433 -0.093,1.101 -0.866,2.191 -1.521,2.712 z m -70.419,-1.172 c -0.107,-1.925 0.664,-2.877 2.299,-2.938 3.324,-0.121 6.645,0.045 9.967,0.084 0.392,0 16.778,-0.135 16.676,-0.396 -0.102,-0.263 -0.88,-0.566 -1.279,-0.65 -1.73,-0.367 -8.771,-1.136 -12.908,-0.665 -4.136,0.471 -10.77,-0.778 -12.292,-1.265 -1.077,-0.347 -2.318,-2.894 -2.263,-3.39 0.056,-0.494 1.36,-1.5 2.215,-1.723 4.53,-1.168 8.562,-2.232 13.004,-3.711 4.443,-1.482 23.223,-0.625 34.499,-0.834 2.774,-0.052 4.138,1.981 4.247,4.377 0.111,2.397 -6.032,7.014 -8.568,9.84 -3.688,4.114 -7.487,7.616 -11.456,11.396 -6.282,5.984 -12.549,11.937 -19.108,17.451 -2.64,2.219 -7.106,5.598 -8.428,5.701 -1.322,0.104 -3,0.125 -3.687,-0.68 -0.687,-0.806 -1.405,-2.847 -2.348,-3.213 -0.942,-0.371 -0.942,-2.621 -0.566,-4.697 0.311,-1.724 0.417,-3.185 0.497,-5.234 0.08,-2.048 -0.145,-12.992 -0.501,-19.453 z m -18.246,54.59 c -0.025,-14.343 -0.014,-28.687 -0.033,-43.025 -0.008,-5.92 -0.082,-11.836 -0.084,-17.756 0,-1.836 0.122,-3.676 0.228,-5.515 0.016,-0.274 0.187,-0.7 0.396,-0.797 4.288,-1.948 8.586,-4.116 13.297,-2.396 0.58,0.213 1.22,1.133 1.218,1.76 -0.03,11.945 -0.071,23.892 -0.288,35.838 -0.132,7.328 -0.754,14.658 -0.789,21.978 -0.02,4.078 0.771,7.299 1.076,11.385 0.111,1.479 -0.615,1.866 -0.77,3.094 -0.153,1.229 -0.396,2.451 -1.344,2.281 -0.946,-0.168 -1.952,-1.916 -2.084,-2.811 -0.131,-0.896 -0.072,-4.08 -0.311,-6.015 -0.239,-1.934 0.1,-4.668 -0.342,-4.436 -0.443,0.231 -0.51,2.563 -0.486,3.196 0.133,3.441 -0.113,2.732 -0.027,6.174 0.016,0.625 -0.865,1.679 -1.455,1.798 -0.589,0.12 -1.188,-0.425 -1.634,-1.084 -0.444,-0.658 -0.668,-2.601 -0.753,-4.998 -0.218,-6.183 0.238,-14.041 0.158,-16.156 -0.078,-2.109 -0.219,-5.572 -0.837,-5.063 -0.62,0.506 -1.085,3.504 -1.257,5.435 -0.171,1.93 0.152,4.862 0.494,8.442 0.432,4.515 -0.203,9.972 -0.039,14.49 0.047,1.285 -0.066,2.646 -1.396,3.119 -2.268,0.813 -2.553,-1.631 -2.695,-3.299 -0.161,-1.869 -0.24,-3.758 -0.243,-5.639 z m 111.146,15.469 c -0.271,8.135 -5.227,6.731 -13.115,6.031 -8.487,-0.757 -20.719,-1.4 -22.305,-1.371 -1.586,0.026 -4.05,0.346 -4.213,0.811 -0.164,0.468 1.252,0.386 1.801,0.369 1.506,-0.049 2.887,-0.146 4.371,-0.041 1.035,0.068 5.596,0.797 9.627,1.922 4.031,1.125 -6.859,0.908 -7.354,0.918 -5.96,0.113 -11.921,0.179 -17.88,0.254 -5.961,0.078 -18.244,0.275 -27.355,0.433 -7.866,0.137 -15.743,-0.313 -23.617,-0.449 -2.62,-0.047 -5.244,0.063 -7.865,0.129 -1.902,0.045 -2.742,-0.875 -2.814,-2.713 -0.066,-1.727 0.09,-3.051 2.322,-3.342 4.096,-0.531 8.164,-1.275 12.242,-1.953 0.262,-0.045 0.907,-0.135 0.945,-0.342 0.038,-0.207 -0.713,-0.381 -0.959,-0.361 -1.97,0.139 -3.934,0.441 -5.902,0.467 -1.125,0.015 -3.871,0.166 -4.496,-0.459 -0.625,-0.625 -0.719,-2.416 2,-4.063 2.719,-1.647 8.959,-1.037 13.236,-1.313 2.069,-0.135 4.156,0.037 6.225,-0.104 7.402,-0.515 14.794,-1.258 22.201,-1.664 7.869,-0.432 15.762,-0.906 23.627,-0.752 9.045,0.176 14.426,0.801 23.459,1.369 0.555,0.035 9.291,0.123 11.893,0.135 2.598,0.01 4.141,-0.319 3.926,6.089 z m 0.947,-80.873 c 0,2.525 -0.719,17.125 -0.844,25.375 -0.125,8.25 -1.688,10.563 -1.563,17.25 0.125,6.687 0.125,14.313 0.125,19.375 0,5.062 -2.406,8.879 -3.328,9.08 -0.922,0.201 -3.64,-1.135 -3.844,-1.844 -0.344,-1.191 -0.469,-6.656 -0.469,-10.531 0,-3.875 0.156,-6.844 -0.438,-6.5 -0.594,0.344 -0.871,1.459 -1.279,3.465 -0.408,2.004 -0.721,9.816 -0.721,12.098 0,2.282 -1.696,3.322 -3.156,3.324 -3.176,0 -3.785,-0.549 -3.785,-3.321 0,-2.771 0.396,-5.083 0.396,-7.458 0,-2.375 -0.704,-10.184 -0.66,-16.227 0.045,-6.08 0.76,-12.181 0.906,-18.273 0.152,-6.383 -0.086,-12.754 -0.021,-19.133 0.031,-3.147 0.484,-6.632 0.504,-8.249 0.02,-1.617 0.229,-2.447 2.02,-2.447 1.791,0 8.514,-0.093 12.953,-0.269 2.948,-0.117 3.204,1.76 3.204,4.285 z"
         id="path162"
         inkscape:connector-curvature="0" />
    </g>
  </g>
</svg>
