<?xml version="1.0" encoding="UTF-8" standalone="no"?>
<!-- Created with Inkscape (http://www.inkscape.org/) -->

<svg
   xmlns:dc="http://purl.org/dc/elements/1.1/"
   xmlns:cc="http://creativecommons.org/ns#"
   xmlns:rdf="http://www.w3.org/1999/02/22-rdf-syntax-ns#"
   xmlns:svg="http://www.w3.org/2000/svg"
   xmlns="http://www.w3.org/2000/svg"
   xmlns:sodipodi="http://sodipodi.sourceforge.net/DTD/sodipodi-0.dtd"
   xmlns:inkscape="http://www.inkscape.org/namespaces/inkscape"
   width="59.308968mm"
   height="32.471321mm"
   viewBox="0 0 59.308968 32.471321"
   version="1.1"
   id="svg8235"
   inkscape:version="0.92.3 (2405546, 2018-03-11)"
   sodipodi:docname="desk.svg">
  <defs
     id="defs8229" />
  <sodipodi:namedview
     id="base"
     pagecolor="#ffffff"
     bordercolor="#666666"
     borderopacity="1.0"
     inkscape:pageopacity="0.0"
     inkscape:pageshadow="2"
     inkscape:zoom="0.35"
     inkscape:cx="199.2228"
     inkscape:cy="258.50598"
     inkscape:document-units="mm"
     inkscape:current-layer="layer1"
     showgrid="false"
     inkscape:window-width="1366"
     inkscape:window-height="703"
     inkscape:window-x="0"
     inkscape:window-y="0"
     inkscape:window-maximized="1" />
  <metadata
     id="metadata8232">
    <rdf:RDF>
      <cc:Work
         rdf:about="">
        <dc:format>image/svg+xml</dc:format>
        <dc:type
           rdf:resource="http://purl.org/dc/dcmitype/StillImage" />
        <dc:title></dc:title>
      </cc:Work>
    </rdf:RDF>
  </metadata>
  <g
     inkscape:label="Layer 1"
     inkscape:groupmode="layer"
     id="layer1"
     transform="translate(57.624722,-184.75839)">
    <g
       transform="matrix(0.26458333,0,0,0.26458333,-95.705019,-154.60375)"
       id="Table">
      <path
         d="m 157.696,1400.999 c 0.004,-0.316 0.005,-0.607 -0.004,-0.859 -0.134,-3.594 -0.092,-6.775 0.129,-9.727 0.15,-2.011 0.296,-9.424 0.213,-10.865 -0.289,-5.01 -0.144,-10.194 -0.004,-15.207 0.146,-5.212 0.297,-10.602 -0.018,-15.995 -0.144,-2.462 0.067,-5.001 0.291,-7.688 0.2,-2.412 0.408,-4.907 0.36,-7.47 -0.119,-6.608 -4.387,-7.597 -6.921,-7.597 -0.521,0 -1.087,0.037 -1.729,0.113 -0.112,-0.266 -0.225,-0.531 -0.339,-0.798 -0.711,-1.665 -1.446,-3.386 -1.432,-4.533 0.044,-3.494 0.546,-7.004 1.077,-10.72 0.172,-1.204 0.344,-2.407 0.5,-3.61 0.623,-4.804 1.357,-10.067 2.246,-16.094 0.35,-2.372 0.58,-2.992 3.929,-2.992 l 0.201,10e-4 c 0.175,0.01 1.526,0.079 3.581,0.188 6.919,0.362 21.316,1.118 29.271,1.393 11.467,0.396 20.835,0.579 29.482,0.579 h 0.354 c 4.912,0 9.875,-0.123 14.674,-0.239 4.826,-0.116 9.816,-0.235 14.702,-0.235 1.555,0 3.109,0.013 4.665,0.04 6.615,0.116 13.405,0.572 19.973,1.015 3.62,0.242 7.364,0.494 11.06,0.688 3.602,0.188 12.031,0.207 17.609,0.219 2.141,0 3.832,0.01 4.594,0.02 l 3.595,0.061 c 7.332,0.122 14.256,0.236 21.454,0.236 1.876,0 3.761,-0.01 5.662,-0.025 4.974,-0.047 10.384,-0.182 16.242,-0.836 0.697,-0.078 1.304,-0.115 1.852,-0.115 2.229,0 2.51,0.594 2.63,0.847 0.865,1.82 0.535,4.314 0.186,6.955 -0.104,0.775 -0.204,1.543 -0.28,2.298 -0.722,7.16 -1.352,14.439 -1.96,21.479 -0.281,3.247 -0.563,6.495 -0.853,9.742 -0.28,3.144 -0.578,6.284 -0.876,9.428 l -0.32,3.405 c -0.05,0.215 -0.088,0.417 -0.113,0.619 -0.728,5.921 2.688,9.74 10.157,11.366 0.118,0.899 0.173,2.393 0.217,3.559 0.104,2.766 -0.48,7.094 -1.045,11.279 -0.328,2.437 -0.639,4.736 -0.834,6.841 -0.091,0.977 -0.188,1.954 -0.285,2.936 -0.604,6.108 -1.229,12.426 -0.617,18.896 0.01,0.105 0.016,0.196 0.018,0.276 -0.018,0 -0.035,0 -0.054,0 -0.186,0 -0.395,-0.015 -0.621,-0.045 -2.635,-0.346 -5.227,-0.412 -7.732,-0.476 -1.485,-0.038 -2.887,-0.073 -4.284,-0.164 -1.927,-0.127 -27.483,-0.516 -30.629,-0.525 -1.736,-0.01 -4.468,-0.068 -7.361,-0.136 -3.804,-0.088 -8.115,-0.188 -11.438,-0.188 -1.452,0 -2.603,0.02 -3.519,0.058 -1.126,0.047 -2.297,0.069 -3.579,0.069 -1.987,0 -3.993,-0.057 -5.934,-0.109 -1.996,-0.058 -4.059,-0.114 -6.157,-0.114 -1.568,0 -3,0.032 -4.381,0.098 -2.733,0.13 -5.562,0.166 -8.297,0.202 -2.194,0.029 -4.387,0.059 -6.576,0.131 -2.526,0.085 -5.047,0.206 -7.568,0.328 -3.639,0.176 -7.402,0.358 -11.077,0.415 -1.155,0.019 -2.312,0.024 -3.468,0.024 -2.251,0 -4.505,-0.026 -6.758,-0.053 -2.287,-0.027 -4.574,-0.055 -6.859,-0.055 -1.458,0 -2.915,0.012 -4.371,0.039 -3.132,0.063 -6.251,0.274 -9.268,0.479 -2.448,0.167 -4.98,0.34 -7.44,0.424 -0.687,0.022 -1.376,0.033 -2.066,0.033 -1.986,0 -3.964,-0.079 -6.059,-0.163 l -2.09,-0.081 c -0.853,-0.03 -1.705,-0.044 -2.553,-0.044 -3.09,0 -6.125,0.183 -9.059,0.358 -2.937,0.178 -5.711,0.345 -8.543,0.345 -0.714,0 -1.431,-0.012 -2.151,-0.035 -0.385,-0.015 -0.859,-0.021 -1.401,-0.021 -2.8,0 -7.371,0.162 -11.999,0.345 -0.002,-0.01 -0.002,-0.01 -0.002,-0.013 z"
         id="path123"
         inkscape:connector-curvature="0"
         style="fill:#6e533b" />
      <path
         d="m 189.196,1284.22 c 9.896,0.341 19.8,0.582 29.685,0.576 11.382,-0.01 22.737,-0.638 34.121,-0.435 10.381,0.185 20.787,1.162 31.182,1.708 4.873,0.255 19.319,0.188 22.046,0.231 10.365,0.168 20.253,0.368 30.601,0.271 5.449,-0.053 10.413,-0.207 15.803,-0.811 3.687,-0.412 7.313,-0.096 8.864,3.17 1.743,3.666 0.681,7.771 0.302,11.54 -1.047,10.377 -1.878,20.78 -2.808,31.173 -0.391,4.36 -0.812,8.719 -1.221,13.076 -0.017,0.179 -0.084,0.349 -0.105,0.524 -0.648,5.269 4.75,6.206 7.432,6.745 2.682,0.539 2.792,2.663 2.973,7.486 0.179,4.821 -1.358,12.918 -1.896,18.682 -0.648,6.939 -1.568,13.968 -0.902,21.025 0.337,3.558 -1.673,5.427 -5.521,4.921 -3.877,-0.51 -7.821,-0.359 -11.731,-0.611 -1.645,-0.108 -26.5,-0.504 -30.365,-0.517 -4.973,-0.017 -17.173,-0.478 -22.125,-0.271 -6.915,0.288 -13.112,-0.387 -20.024,-0.058 -4.965,0.233 -9.963,0.17 -14.936,0.335 -6.245,0.21 -12.47,0.647 -18.721,0.745 -7.137,0.109 -14.303,-0.184 -21.438,-0.043 -5.563,0.108 -11.087,0.712 -16.646,0.9 -3.489,0.118 -7.009,-0.086 -10.516,-0.211 -7.542,-0.271 -14.757,0.883 -22.3,0.624 -2.576,-0.088 -9.563,0.184 -13.85,0.354 -4.288,0.171 -3.664,-3.473 -3.723,-5.054 -0.127,-3.406 -0.115,-6.826 0.138,-10.212 0.148,-1.979 0.275,-9.127 0.208,-10.297 -0.6,-10.399 0.585,-20.799 -0.021,-31.197 -0.299,-5.108 0.739,-10.221 0.645,-15.329 -0.052,-2.896 -0.802,-3.64 -3.873,-3.268 -1.936,0.234 -3.473,-0.227 -4.137,-1.888 -1.022,-2.55 -2.441,-5.232 -2.411,-7.79 0.063,-4.973 0.972,-9.901 1.612,-14.835 0.7,-5.396 1.462,-10.785 2.256,-16.168 0.718,-4.87 3.132,-6.742 8.453,-6.681 0.489,0.015 22.458,1.227 32.949,1.59 z m 18.126,42.076 c 0.025,0.46 -2.903,0.582 -3.831,0.586 -6.36,0.028 -12.73,-0.078 -19.085,0.033 -5.679,0.1 -12.306,0.373 -17.967,0.67 -2.681,0.142 -4.715,1.157 -4.83,3.963 -0.167,4.105 -0.354,8.211 -0.408,12.324 -0.015,1.229 -0.652,6.493 -0.322,7.713 0.36,1.33 1.578,3.038 3.352,3.09 5.887,0.17 13.678,0.524 19.565,0.892 1.135,0.07 10.93,0.464 12.002,0.857 1.466,0.538 3.501,1.397 3.479,2.041 -0.021,0.646 -8.122,0.421 -11.467,0.573 -3.346,0.153 -12.61,1.305 -15.733,1.899 -2.788,0.532 -1.763,3.158 -4.656,3.385 -2.893,0.226 -5.145,1.954 -5.141,4.306 0.008,4.742 -1.866,5.505 -1.57,10.254 0.144,2.319 1.537,4.941 0.811,6.882 -1.243,3.329 -1.314,6.524 -1.207,9.759 0.091,2.741 4.999,2.673 8.108,2.749 3.109,0.074 28.617,-0.928 36.763,-0.913 16.169,0.026 32.813,-0.404 48.981,-0.39 3.686,0 8.095,0.084 13.264,-0.689 5.167,-0.773 15.877,-3.082 24.98,-4.377 4.657,-0.664 9.414,-1.444 14.106,-1.167 3.255,0.192 6.979,1.521 9.563,3.421 2.239,1.646 5.199,1.943 8.732,1.943 3.532,0 16.232,0.431 20.541,0.18 4.309,-0.252 9.55,-0.135 10.359,-2.473 0.813,-2.339 1.895,-11.056 2.059,-16.995 0.164,-5.942 1.161,-13.431 1.58,-15.339 0.394,-1.794 -0.307,-2.363 -2.35,-2.422 -2.313,-0.066 -6.984,-0.359 -12.491,-0.405 -5.505,-0.044 -13.979,0.469 -21.088,0.806 -0.639,0.03 -2.001,-0.01 -2.166,-0.485 -0.166,-0.479 0.734,-1.003 1.355,-1.225 0.505,-0.179 3.278,-0.077 3.862,-0.118 7.111,-0.49 12.59,-0.951 19.698,-1.474 3.086,-0.228 4.633,-2.325 5.198,-4.608 0.519,-2.099 0.869,-4.755 -2.563,-5.931 -0.456,-0.157 -1.021,-1.078 -0.929,-1.511 0.729,-3.375 -2.273,-3.745 -4.472,-4.462 -2.329,-0.76 -3.042,-1.983 -1.46,-3.701 1.47,-1.599 3.046,-3.143 4.778,-4.495 1.451,-1.133 4.543,-2.141 5.659,-3.676 1.115,-1.536 -0.621,-4.465 -4.1,-4.504 -3.816,-0.041 -7.61,0.364 -11.423,0.482 -3.722,0.114 -7.454,0.095 -11.18,0.158 -7.133,0.125 -14.261,0.316 -21.397,0.374 -2.459,0.02 -7.55,-0.034 -7.406,-0.436 0.144,-0.4 7.561,-1.982 12.047,-1.169 4.643,0.846 9.671,-0.519 14.514,-1.012 9.072,-0.925 18.121,-1.984 27.204,-2.836 2.225,-0.208 2.69,-1.243 2.753,-2.964 0.253,-6.976 0.539,-13.948 0.853,-20.919 0.104,-2.342 -0.788,-2.854 -3.36,-2.791 -5.703,0.141 -11.43,0.073 -17.149,-0.098 -5.583,-0.168 -8.12,-0.552 -16.606,-0.222 -8.486,0.329 -14.773,-0.566 -22.087,-0.606 -4.016,-0.021 -8.049,-0.465 -12.072,-0.585 -7.043,-0.212 -14.099,-0.528 -21.12,-0.397 -4.377,0.083 -8.715,0.336 -13.094,0.51 -7.307,0.29 -14.652,0.209 -21.982,0.286 -3.791,0.041 -23.258,-0.252 -28.468,-0.252 -5.209,0 -9.848,-0.169 -9.095,0.843 0.754,1.013 13.447,1.326 13.307,2.406 -0.139,1.079 -14.339,0.078 -20.377,0.215 -6.039,0.138 -12.315,0.862 -14.081,-1.652 -2.181,-3.106 -4.881,-3.046 -7.953,-2.928 -4.871,0.187 -5.128,0.266 -5.251,4.69 -0.198,7.007 -0.842,13.915 -2.909,20.62 -0.38,1.24 -0.366,2.377 -0.315,4.408 0.051,2.029 1.121,2.458 3.206,2.58 6.648,0.391 16.521,0.987 19.267,1.13 2.746,0.142 7.235,-0.659 9.929,0.674 2.695,1.333 9.027,0.112 14.012,0.083 3.136,-0.017 9.247,1.981 9.274,2.442 z"
         id="path125"
         inkscape:connector-curvature="0" />
      <path
         d="m 269.895,1364.845 c -2.045,-0.032 -4.079,0.2 -6.121,0.297 -5.813,0.277 -14.692,0.591 -17.441,0.817 -2.749,0.226 -7.389,-0.303 -12.655,0.01 -5.266,0.313 -12.01,0.975 -18.016,0.712 -10.465,-0.457 -20.928,-1.543 -31.395,-2.253 -0.998,-0.066 -3.907,0.287 -3.026,1.029 0.882,0.741 2.002,1.741 3.081,1.884 1.909,0.25 3.882,-0.237 5.822,-0.118 5.775,0.353 11.567,1.21 17.318,1.215 11.937,0.01 23.856,-0.346 35.773,-0.666 8.873,-0.238 17.73,-0.646 26.591,-1.024 0.562,-0.024 1.593,-0.12 1.623,-0.669 0.029,-0.549 -1.051,-1.227 -1.554,-1.234 z"
         id="path127"
         inkscape:connector-curvature="0" />
      <path
         d="m 323.672,1310.639 c -1.206,0.063 -7.336,0.446 -11.016,0.532 -3.783,0.088 -7.58,0.072 -11.374,-0.038 -1.432,-0.042 -2.877,-0.662 -4.306,-0.688 -2.733,-0.053 -7.366,-0.167 -9.577,-0.167 -2.211,0 -2.885,-0.304 -3.182,-1.046 -0.297,-0.741 1.449,-1.331 4.025,-1.331 2.576,0 11.132,0.054 16.7,0.248 5.277,0.185 12.642,0.843 17.759,1.023 5.118,0.183 2.177,1.403 0.971,1.467 z"
         id="path129"
         inkscape:connector-curvature="0" />
      <path
         d="m 271.389,1370.1 c 1.44,-0.19 5.793,0.01 8.689,0 5.467,-0.017 10.933,-0.078 16.402,-0.055 5.138,0.021 10.301,0.342 15.415,0.138 3.968,-0.157 7.868,-0.956 11.814,-1.384 0.843,-0.092 2.297,0.015 2.63,0.296 0.332,0.281 -1.299,1.437 -2.064,1.521 -3.272,0.366 -6.579,0.605 -9.89,0.682 -8.781,0.197 -17.569,0.313 -26.359,0.406 -5.521,0.057 -15.991,0.01 -17.786,-0.04 -1.795,-0.051 -0.29,-1.372 1.149,-1.562 z"
         id="path131"
         inkscape:connector-curvature="0" />
      <path
         d="m 214.582,1385.757 c -0.405,0.314 -16.072,1.297 -24.164,1.217 -3.788,-0.038 -10.108,-0.073 -14.923,-0.179 -5.229,-0.114 -8.708,-0.143 -8.834,-0.747 -0.127,-0.604 2.556,-0.523 5.453,-0.523 2.898,0 13.283,-0.027 18.293,-0.176 8.031,-0.235 21.539,-1.053 23.922,-1.053 2.383,0 0.657,1.146 0.253,1.461 z"
         id="path133"
         inkscape:connector-curvature="0" />
      <path
         d="m 236.955,1390.457 c -1.044,0.178 -4.04,-0.049 -6.052,0.01 -5.364,0.154 -15.542,0.492 -16.086,0.505 -0.544,0.015 -1.633,-0.249 -1.686,-0.629 -0.052,-0.381 1.282,-0.976 2.299,-1.022 1.018,-0.047 6.896,-0.209 10.791,-0.364 1.917,-0.076 3.82,-0.45 5.732,-0.379 1.703,0.063 4.302,0.666 5.618,0.914 1.315,0.245 0.426,0.786 -0.616,0.966 z"
         id="path135"
         inkscape:connector-curvature="0" />
      <path
         d="m 347.391,1376.554 c -0.973,0.48 -5.141,0.415 -7.729,0.491 -3.416,0.1 -6.85,0.142 -10.272,0.042 -0.844,-0.025 -3.071,-0.528 -3.204,-1.3 -0.13,-0.772 2.089,-0.74 2.813,-0.742 6.059,-0.02 16.078,-0.123 18.186,0.14 2.108,0.264 1.177,0.888 0.206,1.369 z"
         id="path137"
         inkscape:connector-curvature="0" />
      <path
         d="m 191.983,1316.334 c 0.885,-0.762 3.79,-1.197 7.56,-1.377 2.922,-0.141 6.282,-0.099 9.343,0.16 2.707,0.228 7.489,0.59 7.352,1.398 -0.137,0.81 -10.74,0.695 -16.09,0.695 -2.638,0 -9.05,-0.113 -8.165,-0.876 z"
         id="path139"
         inkscape:connector-curvature="0" />
      <path
         d="m 339.811,1309.064 c 1.632,0 4.37,0.262 4.344,0.819 -0.027,0.56 -2.952,0.921 -3.83,1.035 -1.563,0.2 -3.814,0.382 -5.381,0.278 -1.235,-0.082 -4.454,-0.428 -4.565,-1.06 -0.111,-0.63 3.471,-0.672 4.524,-0.905 0.785,-0.172 3.277,-0.167 4.908,-0.167 z"
         id="path141"
         inkscape:connector-curvature="0" />
      <path
         d="m 316.855,1359.67 c -0.668,0.293 -7.702,-0.082 -8.646,-0.139 -0.942,-0.058 -1.64,-0.707 -0.378,-0.74 1.261,-0.034 8.161,-0.748 8.664,-0.35 0.503,0.398 1.026,0.936 0.36,1.229 z"
         id="path143"
         inkscape:connector-curvature="0" />
      <path
         d="m 304.964,1339.048 c -6.184,0.053 -22.672,0.01 -24.213,-0.447 -1.541,-0.459 -1.599,-1.579 2.019,-1.976 3.62,-0.396 17.125,0.082 19.75,0.65 2.625,0.57 8.628,1.719 2.444,1.773 z"
         id="path145"
         inkscape:connector-curvature="0" />
      <path
         d="m 232.496,1325.071 c -0.065,-1.292 8.229,-1.826 14.109,-2.093 4.558,-0.207 10.362,-0.978 16.117,0.369 5.755,1.347 20.36,0.358 20.75,1.65 0.391,1.291 -26.543,1.83 -31.546,0.784 -5.003,-1.046 -19.364,0.581 -19.43,-0.71 z"
         id="path147"
         inkscape:connector-curvature="0" />
    </g>
  </g>
</svg>
