<?xml version="1.0" encoding="UTF-8" standalone="no"?>
<!-- Created with Inkscape (http://www.inkscape.org/) -->

<svg
   xmlns:dc="http://purl.org/dc/elements/1.1/"
   xmlns:cc="http://creativecommons.org/ns#"
   xmlns:rdf="http://www.w3.org/1999/02/22-rdf-syntax-ns#"
   xmlns:svg="http://www.w3.org/2000/svg"
   xmlns="http://www.w3.org/2000/svg"
   xmlns:sodipodi="http://sodipodi.sourceforge.net/DTD/sodipodi-0.dtd"
   xmlns:inkscape="http://www.inkscape.org/namespaces/inkscape"
   width="33.236549mm"
   height="33.236549mm"
   viewBox="0 0 33.236549 33.23655"
   version="1.1"
   id="svg6529"
   inkscape:version="0.92.3 (2405546, 2018-03-11)"
   sodipodi:docname="gear1.svg">
  <defs
     id="defs6523" />
  <sodipodi:namedview
     id="base"
     pagecolor="#ffffff"
     bordercolor="#666666"
     borderopacity="1.0"
     inkscape:pageopacity="0.0"
     inkscape:pageshadow="2"
     inkscape:zoom="1.979899"
     inkscape:cx="-10.725525"
     inkscape:cy="54.472692"
     inkscape:document-units="mm"
     inkscape:current-layer="layer1"
     showgrid="false"
     inkscape:window-width="1366"
     inkscape:window-height="703"
     inkscape:window-x="0"
     inkscape:window-y="0"
     inkscape:window-maximized="1" />
  <metadata
     id="metadata6526">
    <rdf:RDF>
      <cc:Work
         rdf:about="">
        <dc:format>image/svg+xml</dc:format>
        <dc:type
           rdf:resource="http://purl.org/dc/dcmitype/StillImage" />
        <dc:title></dc:title>
      </cc:Work>
    </rdf:RDF>
  </metadata>
  <g
     inkscape:label="Layer 1"
     inkscape:groupmode="layer"
     id="layer1"
     transform="translate(-92.238867,-70.310652)">
    <g
       transform="matrix(0.26458333,0,0,0.26458333,-77.409429,69.991292)"
       id="Gear_x2C__Leaning">
      <path
         style="fill:#656668"
         inkscape:connector-curvature="0"
         d="m 716.268,104.137 c -2.839,0 -4.802,-0.999 -6.173,-3.145 -2.854,-4.467 -7.548,-4.467 -9.087,-4.467 -1.001,0 -2.013,0.077 -2.995,0.151 -0.421,0.033 -0.837,0.065 -1.241,0.09 -4.001,0.232 -6.354,2.275 -8.626,4.25 -0.369,0.321 -0.75,0.652 -1.155,0.992 -1.817,1.521 -3.119,2.06 -4.979,2.06 -0.458,0 -0.939,-0.032 -1.454,-0.093 -4.242,-0.501 -7.374,-2.013 -9.251,-3.191 -2,-1.254 -3.039,-2.126 -1.184,-5.428 1.412,-2.509 0.766,-4.432 0.256,-5.353 -0.957,-1.729 -2.894,-2.783 -5.315,-2.899 l -0.294,-0.007 c -1.663,0 -3.269,0.676 -4.688,1.271 -0.58,0.244 -1.415,0.594 -1.866,0.698 -2.415,-1.275 -3.205,-2.599 -5.006,-5.617 l -0.277,-0.462 c -1.576,-2.632 -3.629,-6.459 -3.267,-9.313 0.339,-2.671 1.046,-8.226 -3.303,-11.513 -1.467,-1.11 -2.721,-2.882 -1.954,-8.284 0.329,-2.329 1.574,-4.996 8.307,-7.099 3.481,-1.088 6.231,-2.117 7.299,-4.614 1.073,-2.51 -0.201,-5.086 -1.435,-7.581 -0.551,-1.115 -1.307,-2.64 3.533,-5.113 l 0.381,-0.195 c 3.439,-1.757 10.603,-5.415 15.504,-5.415 2.17,0 2.849,0.741 3.071,0.983 0.283,0.311 0.573,0.652 0.868,1.001 1.746,2.056 4.139,4.871 8.002,4.871 0.238,0 0.482,-0.011 0.729,-0.034 1.366,-0.132 2.488,-0.312 3.71,-0.509 1.923,-0.312 4.102,-0.665 8.12,-0.897 0.439,-0.024 0.87,-0.037 1.289,-0.037 2.198,0 4.153,0.313 5.877,0.591 1.455,0.234 2.71,0.436 3.923,0.436 1.525,0 2.774,-0.338 3.816,-1.033 0.471,-0.314 0.967,-0.677 1.486,-1.057 1.599,-1.169 3.406,-2.495 4.931,-2.495 0.102,0 0.204,0.006 0.308,0.019 3.313,0.403 8.019,3.489 13.993,9.169 -0.122,0.405 -0.369,0.985 -0.533,1.372 -0.671,1.58 -1.508,3.548 -0.562,5.499 0.383,0.786 1.191,1.819 2.896,2.284 1.519,0.411 3.427,0.422 5.637,0.437 1.917,0.01 5.903,0.034 6.693,0.773 1.033,1.17 1.947,2.505 2.918,3.917 1.029,1.504 2.094,3.057 3.383,4.516 0.401,0.454 0.87,0.946 1.368,1.471 1.483,1.562 3.727,3.92 3.9,5.437 -0.083,0.267 -0.871,1.031 -1.344,1.488 -1.339,1.297 -3.825,3.71 -2.311,6.979 0.99,2.136 1.825,8.151 1.53,9.901 -0.097,0.568 -1.078,5.646 -6.063,9.814 -0.484,0.405 -1.008,0.874 -1.561,1.368 -1.901,1.705 -4.507,4.041 -6.308,4.041 v 0 c -0.093,0 -0.188,-0.006 -0.279,-0.021 -0.469,-0.08 -1.753,-0.572 -2.783,-0.968 -2.646,-1.012 -5.938,-2.274 -8.75,-2.274 -3.453,0 -5.79,1.938 -6.247,5.187 -0.146,1.026 -0.588,4.151 -1.021,4.704 0,-0.003 0,-0.003 0,-0.003 -0.027,0 -0.244,0.09 -0.872,0.218 -1.809,0.363 -3.452,0.985 -5.046,1.587 -1.675,0.634 -3.255,1.231 -4.804,1.429 -0.568,0.073 -1.136,0.113 -1.694,0.113 z"
         id="path238" />
      <path
         inkscape:connector-curvature="0"
         d="m 766.79,60.231 c -0.358,-3.106 -4.027,-6.315 -5.996,-8.543 -2.334,-2.64 -3.979,-5.803 -6.312,-8.442 -2.392,-2.699 -10.601,-1.242 -13.775,-2.105 -3.366,-0.916 2.183,-5.833 -0.08,-8.009 -3.929,-3.778 -10.62,-9.725 -16.139,-10.398 -3.4,-0.412 -6.408,2.458 -8.742,4.015 -2.333,1.555 -6.819,-0.835 -13.419,-0.454 -6.603,0.38 -8.427,1.078 -11.94,1.414 -3.264,0.311 -5.209,-2.793 -7.119,-4.885 -4.816,-5.24 -17.59,1.478 -22.516,3.987 -2.576,1.317 -7.33,4.09 -4.852,9.1 2.478,5.008 2.478,5.97 -4.079,8.019 -6.557,2.047 -9.738,5.054 -10.372,9.53 -0.851,5.991 0.453,9.076 3.11,11.086 2.658,2.009 2.567,5.394 2.14,8.753 -0.427,3.358 1.242,7.176 3.668,11.224 2.134,3.564 3.224,5.584 6.836,7.383 1.817,0.903 5.294,-1.933 7.715,-1.815 2.13,0.102 3.966,1.376 2.6,3.803 -2.918,5.187 -0.59,7.673 2.198,9.423 2.788,1.751 6.396,3.144 10.488,3.626 3.619,0.429 5.929,-0.319 8.702,-2.641 2.794,-2.339 4.524,-4.347 8.039,-4.551 3.659,-0.213 8.104,-1.103 10.632,2.853 2.528,3.955 6.523,4.925 10.767,4.387 3.486,-0.441 6.613,-2.358 10.067,-3.051 2.89,-0.587 3.415,-1.465 4.257,-7.431 0.843,-5.964 11.229,0.065 14.328,0.584 3.838,0.644 7.816,-3.75 10.558,-6.042 4.939,-4.128 6.685,-9.196 7.092,-11.606 0.406,-2.411 -0.533,-8.997 -1.766,-11.656 -1.233,-2.661 4.291,-4.259 3.91,-7.558 z M 724.11,28.692 c 2.01,-0.648 2.994,0.786 5.757,2.16 3.033,1.509 5.326,4.462 2.618,6.492 -2.377,1.778 -9.332,-1.909 -10.84,-3.919 -1.506,-2.009 0.456,-4.084 2.465,-4.733 z m -31.81,6.069 c 3.891,-0.519 13.323,-3.497 16.23,0.449 2.776,3.773 1.211,5.625 -1.989,5.088 -3.202,-0.537 -7.401,-0.725 -10.195,-0.219 -2.312,0.42 -5.583,1.668 -6.795,-1.213 -0.874,-2.081 0.74,-3.839 2.749,-4.105 2.402,-0.321 -1.615,0.214 0,0 z m -26.059,-3.049 c 1.929,-0.949 8.861,-4.073 11.06,-2.89 1.914,1.032 1.973,3.861 -0.063,4.862 -1.93,0.949 -8.751,4.394 -10.948,3.211 -1.917,-1.033 -2.085,-4.181 -0.049,-5.183 1.481,-0.728 -1.461,0.718 0,0 z m -13.057,40.353 c -3.854,0 -2.527,-4.683 1.324,-4.683 2.089,0 3.943,0.506 3.408,1.765 -0.45,1.064 -2.968,2.918 -4.732,2.918 z m 100.118,10.87 c -3.555,7.98 -11.075,3.746 -16.62,1.012 -2.673,-1.315 -6.322,-0.146 -8.696,1.284 -3.469,2.087 -1.113,8.529 -4.328,10.368 -1.795,1.026 -9.238,3.313 -11.087,1.946 -2.088,-1.546 -3.216,-5.402 -8.569,-5.52 -5.354,-0.118 -9.8,-0.434 -13.731,0.139 -1.685,0.244 -3.655,3.654 -5.771,5.316 -1.725,1.354 -4.474,2.009 -8.04,0.324 -3.565,-1.687 0.32,-3.721 0.064,-6.549 -0.255,-2.829 -8.995,-10.345 -12.837,-8.298 -3.017,1.605 -8.334,-2.126 -6.549,-5.316 1.271,-2.274 5.979,-3.497 6.619,-5.607 0.644,-2.108 1.811,-7.489 -5.517,-10.083 -7.325,-2.593 -9.103,-4.77 -4.385,-7.32 1.816,-0.983 11.545,1.498 13.604,-0.065 2.063,-1.562 6.447,-2.687 4.979,-6.619 -1.469,-3.932 -1.58,-13.014 7.195,-8.752 2.813,1.361 4.905,3.762 7.196,5.899 2.109,1.968 4.068,1.184 12.959,0.041 8.89,-1.142 12.108,1.694 15.095,-0.084 2.521,-1.501 3.956,-4.884 7.402,-4.222 2.895,0.554 5.689,3.249 5.579,6.334 -0.147,4.034 5.349,6.19 8.303,7.981 2.817,1.71 12.944,-1.611 15.456,-1.029 2.242,0.519 6.012,4.21 4.037,6.739 -1.763,2.247 -5.983,2.458 -7.826,5.023 -1.712,2.389 -2.442,3.765 -1.941,6.643 0.594,3.409 8.663,7.594 7.409,10.415 -0.852,1.915 0.506,-1.136 0,0 z m 1.473,-8.017 c -2.917,-0.778 -2.361,-5.926 1.49,-5.926 1.882,0 3.455,2.524 3.501,3.981 0.05,1.53 -2.073,2.723 -4.991,1.945 z"
         id="path240" />
      <path
         inkscape:connector-curvature="0"
         d="m 705.966,58.732 c -9.66,0 -11.598,0.579 -14.894,3.453 -2.654,2.313 -4.954,2.943 -4.727,7.512 0.229,4.568 8.136,12.028 16.628,12.028 8.493,0 11.936,-2.811 14.718,-5.188 2.274,-1.944 3.485,-3.658 3.518,-7.269 0.026,-3.141 -5.584,-10.536 -15.243,-10.536 z m 6.473,15.213 c -5.12,3.112 -11.087,4.538 -15.3,1.491 -4.214,-3.047 -4.24,-6.655 -0.064,-5.705 4.176,0.949 9.012,0.648 13.483,-0.584 4.475,-1.231 6.076,2.25 1.881,4.798 z"
         id="path242" />
    </g>
  </g>
</svg>
