<?xml version="1.0" encoding="UTF-8" standalone="no"?>
<!-- Created with Inkscape (http://www.inkscape.org/) -->

<svg
   xmlns:dc="http://purl.org/dc/elements/1.1/"
   xmlns:cc="http://creativecommons.org/ns#"
   xmlns:rdf="http://www.w3.org/1999/02/22-rdf-syntax-ns#"
   xmlns:svg="http://www.w3.org/2000/svg"
   xmlns="http://www.w3.org/2000/svg"
   xmlns:sodipodi="http://sodipodi.sourceforge.net/DTD/sodipodi-0.dtd"
   xmlns:inkscape="http://www.inkscape.org/namespaces/inkscape"
   width="17.643921mm"
   height="17.643921mm"
   viewBox="0 0 17.643921 17.643921"
   version="1.1"
   id="svg7128"
   inkscape:version="0.92.3 (2405546, 2018-03-11)"
   sodipodi:docname="gear2.svg">
  <defs
     id="defs7122" />
  <sodipodi:namedview
     id="base"
     pagecolor="#ffffff"
     bordercolor="#666666"
     borderopacity="1.0"
     inkscape:pageopacity="0.0"
     inkscape:pageshadow="2"
     inkscape:zoom="2.8"
     inkscape:cx="-22.432935"
     inkscape:cy="10.984052"
     inkscape:document-units="mm"
     inkscape:current-layer="layer1"
     showgrid="false"
     inkscape:window-width="1366"
     inkscape:window-height="703"
     inkscape:window-x="0"
     inkscape:window-y="0"
     inkscape:window-maximized="1" />
  <metadata
     id="metadata7125">
    <rdf:RDF>
      <cc:Work
         rdf:about="">
        <dc:format>image/svg+xml</dc:format>
        <dc:type
           rdf:resource="http://purl.org/dc/dcmitype/StillImage" />
        <dc:title></dc:title>
      </cc:Work>
    </rdf:RDF>
  </metadata>
  <g
     inkscape:label="Layer 1"
     inkscape:groupmode="layer"
     id="layer1"
     transform="translate(-106.13388,-90.874469)">
    <g
       transform="matrix(0.26458333,0,0,0.26458333,-71.362379,48.896431)"
       id="Gear_x2C__Small">
      <path
         style="fill:#656668"
         inkscape:connector-curvature="0"
         d="m 734.342,183.295 c -0.408,-0.125 -1.153,-0.235 -1.636,-0.307 -0.857,-0.127 -1.831,-0.271 -2.739,-0.587 -1.588,-0.554 -3.499,-1.441 -4.166,-3.424 -0.729,-2.155 0.486,-3.986 1.661,-5.759 l 0.265,-0.404 c 0.216,-0.325 0.459,-0.639 0.705,-0.943 -0.98,-1.062 -1.97,-2.118 -2.96,-3.172 -1.604,-1.7 -2.539,-1.929 -3.242,-1.929 -0.204,0 -0.412,0.021 -0.625,0.058 -0.645,0.107 -1.691,0.866 -2.454,1.422 -0.902,0.656 -1.757,1.276 -2.729,1.572 -0.464,0.141 -0.898,0.21 -1.331,0.21 -1.026,0 -1.959,-0.406 -2.624,-1.144 -1.227,-1.361 -1.038,-3.172 -0.872,-4.771 0.043,-0.408 0.107,-1.021 0.109,-1.441 -0.964,-0.429 -3.383,-1.03 -7.984,-1.213 -1.171,0 -2.682,0.392 -3.268,0.746 -0.215,1.65 -1.236,7.277 -5.191,7.279 -0.82,0 -2.033,-0.278 -3.144,-1.596 -0.498,-0.592 -0.889,-1.116 -1.22,-1.569 -0.073,-0.101 -0.144,-0.196 -0.207,-0.285 -0.229,0.095 -0.546,0.241 -0.981,0.462 -1.162,0.592 -2.254,1.401 -3.408,2.261 -1.51,1.123 -3.072,2.283 -5.015,3.146 -0.933,0.415 -1.276,0.807 -1.31,0.815 0.009,0.061 0.094,0.302 0.39,0.662 0.075,0.09 0.188,0.205 0.321,0.337 1.099,1.126 2.936,3.008 2.576,5.301 -0.188,1.192 -0.922,2.182 -2.063,2.785 -0.992,0.524 -1.999,0.68 -3.063,0.845 -1.004,0.156 -2.136,0.334 -3.557,0.871 -0.677,1.105 -0.697,5.515 -0.711,8.18 -0.012,2.195 -0.023,4.46 -0.206,6.606 0.02,0.115 0.046,0.177 0.055,0.189 0.087,0.098 0.547,0.411 2.891,0.411 l 1.273,-0.008 c 0.621,0 1.188,0.021 1.664,0.08 2.076,0.256 3.767,1.725 4.408,3.83 0.734,2.411 -0.021,5.116 -1.879,6.73 -0.475,0.411 -0.6,0.645 -0.619,0.648 0.018,0.078 0.154,0.5 0.966,1.318 0.715,0.72 1.354,1.465 1.977,2.198 1.214,1.425 2.259,2.653 3.789,3.448 0.466,0.24 0.844,0.36 1.125,0.36 0.436,0 1.062,-0.331 2.022,-1.072 1.133,-0.873 2.651,-1.873 4.372,-1.873 3.646,0 4.703,3.972 5.101,5.47 0.122,0.458 0.188,0.867 0.253,1.299 0.059,0.398 0.109,0.737 0.259,1.199 0.321,-0.003 0.659,-0.033 0.989,-0.062 0.297,-0.025 0.593,-0.049 0.877,-0.063 0.413,-0.021 0.841,-0.028 1.28,-0.028 0.768,0 1.57,0.026 2.39,0.054 0.782,0.027 1.582,0.055 2.37,0.055 1.105,0 2.71,-0.049 3.876,-0.474 0.874,-0.319 1.315,-1.209 0.979,-4.81 -0.229,-2.445 0.31,-4.524 1.517,-5.853 0.867,-0.952 2.05,-1.477 3.324,-1.477 0.381,0 0.771,0.047 1.157,0.14 l 0.682,0.168 c 0.832,0.209 1.616,0.406 2.284,0.406 0.434,0 0.791,-0.081 1.156,-0.264 1.786,-0.894 2.021,-1.098 3.981,-3.016 0.673,-0.661 1.048,-1.442 1.027,-2.149 -0.012,-0.395 -0.143,-0.703 -0.394,-0.921 -2.111,-1.837 -3.045,-4.376 -2.382,-6.468 0.362,-1.14 1.494,-3.105 5.003,-3.459 2.882,-0.293 2.879,-0.339 2.722,-2.741 -0.109,-1.629 -0.006,-3.358 0.081,-4.882 0.071,-1.119 0.166,-2.75 0.103,-3.397 z m -25.988,10.081 c -0.946,1.772 -2.359,2.037 -3.119,2.037 -0.911,0 -1.844,-0.359 -2.625,-1.011 -0.887,-0.739 -2.304,-2.501 -1.995,-4.425 0.146,-0.908 0.733,-2.156 2.714,-2.941 0.693,-0.276 1.357,-0.416 1.971,-0.416 1.281,0 2.348,0.599 2.997,1.683 0.96,1.6 0.757,3.763 0.057,5.073 z"
         id="path206" />
      <path
         inkscape:connector-curvature="0"
         d="m 702.288,182.085 c 0.689,1.3 3.328,1.628 4.586,0.815 1.257,-0.815 1.341,-0.642 2.323,-3.331 0.847,-2.309 -2.291,-3.815 -4.961,-3.609 -2.671,0.205 -2.637,4.826 -1.948,6.125 z"
         id="path208" />
      <path
         inkscape:connector-curvature="0"
         d="m 688.441,190.576 c -2.013,5.594 3.432,4.648 5.611,4.112 2.183,-0.535 2.572,-5.821 -0.117,-6.805 -2.308,-0.845 -4.677,0.43 -5.494,2.693 -0.214,0.598 0.856,-2.373 0,0 z"
         id="path210" />
      <path
         inkscape:connector-curvature="0"
         d="m 703.161,185.312 c -2.821,0.259 -5.211,4.774 -3.911,7.406 1.287,2.61 4.308,5.965 7.503,4.387 4.467,-2.208 4.428,-6.222 3.65,-8.892 -0.775,-2.67 -5.434,-3.069 -7.242,-2.901 z m 0.347,8.014 c -0.974,-0.813 -3.063,-3.638 0.338,-4.987 3.702,-1.469 4.245,2.553 3.272,4.378 -0.974,1.825 -2.637,1.42 -3.61,0.609 z"
         id="path212" />
      <path
         inkscape:connector-curvature="0"
         d="m 721.154,188.457 c -1.685,-2.168 -5.746,-1.453 -6.409,-0.609 -0.662,0.845 -1.761,2.415 -1.055,4.422 0.705,2.006 3.119,2.642 4.785,2.354 1.669,-0.291 4.247,-4.152 2.679,-6.167 z"
         id="path214" />
      <path
         inkscape:connector-curvature="0"
         d="m 736.745,181.711 c -0.906,-1.59 -3.921,-1.283 -5.856,-1.959 -3.763,-1.309 -2.622,-2.653 -0.817,-5.396 0.846,-1.286 2.351,-2.299 1.06,-3.695 -1.198,-1.303 -2.404,-2.598 -3.618,-3.885 -2.313,-2.454 -4.216,-3.079 -6.376,-2.714 -2.159,0.364 -4.234,2.682 -5.531,3.076 -2.866,0.873 0.085,-4.964 -1.74,-6.424 -1.826,-1.46 -6.73,-1.925 -9.901,-2.052 -1.813,-0.075 -6.073,0.713 -6.257,2.873 -0.183,2.161 -1.558,6.787 -3.443,4.552 -2.358,-2.804 -2.017,-4.024 -5.825,-2.086 -2.957,1.503 -5.194,3.967 -8.291,5.343 -2.875,1.28 -3.949,3.36 -1.944,5.823 0.61,0.748 3.559,3.174 1.692,4.158 -1.31,0.69 -3.306,0.386 -6.53,1.664 -3.226,1.278 -1.867,10.403 -2.516,17.347 0.319,4.356 5.902,3.122 8.356,3.427 2.455,0.304 2.994,3.959 1.035,5.659 -1.96,1.7 -2.338,3.508 0.192,6.06 2.185,2.202 3.568,4.657 6.469,6.162 2.407,1.248 3.991,0.683 6.147,-0.98 2.896,-2.229 4.07,-1.591 5.053,2.095 0.269,1.013 0.147,1.724 0.819,3.368 0.671,1.646 2.714,1.173 4.41,1.088 3.284,-0.167 7.636,0.569 10.734,-0.562 3.233,-1.179 3.087,-4.76 2.811,-7.706 -0.242,-2.565 0.639,-4.655 2.556,-4.199 1.917,0.457 3.896,1.157 6.025,0.092 2.13,-1.064 2.614,-1.491 4.689,-3.52 2.361,-2.31 2.438,-5.519 0.514,-7.192 -1.925,-1.673 -2.782,-4.632 1.064,-5.021 4.164,-0.422 5.506,-1.596 5.233,-5.713 -0.237,-3.63 0.694,-8.093 -0.214,-9.683 z m -5.299,7.879 c -0.165,1.184 -0.555,2.872 -1.997,3.083 -1.143,0.169 -2.286,0.306 -3.437,0.413 -2.475,0.217 -1.935,0.938 -3.237,2.84 -2.671,3.892 6.075,7.08 -0.211,12.196 -1.354,1.095 -3.974,-0.363 -5.253,-0.929 -2.402,-1.05 -5.589,2.516 -5.442,4.113 0.146,1.598 1.188,3.688 -0.228,5.337 -1.15,1.345 -3.52,1.736 -6.455,1.49 -2.938,-0.245 -3.139,-4.449 -4.195,-6.237 -1.058,-1.787 -4.922,-2.213 -7.143,-1.087 -2.239,1.138 -3.462,1.921 -5.848,0.205 -2.152,-1.553 -2.021,-4.057 -0.604,-6.087 1.422,-2.028 -0.818,-7.267 -3.771,-7.417 -5.642,-0.285 -7.729,-1.403 -6.402,-8.032 0.604,-3.009 2.599,-5.497 5.551,-5.405 2.95,0.091 4.496,-4.127 3.701,-5.618 -0.795,-1.491 -3.505,-3.586 2.604,-6.862 1.71,-0.917 2.473,-0.127 3.569,1.233 1.528,1.896 3.818,1.604 6.11,0.376 2.29,-1.229 -0.236,-8.676 6.854,-8.288 5.5,0.304 4.17,6.639 6.758,7.734 2.586,1.096 9.554,-5.392 12.08,-2.228 2.523,3.165 -4.706,8.936 -0.356,12.724 3.345,2.915 8.249,-0.084 7.352,6.446 -0.165,1.181 0.181,-1.327 0,0 z"
         id="path216" />
      <path
         inkscape:connector-curvature="0"
         d="m 705.313,208.337 c 3.65,-0.153 4.487,-5.331 2.678,-6.726 -1.812,-1.394 -5.447,-1.095 -6.237,0.853 -0.793,1.947 -0.093,6.024 3.559,5.873 z"
         id="path218" />
      <path
         inkscape:connector-curvature="0"
         d="m 703.508,193.326 c -0.974,-0.813 -3.063,-3.638 0.338,-4.987 3.702,-1.469 4.245,2.553 3.272,4.378 -0.974,1.825 -2.637,1.42 -3.61,0.609 z"
         id="path220" />
    </g>
  </g>
</svg>
