<?xml version="1.0" encoding="UTF-8" standalone="no"?>
<!-- Created with Inkscape (http://www.inkscape.org/) -->

<svg
   xmlns:dc="http://purl.org/dc/elements/1.1/"
   xmlns:cc="http://creativecommons.org/ns#"
   xmlns:rdf="http://www.w3.org/1999/02/22-rdf-syntax-ns#"
   xmlns:svg="http://www.w3.org/2000/svg"
   xmlns="http://www.w3.org/2000/svg"
   xmlns:sodipodi="http://sodipodi.sourceforge.net/DTD/sodipodi-0.dtd"
   xmlns:inkscape="http://www.inkscape.org/namespaces/inkscape"
   width="15.99054mm"
   height="15.99054mm"
   viewBox="0 0 15.99054 15.99054"
   version="1.1"
   id="svg3553"
   inkscape:version="0.92.3 (2405546, 2018-03-11)"
   sodipodi:docname="pot1.svg">
  <defs
     id="defs3547" />
  <sodipodi:namedview
     id="base"
     pagecolor="#ffffff"
     bordercolor="#666666"
     borderopacity="1.0"
     inkscape:pageopacity="0.0"
     inkscape:pageshadow="2"
     inkscape:zoom="1.979899"
     inkscape:cx="-67.639169"
     inkscape:cy="-40.096492"
     inkscape:document-units="mm"
     inkscape:current-layer="layer1"
     showgrid="false"
     inkscape:window-width="1366"
     inkscape:window-height="703"
     inkscape:window-x="0"
     inkscape:window-y="0"
     inkscape:window-maximized="1" />
  <metadata
     id="metadata3550">
    <rdf:RDF>
      <cc:Work
         rdf:about="">
        <dc:format>image/svg+xml</dc:format>
        <dc:type
           rdf:resource="http://purl.org/dc/dcmitype/StillImage" />
        <dc:title></dc:title>
      </cc:Work>
    </rdf:RDF>
  </metadata>
  <g
     inkscape:label="Layer 1"
     inkscape:groupmode="layer"
     id="layer1"
     transform="translate(-210.61338,-45.588061)">
    <g
       transform="matrix(0.26458333,0,0,0.26458333,168.20483,36.649845)"
       id="Pot_1">
      <path
         style="fill:#c5d5e8"
         inkscape:connector-curvature="0"
         d="m 190.959,91.82 c -8.349,-0.406 -15.245,-1.188 -21.646,-7.129 -4.431,-4.104 -4.702,-8.916 -4.61,-15.788 0.037,-2.247 0.769,-4.81 1.477,-7.291 0.37,-1.295 0.753,-2.635 1.037,-3.936 0.741,-3.354 2.762,-6.533 4.716,-9.608 l 0.224,-0.351 c 1.212,-1.909 3.611,-3.459 5.931,-4.958 0.848,-0.548 1.672,-1.081 2.427,-1.62 2.79,-1.991 6.166,-3.486 9.26,-4.103 2.17,-0.431 4.718,-0.871 7.162,-0.871 1.804,0 3.323,0.249 4.516,0.74 1.431,0.59 2.237,1.84 3.261,3.422 0.642,0.993 1.304,2.02 2.201,2.992 5.352,5.806 8.181,10.978 10.088,18.447 l 0.057,0.226 c 0.504,2.068 -0.052,4.441 -0.641,6.952 -0.234,0.997 -0.464,1.981 -0.63,2.945 -0.096,0.553 -0.182,1.091 -0.264,1.616 -0.513,3.228 -0.881,5.56 -3.049,7.797 -5.019,5.177 -14.217,10.531 -20.923,10.531 -0.001,0.002 -0.399,-0.003 -0.594,-0.013 z m 30.614,-31.025 0.122,0.097 -4.593,1.03 z"
         id="path277" />
      <path
         style="fill:#7990b2"
         inkscape:connector-curvature="0"
         d="m 199.271,71.952 c 7.438,-7.151 3.495,-24.66 -10.106,-20.293 -15.494,4.974 -5.14,34.96 10.106,20.293 5.862,-5.638 -4.554,4.381 0,0 z"
         id="path279" />
      <path
         inkscape:connector-curvature="0"
         d="m 219.354,61.355 c -2.021,-8.013 -5.124,-13.614 -10.688,-19.65 -2.199,-2.385 -3.072,-5.666 -6.307,-7.002 -3.869,-1.596 -9.063,-0.795 -13.051,-0.003 -3.551,0.706 -7.251,2.41 -10.18,4.501 -2.937,2.095 -7.002,4.117 -8.985,7.24 -2.115,3.331 -4.393,6.822 -5.254,10.725 -0.82,3.738 -2.508,7.88 -2.569,11.706 -0.091,6.742 0.05,12.64 5.372,17.567 6.867,6.374 14.066,7.321 23.151,7.763 7.882,0.382 18.047,-5.775 23.343,-11.238 3.094,-3.194 3.231,-6.504 3.949,-10.666 0.609,-3.52 2.124,-7.348 1.219,-10.943 -0.586,-2.327 0.198,0.783 0,0 z m -26.19,-18.302 c 0.95,-1.262 5.865,-1.274 7.242,-0.932 3.587,0.895 7.449,5.589 1.379,4.622 -1.714,-0.273 -1.269,2.198 -1.688,3.15 -0.807,1.832 -2.905,-0.169 -3.985,-0.573 -1.98,-0.741 -2.44,-0.749 -1.576,-2.76 0.562,-1.306 -2.098,-2.545 -1.372,-3.507 0.466,-0.618 -0.511,0.677 0,0 z m 5.974,12.614 c 3.513,4.203 3.474,10.861 -0.047,14.81 -3.84,4.307 -10.313,5.776 -14.031,0.419 -2.773,-4 -2.83,-10.264 -0.27,-14.377 3.222,-5.175 10.49,-5.456 14.348,-0.852 0.427,0.513 -3.614,-4.313 0,0 z m 12.695,15.671 c -2.552,7.874 -7.487,12.288 -15.454,14.312 -7.092,1.803 -17.93,1.931 -22.246,-5.2 -4.321,-7.136 -4.051,-19.451 -0.165,-26.755 2.229,-4.188 6.057,-6.701 10.392,-8.295 4.323,-1.59 8.14,0.703 2.972,3.506 -3.396,1.843 -6.472,3.203 -8.18,6.938 -1.997,4.361 -3.635,9.1 -2.348,13.908 1.271,4.745 6.154,6.968 10.201,8.904 5.139,2.459 9.394,0.66 13.366,-2.903 3.684,-3.308 5.673,-8.125 5.027,-13.059 -0.42,-3.216 -4.609,-9.826 -1.98,-12.998 0.712,-0.858 3.855,0.266 4.506,0.671 1.719,1.073 2.643,2.822 3.609,4.526 2.688,4.682 1.874,11.559 0.3,16.445 -0.37,1.142 1.51,-4.684 0,0 z"
         id="path281" />
    </g>
  </g>
</svg>
