<?xml version="1.0" encoding="UTF-8" standalone="no"?>
<!-- Created with Inkscape (http://www.inkscape.org/) -->

<svg
   xmlns:dc="http://purl.org/dc/elements/1.1/"
   xmlns:cc="http://creativecommons.org/ns#"
   xmlns:rdf="http://www.w3.org/1999/02/22-rdf-syntax-ns#"
   xmlns:svg="http://www.w3.org/2000/svg"
   xmlns="http://www.w3.org/2000/svg"
   xmlns:sodipodi="http://sodipodi.sourceforge.net/DTD/sodipodi-0.dtd"
   xmlns:inkscape="http://www.inkscape.org/namespaces/inkscape"
   width="16.12834mm"
   height="16.12834mm"
   viewBox="0 0 16.12834 16.12834"
   version="1.1"
   id="svg4147"
   inkscape:version="0.92.3 (2405546, 2018-03-11)"
   sodipodi:docname="pot2.svg">
  <defs
     id="defs4141" />
  <sodipodi:namedview
     id="base"
     pagecolor="#ffffff"
     bordercolor="#666666"
     borderopacity="1.0"
     inkscape:pageopacity="0.0"
     inkscape:pageshadow="2"
     inkscape:zoom="3.959798"
     inkscape:cx="57.324888"
     inkscape:cy="38.2601"
     inkscape:document-units="mm"
     inkscape:current-layer="layer1"
     showgrid="false"
     inkscape:window-width="1366"
     inkscape:window-height="703"
     inkscape:window-x="0"
     inkscape:window-y="0"
     inkscape:window-maximized="1" />
  <metadata
     id="metadata4144">
    <rdf:RDF>
      <cc:Work
         rdf:about="">
        <dc:format>image/svg+xml</dc:format>
        <dc:type
           rdf:resource="http://purl.org/dc/dcmitype/StillImage" />
        <dc:title></dc:title>
      </cc:Work>
    </rdf:RDF>
  </metadata>
  <g
     inkscape:label="Layer 1"
     inkscape:groupmode="layer"
     id="layer1"
     transform="translate(12.587391,-140.76916)">
    <g
       transform="matrix(0.26458333,0,0,0.26458333,-55.312844,98.033239)"
       id="Pot_2">
      <path
         style="fill:#c5d5e8"
         inkscape:connector-curvature="0"
         d="m 194.348,220.095 c -2.491,0 -4.623,-0.826 -7.324,-1.872 l -1.053,-0.407 c -1.231,-0.469 -2.462,-0.886 -3.688,-1.3 -2.667,-0.9 -5.187,-1.752 -7.536,-3.113 -7.683,-4.452 -9.155,-13.743 -9.348,-18.886 -0.229,-6.09 1.747,-14.864 6.63,-19.735 2.533,-2.528 5.509,-4.681 8.848,-6.394 0.583,-0.3 1.189,-0.624 1.815,-0.957 3.088,-1.652 6.589,-3.526 9.604,-3.526 l 0.237,0.005 c 3.039,0.105 5.794,1.016 8.71,1.979 l 1.643,0.537 c 3.467,1.112 4.792,2.223 7.698,4.657 2.463,2.057 4.563,4.856 5.764,7.683 0.325,0.894 1.515,6.465 2.03,9.627 l 0.152,2.509 c 0.886,14.577 -8.771,27.072 -22.458,29.066 -0.591,0.085 -1.155,0.127 -1.724,0.127 z"
         id="path270" />
      <ellipse
         style="fill:#7990b2"
         transform="matrix(0.5722,-0.8201,0.8201,0.5722,-74.4393,240.042)"
         cx="192.867"
         cy="191.373"
         rx="9.1549997"
         ry="6.079"
         id="ellipse272" />
      <path
         inkscape:connector-curvature="0"
         d="m 220.911,190.757 c 0.928,15.283 -8.948,29.304 -24.494,31.569 -4.314,0.629 -7.38,-0.788 -11.297,-2.283 -3.938,-1.502 -7.891,-2.447 -11.568,-4.578 -7.425,-4.304 -10.234,-12.883 -10.535,-20.857 -0.267,-7.106 2.174,-16.37 7.328,-21.514 2.76,-2.755 5.989,-5.054 9.444,-6.827 3.739,-1.919 8.451,-4.889 12.826,-4.74 3.972,0.138 7.311,1.445 10.999,2.629 3.87,1.241 5.424,2.521 8.502,5.101 2.679,2.237 5.057,5.355 6.426,8.576 0.495,1.158 2.965,12.924 2.369,12.924 0.048,0.798 0.001,0 0,0 z M 170.5,194.25 c 0,6 1.377,6.735 3.375,10 0.705,1.15 2.654,2.273 4.339,1.773 1.861,-0.551 0.404,-3.077 0.192,-4.258 -0.397,-2.223 0.771,-2.022 2.219,-3.641 1.887,-2.109 1.469,-5.501 1.961,-8.201 0.743,-4.116 2.662,-7.499 6.376,-9.534 3.165,-1.736 5.677,-2.157 6.149,-6.291 0.677,-5.931 -5.498,-3.993 -8.754,-2.178 -3.862,2.152 -7.345,4.72 -10.233,8.119 -3.258,3.834 -5.624,8.211 -5.624,14.211 z m 18.973,16.753 c 7.087,-0.185 13.256,-1.071 18.138,-6.662 1.802,-2.069 3.877,-5.768 3.923,-8.566 0.055,-3.412 -3.176,-5.015 -6.021,-3.6 -2.594,1.286 -3.733,4.672 -5.604,6.717 -2.609,2.85 -6.615,4.566 -10.495,3.683 -2.777,-0.632 -6.917,-2.771 -6.354,2.124 0.518,4.528 2.018,5.827 6.413,6.304 1.055,-0.027 -0.924,-0.1 0,0 z m 10.96,-31.332 c 0.254,2.283 0.68,5.13 3.11,6.146 1.763,0.735 8.477,0.965 7.143,-2.508 -1.17,-3.051 -2.543,-5.555 -5.167,-7.604 -3.219,-2.517 -5.529,0.672 -5.086,3.966 0.07,0.628 -0.124,-0.926 0,0 z m -6.934,16.29 c 3.883,-1.547 5.731,-8.964 0.229,-9.506 -6.267,-0.615 -8.189,12.679 -0.229,9.506 3.061,-1.22 -2.378,0.947 0,0 z"
         id="path274" />
    </g>
  </g>
</svg>
