<?xml version="1.0" encoding="UTF-8" standalone="no"?>
<!-- Created with Inkscape (http://www.inkscape.org/) -->

<svg
   xmlns:dc="http://purl.org/dc/elements/1.1/"
   xmlns:cc="http://creativecommons.org/ns#"
   xmlns:rdf="http://www.w3.org/1999/02/22-rdf-syntax-ns#"
   xmlns:svg="http://www.w3.org/2000/svg"
   xmlns="http://www.w3.org/2000/svg"
   xmlns:sodipodi="http://sodipodi.sourceforge.net/DTD/sodipodi-0.dtd"
   xmlns:inkscape="http://www.inkscape.org/namespaces/inkscape"
   width="33mm"
   height="66mm"
   viewBox="0 0 33 66"
   version="1.1"
   id="svg15668"
   inkscape:version="0.92.3 (2405546, 2018-03-11)"
   sodipodi:docname="sarcophagus_trans.svg">
  <defs
     id="defs15662" />
  <sodipodi:namedview
     id="base"
     pagecolor="#ffffff"
     bordercolor="#666666"
     borderopacity="1.0"
     inkscape:pageopacity="0.0"
     inkscape:pageshadow="2"
     inkscape:zoom="1.4"
     inkscape:cx="-0.16538393"
     inkscape:cy="84.458033"
     inkscape:document-units="mm"
     inkscape:current-layer="Sarcophogus"
     showgrid="false"
     inkscape:window-width="1366"
     inkscape:window-height="703"
     inkscape:window-x="0"
     inkscape:window-y="0"
     inkscape:window-maximized="1" />
  <metadata
     id="metadata15665">
    <rdf:RDF>
      <cc:Work
         rdf:about="">
        <dc:format>image/svg+xml</dc:format>
        <dc:type
           rdf:resource="http://purl.org/dc/dcmitype/StillImage" />
        <dc:title></dc:title>
      </cc:Work>
    </rdf:RDF>
  </metadata>
  <g
     inkscape:label="Layer 1"
     inkscape:groupmode="layer"
     id="layer1"
     transform="translate(-88.259682,-58.240321)">
    <g
       transform="matrix(0.26458333,0,0,0.26458333,-13.644606,-111.44083)"
       id="Sarcophogus">
      <path
         style="fill:none"
         inkscape:connector-curvature="0"
         d="m 475.455,853.14 c -1.03,0 -2.609,-2.054 -4.003,-3.863 -2.501,-3.249 -5.473,-5.897 -11.337,-5.923 -4.114,-0.014 -20.599,-0.252 -21.417,-0.31 -1.36,-0.098 -8.956,-1.205 -12.105,0.827 -2.39,1.543 -4.997,2.56 -6.771,4.271 -2.047,1.978 -4.163,4.021 -5.521,4.021 -0.829,0 -2.073,-0.718 -3.502,-2.021 -3.16,-2.881 -5.383,-6.945 -7.737,-11.253 -2.043,-3.733 -4.153,-7.597 -7.058,-11.001 -0.483,-0.565 -1.856,-2.175 -2.19,-3.058 0.484,-0.493 1.136,-1.01 1.823,-1.553 2.272,-1.798 5.388,-4.263 6.043,-8.543 0.78,-5.076 0.562,-10.275 0.35,-15.306 -0.138,-3.238 -0.268,-6.3 -0.137,-9.231 0.188,-4.169 0.522,-8.438 0.849,-12.568 0.368,-4.713 0.752,-9.587 0.926,-14.429 0.199,-5.451 0.229,-11.271 0.096,-18.316 -0.023,-1.24 0.024,-2.555 0.076,-3.943 0.148,-3.983 0.316,-8.5 -1.279,-12.851 -0.32,-0.877 -0.564,-1.674 -0.797,-2.423 -0.795,-2.583 -1.618,-5.254 -4.347,-8.347 -0.503,-0.569 -1.049,-1.144 -1.608,-1.729 -1.729,-1.81 -3.362,-3.521 -3.733,-5.352 0.204,-1.049 1.889,-3.133 5.011,-6.198 0.63,-0.619 1.162,-1.146 1.522,-1.545 2.229,-2.464 12.52,-11.469 15.727,-13.198 1.896,-1.023 3.732,-2.32 5.506,-3.573 1.145,-0.81 2.584,-1.825 3.673,-2.452 1.18,1.206 2.839,3.602 3.549,4.627 0.71,1.025 1.272,1.836 1.799,2.441 3.301,3.807 8.623,4.295 12.889,4.295 0.823,0 1.617,-0.021 2.354,-0.037 l 1.422,-0.024 c 1.657,0 3.752,0.141 5.967,0.291 2.648,0.181 5.652,0.385 8.563,0.385 6.227,0 10.605,-0.964 13.78,-3.029 1.771,-1.157 3.303,-2.594 4.785,-3.981 2.119,-1.986 4.121,-3.862 5.98,-4.126 0.914,0.224 2.842,3.075 3.566,4.148 l 0.35,0.515 c 0.864,1.269 1.553,2.808 2.279,4.438 0.973,2.177 2.074,4.644 3.828,6.916 1.3,1.687 2.649,3.327 3.999,4.971 1.743,2.119 3.391,4.122 4.938,6.229 0.759,1.027 0.434,2.164 -3.521,6.563 -0.871,0.968 -1.771,1.971 -2.53,2.975 -4.155,5.508 -2.682,8.759 -2.528,14.265 0.026,1.012 0.383,12.479 0.412,15.935 0.087,9.681 0.196,18.164 -0.619,27.521 -0.734,8.419 -0.453,12.142 -0.207,20.383 l 0.414,7.347 c 0.296,10.002 0.333,16.817 5.18,23.874 1.557,2.267 1.557,2.267 -1.979,6.18 l -0.206,0.229 c -3.495,3.872 -6.445,6.688 -10.354,8.763 -2.174,1.154 -4.058,2.622 -5.878,4.041 -1.794,1.398 -3.49,2.721 -5.087,3.418 -0.61,0.257 -0.992,0.314 -1.205,0.314 z"
         id="path61" />
      <path
         style="fill:none"
         inkscape:connector-curvature="0"
         d="m 477.596,838.766 c -2.028,0 -3.929,-1.445 -4.619,-3.52 -0.632,-1.897 -0.057,-3.802 1.506,-4.973 2.105,-1.58 5.03,-3.278 8.022,-4.655 0.645,-0.298 1.316,-0.449 1.995,-0.449 2.184,0 4.116,1.589 4.596,3.777 0.402,1.842 -0.395,3.62 -2.001,4.556 -0.105,0.064 -0.224,0.127 -0.348,0.185 l -0.124,0.058 c -2.177,1.016 -4.181,2.467 -6.391,4.122 -0.784,0.587 -1.696,0.898 -2.636,0.899 z m -64.221,-2.124 c -2.444,0 -4.484,-2.021 -5.577,-3.917 -1.175,-2.036 -1.358,-4.056 -0.503,-5.537 0.855,-1.479 2.237,-2.327 3.793,-2.327 2.947,0 5.575,2.971 6.32,5.72 0.563,2.077 0.019,3.987 -1.424,5.135 -0.532,0.456 -1.222,0.772 -1.825,0.855 -0.254,0.048 -0.517,0.071 -0.782,0.071 z m 1.566,-116.175 c -1.943,0 -3.784,-1.27 -4.479,-3.086 -0.637,-1.665 -0.176,-3.468 1.204,-4.705 2.604,-2.331 5.411,-4.769 8.615,-6.736 1.041,-0.639 2.25,-0.977 3.497,-0.977 2.593,0 4.824,1.44 5.311,3.425 0.126,0.518 0.338,2.03 -0.989,3.386 -0.421,0.506 -1.045,0.83 -1.565,1.103 -3.203,1.689 -6.006,4.104 -8.604,6.433 -0.847,0.755 -1.88,1.155 -2.99,1.157 z m 69.303,-5.848 c -0.438,0 -0.886,-0.076 -1.335,-0.213 l -0.325,-0.047 -0.015,-0.068 c -2.502,-0.931 -4.988,-3.648 -6.108,-5.6 -1.381,-2.409 -1.027,-4.016 -0.488,-4.937 0.813,-1.386 2.188,-2.18 3.774,-2.18 3.52,0 7.422,3.942 8.307,7.209 0.075,0.279 0.131,0.555 0.166,0.824 l -0.449,2.79 c -0.21,0.397 -0.482,0.76 -0.817,1.08 -0.383,0.387 -1.324,1.142 -2.386,1.142 -0.055,0.002 -0.27,0 -0.324,0 z"
         id="path63" />
      <path
         style="fill:none"
         inkscape:connector-curvature="0"
         d="m 449.817,816.206 c -1.295,-0.73 -4.336,-3.327 -7.356,-7.2 -1.188,-1.525 -0.77,-5.324 -0.462,-8.098 0.15,-1.351 0.291,-2.626 0.299,-3.757 0.02,-2.856 -0.032,-5.709 -0.081,-8.562 -0.064,-3.778 -0.134,-7.684 -0.03,-11.51 0.035,-1.316 0.186,-2.989 0.344,-4.76 0.447,-5.032 0.955,-10.736 -0.36,-14.624 -1.059,-3.127 -3.643,-3.763 -5.352,-4.185 -0.51,-0.125 -0.989,-0.242 -1.398,-0.404 -0.237,-0.35 -0.184,-2.192 0.303,-3.523 0.433,-1.174 1.561,-1.503 4.03,-1.977 2.674,-0.511 6.568,-1.201 6.568,-6.578 0,-1.516 0.584,-6.29 -2.461,-8.021 -0.629,-0.387 -2.324,-2.959 -2.064,-5.725 0.396,-4.207 4.546,-6.478 8.25,-6.478 2.343,0 4.376,0.744 5.58,2.042 0.939,1.013 1.354,2.334 1.234,3.93 -0.141,1.833 -1.159,4.425 -2.061,5.231 -2.532,2.271 -1.089,6.279 -0.438,10.719 0.649,4.438 5.571,3.734 7.906,3.889 2.279,0.147 3.265,0.303 3.829,1.234 0.509,0.831 0.458,1.37 0.377,1.705 -0.466,1.907 -3.722,3.882 -5.668,5.062 -0.406,0.247 -0.781,0.475 -1.108,0.684 -3.771,2.413 -3.4,8.563 -3.105,13.503 0.066,1.095 0.128,2.126 0.112,2.802 -0.152,6.01 -0.216,16.954 -0.216,21.479 0,2.159 0.419,4.47 0.789,6.508 0.374,2.066 0.799,4.407 0.497,5.418 -0.764,2.551 -5.882,9.469 -7.958,11.196 z"
         id="path65" />
      <path
         inkscape:connector-curvature="0"
         d="m 507.406,708.509 c -2.858,-3.894 -6.063,-7.471 -9.007,-11.292 -2.622,-3.397 -3.559,-7.629 -5.944,-11.128 -1.851,-2.712 -4.649,-7.243 -8.521,-6.695 -5.139,0.727 -8.626,6.169 -12.7,8.831 -6.104,3.975 -19.108,1.469 -26.222,1.586 -3.729,0.063 -9.858,0.514 -12.553,-2.592 -1.562,-1.801 -6.127,-9.927 -9.136,-9.063 -3.008,0.865 -7.331,4.831 -11.255,6.947 -3.836,2.067 -14.578,11.52 -16.998,14.196 -1.778,1.965 -8.417,7.449 -7.727,11.588 0.69,4.139 4.129,6.909 6.496,9.591 2.765,3.131 2.872,5.521 4.242,9.256 1.757,4.789 0.816,10.256 0.911,15.242 0.115,6.046 0.128,12.005 -0.092,18.053 -0.325,8.976 -1.368,17.951 -1.771,26.957 -0.35,7.822 1.022,16.313 -0.164,24.026 -0.548,3.571 -4.579,5.283 -6.82,7.755 -2.876,3.161 0.217,6.856 2.229,9.216 5.855,6.863 8.498,16.564 15.212,22.685 9.409,8.571 13.554,-1.914 20.99,-6.716 3.607,-2.327 9.37,-1.296 13.37,-1.163 5.896,0.195 11.791,0.511 17.692,0.531 7.978,0.031 9.47,14.987 18.92,10.869 3.973,-1.731 7.355,-5.526 11.298,-7.618 4.67,-2.479 8.117,-5.86 11.654,-9.778 4.109,-4.553 6.327,-6.844 2.577,-12.305 -4.688,-6.825 -6.159,-13.191 -6.402,-21.457 -0.255,-8.631 -0.544,-16.604 0.202,-25.173 1.129,-12.927 0.572,-26.718 0.608,-39.717 0.015,-5.944 -0.999,-12.346 2.817,-17.403 3.148,-4.162 10.32,-9.497 6.094,-15.229 -1.425,-1.941 1.256,1.704 0,0 z m -51.565,-12.28 c 1.382,0.008 4.448,0.735 5.419,2.082 0.978,1.355 -0.369,3.303 -1.978,2.898 -4.62,-1.158 -9.358,0.18 -14.027,-0.289 -0.823,-0.082 -3.619,-0.04 -4.287,-0.865 -0.993,-1.222 -2.884,-4.977 0.491,-4.586 3.376,0.391 9.986,0.744 14.382,0.76 z m 2.274,144.928 c -5.679,0.104 -11.334,-0.677 -17.013,-0.497 -1.594,0.051 -4.577,1.032 -6.063,0.233 -1.34,-0.719 -1.599,-3.06 0.239,-3.344 5.882,-0.914 11.836,-0.364 17.744,-0.138 1.515,0.058 4.943,-0.608 6.229,0.432 1.294,1.048 0.527,3.283 -1.136,3.314 -7.298,0.134 2.365,-0.044 0,0 z m 40.598,-127.678 c -3.182,3.058 -7.226,5.048 -10.454,8.095 -2.032,1.919 -6.916,4.787 -6.774,7.923 0.461,9.542 1.935,19.154 2.469,28.747 0.474,8.374 -0.661,16.864 -0.066,25.271 0.7,9.883 1.359,20.154 0.472,30.023 -0.628,6.919 10.177,9.933 10.783,16.753 0.456,5.099 -12.565,12.996 -16.105,15.246 -4.268,2.706 -5.057,-0.252 -7.405,-3.424 -1.971,-2.661 -5.484,-5.304 -8.021,-7.449 -3.393,-2.87 -5.116,-2.344 -9.804,-2.344 -4.687,0 -15.229,-0.225 -19.021,-0.225 -3.792,0 -10.234,6.683 -12.38,8.415 -2.109,1.697 -5.505,5.504 -8.555,5.071 -3.136,-0.448 -6.557,-6.254 -8.182,-8.647 -4.685,-6.902 -9.958,-12.07 0.419,-17.354 9.084,-4.646 9.363,-13.13 9.171,-22.353 -0.197,-9.453 -0.56,-18.57 -1.204,-28.003 -0.697,-10.195 1.869,-20.347 1.406,-30.432 -0.188,-4.122 -3.206,-5.385 -4.711,-8.954 -1.663,-3.951 -4.929,-7.49 -7.432,-10.934 -1.71,-2.354 -6.099,-6.146 -3.44,-9.233 3.411,-3.963 8.142,-6.556 11.884,-10.152 2.779,-2.669 7.613,-9.146 11.979,-8.322 3.729,0.705 7.266,7.201 9.214,10.067 5,7.377 22.021,6.396 29.655,4.446 2.004,-0.516 5.907,-4.662 7.354,-6.04 2.748,-2.62 6.162,-8.188 10.333,-8.539 4.574,-0.384 20.963,19.896 18.415,22.348 -0.289,0.277 0.972,-0.935 0,0 z m -11.551,67.726 c -0.365,-7.619 0.751,-15.482 0.613,-22.656 -0.139,-7.172 0.133,-8.983 -0.414,-12.829 -0.698,-4.903 3.438,-4.871 4.658,-0.437 1.509,5.553 1.55,11.305 1.55,16.716 0.011,8.232 -1.172,14.14 -1.035,22.623 0.138,8.484 0.149,15.465 0.32,18.103 0.126,1.971 2.926,14.944 -2.269,12.521 -2.21,-1.031 -2.377,-8.869 -2.535,-13.863 -0.156,-4.993 -0.522,-12.559 -0.888,-20.178 z m 3.028,-49.97 c 2.306,0.28 2.688,3.933 1.103,5.104 -1.586,1.173 -4.385,-0.168 -4.604,-2.05 -0.223,-1.881 1.196,-3.336 3.501,-3.054 z m -84.375,35.126 c -0.361,-3.531 0.356,-7.192 0.402,-10.733 0.999,-3.962 -0.074,-8.555 0.069,-12.614 0.048,-1.374 -0.456,-8.288 2.773,-6.826 2.387,1.079 2.781,5.279 2.612,7.468 -0.521,6.756 -0.359,13.523 -0.263,20.293 0.123,0 -0.58,20.539 -1.248,22.579 -0.591,1.816 0.599,2.923 0.495,7.89 -0.104,4.966 -0.619,8.113 -0.41,10.16 0.122,1.196 -2.384,7.635 -4.866,5.876 -2.482,-1.759 -1.132,-16.127 -1.515,-21.313 -0.38,-5.188 2.713,-15.269 1.951,-22.78 -0.08,-0.789 0.245,2.407 0,0 z"
         id="path67" />
      <path
         inkscape:connector-curvature="0"
         d="m 468.135,746.612 c -2.507,-4.119 -8.717,-0.659 -11.425,-4.62 -1.949,-2.853 -1.82,-6.861 -0.319,-8.206 1.5,-1.345 2.678,-4.599 2.846,-6.829 0.412,-5.466 -3.947,-8.534 -9.19,-8.534 -5.242,0 -10.13,3.39 -10.623,8.638 -0.339,3.617 1.767,7.169 3.26,8.02 1.493,0.851 1.836,3.414 1.834,5.788 0,6.429 -9.024,2.444 -11.032,7.897 -0.619,1.692 -1.23,5.664 1.064,6.563 2.103,0.824 4.493,0.563 5.362,3.133 1.604,4.738 0.029,13.59 -0.106,18.554 -0.183,6.72 0.153,13.407 0.11,20.119 -0.024,3.717 -1.783,10.196 0.667,13.336 3.369,4.322 7.74,8.295 9.464,8.295 1.725,0 8.963,-9.562 10.014,-13.073 0.826,-2.771 -1.186,-8.164 -1.186,-12.607 0,-4.444 0.063,-15.447 0.214,-21.417 0.087,-3.443 -1.45,-12.216 1.894,-14.355 2.994,-1.916 10.311,-5.522 7.152,-10.702 -0.425,-0.698 0.439,0.721 0,0 z m -15.4,-22.136 c 1.899,2.14 2.137,4.976 -1.424,7.231 -5.356,3.399 -8.37,-5.369 -5.337,-7.368 3.037,-2 4.86,-2.002 6.761,0.137 z m -2.069,18.967 c -1.134,0.009 -2.604,0.712 -2.889,-1.052 -0.157,-0.97 -0.354,-6.123 0.473,-6.397 0.828,-0.274 2.967,-0.69 3.726,0.139 0.757,0.83 0.933,7.295 -1.31,7.31 z m 4.808,44.422 c -0.294,6.199 -0.05,16.001 -0.395,18.622 -0.345,2.62 -3.723,7.09 -5.034,7.09 -1.311,0 -6.554,-4.468 -6.761,-7.572 -0.207,-3.104 0.509,-15.057 0.575,-18.806 0.052,-2.883 0,-18.103 0.518,-24.413 0.519,-6.312 3.043,-6.386 3.174,2.155 0.085,5.578 -0.755,11.098 -0.626,16.709 0.104,4.419 0.575,8.714 0.464,13.127 -0.121,4.771 1.505,8.753 2.528,8.921 1.023,0.168 1.803,-5.791 1.869,-10.421 0.111,-7.57 0.22,-19.024 0.58,-26.591 0.091,-1.895 -0.433,-7.443 1.26,-8.733 3.524,-2.687 1.915,5.388 1.833,6.238 -0.767,7.829 0.466,14.237 0.015,23.674 z m 7.054,-36.144 c -4.951,0.231 -9.761,-0.37 -14.703,0.344 -2.531,0.363 -6.596,0.013 -9.161,-0.229 -1.803,-0.169 -1.112,-2.412 0.681,-2.962 1.793,-0.55 10.437,-0.331 15.244,-0.233 2.646,0.057 5.293,0.167 7.939,0.045 1.978,-0.093 1.872,2.948 0,3.035 -4.02,0.187 1.951,-0.091 0,0 z"
         id="path69" />
      <path
         inkscape:connector-curvature="0"
         d="m 432.16,707.061 c -3.32,-6.755 -6.758,-6.603 -9.913,-5.09 -3.155,1.515 -9.619,8.149 -13.109,9.537 -3.104,1.225 -3.286,3.962 -1.764,6.754 1.496,2.742 3.31,5.693 6.539,6.487 2.59,0.228 4.987,-3.678 6.916,-5.054 3.593,-2.56 14.404,-6.386 11.331,-12.634 -0.905,-1.842 0.88,1.787 0,0 z m -6.607,3.636 c -3.414,1.774 -6.366,4.281 -9.214,6.835 -1.994,1.785 -5.196,-1.188 -3.082,-3.081 2.609,-2.336 5.277,-4.643 8.271,-6.479 3.081,-1.89 7.45,0.947 4.025,2.725 -3.419,1.778 2.495,-1.295 0,0 z"
         id="path71" />
      <path
         inkscape:connector-curvature="0"
         d="m 489.746,827.406 c -2.55,-4.313 -3.896,-6.216 -8.738,-3.767 -3.333,1.688 -11.672,5.679 -11.334,10.23 0.148,1.994 2.637,4.326 3.759,5.894 2.058,2.873 3.818,1.42 6.075,0.22 4.595,-2.446 13.951,-6.253 10.238,-12.577 -0.199,-0.337 0.745,1.269 0,0 z m -4.045,4.137 c -2.491,1.147 -4.713,2.777 -6.898,4.415 -2.253,1.69 -5.105,-2.116 -2.892,-3.776 2.184,-1.64 5.099,-3.251 7.592,-4.397 2.59,-1.199 4.687,2.611 2.198,3.758 -2.501,1.152 1.078,-0.496 0,0 z"
         id="path73" />
      <path
         inkscape:connector-curvature="0"
         d="m 490.074,708.092 c -2.119,-3.589 -4.968,-8.928 -8.759,-11.052 -2.444,-1.371 -10.406,5.833 -8.548,8.669 2.649,4.041 4.854,9.652 9.597,11.738 4.884,2.145 10.296,-4.979 7.71,-9.355 -1.204,-2.041 0.824,1.394 0,0 z m -5.201,3.986 c -2.1,1.229 -8.019,-5.11 -6.843,-7.118 2.304,-3.933 10.723,4.85 6.843,7.118 -0.984,0.577 1.063,-0.621 0,0 z"
         id="path75" />
      <path
         inkscape:connector-curvature="0"
         d="m 419.735,831.58 c -2.394,-3.027 -3.639,-9.763 -8.227,-9.354 -3.027,0.271 -10.33,3.398 -6.608,7.399 3.313,3.552 3.997,8.066 8.457,10.866 1.947,1.222 8.63,-6.065 6.378,-8.911 -0.731,-0.925 1.017,1.285 0,0 z m -5.493,2.446 c -2.338,1.368 -6.025,-3.67 -4.883,-5.647 2.309,-3.996 8.237,3.684 4.883,5.647 -1.062,0.622 0.986,-0.577 0,0 z"
         id="path77" />
    </g>
  </g>
</svg>
