<?xml version="1.0" encoding="UTF-8" standalone="no"?>
<!-- Created with Inkscape (http://www.inkscape.org/) -->

<svg
   xmlns:dc="http://purl.org/dc/elements/1.1/"
   xmlns:cc="http://creativecommons.org/ns#"
   xmlns:rdf="http://www.w3.org/1999/02/22-rdf-syntax-ns#"
   xmlns:svg="http://www.w3.org/2000/svg"
   xmlns="http://www.w3.org/2000/svg"
   xmlns:sodipodi="http://sodipodi.sourceforge.net/DTD/sodipodi-0.dtd"
   xmlns:inkscape="http://www.inkscape.org/namespaces/inkscape"
   width="21.106052mm"
   height="10.844481mm"
   viewBox="0 0 21.106052 10.844481"
   version="1.1"
   id="svg1179"
   inkscape:version="0.92.3 (2405546, 2018-03-11)"
   sodipodi:docname="weaponrack1.svg">
  <defs
     id="defs1173" />
  <sodipodi:namedview
     id="base"
     pagecolor="#ffffff"
     bordercolor="#666666"
     borderopacity="1.0"
     inkscape:pageopacity="0.0"
     inkscape:pageshadow="2"
     inkscape:zoom="3.959798"
     inkscape:cx="17.830994"
     inkscape:cy="44.241459"
     inkscape:document-units="mm"
     inkscape:current-layer="layer1"
     showgrid="false"
     inkscape:window-width="1366"
     inkscape:window-height="703"
     inkscape:window-x="0"
     inkscape:window-y="0"
     inkscape:window-maximized="1" />
  <metadata
     id="metadata1176">
    <rdf:RDF>
      <cc:Work
         rdf:about="">
        <dc:format>image/svg+xml</dc:format>
        <dc:type
           rdf:resource="http://purl.org/dc/dcmitype/StillImage" />
        <dc:title></dc:title>
      </cc:Work>
    </rdf:RDF>
  </metadata>
  <g
     inkscape:label="Layer 1"
     inkscape:groupmode="layer"
     id="layer1"
     transform="translate(41.54707,-122.24443)">
    <g
       transform="matrix(0.26458333,0,0,0.26458333,-149.575,43.061179)"
       id="WeaponRack-Empty">
      <path
         d="m 412.646,338.603 c -0.455,0.016 -0.854,-1.037 -1.045,-2.087 -0.216,-1.176 -0.19,-2.661 -0.148,-5.12 0.019,-1.09 0.041,-2.372 0.047,-3.909 l 0.029,-8.759 c 0.01,-2.574 -0.209,-4.914 -1.314,-9.699 -0.375,-1.625 -0.347,-2.822 0.079,-3.371 0.396,-0.511 1.353,-0.648 2.085,-0.674 0.361,-0.013 0.764,-10e-4 1.197,0.033 0.534,0.042 1.635,0.081 2.896,0.122 1.632,0.055 3.483,0.116 4.704,0.211 0.355,0.027 0.571,0.401 1.007,1.742 0.22,0.672 0.445,1.368 0.835,1.967 1.252,1.917 3.509,0.909 9.658,1.106 l 1.766,0.057 c 1.799,0.062 3.774,0.154 5.862,0.252 5.861,0.276 12.504,0.587 18.681,0.374 1.06,-0.036 2.233,-0.07 3.426,-0.104 1.271,-0.036 2.566,-0.074 3.77,-0.116 3.193,-0.111 4.803,-0.227 5.556,-0.4 2.461,-0.565 2.583,-4.075 2.604,-5.438 0.005,-0.293 0.009,-0.592 0.028,-0.887 0.055,-0.873 1.202,-1.662 3.065,-2.113 l 0.163,-0.039 c 1.563,-0.378 3.175,-0.768 4.564,-0.816 0.692,-0.024 1.28,0.042 1.747,0.194 1.699,0.56 2.109,2.257 2.436,6.099 0.19,2.243 -0.103,7.764 -0.257,11.086 -0.048,1.029 -0.091,1.951 -0.117,2.671 -0.053,1.537 -0.125,2.571 -0.191,3.536 -0.067,0.983 -0.132,1.898 -0.167,3.172 -0.032,1.096 -0.028,2.118 -0.026,3.001 0.003,1.002 0.006,1.949 -0.054,2.337 -0.096,0.62 -0.313,1.09 -2.237,1.504 -0.565,0.122 -1.244,0.293 -1.955,0.474 -1.33,0.337 -2.983,0.758 -3.809,0.787 v 0 c -0.062,0.002 -0.115,0.004 -0.162,-0.002 -0.328,-0.144 -1.153,-1.344 -1.473,-2.62 -0.893,-3.55 -2.51,-4.544 -3.708,-4.753 -0.292,-0.05 -0.584,-0.064 -0.868,-0.07 -0.05,-10e-4 -0.098,0 -0.145,-0.002 -0.027,-0.082 -0.063,-0.205 -0.099,-0.383 -0.331,-1.676 -0.388,-2.102 -0.602,-3.687 l -0.148,-1.104 c -0.528,-3.86 -2.707,-4.364 -3.958,-4.32 -0.302,0.01 -0.618,0.056 -0.938,0.135 -2.032,0.503 -4.424,2.224 -4.473,5.416 l -0.009,0.976 c -0.004,1.207 -0.01,2.349 -0.289,2.79 -0.079,0.022 -0.246,0.057 -0.552,0.068 -0.469,0.016 -1.029,-0.03 -1.573,-0.075 -0.568,-0.046 -1.105,-0.09 -1.601,-0.073 -1.613,0.056 -2.828,0.439 -3.901,0.777 -0.975,0.307 -1.813,0.572 -2.926,0.611 -1.335,0.046 -2.18,-0.03 -2.994,-0.104 -0.729,-0.066 -1.482,-0.135 -2.468,-0.1 -2.355,0.095 -3.913,1.669 -5.165,2.935 -0.841,0.849 -1.635,1.651 -2.279,1.674 -1.788,0.017 -3.256,-2.236 -4.227,-3.726 l -0.16,-0.246 c -1.208,-1.845 -4.473,-2.417 -6.371,-2.35 -3.222,0.113 -3.839,1.822 -3.954,2.551 -0.125,0.791 -0.067,1.789 10e-4,2.944 0.078,1.334 0.224,3.817 -0.297,4.477 -0.64,0.623 -4.238,0.758 -5.969,0.824 -1.293,0.048 -2.515,0.095 -3.49,0.234 z"
         id="path106"
         inkscape:connector-curvature="0"
         style="fill:#6e533b" />
      <polygon
         points="441.446,329.631 461.14,328.082 460.852,320.568 441.829,321.424 439.002,324.686 431.288,315.228 426.208,318.711 435.983,334.135 "
         id="polygon108"
         style="fill:#e3e3ea" />
      <path
         d="m 487.994,307.033 c -0.313,-3.695 -0.718,-6.555 -3.521,-7.477 -2.07,-0.681 -4.843,0.015 -7.375,0.626 -2.729,0.66 -4.277,2 -4.385,3.675 -0.105,1.675 -0.049,4.137 -1.464,4.462 -1.415,0.325 -7.768,0.719 -12.267,0.874 -8.319,0.288 -16.691,-0.083 -23.483,-0.313 -6.792,-0.23 -10.203,0.592 -11.086,-0.759 -0.883,-1.351 -0.848,-4.251 -3.055,-4.421 -2.207,-0.17 -6.387,-0.237 -7.597,-0.333 -4.62,-0.366 -6.196,1.608 -5.163,6.09 0.777,3.366 1.284,6.306 1.272,9.324 -0.012,3.018 -0.008,3.574 -0.029,8.759 -0.021,5.186 -0.218,7.437 0.129,9.331 0.348,1.894 1.146,3.622 2.939,3.366 2.978,-0.425 9.164,0.075 10.564,-1.699 1.402,-1.773 0.359,-6.409 0.647,-8.216 0.288,-1.807 6.139,-1.23 7.295,0.536 1.156,1.766 2.947,4.713 5.714,4.688 2.768,-0.024 4.302,-4.482 7.439,-4.608 1.971,-0.079 2.839,0.296 5.535,0.202 2.695,-0.094 4.071,-1.292 6.827,-1.389 1.417,-0.049 3.988,0.585 4.888,-0.422 0.9,-1.007 0.755,-2.662 0.791,-4.951 0.036,-2.29 1.724,-3.42 3.162,-3.776 1.438,-0.356 2.563,0.317 2.91,2.857 0.348,2.539 0.358,2.814 0.767,4.885 0.408,2.07 1.402,1.54 2.396,1.713 0.994,0.173 1.888,1.378 2.439,3.578 0.396,1.573 1.55,3.579 2.737,3.795 1.187,0.216 4.583,-0.844 6.562,-1.271 1.666,-0.358 3.275,-0.946 3.581,-2.927 0.139,-0.906 0.027,-3.028 0.099,-5.546 0.072,-2.518 0.251,-3.603 0.359,-6.696 0.112,-3.097 0.632,-10.9 0.373,-13.957 z m -68.005,5.599 c -0.076,6.94 -0.49,12.795 -0.656,19.737 -0.069,2.955 -0.759,3.757 -2.852,3.685 -2.121,-0.075 -2.791,-0.826 -2.855,-3.678 -0.088,-3.876 0.184,-7.785 -0.106,-11.636 -0.363,-4.813 -2.361,-11.383 -1.181,-13.131 1.183,-1.749 7.008,-1.107 7.583,0.167 0.575,1.274 0.086,3.084 0.067,4.856 z m 8.232,7.123 c -0.56,-1.217 1.731,-2.596 2.588,-2.499 0.856,0.098 2.049,0.899 1.762,1.712 -0.288,0.813 -1.979,1.64 -2.659,1.949 -0.683,0.311 -1.131,0.055 -1.691,-1.162 z m 4.967,6.985 c -1.25,0.158 -2.611,-1.393 -2.631,-2.179 -0.02,-0.752 1.832,-3.256 3.81,-3.181 1.977,0.074 2.014,2.007 1.967,2.87 -0.047,0.863 -1.896,2.332 -3.146,2.49 z m 5.858,2.253 c -0.288,0.813 -1.339,1.717 -2.021,2.026 -0.683,0.309 -1.678,-0.224 -2.237,-1.44 -0.562,-1.217 2.206,-2.456 3.063,-2.358 0.857,0.097 1.482,0.959 1.195,1.772 z m 6.058,-2.706 c -0.526,0.705 -1.604,0.862 -2.164,0.24 -0.563,-0.62 -0.813,-1.952 -0.731,-2.688 0.08,-0.739 1.059,-1.368 2.411,-1.307 1.354,0.063 1.01,3.049 0.484,3.755 z m 7.285,0.24 c -1.509,0.987 -3.242,0.929 -3.759,-0.059 -0.517,-0.989 -1.267,-2.332 0.357,-3.918 1.624,-1.587 3.48,-1.659 4.587,-0.053 1.107,1.605 0.324,3.043 -1.185,4.03 z m 6.882,-1.064 c -0.528,0.706 -1.978,0.47 -2.541,-0.151 -0.563,-0.622 -0.413,-2.477 -0.334,-3.215 0.081,-0.737 0.535,-1.014 1.888,-0.952 1.354,0.063 1.512,3.612 0.987,4.318 z m 13.78,-0.817 c -0.919,0.918 -1.443,-0.919 -1.947,-3.189 -0.503,-2.27 -1.697,-4.135 -4.494,-4.302 -2.043,-0.121 -3.732,0.706 -5.034,2.441 -0.032,-0.049 -0.059,-0.1 -0.093,-0.148 -0.418,-0.578 -1.259,-1.056 -1.978,-1.158 -1.586,-0.225 -3.063,-0.059 -5.458,-0.072 -2.396,-0.013 -12.545,1.128 -12.545,1.128 -2.143,0.211 -1.97,4.055 -3.051,2.317 -1.081,-1.738 -2.199,-3.892 -4.1,-6.029 -2.587,-2.911 -7.43,-1.78 -9.188,1.918 -0.316,0.663 -0.352,1.646 -0.115,2.327 0.523,1.504 1.59,3.488 1.662,4.42 0.072,0.932 -3.558,1.167 -3.622,0.019 -0.063,-1.147 0.288,-5.388 0.291,-8.815 0,-2.138 1.281,-2.946 3.183,-2.859 4.264,0.198 10.355,-0.543 14.588,-0.087 5.631,0.606 9.127,0.85 14.849,0.523 4.865,-0.277 10.063,-0.509 14.938,-0.439 1.97,0.028 2.641,1.554 2.618,3.578 -0.035,3.051 0.414,7.509 -0.504,8.427 z m 10.699,-3.326 c -0.125,3.942 -0.162,4.712 0.063,7.748 0.207,2.793 -1.546,3.562 -3.619,3.844 -1.915,0.26 -2.301,-0.811 -2.444,-3.573 -0.223,-4.284 -0.298,-8.579 -0.48,-12.866 -0.077,-1.83 -0.184,-3.667 -0.431,-5.474 -0.369,-2.688 -0.28,-5.351 0.771,-6.119 0.732,-0.536 2.43,-0.464 4.151,-0.954 1.722,-0.49 1.254,6.022 1.501,8.49 0.24,2.4 0.613,4.962 0.488,8.904 z"
         id="path110"
         inkscape:connector-curvature="0" />
    </g>
  </g>
</svg>
