<?xml version="1.0" encoding="UTF-8" standalone="no"?>
<!-- Created with Inkscape (http://www.inkscape.org/) -->

<svg
   xmlns:dc="http://purl.org/dc/elements/1.1/"
   xmlns:cc="http://creativecommons.org/ns#"
   xmlns:rdf="http://www.w3.org/1999/02/22-rdf-syntax-ns#"
   xmlns:svg="http://www.w3.org/2000/svg"
   xmlns="http://www.w3.org/2000/svg"
   xmlns:sodipodi="http://sodipodi.sourceforge.net/DTD/sodipodi-0.dtd"
   xmlns:inkscape="http://www.inkscape.org/namespaces/inkscape"
   width="30mm"
   height="10mm"
   viewBox="0 0 30 10"
   version="1.1"
   id="svg6085"
   inkscape:version="0.92.3 (2405546, 2018-03-11)"
   sodipodi:docname="weaponrack2.svg">
  <defs
     id="defs6079" />
  <sodipodi:namedview
     id="base"
     pagecolor="#ffffff"
     bordercolor="#666666"
     borderopacity="1.0"
     inkscape:pageopacity="0.0"
     inkscape:pageshadow="2"
     inkscape:zoom="5.6"
     inkscape:cx="36.94167"
     inkscape:cy="12.933222"
     inkscape:document-units="mm"
     inkscape:current-layer="layer1"
     showgrid="false"
     inkscape:window-width="1366"
     inkscape:window-height="703"
     inkscape:window-x="0"
     inkscape:window-y="0"
     inkscape:window-maximized="1" />
  <metadata
     id="metadata6082">
    <rdf:RDF>
      <cc:Work
         rdf:about="">
        <dc:format>image/svg+xml</dc:format>
        <dc:type
           rdf:resource="http://purl.org/dc/dcmitype/StillImage" />
        <dc:title></dc:title>
      </cc:Work>
    </rdf:RDF>
  </metadata>
  <g
     inkscape:label="Layer 1"
     inkscape:groupmode="layer"
     id="layer1"
     transform="translate(-189.3742,-117.40668)">
    <g
       transform="matrix(0.24033114,0,0,0.24033114,96.750045,76.184615)"
       id="WeaponRack">
      <path
         d="m 419.627,209.362 c -0.455,0 -0.853,-1.067 -1.044,-2.124 -0.097,-0.529 -0.135,-1.188 -0.175,-1.885 -0.117,-1.993 -0.237,-4.055 -1.836,-5.009 -0.471,-0.279 -1.021,-0.421 -1.635,-0.421 -1.7,0 -3.72,1.111 -5.5,2.091 l -0.37,0.204 c -0.769,0.42 -1.679,0.703 -2.265,0.703 -0.18,0 -0.263,-0.027 -0.276,-0.032 -3.32,-1.24 -6.718,-2.694 -9.446,-3.863 -1.77,-0.757 -3.297,-1.412 -4.328,-1.801 -1.199,-0.454 -2.555,-1.008 -3.535,-1.624 1.071,-0.313 2.52,-0.629 3.452,-0.832 0.971,-0.212 1.889,-0.413 2.56,-0.606 0.691,-0.201 1.444,-0.315 2.239,-0.437 0.83,-0.126 1.688,-0.257 2.554,-0.498 2.019,-0.563 3.826,-1.029 5.495,-1.029 1.921,0 3.5,0.64 4.967,2.013 1.069,1.001 2.878,1.151 3.861,1.151 0.628,0 1.796,-0.062 2.563,-0.474 1.541,-0.831 1.571,-3.045 1.601,-5.188 l 0.003,-0.233 c 0.059,-3.641 -0.713,-6.994 -1.46,-10.237 l -0.144,-0.625 c -0.375,-1.638 -0.347,-2.834 0.079,-3.368 0.396,-0.497 1.353,-0.603 2.085,-0.603 0.361,0 0.764,0.025 1.196,0.075 0.535,0.061 1.636,0.138 2.896,0.224 1.632,0.111 3.482,0.238 4.703,0.375 0.354,0.04 0.572,0.421 1.008,1.777 0.219,0.68 0.444,1.384 0.835,1.997 1.252,1.96 3.798,2.13 9.948,2.541 l 1.764,0.119 c 1.799,0.125 3.776,0.286 5.864,0.457 5.86,0.48 12.504,1.024 18.68,1.026 1.061,0.001 2.233,0.008 3.426,0.016 1.272,0.008 2.567,0.016 3.771,0.016 3.193,0 4.802,-0.06 5.555,-0.206 2.46,-0.479 2.502,-3.017 2.524,-4.38 0.004,-0.292 0.009,-0.591 0.027,-0.886 0.056,-0.871 1.202,-1.62 3.066,-2.005 l 0.163,-0.034 c 1.561,-0.323 3.175,-0.657 4.564,-0.657 0.702,0 1.274,0.084 1.747,0.256 1.699,0.619 2.11,2.33 2.437,6.183 0.104,1.235 0.101,3.262 0.098,5.409 -0.01,7.356 0.131,9.315 1.457,10.154 0.557,0.353 1.333,0.543 3.842,0.543 1.119,0 2.407,-0.038 3.634,-0.075 1.082,-0.032 2.113,-0.063 2.927,-0.063 0.879,0 1.122,0.039 1.162,0.046 0.896,0.276 1.332,0.409 1.358,2.306 l 0.009,0.531 c 0.019,1.1 0.046,2.762 -0.226,3.037 -0.017,0.014 -0.113,0.059 -0.326,0.083 -0.578,0.065 -1.558,0.098 -2.909,0.098 -1.462,0 -3.092,-0.038 -4.428,-0.069 -0.953,-0.022 -1.761,-0.041 -2.265,-0.041 0,0 -0.147,0 -0.148,0 -0.254,0 -0.474,-0.014 -0.688,-0.026 -0.271,-0.016 -0.536,-0.03 -0.789,-0.03 -2.604,0 -3.272,1.821 -3.44,2.906 -0.095,0.616 -0.312,1.078 -2.236,1.425 -0.566,0.102 -1.245,0.25 -1.956,0.405 -1.33,0.291 -2.985,0.653 -3.809,0.653 -0.061,0 -0.114,0 -0.162,-0.008 -0.327,-0.155 -1.152,-1.384 -1.474,-2.671 -1.03,-4.137 -4.407,-4.329 -6.029,-4.421 -0.245,-0.014 -0.473,-0.02 -0.69,-0.02 -0.835,0 -1.491,0.092 -2.185,0.189 -0.315,0.044 -0.65,0.092 -1.036,0.133 -0.271,0.03 -0.536,0.043 -0.796,0.043 -1.444,0 -2.806,-0.425 -4.123,-0.836 -1.313,-0.41 -2.672,-0.834 -4.102,-0.834 -1.614,0 -2.829,0.341 -3.901,0.641 -0.974,0.273 -1.813,0.509 -2.927,0.509 -1.335,0 -2.179,-0.106 -2.994,-0.209 -0.729,-0.091 -1.481,-0.187 -2.469,-0.187 -2.355,0.013 -3.913,1.533 -5.165,2.755 -0.84,0.82 -1.634,1.594 -2.279,1.594 -1.788,-0.046 -3.256,-2.349 -4.226,-3.874 l -0.161,-0.251 c -1.208,-1.887 -4.472,-2.572 -6.371,-2.572 -3.221,0 -3.838,1.688 -3.954,2.413 -0.126,0.786 -0.066,1.786 0.001,2.944 0.078,1.337 0.225,3.825 -0.297,4.467 -0.639,0.601 -4.239,0.61 -5.968,0.616 -1.292,0.003 -2.514,0.007 -3.49,0.112 z"
         id="path97"
         inkscape:connector-curvature="0"
         style="fill:#6e533b" />
      <polygon
         points="433.476,189.896 443.155,205.709 448.479,201.013 438.747,186.926 "
         id="polygon99"
         style="fill:#e3e3ea" />
      <polygon
         points="410.907,195.551 411.698,200.654 406.802,202.921 390.639,195.551 405.732,192.532 "
         id="polygon101"
         style="fill:#e3e3ea" />
      <path
         d="m 415.723,201.768 c -1.231,-0.734 -3.915,0.837 -5.861,1.903 -1.135,0.621 -2.837,1.171 -3.915,0.769 -5.533,-2.066 -11.245,-4.708 -13.781,-5.666 -2.536,-0.959 -4.59,-1.93 -5.479,-3.259 -0.889,-1.329 5.648,-2.238 8.079,-2.943 1.563,-0.453 3.24,-0.503 4.81,-0.94 4.208,-1.173 8.245,-2.182 12.039,1.37 0.954,0.893 3.783,0.817 4.505,0.428 0.722,-0.389 0.712,-2.527 0.734,-3.988 0.059,-3.666 -0.784,-7.073 -1.563,-10.466 -1.034,-4.518 0.542,-6.438 5.163,-5.91 1.211,0.138 5.39,0.351 7.597,0.598 2.207,0.248 2.172,3.146 3.056,4.528 0.882,1.382 3.637,1.432 10.43,1.899 6.792,0.467 16.109,1.476 24.43,1.479 4.499,0.002 11.02,0.132 12.434,-0.144 1.416,-0.276 1.11,-2.074 1.217,-3.746 0.106,-1.671 1.654,-2.958 4.384,-3.522 2.533,-0.523 5.304,-1.122 7.375,-0.369 2.802,1.02 3.207,3.894 3.52,7.6 0.313,3.707 -0.288,13.621 0.791,14.303 1.079,0.682 9.889,-0.12 11.104,0.251 1.216,0.371 2.545,0.831 2.587,3.881 0.043,3.051 0.216,5.067 -2.012,5.319 -2.229,0.252 -8.278,-0.014 -9.919,0 -1.479,0.011 -2.994,-0.517 -3.297,1.446 -0.306,1.97 -1.916,2.502 -3.58,2.802 -1.979,0.357 -5.375,1.299 -6.563,1.042 -1.187,-0.258 -2.341,-2.304 -2.737,-3.891 -0.663,-2.663 -2.4,-3.048 -4.517,-3.168 -1.429,-0.082 -2.217,0.141 -3.636,0.296 -3.673,0.402 -6.444,-1.617 -9.2,-1.617 -2.756,0 -4.133,1.15 -6.828,1.15 -2.695,0 -3.563,-0.405 -5.534,-0.395 -3.137,0.017 -4.672,4.42 -7.438,4.348 -2.768,-0.072 -4.559,-3.081 -5.714,-4.887 -1.157,-1.807 -7.009,-2.587 -7.296,-0.791 -0.287,1.797 0.755,6.469 -0.646,8.193 -1.402,1.725 -7.587,1.009 -10.566,1.33 -1.793,0.193 -2.592,-1.563 -2.938,-3.469 -0.37,-1.998 -0.003,-5.031 -1.235,-5.764 z m 49.287,-3.298 c 1.241,-0.332 1.606,-2.575 2.213,-4.052 1.375,-3.339 3.537,-4.885 6.366,-4.619 2.796,0.264 3.991,2.172 4.494,4.459 0.503,2.287 1.029,4.143 1.947,3.257 0.919,-0.886 0.47,-5.36 0.505,-8.408 0.021,-2.023 -0.968,-3.004 -2.938,-3.101 -4.874,-0.24 -9.754,-0.758 -14.618,-0.651 -5.723,0.126 -11.321,-0.531 -16.952,-1.334 -4.231,-0.604 -8.511,-0.882 -12.774,-1.229 -1.9,-0.154 -3.182,0.61 -3.182,2.748 -0.003,3.427 -0.065,8.753 -0.001,9.903 0.063,1.15 3.693,1.042 3.622,0.108 -0.072,-0.935 -1.14,-2.957 -1.662,-4.479 -0.236,-0.69 -0.201,-1.671 0.113,-2.323 1.76,-3.637 6.603,-4.598 9.189,-1.597 1.965,2.28 3.322,5.081 4.971,7.634 0.838,1.298 2.016,3.64 2.842,3.567 0.826,-0.072 1.462,-3.052 2.169,-4.494 1.229,-2.497 5.385,-4.289 8.457,-3.621 2.899,0.63 3.635,2.935 3.924,5.525 0.119,1.07 0.075,3.039 1.315,2.707 z m -45.981,-21.212 c -1.183,1.708 1.106,9.447 1.471,14.271 0.29,3.861 0.018,7.76 0.105,11.64 0.064,2.854 0.733,3.629 2.855,3.778 2.092,0.146 2.782,-0.632 2.852,-3.585 0.166,-6.936 0.291,-13.874 0.366,-20.812 0.02,-1.771 0.507,-3.566 -0.066,-4.86 -0.575,-1.294 -6.401,-2.139 -7.583,-0.432 z m 69.63,0.808 c -1.722,0.43 -3.418,0.299 -4.152,0.809 -1.05,0.731 -1.059,2.424 -0.688,5.124 0.247,1.816 0.353,3.657 0.431,5.489 0.182,4.293 0.257,8.591 0.479,12.883 0.144,2.767 0.528,3.852 2.443,3.659 2.074,-0.21 3.083,-1.165 2.876,-3.964 -0.225,-3.043 -0.303,-5.389 0.281,-8.312 0.498,-2.482 0.153,-5.704 -0.087,-8.113 -0.247,-2.476 0.139,-8.005 -1.583,-7.575 z m 6.27,22.552 c 0.124,1.272 2.082,0.74 5.533,0.658 2.129,-0.051 2.874,0.582 3.552,0.483 0.42,-0.062 2.435,-0.831 1.732,-1.752 -0.703,-0.921 -2.009,-1.127 -6.182,-0.935 -4.171,0.194 -4.758,0.274 -4.635,1.546 z m -87.653,0.232 c 1.547,-0.088 4.226,-1.839 2.95,-2.068 -1.275,-0.229 -1.08,-0.5 -2.267,-1.075 -1.186,-0.575 1.202,-1.676 0.251,-2.516 -0.95,-0.84 -2.251,-1.169 -3.307,-1.175 -2.662,-0.017 -8.157,1.391 -8.553,2.361 -0.395,0.971 2.881,1.805 5.483,2.52 2.605,0.715 3.897,2.042 5.443,1.953 z m 65.48,-7.635 c -1.438,0.306 -3.234,2.408 -3.163,3.666 0.071,1.258 0.936,3.019 3.02,3.163 2.084,0.144 2.875,-1.438 2.875,-2.803 -10e-4,-1.365 -1.294,-4.332 -2.732,-4.026 z m -56.717,4.603 c 0.202,-1.106 -0.172,-1.621 -1.645,-1.513 -1.475,0.108 -2.343,1.647 -1.204,1.934 1.137,0.286 2.646,0.686 2.849,-0.421 z m 27.274,-1.981 c 0.047,-0.861 0.01,-2.795 -1.968,-2.939 -1.977,-0.144 -3.828,2.294 -3.808,3.048 0.019,0.787 1.381,2.385 2.631,2.271 1.25,-0.115 3.099,-1.519 3.145,-2.38 z m 15.75,2.804 c 1.511,-0.934 2.293,-2.345 1.187,-3.989 -1.106,-1.645 -3.767,-1.603 -5.391,-0.072 -1.624,1.531 -0.969,2.645 -0.108,3.558 0.861,0.913 2.803,1.438 4.312,0.503 z m -19.513,-8.217 c 0.287,-0.803 -0.903,-1.646 -1.761,-1.773 -0.858,-0.127 -3.148,1.171 -2.587,2.408 0.561,1.236 1.007,1.507 1.688,1.222 0.683,-0.285 2.372,-1.054 2.66,-1.857 z m 6.476,10.25 c 0.286,-0.803 -0.339,-1.687 -1.195,-1.814 -0.856,-0.127 -3.623,1.015 -3.063,2.251 0.562,1.236 1.557,1.804 2.237,1.519 0.683,-0.286 1.734,-1.152 2.021,-1.956 z"
         id="path103"
         inkscape:connector-curvature="0" />
    </g>
  </g>
</svg>
