<?xml version="1.0" encoding="UTF-8" standalone="no"?>
<!-- Created with Inkscape (http://www.inkscape.org/) -->

<svg
   xmlns:dc="http://purl.org/dc/elements/1.1/"
   xmlns:cc="http://creativecommons.org/ns#"
   xmlns:rdf="http://www.w3.org/1999/02/22-rdf-syntax-ns#"
   xmlns:svg="http://www.w3.org/2000/svg"
   xmlns="http://www.w3.org/2000/svg"
   xmlns:sodipodi="http://sodipodi.sourceforge.net/DTD/sodipodi-0.dtd"
   xmlns:inkscape="http://www.inkscape.org/namespaces/inkscape"
   width="32.271061mm"
   height="32.271061mm"
   viewBox="0 0 32.271061 32.271061"
   version="1.1"
   id="svg9559"
   inkscape:version="0.92.3 (2405546, 2018-03-11)"
   sodipodi:docname="al_door_1way.svg">
  <defs
     id="defs9553" />
  <sodipodi:namedview
     id="base"
     pagecolor="#ffffff"
     bordercolor="#666666"
     borderopacity="1.0"
     inkscape:pageopacity="0.0"
     inkscape:pageshadow="2"
     inkscape:zoom="2.8"
     inkscape:cx="8.8851942"
     inkscape:cy="61.906686"
     inkscape:document-units="mm"
     inkscape:current-layer="layer1"
     showgrid="false"
     inkscape:window-width="1366"
     inkscape:window-height="703"
     inkscape:window-x="0"
     inkscape:window-y="0"
     inkscape:window-maximized="1" />
  <metadata
     id="metadata9556">
    <rdf:RDF>
      <cc:Work
         rdf:about="">
        <dc:format>image/svg+xml</dc:format>
        <dc:type
           rdf:resource="http://purl.org/dc/dcmitype/StillImage" />
        <dc:title></dc:title>
      </cc:Work>
    </rdf:RDF>
  </metadata>
  <g
     inkscape:label="Layer 1"
     inkscape:groupmode="layer"
     id="layer1"
     transform="translate(-84.933943,-97.923992)">
    <g
       transform="matrix(0.26458333,0,0,0.26458333,19.087924,29.392578)"
       id="Door_x2C__One-Way">
      <path
         style="fill:#6e533b"
         inkscape:connector-curvature="0"
         d="m 311.829,352.195 c -1.076,0 -2.035,-0.042 -2.535,-0.063 l -4.203,4.321 c -4.356,-0.168 -11.908,1.273 -13.4,0 -2.731,-2.332 -0.978,-25.238 0.217,-29.636 0.271,-0.999 -0.176,-3.326 -0.503,-5.024 -0.253,-1.322 -0.492,-2.57 -0.551,-3.66 -0.146,-2.65 -0.205,-5.344 -0.264,-7.95 l -0.039,-1.678 c -0.009,-0.384 -1.209,-15.142 1.14,-17.647 1.342,-1.431 12.344,-0.446 14.411,-0.446 0.923,0 1.386,4.585 2.247,4.629 0.481,0.024 0.935,0.047 1.327,0.057 3.123,0.074 9.629,0.23 10.143,5.025 0.327,3.041 -0.042,6.798 -0.397,10.434 -0.296,3.021 -0.576,5.874 -0.458,8.112 0.083,1.6 0.516,12.051 0.416,15.428 -0.026,0.855 0.021,2.202 0.071,3.626 0.229,6.607 0.161,12.036 -1.489,13.3 -0.759,0.578 -2.082,1.172 -6.133,1.172 z"
         id="path187" />
      <path
         inkscape:connector-curvature="0"
         d="m 334.297,260.834 c -1.345,-1.759 -2.691,-2.516 -3.985,-1.016 -1.293,1.5 -0.535,4.59 -0.491,9.383 0.044,4.794 -0.286,9.703 -2.783,11.894 -2.952,2.588 -9.683,2.267 -13.415,2.611 -4.667,0.43 -8.382,1.249 -9.024,6.578 -0.554,4.591 0.676,5.852 2.608,6.576 1.932,0.724 9.059,-1.359 9.842,3.196 0.662,3.851 0.672,7.775 0.343,11.66 -0.298,3.514 0.654,6.992 0.1,10.529 -0.989,6.3 1.347,14.131 -0.921,20.259 -1.036,2.796 -0.792,5.672 -4.362,6.273 -3.195,0.538 -5.897,0.501 -8.173,2.019 -2.276,1.52 -1.936,6.342 -0.676,9.97 0.979,2.819 3.242,4.68 8.209,4.53 3.311,-0.096 9.496,-0.754 12.165,1.717 2.15,1.989 1.801,3.907 0.481,5.237 0.183,0.365 0.33,0.739 0.389,1.125 0.365,2.399 0.464,4.804 0.581,7.209 2.979,-0.185 5.443,-1.001 5.476,-3.25 0.046,-3.688 1.145,-12.908 -1.547,-15.9 -3.014,-3.35 -12.826,-2.364 -16.849,-2.493 -2.899,-0.096 -5.936,-2.164 -1.715,-3.521 2.54,-0.815 6.612,0.171 9.005,-0.688 4.924,-1.766 3.244,-11.112 3.441,-15.031 0.646,-12.79 0.897,-25.98 0.099,-38.767 -0.155,-2.487 -0.147,-5.523 -2.64,-6.944 -1.948,-1.109 -8.874,-0.14 -10.075,-2.406 -2.071,-3.908 14.195,-3.291 16.087,-3.138 6.649,0.513 7.883,-5.782 8.019,-10.622 0.124,-4.445 1.156,-15.231 -0.189,-16.99 z"
         id="path189" />
      <path
         inkscape:connector-curvature="0"
         d="m 296.497,290.435 c -0.2,-5.154 -0.257,-10.305 -0.165,-15.465 0.024,-1.342 0.121,-2.506 0.327,-3.521 -0.107,-3.313 0.095,-7.496 -0.076,-10.13 -0.172,-2.633 -3.738,-1.569 -5.93,-1.199 -5.431,0.913 -2.631,9.121 -3.232,12.708 -1.382,8.467 -0.216,17.537 0.133,26.051 0.34,8.312 -0.551,19.905 -0.551,26.467 0.259,8.948 -0.611,18.94 -0.099,28.291 0.37,6.778 -0.172,13.49 -0.18,20.266 -0.007,5.907 3.991,7.383 8.776,7.035 -0.503,-3.141 -1.028,-6.29 -0.69,-9.402 -1.182,-2.94 -0.643,-7.402 -0.755,-10.026 0.118,-5.301 0.784,-10.434 0.841,-15.705 0.024,-2.175 -0.097,-8.917 0.456,-11.402 1.076,-4.827 -0.598,-10.313 -0.498,-15.052 0.212,-9.736 2.023,-19.111 1.643,-28.916 z"
         id="path191" />
      <path
         inkscape:connector-curvature="0"
         d="m 345.935,312.56 c -2.862,-2.807 -3.725,1.005 -3.73,3.145 -0.019,5.117 -4.378,3.27 -8.258,3.26 -3.394,-0.009 -4.425,4.171 -0.695,4.376 1.954,0.109 6.246,-0.587 7.949,0.533 2.982,0.989 -1.544,5.848 3.493,5.083 2.54,-0.385 5.009,-2.997 6.808,-4.642 5.054,-4.62 -1.935,-8.227 -5.567,-11.755 -0.574,-0.564 1.699,1.65 0,0 z"
         id="path193" />
    </g>
  </g>
</svg>
