<?xml version="1.0" encoding="UTF-8" standalone="no"?>
<!-- Created with Inkscape (http://www.inkscape.org/) -->

<svg
   xmlns:dc="http://purl.org/dc/elements/1.1/"
   xmlns:cc="http://creativecommons.org/ns#"
   xmlns:rdf="http://www.w3.org/1999/02/22-rdf-syntax-ns#"
   xmlns:svg="http://www.w3.org/2000/svg"
   xmlns="http://www.w3.org/2000/svg"
   xmlns:sodipodi="http://sodipodi.sourceforge.net/DTD/sodipodi-0.dtd"
   xmlns:inkscape="http://www.inkscape.org/namespaces/inkscape"
   width="30.380159mm"
   height="30.380159mm"
   viewBox="0 0 30.380159 30.380159"
   version="1.1"
   id="svg10795"
   inkscape:version="0.92.3 (2405546, 2018-03-11)"
   sodipodi:docname="al_door_blocked.svg">
  <defs
     id="defs10789" />
  <sodipodi:namedview
     id="base"
     pagecolor="#ffffff"
     bordercolor="#666666"
     borderopacity="1.0"
     inkscape:pageopacity="0.0"
     inkscape:pageshadow="2"
     inkscape:zoom="2.8"
     inkscape:cx="-22.220572"
     inkscape:cy="43.916552"
     inkscape:document-units="mm"
     inkscape:current-layer="layer1"
     showgrid="false"
     inkscape:window-width="1366"
     inkscape:window-height="703"
     inkscape:window-x="0"
     inkscape:window-y="0"
     inkscape:window-maximized="1" />
  <metadata
     id="metadata10792">
    <rdf:RDF>
      <cc:Work
         rdf:about="">
        <dc:format>image/svg+xml</dc:format>
        <dc:type
           rdf:resource="http://purl.org/dc/dcmitype/StillImage" />
        <dc:title></dc:title>
      </cc:Work>
    </rdf:RDF>
  </metadata>
  <g
     inkscape:label="Layer 1"
     inkscape:groupmode="layer"
     id="layer1"
     transform="translate(-87.969315,-104.91706)">
    <g
       transform="matrix(0.26458333,0,0,0.26458333,-12.794671,35.440856)"
       id="Door_x2C__Barred">
      <path
         style="fill:#6e533b"
         inkscape:connector-curvature="0"
         d="m 462.037,365.666 c -2.995,0 -4.2,-1.717 -4.327,-3.324 -0.165,-2.06 -0.403,-5.052 0.149,-14.267 0.232,-3.858 0.104,-10.813 -0.048,-18.861 -0.201,-10.919 -0.432,-23.292 0.11,-33.128 0.042,-0.76 -0.105,-3.106 -0.251,-5.377 -0.469,-7.388 -0.541,-10.262 -0.013,-11.68 0.702,-1.88 2.294,-2.958 4.37,-2.958 1.096,0 2.364,0.301 3.878,0.918 3.18,1.293 3.12,5.257 3.072,8.443 -0.007,0.401 -0.011,0.799 -0.011,1.188 0,1.075 0.062,2.441 0.127,3.92 0.121,2.705 0.259,5.771 0.094,8.265 0,0 -0.011,0.192 -0.018,0.286 -0.427,6.798 -0.26,11.958 -0.084,17.421 0.162,5.034 0.33,10.239 0.016,16.918 -0.108,2.363 -0.087,6.611 -0.063,10.36 0.015,2.651 0.029,5.146 -0.003,6.813 -0.007,0.373 0.025,1.076 0.063,1.959 0.339,8.068 0.193,11.68 -2.629,12.383 -1.154,0.29 -2.876,0.721 -4.432,0.721 z m -19.656,-21.83 c -1.077,0 -2.035,-0.042 -2.535,-0.063 l -0.583,-0.024 c -4.356,-0.168 -7.172,-0.516 -8.664,-1.789 -2.731,-2.333 -2.127,-16.291 -0.933,-20.688 0.271,-0.999 -0.177,-3.327 -0.503,-5.024 -0.254,-1.322 -0.493,-2.57 -0.551,-3.66 -0.146,-2.65 -0.206,-5.345 -0.265,-7.95 l -0.039,-1.678 c -0.01,-0.384 -0.198,-9.426 2.15,-11.931 1.342,-1.431 3.636,-1.625 5.703,-1.625 0.923,0 1.875,0.047 2.737,0.091 0.48,0.023 0.935,0.047 1.326,0.057 3.123,0.074 9.628,0.23 10.144,5.025 0.326,3.041 -0.042,6.798 -0.397,10.434 -0.296,3.021 -0.576,5.873 -0.458,8.112 0.083,1.599 0.517,12.051 0.416,15.428 -0.025,0.855 0.021,2.202 0.07,3.626 0.229,6.607 0.162,9.224 -1.488,10.485 -0.757,0.579 -2.079,1.174 -6.13,1.174 z"
         id="path169" />
      <path
         inkscape:connector-curvature="0"
         d="m 472.606,280.968 c 0.271,-3.803 -0.36,-6.861 -4.112,-8.268 -2.501,-0.938 -7.634,0.264 -8.806,-1.529 -1.173,-1.793 -1.469,-10.846 -3.279,-8.053 -1.812,2.794 -0.361,12.934 -3,14.278 -2.64,1.344 -5.988,1.036 -9.601,1.317 -2.629,0.206 -10.06,0.348 -11.989,-2.38 -1.939,-2.738 -1.983,-6.564 -2.51,-10.304 -0.525,-3.74 -4.257,0.646 -4.154,5.101 0.103,4.453 -1.422,12.987 7.896,12.419 3.746,-0.229 4.706,3.231 1.423,2.548 -4.355,-0.907 -8.14,-0.401 -8.938,4.761 -1.354,8.736 0,16.482 -0.187,25.135 -0.157,8.056 0.073,20.74 -0.029,25.551 -0.104,4.813 1.123,6.468 4.722,6.938 2.588,0.327 7.846,0.558 8.673,2.988 0.828,2.433 -6.616,3.665 -8.681,3.938 -6.027,0.794 -5.991,3.841 -6.277,9.275 -0.146,2.748 -1.347,9.665 1.146,11.746 3.436,2.868 2.571,-1.011 2.92,-5.728 0.348,-4.718 -0.166,-7.511 3.476,-9.092 4.286,-1.851 12.089,-2.355 16.684,-1.72 5.254,0.727 4.832,4.667 4.985,9.061 0.051,1.41 0.193,8.956 2.104,6.361 1.91,-2.596 1.584,-5.852 2.618,-6.196 1.034,-0.347 2.802,-0.401 5.887,-0.148 6.616,0.543 8.117,-0.976 8.274,-5.411 0.158,-4.437 0.058,-38.264 0.214,-55.725 0.078,-8.964 -0.115,-17.917 0.541,-26.863 0.057,-0.799 -0.205,2.802 0,0 z m -32.714,60.421 c -1.85,-0.081 -6.48,-0.163 -7.743,-1.24 -1.264,-1.078 -1.594,-13.056 -0.182,-18.25 0.649,-2.401 -0.836,-6.869 -0.976,-9.439 -0.173,-3.172 -0.224,-6.376 -0.299,-9.556 -0.066,-2.76 0.303,-8.96 1.507,-10.245 1.204,-1.285 5.594,-0.784 7.969,-0.724 2.618,0.063 7.543,0.197 7.832,2.896 0.558,5.201 -1.142,13.184 -0.866,18.417 0.101,1.941 0.509,12.047 0.414,15.23 -0.096,3.186 0.688,11.394 -0.482,12.289 -1.174,0.898 -5.948,0.675 -7.174,0.622 z m 15.638,10.553 c 0.065,3.563 -8.127,1.948 -9.775,1.654 -2.047,-0.361 -2.331,-2.986 -0.104,-3.932 2.075,-0.88 7.327,-0.466 7.367,-2.898 0.041,-2.434 1.148,-19.515 0.676,-30.296 -0.396,-8.995 0.121,-25.083 -1.731,-28.159 -1.853,-3.077 -3.982,-1.578 -6.596,-2.083 -2.612,-0.504 0.141,-3.069 1.938,-3.039 2.246,0.042 8.188,-1.306 8.188,2.328 0,2.651 0.089,5.246 0.191,8.384 0.646,19.406 -0.538,38.68 -0.154,58.041 0.013,0.701 -0.204,-10.23 0,0 z m 11.283,-53.294 c -0.877,13.496 0.56,20.876 -0.09,34.67 -0.189,4.076 0.008,13.16 -0.068,17.242 -0.036,1.881 0.804,11.683 -0.761,12.071 -1.563,0.39 -5.652,1.467 -5.809,-0.479 -0.155,-1.946 -0.396,-4.762 0.153,-13.936 0.552,-9.175 -0.879,-34.877 0.063,-52.001 0.134,-2.428 -1.117,-14.457 -0.409,-16.354 0.708,-1.898 2.779,-1.618 5.113,-0.666 1.927,0.784 1.578,4.396 1.578,7.425 0.002,3.028 0.476,8.312 0.23,12.028 -0.078,1.196 0.079,-1.196 0,0 z"
         id="path171" />
    </g>
  </g>
</svg>
