<?xml version="1.0" encoding="UTF-8" standalone="no"?>
<!-- Created with Inkscape (http://www.inkscape.org/) -->

<svg
   xmlns:dc="http://purl.org/dc/elements/1.1/"
   xmlns:cc="http://creativecommons.org/ns#"
   xmlns:rdf="http://www.w3.org/1999/02/22-rdf-syntax-ns#"
   xmlns:svg="http://www.w3.org/2000/svg"
   xmlns="http://www.w3.org/2000/svg"
   xmlns:sodipodi="http://sodipodi.sourceforge.net/DTD/sodipodi-0.dtd"
   xmlns:inkscape="http://www.inkscape.org/namespaces/inkscape"
   width="32.23407mm"
   height="32.23407mm"
   viewBox="0 0 32.234071 32.23407"
   version="1.1"
   id="svg10177"
   inkscape:version="0.92.3 (2405546, 2018-03-11)"
   sodipodi:docname="al_door_secret_trans.svg">
  <defs
     id="defs10171" />
  <sodipodi:namedview
     id="base"
     pagecolor="#ffffff"
     bordercolor="#666666"
     borderopacity="1.0"
     inkscape:pageopacity="0.0"
     inkscape:pageshadow="2"
     inkscape:zoom="1.979899"
     inkscape:cx="-43.105045"
     inkscape:cy="49.971598"
     inkscape:document-units="mm"
     inkscape:current-layer="Door_x2C__Secret"
     showgrid="false"
     inkscape:window-width="1366"
     inkscape:window-height="703"
     inkscape:window-x="0"
     inkscape:window-y="0"
     inkscape:window-maximized="1" />
  <metadata
     id="metadata10174">
    <rdf:RDF>
      <cc:Work
         rdf:about="">
        <dc:format>image/svg+xml</dc:format>
        <dc:type
           rdf:resource="http://purl.org/dc/dcmitype/StillImage" />
        <dc:title></dc:title>
      </cc:Work>
    </rdf:RDF>
  </metadata>
  <g
     inkscape:label="Layer 1"
     inkscape:groupmode="layer"
     id="layer1"
     transform="translate(-90.131465,-86.603206)">
    <g
       transform="matrix(0.26458333,0,0,0.26458333,56.118146,18.053049)"
       id="Door_x2C__Secret">
      <path
         style="fill:none"
         inkscape:connector-curvature="0"
         d="m 200.854,354.044 c -1.389,0 -2.627,-0.047 -3.271,-0.071 l -0.753,-0.026 c -5.623,-0.189 -18.556,-0.58 -20.481,-2.017 -3.525,-2.629 -4.505,-21.11 -2.963,-26.065 0.349,-1.126 0.475,-8.974 0.399,-10.199 -0.188,-2.988 -0.266,-6.022 -0.34,-8.958 l -0.05,-1.892 c -0.014,-0.432 -0.257,-10.619 2.773,-13.443 1.731,-1.612 13.992,-1.83 16.661,-1.83 1.191,0 2.42,0.053 3.532,0.102 0.621,0.027 1.206,0.054 1.712,0.063 4.03,0.084 12.426,0.262 13.09,5.664 0.421,3.426 -0.055,7.659 -0.514,11.756 -0.382,3.403 -0.742,6.617 -0.59,9.141 0.106,1.802 0.666,13.578 0.536,17.385 -0.034,0.963 0.026,2.48 0.091,4.085 0.298,7.443 0.21,13.562 -1.921,14.983 -0.976,0.653 -2.683,1.322 -7.911,1.322 z"
         id="path174" />
      <path
         inkscape:connector-curvature="0"
         d="m 177.56,304.535 c 0.372,-8.053 0.786,-10.992 0.749,-16.56 -0.031,-4.583 -0.461,-10.737 0.774,-14.438 0.21,-1.282 0.805,-3.164 0.805,-6.578 0,-3.414 -0.718,-5.408 -1.415,-6.46 -0.696,-1.053 -2.26,-0.769 -3.957,0.069 -1.697,0.837 -3.285,1.218 -3.732,3.424 -0.448,2.207 -0.582,4.449 -0.793,9.034 -0.21,4.584 -0.346,7.381 -0.483,14.968 -0.137,7.587 0.555,9.385 0.345,11.795 -0.454,5.199 -0.527,10.948 -1.251,16.116 -0.735,3.149 -0.754,6.371 -0.853,9.577 -0.173,5.613 -0.301,11.23 -0.371,16.85 -0.031,2.407 0.121,4.814 0.192,7.222 0.048,1.606 0.144,2.837 0.144,8.951 0,6.114 -0.567,8.272 -0.723,11.481 -0.059,1.2 -0.081,2.411 0.013,3.605 0.06,0.784 0.286,1.578 0.569,2.316 0.289,0.76 0.842,1.364 1.446,1.879 0.615,0.522 1.3,0.938 2.005,1.328 1.213,0.675 2.92,1.126 4.604,-0.332 1.685,-1.459 0.69,-4.76 0.931,-9.728 0.241,-4.966 0.84,-10.151 0.88,-18.822 0.045,-9.745 -0.411,-11.667 -0.207,-23.752 0.204,-12.081 -0.044,-13.893 0.328,-21.945 z"
         id="path176" />
      <path
         inkscape:connector-curvature="0"
         d="m 216.729,275.559 c -0.27,-2.391 -0.407,-6.326 -0.804,-8.374 -0.396,-2.048 0.115,-5.375 -1.377,-6.78 -0.855,-0.805 -2.483,-2 -4.276,-0.827 -1.792,1.172 -1.608,5.657 -1.734,9.796 -0.126,4.139 -0.282,12.201 -0.235,14.135 0.106,4.425 -0.784,8.483 -1.067,13.156 -0.283,4.672 -0.8,15.188 -0.865,23.746 -0.064,8.557 0.867,22.938 0.815,27.853 -0.052,4.915 0.312,9.208 0.753,11.169 0.427,1.9 -0.501,7.433 -0.876,11.25 -0.375,3.818 -0.488,9.15 1.162,9.896 1.65,0.743 3.306,0.184 4.496,-0.935 1.189,-1.115 1.979,-4.006 2.111,-5.605 0.165,-1.996 0.139,-4.007 0.23,-6.01 0.094,-2.005 0.244,-4.007 0.348,-6.012 0.104,-2.008 0.049,-4.02 -0.176,-6.013 -0.357,-3.188 -0.548,-6.396 -1.056,-9.571 -0.254,-1.586 -0.309,-3.202 -0.185,-4.805 0.22,-2.806 -0.015,-5.628 0.275,-8.42 0.289,-2.807 0.03,-5.617 0.255,-8.419 -0.045,-3.615 0.177,-7.215 0.547,-10.813 0.412,-3.99 0.733,-7.992 0.718,-12.015 -0.009,-2.011 0.235,-3.999 0.577,-5.982 0.205,-1.186 0.568,-8.795 0.602,-9.595 0.141,-3.613 0.164,-7.225 -0.238,-10.825 z"
         id="path178" />
      <path
         inkscape:connector-curvature="0"
         d="m 193.328,350.688 c -0.772,0.249 -1.559,0.327 -2.365,0.37 -1.702,0.094 -6.754,-1.468 -7.679,-0.104 -0.925,1.362 -1.115,1.966 -0.983,3.88 0.133,1.914 4.449,2.341 6.415,2.541 1.966,0.2 3.673,-0.523 6.519,-0.575 2.845,-0.052 4.438,-1.148 5.278,-2.163 0.593,-0.715 1.498,-2.907 -0.881,-3.786 -2.38,-0.881 -4.331,-0.8 -6.304,-0.163 z"
         id="path180" />
      <path
         inkscape:connector-curvature="0"
         d="m 191.522,286.675 c 1.602,-0.056 3.204,-0.157 4.805,-0.145 0.789,0.007 1.581,0.199 2.365,0.352 1.251,0.24 2.134,1.047 2.745,2.09 0.625,1.068 -0.034,2.548 -1.139,2.814 -0.386,0.092 -0.774,0.195 -1.169,0.231 -3.989,0.365 -7.99,0.514 -11.995,0.535 -1.193,0.005 -2.319,-0.308 -3.288,-1.151 -0.679,-0.593 -0.984,-1.198 -0.721,-2.109 0.21,-0.726 0.572,-1.442 1.305,-1.874 0.671,-0.397 1.485,-0.561 2.287,-0.604 1.601,-0.086 3.202,-0.11 4.805,-0.16 0,0.006 0,0.012 0,0.021 z"
         id="path182" />
      <path
         inkscape:connector-curvature="0"
         d="m 192.869,332.027 c -1.667,0 -3.217,-0.178 -4.607,-0.53 -1.485,-0.379 -2.787,-1.193 -3.868,-2.424 -1.129,-1.275 -1.701,-3.133 -1.701,-5.52 0,-0.938 0.097,-1.763 0.289,-2.443 0.229,-0.825 0.723,-1.474 1.46,-1.934 l 1.016,1.415 c -0.146,0.184 -0.236,0.378 -0.276,0.603 -0.059,0.334 -0.088,0.736 -0.088,1.212 0,1.719 0.793,3.104 2.416,4.235 1.727,1.204 3.977,1.813 6.688,1.813 1.605,0 2.763,-0.296 3.441,-0.881 0.624,-0.535 0.927,-1.374 0.927,-2.565 0,-1.11 -0.313,-2.692 -3.029,-3.613 l -6.671,-1.721 c -3.548,-1.362 -4.273,-4.024 -4.273,-6.026 0,-1.648 0.516,-3.082 1.533,-4.26 1.023,-1.187 2.264,-1.786 3.68,-1.786 h 8.396 v 0.916 c 0,0.206 0.086,0.858 0.869,2.47 0.902,1.848 1.084,2.378 1.142,2.655 l -1.413,0.826 c -1.283,-1.596 -2.529,-2.742 -3.705,-3.411 -1.149,-0.648 -2.637,-0.982 -4.418,-0.982 -1.213,0 -2.089,0.253 -2.607,0.749 -0.5,0.476 -0.732,1.03 -0.732,1.752 0,0.466 0,1.879 2.914,2.654 2.359,0.631 4.684,1.231 6.967,1.813 2.882,1.221 4.345,3.45 4.345,6.484 0,2.34 -0.679,4.353 -2.021,5.992 -1.365,1.665 -3.61,2.507 -6.674,2.507 z"
         id="path184" />
    </g>
  </g>
</svg>
